<?xml version="1.0" standalone="yes"?>
<!DOCTYPE svg PUBLIC "-//W3C//DTD SVG 1.1//EN"
 "http://www.w3.org/Graphics/SVG/1.1/DTD/svg11.dtd">
<svg xmlns="http://www.w3.org/2000/svg" version="1.1"
  width="100%" height="100%" viewBox="0 0 1024 768"
  style="fill: none; font-family: Helvetica;
 font: Helvetica;
">

<!-- Creator: NGspice -->

<rect x="0" y="0" width="1024" height="768" fill="black" stroke="none"/>
<text stroke="none" fill="white" font-size="16" x="358" y="752">
time
</text>
<text stroke="none" fill="white" font-size="16" x="10" y="16">
tran1: run872_vin-0.133155
</text>
<path stroke="white" d="M50 704l0 -637"/>
<text stroke="none" fill="white" font-size="16" x="35" y="728">
0.0
</text>
<path stroke="white" stroke-dasharray="1,2" d="M182 704l0 -637"/>
<text stroke="none" fill="white" font-size="16" x="157" y="728">
100.0
</text>
<path stroke="white" stroke-dasharray="1,2" d="M314 704l0 -637"/>
<text stroke="none" fill="white" font-size="16" x="289" y="728">
200.0
</text>
<path stroke="white" stroke-dasharray="1,2" d="M446 704l0 -637"/>
<text stroke="none" fill="white" font-size="16" x="421" y="728">
300.0
</text>
<path stroke="white" stroke-dasharray="1,2" d="M578 704l0 -637"/>
<text stroke="none" fill="white" font-size="16" x="553" y="728">
400.0
</text>
<path stroke="white" stroke-dasharray="1,2" d="M710 704l0 -637"/>
<text stroke="none" fill="white" font-size="16" x="685" y="728">
500.0
</text>
<path stroke="white" stroke-dasharray="1,2" d="M842 704l0 -637"/>
<text stroke="none" fill="white" font-size="16" x="817" y="728">
600.0
</text>
<path stroke="white" stroke-dasharray="1,2" d="M974 704l0 -637"/>
<text stroke="none" fill="white" font-size="16" x="949" y="728">
700.0
</text>
<text stroke="none" fill="white" font-size="16" x="614" y="752">
ns
</text>
<path stroke="white" stroke-dasharray="1,2" d="M50 704l924 0"/>
<text stroke="none" fill="white" font-size="16" x="8" y="712">
-3.0
</text>
<path stroke="white" stroke-dasharray="1,2" d="M50 613l924 0"/>
<text stroke="none" fill="white" font-size="16" x="8" y="621">
-2.0
</text>
<path stroke="white" stroke-dasharray="1,2" d="M50 522l924 0"/>
<text stroke="none" fill="white" font-size="16" x="8" y="530">
-1.0
</text>
<path stroke="white" d="M50 431l924 0"/>
<text stroke="none" fill="white" font-size="16" x="18" y="439">
0.0
</text>
<path stroke="white" stroke-dasharray="1,2" d="M50 340l924 0"/>
<text stroke="none" fill="white" font-size="16" x="18" y="348">
1.0
</text>
<path stroke="white" stroke-dasharray="1,2" d="M50 249l924 0"/>
<text stroke="none" fill="white" font-size="16" x="18" y="257">
2.0
</text>
<path stroke="white" stroke-dasharray="1,2" d="M50 158l924 0"/>
<text stroke="none" fill="white" font-size="16" x="18" y="166">
3.0
</text>
<path stroke="white" stroke-dasharray="1,2" d="M50 67l924 0"/>
<text stroke="none" fill="white" font-size="16" x="18" y="75">
4.0
</text>
<text stroke="none" fill="white" font-size="16" x="10" y="32">
     
</text>
<path stroke="red" d="M462 23l46 0"/>
<text stroke="none" fill="white" font-size="16" x="518" y="32">
x1.vsampled_p
</text>
<path stroke="red" d="M50 431l1 0 1 -7 0 -15 1 -14 0 -5 1 2M54 415l0 -39 1 -5 0 -15 1 -2 0 -2 1 -2 2 0 1 -1 4 0M64 350l0 -1M64 350l4 0 1 -1 48 0M117 351l0 -2M117 351l1 3M118 357l0 -3M118 357l1 2M119 360l0 -1M119 360l1 1 420 0M540 362l0 -1 6 0"/>
<path stroke="red" d="M546 361l0 -25 1 -2 0 -22 1 -5 0 -3 1 -2 0 -1 1 0 0 -1 4 0 0 -1M554 300l13 0M567 302l0 -2 7 0M574 327l0 -27M574 327l1 8M575 343l0 -8M575 343l1 0 0 -1 1 0 0 -1 16 0M593 342l0 -1 26 0M619 342l0 -1 53 0M672 342l0 -1 7 0M679 347l0 -6"/>
<path stroke="red" d="M679 347l1 1M680 349l0 -3 26 0M706 350l0 -4M706 349l6 0 0 -1M712 349l26 0 0 -1 1 1 26 0 0 -1M765 349l21 0M786 350l0 -1 18 0M804 350l0 -1 27 0M831 350l0 -1 26 0M857 350l0 -1 26 0M883 350l0 -1 27 0M910 350l0 -1 7 0 0 -3 1 -3"/>
<path stroke="red" d="M918 364l0 -21M918 364l1 0 0 -2 1 0 1 -1 15 0M936 362l0 -1 38 0"/>
<path stroke="blue" d="M50 23l46 0"/>
<text stroke="none" fill="white" font-size="16" x="106" y="32">
x1.vsampled_n
</text>
<path stroke="blue" d="M50 431l1 0 1 -7 0 -15 1 -15 0 -4 1 1M54 415l0 -39 1 -5 0 -15 1 -2 0 -2 1 -2 2 0 1 -1 4 0M64 350l0 -1M64 350l4 0 1 -1 48 0 1 -4 0 -3 1 -2 0 -2 1 -1 420 0M540 338l0 -1 27 0M567 338l0 -1 26 0M593 338l0 -1 7 0M600 356l0 -19"/>
<path stroke="blue" d="M600 356l1 3M601 361l0 -2 1 -1 4 0 0 -1M606 358l14 0 0 -1M620 358l5 0 0 -7 1 -2 0 -9 1 0 0 -1 1 1 5 0 0 -1M633 340l20 0M653 349l0 -9M653 349l1 2 1 -1 76 0 1 -2 0 -1M732 348l27 0M759 350l0 -2M759 349l54 0M813 350l0 -1 18 0"/>
<path stroke="blue" d="M831 350l0 -1 86 0M917 352l0 -3M917 352l1 -2 0 -9 1 -1 0 -3 17 0M936 338l0 -1 38 0"/>
<path stroke="#FFA500" d="M462 39l46 0"/>
<text stroke="none" fill="white" font-size="16" x="518" y="48">
x1.vsampled_p-x1.vsampled_n
</text>
<path stroke="#FFA500" d="M50 431l67 0M117 433l0 -2M117 433l1 7M118 447l0 -7M118 447l1 3M119 453l0 -3M119 453l1 1M120 455l0 -1M120 455l426 0 0 -25 1 -2 0 -22 1 -5 0 -4 1 -1 0 -1 1 -1 17 0M567 395l0 -1 7 0M574 421l0 -27M574 421l1 7M575 437l0 -9"/>
<path stroke="#FFA500" d="M575 437l1 0 0 -1 1 -1 23 0 0 -19 1 -3 0 -2M601 413l1 1 17 0M619 415l0 -1 6 0M625 421l0 -7M625 421l1 2M626 432l0 -9M626 432l1 0M627 433l0 -1M627 433l1 -1 25 0 0 -9 1 -2 1 1 24 0M679 428l0 -6M679 428l1 1M680 430l0 -3"/>
<path stroke="#FFA500" d="M680 427l26 0M706 431l0 -4M706 430l25 0 1 2M732 433l0 -1 27 0 0 -2M759 431l27 0M786 432l0 -1 27 0 0 -1M813 431l25 0M838 432l0 -1 79 0 0 -6 1 -1M918 453l0 -29M918 453l1 2M919 456l0 -1M919 456l1 0 1 -1 53 0"/>
<path stroke="green" d="M50 39l46 0"/>
<text stroke="none" fill="white" font-size="16" x="106" y="48">
x1.sw_sample-2
</text>
<path stroke="green" d="M50 613l1 0 1 -9 0 -21 1 -21M53 581l0 -25M53 581l1 29M54 613l0 -3M54 613l63 0M117 620l0 -172M117 449l422 0M539 614l0 -171M539 613l422 0M961 618l0 -170 1 1 12 0"/>
<path stroke="#FFC0C5" d="M462 55l46 0"/>
<text stroke="none" fill="white" font-size="16" x="518" y="64">
x1.comp_out_p+2
</text>
<path stroke="#FFC0C5" d="M50 249l1 0 1 -9 0 -22 1 -18 0 -4M53 198l1 5M54 249l0 -46M54 249l514 0M568 250l0 -167M568 85l13 0 0 -7 1 130M582 250l0 -42M582 249l39 0 0 -165M621 85l13 0M634 250l0 -173M634 249l39 0M673 251l0 -2M673 251l1 -92 0 -75"/>
<path stroke="#FFC0C5" d="M674 85l13 0M687 250l0 -173M687 249l13 0 0 -165M700 85l13 0 1 -8M714 250l0 -173M714 249l13 0 0 -165M727 85l13 0M740 249l0 -171M740 249l40 0 0 -164 1 -1M781 85l0 -1M781 85l12 0M793 249l0 -173M793 249l41 0 0 -165M834 85l11 0"/>
<path stroke="#FFC0C5" d="M845 85l0 -10 1 143M846 249l0 -31M846 249l128 0"/>
<path stroke="#A52A2A" d="M50 55l46 0"/>
<text stroke="none" fill="white" font-size="16" x="106" y="64">
x1.comp_out_n-2
</text>
<path stroke="#A52A2A" d="M50 613l1 0 1 -9 0 -22 1 -19M53 564l0 -3M53 564l1 6M54 613l0 -43M54 613l488 0 0 -165M542 449l13 0M555 613l0 -172M555 613l39 0 0 -166M594 449l14 0M608 613l0 -173M608 613l39 0M647 614l0 -167M647 449l14 0M661 613l0 -172"/>
<path stroke="#A52A2A" d="M661 613l92 0 0 -165M753 449l13 0M766 613l0 -166M766 613l41 0 0 -165 1 1 11 0M819 614l0 -171M819 613l41 0 0 -165M860 449l12 0M872 614l0 -169M872 613l14 0 0 -165 1 1 11 0M898 614l0 -169M898 613l14 0 1 -157 0 -8M913 449l12 0"/>
<path stroke="#A52A2A" d="M925 613l0 -172M925 613l12 0M937 614l0 -1M937 614l1 -64 0 -102M938 449l13 0M951 614l0 -173M951 613l23 0"/>
</svg>
