<?xml version="1.0" standalone="yes"?>
<!DOCTYPE svg PUBLIC "-//W3C//DTD SVG 1.1//EN"
 "http://www.w3.org/Graphics/SVG/1.1/DTD/svg11.dtd">
<svg xmlns="http://www.w3.org/2000/svg" version="1.1"
  width="100%" height="100%" viewBox="0 0 1024 768"
  style="fill: none; font-family: Helvetica;
 font: Helvetica;
">

<!-- Creator: NGspice -->

<rect x="0" y="0" width="1024" height="768" fill="black" stroke="none"/>
<text stroke="none" fill="white" font-size="16" x="358" y="752">
time
</text>
<text stroke="none" fill="white" font-size="16" x="10" y="16">
tran1: run873_vin-0.132276
</text>
<path stroke="white" d="M50 704l0 -637"/>
<text stroke="none" fill="white" font-size="16" x="35" y="728">
0.0
</text>
<path stroke="white" stroke-dasharray="1,2" d="M182 704l0 -637"/>
<text stroke="none" fill="white" font-size="16" x="157" y="728">
100.0
</text>
<path stroke="white" stroke-dasharray="1,2" d="M314 704l0 -637"/>
<text stroke="none" fill="white" font-size="16" x="289" y="728">
200.0
</text>
<path stroke="white" stroke-dasharray="1,2" d="M446 704l0 -637"/>
<text stroke="none" fill="white" font-size="16" x="421" y="728">
300.0
</text>
<path stroke="white" stroke-dasharray="1,2" d="M578 704l0 -637"/>
<text stroke="none" fill="white" font-size="16" x="553" y="728">
400.0
</text>
<path stroke="white" stroke-dasharray="1,2" d="M710 704l0 -637"/>
<text stroke="none" fill="white" font-size="16" x="685" y="728">
500.0
</text>
<path stroke="white" stroke-dasharray="1,2" d="M842 704l0 -637"/>
<text stroke="none" fill="white" font-size="16" x="817" y="728">
600.0
</text>
<path stroke="white" stroke-dasharray="1,2" d="M974 704l0 -637"/>
<text stroke="none" fill="white" font-size="16" x="949" y="728">
700.0
</text>
<text stroke="none" fill="white" font-size="16" x="614" y="752">
ns
</text>
<path stroke="white" stroke-dasharray="1,2" d="M50 704l924 0"/>
<text stroke="none" fill="white" font-size="16" x="8" y="712">
-3.0
</text>
<path stroke="white" stroke-dasharray="1,2" d="M50 613l924 0"/>
<text stroke="none" fill="white" font-size="16" x="8" y="621">
-2.0
</text>
<path stroke="white" stroke-dasharray="1,2" d="M50 522l924 0"/>
<text stroke="none" fill="white" font-size="16" x="8" y="530">
-1.0
</text>
<path stroke="white" d="M50 431l924 0"/>
<text stroke="none" fill="white" font-size="16" x="18" y="439">
0.0
</text>
<path stroke="white" stroke-dasharray="1,2" d="M50 340l924 0"/>
<text stroke="none" fill="white" font-size="16" x="18" y="348">
1.0
</text>
<path stroke="white" stroke-dasharray="1,2" d="M50 249l924 0"/>
<text stroke="none" fill="white" font-size="16" x="18" y="257">
2.0
</text>
<path stroke="white" stroke-dasharray="1,2" d="M50 158l924 0"/>
<text stroke="none" fill="white" font-size="16" x="18" y="166">
3.0
</text>
<path stroke="white" stroke-dasharray="1,2" d="M50 67l924 0"/>
<text stroke="none" fill="white" font-size="16" x="18" y="75">
4.0
</text>
<text stroke="none" fill="white" font-size="16" x="10" y="32">
     
</text>
<path stroke="red" d="M462 23l46 0"/>
<text stroke="none" fill="white" font-size="16" x="518" y="32">
x1.vsampled_p
</text>
<path stroke="red" d="M50 431l1 0 1 -7 0 -15 1 -14 0 -5 1 2M54 415l0 -39 1 -5 0 -15 1 -2 0 -2 1 -2 2 0 1 -1 4 0M64 350l0 -1M64 350l4 0 1 -1 48 0M117 351l0 -2M117 351l1 3M118 357l0 -3M118 357l1 2M119 360l0 -1M119 360l1 1 420 0M540 362l0 -1 6 0"/>
<path stroke="red" d="M546 361l0 -22 1 -2 0 -22 1 -7 0 -4 1 -2 0 -1 1 -1 4 0 0 -1M554 300l13 0M567 302l0 -2 7 0M574 325l0 -25M574 325l1 7M575 343l0 -11M575 343l1 0 0 -1 1 0 0 -1 3 0 0 -1M580 341l99 0M679 345l0 -4M679 345l1 1M680 348l0 -2 26 0"/>
<path stroke="red" d="M706 350l0 -4M706 349l6 0 0 -1 1 0M713 349l0 -1M713 349l12 0 0 -1M725 349l13 0 0 -1 1 0M739 349l0 -1M739 349l12 0 0 -1M751 349l1 0 0 -1M752 349l13 0 0 -1M765 349l13 0 0 -1M778 349l7 0 1 1 0 -1 18 0M804 350l0 -1 27 0M831 350l0 -1"/>
<path stroke="red" d="M831 349l26 0M857 350l0 -1 26 0M883 350l0 -1 27 0M910 350l0 -1 7 0 0 -5 1 3M918 364l0 -17M918 364l1 0 0 -2 1 0 0 -1 16 0M936 362l0 -1 38 0"/>
<path stroke="blue" d="M50 23l46 0"/>
<text stroke="none" fill="white" font-size="16" x="106" y="32">
x1.vsampled_n
</text>
<path stroke="blue" d="M50 431l1 0 1 -7 0 -15 1 -15 0 -4 1 1M54 415l0 -39 1 -5 0 -15 1 -2 0 -2 1 -2 2 0 1 -1 4 0M64 350l0 -1M64 350l4 0 1 -1 48 0 1 -4 0 -3 1 -2 0 -2 1 0 0 -1 420 0M540 338l0 -1 27 0M567 338l0 -1 26 0M593 338l0 -1 7 0M600 353l0 -16"/>
<path stroke="blue" d="M600 353l1 3M601 361l0 -5M601 360l1 -1 0 -1 23 0 0 -9 1 -1 0 -8 7 0 0 -1M633 340l20 0M653 349l0 -9M653 349l1 2 1 -1 77 0 0 -3M732 348l27 0M759 350l0 -2M759 349l54 0M813 350l0 -1 17 0 1 1 0 -1 86 0M917 353l0 -4M917 353l1 -1"/>
<path stroke="blue" d="M918 352l0 -11 1 -1 0 -3 17 0M936 338l0 -1 38 0"/>
<path stroke="#FFA500" d="M462 39l46 0"/>
<text stroke="none" fill="white" font-size="16" x="518" y="48">
x1.vsampled_p-x1.vsampled_n
</text>
<path stroke="#FFA500" d="M50 431l67 0M117 433l0 -2M117 433l1 7M118 447l0 -7M118 447l1 3M119 453l0 -3M119 453l1 1M120 455l0 -1M120 455l426 0 0 -23 1 -1 0 -23 1 -6 0 -5 1 -1 0 -1 1 -1 4 0 0 -1M554 394l13 0M567 395l0 -2M567 394l7 0M574 419l0 -25"/>
<path stroke="#FFA500" d="M574 419l1 7M575 437l0 -11M575 437l2 -2 23 0 0 -16 1 -3 0 -5M601 412l1 1M602 414l0 -1M602 414l17 0M619 415l0 -1 6 0M625 423l0 -9M625 423l1 1M626 432l0 -8M626 432l27 0 0 -9 1 -2 1 0M655 422l0 -1M655 422l24 0M679 426l0 -4"/>
<path stroke="#FFA500" d="M679 426l1 1M680 429l0 -2 26 0M706 431l0 -4M706 430l6 0 0 -1 1 0M713 430l0 -1M713 430l12 0 0 -1 1 1 6 0M732 433l0 -3M732 432l27 0 0 -3M759 430l19 0M778 431l0 -1 7 0M785 431l0 -1M785 431l1 0M786 432l0 -1 27 0 0 -1M813 431l104 0"/>
<path stroke="#FFA500" d="M917 431l0 -9M917 423l1 3M918 453l0 -27M918 453l1 2M919 456l0 -1M919 456l1 0 0 -1 54 0"/>
<path stroke="green" d="M50 39l46 0"/>
<text stroke="none" fill="white" font-size="16" x="106" y="48">
x1.sw_sample-2
</text>
<path stroke="green" d="M50 613l1 0 1 -9 0 -21 1 -21M53 581l0 -25M53 581l1 29M54 613l0 -3M54 613l63 0M117 620l0 -172M117 449l422 0M539 614l0 -171M539 613l422 0M961 618l0 -170 1 1 12 0"/>
<path stroke="#FFC0C5" d="M462 55l46 0"/>
<text stroke="none" fill="white" font-size="16" x="518" y="64">
x1.comp_out_p+2
</text>
<path stroke="#FFC0C5" d="M50 249l1 0 1 -9 0 -22 1 -18 0 -4M53 198l1 5M54 249l0 -46M54 249l514 0M568 250l0 -166M568 85l13 0 0 -7 1 132M582 250l0 -40M582 249l39 0 0 -166M621 85l13 0M634 250l0 -173M634 249l39 0M673 251l0 -2M673 251l1 -90 0 -78"/>
<path stroke="#FFC0C5" d="M674 85l13 0M687 249l0 -172M687 249l13 0 0 -166M700 85l13 0 0 -8 1 161M714 250l0 -12M714 249l13 0 0 -165M727 85l13 0M740 250l0 -174M740 249l40 0 0 -165M780 85l13 0M793 249l0 -166M793 249l41 0 0 -165M834 85l11 0 0 -2"/>
<path stroke="#FFC0C5" d="M845 85l1 150M846 249l0 -14M846 249l128 0"/>
<path stroke="#A52A2A" d="M50 55l46 0"/>
<text stroke="none" fill="white" font-size="16" x="106" y="64">
x1.comp_out_n-2
</text>
<path stroke="#A52A2A" d="M50 613l1 0 1 -9 0 -22 1 -19M53 564l0 -3M53 564l1 6M54 613l0 -43M54 613l488 0 0 -166M542 449l13 0M555 613l0 -172M555 613l39 0M594 615l0 -168M594 448l1 1 13 0M608 613l0 -168M608 613l39 0M647 616l0 -169M647 449l14 0M661 614l0 -170"/>
<path stroke="#A52A2A" d="M661 613l92 0M753 614l0 -166M753 449l13 0M766 614l0 -170M766 613l41 0 0 -151 1 -14M808 449l0 -1M808 449l11 0M819 613l0 -169M819 613l41 0 0 -165 1 1 11 0M872 613l0 -172M872 613l14 0 1 -150 0 -15M887 449l11 0M898 613l0 -174"/>
<path stroke="#A52A2A" d="M898 613l14 0 1 -158 0 -7M913 449l12 0M925 613l0 -172M925 613l12 0M937 618l0 -5M937 618l1 -129 0 -42M938 449l13 0M951 614l0 -168M951 613l23 0"/>
</svg>
