<?xml version="1.0" standalone="yes"?>
<!DOCTYPE svg PUBLIC "-//W3C//DTD SVG 1.1//EN"
 "http://www.w3.org/Graphics/SVG/1.1/DTD/svg11.dtd">
<svg xmlns="http://www.w3.org/2000/svg" version="1.1"
  width="100%" height="100%" viewBox="0 0 1024 768"
  style="fill: none; font-family: Helvetica;
 font: Helvetica;
">

<!-- Creator: NGspice -->

<rect x="0" y="0" width="1024" height="768" fill="black" stroke="none"/>
<text stroke="none" fill="white" font-size="16" x="358" y="752">
time
</text>
<text stroke="none" fill="white" font-size="16" x="10" y="16">
tran1: run878_vin-0.127882
</text>
<path stroke="white" d="M50 704l0 -637"/>
<text stroke="none" fill="white" font-size="16" x="35" y="728">
0.0
</text>
<path stroke="white" stroke-dasharray="1,2" d="M182 704l0 -637"/>
<text stroke="none" fill="white" font-size="16" x="157" y="728">
100.0
</text>
<path stroke="white" stroke-dasharray="1,2" d="M314 704l0 -637"/>
<text stroke="none" fill="white" font-size="16" x="289" y="728">
200.0
</text>
<path stroke="white" stroke-dasharray="1,2" d="M446 704l0 -637"/>
<text stroke="none" fill="white" font-size="16" x="421" y="728">
300.0
</text>
<path stroke="white" stroke-dasharray="1,2" d="M578 704l0 -637"/>
<text stroke="none" fill="white" font-size="16" x="553" y="728">
400.0
</text>
<path stroke="white" stroke-dasharray="1,2" d="M710 704l0 -637"/>
<text stroke="none" fill="white" font-size="16" x="685" y="728">
500.0
</text>
<path stroke="white" stroke-dasharray="1,2" d="M842 704l0 -637"/>
<text stroke="none" fill="white" font-size="16" x="817" y="728">
600.0
</text>
<path stroke="white" stroke-dasharray="1,2" d="M974 704l0 -637"/>
<text stroke="none" fill="white" font-size="16" x="949" y="728">
700.0
</text>
<text stroke="none" fill="white" font-size="16" x="614" y="752">
ns
</text>
<path stroke="white" stroke-dasharray="1,2" d="M50 704l924 0"/>
<text stroke="none" fill="white" font-size="16" x="8" y="712">
-3.0
</text>
<path stroke="white" stroke-dasharray="1,2" d="M50 613l924 0"/>
<text stroke="none" fill="white" font-size="16" x="8" y="621">
-2.0
</text>
<path stroke="white" stroke-dasharray="1,2" d="M50 522l924 0"/>
<text stroke="none" fill="white" font-size="16" x="8" y="530">
-1.0
</text>
<path stroke="white" d="M50 431l924 0"/>
<text stroke="none" fill="white" font-size="16" x="18" y="439">
0.0
</text>
<path stroke="white" stroke-dasharray="1,2" d="M50 340l924 0"/>
<text stroke="none" fill="white" font-size="16" x="18" y="348">
1.0
</text>
<path stroke="white" stroke-dasharray="1,2" d="M50 249l924 0"/>
<text stroke="none" fill="white" font-size="16" x="18" y="257">
2.0
</text>
<path stroke="white" stroke-dasharray="1,2" d="M50 158l924 0"/>
<text stroke="none" fill="white" font-size="16" x="18" y="166">
3.0
</text>
<path stroke="white" stroke-dasharray="1,2" d="M50 67l924 0"/>
<text stroke="none" fill="white" font-size="16" x="18" y="75">
4.0
</text>
<text stroke="none" fill="white" font-size="16" x="10" y="32">
     
</text>
<path stroke="red" d="M462 23l46 0"/>
<text stroke="none" fill="white" font-size="16" x="518" y="32">
x1.vsampled_p
</text>
<path stroke="red" d="M50 431l1 0 1 -7 0 -15 1 -14 0 -5 1 2M54 415l0 -39 1 -5 0 -15 1 -2 0 -2 1 -2 2 0 1 -1 4 0M64 350l0 -1M64 350l4 0 1 -1 48 0M117 351l0 -2M117 351l1 3M118 357l0 -3M118 357l1 2M119 360l0 -1M119 360l1 0 1 1 425 0 0 -22 1 -2 0 -27"/>
<path stroke="red" d="M547 310l1 -5 0 -2 1 -2 0 -1 5 0 0 -1 1 1 11 0 0 -1M566 300l1 0M567 301l0 -1 7 0M574 329l0 -29M574 329l1 8M575 342l0 -5M575 342l1 0 0 -1 4 0 0 -1 13 0M593 341l0 -1M593 341l13 0 0 -1 13 0M619 341l0 -1M619 341l1 0 0 -1M620 341l13 0"/>
<path stroke="red" d="M633 341l0 -1 13 0M646 341l0 -1M646 341l13 0 0 -1 13 0M672 341l0 -1M672 341l7 0M679 346l0 -6M679 346l1 1M680 348l0 -2 6 0 0 -1M686 346l20 0M706 349l0 -3M706 349l1 -1 18 0M725 349l0 -1 26 0M751 349l0 -1 8 0M759 351l0 -3M759 350l1 0"/>
<path stroke="red" d="M760 350l0 -1 18 0M778 350l0 -1 26 0M804 350l0 -1 26 0 1 1 0 -1 87 0M918 353l0 -11M918 353l1 2M919 363l0 -8M919 363l1 -1 0 -1 54 0"/>
<path stroke="blue" d="M50 23l46 0"/>
<text stroke="none" fill="white" font-size="16" x="106" y="32">
x1.vsampled_n
</text>
<path stroke="blue" d="M50 431l1 0 1 -7 0 -15 1 -15 0 -4 1 1M54 415l0 -39 1 -5 0 -15 1 -2 0 -2 1 -2 2 0 1 -1 4 0M64 350l0 -1M64 350l4 0 1 -1 48 0 1 -4 0 -3 1 -2 0 -1 1 -1 2 0 0 -1 417 0M539 338l0 -1M539 338l15 0 0 -1M554 338l26 0 0 -1M580 338l20 0"/>
<path stroke="blue" d="M600 354l0 -16M600 354l1 2M601 361l0 -5M601 361l1 -2 1 -1 22 0 0 -6 1 -3 0 -8 1 -1 19 0M646 341l0 -1 7 0M653 350l0 -10M653 350l1 2 0 -1 2 0 0 -1 16 0M672 351l0 -1 26 0 1 1 0 -1 26 0M725 351l0 -1 6 0 0 -3 1 0M732 348l0 -1"/>
<path stroke="blue" d="M732 348l19 0M751 349l0 -1 27 0M778 349l0 -1 7 0M785 349l0 -1M785 349l27 0M812 350l0 -1 19 0M831 350l0 -1 26 0M857 350l0 -1 26 0M883 350l0 -1 27 0M910 350l0 -1 8 0M918 352l0 -3M918 351l1 -1 0 -11 1 -1 0 -1 1 0M921 338l0 -1"/>
<path stroke="blue" d="M921 338l2 0 0 -1M923 338l27 0 0 -1M950 338l12 0 0 -1 12 0"/>
<path stroke="#FFA500" d="M462 39l46 0"/>
<text stroke="none" fill="white" font-size="16" x="518" y="48">
x1.vsampled_p-x1.vsampled_n
</text>
<path stroke="#FFA500" d="M50 431l67 0M117 433l0 -2M117 433l1 7M118 446l0 -6M118 446l1 4M119 452l0 -2M119 452l2 2 425 0 0 -22 1 -2 0 -27 1 -5 0 -2 1 -2 1 -1 17 0M567 394l0 -1 6 0 1 1M574 422l0 -28M574 422l1 8M575 436l0 -6M575 436l1 0 0 -1 1 -1"/>
<path stroke="#FFA500" d="M577 434l23 0 0 -16 1 -3 0 -5M601 411l1 1M602 413l0 -1M602 413l17 0M619 414l0 -1 1 0M620 414l0 -1 5 0M625 419l0 -6M625 419l1 3M626 431l0 -9M626 431l1 0M627 432l0 -1M627 432l1 0 0 -1 25 0 0 -9 1 -2 1 1 24 0M679 427l0 -6"/>
<path stroke="#FFA500" d="M679 427l1 1M680 429l0 -3 26 0M706 430l0 -4M706 429l25 0M731 432l0 -3M731 432l1 0 0 -1 27 0M759 433l0 -2M759 432l26 0 0 -1 1 1 26 0 0 -1 106 0M918 434l0 -12M918 434l1 2M919 455l0 -19M919 455l2 0 0 -1 2 0M923 455l0 -1"/>
<path stroke="#FFA500" d="M923 454l51 0"/>
<path stroke="green" d="M50 39l46 0"/>
<text stroke="none" fill="white" font-size="16" x="106" y="48">
x1.sw_sample-2
</text>
<path stroke="green" d="M50 613l1 0 1 -9 0 -21 1 -21M53 581l0 -25M53 581l1 29M54 613l0 -3M54 613l63 0M117 620l0 -172M117 449l422 0M539 614l0 -171M539 613l422 0M961 618l0 -170 1 1 12 0"/>
<path stroke="#FFC0C5" d="M462 55l46 0"/>
<text stroke="none" fill="white" font-size="16" x="518" y="64">
x1.comp_out_p+2
</text>
<path stroke="#FFC0C5" d="M50 249l1 0 1 -9 0 -22 1 -18 0 -4M53 198l1 5M54 249l0 -46M54 249l514 0M568 250l0 -166M568 85l13 0 0 -8 1 151M582 249l0 -21M582 249l39 0M621 251l0 -167M621 85l13 0M634 249l0 -172M634 249l39 0 0 -14 1 -126 0 -26M674 85l13 0"/>
<path stroke="#FFC0C5" d="M687 250l0 -172M687 249l13 0M700 252l0 -169M700 85l13 0M713 86l0 -9 1 145M714 249l0 -27M714 249l13 0 0 -165M727 85l13 0M740 250l0 -170M740 249l13 0 0 -151 1 -14M754 85l0 -1M754 85l12 0M766 250l0 -173M766 249l94 0 0 -165"/>
<path stroke="#FFC0C5" d="M860 84l1 1 11 0M872 249l0 -173M872 249l15 0 0 -165M887 85l11 0M898 249l0 -174M898 249l15 0 0 -165M913 85l12 0M925 250l0 -174M925 249l49 0"/>
<path stroke="#A52A2A" d="M50 55l46 0"/>
<text stroke="none" fill="white" font-size="16" x="106" y="64">
x1.comp_out_n-2
</text>
<path stroke="#A52A2A" d="M50 613l1 0 1 -9 0 -22 1 -19M53 564l0 -3M53 564l1 6M54 613l0 -43M54 613l487 0 1 1 0 -167M542 449l13 0M555 614l0 -171M555 613l39 0M594 615l0 -168M594 448l1 1 13 0M608 614l0 -173M608 613l13 0M621 614l0 -1 26 0M647 616l0 -169"/>
<path stroke="#A52A2A" d="M647 449l14 0M661 614l0 -166M661 613l118 0 1 -144 0 -21M780 449l13 0M793 613l0 -167M793 613l14 0 0 -165M807 449l12 0M819 613l0 -173M819 613l15 0 0 -165M834 449l11 0M845 450l0 -3M845 450l1 152M846 613l0 -11M846 613l91 0"/>
<path stroke="#A52A2A" d="M937 614l0 -1M937 614l1 -73 0 -93M938 449l13 0M951 614l0 -167M951 613l23 0"/>
</svg>
