<?xml version="1.0" standalone="yes"?>
<!DOCTYPE svg PUBLIC "-//W3C//DTD SVG 1.1//EN"
 "http://www.w3.org/Graphics/SVG/1.1/DTD/svg11.dtd">
<svg xmlns="http://www.w3.org/2000/svg" version="1.1"
  width="100%" height="100%" viewBox="0 0 1024 768"
  style="fill: none; font-family: Helvetica;
 font: Helvetica;
">

<!-- Creator: NGspice -->

<rect x="0" y="0" width="1024" height="768" fill="black" stroke="none"/>
<text stroke="none" fill="white" font-size="16" x="358" y="752">
time
</text>
<text stroke="none" fill="white" font-size="16" x="10" y="16">
tran1: run1257_vin0.205223
</text>
<path stroke="white" d="M50 704l0 -637"/>
<text stroke="none" fill="white" font-size="16" x="35" y="728">
0.0
</text>
<path stroke="white" stroke-dasharray="1,2" d="M182 704l0 -637"/>
<text stroke="none" fill="white" font-size="16" x="157" y="728">
100.0
</text>
<path stroke="white" stroke-dasharray="1,2" d="M314 704l0 -637"/>
<text stroke="none" fill="white" font-size="16" x="289" y="728">
200.0
</text>
<path stroke="white" stroke-dasharray="1,2" d="M446 704l0 -637"/>
<text stroke="none" fill="white" font-size="16" x="421" y="728">
300.0
</text>
<path stroke="white" stroke-dasharray="1,2" d="M578 704l0 -637"/>
<text stroke="none" fill="white" font-size="16" x="553" y="728">
400.0
</text>
<path stroke="white" stroke-dasharray="1,2" d="M710 704l0 -637"/>
<text stroke="none" fill="white" font-size="16" x="685" y="728">
500.0
</text>
<path stroke="white" stroke-dasharray="1,2" d="M842 704l0 -637"/>
<text stroke="none" fill="white" font-size="16" x="817" y="728">
600.0
</text>
<path stroke="white" stroke-dasharray="1,2" d="M974 704l0 -637"/>
<text stroke="none" fill="white" font-size="16" x="949" y="728">
700.0
</text>
<text stroke="none" fill="white" font-size="16" x="614" y="752">
ns
</text>
<path stroke="white" stroke-dasharray="1,2" d="M50 704l924 0"/>
<text stroke="none" fill="white" font-size="16" x="8" y="712">
-3.0
</text>
<path stroke="white" stroke-dasharray="1,2" d="M50 613l924 0"/>
<text stroke="none" fill="white" font-size="16" x="8" y="621">
-2.0
</text>
<path stroke="white" stroke-dasharray="1,2" d="M50 522l924 0"/>
<text stroke="none" fill="white" font-size="16" x="8" y="530">
-1.0
</text>
<path stroke="white" d="M50 431l924 0"/>
<text stroke="none" fill="white" font-size="16" x="18" y="439">
0.0
</text>
<path stroke="white" stroke-dasharray="1,2" d="M50 340l924 0"/>
<text stroke="none" fill="white" font-size="16" x="18" y="348">
1.0
</text>
<path stroke="white" stroke-dasharray="1,2" d="M50 249l924 0"/>
<text stroke="none" fill="white" font-size="16" x="18" y="257">
2.0
</text>
<path stroke="white" stroke-dasharray="1,2" d="M50 158l924 0"/>
<text stroke="none" fill="white" font-size="16" x="18" y="166">
3.0
</text>
<path stroke="white" stroke-dasharray="1,2" d="M50 67l924 0"/>
<text stroke="none" fill="white" font-size="16" x="18" y="75">
4.0
</text>
<text stroke="none" fill="white" font-size="16" x="10" y="32">
     
</text>
<path stroke="red" d="M462 23l46 0"/>
<text stroke="none" fill="white" font-size="16" x="518" y="32">
x1.vsampled_p
</text>
<path stroke="red" d="M50 431l1 0 1 -7 0 -15 1 -15 0 -4 1 1M54 415l0 -39 1 -5 0 -14 1 -3 0 -2 1 -2 2 0 1 -1 4 0M64 350l0 -1M64 350l4 0 1 -1 48 0 1 -6 0 -8 1 -3 1 -1 2 0 0 -1 417 0M539 331l0 -1M539 331l15 0 0 -1M554 331l26 0 0 -1M580 331l20 0"/>
<path stroke="red" d="M600 345l0 -14M600 345l1 2M601 354l0 -7M601 354l1 -1 0 -1 1 -1 23 0 0 -17 1 0 0 -1 19 0M646 334l0 -1 7 0M653 343l0 -10M653 343l1 1M654 345l0 -1 2 0 0 -1 16 0M672 344l0 -1 7 0M679 348l0 -5M679 348l1 1M680 350l0 -1 6 0 0 -1"/>
<path stroke="red" d="M686 348l12 0 1 1 0 -1M699 349l13 0 0 -1 13 0M725 349l0 -1M725 349l13 0 0 -1 13 0M751 349l0 -1M751 349l1 0 0 -1M752 349l13 0 0 -1 13 0M778 349l0 -1M778 349l7 0 1 1 0 -1 132 0M918 350l0 -11 1 -2 0 -6 1 -1 1 1 2 0 0 -1M923 331l27 0"/>
<path stroke="red" d="M950 331l0 -1M950 331l12 0 0 -1 12 0"/>
<path stroke="blue" d="M50 23l46 0"/>
<text stroke="none" fill="white" font-size="16" x="106" y="32">
x1.vsampled_n
</text>
<path stroke="blue" d="M50 431l1 0 1 -7 0 -15 1 -14 0 -5 1 2M54 415l0 -39 1 -5 0 -14 1 -3 0 -2 1 -2 2 0 1 -1 4 0M64 350l0 -1M64 350l4 0 1 -1 48 0M117 352l0 -3M117 352l1 5M118 364l0 -7M118 364l1 2 2 2 425 0 0 -26 1 -3 0 -21 1 -5 0 -3 1 -2 0 -1"/>
<path stroke="blue" d="M549 307l5 0 0 -1M554 307l13 0M567 308l0 -1 7 0M574 338l0 -31M574 338l1 4M575 349l0 -7M575 349l1 1 0 -1 1 -1 3 0 0 -1 13 0M593 348l0 -1M593 348l13 0 0 -1 13 0M619 348l0 -1M619 348l1 0 0 -1M620 348l13 0 0 -1 13 0M646 348l0 -1"/>
<path stroke="blue" d="M646 348l13 0 0 -1 13 0M672 348l0 -1 1 0M673 348l0 -1M673 348l13 0 0 -1 12 0 1 1 0 -1M699 348l7 0M706 351l0 -4M706 351l1 0 0 -1 24 0 0 -1 1 -2M732 348l0 -1M732 348l27 0M759 350l0 -2M759 349l19 0M778 350l0 -1 26 0M804 350l0 -1"/>
<path stroke="blue" d="M804 349l9 0M813 350l0 -1 17 0 1 1 0 -1 26 0M857 350l0 -1 26 0M883 350l0 -1 27 0M910 350l0 -1 8 0M918 366l0 -17M918 366l1 2M919 371l0 -3M919 370l1 -1 0 -1 54 0"/>
<path stroke="#FFA500" d="M462 39l46 0"/>
<text stroke="none" fill="white" font-size="16" x="518" y="48">
x1.vsampled_p-x1.vsampled_n
</text>
<path stroke="#FFA500" d="M50 431l67 0 0 -3 1 -11 0 -15 1 -5 1 -2 0 -1 426 0M546 420l0 -26M546 420l1 3M547 444l0 -21M547 444l1 5M548 452l0 -3M548 452l1 1M549 454l0 -1M549 454l1 1 17 0 0 -1M567 455l7 0 0 -31 1 -4 0 -8 1 0M576 413l0 -1M576 413l1 0"/>
<path stroke="#FFA500" d="M577 414l0 -1M577 414l16 0M593 415l0 -1 7 0M600 429l0 -15M600 429l1 2M601 438l0 -7M601 437l1 -1 0 -1 17 0 0 -1M619 435l7 0 0 -17 1 -1 0 -1 1 0M628 417l0 -1M628 417l18 0 0 -1M646 417l7 0M653 426l0 -9M653 426l1 2 1 0 0 -1"/>
<path stroke="#FFA500" d="M655 427l24 0M679 432l0 -5M679 432l1 1M680 434l0 -2 26 0 0 -4 1 1 18 0M725 430l0 -1 6 0M731 431l0 -2M731 431l1 1M732 433l0 -1 27 0 0 -3M759 430l26 0M785 431l0 -1M785 431l1 0M786 432l0 -1 27 0 0 -1M813 431l105 0M918 432l0 -29"/>
<path stroke="#FFA500" d="M918 403l1 -3 0 -8 2 2 2 0 0 -1M923 394l27 0 0 -1M950 394l24 0"/>
<path stroke="green" d="M50 39l46 0"/>
<text stroke="none" fill="white" font-size="16" x="106" y="48">
x1.sw_sample-2
</text>
<path stroke="green" d="M50 613l1 0 1 -9 0 -21 1 -21M53 581l0 -25M53 581l1 29M54 613l0 -3M54 613l63 0M117 620l0 -172M117 449l422 0M539 614l0 -171M539 613l422 0M961 618l0 -170 1 1 12 0"/>
<path stroke="#FFC0C5" d="M462 55l46 0"/>
<text stroke="none" fill="white" font-size="16" x="518" y="64">
x1.comp_out_p+2
</text>
<path stroke="#FFC0C5" d="M50 249l1 0 1 -9 0 -22 1 -18 0 -4M53 198l1 5M54 249l0 -46M54 249l487 0 1 1 0 -166M542 85l13 0M555 250l0 -165M555 249l39 0M594 252l0 -168M594 85l14 0M608 250l0 -169M608 249l39 0 0 -166M647 85l14 0M661 250l0 -168M661 249l12 0"/>
<path stroke="#FFC0C5" d="M673 250l0 -1M673 250l1 -57 0 -109M674 85l13 0M687 249l0 -172M687 249l40 0 0 -165M727 85l13 0M740 249l0 -174M740 249l40 0 0 -165M780 85l13 0M793 249l0 -166M793 249l41 0 0 -165M834 85l11 0 0 -2M845 85l1 150M846 249l0 -14"/>
<path stroke="#FFC0C5" d="M846 249l91 0 1 -48 0 -117M938 85l13 0M951 250l0 -167M951 249l23 0"/>
<path stroke="#A52A2A" d="M50 55l46 0"/>
<text stroke="none" fill="white" font-size="16" x="106" y="64">
x1.comp_out_n-2
</text>
<path stroke="#A52A2A" d="M50 613l1 0 1 -9 0 -22 1 -19M53 564l0 -3M53 564l1 6M54 613l0 -43M54 613l514 0M568 615l0 -168M568 449l13 0 0 -9 1 162M582 613l0 -11M582 613l39 0 0 -165M621 449l13 0M634 613l0 -172M634 613l40 0M674 614l0 -1 26 0 0 -165"/>
<path stroke="#A52A2A" d="M700 448l1 0M701 449l0 -1M701 449l12 0 0 -9 1 165M714 614l0 -9M714 613l39 0 0 -165 1 1 12 0M766 614l0 -170M766 613l41 0 0 -152 1 -13M808 449l0 -1M808 449l11 0M819 613l0 -169M819 613l41 0 0 -165 1 1 11 0M872 613l0 -174"/>
<path stroke="#A52A2A" d="M872 613l14 0 1 -158 0 -7M887 449l11 0M898 613l0 -174M898 613l15 0 0 -165M913 449l12 0M925 614l0 -173M925 613l49 0"/>
</svg>
