<?xml version="1.0" standalone="yes"?>
<!DOCTYPE svg PUBLIC "-//W3C//DTD SVG 1.1//EN"
 "http://www.w3.org/Graphics/SVG/1.1/DTD/svg11.dtd">
<svg xmlns="http://www.w3.org/2000/svg" version="1.1"
  width="100%" height="100%" viewBox="0 0 1024 768"
  style="fill: none; font-family: Helvetica;
 font: Helvetica;
">

<!-- Creator: NGspice -->

<rect x="0" y="0" width="1024" height="768" fill="black" stroke="none"/>
<text stroke="none" fill="white" font-size="16" x="358" y="752">
time
</text>
<text stroke="none" fill="white" font-size="16" x="10" y="16">
tran1: run464_vin-0.491749
</text>
<path stroke="white" d="M50 704l0 -637"/>
<text stroke="none" fill="white" font-size="16" x="35" y="728">
0.0
</text>
<path stroke="white" stroke-dasharray="1,2" d="M182 704l0 -637"/>
<text stroke="none" fill="white" font-size="16" x="157" y="728">
100.0
</text>
<path stroke="white" stroke-dasharray="1,2" d="M314 704l0 -637"/>
<text stroke="none" fill="white" font-size="16" x="289" y="728">
200.0
</text>
<path stroke="white" stroke-dasharray="1,2" d="M446 704l0 -637"/>
<text stroke="none" fill="white" font-size="16" x="421" y="728">
300.0
</text>
<path stroke="white" stroke-dasharray="1,2" d="M578 704l0 -637"/>
<text stroke="none" fill="white" font-size="16" x="553" y="728">
400.0
</text>
<path stroke="white" stroke-dasharray="1,2" d="M710 704l0 -637"/>
<text stroke="none" fill="white" font-size="16" x="685" y="728">
500.0
</text>
<path stroke="white" stroke-dasharray="1,2" d="M842 704l0 -637"/>
<text stroke="none" fill="white" font-size="16" x="817" y="728">
600.0
</text>
<path stroke="white" stroke-dasharray="1,2" d="M974 704l0 -637"/>
<text stroke="none" fill="white" font-size="16" x="949" y="728">
700.0
</text>
<text stroke="none" fill="white" font-size="16" x="614" y="752">
ns
</text>
<path stroke="white" stroke-dasharray="1,2" d="M50 704l924 0"/>
<text stroke="none" fill="white" font-size="16" x="8" y="712">
-3.0
</text>
<path stroke="white" stroke-dasharray="1,2" d="M50 613l924 0"/>
<text stroke="none" fill="white" font-size="16" x="8" y="621">
-2.0
</text>
<path stroke="white" stroke-dasharray="1,2" d="M50 522l924 0"/>
<text stroke="none" fill="white" font-size="16" x="8" y="530">
-1.0
</text>
<path stroke="white" d="M50 431l924 0"/>
<text stroke="none" fill="white" font-size="16" x="18" y="439">
0.0
</text>
<path stroke="white" stroke-dasharray="1,2" d="M50 340l924 0"/>
<text stroke="none" fill="white" font-size="16" x="18" y="348">
1.0
</text>
<path stroke="white" stroke-dasharray="1,2" d="M50 249l924 0"/>
<text stroke="none" fill="white" font-size="16" x="18" y="257">
2.0
</text>
<path stroke="white" stroke-dasharray="1,2" d="M50 158l924 0"/>
<text stroke="none" fill="white" font-size="16" x="18" y="166">
3.0
</text>
<path stroke="white" stroke-dasharray="1,2" d="M50 67l924 0"/>
<text stroke="none" fill="white" font-size="16" x="18" y="75">
4.0
</text>
<text stroke="none" fill="white" font-size="16" x="10" y="32">
     
</text>
<path stroke="red" d="M462 23l46 0"/>
<text stroke="none" fill="white" font-size="16" x="518" y="32">
x1.vsampled_p
</text>
<path stroke="red" d="M50 431l1 0 1 -7 0 -15 1 -14 0 -5 1 2M54 415l0 -40 1 -4 0 -14 1 -2 0 -3 2 -2 1 0 1 -1 3 0 1 1 4 0 1 -1 48 0M117 359l0 -10M117 359l1 12M118 384l0 -13M118 384l1 4M119 391l0 -3M119 391l2 2M121 394l0 -1M121 394l425 0 0 -26 1 -3"/>
<path stroke="red" d="M547 365l0 -24 1 -2 0 -4 1 -1 0 -1 5 0 0 -1M554 333l13 0M567 334l0 -1 13 0 0 -1M580 333l20 0M600 350l0 -17M600 350l1 3M601 359l0 -6M601 357l1 -2 0 -1 1 -1 22 0 0 -2 1 -6 0 -11 1 0 1 1 18 0M646 336l0 -1 7 0M653 345l0 -10"/>
<path stroke="red" d="M653 345l1 1M654 348l0 -2M654 347l1 -1 1 0 0 -1 16 0M672 346l0 -1 7 0 1 3M680 354l0 -6M680 352l1 -1 5 0 0 -1M686 351l12 0 0 -1M698 351l1 0 0 -1M699 351l13 0 0 -1M712 351l13 0 0 -1M725 351l6 0 0 -4 1 0M732 348l0 -1M732 348l19 0"/>
<path stroke="red" d="M751 349l0 -1M751 349l1 -1 26 0M778 349l0 -1 7 0M785 349l0 -1M785 349l1 0M786 350l0 -1 26 0M812 350l0 -1M812 350l1 0 0 -1 18 0M831 350l0 -1 86 0M917 350l0 -1M917 350l1 0M918 383l0 -33M918 383l1 4M919 396l0 -9M919 396l1 0"/>
<path stroke="red" d="M920 396l0 -1 1 0 0 -1 53 0"/>
<path stroke="blue" d="M50 23l46 0"/>
<text stroke="none" fill="white" font-size="16" x="106" y="32">
x1.vsampled_n
</text>
<path stroke="blue" d="M50 431l1 0 1 -7 0 -15 1 -15 0 -4 1 1M54 414l0 -39 1 -4 0 -14 1 -2 0 -3 2 -2 1 0 1 -1 3 0 1 1 4 0 1 -1 48 0 0 -1 1 -10 0 -20 1 -5 0 -5 1 -2 1 -1 1 0 1 -1 416 0M539 305l0 -1M539 305l1 0M540 306l0 -1 14 0 0 -1 1 0M555 305l0 -1"/>
<path stroke="blue" d="M555 305l11 0 0 -1M566 305l1 0M567 306l0 -1 6 0 0 -1 1 5M574 326l0 -17M574 326l1 9M575 345l0 -10M575 345l1 0M576 346l0 -1M576 346l4 0 0 -1 13 0M593 346l0 -1M593 346l13 0 0 -1 13 0M619 346l0 -1M619 346l1 0 0 -1M620 346l5 0"/>
<path stroke="blue" d="M625 346l1 -1M626 346l0 -1M626 346l7 0 0 -1 13 0M646 346l0 -1M646 346l13 0 0 -1 13 0M672 346l0 -1 1 0M673 346l0 -1M673 346l13 0 0 -1 12 0 1 1 0 -1M699 346l7 0M706 349l0 -4M706 349l1 -1 52 0M759 350l0 -2M759 350l1 -1 18 0"/>
<path stroke="blue" d="M778 350l0 -1 26 0M804 350l0 -1 27 0M831 350l0 -1 26 0M857 350l0 -1 26 0M883 350l0 -1 27 0M910 350l0 -1 7 0 1 -1 0 -23 1 -2 0 -9 1 -3 0 -3 1 -1 0 -1 1 0 0 -1 1 0 0 -1M923 305l13 0M936 306l0 -2M936 305l14 0 0 -1 1 0M951 305l0 -1"/>
<path stroke="blue" d="M951 305l10 0 0 -1 13 0"/>
<path stroke="#FFA500" d="M462 39l46 0"/>
<text stroke="none" fill="white" font-size="16" x="518" y="48">
x1.vsampled_p-x1.vsampled_n
</text>
<path stroke="#FFA500" d="M50 431l2 0 1 1 1 0 0 -1 63 0M117 442l0 -11M117 442l1 21M118 497l0 -34M118 497l1 8M119 515l0 -10M119 515l2 4M121 520l0 -1M121 520l425 0 0 -26 1 -3 0 -24 1 -1 0 -4 1 -1 0 -1 1 -1 17 0M567 460l0 -2M567 459l6 0 1 -4 0 -18"/>
<path stroke="#FFA500" d="M574 437l1 -8 0 -10 1 0 0 -1 17 0M593 419l0 -1 7 0M600 435l0 -17M600 435l1 4M601 445l0 -6M601 443l1 -2 0 -1 1 -1 22 0 0 -2 1 -7 0 -10 2 0 1 1 4 0 0 -1M633 421l20 0M653 430l0 -9M653 430l1 2M654 434l0 -2 1 0 0 -1 24 0"/>
<path stroke="#FFA500" d="M679 431l1 2M680 439l0 -6M680 437l1 0 0 -1 25 0 0 -3 1 0M707 434l0 -1M707 434l18 0 0 -1M725 434l6 0 0 -4 1 0M732 431l0 -1M732 431l27 0 0 -2M759 430l26 0 1 1 26 0 1 1 0 -1 26 0 0 -1M839 431l78 0M917 432l0 -1M917 432l1 0"/>
<path stroke="#FFA500" d="M918 489l0 -57M918 489l1 6M919 513l0 -18M919 513l1 3M920 518l0 -2M920 518l1 1M921 520l0 -1M921 520l2 0M923 521l0 -1 13 0 0 -1M936 520l14 0M950 521l0 -1 12 0M962 521l0 -1M962 521l2 0 1 -1 9 0"/>
<path stroke="green" d="M50 39l46 0"/>
<text stroke="none" fill="white" font-size="16" x="106" y="48">
x1.sw_sample-2
</text>
<path stroke="green" d="M50 613l1 0 1 -9 0 -21 1 -21M53 580l0 -24M53 580l1 30M54 613l0 -3M54 613l63 0M117 620l0 -172M117 449l422 0M539 614l0 -171M539 613l422 0M961 618l0 -170 1 1 12 0"/>
<path stroke="#FFC0C5" d="M462 55l46 0"/>
<text stroke="none" fill="white" font-size="16" x="518" y="64">
x1.comp_out_p+2
</text>
<path stroke="#FFC0C5" d="M50 249l1 0 1 -9 0 -22 1 -18 0 -4M53 198l1 5M54 250l0 -47M54 248l1 1 539 0 0 -166M594 85l14 0M608 249l0 -166M608 249l39 0 0 -165M647 85l14 0M661 249l0 -173M661 249l13 0M674 250l0 -167M674 85l13 0M687 250l0 -173M687 249l93 0"/>
<path stroke="#FFC0C5" d="M780 250l0 -166M780 85l13 0M793 249l0 -174M793 249l14 0 0 -165M807 85l12 0M819 249l0 -171M819 249l41 0 0 -164 12 0M872 249l0 -174M872 249l14 0 0 -165 1 1 11 0M898 249l0 -174M898 249l14 0 1 -150 0 -15M913 85l12 0M925 250l0 -171"/>
<path stroke="#FFC0C5" d="M925 249l49 0"/>
<path stroke="#A52A2A" d="M50 55l46 0"/>
<text stroke="none" fill="white" font-size="16" x="106" y="64">
x1.comp_out_n-2
</text>
<path stroke="#A52A2A" d="M50 613l1 0 1 -9 0 -22 1 -19M53 564l0 -3M53 564l1 6M54 613l0 -43M54 613l488 0 0 -165M542 449l13 0M555 614l0 -173M555 613l13 0 0 -166M568 449l13 0 0 -8 1 157M582 613l0 -15M582 613l39 0M621 617l0 -170M621 449l13 0M634 613l0 -166"/>
<path stroke="#A52A2A" d="M634 613l66 0M700 614l0 -167M700 449l13 0 0 -7 1 145M714 613l0 -26M714 613l13 0 0 -165M727 449l13 0M740 613l0 -173M740 613l13 0 0 -142 1 -22 0 -2M754 449l12 0M766 613l0 -172M766 613l68 0 1 -158 0 -7M835 449l10 0 0 -6"/>
<path stroke="#A52A2A" d="M845 443l1 123M846 614l0 -48M846 613l91 0M937 618l0 -5M937 618l1 -145 0 -26M938 449l13 0M951 613l0 -173M951 613l23 0"/>
</svg>
