<?xml version="1.0" standalone="yes"?>
<!DOCTYPE svg PUBLIC "-//W3C//DTD SVG 1.1//EN"
 "http://www.w3.org/Graphics/SVG/1.1/DTD/svg11.dtd">
<svg xmlns="http://www.w3.org/2000/svg" version="1.1"
  width="100%" height="100%" viewBox="0 0 1024 768"
  style="fill: none; font-family: Helvetica;
 font: Helvetica;
">

<!-- Creator: NGspice -->

<rect x="0" y="0" width="1024" height="768" fill="black" stroke="none"/>
<text stroke="none" fill="white" font-size="16" x="358" y="752">
time
</text>
<text stroke="none" fill="white" font-size="16" x="10" y="16">
tran1: run469_vin-0.487354
</text>
<path stroke="white" d="M50 704l0 -637"/>
<text stroke="none" fill="white" font-size="16" x="35" y="728">
0.0
</text>
<path stroke="white" stroke-dasharray="1,2" d="M182 704l0 -637"/>
<text stroke="none" fill="white" font-size="16" x="157" y="728">
100.0
</text>
<path stroke="white" stroke-dasharray="1,2" d="M314 704l0 -637"/>
<text stroke="none" fill="white" font-size="16" x="289" y="728">
200.0
</text>
<path stroke="white" stroke-dasharray="1,2" d="M446 704l0 -637"/>
<text stroke="none" fill="white" font-size="16" x="421" y="728">
300.0
</text>
<path stroke="white" stroke-dasharray="1,2" d="M578 704l0 -637"/>
<text stroke="none" fill="white" font-size="16" x="553" y="728">
400.0
</text>
<path stroke="white" stroke-dasharray="1,2" d="M710 704l0 -637"/>
<text stroke="none" fill="white" font-size="16" x="685" y="728">
500.0
</text>
<path stroke="white" stroke-dasharray="1,2" d="M842 704l0 -637"/>
<text stroke="none" fill="white" font-size="16" x="817" y="728">
600.0
</text>
<path stroke="white" stroke-dasharray="1,2" d="M974 704l0 -637"/>
<text stroke="none" fill="white" font-size="16" x="949" y="728">
700.0
</text>
<text stroke="none" fill="white" font-size="16" x="614" y="752">
ns
</text>
<path stroke="white" stroke-dasharray="1,2" d="M50 704l924 0"/>
<text stroke="none" fill="white" font-size="16" x="8" y="712">
-2.5
</text>
<path stroke="white" stroke-dasharray="1,2" d="M50 655l924 0"/>
<text stroke="none" fill="white" font-size="16" x="8" y="663">
-2.0
</text>
<path stroke="white" stroke-dasharray="1,2" d="M50 606l924 0"/>
<text stroke="none" fill="white" font-size="16" x="8" y="614">
-1.5
</text>
<path stroke="white" stroke-dasharray="1,2" d="M50 557l924 0"/>
<text stroke="none" fill="white" font-size="16" x="8" y="565">
-1.0
</text>
<path stroke="white" stroke-dasharray="1,2" d="M50 508l924 0"/>
<text stroke="none" fill="white" font-size="16" x="8" y="516">
-0.5
</text>
<path stroke="white" d="M50 459l924 0"/>
<text stroke="none" fill="white" font-size="16" x="18" y="467">
0.0
</text>
<path stroke="white" stroke-dasharray="1,2" d="M50 410l924 0"/>
<text stroke="none" fill="white" font-size="16" x="18" y="418">
0.5
</text>
<path stroke="white" stroke-dasharray="1,2" d="M50 361l924 0"/>
<text stroke="none" fill="white" font-size="16" x="18" y="369">
1.0
</text>
<path stroke="white" stroke-dasharray="1,2" d="M50 312l924 0"/>
<text stroke="none" fill="white" font-size="16" x="18" y="320">
1.5
</text>
<path stroke="white" stroke-dasharray="1,2" d="M50 263l924 0"/>
<text stroke="none" fill="white" font-size="16" x="18" y="271">
2.0
</text>
<path stroke="white" stroke-dasharray="1,2" d="M50 214l924 0"/>
<text stroke="none" fill="white" font-size="16" x="18" y="222">
2.5
</text>
<path stroke="white" stroke-dasharray="1,2" d="M50 165l924 0"/>
<text stroke="none" fill="white" font-size="16" x="18" y="173">
3.0
</text>
<path stroke="white" stroke-dasharray="1,2" d="M50 116l924 0"/>
<text stroke="none" fill="white" font-size="16" x="18" y="124">
3.5
</text>
<path stroke="white" stroke-dasharray="1,2" d="M50 67l924 0"/>
<text stroke="none" fill="white" font-size="16" x="18" y="75">
4.0
</text>
<text stroke="none" fill="white" font-size="16" x="10" y="32">
     
</text>
<path stroke="red" d="M462 23l46 0"/>
<text stroke="none" fill="white" font-size="16" x="518" y="32">
x1.vsampled_p
</text>
<path stroke="red" d="M50 459l1 0 1 -7 0 -17 1 -15 0 -5 1 2M54 441l0 -42 1 -5 0 -15 1 -2 0 -3 1 -2 1 0 0 -1 59 0M117 381l0 -10M117 381l1 13M118 409l0 -15M118 409l1 3M119 416l0 -4M119 416l2 2 2 0M123 419l0 -1M123 419l418 0 0 -1M541 419l5 0 0 -25"/>
<path stroke="red" d="M546 394l1 -4 0 -27 1 -2 0 -6 2 -2 4 0 0 -1M554 353l13 0M567 354l0 -1 13 0 0 -1M580 353l13 0M593 354l0 -1 7 0M600 371l0 -18M600 371l1 4M601 381l0 -6M601 379l1 -2 0 -1 1 -1 22 0 0 -12 1 -1 0 -8 1 0M627 355l0 -1M627 355l2 0"/>
<path stroke="red" d="M629 355l1 1 3 0 0 -1 13 0M646 356l0 -1M646 356l7 0M653 368l0 -13M653 368l1 1 0 -1 1 -1 1 0 1 -1 15 0M672 367l0 -1 7 0M679 373l0 -7M679 373l1 0M680 375l0 -2 1 -1 50 0 1 -2 0 -2M732 369l1 0M733 370l0 -1M733 370l5 0 0 -1 13 0"/>
<path stroke="red" d="M751 370l0 -1M751 370l1 0 0 -1M752 370l7 0M759 373l0 -3M759 371l158 0M917 375l0 -4M917 375l1 1M918 409l0 -33M918 409l1 4M919 421l0 -8M919 421l2 -2 41 0 0 -1 1 1 11 0"/>
<path stroke="blue" d="M50 23l46 0"/>
<text stroke="none" fill="white" font-size="16" x="106" y="32">
x1.vsampled_n
</text>
<path stroke="blue" d="M50 459l1 0 1 -7 0 -17 1 -16 0 -5 1 2M54 441l0 -42 1 -5 0 -15 1 -2 0 -3 1 -2 1 0 0 -1 59 0 0 -1 1 -11 0 -21 1 -5 0 -6 1 -2 2 -2 418 0M540 324l0 -1 26 0 1 1 0 -1 7 0M574 347l0 -24M574 347l1 10M575 366l0 -9M575 366l1 1 17 0"/>
<path stroke="blue" d="M593 368l0 -1 26 0M619 368l0 -1 27 0M646 368l0 -1 26 0M672 368l0 -1 26 0 1 1 0 -1 7 0M706 371l0 -4M706 370l79 0M785 371l0 -1M785 371l27 0M812 372l0 -1 26 0 0 -1M838 371l79 0M917 372l0 -6 1 -4 0 -18 1 -2 0 -10 1 -3 0 -2"/>
<path stroke="blue" d="M920 327l1 -2 0 -1 2 0 0 -1 13 0M936 325l0 -2 38 0"/>
<path stroke="#FFA500" d="M462 39l46 0"/>
<text stroke="none" fill="white" font-size="16" x="518" y="48">
x1.vsampled_p-x1.vsampled_n
</text>
<path stroke="#FFA500" d="M50 459l2 0 1 1 1 0 0 -1 63 0M117 470l0 -11M117 470l1 24M118 530l0 -36M118 530l1 8M119 548l0 -10M119 548l1 3 1 2M121 554l0 -1M121 554l4 0M125 555l0 -1M125 555l414 0 0 -1 1 0M540 555l0 -1 6 0M546 555l0 -26 1 -3 0 -28"/>
<path stroke="#FFA500" d="M547 498l1 -1 0 -6 3 -3 3 0M554 489l0 -1 13 0M567 489l0 -1 7 0M574 489l0 -25 1 -9 0 -10 1 0 0 -1 17 0M593 445l0 -1 7 0M600 463l0 -19M600 463l1 4M601 473l0 -6M601 470l1 -1 0 -2 1 0 0 -1 16 0M619 467l0 -1M619 467l1 0 0 -1"/>
<path stroke="#FFA500" d="M620 466l5 0 0 -11 1 -2 0 -7 1 0 1 1 18 0M646 448l0 -1 7 0M653 459l0 -12M653 459l1 2 0 -2 1 0 0 -1 24 0M679 464l0 -6M679 464l1 1M680 467l0 -3 26 0 0 -4M706 461l25 0 0 -1 1 -1 0 -2M732 458l19 0M751 459l0 -1M751 459l1 0"/>
<path stroke="#FFA500" d="M752 459l0 -1 7 0M759 461l0 -3M759 460l26 0 0 -1 27 0 0 -1M812 459l105 0M917 467l0 -9M917 467l1 6M918 524l0 -51M918 524l1 6M919 548l0 -18M919 548l1 3M920 552l0 -1M920 552l1 1M921 554l0 -1M921 554l2 0M923 555l0 -1 13 0"/>
<path stroke="#FFA500" d="M936 554l0 -1M936 554l14 0M950 555l0 -1 12 0M962 555l0 -1M962 555l12 0"/>
<path stroke="green" d="M50 39l46 0"/>
<text stroke="none" fill="white" font-size="16" x="106" y="48">
x1.sw_sample-2
</text>
<path stroke="green" d="M50 655l1 0 1 -10 0 -23 1 -21M53 619l0 -25M53 619l1 33M54 655l0 -3M54 655l63 0M117 662l0 -184 1 0M118 479l0 -1M118 479l421 0M539 656l0 -184M539 655l422 0M961 660l0 -182 1 0M962 479l0 -1M962 479l12 0"/>
<path stroke="#FFC0C5" d="M462 55l46 0"/>
<text stroke="none" fill="white" font-size="16" x="518" y="64">
x1.comp_out_p+2
</text>
<path stroke="#FFC0C5" d="M50 263l1 0 1 -10 0 -23 1 -20 0 -4M53 209l1 4M54 264l0 -51M54 262l1 1 539 0M594 264l0 -179M594 86l1 1 13 0M608 263l0 -185M608 263l39 0M647 265l0 -180M647 87l14 0M661 264l0 -187M661 263l13 0 0 -178M674 87l13 0M687 263l0 -186"/>
<path stroke="#FFC0C5" d="M687 263l66 0 0 -178 1 1M754 87l0 -1M754 87l12 0M766 263l0 -185M766 263l68 0 0 -177M834 87l11 0 0 -3M845 85l1 162M846 263l0 -16M846 263l128 0"/>
<path stroke="#A52A2A" d="M50 55l46 0"/>
<text stroke="none" fill="white" font-size="16" x="106" y="64">
x1.comp_out_n-2
</text>
<path stroke="#A52A2A" d="M50 655l1 0 1 -10 0 -24 1 -20M53 602l0 -3M53 602l1 7M54 655l0 -46M54 655l487 0 1 1 0 -180M542 479l13 0M555 656l0 -186M555 655l13 0M568 657l0 -181M568 479l13 0 0 -9 1 165M582 655l0 -20M582 655l39 0M621 661l0 -185M621 479l13 0"/>
<path stroke="#A52A2A" d="M634 655l0 -185M634 655l13 0M647 656l0 -1 53 0M700 660l0 -184M700 479l13 0 0 -10 1 177M714 656l0 -10M714 655l13 0 0 -177M727 479l13 0M740 656l0 -187M740 655l40 0 0 -177M780 479l13 0M793 655l0 -188M793 655l14 0 0 -177"/>
<path stroke="#A52A2A" d="M807 478l1 0M808 479l0 -1M808 479l11 0M819 655l0 -180M819 655l41 0 0 -177 1 1 11 0M872 655l0 -188M872 655l14 0 0 -170 1 -7M887 479l0 -1M887 479l11 0M898 655l0 -188M898 655l14 0 1 -170 0 -7M913 479l12 0M925 655l0 -186"/>
<path stroke="#A52A2A" d="M925 655l12 0M937 662l0 -7M937 662l1 -156 0 -29M938 479l13 0M951 655l0 -186M951 655l23 0"/>
</svg>
