<?xml version="1.0" standalone="yes"?>
<!DOCTYPE svg PUBLIC "-//W3C//DTD SVG 1.1//EN"
 "http://www.w3.org/Graphics/SVG/1.1/DTD/svg11.dtd">
<svg xmlns="http://www.w3.org/2000/svg" version="1.1"
  width="100%" height="100%" viewBox="0 0 1024 768"
  style="fill: none; font-family: Helvetica;
 font: Helvetica;
">

<!-- Creator: NGspice -->

<rect x="0" y="0" width="1024" height="768" fill="black" stroke="none"/>
<text stroke="none" fill="white" font-size="16" x="358" y="752">
time
</text>
<text stroke="none" fill="white" font-size="16" x="10" y="16">
tran1: run1709_vin0.602488
</text>
<path stroke="white" d="M50 704l0 -637"/>
<text stroke="none" fill="white" font-size="16" x="35" y="728">
0.0
</text>
<path stroke="white" stroke-dasharray="1,2" d="M182 704l0 -637"/>
<text stroke="none" fill="white" font-size="16" x="157" y="728">
100.0
</text>
<path stroke="white" stroke-dasharray="1,2" d="M314 704l0 -637"/>
<text stroke="none" fill="white" font-size="16" x="289" y="728">
200.0
</text>
<path stroke="white" stroke-dasharray="1,2" d="M446 704l0 -637"/>
<text stroke="none" fill="white" font-size="16" x="421" y="728">
300.0
</text>
<path stroke="white" stroke-dasharray="1,2" d="M578 704l0 -637"/>
<text stroke="none" fill="white" font-size="16" x="553" y="728">
400.0
</text>
<path stroke="white" stroke-dasharray="1,2" d="M710 704l0 -637"/>
<text stroke="none" fill="white" font-size="16" x="685" y="728">
500.0
</text>
<path stroke="white" stroke-dasharray="1,2" d="M842 704l0 -637"/>
<text stroke="none" fill="white" font-size="16" x="817" y="728">
600.0
</text>
<path stroke="white" stroke-dasharray="1,2" d="M974 704l0 -637"/>
<text stroke="none" fill="white" font-size="16" x="949" y="728">
700.0
</text>
<text stroke="none" fill="white" font-size="16" x="614" y="752">
ns
</text>
<path stroke="white" stroke-dasharray="1,2" d="M50 704l924 0"/>
<text stroke="none" fill="white" font-size="16" x="8" y="712">
-3.0
</text>
<path stroke="white" stroke-dasharray="1,2" d="M50 613l924 0"/>
<text stroke="none" fill="white" font-size="16" x="8" y="621">
-2.0
</text>
<path stroke="white" stroke-dasharray="1,2" d="M50 522l924 0"/>
<text stroke="none" fill="white" font-size="16" x="8" y="530">
-1.0
</text>
<path stroke="white" d="M50 431l924 0"/>
<text stroke="none" fill="white" font-size="16" x="18" y="439">
0.0
</text>
<path stroke="white" stroke-dasharray="1,2" d="M50 340l924 0"/>
<text stroke="none" fill="white" font-size="16" x="18" y="348">
1.0
</text>
<path stroke="white" stroke-dasharray="1,2" d="M50 249l924 0"/>
<text stroke="none" fill="white" font-size="16" x="18" y="257">
2.0
</text>
<path stroke="white" stroke-dasharray="1,2" d="M50 158l924 0"/>
<text stroke="none" fill="white" font-size="16" x="18" y="166">
3.0
</text>
<path stroke="white" stroke-dasharray="1,2" d="M50 67l924 0"/>
<text stroke="none" fill="white" font-size="16" x="18" y="75">
4.0
</text>
<text stroke="none" fill="white" font-size="16" x="10" y="32">
     
</text>
<path stroke="red" d="M462 23l46 0"/>
<text stroke="none" fill="white" font-size="16" x="518" y="32">
x1.vsampled_p
</text>
<path stroke="red" d="M50 431l1 0 1 -7 0 -15 1 -15 0 -4 1 1M54 414l0 -37 1 -4 0 -17 1 -3 0 -2 1 -1 2 0 1 -1 4 0M64 350l0 -1M64 350l4 0 1 -1 48 0 0 -1 1 -10 0 -30 1 -4 0 -3 1 -3 0 -2 1 -1 1 0 0 -1 417 0M539 295l0 -1M539 295l1 0 0 -1M540 295l14 0"/>
<path stroke="red" d="M554 295l0 -1 12 0 1 1M567 296l0 -1 7 0M574 314l0 -19M574 314l1 7M575 331l0 -10M575 331l1 4M576 336l0 -1M576 336l1 0 1 -1 15 0M593 336l0 -1 7 0M600 350l0 -15M600 350l1 4M601 357l0 -3M601 357l1 -1 23 0 0 -9 1 -1 0 -7 1 0"/>
<path stroke="red" d="M627 339l0 -1 26 0M653 345l0 -7M653 345l1 2M654 349l0 -2M654 349l1 -1 44 0M699 349l0 -1 26 0M725 349l0 -1 26 0M751 349l0 -1 27 0M778 349l0 -1 7 0M785 349l0 -1M785 349l27 0M812 350l0 -1 109 0 0 -15 1 -1 0 -24 1 -1 0 -9 1 0"/>
<path stroke="red" d="M924 299l0 -3 1 0 0 -1 2 0 0 -1 9 0M936 296l0 -2M936 295l14 0 0 -1 24 0"/>
<path stroke="blue" d="M50 23l46 0"/>
<text stroke="none" fill="white" font-size="16" x="106" y="32">
x1.vsampled_n
</text>
<path stroke="blue" d="M50 431l1 0 1 -7 0 -15 1 -14 0 -5 1 2M54 414l0 -37 1 -4 0 -17 1 -3 0 -2 1 -1 2 0 1 -1 4 0M64 350l0 -1M64 350l4 0 1 -1 48 0M117 362l0 -13M117 362l1 15M118 395l0 -18M118 395l1 2M119 399l0 -2M119 399l1 2M120 403l0 -2M120 403l1 0"/>
<path stroke="blue" d="M121 403l1 1 424 0 0 -29 1 -5 0 -18 1 -4 0 -2 1 -2 0 -1 5 0 0 -1M554 343l26 0 0 -1M580 343l26 0 0 -1 1 0M607 343l0 -1M607 343l26 0 0 -1M633 343l26 0 0 -1M659 343l20 0M679 349l0 -6M679 349l1 1M680 351l0 -3 26 0M706 352l0 -4"/>
<path stroke="blue" d="M706 352l1 0 0 -2 18 0M725 351l0 -1 6 0 0 -3 1 0M732 348l0 -1M732 348l19 0M751 349l0 -1 19 0M770 351l0 -3M770 351l1 0 0 -2 7 0M778 350l0 -1 26 0M804 350l0 -1 26 0 1 1 0 -1 26 0M857 350l0 -1 26 0M883 350l0 -1 27 0M910 350l0 -1"/>
<path stroke="blue" d="M910 349l11 0M921 382l0 -37M921 382l1 2M922 406l0 -22M922 406l1 1 0 -1 1 0 0 -1 1 0 0 -1 49 0"/>
<path stroke="#FFA500" d="M462 39l46 0"/>
<text stroke="none" fill="white" font-size="16" x="518" y="48">
x1.vsampled_p-x1.vsampled_n
</text>
<path stroke="#FFA500" d="M50 431l2 0 0 -1 2 0M54 431l0 -1M54 431l63 0 0 -14 1 -25 0 -48 1 -6 0 -5 1 -5 0 -3 1 -2 1 -1 1 0 0 -1 416 0M539 322l0 -1M539 322l1 -1M540 322l0 -1M540 322l6 0M546 351l0 -29M546 351l1 4M547 374l0 -19M547 374l1 4M548 380l0 -2"/>
<path stroke="#FFA500" d="M548 380l1 1M549 382l0 -1M549 382l1 1 17 0M567 384l0 -2M567 383l7 0M574 402l0 -19M574 402l1 8M575 419l0 -9M575 419l1 4M576 424l0 -1M576 424l17 0 0 -1M593 424l7 0M600 438l0 -14M600 438l1 4M601 445l0 -3M601 445l1 -1 23 0"/>
<path stroke="#FFA500" d="M625 444l0 -8 1 -2 0 -6 1 -1 0 -1 26 0M653 434l0 -8M653 434l1 1M654 437l0 -2M654 437l1 0 0 -1 4 0M659 437l0 -1 20 0 0 -6 1 -1M680 431l0 -3M680 431l26 0 0 -4 1 0M707 429l0 -2M707 429l24 0M731 433l0 -4M731 433l1 0 0 -2"/>
<path stroke="#FFA500" d="M732 431l38 0 0 -2 1 -1M771 430l0 -2M771 430l14 0M785 431l0 -1M785 431l1 0 0 -1 26 0M812 431l0 -1M812 431l109 0 0 -48 1 -3 0 -47 1 -1 0 -8 1 0 0 -2 2 0 0 -1 10 0M936 323l0 -2M936 322l14 0 0 -1 24 0"/>
<path stroke="green" d="M50 39l46 0"/>
<text stroke="none" fill="white" font-size="16" x="106" y="48">
x1.sw_sample-2
</text>
<path stroke="green" d="M50 613l1 0 1 -9 0 -21 1 -21M53 579l0 -23M53 579l1 31M54 613l0 -3M54 613l63 0M117 620l0 -172M117 449l422 0M539 614l0 -171M539 613l422 0M961 618l0 -170 1 1 12 0"/>
<path stroke="#FFC0C5" d="M462 55l46 0"/>
<text stroke="none" fill="white" font-size="16" x="518" y="64">
x1.comp_out_p+2
</text>
<path stroke="#FFC0C5" d="M50 249l1 0 1 -9 0 -22 1 -18 0 -4M53 198l1 5M54 250l0 -47M54 248l1 1 487 0 0 -165M542 85l13 0M555 250l0 -167M555 249l13 0M568 251l0 -168M568 85l13 0 0 -7 1 142M582 249l0 -29M582 249l12 0M594 250l0 -166 1 1 13 0M608 250l0 -174"/>
<path stroke="#FFC0C5" d="M608 249l39 0M647 251l0 -168M647 85l14 0M661 250l0 -172M661 249l66 0 0 -165M727 85l13 0M740 249l0 -166M740 249l40 0 0 -165M780 85l13 0M793 250l0 -168M793 249l13 0 1 -151 0 -14M807 85l12 0M819 250l0 -174M819 249l14 0"/>
<path stroke="#FFC0C5" d="M833 249l1 -157 0 -8M834 85l11 0 0 -7 1 145M846 249l0 -26M846 249l91 0 1 -12 0 -154M938 85l13 0M951 249l0 -172M951 249l23 0"/>
<path stroke="#A52A2A" d="M50 55l46 0"/>
<text stroke="none" fill="white" font-size="16" x="106" y="64">
x1.comp_out_n-2
</text>
<path stroke="#A52A2A" d="M50 613l1 0 1 -9 0 -22 1 -19M53 564l0 -3M53 564l1 6M54 614l0 -73 1 68M55 613l0 -4M55 613l513 0M568 614l0 -1 26 0M594 614l0 -1 27 0M621 615l0 -168M621 449l13 0M634 613l0 -171M634 613l39 0M673 616l0 -3M673 616l1 -129 0 -40"/>
<path stroke="#A52A2A" d="M674 449l13 0M687 613l0 -171M687 613l13 0 0 -148 1 -16 0 -1M701 449l12 0 0 -8 1 158M714 613l0 -14M714 613l50 0M764 615l0 -159 1 -9M765 449l0 -2M765 449l1 0M766 613l0 -174M766 613l98 0 0 -165M864 449l8 0M872 613l0 -166"/>
<path stroke="#A52A2A" d="M872 613l17 0 0 -151 1 -13 0 -1M890 449l8 0M898 613l0 -171M898 613l18 0M916 614l0 -166M916 449l9 0M925 614l0 -166M925 613l49 0"/>
</svg>
