<?xml version="1.0" standalone="yes"?>
<!DOCTYPE svg PUBLIC "-//W3C//DTD SVG 1.1//EN"
 "http://www.w3.org/Graphics/SVG/1.1/DTD/svg11.dtd">
<svg xmlns="http://www.w3.org/2000/svg" version="1.1"
  width="100%" height="100%" viewBox="0 0 1024 768"
  style="fill: none; font-family: Helvetica;
 font: Helvetica;
">

<!-- Creator: NGspice -->

<rect x="0" y="0" width="1024" height="768" fill="black" stroke="none"/>
<text stroke="none" fill="white" font-size="16" x="358" y="752">
time
</text>
<text stroke="none" fill="white" font-size="16" x="10" y="16">
tran1: run1708_vin0.601609
</text>
<path stroke="white" d="M50 704l0 -637"/>
<text stroke="none" fill="white" font-size="16" x="35" y="728">
0.0
</text>
<path stroke="white" stroke-dasharray="1,2" d="M182 704l0 -637"/>
<text stroke="none" fill="white" font-size="16" x="157" y="728">
100.0
</text>
<path stroke="white" stroke-dasharray="1,2" d="M314 704l0 -637"/>
<text stroke="none" fill="white" font-size="16" x="289" y="728">
200.0
</text>
<path stroke="white" stroke-dasharray="1,2" d="M446 704l0 -637"/>
<text stroke="none" fill="white" font-size="16" x="421" y="728">
300.0
</text>
<path stroke="white" stroke-dasharray="1,2" d="M578 704l0 -637"/>
<text stroke="none" fill="white" font-size="16" x="553" y="728">
400.0
</text>
<path stroke="white" stroke-dasharray="1,2" d="M710 704l0 -637"/>
<text stroke="none" fill="white" font-size="16" x="685" y="728">
500.0
</text>
<path stroke="white" stroke-dasharray="1,2" d="M842 704l0 -637"/>
<text stroke="none" fill="white" font-size="16" x="817" y="728">
600.0
</text>
<path stroke="white" stroke-dasharray="1,2" d="M974 704l0 -637"/>
<text stroke="none" fill="white" font-size="16" x="949" y="728">
700.0
</text>
<text stroke="none" fill="white" font-size="16" x="614" y="752">
ns
</text>
<path stroke="white" stroke-dasharray="1,2" d="M50 704l924 0"/>
<text stroke="none" fill="white" font-size="16" x="8" y="712">
-3.0
</text>
<path stroke="white" stroke-dasharray="1,2" d="M50 613l924 0"/>
<text stroke="none" fill="white" font-size="16" x="8" y="621">
-2.0
</text>
<path stroke="white" stroke-dasharray="1,2" d="M50 522l924 0"/>
<text stroke="none" fill="white" font-size="16" x="8" y="530">
-1.0
</text>
<path stroke="white" d="M50 431l924 0"/>
<text stroke="none" fill="white" font-size="16" x="18" y="439">
0.0
</text>
<path stroke="white" stroke-dasharray="1,2" d="M50 340l924 0"/>
<text stroke="none" fill="white" font-size="16" x="18" y="348">
1.0
</text>
<path stroke="white" stroke-dasharray="1,2" d="M50 249l924 0"/>
<text stroke="none" fill="white" font-size="16" x="18" y="257">
2.0
</text>
<path stroke="white" stroke-dasharray="1,2" d="M50 158l924 0"/>
<text stroke="none" fill="white" font-size="16" x="18" y="166">
3.0
</text>
<path stroke="white" stroke-dasharray="1,2" d="M50 67l924 0"/>
<text stroke="none" fill="white" font-size="16" x="18" y="75">
4.0
</text>
<text stroke="none" fill="white" font-size="16" x="10" y="32">
     
</text>
<path stroke="red" d="M462 23l46 0"/>
<text stroke="none" fill="white" font-size="16" x="518" y="32">
x1.vsampled_p
</text>
<path stroke="red" d="M50 431l1 0 1 -7 0 -15 1 -15 0 -4 1 1M54 414l0 -37 1 -4 0 -17 1 -3 0 -2 1 -1 2 0 1 -1 4 0M64 350l0 -1M64 350l4 0 1 -1 48 0 0 -1 1 -10 0 -30 1 -3 0 -4 1 -3 0 -2 1 -1 1 0 1 -1 416 0M539 295l0 -1M539 295l1 0M540 296l0 -1 14 0"/>
<path stroke="red" d="M554 295l0 -1 1 0M555 295l0 -1M555 295l11 0 0 -1M566 295l1 0M567 296l0 -1 7 0M574 319l0 -24M574 319l1 8M575 334l0 -7M575 334l1 2 4 0 0 -1 13 0M593 336l0 -1M593 336l7 0M600 347l0 -12M600 347l1 3M601 357l0 -7M601 357l1 -1"/>
<path stroke="red" d="M602 356l23 0 0 -10 1 -1 0 -6 1 0 0 -1 19 0M646 339l0 -1 7 0M653 345l0 -7M653 345l1 1M654 349l0 -3M654 348l18 0M672 349l0 -1 27 0M699 349l0 -1 26 0M725 349l0 -1 26 0M751 349l0 -1 27 0M778 349l0 -1 7 0M785 349l0 -1M785 349l27 0"/>
<path stroke="red" d="M812 350l0 -1M812 350l1 0 0 -1 18 0M831 350l0 -1 26 0M857 350l0 -1 26 0M883 350l0 -1 27 0M910 350l0 -1 8 0M918 350l0 -24 1 -7 0 -16 1 -2 0 -3 1 -1 0 -2 2 0 0 -1M923 295l13 0M936 296l0 -2M936 295l14 0 0 -1 1 0M951 295l0 -1"/>
<path stroke="red" d="M951 295l10 0 0 -1 13 0"/>
<path stroke="blue" d="M50 23l46 0"/>
<text stroke="none" fill="white" font-size="16" x="106" y="32">
x1.vsampled_n
</text>
<path stroke="blue" d="M50 431l1 0 1 -7 0 -15 1 -14 0 -5 1 2M54 414l0 -37 1 -4 0 -17 1 -3 0 -2 1 -1 2 0 1 -1 4 0M64 350l0 -1M64 350l4 0 1 -1 48 0M117 362l0 -13M117 362l1 14M118 395l0 -19M118 395l1 2M119 399l0 -2M119 399l1 2M120 403l0 -2M120 403l1 0"/>
<path stroke="blue" d="M121 403l1 1 424 0 0 -22 1 -3 0 -24 1 -5 0 -5 2 -2 4 0 0 -1M554 343l26 0 0 -1M580 343l26 0 0 -1 1 0M607 343l0 -1M607 343l26 0 0 -1M633 343l26 0 0 -1M659 343l20 0M679 350l0 -7M679 350l1 1 0 -3 26 0M706 352l0 -4M706 351l1 0"/>
<path stroke="blue" d="M707 351l0 -1 18 0M725 351l0 -1 6 0 0 -3 1 0M732 348l0 -1M732 348l19 0M751 349l0 -1 8 0M759 351l0 -3M759 350l1 0 0 -1 18 0M778 350l0 -1 26 0M804 350l0 -1 26 0 1 1 0 -1 86 0 1 1M918 400l0 -53M918 400l1 3M919 407l0 -4M919 407l2 -2"/>
<path stroke="blue" d="M921 405l0 -1 53 0"/>
<path stroke="#FFA500" d="M462 39l46 0"/>
<text stroke="none" fill="white" font-size="16" x="518" y="48">
x1.vsampled_p-x1.vsampled_n
</text>
<path stroke="#FFA500" d="M50 431l2 0 0 -1 2 0M54 431l0 -1M54 431l63 0 0 -14 1 -25 0 -48 1 -6 0 -5 1 -5 0 -3 1 -2 1 -1 424 0M546 344l0 -23M546 344l1 2M547 371l0 -25M547 371l1 4M548 381l0 -6M548 381l2 2 17 0M567 384l0 -2M567 383l7 0M574 407l0 -24"/>
<path stroke="#FFA500" d="M574 407l1 8M575 423l0 -8M575 423l1 1 17 0 0 -1M593 424l7 0M600 435l0 -11M600 435l1 3M601 445l0 -7M601 445l1 0 0 -1 4 0M606 445l0 -1M606 445l1 0 0 -1 18 0 0 -9 1 -2 0 -5 2 -2 5 0M633 427l0 -1 20 0M653 433l0 -7M653 433l1 2"/>
<path stroke="#FFA500" d="M654 437l0 -2M654 437l18 0 0 -1M672 437l7 0 0 -8 1 -1M680 431l0 -3M680 431l6 0M686 432l0 -1 20 0M706 432l0 -5M706 428l1 1 24 0M731 432l0 -3M731 432l1 1 0 -2 27 0 0 -3M759 429l1 1 25 0 1 1 18 0 0 -1M804 431l34 0M838 432l0 -1"/>
<path stroke="#FFA500" d="M838 431l79 0 1 -1M918 433l0 -76 1 -10 0 -20 1 -2 0 -1 1 -1 0 -1 2 0 0 -1M923 322l13 0M936 323l0 -1 14 0 0 -1M950 322l12 0 0 -1 2 0M964 322l0 -1M964 322l10 0"/>
<path stroke="green" d="M50 39l46 0"/>
<text stroke="none" fill="white" font-size="16" x="106" y="48">
x1.sw_sample-2
</text>
<path stroke="green" d="M50 613l1 0 1 -9 0 -21 1 -21M53 579l0 -23M53 579l1 31M54 613l0 -3M54 613l63 0M117 620l0 -172M117 449l422 0M539 614l0 -171M539 613l422 0M961 618l0 -170 1 1 12 0"/>
<path stroke="#FFC0C5" d="M462 55l46 0"/>
<text stroke="none" fill="white" font-size="16" x="518" y="64">
x1.comp_out_p+2
</text>
<path stroke="#FFC0C5" d="M50 249l1 0 1 -9 0 -22 1 -18 0 -4M53 198l1 5M54 250l0 -47M54 248l1 1 486 0 1 1 0 -167M542 85l13 0M555 249l0 -173M555 249l13 0M568 250l0 -166M568 85l13 0 0 -8 1 148M582 249l0 -24M582 249l12 0 0 -165 1 1 13 0M608 249l0 -173"/>
<path stroke="#FFC0C5" d="M608 249l39 0M647 250l0 -167M647 85l14 0M661 250l0 -172M661 249l66 0M727 250l0 -166M727 85l13 0M740 250l0 -172M740 249l40 0M780 250l0 -166M780 85l13 0M793 249l0 -172M793 249l14 0 0 -164 12 0M819 249l0 -167M819 249l15 0"/>
<path stroke="#FFC0C5" d="M834 249l0 -164 11 0 0 -10 1 143M846 249l0 -31M846 249l91 0 1 -43 0 -122M938 85l13 0M951 249l0 -172M951 249l23 0"/>
<path stroke="#A52A2A" d="M50 55l46 0"/>
<text stroke="none" fill="white" font-size="16" x="106" y="64">
x1.comp_out_n-2
</text>
<path stroke="#A52A2A" d="M50 613l1 0 1 -9 0 -22 1 -19M53 564l0 -3M53 564l1 6M54 614l0 -74 1 69M55 613l0 -4M55 613l513 0M568 614l0 -1 53 0M621 615l0 -168M621 449l13 0M634 613l0 -172M634 613l39 0M673 617l0 -4M673 617l1 -131 0 -39M674 449l13 0"/>
<path stroke="#A52A2A" d="M687 613l0 -166M687 613l13 0 0 -149 1 -15 0 -1M701 449l12 0 0 -9 1 161M714 613l0 -12M714 613l39 0 0 -146 1 -18 0 -1M754 449l12 0M766 613l0 -173M766 613l94 0 0 -164 12 0M872 613l0 -174M872 613l14 0 0 -152 1 -12 0 -1M887 449l11 0"/>
<path stroke="#A52A2A" d="M898 613l0 -174M898 613l15 0 0 -165M913 449l12 0M925 614l0 -169M925 613l49 0"/>
</svg>
