<?xml version="1.0" standalone="yes"?>
<!DOCTYPE svg PUBLIC "-//W3C//DTD SVG 1.1//EN"
 "http://www.w3.org/Graphics/SVG/1.1/DTD/svg11.dtd">
<svg xmlns="http://www.w3.org/2000/svg" version="1.1"
  width="100%" height="100%" viewBox="0 0 1024 768"
  style="fill: none; font-family: Helvetica;
 font: Helvetica;
">

<!-- Creator: NGspice -->

<rect x="0" y="0" width="1024" height="768" fill="black" stroke="none"/>
<text stroke="none" fill="white" font-size="16" x="358" y="752">
time
</text>
<text stroke="none" fill="white" font-size="16" x="10" y="16">
tran1: run1705_vin0.598972
</text>
<path stroke="white" d="M50 704l0 -637"/>
<text stroke="none" fill="white" font-size="16" x="35" y="728">
0.0
</text>
<path stroke="white" stroke-dasharray="1,2" d="M182 704l0 -637"/>
<text stroke="none" fill="white" font-size="16" x="157" y="728">
100.0
</text>
<path stroke="white" stroke-dasharray="1,2" d="M314 704l0 -637"/>
<text stroke="none" fill="white" font-size="16" x="289" y="728">
200.0
</text>
<path stroke="white" stroke-dasharray="1,2" d="M446 704l0 -637"/>
<text stroke="none" fill="white" font-size="16" x="421" y="728">
300.0
</text>
<path stroke="white" stroke-dasharray="1,2" d="M578 704l0 -637"/>
<text stroke="none" fill="white" font-size="16" x="553" y="728">
400.0
</text>
<path stroke="white" stroke-dasharray="1,2" d="M710 704l0 -637"/>
<text stroke="none" fill="white" font-size="16" x="685" y="728">
500.0
</text>
<path stroke="white" stroke-dasharray="1,2" d="M842 704l0 -637"/>
<text stroke="none" fill="white" font-size="16" x="817" y="728">
600.0
</text>
<path stroke="white" stroke-dasharray="1,2" d="M974 704l0 -637"/>
<text stroke="none" fill="white" font-size="16" x="949" y="728">
700.0
</text>
<text stroke="none" fill="white" font-size="16" x="614" y="752">
ns
</text>
<path stroke="white" stroke-dasharray="1,2" d="M50 704l924 0"/>
<text stroke="none" fill="white" font-size="16" x="8" y="712">
-3.0
</text>
<path stroke="white" stroke-dasharray="1,2" d="M50 613l924 0"/>
<text stroke="none" fill="white" font-size="16" x="8" y="621">
-2.0
</text>
<path stroke="white" stroke-dasharray="1,2" d="M50 522l924 0"/>
<text stroke="none" fill="white" font-size="16" x="8" y="530">
-1.0
</text>
<path stroke="white" d="M50 431l924 0"/>
<text stroke="none" fill="white" font-size="16" x="18" y="439">
0.0
</text>
<path stroke="white" stroke-dasharray="1,2" d="M50 340l924 0"/>
<text stroke="none" fill="white" font-size="16" x="18" y="348">
1.0
</text>
<path stroke="white" stroke-dasharray="1,2" d="M50 249l924 0"/>
<text stroke="none" fill="white" font-size="16" x="18" y="257">
2.0
</text>
<path stroke="white" stroke-dasharray="1,2" d="M50 158l924 0"/>
<text stroke="none" fill="white" font-size="16" x="18" y="166">
3.0
</text>
<path stroke="white" stroke-dasharray="1,2" d="M50 67l924 0"/>
<text stroke="none" fill="white" font-size="16" x="18" y="75">
4.0
</text>
<text stroke="none" fill="white" font-size="16" x="10" y="32">
     
</text>
<path stroke="red" d="M462 23l46 0"/>
<text stroke="none" fill="white" font-size="16" x="518" y="32">
x1.vsampled_p
</text>
<path stroke="red" d="M50 431l1 0 1 -7 0 -15 1 -15 0 -4 1 1M54 414l0 -37 1 -4 0 -17 1 -2 0 -3 1 -1 2 0 1 -1 4 0M64 350l0 -1M64 350l4 0 1 -1 48 0 0 -1 1 -10 0 -23 1 -6 0 -8 1 -3 0 -2 1 -1 419 0M540 296l0 -1 14 0 0 -1M554 295l13 0M567 296l0 -1"/>
<path stroke="red" d="M567 295l7 0M574 319l0 -24M574 319l1 8M575 334l0 -7M575 334l1 2 4 0 0 -1M580 336l20 0M600 350l0 -14M600 350l1 3M601 357l0 -4M601 357l1 -1 23 0 0 -4 1 -3 0 -9 1 0 0 -1 1 -1 18 0M646 339l0 -1 7 0M653 347l0 -9M653 347l1 2 1 0"/>
<path stroke="red" d="M655 349l0 -1 1 0M656 349l0 -1M656 349l3 0 0 -1 13 0M672 349l0 -1 1 0M673 349l0 -1M673 349l13 0 0 -1 12 0 1 1 0 -1M699 349l13 0 0 -1 13 0M725 349l0 -1M725 349l13 0 0 -1 13 0M751 349l0 -1M751 349l1 0 0 -1M752 349l13 0 0 -1"/>
<path stroke="red" d="M765 348l13 0M778 349l0 -1M778 349l7 0 0 -1M785 349l1 0M786 350l0 -1 30 0M816 350l0 -1 14 0 1 1 0 -1 89 0M920 350l0 -1M920 350l1 0 0 -32 1 -1 0 -15 1 0 0 -5 1 0 0 -2 12 0M936 296l0 -1 14 0 0 -1M950 295l24 0"/>
<path stroke="blue" d="M50 23l46 0"/>
<text stroke="none" fill="white" font-size="16" x="106" y="32">
x1.vsampled_n
</text>
<path stroke="blue" d="M50 431l1 0 1 -7 0 -15 1 -14 0 -5 1 2M54 414l0 -37 1 -4 0 -17 1 -2 0 -3 1 -1 2 0 1 -1 4 0M64 350l0 -1M64 350l4 0 1 -1 48 0M117 362l0 -13M117 362l1 14M118 391l0 -15M118 391l1 4M119 399l0 -4M119 399l1 2M120 402l0 -1M120 402l1 1"/>
<path stroke="blue" d="M121 403l1 0 1 1 423 0 0 -20 1 -3 0 -29 1 -3 0 -3 1 -2 0 -1 2 0 0 -1 15 0 1 1 0 -1 26 0M593 343l0 -1 26 0M619 343l0 -1M619 343l1 0 0 -1 26 0M646 343l0 -1 26 0M672 343l0 -1 7 0M679 350l0 -8M679 350l1 1 0 -3 6 0 0 -1 12 0"/>
<path stroke="blue" d="M698 348l0 -1M698 348l1 0 0 -1M699 348l7 0M706 352l0 -5M706 352l1 -1 0 -1 25 0 0 -4M732 347l1 1 26 0M759 351l0 -3M759 349l19 0M778 350l0 -1 26 0M804 350l0 -1 27 0M831 350l0 -1 26 0M857 350l0 -1 26 0M883 350l0 -1 27 0M910 350l0 -1"/>
<path stroke="blue" d="M910 349l11 0M921 403l0 -57M921 403l1 0M922 407l0 -4M922 406l1 0 0 -1 1 0 0 -1 50 0"/>
<path stroke="#FFA500" d="M462 39l46 0"/>
<text stroke="none" fill="white" font-size="16" x="518" y="48">
x1.vsampled_p-x1.vsampled_n
</text>
<path stroke="#FFA500" d="M50 431l2 0 1 -1 1 0M54 431l0 -1M54 431l63 0 0 -14 1 -25 0 -38 1 -9 0 -12 1 -5 0 -3 1 -2 1 0 0 -1 418 0M540 323l0 -1 6 0M546 342l0 -20M546 342l1 3M547 374l0 -29M547 374l1 3M548 380l0 -3M548 380l1 2M549 383l0 -1M549 383l5 0"/>
<path stroke="#FFA500" d="M554 384l0 -1 12 0 1 1 0 -1 6 0 1 1M574 407l0 -23M574 407l1 8M575 423l0 -8M575 423l1 1 4 0M580 425l0 -1 20 0M600 438l0 -14M600 438l1 4M601 446l0 -4M601 445l18 0 0 -1M619 445l6 0 0 -5 1 -3 0 -8 1 -1 0 -1 19 0 0 -1M646 427l7 0"/>
<path stroke="#FFA500" d="M653 435l0 -8M653 435l1 2 25 0 0 -7 1 -1M680 432l0 -3M680 432l26 0 0 -4 1 0M707 429l0 -1M707 429l24 0 1 1M732 433l0 -3M732 432l19 0 0 -1M751 432l8 0 0 -3M759 430l26 0M785 431l0 -1M785 431l31 0M816 432l0 -1 104 0M920 432l0 -1"/>
<path stroke="#FFA500" d="M920 432l1 0 0 -86 1 -1 0 -18 1 -1 0 -3 1 0 0 -1 12 0M936 323l0 -1 38 0"/>
<path stroke="green" d="M50 39l46 0"/>
<text stroke="none" fill="white" font-size="16" x="106" y="48">
x1.sw_sample-2
</text>
<path stroke="green" d="M50 613l1 0 1 -9 0 -21 1 -21M53 579l0 -23M53 579l1 31M54 613l0 -3M54 613l63 0M117 620l0 -172M117 449l422 0M539 614l0 -171M539 613l422 0M961 618l0 -170 1 1 12 0"/>
<path stroke="#FFC0C5" d="M462 55l46 0"/>
<text stroke="none" fill="white" font-size="16" x="518" y="64">
x1.comp_out_p+2
</text>
<path stroke="#FFC0C5" d="M50 249l1 0 1 -9 0 -22 1 -18 0 -4M53 198l1 5M54 250l0 -47M54 248l1 1 487 0 0 -165M542 85l13 0M555 250l0 -168M555 249l13 0M568 250l0 -166M568 85l13 0 0 -8 1 156M582 249l0 -16M582 249l12 0M594 250l0 -167M594 84l1 1 13 0"/>
<path stroke="#FFC0C5" d="M608 250l0 -169M608 249l39 0M647 251l0 -168M647 85l14 0M661 249l0 -171M661 249l66 0 0 -165 1 1 12 0M740 250l0 -170M740 249l40 0 0 -165M780 85l13 0M793 249l0 -171M793 249l17 0 1 -148 0 -17M811 85l8 0M819 249l0 -173M819 249l118 0"/>
<path stroke="#FFC0C5" d="M937 250l0 -1M937 250l1 -81 0 -85M938 85l13 0M951 249l0 -172M951 249l23 0"/>
<path stroke="#A52A2A" d="M50 55l46 0"/>
<text stroke="none" fill="white" font-size="16" x="106" y="64">
x1.comp_out_n-2
</text>
<path stroke="#A52A2A" d="M50 613l1 0 1 -9 0 -22 1 -19M53 564l0 -3M53 564l1 6M54 614l0 -75 1 70M55 613l0 -4M55 613l513 0M568 614l0 -1 53 0M621 618l0 -171M621 449l13 0M634 613l0 -172M634 613l39 0M673 616l0 -3M673 616l1 -129 0 -40M674 449l13 0"/>
<path stroke="#A52A2A" d="M687 613l0 -173M687 613l13 0 0 -165 1 0M701 449l0 -1M701 449l12 0 0 -9 1 165M714 614l0 -9M714 613l39 0 0 -165 1 1 12 0M766 613l0 -171M766 613l67 0 1 -158 0 -7M834 449l11 0 0 -9 1 159M846 613l0 -14M846 613l17 0 0 -165"/>
<path stroke="#A52A2A" d="M863 449l9 0M872 613l0 -171M872 613l17 0 1 -158 0 -7M890 449l8 0M898 613l0 -171M898 613l18 0 0 -165M916 449l9 0M925 613l0 -173M925 613l49 0"/>
</svg>
