<?xml version="1.0" standalone="yes"?>
<!DOCTYPE svg PUBLIC "-//W3C//DTD SVG 1.1//EN"
 "http://www.w3.org/Graphics/SVG/1.1/DTD/svg11.dtd">
<svg xmlns="http://www.w3.org/2000/svg" version="1.1"
  width="100%" height="100%" viewBox="0 0 1024 768"
  style="fill: none; font-family: Helvetica;
 font: Helvetica;
">

<!-- Creator: NGspice -->

<rect x="0" y="0" width="1024" height="768" fill="black" stroke="none"/>
<text stroke="none" fill="white" font-size="16" x="358" y="752">
time
</text>
<text stroke="none" fill="white" font-size="16" x="10" y="16">
tran1: run1704_vin0.598094
</text>
<path stroke="white" d="M50 704l0 -637"/>
<text stroke="none" fill="white" font-size="16" x="35" y="728">
0.0
</text>
<path stroke="white" stroke-dasharray="1,2" d="M182 704l0 -637"/>
<text stroke="none" fill="white" font-size="16" x="157" y="728">
100.0
</text>
<path stroke="white" stroke-dasharray="1,2" d="M314 704l0 -637"/>
<text stroke="none" fill="white" font-size="16" x="289" y="728">
200.0
</text>
<path stroke="white" stroke-dasharray="1,2" d="M446 704l0 -637"/>
<text stroke="none" fill="white" font-size="16" x="421" y="728">
300.0
</text>
<path stroke="white" stroke-dasharray="1,2" d="M578 704l0 -637"/>
<text stroke="none" fill="white" font-size="16" x="553" y="728">
400.0
</text>
<path stroke="white" stroke-dasharray="1,2" d="M710 704l0 -637"/>
<text stroke="none" fill="white" font-size="16" x="685" y="728">
500.0
</text>
<path stroke="white" stroke-dasharray="1,2" d="M842 704l0 -637"/>
<text stroke="none" fill="white" font-size="16" x="817" y="728">
600.0
</text>
<path stroke="white" stroke-dasharray="1,2" d="M974 704l0 -637"/>
<text stroke="none" fill="white" font-size="16" x="949" y="728">
700.0
</text>
<text stroke="none" fill="white" font-size="16" x="614" y="752">
ns
</text>
<path stroke="white" stroke-dasharray="1,2" d="M50 704l924 0"/>
<text stroke="none" fill="white" font-size="16" x="8" y="712">
-3.0
</text>
<path stroke="white" stroke-dasharray="1,2" d="M50 613l924 0"/>
<text stroke="none" fill="white" font-size="16" x="8" y="621">
-2.0
</text>
<path stroke="white" stroke-dasharray="1,2" d="M50 522l924 0"/>
<text stroke="none" fill="white" font-size="16" x="8" y="530">
-1.0
</text>
<path stroke="white" d="M50 431l924 0"/>
<text stroke="none" fill="white" font-size="16" x="18" y="439">
0.0
</text>
<path stroke="white" stroke-dasharray="1,2" d="M50 340l924 0"/>
<text stroke="none" fill="white" font-size="16" x="18" y="348">
1.0
</text>
<path stroke="white" stroke-dasharray="1,2" d="M50 249l924 0"/>
<text stroke="none" fill="white" font-size="16" x="18" y="257">
2.0
</text>
<path stroke="white" stroke-dasharray="1,2" d="M50 158l924 0"/>
<text stroke="none" fill="white" font-size="16" x="18" y="166">
3.0
</text>
<path stroke="white" stroke-dasharray="1,2" d="M50 67l924 0"/>
<text stroke="none" fill="white" font-size="16" x="18" y="75">
4.0
</text>
<text stroke="none" fill="white" font-size="16" x="10" y="32">
     
</text>
<path stroke="red" d="M462 23l46 0"/>
<text stroke="none" fill="white" font-size="16" x="518" y="32">
x1.vsampled_p
</text>
<path stroke="red" d="M50 431l1 0 1 -7 0 -15 1 -15 0 -4 1 1M54 414l0 -37 1 -4 0 -17 1 -3 0 -2 1 -1 2 0 1 -1 4 0M64 350l0 -1M64 350l4 0 1 -1 48 0 0 -1 1 -10 0 -23 1 -6 0 -7 1 -3 0 -2 2 -2 418 0M540 296l0 -1 14 0 0 -1M554 295l13 0M567 296l0 -1"/>
<path stroke="red" d="M567 295l7 0M574 319l0 -24M574 319l1 8M575 335l0 -8M575 335l1 1 24 0M600 349l0 -13M600 349l1 3M601 357l0 -5M601 357l1 -1 23 0 0 -8 1 -1 0 -7 1 0 0 -1 1 -1 18 0M646 339l0 -1 7 0M653 346l0 -8M653 346l1 2M654 349l0 -1M654 349l5 0"/>
<path stroke="red" d="M659 349l0 -1M659 349l27 0 0 -1M686 349l26 0 0 -1M712 349l26 0 0 -1 1 0M739 349l0 -1M739 349l26 0 0 -1M765 349l21 0M786 350l0 -1 18 0M804 350l0 -1 27 0M831 350l0 -1 26 0M857 350l0 -1 26 0M883 350l0 -1 27 0M910 350l0 -1 8 0"/>
<path stroke="red" d="M918 350l0 -21 1 -4 0 -18 1 -3 0 -5 1 -2 0 -1 1 0 0 -1 1 0 0 -1M923 295l13 0M936 296l0 -1 14 0 0 -1M950 295l24 0"/>
<path stroke="blue" d="M50 23l46 0"/>
<text stroke="none" fill="white" font-size="16" x="106" y="32">
x1.vsampled_n
</text>
<path stroke="blue" d="M50 431l1 0 1 -7 0 -15 1 -14 0 -5 1 2M54 414l0 -37 1 -4 0 -17 1 -3 0 -2 1 -1 2 0 1 -1 4 0M64 350l0 -1M64 350l4 0 1 -1 48 0M117 362l0 -13M117 362l1 14M118 391l0 -15M118 391l1 4M119 399l0 -4M119 399l1 2M120 402l0 -1M120 402l1 1"/>
<path stroke="blue" d="M121 403l3 0M124 404l0 -1M124 404l416 0 1 -1M541 404l0 -1M541 404l5 0 0 -21 1 -3 0 -24 1 -5 0 -6 1 -1 0 -1 1 0 1 -1 16 0M567 343l0 -1 26 0M593 343l0 -1 26 0M619 343l0 -1M619 343l1 0 0 -1 26 0M646 343l0 -1 26 0M672 343l0 -1"/>
<path stroke="blue" d="M672 342l7 0M679 350l0 -8M679 350l1 1 0 -3 2 0 0 -1 16 0 1 1 0 -1 7 0M706 352l0 -5M706 352l1 -1 0 -1 25 0 0 -4M732 348l27 0M759 351l0 -3M759 349l54 0M813 350l0 -1 17 0 1 1 0 -1 87 0M918 395l0 -51M918 395l1 5M919 406l0 -6"/>
<path stroke="blue" d="M919 406l1 0 0 -1 1 0 0 -1 41 0 0 -1 1 0M963 404l0 -1M963 404l11 0"/>
<path stroke="#FFA500" d="M462 39l46 0"/>
<text stroke="none" fill="white" font-size="16" x="518" y="48">
x1.vsampled_p-x1.vsampled_n
</text>
<path stroke="#FFA500" d="M50 431l2 0 1 -1 1 0M54 431l0 -1M54 431l63 0 0 -14 1 -25 0 -37 1 -10 0 -12 1 -5 0 -3 2 -2 0 -1 418 0M540 323l0 -1 1 1 0 -1 5 0M546 343l0 -21M546 343l1 3M547 370l0 -24M547 370l1 5M548 381l0 -6M548 381l1 1M549 383l0 -1"/>
<path stroke="#FFA500" d="M549 383l1 0 1 1 3 0 0 -1M554 384l13 0 0 -1M567 384l7 0M574 408l0 -24M574 408l1 8M575 423l0 -7M575 423l1 2 1 0 1 -1 2 0M580 425l0 -1 13 0M593 425l0 -1 7 0M600 437l0 -13M600 437l1 3M601 446l0 -6M601 446l1 -1 17 0 0 -1"/>
<path stroke="#FFA500" d="M619 445l6 0 0 -8 1 -2 0 -6 1 -1 0 -1 26 0M653 434l0 -7M653 434l1 2M654 438l0 -2M654 438l1 -1 24 0 0 -8 1 0M680 432l0 -3M680 432l26 0 0 -4 1 0M707 429l0 -1M707 429l1 1 17 0 0 -1M725 430l7 0M732 433l0 -3M732 432l27 0"/>
<path stroke="#FFA500" d="M759 432l0 -3M759 430l1 0M760 431l0 -1M760 431l18 0 0 -1M778 431l8 0M786 432l0 -1 27 0 0 -1M813 431l25 0M838 432l0 -1M838 432l1 -1 79 0M918 433l0 -68 1 -9 0 -24 1 -3 0 -4 1 -1 0 -1 2 0 0 -1 13 0M936 324l0 -2 38 0"/>
<path stroke="green" d="M50 39l46 0"/>
<text stroke="none" fill="white" font-size="16" x="106" y="48">
x1.sw_sample-2
</text>
<path stroke="green" d="M50 613l1 0 1 -9 0 -21 1 -21M53 579l0 -23M53 579l1 31M54 613l0 -3M54 613l63 0M117 620l0 -172M117 449l422 0M539 614l0 -171M539 613l422 0M961 618l0 -170 1 1 12 0"/>
<path stroke="#FFC0C5" d="M462 55l46 0"/>
<text stroke="none" fill="white" font-size="16" x="518" y="64">
x1.comp_out_p+2
</text>
<path stroke="#FFC0C5" d="M50 249l1 0 1 -9 0 -22 1 -18 0 -4M53 198l1 5M54 250l0 -47M54 248l1 1 487 0 0 -165M542 85l13 0M555 249l0 -172M555 249l13 0M568 250l0 -166M568 85l13 0 0 -8 1 158M582 249l0 -14M582 249l12 0 0 -165 1 1 13 0M608 250l0 -171"/>
<path stroke="#FFC0C5" d="M608 249l39 0M647 251l0 -168M647 85l14 0M661 249l0 -172M661 249l66 0 0 -165M727 85l13 0M740 250l0 -171M740 249l40 0 0 -165M780 85l13 0M793 249l0 -174M793 249l41 0 0 -165M834 85l11 0 0 -10 1 143M846 249l0 -31M846 249l91 0"/>
<path stroke="#FFC0C5" d="M937 249l0 -4 1 -132 0 -30M938 85l13 0M951 249l0 -171M951 249l23 0"/>
<path stroke="#A52A2A" d="M50 55l46 0"/>
<text stroke="none" fill="white" font-size="16" x="106" y="64">
x1.comp_out_n-2
</text>
<path stroke="#A52A2A" d="M50 613l1 0 1 -9 0 -22 1 -19M53 564l0 -3M53 564l1 6M54 614l0 -74 1 69M55 613l0 -4M55 613l513 0M568 614l0 -1 53 0M621 618l0 -171M621 449l13 0M634 613l0 -172M634 613l39 0M673 616l0 -3M673 616l1 -111 0 -58M674 449l13 0"/>
<path stroke="#A52A2A" d="M687 613l0 -172M687 613l13 0 0 -163 1 -2M701 449l0 -1M701 449l12 0 1 -9M714 614l0 -174M714 613l39 0 0 -165 1 1 12 0M766 613l0 -167M766 613l41 0 0 -165 1 0M808 449l0 -1M808 449l11 0M819 613l0 -171M819 613l41 0 0 -164"/>
<path stroke="#A52A2A" d="M860 449l12 0M872 613l0 -174M872 613l14 0 0 -153 1 -12M887 449l0 -1M887 449l11 0M898 613l0 -174M898 613l15 0 0 -165M913 449l12 0M925 614l0 -170M925 613l49 0"/>
</svg>
