<?xml version="1.0" standalone="yes"?>
<!DOCTYPE svg PUBLIC "-//W3C//DTD SVG 1.1//EN"
 "http://www.w3.org/Graphics/SVG/1.1/DTD/svg11.dtd">
<svg xmlns="http://www.w3.org/2000/svg" version="1.1"
  width="100%" height="100%" viewBox="0 0 1024 768"
  style="fill: none; font-family: Helvetica;
 font: Helvetica;
">

<!-- Creator: NGspice -->

<rect x="0" y="0" width="1024" height="768" fill="black" stroke="none"/>
<text stroke="none" fill="white" font-size="16" x="358" y="752">
time
</text>
<text stroke="none" fill="white" font-size="16" x="10" y="16">
tran1: run1630_vin0.533055
</text>
<path stroke="white" d="M50 704l0 -637"/>
<text stroke="none" fill="white" font-size="16" x="35" y="728">
0.0
</text>
<path stroke="white" stroke-dasharray="1,2" d="M182 704l0 -637"/>
<text stroke="none" fill="white" font-size="16" x="157" y="728">
100.0
</text>
<path stroke="white" stroke-dasharray="1,2" d="M314 704l0 -637"/>
<text stroke="none" fill="white" font-size="16" x="289" y="728">
200.0
</text>
<path stroke="white" stroke-dasharray="1,2" d="M446 704l0 -637"/>
<text stroke="none" fill="white" font-size="16" x="421" y="728">
300.0
</text>
<path stroke="white" stroke-dasharray="1,2" d="M578 704l0 -637"/>
<text stroke="none" fill="white" font-size="16" x="553" y="728">
400.0
</text>
<path stroke="white" stroke-dasharray="1,2" d="M710 704l0 -637"/>
<text stroke="none" fill="white" font-size="16" x="685" y="728">
500.0
</text>
<path stroke="white" stroke-dasharray="1,2" d="M842 704l0 -637"/>
<text stroke="none" fill="white" font-size="16" x="817" y="728">
600.0
</text>
<path stroke="white" stroke-dasharray="1,2" d="M974 704l0 -637"/>
<text stroke="none" fill="white" font-size="16" x="949" y="728">
700.0
</text>
<text stroke="none" fill="white" font-size="16" x="614" y="752">
ns
</text>
<path stroke="white" stroke-dasharray="1,2" d="M50 704l924 0"/>
<text stroke="none" fill="white" font-size="16" x="8" y="712">
-3.0
</text>
<path stroke="white" stroke-dasharray="1,2" d="M50 613l924 0"/>
<text stroke="none" fill="white" font-size="16" x="8" y="621">
-2.0
</text>
<path stroke="white" stroke-dasharray="1,2" d="M50 522l924 0"/>
<text stroke="none" fill="white" font-size="16" x="8" y="530">
-1.0
</text>
<path stroke="white" d="M50 431l924 0"/>
<text stroke="none" fill="white" font-size="16" x="18" y="439">
0.0
</text>
<path stroke="white" stroke-dasharray="1,2" d="M50 340l924 0"/>
<text stroke="none" fill="white" font-size="16" x="18" y="348">
1.0
</text>
<path stroke="white" stroke-dasharray="1,2" d="M50 249l924 0"/>
<text stroke="none" fill="white" font-size="16" x="18" y="257">
2.0
</text>
<path stroke="white" stroke-dasharray="1,2" d="M50 158l924 0"/>
<text stroke="none" fill="white" font-size="16" x="18" y="166">
3.0
</text>
<path stroke="white" stroke-dasharray="1,2" d="M50 67l924 0"/>
<text stroke="none" fill="white" font-size="16" x="18" y="75">
4.0
</text>
<text stroke="none" fill="white" font-size="16" x="10" y="32">
     
</text>
<path stroke="red" d="M462 23l46 0"/>
<text stroke="none" fill="white" font-size="16" x="518" y="32">
x1.vsampled_p
</text>
<path stroke="red" d="M50 431l1 0 1 -7 0 -15 1 -15 0 -4 1 1M54 414l0 -39 1 -4 0 -14 1 -2 0 -3 2 -2 1 0 1 -1 3 0 1 1 4 0 1 -1 48 0 0 -1 1 -10 0 -21 1 -5 0 -6 1 -2 0 -2 1 -1 419 0M540 302l0 -1 14 0 0 -1M554 301l13 0M567 302l0 -1 6 0M573 304l0 -3"/>
<path stroke="red" d="M573 304l1 5M574 329l0 -20M574 329l1 9M575 341l0 -3M575 341l1 1 4 0 0 -1M580 342l26 0 0 -1 1 0M607 342l0 -1M607 342l26 0 0 -1M633 342l26 0 0 -1M659 342l20 0M679 347l0 -5M679 347l1 1 0 -1 26 0M706 350l0 -3M706 350l1 -1 18 0"/>
<path stroke="red" d="M725 350l0 -1 8 0 0 -2 26 0M759 349l0 -2M759 348l19 0M778 349l0 -1 7 0 1 1M786 350l0 -1 26 0M812 350l0 -1M812 350l1 -1 17 0 1 1 0 -1 86 0M917 350l0 -9 1 -4 0 -18 1 -2 0 -8 1 -3 0 -2 1 -2 1 0 0 -1 1 0 0 -1M923 301l13 0M936 302l0 -1"/>
<path stroke="red" d="M936 301l14 0 0 -1M950 301l24 0"/>
<path stroke="blue" d="M50 23l46 0"/>
<text stroke="none" fill="white" font-size="16" x="106" y="32">
x1.vsampled_n
</text>
<path stroke="blue" d="M50 431l1 0 1 -7 0 -15 1 -14 0 -5 1 2M54 415l0 -40 1 -4 0 -14 1 -2 0 -3 2 -2 1 0 1 -1 3 0 1 1 4 0 1 -1 48 0M117 360l0 -11M117 360l1 13M118 387l0 -14M118 387l1 3M119 394l0 -4M119 394l1 1M120 397l0 -2M120 397l2 0 1 1 423 0"/>
<path stroke="blue" d="M546 398l0 -22 1 -3 0 -24 1 -4 0 -6 1 0 0 -2 3 0 0 -1 14 0 1 1 0 -1M567 337l1 0 0 -1 5 0M573 337l0 -1M573 337l1 -1 19 0M593 337l0 -1M593 337l1 0 0 -1M594 337l1 0 0 -1 5 0M600 355l0 -19M600 355l1 2M601 363l0 -6M601 361l1 -2"/>
<path stroke="blue" d="M602 359l0 -1 1 -1 22 0 0 -8 1 -3 0 -8 1 0 1 1 18 0M646 340l0 -1 7 0M653 349l0 -10M653 349l1 2M654 352l0 -1 1 -1 0 -1 17 0M672 350l0 -1 27 0M699 350l0 -1 26 0M725 350l0 -1 26 0M751 350l0 -1M751 350l1 -1 26 0M778 350l0 -1"/>
<path stroke="blue" d="M778 349l26 0M804 350l0 -1 27 0M831 350l0 -1 26 0M857 350l0 -1 26 0M883 350l0 -1 27 0M910 350l0 -1 7 0M917 352l0 -3M917 352l1 6M918 391l0 -33M918 391l1 2M919 400l0 -7M919 400l2 -2 53 0"/>
<path stroke="#FFA500" d="M462 39l46 0"/>
<text stroke="none" fill="white" font-size="16" x="518" y="48">
x1.vsampled_p-x1.vsampled_n
</text>
<path stroke="#FFA500" d="M50 431l2 0 1 -1 1 0M54 431l0 -1M54 431l63 0 0 -12 1 -23 0 -35 1 -8 0 -10 1 -4 0 -3 1 -1 1 0 0 -1 418 0M540 335l0 -1 6 0M546 356l0 -22M546 356l1 3M547 383l0 -24M547 383l1 4M548 393l0 -6M548 393l1 0M549 395l0 -2M549 395l5 0"/>
<path stroke="#FFA500" d="M554 396l0 -1 12 0 1 1 0 -1 6 0M573 399l0 -4M573 399l1 5M574 423l0 -19M574 423l1 9M575 435l0 -3M575 435l1 1 24 0 0 -18 1 -2 0 -6M601 412l1 2M602 415l0 -1M602 415l1 1 22 0M625 424l0 -8M625 424l1 3M626 435l0 -8M626 435l1 0"/>
<path stroke="#FFA500" d="M627 435l1 -1 18 0 0 -1M646 434l7 0 0 -10 1 -2 0 -1M654 422l2 2 3 0 0 -1M659 424l13 0 0 -1M672 424l7 0M679 429l0 -6M679 429l1 1 0 -1 19 0 0 -1M699 429l7 0M706 432l0 -3M706 432l1 -1 26 0 0 -3M733 429l26 0M759 431l0 -2"/>
<path stroke="#FFA500" d="M759 430l26 0 1 1 26 0M812 432l0 -1 105 0M917 432l0 -11 1 -10 0 -52 1 -4 0 -15 1 -3 0 -1 1 -1 1 0 0 -1 14 0M936 335l0 -1 38 0"/>
<path stroke="green" d="M50 39l46 0"/>
<text stroke="none" fill="white" font-size="16" x="106" y="48">
x1.sw_sample-2
</text>
<path stroke="green" d="M50 613l1 0 1 -9 0 -21 1 -21M53 580l0 -24M53 580l1 30M54 613l0 -3M54 613l63 0M117 620l0 -172M117 449l422 0M539 614l0 -171M539 613l422 0M961 618l0 -170 1 1 12 0"/>
<path stroke="#FFC0C5" d="M462 55l46 0"/>
<text stroke="none" fill="white" font-size="16" x="518" y="64">
x1.comp_out_p+2
</text>
<path stroke="#FFC0C5" d="M50 249l1 0 1 -9 0 -22 1 -18 0 -4M53 198l1 5M54 249l0 -46M54 249l487 0 1 1 0 -166M542 85l13 0M555 250l0 -167M555 249l13 0M568 251l0 -168M568 85l13 0 0 -8 1 159M582 249l0 -13M582 249l39 0M621 251l0 -168M621 85l13 0M634 249l0 -173"/>
<path stroke="#FFC0C5" d="M634 249l39 0M673 250l0 -89 1 -68 0 -9M674 85l13 0M687 249l0 -171M687 249l13 0 0 -165M700 85l13 0 0 -4 1 153M714 249l0 -15M714 249l39 0 0 -165M753 85l13 0M766 249l0 -173M766 249l14 0 0 -165M780 85l13 0M793 249l0 -174"/>
<path stroke="#FFC0C5" d="M793 249l14 0 0 -165 1 1 11 0M819 249l0 -168M819 249l41 0 0 -164 12 0M872 249l0 -174M872 249l14 0 0 -157 1 -8M887 85l0 -1M887 85l11 0M898 249l0 -174M898 249l14 0 1 -157 0 -8M913 85l12 0M925 249l0 -172M925 249l12 0 1 -13"/>
<path stroke="#FFC0C5" d="M938 236l0 -152M938 85l13 0M951 250l0 -168M951 249l23 0"/>
<path stroke="#A52A2A" d="M50 55l46 0"/>
<text stroke="none" fill="white" font-size="16" x="106" y="64">
x1.comp_out_n-2
</text>
<path stroke="#A52A2A" d="M50 613l1 0 1 -9 0 -22 1 -19M53 564l0 -3M53 564l1 6M54 614l0 -44M54 612l1 1 539 0M594 615l0 -168M594 449l14 0M608 613l0 -172M608 613l39 0M647 614l0 -167M647 449l14 0M661 614l0 -169M661 613l67 0 0 -148 1 -16 0 -1M729 449l11 0"/>
<path stroke="#A52A2A" d="M740 613l0 -174M740 613l94 0 0 -164 11 0 0 -2M845 448l1 154M846 613l0 -11M846 613l128 0"/>
</svg>
