<?xml version="1.0" standalone="yes"?>
<!DOCTYPE svg PUBLIC "-//W3C//DTD SVG 1.1//EN"
 "http://www.w3.org/Graphics/SVG/1.1/DTD/svg11.dtd">
<svg xmlns="http://www.w3.org/2000/svg" version="1.1"
  width="100%" height="100%" viewBox="0 0 1024 768"
  style="fill: none; font-family: Helvetica;
 font: Helvetica;
">

<!-- Creator: NGspice -->

<rect x="0" y="0" width="1024" height="768" fill="black" stroke="none"/>
<text stroke="none" fill="white" font-size="16" x="358" y="752">
time
</text>
<text stroke="none" fill="white" font-size="16" x="10" y="16">
tran1: run1624_vin0.527781
</text>
<path stroke="white" d="M50 704l0 -637"/>
<text stroke="none" fill="white" font-size="16" x="35" y="728">
0.0
</text>
<path stroke="white" stroke-dasharray="1,2" d="M182 704l0 -637"/>
<text stroke="none" fill="white" font-size="16" x="157" y="728">
100.0
</text>
<path stroke="white" stroke-dasharray="1,2" d="M314 704l0 -637"/>
<text stroke="none" fill="white" font-size="16" x="289" y="728">
200.0
</text>
<path stroke="white" stroke-dasharray="1,2" d="M446 704l0 -637"/>
<text stroke="none" fill="white" font-size="16" x="421" y="728">
300.0
</text>
<path stroke="white" stroke-dasharray="1,2" d="M578 704l0 -637"/>
<text stroke="none" fill="white" font-size="16" x="553" y="728">
400.0
</text>
<path stroke="white" stroke-dasharray="1,2" d="M710 704l0 -637"/>
<text stroke="none" fill="white" font-size="16" x="685" y="728">
500.0
</text>
<path stroke="white" stroke-dasharray="1,2" d="M842 704l0 -637"/>
<text stroke="none" fill="white" font-size="16" x="817" y="728">
600.0
</text>
<path stroke="white" stroke-dasharray="1,2" d="M974 704l0 -637"/>
<text stroke="none" fill="white" font-size="16" x="949" y="728">
700.0
</text>
<text stroke="none" fill="white" font-size="16" x="614" y="752">
ns
</text>
<path stroke="white" stroke-dasharray="1,2" d="M50 704l924 0"/>
<text stroke="none" fill="white" font-size="16" x="8" y="712">
-3.0
</text>
<path stroke="white" stroke-dasharray="1,2" d="M50 613l924 0"/>
<text stroke="none" fill="white" font-size="16" x="8" y="621">
-2.0
</text>
<path stroke="white" stroke-dasharray="1,2" d="M50 522l924 0"/>
<text stroke="none" fill="white" font-size="16" x="8" y="530">
-1.0
</text>
<path stroke="white" d="M50 431l924 0"/>
<text stroke="none" fill="white" font-size="16" x="18" y="439">
0.0
</text>
<path stroke="white" stroke-dasharray="1,2" d="M50 340l924 0"/>
<text stroke="none" fill="white" font-size="16" x="18" y="348">
1.0
</text>
<path stroke="white" stroke-dasharray="1,2" d="M50 249l924 0"/>
<text stroke="none" fill="white" font-size="16" x="18" y="257">
2.0
</text>
<path stroke="white" stroke-dasharray="1,2" d="M50 158l924 0"/>
<text stroke="none" fill="white" font-size="16" x="18" y="166">
3.0
</text>
<path stroke="white" stroke-dasharray="1,2" d="M50 67l924 0"/>
<text stroke="none" fill="white" font-size="16" x="18" y="75">
4.0
</text>
<text stroke="none" fill="white" font-size="16" x="10" y="32">
     
</text>
<path stroke="red" d="M462 23l46 0"/>
<text stroke="none" fill="white" font-size="16" x="518" y="32">
x1.vsampled_p
</text>
<path stroke="red" d="M50 431l1 0 1 -7 0 -15 1 -15 0 -4 1 1M54 414l0 -39 1 -4 0 -14 1 -2 0 -3 2 -2 1 0 1 -1 3 0 1 1 4 0 1 -1 48 0 0 -1 1 -10 0 -21 1 -4 0 -7 1 -2 0 -2 1 0 1 -1 418 0M540 302l0 -1 26 0 1 1M567 303l0 -2 7 0M574 325l0 -24M574 325l1 8"/>
<path stroke="red" d="M575 340l0 -7M575 340l1 1M576 342l0 -1M576 342l17 0M593 343l0 -1 26 0M619 343l0 -1 27 0M646 343l0 -1 26 0M672 343l0 -1 7 0M679 347l0 -5M679 347l1 0M680 349l0 -2 19 0M699 348l0 -1 7 0M706 351l0 -4M706 351l1 -1 25 0 0 -3 1 1"/>
<path stroke="red" d="M733 348l5 0 0 -1 1 1 20 0M759 350l0 -2M759 349l53 0M812 350l0 -1 19 0M831 350l0 -1 26 0M857 350l0 -1 26 0M883 350l0 -1 27 0M910 350l0 -1 8 0 0 -23 1 -2 0 -11 1 -3 0 -3 1 -2 0 -2 1 0 0 -1 1 0 0 -1 13 0M936 303l0 -2 38 0"/>
<path stroke="blue" d="M50 23l46 0"/>
<text stroke="none" fill="white" font-size="16" x="106" y="32">
x1.vsampled_n
</text>
<path stroke="blue" d="M50 431l1 0 1 -7 0 -15 1 -14 0 -5 1 2M54 415l0 -40 1 -4 0 -14 1 -2 0 -3 2 -2 1 0 1 -1 3 0 1 1 4 0 1 -1 48 0M117 360l0 -11M117 360l1 13M118 386l0 -13M118 386l1 3M119 394l0 -5M119 394l1 1M120 396l0 -1M120 396l1 1 425 0 0 -18"/>
<path stroke="blue" d="M546 379l1 -4 0 -29 1 -3 0 -5 1 0 0 -1 1 0 0 -1 4 0 0 -1M554 336l13 0M567 337l0 -1 13 0 0 -1M580 336l13 0M593 337l0 -1 7 0M600 357l0 -21M600 357l1 2M601 362l0 -3M601 361l1 -3 0 -1 1 0 0 -1 16 0M619 357l0 -1M619 357l1 0"/>
<path stroke="blue" d="M620 357l0 -1 5 0 0 -10 1 -2 0 -7 1 1 2 0M629 339l0 -1M629 339l4 0 0 -1 13 0M646 339l0 -1M646 339l7 0M653 351l0 -13M653 351l1 0 0 -1 1 -1 4 0 0 -1M659 349l27 0 0 -1M686 349l26 0 0 -1M712 349l26 0 0 -1M738 349l27 0 0 -1"/>
<path stroke="blue" d="M765 349l21 0M786 350l0 -1 18 0M804 350l0 -1 26 0 1 1 0 -1 87 0M918 384l0 -35M918 384l1 1M919 398l0 -13M919 398l1 1 1 -1 1 0 0 -1 52 0"/>
<path stroke="#FFA500" d="M462 39l46 0"/>
<text stroke="none" fill="white" font-size="16" x="518" y="48">
x1.vsampled_p-x1.vsampled_n
</text>
<path stroke="#FFA500" d="M50 431l2 0 1 -1 1 0M54 431l0 -1M54 431l63 0 0 -12 1 -22 0 -35 1 -8 0 -11 1 -3 0 -3 2 -2 418 0M540 336l0 -1 6 0M546 354l0 -19M546 354l1 4M547 386l0 -28M547 386l1 4M548 394l0 -4M548 394l2 2 4 0M554 397l0 -1 12 0 1 1 0 -1"/>
<path stroke="#FFA500" d="M567 396l7 0M574 420l0 -24M574 420l1 8M575 435l0 -7M575 435l1 1M576 437l0 -1M576 437l24 0 0 -20 1 -3 0 -3M601 413l1 2M602 416l0 -1M602 416l1 1 22 0M625 427l0 -10M625 427l1 2M626 436l0 -7M626 436l1 0 1 -1 18 0 0 -1M646 435l7 0"/>
<path stroke="#FFA500" d="M653 435l0 -12 1 -1M654 423l0 -1M654 423l2 2 3 0 0 -1 13 0M672 425l0 -1M672 425l1 0 0 -1M673 425l6 0M679 429l0 -5M679 429l1 0M680 431l0 -2M680 430l19 0 0 -1M699 430l7 0M706 433l0 -3M706 433l1 -1 25 0 0 -3M732 430l27 0"/>
<path stroke="#FFA500" d="M759 432l0 -2M759 431l27 0 0 -1 1 0M787 431l0 -1M787 431l17 0 0 -1M804 431l34 0M838 432l0 -1M838 432l1 0 0 -1 79 0 0 -58 1 -3 0 -24 1 -5 0 -2 1 -2 0 -1 1 0 0 -1 14 0M936 336l0 -1 38 0"/>
<path stroke="green" d="M50 39l46 0"/>
<text stroke="none" fill="white" font-size="16" x="106" y="48">
x1.sw_sample-2
</text>
<path stroke="green" d="M50 613l1 0 1 -9 0 -21 1 -21M53 580l0 -24M53 580l1 30M54 613l0 -3M54 613l63 0M117 620l0 -172M117 449l422 0M539 614l0 -171M539 613l422 0M961 618l0 -170 1 1 12 0"/>
<path stroke="#FFC0C5" d="M462 55l46 0"/>
<text stroke="none" fill="white" font-size="16" x="518" y="64">
x1.comp_out_p+2
</text>
<path stroke="#FFC0C5" d="M50 249l1 0 1 -9 0 -22 1 -18 0 -4M53 198l1 5M54 249l0 -46M54 249l487 0 1 2 0 -168M542 85l13 0M555 250l0 -167M555 249l13 0 0 -165M568 85l13 0 0 -8 1 159M582 249l0 -13M582 249l39 0M621 251l0 -168M621 85l13 0M634 249l0 -172"/>
<path stroke="#FFC0C5" d="M634 249l39 0 0 -57 1 -93 0 -15M674 85l13 0M687 250l0 -172M687 249l13 0 0 -165M700 85l13 0 0 -8 1 158M714 249l0 -14M714 249l39 0 0 -165M753 85l13 0M766 250l0 -174M766 249l41 0 0 -165M807 85l12 0M819 249l0 -166M819 249l15 0"/>
<path stroke="#FFC0C5" d="M834 249l0 -165M834 85l11 0 0 -10 1 142M846 249l0 -32M846 249l91 0M937 255l0 -6M937 255l1 -138 0 -34M938 85l13 0M951 249l0 -172M951 249l23 0"/>
<path stroke="#A52A2A" d="M50 55l46 0"/>
<text stroke="none" fill="white" font-size="16" x="106" y="64">
x1.comp_out_n-2
</text>
<path stroke="#A52A2A" d="M50 613l1 0 1 -9 0 -22 1 -19M53 564l0 -3M53 564l1 6M54 614l0 -44M54 612l1 1 539 0M594 614l0 -167M594 449l14 0M608 614l0 -172M608 613l39 0M647 616l0 -169M647 449l14 0M661 614l0 -171M661 613l12 0 1 1 0 -1 53 0M727 614l0 -155"/>
<path stroke="#A52A2A" d="M727 459l1 -11M728 449l0 -1M728 449l12 0M740 613l0 -173M740 613l40 0 0 -165 1 1 12 0M793 613l0 -174M793 613l67 0 0 -164 12 0M872 613l0 -174M872 613l14 0 0 -156 1 -8 11 0M898 613l0 -174M898 613l15 0 0 -165M913 449l12 0"/>
<path stroke="#A52A2A" d="M925 613l0 -173M925 613l49 0"/>
</svg>
