<?xml version="1.0" standalone="yes"?>
<!DOCTYPE svg PUBLIC "-//W3C//DTD SVG 1.1//EN"
 "http://www.w3.org/Graphics/SVG/1.1/DTD/svg11.dtd">
<svg xmlns="http://www.w3.org/2000/svg" version="1.1"
  width="100%" height="100%" viewBox="0 0 1024 768"
  style="fill: none; font-family: Helvetica;
 font: Helvetica;
">

<!-- Creator: NGspice -->

<rect x="0" y="0" width="1024" height="768" fill="black" stroke="none"/>
<text stroke="none" fill="white" font-size="16" x="358" y="752">
time
</text>
<text stroke="none" fill="white" font-size="16" x="10" y="16">
tran1: run1481_vin0.402098
</text>
<path stroke="white" d="M50 704l0 -637"/>
<text stroke="none" fill="white" font-size="16" x="35" y="728">
0.0
</text>
<path stroke="white" stroke-dasharray="1,2" d="M182 704l0 -637"/>
<text stroke="none" fill="white" font-size="16" x="157" y="728">
100.0
</text>
<path stroke="white" stroke-dasharray="1,2" d="M314 704l0 -637"/>
<text stroke="none" fill="white" font-size="16" x="289" y="728">
200.0
</text>
<path stroke="white" stroke-dasharray="1,2" d="M446 704l0 -637"/>
<text stroke="none" fill="white" font-size="16" x="421" y="728">
300.0
</text>
<path stroke="white" stroke-dasharray="1,2" d="M578 704l0 -637"/>
<text stroke="none" fill="white" font-size="16" x="553" y="728">
400.0
</text>
<path stroke="white" stroke-dasharray="1,2" d="M710 704l0 -637"/>
<text stroke="none" fill="white" font-size="16" x="685" y="728">
500.0
</text>
<path stroke="white" stroke-dasharray="1,2" d="M842 704l0 -637"/>
<text stroke="none" fill="white" font-size="16" x="817" y="728">
600.0
</text>
<path stroke="white" stroke-dasharray="1,2" d="M974 704l0 -637"/>
<text stroke="none" fill="white" font-size="16" x="949" y="728">
700.0
</text>
<text stroke="none" fill="white" font-size="16" x="614" y="752">
ns
</text>
<path stroke="white" stroke-dasharray="1,2" d="M50 704l924 0"/>
<text stroke="none" fill="white" font-size="16" x="8" y="712">
-2.5
</text>
<path stroke="white" stroke-dasharray="1,2" d="M50 655l924 0"/>
<text stroke="none" fill="white" font-size="16" x="8" y="663">
-2.0
</text>
<path stroke="white" stroke-dasharray="1,2" d="M50 606l924 0"/>
<text stroke="none" fill="white" font-size="16" x="8" y="614">
-1.5
</text>
<path stroke="white" stroke-dasharray="1,2" d="M50 557l924 0"/>
<text stroke="none" fill="white" font-size="16" x="8" y="565">
-1.0
</text>
<path stroke="white" stroke-dasharray="1,2" d="M50 508l924 0"/>
<text stroke="none" fill="white" font-size="16" x="8" y="516">
-0.5
</text>
<path stroke="white" d="M50 459l924 0"/>
<text stroke="none" fill="white" font-size="16" x="18" y="467">
0.0
</text>
<path stroke="white" stroke-dasharray="1,2" d="M50 410l924 0"/>
<text stroke="none" fill="white" font-size="16" x="18" y="418">
0.5
</text>
<path stroke="white" stroke-dasharray="1,2" d="M50 361l924 0"/>
<text stroke="none" fill="white" font-size="16" x="18" y="369">
1.0
</text>
<path stroke="white" stroke-dasharray="1,2" d="M50 312l924 0"/>
<text stroke="none" fill="white" font-size="16" x="18" y="320">
1.5
</text>
<path stroke="white" stroke-dasharray="1,2" d="M50 263l924 0"/>
<text stroke="none" fill="white" font-size="16" x="18" y="271">
2.0
</text>
<path stroke="white" stroke-dasharray="1,2" d="M50 214l924 0"/>
<text stroke="none" fill="white" font-size="16" x="18" y="222">
2.5
</text>
<path stroke="white" stroke-dasharray="1,2" d="M50 165l924 0"/>
<text stroke="none" fill="white" font-size="16" x="18" y="173">
3.0
</text>
<path stroke="white" stroke-dasharray="1,2" d="M50 116l924 0"/>
<text stroke="none" fill="white" font-size="16" x="18" y="124">
3.5
</text>
<path stroke="white" stroke-dasharray="1,2" d="M50 67l924 0"/>
<text stroke="none" fill="white" font-size="16" x="18" y="75">
4.0
</text>
<text stroke="none" fill="white" font-size="16" x="10" y="32">
     
</text>
<path stroke="red" d="M462 23l46 0"/>
<text stroke="none" fill="white" font-size="16" x="518" y="32">
x1.vsampled_p
</text>
<path stroke="red" d="M50 459l1 0 1 -7 0 -17 1 -16 0 -4 1 1M54 441l0 -42 1 -6 0 -14 1 -3 0 -2 1 -2 1 0 0 -1 59 0 0 -1 1 -10 0 -17 1 -4 0 -3 1 -2 0 -1 1 -1 1 0 1 -1 416 0M539 332l0 -1M539 332l1 0M540 333l0 -1 14 0 0 -1M554 332l13 0M567 333l0 -1"/>
<path stroke="red" d="M567 332l7 0M574 354l0 -23M574 354l1 4M575 373l0 -15M575 373l1 1M576 376l0 -2M576 376l4 0 0 -1M580 376l45 0 0 -7 1 -3 0 -8 1 -1 1 0 1 -1 17 0M646 357l0 -1 7 0M653 366l0 -10M653 366l1 2 1 0 0 -1 17 0M672 368l0 -1 26 0 1 1"/>
<path stroke="red" d="M699 368l0 -1 7 0M706 371l0 -4M706 370l19 0M725 371l0 -1 26 0M751 371l0 -1 27 0M778 371l0 -1 7 0M785 371l0 -1M785 371l133 0 0 -6 1 -1 0 -14 1 -3 0 -8 1 -3 0 -2 1 0 0 -2 1 0 0 -1M923 332l13 0M936 333l0 -1 14 0 0 -1M950 332l11 0"/>
<path stroke="red" d="M961 332l0 -1 13 0"/>
<path stroke="blue" d="M50 23l46 0"/>
<text stroke="none" fill="white" font-size="16" x="106" y="32">
x1.vsampled_n
</text>
<path stroke="blue" d="M50 459l1 0 1 -7 0 -17 1 -15 0 -5 1 2M54 441l0 -42 1 -6 0 -14 1 -3 0 -2 1 -2 1 0 0 -1 59 0M117 378l0 -7M117 378l1 11M118 402l0 -13M118 402l1 3M119 407l0 -2M119 407l1 1M120 409l0 -1M120 409l1 1 419 0M540 411l0 -1 6 0 0 -24"/>
<path stroke="blue" d="M546 386l1 -4 0 -27 1 -2 0 -4 1 -2 0 -2 1 0 1 -1 15 0 1 1M567 346l0 -2 26 0M593 346l0 -2 7 0M600 365l0 -21M600 365l1 2M601 373l0 -6M601 370l1 -1 0 -2 1 0 0 -1 16 0M619 367l0 -1M619 367l1 0 0 -1 26 0M646 367l0 -1 26 0M672 367l0 -1"/>
<path stroke="blue" d="M672 366l7 0M679 373l0 -7M679 373l1 1M680 375l0 -2 1 -1 51 0 0 -4M732 369l19 0M751 370l0 -1M751 370l1 0 0 -1 7 0M759 372l0 -3M759 371l54 0M813 372l0 -1 18 0M831 372l0 -1 7 0 0 -1M838 371l80 0M918 383l0 -14M918 383l1 2M919 404l0 -19"/>
<path stroke="blue" d="M919 404l1 5M920 412l0 -3M920 412l1 0 0 -1 2 0 0 -1 13 0M936 411l0 -1 38 0"/>
<path stroke="#FFA500" d="M462 39l46 0"/>
<text stroke="none" fill="white" font-size="16" x="518" y="48">
x1.vsampled_p-x1.vsampled_n
</text>
<path stroke="#FFA500" d="M50 459l2 0 1 -1 1 0M54 459l0 -1M54 459l63 0 0 -8 1 -21 0 -30 1 -7 0 -5 1 -3 0 -2 1 -2 1 -1 418 0M540 381l0 -1 1 0M541 381l0 -1 5 0M546 405l0 -25M546 405l1 3M547 436l0 -28M547 436l1 1M548 442l0 -5M548 442l1 2M549 445l0 -1"/>
<path stroke="#FFA500" d="M549 445l1 1 4 0M554 447l0 -1 13 0M567 447l0 -1 7 0M574 468l0 -22M574 468l1 5M575 487l0 -14M575 487l1 2M576 490l0 -1M576 490l4 0M580 491l0 -1 13 0 0 -1M593 490l7 0 0 -20 1 -3 0 -5M601 465l1 1M602 468l0 -2M602 468l4 0"/>
<path stroke="#FFA500" d="M606 469l0 -1M606 469l1 -1 18 0 0 -7 1 -2 0 -9 1 0 0 -1 26 0M653 459l0 -10M653 459l1 1M654 461l0 -1 25 0 0 -7 1 -1M680 454l0 -3M680 454l1 0M681 455l0 -1M681 455l18 0 0 -1M699 455l7 0M706 458l0 -3M706 458l1 -1 25 0M732 461l0 -4"/>
<path stroke="#FFA500" d="M732 460l27 0 0 -3M759 458l26 0M785 459l0 -1M785 459l1 0M786 460l0 -1 27 0 0 -1M813 459l105 0 0 -19 1 -2 0 -32 1 -9 0 -11 1 -3 0 -1 1 0 0 -1 1 0 0 -1 13 0M936 381l0 -1 38 0"/>
<path stroke="green" d="M50 39l46 0"/>
<text stroke="none" fill="white" font-size="16" x="106" y="48">
x1.sw_sample-2
</text>
<path stroke="green" d="M50 655l1 0 1 -10 0 -23 1 -21M53 620l0 -26M53 620l1 32M54 655l0 -3M54 655l63 0M117 662l0 -184 1 0M118 479l0 -1M118 479l421 0M539 656l0 -181M539 655l422 0M961 660l0 -182 1 0M962 479l0 -1M962 479l12 0"/>
<path stroke="#FFC0C5" d="M462 55l46 0"/>
<text stroke="none" fill="white" font-size="16" x="518" y="64">
x1.comp_out_p+2
</text>
<path stroke="#FFC0C5" d="M50 263l1 0 1 -10 0 -23 1 -20 0 -4M53 209l1 4M54 263l0 -50M54 263l488 0 0 -178M542 87l13 0M555 264l0 -185M555 263l13 0M568 264l0 -179M568 87l13 0 0 -10 1 174M582 264l0 -13M582 263l65 0 0 -178M647 87l14 0M661 263l0 -185"/>
<path stroke="#FFC0C5" d="M661 263l39 0M700 265l0 -180M700 87l13 0 0 -10 1 174M714 264l0 -13M714 263l13 0 0 -177 1 1 12 0M740 264l0 -187M740 263l40 0 0 -177M780 87l13 0M793 263l0 -185M793 263l41 0 0 -177M834 87l11 0 0 -9 1 157M846 263l0 -28M846 263l41 0"/>
<path stroke="#FFC0C5" d="M887 263l0 -177 1 0M888 87l0 -1M888 87l10 0M898 263l0 -185M898 263l39 0 1 7 0 -185M938 87l13 0M951 264l0 -184M951 263l23 0"/>
<path stroke="#A52A2A" d="M50 55l46 0"/>
<text stroke="none" fill="white" font-size="16" x="106" y="64">
x1.comp_out_n-2
</text>
<path stroke="#A52A2A" d="M50 655l1 0 1 -10 0 -24 1 -20M53 602l0 -3M53 602l1 7M54 655l0 -46M54 654l1 1 539 0 0 -178M594 478l1 1 13 0M608 656l0 -184M608 655l13 0 0 -178M621 479l13 0M634 655l0 -186M634 655l40 0 0 -178M674 479l13 0M687 655l0 -186"/>
<path stroke="#A52A2A" d="M687 655l66 0 0 -177 1 0M754 479l0 -1M754 479l12 0M766 655l0 -184M766 655l41 0 1 -169 0 -8M808 479l11 0M819 655l0 -186M819 655l41 0 0 -169 1 -8M861 479l0 -1M861 479l11 0M872 655l0 -186M872 655l41 0 0 -177 1 0M914 479l0 -1"/>
<path stroke="#A52A2A" d="M914 479l11 0M925 656l0 -188M925 655l49 0"/>
</svg>
