<?xml version="1.0" standalone="yes"?>
<!DOCTYPE svg PUBLIC "-//W3C//DTD SVG 1.1//EN"
 "http://www.w3.org/Graphics/SVG/1.1/DTD/svg11.dtd">
<svg xmlns="http://www.w3.org/2000/svg" version="1.1"
  width="100%" height="100%" viewBox="0 0 1024 768"
  style="fill: none; font-family: Helvetica;
 font: Helvetica;
">

<!-- Creator: NGspice -->

<rect x="0" y="0" width="1024" height="768" fill="black" stroke="none"/>
<text stroke="none" fill="white" font-size="16" x="358" y="752">
time
</text>
<text stroke="none" fill="white" font-size="16" x="10" y="16">
tran1: run799_vin-0.197315
</text>
<path stroke="white" d="M50 704l0 -637"/>
<text stroke="none" fill="white" font-size="16" x="35" y="728">
0.0
</text>
<path stroke="white" stroke-dasharray="1,2" d="M182 704l0 -637"/>
<text stroke="none" fill="white" font-size="16" x="157" y="728">
100.0
</text>
<path stroke="white" stroke-dasharray="1,2" d="M314 704l0 -637"/>
<text stroke="none" fill="white" font-size="16" x="289" y="728">
200.0
</text>
<path stroke="white" stroke-dasharray="1,2" d="M446 704l0 -637"/>
<text stroke="none" fill="white" font-size="16" x="421" y="728">
300.0
</text>
<path stroke="white" stroke-dasharray="1,2" d="M578 704l0 -637"/>
<text stroke="none" fill="white" font-size="16" x="553" y="728">
400.0
</text>
<path stroke="white" stroke-dasharray="1,2" d="M710 704l0 -637"/>
<text stroke="none" fill="white" font-size="16" x="685" y="728">
500.0
</text>
<path stroke="white" stroke-dasharray="1,2" d="M842 704l0 -637"/>
<text stroke="none" fill="white" font-size="16" x="817" y="728">
600.0
</text>
<path stroke="white" stroke-dasharray="1,2" d="M974 704l0 -637"/>
<text stroke="none" fill="white" font-size="16" x="949" y="728">
700.0
</text>
<text stroke="none" fill="white" font-size="16" x="614" y="752">
ns
</text>
<path stroke="white" stroke-dasharray="1,2" d="M50 704l924 0"/>
<text stroke="none" fill="white" font-size="16" x="8" y="712">
-2.5
</text>
<path stroke="white" stroke-dasharray="1,2" d="M50 655l924 0"/>
<text stroke="none" fill="white" font-size="16" x="8" y="663">
-2.0
</text>
<path stroke="white" stroke-dasharray="1,2" d="M50 606l924 0"/>
<text stroke="none" fill="white" font-size="16" x="8" y="614">
-1.5
</text>
<path stroke="white" stroke-dasharray="1,2" d="M50 557l924 0"/>
<text stroke="none" fill="white" font-size="16" x="8" y="565">
-1.0
</text>
<path stroke="white" stroke-dasharray="1,2" d="M50 508l924 0"/>
<text stroke="none" fill="white" font-size="16" x="8" y="516">
-0.5
</text>
<path stroke="white" d="M50 459l924 0"/>
<text stroke="none" fill="white" font-size="16" x="18" y="467">
0.0
</text>
<path stroke="white" stroke-dasharray="1,2" d="M50 410l924 0"/>
<text stroke="none" fill="white" font-size="16" x="18" y="418">
0.5
</text>
<path stroke="white" stroke-dasharray="1,2" d="M50 361l924 0"/>
<text stroke="none" fill="white" font-size="16" x="18" y="369">
1.0
</text>
<path stroke="white" stroke-dasharray="1,2" d="M50 312l924 0"/>
<text stroke="none" fill="white" font-size="16" x="18" y="320">
1.5
</text>
<path stroke="white" stroke-dasharray="1,2" d="M50 263l924 0"/>
<text stroke="none" fill="white" font-size="16" x="18" y="271">
2.0
</text>
<path stroke="white" stroke-dasharray="1,2" d="M50 214l924 0"/>
<text stroke="none" fill="white" font-size="16" x="18" y="222">
2.5
</text>
<path stroke="white" stroke-dasharray="1,2" d="M50 165l924 0"/>
<text stroke="none" fill="white" font-size="16" x="18" y="173">
3.0
</text>
<path stroke="white" stroke-dasharray="1,2" d="M50 116l924 0"/>
<text stroke="none" fill="white" font-size="16" x="18" y="124">
3.5
</text>
<path stroke="white" stroke-dasharray="1,2" d="M50 67l924 0"/>
<text stroke="none" fill="white" font-size="16" x="18" y="75">
4.0
</text>
<text stroke="none" fill="white" font-size="16" x="10" y="32">
     
</text>
<path stroke="red" d="M462 23l46 0"/>
<text stroke="none" fill="white" font-size="16" x="518" y="32">
x1.vsampled_p
</text>
<path stroke="red" d="M50 459l1 0 1 -7 0 -17 1 -15 0 -5 1 2M54 442l0 -42 1 -6 0 -15 1 -3 0 -2 1 -2 1 0 0 -1 59 0M117 374l0 -3M117 374l1 5M118 386l0 -7M118 386l1 2 1 1M120 390l0 -1M120 390l420 0M540 391l0 -1 6 0 0 -23 1 -3 0 -27 1 -5 0 -4 1 -2"/>
<path stroke="red" d="M549 326l0 -1 1 0 1 -1 15 0 1 1M567 326l0 -2 7 0M574 352l0 -28M574 352l1 6M575 370l0 -12M575 370l1 0 2 -2 15 0M593 369l0 -1 26 0M619 369l0 -1 27 0M646 369l0 -1 26 0M672 369l0 -1 26 0 1 1 0 -1 7 0M706 372l0 -4M706 372l1 -1"/>
<path stroke="red" d="M707 371l25 0 0 -1 1 -2 0 -1M733 368l1 1 4 0 0 -1 1 1 20 0M759 371l0 -2M759 370l26 0M785 371l0 -1M785 371l6 0 0 -1M791 371l21 0M812 372l0 -1 26 0 0 -1M838 371l6 0 0 -1M844 371l26 0 0 -1M870 371l27 0 0 -1M897 371l20 0M917 372l0 -2"/>
<path stroke="red" d="M917 370l1 -1M918 394l0 -25M918 394l1 -1 0 -2 1 0 0 -1 16 0M936 391l0 -1 38 0"/>
<path stroke="blue" d="M50 23l46 0"/>
<text stroke="none" fill="white" font-size="16" x="106" y="32">
x1.vsampled_n
</text>
<path stroke="blue" d="M50 459l1 0 1 -7 0 -17 1 -15 0 -5 1 1M54 441l0 -41 1 -6 0 -15 1 -3 0 -2 1 -2 1 0 0 -1 59 0 0 -1 1 -6 0 -8 1 -3 1 -1 2 0 1 -1 416 0M539 352l0 -1M539 352l15 0 0 -1M554 352l13 0M567 353l0 -1 13 0 0 -1M580 352l20 0M600 369l0 -17"/>
<path stroke="blue" d="M600 369l1 3M601 377l0 -5M601 376l1 -1 0 -1 23 0 1 -1 0 -18 1 0 0 -1 3 0M630 355l0 -1M630 355l3 0 0 -1 13 0M646 355l0 -1M646 355l7 0M653 365l0 -11M653 365l1 1M654 367l0 -1 5 0 0 -1 13 0M672 366l0 -1 1 0M673 366l0 -1 1 1"/>
<path stroke="blue" d="M674 366l5 0M679 369l0 -4M679 369l1 1M680 373l0 -3M680 371l237 0M917 372l0 -1M917 372l1 -3 0 -14 1 -2 0 -2 1 0 1 1 2 0 0 -1M923 352l27 0 0 -1M950 352l12 0 0 -1 12 0"/>
<path stroke="#FFA500" d="M462 39l46 0"/>
<text stroke="none" fill="white" font-size="16" x="518" y="48">
x1.vsampled_p-x1.vsampled_n
</text>
<path stroke="#FFA500" d="M50 459l67 0M117 462l0 -3M117 462l1 12M118 489l0 -15M118 489l1 5 1 2M120 497l0 -1M120 497l1 0 1 1 418 0 0 -1M540 498l1 0 0 -1M541 498l5 0 0 -24 1 -3 0 -26 1 -6 0 -4 1 -2 0 -1 5 0 0 -1M554 432l13 0M567 433l0 -2M567 432l7 0"/>
<path stroke="#FFA500" d="M574 459l0 -28M574 459l1 7M575 478l0 -12M575 478l1 0 0 -1 1 -1 16 0 0 -1M593 476l7 0 0 -18 1 -3 0 -5M601 451l1 1M602 453l0 -1M602 453l1 0 1 1 2 0 0 -1M606 454l13 0 0 -1 1 1 5 0 1 1M626 472l0 -17M626 472l1 1 26 0 0 -11"/>
<path stroke="#FFA500" d="M653 462l1 -1 0 -1M654 461l1 0M655 462l0 -1M655 462l24 0 0 -3 1 -2 0 -2M680 456l26 0M706 460l0 -4M706 460l1 -1 25 0 0 -1 1 -2M733 457l0 -2M733 457l26 0M759 459l0 -2M759 458l26 0M785 459l0 -1M785 459l27 0M812 460l0 -1"/>
<path stroke="#FFA500" d="M812 459l26 0 0 -1M838 459l79 0M917 460l0 -4 1 3M918 498l0 -39M918 498l1 1 1 -1 16 0 0 -1M936 498l38 0"/>
<path stroke="green" d="M50 39l46 0"/>
<text stroke="none" fill="white" font-size="16" x="106" y="48">
x1.sw_sample-2
</text>
<path stroke="green" d="M50 655l1 0 1 -10 0 -23 1 -21M53 621l0 -27M53 621l1 31M54 655l0 -3M54 655l63 0M117 662l0 -184 1 0M118 479l0 -1M118 479l421 0M539 656l0 -184M539 655l422 0M961 660l0 -182 1 0M962 479l0 -1 1 1 11 0"/>
<path stroke="#FFC0C5" d="M462 55l46 0"/>
<text stroke="none" fill="white" font-size="16" x="518" y="64">
x1.comp_out_p+2
</text>
<path stroke="#FFC0C5" d="M50 263l1 0 1 -10 0 -23 1 -20 0 -4M53 209l1 4M54 263l0 -50M54 263l514 0 0 -178M568 87l13 0 0 -10 1 172M582 263l0 -14M582 263l39 0M621 264l0 -179M621 87l13 0M634 263l0 -186M634 263l66 0M700 264l0 -179M700 87l13 0 0 -7"/>
<path stroke="#FFC0C5" d="M713 80l1 110M714 264l0 -74M714 263l39 0 0 -178M753 87l13 0M766 264l0 -186M766 264l1 -1 13 0 0 -177M780 87l13 0M793 264l0 -182M793 263l14 0 0 -178M807 86l1 1 11 0M819 264l0 -184M819 263l41 0 0 -177M860 87l12 0M872 264l0 -182"/>
<path stroke="#FFC0C5" d="M872 263l14 0 0 -169 1 -9M887 87l0 -2M887 87l11 0M898 264l0 -182M898 263l14 0 1 -169 0 -9M913 87l12 0M925 263l0 -185M925 263l49 0"/>
<path stroke="#A52A2A" d="M50 55l46 0"/>
<text stroke="none" fill="white" font-size="16" x="106" y="64">
x1.comp_out_n-2
</text>
<path stroke="#A52A2A" d="M50 655l1 0 1 -10 0 -24 1 -20M53 602l0 -3M53 602l1 7M54 655l0 -46M54 655l488 0 0 -178M542 479l13 0M555 655l0 -186M555 655l39 0M594 657l0 -181M594 478l1 1 13 0M608 655l0 -186M608 655l39 0M647 656l0 -179M647 479l14 0M661 656l0 -187"/>
<path stroke="#A52A2A" d="M661 655l12 0 1 2 0 -181M674 479l13 0M687 655l0 -185M687 655l41 0 0 -170 1 -7M729 479l0 -1M729 479l11 0M740 655l0 -187M740 655l94 0 0 -177M834 479l11 0 0 -11 1 163M846 655l0 -24M846 655l91 0 1 -71 0 -107M938 479l13 0"/>
<path stroke="#A52A2A" d="M951 656l0 -180M951 655l23 0"/>
</svg>
