<?xml version="1.0" standalone="yes"?>
<!DOCTYPE svg PUBLIC "-//W3C//DTD SVG 1.1//EN"
 "http://www.w3.org/Graphics/SVG/1.1/DTD/svg11.dtd">
<svg xmlns="http://www.w3.org/2000/svg" version="1.1"
  width="100%" height="100%" viewBox="0 0 1024 768"
  style="fill: none; font-family: Helvetica;
 font: Helvetica;
">

<!-- Creator: NGspice -->

<rect x="0" y="0" width="1024" height="768" fill="black" stroke="none"/>
<text stroke="none" fill="white" font-size="16" x="358" y="752">
time
</text>
<text stroke="none" fill="white" font-size="16" x="10" y="16">
tran1: run1911_vin0.780027
</text>
<path stroke="white" d="M50 704l0 -637"/>
<text stroke="none" fill="white" font-size="16" x="35" y="728">
0.0
</text>
<path stroke="white" stroke-dasharray="1,2" d="M182 704l0 -637"/>
<text stroke="none" fill="white" font-size="16" x="157" y="728">
100.0
</text>
<path stroke="white" stroke-dasharray="1,2" d="M314 704l0 -637"/>
<text stroke="none" fill="white" font-size="16" x="289" y="728">
200.0
</text>
<path stroke="white" stroke-dasharray="1,2" d="M446 704l0 -637"/>
<text stroke="none" fill="white" font-size="16" x="421" y="728">
300.0
</text>
<path stroke="white" stroke-dasharray="1,2" d="M578 704l0 -637"/>
<text stroke="none" fill="white" font-size="16" x="553" y="728">
400.0
</text>
<path stroke="white" stroke-dasharray="1,2" d="M710 704l0 -637"/>
<text stroke="none" fill="white" font-size="16" x="685" y="728">
500.0
</text>
<path stroke="white" stroke-dasharray="1,2" d="M842 704l0 -637"/>
<text stroke="none" fill="white" font-size="16" x="817" y="728">
600.0
</text>
<path stroke="white" stroke-dasharray="1,2" d="M974 704l0 -637"/>
<text stroke="none" fill="white" font-size="16" x="949" y="728">
700.0
</text>
<text stroke="none" fill="white" font-size="16" x="614" y="752">
ns
</text>
<path stroke="white" stroke-dasharray="1,2" d="M50 704l924 0"/>
<text stroke="none" fill="white" font-size="16" x="8" y="712">
-3.0
</text>
<path stroke="white" stroke-dasharray="1,2" d="M50 613l924 0"/>
<text stroke="none" fill="white" font-size="16" x="8" y="621">
-2.0
</text>
<path stroke="white" stroke-dasharray="1,2" d="M50 522l924 0"/>
<text stroke="none" fill="white" font-size="16" x="8" y="530">
-1.0
</text>
<path stroke="white" d="M50 431l924 0"/>
<text stroke="none" fill="white" font-size="16" x="18" y="439">
0.0
</text>
<path stroke="white" stroke-dasharray="1,2" d="M50 340l924 0"/>
<text stroke="none" fill="white" font-size="16" x="18" y="348">
1.0
</text>
<path stroke="white" stroke-dasharray="1,2" d="M50 249l924 0"/>
<text stroke="none" fill="white" font-size="16" x="18" y="257">
2.0
</text>
<path stroke="white" stroke-dasharray="1,2" d="M50 158l924 0"/>
<text stroke="none" fill="white" font-size="16" x="18" y="166">
3.0
</text>
<path stroke="white" stroke-dasharray="1,2" d="M50 67l924 0"/>
<text stroke="none" fill="white" font-size="16" x="18" y="75">
4.0
</text>
<text stroke="none" fill="white" font-size="16" x="10" y="32">
     
</text>
<path stroke="red" d="M462 23l46 0"/>
<text stroke="none" fill="white" font-size="16" x="518" y="32">
x1.vsampled_p
</text>
<path stroke="red" d="M50 431l1 0 1 -7 0 -16 1 -14 0 -5 1 2M54 414l0 -38 1 -5 0 -13 1 -3 0 -3 1 -1 0 -1 2 0 1 -1 3 0 1 1 4 0 1 -1 48 0 0 -1 1 -12 0 -34 1 -6 0 -10 1 -3 0 -2 1 -1 0 -1 1 0 1 -1 417 0M540 279l0 -1M540 279l1 0 0 -1M541 279l2 0 0 -1"/>
<path stroke="red" d="M543 278l23 0 1 1M567 280l0 -1 1 0 0 -1 5 0M573 281l0 -3M573 281l1 4M574 303l0 -18M574 303l1 8M575 318l0 -7M575 318l1 1 17 0M593 320l0 -1 7 0M600 333l0 -14M600 333l1 4M601 341l0 -4M601 340l5 0 0 -1 1 0M607 340l0 -1M607 340l26 0"/>
<path stroke="red" d="M633 340l0 -1M633 340l20 0M653 347l0 -7M653 347l1 1M654 350l0 -2M654 350l77 0 1 -1 0 -2M732 348l27 0M759 350l0 -2M759 349l54 0M813 350l0 -1 18 0M831 350l0 -1 26 0M857 350l0 -1 26 0M883 350l0 -1 27 0M910 350l0 -1 8 0M918 350l0 -51"/>
<path stroke="red" d="M918 299l1 -4 0 -11 1 -2 0 -1 1 -1 0 -1 2 0 0 -1 13 0M936 280l0 -2M936 279l3 0 0 -1 11 0M950 279l0 -1 24 0"/>
<path stroke="blue" d="M50 23l46 0"/>
<text stroke="none" fill="white" font-size="16" x="106" y="32">
x1.vsampled_n
</text>
<path stroke="blue" d="M50 431l1 0 1 -7 0 -15 1 -14 0 -5 1 2M54 414l0 -38 1 -5 0 -13 1 -3 0 -3 1 -1 0 -1 2 0 1 -1 3 0 1 1 3 0 1 -1 49 0M117 370l0 -21M117 370l1 17M118 407l0 -20M118 407l1 3M119 415l0 -5M119 415l1 2M120 418l0 -1M120 418l1 1M121 420l0 -1"/>
<path stroke="blue" d="M121 420l425 0 0 -24 1 -3 0 -22 1 -7 0 -3 2 -2 75 0 0 -13 1 -1 0 -5 1 0 1 1 5 0 0 -1M633 341l13 0M646 342l0 -1 26 0M672 342l0 -1 7 0M679 348l0 -7M679 348l1 1M680 350l0 -4 19 0M699 347l0 -1 7 0M706 350l0 -4M706 350l1 0 0 -1"/>
<path stroke="blue" d="M707 349l5 0 0 -1M712 349l26 0 0 -1 1 1 26 0 0 -1M765 349l21 0M786 350l0 -1 18 0M804 350l0 -1 26 0 1 1 0 -1 7 0 0 -1 1 1 78 0M917 350l0 -1M917 350l1 0M918 430l0 -82M918 430l1 -1 0 -5 1 -1 0 -1 1 -1 0 -1 53 0"/>
<path stroke="#FFA500" d="M462 39l46 0"/>
<text stroke="none" fill="white" font-size="16" x="518" y="48">
x1.vsampled_p-x1.vsampled_n
</text>
<path stroke="#FFA500" d="M50 431l2 0 0 -1 2 0M54 431l0 -1M54 431l63 0 0 -22 1 -28 0 -55 1 -9 0 -15 1 -5 0 -3 1 -2 0 -2 1 0 1 -1 417 0M540 290l0 -1 1 0M541 290l0 -1 5 0M546 314l0 -25M546 314l1 2M547 339l0 -23M547 339l1 6M548 349l0 -4M548 349l1 1"/>
<path stroke="#FFA500" d="M549 350l1 0 1 1 3 0 0 -1 12 0 1 1M567 352l0 -2M567 351l6 0M573 353l0 -2M573 353l1 5M574 375l0 -17M574 375l1 8M575 390l0 -7M575 390l1 2 1 0 1 -1 15 0M593 392l0 -1 7 0M600 405l0 -14M600 405l1 4M601 413l0 -4M601 413l1 -1"/>
<path stroke="#FFA500" d="M602 412l23 0M625 425l0 -13M625 425l1 1M626 431l0 -5M626 431l1 0 0 -1 19 0 0 -1M646 430l7 0M653 436l0 -6M653 436l1 2M654 440l0 -2M654 440l18 0 0 -1M672 440l7 0 0 -7 1 -1M680 435l0 -4M680 435l19 0 0 -1M699 435l7 0 0 -4"/>
<path stroke="#FFA500" d="M706 431l1 0M707 432l0 -1M707 432l24 0 1 -1 0 -1 27 0M759 432l0 -2M759 431l27 0 0 -1M786 431l18 0 0 -1M804 431l34 0M838 432l0 -1M838 432l1 0 0 -1 78 0 0 -1 1 1M918 433l0 -133 1 -3 0 -6 1 -1 1 0 0 -1 15 0M936 291l0 -2"/>
<path stroke="#FFA500" d="M936 289l38 0"/>
<path stroke="green" d="M50 39l46 0"/>
<text stroke="none" fill="white" font-size="16" x="106" y="48">
x1.sw_sample-2
</text>
<path stroke="green" d="M50 613l1 0 1 -9 0 -21 1 -21M53 579l0 -23M53 579l1 31M54 613l0 -3M54 613l63 0M117 620l0 -172M117 449l422 0M539 614l0 -171M539 613l422 0M961 618l0 -170 1 1 12 0"/>
<path stroke="#FFC0C5" d="M462 55l46 0"/>
<text stroke="none" fill="white" font-size="16" x="518" y="64">
x1.comp_out_p+2
</text>
<path stroke="#FFC0C5" d="M50 249l1 0 1 -9 0 -22 1 -18 0 -4M53 198l1 5M54 249l0 -46M54 249l487 0 1 1 0 -166M542 85l13 0M555 249l0 -173M555 249l13 0M568 254l0 -171M568 85l13 0 0 -8 1 162M582 250l0 -11M582 249l12 0M594 250l0 -166M594 85l14 0M608 249l0 -172"/>
<path stroke="#FFC0C5" d="M608 249l13 0 0 -165M621 85l13 0M634 249l0 -172M634 249l13 0M647 250l0 -166M647 85l14 0M661 249l0 -174M661 249l92 0 0 -165M753 85l13 0M766 249l0 -166M766 249l41 0 0 -165 1 1 11 0M819 250l0 -171M819 249l15 0 0 -164 11 0"/>
<path stroke="#FFC0C5" d="M845 85l0 -5 1 72M846 250l0 -98M846 249l91 0 1 -51 0 -114M938 85l13 0M951 249l0 -171M951 249l23 0"/>
<path stroke="#A52A2A" d="M50 55l46 0"/>
<text stroke="none" fill="white" font-size="16" x="106" y="64">
x1.comp_out_n-2
</text>
<path stroke="#A52A2A" d="M50 613l1 0 1 -9 0 -22 1 -19M53 564l0 -3M53 564l1 6M54 613l0 -43M54 611l1 2 618 0M673 615l0 -2M673 615l1 -105 0 -63M674 449l13 0M687 613l0 -171M687 613l13 0 0 -166M700 449l13 0 1 -9M714 614l0 -174M714 613l13 0 0 -165"/>
<path stroke="#A52A2A" d="M727 448l1 1 12 0M740 613l0 -173M740 613l40 0 0 -165 1 0M781 449l0 -1M781 449l12 0M793 613l0 -173M793 613l66 0 1 -158 0 -7M860 449l12 0M872 613l0 -174M872 613l14 0 0 -164 1 -1M887 449l0 -1M887 449l11 0M898 613l0 -174"/>
<path stroke="#A52A2A" d="M898 613l15 0 0 -165M913 449l12 0M925 614l0 -169M925 613l49 0"/>
</svg>
