<?xml version="1.0" standalone="yes"?>
<!DOCTYPE svg PUBLIC "-//W3C//DTD SVG 1.1//EN"
 "http://www.w3.org/Graphics/SVG/1.1/DTD/svg11.dtd">
<svg xmlns="http://www.w3.org/2000/svg" version="1.1"
  width="100%" height="100%" viewBox="0 0 1024 768"
  style="fill: none; font-family: Helvetica;
 font: Helvetica;
">

<!-- Creator: NGspice -->

<rect x="0" y="0" width="1024" height="768" fill="black" stroke="none"/>
<text stroke="none" fill="white" font-size="16" x="358" y="752">
time
</text>
<text stroke="none" fill="white" font-size="16" x="10" y="16">
tran1: run1999_vin0.857371
</text>
<path stroke="white" d="M50 704l0 -637"/>
<text stroke="none" fill="white" font-size="16" x="35" y="728">
0.0
</text>
<path stroke="white" stroke-dasharray="1,2" d="M182 704l0 -637"/>
<text stroke="none" fill="white" font-size="16" x="157" y="728">
100.0
</text>
<path stroke="white" stroke-dasharray="1,2" d="M314 704l0 -637"/>
<text stroke="none" fill="white" font-size="16" x="289" y="728">
200.0
</text>
<path stroke="white" stroke-dasharray="1,2" d="M446 704l0 -637"/>
<text stroke="none" fill="white" font-size="16" x="421" y="728">
300.0
</text>
<path stroke="white" stroke-dasharray="1,2" d="M578 704l0 -637"/>
<text stroke="none" fill="white" font-size="16" x="553" y="728">
400.0
</text>
<path stroke="white" stroke-dasharray="1,2" d="M710 704l0 -637"/>
<text stroke="none" fill="white" font-size="16" x="685" y="728">
500.0
</text>
<path stroke="white" stroke-dasharray="1,2" d="M842 704l0 -637"/>
<text stroke="none" fill="white" font-size="16" x="817" y="728">
600.0
</text>
<path stroke="white" stroke-dasharray="1,2" d="M974 704l0 -637"/>
<text stroke="none" fill="white" font-size="16" x="949" y="728">
700.0
</text>
<text stroke="none" fill="white" font-size="16" x="614" y="752">
ns
</text>
<path stroke="white" stroke-dasharray="1,2" d="M50 704l924 0"/>
<text stroke="none" fill="white" font-size="16" x="8" y="712">
-3.0
</text>
<path stroke="white" stroke-dasharray="1,2" d="M50 613l924 0"/>
<text stroke="none" fill="white" font-size="16" x="8" y="621">
-2.0
</text>
<path stroke="white" stroke-dasharray="1,2" d="M50 522l924 0"/>
<text stroke="none" fill="white" font-size="16" x="8" y="530">
-1.0
</text>
<path stroke="white" d="M50 431l924 0"/>
<text stroke="none" fill="white" font-size="16" x="18" y="439">
0.0
</text>
<path stroke="white" stroke-dasharray="1,2" d="M50 340l924 0"/>
<text stroke="none" fill="white" font-size="16" x="18" y="348">
1.0
</text>
<path stroke="white" stroke-dasharray="1,2" d="M50 249l924 0"/>
<text stroke="none" fill="white" font-size="16" x="18" y="257">
2.0
</text>
<path stroke="white" stroke-dasharray="1,2" d="M50 158l924 0"/>
<text stroke="none" fill="white" font-size="16" x="18" y="166">
3.0
</text>
<path stroke="white" stroke-dasharray="1,2" d="M50 67l924 0"/>
<text stroke="none" fill="white" font-size="16" x="18" y="75">
4.0
</text>
<text stroke="none" fill="white" font-size="16" x="10" y="32">
     
</text>
<path stroke="red" d="M462 23l46 0"/>
<text stroke="none" fill="white" font-size="16" x="518" y="32">
x1.vsampled_p
</text>
<path stroke="red" d="M50 431l1 0 1 -7 0 -16 1 -14 0 -5 1 2M54 414l0 -38 1 -5 0 -13 1 -3 0 -3 1 -1 0 -1 2 0 1 -1 3 0 1 1 4 0 1 -1 48 0 0 -1 1 -12 0 -37 1 -7 0 -11 1 -3 0 -4 1 -2 1 0 0 -1 418 0M540 272l0 -1M540 272l1 -1M541 272l0 -1 26 0M567 273l0 -2"/>
<path stroke="red" d="M567 271l6 0 1 1M574 295l0 -23M574 295l1 7M575 311l0 -9M575 311l1 1 17 0M593 313l0 -1 7 0M600 325l0 -13M600 325l1 3M601 334l0 -6M601 334l1 -1 4 0 0 -1 1 0M607 333l0 -1M607 333l26 0 0 -1M633 333l20 0M653 340l0 -7M653 340l1 2"/>
<path stroke="red" d="M654 343l0 -1M654 343l25 0M679 348l0 -5M679 348l1 1 0 -1 26 0M706 350l0 -2M706 350l1 1 5 0 0 -1M712 351l13 0 0 -1M725 351l6 0 0 -3 20 0M751 349l0 -1M751 349l1 0 0 -1 26 0M778 349l0 -1 7 0M785 349l0 -1M785 349l27 0 1 1 0 -1"/>
<path stroke="red" d="M813 349l18 0M831 350l0 -1 26 0M857 350l0 -1 26 0M883 350l0 -1 27 0M910 350l0 -1 8 0 0 -56 1 -2 0 -12 1 -2 0 -3 1 -1 0 -1 2 0 0 -1 13 0M936 273l0 -2 1 0M937 272l0 -1 37 0"/>
<path stroke="blue" d="M50 23l46 0"/>
<text stroke="none" fill="white" font-size="16" x="106" y="32">
x1.vsampled_n
</text>
<path stroke="blue" d="M50 431l1 0 1 -7 0 -15 1 -14 0 -4 1 1M54 414l0 -38 1 -5 0 -13 1 -3 0 -3 1 -1 0 -1 2 0 1 -1 3 0 1 1 3 0 0 -1 50 0M117 374l0 -25M117 374l1 17M118 413l0 -22M118 413l1 4M119 422l0 -5M119 422l1 2M120 426l0 -2M120 426l1 0 1 1"/>
<path stroke="blue" d="M122 427l424 0 0 -20 1 -2 0 -28 1 -6 1 -3 0 -1 1 -1 75 0 0 -10 1 -3 0 -6 1 0M627 348l0 -1M627 348l19 0M646 349l0 -1 26 0M672 349l0 -1 27 0M699 349l0 -1 26 0M725 349l0 -1 26 0M751 349l0 -1 8 0M759 351l0 -3M759 350l1 -1 18 0"/>
<path stroke="blue" d="M778 350l0 -1 26 0M804 350l0 -1 26 0 1 1 0 -1 7 0 0 -1M838 349l19 0M857 350l0 -1 26 0M883 350l0 -1 27 0M910 350l0 -1 8 0M918 448l0 -99M918 443l1 -1 0 -8 1 -2 0 -2 1 -1 0 -1 1 0 0 -1 52 0"/>
<path stroke="#FFA500" d="M462 39l46 0"/>
<text stroke="none" fill="white" font-size="16" x="518" y="48">
x1.vsampled_p-x1.vsampled_n
</text>
<path stroke="#FFA500" d="M50 431l2 0 0 -1 2 0M54 431l0 -1M54 431l63 0 0 -26 1 -30 0 -59 1 -9 0 -17 1 -5 0 -6 1 -2 1 -1 0 -1 418 0M540 276l0 -1 6 0M546 295l0 -20M546 295l1 3M547 325l0 -27M547 325l1 7 1 3M549 336l0 -1M549 336l2 0M551 337l0 -1"/>
<path stroke="#FFA500" d="M551 337l3 0 0 -1 13 0M567 338l0 -2M567 337l7 0M574 360l0 -23M574 360l1 7M575 376l0 -9M575 376l2 2 0 -1 16 0M593 378l0 -1 7 0M600 390l0 -13M600 390l1 3M601 399l0 -6M601 399l1 -1 23 0M625 408l0 -10M625 408l1 3M626 417l0 -6"/>
<path stroke="#FFA500" d="M626 417l1 0 0 -1 19 0 0 -1M646 416l7 0M653 423l0 -7M653 423l1 2M654 426l0 -1M654 426l18 0 0 -1M672 426l7 0M679 431l0 -5M679 431l1 1 0 -1 26 0M706 433l0 -2M706 433l1 1 0 -1 3 0 1 1 1 0 0 -1M712 434l13 0 0 -1M725 434l1 -1"/>
<path stroke="#FFA500" d="M726 433l2 0M728 434l0 -1M728 434l3 0 0 -3 28 0 0 -3M759 430l26 0M785 431l0 -1M785 431l19 0 0 -1M804 431l34 0M838 432l0 -1M838 432l1 -1 79 0 0 -150 1 -1 0 -4 1 0 0 -1 16 0M936 276l0 -1 38 0"/>
<path stroke="green" d="M50 39l46 0"/>
<text stroke="none" fill="white" font-size="16" x="106" y="48">
x1.sw_sample-2
</text>
<path stroke="green" d="M50 613l1 0 1 -9 0 -21 1 -21M53 578l0 -22M53 578l1 32M54 613l0 -3M54 613l63 0M117 620l0 -172M117 449l422 0M539 614l0 -171M539 613l422 0M961 618l0 -170 1 1 12 0"/>
<path stroke="#FFC0C5" d="M462 55l46 0"/>
<text stroke="none" fill="white" font-size="16" x="518" y="64">
x1.comp_out_p+2
</text>
<path stroke="#FFC0C5" d="M50 249l1 0 1 -9 0 -22 1 -18 0 -4M53 198l1 5M54 249l0 -46M54 249l488 0 0 -165M542 85l13 0M555 250l0 -172M555 249l13 0 0 -165M568 85l13 0 0 -8 1 158M582 249l0 -14M582 249l12 0 0 -165M594 85l14 0M608 249l0 -172M608 249l13 0"/>
<path stroke="#FFC0C5" d="M621 249l0 -165M621 85l13 0M634 249l0 -172M634 249l13 0M647 250l0 -166M647 85l14 0M661 249l0 -171M661 249l12 0M673 250l0 -1M673 250l1 -69 0 -97M674 85l13 0M687 249l0 -171M687 249l13 0 1 -144 0 -21M701 85l12 0 0 -7 1 143"/>
<path stroke="#FFC0C5" d="M714 249l0 -28M714 249l66 0 0 -165M780 85l13 0M793 249l0 -174M793 249l14 0 0 -164 12 0M819 250l0 -171M819 249l15 0 0 -165M834 85l11 0 0 -5 1 66M846 250l0 -104M846 249l91 0M937 250l0 -1M937 250l1 -49 0 -117M938 85l13 0"/>
<path stroke="#FFC0C5" d="M951 249l0 -173M951 249l23 0"/>
<path stroke="#A52A2A" d="M50 55l46 0"/>
<text stroke="none" fill="white" font-size="16" x="106" y="64">
x1.comp_out_n-2
</text>
<path stroke="#A52A2A" d="M50 613l1 0 1 -9 0 -22 1 -19M53 564l0 -3M53 564l1 6M54 614l0 -44M54 611l1 2 672 0 0 -165M727 449l13 0M740 614l0 -174M740 613l13 0 0 -145 1 -19 0 -1M754 449l12 0M766 613l0 -171M766 613l93 0 1 -158 0 -7M860 449l12 0M872 613l0 -174"/>
<path stroke="#A52A2A" d="M872 613l14 0 0 -164 12 0M898 613l0 -174M898 613l15 0 0 -165M913 449l12 0M925 613l0 -172M925 613l13 0M938 614l0 -1 36 0"/>
</svg>
