<?xml version="1.0" standalone="yes"?>
<!DOCTYPE svg PUBLIC "-//W3C//DTD SVG 1.1//EN"
 "http://www.w3.org/Graphics/SVG/1.1/DTD/svg11.dtd">
<svg xmlns="http://www.w3.org/2000/svg" version="1.1"
  width="100%" height="100%" viewBox="0 0 1024 768"
  style="fill: none; font-family: Helvetica;
 font: Helvetica;
">

<!-- Creator: NGspice -->

<rect x="0" y="0" width="1024" height="768" fill="black" stroke="none"/>
<text stroke="none" fill="white" font-size="16" x="358" y="752">
time
</text>
<text stroke="none" fill="white" font-size="16" x="10" y="16">
tran1: run1996_vin0.854734
</text>
<path stroke="white" d="M50 704l0 -637"/>
<text stroke="none" fill="white" font-size="16" x="35" y="728">
0.0
</text>
<path stroke="white" stroke-dasharray="1,2" d="M182 704l0 -637"/>
<text stroke="none" fill="white" font-size="16" x="157" y="728">
100.0
</text>
<path stroke="white" stroke-dasharray="1,2" d="M314 704l0 -637"/>
<text stroke="none" fill="white" font-size="16" x="289" y="728">
200.0
</text>
<path stroke="white" stroke-dasharray="1,2" d="M446 704l0 -637"/>
<text stroke="none" fill="white" font-size="16" x="421" y="728">
300.0
</text>
<path stroke="white" stroke-dasharray="1,2" d="M578 704l0 -637"/>
<text stroke="none" fill="white" font-size="16" x="553" y="728">
400.0
</text>
<path stroke="white" stroke-dasharray="1,2" d="M710 704l0 -637"/>
<text stroke="none" fill="white" font-size="16" x="685" y="728">
500.0
</text>
<path stroke="white" stroke-dasharray="1,2" d="M842 704l0 -637"/>
<text stroke="none" fill="white" font-size="16" x="817" y="728">
600.0
</text>
<path stroke="white" stroke-dasharray="1,2" d="M974 704l0 -637"/>
<text stroke="none" fill="white" font-size="16" x="949" y="728">
700.0
</text>
<text stroke="none" fill="white" font-size="16" x="614" y="752">
ns
</text>
<path stroke="white" stroke-dasharray="1,2" d="M50 704l924 0"/>
<text stroke="none" fill="white" font-size="16" x="8" y="712">
-3.0
</text>
<path stroke="white" stroke-dasharray="1,2" d="M50 613l924 0"/>
<text stroke="none" fill="white" font-size="16" x="8" y="621">
-2.0
</text>
<path stroke="white" stroke-dasharray="1,2" d="M50 522l924 0"/>
<text stroke="none" fill="white" font-size="16" x="8" y="530">
-1.0
</text>
<path stroke="white" d="M50 431l924 0"/>
<text stroke="none" fill="white" font-size="16" x="18" y="439">
0.0
</text>
<path stroke="white" stroke-dasharray="1,2" d="M50 340l924 0"/>
<text stroke="none" fill="white" font-size="16" x="18" y="348">
1.0
</text>
<path stroke="white" stroke-dasharray="1,2" d="M50 249l924 0"/>
<text stroke="none" fill="white" font-size="16" x="18" y="257">
2.0
</text>
<path stroke="white" stroke-dasharray="1,2" d="M50 158l924 0"/>
<text stroke="none" fill="white" font-size="16" x="18" y="166">
3.0
</text>
<path stroke="white" stroke-dasharray="1,2" d="M50 67l924 0"/>
<text stroke="none" fill="white" font-size="16" x="18" y="75">
4.0
</text>
<text stroke="none" fill="white" font-size="16" x="10" y="32">
     
</text>
<path stroke="red" d="M462 23l46 0"/>
<text stroke="none" fill="white" font-size="16" x="518" y="32">
x1.vsampled_p
</text>
<path stroke="red" d="M50 431l1 0 1 -7 0 -16 1 -14 0 -5 1 2M54 414l0 -38 1 -5 0 -13 1 -3 0 -3 1 -1 0 -1 2 0 1 -1 3 0 1 1 4 0 1 -1 48 0 0 -1 1 -12 0 -37 1 -7 0 -11 1 -3 0 -4 3 -3 416 0M539 272l0 -1M539 272l1 0M540 273l0 -1 14 0 0 -1 12 0 1 1M567 273l0 -1"/>
<path stroke="red" d="M567 272l6 0 1 -1M574 298l0 -27M574 298l1 9 1 5M576 313l0 -1M576 313l4 0 0 -1 13 0M593 313l0 -1M593 313l7 0M600 327l0 -14M600 327l1 3M601 334l0 -4M601 334l1 -1 51 0M653 341l0 -8M653 341l1 2M654 344l0 -1 25 0M679 348l0 -5"/>
<path stroke="red" d="M679 348l1 1 0 -1 19 0M699 349l0 -1 26 0M725 349l0 -1 26 0M751 349l0 -1 27 0M778 349l0 -1 7 0M785 349l0 -1M785 349l27 0M812 350l0 -1M812 350l1 -1 105 0 0 -42 1 -3 0 -24 1 -2 0 -3 1 -1 0 -2 2 0 0 -1 13 0M936 273l0 -2M936 272l14 0"/>
<path stroke="red" d="M950 272l0 -1 24 0"/>
<path stroke="blue" d="M50 23l46 0"/>
<text stroke="none" fill="white" font-size="16" x="106" y="32">
x1.vsampled_n
</text>
<path stroke="blue" d="M50 431l1 0 1 -7 0 -15 1 -14 0 -4 1 1M54 414l0 -38 1 -5 0 -13 1 -3 0 -3 1 -1 0 -1 2 0 1 -1 3 0 1 1 3 0 0 -1 50 0M117 374l0 -25M117 374l1 17M118 413l0 -22M118 413l1 3M119 422l0 -6M119 422l1 1M120 426l0 -3M120 426l1 0 1 1"/>
<path stroke="blue" d="M122 427l424 0 0 -23 1 -2 0 -27 1 -5 1 -3 0 -1 5 0 0 -1M554 366l26 0 0 -1M580 366l45 0 0 -15 1 -1 0 -3 1 0 1 1 5 0 0 -1M633 348l26 0 0 -1M659 348l27 0 0 -1M686 348l20 0M706 352l0 -4M706 352l1 0 0 -2 18 0M725 351l0 -1 6 0"/>
<path stroke="blue" d="M731 350l0 -2 1 -1M732 348l0 -2M732 348l19 0M751 349l0 -1 8 0M759 351l0 -3M759 350l1 -1 18 0M778 350l0 -1 26 0M804 350l0 -1 26 0 1 1 0 -1 26 0M857 350l0 -1 26 0M883 350l0 -1 27 0M910 350l0 -1 8 0M918 440l0 -91M918 440l1 3"/>
<path stroke="blue" d="M919 444l0 -10 1 -1 0 -3 1 -1 0 -1 1 0 0 -1 52 0"/>
<path stroke="#FFA500" d="M462 39l46 0"/>
<text stroke="none" fill="white" font-size="16" x="518" y="48">
x1.vsampled_p-x1.vsampled_n
</text>
<path stroke="#FFA500" d="M50 431l2 0 0 -1 2 0M54 431l0 -1M54 431l63 0 0 -26 1 -29 0 -59 1 -10 0 -17 1 -4 0 -7 1 -2 1 -1 2 0 0 -1 415 0M539 276l0 -1M539 276l1 0 0 -1M540 276l6 0M546 299l0 -23M546 299l1 2M547 328l0 -27M547 328l1 5 1 2M549 336l0 -1"/>
<path stroke="#FFA500" d="M549 336l1 1 17 0M567 338l0 -1 7 0M574 364l0 -27M574 364l1 9 1 4M576 378l0 -1M576 378l17 0M593 379l0 -1 7 0M600 392l0 -14M600 392l1 4M601 399l0 -3M601 399l1 -1 17 0M619 399l0 -1 6 0M625 413l0 -15M625 413l1 1M626 417l0 -3"/>
<path stroke="#FFA500" d="M626 417l1 0 1 -1 25 0M653 424l0 -8M653 424l1 2M654 427l0 -1M654 427l1 -1 24 0M679 431l0 -5M679 431l1 1 0 -1 6 0M686 432l0 -1 13 0M699 432l0 -1 7 0 0 -4 1 0M707 429l0 -2M707 429l24 0M731 431l0 -2M731 431l1 2 0 -2 27 0"/>
<path stroke="#FFA500" d="M759 431l0 -3M759 430l26 0M785 431l0 -1M785 431l1 0 0 -1 5 0M791 431l0 -1 13 0M804 431l0 -1M804 431l1 0 0 -1 7 0M812 431l0 -1M812 431l26 0M838 432l0 -1 80 0 0 -133 1 -6 0 -15 1 0 0 -1 3 0 0 -1 1 0M924 276l0 -1M924 276l12 0"/>
<path stroke="#FFA500" d="M936 277l0 -2M936 276l14 0 0 -1M950 276l12 0 0 -1 12 0"/>
<path stroke="green" d="M50 39l46 0"/>
<text stroke="none" fill="white" font-size="16" x="106" y="48">
x1.sw_sample-2
</text>
<path stroke="green" d="M50 613l1 0 1 -9 0 -21 1 -21M53 578l0 -22M53 578l1 32M54 613l0 -3M54 613l63 0M117 620l0 -172M117 449l422 0M539 614l0 -171M539 613l422 0M961 618l0 -170 1 1 12 0"/>
<path stroke="#FFC0C5" d="M462 55l46 0"/>
<text stroke="none" fill="white" font-size="16" x="518" y="64">
x1.comp_out_p+2
</text>
<path stroke="#FFC0C5" d="M50 249l1 0 1 -9 0 -22 1 -18 0 -4M53 198l1 5M54 249l0 -46M54 249l488 0 0 -165M542 85l13 0M555 249l0 -171M555 249l13 0 0 -165M568 85l13 0 0 -1 1 21M582 250l0 -145M582 249l12 0M594 250l0 -166M594 85l14 0M608 250l0 -167"/>
<path stroke="#FFC0C5" d="M608 249l13 0M621 250l0 -167M621 85l13 0M634 249l0 -172M634 249l13 0M647 254l0 -171M647 85l14 0M661 250l0 -168M661 249l12 0M673 250l0 -1M673 250l1 -35 0 -132M674 85l13 0M687 249l0 -173M687 249l40 0 0 -165M727 85l13 0"/>
<path stroke="#FFC0C5" d="M740 250l0 -171M740 249l40 0 0 -165M780 85l13 0M793 249l0 -171M793 249l14 0 0 -165M807 85l12 0M819 249l0 -168M819 249l15 0 0 -164 11 0 0 -10 1 143M846 249l0 -31M846 249l91 0M937 250l0 -1M937 250l1 -47 0 -119M938 85l13 0"/>
<path stroke="#FFC0C5" d="M951 250l0 -174M951 249l23 0"/>
<path stroke="#A52A2A" d="M50 55l46 0"/>
<text stroke="none" fill="white" font-size="16" x="106" y="64">
x1.comp_out_n-2
</text>
<path stroke="#A52A2A" d="M50 613l1 0 1 -9 0 -22 1 -19M53 564l0 -3M53 564l1 6M54 614l0 -44M54 611l1 2 645 0M700 614l0 -152 1 -14M701 449l0 -1M701 449l12 0 0 -8 1 159M714 613l0 -13M714 613l39 0 0 -150 1 -14 0 -1M754 449l12 0M766 613l0 -173M766 613l94 0"/>
<path stroke="#A52A2A" d="M860 613l0 -165M860 449l12 0M872 613l0 -174M872 613l14 0 1 -150 0 -15M887 449l11 0M898 613l0 -174M898 613l15 0M913 615l0 -167M913 449l12 0M925 614l0 -172M925 613l13 0M938 614l0 -1 36 0"/>
</svg>
