<?xml version="1.0" standalone="yes"?>
<!DOCTYPE svg PUBLIC "-//W3C//DTD SVG 1.1//EN"
 "http://www.w3.org/Graphics/SVG/1.1/DTD/svg11.dtd">
<svg xmlns="http://www.w3.org/2000/svg" version="1.1"
  width="100%" height="100%" viewBox="0 0 1024 768"
  style="fill: none; font-family: Helvetica;
 font: Helvetica;
">

<!-- Creator: NGspice -->

<rect x="0" y="0" width="1024" height="768" fill="black" stroke="none"/>
<text stroke="none" fill="white" font-size="16" x="358" y="752">
time
</text>
<text stroke="none" fill="white" font-size="16" x="10" y="16">
tran1: run1884_vin0.756296
</text>
<path stroke="white" d="M50 704l0 -637"/>
<text stroke="none" fill="white" font-size="16" x="35" y="728">
0.0
</text>
<path stroke="white" stroke-dasharray="1,2" d="M182 704l0 -637"/>
<text stroke="none" fill="white" font-size="16" x="157" y="728">
100.0
</text>
<path stroke="white" stroke-dasharray="1,2" d="M314 704l0 -637"/>
<text stroke="none" fill="white" font-size="16" x="289" y="728">
200.0
</text>
<path stroke="white" stroke-dasharray="1,2" d="M446 704l0 -637"/>
<text stroke="none" fill="white" font-size="16" x="421" y="728">
300.0
</text>
<path stroke="white" stroke-dasharray="1,2" d="M578 704l0 -637"/>
<text stroke="none" fill="white" font-size="16" x="553" y="728">
400.0
</text>
<path stroke="white" stroke-dasharray="1,2" d="M710 704l0 -637"/>
<text stroke="none" fill="white" font-size="16" x="685" y="728">
500.0
</text>
<path stroke="white" stroke-dasharray="1,2" d="M842 704l0 -637"/>
<text stroke="none" fill="white" font-size="16" x="817" y="728">
600.0
</text>
<path stroke="white" stroke-dasharray="1,2" d="M974 704l0 -637"/>
<text stroke="none" fill="white" font-size="16" x="949" y="728">
700.0
</text>
<text stroke="none" fill="white" font-size="16" x="614" y="752">
ns
</text>
<path stroke="white" stroke-dasharray="1,2" d="M50 704l924 0"/>
<text stroke="none" fill="white" font-size="16" x="8" y="712">
-3.0
</text>
<path stroke="white" stroke-dasharray="1,2" d="M50 613l924 0"/>
<text stroke="none" fill="white" font-size="16" x="8" y="621">
-2.0
</text>
<path stroke="white" stroke-dasharray="1,2" d="M50 522l924 0"/>
<text stroke="none" fill="white" font-size="16" x="8" y="530">
-1.0
</text>
<path stroke="white" d="M50 431l924 0"/>
<text stroke="none" fill="white" font-size="16" x="18" y="439">
0.0
</text>
<path stroke="white" stroke-dasharray="1,2" d="M50 340l924 0"/>
<text stroke="none" fill="white" font-size="16" x="18" y="348">
1.0
</text>
<path stroke="white" stroke-dasharray="1,2" d="M50 249l924 0"/>
<text stroke="none" fill="white" font-size="16" x="18" y="257">
2.0
</text>
<path stroke="white" stroke-dasharray="1,2" d="M50 158l924 0"/>
<text stroke="none" fill="white" font-size="16" x="18" y="166">
3.0
</text>
<path stroke="white" stroke-dasharray="1,2" d="M50 67l924 0"/>
<text stroke="none" fill="white" font-size="16" x="18" y="75">
4.0
</text>
<text stroke="none" fill="white" font-size="16" x="10" y="32">
     
</text>
<path stroke="red" d="M462 23l46 0"/>
<text stroke="none" fill="white" font-size="16" x="518" y="32">
x1.vsampled_p
</text>
<path stroke="red" d="M50 431l1 0 1 -7 0 -16 1 -14 0 -5 1 2M54 414l0 -38 1 -5 0 -13 1 -3 0 -2 1 -2 0 -1 2 0 1 -1 3 0 1 1 5 0 0 -1 48 0 0 -1 1 -12 0 -34 1 -6 0 -9 1 -2 0 -2 1 -2 1 0 1 -1 416 0M539 281l0 -1M539 281l1 0M540 282l0 -2M540 281l14 0"/>
<path stroke="red" d="M554 281l0 -1 12 0 1 1M567 282l0 -1 7 0M574 304l0 -23M574 304l1 7M575 320l0 -9M575 320l1 2 4 0 0 -1 13 0M593 322l0 -1M593 322l1 0 0 -1M594 322l6 0M600 335l0 -14M600 335l1 4M601 343l0 -4M601 343l1 -1 77 0M679 347l0 -5M679 347l1 1"/>
<path stroke="red" d="M680 348l0 -1 26 0M706 350l0 -3M706 350l6 0 0 -1 13 0M725 350l0 -1M725 350l7 0 0 -3 19 0M751 348l0 -1M751 348l1 0 0 -1 7 0M759 349l0 -2M759 349l6 0 0 -1M765 349l13 0 0 -1M778 349l8 0M786 350l0 -1 132 0 0 -35 1 -4 0 -20 1 -2"/>
<path stroke="red" d="M920 288l0 -4 1 -1 0 -1 1 0 0 -1 1 0 0 -1 13 0M936 282l0 -2M936 281l14 0 0 -1 24 0"/>
<path stroke="blue" d="M50 23l46 0"/>
<text stroke="none" fill="white" font-size="16" x="106" y="32">
x1.vsampled_n
</text>
<path stroke="blue" d="M50 431l1 0 1 -7 0 -15 1 -14 0 -5 1 2M54 414l0 -38 1 -5 0 -13 1 -3 0 -2 1 -2 0 -1 2 0 1 -1 3 0 1 1 3 0 1 -1 49 0M117 369l0 -20M117 369l1 16M118 406l0 -21M118 406l1 3M119 414l0 -5M119 414l1 2M120 417l0 -1M120 417l1 0 1 1"/>
<path stroke="blue" d="M122 418l424 0 0 -24 1 -3 0 -22 1 -7 0 -3 2 -2 4 0 0 -1M554 357l26 0 0 -1M580 357l45 0 0 -12 1 -2 0 -5 1 0 1 1 5 0 0 -1M633 339l13 0M646 340l0 -1 7 0M653 351l0 -12M653 351l1 1 0 -2 1 -1 17 0M672 350l0 -1 27 0M699 350l0 -1"/>
<path stroke="blue" d="M699 349l26 0M725 350l0 -1 26 0M751 350l0 -1 27 0M778 350l0 -1 26 0M804 350l0 -1 9 0M813 350l0 -1 17 0 1 1 0 -1 26 0M857 350l0 -1 26 0M883 350l0 -1 27 0M910 350l0 -1 8 0M918 418l0 -69M918 418l1 3M919 424l0 -3M919 423l1 -1"/>
<path stroke="blue" d="M920 422l0 -2 1 -1 1 0 0 -1 52 0"/>
<path stroke="#FFA500" d="M462 39l46 0"/>
<text stroke="none" fill="white" font-size="16" x="518" y="48">
x1.vsampled_p-x1.vsampled_n
</text>
<path stroke="#FFA500" d="M50 431l2 0 0 -1 2 0M54 431l0 -1M54 431l63 0 0 -21 1 -28 0 -55 1 -9 0 -14 1 -4 0 -3 1 -2 1 -1 1 0 1 -1 415 0M539 294l0 -1M539 294l1 0 0 -1M540 294l6 0M546 318l0 -24M546 318l1 3M547 343l0 -22M547 343l1 7M548 353l0 -3"/>
<path stroke="#FFA500" d="M548 353l2 2 4 0 0 -1M554 355l13 0M567 356l0 -1 7 0M574 378l0 -23M574 378l1 7M575 394l0 -9M575 394l1 2 4 0 0 -1M580 396l20 0M600 410l0 -14M600 410l1 3M601 417l0 -4M601 417l1 0 0 -1 23 0M625 428l0 -12M625 428l1 1M626 435l0 -6"/>
<path stroke="#FFA500" d="M626 435l1 0 1 -1 25 0 0 -12 1 -1M654 423l0 -2M654 423l1 1 17 0 0 -1M672 424l7 0M679 429l0 -5M679 429l1 0M680 430l0 -1 26 0M706 432l0 -3M706 432l1 0 0 -1 5 0M712 432l0 -1 13 0M725 432l0 -1 7 0 0 -2 27 0M759 431l0 -2"/>
<path stroke="#FFA500" d="M759 431l1 0 1 -1 4 0M765 431l0 -1M765 431l1 0 0 -1 12 0M778 431l0 -1 7 0 1 1M786 432l0 -1 27 0 0 -1M813 431l25 0M838 432l0 -1 80 0 0 -104 1 -7 0 -22 1 -1 0 -2 1 -1 2 0 0 -1 13 0M936 295l0 -2M936 294l14 0 0 -1 24 0"/>
<path stroke="green" d="M50 39l46 0"/>
<text stroke="none" fill="white" font-size="16" x="106" y="48">
x1.sw_sample-2
</text>
<path stroke="green" d="M50 613l1 0 1 -9 0 -21 1 -21M53 579l0 -23M53 579l1 31M54 613l0 -3M54 613l63 0M117 620l0 -172M117 449l422 0M539 614l0 -171M539 613l422 0M961 618l0 -170 1 1 12 0"/>
<path stroke="#FFC0C5" d="M462 55l46 0"/>
<text stroke="none" fill="white" font-size="16" x="518" y="64">
x1.comp_out_p+2
</text>
<path stroke="#FFC0C5" d="M50 249l1 0 1 -9 0 -22 1 -18 0 -4M53 198l1 5M54 249l0 -46M54 249l487 0 1 1 0 -167M542 85l13 0M555 249l0 -172M555 249l13 0M568 251l0 -168M568 85l13 0 0 -8 1 161M582 250l0 -12M582 249l12 0M594 250l0 -166M594 85l14 0M608 250l0 -168"/>
<path stroke="#FFC0C5" d="M608 249l13 0 0 -166M621 85l13 0M634 250l0 -168M634 250l1 -1 38 0M673 252l0 -3M673 252l1 -106 0 -63M674 85l13 0M687 250l0 -171M687 249l13 0 0 -165M700 85l13 0 0 -9 1 135M714 250l0 -39M714 249l39 0M753 252l0 -168M753 85l13 0"/>
<path stroke="#FFC0C5" d="M766 250l0 -170M766 249l14 0 0 -165M780 85l13 0M793 249l0 -174M793 249l41 0 0 -165M834 85l11 0 0 -10 1 142M846 249l0 -32M846 249l91 0 1 -41 0 -124M938 85l13 0M951 249l0 -172M951 249l23 0"/>
<path stroke="#A52A2A" d="M50 55l46 0"/>
<text stroke="none" fill="white" font-size="16" x="106" y="64">
x1.comp_out_n-2
</text>
<path stroke="#A52A2A" d="M50 613l1 0 1 -9 0 -22 1 -19M53 564l0 -3M53 564l1 6M54 613l0 -43M54 611l1 2 539 0M594 614l0 -1 53 0M647 615l0 -168M647 449l14 0M661 613l0 -174M661 613l66 0 1 -158 0 -7M728 449l12 0M740 613l0 -172M740 613l67 0 0 -150"/>
<path stroke="#A52A2A" d="M807 463l1 -14 0 -1M808 449l11 0M819 613l0 -171M819 613l41 0 0 -165 1 1 11 0M872 613l0 -174M872 613l14 0 0 -155 1 -9 11 0M898 613l0 -174M898 613l15 0 0 -165M913 449l12 0M925 613l0 -172M925 613l49 0"/>
</svg>
