<?xml version="1.0" standalone="yes"?>
<!DOCTYPE svg PUBLIC "-//W3C//DTD SVG 1.1//EN"
 "http://www.w3.org/Graphics/SVG/1.1/DTD/svg11.dtd">
<svg xmlns="http://www.w3.org/2000/svg" version="1.1"
  width="100%" height="100%" viewBox="0 0 1024 768"
  style="fill: none; font-family: Helvetica;
 font: Helvetica;
">

<!-- Creator: NGspice -->

<rect x="0" y="0" width="1024" height="768" fill="black" stroke="none"/>
<text stroke="none" fill="white" font-size="16" x="358" y="752">
time
</text>
<text stroke="none" fill="white" font-size="16" x="10" y="16">
tran1: run1882_vin0.754539
</text>
<path stroke="white" d="M50 704l0 -637"/>
<text stroke="none" fill="white" font-size="16" x="35" y="728">
0.0
</text>
<path stroke="white" stroke-dasharray="1,2" d="M182 704l0 -637"/>
<text stroke="none" fill="white" font-size="16" x="157" y="728">
100.0
</text>
<path stroke="white" stroke-dasharray="1,2" d="M314 704l0 -637"/>
<text stroke="none" fill="white" font-size="16" x="289" y="728">
200.0
</text>
<path stroke="white" stroke-dasharray="1,2" d="M446 704l0 -637"/>
<text stroke="none" fill="white" font-size="16" x="421" y="728">
300.0
</text>
<path stroke="white" stroke-dasharray="1,2" d="M578 704l0 -637"/>
<text stroke="none" fill="white" font-size="16" x="553" y="728">
400.0
</text>
<path stroke="white" stroke-dasharray="1,2" d="M710 704l0 -637"/>
<text stroke="none" fill="white" font-size="16" x="685" y="728">
500.0
</text>
<path stroke="white" stroke-dasharray="1,2" d="M842 704l0 -637"/>
<text stroke="none" fill="white" font-size="16" x="817" y="728">
600.0
</text>
<path stroke="white" stroke-dasharray="1,2" d="M974 704l0 -637"/>
<text stroke="none" fill="white" font-size="16" x="949" y="728">
700.0
</text>
<text stroke="none" fill="white" font-size="16" x="614" y="752">
ns
</text>
<path stroke="white" stroke-dasharray="1,2" d="M50 704l924 0"/>
<text stroke="none" fill="white" font-size="16" x="8" y="712">
-3.0
</text>
<path stroke="white" stroke-dasharray="1,2" d="M50 613l924 0"/>
<text stroke="none" fill="white" font-size="16" x="8" y="621">
-2.0
</text>
<path stroke="white" stroke-dasharray="1,2" d="M50 522l924 0"/>
<text stroke="none" fill="white" font-size="16" x="8" y="530">
-1.0
</text>
<path stroke="white" d="M50 431l924 0"/>
<text stroke="none" fill="white" font-size="16" x="18" y="439">
0.0
</text>
<path stroke="white" stroke-dasharray="1,2" d="M50 340l924 0"/>
<text stroke="none" fill="white" font-size="16" x="18" y="348">
1.0
</text>
<path stroke="white" stroke-dasharray="1,2" d="M50 249l924 0"/>
<text stroke="none" fill="white" font-size="16" x="18" y="257">
2.0
</text>
<path stroke="white" stroke-dasharray="1,2" d="M50 158l924 0"/>
<text stroke="none" fill="white" font-size="16" x="18" y="166">
3.0
</text>
<path stroke="white" stroke-dasharray="1,2" d="M50 67l924 0"/>
<text stroke="none" fill="white" font-size="16" x="18" y="75">
4.0
</text>
<text stroke="none" fill="white" font-size="16" x="10" y="32">
     
</text>
<path stroke="red" d="M462 23l46 0"/>
<text stroke="none" fill="white" font-size="16" x="518" y="32">
x1.vsampled_p
</text>
<path stroke="red" d="M50 431l1 0 1 -7 0 -16 1 -14 0 -5 1 2M54 414l0 -38 1 -5 0 -13 1 -3 0 -2 1 -2 0 -1 2 0 1 -1 3 0 1 1 5 0 0 -1 48 0 0 -1 1 -12 0 -34 1 -5 0 -10 1 -2 0 -2 2 -2 1 0 1 -1 415 0M539 281l0 -1M539 281l1 0M540 282l0 -1 14 0 0 -1M554 281l13 0"/>
<path stroke="red" d="M567 282l0 -1 7 0M574 305l0 -24M574 305l1 7M575 320l0 -8M575 320l1 2 4 0 0 -1M580 322l13 0 0 -1M593 322l7 0M600 335l0 -14M600 335l1 4M601 343l0 -4M601 343l1 0 0 -1 77 0M679 347l0 -5M679 347l1 1 0 -1 26 0M706 350l0 -3M706 350l26 0"/>
<path stroke="red" d="M732 350l0 -3 19 0M751 348l0 -1M751 348l1 0 0 -1 7 0M759 349l0 -2M759 349l27 0M786 350l0 -1 18 0M804 350l0 -1 27 0M831 350l0 -1 87 0M918 350l0 -49 1 -2 0 -10 1 -3 0 -3 1 -1 0 -1 2 0 0 -1M923 281l13 0M936 282l0 -1 14 0 0 -1"/>
<path stroke="red" d="M950 281l12 0 0 -1 12 0"/>
<path stroke="blue" d="M50 23l46 0"/>
<text stroke="none" fill="white" font-size="16" x="106" y="32">
x1.vsampled_n
</text>
<path stroke="blue" d="M50 431l1 0 1 -7 0 -15 1 -14 0 -5 1 2M54 414l0 -38 1 -5 0 -13 1 -3 0 -2 1 -2 0 -1 2 0 1 -1 3 0 1 1 3 0 1 -1 49 0M117 369l0 -20M117 369l1 16M118 406l0 -21M118 406l1 3M119 414l0 -5M119 414l1 1M120 416l0 -1M120 416l1 1 1 0"/>
<path stroke="blue" d="M122 418l0 -1M122 418l424 0 0 -22 1 -3 0 -25 1 -7 1 -3 0 -1 5 0 0 -1 12 0 1 1 0 -1M567 357l13 0 0 -1M580 357l13 0 0 -1M593 357l13 0 0 -1 1 0M607 357l0 -1M607 357l12 0 0 -1M619 357l1 0 0 -1M620 357l5 0 0 -14 1 -1 0 -4 1 0"/>
<path stroke="blue" d="M627 338l1 1 5 0 0 -1M633 339l20 0M653 350l0 -11M653 350l1 2 0 -2 1 -1 157 0M812 350l0 -1 19 0M831 350l0 -1 26 0M857 350l0 -1 26 0M883 350l0 -1M883 350l1 -1 26 0M910 350l0 -1 8 0M918 424l0 -75M918 424l1 0 0 -2 1 -1 0 -2"/>
<path stroke="blue" d="M920 419l1 0 0 -1 53 0"/>
<path stroke="#FFA500" d="M462 39l46 0"/>
<text stroke="none" fill="white" font-size="16" x="518" y="48">
x1.vsampled_p-x1.vsampled_n
</text>
<path stroke="#FFA500" d="M50 431l2 0 0 -1 2 0M54 431l0 -1M54 431l63 0 0 -21 1 -28 0 -55 1 -8 0 -15 1 -4 0 -3 2 -2 0 -1 418 0M540 295l0 -1 6 0M546 316l0 -22M546 316l1 3M547 344l0 -25M547 344l1 6 1 3M549 355l0 -2M549 355l18 0M567 356l0 -1 7 0"/>
<path stroke="#FFA500" d="M574 379l0 -24M574 379l1 7M575 394l0 -8M575 394l1 2 17 0M593 397l0 -1 7 0M600 410l0 -14M600 410l1 3M601 418l0 -5M601 417l1 0 0 -1 2 0 1 1 1 0 0 -1 13 0M619 417l0 -1 1 0M620 417l0 -1M620 417l1 -1M621 417l0 -1M621 417l4 0"/>
<path stroke="#FFA500" d="M625 430l0 -13M625 430l1 1M626 435l0 -4M626 435l2 0 1 -1 4 0M633 435l0 -1 20 0M653 435l0 -12 1 -2M654 423l0 -2M654 423l1 1 24 0M679 429l0 -5M679 429l1 1 0 -1 26 0M706 432l0 -3M706 432l26 0 0 -3 1 0M733 430l0 -1M733 430l18 0"/>
<path stroke="#FFA500" d="M751 430l0 -1 1 0M752 430l0 -1M752 430l7 0M759 432l0 -2M759 431l27 0M786 432l0 -1 5 0M791 432l0 -1 13 0M804 432l0 -1M804 432l1 -1 7 0 0 -1M812 431l106 0M918 432l0 -123 1 -3 0 -9 1 -1 0 -1 1 -1 2 0 0 -1M923 294l13 0M936 295l0 -1"/>
<path stroke="#FFA500" d="M936 294l14 0 0 -1M950 294l24 0"/>
<path stroke="green" d="M50 39l46 0"/>
<text stroke="none" fill="white" font-size="16" x="106" y="48">
x1.sw_sample-2
</text>
<path stroke="green" d="M50 613l1 0 1 -9 0 -21 1 -21M53 579l0 -23M53 579l1 31M54 613l0 -3M54 613l63 0M117 620l0 -172M117 449l422 0M539 614l0 -171M539 613l422 0M961 618l0 -170 1 1 12 0"/>
<path stroke="#FFC0C5" d="M462 55l46 0"/>
<text stroke="none" fill="white" font-size="16" x="518" y="64">
x1.comp_out_p+2
</text>
<path stroke="#FFC0C5" d="M50 249l1 0 1 -9 0 -22 1 -18 0 -4M53 198l1 5M54 249l0 -46M54 249l487 0 1 1 0 -167M542 85l13 0M555 249l0 -171M555 249l13 0 0 -165M568 85l13 0 0 -8 1 154M582 249l0 -18M582 249l12 0M594 250l0 -167M594 85l14 0M608 249l0 -171"/>
<path stroke="#FFC0C5" d="M608 249l13 0 0 -166M621 85l13 0M634 250l0 -168M634 250l1 -1 38 0M673 250l0 -1M673 250l1 -85 0 -82M674 85l13 0M687 249l0 -171M687 249l13 0 0 -165M700 85l13 0 0 -5 1 64M714 250l0 -106M714 249l39 0 0 -165M753 85l13 0M766 250l0 -174"/>
<path stroke="#FFC0C5" d="M766 249l14 0 0 -155 1 -10M781 85l0 -1M781 85l12 0M793 249l0 -172M793 249l67 0 0 -164 12 0M872 249l0 -174M872 249l14 0 0 -148 1 -16 0 -1M887 85l11 0M898 249l0 -174M898 249l15 0 0 -165M913 85l12 0M925 249l0 -172M925 249l12 0"/>
<path stroke="#FFC0C5" d="M937 249l1 -53 0 -112M938 85l13 0M951 249l0 -171M951 249l23 0"/>
<path stroke="#A52A2A" d="M50 55l46 0"/>
<text stroke="none" fill="white" font-size="16" x="106" y="64">
x1.comp_out_n-2
</text>
<path stroke="#A52A2A" d="M50 613l1 0 1 -9 0 -22 1 -19M53 564l0 -3M53 564l1 6M54 614l0 -44M54 611l1 2 592 0M647 615l0 -168M647 449l14 0M661 613l0 -170M661 613l66 0 1 -152 0 -13M728 449l12 0M740 613l0 -172M740 613l67 0 0 -165M807 449l12 0M819 613l0 -173"/>
<path stroke="#A52A2A" d="M819 613l15 0 0 -165M834 449l11 0 0 -2M845 448l1 154M846 613l0 -11M846 613l128 0"/>
</svg>
