<?xml version="1.0" standalone="yes"?>
<!DOCTYPE svg PUBLIC "-//W3C//DTD SVG 1.1//EN"
 "http://www.w3.org/Graphics/SVG/1.1/DTD/svg11.dtd">
<svg xmlns="http://www.w3.org/2000/svg" version="1.1"
  width="100%" height="100%" viewBox="0 0 1024 768"
  style="fill: none; font-family: Helvetica;
 font: Helvetica;
">

<!-- Creator: NGspice -->

<rect x="0" y="0" width="1024" height="768" fill="black" stroke="none"/>
<text stroke="none" fill="white" font-size="16" x="358" y="752">
time
</text>
<text stroke="none" fill="white" font-size="16" x="10" y="16">
tran1: run1883_vin0.755418
</text>
<path stroke="white" d="M50 704l0 -637"/>
<text stroke="none" fill="white" font-size="16" x="35" y="728">
0.0
</text>
<path stroke="white" stroke-dasharray="1,2" d="M182 704l0 -637"/>
<text stroke="none" fill="white" font-size="16" x="157" y="728">
100.0
</text>
<path stroke="white" stroke-dasharray="1,2" d="M314 704l0 -637"/>
<text stroke="none" fill="white" font-size="16" x="289" y="728">
200.0
</text>
<path stroke="white" stroke-dasharray="1,2" d="M446 704l0 -637"/>
<text stroke="none" fill="white" font-size="16" x="421" y="728">
300.0
</text>
<path stroke="white" stroke-dasharray="1,2" d="M578 704l0 -637"/>
<text stroke="none" fill="white" font-size="16" x="553" y="728">
400.0
</text>
<path stroke="white" stroke-dasharray="1,2" d="M710 704l0 -637"/>
<text stroke="none" fill="white" font-size="16" x="685" y="728">
500.0
</text>
<path stroke="white" stroke-dasharray="1,2" d="M842 704l0 -637"/>
<text stroke="none" fill="white" font-size="16" x="817" y="728">
600.0
</text>
<path stroke="white" stroke-dasharray="1,2" d="M974 704l0 -637"/>
<text stroke="none" fill="white" font-size="16" x="949" y="728">
700.0
</text>
<text stroke="none" fill="white" font-size="16" x="614" y="752">
ns
</text>
<path stroke="white" stroke-dasharray="1,2" d="M50 704l924 0"/>
<text stroke="none" fill="white" font-size="16" x="8" y="712">
-3.0
</text>
<path stroke="white" stroke-dasharray="1,2" d="M50 613l924 0"/>
<text stroke="none" fill="white" font-size="16" x="8" y="621">
-2.0
</text>
<path stroke="white" stroke-dasharray="1,2" d="M50 522l924 0"/>
<text stroke="none" fill="white" font-size="16" x="8" y="530">
-1.0
</text>
<path stroke="white" d="M50 431l924 0"/>
<text stroke="none" fill="white" font-size="16" x="18" y="439">
0.0
</text>
<path stroke="white" stroke-dasharray="1,2" d="M50 340l924 0"/>
<text stroke="none" fill="white" font-size="16" x="18" y="348">
1.0
</text>
<path stroke="white" stroke-dasharray="1,2" d="M50 249l924 0"/>
<text stroke="none" fill="white" font-size="16" x="18" y="257">
2.0
</text>
<path stroke="white" stroke-dasharray="1,2" d="M50 158l924 0"/>
<text stroke="none" fill="white" font-size="16" x="18" y="166">
3.0
</text>
<path stroke="white" stroke-dasharray="1,2" d="M50 67l924 0"/>
<text stroke="none" fill="white" font-size="16" x="18" y="75">
4.0
</text>
<text stroke="none" fill="white" font-size="16" x="10" y="32">
     
</text>
<path stroke="red" d="M462 23l46 0"/>
<text stroke="none" fill="white" font-size="16" x="518" y="32">
x1.vsampled_p
</text>
<path stroke="red" d="M50 431l1 0 1 -7 0 -16 1 -14 0 -5 1 2M54 414l0 -38 1 -5 0 -13 1 -3 0 -2 1 -2 0 -1 2 0 1 -1 3 0 1 1 5 0 0 -1 48 0 0 -1 1 -12 0 -34 1 -5 0 -10 1 -2 0 -2 3 -3 416 0M539 281l0 -1M539 281l1 0M540 282l0 -1 14 0 0 -1 1 0M555 281l0 -1"/>
<path stroke="red" d="M555 281l11 0 0 -1 1 1M567 282l0 -1 7 0M574 302l0 -22M574 302l1 6M575 318l0 -10M575 318l1 3M576 322l0 -1M576 322l4 0 0 -1 13 0M593 322l0 -1M593 322l7 0M600 334l0 -12M600 334l1 3M601 343l0 -6M601 343l1 -1 77 0M679 346l0 -4"/>
<path stroke="red" d="M679 346l1 1M680 348l0 -1 26 0M706 350l0 -3M706 350l6 0 0 -1M712 350l20 0 0 -3 19 0M751 348l0 -1M751 348l1 0 0 -1 7 0M759 349l0 -2M759 349l6 0 0 -1M765 349l21 0M786 350l0 -1 18 0M804 350l0 -1 27 0M831 350l0 -1 86 0M917 350l0 -1"/>
<path stroke="red" d="M917 349l1 -4 0 -49 1 -3 0 -7 1 -2 0 -1 1 -1 0 -1 2 0 0 -1 1 0M924 281l0 -1M924 281l12 0M936 282l0 -2M936 281l14 0 0 -1 1 0M951 281l0 -1M951 281l10 0 0 -1 13 0"/>
<path stroke="blue" d="M50 23l46 0"/>
<text stroke="none" fill="white" font-size="16" x="106" y="32">
x1.vsampled_n
</text>
<path stroke="blue" d="M50 431l1 0 1 -7 0 -15 1 -14 0 -5 1 2M54 414l0 -38 1 -5 0 -13 1 -3 0 -2 1 -2 0 -1 2 0 1 -1 3 0 1 1 3 0 1 -1 49 0M117 369l0 -20M117 369l1 16M118 406l0 -21M118 406l1 3M119 414l0 -5M119 414l1 1M120 417l0 -2M120 417l2 0M122 418l0 -1"/>
<path stroke="blue" d="M122 418l424 0 0 -18 1 -4 0 -28 1 -6 1 -3 0 -2 5 0 0 -1M554 357l13 0 0 -1M567 357l13 0 0 -1M580 357l13 0 0 -1M593 357l13 0 0 -1M606 357l14 0 0 -1M620 357l5 0 0 -14 1 -1 0 -4 1 0 1 1 5 0 0 -1M633 339l20 0M653 350l0 -11M653 350l1 2"/>
<path stroke="blue" d="M654 352l0 -2 1 -1 157 0M812 350l0 -1M812 350l1 0 0 -1 17 0 1 1 0 -1 26 0M857 350l0 -1 26 0M883 350l0 -1M883 350l1 -1 26 0M910 350l0 -1 7 0M917 350l0 -1M917 350l1 2M918 424l0 -72M918 424l1 0 0 -3 1 -1 0 -1 1 0 0 -1 53 0"/>
<path stroke="#FFA500" d="M462 39l46 0"/>
<text stroke="none" fill="white" font-size="16" x="518" y="48">
x1.vsampled_p-x1.vsampled_n
</text>
<path stroke="#FFA500" d="M50 431l2 0 0 -1 2 0M54 431l0 -1M54 431l63 0 0 -21 1 -28 0 -55 1 -8 0 -15 1 -4 0 -3 1 -2 1 -1 424 0M546 311l0 -17M546 311l1 5M547 344l0 -28M547 344l1 6 1 3M549 354l0 -1M549 354l1 1 17 0M567 356l0 -1 7 0M574 376l0 -21"/>
<path stroke="#FFA500" d="M574 376l1 6M575 392l0 -10M575 392l1 4 24 0M600 409l0 -13M600 409l1 2M601 417l0 -6M601 417l1 0 0 -1 18 0M620 417l0 -1 5 0M625 430l0 -14M625 430l1 1M626 435l0 -4M626 435l1 0 1 -1 25 0 0 -11 1 -2M654 423l0 -2M654 423l1 1"/>
<path stroke="#FFA500" d="M655 424l24 0M679 428l0 -4M679 428l1 1M680 430l0 -1 26 0M706 432l0 -3M706 432l19 0 0 -1M725 432l7 0 0 -3 27 0M759 431l0 -2M759 431l19 0 0 -1M778 431l8 0M786 432l0 -1 26 0 0 -1 1 1 26 0 0 -1M839 431l18 0 0 -1M857 431l26 0"/>
<path stroke="#FFA500" d="M883 431l0 -1M883 431l27 0 0 -1M910 431l7 0M917 432l0 -2 1 -6 0 -121 1 -3 0 -4 2 -2 2 0 0 -1M923 294l13 0M936 295l0 -1 14 0 0 -1M950 294l12 0 0 -1 2 0M964 294l0 -1M964 294l10 0"/>
<path stroke="green" d="M50 39l46 0"/>
<text stroke="none" fill="white" font-size="16" x="106" y="48">
x1.sw_sample-2
</text>
<path stroke="green" d="M50 613l1 0 1 -9 0 -21 1 -21M53 579l0 -23M53 579l1 31M54 613l0 -3M54 613l63 0M117 620l0 -172M117 449l422 0M539 614l0 -171M539 613l422 0M961 618l0 -170 1 1 12 0"/>
<path stroke="#FFC0C5" d="M462 55l46 0"/>
<text stroke="none" fill="white" font-size="16" x="518" y="64">
x1.comp_out_p+2
</text>
<path stroke="#FFC0C5" d="M50 249l1 0 1 -9 0 -22 1 -18 0 -4M53 198l1 5M54 249l0 -46M54 249l487 0 1 1 0 -167M542 85l13 0M555 249l0 -172M555 249l13 0M568 250l0 -166M568 85l13 0 0 -8 1 162M582 250l0 -11M582 249l12 0 0 -166M594 85l14 0M608 249l0 -171"/>
<path stroke="#FFC0C5" d="M608 249l13 0M621 252l0 -168M621 85l13 0M634 250l0 -168M634 250l1 -1 38 0M673 251l0 -2M673 251l1 -106 0 -62M674 85l13 0M687 250l0 -171M687 249l13 0 0 -165M700 85l13 0 0 -2M713 84l1 150M714 249l0 -15M714 249l39 0 0 -165"/>
<path stroke="#FFC0C5" d="M753 85l13 0M766 249l0 -166M766 249l14 0 0 -165 1 1 12 0M793 249l0 -174M793 249l67 0 0 -165M860 85l12 0M872 249l0 -174M872 249l14 0 0 -164 12 0M898 249l0 -174M898 249l14 0 1 -153 0 -11 12 0M925 249l0 -172M925 249l12 0"/>
<path stroke="#FFC0C5" d="M937 249l1 -53 0 -112M938 85l13 0M951 249l0 -172M951 249l23 0"/>
<path stroke="#A52A2A" d="M50 55l46 0"/>
<text stroke="none" fill="white" font-size="16" x="106" y="64">
x1.comp_out_n-2
</text>
<path stroke="#A52A2A" d="M50 613l1 0 1 -9 0 -22 1 -19M53 564l0 -3M53 564l1 6M54 613l0 -43M54 611l1 2 592 0M647 616l0 -169M647 449l14 0M661 613l0 -167M661 613l67 0 0 -164 12 0M740 613l0 -171M740 613l67 0 0 -164 12 0M819 613l0 -172M819 613l15 0"/>
<path stroke="#A52A2A" d="M834 613l1 -158 0 -7M835 449l10 0M845 451l0 -5M845 451l1 152M846 613l0 -10M846 613l128 0"/>
</svg>
