<?xml version="1.0" standalone="yes"?>
<!DOCTYPE svg PUBLIC "-//W3C//DTD SVG 1.1//EN"
 "http://www.w3.org/Graphics/SVG/1.1/DTD/svg11.dtd">
<svg xmlns="http://www.w3.org/2000/svg" version="1.1"
  width="100%" height="100%" viewBox="0 0 1024 768"
  style="fill: none; font-family: Helvetica;
 font: Helvetica;
">

<!-- Creator: NGspice -->

<rect x="0" y="0" width="1024" height="768" fill="black" stroke="none"/>
<text stroke="none" fill="white" font-size="16" x="358" y="752">
time
</text>
<text stroke="none" fill="white" font-size="16" x="10" y="16">
tran1: run1445_vin0.370457
</text>
<path stroke="white" d="M50 704l0 -637"/>
<text stroke="none" fill="white" font-size="16" x="35" y="728">
0.0
</text>
<path stroke="white" stroke-dasharray="1,2" d="M182 704l0 -637"/>
<text stroke="none" fill="white" font-size="16" x="157" y="728">
100.0
</text>
<path stroke="white" stroke-dasharray="1,2" d="M314 704l0 -637"/>
<text stroke="none" fill="white" font-size="16" x="289" y="728">
200.0
</text>
<path stroke="white" stroke-dasharray="1,2" d="M446 704l0 -637"/>
<text stroke="none" fill="white" font-size="16" x="421" y="728">
300.0
</text>
<path stroke="white" stroke-dasharray="1,2" d="M578 704l0 -637"/>
<text stroke="none" fill="white" font-size="16" x="553" y="728">
400.0
</text>
<path stroke="white" stroke-dasharray="1,2" d="M710 704l0 -637"/>
<text stroke="none" fill="white" font-size="16" x="685" y="728">
500.0
</text>
<path stroke="white" stroke-dasharray="1,2" d="M842 704l0 -637"/>
<text stroke="none" fill="white" font-size="16" x="817" y="728">
600.0
</text>
<path stroke="white" stroke-dasharray="1,2" d="M974 704l0 -637"/>
<text stroke="none" fill="white" font-size="16" x="949" y="728">
700.0
</text>
<text stroke="none" fill="white" font-size="16" x="614" y="752">
ns
</text>
<path stroke="white" stroke-dasharray="1,2" d="M50 704l924 0"/>
<text stroke="none" fill="white" font-size="16" x="8" y="712">
-3.0
</text>
<path stroke="white" stroke-dasharray="1,2" d="M50 613l924 0"/>
<text stroke="none" fill="white" font-size="16" x="8" y="621">
-2.0
</text>
<path stroke="white" stroke-dasharray="1,2" d="M50 522l924 0"/>
<text stroke="none" fill="white" font-size="16" x="8" y="530">
-1.0
</text>
<path stroke="white" d="M50 431l924 0"/>
<text stroke="none" fill="white" font-size="16" x="18" y="439">
0.0
</text>
<path stroke="white" stroke-dasharray="1,2" d="M50 340l924 0"/>
<text stroke="none" fill="white" font-size="16" x="18" y="348">
1.0
</text>
<path stroke="white" stroke-dasharray="1,2" d="M50 249l924 0"/>
<text stroke="none" fill="white" font-size="16" x="18" y="257">
2.0
</text>
<path stroke="white" stroke-dasharray="1,2" d="M50 158l924 0"/>
<text stroke="none" fill="white" font-size="16" x="18" y="166">
3.0
</text>
<path stroke="white" stroke-dasharray="1,2" d="M50 67l924 0"/>
<text stroke="none" fill="white" font-size="16" x="18" y="75">
4.0
</text>
<text stroke="none" fill="white" font-size="16" x="10" y="32">
     
</text>
<path stroke="red" d="M462 23l46 0"/>
<text stroke="none" fill="white" font-size="16" x="518" y="32">
x1.vsampled_p
</text>
<path stroke="red" d="M50 431l1 0 1 -7 0 -15 1 -15 0 -4 1 1M54 415l0 -40 1 -5 0 -13 1 -3 0 -2 2 -2 1 0 1 -1 4 0M64 350l0 -1M64 350l4 0 1 -1 48 0 0 -1 1 -8 0 -15 1 -4 0 -2 1 -2 0 -1 2 0 0 -1 417 0M539 316l0 -1M539 316l15 0 0 -1M554 316l20 0M574 336l0 -21"/>
<path stroke="red" d="M574 336l1 4M575 355l0 -15M575 355l1 1M576 357l0 -1M576 357l2 0 0 -1 15 0M593 357l0 -1 7 0M600 357l0 -1M600 357l1 0 0 -1 18 0M619 357l0 -1M619 357l1 0 0 -1 5 0 0 -8 1 -1 0 -7 1 0 0 -1 6 0 0 -1M633 339l20 0M653 347l0 -8M653 347l1 2"/>
<path stroke="red" d="M654 349l158 0M812 350l0 -1 19 0M831 350l0 -1 88 0 0 -9 1 -1 0 -9 1 -4 0 -7 1 0 0 -2 1 0 0 -1 13 0M936 317l0 -1 14 0 0 -1M950 316l11 0 0 -1 13 0"/>
<path stroke="blue" d="M50 23l46 0"/>
<text stroke="none" fill="white" font-size="16" x="106" y="32">
x1.vsampled_n
</text>
<path stroke="blue" d="M50 431l1 0 1 -7 0 -15 1 -14 0 -5 1 2M54 415l0 -40 1 -5 0 -13 1 -3 0 -2 2 -2 1 0 1 -1 4 0M64 350l0 -1M64 350l4 0 1 -1 48 0M117 355l0 -6M117 355l1 10M118 376l0 -11M118 376l1 3M119 380l0 -1M119 380l1 2 1 1 425 0 0 -24 1 -4"/>
<path stroke="blue" d="M547 355l0 -23 1 -3 0 -5 2 -2 4 0 0 -1M554 322l13 0M567 323l0 -1 13 0 0 -1M580 322l13 0M593 323l0 -1 7 0M600 344l0 -22M600 344l1 3M601 348l0 -3 1 -1 0 -1 1 -1 16 0M619 343l0 -1 27 0M646 343l0 -1 26 0M672 343l0 -1 7 0M679 349l0 -7"/>
<path stroke="blue" d="M679 349l1 1 0 -2 1 -1 18 0M699 348l0 -1 7 0M706 351l0 -4M706 351l1 0 0 -1 25 0 0 -4 2 2 4 0 0 -1 13 0M751 348l0 -1M751 348l1 0 0 -1M752 348l7 0M759 350l0 -2M759 349l27 0M786 350l0 -1M786 350l1 0 0 -1 17 0M804 350l0 -1"/>
<path stroke="blue" d="M804 349l26 0 1 1 0 -1 87 0M918 350l0 -1M918 350l1 0M919 367l0 -22M919 367l1 2M920 381l0 -12M920 381l1 3M921 385l0 -1 1 0 0 -1 52 0"/>
<path stroke="#FFA500" d="M462 39l46 0"/>
<text stroke="none" fill="white" font-size="16" x="518" y="48">
x1.vsampled_p-x1.vsampled_n
</text>
<path stroke="#FFA500" d="M50 431l3 0 0 -1 1 1 63 0 0 -7 1 -18 0 -26 1 -7 0 -3 1 -4 0 -1 1 -1 425 0M546 388l0 -24M546 388l1 3M547 415l0 -24M547 415l1 2M548 422l0 -5M548 422l1 2 1 1 17 0 0 -1M567 425l7 0M574 445l0 -20M574 445l1 4M575 464l0 -15"/>
<path stroke="#FFA500" d="M575 464l1 1M576 466l0 -1M576 466l17 0 0 -1M593 466l7 0 0 -23 1 -2M601 443l0 -4M601 443l1 0M602 445l0 -2M602 445l4 0M606 446l0 -1M606 446l1 0 0 -1 18 0 0 -8 1 -1 0 -7 1 0 0 -1 19 0 0 -1M646 428l7 0M653 436l0 -9M653 436l1 2"/>
<path stroke="#FFA500" d="M654 438l18 0 0 -1M672 438l7 0 0 -7 1 -1M680 432l0 -2M680 432l1 0M681 433l0 -1M681 433l25 0 0 -4 1 0M707 430l0 -1M707 430l25 0M732 434l0 -4M732 433l1 0 0 -1 26 0 0 -2M759 431l27 0 0 -1 26 0M812 431l0 -1M812 431l106 0"/>
<path stroke="#FFA500" d="M918 431l1 -1M919 433l0 -28 1 -4 0 -21 1 -7 0 -7 1 0 0 -1 1 0 0 -1 13 0M936 365l0 -1 14 0 0 -1M950 364l24 0"/>
<path stroke="green" d="M50 39l46 0"/>
<text stroke="none" fill="white" font-size="16" x="106" y="48">
x1.sw_sample-2
</text>
<path stroke="green" d="M50 613l1 0 1 -9 0 -21 1 -21M53 580l0 -24M53 580l1 30M54 613l0 -3M54 613l63 0M117 620l0 -172M117 449l422 0M539 614l0 -171M539 613l422 0M961 618l0 -170 1 1 12 0"/>
<path stroke="#FFC0C5" d="M462 55l46 0"/>
<text stroke="none" fill="white" font-size="16" x="518" y="64">
x1.comp_out_p+2
</text>
<path stroke="#FFC0C5" d="M50 249l1 0 1 -9 0 -22 1 -18 0 -4M53 198l1 5M54 249l0 -46M54 249l487 0 1 1 0 -166M542 85l13 0M555 249l0 -172M555 249l13 0M568 250l0 -166M568 85l13 0 0 -8 1 155M582 249l0 -17M582 249l65 0M647 252l0 -169M647 85l14 0M661 250l0 -168"/>
<path stroke="#FFC0C5" d="M661 249l66 0 0 -148 1 -16 0 -1M728 85l12 0M740 249l0 -166M740 249l67 0 0 -165M807 85l12 0M819 250l0 -174M819 249l14 0 1 -157 0 -8M834 85l11 0 0 -7 1 146M846 249l0 -25M846 249l15 0 0 -165M861 85l11 0M872 249l0 -171M872 249l15 0"/>
<path stroke="#FFC0C5" d="M887 249l0 -165M887 85l11 0M898 249l0 -171M898 249l15 0 0 -140 1 -24 0 -1M914 85l11 0M925 250l0 -167M925 249l12 0M937 250l0 -1M937 250l1 -68 0 -98M938 85l13 0M951 249l0 -172M951 249l23 0"/>
<path stroke="#A52A2A" d="M50 55l46 0"/>
<text stroke="none" fill="white" font-size="16" x="106" y="64">
x1.comp_out_n-2
</text>
<path stroke="#A52A2A" d="M50 613l1 0 1 -9 0 -22 1 -19M53 564l0 -3M53 564l1 6M54 613l0 -43M54 612l1 1 487 0M542 614l0 -1 52 0M594 614l0 -167M594 449l14 0M608 613l0 -171M608 613l13 0M621 614l0 -167M621 449l13 0M634 614l0 -168M634 614l1 -1 38 0"/>
<path stroke="#A52A2A" d="M673 614l0 -81 1 -76 0 -10M674 449l13 0M687 613l0 -171M687 613l13 0M700 614l0 -166M700 449l13 0 0 -7 1 132M714 613l0 -39M714 613l39 0 0 -165M753 449l13 0M766 613l0 -174M766 613l14 0M780 614l0 -1M780 614l1 -153 0 -13"/>
<path stroke="#A52A2A" d="M781 449l12 0M793 613l0 -167M793 613l145 0M938 614l0 -1 36 0"/>
</svg>
