<?xml version="1.0" standalone="yes"?>
<!DOCTYPE svg PUBLIC "-//W3C//DTD SVG 1.1//EN"
 "http://www.w3.org/Graphics/SVG/1.1/DTD/svg11.dtd">
<svg xmlns="http://www.w3.org/2000/svg" version="1.1"
  width="100%" height="100%" viewBox="0 0 1024 768"
  style="fill: none; font-family: Helvetica;
 font: Helvetica;
">

<!-- Creator: NGspice -->

<rect x="0" y="0" width="1024" height="768" fill="black" stroke="none"/>
<text stroke="none" fill="white" font-size="16" x="358" y="752">
time
</text>
<text stroke="none" fill="white" font-size="16" x="10" y="16">
tran1: run1440_vin0.366063
</text>
<path stroke="white" d="M50 704l0 -637"/>
<text stroke="none" fill="white" font-size="16" x="35" y="728">
0.0
</text>
<path stroke="white" stroke-dasharray="1,2" d="M182 704l0 -637"/>
<text stroke="none" fill="white" font-size="16" x="157" y="728">
100.0
</text>
<path stroke="white" stroke-dasharray="1,2" d="M314 704l0 -637"/>
<text stroke="none" fill="white" font-size="16" x="289" y="728">
200.0
</text>
<path stroke="white" stroke-dasharray="1,2" d="M446 704l0 -637"/>
<text stroke="none" fill="white" font-size="16" x="421" y="728">
300.0
</text>
<path stroke="white" stroke-dasharray="1,2" d="M578 704l0 -637"/>
<text stroke="none" fill="white" font-size="16" x="553" y="728">
400.0
</text>
<path stroke="white" stroke-dasharray="1,2" d="M710 704l0 -637"/>
<text stroke="none" fill="white" font-size="16" x="685" y="728">
500.0
</text>
<path stroke="white" stroke-dasharray="1,2" d="M842 704l0 -637"/>
<text stroke="none" fill="white" font-size="16" x="817" y="728">
600.0
</text>
<path stroke="white" stroke-dasharray="1,2" d="M974 704l0 -637"/>
<text stroke="none" fill="white" font-size="16" x="949" y="728">
700.0
</text>
<text stroke="none" fill="white" font-size="16" x="614" y="752">
ns
</text>
<path stroke="white" stroke-dasharray="1,2" d="M50 704l924 0"/>
<text stroke="none" fill="white" font-size="16" x="8" y="712">
-3.0
</text>
<path stroke="white" stroke-dasharray="1,2" d="M50 613l924 0"/>
<text stroke="none" fill="white" font-size="16" x="8" y="621">
-2.0
</text>
<path stroke="white" stroke-dasharray="1,2" d="M50 522l924 0"/>
<text stroke="none" fill="white" font-size="16" x="8" y="530">
-1.0
</text>
<path stroke="white" d="M50 431l924 0"/>
<text stroke="none" fill="white" font-size="16" x="18" y="439">
0.0
</text>
<path stroke="white" stroke-dasharray="1,2" d="M50 340l924 0"/>
<text stroke="none" fill="white" font-size="16" x="18" y="348">
1.0
</text>
<path stroke="white" stroke-dasharray="1,2" d="M50 249l924 0"/>
<text stroke="none" fill="white" font-size="16" x="18" y="257">
2.0
</text>
<path stroke="white" stroke-dasharray="1,2" d="M50 158l924 0"/>
<text stroke="none" fill="white" font-size="16" x="18" y="166">
3.0
</text>
<path stroke="white" stroke-dasharray="1,2" d="M50 67l924 0"/>
<text stroke="none" fill="white" font-size="16" x="18" y="75">
4.0
</text>
<text stroke="none" fill="white" font-size="16" x="10" y="32">
     
</text>
<path stroke="red" d="M462 23l46 0"/>
<text stroke="none" fill="white" font-size="16" x="518" y="32">
x1.vsampled_p
</text>
<path stroke="red" d="M50 431l1 0 1 -7 0 -15 1 -15 0 -4 1 1M54 415l0 -40 1 -5 0 -13 1 -3 0 -2 2 -2 1 0 1 -1 4 0M64 350l0 -1M64 350l4 0 1 -1 48 0 0 -1 1 -8 0 -15 1 -4 0 -2 1 -2 1 -1 419 0M540 317l0 -1 27 0M567 317l0 -1 7 0M574 337l0 -21M574 337l1 4"/>
<path stroke="red" d="M575 354l0 -13M575 354l1 2M576 357l0 -1M576 357l49 0 0 -10 1 -1 0 -6 1 0 0 -1 19 0M646 340l0 -1 7 0M653 347l0 -8M653 347l1 2M654 350l0 -1M654 350l1 -1 17 0M672 350l0 -1 27 0M699 350l0 -1 26 0M725 350l0 -1 26 0M751 350l0 -1"/>
<path stroke="red" d="M751 349l27 0M778 350l0 -1 26 0M804 350l0 -1 27 0M831 350l0 -1 26 0M857 350l0 -1 26 0M883 350l0 -1 27 0M910 350l0 -1 8 0M918 350l0 -3 1 -2 0 -14 1 -4 0 -3 1 -3 0 -3 1 0 0 -1 1 0 0 -1 13 0M936 317l0 -1 38 0"/>
<path stroke="blue" d="M50 23l46 0"/>
<text stroke="none" fill="white" font-size="16" x="106" y="32">
x1.vsampled_n
</text>
<path stroke="blue" d="M50 431l1 0 1 -7 0 -15 1 -14 0 -5 1 2M54 415l0 -40 1 -5 0 -13 1 -3 0 -2 2 -2 1 0 1 -1 4 0M64 350l0 -1M64 350l4 0 1 -1 48 0M117 355l0 -6M117 355l1 10M118 375l0 -10M118 375l1 3M119 380l0 -2M119 380l1 1M120 382l0 -1M120 382l419 0"/>
<path stroke="blue" d="M539 383l0 -1M539 383l1 0 1 -1M541 383l0 -1M541 383l5 0 0 -20 1 -4 0 -27 1 -2 0 -6 1 -1 0 -1 1 0 1 -1 15 0 1 1 0 -1 26 0M593 322l0 -1 7 0M600 339l0 -18M600 339l1 3M601 348l0 -6M601 346l1 -1 0 -3 4 0 0 -1 1 0M607 342l0 -1"/>
<path stroke="blue" d="M607 342l26 0 0 -1M633 342l26 0 0 -1M659 342l20 0M679 349l0 -7M679 349l1 1 0 -3 26 0M706 351l0 -4M706 350l1 0 0 -1 18 0M725 350l0 -1 7 0 0 -2 1 -1M733 347l0 -1M733 347l18 0M751 348l0 -1 8 0M759 350l0 -3M759 349l1 0 0 -1"/>
<path stroke="blue" d="M760 348l18 0M778 349l0 -1 7 0M785 349l0 -1M785 349l1 0M786 350l0 -1 26 0M812 350l0 -1M812 350l1 0 0 -1 17 0 1 1 0 -1 87 0M918 360l0 -16M918 360l1 3M919 380l0 -17M919 380l1 3M920 384l0 -1M920 384l1 0 0 -1 29 0 0 -1M950 383l11 0"/>
<path stroke="blue" d="M961 383l0 -1 13 0"/>
<path stroke="#FFA500" d="M462 39l46 0"/>
<text stroke="none" fill="white" font-size="16" x="518" y="48">
x1.vsampled_p-x1.vsampled_n
</text>
<path stroke="#FFA500" d="M50 431l3 0 0 -1M53 431l64 0 0 -7 1 -18 0 -25 1 -7 0 -4 1 -3 0 -1 1 -1 1 0 1 -1 416 0M539 365l0 -1M539 365l1 0 0 -1M540 365l6 0M546 384l0 -20M546 384l1 4M547 415l0 -27M547 415l1 2M548 423l0 -6M548 423l1 1M549 425l0 -1"/>
<path stroke="#FFA500" d="M549 425l1 1 17 0 0 -1M567 426l7 0M574 447l0 -22M574 447l1 3M575 463l0 -13M575 463l1 2M576 467l0 -2M576 467l17 0 0 -1M593 467l7 0 0 -18 1 -3 0 -6M601 442l1 1M602 446l0 -3M602 446l23 0 0 -9 1 -2 0 -6 1 0 0 -1 26 0M653 436l0 -8"/>
<path stroke="#FFA500" d="M653 436l1 3 1 0 0 -1 1 0 1 1 15 0 0 -1 1 0M673 439l0 -1 1 0M674 439l0 -1M674 439l5 0 0 -8 1 -1M680 433l0 -3M680 433l6 0M686 434l0 -1 20 0 0 -4M706 430l1 1 25 0M732 433l0 -2M732 433l1 1 0 -1 26 0 0 -3M759 432l26 0 1 -1"/>
<path stroke="#FFA500" d="M786 431l0 -1M786 431l26 0 0 -1 1 1 25 0M838 432l0 -1M838 432l1 -1 79 0M918 436l0 -18 1 -5 0 -31 1 -8 0 -4 1 -2 0 -2 1 0 0 -1 1 0 0 -1M923 365l1 0 0 -1 12 0M936 365l0 -1M936 365l14 0 0 -1 24 0"/>
<path stroke="green" d="M50 39l46 0"/>
<text stroke="none" fill="white" font-size="16" x="106" y="48">
x1.sw_sample-2
</text>
<path stroke="green" d="M50 613l1 0 1 -9 0 -21 1 -21M53 580l0 -24M53 580l1 30M54 613l0 -3M54 613l63 0M117 620l0 -172M117 449l422 0M539 614l0 -171M539 613l422 0M961 618l0 -170 1 1 12 0"/>
<path stroke="#FFC0C5" d="M462 55l46 0"/>
<text stroke="none" fill="white" font-size="16" x="518" y="64">
x1.comp_out_p+2
</text>
<path stroke="#FFC0C5" d="M50 249l1 0 1 -9 0 -22 1 -18 0 -4M53 198l1 5M54 249l0 -46M54 249l488 0M542 255l0 -172M542 85l13 0M555 250l0 -169M555 249l13 0 0 -165M568 85l13 0 0 -8 1 154M582 249l0 -18M582 249l65 0M647 251l0 -168M647 85l14 0M661 250l0 -174"/>
<path stroke="#FFC0C5" d="M661 249l67 0 0 -157 1 -8M729 85l0 -1M729 85l11 0M740 249l0 -173M740 249l94 0 0 -164 11 0 0 -10 1 143M846 249l0 -31M846 249l91 0 1 -45 0 -120M938 85l13 0M951 249l0 -172M951 249l23 0"/>
<path stroke="#A52A2A" d="M50 55l46 0"/>
<text stroke="none" fill="white" font-size="16" x="106" y="64">
x1.comp_out_n-2
</text>
<path stroke="#A52A2A" d="M50 613l1 0 1 -9 0 -22 1 -19M53 564l0 -3M53 564l1 6M54 613l0 -43M54 612l1 1 539 0 0 -166M594 449l14 0M608 614l0 -168M608 613l13 0M621 614l0 -167M621 449l13 0M634 613l0 -172M634 613l39 0M673 614l0 -73 1 -83 0 -10M674 449l13 0"/>
<path stroke="#A52A2A" d="M687 613l0 -172M687 613l13 0 0 -165M700 449l13 0 0 -7 1 132M714 613l0 -39M714 613l39 0 0 -165M753 449l13 0M766 614l0 -174M766 614l1 -1 13 0 0 -165M780 449l13 0M793 613l0 -174M793 613l14 0 0 -165 1 1 11 0M819 613l0 -171"/>
<path stroke="#A52A2A" d="M819 613l41 0 0 -164 12 0M872 613l0 -174M872 613l14 0 0 -151 1 -13 0 -1M887 449l11 0M898 613l0 -174M898 613l15 0 0 -165M913 449l12 0M925 614l0 -174M925 613l49 0"/>
</svg>
