<?xml version="1.0" standalone="yes"?>
<!DOCTYPE svg PUBLIC "-//W3C//DTD SVG 1.1//EN"
 "http://www.w3.org/Graphics/SVG/1.1/DTD/svg11.dtd">
<svg xmlns="http://www.w3.org/2000/svg" version="1.1"
  width="100%" height="100%" viewBox="0 0 1024 768"
  style="fill: none; font-family: Helvetica;
 font: Helvetica;
">

<!-- Creator: NGspice -->

<rect x="0" y="0" width="1024" height="768" fill="black" stroke="none"/>
<text stroke="none" fill="white" font-size="16" x="358" y="752">
time
</text>
<text stroke="none" fill="white" font-size="16" x="10" y="16">
tran1: run1442_vin0.36782
</text>
<path stroke="white" d="M50 704l0 -637"/>
<text stroke="none" fill="white" font-size="16" x="35" y="728">
0.0
</text>
<path stroke="white" stroke-dasharray="1,2" d="M182 704l0 -637"/>
<text stroke="none" fill="white" font-size="16" x="157" y="728">
100.0
</text>
<path stroke="white" stroke-dasharray="1,2" d="M314 704l0 -637"/>
<text stroke="none" fill="white" font-size="16" x="289" y="728">
200.0
</text>
<path stroke="white" stroke-dasharray="1,2" d="M446 704l0 -637"/>
<text stroke="none" fill="white" font-size="16" x="421" y="728">
300.0
</text>
<path stroke="white" stroke-dasharray="1,2" d="M578 704l0 -637"/>
<text stroke="none" fill="white" font-size="16" x="553" y="728">
400.0
</text>
<path stroke="white" stroke-dasharray="1,2" d="M710 704l0 -637"/>
<text stroke="none" fill="white" font-size="16" x="685" y="728">
500.0
</text>
<path stroke="white" stroke-dasharray="1,2" d="M842 704l0 -637"/>
<text stroke="none" fill="white" font-size="16" x="817" y="728">
600.0
</text>
<path stroke="white" stroke-dasharray="1,2" d="M974 704l0 -637"/>
<text stroke="none" fill="white" font-size="16" x="949" y="728">
700.0
</text>
<text stroke="none" fill="white" font-size="16" x="614" y="752">
ns
</text>
<path stroke="white" stroke-dasharray="1,2" d="M50 704l924 0"/>
<text stroke="none" fill="white" font-size="16" x="8" y="712">
-3.0
</text>
<path stroke="white" stroke-dasharray="1,2" d="M50 613l924 0"/>
<text stroke="none" fill="white" font-size="16" x="8" y="621">
-2.0
</text>
<path stroke="white" stroke-dasharray="1,2" d="M50 522l924 0"/>
<text stroke="none" fill="white" font-size="16" x="8" y="530">
-1.0
</text>
<path stroke="white" d="M50 431l924 0"/>
<text stroke="none" fill="white" font-size="16" x="18" y="439">
0.0
</text>
<path stroke="white" stroke-dasharray="1,2" d="M50 340l924 0"/>
<text stroke="none" fill="white" font-size="16" x="18" y="348">
1.0
</text>
<path stroke="white" stroke-dasharray="1,2" d="M50 249l924 0"/>
<text stroke="none" fill="white" font-size="16" x="18" y="257">
2.0
</text>
<path stroke="white" stroke-dasharray="1,2" d="M50 158l924 0"/>
<text stroke="none" fill="white" font-size="16" x="18" y="166">
3.0
</text>
<path stroke="white" stroke-dasharray="1,2" d="M50 67l924 0"/>
<text stroke="none" fill="white" font-size="16" x="18" y="75">
4.0
</text>
<text stroke="none" fill="white" font-size="16" x="10" y="32">
     
</text>
<path stroke="red" d="M462 23l46 0"/>
<text stroke="none" fill="white" font-size="16" x="518" y="32">
x1.vsampled_p
</text>
<path stroke="red" d="M50 431l1 0 1 -7 0 -15 1 -15 0 -4 1 1M54 415l0 -40 1 -5 0 -13 1 -3 0 -2 2 -2 1 0 1 -1 4 0M64 350l0 -1M64 350l4 0 1 -1 48 0 0 -1 1 -8 0 -15 1 -4 0 -2 1 -2 0 -1 420 0M540 317l0 -1 14 0 0 -1M554 316l13 0M567 317l0 -1 7 0M574 341l0 -25"/>
<path stroke="red" d="M574 341l1 4M575 356l0 -11M575 356l1 0M576 357l0 -1M576 357l49 0 0 -7 1 -2 0 -8 1 0 0 -1 26 0M653 347l0 -8M653 347l1 2M654 350l0 -1 159 0M813 350l0 -1 17 0 1 1 0 -1 86 0M917 351l0 -2M917 351l1 -2 0 -11 1 -2 0 -9 1 -3 0 -4"/>
<path stroke="red" d="M920 320l1 -1 0 -2 1 0 0 -1 14 0M936 317l0 -1 14 0 0 -1M950 316l24 0"/>
<path stroke="blue" d="M50 23l46 0"/>
<text stroke="none" fill="white" font-size="16" x="106" y="32">
x1.vsampled_n
</text>
<path stroke="blue" d="M50 431l1 0 1 -7 0 -15 1 -14 0 -5 1 2M54 415l0 -40 1 -5 0 -13 1 -3 0 -2 2 -2 1 0 1 -1 4 0M64 350l0 -1M64 350l4 0 1 -1 48 0M117 355l0 -6M117 355l1 10M118 376l0 -11M118 376l1 3M119 380l0 -1M119 380l1 1M120 382l0 -1M120 382l2 0"/>
<path stroke="blue" d="M122 383l0 -1M122 383l424 0 0 -26 1 -3 0 -23 1 -3 0 -3 1 -2 0 -1 2 0 1 -1 14 0 1 1M567 323l0 -2M567 322l1 0 0 -1 25 0M593 323l0 -2M593 322l1 0 0 -1 6 0M600 341l0 -20M600 341l1 3M601 348l0 -4M601 346l1 -1 0 -3 31 0 0 -1"/>
<path stroke="blue" d="M633 342l26 0 0 -1M659 342l20 0M679 348l0 -6M679 348l1 2 0 -2 1 -1 25 0M706 351l0 -4M706 351l1 -1 5 0 0 -1 13 0M725 350l0 -1M725 350l7 0 0 -4 1 0M733 347l0 -1M733 347l18 0M751 348l0 -1 8 0M759 350l0 -3M759 349l6 0 0 -1"/>
<path stroke="blue" d="M765 349l13 0 0 -1M778 349l8 0M786 350l0 -1 18 0M804 350l0 -1 27 0M831 350l0 -1 26 0M857 350l0 -1 26 0M883 350l0 -1 27 0M910 350l0 -1 7 0 0 -3 1 3M918 371l0 -22M918 371l1 2M919 384l0 -11M919 384l1 0 1 -1 41 0 0 -1M962 383l12 0"/>
<path stroke="#FFA500" d="M462 39l46 0"/>
<text stroke="none" fill="white" font-size="16" x="518" y="48">
x1.vsampled_p-x1.vsampled_n
</text>
<path stroke="#FFA500" d="M50 431l3 0 0 -1 1 1 63 0 0 -7 1 -18 0 -25 1 -7 0 -4 1 -3 0 -2 1 0 1 -1 418 0M540 365l0 -1 6 0M546 390l0 -26M546 390l1 3M547 416l0 -23M547 416l1 3M548 422l0 -3M548 422l1 1M549 425l0 -2M549 425l5 0M554 426l0 -1 20 0M574 450l0 -25"/>
<path stroke="#FFA500" d="M574 450l1 4M575 465l0 -11M575 465l1 1 4 0M580 467l0 -1 13 0 0 -1M593 466l7 0 0 -20 1 -2 0 -4M601 442l1 1M602 445l0 -2M602 445l1 1 16 0 0 -1M619 446l6 0 0 -7 1 -2 0 -8 1 0 0 -1 26 0M653 436l0 -8M653 436l1 2M654 439l0 -1"/>
<path stroke="#FFA500" d="M654 439l1 -1 24 0 0 -6 1 -2M680 433l0 -3M680 433l26 0 0 -4 2 2 17 0 0 -1M725 431l7 0M732 434l0 -3M732 434l1 0 0 -1 26 0 0 -3M759 431l1 0 1 1 17 0 0 -1M778 432l7 0 0 -1 1 0 0 -1M786 431l27 0M813 432l0 -1 104 0M917 436l0 -5"/>
<path stroke="#FFA500" d="M917 436l1 -5 0 -33 1 -5 0 -19 1 -4 0 -3 1 -1 0 -1 1 0 0 -1 14 0M936 365l0 -1 38 0"/>
<path stroke="green" d="M50 39l46 0"/>
<text stroke="none" fill="white" font-size="16" x="106" y="48">
x1.sw_sample-2
</text>
<path stroke="green" d="M50 613l1 0 1 -9 0 -21 1 -21M53 580l0 -24M53 580l1 30M54 613l0 -3M54 613l63 0M117 620l0 -172M117 449l422 0M539 614l0 -171M539 613l422 0M961 618l0 -170 1 1 12 0"/>
<path stroke="#FFC0C5" d="M462 55l46 0"/>
<text stroke="none" fill="white" font-size="16" x="518" y="64">
x1.comp_out_p+2
</text>
<path stroke="#FFC0C5" d="M50 249l1 0 1 -9 0 -22 1 -18 0 -4M53 198l1 5M54 249l0 -46M54 249l487 0 1 3 0 -168M542 85l13 0M555 250l0 -169M555 249l13 0M568 255l0 -172M568 85l13 0 0 -8 1 154M582 249l0 -18M582 249l65 0M647 251l0 -168M647 85l14 0M661 249l0 -173"/>
<path stroke="#FFC0C5" d="M661 249l67 0 0 -164 12 0M740 249l0 -172M740 249l67 0 0 -163 1 -2M808 85l0 -1M808 85l11 0M819 249l0 -167M819 249l41 0 0 -164 12 0M872 249l0 -174M872 249l14 0 0 -157 1 -8M887 85l0 -1M887 85l11 0M898 249l0 -174M898 249l14 0"/>
<path stroke="#FFC0C5" d="M912 249l1 -157 0 -8M913 85l12 0M925 250l0 -167M925 249l12 0 1 -43 0 -122M938 85l13 0M951 249l0 -172M951 249l23 0"/>
<path stroke="#A52A2A" d="M50 55l46 0"/>
<text stroke="none" fill="white" font-size="16" x="106" y="64">
x1.comp_out_n-2
</text>
<path stroke="#A52A2A" d="M50 613l1 0 1 -9 0 -22 1 -19M53 564l0 -3M53 564l1 6M54 613l0 -43M54 612l1 1 539 0 0 -166M594 449l14 0M608 613l0 -172M608 613l13 0M621 615l0 -168M621 449l13 0M634 614l0 -169M634 614l1 -1 38 0M673 615l0 -2M673 615l1 -117"/>
<path stroke="#A52A2A" d="M674 498l0 -51M674 449l13 0M687 613l0 -171M687 613l13 0 0 -165M700 449l13 0 0 -9 1 145M714 613l0 -28M714 613l39 0 0 -165M753 449l13 0M766 613l0 -172M766 613l14 0 0 -165 1 1 12 0M793 613l0 -167M793 613l41 0 0 -165M834 449l11 0"/>
<path stroke="#A52A2A" d="M845 449l0 -2 1 155M846 613l0 -11M846 613l128 0"/>
</svg>
