<?xml version="1.0" standalone="yes"?>
<!DOCTYPE svg PUBLIC "-//W3C//DTD SVG 1.1//EN"
 "http://www.w3.org/Graphics/SVG/1.1/DTD/svg11.dtd">
<svg xmlns="http://www.w3.org/2000/svg" version="1.1"
  width="100%" height="100%" viewBox="0 0 1024 768"
  style="fill: none; font-family: Helvetica;
 font: Helvetica;
">

<!-- Creator: NGspice -->

<rect x="0" y="0" width="1024" height="768" fill="black" stroke="none"/>
<text stroke="none" fill="white" font-size="16" x="358" y="752">
time
</text>
<text stroke="none" fill="white" font-size="16" x="10" y="16">
tran1: run588_vin-0.382764
</text>
<path stroke="white" d="M50 704l0 -637"/>
<text stroke="none" fill="white" font-size="16" x="35" y="728">
0.0
</text>
<path stroke="white" stroke-dasharray="1,2" d="M182 704l0 -637"/>
<text stroke="none" fill="white" font-size="16" x="157" y="728">
100.0
</text>
<path stroke="white" stroke-dasharray="1,2" d="M314 704l0 -637"/>
<text stroke="none" fill="white" font-size="16" x="289" y="728">
200.0
</text>
<path stroke="white" stroke-dasharray="1,2" d="M446 704l0 -637"/>
<text stroke="none" fill="white" font-size="16" x="421" y="728">
300.0
</text>
<path stroke="white" stroke-dasharray="1,2" d="M578 704l0 -637"/>
<text stroke="none" fill="white" font-size="16" x="553" y="728">
400.0
</text>
<path stroke="white" stroke-dasharray="1,2" d="M710 704l0 -637"/>
<text stroke="none" fill="white" font-size="16" x="685" y="728">
500.0
</text>
<path stroke="white" stroke-dasharray="1,2" d="M842 704l0 -637"/>
<text stroke="none" fill="white" font-size="16" x="817" y="728">
600.0
</text>
<path stroke="white" stroke-dasharray="1,2" d="M974 704l0 -637"/>
<text stroke="none" fill="white" font-size="16" x="949" y="728">
700.0
</text>
<text stroke="none" fill="white" font-size="16" x="614" y="752">
ns
</text>
<path stroke="white" stroke-dasharray="1,2" d="M50 704l924 0"/>
<text stroke="none" fill="white" font-size="16" x="8" y="712">
-3.0
</text>
<path stroke="white" stroke-dasharray="1,2" d="M50 613l924 0"/>
<text stroke="none" fill="white" font-size="16" x="8" y="621">
-2.0
</text>
<path stroke="white" stroke-dasharray="1,2" d="M50 522l924 0"/>
<text stroke="none" fill="white" font-size="16" x="8" y="530">
-1.0
</text>
<path stroke="white" d="M50 431l924 0"/>
<text stroke="none" fill="white" font-size="16" x="18" y="439">
0.0
</text>
<path stroke="white" stroke-dasharray="1,2" d="M50 340l924 0"/>
<text stroke="none" fill="white" font-size="16" x="18" y="348">
1.0
</text>
<path stroke="white" stroke-dasharray="1,2" d="M50 249l924 0"/>
<text stroke="none" fill="white" font-size="16" x="18" y="257">
2.0
</text>
<path stroke="white" stroke-dasharray="1,2" d="M50 158l924 0"/>
<text stroke="none" fill="white" font-size="16" x="18" y="166">
3.0
</text>
<path stroke="white" stroke-dasharray="1,2" d="M50 67l924 0"/>
<text stroke="none" fill="white" font-size="16" x="18" y="75">
4.0
</text>
<text stroke="none" fill="white" font-size="16" x="10" y="32">
     
</text>
<path stroke="red" d="M462 23l46 0"/>
<text stroke="none" fill="white" font-size="16" x="518" y="32">
x1.vsampled_p
</text>
<path stroke="red" d="M50 431l1 0 1 -7 0 -15 1 -14 0 -5 1 2M54 415l0 -40 1 -5 0 -13 1 -3 0 -2 2 -2 1 0 1 -1 4 0M64 350l0 -1M64 350l4 0 1 -1 48 0M117 356l0 -7M117 356l1 9M118 377l0 -12M118 377l1 3M119 381l0 -1M119 381l1 1M120 383l0 -1M120 383l1 1"/>
<path stroke="red" d="M121 384l425 0 0 -22 1 -4 0 -25 1 -1 0 -5 1 -2 0 -1 1 -1 4 0 0 -1M554 323l13 0M567 324l0 -1 13 0 0 -1M580 323l13 0M593 324l0 -1 7 0M600 340l0 -17M600 340l1 3M601 349l0 -6M601 347l1 -1 0 -2 1 0 0 -1 16 0M619 344l0 -1 27 0"/>
<path stroke="red" d="M646 344l0 -1 26 0M672 344l0 -1 7 0M679 349l0 -6M679 349l1 2 0 -2 1 0 0 -1 17 0 1 1 0 -1 26 0M725 349l0 -1 26 0M751 349l0 -1M751 349l1 -1 26 0M778 349l0 -1 7 0 1 1M786 350l0 -1 26 0M812 350l0 -1M812 350l1 0 0 -1 18 0M831 350l0 -1"/>
<path stroke="red" d="M831 349l26 0M857 350l0 -1 26 0M883 350l0 -1M883 350l1 -1 26 0M910 350l0 -1 8 0M918 362l0 -18M918 362l1 3M919 380l0 -15M919 380l1 5M920 386l0 -1M920 386l1 -1 1 0 0 -1 52 0"/>
<path stroke="blue" d="M50 23l46 0"/>
<text stroke="none" fill="white" font-size="16" x="106" y="32">
x1.vsampled_n
</text>
<path stroke="blue" d="M50 431l1 0 1 -7 0 -15 1 -15 0 -4 1 1M54 415l0 -40 1 -5 0 -13 1 -3 0 -2 2 -2 1 0 1 -1 4 0M64 350l0 -1M64 350l4 0 1 -1 48 0 0 -1 1 -8 0 -16 1 -4 0 -2 1 -2 0 -1 1 0 1 -1 417 0M539 315l0 -1M539 315l1 0 0 -1M540 315l14 0 0 -1"/>
<path stroke="blue" d="M554 314l12 0 1 1 7 0M574 339l0 -24M574 339l1 4M575 353l0 -10M575 353l1 2 17 0M593 356l0 -1 26 0M619 356l0 -1M619 356l1 0 0 -1 5 0 0 -5 1 -3 0 -8 1 0 0 -1 6 0 0 -1 13 0M646 338l0 -1M646 338l7 0M653 346l0 -9M653 346l1 2"/>
<path stroke="blue" d="M654 348l5 0 0 -1M659 348l47 0M706 350l0 -2M706 350l1 1 0 -1 18 0M725 351l0 -1 6 0 1 -1 0 -2M732 348l27 0M759 350l0 -2M759 350l1 -1 18 0M778 350l0 -1 26 0M804 350l0 -1 27 0M831 350l0 -1 87 0M918 351l0 -7 1 -2 0 -12 1 -4"/>
<path stroke="blue" d="M920 326l0 -6 1 -2 0 -2 1 0 0 -1 1 0 0 -1M923 315l1 0 0 -1 12 0M936 316l0 -2M936 315l14 0 0 -1 24 0"/>
<path stroke="#FFA500" d="M462 39l46 0"/>
<text stroke="none" fill="white" font-size="16" x="518" y="48">
x1.vsampled_p-x1.vsampled_n
</text>
<path stroke="#FFA500" d="M50 431l2 0 1 1 1 -1 63 0M117 438l0 -7M117 438l1 19M118 483l0 -26M118 483l1 8M119 494l0 -3M119 494l1 3M120 499l0 -2M120 499l1 1 1 0 1 1 416 0 0 -1 1 1 0 -1M540 501l1 -1 5 0 0 -22 1 -3 0 -25 1 -2 0 -5 1 -2 0 -1 1 0 1 -1"/>
<path stroke="#FFA500" d="M551 439l16 0M567 440l0 -1 7 0 0 -24 1 -4 0 -11 1 -1 0 -1 17 0M593 399l0 -1 7 0M600 416l0 -18M600 416l1 2M601 425l0 -7M601 423l1 -1 0 -2 1 -1 22 0M625 424l0 -5M625 424l1 3M626 435l0 -8M626 435l2 2 25 0 0 -9 1 -2 1 0"/>
<path stroke="#FFA500" d="M655 427l0 -1M655 427l4 0 0 -1 13 0M672 427l0 -1M672 427l7 0M679 433l0 -7M679 433l1 1M680 435l0 -3 26 0 0 -3 1 0 0 -1M707 429l24 0 1 1M732 432l0 -2M732 431l27 0 0 -2M759 430l26 0 1 1 26 0M812 432l0 -1M812 432l1 0 0 -1"/>
<path stroke="#FFA500" d="M813 431l25 0M838 432l0 -1M838 432l1 -1 79 0M918 449l0 -23M918 449l1 4M919 481l0 -28M919 481l1 9M920 497l0 -7M920 497l1 1M921 499l0 -1M921 499l1 0M922 500l0 -1M922 500l1 0M923 501l0 -1M923 501l13 0 0 -1 14 0M950 501l0 -1"/>
<path stroke="#FFA500" d="M950 501l24 0"/>
<path stroke="green" d="M50 39l46 0"/>
<text stroke="none" fill="white" font-size="16" x="106" y="48">
x1.sw_sample-2
</text>
<path stroke="green" d="M50 613l1 0 1 -9 0 -21 1 -21M53 580l0 -24M53 580l1 30M54 613l0 -3M54 613l63 0M117 620l0 -172M117 449l422 0M539 614l0 -171M539 613l422 0M961 618l0 -170 1 1 12 0"/>
<path stroke="#FFC0C5" d="M462 55l46 0"/>
<text stroke="none" fill="white" font-size="16" x="518" y="64">
x1.comp_out_p+2
</text>
<path stroke="#FFC0C5" d="M50 249l1 0 1 -9 0 -22 1 -18 0 -4M53 198l1 5M54 249l0 -46M54 248l1 1 539 0M594 250l0 -166M594 85l14 0M608 249l0 -171M608 249l13 0M621 251l0 -168M621 85l13 0M634 250l0 -173M634 250l1 -1 38 0M673 250l0 -1M673 250l1 -86"/>
<path stroke="#FFC0C5" d="M674 164l0 -81M674 85l13 0M687 250l0 -172M687 249l40 0 0 -165M727 85l13 0M740 249l0 -172M740 249l40 0 0 -165M780 85l13 0M793 249l0 -174M793 249l14 0 0 -164 12 0M819 249l0 -171M819 249l15 0 0 -164 11 0 0 -10 1 145M846 249l0 -29"/>
<path stroke="#FFC0C5" d="M846 249l128 0"/>
<path stroke="#A52A2A" d="M50 55l46 0"/>
<text stroke="none" fill="white" font-size="16" x="106" y="64">
x1.comp_out_n-2
</text>
<path stroke="#A52A2A" d="M50 613l1 0 1 -9 0 -22 1 -19M53 564l0 -3M53 564l1 6M54 613l0 -43M54 613l488 0 0 -165M542 449l13 0M555 613l0 -172M555 613l13 0M568 614l0 -167M568 449l13 0 0 -9 1 163M582 613l0 -10M582 613l12 0M594 614l0 -1 53 0M647 615l0 -168"/>
<path stroke="#A52A2A" d="M647 449l14 0M661 614l0 -172M661 613l39 0M700 615l0 -2M700 615l1 -150 0 -17M701 449l12 0 0 -9 1 162M714 613l0 -11M714 613l39 0 0 -153 1 -12M754 449l0 -1M754 449l12 0M766 613l0 -172M766 613l93 0 1 -158 0 -7M860 449l12 0"/>
<path stroke="#A52A2A" d="M872 613l0 -174M872 613l14 0 0 -164 1 -1M887 449l0 -1M887 449l11 0M898 613l0 -174M898 613l15 0 0 -165M913 449l12 0M925 614l0 -167M925 613l12 0M937 614l0 -1M937 614l1 -58 0 -108M938 449l13 0M951 613l0 -172M951 613l23 0"/>
</svg>
