<?xml version="1.0" standalone="yes"?>
<!DOCTYPE svg PUBLIC "-//W3C//DTD SVG 1.1//EN"
 "http://www.w3.org/Graphics/SVG/1.1/DTD/svg11.dtd">
<svg xmlns="http://www.w3.org/2000/svg" version="1.1"
  width="100%" height="100%" viewBox="0 0 1024 768"
  style="fill: none; font-family: Helvetica;
 font: Helvetica;
">

<!-- Creator: NGspice -->

<rect x="0" y="0" width="1024" height="768" fill="black" stroke="none"/>
<text stroke="none" fill="white" font-size="16" x="358" y="752">
time
</text>
<text stroke="none" fill="white" font-size="16" x="10" y="16">
tran1: run1077_vin0.0470201
</text>
<path stroke="white" d="M50 704l0 -637"/>
<text stroke="none" fill="white" font-size="16" x="35" y="728">
0.0
</text>
<path stroke="white" stroke-dasharray="1,2" d="M182 704l0 -637"/>
<text stroke="none" fill="white" font-size="16" x="157" y="728">
100.0
</text>
<path stroke="white" stroke-dasharray="1,2" d="M314 704l0 -637"/>
<text stroke="none" fill="white" font-size="16" x="289" y="728">
200.0
</text>
<path stroke="white" stroke-dasharray="1,2" d="M446 704l0 -637"/>
<text stroke="none" fill="white" font-size="16" x="421" y="728">
300.0
</text>
<path stroke="white" stroke-dasharray="1,2" d="M578 704l0 -637"/>
<text stroke="none" fill="white" font-size="16" x="553" y="728">
400.0
</text>
<path stroke="white" stroke-dasharray="1,2" d="M710 704l0 -637"/>
<text stroke="none" fill="white" font-size="16" x="685" y="728">
500.0
</text>
<path stroke="white" stroke-dasharray="1,2" d="M842 704l0 -637"/>
<text stroke="none" fill="white" font-size="16" x="817" y="728">
600.0
</text>
<path stroke="white" stroke-dasharray="1,2" d="M974 704l0 -637"/>
<text stroke="none" fill="white" font-size="16" x="949" y="728">
700.0
</text>
<text stroke="none" fill="white" font-size="16" x="614" y="752">
ns
</text>
<path stroke="white" stroke-dasharray="1,2" d="M50 704l924 0"/>
<text stroke="none" fill="white" font-size="16" x="8" y="712">
-2.5
</text>
<path stroke="white" stroke-dasharray="1,2" d="M50 655l924 0"/>
<text stroke="none" fill="white" font-size="16" x="8" y="663">
-2.0
</text>
<path stroke="white" stroke-dasharray="1,2" d="M50 606l924 0"/>
<text stroke="none" fill="white" font-size="16" x="8" y="614">
-1.5
</text>
<path stroke="white" stroke-dasharray="1,2" d="M50 557l924 0"/>
<text stroke="none" fill="white" font-size="16" x="8" y="565">
-1.0
</text>
<path stroke="white" stroke-dasharray="1,2" d="M50 508l924 0"/>
<text stroke="none" fill="white" font-size="16" x="8" y="516">
-0.5
</text>
<path stroke="white" d="M50 459l924 0"/>
<text stroke="none" fill="white" font-size="16" x="18" y="467">
0.0
</text>
<path stroke="white" stroke-dasharray="1,2" d="M50 410l924 0"/>
<text stroke="none" fill="white" font-size="16" x="18" y="418">
0.5
</text>
<path stroke="white" stroke-dasharray="1,2" d="M50 361l924 0"/>
<text stroke="none" fill="white" font-size="16" x="18" y="369">
1.0
</text>
<path stroke="white" stroke-dasharray="1,2" d="M50 312l924 0"/>
<text stroke="none" fill="white" font-size="16" x="18" y="320">
1.5
</text>
<path stroke="white" stroke-dasharray="1,2" d="M50 263l924 0"/>
<text stroke="none" fill="white" font-size="16" x="18" y="271">
2.0
</text>
<path stroke="white" stroke-dasharray="1,2" d="M50 214l924 0"/>
<text stroke="none" fill="white" font-size="16" x="18" y="222">
2.5
</text>
<path stroke="white" stroke-dasharray="1,2" d="M50 165l924 0"/>
<text stroke="none" fill="white" font-size="16" x="18" y="173">
3.0
</text>
<path stroke="white" stroke-dasharray="1,2" d="M50 116l924 0"/>
<text stroke="none" fill="white" font-size="16" x="18" y="124">
3.5
</text>
<path stroke="white" stroke-dasharray="1,2" d="M50 67l924 0"/>
<text stroke="none" fill="white" font-size="16" x="18" y="75">
4.0
</text>
<text stroke="none" fill="white" font-size="16" x="10" y="32">
     
</text>
<path stroke="red" d="M462 23l46 0"/>
<text stroke="none" fill="white" font-size="16" x="518" y="32">
x1.vsampled_p
</text>
<path stroke="red" d="M50 459l1 0 1 -7 0 -17 1 -15 0 -5 1 1M54 442l0 -42 1 -6 0 -16 1 -2 0 -3 1 -1 1 0 0 -1 59 0 1 -2 0 -1 2 -2 420 0M540 367l0 -1 26 0 1 1 0 -1 26 0M593 367l0 -1 26 0M619 367l0 -1M619 367l1 0 0 -1 26 0M646 367l0 -1 26 0M672 367l0 -1"/>
<path stroke="red" d="M672 366l7 0M679 371l0 -5M679 371l1 1M680 374l0 -2M680 373l1 -1 50 0 0 -2 1 -1 1 0M733 370l0 -1M733 370l5 0 0 -1 13 0M751 370l0 -1M751 370l1 0 0 -1M752 370l7 0M759 372l0 -3M759 371l159 0M918 372l0 -6 18 0M936 367l0 -1 38 0"/>
<path stroke="blue" d="M50 23l46 0"/>
<text stroke="none" fill="white" font-size="16" x="106" y="32">
x1.vsampled_n
</text>
<path stroke="blue" d="M50 459l1 0 1 -7 0 -17 1 -15 0 -5 1 1M54 442l0 -42 1 -6 0 -16 1 -2 0 -3 1 -1 1 0 0 -1 59 0 1 2M118 374l0 -1M118 374l1 1 420 0M539 376l0 -1M539 376l2 0 0 -1M541 376l5 0 0 -13 1 -7 0 -32 1 -7 0 -3 1 -2 0 -1 1 -1 4 0 0 -1"/>
<path stroke="blue" d="M554 309l12 0 1 1M567 312l0 -2 7 0M574 341l0 -31M574 341l1 8M575 355l0 -6M575 355l1 1 0 -1 1 -1 3 0 0 -1M580 354l20 0M600 373l0 -19M600 373l1 4M601 379l0 -2M601 378l1 -1 0 -1 4 0 0 -1 1 1 13 0 0 -1M620 376l5 0 0 -5 1 -4"/>
<path stroke="blue" d="M626 367l0 -10 1 0 0 -1 19 0M646 357l0 -1 7 0M653 367l0 -11M653 367l1 2 0 -1 1 0 1 -1 16 0M672 368l0 -1 26 0 1 1 0 -1 7 0M706 371l0 -4M706 371l1 -1 18 0M725 371l0 -1 26 0M751 371l0 -1 27 0M778 371l0 -1 7 0M785 371l0 -1"/>
<path stroke="blue" d="M785 371l28 0M813 372l0 -1 18 0M831 372l0 -1 7 0 0 -1M838 371l80 0M918 378l0 -8M918 377l1 0 0 -1 4 0 0 -1M923 376l13 0 0 -1 1 0M937 376l0 -1M937 376l13 0 0 -1M950 376l11 0 0 -1 13 0"/>
<path stroke="#FFA500" d="M462 39l46 0"/>
<text stroke="none" fill="white" font-size="16" x="518" y="48">
x1.vsampled_p-x1.vsampled_n
</text>
<path stroke="#FFA500" d="M50 459l67 0 0 -1 1 -3 0 -2 1 -2 0 -1 427 0M546 462l0 -12M546 462l1 7M547 502l0 -33M547 502l1 6M548 512l0 -4M548 512l1 1M549 514l0 -1M549 514l1 1M550 516l0 -1M550 516l16 0 1 -1M567 516l0 -2M567 516l7 0 0 -31 1 -8 0 -7"/>
<path stroke="#FFA500" d="M575 470l1 0M576 471l0 -1M576 471l1 0 1 1 15 0 0 -1M593 472l7 0 0 -20 1 -3 0 -3M601 448l2 2 22 0M625 455l0 -5M625 455l1 4M626 468l0 -9M626 468l1 1 26 0 0 -10 1 -2 0 -1M654 457l1 1 24 0M679 462l0 -4M679 462l1 1M680 466l0 -3"/>
<path stroke="#FFA500" d="M680 464l19 0 0 -1M699 464l7 0 0 -4 1 0M707 461l0 -1M707 461l24 0 0 -2 1 -1 0 -1M732 458l27 0M759 461l0 -3M759 460l26 0 0 -1 1 0 0 -1M786 459l27 0 0 -1M813 459l104 0 1 -1M918 461l0 -14M918 448l1 0M919 449l0 -1M919 449l1 1"/>
<path stroke="#FFA500" d="M920 450l54 0"/>
<path stroke="green" d="M50 39l46 0"/>
<text stroke="none" fill="white" font-size="16" x="106" y="48">
x1.sw_sample-2
</text>
<path stroke="green" d="M50 655l1 0 1 -10 0 -23 1 -21M53 621l0 -27M53 621l1 31M54 655l0 -3M54 655l63 0M117 662l0 -184 1 1 421 0M539 656l0 -184M539 655l422 0M961 660l0 -182 1 0M962 479l0 -1 1 1 11 0"/>
<path stroke="#FFC0C5" d="M462 55l46 0"/>
<text stroke="none" fill="white" font-size="16" x="518" y="64">
x1.comp_out_p+2
</text>
<path stroke="#FFC0C5" d="M50 263l1 0 1 -10 0 -23 1 -20 0 -4M53 209l1 4M54 263l0 -50M54 263l488 0M542 264l0 -179M542 87l13 0M555 264l0 -187M555 263l66 0M621 264l0 -179M621 87l13 0M634 264l0 -182M634 263l40 0 0 -178M674 87l13 0M687 263l0 -186"/>
<path stroke="#FFC0C5" d="M687 263l66 0M753 264l0 -178 1 0M754 87l0 -1M754 87l12 0M766 263l0 -185M766 263l68 0 0 -177M834 87l11 0 0 -3M845 87l1 161M846 263l0 -15M846 263l91 0 1 1 0 -179M938 87l13 0M951 264l0 -187M951 263l23 0"/>
<path stroke="#A52A2A" d="M50 55l46 0"/>
<text stroke="none" fill="white" font-size="16" x="106" y="64">
x1.comp_out_n-2
</text>
<path stroke="#A52A2A" d="M50 655l1 0 1 -10 0 -24 1 -20M53 602l0 -3M53 602l1 7M54 655l0 -46M54 655l488 0M542 656l0 -1 26 0 0 -178M568 479l13 0 0 -10 1 173M582 655l0 -13M582 655l12 0 0 -178 1 1M595 479l0 -1M595 479l13 0M608 656l0 -182M608 655l13 0"/>
<path stroke="#A52A2A" d="M621 656l0 -1 26 0 0 -178M647 479l14 0M661 655l0 -185M661 655l39 0M700 660l0 -184M700 479l13 0 0 -10 1 176M714 655l0 -10M714 655l13 0 0 -177M727 479l13 0M740 655l0 -179M740 655l40 0 0 -177M780 479l13 0M793 655l0 -185"/>
<path stroke="#A52A2A" d="M793 655l14 0 0 -163 1 -14M808 479l0 -1M808 479l11 0M819 655l0 -182M819 655l41 0 0 -177 1 0M861 479l0 -1M861 479l11 0M872 655l0 -187M872 655l14 0 1 -170 0 -7M887 479l11 0M898 655l0 -188M898 655l15 0 0 -177 1 1 11 0M925 656l0 -187"/>
<path stroke="#A52A2A" d="M925 655l49 0"/>
</svg>
