<?xml version="1.0" standalone="yes"?>
<!DOCTYPE svg PUBLIC "-//W3C//DTD SVG 1.1//EN"
 "http://www.w3.org/Graphics/SVG/1.1/DTD/svg11.dtd">
<svg xmlns="http://www.w3.org/2000/svg" version="1.1"
  width="100%" height="100%" viewBox="0 0 1024 768"
  style="fill: none; font-family: Helvetica;
 font: Helvetica;
">

<!-- Creator: NGspice -->

<rect x="0" y="0" width="1024" height="768" fill="black" stroke="none"/>
<text stroke="none" fill="white" font-size="16" x="358" y="752">
time
</text>
<text stroke="none" fill="white" font-size="16" x="10" y="16">
tran1: run1075_vin0.0452623
</text>
<path stroke="white" d="M50 704l0 -637"/>
<text stroke="none" fill="white" font-size="16" x="35" y="728">
0.0
</text>
<path stroke="white" stroke-dasharray="1,2" d="M182 704l0 -637"/>
<text stroke="none" fill="white" font-size="16" x="157" y="728">
100.0
</text>
<path stroke="white" stroke-dasharray="1,2" d="M314 704l0 -637"/>
<text stroke="none" fill="white" font-size="16" x="289" y="728">
200.0
</text>
<path stroke="white" stroke-dasharray="1,2" d="M446 704l0 -637"/>
<text stroke="none" fill="white" font-size="16" x="421" y="728">
300.0
</text>
<path stroke="white" stroke-dasharray="1,2" d="M578 704l0 -637"/>
<text stroke="none" fill="white" font-size="16" x="553" y="728">
400.0
</text>
<path stroke="white" stroke-dasharray="1,2" d="M710 704l0 -637"/>
<text stroke="none" fill="white" font-size="16" x="685" y="728">
500.0
</text>
<path stroke="white" stroke-dasharray="1,2" d="M842 704l0 -637"/>
<text stroke="none" fill="white" font-size="16" x="817" y="728">
600.0
</text>
<path stroke="white" stroke-dasharray="1,2" d="M974 704l0 -637"/>
<text stroke="none" fill="white" font-size="16" x="949" y="728">
700.0
</text>
<text stroke="none" fill="white" font-size="16" x="614" y="752">
ns
</text>
<path stroke="white" stroke-dasharray="1,2" d="M50 704l924 0"/>
<text stroke="none" fill="white" font-size="16" x="8" y="712">
-2.5
</text>
<path stroke="white" stroke-dasharray="1,2" d="M50 655l924 0"/>
<text stroke="none" fill="white" font-size="16" x="8" y="663">
-2.0
</text>
<path stroke="white" stroke-dasharray="1,2" d="M50 606l924 0"/>
<text stroke="none" fill="white" font-size="16" x="8" y="614">
-1.5
</text>
<path stroke="white" stroke-dasharray="1,2" d="M50 557l924 0"/>
<text stroke="none" fill="white" font-size="16" x="8" y="565">
-1.0
</text>
<path stroke="white" stroke-dasharray="1,2" d="M50 508l924 0"/>
<text stroke="none" fill="white" font-size="16" x="8" y="516">
-0.5
</text>
<path stroke="white" d="M50 459l924 0"/>
<text stroke="none" fill="white" font-size="16" x="18" y="467">
0.0
</text>
<path stroke="white" stroke-dasharray="1,2" d="M50 410l924 0"/>
<text stroke="none" fill="white" font-size="16" x="18" y="418">
0.5
</text>
<path stroke="white" stroke-dasharray="1,2" d="M50 361l924 0"/>
<text stroke="none" fill="white" font-size="16" x="18" y="369">
1.0
</text>
<path stroke="white" stroke-dasharray="1,2" d="M50 312l924 0"/>
<text stroke="none" fill="white" font-size="16" x="18" y="320">
1.5
</text>
<path stroke="white" stroke-dasharray="1,2" d="M50 263l924 0"/>
<text stroke="none" fill="white" font-size="16" x="18" y="271">
2.0
</text>
<path stroke="white" stroke-dasharray="1,2" d="M50 214l924 0"/>
<text stroke="none" fill="white" font-size="16" x="18" y="222">
2.5
</text>
<path stroke="white" stroke-dasharray="1,2" d="M50 165l924 0"/>
<text stroke="none" fill="white" font-size="16" x="18" y="173">
3.0
</text>
<path stroke="white" stroke-dasharray="1,2" d="M50 116l924 0"/>
<text stroke="none" fill="white" font-size="16" x="18" y="124">
3.5
</text>
<path stroke="white" stroke-dasharray="1,2" d="M50 67l924 0"/>
<text stroke="none" fill="white" font-size="16" x="18" y="75">
4.0
</text>
<text stroke="none" fill="white" font-size="16" x="10" y="32">
     
</text>
<path stroke="red" d="M462 23l46 0"/>
<text stroke="none" fill="white" font-size="16" x="518" y="32">
x1.vsampled_p
</text>
<path stroke="red" d="M50 459l1 0 1 -7 0 -17 1 -15 0 -5 1 1M54 442l0 -42 1 -6 0 -16 1 -2 0 -3 1 -1 1 0 0 -1 59 0 1 -2 0 -1 1 -1 1 0 1 -1 418 0M539 367l0 -1M539 367l15 0 0 -1 1 0M555 367l0 -1M555 367l11 0 0 -1M566 367l14 0 0 -1M580 367l13 0 0 -1"/>
<path stroke="red" d="M593 367l13 0 0 -1 1 0M607 367l0 -1M607 367l26 0 0 -1M633 367l13 0 0 -1M646 367l13 0 0 -1M659 367l13 0 0 -1M672 367l7 0M679 371l0 -4M679 371l1 1M680 374l0 -2M680 373l1 -1 50 0 0 -3 1 0M732 370l0 -1M732 370l6 0 0 -1M738 370l21 0"/>
<path stroke="red" d="M759 372l0 -2M759 371l80 0 0 -1M839 371l79 0M918 373l0 -7 2 0M920 367l0 -1M920 367l3 0 0 -1M923 367l27 0 0 -1M950 367l11 0 0 -1 13 0"/>
<path stroke="blue" d="M50 23l46 0"/>
<text stroke="none" fill="white" font-size="16" x="106" y="32">
x1.vsampled_n
</text>
<path stroke="blue" d="M50 459l1 0 1 -7 0 -17 1 -15 0 -5 1 1M54 442l0 -42 1 -6 0 -16 1 -2 0 -3 1 -1 1 0 0 -1 59 0 1 2M118 374l0 -1M118 374l1 1 421 0M540 376l0 -1 6 0 0 -11 1 -8 0 -32 1 -7 0 -3 1 -2 0 -1 1 -1 4 0 0 -1 12 0 1 1M567 311l0 -1 7 0"/>
<path stroke="blue" d="M574 340l0 -30M574 340l1 8M575 355l0 -7M575 355l1 0 1 -1 3 0 0 -1 13 0M593 354l0 -1M593 354l7 0M600 373l0 -20M600 373l1 4M601 379l0 -2 1 -1 1 0 0 -1 16 0M619 376l0 -1M619 376l1 0 0 -1 5 0 0 -7 1 -4 0 -7 1 -1 19 0M646 357l0 -1"/>
<path stroke="blue" d="M646 356l7 0M653 365l0 -9M653 365l1 2M654 369l0 -2M654 368l1 0 0 -1 17 0M672 368l0 -1 27 0M699 368l0 -1 7 0M706 371l0 -4M706 371l1 -1 78 0M785 371l0 -1M785 371l6 0 0 -1M791 371l21 0M812 372l0 -1M812 372l1 0 0 -1 105 0M918 378l0 -9"/>
<path stroke="blue" d="M918 377l1 -1 1 0 0 -1 16 0M936 376l0 -1 38 0"/>
<path stroke="#FFA500" d="M462 39l46 0"/>
<text stroke="none" fill="white" font-size="16" x="518" y="48">
x1.vsampled_p-x1.vsampled_n
</text>
<path stroke="#FFA500" d="M50 459l67 0 0 -1 1 -2 0 -3 1 -2 1 -1 426 0M546 462l0 -12M546 462l1 8M547 502l0 -32M547 502l1 7M548 512l0 -3M548 512l1 2M549 515l0 -1M549 515l1 0M550 516l0 -1M550 516l4 0M554 517l0 -1 13 0 0 -1M567 516l6 0 1 -1 0 -30"/>
<path stroke="#FFA500" d="M574 485l1 -8 0 -7 1 0M576 471l0 -1M576 471l1 1 23 0 0 -19 1 -4 0 -3M601 448l1 1M602 450l0 -1M602 450l23 0M625 458l0 -8M625 458l1 3M626 469l0 -8M626 469l1 0M627 470l0 -1M627 470l1 0 1 -1 4 0M633 470l0 -1 13 0M646 470l0 -1"/>
<path stroke="#FFA500" d="M646 469l7 0M653 470l0 -10 1 -2 0 -1M654 458l25 0M679 463l0 -5M679 463l1 1M680 466l0 -2 26 0 0 -4 1 1 24 0 0 -3 1 0M732 459l0 -1M732 459l27 0M759 461l0 -2M759 460l26 0 0 -1 27 0 0 -1 1 1 26 0 0 -1M839 459l79 0M918 463l0 -15"/>
<path stroke="#FFA500" d="M918 448l1 1M919 450l0 -1M919 450l55 0"/>
<path stroke="green" d="M50 39l46 0"/>
<text stroke="none" fill="white" font-size="16" x="106" y="48">
x1.sw_sample-2
</text>
<path stroke="green" d="M50 655l1 0 1 -10 0 -23 1 -21M53 621l0 -27M53 621l1 31M54 655l0 -3M54 655l63 0M117 662l0 -184 1 1 421 0M539 656l0 -184M539 655l422 0M961 660l0 -182 1 0M962 479l0 -1 1 1 11 0"/>
<path stroke="#FFC0C5" d="M462 55l46 0"/>
<text stroke="none" fill="white" font-size="16" x="518" y="64">
x1.comp_out_p+2
</text>
<path stroke="#FFC0C5" d="M50 263l1 0 1 -10 0 -23 1 -20 0 -4M53 209l1 4M54 263l0 -50M54 263l488 0M542 265l0 -180M542 87l13 0M555 264l0 -186M555 263l66 0M621 265l0 -180M621 87l13 0M634 263l0 -185M634 263l40 0 0 -178M674 87l13 0M687 264l0 -187"/>
<path stroke="#FFC0C5" d="M687 263l66 0 0 -155 1 -22M754 87l0 -1M754 87l12 0M766 263l0 -185M766 263l94 0 0 -177M860 87l12 0M872 263l0 -180M872 263l14 0 0 -176 1 -1M887 87l0 -1M887 87l11 0M898 263l0 -180M898 263l15 0 0 -177M913 87l12 0M925 263l0 -185"/>
<path stroke="#FFC0C5" d="M925 263l12 0 1 1 0 -179M938 87l13 0M951 264l0 -183M951 263l23 0"/>
<path stroke="#A52A2A" d="M50 55l46 0"/>
<text stroke="none" fill="white" font-size="16" x="106" y="64">
x1.comp_out_n-2
</text>
<path stroke="#A52A2A" d="M50 655l1 0 1 -10 0 -24 1 -20M53 602l0 -3M53 602l1 7M54 655l0 -46M54 655l514 0M568 660l0 -184M568 479l13 0 0 -10 1 174M582 655l0 -12M582 655l12 0 0 -179M594 477l1 1M595 479l0 -1M595 479l13 0M608 655l0 -184M608 655l39 0"/>
<path stroke="#A52A2A" d="M647 656l0 -180M647 479l14 0M661 655l0 -184M661 655l39 0M700 661l0 -185M700 479l13 0 0 -10 1 173M714 655l0 -13M714 655l13 0 0 -177M727 479l13 0M740 655l0 -185M740 655l40 0 0 -177M780 479l13 0M793 655l0 -187M793 655l14 0"/>
<path stroke="#A52A2A" d="M807 655l0 -177M807 479l12 0M819 655l0 -185M819 655l15 0 0 -177 1 0M835 479l0 -1M835 479l10 0 0 -12 1 165M846 655l0 -23M846 655l128 0"/>
</svg>
