<?xml version="1.0" standalone="yes"?>
<!DOCTYPE svg PUBLIC "-//W3C//DTD SVG 1.1//EN"
 "http://www.w3.org/Graphics/SVG/1.1/DTD/svg11.dtd">
<svg xmlns="http://www.w3.org/2000/svg" version="1.1"
  width="100%" height="100%" viewBox="0 0 1024 768"
  style="fill: none; font-family: Helvetica;
 font: Helvetica;
">

<!-- Creator: NGspice -->

<rect x="0" y="0" width="1024" height="768" fill="black" stroke="none"/>
<text stroke="none" fill="white" font-size="16" x="358" y="752">
time
</text>
<text stroke="none" fill="white" font-size="16" x="10" y="16">
tran1: run1078_vin0.047899
</text>
<path stroke="white" d="M50 704l0 -637"/>
<text stroke="none" fill="white" font-size="16" x="35" y="728">
0.0
</text>
<path stroke="white" stroke-dasharray="1,2" d="M182 704l0 -637"/>
<text stroke="none" fill="white" font-size="16" x="157" y="728">
100.0
</text>
<path stroke="white" stroke-dasharray="1,2" d="M314 704l0 -637"/>
<text stroke="none" fill="white" font-size="16" x="289" y="728">
200.0
</text>
<path stroke="white" stroke-dasharray="1,2" d="M446 704l0 -637"/>
<text stroke="none" fill="white" font-size="16" x="421" y="728">
300.0
</text>
<path stroke="white" stroke-dasharray="1,2" d="M578 704l0 -637"/>
<text stroke="none" fill="white" font-size="16" x="553" y="728">
400.0
</text>
<path stroke="white" stroke-dasharray="1,2" d="M710 704l0 -637"/>
<text stroke="none" fill="white" font-size="16" x="685" y="728">
500.0
</text>
<path stroke="white" stroke-dasharray="1,2" d="M842 704l0 -637"/>
<text stroke="none" fill="white" font-size="16" x="817" y="728">
600.0
</text>
<path stroke="white" stroke-dasharray="1,2" d="M974 704l0 -637"/>
<text stroke="none" fill="white" font-size="16" x="949" y="728">
700.0
</text>
<text stroke="none" fill="white" font-size="16" x="614" y="752">
ns
</text>
<path stroke="white" stroke-dasharray="1,2" d="M50 704l924 0"/>
<text stroke="none" fill="white" font-size="16" x="8" y="712">
-3.0
</text>
<path stroke="white" stroke-dasharray="1,2" d="M50 613l924 0"/>
<text stroke="none" fill="white" font-size="16" x="8" y="621">
-2.0
</text>
<path stroke="white" stroke-dasharray="1,2" d="M50 522l924 0"/>
<text stroke="none" fill="white" font-size="16" x="8" y="530">
-1.0
</text>
<path stroke="white" d="M50 431l924 0"/>
<text stroke="none" fill="white" font-size="16" x="18" y="439">
0.0
</text>
<path stroke="white" stroke-dasharray="1,2" d="M50 340l924 0"/>
<text stroke="none" fill="white" font-size="16" x="18" y="348">
1.0
</text>
<path stroke="white" stroke-dasharray="1,2" d="M50 249l924 0"/>
<text stroke="none" fill="white" font-size="16" x="18" y="257">
2.0
</text>
<path stroke="white" stroke-dasharray="1,2" d="M50 158l924 0"/>
<text stroke="none" fill="white" font-size="16" x="18" y="166">
3.0
</text>
<path stroke="white" stroke-dasharray="1,2" d="M50 67l924 0"/>
<text stroke="none" fill="white" font-size="16" x="18" y="75">
4.0
</text>
<text stroke="none" fill="white" font-size="16" x="10" y="32">
     
</text>
<path stroke="red" d="M462 23l46 0"/>
<text stroke="none" fill="white" font-size="16" x="518" y="32">
x1.vsampled_p
</text>
<path stroke="red" d="M50 431l1 0 1 -7 0 -15 1 -15 0 -4 1 1M54 415l0 -39 1 -5 0 -15 1 -2 0 -3 1 -1 2 0 1 -1 4 0M64 350l0 -1M64 350l4 0 1 -1 48 0 1 -1 0 -2 1 -1 560 0M679 350l0 -5M679 350l1 0M680 352l0 -2M680 351l1 -1 50 0 0 -3 1 0M732 348l0 -1"/>
<path stroke="red" d="M732 348l27 0M759 350l0 -2M759 349l54 0M813 350l0 -1 17 0 1 1 0 -1 86 0M917 350l0 -1M917 350l1 0 0 -6 1 0M919 345l0 -1M919 345l55 0"/>
<path stroke="blue" d="M50 23l46 0"/>
<text stroke="none" fill="white" font-size="16" x="106" y="32">
x1.vsampled_n
</text>
<path stroke="blue" d="M50 431l1 0 1 -7 0 -15 1 -14 0 -5 1 1M54 415l0 -39 1 -5 0 -15 1 -2 0 -3 1 -1 2 0 1 -1 4 0M64 350l0 -1M64 350l4 0 1 -1 48 0M117 350l0 -1M117 350l1 1M118 352l0 -1M118 352l1 1 420 0M539 354l0 -1M539 354l7 0 0 -8 1 -9 0 -28"/>
<path stroke="blue" d="M547 309l1 -8 0 -4 1 -2 0 -1 1 -1 1 0 0 -1 15 0 1 1M567 294l0 -2 7 0M574 322l0 -30M574 322l1 7M575 335l0 -6M575 335l1 0 0 -1 1 0 1 -1 15 0M593 334l0 -1 7 0M600 350l0 -17M600 350l1 4M601 357l0 -3M601 356l1 -1 0 -1 4 0 0 -1"/>
<path stroke="blue" d="M606 354l19 0 0 -10 1 -1 0 -7 7 0 0 -1M633 336l20 0M653 345l0 -9M653 345l1 2M654 348l0 -1 1 -1 51 0M706 350l0 -4M706 349l6 0 0 -1 1 0M713 349l0 -1M713 349l12 0 0 -1M725 349l13 0 0 -1 2 0M740 349l0 -1M740 349l11 0 0 -1M751 349l1 0"/>
<path stroke="blue" d="M752 349l0 -1M752 349l13 0 0 -1 1 0M766 349l0 -1M766 349l12 0 0 -1M778 349l7 0 1 1 0 -1 18 0M804 350l0 -1 27 0M831 350l0 -1 26 0M857 350l0 -1 26 0M883 350l0 -1 27 0M910 350l0 -1 8 0M918 356l0 -8M918 355l1 -1 4 0 0 -1M923 354l27 0"/>
<path stroke="blue" d="M950 354l0 -1M950 354l12 0 0 -1 12 0"/>
<path stroke="#FFA500" d="M462 39l46 0"/>
<text stroke="none" fill="white" font-size="16" x="518" y="48">
x1.vsampled_p-x1.vsampled_n
</text>
<path stroke="#FFA500" d="M50 431l67 0 0 -1 1 -2 0 -3 1 -1 0 -1 1 0 1 -1 425 0M546 430l0 -8M546 430l1 9M547 467l0 -28M547 467l1 8M548 479l0 -4M548 479l1 2M549 482l0 -1M549 482l1 1 1 0M551 484l0 -1M551 484l15 0 1 -1M567 484l0 -2M567 484l7 0 0 -30"/>
<path stroke="#FFA500" d="M574 454l1 -8 0 -5 1 0M576 442l0 -1M576 442l1 0 1 1 15 0 0 -1M593 443l7 0 0 -17 1 -4 0 -3M601 420l1 1M602 422l0 -1M602 422l23 0M625 432l0 -10M625 432l1 1M626 440l0 -7M626 440l27 0 0 -9 1 -2 0 -1M654 429l1 1 24 0M679 435l0 -5"/>
<path stroke="#FFA500" d="M679 435l1 0M680 437l0 -2 26 0 0 -3 3 0 1 1 15 0 0 -1M725 433l6 0 0 -4 1 0M732 430l0 -1M732 430l26 0 1 1M759 433l0 -2M759 432l26 0 0 -1 1 -1M786 431l0 -1M786 431l27 0M813 432l0 -1 104 0M917 432l0 -1M917 432l1 0M918 433l0 -13"/>
<path stroke="#FFA500" d="M918 421l1 0M919 422l0 -1M919 422l55 0"/>
<path stroke="green" d="M50 39l46 0"/>
<text stroke="none" fill="white" font-size="16" x="106" y="48">
x1.sw_sample-2
</text>
<path stroke="green" d="M50 613l1 0 1 -9 0 -21 1 -21M53 582l0 -26M53 582l1 28M54 613l0 -3M54 613l63 0M117 620l0 -172M117 449l422 0M539 614l0 -171M539 613l422 0M961 618l0 -170 1 1 12 0"/>
<path stroke="#FFC0C5" d="M462 55l46 0"/>
<text stroke="none" fill="white" font-size="16" x="518" y="64">
x1.comp_out_p+2
</text>
<path stroke="#FFC0C5" d="M50 249l1 0 1 -9 0 -22 1 -18 0 -4M53 198l1 5M54 249l0 -46M54 249l488 0M542 250l0 -166M542 85l13 0M555 250l0 -172M555 249l66 0M621 250l0 -167M621 85l13 0M634 249l0 -173M634 249l40 0 0 -166M674 85l13 0M687 249l0 -172M687 249l66 0"/>
<path stroke="#FFC0C5" d="M753 249l0 -165 1 1 12 0M766 250l0 -170M766 249l41 0 0 -149 1 -15 0 -1M808 85l11 0M819 249l0 -169M819 249l41 0 0 -165 1 1 11 0M872 249l0 -173M872 249l14 0 0 -157 1 -8M887 85l0 -1M887 85l11 0M898 249l0 -173M898 249l15 0"/>
<path stroke="#FFC0C5" d="M913 249l0 -165M913 85l12 0M925 250l0 -170M925 249l13 0 0 -166M938 85l13 0M951 250l0 -173M951 249l23 0"/>
<path stroke="#A52A2A" d="M50 55l46 0"/>
<text stroke="none" fill="white" font-size="16" x="106" y="64">
x1.comp_out_n-2
</text>
<path stroke="#A52A2A" d="M50 613l1 0 1 -9 0 -22 1 -19M53 564l0 -3M53 564l1 6M54 613l0 -43M54 613l488 0M542 614l0 -1 26 0 0 -165M568 449l13 0 0 -8 1 154M582 613l0 -18M582 613l12 0 0 -165 1 1 13 0M608 613l0 -173M608 613l39 0 0 -165M647 449l14 0"/>
<path stroke="#A52A2A" d="M661 614l0 -173M661 613l39 0 0 -166M700 449l13 0 0 -9 1 165M714 613l0 -8M714 613l13 0 0 -165M727 449l13 0M740 613l0 -173M740 613l40 0 0 -165M780 449l13 0M793 613l0 -172M793 613l41 0 0 -165M834 449l11 0M845 450l0 -3M845 450l1 152"/>
<path stroke="#A52A2A" d="M846 613l0 -11M846 613l128 0"/>
</svg>
