<?xml version="1.0" standalone="yes"?>
<!DOCTYPE svg PUBLIC "-//W3C//DTD SVG 1.1//EN"
 "http://www.w3.org/Graphics/SVG/1.1/DTD/svg11.dtd">
<svg xmlns="http://www.w3.org/2000/svg" version="1.1"
  width="100%" height="100%" viewBox="0 0 1024 768"
  style="fill: none; font-family: Helvetica;
 font: Helvetica;
">

<!-- Creator: NGspice -->

<rect x="0" y="0" width="1024" height="768" fill="black" stroke="none"/>
<text stroke="none" fill="white" font-size="16" x="358" y="752">
time
</text>
<text stroke="none" fill="white" font-size="16" x="10" y="16">
tran1: run1542_vin0.455711
</text>
<path stroke="white" d="M50 704l0 -637"/>
<text stroke="none" fill="white" font-size="16" x="35" y="728">
0.0
</text>
<path stroke="white" stroke-dasharray="1,2" d="M182 704l0 -637"/>
<text stroke="none" fill="white" font-size="16" x="157" y="728">
100.0
</text>
<path stroke="white" stroke-dasharray="1,2" d="M314 704l0 -637"/>
<text stroke="none" fill="white" font-size="16" x="289" y="728">
200.0
</text>
<path stroke="white" stroke-dasharray="1,2" d="M446 704l0 -637"/>
<text stroke="none" fill="white" font-size="16" x="421" y="728">
300.0
</text>
<path stroke="white" stroke-dasharray="1,2" d="M578 704l0 -637"/>
<text stroke="none" fill="white" font-size="16" x="553" y="728">
400.0
</text>
<path stroke="white" stroke-dasharray="1,2" d="M710 704l0 -637"/>
<text stroke="none" fill="white" font-size="16" x="685" y="728">
500.0
</text>
<path stroke="white" stroke-dasharray="1,2" d="M842 704l0 -637"/>
<text stroke="none" fill="white" font-size="16" x="817" y="728">
600.0
</text>
<path stroke="white" stroke-dasharray="1,2" d="M974 704l0 -637"/>
<text stroke="none" fill="white" font-size="16" x="949" y="728">
700.0
</text>
<text stroke="none" fill="white" font-size="16" x="614" y="752">
ns
</text>
<path stroke="white" stroke-dasharray="1,2" d="M50 704l924 0"/>
<text stroke="none" fill="white" font-size="16" x="8" y="712">
-3.0
</text>
<path stroke="white" stroke-dasharray="1,2" d="M50 613l924 0"/>
<text stroke="none" fill="white" font-size="16" x="8" y="621">
-2.0
</text>
<path stroke="white" stroke-dasharray="1,2" d="M50 522l924 0"/>
<text stroke="none" fill="white" font-size="16" x="8" y="530">
-1.0
</text>
<path stroke="white" d="M50 431l924 0"/>
<text stroke="none" fill="white" font-size="16" x="18" y="439">
0.0
</text>
<path stroke="white" stroke-dasharray="1,2" d="M50 340l924 0"/>
<text stroke="none" fill="white" font-size="16" x="18" y="348">
1.0
</text>
<path stroke="white" stroke-dasharray="1,2" d="M50 249l924 0"/>
<text stroke="none" fill="white" font-size="16" x="18" y="257">
2.0
</text>
<path stroke="white" stroke-dasharray="1,2" d="M50 158l924 0"/>
<text stroke="none" fill="white" font-size="16" x="18" y="166">
3.0
</text>
<path stroke="white" stroke-dasharray="1,2" d="M50 67l924 0"/>
<text stroke="none" fill="white" font-size="16" x="18" y="75">
4.0
</text>
<text stroke="none" fill="white" font-size="16" x="10" y="32">
     
</text>
<path stroke="red" d="M462 23l46 0"/>
<text stroke="none" fill="white" font-size="16" x="518" y="32">
x1.vsampled_p
</text>
<path stroke="red" d="M50 431l1 0 1 -7 0 -15 1 -15 0 -4 1 1M54 414l0 -39 1 -5 0 -13 1 -3 0 -2 2 -2 1 0 1 -1 4 0M64 350l0 -1M64 350l4 0 1 -1 48 0 0 -1 1 -9 0 -19 1 -4 0 -5 2 -2 0 -1 419 0M540 309l0 -1 14 0 0 -1M554 308l13 0M567 309l0 -1 7 0M574 330l0 -22"/>
<path stroke="red" d="M574 330l1 7M575 346l0 -9M575 346l1 2M576 349l0 -1M576 349l4 0 0 -1M580 349l206 0M786 350l0 -1 18 0M804 350l0 -1 26 0 1 1 0 -1 87 0M918 350l0 -13 1 -2 0 -13 1 -4 0 -3 1 -3 0 -2 1 0 0 -1 1 -1 13 0M936 309l0 -1 14 0 0 -1M950 308l24 0"/>
<path stroke="blue" d="M50 23l46 0"/>
<text stroke="none" fill="white" font-size="16" x="106" y="32">
x1.vsampled_n
</text>
<path stroke="blue" d="M50 431l1 0 1 -7 0 -15 1 -14 0 -5 1 2M54 415l0 -40 1 -5 0 -13 1 -3 0 -2 2 -2 1 0 1 -1 4 0M64 350l0 -1M64 350l4 0 1 -1 48 0M117 358l0 -9M117 358l1 11M118 382l0 -13M118 382l1 3M119 388l0 -3M119 388l2 2 2 0M123 391l0 -1M123 391l423 0"/>
<path stroke="blue" d="M546 391l0 -26 1 -3 0 -24 1 -1 0 -5 1 -1 0 -1 2 0 0 -1 15 0 1 1 0 -1 26 0M593 330l0 -1 7 0M600 349l0 -20M600 349l1 3M601 356l0 -4M601 355l1 -2 0 -3 24 0 0 -13 1 -1 0 -5 1 0 1 1 4 0 0 -1M633 332l13 0M646 333l0 -1 7 0M653 344l0 -12"/>
<path stroke="blue" d="M653 344l1 1 0 -2 1 0 0 -1 17 0M672 343l0 -1 7 0M679 349l0 -7M679 349l1 1 0 -2 1 0 0 -1 18 0M699 348l0 -1 7 0M706 351l0 -4M706 351l1 -1 25 0 0 -4M732 347l1 0M733 348l0 -1M733 348l5 0 0 -1 1 0M739 348l0 -1M739 348l20 0M759 350l0 -2"/>
<path stroke="blue" d="M759 349l53 0M812 350l0 -1M812 350l1 0 0 -1 18 0M831 350l0 -1 26 0M857 350l0 -1 26 0M883 350l0 -1 27 0M910 350l0 -1 8 0M918 367l0 -18M918 367l1 3M919 389l0 -19M919 389l1 3M920 393l0 -1M920 393l1 -1 0 -1 41 0 0 -1M962 391l12 0"/>
<path stroke="#FFA500" d="M462 39l46 0"/>
<text stroke="none" fill="white" font-size="16" x="518" y="48">
x1.vsampled_p-x1.vsampled_n
</text>
<path stroke="#FFA500" d="M50 431l2 0 1 -1 1 0M54 431l0 -1M54 431l63 0 0 -9 1 -21 0 -32 1 -7 0 -8 1 -3 1 -1 0 -1 1 -1 418 0M540 349l0 -1 6 0M546 374l0 -26M546 374l1 3M547 401l0 -24M547 401l1 1M548 407l0 -5M548 407l1 1M549 409l0 -1M549 409l5 0"/>
<path stroke="#FFA500" d="M554 410l0 -1 12 0 1 1 0 -1 7 0M574 432l0 -23M574 432l1 7M575 448l0 -9M575 448l1 1M576 450l0 -1M576 450l4 0M580 451l0 -1 20 0 0 -19 1 -3 0 -4M601 425l1 2M602 429l0 -2M602 429l1 1 23 0M626 443l0 -13M626 443l1 1M627 449l0 -5"/>
<path stroke="#FFA500" d="M627 449l1 0 0 -1 18 0 0 -1M646 448l7 0 0 -13 1 0M654 437l0 -2M654 437l2 0M656 438l0 -1M656 438l16 0 0 -1 1 0M673 438l0 -1M673 438l6 0 0 -7 1 -1M680 432l0 -3M680 432l6 0M686 433l0 -1 20 0 0 -3 1 0M707 430l0 -1M707 430l25 0"/>
<path stroke="#FFA500" d="M732 434l0 -4M732 433l1 0 0 -1 26 0 0 -3M759 430l1 1 26 0M786 432l0 -1M786 432l18 0 0 -1M804 432l1 0 0 -1 1 0M806 432l0 -1M806 432l6 0 0 -2M812 431l106 0M918 432l0 -31 1 -4 0 -33 1 -7 0 -4 1 -2 0 -2 2 0 0 -1 13 0M936 349l0 -1"/>
<path stroke="#FFA500" d="M936 348l38 0"/>
<path stroke="green" d="M50 39l46 0"/>
<text stroke="none" fill="white" font-size="16" x="106" y="48">
x1.sw_sample-2
</text>
<path stroke="green" d="M50 613l1 0 1 -9 0 -21 1 -21M53 580l0 -24M53 580l1 30M54 613l0 -3M54 613l63 0M117 620l0 -172M117 449l422 0M539 614l0 -171M539 613l422 0M961 618l0 -170 1 1 12 0"/>
<path stroke="#FFC0C5" d="M462 55l46 0"/>
<text stroke="none" fill="white" font-size="16" x="518" y="64">
x1.comp_out_p+2
</text>
<path stroke="#FFC0C5" d="M50 249l1 0 1 -9 0 -22 1 -18 0 -4M53 198l1 5M54 249l0 -46M54 249l487 0 1 1 0 -166M542 85l13 0M555 249l0 -172M555 249l13 0M568 251l0 -168M568 85l13 0 0 -8 1 156M582 249l0 -16M582 249l40 0 0 -165M622 85l12 0M634 249l0 -172"/>
<path stroke="#FFC0C5" d="M634 249l93 0 0 -156 1 -9M728 85l0 -1M728 85l12 0M740 249l0 -172M740 249l40 0 0 -155 1 -10M781 85l0 -1M781 85l12 0M793 249l0 -171M793 249l67 0 0 -165M860 85l12 0M872 249l0 -174M872 249l14 0 0 -157 1 -8M887 85l0 -1M887 85l11 0"/>
<path stroke="#FFC0C5" d="M898 249l0 -174M898 249l15 0 0 -165M913 85l12 0M925 250l0 -172M925 249l12 0 1 -53 0 -112M938 85l13 0M951 250l0 -170M951 249l23 0"/>
<path stroke="#A52A2A" d="M50 55l46 0"/>
<text stroke="none" fill="white" font-size="16" x="106" y="64">
x1.comp_out_n-2
</text>
<path stroke="#A52A2A" d="M50 613l1 0 1 -9 0 -22 1 -19M53 564l0 -3M53 564l1 6M54 613l0 -43M54 612l1 1 539 0M594 616l0 -169M594 449l14 0M608 613l0 -172M608 613l39 0M647 614l0 -166M647 449l14 0M661 613l0 -173M661 613l12 0 0 -66 1 -88 0 -11M674 449l13 0"/>
<path stroke="#A52A2A" d="M687 613l0 -171M687 613l13 0 0 -165M700 449l13 0 0 -8 1 156M714 613l0 -16M714 613l39 0 0 -165M753 449l13 0M766 613l0 -173M766 613l41 0 0 -165M807 449l12 0M819 613l0 -174M819 613l15 0 0 -165M834 449l11 0 0 -2 1 155M846 613l0 -11"/>
<path stroke="#A52A2A" d="M846 613l128 0"/>
</svg>
