<?xml version="1.0" standalone="yes"?>
<!DOCTYPE svg PUBLIC "-//W3C//DTD SVG 1.1//EN"
 "http://www.w3.org/Graphics/SVG/1.1/DTD/svg11.dtd">
<svg xmlns="http://www.w3.org/2000/svg" version="1.1"
  width="100%" height="100%" viewBox="0 0 1024 768"
  style="fill: none; font-family: Helvetica;
 font: Helvetica;
">

<!-- Creator: NGspice -->

<rect x="0" y="0" width="1024" height="768" fill="black" stroke="none"/>
<text stroke="none" fill="white" font-size="16" x="358" y="752">
time
</text>
<text stroke="none" fill="white" font-size="16" x="10" y="16">
tran1: run1537_vin0.451316
</text>
<path stroke="white" d="M50 704l0 -637"/>
<text stroke="none" fill="white" font-size="16" x="35" y="728">
0.0
</text>
<path stroke="white" stroke-dasharray="1,2" d="M182 704l0 -637"/>
<text stroke="none" fill="white" font-size="16" x="157" y="728">
100.0
</text>
<path stroke="white" stroke-dasharray="1,2" d="M314 704l0 -637"/>
<text stroke="none" fill="white" font-size="16" x="289" y="728">
200.0
</text>
<path stroke="white" stroke-dasharray="1,2" d="M446 704l0 -637"/>
<text stroke="none" fill="white" font-size="16" x="421" y="728">
300.0
</text>
<path stroke="white" stroke-dasharray="1,2" d="M578 704l0 -637"/>
<text stroke="none" fill="white" font-size="16" x="553" y="728">
400.0
</text>
<path stroke="white" stroke-dasharray="1,2" d="M710 704l0 -637"/>
<text stroke="none" fill="white" font-size="16" x="685" y="728">
500.0
</text>
<path stroke="white" stroke-dasharray="1,2" d="M842 704l0 -637"/>
<text stroke="none" fill="white" font-size="16" x="817" y="728">
600.0
</text>
<path stroke="white" stroke-dasharray="1,2" d="M974 704l0 -637"/>
<text stroke="none" fill="white" font-size="16" x="949" y="728">
700.0
</text>
<text stroke="none" fill="white" font-size="16" x="614" y="752">
ns
</text>
<path stroke="white" stroke-dasharray="1,2" d="M50 704l924 0"/>
<text stroke="none" fill="white" font-size="16" x="8" y="712">
-2.5
</text>
<path stroke="white" stroke-dasharray="1,2" d="M50 655l924 0"/>
<text stroke="none" fill="white" font-size="16" x="8" y="663">
-2.0
</text>
<path stroke="white" stroke-dasharray="1,2" d="M50 606l924 0"/>
<text stroke="none" fill="white" font-size="16" x="8" y="614">
-1.5
</text>
<path stroke="white" stroke-dasharray="1,2" d="M50 557l924 0"/>
<text stroke="none" fill="white" font-size="16" x="8" y="565">
-1.0
</text>
<path stroke="white" stroke-dasharray="1,2" d="M50 508l924 0"/>
<text stroke="none" fill="white" font-size="16" x="8" y="516">
-0.5
</text>
<path stroke="white" d="M50 459l924 0"/>
<text stroke="none" fill="white" font-size="16" x="18" y="467">
0.0
</text>
<path stroke="white" stroke-dasharray="1,2" d="M50 410l924 0"/>
<text stroke="none" fill="white" font-size="16" x="18" y="418">
0.5
</text>
<path stroke="white" stroke-dasharray="1,2" d="M50 361l924 0"/>
<text stroke="none" fill="white" font-size="16" x="18" y="369">
1.0
</text>
<path stroke="white" stroke-dasharray="1,2" d="M50 312l924 0"/>
<text stroke="none" fill="white" font-size="16" x="18" y="320">
1.5
</text>
<path stroke="white" stroke-dasharray="1,2" d="M50 263l924 0"/>
<text stroke="none" fill="white" font-size="16" x="18" y="271">
2.0
</text>
<path stroke="white" stroke-dasharray="1,2" d="M50 214l924 0"/>
<text stroke="none" fill="white" font-size="16" x="18" y="222">
2.5
</text>
<path stroke="white" stroke-dasharray="1,2" d="M50 165l924 0"/>
<text stroke="none" fill="white" font-size="16" x="18" y="173">
3.0
</text>
<path stroke="white" stroke-dasharray="1,2" d="M50 116l924 0"/>
<text stroke="none" fill="white" font-size="16" x="18" y="124">
3.5
</text>
<path stroke="white" stroke-dasharray="1,2" d="M50 67l924 0"/>
<text stroke="none" fill="white" font-size="16" x="18" y="75">
4.0
</text>
<text stroke="none" fill="white" font-size="16" x="10" y="32">
     
</text>
<path stroke="red" d="M462 23l46 0"/>
<text stroke="none" fill="white" font-size="16" x="518" y="32">
x1.vsampled_p
</text>
<path stroke="red" d="M50 459l1 0 1 -7 0 -17 1 -16 0 -5 1 2M54 441l0 -43 1 -5 0 -14 1 -3 0 -2 1 -2 1 0 0 -1 59 0 0 -1 1 -10 0 -20 1 -4 0 -6 2 -2 0 -1 419 0M540 328l0 -1 14 0 0 -1M554 327l13 0M567 328l0 -1 7 0M574 351l0 -24M574 351l1 7M575 370l0 -12"/>
<path stroke="red" d="M575 370l1 0M576 371l0 -1M576 371l342 0 0 -9 1 -1 0 -16 1 -6 0 -4 1 -3 0 -3 1 0 0 -1 1 0 0 -1 13 0M936 328l0 -1 14 0 0 -1M950 327l12 0 1 -1M963 327l0 -1M963 327l11 0"/>
<path stroke="blue" d="M50 23l46 0"/>
<text stroke="none" fill="white" font-size="16" x="106" y="32">
x1.vsampled_n
</text>
<path stroke="blue" d="M50 459l1 0 1 -7 0 -17 1 -15 0 -5 1 2M54 441l0 -43 1 -5 0 -14 1 -3 0 -2 1 -2 1 0 0 -1 59 0M117 380l0 -9M117 380l1 12M118 406l0 -14M118 406l1 3M119 412l0 -3M119 412l1 2 1 0M121 415l0 -1M121 415l425 0 0 -26 1 -4 0 -26 1 -1"/>
<path stroke="blue" d="M548 358l0 -6 1 -1 0 -1 1 -1 4 0 0 -1M554 349l13 0M567 350l0 -1 26 0M593 350l0 -1 7 0M600 370l0 -21M600 370l1 3M601 378l0 -5M601 374l1 -1 0 -1 1 -1 16 0M619 372l0 -1 8 0 0 -15 1 -1 0 -4 1 0 1 1 3 0 0 -1M633 352l13 0M646 353l0 -1"/>
<path stroke="blue" d="M646 352l7 0M653 365l0 -13M653 365l1 1 0 -2 1 -1 17 0M672 364l0 -1 7 0M679 370l0 -7M679 370l1 1M680 372l0 -3 1 0 1 -1 16 0 1 1 0 -1 7 0M706 373l0 -5M706 372l1 0 0 -1 18 0M725 372l0 -1 8 0 0 -4M733 368l1 0M734 369l0 -1M734 369l4 0"/>
<path stroke="blue" d="M738 369l0 -1M738 369l21 0M759 372l0 -3M759 370l19 0M778 371l0 -1 7 0M785 371l0 -1M785 371l1 0M786 372l0 -1 28 0M814 372l0 -1 17 0M831 372l0 -1 7 0 0 -1 1 1 79 0M918 383l0 -12M918 383l1 2M919 410l0 -25M919 410l1 6M920 417l0 -1"/>
<path stroke="blue" d="M920 417l1 0 0 -1 1 0 0 -1 52 0"/>
<path stroke="#FFA500" d="M462 39l46 0"/>
<text stroke="none" fill="white" font-size="16" x="518" y="48">
x1.vsampled_p-x1.vsampled_n
</text>
<path stroke="#FFA500" d="M50 459l2 0 1 -1 1 0M54 459l0 -1M54 459l63 0 0 -10 1 -22 0 -34 1 -7 0 -9 1 -3 1 -2 0 -1 425 0M546 397l0 -26M546 397l1 4M547 427l0 -26M547 427l1 1M548 434l0 -6M548 434l1 1M549 436l0 -1M549 436l1 0 1 1 16 0 0 -1M567 437l7 0"/>
<path stroke="#FFA500" d="M574 461l0 -24M574 461l1 7M575 479l0 -11M575 479l1 1M576 481l0 -1M576 481l17 0 0 -1M593 481l7 0 0 -21 1 -3 0 -5M601 456l1 1M602 458l0 -1M602 458l1 1 24 0M627 474l0 -15M627 474l1 1M628 479l0 -4M628 479l1 0 0 -1 17 0 0 -1"/>
<path stroke="#FFA500" d="M646 478l7 0 0 -13 1 -1M654 466l0 -2M654 466l1 0M655 467l0 -1M655 467l24 0 0 -7 1 -1M680 461l0 -3M680 461l6 0M686 462l0 -1 20 0 0 -4M706 458l1 0M707 459l0 -1M707 459l26 0M733 463l0 -4M733 462l1 -1 25 0 0 -3M759 460l26 0"/>
<path stroke="#FFA500" d="M785 460l0 -1 1 0 0 -1M786 459l28 0 0 -1M814 459l104 0 0 -21 1 -3 0 -42 1 -11 0 -5 1 -3 0 -2 1 0 0 -1 1 0 0 -1M923 371l13 0M936 372l0 -1 14 0 0 -1M950 371l24 0"/>
<path stroke="green" d="M50 39l46 0"/>
<text stroke="none" fill="white" font-size="16" x="106" y="48">
x1.sw_sample-2
</text>
<path stroke="green" d="M50 655l1 0 1 -10 0 -23 1 -21M53 620l0 -26M53 620l1 32M54 655l0 -3M54 655l63 0M117 662l0 -184 1 0M118 479l0 -1M118 479l421 0M539 656l0 -184M539 655l422 0M961 660l0 -182 1 0M962 479l0 -1M962 479l12 0"/>
<path stroke="#FFC0C5" d="M462 55l46 0"/>
<text stroke="none" fill="white" font-size="16" x="518" y="64">
x1.comp_out_p+2
</text>
<path stroke="#FFC0C5" d="M50 263l1 0 1 -10 0 -23 1 -20 0 -4M53 209l1 4M54 263l0 -50M54 263l488 0 0 -178M542 87l13 0M555 263l0 -185M555 263l13 0 0 -178M568 87l13 0 0 -9 1 163M582 263l0 -22M582 263l40 0 1 -161 0 -16M623 87l11 0M634 264l0 -184"/>
<path stroke="#FFC0C5" d="M634 264l1 -1 93 0 0 -177 1 0M729 87l0 -1M729 87l11 0M740 264l0 -185M740 263l94 0 0 -177M834 87l11 0 0 -9 1 158M846 263l0 -27M846 263l15 0 0 -177M861 87l11 0M872 263l0 -185M872 263l15 0 0 -162 1 -15M888 87l0 -1M888 87l10 0"/>
<path stroke="#FFC0C5" d="M898 263l0 -186M898 263l39 0 1 -56 0 -122M938 87l13 0M951 264l0 -183M951 263l23 0"/>
<path stroke="#A52A2A" d="M50 55l46 0"/>
<text stroke="none" fill="white" font-size="16" x="106" y="64">
x1.comp_out_n-2
</text>
<path stroke="#A52A2A" d="M50 655l1 0 1 -10 0 -24 1 -20M53 602l0 -3M53 602l1 7M54 655l0 -46M54 654l1 1 539 0M594 656l0 -179M594 478l1 1 13 0M608 655l0 -184M608 655l39 0M647 656l0 -179M647 479l14 0M661 655l0 -185M661 655l12 0M673 659l0 -4M673 659l1 -131"/>
<path stroke="#A52A2A" d="M674 528l0 -52M674 479l13 0M687 656l0 -186M687 655l13 0 0 -178M700 479l13 0 0 -8 1 170M714 655l0 -14M714 655l39 0 0 -178M753 479l13 0M766 655l0 -186M766 655l14 0 0 -177 1 1 12 0M793 655l0 -187M793 655l15 0 0 -160 1 -17"/>
<path stroke="#A52A2A" d="M809 479l0 -1M809 479l10 0M819 655l0 -186M819 655l94 0 0 -177 1 1 11 0M925 656l0 -184M925 655l13 0M938 656l0 -1 36 0"/>
</svg>
