<?xml version="1.0" standalone="yes"?>
<!DOCTYPE svg PUBLIC "-//W3C//DTD SVG 1.1//EN"
 "http://www.w3.org/Graphics/SVG/1.1/DTD/svg11.dtd">
<svg xmlns="http://www.w3.org/2000/svg" version="1.1"
  width="100%" height="100%" viewBox="0 0 1024 768"
  style="fill: none; font-family: Helvetica;
 font: Helvetica;
">

<!-- Creator: NGspice -->

<rect x="0" y="0" width="1024" height="768" fill="black" stroke="none"/>
<text stroke="none" fill="white" font-size="16" x="358" y="752">
time
</text>
<text stroke="none" fill="white" font-size="16" x="10" y="16">
tran1: run108_vin-0.804639
</text>
<path stroke="white" d="M50 704l0 -637"/>
<text stroke="none" fill="white" font-size="16" x="35" y="728">
0.0
</text>
<path stroke="white" stroke-dasharray="1,2" d="M182 704l0 -637"/>
<text stroke="none" fill="white" font-size="16" x="157" y="728">
100.0
</text>
<path stroke="white" stroke-dasharray="1,2" d="M314 704l0 -637"/>
<text stroke="none" fill="white" font-size="16" x="289" y="728">
200.0
</text>
<path stroke="white" stroke-dasharray="1,2" d="M446 704l0 -637"/>
<text stroke="none" fill="white" font-size="16" x="421" y="728">
300.0
</text>
<path stroke="white" stroke-dasharray="1,2" d="M578 704l0 -637"/>
<text stroke="none" fill="white" font-size="16" x="553" y="728">
400.0
</text>
<path stroke="white" stroke-dasharray="1,2" d="M710 704l0 -637"/>
<text stroke="none" fill="white" font-size="16" x="685" y="728">
500.0
</text>
<path stroke="white" stroke-dasharray="1,2" d="M842 704l0 -637"/>
<text stroke="none" fill="white" font-size="16" x="817" y="728">
600.0
</text>
<path stroke="white" stroke-dasharray="1,2" d="M974 704l0 -637"/>
<text stroke="none" fill="white" font-size="16" x="949" y="728">
700.0
</text>
<text stroke="none" fill="white" font-size="16" x="614" y="752">
ns
</text>
<path stroke="white" stroke-dasharray="1,2" d="M50 704l924 0"/>
<text stroke="none" fill="white" font-size="16" x="8" y="712">
-3.0
</text>
<path stroke="white" stroke-dasharray="1,2" d="M50 613l924 0"/>
<text stroke="none" fill="white" font-size="16" x="8" y="621">
-2.0
</text>
<path stroke="white" stroke-dasharray="1,2" d="M50 522l924 0"/>
<text stroke="none" fill="white" font-size="16" x="8" y="530">
-1.0
</text>
<path stroke="white" d="M50 431l924 0"/>
<text stroke="none" fill="white" font-size="16" x="18" y="439">
0.0
</text>
<path stroke="white" stroke-dasharray="1,2" d="M50 340l924 0"/>
<text stroke="none" fill="white" font-size="16" x="18" y="348">
1.0
</text>
<path stroke="white" stroke-dasharray="1,2" d="M50 249l924 0"/>
<text stroke="none" fill="white" font-size="16" x="18" y="257">
2.0
</text>
<path stroke="white" stroke-dasharray="1,2" d="M50 158l924 0"/>
<text stroke="none" fill="white" font-size="16" x="18" y="166">
3.0
</text>
<path stroke="white" stroke-dasharray="1,2" d="M50 67l924 0"/>
<text stroke="none" fill="white" font-size="16" x="18" y="75">
4.0
</text>
<text stroke="none" fill="white" font-size="16" x="10" y="32">
     
</text>
<path stroke="red" d="M462 23l46 0"/>
<text stroke="none" fill="white" font-size="16" x="518" y="32">
x1.vsampled_p
</text>
<path stroke="red" d="M50 431l1 0 1 -7 0 -15 1 -14 0 -5 1 2M54 414l0 -39 1 -4 0 -13 1 -3 0 -3 1 -1 0 -1 2 0 1 -1 3 0 1 1 3 0 1 -1 49 0M117 371l0 -22M117 371l1 17M118 409l0 -21M118 409l1 3M119 418l0 -6M119 418l1 1M120 420l0 -1M120 420l1 1M121 422l0 -1"/>
<path stroke="red" d="M121 422l419 0M540 423l0 -1 6 0 0 -21 1 -2 0 -25 1 -7 0 -4 2 -2 17 0M567 362l0 -1 58 0 0 -12 1 -2 0 -5 1 0M627 343l0 -1M627 343l19 0M646 344l0 -1 26 0M672 344l0 -1 7 0M679 350l0 -7M679 350l1 1M680 352l0 -3 1 -1 17 0 1 1"/>
<path stroke="red" d="M699 349l0 -1 26 0M725 349l0 -1 26 0M751 349l0 -1M751 349l1 0 0 -1 26 0M778 349l0 -1 7 0M785 350l0 -2M785 350l1 0 0 -1 26 0M812 350l0 -1M812 350l1 0 0 -1 17 0 1 1 0 -1 7 0 1 -1M839 349l0 -1M839 349l78 0 1 1M918 434l0 -85"/>
<path stroke="red" d="M918 433l1 -1 0 -5 1 -1 0 -2 1 -1 2 0 0 -1 13 0M936 423l0 -1 38 0"/>
<path stroke="blue" d="M50 23l46 0"/>
<text stroke="none" fill="white" font-size="16" x="106" y="32">
x1.vsampled_n
</text>
<path stroke="blue" d="M50 431l1 0 1 -7 0 -16 1 -14 0 -5 1 2M54 414l0 -39 1 -4 0 -13 1 -3 0 -3 1 -1 0 -1 2 0 1 -1 3 0 1 1 4 0 1 -1 48 0 0 -1 1 -12 0 -35 1 -6 0 -10 1 -3 0 -3 1 -1 0 -1 1 -1 418 0M540 277l0 -1 27 0M567 278l0 -2 7 0M574 302l0 -26"/>
<path stroke="blue" d="M574 302l1 10 1 5 17 0M593 318l0 -1 7 0M600 331l0 -14M600 331l1 4M601 338l0 -3M601 338l1 0 0 -1 1 0 1 1 2 0 0 -1 13 0M619 338l0 -1M619 338l1 0 0 -1M620 338l13 0 0 -1 13 0M646 338l0 -1M646 338l7 0M653 347l0 -9M653 347l1 1"/>
<path stroke="blue" d="M654 348l5 0 0 -1M659 348l47 0M706 351l0 -3M706 351l1 0 0 -1 18 0M725 351l0 -1 6 0 0 -2 28 0M759 350l0 -2M759 349l19 0M778 350l0 -1 26 0M804 350l0 -1 27 0M831 350l0 -1 26 0M857 350l0 -1 26 0M883 350l0 -1 27 0M910 350l0 -1"/>
<path stroke="blue" d="M910 349l8 0M918 350l0 -55 1 -4 0 -8 1 -2 0 -3 1 -1 1 0 0 -1 14 0M936 278l0 -2 38 0"/>
<path stroke="#FFA500" d="M462 39l46 0"/>
<text stroke="none" fill="white" font-size="16" x="518" y="48">
x1.vsampled_p-x1.vsampled_n
</text>
<path stroke="#FFA500" d="M50 431l2 0M52 432l0 -1M52 432l2 0 0 -1 63 0M117 454l0 -23M117 454l1 29M118 539l0 -56M118 539l1 9M119 564l0 -16M119 564l1 5M120 572l0 -3M120 572l1 2M121 576l0 -2M121 576l1 1 418 0 0 -1M540 577l6 0 0 -21 1 -2 0 -25 1 -7"/>
<path stroke="#FFA500" d="M548 522l0 -4 2 -2 17 0 0 -1M567 516l7 0 0 -26 1 -10 1 -4 0 -1 17 0 0 -1M593 475l7 0 0 -14 1 -4 0 -3 1 0M602 455l0 -1M602 455l17 0 0 -1M619 455l1 0 0 -1M620 455l5 0 0 -13 1 -1 0 -5 2 0M628 437l0 -1M628 437l5 0 0 -1M633 437l20 0"/>
<path stroke="#FFA500" d="M653 437l0 -10 1 -1 1 1 4 0 0 -1M659 427l20 0M679 434l0 -7M679 434l1 0M680 435l0 -3 26 0 0 -3 25 0M731 431l0 -2M731 431l1 1 0 -1 19 0M751 432l0 -1M751 432l1 -1 7 0 0 -2M759 430l26 0M785 431l0 -1M785 431l1 1 0 -1 26 0"/>
<path stroke="#FFA500" d="M812 431l1 1 0 -1 25 0 0 -1 1 0M839 431l0 -1M839 431l78 0 1 1M918 569l0 -139M918 569l1 2M919 575l0 -4M919 575l1 1M920 577l0 -1M920 577l3 0M923 578l0 -1 13 0 0 -1M936 577l14 0M950 578l0 -1 24 0"/>
<path stroke="green" d="M50 39l46 0"/>
<text stroke="none" fill="white" font-size="16" x="106" y="48">
x1.sw_sample-2
</text>
<path stroke="green" d="M50 613l1 0 1 -9 0 -21 1 -21M53 579l0 -23M53 579l1 31M54 613l0 -3M54 613l63 0M117 620l0 -172M117 449l422 0M539 614l0 -171M539 613l422 0M961 618l0 -170 1 1 12 0"/>
<path stroke="#FFC0C5" d="M462 55l46 0"/>
<text stroke="none" fill="white" font-size="16" x="518" y="64">
x1.comp_out_p+2
</text>
<path stroke="#FFC0C5" d="M50 249l1 0 1 -9 0 -22 1 -18 0 -4M53 198l1 5M54 250l0 -47M54 246l1 3 618 0M673 250l0 -1M673 250l1 -33 0 -134M674 85l13 0M687 249l0 -172M687 249l40 0 0 -165M727 85l13 0M740 249l0 -172M740 249l40 0 0 -165M780 85l13 0M793 249l0 -174"/>
<path stroke="#FFC0C5" d="M793 249l14 0 0 -165M807 85l12 0M819 249l0 -171M819 249l40 0 1 -157 0 -8M860 85l12 0M872 249l0 -174M872 249l14 0 0 -164 1 -1M887 85l0 -1M887 85l11 0M898 249l0 -174M898 249l15 0 0 -165M913 85l12 0M925 249l0 -167M925 249l49 0"/>
<path stroke="#A52A2A" d="M50 55l46 0"/>
<text stroke="none" fill="white" font-size="16" x="106" y="64">
x1.comp_out_n-2
</text>
<path stroke="#A52A2A" d="M50 613l1 0 1 -9 0 -22 1 -19M53 564l0 -3M53 564l1 6M54 613l0 -43M54 613l488 0 0 -165M542 449l13 0M555 613l0 -174M555 613l13 0M568 619l0 -172M568 449l13 0 0 -3 1 86M582 614l0 -82M582 613l12 0M594 615l0 -168M594 449l14 0"/>
<path stroke="#A52A2A" d="M608 614l0 -166M608 613l13 0 0 -166M621 449l13 0M634 613l0 -173M634 613l13 0M647 620l0 -173M647 449l14 0M661 614l0 -172M661 613l39 0 0 -160 1 -5M701 449l0 -1M701 449l12 0 0 -9 1 162M714 613l0 -11M714 613l39 0 0 -163"/>
<path stroke="#A52A2A" d="M753 450l1 -2M754 449l0 -1M754 449l12 0M766 613l0 -172M766 613l68 0 0 -164 11 0 0 -5 1 79M846 614l0 -91M846 613l91 0M937 614l0 -1M937 614l1 -100 0 -67M938 449l13 0M951 613l0 -172M951 613l23 0"/>
</svg>
