<?xml version="1.0" standalone="yes"?>
<!DOCTYPE svg PUBLIC "-//W3C//DTD SVG 1.1//EN"
 "http://www.w3.org/Graphics/SVG/1.1/DTD/svg11.dtd">
<svg xmlns="http://www.w3.org/2000/svg" version="1.1"
  width="100%" height="100%" viewBox="0 0 1024 768"
  style="fill: none; font-family: Helvetica;
 font: Helvetica;
">

<!-- Creator: NGspice -->

<rect x="0" y="0" width="1024" height="768" fill="black" stroke="none"/>
<text stroke="none" fill="white" font-size="16" x="358" y="752">
time
</text>
<text stroke="none" fill="white" font-size="16" x="10" y="16">
tran1: run111_vin-0.802002
</text>
<path stroke="white" d="M50 704l0 -637"/>
<text stroke="none" fill="white" font-size="16" x="35" y="728">
0.0
</text>
<path stroke="white" stroke-dasharray="1,2" d="M182 704l0 -637"/>
<text stroke="none" fill="white" font-size="16" x="157" y="728">
100.0
</text>
<path stroke="white" stroke-dasharray="1,2" d="M314 704l0 -637"/>
<text stroke="none" fill="white" font-size="16" x="289" y="728">
200.0
</text>
<path stroke="white" stroke-dasharray="1,2" d="M446 704l0 -637"/>
<text stroke="none" fill="white" font-size="16" x="421" y="728">
300.0
</text>
<path stroke="white" stroke-dasharray="1,2" d="M578 704l0 -637"/>
<text stroke="none" fill="white" font-size="16" x="553" y="728">
400.0
</text>
<path stroke="white" stroke-dasharray="1,2" d="M710 704l0 -637"/>
<text stroke="none" fill="white" font-size="16" x="685" y="728">
500.0
</text>
<path stroke="white" stroke-dasharray="1,2" d="M842 704l0 -637"/>
<text stroke="none" fill="white" font-size="16" x="817" y="728">
600.0
</text>
<path stroke="white" stroke-dasharray="1,2" d="M974 704l0 -637"/>
<text stroke="none" fill="white" font-size="16" x="949" y="728">
700.0
</text>
<text stroke="none" fill="white" font-size="16" x="614" y="752">
ns
</text>
<path stroke="white" stroke-dasharray="1,2" d="M50 704l924 0"/>
<text stroke="none" fill="white" font-size="16" x="8" y="712">
-3.0
</text>
<path stroke="white" stroke-dasharray="1,2" d="M50 613l924 0"/>
<text stroke="none" fill="white" font-size="16" x="8" y="621">
-2.0
</text>
<path stroke="white" stroke-dasharray="1,2" d="M50 522l924 0"/>
<text stroke="none" fill="white" font-size="16" x="8" y="530">
-1.0
</text>
<path stroke="white" d="M50 431l924 0"/>
<text stroke="none" fill="white" font-size="16" x="18" y="439">
0.0
</text>
<path stroke="white" stroke-dasharray="1,2" d="M50 340l924 0"/>
<text stroke="none" fill="white" font-size="16" x="18" y="348">
1.0
</text>
<path stroke="white" stroke-dasharray="1,2" d="M50 249l924 0"/>
<text stroke="none" fill="white" font-size="16" x="18" y="257">
2.0
</text>
<path stroke="white" stroke-dasharray="1,2" d="M50 158l924 0"/>
<text stroke="none" fill="white" font-size="16" x="18" y="166">
3.0
</text>
<path stroke="white" stroke-dasharray="1,2" d="M50 67l924 0"/>
<text stroke="none" fill="white" font-size="16" x="18" y="75">
4.0
</text>
<text stroke="none" fill="white" font-size="16" x="10" y="32">
     
</text>
<path stroke="red" d="M462 23l46 0"/>
<text stroke="none" fill="white" font-size="16" x="518" y="32">
x1.vsampled_p
</text>
<path stroke="red" d="M50 431l1 0 1 -7 0 -15 1 -14 0 -5 1 2M54 414l0 -38 1 -5 0 -13 1 -3 0 -3 1 -1 0 -1 2 0 1 -1 3 0 1 1 3 0 1 -1 49 0M117 371l0 -22M117 371l1 17M118 409l0 -21M118 409l1 3M119 417l0 -5M119 417l1 2M120 420l0 -1M120 420l2 2 424 0"/>
<path stroke="red" d="M546 422l0 -20 1 -3 0 -24 1 -7 0 -4 1 -2 1 -1 75 0 0 -15 1 -1 0 -3 1 0M627 343l0 -1M627 343l6 0 0 -1M633 343l13 0M646 344l0 -1 26 0M672 344l0 -1 7 0M679 349l0 -6M679 349l1 1M680 352l0 -3 1 -1 18 0M699 349l0 -1 26 0M725 349l0 -1"/>
<path stroke="red" d="M725 348l26 0M751 349l0 -1 8 0M759 351l0 -3M759 350l1 0 0 -1 18 0M778 350l0 -1 26 0M804 350l0 -1 26 0 1 1 0 -1 26 0M857 350l0 -1 26 0M883 350l0 -1 27 0M910 350l0 -1 8 0M918 418l0 -69M918 418l1 6M919 433l0 -9M919 429l1 -2"/>
<path stroke="red" d="M920 427l0 -3 1 0 0 -1 1 0 0 -1 52 0"/>
<path stroke="blue" d="M50 23l46 0"/>
<text stroke="none" fill="white" font-size="16" x="106" y="32">
x1.vsampled_n
</text>
<path stroke="blue" d="M50 431l1 0 1 -7 0 -16 1 -14 0 -5 1 2M54 414l0 -38 1 -5 0 -13 1 -3 0 -3 1 -1 0 -1 2 0 1 -1 3 0 1 1 4 0 1 -1 48 0 0 -1 1 -12 0 -34 1 -7 0 -10 1 -3 0 -2 1 -2 0 -1 1 0 1 -1 417 0M540 277l0 -1M540 277l1 0 0 -1M541 277l13 0"/>
<path stroke="blue" d="M554 277l0 -1 12 0 1 1M567 278l0 -1 6 0 1 -1M574 305l0 -29M574 305l1 9 1 3M576 318l0 -1M576 318l1 -1 16 0M593 318l0 -1 7 0M600 331l0 -14M600 331l1 4M601 339l0 -4M601 338l5 0 0 -1 1 0M607 338l0 -1M607 338l26 0 0 -1M633 338l20 0"/>
<path stroke="blue" d="M653 346l0 -8M653 346l1 2 52 0M706 351l0 -3M706 351l1 0 0 -1 18 0M725 351l0 -1 6 0 0 -1 1 -1 19 0M751 349l0 -1 27 0M778 349l0 -1 7 0M785 349l0 -1M785 349l27 0M812 350l0 -1 106 0 0 -32 1 -4 0 -27 1 -3 0 -4 1 -1 0 -1 2 0"/>
<path stroke="blue" d="M923 277l0 -1 13 0M936 278l0 -2M936 277l14 0 0 -1 24 0"/>
<path stroke="#FFA500" d="M462 39l46 0"/>
<text stroke="none" fill="white" font-size="16" x="518" y="48">
x1.vsampled_p-x1.vsampled_n
</text>
<path stroke="#FFA500" d="M50 431l2 0M52 432l0 -1M52 432l2 0 0 -1 63 0M117 454l0 -23M117 454l1 29M118 538l0 -55M118 538l1 9M119 564l0 -17M119 564l1 4M120 572l0 -4M120 572l1 2M121 575l0 -1M121 575l2 2 417 0 0 -1M540 577l1 0 0 -1M541 577l5 0 0 -21"/>
<path stroke="#FFA500" d="M546 556l1 -3 0 -23 1 -8 0 -4 1 -2 1 0 1 -1 3 0M554 516l0 -1M554 516l12 0 1 -1 0 -1M567 515l6 0 1 1 0 -29 1 -9 1 -3 0 -1 1 0 1 1 15 0 0 -1M593 475l7 0 0 -14 1 -4 0 -4M601 454l24 0 0 -14 1 -2 0 -3 1 0M627 436l0 -1M627 436l19 0"/>
<path stroke="#FFA500" d="M646 437l0 -1 7 0 0 -8 1 -2 25 0M679 432l0 -6M679 432l1 1M680 435l0 -3 1 -1 25 0 0 -3 1 0M707 429l0 -1M707 429l5 0 0 -1M712 429l19 0M731 430l0 -1M731 430l1 1 27 0M759 434l0 -3M759 432l26 0 1 -1M786 432l0 -1M786 432l5 0"/>
<path stroke="#FFA500" d="M791 432l0 -1 1 0M792 432l0 -1M792 432l12 0 0 -1 1 0M805 432l0 -1M805 432l7 0 0 -1 26 0 0 -1M838 431l80 0M918 532l0 -101M918 532l1 10M919 574l0 -32M919 574l1 1M920 576l0 -1M920 576l1 0M921 577l0 -1M921 577l15 0 0 -2"/>
<path stroke="#FFA500" d="M936 577l38 0"/>
<path stroke="green" d="M50 39l46 0"/>
<text stroke="none" fill="white" font-size="16" x="106" y="48">
x1.sw_sample-2
</text>
<path stroke="green" d="M50 613l1 0 1 -9 0 -21 1 -21M53 579l0 -23M53 579l1 31M54 613l0 -3M54 613l63 0M117 620l0 -172M117 449l422 0M539 614l0 -171M539 613l422 0M961 618l0 -170 1 1 12 0"/>
<path stroke="#FFC0C5" d="M462 55l46 0"/>
<text stroke="none" fill="white" font-size="16" x="518" y="64">
x1.comp_out_p+2
</text>
<path stroke="#FFC0C5" d="M50 249l1 0 1 -9 0 -22 1 -18 0 -4M53 198l1 5M54 249l0 -46M54 248l1 1 618 0M673 255l0 -6M673 255l1 -134 0 -38M674 85l13 0M687 249l0 -169M687 249l40 0M727 251l0 -167M727 85l13 0M740 249l0 -171M740 249l13 0 0 -138 1 -25"/>
<path stroke="#FFC0C5" d="M754 86l0 -2M754 85l12 0M766 250l0 -173M766 249l94 0 0 -164 12 0M872 250l0 -174M872 249l14 0 1 -146 0 -19M887 85l11 0M898 250l0 -174M898 249l15 0 0 -165M913 85l12 0M925 250l0 -170M925 249l49 0"/>
<path stroke="#A52A2A" d="M50 55l46 0"/>
<text stroke="none" fill="white" font-size="16" x="106" y="64">
x1.comp_out_n-2
</text>
<path stroke="#A52A2A" d="M50 613l1 0 1 -9 0 -22 1 -19M53 564l0 -3M53 564l1 6M54 613l0 -43M54 613l488 0 0 -165M542 449l13 0M555 613l0 -174M555 613l13 0M568 620l0 -173M568 449l13 0 0 -3 1 86M582 614l0 -82M582 613l12 0M594 614l0 -167M594 449l14 0"/>
<path stroke="#A52A2A" d="M608 614l0 -167M608 613l13 0 0 -166M621 449l13 0M634 613l0 -172M634 613l13 0M647 614l0 -167M647 449l14 0M661 614l0 -172M661 613l39 0 1 -148 0 -17M701 449l12 0 0 -8 1 155M714 613l0 -17M714 613l66 0 0 -165M780 449l13 0"/>
<path stroke="#A52A2A" d="M793 613l0 -172M793 613l14 0 0 -164 12 0M819 613l0 -168M819 613l15 0 0 -164 11 0 0 -10 1 153M846 613l0 -21M846 613l91 0M937 614l0 -1M937 614l1 -100 0 -67M938 449l13 0M951 613l0 -172M951 613l23 0"/>
</svg>
