<?xml version="1.0" standalone="yes"?>
<!DOCTYPE svg PUBLIC "-//W3C//DTD SVG 1.1//EN"
 "http://www.w3.org/Graphics/SVG/1.1/DTD/svg11.dtd">
<svg xmlns="http://www.w3.org/2000/svg" version="1.1"
  width="100%" height="100%" viewBox="0 0 1024 768"
  style="fill: none; font-family: Helvetica;
 font: Helvetica;
">

<!-- Creator: NGspice -->

<rect x="0" y="0" width="1024" height="768" fill="black" stroke="none"/>
<text stroke="none" fill="white" font-size="16" x="358" y="752">
time
</text>
<text stroke="none" fill="white" font-size="16" x="10" y="16">
tran1: run106_vin-0.806397
</text>
<path stroke="white" d="M50 704l0 -637"/>
<text stroke="none" fill="white" font-size="16" x="35" y="728">
0.0
</text>
<path stroke="white" stroke-dasharray="1,2" d="M182 704l0 -637"/>
<text stroke="none" fill="white" font-size="16" x="157" y="728">
100.0
</text>
<path stroke="white" stroke-dasharray="1,2" d="M314 704l0 -637"/>
<text stroke="none" fill="white" font-size="16" x="289" y="728">
200.0
</text>
<path stroke="white" stroke-dasharray="1,2" d="M446 704l0 -637"/>
<text stroke="none" fill="white" font-size="16" x="421" y="728">
300.0
</text>
<path stroke="white" stroke-dasharray="1,2" d="M578 704l0 -637"/>
<text stroke="none" fill="white" font-size="16" x="553" y="728">
400.0
</text>
<path stroke="white" stroke-dasharray="1,2" d="M710 704l0 -637"/>
<text stroke="none" fill="white" font-size="16" x="685" y="728">
500.0
</text>
<path stroke="white" stroke-dasharray="1,2" d="M842 704l0 -637"/>
<text stroke="none" fill="white" font-size="16" x="817" y="728">
600.0
</text>
<path stroke="white" stroke-dasharray="1,2" d="M974 704l0 -637"/>
<text stroke="none" fill="white" font-size="16" x="949" y="728">
700.0
</text>
<text stroke="none" fill="white" font-size="16" x="614" y="752">
ns
</text>
<path stroke="white" stroke-dasharray="1,2" d="M50 704l924 0"/>
<text stroke="none" fill="white" font-size="16" x="8" y="712">
-3.0
</text>
<path stroke="white" stroke-dasharray="1,2" d="M50 613l924 0"/>
<text stroke="none" fill="white" font-size="16" x="8" y="621">
-2.0
</text>
<path stroke="white" stroke-dasharray="1,2" d="M50 522l924 0"/>
<text stroke="none" fill="white" font-size="16" x="8" y="530">
-1.0
</text>
<path stroke="white" d="M50 431l924 0"/>
<text stroke="none" fill="white" font-size="16" x="18" y="439">
0.0
</text>
<path stroke="white" stroke-dasharray="1,2" d="M50 340l924 0"/>
<text stroke="none" fill="white" font-size="16" x="18" y="348">
1.0
</text>
<path stroke="white" stroke-dasharray="1,2" d="M50 249l924 0"/>
<text stroke="none" fill="white" font-size="16" x="18" y="257">
2.0
</text>
<path stroke="white" stroke-dasharray="1,2" d="M50 158l924 0"/>
<text stroke="none" fill="white" font-size="16" x="18" y="166">
3.0
</text>
<path stroke="white" stroke-dasharray="1,2" d="M50 67l924 0"/>
<text stroke="none" fill="white" font-size="16" x="18" y="75">
4.0
</text>
<text stroke="none" fill="white" font-size="16" x="10" y="32">
     
</text>
<path stroke="red" d="M462 23l46 0"/>
<text stroke="none" fill="white" font-size="16" x="518" y="32">
x1.vsampled_p
</text>
<path stroke="red" d="M50 431l1 0 1 -7 0 -15 1 -14 0 -5 1 2M54 414l0 -39 1 -4 0 -13 1 -3 0 -3 1 -1 0 -1 2 0 1 -1 3 0 1 1 3 0 1 -1 49 0M117 371l0 -22M117 371l1 17M118 409l0 -21M118 409l1 3M119 418l0 -6M119 418l1 1M120 421l0 -2M120 421l1 0M121 422l0 -1"/>
<path stroke="red" d="M121 422l418 0M539 423l0 -1M539 423l2 0 0 -1M541 423l5 0 0 -22 1 -2 0 -25 1 -7 0 -3 1 -2 1 0 0 -1 17 0M567 362l0 -1 26 0M593 362l0 -1 26 0M619 362l0 -1 6 0 0 -14 1 -1 0 -4 1 0M627 343l0 -1M627 343l19 0M646 344l0 -1 26 0"/>
<path stroke="red" d="M672 344l0 -1 7 0M679 351l0 -8M679 351l1 0M680 352l0 -3 6 0 0 -1 12 0 1 1 0 -1M699 349l13 0 0 -1 13 0M725 349l0 -1M725 349l13 0 0 -1 13 0M751 349l0 -1M751 349l1 0 0 -1M752 349l13 0 0 -1 13 0M778 349l0 -1M778 349l7 0M785 350l0 -1"/>
<path stroke="red" d="M785 350l1 0 0 -1 18 0M804 350l0 -1 10 0M814 350l0 -1M814 350l1 -1 15 0 1 1 0 -1 26 0M857 350l0 -1 26 0M883 350l0 -1 27 0M910 350l0 -1 8 0 1 1M919 434l0 -85M919 433l1 -1 0 -4 1 -2 0 -2 1 0 0 -1 28 0 0 -1M950 423l11 0 0 -1"/>
<path stroke="red" d="M961 422l13 0"/>
<path stroke="blue" d="M50 23l46 0"/>
<text stroke="none" fill="white" font-size="16" x="106" y="32">
x1.vsampled_n
</text>
<path stroke="blue" d="M50 431l1 0 1 -7 0 -16 1 -14 0 -5 1 2M54 414l0 -39 1 -4 0 -13 1 -3 0 -3 1 -1 0 -1 2 0 1 -1 3 0 1 1 4 0 1 -1 48 0 0 -1 1 -12 0 -35 1 -6 0 -10 1 -3 0 -3 1 -1 0 -1 1 -1 418 0M540 277l0 -1 14 0 0 -1M554 276l13 0M567 277l0 -1"/>
<path stroke="blue" d="M567 276l7 0M574 302l0 -26M574 302l1 10 1 4M576 317l0 -1M576 317l4 0 0 -1M580 317l13 0M593 318l0 -1 7 0M600 331l0 -14M600 331l1 4M601 338l0 -3M601 338l1 0 0 -1 17 0M619 338l0 -1 27 0M646 338l0 -1 7 0M653 345l0 -8M653 345l1 2"/>
<path stroke="blue" d="M654 348l0 -1M654 348l5 0 0 -1 13 0M672 348l0 -1 1 1 13 0 0 -1 12 0 1 1 0 -1M699 348l7 0M706 350l0 -2M706 350l1 1 0 -1 25 0 0 -3M732 348l27 0M759 350l0 -2M759 349l160 0 0 -54 1 -4 0 -8 1 -2 0 -3 1 0 0 -1 1 0 0 -1 13 0M936 278l0 -2"/>
<path stroke="blue" d="M936 276l14 0 0 -1M950 276l24 0"/>
<path stroke="#FFA500" d="M462 39l46 0"/>
<text stroke="none" fill="white" font-size="16" x="518" y="48">
x1.vsampled_p-x1.vsampled_n
</text>
<path stroke="#FFA500" d="M50 431l2 0M52 432l0 -1M52 432l2 0 0 -1 63 0M117 454l0 -23M117 454l1 29M118 539l0 -56M118 539l1 9M119 564l0 -16M119 564l1 5M120 572l0 -3M120 572l1 3M121 576l0 -1M121 576l1 1 1 0M123 578l0 -1M123 578l416 0 0 -1 1 1 0 -1"/>
<path stroke="#FFA500" d="M540 577l3 0M543 578l0 -1M543 578l3 0 0 -22 1 -2 0 -25 1 -7 0 -3 1 -2 1 0 0 -1 4 0M554 517l0 -1 13 0 0 -1M567 516l7 0 0 -26 1 -10 1 -4 0 -1 4 0M580 476l0 -1 20 0 0 -14 1 -4 0 -3 1 1 23 0 0 -14 1 -1 0 -4 1 0 1 1 18 0"/>
<path stroke="#FFA500" d="M646 438l0 -1 7 0 0 -8 1 -2 25 0M679 434l0 -7M679 434l1 1M680 436l0 -4 26 0 0 -3 19 0M725 430l0 -1 6 0 1 1M732 432l0 -2M732 432l27 0 0 -2 19 0M778 431l0 -1 7 0M785 431l0 -1M785 431l1 1 0 -1 28 0M814 432l0 -1 17 0M831 432l0 -1"/>
<path stroke="#FFA500" d="M831 431l7 0 0 -1M838 431l80 0 1 1M919 570l0 -140M919 570l1 2M920 576l0 -4M920 576l1 0M921 577l0 -1M921 577l2 0M923 578l0 -1M923 578l13 0 0 -2M936 577l3 0M939 578l0 -1M939 578l11 0 0 -1M950 578l24 0"/>
<path stroke="green" d="M50 39l46 0"/>
<text stroke="none" fill="white" font-size="16" x="106" y="48">
x1.sw_sample-2
</text>
<path stroke="green" d="M50 613l1 0 1 -9 0 -21 1 -21M53 579l0 -23M53 579l1 31M54 613l0 -3M54 613l63 0M117 620l0 -172M117 449l422 0M539 614l0 -171M539 613l422 0M961 618l0 -170 1 1 12 0"/>
<path stroke="#FFC0C5" d="M462 55l46 0"/>
<text stroke="none" fill="white" font-size="16" x="518" y="64">
x1.comp_out_p+2
</text>
<path stroke="#FFC0C5" d="M50 249l1 0 1 -9 0 -22 1 -18 0 -4M53 198l1 5M54 250l0 -47M54 246l1 3 618 0M673 250l0 -1M673 250l1 -69 0 -97M674 85l13 0M687 249l0 -172M687 249l40 0 0 -165M727 85l13 0M740 250l0 -166M740 249l40 0 0 -165M780 85l13 0M793 249l0 -172"/>
<path stroke="#FFC0C5" d="M793 249l15 0 0 -165M808 85l11 0M819 249l0 -173M819 249l41 0 1 -151 0 -14M861 85l11 0M872 249l0 -172M872 249l15 0 0 -165 1 1 10 0M898 249l0 -172M898 249l16 0 0 -165M914 85l11 0M925 249l0 -174M925 249l49 0"/>
<path stroke="#A52A2A" d="M50 55l46 0"/>
<text stroke="none" fill="white" font-size="16" x="106" y="64">
x1.comp_out_n-2
</text>
<path stroke="#A52A2A" d="M50 613l1 0 1 -9 0 -22 1 -19M53 564l0 -3M53 564l1 6M54 613l0 -43M54 613l488 0 0 -165M542 449l13 0M555 614l0 -174M555 613l13 0M568 615l0 -168M568 449l13 0 0 -3 1 84M582 614l0 -84M582 613l12 0M594 615l0 -168M594 449l14 0"/>
<path stroke="#A52A2A" d="M608 613l0 -173M608 613l13 0 0 -166M621 449l13 0M634 613l0 -171M634 613l13 0 0 -165M647 449l14 0M661 613l0 -167M661 613l13 0M674 614l0 -1 26 0 0 -165 1 0M701 449l0 -1M701 449l12 0 0 -9 1 164M714 613l0 -9M714 613l39 0"/>
<path stroke="#A52A2A" d="M753 613l0 -165M753 449l13 0M766 613l0 -172M766 613l67 0 1 -153 0 -12M834 449l11 0 0 -8 1 155M846 613l0 -17M846 613l91 0 1 -65 0 -100M938 449l13 0M951 613l0 -172M951 613l23 0"/>
</svg>
