<?xml version="1.0" standalone="yes"?>
<!DOCTYPE svg PUBLIC "-//W3C//DTD SVG 1.1//EN"
 "http://www.w3.org/Graphics/SVG/1.1/DTD/svg11.dtd">
<svg xmlns="http://www.w3.org/2000/svg" version="1.1"
  width="100%" height="100%" viewBox="0 0 1024 768"
  style="fill: none; font-family: Helvetica;
 font: Helvetica;
">

<!-- Creator: NGspice -->

<rect x="0" y="0" width="1024" height="768" fill="black" stroke="none"/>
<text stroke="none" fill="white" font-size="16" x="358" y="752">
time
</text>
<text stroke="none" fill="white" font-size="16" x="10" y="16">
tran1: run1308_vin0.250047
</text>
<path stroke="white" d="M50 704l0 -637"/>
<text stroke="none" fill="white" font-size="16" x="35" y="728">
0.0
</text>
<path stroke="white" stroke-dasharray="1,2" d="M182 704l0 -637"/>
<text stroke="none" fill="white" font-size="16" x="157" y="728">
100.0
</text>
<path stroke="white" stroke-dasharray="1,2" d="M314 704l0 -637"/>
<text stroke="none" fill="white" font-size="16" x="289" y="728">
200.0
</text>
<path stroke="white" stroke-dasharray="1,2" d="M446 704l0 -637"/>
<text stroke="none" fill="white" font-size="16" x="421" y="728">
300.0
</text>
<path stroke="white" stroke-dasharray="1,2" d="M578 704l0 -637"/>
<text stroke="none" fill="white" font-size="16" x="553" y="728">
400.0
</text>
<path stroke="white" stroke-dasharray="1,2" d="M710 704l0 -637"/>
<text stroke="none" fill="white" font-size="16" x="685" y="728">
500.0
</text>
<path stroke="white" stroke-dasharray="1,2" d="M842 704l0 -637"/>
<text stroke="none" fill="white" font-size="16" x="817" y="728">
600.0
</text>
<path stroke="white" stroke-dasharray="1,2" d="M974 704l0 -637"/>
<text stroke="none" fill="white" font-size="16" x="949" y="728">
700.0
</text>
<text stroke="none" fill="white" font-size="16" x="614" y="752">
ns
</text>
<path stroke="white" stroke-dasharray="1,2" d="M50 704l924 0"/>
<text stroke="none" fill="white" font-size="16" x="8" y="712">
-3.0
</text>
<path stroke="white" stroke-dasharray="1,2" d="M50 613l924 0"/>
<text stroke="none" fill="white" font-size="16" x="8" y="621">
-2.0
</text>
<path stroke="white" stroke-dasharray="1,2" d="M50 522l924 0"/>
<text stroke="none" fill="white" font-size="16" x="8" y="530">
-1.0
</text>
<path stroke="white" d="M50 431l924 0"/>
<text stroke="none" fill="white" font-size="16" x="18" y="439">
0.0
</text>
<path stroke="white" stroke-dasharray="1,2" d="M50 340l924 0"/>
<text stroke="none" fill="white" font-size="16" x="18" y="348">
1.0
</text>
<path stroke="white" stroke-dasharray="1,2" d="M50 249l924 0"/>
<text stroke="none" fill="white" font-size="16" x="18" y="257">
2.0
</text>
<path stroke="white" stroke-dasharray="1,2" d="M50 158l924 0"/>
<text stroke="none" fill="white" font-size="16" x="18" y="166">
3.0
</text>
<path stroke="white" stroke-dasharray="1,2" d="M50 67l924 0"/>
<text stroke="none" fill="white" font-size="16" x="18" y="75">
4.0
</text>
<text stroke="none" fill="white" font-size="16" x="10" y="32">
     
</text>
<path stroke="red" d="M462 23l46 0"/>
<text stroke="none" fill="white" font-size="16" x="518" y="32">
x1.vsampled_p
</text>
<path stroke="red" d="M50 431l1 0 1 -7 0 -15 1 -15 0 -4 1 1M54 415l0 -39 1 -5 0 -14 1 -3 0 -2 1 -2 2 0 1 -1 4 0M64 350l0 -1M64 350l4 0 1 -1 48 0 1 -7 0 -10 1 -3 1 -1 0 -1 1 0 1 -1 417 0M539 327l0 -1M539 327l15 0 0 -1 12 0M566 327l0 -1M566 327l14 0"/>
<path stroke="red" d="M580 327l0 -1 1 0M581 327l0 -1M581 327l12 0 0 -1M593 327l7 0M600 342l0 -16M600 342l1 2M601 350l0 -6M601 349l1 0 0 -1 1 -1 103 0M706 350l0 -3M706 350l6 0 0 -1M712 350l13 0 0 -1M725 350l7 0 0 -3 19 0M751 348l0 -1M751 348l1 0"/>
<path stroke="red" d="M752 348l0 -1 7 0M759 350l0 -3M759 349l6 0 0 -1M765 349l20 0 1 1 0 -1 18 0M804 350l0 -1 27 0M831 350l0 -1 26 0M857 350l0 -1 26 0M883 350l0 -1 27 0M910 350l0 -1 7 0 0 -5 1 -2 0 -13 1 -1 0 -2 1 0 1 1 2 0 0 -1 1 0M924 327l0 -1"/>
<path stroke="red" d="M924 326l1 1 11 0 0 -1M936 327l14 0 0 -1 1 1 10 0 0 -1 13 0"/>
<path stroke="blue" d="M50 23l46 0"/>
<text stroke="none" fill="white" font-size="16" x="106" y="32">
x1.vsampled_n
</text>
<path stroke="blue" d="M50 431l1 0 1 -7 0 -15 1 -14 0 -5 1 2M54 415l0 -39 1 -5 0 -14 1 -3 0 -2 1 -2 2 0 1 -1 4 0M64 350l0 -1M64 350l4 0 1 -1 48 0M117 353l0 -4M117 353l1 6M118 367l0 -8M118 367l1 3 2 2 425 0 0 -22 1 -3 0 -24 1 -5 0 -3 1 -2 0 -1"/>
<path stroke="blue" d="M549 312l1 -1 4 0 0 -1M554 311l13 0M567 312l0 -1 6 0 1 1M574 343l0 -31M574 343l1 3M575 354l0 -8M575 354l1 0 0 -2 4 0 0 -1M580 352l13 0 0 -1M593 352l13 0 0 -1 1 0M607 352l0 -1M607 352l13 0 0 -1M620 352l6 0 0 -18 7 0 0 -1"/>
<path stroke="blue" d="M633 334l20 0M653 344l0 -10M653 344l1 1M654 346l0 -1 1 -1 24 0M679 350l0 -6M679 350l1 0M680 351l0 -2 133 0M813 350l0 -1 17 0 1 1 0 -1 86 0M917 352l0 -3M917 352l1 5M918 376l0 -19M918 376l1 0 0 -3 1 -1 54 0"/>
<path stroke="#FFA500" d="M462 39l46 0"/>
<text stroke="none" fill="white" font-size="16" x="518" y="48">
x1.vsampled_p-x1.vsampled_n
</text>
<path stroke="#FFA500" d="M50 431l67 0 0 -4 1 -13 0 -18 1 -6 1 -2 0 -2 4 0 1 -1 414 0M539 386l0 -1M539 386l1 0 0 -1M540 386l6 0M546 407l0 -22M546 407l1 3M547 434l0 -24M547 434l1 6M548 443l0 -3M548 443l1 2M549 446l0 -1M549 446l1 1 17 0 0 -1M567 447l6 0"/>
<path stroke="#FFA500" d="M573 447l1 -1 0 -31 1 -3 0 -8 1 0M576 405l0 -1M576 405l1 1 16 0M593 407l0 -1 7 0M600 421l0 -15M600 421l1 2M601 429l0 -6M601 429l1 -1 0 -1 1 0 1 -1 16 0M620 427l0 -1 6 0M626 444l0 -18M626 444l1 0M627 445l0 -1M627 445l1 0"/>
<path stroke="#FFA500" d="M628 445l0 -1 5 0M633 445l0 -1 20 0 0 -10 1 -1 0 -1M654 433l1 1 24 0 0 -6 1 0M680 429l0 -2M680 429l26 0M706 432l0 -3M706 432l19 0 0 -1M725 432l7 0 0 -3 27 0M759 432l0 -3M759 431l19 0 0 -1M778 431l8 0M786 432l0 -1 27 0"/>
<path stroke="#FFA500" d="M813 431l0 -1M813 431l25 0M838 432l0 -1 79 0 0 -7 1 -8 0 -31 1 -1M919 385l0 -1M919 385l2 0M921 386l0 -1M921 386l2 0 0 -1 1 0M924 386l0 -1M924 386l26 0 0 -1M950 386l12 0 0 -1 12 0"/>
<path stroke="green" d="M50 39l46 0"/>
<text stroke="none" fill="white" font-size="16" x="106" y="48">
x1.sw_sample-2
</text>
<path stroke="green" d="M50 613l1 0 1 -9 0 -21 1 -21M53 581l0 -25M53 581l1 29M54 613l0 -3M54 613l63 0M117 620l0 -172M117 449l422 0M539 614l0 -171M539 613l422 0M961 618l0 -170 1 1 12 0"/>
<path stroke="#FFC0C5" d="M462 55l46 0"/>
<text stroke="none" fill="white" font-size="16" x="518" y="64">
x1.comp_out_p+2
</text>
<path stroke="#FFC0C5" d="M50 249l1 0 1 -9 0 -22 1 -18 0 -4M53 198l1 5M54 249l0 -46M54 249l487 0 1 1 0 -166M542 85l13 0M555 249l0 -171M555 249l39 0 0 -165M594 85l14 0M608 249l0 -172M608 249l13 0M621 250l0 -167M621 85l13 0M634 249l0 -172M634 249l66 0"/>
<path stroke="#FFC0C5" d="M700 249l0 -165M700 85l13 0 0 -9 1 138M714 249l0 -35M714 249l39 0 0 -165M753 85l13 0M766 250l0 -169M766 249l14 0 0 -165M780 85l13 0M793 250l0 -174M793 249l41 0 0 -165M834 85l11 0 0 -9 1 139M846 249l0 -34M846 249l91 0"/>
<path stroke="#FFC0C5" d="M937 249l1 -60 0 -105M938 85l13 0M951 250l0 -166M951 249l23 0"/>
<path stroke="#A52A2A" d="M50 55l46 0"/>
<text stroke="none" fill="white" font-size="16" x="106" y="64">
x1.comp_out_n-2
</text>
<path stroke="#A52A2A" d="M50 613l1 0 1 -9 0 -22 1 -19M53 564l0 -3M53 564l1 6M54 613l0 -43M54 613l514 0M568 614l0 -167M568 449l13 0 0 -9 1 161M582 613l0 -12M582 613l65 0 0 -165M647 449l14 0M661 613l0 -173M661 613l12 0 1 2 0 -168M674 449l13 0"/>
<path stroke="#A52A2A" d="M687 613l0 -172M687 613l40 0 1 -158 0 -7M728 449l12 0M740 613l0 -172M740 613l67 0 0 -164 12 0M819 613l0 -170M819 613l41 0 0 -164 12 0M872 614l0 -169M872 613l14 0 0 -157 1 -8M887 449l0 -1M887 449l11 0M898 614l0 -169M898 613l14 0"/>
<path stroke="#A52A2A" d="M912 613l1 -158 0 -7M913 449l12 0M925 613l0 -171M925 613l49 0"/>
</svg>
