<?xml version="1.0" standalone="yes"?>
<!DOCTYPE svg PUBLIC "-//W3C//DTD SVG 1.1//EN"
 "http://www.w3.org/Graphics/SVG/1.1/DTD/svg11.dtd">
<svg xmlns="http://www.w3.org/2000/svg" version="1.1"
  width="100%" height="100%" viewBox="0 0 1024 768"
  style="fill: none; font-family: Helvetica;
 font: Helvetica;
">

<!-- Creator: NGspice -->

<rect x="0" y="0" width="1024" height="768" fill="black" stroke="none"/>
<text stroke="none" fill="white" font-size="16" x="358" y="752">
time
</text>
<text stroke="none" fill="white" font-size="16" x="10" y="16">
tran1: run1306_vin0.248289
</text>
<path stroke="white" d="M50 704l0 -637"/>
<text stroke="none" fill="white" font-size="16" x="35" y="728">
0.0
</text>
<path stroke="white" stroke-dasharray="1,2" d="M182 704l0 -637"/>
<text stroke="none" fill="white" font-size="16" x="157" y="728">
100.0
</text>
<path stroke="white" stroke-dasharray="1,2" d="M314 704l0 -637"/>
<text stroke="none" fill="white" font-size="16" x="289" y="728">
200.0
</text>
<path stroke="white" stroke-dasharray="1,2" d="M446 704l0 -637"/>
<text stroke="none" fill="white" font-size="16" x="421" y="728">
300.0
</text>
<path stroke="white" stroke-dasharray="1,2" d="M578 704l0 -637"/>
<text stroke="none" fill="white" font-size="16" x="553" y="728">
400.0
</text>
<path stroke="white" stroke-dasharray="1,2" d="M710 704l0 -637"/>
<text stroke="none" fill="white" font-size="16" x="685" y="728">
500.0
</text>
<path stroke="white" stroke-dasharray="1,2" d="M842 704l0 -637"/>
<text stroke="none" fill="white" font-size="16" x="817" y="728">
600.0
</text>
<path stroke="white" stroke-dasharray="1,2" d="M974 704l0 -637"/>
<text stroke="none" fill="white" font-size="16" x="949" y="728">
700.0
</text>
<text stroke="none" fill="white" font-size="16" x="614" y="752">
ns
</text>
<path stroke="white" stroke-dasharray="1,2" d="M50 704l924 0"/>
<text stroke="none" fill="white" font-size="16" x="8" y="712">
-3.0
</text>
<path stroke="white" stroke-dasharray="1,2" d="M50 613l924 0"/>
<text stroke="none" fill="white" font-size="16" x="8" y="621">
-2.0
</text>
<path stroke="white" stroke-dasharray="1,2" d="M50 522l924 0"/>
<text stroke="none" fill="white" font-size="16" x="8" y="530">
-1.0
</text>
<path stroke="white" d="M50 431l924 0"/>
<text stroke="none" fill="white" font-size="16" x="18" y="439">
0.0
</text>
<path stroke="white" stroke-dasharray="1,2" d="M50 340l924 0"/>
<text stroke="none" fill="white" font-size="16" x="18" y="348">
1.0
</text>
<path stroke="white" stroke-dasharray="1,2" d="M50 249l924 0"/>
<text stroke="none" fill="white" font-size="16" x="18" y="257">
2.0
</text>
<path stroke="white" stroke-dasharray="1,2" d="M50 158l924 0"/>
<text stroke="none" fill="white" font-size="16" x="18" y="166">
3.0
</text>
<path stroke="white" stroke-dasharray="1,2" d="M50 67l924 0"/>
<text stroke="none" fill="white" font-size="16" x="18" y="75">
4.0
</text>
<text stroke="none" fill="white" font-size="16" x="10" y="32">
     
</text>
<path stroke="red" d="M462 23l46 0"/>
<text stroke="none" fill="white" font-size="16" x="518" y="32">
x1.vsampled_p
</text>
<path stroke="red" d="M50 431l1 0 1 -7 0 -15 1 -15 0 -4 1 1M54 415l0 -39 1 -5 0 -14 1 -3 0 -2 1 -2 2 0 1 -1 4 0M64 350l0 -1M64 350l4 0 1 -1 48 0 1 -7 0 -10 1 -3 1 -1 0 -1 419 0 0 -1M539 327l15 0 0 -1M554 327l13 0M567 328l0 -1 13 0 0 -1M580 327l13 0"/>
<path stroke="red" d="M593 328l0 -1 7 0M600 341l0 -14M600 341l1 2M601 350l0 -7M601 350l1 -1 0 -1 1 -1 16 0M619 348l0 -1 27 0M646 348l0 -1 26 0M672 348l0 -1 27 0M699 348l0 -1 7 0M706 351l0 -4M706 351l1 -1 25 0 0 -3 2 0 1 1 3 0 0 -1 13 0M751 348l0 -1"/>
<path stroke="red" d="M751 348l1 0 0 -1M752 348l7 0M759 350l0 -3M759 349l27 0M786 350l0 -1 18 0M804 350l0 -1 26 0 1 1 0 -1 86 0M917 350l0 -1 1 -3 0 -17 1 -1 0 -2 1 0 1 1 2 0 0 -1M923 327l13 0M936 328l0 -1 14 0 0 -1M950 327l12 0 0 -1 2 0M964 327l0 -1"/>
<path stroke="red" d="M964 327l10 0"/>
<path stroke="blue" d="M50 23l46 0"/>
<text stroke="none" fill="white" font-size="16" x="106" y="32">
x1.vsampled_n
</text>
<path stroke="blue" d="M50 431l1 0 1 -7 0 -15 1 -14 0 -5 1 2M54 415l0 -39 1 -5 0 -14 1 -3 0 -2 1 -2 2 0 1 -1 4 0M64 350l0 -1M64 350l4 0 1 -1 48 0M117 353l0 -4M117 353l1 6M118 367l0 -8M118 367l1 3 2 2 425 0 0 -20 1 -3 0 -24 1 -5 0 -7 2 -2 4 0"/>
<path stroke="blue" d="M554 311l0 -1 12 0 1 1M567 312l0 -1 7 0M574 338l0 -27M574 338l1 3M575 353l0 -12M575 353l1 0 1 -1 1 0 0 -1 15 0M593 352l0 -1 26 0M619 352l0 -1M619 352l1 0 0 -1 6 0 0 -17 1 0 0 -1 1 0 1 1 4 0 0 -1 13 0M646 334l0 -1M646 334l7 0"/>
<path stroke="blue" d="M653 343l0 -9M653 343l1 1M654 346l0 -2 5 0 0 -1M659 344l20 0M679 349l0 -5M679 349l1 1M680 351l0 -2 132 0M812 350l0 -1 19 0M831 350l0 -1 26 0M857 350l0 -1 26 0M883 350l0 -1 27 0M910 350l0 -1 7 0 1 1M918 376l0 -26M918 376l1 -1"/>
<path stroke="blue" d="M919 375l0 -2 1 -1 54 0"/>
<path stroke="#FFA500" d="M462 39l46 0"/>
<text stroke="none" fill="white" font-size="16" x="518" y="48">
x1.vsampled_p-x1.vsampled_n
</text>
<path stroke="#FFA500" d="M50 431l67 0 0 -4 1 -13 0 -18 1 -6 1 -2 0 -1 1 -1 425 0M546 405l0 -19M546 405l1 3M547 433l0 -25M547 433l1 5M548 445l0 -7M548 445l2 2 24 0 0 -27 1 -3 0 -12 1 -1M576 405l0 -1M576 405l1 1 16 0M593 407l0 -1 7 0M600 421l0 -15"/>
<path stroke="#FFA500" d="M600 421l1 2M601 430l0 -7M601 429l1 0 0 -2 24 0M626 444l0 -17M626 444l1 1 19 0 0 -1M646 445l7 0 0 -9 1 -2 0 -1M654 434l5 0M659 435l0 -1 13 0M672 435l0 -1 7 0 0 -5 1 -1M680 429l0 -2M680 429l26 0M706 433l0 -4M706 433l1 0"/>
<path stroke="#FFA500" d="M707 433l0 -1 25 0 0 -3 1 0M733 430l0 -1M733 430l18 0 0 -1M751 430l8 0M759 432l0 -2M759 431l27 0M786 432l0 -1M786 432l18 0 0 -1M804 432l8 0 0 -1 105 0M917 432l0 -1 1 -3 0 -43 1 -1M919 385l0 -1M919 385l1 0 1 1 15 0M936 387l0 -1"/>
<path stroke="#FFA500" d="M936 386l38 0"/>
<path stroke="green" d="M50 39l46 0"/>
<text stroke="none" fill="white" font-size="16" x="106" y="48">
x1.sw_sample-2
</text>
<path stroke="green" d="M50 613l1 0 1 -9 0 -21 1 -21M53 581l0 -25M53 581l1 29M54 613l0 -3M54 613l63 0M117 620l0 -172M117 449l422 0M539 614l0 -171M539 613l422 0M961 618l0 -170 1 1 12 0"/>
<path stroke="#FFC0C5" d="M462 55l46 0"/>
<text stroke="none" fill="white" font-size="16" x="518" y="64">
x1.comp_out_p+2
</text>
<path stroke="#FFC0C5" d="M50 249l1 0 1 -9 0 -22 1 -18 0 -4M53 198l1 5M54 249l0 -46M54 249l487 0 1 1 0 -166M542 85l13 0M555 250l0 -171M555 249l39 0 0 -165M594 85l14 0M608 250l0 -172M608 249l13 0M621 250l0 -167M621 85l13 0M634 249l0 -172M634 249l66 0"/>
<path stroke="#FFC0C5" d="M700 249l0 -165M700 85l13 0 0 -5 1 68M714 250l0 -102M714 249l39 0 0 -165M753 85l13 0M766 250l0 -174M766 249l14 0 0 -164 1 -1M781 85l0 -1M781 85l12 0M793 249l0 -169M793 249l67 0 0 -165 1 1 11 0M872 249l0 -173M872 249l14 0"/>
<path stroke="#FFC0C5" d="M886 249l1 -147 0 -18M887 85l11 0M898 249l0 -173M898 249l14 0 1 -157 0 -8M913 85l12 0M925 249l0 -172M925 249l12 0M937 251l0 -2M937 251l1 -101 0 -67M938 85l13 0M951 250l0 -167M951 249l23 0"/>
<path stroke="#A52A2A" d="M50 55l46 0"/>
<text stroke="none" fill="white" font-size="16" x="106" y="64">
x1.comp_out_n-2
</text>
<path stroke="#A52A2A" d="M50 613l1 0 1 -9 0 -22 1 -19M53 564l0 -3M53 564l1 6M54 613l0 -43M54 613l514 0 0 -166M568 449l13 0 0 -9 1 161M582 613l0 -12M582 613l65 0 0 -165M647 449l14 0M661 613l0 -173M661 613l12 0M673 614l0 -1M673 614l1 -116 0 -51"/>
<path stroke="#A52A2A" d="M674 449l13 0M687 613l0 -172M687 613l40 0 1 -148 0 -17M728 449l12 0M740 613l0 -171M740 613l67 0 0 -165M807 449l12 0M819 613l0 -174M819 613l15 0 0 -165M834 449l11 0M845 450l0 -3M845 450l1 153M846 613l0 -10M846 613l128 0"/>
</svg>
