<?xml version="1.0" standalone="yes"?>
<!DOCTYPE svg PUBLIC "-//W3C//DTD SVG 1.1//EN"
 "http://www.w3.org/Graphics/SVG/1.1/DTD/svg11.dtd">
<svg xmlns="http://www.w3.org/2000/svg" version="1.1"
  width="100%" height="100%" viewBox="0 0 1024 768"
  style="fill: none; font-family: Helvetica;
 font: Helvetica;
">

<!-- Creator: NGspice -->

<rect x="0" y="0" width="1024" height="768" fill="black" stroke="none"/>
<text stroke="none" fill="white" font-size="16" x="358" y="752">
time
</text>
<text stroke="none" fill="white" font-size="16" x="10" y="16">
tran1: run1389_vin0.321238
</text>
<path stroke="white" d="M50 704l0 -637"/>
<text stroke="none" fill="white" font-size="16" x="35" y="728">
0.0
</text>
<path stroke="white" stroke-dasharray="1,2" d="M182 704l0 -637"/>
<text stroke="none" fill="white" font-size="16" x="157" y="728">
100.0
</text>
<path stroke="white" stroke-dasharray="1,2" d="M314 704l0 -637"/>
<text stroke="none" fill="white" font-size="16" x="289" y="728">
200.0
</text>
<path stroke="white" stroke-dasharray="1,2" d="M446 704l0 -637"/>
<text stroke="none" fill="white" font-size="16" x="421" y="728">
300.0
</text>
<path stroke="white" stroke-dasharray="1,2" d="M578 704l0 -637"/>
<text stroke="none" fill="white" font-size="16" x="553" y="728">
400.0
</text>
<path stroke="white" stroke-dasharray="1,2" d="M710 704l0 -637"/>
<text stroke="none" fill="white" font-size="16" x="685" y="728">
500.0
</text>
<path stroke="white" stroke-dasharray="1,2" d="M842 704l0 -637"/>
<text stroke="none" fill="white" font-size="16" x="817" y="728">
600.0
</text>
<path stroke="white" stroke-dasharray="1,2" d="M974 704l0 -637"/>
<text stroke="none" fill="white" font-size="16" x="949" y="728">
700.0
</text>
<text stroke="none" fill="white" font-size="16" x="614" y="752">
ns
</text>
<path stroke="white" stroke-dasharray="1,2" d="M50 704l924 0"/>
<text stroke="none" fill="white" font-size="16" x="8" y="712">
-3.0
</text>
<path stroke="white" stroke-dasharray="1,2" d="M50 613l924 0"/>
<text stroke="none" fill="white" font-size="16" x="8" y="621">
-2.0
</text>
<path stroke="white" stroke-dasharray="1,2" d="M50 522l924 0"/>
<text stroke="none" fill="white" font-size="16" x="8" y="530">
-1.0
</text>
<path stroke="white" d="M50 431l924 0"/>
<text stroke="none" fill="white" font-size="16" x="18" y="439">
0.0
</text>
<path stroke="white" stroke-dasharray="1,2" d="M50 340l924 0"/>
<text stroke="none" fill="white" font-size="16" x="18" y="348">
1.0
</text>
<path stroke="white" stroke-dasharray="1,2" d="M50 249l924 0"/>
<text stroke="none" fill="white" font-size="16" x="18" y="257">
2.0
</text>
<path stroke="white" stroke-dasharray="1,2" d="M50 158l924 0"/>
<text stroke="none" fill="white" font-size="16" x="18" y="166">
3.0
</text>
<path stroke="white" stroke-dasharray="1,2" d="M50 67l924 0"/>
<text stroke="none" fill="white" font-size="16" x="18" y="75">
4.0
</text>
<text stroke="none" fill="white" font-size="16" x="10" y="32">
     
</text>
<path stroke="red" d="M462 23l46 0"/>
<text stroke="none" fill="white" font-size="16" x="518" y="32">
x1.vsampled_p
</text>
<path stroke="red" d="M50 431l1 0 1 -7 0 -15 1 -15 0 -4 1 1M54 415l0 -40 1 -4 0 -14 1 -3 0 -2 2 -2 1 0 1 -1 4 0M64 350l0 -1M64 350l4 0 1 -1 48 0 0 -1 1 -8 0 -12 1 -4 0 -2 2 -2 419 0M540 321l0 -1 27 0M567 321l0 -1 26 0M593 321l0 -1 7 0M600 337l0 -17"/>
<path stroke="red" d="M600 337l1 4M601 344l0 -3M601 342l1 0 0 -1 4 0 0 -1 13 0M619 341l0 -1M619 341l14 0 0 -1 13 0M646 341l0 -1M646 341l13 0 0 -1 13 0M672 341l0 -1M672 341l7 0M679 346l0 -5M679 346l1 1 0 -1 6 0 0 -1M686 346l20 0M706 349l0 -3M706 349l1 -1"/>
<path stroke="red" d="M707 348l18 0M725 349l0 -1 26 0M751 349l0 -1 27 0M778 349l0 -1 7 0M785 349l0 -1M785 349l27 0M812 350l0 -1 106 0 0 -1 1 -1 0 -25 1 -1 0 -1 16 0M936 321l0 -1 38 0"/>
<path stroke="blue" d="M50 23l46 0"/>
<text stroke="none" fill="white" font-size="16" x="106" y="32">
x1.vsampled_n
</text>
<path stroke="blue" d="M50 431l1 0 1 -7 0 -15 1 -14 0 -5 1 2M54 415l0 -40 1 -4 0 -14 1 -3 0 -2 2 -2 1 0 1 -1 4 0M64 350l0 -1M64 350l4 0 1 -1 48 0M117 354l0 -5M117 354l1 9M118 372l0 -9M118 372l1 3M119 377l0 -2M119 377l1 1 420 0M540 379l0 -1 6 0"/>
<path stroke="blue" d="M546 379l0 -25 1 -4 0 -23 1 -4 0 -2 1 -2 0 -1 1 0 1 -1 15 0 1 1 0 -1 7 0M574 345l0 -28M574 345l1 3M575 360l0 -12M575 360l1 0 0 -1 1 0 0 -1 48 0 0 -7 1 -4 0 -7 20 0M646 341l0 -1 7 0M653 350l0 -10M653 350l1 2 0 -1 1 0 0 -1"/>
<path stroke="blue" d="M655 350l17 0M672 351l0 -1 26 0 1 1 0 -1 26 0M725 351l0 -1 6 0 0 -3 1 0M732 348l0 -1M732 348l19 0M751 349l0 -1 8 0M759 351l0 -3M759 351l1 0 0 -2M760 350l1 -1 17 0M778 350l0 -1 26 0M804 350l0 -1 26 0 1 1 0 -1 26 0M857 350l0 -1"/>
<path stroke="blue" d="M857 349l26 0M883 350l0 -1 27 0M910 350l0 -1 8 0M918 350l0 -1M918 350l1 1M919 383l0 -32M919 383l1 0 0 -3 1 -1 2 0 0 -1 13 0M936 379l0 -1 38 0"/>
<path stroke="#FFA500" d="M462 39l46 0"/>
<text stroke="none" fill="white" font-size="16" x="518" y="48">
x1.vsampled_p-x1.vsampled_n
</text>
<path stroke="#FFA500" d="M50 431l67 0 0 -6 1 -16 0 -22 1 -7 0 -4 1 -2 1 -1 425 0M546 397l0 -25M546 397l1 4M547 424l0 -23M547 424l1 4M548 431l0 -3M548 431l1 1M549 433l0 -1M549 433l1 1 24 0 0 -28 1 -3 0 -12 1 0M576 392l0 -1M576 392l1 0M577 393l0 -1"/>
<path stroke="#FFA500" d="M577 393l16 0M593 394l0 -1 7 0M600 410l0 -17M600 410l1 4M601 417l0 -3M601 415l1 0 0 -1 4 0 0 -1 13 0M619 414l0 -1 1 0M620 414l0 -1M620 414l5 0M625 420l0 -6M625 420l1 4M626 431l0 -7M626 431l1 0M627 432l0 -1M627 432l1 0"/>
<path stroke="#FFA500" d="M628 432l0 -1 5 0M633 432l0 -1 20 0 0 -10 1 -1M654 421l0 -1M654 421l25 0M679 426l0 -5M679 426l1 1M680 428l0 -1 1 -1 25 0M706 430l0 -4M706 429l25 0M731 432l0 -3M731 432l1 0 0 -1 27 0 0 -2 1 -1M760 430l0 -2M760 430l25 0"/>
<path stroke="#FFA500" d="M785 431l0 -1M785 431l1 0 0 -1 26 0M812 431l0 -1M812 431l106 0 0 -2 1 -2 0 -57 1 -1M920 371l0 -2M920 371l1 1 1 0M922 373l0 -1M922 373l1 0 0 -1 1 1 26 0 0 -1M950 373l24 0"/>
<path stroke="green" d="M50 39l46 0"/>
<text stroke="none" fill="white" font-size="16" x="106" y="48">
x1.sw_sample-2
</text>
<path stroke="green" d="M50 613l1 0 1 -9 0 -21 1 -21M53 581l0 -25M53 581l1 29M54 613l0 -3M54 613l63 0M117 620l0 -172M117 449l422 0M539 614l0 -171M539 613l422 0M961 618l0 -170 1 1 12 0"/>
<path stroke="#FFC0C5" d="M462 55l46 0"/>
<text stroke="none" fill="white" font-size="16" x="518" y="64">
x1.comp_out_p+2
</text>
<path stroke="#FFC0C5" d="M50 249l1 0 1 -9 0 -22 1 -18 0 -4M53 198l1 5M54 249l0 -46M54 249l488 0 0 -165M542 85l13 0M555 249l0 -167M555 249l39 0M594 250l0 -166M594 85l14 0M608 250l0 -167M608 249l13 0M621 254l0 -171M621 85l13 0M634 249l0 -172M634 249l39 0"/>
<path stroke="#FFC0C5" d="M673 253l0 -4M673 253l1 -108 0 -61M674 85l13 0M687 250l0 -172M687 249l13 0M700 251l0 -168M700 85l13 0 0 -8 1 153M714 249l0 -19M714 249l13 0 0 -165M727 85l13 0M740 249l0 -167M740 249l39 0 1 -146 0 -19M780 85l13 0M793 249l0 -167"/>
<path stroke="#FFC0C5" d="M793 249l14 0 0 -165M807 85l12 0M819 249l0 -173M819 249l14 0 1 -157 0 -8M834 85l11 0 0 -2M845 84l1 151M846 249l0 -14M846 249l14 0 1 -154 0 -10 11 0M872 249l0 -166M872 249l15 0 0 -165M887 85l11 0M898 249l0 -166M898 249l15 0"/>
<path stroke="#FFC0C5" d="M913 249l0 -14 1 -138 0 -13M914 85l11 0M925 250l0 -167M925 249l12 0 1 -45 0 -120M938 85l13 0M951 250l0 -168M951 249l23 0"/>
<path stroke="#A52A2A" d="M50 55l46 0"/>
<text stroke="none" fill="white" font-size="16" x="106" y="64">
x1.comp_out_n-2
</text>
<path stroke="#A52A2A" d="M50 613l1 0 1 -9 0 -22 1 -19M53 564l0 -3M53 564l1 6M54 613l0 -43M54 613l514 0M568 614l0 -167M568 449l13 0 0 -9 1 162M582 613l0 -11M582 613l12 0M594 614l0 -1 53 0M647 620l0 -173M647 449l14 0M661 614l0 -170M661 613l92 0"/>
<path stroke="#A52A2A" d="M753 613l1 -70 0 -95M754 449l12 0M766 614l0 -174M766 613l208 0"/>
</svg>
