<?xml version="1.0" standalone="yes"?>
<!DOCTYPE svg PUBLIC "-//W3C//DTD SVG 1.1//EN"
 "http://www.w3.org/Graphics/SVG/1.1/DTD/svg11.dtd">
<svg xmlns="http://www.w3.org/2000/svg" version="1.1"
  width="100%" height="100%" viewBox="0 0 1024 768"
  style="fill: none; font-family: Helvetica;
 font: Helvetica;
">

<!-- Creator: NGspice -->

<rect x="0" y="0" width="1024" height="768" fill="black" stroke="none"/>
<text stroke="none" fill="white" font-size="16" x="358" y="752">
time
</text>
<text stroke="none" fill="white" font-size="16" x="10" y="16">
tran1: run1123_vin0.0874498
</text>
<path stroke="white" d="M50 704l0 -637"/>
<text stroke="none" fill="white" font-size="16" x="35" y="728">
0.0
</text>
<path stroke="white" stroke-dasharray="1,2" d="M182 704l0 -637"/>
<text stroke="none" fill="white" font-size="16" x="157" y="728">
100.0
</text>
<path stroke="white" stroke-dasharray="1,2" d="M314 704l0 -637"/>
<text stroke="none" fill="white" font-size="16" x="289" y="728">
200.0
</text>
<path stroke="white" stroke-dasharray="1,2" d="M446 704l0 -637"/>
<text stroke="none" fill="white" font-size="16" x="421" y="728">
300.0
</text>
<path stroke="white" stroke-dasharray="1,2" d="M578 704l0 -637"/>
<text stroke="none" fill="white" font-size="16" x="553" y="728">
400.0
</text>
<path stroke="white" stroke-dasharray="1,2" d="M710 704l0 -637"/>
<text stroke="none" fill="white" font-size="16" x="685" y="728">
500.0
</text>
<path stroke="white" stroke-dasharray="1,2" d="M842 704l0 -637"/>
<text stroke="none" fill="white" font-size="16" x="817" y="728">
600.0
</text>
<path stroke="white" stroke-dasharray="1,2" d="M974 704l0 -637"/>
<text stroke="none" fill="white" font-size="16" x="949" y="728">
700.0
</text>
<text stroke="none" fill="white" font-size="16" x="614" y="752">
ns
</text>
<path stroke="white" stroke-dasharray="1,2" d="M50 704l924 0"/>
<text stroke="none" fill="white" font-size="16" x="8" y="712">
-2.5
</text>
<path stroke="white" stroke-dasharray="1,2" d="M50 655l924 0"/>
<text stroke="none" fill="white" font-size="16" x="8" y="663">
-2.0
</text>
<path stroke="white" stroke-dasharray="1,2" d="M50 606l924 0"/>
<text stroke="none" fill="white" font-size="16" x="8" y="614">
-1.5
</text>
<path stroke="white" stroke-dasharray="1,2" d="M50 557l924 0"/>
<text stroke="none" fill="white" font-size="16" x="8" y="565">
-1.0
</text>
<path stroke="white" stroke-dasharray="1,2" d="M50 508l924 0"/>
<text stroke="none" fill="white" font-size="16" x="8" y="516">
-0.5
</text>
<path stroke="white" d="M50 459l924 0"/>
<text stroke="none" fill="white" font-size="16" x="18" y="467">
0.0
</text>
<path stroke="white" stroke-dasharray="1,2" d="M50 410l924 0"/>
<text stroke="none" fill="white" font-size="16" x="18" y="418">
0.5
</text>
<path stroke="white" stroke-dasharray="1,2" d="M50 361l924 0"/>
<text stroke="none" fill="white" font-size="16" x="18" y="369">
1.0
</text>
<path stroke="white" stroke-dasharray="1,2" d="M50 312l924 0"/>
<text stroke="none" fill="white" font-size="16" x="18" y="320">
1.5
</text>
<path stroke="white" stroke-dasharray="1,2" d="M50 263l924 0"/>
<text stroke="none" fill="white" font-size="16" x="18" y="271">
2.0
</text>
<path stroke="white" stroke-dasharray="1,2" d="M50 214l924 0"/>
<text stroke="none" fill="white" font-size="16" x="18" y="222">
2.5
</text>
<path stroke="white" stroke-dasharray="1,2" d="M50 165l924 0"/>
<text stroke="none" fill="white" font-size="16" x="18" y="173">
3.0
</text>
<path stroke="white" stroke-dasharray="1,2" d="M50 116l924 0"/>
<text stroke="none" fill="white" font-size="16" x="18" y="124">
3.5
</text>
<path stroke="white" stroke-dasharray="1,2" d="M50 67l924 0"/>
<text stroke="none" fill="white" font-size="16" x="18" y="75">
4.0
</text>
<text stroke="none" fill="white" font-size="16" x="10" y="32">
     
</text>
<path stroke="red" d="M462 23l46 0"/>
<text stroke="none" fill="white" font-size="16" x="518" y="32">
x1.vsampled_p
</text>
<path stroke="red" d="M50 459l1 0 1 -7 0 -17 1 -15 0 -5 1 1M54 442l0 -42 1 -6 0 -15 1 -3 0 -3 1 -1 1 0 0 -1 59 0 1 -3 0 -3 1 -1 0 -1 1 0 1 -1 418 0 1 1 0 -1 1 0M541 363l0 -1M541 363l5 0 0 -1 1 0M547 363l0 -1M547 363l7 0 0 -1 12 0 1 1 0 -1M567 363l13 0"/>
<path stroke="red" d="M580 363l0 -1 13 0M593 363l0 -1M593 363l13 0 0 -1 13 0M619 363l0 -1M619 363l1 0 0 -1M620 363l5 0 0 -1 1 0M626 363l0 -1M626 363l7 0 0 -1 13 0M646 363l0 -1M646 363l13 0 0 -1 13 0M672 363l0 -1M672 363l7 0M679 368l0 -6M679 368l1 2"/>
<path stroke="red" d="M680 370l0 -2 26 0M706 372l0 -4M706 372l1 -1 106 0M813 372l0 -1 25 0 0 -1M838 371l80 0M918 372l0 -10 1 -1M919 362l0 -1M919 362l2 0M921 363l0 -1M921 363l2 0 0 -1 13 0M936 363l0 -1 1 1 13 0 0 -1 24 0"/>
<path stroke="blue" d="M50 23l46 0"/>
<text stroke="none" fill="white" font-size="16" x="106" y="32">
x1.vsampled_n
</text>
<path stroke="blue" d="M50 459l1 0 1 -7 0 -17 1 -15 0 -5 1 1M54 442l0 -42 1 -6 0 -15 1 -3 0 -3 1 -1 1 0 0 -1 59 0M117 372l0 -1M117 372l1 2M118 376l0 -2M118 376l1 2M119 379l0 -1M119 379l420 0M539 380l0 -1M539 380l1 0 0 -1 1 0M541 380l0 -1M541 380l5 0"/>
<path stroke="blue" d="M546 380l0 -21 1 -2 0 -28 1 -7 0 -4 1 -2 0 -1 1 -1 4 0 0 -1 12 0 1 1M567 315l0 -1 6 0 0 -1 1 7M574 343l0 -23M574 343l1 9M575 359l0 -7M575 359l1 1 0 -1 1 -1 3 0 0 -1 1 1 12 0 0 -1M593 358l7 0M600 375l0 -17M600 375l1 3M601 383l0 -5"/>
<path stroke="blue" d="M601 383l1 -1 0 -2 4 0 0 -1 1 0M607 380l0 -1M607 380l12 0 0 -1M619 380l1 0 0 -1M620 380l5 0 0 -8 1 -3 0 -8 1 -1 19 0M646 361l0 -1 7 0M653 370l0 -10M653 370l1 3 0 -1 1 0 0 -1 17 0M672 372l0 -1 26 0 1 1 0 -1 26 0M725 372l0 -1"/>
<path stroke="blue" d="M725 371l7 0 0 -3 1 1 26 0M759 372l0 -3M759 370l19 0M778 371l0 -1 8 0M786 372l0 -2M786 371l132 0M918 383l0 -12M918 383l1 -2 0 -1 4 0 0 -1M923 380l13 0 0 -1 1 0M937 380l0 -1M937 380l13 0 0 -1M950 380l11 0 0 -1 13 0"/>
<path stroke="#FFA500" d="M462 39l46 0"/>
<text stroke="none" fill="white" font-size="16" x="518" y="48">
x1.vsampled_p-x1.vsampled_n
</text>
<path stroke="#FFA500" d="M50 459l67 0 0 -1 1 -6 0 -4 1 -3 0 -2 1 -1 426 0M546 463l0 -21M546 463l1 2M547 492l0 -27M547 492l1 7M548 504l0 -5M548 504l1 2M549 507l0 -1M549 507l1 0M550 508l0 -1M550 508l17 0 0 -1M567 508l6 0 1 -7 0 -23 1 -8 0 -8 1 0"/>
<path stroke="#FFA500" d="M576 463l0 -1M576 463l1 0M577 464l0 -1M577 464l23 0 0 -18 1 -2 0 -6M601 439l1 1M602 442l0 -2M602 442l23 0M625 449l0 -7M625 449l1 4M626 461l0 -8M626 461l27 0 0 -10 1 -2 1 1 24 0M679 456l0 -6M679 456l1 1M680 458l0 -2 19 0"/>
<path stroke="#FFA500" d="M699 456l0 -1M699 456l7 0M706 459l0 -3M706 459l1 0 0 -1 25 0M732 462l0 -4M732 461l27 0 0 -3M759 459l27 0 0 -1M786 459l27 0M813 460l0 -1 25 0 0 -1M838 459l80 0M918 460l0 -22 1 1M919 441l0 -2M919 441l1 0M920 442l0 -1M920 442l54 0"/>
<path stroke="green" d="M50 39l46 0"/>
<text stroke="none" fill="white" font-size="16" x="106" y="48">
x1.sw_sample-2
</text>
<path stroke="green" d="M50 655l1 0 1 -10 0 -23 1 -21M53 621l0 -27M53 621l1 31M54 655l0 -3M54 655l63 0M117 662l0 -184 1 1 421 0M539 656l0 -184M539 655l422 0M961 660l0 -182 1 0M962 479l0 -1 1 1 11 0"/>
<path stroke="#FFC0C5" d="M462 55l46 0"/>
<text stroke="none" fill="white" font-size="16" x="518" y="64">
x1.comp_out_p+2
</text>
<path stroke="#FFC0C5" d="M50 263l1 0 1 -10 0 -23 1 -20 0 -4M53 209l1 4M54 263l0 -50M54 263l487 0 1 1 0 -179M542 87l13 0M555 263l0 -185M555 263l66 0M621 264l0 -179M621 87l13 0M634 263l0 -186M634 263l39 0M673 264l0 -88 1 -80 0 -11M674 87l13 0"/>
<path stroke="#FFC0C5" d="M687 264l0 -187M687 263l13 0M700 264l0 -179M700 87l13 0 0 -8 1 165M714 263l0 -19M714 263l13 0 1 -169 0 -9M728 87l12 0M740 263l0 -184M740 263l67 0 0 -177 1 0M808 87l0 -1M808 87l11 0M819 264l0 -184M819 263l41 0 0 -177"/>
<path stroke="#FFC0C5" d="M860 87l12 0M872 263l0 -181M872 263l14 0 0 -177 1 0M887 87l0 -1M887 87l11 0M898 263l0 -181M898 263l15 0 0 -177M913 87l12 0M925 264l0 -187M925 263l12 0 1 5 0 -183M938 87l13 0M951 263l0 -186M951 263l23 0"/>
<path stroke="#A52A2A" d="M50 55l46 0"/>
<text stroke="none" fill="white" font-size="16" x="106" y="64">
x1.comp_out_n-2
</text>
<path stroke="#A52A2A" d="M50 655l1 0 1 -10 0 -24 1 -20M53 602l0 -3M53 602l1 7M54 655l0 -46M54 655l514 0 0 -178M568 479l13 0 0 -10 1 172M582 655l0 -14M582 655l12 0M594 657l0 -181M594 477l1 1M595 479l0 -1M595 479l13 0M608 655l0 -188M608 655l13 0"/>
<path stroke="#A52A2A" d="M621 656l0 -1 26 0 0 -179M647 479l14 0M661 655l0 -186M661 655l92 0 0 -178M753 479l13 0M766 656l0 -182M766 655l14 0 0 -178M780 478l1 1 12 0M793 655l0 -187M793 655l41 0 0 -177M834 479l11 0 0 -12 1 165M846 655l0 -23M846 655l128 0"/>
</svg>
