<?xml version="1.0" standalone="yes"?>
<!DOCTYPE svg PUBLIC "-//W3C//DTD SVG 1.1//EN"
 "http://www.w3.org/Graphics/SVG/1.1/DTD/svg11.dtd">
<svg xmlns="http://www.w3.org/2000/svg" version="1.1"
  width="100%" height="100%" viewBox="0 0 1024 768"
  style="fill: none; font-family: Helvetica;
 font: Helvetica;
">

<!-- Creator: NGspice -->

<rect x="0" y="0" width="1024" height="768" fill="black" stroke="none"/>
<text stroke="none" fill="white" font-size="16" x="358" y="752">
time
</text>
<text stroke="none" fill="white" font-size="16" x="10" y="16">
tran1: run1121_vin0.085692
</text>
<path stroke="white" d="M50 704l0 -637"/>
<text stroke="none" fill="white" font-size="16" x="35" y="728">
0.0
</text>
<path stroke="white" stroke-dasharray="1,2" d="M182 704l0 -637"/>
<text stroke="none" fill="white" font-size="16" x="157" y="728">
100.0
</text>
<path stroke="white" stroke-dasharray="1,2" d="M314 704l0 -637"/>
<text stroke="none" fill="white" font-size="16" x="289" y="728">
200.0
</text>
<path stroke="white" stroke-dasharray="1,2" d="M446 704l0 -637"/>
<text stroke="none" fill="white" font-size="16" x="421" y="728">
300.0
</text>
<path stroke="white" stroke-dasharray="1,2" d="M578 704l0 -637"/>
<text stroke="none" fill="white" font-size="16" x="553" y="728">
400.0
</text>
<path stroke="white" stroke-dasharray="1,2" d="M710 704l0 -637"/>
<text stroke="none" fill="white" font-size="16" x="685" y="728">
500.0
</text>
<path stroke="white" stroke-dasharray="1,2" d="M842 704l0 -637"/>
<text stroke="none" fill="white" font-size="16" x="817" y="728">
600.0
</text>
<path stroke="white" stroke-dasharray="1,2" d="M974 704l0 -637"/>
<text stroke="none" fill="white" font-size="16" x="949" y="728">
700.0
</text>
<text stroke="none" fill="white" font-size="16" x="614" y="752">
ns
</text>
<path stroke="white" stroke-dasharray="1,2" d="M50 704l924 0"/>
<text stroke="none" fill="white" font-size="16" x="8" y="712">
-3.0
</text>
<path stroke="white" stroke-dasharray="1,2" d="M50 613l924 0"/>
<text stroke="none" fill="white" font-size="16" x="8" y="621">
-2.0
</text>
<path stroke="white" stroke-dasharray="1,2" d="M50 522l924 0"/>
<text stroke="none" fill="white" font-size="16" x="8" y="530">
-1.0
</text>
<path stroke="white" d="M50 431l924 0"/>
<text stroke="none" fill="white" font-size="16" x="18" y="439">
0.0
</text>
<path stroke="white" stroke-dasharray="1,2" d="M50 340l924 0"/>
<text stroke="none" fill="white" font-size="16" x="18" y="348">
1.0
</text>
<path stroke="white" stroke-dasharray="1,2" d="M50 249l924 0"/>
<text stroke="none" fill="white" font-size="16" x="18" y="257">
2.0
</text>
<path stroke="white" stroke-dasharray="1,2" d="M50 158l924 0"/>
<text stroke="none" fill="white" font-size="16" x="18" y="166">
3.0
</text>
<path stroke="white" stroke-dasharray="1,2" d="M50 67l924 0"/>
<text stroke="none" fill="white" font-size="16" x="18" y="75">
4.0
</text>
<text stroke="none" fill="white" font-size="16" x="10" y="32">
     
</text>
<path stroke="red" d="M462 23l46 0"/>
<text stroke="none" fill="white" font-size="16" x="518" y="32">
x1.vsampled_p
</text>
<path stroke="red" d="M50 431l1 0 1 -7 0 -15 1 -15 0 -4 1 1M54 415l0 -39 1 -5 0 -15 1 -2 0 -2 1 -2 2 0 1 -1 4 0M64 350l0 -1M64 350l4 0 1 -1 48 0 1 -3 0 -2 1 -1 0 -1 1 0 1 -1 418 0M539 342l0 -1M539 342l15 0 0 -1 12 0 1 1 0 -1M567 342l13 0 0 -1"/>
<path stroke="red" d="M580 341l13 0M593 342l0 -1M593 342l13 0 0 -1 13 0M619 342l0 -1M619 342l14 0 0 -1 13 0M646 342l0 -1M646 342l13 0 0 -1 13 0M672 342l0 -1M672 342l7 0M679 348l0 -7M679 348l1 1 0 -2 6 0 0 -1M686 347l20 0M706 350l0 -3M706 350l1 -1"/>
<path stroke="red" d="M707 349l18 0M725 350l0 -1 26 0M751 350l0 -1 27 0M778 350l0 -1 26 0M804 350l0 -1 27 0M831 350l0 -1 26 0M857 350l0 -1 26 0M883 350l0 -1 27 0M910 350l0 -1 8 0 0 -8 1 0 0 -1M919 341l1 0 1 1 2 0 0 -1 13 0M936 342l0 -1M936 342l14 0"/>
<path stroke="red" d="M950 342l0 -1 24 0"/>
<path stroke="blue" d="M50 23l46 0"/>
<text stroke="none" fill="white" font-size="16" x="106" y="32">
x1.vsampled_n
</text>
<path stroke="blue" d="M50 431l1 0 1 -7 0 -15 1 -14 0 -5 1 2M54 415l0 -39 1 -5 0 -15 1 -2 0 -2 1 -2 2 0 1 -1 4 0M64 350l0 -1M64 350l4 0 1 -1 48 0M117 350l0 -1M117 350l1 2M118 354l0 -2M118 354l1 2 1 1 426 0 0 -21 1 -1 0 -23 1 -7 0 -7 2 -2 4 0"/>
<path stroke="blue" d="M554 296l0 -1M554 296l13 0M567 297l0 -1 7 0M574 324l0 -28M574 324l1 8M575 338l0 -6M575 338l1 1 0 -1 1 -1 3 0 0 -1M580 337l20 0M600 354l0 -17M600 354l1 2M601 361l0 -5M601 360l1 -2 0 -1 23 0 0 -9 1 -2 0 -6 1 -1 19 0M646 340l0 -1"/>
<path stroke="blue" d="M646 339l7 0M653 348l0 -9M653 348l1 3 0 -1 1 0 1 -1 16 0M672 350l0 -1 26 0 1 1 0 -1 26 0M725 350l0 -1 8 0 0 -3M733 347l18 0M751 348l0 -1 8 0M759 350l0 -3M759 349l1 0 1 -1 17 0M778 349l0 -1 7 0M785 350l0 -2M785 350l1 0 0 -1"/>
<path stroke="blue" d="M786 349l27 0M813 350l0 -1 17 0 1 1 0 -1 87 0M918 360l0 -11M918 360l1 0 0 -3 55 0"/>
<path stroke="#FFA500" d="M462 39l46 0"/>
<text stroke="none" fill="white" font-size="16" x="518" y="48">
x1.vsampled_p-x1.vsampled_n
</text>
<path stroke="#FFA500" d="M50 431l67 0 0 -1 1 -5 0 -4 1 -3 0 -1 1 -1 1 0 1 -1 418 0M540 416l0 -1M540 416l1 0 0 -1 5 0M546 436l0 -21M546 436l1 2M547 461l0 -23M547 461l1 7M548 474l0 -6M548 474l1 1M549 476l0 -1M549 476l1 0 1 1 15 0 1 -1M567 477l0 -2"/>
<path stroke="#FFA500" d="M567 477l7 0 0 -29 1 -7 0 -7 1 0M576 435l0 -1M576 435l1 0M577 436l0 -1M577 436l23 0 0 -17 1 -3 0 -4M601 413l1 1M602 415l0 -1M602 415l17 0M619 416l0 -1 1 0M620 416l0 -1 5 0M625 425l0 -10M625 425l1 1M626 433l0 -7M626 433l1 0"/>
<path stroke="#FFA500" d="M627 434l0 -1M627 434l1 0 0 -1 25 0 0 -9 1 -2 1 1 24 0M679 430l0 -7M679 430l1 0 0 -2 26 0M706 432l0 -4M706 431l27 0M733 434l0 -3M733 433l26 0 0 -2M759 432l26 0 0 -2 1 1 27 0 0 -1M813 431l105 0 0 -19 1 -1M919 415l0 -4"/>
<path stroke="#FFA500" d="M919 415l17 0M936 416l0 -1M936 416l1 0 0 -1 37 0"/>
<path stroke="green" d="M50 39l46 0"/>
<text stroke="none" fill="white" font-size="16" x="106" y="48">
x1.sw_sample-2
</text>
<path stroke="green" d="M50 613l1 0 1 -9 0 -21 1 -21M53 581l0 -25M53 581l1 29M54 613l0 -3M54 613l63 0M117 620l0 -172M117 449l422 0M539 614l0 -171M539 613l422 0M961 618l0 -170 1 1 12 0"/>
<path stroke="#FFC0C5" d="M462 55l46 0"/>
<text stroke="none" fill="white" font-size="16" x="518" y="64">
x1.comp_out_p+2
</text>
<path stroke="#FFC0C5" d="M50 249l1 0 1 -9 0 -22 1 -18 0 -4M53 198l1 5M54 249l0 -46M54 249l487 0 1 1 0 -166M542 85l13 0M555 249l0 -173M555 249l66 0M621 251l0 -168M621 85l13 0M634 249l0 -172M634 249l39 0M673 250l0 -67 1 -85 0 -14M674 85l13 0M687 249l0 -172"/>
<path stroke="#FFC0C5" d="M687 249l13 0 0 -166M700 85l13 0 0 -9 1 140M714 249l0 -33M714 249l14 0 0 -164 12 0M740 249l0 -173M740 249l93 0 1 1 0 -166M834 85l11 0 0 -2M845 85l1 150M846 249l0 -14M846 249l91 0 1 2 0 -168M938 85l13 0M951 249l0 -172"/>
<path stroke="#FFC0C5" d="M951 249l23 0"/>
<path stroke="#A52A2A" d="M50 55l46 0"/>
<text stroke="none" fill="white" font-size="16" x="106" y="64">
x1.comp_out_n-2
</text>
<path stroke="#A52A2A" d="M50 613l1 0 1 -9 0 -22 1 -19M53 564l0 -3M53 564l1 6M54 613l0 -43M54 613l514 0M568 619l0 -172M568 449l13 0 0 -8 1 158M582 613l0 -14M582 613l12 0 0 -166M594 448l1 1 13 0M608 613l0 -173M608 613l39 0M647 618l0 -171M647 449l14 0"/>
<path stroke="#A52A2A" d="M661 613l0 -174M661 613l12 0 1 1 0 -1 79 0 0 -165M753 449l13 0M766 613l0 -173M766 613l14 0 0 -165M780 449l13 0M793 613l0 -174M793 613l14 0 0 -151 1 -13 0 -1M808 449l11 0M819 613l0 -169M819 613l41 0 0 -165 1 1 11 0M872 613l0 -174"/>
<path stroke="#A52A2A" d="M872 613l14 0 1 -158 0 -7M887 449l11 0M898 613l0 -174M898 613l15 0 0 -165M913 449l12 0M925 614l0 -173M925 613l49 0"/>
</svg>
