<?xml version="1.0" standalone="yes"?>
<!DOCTYPE svg PUBLIC "-//W3C//DTD SVG 1.1//EN"
 "http://www.w3.org/Graphics/SVG/1.1/DTD/svg11.dtd">
<svg xmlns="http://www.w3.org/2000/svg" version="1.1"
  width="100%" height="100%" viewBox="0 0 1024 768"
  style="fill: none; font-family: Helvetica;
 font: Helvetica;
">

<!-- Creator: NGspice -->

<rect x="0" y="0" width="1024" height="768" fill="black" stroke="none"/>
<text stroke="none" fill="white" font-size="16" x="358" y="752">
time
</text>
<text stroke="none" fill="white" font-size="16" x="10" y="16">
tran1: run1044_vin0.0180163
</text>
<path stroke="white" d="M50 704l0 -637"/>
<text stroke="none" fill="white" font-size="16" x="35" y="728">
0.0
</text>
<path stroke="white" stroke-dasharray="1,2" d="M182 704l0 -637"/>
<text stroke="none" fill="white" font-size="16" x="157" y="728">
100.0
</text>
<path stroke="white" stroke-dasharray="1,2" d="M314 704l0 -637"/>
<text stroke="none" fill="white" font-size="16" x="289" y="728">
200.0
</text>
<path stroke="white" stroke-dasharray="1,2" d="M446 704l0 -637"/>
<text stroke="none" fill="white" font-size="16" x="421" y="728">
300.0
</text>
<path stroke="white" stroke-dasharray="1,2" d="M578 704l0 -637"/>
<text stroke="none" fill="white" font-size="16" x="553" y="728">
400.0
</text>
<path stroke="white" stroke-dasharray="1,2" d="M710 704l0 -637"/>
<text stroke="none" fill="white" font-size="16" x="685" y="728">
500.0
</text>
<path stroke="white" stroke-dasharray="1,2" d="M842 704l0 -637"/>
<text stroke="none" fill="white" font-size="16" x="817" y="728">
600.0
</text>
<path stroke="white" stroke-dasharray="1,2" d="M974 704l0 -637"/>
<text stroke="none" fill="white" font-size="16" x="949" y="728">
700.0
</text>
<text stroke="none" fill="white" font-size="16" x="614" y="752">
ns
</text>
<path stroke="white" stroke-dasharray="1,2" d="M50 704l924 0"/>
<text stroke="none" fill="white" font-size="16" x="8" y="712">
-3.0
</text>
<path stroke="white" stroke-dasharray="1,2" d="M50 613l924 0"/>
<text stroke="none" fill="white" font-size="16" x="8" y="621">
-2.0
</text>
<path stroke="white" stroke-dasharray="1,2" d="M50 522l924 0"/>
<text stroke="none" fill="white" font-size="16" x="8" y="530">
-1.0
</text>
<path stroke="white" d="M50 431l924 0"/>
<text stroke="none" fill="white" font-size="16" x="18" y="439">
0.0
</text>
<path stroke="white" stroke-dasharray="1,2" d="M50 340l924 0"/>
<text stroke="none" fill="white" font-size="16" x="18" y="348">
1.0
</text>
<path stroke="white" stroke-dasharray="1,2" d="M50 249l924 0"/>
<text stroke="none" fill="white" font-size="16" x="18" y="257">
2.0
</text>
<path stroke="white" stroke-dasharray="1,2" d="M50 158l924 0"/>
<text stroke="none" fill="white" font-size="16" x="18" y="166">
3.0
</text>
<path stroke="white" stroke-dasharray="1,2" d="M50 67l924 0"/>
<text stroke="none" fill="white" font-size="16" x="18" y="75">
4.0
</text>
<text stroke="none" fill="white" font-size="16" x="10" y="32">
     
</text>
<path stroke="red" d="M462 23l46 0"/>
<text stroke="none" fill="white" font-size="16" x="518" y="32">
x1.vsampled_p
</text>
<path stroke="red" d="M50 431l1 0 1 -7 0 -15 1 -15 0 -5 1 2M54 410l0 -35 1 -4 0 -15 1 -1 0 -3 2 -2 1 0 1 -1 58 0 0 -1 2 0 1 -1 418 0M539 348l0 -1M539 348l15 0 0 -1M554 348l26 0 0 -1M580 348l26 0 0 -1M606 348l27 0 0 -1M633 348l26 0 0 -1M659 348l27 0"/>
<path stroke="red" d="M686 348l0 -1M686 348l20 0M706 351l0 -3M706 351l1 0 0 -1 18 0M725 351l0 -1 7 0 0 -3M732 348l27 0M759 350l0 -2M759 350l1 -1 18 0M778 350l0 -1 26 0M804 350l0 -1 27 0M831 350l0 -1 26 0M857 350l0 -1 26 0M883 350l0 -1 27 0M910 350l0 -1"/>
<path stroke="red" d="M910 349l7 0M917 350l0 -1M917 350l1 0 0 -3 1 1 4 0 0 -1M923 348l27 0 0 -1M950 348l12 0 0 -1 12 0"/>
<path stroke="blue" d="M50 23l46 0"/>
<text stroke="none" fill="white" font-size="16" x="106" y="32">
x1.vsampled_n
</text>
<path stroke="blue" d="M50 431l1 0 1 -7 0 -15 1 -14 0 -6 1 2M54 410l0 -35 1 -4 0 -15 1 -1 0 -3 2 -2 1 0 1 -1 57 0 2 2 428 0 0 -47 1 -7 0 -3 1 -2 0 -1 1 -1 4 0 0 -1 1 1 11 0 0 -1M566 290l1 0M567 291l0 -1 7 0M574 320l0 -30M574 320l1 7M575 332l0 -5"/>
<path stroke="blue" d="M575 332l1 0 1 -1 3 0 0 -1 13 0M593 331l0 -1M593 331l7 0M600 347l0 -16M600 347l1 3M601 355l0 -5M601 354l1 -1 0 -2 24 0 0 -17 1 -1 19 0M646 334l0 -1 7 0M653 342l0 -9M653 342l1 2M654 345l0 -1 1 0 0 -1 17 0M672 344l0 -1 7 0"/>
<path stroke="blue" d="M679 348l0 -5M679 348l1 0M680 351l0 -3M680 349l1 0 0 -1 17 0 1 1 0 -1 26 0M725 349l0 -1 26 0M751 349l0 -1M751 349l1 0 0 -1 26 0M778 349l0 -1 7 0M785 349l0 -1M785 349l1 1 0 -1 26 0M812 350l0 -1 18 0 1 1 0 -1 86 0M917 350l0 -1"/>
<path stroke="blue" d="M917 350l1 0M918 352l0 -2M918 351l56 0"/>
<path stroke="#FFA500" d="M462 39l46 0"/>
<text stroke="none" fill="white" font-size="16" x="518" y="48">
x1.vsampled_p-x1.vsampled_n
</text>
<path stroke="#FFA500" d="M50 431l67 0 1 -1 0 -1 1 -1 428 0M547 474l0 -46M547 474l1 7M548 485l0 -4M548 485l1 2M549 488l0 -1M549 488l1 0M550 489l0 -1M550 489l4 0M554 490l0 -1 13 0 0 -1M567 489l7 0 0 -30 1 -7 0 -6 1 0M576 447l0 -1M576 447l1 1 23 0"/>
<path stroke="#FFA500" d="M600 448l0 -17 1 -3 0 -4M601 425l1 1M602 427l0 -1M602 427l1 1 23 0M626 444l0 -16M626 444l1 1M627 446l0 -1M627 446l19 0 0 -1M646 446l7 0 0 -9 1 -2 0 -1M654 435l5 0M659 436l0 -1 13 0M672 436l0 -1 7 0 0 -4 1 -1 0 -2M680 430l26 0"/>
<path stroke="#FFA500" d="M706 434l0 -4M706 434l1 0 0 -1 24 0 1 -1 0 -2 1 0M733 431l0 -1M733 431l26 0M759 433l0 -2M759 432l26 0 0 -1 27 0 0 -1M812 431l26 0M838 432l0 -1 79 0M917 432l0 -2M917 431l1 -1 0 -3 1 1 55 0"/>
<path stroke="green" d="M50 39l46 0"/>
<text stroke="none" fill="white" font-size="16" x="106" y="48">
x1.sw_sample-2
</text>
<path stroke="green" d="M50 613l1 0 1 -9 0 -21 1 -21 0 -8 1 43M54 613l0 -16M54 613l63 0M117 620l0 -172M117 449l422 0M539 614l0 -171M539 613l422 0M961 618l0 -170 1 1 12 0"/>
<path stroke="#FFC0C5" d="M462 55l46 0"/>
<text stroke="none" fill="white" font-size="16" x="518" y="64">
x1.comp_out_p+2
</text>
<path stroke="#FFC0C5" d="M50 249l1 0 1 -9 0 -22 1 -18 0 -5M53 197l1 5M54 249l0 -159 1 17M55 249l0 -142M55 249l487 0 0 -165M542 85l13 0M555 250l0 -172M555 249l66 0M621 250l0 -166M621 85l13 0M634 249l0 -172M634 249l66 0 0 -164 1 -1M701 85l0 -1"/>
<path stroke="#FFC0C5" d="M701 85l12 0 0 -8 1 161M714 249l0 -11M714 249l39 0M753 250l0 -1M753 250l1 -146 0 -20M754 85l12 0M766 250l0 -171M766 250l1 -1 67 0 0 -165M834 85l11 0 0 -10 1 142M846 249l0 -32M846 249l92 0 0 -165M938 85l13 0M951 250l0 -173"/>
<path stroke="#FFC0C5" d="M951 249l23 0"/>
<path stroke="#A52A2A" d="M50 55l46 0"/>
<text stroke="none" fill="white" font-size="16" x="106" y="64">
x1.comp_out_n-2
</text>
<path stroke="#A52A2A" d="M50 613l1 0 1 -9 0 -22 1 -19 0 -4M53 563l1 6M54 613l0 -159 1 15M55 613l0 -144M55 613l513 0M568 614l0 -167M568 449l13 0 0 -8 1 157M582 613l0 -15M582 613l12 0 0 -166M594 449l14 0M608 613l0 -172M608 613l39 0 0 -166M647 449l14 0"/>
<path stroke="#A52A2A" d="M661 614l0 -172M661 613l12 0M673 614l0 -1M673 614l1 -60 0 -107M674 449l13 0M687 613l0 -173M687 613l40 0 0 -165M727 449l13 0M740 614l0 -174M740 613l40 0 0 -165M780 449l13 0M793 613l0 -168M793 613l14 0 0 -165 1 1 11 0"/>
<path stroke="#A52A2A" d="M819 614l0 -171M819 613l41 0 0 -165M860 449l12 0M872 613l0 -168M872 613l14 0 0 -158 1 -7M887 449l0 -1M887 449l11 0M898 613l0 -168M898 613l14 0 1 -158 0 -7M913 449l12 0M925 613l0 -173M925 613l49 0"/>
</svg>
