<?xml version="1.0" standalone="yes"?>
<!DOCTYPE svg PUBLIC "-//W3C//DTD SVG 1.1//EN"
 "http://www.w3.org/Graphics/SVG/1.1/DTD/svg11.dtd">
<svg xmlns="http://www.w3.org/2000/svg" version="1.1"
  width="100%" height="100%" viewBox="0 0 1024 768"
  style="fill: none; font-family: Helvetica;
 font: Helvetica;
">

<!-- Creator: NGspice -->

<rect x="0" y="0" width="1024" height="768" fill="black" stroke="none"/>
<text stroke="none" fill="white" font-size="16" x="358" y="752">
time
</text>
<text stroke="none" fill="white" font-size="16" x="10" y="16">
tran1: run1776_vin0.661375
</text>
<path stroke="white" d="M50 704l0 -637"/>
<text stroke="none" fill="white" font-size="16" x="35" y="728">
0.0
</text>
<path stroke="white" stroke-dasharray="1,2" d="M182 704l0 -637"/>
<text stroke="none" fill="white" font-size="16" x="157" y="728">
100.0
</text>
<path stroke="white" stroke-dasharray="1,2" d="M314 704l0 -637"/>
<text stroke="none" fill="white" font-size="16" x="289" y="728">
200.0
</text>
<path stroke="white" stroke-dasharray="1,2" d="M446 704l0 -637"/>
<text stroke="none" fill="white" font-size="16" x="421" y="728">
300.0
</text>
<path stroke="white" stroke-dasharray="1,2" d="M578 704l0 -637"/>
<text stroke="none" fill="white" font-size="16" x="553" y="728">
400.0
</text>
<path stroke="white" stroke-dasharray="1,2" d="M710 704l0 -637"/>
<text stroke="none" fill="white" font-size="16" x="685" y="728">
500.0
</text>
<path stroke="white" stroke-dasharray="1,2" d="M842 704l0 -637"/>
<text stroke="none" fill="white" font-size="16" x="817" y="728">
600.0
</text>
<path stroke="white" stroke-dasharray="1,2" d="M974 704l0 -637"/>
<text stroke="none" fill="white" font-size="16" x="949" y="728">
700.0
</text>
<text stroke="none" fill="white" font-size="16" x="614" y="752">
ns
</text>
<path stroke="white" stroke-dasharray="1,2" d="M50 704l924 0"/>
<text stroke="none" fill="white" font-size="16" x="8" y="712">
-3.0
</text>
<path stroke="white" stroke-dasharray="1,2" d="M50 613l924 0"/>
<text stroke="none" fill="white" font-size="16" x="8" y="621">
-2.0
</text>
<path stroke="white" stroke-dasharray="1,2" d="M50 522l924 0"/>
<text stroke="none" fill="white" font-size="16" x="8" y="530">
-1.0
</text>
<path stroke="white" d="M50 431l924 0"/>
<text stroke="none" fill="white" font-size="16" x="18" y="439">
0.0
</text>
<path stroke="white" stroke-dasharray="1,2" d="M50 340l924 0"/>
<text stroke="none" fill="white" font-size="16" x="18" y="348">
1.0
</text>
<path stroke="white" stroke-dasharray="1,2" d="M50 249l924 0"/>
<text stroke="none" fill="white" font-size="16" x="18" y="257">
2.0
</text>
<path stroke="white" stroke-dasharray="1,2" d="M50 158l924 0"/>
<text stroke="none" fill="white" font-size="16" x="18" y="166">
3.0
</text>
<path stroke="white" stroke-dasharray="1,2" d="M50 67l924 0"/>
<text stroke="none" fill="white" font-size="16" x="18" y="75">
4.0
</text>
<text stroke="none" fill="white" font-size="16" x="10" y="32">
     
</text>
<path stroke="red" d="M462 23l46 0"/>
<text stroke="none" fill="white" font-size="16" x="518" y="32">
x1.vsampled_p
</text>
<path stroke="red" d="M50 431l1 0 1 -7 0 -15 1 -15 0 -4 1 1M54 414l0 -37 1 -4 0 -17 1 -2 0 -2 1 -2 2 0 1 -1 4 0M64 350l0 -1M64 350l4 0 1 -1 48 0 0 -1 1 -11 0 -30 1 -5 0 -7 1 -3 1 -2 1 -1 418 0M540 290l0 -1 26 0 1 1M567 291l0 -2 7 0M574 315l0 -26"/>
<path stroke="red" d="M574 315l1 9 1 5M576 330l0 -1M576 330l17 0M593 331l0 -1 7 0M600 345l0 -15M600 345l1 3M601 351l0 -3M601 351l1 0 1 -1 2 0M605 351l0 -1M605 351l1 0 0 -1 13 0M619 351l0 -1M619 351l1 0 0 -1M620 351l5 0 1 -1 0 -15 1 -1 0 -1 6 0"/>
<path stroke="red" d="M633 333l0 -1M633 333l20 0M653 340l0 -7M653 340l1 2M654 343l0 -1M654 343l25 0M679 347l0 -4M679 347l1 1M680 349l0 -1 26 0M706 351l0 -3M706 351l1 0 0 -1 2 0M709 351l0 -1M709 351l3 0 0 -1 13 0M725 351l0 -1 1 0M726 351l0 -1"/>
<path stroke="red" d="M726 351l5 0 0 -3 20 0M751 349l0 -1 1 1 0 -1 26 0M778 349l0 -1 7 0 1 1 26 0M812 350l0 -1 19 0M831 350l0 -1 26 0M857 350l0 -1 26 0M883 350l0 -1 27 0M910 350l0 -1 8 0M918 351l0 -24 1 -4 0 -20 1 -3 0 -7 1 -1 0 -2 2 0 0 -1 13 0"/>
<path stroke="red" d="M936 291l0 -2 38 0"/>
<path stroke="blue" d="M50 23l46 0"/>
<text stroke="none" fill="white" font-size="16" x="106" y="32">
x1.vsampled_n
</text>
<path stroke="blue" d="M50 431l1 0 1 -7 0 -15 1 -14 0 -5 1 2M54 414l0 -37 1 -4 0 -17 1 -2 0 -2 1 -2 2 0 1 -1 4 0M64 350l0 -1M64 350l4 0 1 -1 48 0M117 365l0 -16M117 365l1 15M118 399l0 -19M118 399l1 2M119 406l0 -5M119 406l2 2M121 409l0 -1M121 409l419 0"/>
<path stroke="blue" d="M540 410l0 -1 6 0M546 410l0 -25 1 -3 0 -21 1 -7 0 -3 1 -1 0 -1 1 -1 17 0M567 349l0 -1 26 0M593 349l0 -1 26 0M619 349l0 -1 27 0M646 349l0 -1 26 0M672 349l0 -1 27 0M699 349l0 -1 26 0M725 349l0 -1 26 0M751 349l0 -1 8 0M759 351l0 -3"/>
<path stroke="blue" d="M759 350l1 0 0 -1 18 0M778 350l0 -1 26 0M804 350l0 -1 26 0 1 1 0 -1 87 0M918 389l0 -43M918 389l1 6M919 414l0 -19M919 414l1 0 0 -3 1 0 0 -1 2 0 0 -1 13 0M936 410l0 -1 38 0"/>
<path stroke="#FFA500" d="M462 39l46 0"/>
<text stroke="none" fill="white" font-size="16" x="518" y="48">
x1.vsampled_p-x1.vsampled_n
</text>
<path stroke="#FFA500" d="M50 431l2 0 0 -1 2 0M54 431l0 -1M54 431l63 0 0 -17 1 -26 0 -49 1 -7 0 -12 1 -4 1 -3 0 -1 1 -1 418 0M540 312l0 -1 6 0M546 335l0 -25M546 335l1 3M547 359l0 -21M547 359l1 7M548 369l0 -3M548 369l1 2M549 372l0 -1M549 372l18 0"/>
<path stroke="#FFA500" d="M567 373l0 -1 7 0M574 398l0 -26M574 398l1 9 1 5M576 413l0 -1M576 413l24 0M600 428l0 -15M600 428l1 3M601 434l0 -3M601 434l1 0 0 -1 4 0M606 434l0 -1 20 0 0 -15 1 -1 0 -1 6 0 0 -1M633 416l1 0 0 -1M634 416l12 0 0 -1M646 416l7 0"/>
<path stroke="#FFA500" d="M653 423l0 -8M653 423l1 2M654 426l0 -1M654 426l18 0 0 -1M672 426l7 0M679 430l0 -4M679 430l1 1M680 432l0 -1 26 0M706 434l0 -3M706 434l1 0 0 -1 5 0M712 434l0 -1 19 0 0 -2 28 0 0 -3M759 429l1 1 26 0M786 431l0 -1M786 431l18 0"/>
<path stroke="#FFA500" d="M804 431l0 -1M804 431l34 0M838 432l0 -1 80 0M918 434l0 -65 1 -10 0 -39 1 -3 0 -4 1 -1 0 -1 2 0 0 -1M923 311l13 0M936 312l0 -1 14 0 0 -1M950 311l24 0"/>
<path stroke="green" d="M50 39l46 0"/>
<text stroke="none" fill="white" font-size="16" x="106" y="48">
x1.sw_sample-2
</text>
<path stroke="green" d="M50 613l1 0 1 -9 0 -21 1 -21M53 579l0 -23M53 579l1 31M54 613l0 -3M54 613l63 0M117 620l0 -172M117 449l422 0M539 614l0 -171M539 613l422 0M961 618l0 -170 1 1 12 0"/>
<path stroke="#FFC0C5" d="M462 55l46 0"/>
<text stroke="none" fill="white" font-size="16" x="518" y="64">
x1.comp_out_p+2
</text>
<path stroke="#FFC0C5" d="M50 249l1 0 1 -9 0 -22 1 -18 0 -4M53 198l1 5M54 249l0 -46M54 248l1 1 487 0 0 -166M542 85l13 0M555 249l0 -172M555 249l13 0M568 250l0 -166M568 85l13 0 0 -8 1 153M582 249l0 -19M582 249l12 0M594 253l0 -169M594 85l14 0M608 249l0 -171"/>
<path stroke="#FFC0C5" d="M608 249l39 0M647 253l0 -169M647 85l14 0M661 250l0 -172M661 249l12 0M673 253l0 -4M673 253l1 -126 0 -44M674 85l13 0M687 250l0 -173M687 249l13 0 1 -148 0 -17M701 85l12 0 0 -8 1 149M714 249l0 -23M714 249l66 0 0 -165M780 85l13 0"/>
<path stroke="#FFC0C5" d="M793 249l0 -172M793 249l14 0 0 -165M807 85l12 0M819 249l0 -167M819 249l15 0 0 -164 11 0 0 -10 1 143M846 249l0 -31M846 249l91 0M937 250l0 -1M937 250l1 -50 0 -116M938 85l13 0M951 249l0 -172M951 249l23 0"/>
<path stroke="#A52A2A" d="M50 55l46 0"/>
<text stroke="none" fill="white" font-size="16" x="106" y="64">
x1.comp_out_n-2
</text>
<path stroke="#A52A2A" d="M50 613l1 0 1 -9 0 -22 1 -19M53 564l0 -3M53 564l1 6M54 614l0 -51M54 588l1 23M55 613l0 -2M55 613l566 0 0 -165M621 449l13 0M634 613l0 -173M634 613l93 0 0 -165M727 449l13 0M740 613l0 -172M740 613l13 0 1 -149 0 -16M754 449l12 0"/>
<path stroke="#A52A2A" d="M766 613l0 -172M766 613l94 0 0 -165M860 449l12 0M872 613l0 -174M872 613l14 0 1 -148 0 -17M887 449l11 0M898 613l0 -174M898 613l15 0 0 -165M913 449l12 0M925 613l0 -172M925 613l13 0M938 614l0 -1 36 0"/>
</svg>
