<?xml version="1.0" standalone="yes"?>
<!DOCTYPE svg PUBLIC "-//W3C//DTD SVG 1.1//EN"
 "http://www.w3.org/Graphics/SVG/1.1/DTD/svg11.dtd">
<svg xmlns="http://www.w3.org/2000/svg" version="1.1"
  width="100%" height="100%" viewBox="0 0 1024 768"
  style="fill: none; font-family: Helvetica;
 font: Helvetica;
">

<!-- Creator: NGspice -->

<rect x="0" y="0" width="1024" height="768" fill="black" stroke="none"/>
<text stroke="none" fill="white" font-size="16" x="358" y="752">
time
</text>
<text stroke="none" fill="white" font-size="16" x="10" y="16">
tran1: run1779_vin0.664011
</text>
<path stroke="white" d="M50 704l0 -637"/>
<text stroke="none" fill="white" font-size="16" x="35" y="728">
0.0
</text>
<path stroke="white" stroke-dasharray="1,2" d="M182 704l0 -637"/>
<text stroke="none" fill="white" font-size="16" x="157" y="728">
100.0
</text>
<path stroke="white" stroke-dasharray="1,2" d="M314 704l0 -637"/>
<text stroke="none" fill="white" font-size="16" x="289" y="728">
200.0
</text>
<path stroke="white" stroke-dasharray="1,2" d="M446 704l0 -637"/>
<text stroke="none" fill="white" font-size="16" x="421" y="728">
300.0
</text>
<path stroke="white" stroke-dasharray="1,2" d="M578 704l0 -637"/>
<text stroke="none" fill="white" font-size="16" x="553" y="728">
400.0
</text>
<path stroke="white" stroke-dasharray="1,2" d="M710 704l0 -637"/>
<text stroke="none" fill="white" font-size="16" x="685" y="728">
500.0
</text>
<path stroke="white" stroke-dasharray="1,2" d="M842 704l0 -637"/>
<text stroke="none" fill="white" font-size="16" x="817" y="728">
600.0
</text>
<path stroke="white" stroke-dasharray="1,2" d="M974 704l0 -637"/>
<text stroke="none" fill="white" font-size="16" x="949" y="728">
700.0
</text>
<text stroke="none" fill="white" font-size="16" x="614" y="752">
ns
</text>
<path stroke="white" stroke-dasharray="1,2" d="M50 704l924 0"/>
<text stroke="none" fill="white" font-size="16" x="8" y="712">
-2.5
</text>
<path stroke="white" stroke-dasharray="1,2" d="M50 655l924 0"/>
<text stroke="none" fill="white" font-size="16" x="8" y="663">
-2.0
</text>
<path stroke="white" stroke-dasharray="1,2" d="M50 606l924 0"/>
<text stroke="none" fill="white" font-size="16" x="8" y="614">
-1.5
</text>
<path stroke="white" stroke-dasharray="1,2" d="M50 557l924 0"/>
<text stroke="none" fill="white" font-size="16" x="8" y="565">
-1.0
</text>
<path stroke="white" stroke-dasharray="1,2" d="M50 508l924 0"/>
<text stroke="none" fill="white" font-size="16" x="8" y="516">
-0.5
</text>
<path stroke="white" d="M50 459l924 0"/>
<text stroke="none" fill="white" font-size="16" x="18" y="467">
0.0
</text>
<path stroke="white" stroke-dasharray="1,2" d="M50 410l924 0"/>
<text stroke="none" fill="white" font-size="16" x="18" y="418">
0.5
</text>
<path stroke="white" stroke-dasharray="1,2" d="M50 361l924 0"/>
<text stroke="none" fill="white" font-size="16" x="18" y="369">
1.0
</text>
<path stroke="white" stroke-dasharray="1,2" d="M50 312l924 0"/>
<text stroke="none" fill="white" font-size="16" x="18" y="320">
1.5
</text>
<path stroke="white" stroke-dasharray="1,2" d="M50 263l924 0"/>
<text stroke="none" fill="white" font-size="16" x="18" y="271">
2.0
</text>
<path stroke="white" stroke-dasharray="1,2" d="M50 214l924 0"/>
<text stroke="none" fill="white" font-size="16" x="18" y="222">
2.5
</text>
<path stroke="white" stroke-dasharray="1,2" d="M50 165l924 0"/>
<text stroke="none" fill="white" font-size="16" x="18" y="173">
3.0
</text>
<path stroke="white" stroke-dasharray="1,2" d="M50 116l924 0"/>
<text stroke="none" fill="white" font-size="16" x="18" y="124">
3.5
</text>
<path stroke="white" stroke-dasharray="1,2" d="M50 67l924 0"/>
<text stroke="none" fill="white" font-size="16" x="18" y="75">
4.0
</text>
<text stroke="none" fill="white" font-size="16" x="10" y="32">
     
</text>
<path stroke="red" d="M462 23l46 0"/>
<text stroke="none" fill="white" font-size="16" x="518" y="32">
x1.vsampled_p
</text>
<path stroke="red" d="M50 459l1 0 1 -7 0 -17 1 -16 0 -5 1 2M54 441l0 -40 1 -5 0 -17 1 -3 0 -2 1 -2 1 0 0 -1 59 0 0 -2 1 -11 0 -33 1 -5 0 -8 1 -3 1 -2 0 -1 419 0M540 307l0 -1 14 0 0 -1M554 306l13 0M567 308l0 -2 7 0M574 333l0 -27M574 333l1 9 1 7"/>
<path stroke="red" d="M576 350l0 -1M576 350l17 0M593 351l0 -1 7 0M600 365l0 -15M600 365l1 3M601 373l0 -5M601 373l1 0 0 -1 24 0 0 -13 1 -1 0 -4 1 -1 5 0 0 -1M633 353l20 0M653 361l0 -8M653 361l1 3 25 0M679 368l0 -4M679 368l1 1M680 370l0 -1 19 0"/>
<path stroke="red" d="M699 370l0 -1 7 0M706 372l0 -3M706 372l1 1 0 -1 25 0 0 -3M732 370l6 0 0 -1M738 370l21 0M759 372l0 -2M759 372l1 -1 158 0M918 373l0 -45 1 -4 0 -11 1 -3 0 -1 1 -2 1 0 0 -1 1 0 0 -1M923 306l13 0M936 308l0 -2 14 0 0 -1M950 306l24 0"/>
<path stroke="blue" d="M50 23l46 0"/>
<text stroke="none" fill="white" font-size="16" x="106" y="32">
x1.vsampled_n
</text>
<path stroke="blue" d="M50 459l1 0 1 -7 0 -17 1 -15 0 -5 1 2M54 441l0 -40 1 -5 0 -17 1 -3 0 -2 1 -2 1 0 0 -1 59 0M117 388l0 -17M117 388l1 16M118 424l0 -20M118 424l1 3M119 432l0 -5M119 432l1 2 2 2 424 0 0 -23 1 -3 0 -27 1 -7 0 -3 1 -2 1 0 0 -1"/>
<path stroke="blue" d="M550 370l17 0M567 371l0 -1 26 0M593 371l0 -1 53 0M646 371l0 -1 139 0M785 372l0 -2M785 372l1 0 0 -1 5 0 0 -1M791 371l21 0M812 372l0 -1M812 372l1 0 0 -1 26 0 0 -1 1 0M840 371l0 -1M840 371l4 0 0 -1M844 371l26 0 0 -1 1 1 26 0"/>
<path stroke="blue" d="M897 371l0 -1M897 371l20 0M917 372l0 -1M917 372l1 -1M918 438l0 -70M918 438l1 2M919 441l0 -2 1 -1 0 -1 1 0 0 -1 53 0"/>
<path stroke="#FFA500" d="M462 39l46 0"/>
<text stroke="none" fill="white" font-size="16" x="518" y="48">
x1.vsampled_p-x1.vsampled_n
</text>
<path stroke="#FFA500" d="M50 459l2 0 0 -1 2 0M54 459l0 -1M54 459l63 0 0 -18 1 -28 0 -53 1 -8 0 -13 1 -5 1 -3 0 -1 1 -1 418 0M540 330l0 -1 6 0M546 352l0 -23M546 352l1 3M547 382l0 -27M547 382l1 7M548 392l0 -3M548 392l1 2 1 1 17 0M567 396l0 -1"/>
<path stroke="#FFA500" d="M567 395l7 0M574 422l0 -27M574 422l1 9 1 7M576 439l0 -1M576 439l24 0M600 454l0 -15M600 454l1 3M601 462l0 -5M601 462l1 0 0 -1 24 0 0 -13 1 -1 0 -4 1 -1 18 0 0 -1M646 442l7 0M653 450l0 -8M653 450l1 3 18 0 0 -1M672 453l7 0"/>
<path stroke="#FFA500" d="M679 457l0 -4M679 457l1 1M680 459l0 -1 26 0M706 461l0 -3M706 461l1 1 0 -1 25 0 0 -3M732 459l19 0 0 -1 1 0M752 459l0 -1M752 459l7 0M759 461l0 -2M759 461l1 -1 25 0 0 -2 1 0M786 459l0 -1M786 459l26 0 0 -1 1 0M813 459l0 -1"/>
<path stroke="#FFA500" d="M813 459l26 0M839 460l0 -1M839 460l1 0 0 -1 77 0 0 -1 1 1M918 463l0 -114 1 -5 0 -12 1 -1 0 -1 1 0 0 -1 15 0M936 330l0 -1 38 0"/>
<path stroke="green" d="M50 39l46 0"/>
<text stroke="none" fill="white" font-size="16" x="106" y="48">
x1.sw_sample-2
</text>
<path stroke="green" d="M50 655l1 0 1 -10 0 -23 1 -21M53 619l0 -25M53 619l1 33M54 655l0 -3M54 655l63 0M117 662l0 -184 1 0M118 479l0 -1M118 479l421 0M539 656l0 -184M539 655l422 0M961 660l0 -182 1 0M962 479l0 -1M962 479l12 0"/>
<path stroke="#FFC0C5" d="M462 55l46 0"/>
<text stroke="none" fill="white" font-size="16" x="518" y="64">
x1.comp_out_p+2
</text>
<path stroke="#FFC0C5" d="M50 263l1 0 1 -10 0 -23 1 -20 0 -4M53 208l1 5M54 263l0 -50M54 262l1 1 487 0 0 -178M542 87l13 0M555 263l0 -185M555 263l13 0 0 -178M568 87l13 0 0 -9 1 165M582 263l0 -20M582 263l12 0M594 264l0 -179M594 86l1 1 13 0M608 263l0 -186"/>
<path stroke="#FFC0C5" d="M608 263l39 0 0 -178M647 87l14 0M661 264l0 -184M661 263l12 0M673 265l0 -2M673 265l1 -115 0 -65M674 87l13 0M687 263l0 -185M687 263l13 0 0 -152 1 -24 0 -2M701 87l12 0 0 -10 1 171M714 263l0 -15M714 263l39 0 0 -134 1 -40"/>
<path stroke="#FFC0C5" d="M754 89l0 -4M754 87l12 0M766 263l0 -185M766 263l69 0 0 -177 1 0M836 87l0 -1M836 87l9 0 0 -8 1 155M846 263l0 -29M846 263l91 0M937 264l0 -1M937 264l1 -52 0 -127M938 87l13 0M951 263l0 -185M951 263l23 0"/>
<path stroke="#A52A2A" d="M50 55l46 0"/>
<text stroke="none" fill="white" font-size="16" x="106" y="64">
x1.comp_out_n-2
</text>
<path stroke="#A52A2A" d="M50 655l1 0 1 -10 0 -24 1 -20M53 602l0 -3M53 602l1 7M54 656l0 -55M54 628l1 25M55 655l0 -2M55 655l566 0M621 657l0 -163 1 -16M622 479l0 -1M622 479l12 0M634 655l0 -186M634 655l93 0M727 657l0 -179M727 479l13 0M740 655l0 -186"/>
<path stroke="#A52A2A" d="M740 655l40 0 0 -178M780 479l13 0M793 655l0 -188M793 655l14 0 0 -177M807 479l12 0M819 655l0 -185M819 655l41 0 0 -177M860 479l12 0M872 655l0 -188M872 655l14 0 0 -177 1 0M887 479l0 -1M887 479l11 0M898 655l0 -188M898 655l14 0"/>
<path stroke="#A52A2A" d="M912 655l1 -159 0 -18M913 479l12 0M925 656l0 -185M925 655l13 0M938 656l0 -1 36 0"/>
</svg>
