<?xml version="1.0" standalone="yes"?>
<!DOCTYPE svg PUBLIC "-//W3C//DTD SVG 1.1//EN"
 "http://www.w3.org/Graphics/SVG/1.1/DTD/svg11.dtd">
<svg xmlns="http://www.w3.org/2000/svg" version="1.1"
  width="100%" height="100%" viewBox="0 0 1024 768"
  style="fill: none; font-family: Helvetica;
 font: Helvetica;
">

<!-- Creator: NGspice -->

<rect x="0" y="0" width="1024" height="768" fill="black" stroke="none"/>
<text stroke="none" fill="white" font-size="16" x="358" y="752">
time
</text>
<text stroke="none" fill="white" font-size="16" x="10" y="16">
tran1: run1782_vin0.666648
</text>
<path stroke="white" d="M50 704l0 -637"/>
<text stroke="none" fill="white" font-size="16" x="35" y="728">
0.0
</text>
<path stroke="white" stroke-dasharray="1,2" d="M182 704l0 -637"/>
<text stroke="none" fill="white" font-size="16" x="157" y="728">
100.0
</text>
<path stroke="white" stroke-dasharray="1,2" d="M314 704l0 -637"/>
<text stroke="none" fill="white" font-size="16" x="289" y="728">
200.0
</text>
<path stroke="white" stroke-dasharray="1,2" d="M446 704l0 -637"/>
<text stroke="none" fill="white" font-size="16" x="421" y="728">
300.0
</text>
<path stroke="white" stroke-dasharray="1,2" d="M578 704l0 -637"/>
<text stroke="none" fill="white" font-size="16" x="553" y="728">
400.0
</text>
<path stroke="white" stroke-dasharray="1,2" d="M710 704l0 -637"/>
<text stroke="none" fill="white" font-size="16" x="685" y="728">
500.0
</text>
<path stroke="white" stroke-dasharray="1,2" d="M842 704l0 -637"/>
<text stroke="none" fill="white" font-size="16" x="817" y="728">
600.0
</text>
<path stroke="white" stroke-dasharray="1,2" d="M974 704l0 -637"/>
<text stroke="none" fill="white" font-size="16" x="949" y="728">
700.0
</text>
<text stroke="none" fill="white" font-size="16" x="614" y="752">
ns
</text>
<path stroke="white" stroke-dasharray="1,2" d="M50 704l924 0"/>
<text stroke="none" fill="white" font-size="16" x="8" y="712">
-3.0
</text>
<path stroke="white" stroke-dasharray="1,2" d="M50 613l924 0"/>
<text stroke="none" fill="white" font-size="16" x="8" y="621">
-2.0
</text>
<path stroke="white" stroke-dasharray="1,2" d="M50 522l924 0"/>
<text stroke="none" fill="white" font-size="16" x="8" y="530">
-1.0
</text>
<path stroke="white" d="M50 431l924 0"/>
<text stroke="none" fill="white" font-size="16" x="18" y="439">
0.0
</text>
<path stroke="white" stroke-dasharray="1,2" d="M50 340l924 0"/>
<text stroke="none" fill="white" font-size="16" x="18" y="348">
1.0
</text>
<path stroke="white" stroke-dasharray="1,2" d="M50 249l924 0"/>
<text stroke="none" fill="white" font-size="16" x="18" y="257">
2.0
</text>
<path stroke="white" stroke-dasharray="1,2" d="M50 158l924 0"/>
<text stroke="none" fill="white" font-size="16" x="18" y="166">
3.0
</text>
<path stroke="white" stroke-dasharray="1,2" d="M50 67l924 0"/>
<text stroke="none" fill="white" font-size="16" x="18" y="75">
4.0
</text>
<text stroke="none" fill="white" font-size="16" x="10" y="32">
     
</text>
<path stroke="red" d="M462 23l46 0"/>
<text stroke="none" fill="white" font-size="16" x="518" y="32">
x1.vsampled_p
</text>
<path stroke="red" d="M50 431l1 0 1 -7 0 -15 1 -15 0 -5 1 2M54 414l0 -37 1 -4 0 -17 1 -2 0 -2 1 -2 2 0 1 -1 4 0M64 350l0 -1M64 350l4 0 1 -1 48 0 0 -1 1 -11 0 -30 1 -5 0 -8 2 -4 0 -1 2 0 1 -1 415 0M539 289l0 -1M539 289l1 0M540 290l0 -1 14 0 0 -1"/>
<path stroke="red" d="M554 289l13 0M567 290l0 -1 7 0M574 312l0 -23M574 312l1 8M575 328l0 -8M575 328l1 2 4 0 0 -1M580 330l13 0 0 -1M593 330l7 0M600 343l0 -13M600 343l1 2M601 351l0 -6M601 351l1 -1 24 0 0 -12 1 -1 0 -4 1 0 0 -1 18 0M646 333l0 -1"/>
<path stroke="red" d="M646 332l7 0M653 340l0 -8M653 340l1 1M654 343l0 -2M654 343l1 0 0 -1 17 0M672 343l0 -1 7 0M679 347l0 -5M679 347l1 1M680 349l0 -2 18 0 1 1 0 -1 7 0M706 351l0 -4M706 351l1 -1 25 0 0 -3M732 348l27 0M759 350l0 -2M759 349l54 0"/>
<path stroke="red" d="M813 350l0 -1 17 0 1 1 0 -1 87 0M918 351l0 -27 1 -5 0 -19 1 -3 0 -4 1 -2 0 -1 1 0 0 -1 1 0 0 -1M923 289l13 0M936 290l0 -1 14 0 0 -1M950 289l12 0 0 -1 12 0"/>
<path stroke="blue" d="M50 23l46 0"/>
<text stroke="none" fill="white" font-size="16" x="106" y="32">
x1.vsampled_n
</text>
<path stroke="blue" d="M50 431l1 0 1 -7 0 -15 1 -14 0 -5 1 2M54 414l0 -37 1 -4 0 -17 1 -2 0 -2 1 -2 2 0 1 -1 4 0M64 350l0 -1M64 350l4 0 1 -1 48 0M117 365l0 -16M117 365l1 15M118 399l0 -19M118 399l1 3M119 406l0 -4M119 406l1 2 2 2 424 0 0 -27 1 -4"/>
<path stroke="blue" d="M547 379l0 -19 1 -6 0 -3 1 -1 0 -1 5 0 0 -1 1 1 11 0 0 -1M566 349l1 0 0 -1M567 349l13 0 0 -1M580 349l13 0 0 -1M593 349l13 0 0 -1 1 0M607 349l0 -1M607 349l12 0 0 -1M619 349l1 0 0 -1M620 349l13 0 0 -1M633 349l13 0 0 -1M646 349l13 0"/>
<path stroke="blue" d="M659 349l0 -1 1 1 12 0 0 -1M672 349l14 0 0 -1M686 349l12 0 0 -1M698 349l1 0 0 -1M699 349l13 0 0 -1M712 349l13 0 0 -1M725 349l13 0 0 -1 1 0M739 349l0 -1M739 349l12 0 0 -1M751 349l1 0 0 -1M752 349l13 0 0 -1M765 349l13 0 0 -1"/>
<path stroke="blue" d="M778 349l7 0M785 350l0 -1M785 350l1 0 0 -1 18 0M804 350l0 -1 27 0M831 350l0 -1 26 0M857 350l0 -1 26 0M883 350l0 -1M883 350l1 -1 26 0M910 350l0 -1 8 0M918 393l0 -45M918 393l1 8M919 414l0 -13M919 414l1 0 0 -2 1 -1 0 -1 53 0"/>
<path stroke="#FFA500" d="M462 39l46 0"/>
<text stroke="none" fill="white" font-size="16" x="518" y="48">
x1.vsampled_p-x1.vsampled_n
</text>
<path stroke="#FFA500" d="M50 431l2 0 0 -1 2 0M54 431l0 -1M54 431l63 0 0 -17 1 -26 0 -49 1 -8 0 -12 1 -4 1 -3 0 -1 1 -1 418 0M540 311l0 -1 6 0M546 337l0 -27M546 337l1 4M547 360l0 -19M547 360l1 6M548 369l0 -3M548 369l1 1M549 371l0 -1M549 371l18 0"/>
<path stroke="#FFA500" d="M567 372l0 -1 6 0 1 1M574 395l0 -23M574 395l1 7M575 410l0 -8M575 410l1 2 24 0M600 425l0 -13M600 425l1 2M601 433l0 -6M601 433l1 0 0 -1 4 0M606 433l0 -1M606 433l1 -1 19 0 0 -11 1 -1 0 -5 6 0 0 -1M633 415l13 0 0 -1M646 415l7 0"/>
<path stroke="#FFA500" d="M653 422l0 -7M653 422l1 2M654 425l0 -1M654 425l18 0 0 -1M672 425l7 0M679 430l0 -5M679 430l1 1 0 -1 26 0M706 433l0 -3M706 433l1 0 0 -1 5 0M712 433l0 -1 20 0 0 -2 27 0M759 432l0 -2M759 431l6 0M765 432l0 -1 13 0M778 432l0 -1"/>
<path stroke="#FFA500" d="M778 431l7 0 0 -1 1 0M786 431l0 -1M786 431l27 0M813 432l0 -1 105 0M918 433l0 -72 1 -12 0 -32 1 -2 0 -3 1 -1 0 -1 2 0 0 -1M923 310l13 0M936 311l0 -1 14 0 0 -1M950 310l24 0"/>
<path stroke="green" d="M50 39l46 0"/>
<text stroke="none" fill="white" font-size="16" x="106" y="48">
x1.sw_sample-2
</text>
<path stroke="green" d="M50 613l1 0 1 -9 0 -21 1 -21M53 579l0 -23M53 579l1 31M54 613l0 -3M54 613l63 0M117 620l0 -172M117 449l422 0M539 614l0 -171M539 613l422 0M961 618l0 -170 1 1 12 0"/>
<path stroke="#FFC0C5" d="M462 55l46 0"/>
<text stroke="none" fill="white" font-size="16" x="518" y="64">
x1.comp_out_p+2
</text>
<path stroke="#FFC0C5" d="M50 249l1 0 1 -9 0 -22 1 -18 0 -4M53 198l1 5M54 249l0 -46M54 248l1 1 486 0 1 2 0 -168M542 85l13 0M555 249l0 -172M555 249l13 0M568 253l0 -169M568 85l13 0 0 -8 1 154M582 249l0 -18M582 249l12 0M594 250l0 -166M594 85l14 0"/>
<path stroke="#FFC0C5" d="M608 250l0 -173M608 249l39 0M647 255l0 -172M647 85l14 0M661 249l0 -171M661 249l12 0 0 -3 1 -132 0 -31M674 85l13 0M687 250l0 -172M687 249l13 0 0 -162 1 -3M701 85l0 -1M701 85l12 0 0 -8 1 162M714 250l0 -11M714 249l39 0"/>
<path stroke="#FFC0C5" d="M753 249l0 -165M753 85l13 0M766 250l0 -170M766 249l41 0 0 -165 1 1 11 0M819 249l0 -167M819 249l41 0 0 -165M860 85l12 0M872 249l0 -174M872 249l14 0 0 -149 1 -15 0 -1M887 85l11 0M898 249l0 -174M898 249l15 0 0 -165M913 85l12 0"/>
<path stroke="#FFC0C5" d="M925 250l0 -173M925 249l12 0M937 250l0 -1M937 250l1 -62 0 -104M938 85l13 0M951 249l0 -172M951 249l23 0"/>
<path stroke="#A52A2A" d="M50 55l46 0"/>
<text stroke="none" fill="white" font-size="16" x="106" y="64">
x1.comp_out_n-2
</text>
<path stroke="#A52A2A" d="M50 613l1 0 1 -9 0 -22 1 -19M53 564l0 -3M53 564l1 6M54 614l0 -51M54 587l1 24M55 613l0 -2M55 613l566 0 1 -154 0 -11M622 449l12 0M634 613l0 -173M634 613l93 0 0 -165M727 449l13 0M740 614l0 -170M740 613l40 0 0 -165M780 449l13 0"/>
<path stroke="#A52A2A" d="M793 613l0 -167M793 613l41 0 0 -165M834 449l11 0 0 -2 1 155M846 613l0 -11M846 613l92 0M938 614l0 -1 36 0"/>
</svg>
