<?xml version="1.0" standalone="yes"?>
<!DOCTYPE svg PUBLIC "-//W3C//DTD SVG 1.1//EN"
 "http://www.w3.org/Graphics/SVG/1.1/DTD/svg11.dtd">
<svg xmlns="http://www.w3.org/2000/svg" version="1.1"
  width="100%" height="100%" viewBox="0 0 1024 768"
  style="fill: none; font-family: Helvetica;
 font: Helvetica;
">

<!-- Creator: NGspice -->

<rect x="0" y="0" width="1024" height="768" fill="black" stroke="none"/>
<text stroke="none" fill="white" font-size="16" x="358" y="752">
time
</text>
<text stroke="none" fill="white" font-size="16" x="10" y="16">
tran1: run1780_vin0.66489
</text>
<path stroke="white" d="M50 704l0 -637"/>
<text stroke="none" fill="white" font-size="16" x="35" y="728">
0.0
</text>
<path stroke="white" stroke-dasharray="1,2" d="M182 704l0 -637"/>
<text stroke="none" fill="white" font-size="16" x="157" y="728">
100.0
</text>
<path stroke="white" stroke-dasharray="1,2" d="M314 704l0 -637"/>
<text stroke="none" fill="white" font-size="16" x="289" y="728">
200.0
</text>
<path stroke="white" stroke-dasharray="1,2" d="M446 704l0 -637"/>
<text stroke="none" fill="white" font-size="16" x="421" y="728">
300.0
</text>
<path stroke="white" stroke-dasharray="1,2" d="M578 704l0 -637"/>
<text stroke="none" fill="white" font-size="16" x="553" y="728">
400.0
</text>
<path stroke="white" stroke-dasharray="1,2" d="M710 704l0 -637"/>
<text stroke="none" fill="white" font-size="16" x="685" y="728">
500.0
</text>
<path stroke="white" stroke-dasharray="1,2" d="M842 704l0 -637"/>
<text stroke="none" fill="white" font-size="16" x="817" y="728">
600.0
</text>
<path stroke="white" stroke-dasharray="1,2" d="M974 704l0 -637"/>
<text stroke="none" fill="white" font-size="16" x="949" y="728">
700.0
</text>
<text stroke="none" fill="white" font-size="16" x="614" y="752">
ns
</text>
<path stroke="white" stroke-dasharray="1,2" d="M50 704l924 0"/>
<text stroke="none" fill="white" font-size="16" x="8" y="712">
-3.0
</text>
<path stroke="white" stroke-dasharray="1,2" d="M50 613l924 0"/>
<text stroke="none" fill="white" font-size="16" x="8" y="621">
-2.0
</text>
<path stroke="white" stroke-dasharray="1,2" d="M50 522l924 0"/>
<text stroke="none" fill="white" font-size="16" x="8" y="530">
-1.0
</text>
<path stroke="white" d="M50 431l924 0"/>
<text stroke="none" fill="white" font-size="16" x="18" y="439">
0.0
</text>
<path stroke="white" stroke-dasharray="1,2" d="M50 340l924 0"/>
<text stroke="none" fill="white" font-size="16" x="18" y="348">
1.0
</text>
<path stroke="white" stroke-dasharray="1,2" d="M50 249l924 0"/>
<text stroke="none" fill="white" font-size="16" x="18" y="257">
2.0
</text>
<path stroke="white" stroke-dasharray="1,2" d="M50 158l924 0"/>
<text stroke="none" fill="white" font-size="16" x="18" y="166">
3.0
</text>
<path stroke="white" stroke-dasharray="1,2" d="M50 67l924 0"/>
<text stroke="none" fill="white" font-size="16" x="18" y="75">
4.0
</text>
<text stroke="none" fill="white" font-size="16" x="10" y="32">
     
</text>
<path stroke="red" d="M462 23l46 0"/>
<text stroke="none" fill="white" font-size="16" x="518" y="32">
x1.vsampled_p
</text>
<path stroke="red" d="M50 431l1 0 1 -7 0 -15 1 -15 0 -5 1 2M54 414l0 -37 1 -4 0 -17 1 -2 0 -2 1 -2 2 0 1 -1 4 0M64 350l0 -1M64 350l4 0 1 -1 48 0 0 -1 1 -11 0 -30 1 -5 0 -8 2 -4 0 -1 419 0M540 290l0 -1 14 0 0 -1M554 289l13 0M567 290l0 -1 7 0M574 314l0 -25"/>
<path stroke="red" d="M574 314l1 8 1 7M576 330l0 -1M576 330l4 0 0 -1M580 330l20 0M600 344l0 -15M600 344l1 3M601 351l0 -4M601 351l1 -1 24 0 0 -13 1 -2 0 -2 1 0 0 -1 18 0M646 333l0 -1 7 0M653 340l0 -8M653 340l1 1M654 343l0 -2M654 343l5 0 0 -1 13 0"/>
<path stroke="red" d="M672 343l0 -1M672 343l7 0M679 347l0 -5M679 347l1 1M680 349l0 -1 6 0 0 -1M686 348l20 0M706 350l0 -2M706 350l1 1 0 -1 24 0 1 -1 0 -2M732 348l27 0M759 350l0 -2M759 349l19 0M778 350l0 -1 26 0M804 350l0 -1 27 0M831 350l0 -1 26 0"/>
<path stroke="red" d="M857 350l0 -1 26 0M883 350l0 -1 27 0M910 350l0 -1 8 0M918 351l0 -27 1 -4 0 -20 1 -3 0 -4 1 -2 0 -1 1 0 0 -1 1 0 0 -1M923 289l13 0M936 290l0 -1 14 0 0 -1M950 289l24 0"/>
<path stroke="blue" d="M50 23l46 0"/>
<text stroke="none" fill="white" font-size="16" x="106" y="32">
x1.vsampled_n
</text>
<path stroke="blue" d="M50 431l1 0 1 -7 0 -15 1 -14 0 -5 1 2M54 414l0 -37 1 -4 0 -17 1 -2 0 -2 1 -2 2 0 1 -1 4 0M64 350l0 -1M64 350l4 0 1 -1 48 0M117 365l0 -16M117 365l1 15M118 399l0 -19M118 399l1 3M119 406l0 -4M119 406l1 2 1 1 1 0 1 1 423 0"/>
<path stroke="blue" d="M546 410l0 -21 1 -2 0 -23 1 -8 0 -3 1 -2 0 -2 2 0 0 -1 15 0 1 1 0 -1 26 0M593 349l0 -1 26 0M619 349l0 -1M619 349l1 0 0 -1 26 0M646 349l0 -1 26 0M672 349l0 -1 26 0 1 1 0 -1 26 0M725 349l0 -1 26 0M751 349l0 -1M751 349l1 0"/>
<path stroke="blue" d="M752 349l0 -1 26 0M778 349l0 -1 7 0M785 349l0 -1M785 349l1 1 0 -1 18 0M804 350l0 -1 8 0M812 350l0 -1M812 350l1 0 0 -1 17 0 1 1 0 -1 52 0M883 350l0 -1 27 0M910 350l0 -1 8 0M918 395l0 -48M918 395l1 6M919 414l0 -13M919 414l1 -1"/>
<path stroke="blue" d="M920 413l0 -1 1 -1 0 -1 53 0"/>
<path stroke="#FFA500" d="M462 39l46 0"/>
<text stroke="none" fill="white" font-size="16" x="518" y="48">
x1.vsampled_p-x1.vsampled_n
</text>
<path stroke="#FFA500" d="M50 431l2 0 0 -1 2 0M54 431l0 -1M54 431l63 0 0 -17 1 -26 0 -49 1 -7 0 -13 1 -4 1 -3 0 -1 1 0 0 -1 418 0M540 311l0 -1 6 0M546 331l0 -21M546 331l1 2M547 356l0 -23M547 356l1 8M548 367l0 -3M548 367l1 2M549 371l0 -2M549 371l2 0"/>
<path stroke="#FFA500" d="M551 371l1 1 2 0 0 -1 12 0 1 1 0 -1M567 372l7 0M574 397l0 -26M574 397l1 8 1 6M576 412l0 -1M576 412l17 0M593 413l0 -1 7 0M600 427l0 -15M600 427l1 3M601 434l0 -4M601 433l25 0 0 -14 1 -1 0 -2 1 -1 25 0M653 422l0 -7M653 422l1 2"/>
<path stroke="#FFA500" d="M654 426l0 -2M654 425l25 0M679 429l0 -4M679 429l1 1M680 431l0 -1 26 0M706 433l0 -3M706 433l25 0 0 -1 1 -1 0 -1 1 1 18 0 0 -1 1 0M752 431l0 -1M752 431l7 0M759 433l0 -3M759 432l26 0 0 -1 1 -1M786 431l0 -1M786 431l26 0"/>
<path stroke="#FFA500" d="M812 431l0 -1 1 0M813 431l0 -1M813 431l25 0M838 432l0 -1M838 432l1 -1 79 0M918 435l0 -74 1 -11 0 -33 1 -2 0 -3 1 -1 1 0 0 -1 14 0M936 311l0 -1 38 0"/>
<path stroke="green" d="M50 39l46 0"/>
<text stroke="none" fill="white" font-size="16" x="106" y="48">
x1.sw_sample-2
</text>
<path stroke="green" d="M50 613l1 0 1 -9 0 -21 1 -21M53 579l0 -23M53 579l1 31M54 613l0 -3M54 613l63 0M117 620l0 -172M117 449l422 0M539 614l0 -171M539 613l422 0M961 618l0 -170 1 1 12 0"/>
<path stroke="#FFC0C5" d="M462 55l46 0"/>
<text stroke="none" fill="white" font-size="16" x="518" y="64">
x1.comp_out_p+2
</text>
<path stroke="#FFC0C5" d="M50 249l1 0 1 -9 0 -22 1 -18 0 -4M53 198l1 5M54 249l0 -46M54 248l1 1 487 0 0 -165M542 85l13 0M555 249l0 -172M555 249l13 0M568 253l0 -169M568 85l13 0 0 -8 1 153M582 249l0 -19M582 249l12 0 0 -165M594 85l14 0M608 250l0 -173"/>
<path stroke="#FFC0C5" d="M608 249l39 0M647 251l0 -168M647 85l14 0M661 249l0 -174M661 249l12 0M673 250l0 -1M673 250l1 -93 0 -74M674 85l13 0M687 250l0 -173M687 249l13 0 0 -164 1 -1M701 85l0 -1M701 85l12 0 0 -8 1 162M714 250l0 -11M714 249l39 0"/>
<path stroke="#FFC0C5" d="M753 249l0 -164 1 -1M754 85l0 -1M754 85l12 0M766 249l0 -172M766 249l68 0 0 -164 11 0 0 -7 1 138M846 249l0 -33M846 249l91 0M937 250l0 -1M937 250l1 -48 0 -118M938 85l13 0M951 249l0 -172M951 249l23 0"/>
<path stroke="#A52A2A" d="M50 55l46 0"/>
<text stroke="none" fill="white" font-size="16" x="106" y="64">
x1.comp_out_n-2
</text>
<path stroke="#A52A2A" d="M50 613l1 0 1 -9 0 -22 1 -19M53 564l0 -3M53 564l1 6M54 614l0 -52M54 584l1 27M55 613l0 -2M55 613l566 0 0 -147 1 -17 0 -1M622 449l12 0M634 613l0 -173M634 613l93 0 0 -165M727 449l13 0M740 614l0 -174M740 613l40 0M780 614l0 -166"/>
<path stroke="#A52A2A" d="M780 449l13 0M793 613l0 -174M793 613l14 0 0 -164 12 0M819 613l0 -171M819 613l41 0 0 -165 1 1 11 0M872 613l0 -174M872 613l14 0 0 -155 1 -9 11 0M898 613l0 -174M898 613l15 0 0 -165M913 449l12 0M925 613l0 -172M925 613l13 0"/>
<path stroke="#A52A2A" d="M938 614l0 -1 36 0"/>
</svg>
