<?xml version="1.0" standalone="yes"?>
<!DOCTYPE svg PUBLIC "-//W3C//DTD SVG 1.1//EN"
 "http://www.w3.org/Graphics/SVG/1.1/DTD/svg11.dtd">
<svg xmlns="http://www.w3.org/2000/svg" version="1.1"
  width="100%" height="100%" viewBox="0 0 1024 768"
  style="fill: none; font-family: Helvetica;
 font: Helvetica;
">

<!-- Creator: NGspice -->

<rect x="0" y="0" width="1024" height="768" fill="black" stroke="none"/>
<text stroke="none" fill="white" font-size="16" x="358" y="752">
time
</text>
<text stroke="none" fill="white" font-size="16" x="10" y="16">
tran1: run328_vin-0.61128
</text>
<path stroke="white" d="M50 704l0 -637"/>
<text stroke="none" fill="white" font-size="16" x="35" y="728">
0.0
</text>
<path stroke="white" stroke-dasharray="1,2" d="M182 704l0 -637"/>
<text stroke="none" fill="white" font-size="16" x="157" y="728">
100.0
</text>
<path stroke="white" stroke-dasharray="1,2" d="M314 704l0 -637"/>
<text stroke="none" fill="white" font-size="16" x="289" y="728">
200.0
</text>
<path stroke="white" stroke-dasharray="1,2" d="M446 704l0 -637"/>
<text stroke="none" fill="white" font-size="16" x="421" y="728">
300.0
</text>
<path stroke="white" stroke-dasharray="1,2" d="M578 704l0 -637"/>
<text stroke="none" fill="white" font-size="16" x="553" y="728">
400.0
</text>
<path stroke="white" stroke-dasharray="1,2" d="M710 704l0 -637"/>
<text stroke="none" fill="white" font-size="16" x="685" y="728">
500.0
</text>
<path stroke="white" stroke-dasharray="1,2" d="M842 704l0 -637"/>
<text stroke="none" fill="white" font-size="16" x="817" y="728">
600.0
</text>
<path stroke="white" stroke-dasharray="1,2" d="M974 704l0 -637"/>
<text stroke="none" fill="white" font-size="16" x="949" y="728">
700.0
</text>
<text stroke="none" fill="white" font-size="16" x="614" y="752">
ns
</text>
<path stroke="white" stroke-dasharray="1,2" d="M50 704l924 0"/>
<text stroke="none" fill="white" font-size="16" x="8" y="712">
-3.0
</text>
<path stroke="white" stroke-dasharray="1,2" d="M50 613l924 0"/>
<text stroke="none" fill="white" font-size="16" x="8" y="621">
-2.0
</text>
<path stroke="white" stroke-dasharray="1,2" d="M50 522l924 0"/>
<text stroke="none" fill="white" font-size="16" x="8" y="530">
-1.0
</text>
<path stroke="white" d="M50 431l924 0"/>
<text stroke="none" fill="white" font-size="16" x="18" y="439">
0.0
</text>
<path stroke="white" stroke-dasharray="1,2" d="M50 340l924 0"/>
<text stroke="none" fill="white" font-size="16" x="18" y="348">
1.0
</text>
<path stroke="white" stroke-dasharray="1,2" d="M50 249l924 0"/>
<text stroke="none" fill="white" font-size="16" x="18" y="257">
2.0
</text>
<path stroke="white" stroke-dasharray="1,2" d="M50 158l924 0"/>
<text stroke="none" fill="white" font-size="16" x="18" y="166">
3.0
</text>
<path stroke="white" stroke-dasharray="1,2" d="M50 67l924 0"/>
<text stroke="none" fill="white" font-size="16" x="18" y="75">
4.0
</text>
<text stroke="none" fill="white" font-size="16" x="10" y="32">
     
</text>
<path stroke="red" d="M462 23l46 0"/>
<text stroke="none" fill="white" font-size="16" x="518" y="32">
x1.vsampled_p
</text>
<path stroke="red" d="M50 431l1 0 1 -7 0 -15 1 -14 0 -5 1 2M54 414l0 -37 1 -4 0 -15 1 -3 0 -2 1 -2 0 -1 2 0 1 -1 3 0 1 1 4 0 1 -1 48 0M117 363l0 -14M117 363l1 14M118 396l0 -19M118 396l1 2M119 400l0 -2M119 400l1 2M120 403l0 -1M120 403l2 2 424 0"/>
<path stroke="red" d="M546 405l0 -23 1 -4 0 -24 1 -4 0 -3 1 -1 0 -2 5 0 0 -1 12 0 1 1 13 0 0 -1 13 0M593 344l0 -1M593 344l13 0 0 -1 1 0M607 344l0 -1M607 344l1 0 0 -1M608 344l11 0 0 -1M619 344l14 0 0 -1 13 0M646 344l0 -1M646 344l13 0 0 -1 2 0"/>
<path stroke="red" d="M661 344l0 -1M661 344l11 0 0 -1M672 344l7 0M679 349l0 -6M679 349l1 1M680 352l0 -3 6 0 0 -1M686 349l26 0 0 -1M712 349l26 0 0 -1 1 1 26 0 0 -1M765 349l21 0M786 350l0 -1 18 0M804 350l0 -1 27 0M831 350l0 -1 86 0M917 350l0 -1"/>
<path stroke="red" d="M917 350l1 0M918 402l0 -59M918 402l1 3M919 408l0 -3M919 408l1 -1 0 -1 1 -1 53 0"/>
<path stroke="blue" d="M50 23l46 0"/>
<text stroke="none" fill="white" font-size="16" x="106" y="32">
x1.vsampled_n
</text>
<path stroke="blue" d="M50 431l1 0 1 -7 0 -15 1 -15 0 -4 1 1M54 414l0 -37 1 -4 0 -15 1 -3 0 -2 1 -2 0 -1 2 0 1 -1 3 0 1 1 5 0 0 -1 48 0 0 -1 1 -11 0 -29 1 -4 0 -3 1 -4 0 -2 1 -1 2 0 1 -1 415 0M539 294l0 -1M539 294l1 0M540 295l0 -1 14 0 0 -1M554 294l13 0"/>
<path stroke="blue" d="M567 295l0 -1 7 0M574 321l0 -27M574 321l1 9 1 4M576 335l0 -1M576 335l4 0 0 -1M580 335l20 0M600 347l0 -12M600 347l1 4M601 356l0 -5M601 356l1 -1 23 0 0 -2 1 -4 0 -10 1 0 0 -2 19 0M646 338l0 -1 7 0M653 344l0 -7M653 344l1 2"/>
<path stroke="blue" d="M654 348l0 -2M654 348l1 0 0 -1 17 0M672 348l0 -1 26 0 1 1 0 -1 7 0M706 350l0 -3M706 350l1 1 0 -1 24 0 1 -1 0 -2M732 348l27 0M759 350l0 -2M759 349l53 0 1 1 0 -1 18 0M831 350l0 -1 26 0M857 350l0 -1 26 0M883 350l0 -1 27 0"/>
<path stroke="blue" d="M910 350l0 -1 8 0M918 350l0 -28 1 -4 0 -15 1 -3 0 -4 2 -2 1 0 0 -1M923 294l13 0M936 295l0 -1 14 0 0 -1M950 294l12 0 0 -1 12 0"/>
<path stroke="#FFA500" d="M462 39l46 0"/>
<text stroke="none" fill="white" font-size="16" x="518" y="48">
x1.vsampled_p-x1.vsampled_n
</text>
<path stroke="#FFA500" d="M50 431l2 0M52 432l0 -1M52 432l2 0 0 -1 63 0M117 446l0 -15M117 446l1 25M118 519l0 -48M118 519l1 6M119 530l0 -5M119 530l1 6M120 539l0 -3M120 539l1 2M121 542l0 -1M121 542l419 0 0 -1M540 542l6 0 0 -23 1 -4 0 -24 1 -3 0 -3"/>
<path stroke="#FFA500" d="M548 485l1 -2 0 -1 1 -1 17 0 0 -1M567 481l7 0 0 -27 1 -9 1 -4 0 -1 24 0 0 -13 1 -3 0 -5 1 0M602 420l0 -1M602 420l4 0 0 -1 1 0M607 420l0 -1M607 420l1 0 0 -1M608 420l11 0 0 -1 1 0M620 420l0 -1M620 420l5 0M625 421l0 -1"/>
<path stroke="#FFA500" d="M625 421l1 4M626 435l0 -10M626 435l1 1M627 437l0 -1M627 437l19 0M646 438l0 -1 7 0M653 438l0 -8 1 -1 0 -2 25 0M679 433l0 -6M679 433l1 0M680 436l0 -3 1 -1 25 0 0 -3 1 0M707 430l0 -1M707 430l25 0M732 432l0 -2M732 432l27 0"/>
<path stroke="#FFA500" d="M759 432l0 -2M759 431l27 0M786 432l0 -1 55 0 0 -1M841 431l76 0 1 1M918 511l0 -82M918 511l1 7M919 536l0 -18M919 536l1 2M920 541l0 -3M920 541l1 0M921 542l0 -1M921 542l2 0M923 543l0 -1 13 0 0 -1M936 542l14 0M950 543l0 -1"/>
<path stroke="#FFA500" d="M950 542l24 0"/>
<path stroke="green" d="M50 39l46 0"/>
<text stroke="none" fill="white" font-size="16" x="106" y="48">
x1.sw_sample-2
</text>
<path stroke="green" d="M50 613l1 0 1 -9 0 -21 1 -21M53 579l0 -23M53 579l1 31M54 613l0 -3M54 613l63 0M117 620l0 -172M117 449l422 0M539 614l0 -171M539 613l422 0M961 618l0 -170 1 1 12 0"/>
<path stroke="#FFC0C5" d="M462 55l46 0"/>
<text stroke="none" fill="white" font-size="16" x="518" y="64">
x1.comp_out_p+2
</text>
<path stroke="#FFC0C5" d="M50 249l1 0 1 -9 0 -22 1 -18 0 -4M53 198l1 5M54 250l0 -58M54 194l1 52M55 249l0 -3M55 249l566 0M621 251l0 -168M621 85l13 0M634 249l0 -172M634 249l39 0M673 250l0 -1M673 250l1 -55 0 -111M674 85l13 0M687 249l0 -172M687 249l40 0"/>
<path stroke="#FFC0C5" d="M727 249l0 -165 1 1 12 0M740 249l0 -173M740 249l40 0 0 -164 1 -1M781 85l0 -1M781 85l12 0M793 250l0 -174M793 249l67 0 0 -164 12 0M872 249l0 -174M872 249l14 0 0 -165 1 0M887 85l0 -1M887 85l11 0M898 249l0 -174M898 249l15 0"/>
<path stroke="#FFC0C5" d="M913 249l0 -165M913 85l12 0M925 250l0 -172M925 249l49 0"/>
<path stroke="#A52A2A" d="M50 55l46 0"/>
<text stroke="none" fill="white" font-size="16" x="106" y="64">
x1.comp_out_n-2
</text>
<path stroke="#A52A2A" d="M50 613l1 0 1 -9 0 -22 1 -19M53 564l0 -3M53 564l1 6M54 614l0 -44M54 612l1 1 486 0 1 1 0 -167M542 449l13 0M555 613l0 -173M555 613l13 0 0 -166M568 449l13 0 0 -9 1 160M582 613l0 -13M582 613l12 0 0 -165M594 449l14 0M608 614l0 -171"/>
<path stroke="#A52A2A" d="M608 613l39 0M647 614l0 -167M647 449l14 0M661 613l0 -167M661 613l13 0M674 614l0 -1 26 0M700 615l0 -167 1 1 12 0 1 -9M714 614l0 -174M714 613l39 0 0 -165M753 449l13 0M766 613l0 -166M766 613l41 0 0 -165M807 449l12 0M819 614l0 -171"/>
<path stroke="#A52A2A" d="M819 613l17 0 1 -158 0 -7M837 449l8 0 0 -8 1 163M846 613l0 -9M846 613l91 0 1 -51 0 -114M938 449l13 0M951 614l0 -169M951 613l23 0"/>
</svg>
