<?xml version="1.0" standalone="yes"?>
<!DOCTYPE svg PUBLIC "-//W3C//DTD SVG 1.1//EN"
 "http://www.w3.org/Graphics/SVG/1.1/DTD/svg11.dtd">
<svg xmlns="http://www.w3.org/2000/svg" version="1.1"
  width="100%" height="100%" viewBox="0 0 1024 768"
  style="fill: none; font-family: Helvetica;
 font: Helvetica;
">

<!-- Creator: NGspice -->

<rect x="0" y="0" width="1024" height="768" fill="black" stroke="none"/>
<text stroke="none" fill="white" font-size="16" x="358" y="752">
time
</text>
<text stroke="none" fill="white" font-size="16" x="10" y="16">
tran1: run332_vin-0.607764
</text>
<path stroke="white" d="M50 704l0 -637"/>
<text stroke="none" fill="white" font-size="16" x="35" y="728">
0.0
</text>
<path stroke="white" stroke-dasharray="1,2" d="M182 704l0 -637"/>
<text stroke="none" fill="white" font-size="16" x="157" y="728">
100.0
</text>
<path stroke="white" stroke-dasharray="1,2" d="M314 704l0 -637"/>
<text stroke="none" fill="white" font-size="16" x="289" y="728">
200.0
</text>
<path stroke="white" stroke-dasharray="1,2" d="M446 704l0 -637"/>
<text stroke="none" fill="white" font-size="16" x="421" y="728">
300.0
</text>
<path stroke="white" stroke-dasharray="1,2" d="M578 704l0 -637"/>
<text stroke="none" fill="white" font-size="16" x="553" y="728">
400.0
</text>
<path stroke="white" stroke-dasharray="1,2" d="M710 704l0 -637"/>
<text stroke="none" fill="white" font-size="16" x="685" y="728">
500.0
</text>
<path stroke="white" stroke-dasharray="1,2" d="M842 704l0 -637"/>
<text stroke="none" fill="white" font-size="16" x="817" y="728">
600.0
</text>
<path stroke="white" stroke-dasharray="1,2" d="M974 704l0 -637"/>
<text stroke="none" fill="white" font-size="16" x="949" y="728">
700.0
</text>
<text stroke="none" fill="white" font-size="16" x="614" y="752">
ns
</text>
<path stroke="white" stroke-dasharray="1,2" d="M50 704l924 0"/>
<text stroke="none" fill="white" font-size="16" x="8" y="712">
-3.0
</text>
<path stroke="white" stroke-dasharray="1,2" d="M50 613l924 0"/>
<text stroke="none" fill="white" font-size="16" x="8" y="621">
-2.0
</text>
<path stroke="white" stroke-dasharray="1,2" d="M50 522l924 0"/>
<text stroke="none" fill="white" font-size="16" x="8" y="530">
-1.0
</text>
<path stroke="white" d="M50 431l924 0"/>
<text stroke="none" fill="white" font-size="16" x="18" y="439">
0.0
</text>
<path stroke="white" stroke-dasharray="1,2" d="M50 340l924 0"/>
<text stroke="none" fill="white" font-size="16" x="18" y="348">
1.0
</text>
<path stroke="white" stroke-dasharray="1,2" d="M50 249l924 0"/>
<text stroke="none" fill="white" font-size="16" x="18" y="257">
2.0
</text>
<path stroke="white" stroke-dasharray="1,2" d="M50 158l924 0"/>
<text stroke="none" fill="white" font-size="16" x="18" y="166">
3.0
</text>
<path stroke="white" stroke-dasharray="1,2" d="M50 67l924 0"/>
<text stroke="none" fill="white" font-size="16" x="18" y="75">
4.0
</text>
<text stroke="none" fill="white" font-size="16" x="10" y="32">
     
</text>
<path stroke="red" d="M462 23l46 0"/>
<text stroke="none" fill="white" font-size="16" x="518" y="32">
x1.vsampled_p
</text>
<path stroke="red" d="M50 431l1 0 1 -7 0 -15 1 -14 0 -5 1 2M54 414l0 -37 1 -4 0 -15 1 -3 0 -2 1 -2 0 -1 2 0 1 -1 3 0 1 1 4 0 1 -1 48 0M117 363l0 -14M117 363l1 14M118 395l0 -18M118 395l1 3M119 400l0 -2M119 400l1 2M120 403l0 -1M120 403l1 1 418 0"/>
<path stroke="red" d="M539 405l0 -1M539 405l1 0 1 -1M541 405l0 -1M541 405l5 0 0 -30 1 -5 0 -19 1 -4 0 -1 1 -2 1 0 0 -1 17 0M567 344l0 -1 26 0M593 344l0 -1 26 0M619 344l0 -1 27 0M646 344l0 -1 26 0M672 344l0 -1 7 0M679 350l0 -7M679 350l1 1M680 352l0 -3"/>
<path stroke="red" d="M680 349l1 0 0 -1 17 0 1 1 0 -1 26 0M725 349l0 -1 26 0M751 349l0 -1M751 349l1 0 0 -1 26 0M778 349l0 -1 7 0M785 350l0 -2M785 350l1 0 0 -1 27 0M813 350l0 -1 18 0M831 350l0 -1 87 0M918 399l0 -56M918 399l1 4M919 408l0 -5M919 408l1 -1"/>
<path stroke="red" d="M920 407l0 -1 1 -1 2 0 0 -1M923 405l8 0 0 -1 5 0M936 405l0 -1M936 405l14 0 0 -1 1 0M951 405l0 -1M951 405l2 0 0 -1 21 0"/>
<path stroke="blue" d="M50 23l46 0"/>
<text stroke="none" fill="white" font-size="16" x="106" y="32">
x1.vsampled_n
</text>
<path stroke="blue" d="M50 431l1 0 1 -7 0 -15 1 -15 0 -4 1 1M54 414l0 -37 1 -4 0 -15 1 -3 0 -2 1 -2 0 -1 2 0 1 -1 3 0 1 1 5 0 0 -1 48 0 0 -1 1 -10 0 -30 1 -4 0 -3 1 -3 0 -2 1 -1 0 -1 419 0M540 295l0 -1 27 0M567 295l0 -1 7 0M574 315l0 -21M574 315l1 7"/>
<path stroke="blue" d="M575 332l0 -10M575 332l1 3 24 0M600 350l0 -15M600 350l1 4M601 356l0 -2M601 356l1 0 0 -1 17 0M619 356l0 -1M619 356l1 0 0 -1 5 0 0 -7 1 -1 0 -8 1 0 0 -1 6 0 0 -1 13 0M646 338l0 -1M646 338l7 0M653 345l0 -7M653 345l1 2M654 348l0 -1"/>
<path stroke="blue" d="M654 348l5 0 0 -1M659 348l47 0M706 350l0 -2M706 350l1 1 0 -1 18 0M725 351l0 -1 7 0 0 -2 27 0M759 350l0 -2M759 349l19 0M778 350l0 -1 26 0M804 350l0 -1 27 0M831 350l0 -1 26 0M857 350l0 -1 26 0M883 350l0 -1 27 0M910 350l0 -1"/>
<path stroke="blue" d="M910 349l8 0M918 351l0 -27 1 -3 0 -16 1 -2 0 -5 1 -2 0 -1 1 0 0 -1 14 0M936 296l0 -2 38 0"/>
<path stroke="#FFA500" d="M462 39l46 0"/>
<text stroke="none" fill="white" font-size="16" x="518" y="48">
x1.vsampled_p-x1.vsampled_n
</text>
<path stroke="#FFA500" d="M50 431l2 0M52 432l0 -1M52 432l2 0 0 -1 63 0M117 446l0 -15M117 446l1 24M118 518l0 -48M118 518l1 7M119 530l0 -5M119 530l1 5M120 538l0 -3M120 538l1 2M121 541l0 -1M121 541l2 0M123 542l0 -1M123 542l416 0 0 -1 1 0M540 542l0 -1"/>
<path stroke="#FFA500" d="M540 541l6 0M546 542l0 -30 1 -5 0 -20 1 -3 0 -2 2 -2 17 0M567 481l0 -2M567 480l7 0 0 -21 1 -7 0 -10 1 -2 0 -1 17 0M593 440l0 -1 7 0 0 -15 1 -3 0 -3 1 1 23 0M625 426l0 -7M625 426l1 1M626 435l0 -8M626 435l2 2 25 0 0 -8"/>
<path stroke="#FFA500" d="M653 429l1 -2 0 -1 1 1 4 0 0 -1 1 1 12 0 0 -1M672 427l7 0M679 433l0 -6M679 433l1 2 0 -3 26 0 0 -3 26 0M732 432l0 -3M732 431l27 0 0 -2M759 430l26 0M785 432l0 -2M785 432l1 -1 27 0M813 432l0 -1 28 0 0 -1M841 431l77 0M918 506l0 -79"/>
<path stroke="#FFA500" d="M918 506l1 7M919 534l0 -21M919 534l1 2M920 539l0 -3M920 539l1 1M921 541l0 -1M921 541l2 0M923 542l0 -1M923 542l13 0 0 -2M936 541l14 0M950 542l0 -1M950 542l24 0"/>
<path stroke="green" d="M50 39l46 0"/>
<text stroke="none" fill="white" font-size="16" x="106" y="48">
x1.sw_sample-2
</text>
<path stroke="green" d="M50 613l1 0 1 -9 0 -21 1 -21M53 579l0 -23M53 579l1 31M54 613l0 -3M54 613l63 0M117 620l0 -172M117 449l422 0M539 614l0 -171M539 613l422 0M961 618l0 -170 1 1 12 0"/>
<path stroke="#FFC0C5" d="M462 55l46 0"/>
<text stroke="none" fill="white" font-size="16" x="518" y="64">
x1.comp_out_p+2
</text>
<path stroke="#FFC0C5" d="M50 249l1 0 1 -9 0 -22 1 -18 0 -4M53 198l1 5M54 250l0 -58M54 194l1 52M55 249l0 -3M55 249l566 0 0 -165M621 85l13 0M634 250l0 -173M634 250l1 -1 38 0 1 -47 0 -118M674 85l13 0M687 249l0 -171M687 249l40 0 0 -165M727 85l13 0"/>
<path stroke="#FFC0C5" d="M740 249l0 -172M740 249l40 0 0 -165M780 85l13 0M793 249l0 -174M793 249l14 0 0 -165 1 1 11 0M819 249l0 -171M819 249l41 0 0 -164 12 0M872 249l0 -174M872 249l14 0 0 -165 1 0M887 85l0 -1M887 85l11 0M898 249l0 -174M898 249l15 0"/>
<path stroke="#FFC0C5" d="M913 249l0 -165M913 85l12 0M925 249l0 -172M925 249l49 0"/>
<path stroke="#A52A2A" d="M50 55l46 0"/>
<text stroke="none" fill="white" font-size="16" x="106" y="64">
x1.comp_out_n-2
</text>
<path stroke="#A52A2A" d="M50 613l1 0 1 -9 0 -22 1 -19M53 564l0 -3M53 564l1 6M54 614l0 -44M54 612l1 1 486 0 1 -36 0 -129M542 449l13 0M555 613l0 -173M555 613l13 0M568 618l0 -171M568 449l13 0 0 -8 1 155M582 613l0 -17M582 613l12 0M594 614l0 -167"/>
<path stroke="#A52A2A" d="M594 449l14 0M608 613l0 -173M608 613l39 0M647 615l0 -168M647 449l14 0M661 614l0 -172M661 613l13 0M674 614l0 -1 26 0 0 -158 1 -7M701 449l0 -1M701 449l12 0 0 -9 1 162M714 613l0 -11M714 613l39 0 0 -164 1 -1M754 449l0 -1"/>
<path stroke="#A52A2A" d="M754 449l12 0M766 613l0 -172M766 613l70 0 1 -158 0 -7M837 449l8 0 0 -8 1 164M846 614l0 -9M846 613l91 0M937 614l0 -1M937 614l1 -58 0 -109M938 449l13 0M951 613l0 -172M951 613l23 0"/>
</svg>
