<?xml version="1.0" standalone="yes"?>
<!DOCTYPE svg PUBLIC "-//W3C//DTD SVG 1.1//EN"
 "http://www.w3.org/Graphics/SVG/1.1/DTD/svg11.dtd">
<svg xmlns="http://www.w3.org/2000/svg" version="1.1"
  width="100%" height="100%" viewBox="0 0 1024 768"
  style="fill: none; font-family: Helvetica;
 font: Helvetica;
">

<!-- Creator: NGspice -->

<rect x="0" y="0" width="1024" height="768" fill="black" stroke="none"/>
<text stroke="none" fill="white" font-size="16" x="358" y="752">
time
</text>
<text stroke="none" fill="white" font-size="16" x="10" y="16">
tran1: run323_vin-0.615674
</text>
<path stroke="white" d="M50 704l0 -637"/>
<text stroke="none" fill="white" font-size="16" x="35" y="728">
0.0
</text>
<path stroke="white" stroke-dasharray="1,2" d="M182 704l0 -637"/>
<text stroke="none" fill="white" font-size="16" x="157" y="728">
100.0
</text>
<path stroke="white" stroke-dasharray="1,2" d="M314 704l0 -637"/>
<text stroke="none" fill="white" font-size="16" x="289" y="728">
200.0
</text>
<path stroke="white" stroke-dasharray="1,2" d="M446 704l0 -637"/>
<text stroke="none" fill="white" font-size="16" x="421" y="728">
300.0
</text>
<path stroke="white" stroke-dasharray="1,2" d="M578 704l0 -637"/>
<text stroke="none" fill="white" font-size="16" x="553" y="728">
400.0
</text>
<path stroke="white" stroke-dasharray="1,2" d="M710 704l0 -637"/>
<text stroke="none" fill="white" font-size="16" x="685" y="728">
500.0
</text>
<path stroke="white" stroke-dasharray="1,2" d="M842 704l0 -637"/>
<text stroke="none" fill="white" font-size="16" x="817" y="728">
600.0
</text>
<path stroke="white" stroke-dasharray="1,2" d="M974 704l0 -637"/>
<text stroke="none" fill="white" font-size="16" x="949" y="728">
700.0
</text>
<text stroke="none" fill="white" font-size="16" x="614" y="752">
ns
</text>
<path stroke="white" stroke-dasharray="1,2" d="M50 704l924 0"/>
<text stroke="none" fill="white" font-size="16" x="8" y="712">
-3.0
</text>
<path stroke="white" stroke-dasharray="1,2" d="M50 613l924 0"/>
<text stroke="none" fill="white" font-size="16" x="8" y="621">
-2.0
</text>
<path stroke="white" stroke-dasharray="1,2" d="M50 522l924 0"/>
<text stroke="none" fill="white" font-size="16" x="8" y="530">
-1.0
</text>
<path stroke="white" d="M50 431l924 0"/>
<text stroke="none" fill="white" font-size="16" x="18" y="439">
0.0
</text>
<path stroke="white" stroke-dasharray="1,2" d="M50 340l924 0"/>
<text stroke="none" fill="white" font-size="16" x="18" y="348">
1.0
</text>
<path stroke="white" stroke-dasharray="1,2" d="M50 249l924 0"/>
<text stroke="none" fill="white" font-size="16" x="18" y="257">
2.0
</text>
<path stroke="white" stroke-dasharray="1,2" d="M50 158l924 0"/>
<text stroke="none" fill="white" font-size="16" x="18" y="166">
3.0
</text>
<path stroke="white" stroke-dasharray="1,2" d="M50 67l924 0"/>
<text stroke="none" fill="white" font-size="16" x="18" y="75">
4.0
</text>
<text stroke="none" fill="white" font-size="16" x="10" y="32">
     
</text>
<path stroke="red" d="M462 23l46 0"/>
<text stroke="none" fill="white" font-size="16" x="518" y="32">
x1.vsampled_p
</text>
<path stroke="red" d="M50 431l1 0 1 -7 0 -15 1 -14 0 -5 1 2M54 414l0 -37 1 -4 0 -15 1 -3 0 -2 1 -2 0 -1 2 0 1 -1 3 0 1 1 4 0 1 -1 48 0M117 363l0 -14M117 363l1 14M118 396l0 -19M118 396l1 2M119 401l0 -3M119 401l1 2M120 404l0 -1M120 404l1 0M121 405l0 -1"/>
<path stroke="red" d="M121 405l425 0 0 -24 1 -2 0 -25 1 -4 0 -2 1 -2 0 -1 1 -1 4 0 0 -1M554 344l13 0M567 345l0 -1 13 0 0 -1M580 344l13 0M593 345l0 -1 26 0M619 345l0 -1 27 0M646 345l0 -1 33 0M679 350l0 -6M679 350l1 1M680 353l0 -3 1 -1 132 0M813 350l0 -1"/>
<path stroke="red" d="M813 349l17 0 1 1 0 -1 87 0M918 389l0 -45M918 389l1 6M919 408l0 -13M919 408l1 0 1 -1 0 -1 1 0 0 -1 52 0"/>
<path stroke="blue" d="M50 23l46 0"/>
<text stroke="none" fill="white" font-size="16" x="106" y="32">
x1.vsampled_n
</text>
<path stroke="blue" d="M50 431l1 0 1 -7 0 -15 1 -15 0 -4 1 1M54 414l0 -37 1 -4 0 -15 1 -3 0 -2 1 -2 0 -1 2 0 1 -1 3 0 1 1 5 0 0 -1 48 0 0 -1 1 -11 0 -29 1 -4 0 -4 1 -3 0 -2 2 -2 418 0M540 294l0 -1 26 0 1 1M567 295l0 -2 7 0M574 316l0 -23M574 316l1 8"/>
<path stroke="blue" d="M575 332l0 -8M575 332l1 2 17 0M593 335l0 -1 7 0M600 348l0 -14M600 348l1 3M601 356l0 -5M601 355l24 0 0 -1 1 -5 0 -10 1 -1 0 -1 6 0 0 -1M633 337l20 0M653 344l0 -7M653 344l1 2M654 347l0 -1M654 347l52 0M706 350l0 -3M706 350l6 0"/>
<path stroke="blue" d="M712 350l0 -1 13 0M725 350l0 -1M725 350l7 0 0 -3 19 0M751 348l0 -1 8 0M759 349l0 -2M759 349l6 0 0 -1M765 349l21 0M786 350l0 -1 18 0M804 350l0 -1 27 0M831 350l0 -1 26 0M857 350l0 -1 26 0M883 350l0 -1 27 0M910 350l0 -1 8 0"/>
<path stroke="blue" d="M918 350l0 -21 1 -3 0 -20 1 -3 0 -4 1 -3 0 -1 1 0 0 -1 1 0 0 -1 13 0M936 295l0 -2 38 0"/>
<path stroke="#FFA500" d="M462 39l46 0"/>
<text stroke="none" fill="white" font-size="16" x="518" y="48">
x1.vsampled_p-x1.vsampled_n
</text>
<path stroke="#FFA500" d="M50 431l2 0M52 432l0 -1M52 432l2 0 0 -1 63 0M117 446l0 -15M117 446l1 25M118 519l0 -48M118 519l1 7M119 531l0 -5M119 531l1 5M120 540l0 -4M120 540l1 1M121 542l0 -1M121 542l1 1 418 0 0 -1M540 543l6 0 0 -24 1 -3 0 -24 1 -4"/>
<path stroke="#FFA500" d="M548 488l0 -3 1 -2 0 -1 5 0 0 -1M554 482l12 0 1 -1M567 482l0 -1M567 482l7 0 0 -23 1 -8 0 -8 1 -2 24 0 0 -14 1 -3 0 -5M601 420l18 0M619 421l0 -1 6 0M625 421l0 -1M625 421l1 5M626 436l0 -10M626 436l1 1M627 438l0 -1M627 438l19 0"/>
<path stroke="#FFA500" d="M646 439l0 -1 7 0 0 -7 1 -2 0 -1 25 0M679 434l0 -6M679 434l1 1M680 437l0 -3 1 -1 25 0 0 -3 1 0M707 431l0 -1M707 431l5 0 0 -1M712 431l20 0M732 433l0 -2M732 433l27 0 0 -2 19 0M778 432l0 -1 8 0 0 -1M786 431l27 0M813 432l0 -1"/>
<path stroke="#FFA500" d="M813 431l25 0 0 -1 1 1 79 0M918 491l0 -61M918 491l1 8M919 533l0 -34M919 533l1 3M920 540l0 -4M920 540l1 1M921 542l0 -1M921 542l1 0M922 543l0 -1M922 543l14 0 0 -1M936 543l38 0"/>
<path stroke="green" d="M50 39l46 0"/>
<text stroke="none" fill="white" font-size="16" x="106" y="48">
x1.sw_sample-2
</text>
<path stroke="green" d="M50 613l1 0 1 -9 0 -21 1 -21M53 579l0 -23M53 579l1 31M54 613l0 -3M54 613l63 0M117 620l0 -172M117 449l422 0M539 614l0 -171M539 613l422 0M961 618l0 -170 1 1 12 0"/>
<path stroke="#FFC0C5" d="M462 55l46 0"/>
<text stroke="none" fill="white" font-size="16" x="518" y="64">
x1.comp_out_p+2
</text>
<path stroke="#FFC0C5" d="M50 249l1 0 1 -9 0 -22 1 -18 0 -4M53 198l1 5M54 250l0 -57M54 197l1 49M55 249l0 -3M55 249l566 0M621 250l0 -166M621 85l13 0M634 249l0 -172M634 249l39 0 1 1 0 -166M674 85l13 0M687 249l0 -171M687 249l41 0 0 -165M728 85l12 0"/>
<path stroke="#FFC0C5" d="M740 249l0 -172M740 249l67 0 0 -147 1 -17 0 -1M808 85l11 0M819 250l0 -172M819 249l41 0 0 -165 1 1 11 0M872 250l0 -174M872 249l14 0 1 -149 0 -16M887 85l11 0M898 250l0 -174M898 249l15 0 0 -165M913 85l12 0M925 250l0 -172"/>
<path stroke="#FFC0C5" d="M925 249l49 0"/>
<path stroke="#A52A2A" d="M50 55l46 0"/>
<text stroke="none" fill="white" font-size="16" x="106" y="64">
x1.comp_out_n-2
</text>
<path stroke="#A52A2A" d="M50 613l1 0 1 -9 0 -22 1 -19M53 564l0 -3M53 564l1 6M54 614l0 -44M54 612l1 1 486 0 1 -24 0 -142M542 449l13 0M555 613l0 -167M555 613l13 0 0 -166M568 449l13 0 1 -9M582 613l0 -173M582 613l12 0M594 615l0 -168M594 449l14 0"/>
<path stroke="#A52A2A" d="M608 613l0 -172M608 613l39 0M647 619l0 -172M647 449l14 0M661 613l0 -167M661 613l39 0 0 -165M700 449l13 0 0 -10 1 149M714 613l0 -25M714 613l39 0 0 -165M753 449l13 0M766 613l0 -168M766 613l14 0 0 -165 1 1 12 0M793 613l0 -174"/>
<path stroke="#A52A2A" d="M793 613l41 0 0 -164 11 0 0 -10 1 153M846 613l0 -21M846 613l91 0M937 614l0 -1M937 614l1 -56 0 -111M938 449l13 0M951 614l0 -167M951 613l23 0"/>
</svg>
