<?xml version="1.0" standalone="yes"?>
<!DOCTYPE svg PUBLIC "-//W3C//DTD SVG 1.1//EN"
 "http://www.w3.org/Graphics/SVG/1.1/DTD/svg11.dtd">
<svg xmlns="http://www.w3.org/2000/svg" version="1.1"
  width="100%" height="100%" viewBox="0 0 1024 768"
  style="fill: none; font-family: Helvetica;
 font: Helvetica;
">

<!-- Creator: NGspice -->

<rect x="0" y="0" width="1024" height="768" fill="black" stroke="none"/>
<text stroke="none" fill="white" font-size="16" x="358" y="752">
time
</text>
<text stroke="none" fill="white" font-size="16" x="10" y="16">
tran1: run324_vin-0.614795
</text>
<path stroke="white" d="M50 704l0 -637"/>
<text stroke="none" fill="white" font-size="16" x="35" y="728">
0.0
</text>
<path stroke="white" stroke-dasharray="1,2" d="M182 704l0 -637"/>
<text stroke="none" fill="white" font-size="16" x="157" y="728">
100.0
</text>
<path stroke="white" stroke-dasharray="1,2" d="M314 704l0 -637"/>
<text stroke="none" fill="white" font-size="16" x="289" y="728">
200.0
</text>
<path stroke="white" stroke-dasharray="1,2" d="M446 704l0 -637"/>
<text stroke="none" fill="white" font-size="16" x="421" y="728">
300.0
</text>
<path stroke="white" stroke-dasharray="1,2" d="M578 704l0 -637"/>
<text stroke="none" fill="white" font-size="16" x="553" y="728">
400.0
</text>
<path stroke="white" stroke-dasharray="1,2" d="M710 704l0 -637"/>
<text stroke="none" fill="white" font-size="16" x="685" y="728">
500.0
</text>
<path stroke="white" stroke-dasharray="1,2" d="M842 704l0 -637"/>
<text stroke="none" fill="white" font-size="16" x="817" y="728">
600.0
</text>
<path stroke="white" stroke-dasharray="1,2" d="M974 704l0 -637"/>
<text stroke="none" fill="white" font-size="16" x="949" y="728">
700.0
</text>
<text stroke="none" fill="white" font-size="16" x="614" y="752">
ns
</text>
<path stroke="white" stroke-dasharray="1,2" d="M50 704l924 0"/>
<text stroke="none" fill="white" font-size="16" x="8" y="712">
-2.5
</text>
<path stroke="white" stroke-dasharray="1,2" d="M50 655l924 0"/>
<text stroke="none" fill="white" font-size="16" x="8" y="663">
-2.0
</text>
<path stroke="white" stroke-dasharray="1,2" d="M50 606l924 0"/>
<text stroke="none" fill="white" font-size="16" x="8" y="614">
-1.5
</text>
<path stroke="white" stroke-dasharray="1,2" d="M50 557l924 0"/>
<text stroke="none" fill="white" font-size="16" x="8" y="565">
-1.0
</text>
<path stroke="white" stroke-dasharray="1,2" d="M50 508l924 0"/>
<text stroke="none" fill="white" font-size="16" x="8" y="516">
-0.5
</text>
<path stroke="white" d="M50 459l924 0"/>
<text stroke="none" fill="white" font-size="16" x="18" y="467">
0.0
</text>
<path stroke="white" stroke-dasharray="1,2" d="M50 410l924 0"/>
<text stroke="none" fill="white" font-size="16" x="18" y="418">
0.5
</text>
<path stroke="white" stroke-dasharray="1,2" d="M50 361l924 0"/>
<text stroke="none" fill="white" font-size="16" x="18" y="369">
1.0
</text>
<path stroke="white" stroke-dasharray="1,2" d="M50 312l924 0"/>
<text stroke="none" fill="white" font-size="16" x="18" y="320">
1.5
</text>
<path stroke="white" stroke-dasharray="1,2" d="M50 263l924 0"/>
<text stroke="none" fill="white" font-size="16" x="18" y="271">
2.0
</text>
<path stroke="white" stroke-dasharray="1,2" d="M50 214l924 0"/>
<text stroke="none" fill="white" font-size="16" x="18" y="222">
2.5
</text>
<path stroke="white" stroke-dasharray="1,2" d="M50 165l924 0"/>
<text stroke="none" fill="white" font-size="16" x="18" y="173">
3.0
</text>
<path stroke="white" stroke-dasharray="1,2" d="M50 116l924 0"/>
<text stroke="none" fill="white" font-size="16" x="18" y="124">
3.5
</text>
<path stroke="white" stroke-dasharray="1,2" d="M50 67l924 0"/>
<text stroke="none" fill="white" font-size="16" x="18" y="75">
4.0
</text>
<text stroke="none" fill="white" font-size="16" x="10" y="32">
     
</text>
<path stroke="red" d="M462 23l46 0"/>
<text stroke="none" fill="white" font-size="16" x="518" y="32">
x1.vsampled_p
</text>
<path stroke="red" d="M50 459l1 0 1 -7 0 -17 1 -15 0 -5 1 2M54 441l0 -40 1 -5 0 -16 1 -3 0 -2 1 -2 0 -1 1 -1 59 0M117 386l0 -15M117 386l1 15M118 421l0 -20M118 421l1 3M119 426l0 -2M119 426l1 2M120 430l0 -2M120 430l1 0M121 431l0 -1M121 431l425 0"/>
<path stroke="red" d="M546 431l0 -23 1 -3 0 -23 1 -8 0 -6 1 -2 1 0 0 -1 17 0M567 366l0 -1 26 0M593 366l0 -1 26 0M619 366l0 -1 27 0M646 366l0 -1 26 0M672 366l0 -1 7 0M679 369l0 -4M679 369l1 2M680 374l0 -3M680 372l1 -1 5 0 0 -1M686 371l26 0 0 -1"/>
<path stroke="red" d="M712 371l26 0 0 -1 1 1 26 0 0 -1M765 371l26 0 0 -1M791 371l21 0M812 372l0 -1M812 372l1 0 0 -1 105 0M918 429l0 -64M918 429l1 2M919 434l0 -3M919 434l1 0 0 -1 1 -1 1 0 0 -1 52 0"/>
<path stroke="blue" d="M50 23l46 0"/>
<text stroke="none" fill="white" font-size="16" x="106" y="32">
x1.vsampled_n
</text>
<path stroke="blue" d="M50 459l1 0 1 -7 0 -17 1 -16 0 -5 1 2M54 441l0 -40 1 -5 0 -16 1 -3 0 -2 1 -2 0 -1 1 -1 59 0 0 -1 1 -12 0 -32 1 -4 0 -4 1 -3 0 -2 1 -1 0 -1 419 0M540 312l0 -1 14 0 0 -1M554 311l13 0M567 312l0 -1 7 0M574 336l0 -25M574 336l1 8"/>
<path stroke="blue" d="M575 353l0 -9M575 353l1 2 24 0M600 373l0 -18M600 373l1 3M601 378l0 -2M601 378l1 -1 23 0 0 -1 1 -5 0 -11 1 -1 0 -1 6 0 0 -1M633 358l20 0M653 366l0 -8M653 366l1 2M654 369l0 -1M654 369l5 0 0 -1M659 369l27 0 0 -1M686 369l20 0"/>
<path stroke="blue" d="M706 372l0 -3M706 372l1 0 0 -1 18 0M725 372l0 -1 7 0 0 -3 1 0M733 369l0 -1M733 369l26 0M759 371l0 -2M759 370l19 0M778 371l0 -1 8 0M786 371l0 -1M786 371l54 0 0 -1M840 371l4 0 0 -1M844 371l26 0 0 -1M870 371l27 0 0 -1M897 371l21 0"/>
<path stroke="blue" d="M918 372l0 -32 1 -4 0 -16 1 -2 0 -3 1 -2 0 -1 1 0 0 -1 1 0 0 -1M923 311l13 0M936 312l0 -1 14 0 0 -1M950 311l12 0 0 -1 1 0M963 311l0 -1M963 311l11 0"/>
<path stroke="#FFA500" d="M462 39l46 0"/>
<text stroke="none" fill="white" font-size="16" x="518" y="48">
x1.vsampled_p-x1.vsampled_n
</text>
<path stroke="#FFA500" d="M50 459l2 0M52 460l0 -1M52 460l2 0 0 -1 63 0M117 475l0 -16M117 475l1 27M118 554l0 -52M118 554l1 7M119 567l0 -6M119 567l1 5M120 576l0 -4M120 576l1 2M121 579l0 -1M121 579l418 0M539 580l0 -1 7 0 0 -23 1 -3 0 -23 1 -8 0 -6"/>
<path stroke="#FFA500" d="M548 516l1 -2 1 0 0 -1 4 0M554 514l0 -1 13 0M567 514l0 -2M567 513l7 0 0 -25 1 -8 0 -9 1 -2 17 0M593 470l0 -1 7 0M600 470l0 -18 1 -4 0 -2M601 447l18 0M619 448l0 -1 6 0M625 449l0 -2M625 449l1 5M626 465l0 -11M626 465l1 0"/>
<path stroke="#FFA500" d="M627 466l0 -1M627 466l1 0M628 467l0 -1M628 467l5 0 0 -1M633 467l20 0 0 -9 1 -2 0 -1 1 1 4 0 0 -1M659 456l20 0M679 460l0 -5M679 460l1 1M680 465l0 -4M680 462l1 -1 25 0 0 -3 26 0M732 461l0 -3M732 461l27 0 0 -2 19 0M778 460l0 -1"/>
<path stroke="#FFA500" d="M778 459l8 0 0 -1M786 459l26 0 1 1 0 -1 27 0M840 460l0 -1 78 0M918 548l0 -93M918 548l1 6M919 573l0 -19M919 573l1 2M920 577l0 -2M920 577l1 1M921 579l0 -1M921 579l2 0M923 580l0 -1 13 0 0 -1M936 579l14 0M950 580l0 -1 12 0"/>
<path stroke="#FFA500" d="M962 580l0 -1M962 580l4 0 0 -1 8 0"/>
<path stroke="green" d="M50 39l46 0"/>
<text stroke="none" fill="white" font-size="16" x="106" y="48">
x1.sw_sample-2
</text>
<path stroke="green" d="M50 655l1 0 1 -10 0 -23 1 -21M53 619l0 -25M53 619l1 33M54 655l0 -3M54 655l63 0M117 662l0 -184 1 0M118 479l0 -1M118 479l421 0M539 656l0 -184M539 655l422 0M961 660l0 -182 1 0M962 479l0 -1M962 479l12 0"/>
<path stroke="#FFC0C5" d="M462 55l46 0"/>
<text stroke="none" fill="white" font-size="16" x="518" y="64">
x1.comp_out_p+2
</text>
<path stroke="#FFC0C5" d="M50 263l1 0 1 -10 0 -23 1 -20 0 -4M53 209l1 4M54 264l0 -61M54 208l1 52M55 263l0 -3M55 263l566 0M621 264l0 -179M621 87l13 0M634 264l0 -186M634 264l1 -1 38 0 1 3 0 -181M674 87l13 0M687 263l0 -185M687 263l41 0 0 -177M728 87l12 0"/>
<path stroke="#FFC0C5" d="M740 263l0 -184M740 263l67 0 0 -177M807 87l12 0M819 263l0 -184M819 263l17 0 0 -177 1 0M837 87l0 -1M837 87l8 0 0 -8 1 150M846 263l0 -34M846 263l128 0"/>
<path stroke="#A52A2A" d="M50 55l46 0"/>
<text stroke="none" fill="white" font-size="16" x="106" y="64">
x1.comp_out_n-2
</text>
<path stroke="#A52A2A" d="M50 655l1 0 1 -10 0 -24 1 -20M53 602l0 -3M53 602l1 7M54 656l0 -47M54 654l1 1 486 0 1 1 0 -180M542 479l13 0M555 655l0 -186M555 655l13 0M568 656l0 -180M568 479l13 0 0 -9 1 166M582 655l0 -19M582 655l12 0M594 656l0 -180"/>
<path stroke="#A52A2A" d="M594 478l1 1 13 0M608 655l0 -185M608 655l13 0M621 656l0 -1 26 0M647 656l0 -179M647 479l14 0M661 655l0 -180M661 655l13 0M674 656l0 -1 26 0 0 -178M700 478l1 1 12 0 0 -3 1 167M714 655l0 -12M714 655l39 0M753 656l0 -179M753 479l13 0"/>
<path stroke="#A52A2A" d="M766 655l0 -179M766 655l14 0 0 -177 1 0M781 479l0 -1M781 479l12 0M793 655l0 -188M793 655l67 0 0 -177M860 479l12 0M872 655l0 -188M872 655l14 0 0 -177 1 0M887 479l0 -1M887 479l11 0M898 655l0 -188M898 655l14 0 1 -162 0 -15"/>
<path stroke="#A52A2A" d="M913 479l12 0M925 655l0 -184M925 655l12 0M937 656l0 -1M937 656l1 -88 0 -92M938 479l13 0M951 656l0 -180M951 655l23 0"/>
</svg>
