<?xml version="1.0" standalone="yes"?>
<!DOCTYPE svg PUBLIC "-//W3C//DTD SVG 1.1//EN"
 "http://www.w3.org/Graphics/SVG/1.1/DTD/svg11.dtd">
<svg xmlns="http://www.w3.org/2000/svg" version="1.1"
  width="100%" height="100%" viewBox="0 0 1024 768"
  style="fill: none; font-family: Helvetica;
 font: Helvetica;
">

<!-- Creator: NGspice -->

<rect x="0" y="0" width="1024" height="768" fill="black" stroke="none"/>
<text stroke="none" fill="white" font-size="16" x="358" y="752">
time
</text>
<text stroke="none" fill="white" font-size="16" x="10" y="16">
tran1: run35_vin-0.868799
</text>
<path stroke="white" d="M50 704l0 -637"/>
<text stroke="none" fill="white" font-size="16" x="35" y="728">
0.0
</text>
<path stroke="white" stroke-dasharray="1,2" d="M182 704l0 -637"/>
<text stroke="none" fill="white" font-size="16" x="157" y="728">
100.0
</text>
<path stroke="white" stroke-dasharray="1,2" d="M314 704l0 -637"/>
<text stroke="none" fill="white" font-size="16" x="289" y="728">
200.0
</text>
<path stroke="white" stroke-dasharray="1,2" d="M446 704l0 -637"/>
<text stroke="none" fill="white" font-size="16" x="421" y="728">
300.0
</text>
<path stroke="white" stroke-dasharray="1,2" d="M578 704l0 -637"/>
<text stroke="none" fill="white" font-size="16" x="553" y="728">
400.0
</text>
<path stroke="white" stroke-dasharray="1,2" d="M710 704l0 -637"/>
<text stroke="none" fill="white" font-size="16" x="685" y="728">
500.0
</text>
<path stroke="white" stroke-dasharray="1,2" d="M842 704l0 -637"/>
<text stroke="none" fill="white" font-size="16" x="817" y="728">
600.0
</text>
<path stroke="white" stroke-dasharray="1,2" d="M974 704l0 -637"/>
<text stroke="none" fill="white" font-size="16" x="949" y="728">
700.0
</text>
<text stroke="none" fill="white" font-size="16" x="614" y="752">
ns
</text>
<path stroke="white" stroke-dasharray="1,2" d="M50 704l924 0"/>
<text stroke="none" fill="white" font-size="16" x="8" y="712">
-3.0
</text>
<path stroke="white" stroke-dasharray="1,2" d="M50 613l924 0"/>
<text stroke="none" fill="white" font-size="16" x="8" y="621">
-2.0
</text>
<path stroke="white" stroke-dasharray="1,2" d="M50 522l924 0"/>
<text stroke="none" fill="white" font-size="16" x="8" y="530">
-1.0
</text>
<path stroke="white" d="M50 431l924 0"/>
<text stroke="none" fill="white" font-size="16" x="18" y="439">
0.0
</text>
<path stroke="white" stroke-dasharray="1,2" d="M50 340l924 0"/>
<text stroke="none" fill="white" font-size="16" x="18" y="348">
1.0
</text>
<path stroke="white" stroke-dasharray="1,2" d="M50 249l924 0"/>
<text stroke="none" fill="white" font-size="16" x="18" y="257">
2.0
</text>
<path stroke="white" stroke-dasharray="1,2" d="M50 158l924 0"/>
<text stroke="none" fill="white" font-size="16" x="18" y="166">
3.0
</text>
<path stroke="white" stroke-dasharray="1,2" d="M50 67l924 0"/>
<text stroke="none" fill="white" font-size="16" x="18" y="75">
4.0
</text>
<text stroke="none" fill="white" font-size="16" x="10" y="32">
     
</text>
<path stroke="red" d="M462 23l46 0"/>
<text stroke="none" fill="white" font-size="16" x="518" y="32">
x1.vsampled_p
</text>
<path stroke="red" d="M50 431l1 0 1 -7 0 -15 1 -14 0 -4 1 1M54 414l0 -38 1 -5 0 -13 1 -3 0 -3 1 -1 0 -1 2 0 1 -1 4 0 1 1 2 0 0 -1 50 0M117 374l0 -25M117 374l1 18M118 414l0 -22M118 414l1 3M119 425l0 -8M119 425l1 1M120 427l0 -1M120 427l1 0 1 1"/>
<path stroke="red" d="M122 428l418 0M540 429l0 -1 6 0 0 -24 1 -3 0 -22 1 -6 0 -4 2 -2 75 0 0 -12 1 -2 0 -5 1 0M627 349l0 -1M627 349l19 0M646 350l0 -1 26 0M672 350l0 -1 27 0M699 350l0 -1 26 0M725 350l0 -1 26 0M751 350l0 -1 1 1 0 -1 26 0M778 350l0 -1"/>
<path stroke="red" d="M778 349l26 0M804 350l0 -1 9 0M813 350l0 -1 17 0 1 1 0 -1 7 0 0 -1M838 349l19 0M857 350l0 -1 26 0M883 350l0 -1 27 0M910 350l0 -1 8 0M918 450l0 -101M918 449l1 -2 0 -11 1 -2 0 -3 1 -1 0 -1 1 0 0 -1 14 0M936 429l0 -1 38 0"/>
<path stroke="blue" d="M50 23l46 0"/>
<text stroke="none" fill="white" font-size="16" x="106" y="32">
x1.vsampled_n
</text>
<path stroke="blue" d="M50 431l1 0 1 -7 0 -16 1 -14 0 -5 1 2M54 414l0 -38 1 -5 0 -13 1 -3 0 -3 1 -1 0 -1 2 0 1 -1 3 0 1 1 4 0 1 -1 48 0 0 -1 1 -12 0 -37 1 -7 0 -15 1 -2 0 -2 1 -2 1 0 0 -1 418 0M540 271l0 -1 27 0M567 272l0 -2 7 0M574 298l0 -28"/>
<path stroke="blue" d="M574 298l1 10 1 3 17 0M593 312l0 -1 7 0M600 325l0 -14M600 325l1 4M601 333l0 -4M601 332l5 0 0 -1 1 0M607 332l0 -1M607 332l26 0 0 -1M633 332l20 0M653 339l0 -7M653 339l1 2M654 342l0 -1M654 342l25 0M679 347l0 -5M679 347l1 1"/>
<path stroke="blue" d="M680 348l0 -1 26 0M706 350l0 -3M706 350l6 0 0 -1 13 0M725 350l0 -1M725 350l7 0 0 -3 19 0M751 348l0 -1M751 348l1 0 0 -1 7 0M759 349l0 -2M759 349l6 0 0 -1M765 349l13 0 0 -1M778 349l8 0M786 350l0 -1 132 0 0 -52 1 -3 0 -16"/>
<path stroke="blue" d="M919 278l1 -2 0 -3 1 -1 0 -1 2 0 0 -1 13 0M936 272l0 -2 38 0"/>
<path stroke="#FFA500" d="M462 39l46 0"/>
<text stroke="none" fill="white" font-size="16" x="518" y="48">
x1.vsampled_p-x1.vsampled_n
</text>
<path stroke="#FFA500" d="M50 431l2 0M52 432l0 -1M52 432l2 0 0 -1 63 0M117 458l0 -27M117 458l1 29M118 547l0 -60M118 547l1 10M119 578l0 -21M119 578l1 4M120 585l0 -3M120 585l1 2 1 1M122 589l0 -1M122 589l418 0 0 -1M540 589l6 0 0 -25 1 -2 0 -22 1 -7"/>
<path stroke="#FFA500" d="M548 533l0 -3 1 -2 18 0 0 -2M567 528l7 0 0 -28 1 -10 1 -3 17 0 0 -1M593 487l7 0 0 -14 1 -4 0 -4M601 466l5 0 1 1 0 -1 18 0 0 -12 1 -2 0 -5 1 0M627 448l0 -1M627 448l6 0M633 449l0 -1 13 0M646 449l0 -1 7 0 0 -7 1 -2 0 -1"/>
<path stroke="#FFA500" d="M654 438l18 0M672 439l0 -1 7 0 0 -5 1 -1M680 433l0 -1M680 433l26 0 0 -3 1 0M707 431l0 -1M707 431l5 0 0 -1M712 431l13 0 0 -1M725 431l7 0M732 433l0 -2M732 433l27 0 0 -2M759 432l6 0 0 -1M765 432l13 0 0 -1M778 432l7 0 1 -1"/>
<path stroke="#FFA500" d="M786 431l27 0M813 432l0 -1 25 0 0 -1M838 431l80 0M918 583l0 -152M918 583l1 1M919 588l0 -4M919 588l1 0M920 589l0 -1M920 589l16 0 0 -1M936 589l38 0"/>
<path stroke="green" d="M50 39l46 0"/>
<text stroke="none" fill="white" font-size="16" x="106" y="48">
x1.sw_sample-2
</text>
<path stroke="green" d="M50 613l1 0 1 -9 0 -21 1 -21M53 578l0 -22M53 578l1 32M54 613l0 -3M54 613l63 0M117 620l0 -172M117 449l422 0M539 614l0 -171M539 613l422 0M961 618l0 -170 1 1 12 0"/>
<path stroke="#FFC0C5" d="M462 55l46 0"/>
<text stroke="none" fill="white" font-size="16" x="518" y="64">
x1.comp_out_p+2
</text>
<path stroke="#FFC0C5" d="M50 249l1 0 1 -9 0 -22 1 -18 0 -4M53 198l1 5M54 250l0 -47M54 247l1 2 673 0 0 -164 12 0M740 249l0 -172M740 249l67 0 0 -164 12 0M819 250l0 -172M819 249l41 0 0 -164 12 0M872 249l0 -173M872 249l14 0 1 -148 0 -17M887 85l11 0"/>
<path stroke="#FFC0C5" d="M898 249l0 -173M898 249l15 0 0 -165M913 85l12 0M925 250l0 -168M925 249l49 0"/>
<path stroke="#A52A2A" d="M50 55l46 0"/>
<text stroke="none" fill="white" font-size="16" x="106" y="64">
x1.comp_out_n-2
</text>
<path stroke="#A52A2A" d="M50 613l1 0 1 -9 0 -22 1 -19M53 564l0 -3M53 564l1 6M54 613l0 -43M54 613l487 0 1 1 0 -167M542 449l13 0M555 613l0 -172M555 613l13 0 0 -166M568 449l13 0 0 -7 1 128M582 613l0 -43M582 613l12 0M594 614l0 -167M594 449l14 0"/>
<path stroke="#A52A2A" d="M608 614l0 -167M608 613l13 0 0 -165M621 449l13 0M634 613l0 -172M634 613l13 0M647 616l0 -169M647 449l14 0M661 613l0 -172M661 613l12 0M673 617l0 -4M673 617l1 -127 0 -43M674 449l13 0M687 613l0 -171M687 613l13 0M700 614l0 -166"/>
<path stroke="#A52A2A" d="M700 449l13 0 0 -10 1 149M714 613l0 -25M714 613l39 0 0 -165M753 449l13 0M766 614l0 -170M766 613l14 0 0 -165M780 449l13 0M793 613l0 -174M793 613l41 0 0 -164 11 0 0 -10 1 153M846 613l0 -21M846 613l91 0 1 -62 0 -103M938 449l13 0"/>
<path stroke="#A52A2A" d="M951 613l0 -173M951 613l23 0"/>
</svg>
