<?xml version="1.0" standalone="yes"?>
<!DOCTYPE svg PUBLIC "-//W3C//DTD SVG 1.1//EN"
 "http://www.w3.org/Graphics/SVG/1.1/DTD/svg11.dtd">
<svg xmlns="http://www.w3.org/2000/svg" version="1.1"
  width="100%" height="100%" viewBox="0 0 1024 768"
  style="fill: none; font-family: Helvetica;
 font: Helvetica;
">

<!-- Creator: NGspice -->

<rect x="0" y="0" width="1024" height="768" fill="black" stroke="none"/>
<text stroke="none" fill="white" font-size="16" x="358" y="752">
time
</text>
<text stroke="none" fill="white" font-size="16" x="10" y="16">
tran1: run1216_vin0.169188
</text>
<path stroke="white" d="M50 704l0 -637"/>
<text stroke="none" fill="white" font-size="16" x="35" y="728">
0.0
</text>
<path stroke="white" stroke-dasharray="1,2" d="M182 704l0 -637"/>
<text stroke="none" fill="white" font-size="16" x="157" y="728">
100.0
</text>
<path stroke="white" stroke-dasharray="1,2" d="M314 704l0 -637"/>
<text stroke="none" fill="white" font-size="16" x="289" y="728">
200.0
</text>
<path stroke="white" stroke-dasharray="1,2" d="M446 704l0 -637"/>
<text stroke="none" fill="white" font-size="16" x="421" y="728">
300.0
</text>
<path stroke="white" stroke-dasharray="1,2" d="M578 704l0 -637"/>
<text stroke="none" fill="white" font-size="16" x="553" y="728">
400.0
</text>
<path stroke="white" stroke-dasharray="1,2" d="M710 704l0 -637"/>
<text stroke="none" fill="white" font-size="16" x="685" y="728">
500.0
</text>
<path stroke="white" stroke-dasharray="1,2" d="M842 704l0 -637"/>
<text stroke="none" fill="white" font-size="16" x="817" y="728">
600.0
</text>
<path stroke="white" stroke-dasharray="1,2" d="M974 704l0 -637"/>
<text stroke="none" fill="white" font-size="16" x="949" y="728">
700.0
</text>
<text stroke="none" fill="white" font-size="16" x="614" y="752">
ns
</text>
<path stroke="white" stroke-dasharray="1,2" d="M50 704l924 0"/>
<text stroke="none" fill="white" font-size="16" x="8" y="712">
-3.0
</text>
<path stroke="white" stroke-dasharray="1,2" d="M50 613l924 0"/>
<text stroke="none" fill="white" font-size="16" x="8" y="621">
-2.0
</text>
<path stroke="white" stroke-dasharray="1,2" d="M50 522l924 0"/>
<text stroke="none" fill="white" font-size="16" x="8" y="530">
-1.0
</text>
<path stroke="white" d="M50 431l924 0"/>
<text stroke="none" fill="white" font-size="16" x="18" y="439">
0.0
</text>
<path stroke="white" stroke-dasharray="1,2" d="M50 340l924 0"/>
<text stroke="none" fill="white" font-size="16" x="18" y="348">
1.0
</text>
<path stroke="white" stroke-dasharray="1,2" d="M50 249l924 0"/>
<text stroke="none" fill="white" font-size="16" x="18" y="257">
2.0
</text>
<path stroke="white" stroke-dasharray="1,2" d="M50 158l924 0"/>
<text stroke="none" fill="white" font-size="16" x="18" y="166">
3.0
</text>
<path stroke="white" stroke-dasharray="1,2" d="M50 67l924 0"/>
<text stroke="none" fill="white" font-size="16" x="18" y="75">
4.0
</text>
<text stroke="none" fill="white" font-size="16" x="10" y="32">
     
</text>
<path stroke="red" d="M462 23l46 0"/>
<text stroke="none" fill="white" font-size="16" x="518" y="32">
x1.vsampled_p
</text>
<path stroke="red" d="M50 431l1 0 1 -7 0 -15 1 -15 0 -4 1 1M54 415l0 -39 1 -5 0 -14 1 -3 0 -2 1 -2 2 0 1 -1 4 0M64 350l0 -1M64 350l4 0 1 -1 48 0 1 -5 0 -7 1 -2 1 -1 420 0M540 335l0 -1 14 0 0 -1M554 334l13 0M567 335l0 -1 26 0M593 335l0 -1 7 0"/>
<path stroke="red" d="M600 348l0 -14M600 348l1 3M601 357l0 -6M601 357l1 -1 0 -1 1 0 0 -1 16 0M619 355l0 -1M619 355l1 0 0 -1 5 0 1 -4 0 -13 1 0 0 -1 2 0 1 1 3 0 0 -1 13 0M646 337l0 -1M646 337l7 0M653 346l0 -10M653 346l1 2 0 -1 5 0 0 -1M659 347l27 0"/>
<path stroke="red" d="M686 347l0 -1M686 347l20 0M706 350l0 -3M706 350l1 0 0 -1 18 0M725 350l0 -1 26 0M751 350l0 -1 27 0M778 350l0 -1 26 0M804 350l0 -1 27 0M831 350l0 -1 26 0M857 350l0 -1 26 0M883 350l0 -1 27 0M910 350l0 -1 7 0 1 1 0 -11 1 -2"/>
<path stroke="red" d="M919 337l0 -3 17 0M936 335l0 -1 38 0"/>
<path stroke="blue" d="M50 23l46 0"/>
<text stroke="none" fill="white" font-size="16" x="106" y="32">
x1.vsampled_n
</text>
<path stroke="blue" d="M50 431l1 0 1 -7 0 -15 1 -14 0 -5 1 2M54 415l0 -39 1 -5 0 -14 1 -3 0 -2 1 -2 2 0 1 -1 4 0M64 350l0 -1M64 350l4 0 1 -1 48 0M117 351l0 -2M117 351l1 5M118 361l0 -5M118 361l1 2 1 1 419 0M539 365l0 -1M539 365l2 0 0 -1M541 365l5 0"/>
<path stroke="blue" d="M546 365l0 -16 1 -5 0 -26 1 -6 0 -4 1 -2 0 -1 1 -1 1 0 1 -1 14 0 1 1M567 305l0 -2 7 0M574 332l0 -29M574 332l1 6M575 346l0 -8M575 346l1 0 0 -1 1 0 1 -1 15 0M593 345l0 -1 26 0M619 345l0 -1 27 0M646 345l0 -1 26 0M672 345l0 -1"/>
<path stroke="blue" d="M672 344l7 0M679 350l0 -6M679 350l1 1M680 352l0 -2 1 -1 17 0 1 1 0 -1 26 0M725 350l0 -1 8 0 0 -3M733 347l18 0M751 348l0 -1 8 0M759 350l0 -3M759 348l19 0M778 349l0 -1 7 0M785 349l0 -1M785 349l1 0M786 350l0 -1 27 0M813 350l0 -1"/>
<path stroke="blue" d="M813 349l17 0 1 1 0 -1 86 0M917 350l0 -1M917 350l1 -1M918 367l0 -19M918 367l1 0 0 -2 43 0 0 -1 12 0"/>
<path stroke="#FFA500" d="M462 39l46 0"/>
<text stroke="none" fill="white" font-size="16" x="518" y="48">
x1.vsampled_p-x1.vsampled_n
</text>
<path stroke="#FFA500" d="M50 431l67 0 0 -2 1 -10 0 -12 1 -4 1 -2 1 -1 419 0M540 401l0 -1 1 0M541 401l0 -1 5 0M546 416l0 -16M546 416l1 5M547 447l0 -26M547 447l1 6M548 457l0 -4M548 457l1 2M549 460l0 -1M549 460l1 1 1 0 1 1 14 0 1 -1M567 462l0 -1"/>
<path stroke="#FFA500" d="M567 462l7 0 0 -29 1 -6 0 -8 1 0M576 420l0 -1M576 420l1 0 1 1 15 0 0 -1M593 421l7 0M600 434l0 -13M600 434l1 4M601 444l0 -6M601 444l1 -1 0 -1 1 -1 22 0 0 -1 1 -4 0 -12 1 -1 26 0M653 433l0 -10M653 433l1 1M654 435l0 -1"/>
<path stroke="#FFA500" d="M654 434l1 0 1 -1 3 0M659 434l0 -1 13 0M672 434l0 -1 7 0M679 434l0 -6 1 -1M680 428l0 -2M680 428l26 0M706 432l0 -4M706 432l1 -1 26 0M733 434l0 -3M733 434l1 -1 25 0 0 -2M759 432l26 0 0 -1 28 0 0 -1M813 431l25 0M838 432l0 -1"/>
<path stroke="#FFA500" d="M838 431l79 0 0 -1 1 2M918 433l0 -30 1 -3 0 -1 1 1 16 0M936 401l0 -1 38 0"/>
<path stroke="green" d="M50 39l46 0"/>
<text stroke="none" fill="white" font-size="16" x="106" y="48">
x1.sw_sample-2
</text>
<path stroke="green" d="M50 613l1 0 1 -9 0 -21 1 -21M53 581l0 -25M53 581l1 29M54 613l0 -3M54 613l63 0M117 620l0 -172M117 449l422 0M539 614l0 -171M539 613l422 0M961 618l0 -170 1 1 12 0"/>
<path stroke="#FFC0C5" d="M462 55l46 0"/>
<text stroke="none" fill="white" font-size="16" x="518" y="64">
x1.comp_out_p+2
</text>
<path stroke="#FFC0C5" d="M50 249l1 0 1 -9 0 -22 1 -18 0 -4M53 198l1 5M54 249l0 -46M54 249l487 0 1 1 0 -167M542 85l13 0M555 249l0 -172M555 249l39 0M594 251l0 -167 1 1 13 0M608 249l0 -171M608 249l39 0 0 -166M647 85l14 0M661 249l0 -166M661 249l39 0"/>
<path stroke="#FFC0C5" d="M700 250l0 -167M700 85l13 0 0 -7 1 147M714 249l0 -24M714 249l14 0 1 -155 0 -10M729 85l11 0M740 249l0 -173M740 249l94 0 0 -165M834 85l11 0 0 -9 1 140M846 249l0 -33M846 249l91 0 1 -50 0 -115M938 85l13 0M951 250l0 -166"/>
<path stroke="#FFC0C5" d="M951 249l23 0"/>
<path stroke="#A52A2A" d="M50 55l46 0"/>
<text stroke="none" fill="white" font-size="16" x="106" y="64">
x1.comp_out_n-2
</text>
<path stroke="#A52A2A" d="M50 613l1 0 1 -9 0 -22 1 -19M53 564l0 -3M53 564l1 6M54 613l0 -43M54 613l514 0M568 615l0 -168M568 449l13 0 0 -9 1 165M582 614l0 -9M582 613l12 0M594 614l0 -1 27 0M621 617l0 -170M621 449l13 0M634 613l0 -173M634 613l39 0"/>
<path stroke="#A52A2A" d="M673 613l1 2 0 -168M674 449l13 0M687 613l0 -171M687 613l66 0 0 -165M753 449l13 0M766 614l0 -174M766 614l1 -1 13 0 0 -165M780 449l13 0M793 614l0 -169M793 613l14 0 0 -164 12 0M819 614l0 -171M819 613l41 0M860 614l0 -166"/>
<path stroke="#A52A2A" d="M860 449l12 0M872 614l0 -169M872 613l14 0 0 -158 1 -7M887 449l0 -1M887 449l11 0M898 614l0 -169M898 613l14 0 1 -158 0 -7M913 449l12 0M925 613l0 -173M925 613l49 0"/>
</svg>
