<?xml version="1.0" standalone="yes"?>
<!DOCTYPE svg PUBLIC "-//W3C//DTD SVG 1.1//EN"
 "http://www.w3.org/Graphics/SVG/1.1/DTD/svg11.dtd">
<svg xmlns="http://www.w3.org/2000/svg" version="1.1"
  width="100%" height="100%" viewBox="0 0 1024 768"
  style="fill: none; font-family: Helvetica;
 font: Helvetica;
">

<!-- Creator: NGspice -->

<rect x="0" y="0" width="1024" height="768" fill="black" stroke="none"/>
<text stroke="none" fill="white" font-size="16" x="358" y="752">
time
</text>
<text stroke="none" fill="white" font-size="16" x="10" y="16">
tran1: run1598_vin0.50493
</text>
<path stroke="white" d="M50 704l0 -637"/>
<text stroke="none" fill="white" font-size="16" x="35" y="728">
0.0
</text>
<path stroke="white" stroke-dasharray="1,2" d="M182 704l0 -637"/>
<text stroke="none" fill="white" font-size="16" x="157" y="728">
100.0
</text>
<path stroke="white" stroke-dasharray="1,2" d="M314 704l0 -637"/>
<text stroke="none" fill="white" font-size="16" x="289" y="728">
200.0
</text>
<path stroke="white" stroke-dasharray="1,2" d="M446 704l0 -637"/>
<text stroke="none" fill="white" font-size="16" x="421" y="728">
300.0
</text>
<path stroke="white" stroke-dasharray="1,2" d="M578 704l0 -637"/>
<text stroke="none" fill="white" font-size="16" x="553" y="728">
400.0
</text>
<path stroke="white" stroke-dasharray="1,2" d="M710 704l0 -637"/>
<text stroke="none" fill="white" font-size="16" x="685" y="728">
500.0
</text>
<path stroke="white" stroke-dasharray="1,2" d="M842 704l0 -637"/>
<text stroke="none" fill="white" font-size="16" x="817" y="728">
600.0
</text>
<path stroke="white" stroke-dasharray="1,2" d="M974 704l0 -637"/>
<text stroke="none" fill="white" font-size="16" x="949" y="728">
700.0
</text>
<text stroke="none" fill="white" font-size="16" x="614" y="752">
ns
</text>
<path stroke="white" stroke-dasharray="1,2" d="M50 704l924 0"/>
<text stroke="none" fill="white" font-size="16" x="8" y="712">
-3.0
</text>
<path stroke="white" stroke-dasharray="1,2" d="M50 613l924 0"/>
<text stroke="none" fill="white" font-size="16" x="8" y="621">
-2.0
</text>
<path stroke="white" stroke-dasharray="1,2" d="M50 522l924 0"/>
<text stroke="none" fill="white" font-size="16" x="8" y="530">
-1.0
</text>
<path stroke="white" d="M50 431l924 0"/>
<text stroke="none" fill="white" font-size="16" x="18" y="439">
0.0
</text>
<path stroke="white" stroke-dasharray="1,2" d="M50 340l924 0"/>
<text stroke="none" fill="white" font-size="16" x="18" y="348">
1.0
</text>
<path stroke="white" stroke-dasharray="1,2" d="M50 249l924 0"/>
<text stroke="none" fill="white" font-size="16" x="18" y="257">
2.0
</text>
<path stroke="white" stroke-dasharray="1,2" d="M50 158l924 0"/>
<text stroke="none" fill="white" font-size="16" x="18" y="166">
3.0
</text>
<path stroke="white" stroke-dasharray="1,2" d="M50 67l924 0"/>
<text stroke="none" fill="white" font-size="16" x="18" y="75">
4.0
</text>
<text stroke="none" fill="white" font-size="16" x="10" y="32">
     
</text>
<path stroke="red" d="M462 23l46 0"/>
<text stroke="none" fill="white" font-size="16" x="518" y="32">
x1.vsampled_p
</text>
<path stroke="red" d="M50 431l1 0 1 -7 0 -15 1 -15 0 -4 1 1M54 414l0 -39 1 -4 0 -14 1 -2 0 -3 2 -2 1 0 1 -1 3 0 1 1 4 0 1 -1 48 0 0 -1 1 -10 0 -21 1 -4 0 -6 1 -2 2 -2 418 0M540 304l0 -1M540 304l1 -1M541 304l0 -1 1 1 0 -1 24 0 1 1M567 305l0 -2"/>
<path stroke="red" d="M567 303l7 0M574 329l0 -26M574 329l1 9M575 343l0 -5M575 343l1 1 17 0M593 345l0 -1 26 0M619 345l0 -1 27 0M646 345l0 -1 26 0M672 345l0 -1 7 0M679 349l0 -5M679 349l1 0M680 351l0 -2M680 350l1 -1 17 0 1 1 0 -1 26 0M725 350l0 -1"/>
<path stroke="red" d="M725 349l8 0 0 -2 26 0M759 349l0 -2M759 348l19 0M778 349l0 -1 7 0M785 349l0 -1M785 349l1 0M786 350l0 -1 26 0M812 350l0 -1M812 350l1 -1 17 0 1 1 0 -1 86 0M917 350l0 -1 1 -5 0 -22 1 -2 0 -8 1 -4 0 -2 1 -1 0 -1 2 0 0 -1 13 0"/>
<path stroke="red" d="M936 305l0 -2 1 1 0 -1M937 304l1 -1 36 0"/>
<path stroke="blue" d="M50 23l46 0"/>
<text stroke="none" fill="white" font-size="16" x="106" y="32">
x1.vsampled_n
</text>
<path stroke="blue" d="M50 431l1 0 1 -7 0 -15 1 -14 0 -5 1 2M54 415l0 -40 1 -4 0 -14 1 -2 0 -3 2 -2 1 0 1 -1 3 0 1 1 4 0 1 -1 48 0M117 359l0 -10M117 359l1 12M118 385l0 -14M118 385l1 4M119 392l0 -3M119 392l1 2 1 0M121 395l0 -1M121 395l425 0 0 -22"/>
<path stroke="blue" d="M546 373l1 -3 0 -24 1 -4 0 -5 1 -1 0 -1 1 -1 4 0 0 -1M554 334l13 0M567 335l0 -1 13 0 0 -1M580 334l13 0M593 335l0 -1 7 0M600 353l0 -19M600 353l1 4M601 361l0 -4M601 359l1 -2 0 -2 1 -1 16 0M619 355l0 -1M619 355l1 0 0 -1 5 0"/>
<path stroke="blue" d="M625 354l0 -6 1 -4 0 -8 1 -1M627 336l0 -1M627 336l3 0M630 337l0 -1M630 337l2 0 0 -1 14 0M646 337l0 -1M646 337l1 0 0 -1 6 0M653 347l0 -11M653 347l1 2 0 -1 1 -1 4 0 0 -1M659 347l27 0 0 -1M686 347l20 0M706 351l0 -4M706 350l1 0"/>
<path stroke="blue" d="M707 350l0 -1 18 0M725 350l0 -1 26 0M751 350l0 -1M751 350l1 0 0 -1 26 0M778 350l0 -1 26 0M804 350l0 -1 27 0M831 350l0 -1 26 0M857 350l0 -1 26 0M883 350l0 -1 27 0M910 350l0 -1 7 0 1 3M918 387l0 -35M918 387l1 3M919 397l0 -7"/>
<path stroke="blue" d="M919 397l1 0 0 -1 1 0 0 -1 53 0"/>
<path stroke="#FFA500" d="M462 39l46 0"/>
<text stroke="none" fill="white" font-size="16" x="518" y="48">
x1.vsampled_p-x1.vsampled_n
</text>
<path stroke="#FFA500" d="M50 431l2 0 1 -1 1 0M54 431l0 -1M54 431l63 0 0 -11 1 -22 0 -35 1 -8 0 -9 1 -3 1 -2 0 -1 1 -1 418 0M540 340l0 -1 1 0M541 340l0 -1 5 0M546 361l0 -22M546 361l1 4M547 388l0 -23M547 388l1 4M548 398l0 -6M548 398l1 1M549 400l0 -1"/>
<path stroke="#FFA500" d="M549 400l1 0 1 1 3 0 0 -1M554 401l13 0 0 -1M567 401l7 0M574 426l0 -25M574 426l1 9M575 440l0 -5M575 440l1 1 4 0M580 442l0 -1 13 0M593 442l0 -1 7 0 0 -19 1 -3 0 -4M601 416l1 3M602 421l0 -2M602 421l23 0M625 427l0 -6M625 427l1 4"/>
<path stroke="#FFA500" d="M626 440l0 -9M626 440l1 0 1 -1 18 0 0 -1M646 439l7 0 0 -11 1 -2M654 427l0 -1M654 427l2 2 16 0 0 -1M672 429l7 0M679 433l0 -4M679 433l1 1M680 435l0 -1 26 0 0 -4 1 1 26 0 0 -3M733 429l26 0M759 431l0 -2M759 430l26 0M785 431l0 -1"/>
<path stroke="#FFA500" d="M785 431l27 0M812 432l0 -1 105 0M917 432l0 -1 1 -8 0 -57 1 -5 0 -16 1 -2 0 -2 1 -1 1 0 0 -1 14 0M936 340l0 -1 38 0"/>
<path stroke="green" d="M50 39l46 0"/>
<text stroke="none" fill="white" font-size="16" x="106" y="48">
x1.sw_sample-2
</text>
<path stroke="green" d="M50 613l1 0 1 -9 0 -21 1 -21M53 580l0 -24M53 580l1 30M54 613l0 -3M54 613l63 0M117 620l0 -172M117 449l422 0M539 614l0 -171M539 613l422 0M961 618l0 -170 1 1 12 0"/>
<path stroke="#FFC0C5" d="M462 55l46 0"/>
<text stroke="none" fill="white" font-size="16" x="518" y="64">
x1.comp_out_p+2
</text>
<path stroke="#FFC0C5" d="M50 249l1 0 1 -9 0 -22 1 -18 0 -4M53 198l1 5M54 249l0 -46M54 249l487 0 1 1 0 -167M542 85l13 0M555 250l0 -168M555 249l13 0M568 250l0 -166M568 85l13 0 0 -9 1 163M582 250l0 -11M582 249l39 0M621 253l0 -170M621 85l13 0M634 249l0 -174"/>
<path stroke="#FFC0C5" d="M634 249l39 0 1 2 0 -168M674 85l13 0M687 249l0 -172M687 249l66 0 0 -165M753 85l13 0M766 249l0 -173M766 249l14 0 0 -165M780 85l13 0M793 249l0 -174M793 249l14 0 0 -165 1 1 11 0M819 249l0 -167M819 249l41 0 0 -165 1 1 11 0"/>
<path stroke="#FFC0C5" d="M872 249l0 -174M872 249l14 0 1 -145 0 -20M887 85l11 0M898 249l0 -174M898 249l14 0 1 -157 0 -8M913 85l12 0M925 249l0 -172M925 249l12 0 1 -18 0 -148M938 85l13 0M951 249l0 -172M951 249l23 0"/>
<path stroke="#A52A2A" d="M50 55l46 0"/>
<text stroke="none" fill="white" font-size="16" x="106" y="64">
x1.comp_out_n-2
</text>
<path stroke="#A52A2A" d="M50 613l1 0 1 -9 0 -22 1 -19M53 564l0 -3M53 564l1 6M54 614l0 -44M54 612l1 1 539 0M594 615l0 -168M594 449l14 0M608 613l0 -172M608 613l39 0M647 618l0 -171M647 449l14 0M661 614l0 -170M661 613l39 0M700 614l0 -167M700 449l13 0"/>
<path stroke="#A52A2A" d="M713 449l0 -10 1 153M714 613l0 -21M714 613l14 0 0 -164 1 -1M729 449l0 -1M729 449l11 0M740 613l0 -174M740 613l94 0 0 -164 11 0 0 -2M845 448l1 154M846 613l0 -11M846 613l128 0"/>
</svg>
