<?xml version="1.0" standalone="yes"?>
<!DOCTYPE svg PUBLIC "-//W3C//DTD SVG 1.1//EN"
 "http://www.w3.org/Graphics/SVG/1.1/DTD/svg11.dtd">
<svg xmlns="http://www.w3.org/2000/svg" version="1.1"
  width="100%" height="100%" viewBox="0 0 1024 768"
  style="fill: none; font-family: Helvetica;
 font: Helvetica;
">

<!-- Creator: NGspice -->

<rect x="0" y="0" width="1024" height="768" fill="black" stroke="none"/>
<text stroke="none" fill="white" font-size="16" x="358" y="752">
time
</text>
<text stroke="none" fill="white" font-size="16" x="10" y="16">
tran1: run459_vin-0.496143
</text>
<path stroke="white" d="M50 704l0 -637"/>
<text stroke="none" fill="white" font-size="16" x="35" y="728">
0.0
</text>
<path stroke="white" stroke-dasharray="1,2" d="M182 704l0 -637"/>
<text stroke="none" fill="white" font-size="16" x="157" y="728">
100.0
</text>
<path stroke="white" stroke-dasharray="1,2" d="M314 704l0 -637"/>
<text stroke="none" fill="white" font-size="16" x="289" y="728">
200.0
</text>
<path stroke="white" stroke-dasharray="1,2" d="M446 704l0 -637"/>
<text stroke="none" fill="white" font-size="16" x="421" y="728">
300.0
</text>
<path stroke="white" stroke-dasharray="1,2" d="M578 704l0 -637"/>
<text stroke="none" fill="white" font-size="16" x="553" y="728">
400.0
</text>
<path stroke="white" stroke-dasharray="1,2" d="M710 704l0 -637"/>
<text stroke="none" fill="white" font-size="16" x="685" y="728">
500.0
</text>
<path stroke="white" stroke-dasharray="1,2" d="M842 704l0 -637"/>
<text stroke="none" fill="white" font-size="16" x="817" y="728">
600.0
</text>
<path stroke="white" stroke-dasharray="1,2" d="M974 704l0 -637"/>
<text stroke="none" fill="white" font-size="16" x="949" y="728">
700.0
</text>
<text stroke="none" fill="white" font-size="16" x="614" y="752">
ns
</text>
<path stroke="white" stroke-dasharray="1,2" d="M50 704l924 0"/>
<text stroke="none" fill="white" font-size="16" x="8" y="712">
-3.0
</text>
<path stroke="white" stroke-dasharray="1,2" d="M50 613l924 0"/>
<text stroke="none" fill="white" font-size="16" x="8" y="621">
-2.0
</text>
<path stroke="white" stroke-dasharray="1,2" d="M50 522l924 0"/>
<text stroke="none" fill="white" font-size="16" x="8" y="530">
-1.0
</text>
<path stroke="white" d="M50 431l924 0"/>
<text stroke="none" fill="white" font-size="16" x="18" y="439">
0.0
</text>
<path stroke="white" stroke-dasharray="1,2" d="M50 340l924 0"/>
<text stroke="none" fill="white" font-size="16" x="18" y="348">
1.0
</text>
<path stroke="white" stroke-dasharray="1,2" d="M50 249l924 0"/>
<text stroke="none" fill="white" font-size="16" x="18" y="257">
2.0
</text>
<path stroke="white" stroke-dasharray="1,2" d="M50 158l924 0"/>
<text stroke="none" fill="white" font-size="16" x="18" y="166">
3.0
</text>
<path stroke="white" stroke-dasharray="1,2" d="M50 67l924 0"/>
<text stroke="none" fill="white" font-size="16" x="18" y="75">
4.0
</text>
<text stroke="none" fill="white" font-size="16" x="10" y="32">
     
</text>
<path stroke="red" d="M462 23l46 0"/>
<text stroke="none" fill="white" font-size="16" x="518" y="32">
x1.vsampled_p
</text>
<path stroke="red" d="M50 431l1 0 1 -7 0 -15 1 -14 0 -5 1 2M54 415l0 -40 1 -4 0 -14 1 -3 0 -2 2 -2 1 0 1 -1 3 0 1 1 4 0 1 -1 48 0M117 359l0 -10M117 359l1 12M118 385l0 -14M118 385l1 3M119 392l0 -4M119 392l2 2 419 0M540 395l0 -1 6 0M546 395l0 -25"/>
<path stroke="red" d="M546 370l1 -4 0 -23 1 -2 0 -5 1 -1 0 -1 1 -1 4 0 0 -1M554 333l13 0M567 334l0 -1 26 0M593 334l0 -1 7 0M600 352l0 -19M600 352l1 3M601 360l0 -5M601 358l1 -2 0 -2 1 0 1 -1 1 1 1 0 0 -1 13 0M619 354l0 -1M619 354l1 0 0 -1M620 354l5 0"/>
<path stroke="red" d="M625 354l0 -2 1 -7 0 -10 2 0 1 1 4 0 0 -1M633 336l20 0M653 345l0 -9M653 345l1 2M654 348l0 -1 1 0 0 -1 51 0M706 350l0 -4M706 350l2 -2 17 0M725 349l0 -1 26 0M751 349l0 -1M751 349l1 0 0 -1 26 0M778 349l0 -1 7 0M785 349l0 -1"/>
<path stroke="red" d="M785 349l1 1 0 -1 27 0M813 350l0 -1 17 0 1 1 0 -1 87 0M918 374l0 -26M918 374l1 3M919 390l0 -13M919 390l1 4M920 396l0 -2M920 396l1 0 0 -1 2 0 0 -1 13 0M936 395l0 -1 38 0"/>
<path stroke="blue" d="M50 23l46 0"/>
<text stroke="none" fill="white" font-size="16" x="106" y="32">
x1.vsampled_n
</text>
<path stroke="blue" d="M50 431l1 0 1 -7 0 -15 1 -15 0 -4 1 1M54 414l0 -39 1 -4 0 -14 1 -3 0 -2 2 -2 1 0 1 -1 3 0 1 1 4 0 1 -1 48 0 0 -1 1 -10 0 -20 1 -5 0 -5 1 -2 1 -1 0 -1 419 0M540 305l0 -1 26 0 1 1 0 -1 6 0M573 306l0 -2M573 306l1 5M574 332l0 -21"/>
<path stroke="blue" d="M574 332l1 5M575 344l0 -7M575 344l1 1 103 0M679 349l0 -4M679 349l1 1M680 352l0 -2 51 0 0 -2 1 0 0 -1M732 348l27 0M759 350l0 -2M759 349l19 0M778 350l0 -1 26 0M804 350l0 -1 27 0M831 350l0 -1 26 0M857 350l0 -1 26 0M883 350l0 -1"/>
<path stroke="blue" d="M883 349l27 0M910 350l0 -1 8 0M918 351l0 -17 1 -3 0 -10 1 -3 0 -6 1 -3 0 -3 1 0 0 -1 1 0 0 -1 13 0M936 305l0 -1 38 0"/>
<path stroke="#FFA500" d="M462 39l46 0"/>
<text stroke="none" fill="white" font-size="16" x="518" y="48">
x1.vsampled_p-x1.vsampled_n
</text>
<path stroke="#FFA500" d="M50 431l2 0 1 1 1 0 0 -1 63 0M117 442l0 -11M117 442l1 22M118 498l0 -34M118 498l1 8M119 515l0 -9M119 515l1 3 1 2M121 521l0 -1M121 521l419 0 0 -1M540 521l6 0 0 -24 1 -4 0 -23 1 -2 0 -6 2 -2 17 0M567 461l0 -2M567 460l6 0"/>
<path stroke="#FFA500" d="M573 460l0 -2 1 -5 0 -21 1 -5 0 -7 1 -1 17 0M593 420l0 -1 7 0M600 438l0 -19M600 438l1 3M601 446l0 -5M601 444l1 -2 0 -2 1 0 0 -1 3 0M606 440l0 -1M606 440l1 -1 12 0M619 440l0 -1M619 440l1 0 0 -1 5 0 0 -1 1 -7 0 -10 1 -1"/>
<path stroke="#FFA500" d="M627 421l0 -1M627 421l2 0M629 422l0 -1M629 422l4 0 0 -1M633 422l13 0 0 -1M646 422l7 0M653 431l0 -10M653 431l1 2M654 434l0 -1 1 0 0 -1 24 0 0 -5 1 0 0 -2M680 427l26 0M706 431l0 -4M706 431l1 -1 0 -1 24 0M731 432l0 -3M731 432l1 0"/>
<path stroke="#FFA500" d="M732 432l0 -1 19 0M751 432l0 -1M751 432l1 0 0 -1 7 0M759 432l0 -3M759 430l26 0M785 431l0 -1M785 431l1 0M786 432l0 -1 27 0M813 432l0 -1 25 0 0 -1M838 431l80 0M918 471l0 -43M918 471l1 6M919 500l0 -23M919 500l1 7M920 516l0 -9"/>
<path stroke="#FFA500" d="M920 516l1 2M921 520l0 -2M921 520l1 0M922 521l0 -1M922 521l14 0 0 -1M936 521l14 0M950 522l0 -1 24 0"/>
<path stroke="green" d="M50 39l46 0"/>
<text stroke="none" fill="white" font-size="16" x="106" y="48">
x1.sw_sample-2
</text>
<path stroke="green" d="M50 613l1 0 1 -9 0 -21 1 -21M53 580l0 -24M53 580l1 30M54 613l0 -3M54 613l63 0M117 620l0 -172M117 449l422 0M539 614l0 -171M539 613l422 0M961 618l0 -170 1 1 12 0"/>
<path stroke="#FFC0C5" d="M462 55l46 0"/>
<text stroke="none" fill="white" font-size="16" x="518" y="64">
x1.comp_out_p+2
</text>
<path stroke="#FFC0C5" d="M50 249l1 0 1 -9 0 -22 1 -18 0 -4M53 198l1 5M54 250l0 -47M54 248l1 1 539 0 0 -165M594 85l14 0M608 249l0 -171M608 249l39 0 0 -166M647 85l14 0M661 249l0 -172M661 249l39 0M700 254l0 -171M700 85l13 0 0 -8 1 161M714 249l0 -11"/>
<path stroke="#FFC0C5" d="M714 249l13 0 0 -165M727 85l13 0M740 250l0 -173M740 249l40 0 0 -165M780 85l13 0M793 249l0 -174M793 249l14 0 0 -164 1 -1M808 85l0 -1M808 85l11 0M819 250l0 -171M819 249l41 0 0 -164 12 0M872 249l0 -174M872 249l14 0 0 -148"/>
<path stroke="#FFC0C5" d="M886 101l1 -16 0 -1M887 85l11 0M898 249l0 -174M898 249l15 0 0 -165M913 85l12 0M925 250l0 -171M925 249l49 0"/>
<path stroke="#A52A2A" d="M50 55l46 0"/>
<text stroke="none" fill="white" font-size="16" x="106" y="64">
x1.comp_out_n-2
</text>
<path stroke="#A52A2A" d="M50 613l1 0 1 -9 0 -22 1 -19M53 564l0 -3M53 564l1 6M54 613l0 -43M54 613l488 0 0 -165M542 449l13 0M555 614l0 -168M555 613l13 0 0 -166M568 449l13 0 0 -8 1 152M582 613l0 -20M582 613l39 0M621 614l0 -167M621 449l13 0M634 613l0 -170"/>
<path stroke="#A52A2A" d="M634 613l40 0 0 -166M674 449l13 0M687 613l0 -173M687 613l66 0 0 -165 1 0M754 449l0 -1M754 449l12 0M766 613l0 -173M766 613l68 0 0 -165M834 449l11 0 0 -8 1 154M846 613l0 -18M846 613l91 0 0 -4 1 -138 0 -24M938 449l13 0"/>
<path stroke="#A52A2A" d="M951 613l0 -173M951 613l23 0"/>
</svg>
