<?xml version="1.0" standalone="yes"?>
<!DOCTYPE svg PUBLIC "-//W3C//DTD SVG 1.1//EN"
 "http://www.w3.org/Graphics/SVG/1.1/DTD/svg11.dtd">
<svg xmlns="http://www.w3.org/2000/svg" version="1.1"
  width="100%" height="100%" viewBox="0 0 1024 768"
  style="fill: none; font-family: Helvetica;
 font: Helvetica;
">

<!-- Creator: NGspice -->

<rect x="0" y="0" width="1024" height="768" fill="black" stroke="none"/>
<text stroke="none" fill="white" font-size="16" x="358" y="752">
time
</text>
<text stroke="none" fill="white" font-size="16" x="10" y="16">
tran1: run463_vin-0.492628
</text>
<path stroke="white" d="M50 704l0 -637"/>
<text stroke="none" fill="white" font-size="16" x="35" y="728">
0.0
</text>
<path stroke="white" stroke-dasharray="1,2" d="M182 704l0 -637"/>
<text stroke="none" fill="white" font-size="16" x="157" y="728">
100.0
</text>
<path stroke="white" stroke-dasharray="1,2" d="M314 704l0 -637"/>
<text stroke="none" fill="white" font-size="16" x="289" y="728">
200.0
</text>
<path stroke="white" stroke-dasharray="1,2" d="M446 704l0 -637"/>
<text stroke="none" fill="white" font-size="16" x="421" y="728">
300.0
</text>
<path stroke="white" stroke-dasharray="1,2" d="M578 704l0 -637"/>
<text stroke="none" fill="white" font-size="16" x="553" y="728">
400.0
</text>
<path stroke="white" stroke-dasharray="1,2" d="M710 704l0 -637"/>
<text stroke="none" fill="white" font-size="16" x="685" y="728">
500.0
</text>
<path stroke="white" stroke-dasharray="1,2" d="M842 704l0 -637"/>
<text stroke="none" fill="white" font-size="16" x="817" y="728">
600.0
</text>
<path stroke="white" stroke-dasharray="1,2" d="M974 704l0 -637"/>
<text stroke="none" fill="white" font-size="16" x="949" y="728">
700.0
</text>
<text stroke="none" fill="white" font-size="16" x="614" y="752">
ns
</text>
<path stroke="white" stroke-dasharray="1,2" d="M50 704l924 0"/>
<text stroke="none" fill="white" font-size="16" x="8" y="712">
-3.0
</text>
<path stroke="white" stroke-dasharray="1,2" d="M50 613l924 0"/>
<text stroke="none" fill="white" font-size="16" x="8" y="621">
-2.0
</text>
<path stroke="white" stroke-dasharray="1,2" d="M50 522l924 0"/>
<text stroke="none" fill="white" font-size="16" x="8" y="530">
-1.0
</text>
<path stroke="white" d="M50 431l924 0"/>
<text stroke="none" fill="white" font-size="16" x="18" y="439">
0.0
</text>
<path stroke="white" stroke-dasharray="1,2" d="M50 340l924 0"/>
<text stroke="none" fill="white" font-size="16" x="18" y="348">
1.0
</text>
<path stroke="white" stroke-dasharray="1,2" d="M50 249l924 0"/>
<text stroke="none" fill="white" font-size="16" x="18" y="257">
2.0
</text>
<path stroke="white" stroke-dasharray="1,2" d="M50 158l924 0"/>
<text stroke="none" fill="white" font-size="16" x="18" y="166">
3.0
</text>
<path stroke="white" stroke-dasharray="1,2" d="M50 67l924 0"/>
<text stroke="none" fill="white" font-size="16" x="18" y="75">
4.0
</text>
<text stroke="none" fill="white" font-size="16" x="10" y="32">
     
</text>
<path stroke="red" d="M462 23l46 0"/>
<text stroke="none" fill="white" font-size="16" x="518" y="32">
x1.vsampled_p
</text>
<path stroke="red" d="M50 431l1 0 1 -7 0 -15 1 -14 0 -5 1 2M54 415l0 -40 1 -4 0 -14 1 -2 0 -3 2 -2 1 0 1 -1 3 0 1 1 4 0 1 -1 48 0M117 359l0 -10M117 359l1 12M118 384l0 -13M118 384l1 4M119 392l0 -4M119 392l1 1 1 0M121 394l0 -1M121 394l425 0 0 -22"/>
<path stroke="red" d="M546 372l1 -3 0 -26 1 -2 0 -5 1 -1 0 -1 1 -1 4 0 0 -1M554 333l13 0M567 334l0 -1 13 0 0 -1M580 333l13 0M593 334l0 -1 7 0M600 353l0 -20M600 353l1 3M601 359l0 -3M601 357l1 -2 0 -2 17 0M619 354l0 -1 6 0 0 -5 1 -4 0 -10 1 0M627 335l0 -1"/>
<path stroke="red" d="M627 335l19 0M646 336l0 -1 7 0M653 347l0 -12M653 347l1 1 0 -1 1 -1 4 0 0 -1 13 0M672 346l0 -1M672 346l14 0 0 -1 12 0M698 346l0 -1M698 346l1 0 0 -1M699 346l7 0M706 350l0 -4M706 349l1 -1 18 0M725 349l0 -1 26 0M751 349l0 -1"/>
<path stroke="red" d="M751 348l8 0M759 351l0 -3M759 350l1 0 0 -1 18 0M778 350l0 -1 26 0M804 350l0 -1 26 0 1 1 0 -1 87 0M918 376l0 -28M918 376l1 3M919 393l0 -14M919 393l1 2M920 396l0 -1M920 396l1 -1 1 0 0 -1 52 0"/>
<path stroke="blue" d="M50 23l46 0"/>
<text stroke="none" fill="white" font-size="16" x="106" y="32">
x1.vsampled_n
</text>
<path stroke="blue" d="M50 431l1 0 1 -7 0 -15 1 -15 0 -4 1 1M54 414l0 -39 1 -4 0 -14 1 -2 0 -3 2 -2 1 0 1 -1 3 0 1 1 4 0 1 -1 48 0 0 -1 1 -10 0 -20 1 -5 0 -5 1 -2 2 -2 417 0M539 305l0 -1M539 305l1 0 0 -1M540 305l14 0 0 -1 12 0 1 1M567 306l0 -1"/>
<path stroke="blue" d="M567 305l6 0 0 -1 1 5M574 329l0 -20M574 329l1 9M575 344l0 -6M575 344l1 1 17 0M593 346l0 -1 26 0M619 346l0 -1 27 0M646 346l0 -1 26 0M672 346l0 -1 7 0M679 349l0 -4M679 349l1 1M680 352l0 -2M680 351l1 -1M681 351l0 -1M681 351l5 0"/>
<path stroke="blue" d="M686 351l0 -1 12 0 1 1 0 -1M699 351l13 0 0 -1 13 0M725 351l0 -1M725 351l6 0 0 -3 20 0M751 349l0 -1 27 0M778 349l0 -1 7 0M785 349l0 -1M785 349l27 0M812 350l0 -1M812 350l1 -1 18 0M831 350l0 -1 26 0M857 350l0 -1 26 0M883 350l0 -1"/>
<path stroke="blue" d="M883 349l27 0M910 350l0 -1 8 0M918 350l0 -18 1 -2 0 -11 1 -3 0 -7 1 -2 0 -1 1 0 0 -1 1 0 0 -1M923 305l1 0 0 -1 12 0M936 306l0 -2M936 305l14 0 0 -1 24 0"/>
<path stroke="#FFA500" d="M462 39l46 0"/>
<text stroke="none" fill="white" font-size="16" x="518" y="48">
x1.vsampled_p-x1.vsampled_n
</text>
<path stroke="#FFA500" d="M50 431l2 0 1 1 1 0 0 -1 63 0M117 442l0 -11M117 442l1 21M118 497l0 -34M118 497l1 8M119 515l0 -10M119 515l2 4M121 520l0 -1M121 520l2 0M123 521l0 -1M123 521l416 0 0 -1 1 1 0 -1 6 0M546 521l0 -23 1 -3 0 -25 1 -3 0 -5 1 -1"/>
<path stroke="#FFA500" d="M549 461l0 -1 1 0 1 -1 16 0M567 460l0 -1 6 0 1 -5 0 -19 1 -9 0 -6 1 -1 0 -1 17 0M593 419l0 -1 7 0M600 438l0 -20M600 438l1 3M601 445l0 -4M601 443l1 -2 0 -2 23 0 0 -6 1 -4 0 -9 2 0M628 421l0 -1M628 421l25 0M653 432l0 -11"/>
<path stroke="#FFA500" d="M653 432l1 2 0 -2 1 0 0 -1 24 0 0 -4 1 0 0 -2M680 426l26 0M706 430l0 -4M706 429l6 0 0 -1M712 429l19 0M731 431l0 -2M731 431l28 0M759 434l0 -3M759 433l1 -1 25 0 0 -1 19 0M804 432l0 -1 34 0 1 -1M839 431l0 -1M839 431l79 0"/>
<path stroke="#FFA500" d="M918 475l0 -46M918 475l1 5M919 505l0 -25M919 505l1 6M920 517l0 -6M920 517l1 2 1 0M922 520l0 -1M922 520l1 0M923 521l0 -1M923 521l13 0 0 -2M936 520l14 0M950 521l0 -1M950 521l24 0"/>
<path stroke="green" d="M50 39l46 0"/>
<text stroke="none" fill="white" font-size="16" x="106" y="48">
x1.sw_sample-2
</text>
<path stroke="green" d="M50 613l1 0 1 -9 0 -21 1 -21M53 580l0 -24M53 580l1 30M54 613l0 -3M54 613l63 0M117 620l0 -172M117 449l422 0M539 614l0 -171M539 613l422 0M961 618l0 -170 1 1 12 0"/>
<path stroke="#FFC0C5" d="M462 55l46 0"/>
<text stroke="none" fill="white" font-size="16" x="518" y="64">
x1.comp_out_p+2
</text>
<path stroke="#FFC0C5" d="M50 249l1 0 1 -9 0 -22 1 -18 0 -4M53 198l1 5M54 250l0 -47M54 248l1 1 539 0M594 250l0 -167M594 85l14 0M608 250l0 -168M608 249l39 0M647 250l0 -166M647 85l14 0M661 249l0 -173M661 249l39 0M700 251l0 -168M700 85l13 0 0 -7"/>
<path stroke="#FFC0C5" d="M713 78l1 140M714 249l0 -31M714 249l13 0 0 -165M727 85l13 0M740 249l0 -172M740 249l13 0 0 -143 1 -21 0 -1M754 85l12 0M766 249l0 -173M766 249l94 0 0 -164 12 0M872 249l0 -174M872 249l14 0 0 -148 1 -16 0 -1M887 85l11 0"/>
<path stroke="#FFC0C5" d="M898 249l0 -174M898 249l15 0 0 -165M913 85l12 0M925 250l0 -169M925 249l49 0"/>
<path stroke="#A52A2A" d="M50 55l46 0"/>
<text stroke="none" fill="white" font-size="16" x="106" y="64">
x1.comp_out_n-2
</text>
<path stroke="#A52A2A" d="M50 613l1 0 1 -9 0 -22 1 -19M53 564l0 -3M53 564l1 6M54 613l0 -43M54 613l487 0 1 2 0 -168M542 449l13 0M555 613l0 -173M555 613l13 0M568 620l0 -173M568 449l13 0M581 450l0 -9 1 153M582 613l0 -19M582 613l39 0 0 -165M621 449l13 0"/>
<path stroke="#A52A2A" d="M634 613l0 -174M634 613l13 0M647 614l0 -1 27 0 0 -165M674 449l13 0M687 613l0 -173M687 613l93 0 0 -165M780 449l13 0M793 613l0 -173M793 613l14 0 0 -164 12 0M819 613l0 -166M819 613l15 0 0 -165M834 449l11 0 0 -10 1 153M846 613l0 -21"/>
<path stroke="#A52A2A" d="M846 613l91 0M937 617l0 -4M937 617l1 -144 0 -26M938 449l13 0M951 613l0 -173M951 613l23 0"/>
</svg>
