<?xml version="1.0" standalone="yes"?>
<!DOCTYPE svg PUBLIC "-//W3C//DTD SVG 1.1//EN"
 "http://www.w3.org/Graphics/SVG/1.1/DTD/svg11.dtd">
<svg xmlns="http://www.w3.org/2000/svg" version="1.1"
  width="100%" height="100%" viewBox="0 0 1024 768"
  style="fill: none; font-family: Helvetica;
 font: Helvetica;
">

<!-- Creator: NGspice -->

<rect x="0" y="0" width="1024" height="768" fill="black" stroke="none"/>
<text stroke="none" fill="white" font-size="16" x="358" y="752">
time
</text>
<text stroke="none" fill="white" font-size="16" x="10" y="16">
tran1: run85_vin-0.824854
</text>
<path stroke="white" d="M50 704l0 -637"/>
<text stroke="none" fill="white" font-size="16" x="35" y="728">
0.0
</text>
<path stroke="white" stroke-dasharray="1,2" d="M182 704l0 -637"/>
<text stroke="none" fill="white" font-size="16" x="157" y="728">
100.0
</text>
<path stroke="white" stroke-dasharray="1,2" d="M314 704l0 -637"/>
<text stroke="none" fill="white" font-size="16" x="289" y="728">
200.0
</text>
<path stroke="white" stroke-dasharray="1,2" d="M446 704l0 -637"/>
<text stroke="none" fill="white" font-size="16" x="421" y="728">
300.0
</text>
<path stroke="white" stroke-dasharray="1,2" d="M578 704l0 -637"/>
<text stroke="none" fill="white" font-size="16" x="553" y="728">
400.0
</text>
<path stroke="white" stroke-dasharray="1,2" d="M710 704l0 -637"/>
<text stroke="none" fill="white" font-size="16" x="685" y="728">
500.0
</text>
<path stroke="white" stroke-dasharray="1,2" d="M842 704l0 -637"/>
<text stroke="none" fill="white" font-size="16" x="817" y="728">
600.0
</text>
<path stroke="white" stroke-dasharray="1,2" d="M974 704l0 -637"/>
<text stroke="none" fill="white" font-size="16" x="949" y="728">
700.0
</text>
<text stroke="none" fill="white" font-size="16" x="614" y="752">
ns
</text>
<path stroke="white" stroke-dasharray="1,2" d="M50 704l924 0"/>
<text stroke="none" fill="white" font-size="16" x="8" y="712">
-2.5
</text>
<path stroke="white" stroke-dasharray="1,2" d="M50 655l924 0"/>
<text stroke="none" fill="white" font-size="16" x="8" y="663">
-2.0
</text>
<path stroke="white" stroke-dasharray="1,2" d="M50 606l924 0"/>
<text stroke="none" fill="white" font-size="16" x="8" y="614">
-1.5
</text>
<path stroke="white" stroke-dasharray="1,2" d="M50 557l924 0"/>
<text stroke="none" fill="white" font-size="16" x="8" y="565">
-1.0
</text>
<path stroke="white" stroke-dasharray="1,2" d="M50 508l924 0"/>
<text stroke="none" fill="white" font-size="16" x="8" y="516">
-0.5
</text>
<path stroke="white" d="M50 459l924 0"/>
<text stroke="none" fill="white" font-size="16" x="18" y="467">
0.0
</text>
<path stroke="white" stroke-dasharray="1,2" d="M50 410l924 0"/>
<text stroke="none" fill="white" font-size="16" x="18" y="418">
0.5
</text>
<path stroke="white" stroke-dasharray="1,2" d="M50 361l924 0"/>
<text stroke="none" fill="white" font-size="16" x="18" y="369">
1.0
</text>
<path stroke="white" stroke-dasharray="1,2" d="M50 312l924 0"/>
<text stroke="none" fill="white" font-size="16" x="18" y="320">
1.5
</text>
<path stroke="white" stroke-dasharray="1,2" d="M50 263l924 0"/>
<text stroke="none" fill="white" font-size="16" x="18" y="271">
2.0
</text>
<path stroke="white" stroke-dasharray="1,2" d="M50 214l924 0"/>
<text stroke="none" fill="white" font-size="16" x="18" y="222">
2.5
</text>
<path stroke="white" stroke-dasharray="1,2" d="M50 165l924 0"/>
<text stroke="none" fill="white" font-size="16" x="18" y="173">
3.0
</text>
<path stroke="white" stroke-dasharray="1,2" d="M50 116l924 0"/>
<text stroke="none" fill="white" font-size="16" x="18" y="124">
3.5
</text>
<path stroke="white" stroke-dasharray="1,2" d="M50 67l924 0"/>
<text stroke="none" fill="white" font-size="16" x="18" y="75">
4.0
</text>
<text stroke="none" fill="white" font-size="16" x="10" y="32">
     
</text>
<path stroke="red" d="M462 23l46 0"/>
<text stroke="none" fill="white" font-size="16" x="518" y="32">
x1.vsampled_p
</text>
<path stroke="red" d="M50 459l1 0 1 -7 0 -17 1 -15 0 -5 1 2M54 441l0 -42 1 -5 0 -14 1 -3 0 -3 1 -1 0 -1 1 -1 59 0M117 395l0 -24M117 395l1 19M118 437l0 -23M118 437l1 3M119 446l0 -6M119 446l1 2M120 450l0 -2M120 450l1 1 1 0 1 1 423 0 0 -23 1 -3"/>
<path stroke="red" d="M547 426l0 -27 1 -7 0 -4 2 -2 4 0 0 -1M554 386l26 0 0 -1M580 386l45 0 0 -15 1 -2 0 -4 1 0M627 366l0 -1M627 366l2 0 1 1 3 0 0 -1 13 0M646 367l0 -1M646 367l13 0 0 -1 13 0M672 367l0 -1 1 0M673 367l0 -1M673 367l6 0M679 372l0 -6"/>
<path stroke="red" d="M679 372l1 2M680 376l0 -3 1 -1 50 0 0 -1 1 -2 0 -1M732 369l1 1 5 0 0 -1 1 0M739 370l0 -1M739 370l12 0 0 -1M751 370l1 0 0 -1M752 370l7 0M759 373l0 -3M759 372l1 -1 158 0M918 465l0 -94M918 465l1 -1 0 -7 1 -1 0 -3 1 0 0 -1 53 0"/>
<path stroke="blue" d="M50 23l46 0"/>
<text stroke="none" fill="white" font-size="16" x="106" y="32">
x1.vsampled_n
</text>
<path stroke="blue" d="M50 459l1 0 1 -7 0 -17 1 -16 0 -5 1 2M54 441l0 -42 1 -5 0 -14 1 -3 0 -3 1 -1 0 -1 1 -1 59 0 0 -2 1 -12 0 -38 1 -7 0 -12 1 -3 0 -5 1 -1 1 0 0 -1 418 0M540 291l0 -1 27 0M567 292l0 -2 7 0M574 315l0 -25M574 315l1 6M575 331l0 -10"/>
<path stroke="blue" d="M575 331l1 3 1 1 0 -1 16 0M593 335l0 -1 7 0M600 350l0 -16M600 350l1 4M601 357l0 -3M601 357l1 0 0 -1 17 0M619 357l0 -1 27 0M646 357l0 -1 7 0M653 365l0 -9M653 365l1 2M654 368l0 -1M654 368l1 -1 17 0M672 368l0 -1 27 0M699 368l0 -1"/>
<path stroke="blue" d="M699 367l6 0M705 369l0 -2M705 369l1 0M706 371l0 -2M706 370l79 0M785 371l0 -1M785 371l28 0M813 372l0 -1 105 0 0 -57 1 -4 0 -13 1 -2 0 -3 1 -1 2 0 0 -1 13 0M936 292l0 -2 38 0"/>
<path stroke="#FFA500" d="M462 39l46 0"/>
<text stroke="none" fill="white" font-size="16" x="518" y="48">
x1.vsampled_p-x1.vsampled_n
</text>
<path stroke="#FFA500" d="M50 459l2 0M52 460l0 -1M52 460l2 0 0 -1 63 0M117 485l0 -26M117 485l1 31M118 577l0 -61M118 577l1 11M119 605l0 -17M119 605l1 5M120 617l0 -7M120 617l1 2 1 1 1 0 1 1 415 0 0 -1 1 0M540 621l0 -1 6 0M546 621l0 -24 1 -2 0 -28"/>
<path stroke="#FFA500" d="M547 567l1 -6 0 -4 1 -2 1 0 0 -1 4 0M554 555l0 -1M554 555l12 0 1 -1 0 -1M567 554l7 0 0 -24 1 -7 0 -10 1 -3 4 0M580 511l0 -1 20 0M600 511l0 -16 1 -5 0 -3M601 488l5 0M606 489l0 -1M606 489l1 0 0 -1 18 0 0 -15 1 -1 0 -4"/>
<path stroke="#FFA500" d="M626 468l1 0 1 1 18 0M646 470l0 -1 7 0 0 -8 1 -2 0 -1 18 0M672 459l0 -1 7 0M679 464l0 -6M679 464l1 1M680 468l0 -4 25 0 0 -2 1 0 0 -2M706 461l25 0 0 -1 1 -2 0 -2M732 458l1 0M733 459l0 -1M733 459l5 0 0 -1 1 0M739 459l0 -1"/>
<path stroke="#FFA500" d="M739 459l13 0 0 -1M752 459l7 0M759 462l0 -4M759 461l1 -1 25 0 0 -1 28 0 0 -1M813 459l105 0M918 610l0 -152M918 610l1 3M919 619l0 -6M919 619l1 0M920 620l0 -1M920 620l3 0M923 621l0 -1M923 621l13 0 0 -2M936 620l14 0M950 621l0 -1"/>
<path stroke="#FFA500" d="M950 621l24 0"/>
<path stroke="green" d="M50 39l46 0"/>
<text stroke="none" fill="white" font-size="16" x="106" y="48">
x1.sw_sample-2
</text>
<path stroke="green" d="M50 655l1 0 1 -10 0 -23 1 -21M53 618l0 -24M53 618l1 34M54 655l0 -3M54 655l63 0M117 662l0 -184 1 0M118 479l0 -1M118 479l421 0M539 656l0 -184M539 655l422 0M961 660l0 -182 1 0M962 479l0 -1M962 479l12 0"/>
<path stroke="#FFC0C5" d="M462 55l46 0"/>
<text stroke="none" fill="white" font-size="16" x="518" y="64">
x1.comp_out_p+2
</text>
<path stroke="#FFC0C5" d="M50 263l1 0 1 -10 0 -23 1 -20 0 -4M53 208l1 5M54 264l0 -51M54 260l1 3 619 0M674 265l0 -180M674 87l13 0M687 263l0 -186M687 263l66 0 0 -176 1 -2M754 87l0 -2M754 87l12 0M766 263l0 -179M766 263l68 0 0 -177 1 1 10 0 0 -3"/>
<path stroke="#FFC0C5" d="M845 84l1 163M846 263l0 -16M846 263l128 0"/>
<path stroke="#A52A2A" d="M50 55l46 0"/>
<text stroke="none" fill="white" font-size="16" x="106" y="64">
x1.comp_out_n-2
</text>
<path stroke="#A52A2A" d="M50 655l1 0 1 -10 0 -24 1 -20M53 602l0 -4M53 602l1 7M54 655l0 -46M54 655l488 0 0 -178M542 479l13 0M555 656l0 -184M555 655l13 0M568 657l0 -181M568 479l13 0 0 -4 1 89M582 656l0 -92M582 655l12 0 0 -178M594 478l1 1 13 0"/>
<path stroke="#A52A2A" d="M608 655l0 -184M608 655l13 0M621 656l0 -179M621 479l13 0M634 656l0 -179M634 655l13 0M647 657l0 -181M647 479l14 0M661 655l0 -185M661 655l39 0M700 661l0 -185M700 479l13 0 0 -10 1 177M714 656l0 -10M714 655l13 0 0 -177M727 479l13 0"/>
<path stroke="#A52A2A" d="M740 656l0 -187M740 655l40 0 0 -177M780 479l13 0M793 655l0 -188M793 655l14 0 0 -177 1 0M808 479l0 -1M808 479l11 0M819 655l0 -180M819 655l41 0 0 -177 1 1 11 0M872 655l0 -188M872 655l14 0 0 -162 1 -15M887 479l0 -1M887 479l11 0"/>
<path stroke="#A52A2A" d="M898 655l0 -188M898 655l15 0 0 -177M913 479l12 0M925 655l0 -183M925 655l12 0 1 -49 0 -129M938 479l13 0M951 655l0 -186M951 655l23 0"/>
</svg>
