<?xml version="1.0" standalone="yes"?>
<!DOCTYPE svg PUBLIC "-//W3C//DTD SVG 1.1//EN"
 "http://www.w3.org/Graphics/SVG/1.1/DTD/svg11.dtd">
<svg xmlns="http://www.w3.org/2000/svg" version="1.1"
  width="100%" height="100%" viewBox="0 0 1024 768"
  style="fill: none; font-family: Helvetica;
 font: Helvetica;
">

<!-- Creator: NGspice -->

<rect x="0" y="0" width="1024" height="768" fill="black" stroke="none"/>
<text stroke="none" fill="white" font-size="16" x="358" y="752">
time
</text>
<text stroke="none" fill="white" font-size="16" x="10" y="16">
tran1: run832_vin-0.168312
</text>
<path stroke="white" d="M50 704l0 -637"/>
<text stroke="none" fill="white" font-size="16" x="35" y="728">
0.0
</text>
<path stroke="white" stroke-dasharray="1,2" d="M182 704l0 -637"/>
<text stroke="none" fill="white" font-size="16" x="157" y="728">
100.0
</text>
<path stroke="white" stroke-dasharray="1,2" d="M314 704l0 -637"/>
<text stroke="none" fill="white" font-size="16" x="289" y="728">
200.0
</text>
<path stroke="white" stroke-dasharray="1,2" d="M446 704l0 -637"/>
<text stroke="none" fill="white" font-size="16" x="421" y="728">
300.0
</text>
<path stroke="white" stroke-dasharray="1,2" d="M578 704l0 -637"/>
<text stroke="none" fill="white" font-size="16" x="553" y="728">
400.0
</text>
<path stroke="white" stroke-dasharray="1,2" d="M710 704l0 -637"/>
<text stroke="none" fill="white" font-size="16" x="685" y="728">
500.0
</text>
<path stroke="white" stroke-dasharray="1,2" d="M842 704l0 -637"/>
<text stroke="none" fill="white" font-size="16" x="817" y="728">
600.0
</text>
<path stroke="white" stroke-dasharray="1,2" d="M974 704l0 -637"/>
<text stroke="none" fill="white" font-size="16" x="949" y="728">
700.0
</text>
<text stroke="none" fill="white" font-size="16" x="614" y="752">
ns
</text>
<path stroke="white" stroke-dasharray="1,2" d="M50 704l924 0"/>
<text stroke="none" fill="white" font-size="16" x="8" y="712">
-3.0
</text>
<path stroke="white" stroke-dasharray="1,2" d="M50 613l924 0"/>
<text stroke="none" fill="white" font-size="16" x="8" y="621">
-2.0
</text>
<path stroke="white" stroke-dasharray="1,2" d="M50 522l924 0"/>
<text stroke="none" fill="white" font-size="16" x="8" y="530">
-1.0
</text>
<path stroke="white" d="M50 431l924 0"/>
<text stroke="none" fill="white" font-size="16" x="18" y="439">
0.0
</text>
<path stroke="white" stroke-dasharray="1,2" d="M50 340l924 0"/>
<text stroke="none" fill="white" font-size="16" x="18" y="348">
1.0
</text>
<path stroke="white" stroke-dasharray="1,2" d="M50 249l924 0"/>
<text stroke="none" fill="white" font-size="16" x="18" y="257">
2.0
</text>
<path stroke="white" stroke-dasharray="1,2" d="M50 158l924 0"/>
<text stroke="none" fill="white" font-size="16" x="18" y="166">
3.0
</text>
<path stroke="white" stroke-dasharray="1,2" d="M50 67l924 0"/>
<text stroke="none" fill="white" font-size="16" x="18" y="75">
4.0
</text>
<text stroke="none" fill="white" font-size="16" x="10" y="32">
     
</text>
<path stroke="red" d="M462 23l46 0"/>
<text stroke="none" fill="white" font-size="16" x="518" y="32">
x1.vsampled_p
</text>
<path stroke="red" d="M50 431l1 0 1 -7 0 -15 1 -14 0 -5 1 2M54 415l0 -39 1 -5 0 -14 1 -3 0 -2 1 -2 2 0 1 -1 4 0M64 350l0 -1M64 350l4 0 1 -1 48 0M117 351l0 -2M117 351l1 5M118 361l0 -5M118 361l1 2 1 1 419 0M539 365l0 -1M539 365l2 0 0 -1M541 365l5 0"/>
<path stroke="red" d="M546 365l0 -24 1 -2 0 -21 1 -6 0 -6 1 -2 1 0 1 -1 15 0 1 1M567 305l0 -2 6 0 1 1M574 331l0 -27M574 331l1 7M575 346l0 -8M575 346l1 0 0 -1 1 0 1 -1 15 0M593 345l0 -1 26 0M619 345l0 -1 27 0M646 345l0 -1 26 0M672 345l0 -1 7 0"/>
<path stroke="red" d="M679 349l0 -5M679 349l1 1M680 352l0 -2 1 -1 18 0M699 350l0 -1 26 0M725 350l0 -1 26 0M751 350l0 -1M751 350l1 -1 26 0M778 350l0 -1 26 0M804 350l0 -1 27 0M831 350l0 -1 26 0M857 350l0 -1 26 0M883 350l0 -1 27 0M910 350l0 -1 8 0"/>
<path stroke="red" d="M918 363l0 -17M918 363l1 2M919 367l0 -2M919 366l1 -1 3 0 0 -1M923 365l27 0 0 -1M950 365l11 0 0 -1 13 0"/>
<path stroke="blue" d="M50 23l46 0"/>
<text stroke="none" fill="white" font-size="16" x="106" y="32">
x1.vsampled_n
</text>
<path stroke="blue" d="M50 431l1 0 1 -7 0 -15 1 -15 0 -4 1 1M54 415l0 -39 1 -5 0 -14 1 -3 0 -2 1 -2 2 0 1 -1 4 0M64 350l0 -1M64 350l4 0 1 -1 48 0 1 -5 0 -7 1 -2 1 -1 420 0M540 335l0 -1 14 0 0 -1M554 334l13 0M567 335l0 -1 26 0M593 335l0 -1 7 0"/>
<path stroke="blue" d="M600 351l0 -17M600 351l1 4M601 357l0 -2M601 357l1 -1 0 -1 1 0 0 -1 16 0M619 355l0 -1M619 355l1 0 0 -1 5 0 0 -6 1 -3 0 -8 1 0 0 -1 2 0M629 337l0 -1M629 337l4 0 0 -1 1 0M634 337l0 -1M634 337l12 0 0 -1M646 337l7 0M653 344l0 -8"/>
<path stroke="blue" d="M653 344l1 2M654 348l0 -2M654 348l1 -1 51 0M706 350l0 -3M706 350l1 0 0 -1 18 0M725 350l0 -1 8 0 0 -3M733 347l26 0M759 349l0 -2M759 348l19 0M778 349l0 -1 7 0M785 349l0 -1M785 349l1 0M786 350l0 -1 27 0M813 350l0 -1 18 0M831 350l0 -1"/>
<path stroke="blue" d="M831 349l87 0M918 350l0 -8 1 -2 0 -5 1 -1 16 0M936 335l0 -1 38 0"/>
<path stroke="#FFA500" d="M462 39l46 0"/>
<text stroke="none" fill="white" font-size="16" x="518" y="48">
x1.vsampled_p-x1.vsampled_n
</text>
<path stroke="#FFA500" d="M50 431l67 0M117 433l0 -2M117 433l1 10M118 455l0 -12M118 455l1 4 1 1M120 461l0 -1M120 461l1 0 1 1 418 0 0 -1M540 462l1 -1M541 462l0 -1M541 462l5 0 0 -24 1 -2 0 -21 1 -6 0 -7 1 -1 1 0 0 -1 16 0 1 1 0 -1 6 0 1 1M574 428l0 -27"/>
<path stroke="#FFA500" d="M574 428l1 7M575 443l0 -8M575 443l1 0 0 -1 1 0 1 -1 22 0 0 -16 1 -4 0 -3 1 1M602 420l0 -1M602 420l1 1 22 0M625 427l0 -6M625 427l1 3M626 438l0 -8M626 438l1 1 19 0 0 -1M646 439l7 0 0 -8 1 -2 0 -2 1 1 17 0M672 429l0 -1"/>
<path stroke="#FFA500" d="M672 428l7 0M679 433l0 -5M679 433l1 1M680 436l0 -2 2 0 0 -1 4 0M686 434l0 -1 13 0M699 434l0 -1 7 0M706 434l0 -4 1 1 26 0M733 434l0 -3M733 434l1 -1 25 0 0 -2M759 432l26 0 0 -1 28 0 0 -1M813 431l25 0 1 1 0 -1 79 0M918 452l0 -23"/>
<path stroke="#FFA500" d="M918 452l1 4M919 463l0 -7M919 463l1 -1 16 0 0 -1 1 0M937 462l0 -1M937 462l37 0"/>
<path stroke="green" d="M50 39l46 0"/>
<text stroke="none" fill="white" font-size="16" x="106" y="48">
x1.sw_sample-2
</text>
<path stroke="green" d="M50 613l1 0 1 -9 0 -21 1 -21M53 581l0 -25M53 581l1 29M54 613l0 -3M54 613l63 0M117 620l0 -172M117 449l422 0M539 614l0 -171M539 613l422 0M961 618l0 -170 1 1 12 0"/>
<path stroke="#FFC0C5" d="M462 55l46 0"/>
<text stroke="none" fill="white" font-size="16" x="518" y="64">
x1.comp_out_p+2
</text>
<path stroke="#FFC0C5" d="M50 249l1 0 1 -9 0 -22 1 -18 0 -4M53 198l1 5M54 249l0 -46M54 249l514 0M568 250l0 -166M568 85l13 0 0 -8 1 162M582 250l0 -11M582 249l39 0M621 251l0 -168M621 85l13 0M634 250l0 -166M634 250l1 -1 38 0 1 4 0 -170M674 85l13 0"/>
<path stroke="#FFC0C5" d="M687 249l0 -172M687 249l41 0 1 -154 0 -10 11 0M740 249l0 -173M740 249l94 0 0 -164 11 0 0 -10 1 143M846 249l0 -31M846 249l128 0"/>
<path stroke="#A52A2A" d="M50 55l46 0"/>
<text stroke="none" fill="white" font-size="16" x="106" y="64">
x1.comp_out_n-2
</text>
<path stroke="#A52A2A" d="M50 613l1 0 1 -9 0 -22 1 -19M53 564l0 -3M53 564l1 6M54 613l0 -43M54 613l488 0 0 -165M542 449l13 0M555 614l0 -167M555 613l39 0M594 614l0 -167M594 449l14 0M608 613l0 -172M608 613l39 0 0 -165M647 449l14 0M661 614l0 -170"/>
<path stroke="#A52A2A" d="M661 613l39 0M700 614l0 -167M700 449l13 0 0 -6 1 116M714 614l0 -55M714 613l39 0M753 614l0 -166M753 449l13 0M766 613l0 -171M766 613l14 0 0 -165M780 449l13 0M793 613l0 -168M793 613l14 0 0 -165 1 1 11 0M819 614l0 -171M819 613l41 0"/>
<path stroke="#A52A2A" d="M860 613l0 -165M860 449l12 0M872 613l0 -168M872 613l14 0 0 -150 1 -14 0 -1M887 449l11 0M898 613l0 -168M898 613l15 0 0 -165M913 449l12 0M925 613l0 -173M925 613l12 0M937 614l0 -1M937 614l1 -99 0 -68M938 449l13 0M951 614l0 -166"/>
<path stroke="#A52A2A" d="M951 613l23 0"/>
</svg>
