<?xml version="1.0" standalone="yes"?>
<!DOCTYPE svg PUBLIC "-//W3C//DTD SVG 1.1//EN"
 "http://www.w3.org/Graphics/SVG/1.1/DTD/svg11.dtd">
<svg xmlns="http://www.w3.org/2000/svg" version="1.1"
  width="100%" height="100%" viewBox="0 0 1024 768"
  style="fill: none; font-family: Helvetica;
 font: Helvetica;
">

<!-- Creator: NGspice -->

<rect x="0" y="0" width="1024" height="768" fill="black" stroke="none"/>
<text stroke="none" fill="white" font-size="16" x="358" y="752">
time
</text>
<text stroke="none" fill="white" font-size="16" x="10" y="16">
tran1: run835_vin-0.165675
</text>
<path stroke="white" d="M50 704l0 -637"/>
<text stroke="none" fill="white" font-size="16" x="35" y="728">
0.0
</text>
<path stroke="white" stroke-dasharray="1,2" d="M182 704l0 -637"/>
<text stroke="none" fill="white" font-size="16" x="157" y="728">
100.0
</text>
<path stroke="white" stroke-dasharray="1,2" d="M314 704l0 -637"/>
<text stroke="none" fill="white" font-size="16" x="289" y="728">
200.0
</text>
<path stroke="white" stroke-dasharray="1,2" d="M446 704l0 -637"/>
<text stroke="none" fill="white" font-size="16" x="421" y="728">
300.0
</text>
<path stroke="white" stroke-dasharray="1,2" d="M578 704l0 -637"/>
<text stroke="none" fill="white" font-size="16" x="553" y="728">
400.0
</text>
<path stroke="white" stroke-dasharray="1,2" d="M710 704l0 -637"/>
<text stroke="none" fill="white" font-size="16" x="685" y="728">
500.0
</text>
<path stroke="white" stroke-dasharray="1,2" d="M842 704l0 -637"/>
<text stroke="none" fill="white" font-size="16" x="817" y="728">
600.0
</text>
<path stroke="white" stroke-dasharray="1,2" d="M974 704l0 -637"/>
<text stroke="none" fill="white" font-size="16" x="949" y="728">
700.0
</text>
<text stroke="none" fill="white" font-size="16" x="614" y="752">
ns
</text>
<path stroke="white" stroke-dasharray="1,2" d="M50 704l924 0"/>
<text stroke="none" fill="white" font-size="16" x="8" y="712">
-2.5
</text>
<path stroke="white" stroke-dasharray="1,2" d="M50 655l924 0"/>
<text stroke="none" fill="white" font-size="16" x="8" y="663">
-2.0
</text>
<path stroke="white" stroke-dasharray="1,2" d="M50 606l924 0"/>
<text stroke="none" fill="white" font-size="16" x="8" y="614">
-1.5
</text>
<path stroke="white" stroke-dasharray="1,2" d="M50 557l924 0"/>
<text stroke="none" fill="white" font-size="16" x="8" y="565">
-1.0
</text>
<path stroke="white" stroke-dasharray="1,2" d="M50 508l924 0"/>
<text stroke="none" fill="white" font-size="16" x="8" y="516">
-0.5
</text>
<path stroke="white" d="M50 459l924 0"/>
<text stroke="none" fill="white" font-size="16" x="18" y="467">
0.0
</text>
<path stroke="white" stroke-dasharray="1,2" d="M50 410l924 0"/>
<text stroke="none" fill="white" font-size="16" x="18" y="418">
0.5
</text>
<path stroke="white" stroke-dasharray="1,2" d="M50 361l924 0"/>
<text stroke="none" fill="white" font-size="16" x="18" y="369">
1.0
</text>
<path stroke="white" stroke-dasharray="1,2" d="M50 312l924 0"/>
<text stroke="none" fill="white" font-size="16" x="18" y="320">
1.5
</text>
<path stroke="white" stroke-dasharray="1,2" d="M50 263l924 0"/>
<text stroke="none" fill="white" font-size="16" x="18" y="271">
2.0
</text>
<path stroke="white" stroke-dasharray="1,2" d="M50 214l924 0"/>
<text stroke="none" fill="white" font-size="16" x="18" y="222">
2.5
</text>
<path stroke="white" stroke-dasharray="1,2" d="M50 165l924 0"/>
<text stroke="none" fill="white" font-size="16" x="18" y="173">
3.0
</text>
<path stroke="white" stroke-dasharray="1,2" d="M50 116l924 0"/>
<text stroke="none" fill="white" font-size="16" x="18" y="124">
3.5
</text>
<path stroke="white" stroke-dasharray="1,2" d="M50 67l924 0"/>
<text stroke="none" fill="white" font-size="16" x="18" y="75">
4.0
</text>
<text stroke="none" fill="white" font-size="16" x="10" y="32">
     
</text>
<path stroke="red" d="M462 23l46 0"/>
<text stroke="none" fill="white" font-size="16" x="518" y="32">
x1.vsampled_p
</text>
<path stroke="red" d="M50 459l1 0 1 -7 0 -17 1 -15 0 -5 1 2M54 442l0 -42 1 -6 0 -15 1 -3 0 -2 1 -2 1 0 0 -1 59 0M117 373l0 -2M117 373l1 5M118 384l0 -6M118 384l1 2 1 0M120 387l0 -1M120 387l420 0M540 388l0 -1 6 0 0 -23 1 -3 0 -25 1 -6 0 -5 1 -2"/>
<path stroke="red" d="M549 323l0 -1 1 0 1 -1 3 0 0 -1M554 321l12 0 1 1M567 323l0 -2 7 0M574 350l0 -29M574 350l1 8M575 367l0 -9M575 367l1 0 2 -2 15 0M593 366l0 -1 26 0M619 366l0 -1 27 0M646 366l0 -1 26 0M672 366l0 -1 7 0M679 372l0 -7M679 372l1 1"/>
<path stroke="red" d="M680 373l0 -2 133 0M813 372l0 -1 25 0 0 -1M838 371l80 0M918 385l0 -18M918 385l1 1M919 390l0 -4M919 389l1 -1 0 -1 54 0"/>
<path stroke="blue" d="M50 23l46 0"/>
<text stroke="none" fill="white" font-size="16" x="106" y="32">
x1.vsampled_n
</text>
<path stroke="blue" d="M50 459l1 0 1 -7 0 -17 1 -15 0 -5 1 1M54 442l0 -42 1 -6 0 -15 1 -3 0 -2 1 -2 1 0 0 -1 59 0 0 -1 1 -5 0 -7 1 -2 1 -1 434 0 0 -1M554 355l13 0M567 356l0 -1 13 0 0 -1M580 355l20 0M600 377l0 -22M600 377l1 3 0 -1 1 -1 0 -1 23 0"/>
<path stroke="blue" d="M625 377l0 -6 1 -3 0 -10 1 0 0 -1 2 0M629 358l0 -1M629 358l4 0 0 -1 13 0M646 358l0 -1M646 358l7 0M653 366l0 -9M653 366l1 2M654 370l0 -2M654 370l1 -1 4 0 0 -1 1 0M660 369l0 -1M660 369l12 0 0 -1M672 369l14 0 0 -1M686 369l12 0"/>
<path stroke="blue" d="M698 369l0 -1M698 369l8 0M706 372l0 -3M706 372l1 0 0 -1 18 0M725 372l0 -1 7 0 0 -3 1 0M733 369l0 -1M733 369l26 0M759 371l0 -2M759 370l19 0M778 371l0 -1 7 0M785 371l0 -1M785 371l1 0M786 372l0 -1 132 0M918 372l0 -7 1 -2 0 -7"/>
<path stroke="blue" d="M919 356l1 -1 0 -1 1 1 2 0 0 -1M923 355l27 0 0 -1M950 355l24 0"/>
<path stroke="#FFA500" d="M462 39l46 0"/>
<text stroke="none" fill="white" font-size="16" x="518" y="48">
x1.vsampled_p-x1.vsampled_n
</text>
<path stroke="#FFA500" d="M50 459l67 0M117 462l0 -3M117 462l1 10M118 485l0 -13M118 485l1 3 1 2M120 491l0 -1M120 491l426 0 0 -22 1 -4 0 -25 1 -6 0 -5 1 -2 0 -1 2 0 0 -1 15 0 1 1M567 427l0 -2 7 0M574 454l0 -29M574 454l1 8M575 471l0 -9M575 471l1 0"/>
<path stroke="#FFA500" d="M576 471l1 -1 1 0 0 -1 2 0M580 470l0 -1 13 0M593 470l0 -1 7 0M600 470l0 -22 1 -4M601 446l0 -2M601 446l1 0M602 447l0 -1M602 447l17 0M619 448l0 -1 1 0M620 448l0 -1 5 0M625 453l0 -6M625 453l1 4M626 466l0 -9M626 466l1 1"/>
<path stroke="#FFA500" d="M627 467l26 0 0 -9 1 -2 0 -2M654 455l1 0 1 1 23 0M679 462l0 -6M679 462l1 1M680 464l0 -3 26 0 0 -4 1 1 25 0M732 462l0 -4M732 462l1 0 0 -1 26 0 0 -3M759 459l19 0M778 460l0 -1 7 0 1 -1M786 459l0 -1M786 459l27 0M813 460l0 -1"/>
<path stroke="#FFA500" d="M813 459l25 0 0 -1M838 459l80 0M918 478l0 -24M918 478l1 4M919 492l0 -10M919 492l3 0 0 -1 1 0M923 492l0 -1 27 0M950 492l0 -1 24 0"/>
<path stroke="green" d="M50 39l46 0"/>
<text stroke="none" fill="white" font-size="16" x="106" y="48">
x1.sw_sample-2
</text>
<path stroke="green" d="M50 655l1 0 1 -10 0 -23 1 -21M53 621l0 -27M53 621l1 31M54 655l0 -3M54 655l63 0M117 662l0 -184 1 0M118 479l0 -1M118 479l421 0M539 656l0 -184M539 655l422 0M961 660l0 -182 1 0M962 479l0 -1 1 1 11 0"/>
<path stroke="#FFC0C5" d="M462 55l46 0"/>
<text stroke="none" fill="white" font-size="16" x="518" y="64">
x1.comp_out_p+2
</text>
<path stroke="#FFC0C5" d="M50 263l1 0 1 -10 0 -23 1 -20 0 -4M53 209l1 4M54 263l0 -50M54 263l514 0M568 265l0 -180M568 87l13 0 0 -6 1 70M582 264l0 -113M582 263l39 0M621 264l0 -179M621 87l13 0M634 263l0 -186M634 263l39 0 1 2 0 -180M674 87l13 0M687 263l0 -185"/>
<path stroke="#FFC0C5" d="M687 263l41 0 0 -177M728 87l12 0M740 263l0 -184M740 263l67 0M807 264l0 -178 1 0M808 87l0 -1M808 87l11 0M819 264l0 -184M819 263l41 0M860 264l0 -178M860 87l12 0M872 264l0 -182M872 263l14 0 0 -153 1 -23 0 -2M887 87l11 0"/>
<path stroke="#FFC0C5" d="M898 264l0 -182M898 263l15 0 0 -177M913 87l12 0M925 263l0 -185M925 263l49 0"/>
<path stroke="#A52A2A" d="M50 55l46 0"/>
<text stroke="none" fill="white" font-size="16" x="106" y="64">
x1.comp_out_n-2
</text>
<path stroke="#A52A2A" d="M50 655l1 0 1 -10 0 -24 1 -20M53 602l0 -3M53 602l1 7M54 655l0 -46M54 655l487 0 1 1 0 -180M542 479l13 0M555 656l0 -180M555 655l13 0M568 656l0 -1 26 0M594 661l0 -185M594 478l1 1 13 0M608 655l0 -185M608 655l13 0M621 656l0 -1"/>
<path stroke="#A52A2A" d="M621 655l26 0M647 656l0 -179M647 479l14 0M661 656l0 -178M661 655l13 0M674 656l0 -1 26 0 0 -178M700 479l13 0 0 -11 1 162M714 655l0 -25M714 655l39 0 0 -178M753 479l13 0M766 656l0 -182M766 655l14 0 0 -177 1 0M781 479l0 -1"/>
<path stroke="#A52A2A" d="M781 479l12 0M793 655l0 -187M793 655l41 0 0 -177M834 479l11 0 0 -11 1 163M846 655l0 -24M846 655l91 0 1 -59 0 -119M938 479l13 0M951 656l0 -179M951 655l23 0"/>
</svg>
