<?xml version="1.0" standalone="yes"?>
<!DOCTYPE svg PUBLIC "-//W3C//DTD SVG 1.1//EN"
 "http://www.w3.org/Graphics/SVG/1.1/DTD/svg11.dtd">
<svg xmlns="http://www.w3.org/2000/svg" version="1.1"
  width="100%" height="100%" viewBox="0 0 1024 768"
  style="fill: none; font-family: Helvetica;
 font: Helvetica;
">

<!-- Creator: NGspice -->

<rect x="0" y="0" width="1024" height="768" fill="black" stroke="none"/>
<text stroke="none" fill="white" font-size="16" x="358" y="752">
time
</text>
<text stroke="none" fill="white" font-size="16" x="10" y="16">
tran1: run837_vin-0.163917
</text>
<path stroke="white" d="M50 704l0 -637"/>
<text stroke="none" fill="white" font-size="16" x="35" y="728">
0.0
</text>
<path stroke="white" stroke-dasharray="1,2" d="M182 704l0 -637"/>
<text stroke="none" fill="white" font-size="16" x="157" y="728">
100.0
</text>
<path stroke="white" stroke-dasharray="1,2" d="M314 704l0 -637"/>
<text stroke="none" fill="white" font-size="16" x="289" y="728">
200.0
</text>
<path stroke="white" stroke-dasharray="1,2" d="M446 704l0 -637"/>
<text stroke="none" fill="white" font-size="16" x="421" y="728">
300.0
</text>
<path stroke="white" stroke-dasharray="1,2" d="M578 704l0 -637"/>
<text stroke="none" fill="white" font-size="16" x="553" y="728">
400.0
</text>
<path stroke="white" stroke-dasharray="1,2" d="M710 704l0 -637"/>
<text stroke="none" fill="white" font-size="16" x="685" y="728">
500.0
</text>
<path stroke="white" stroke-dasharray="1,2" d="M842 704l0 -637"/>
<text stroke="none" fill="white" font-size="16" x="817" y="728">
600.0
</text>
<path stroke="white" stroke-dasharray="1,2" d="M974 704l0 -637"/>
<text stroke="none" fill="white" font-size="16" x="949" y="728">
700.0
</text>
<text stroke="none" fill="white" font-size="16" x="614" y="752">
ns
</text>
<path stroke="white" stroke-dasharray="1,2" d="M50 704l924 0"/>
<text stroke="none" fill="white" font-size="16" x="8" y="712">
-3.0
</text>
<path stroke="white" stroke-dasharray="1,2" d="M50 613l924 0"/>
<text stroke="none" fill="white" font-size="16" x="8" y="621">
-2.0
</text>
<path stroke="white" stroke-dasharray="1,2" d="M50 522l924 0"/>
<text stroke="none" fill="white" font-size="16" x="8" y="530">
-1.0
</text>
<path stroke="white" d="M50 431l924 0"/>
<text stroke="none" fill="white" font-size="16" x="18" y="439">
0.0
</text>
<path stroke="white" stroke-dasharray="1,2" d="M50 340l924 0"/>
<text stroke="none" fill="white" font-size="16" x="18" y="348">
1.0
</text>
<path stroke="white" stroke-dasharray="1,2" d="M50 249l924 0"/>
<text stroke="none" fill="white" font-size="16" x="18" y="257">
2.0
</text>
<path stroke="white" stroke-dasharray="1,2" d="M50 158l924 0"/>
<text stroke="none" fill="white" font-size="16" x="18" y="166">
3.0
</text>
<path stroke="white" stroke-dasharray="1,2" d="M50 67l924 0"/>
<text stroke="none" fill="white" font-size="16" x="18" y="75">
4.0
</text>
<text stroke="none" fill="white" font-size="16" x="10" y="32">
     
</text>
<path stroke="red" d="M462 23l46 0"/>
<text stroke="none" fill="white" font-size="16" x="518" y="32">
x1.vsampled_p
</text>
<path stroke="red" d="M50 431l1 0 1 -7 0 -15 1 -14 0 -5 1 2M54 415l0 -39 1 -5 0 -14 1 -3 0 -2 1 -2 2 0 1 -1 4 0M64 350l0 -1M64 350l4 0 1 -1 48 0M117 351l0 -2M117 351l1 5M118 361l0 -5M118 361l1 2 1 0M120 364l0 -1M120 364l426 0M546 365l0 -22 1 -2"/>
<path stroke="red" d="M547 341l0 -23 1 -7 0 -4 1 -2 0 -1 1 -1 4 0 0 -1M554 303l13 0M567 304l0 -1 7 0M574 329l0 -26M574 329l1 7M575 346l0 -10M575 346l1 0 0 -1 1 0 0 -1 3 0 0 -1M580 344l26 0 0 -1 1 1 26 0 0 -1M633 344l26 0 0 -1M659 344l20 0M679 348l0 -4"/>
<path stroke="red" d="M679 348l1 1M680 351l0 -2 132 0M812 350l0 -1M812 350l1 -1 18 0M831 350l0 -1 26 0M857 350l0 -1 26 0M883 350l0 -1 27 0M910 350l0 -1 7 0 0 -1 1 -2M918 367l0 -22M918 367l1 0 0 -2 1 -1 54 0"/>
<path stroke="blue" d="M50 23l46 0"/>
<text stroke="none" fill="white" font-size="16" x="106" y="32">
x1.vsampled_n
</text>
<path stroke="blue" d="M50 431l1 0 1 -7 0 -15 1 -15 0 -4 1 1M54 415l0 -39 1 -5 0 -14 1 -3 0 -2 1 -2 2 0 1 -1 4 0M64 350l0 -1M64 350l4 0 1 -1 48 0 1 -5 0 -6 1 -2 1 -1 0 -1 420 0M540 335l0 -1 26 0 1 1 0 -1 26 0M593 335l0 -1 7 0M600 350l0 -16M600 350l1 4"/>
<path stroke="blue" d="M601 358l0 -4M601 357l1 -1 0 -1 23 0 0 -4 1 -4 0 -9 1 -1 26 0M653 346l0 -9M653 346l1 2 1 0 0 -1 17 0M672 348l0 -1 27 0M699 348l0 -1 7 0M706 351l0 -4M706 350l26 0 0 -3 2 0M734 348l0 -1M734 348l4 0 0 -1 13 0M751 348l0 -1"/>
<path stroke="blue" d="M751 348l1 0 0 -1M752 348l7 0M759 350l0 -3M759 349l27 0M786 350l0 -1M786 350l1 0 0 -1 17 0M804 350l0 -1 26 0 1 1 0 -1 86 0M917 351l0 -2M917 351l1 -3 0 -10 1 -1 0 -3 17 0M936 335l0 -1 38 0"/>
<path stroke="#FFA500" d="M462 39l46 0"/>
<text stroke="none" fill="white" font-size="16" x="518" y="48">
x1.vsampled_p-x1.vsampled_n
</text>
<path stroke="#FFA500" d="M50 431l67 0M117 433l0 -2M117 433l1 10M118 455l0 -12M118 455l1 3 1 2 1 1 419 0 0 -1M540 461l6 0 0 -21 1 -3 0 -23 1 -6 0 -4 1 -2 0 -1 1 -1 4 0 0 -1 12 0 1 1M567 401l0 -2M567 400l7 0M574 425l0 -26M574 425l1 8M575 442l0 -9"/>
<path stroke="#FFA500" d="M575 442l1 0 2 -2 15 0M593 441l0 -1 7 0 0 -15 1 -4 0 -4M601 418l2 2 22 0M625 424l0 -4M625 424l1 3M626 437l0 -10M626 437l1 1 26 0 0 -10 1 -1 0 -1M654 427l1 0 1 1 3 0 0 -1M659 428l13 0 0 -1M672 428l7 0M679 432l0 -4M679 432l1 1"/>
<path stroke="#FFA500" d="M680 435l0 -2 26 0 0 -4M706 430l26 0M732 433l0 -3M732 433l1 0 0 -1 26 0 0 -2M759 431l27 0 0 -1 18 0M804 431l0 -1 8 0M812 431l0 -1M812 431l105 0 0 -3 1 0M918 460l0 -32M918 460l1 1M919 462l0 -1M919 462l1 -1 16 0 0 -1M936 461l38 0"/>
<path stroke="green" d="M50 39l46 0"/>
<text stroke="none" fill="white" font-size="16" x="106" y="48">
x1.sw_sample-2
</text>
<path stroke="green" d="M50 613l1 0 1 -9 0 -21 1 -21M53 581l0 -25M53 581l1 29M54 613l0 -3M54 613l63 0M117 620l0 -172M117 449l422 0M539 614l0 -171M539 613l422 0M961 618l0 -170 1 1 12 0"/>
<path stroke="#FFC0C5" d="M462 55l46 0"/>
<text stroke="none" fill="white" font-size="16" x="518" y="64">
x1.comp_out_p+2
</text>
<path stroke="#FFC0C5" d="M50 249l1 0 1 -9 0 -22 1 -18 0 -4M53 198l1 5M54 249l0 -46M54 249l514 0M568 251l0 -167M568 85l13 0M581 86l0 -9 1 130M582 250l0 -43M582 249l39 0M621 250l0 -167M621 85l13 0M634 249l0 -173M634 249l39 0 1 6 0 -172M674 85l13 0"/>
<path stroke="#FFC0C5" d="M687 249l0 -172M687 249l40 0 1 -156 0 -9M728 85l12 0M740 250l0 -172M740 249l67 0 0 -165M807 85l12 0M819 249l0 -173M819 249l15 0 0 -165M834 85l11 0M845 86l0 -3M845 86l1 149M846 249l0 -14M846 249l128 0"/>
<path stroke="#A52A2A" d="M50 55l46 0"/>
<text stroke="none" fill="white" font-size="16" x="106" y="64">
x1.comp_out_n-2
</text>
<path stroke="#A52A2A" d="M50 613l1 0 1 -9 0 -22 1 -19M53 564l0 -3M53 564l1 6M54 613l0 -43M54 613l487 0 1 2 0 -168M542 449l13 0M555 614l0 -167M555 613l39 0M594 614l0 -167M594 449l14 0M608 613l0 -172M608 613l39 0M647 614l0 -167M647 449l14 0M661 613l0 -167"/>
<path stroke="#A52A2A" d="M661 613l39 0 0 -165M700 449l13 0 0 -5 1 77M714 614l0 -93M714 613l39 0 0 -165M753 449l13 0M766 613l0 -173M766 613l14 0 0 -151 1 -13 0 -1M781 449l12 0M793 613l0 -170M793 613l67 0M860 614l0 -166M860 449l12 0M872 613l0 -174"/>
<path stroke="#A52A2A" d="M872 613l14 0 0 -158 1 -7M887 449l0 -1M887 449l11 0M898 613l0 -174M898 613l14 0 1 -158 0 -7M913 449l12 0M925 613l0 -173M925 613l12 0M937 614l0 -1M937 614l1 -95 0 -72M938 449l13 0M951 614l0 -166M951 613l23 0"/>
</svg>
