<?xml version="1.0" standalone="yes"?>
<!DOCTYPE svg PUBLIC "-//W3C//DTD SVG 1.1//EN"
 "http://www.w3.org/Graphics/SVG/1.1/DTD/svg11.dtd">
<svg xmlns="http://www.w3.org/2000/svg" version="1.1"
  width="100%" height="100%" viewBox="0 0 1024 768"
  style="fill: none; font-family: Helvetica;
 font: Helvetica;
">

<!-- Creator: NGspice -->

<rect x="0" y="0" width="1024" height="768" fill="black" stroke="none"/>
<text stroke="none" fill="white" font-size="16" x="358" y="752">
time
</text>
<text stroke="none" fill="white" font-size="16" x="10" y="16">
tran1: run119_vin-0.794971
</text>
<path stroke="white" d="M50 704l0 -637"/>
<text stroke="none" fill="white" font-size="16" x="35" y="728">
0.0
</text>
<path stroke="white" stroke-dasharray="1,2" d="M182 704l0 -637"/>
<text stroke="none" fill="white" font-size="16" x="157" y="728">
100.0
</text>
<path stroke="white" stroke-dasharray="1,2" d="M314 704l0 -637"/>
<text stroke="none" fill="white" font-size="16" x="289" y="728">
200.0
</text>
<path stroke="white" stroke-dasharray="1,2" d="M446 704l0 -637"/>
<text stroke="none" fill="white" font-size="16" x="421" y="728">
300.0
</text>
<path stroke="white" stroke-dasharray="1,2" d="M578 704l0 -637"/>
<text stroke="none" fill="white" font-size="16" x="553" y="728">
400.0
</text>
<path stroke="white" stroke-dasharray="1,2" d="M710 704l0 -637"/>
<text stroke="none" fill="white" font-size="16" x="685" y="728">
500.0
</text>
<path stroke="white" stroke-dasharray="1,2" d="M842 704l0 -637"/>
<text stroke="none" fill="white" font-size="16" x="817" y="728">
600.0
</text>
<path stroke="white" stroke-dasharray="1,2" d="M974 704l0 -637"/>
<text stroke="none" fill="white" font-size="16" x="949" y="728">
700.0
</text>
<text stroke="none" fill="white" font-size="16" x="614" y="752">
ns
</text>
<path stroke="white" stroke-dasharray="1,2" d="M50 704l924 0"/>
<text stroke="none" fill="white" font-size="16" x="8" y="712">
-3.0
</text>
<path stroke="white" stroke-dasharray="1,2" d="M50 613l924 0"/>
<text stroke="none" fill="white" font-size="16" x="8" y="621">
-2.0
</text>
<path stroke="white" stroke-dasharray="1,2" d="M50 522l924 0"/>
<text stroke="none" fill="white" font-size="16" x="8" y="530">
-1.0
</text>
<path stroke="white" d="M50 431l924 0"/>
<text stroke="none" fill="white" font-size="16" x="18" y="439">
0.0
</text>
<path stroke="white" stroke-dasharray="1,2" d="M50 340l924 0"/>
<text stroke="none" fill="white" font-size="16" x="18" y="348">
1.0
</text>
<path stroke="white" stroke-dasharray="1,2" d="M50 249l924 0"/>
<text stroke="none" fill="white" font-size="16" x="18" y="257">
2.0
</text>
<path stroke="white" stroke-dasharray="1,2" d="M50 158l924 0"/>
<text stroke="none" fill="white" font-size="16" x="18" y="166">
3.0
</text>
<path stroke="white" stroke-dasharray="1,2" d="M50 67l924 0"/>
<text stroke="none" fill="white" font-size="16" x="18" y="75">
4.0
</text>
<text stroke="none" fill="white" font-size="16" x="10" y="32">
     
</text>
<path stroke="red" d="M462 23l46 0"/>
<text stroke="none" fill="white" font-size="16" x="518" y="32">
x1.vsampled_p
</text>
<path stroke="red" d="M50 431l1 0 1 -7 0 -15 1 -14 0 -5 1 2M54 414l0 -38 1 -5 0 -13 1 -3 0 -3 1 -1 0 -1 2 0 1 -1 3 0 1 1 3 0 1 -1 49 0M117 371l0 -22M117 371l1 16M118 408l0 -21M118 408l1 3M119 417l0 -6M119 417l1 1M120 420l0 -2M120 420l1 0M121 421l0 -1"/>
<path stroke="red" d="M121 421l418 0M539 422l0 -1M539 422l1 0 1 -1M541 422l0 -1M541 422l5 0 0 -23 1 -2 0 -21 1 -8 0 -5 1 -2 1 0 0 -1 17 0M567 361l0 -1 26 0M593 361l0 -1 26 0M619 361l0 -1 6 0 0 -16 1 -1 0 -2 1 1 19 0M646 343l0 -1 26 0M672 343l0 -1"/>
<path stroke="red" d="M672 342l7 0M679 350l0 -8M679 350l1 1 0 -3 6 0 0 -1 12 0 1 1 0 -1M699 348l7 0M706 352l0 -5M706 352l1 0 0 -2 24 0 1 -3M732 348l0 -2M732 348l6 0 0 -1M738 348l21 0M759 351l0 -3M759 349l19 0M778 350l0 -1 26 0M804 350l0 -1 9 0"/>
<path stroke="red" d="M813 350l0 -1 17 0 1 1 0 -1 26 0M857 350l0 -1 26 0M883 350l0 -1 27 0M910 350l0 -1 8 0M918 431l0 -82M918 431l1 1 0 -5 1 -1 0 -3 1 0 0 -1 15 0 0 -1M936 422l14 0 0 -1M950 422l11 0 0 -1 13 0"/>
<path stroke="blue" d="M50 23l46 0"/>
<text stroke="none" fill="white" font-size="16" x="106" y="32">
x1.vsampled_n
</text>
<path stroke="blue" d="M50 431l1 0 1 -7 0 -16 1 -14 0 -5 1 2M54 414l0 -38 1 -5 0 -13 1 -3 0 -3 1 -1 0 -1 2 0 1 -1 3 0 1 1 4 0 1 -1 48 0 0 -1 1 -12 0 -34 1 -6 0 -11 1 -3 0 -2 1 -1 0 -1 1 -1 418 0M540 278l0 -1 14 0 0 -1M554 277l13 0M567 279l0 -2"/>
<path stroke="blue" d="M567 277l6 0M573 280l0 -3M573 280l1 5M574 304l0 -19M574 304l1 9M575 318l0 -5M575 318l18 0M593 319l0 -1 7 0M600 332l0 -14M600 332l1 4M601 339l0 -3M601 339l1 0 0 -1 17 0M619 339l0 -1 27 0M646 339l0 -1 7 0M653 346l0 -8M653 346l1 1"/>
<path stroke="blue" d="M654 349l0 -2M654 349l5 0 0 -1M659 349l13 0 0 -1M672 349l14 0 0 -1M686 349l12 0 0 -1M698 349l14 0 0 -1M712 349l13 0 0 -1M725 349l13 0 0 -1 1 0M739 349l0 -1M739 349l12 0 0 -1M751 349l14 0 0 -1M765 349l13 0 0 -1M778 349l7 0"/>
<path stroke="blue" d="M785 350l0 -1M785 350l1 0 0 -1 132 0 0 -44 1 -4 0 -16 1 -2 0 -4 1 -1 1 0 0 -1 1 0 0 -1M923 277l13 0M936 279l0 -2 14 0 0 -1M950 277l24 0"/>
<path stroke="#FFA500" d="M462 39l46 0"/>
<text stroke="none" fill="white" font-size="16" x="518" y="48">
x1.vsampled_p-x1.vsampled_n
</text>
<path stroke="#FFA500" d="M50 431l2 0M52 432l0 -1M52 432l2 0 0 -1 63 0M117 454l0 -23M117 454l1 28M118 537l0 -55M118 537l1 10M119 562l0 -15M119 562l1 5M120 570l0 -3M120 570l1 3M121 574l0 -1M121 574l1 1 1 0M123 576l0 -1M123 576l416 0 0 -1 1 1 0 -1"/>
<path stroke="#FFA500" d="M540 575l6 0 0 -22 1 -3 0 -21 1 -7 0 -5 1 -2 1 0 0 -1 4 0M554 515l0 -1 13 0 0 -1M567 514l6 0 0 -3 1 -5 0 -18 1 -10 0 -4 1 -1 4 0M580 474l0 -1 20 0 0 -14 1 -4 0 -3 1 1 23 0 0 -16 1 -1 0 -2 1 0 1 1 18 0M646 436l0 -1 7 0"/>
<path stroke="#FFA500" d="M653 435l0 -7 1 -2 0 -2M654 425l5 0 0 -1M659 425l20 0M679 433l0 -8M679 433l1 0M680 434l0 -4 26 0M706 434l0 -4M706 434l1 0 0 -1 1 -1 17 0M725 433l0 -1 6 0 1 -2 0 -2M732 430l27 0M759 433l0 -3M759 432l6 0 0 -1M765 432l13 0"/>
<path stroke="#FFA500" d="M778 432l0 -1M778 432l7 0 0 -1 28 0M813 432l0 -1 25 0 0 -1M838 431l80 0M918 557l0 -126M918 557l1 5M919 573l0 -11M919 573l1 1M920 575l0 -1M920 575l3 0M923 576l0 -1M923 576l13 0 0 -2M936 575l14 0M950 576l0 -1M950 576l24 0"/>
<path stroke="green" d="M50 39l46 0"/>
<text stroke="none" fill="white" font-size="16" x="106" y="48">
x1.sw_sample-2
</text>
<path stroke="green" d="M50 613l1 0 1 -9 0 -21 1 -21M53 579l0 -23M53 579l1 31M54 613l0 -3M54 613l63 0M117 620l0 -172M117 449l422 0M539 614l0 -171M539 613l422 0M961 618l0 -170 1 1 12 0"/>
<path stroke="#FFC0C5" d="M462 55l46 0"/>
<text stroke="none" fill="white" font-size="16" x="518" y="64">
x1.comp_out_p+2
</text>
<path stroke="#FFC0C5" d="M50 249l1 0 1 -9 0 -22 1 -18 0 -4M53 198l1 5M54 249l0 -46M54 248l1 1 618 0M673 254l0 -5M673 254l1 -133 0 -38M674 85l13 0M687 249l0 -171M687 249l13 0 0 -165 1 0M701 85l0 -1M701 85l12 0 1 -8M714 250l0 -173M714 249l39 0"/>
<path stroke="#FFC0C5" d="M753 249l0 -165 1 1 12 0M766 249l0 -167M766 249l41 0 0 -148 1 -16 0 -1M808 85l11 0M819 250l0 -172M819 249l41 0 0 -165 1 1 11 0M872 250l0 -174M872 249l14 0 1 -150 0 -15M887 85l11 0M898 250l0 -171M898 250l1 -1 14 0 0 -165"/>
<path stroke="#FFC0C5" d="M913 85l12 0M925 250l0 -171M925 249l49 0"/>
<path stroke="#A52A2A" d="M50 55l46 0"/>
<text stroke="none" fill="white" font-size="16" x="106" y="64">
x1.comp_out_n-2
</text>
<path stroke="#A52A2A" d="M50 613l1 0 1 -9 0 -22 1 -19M53 564l0 -3M53 564l1 6M54 613l0 -43M54 613l488 0 0 -165M542 449l13 0M555 613l0 -172M555 613l13 0 0 -166M568 449l13 0 0 -9 1 161M582 613l0 -12M582 613l12 0M594 614l0 -166M594 449l14 0M608 613l0 -173"/>
<path stroke="#A52A2A" d="M608 613l13 0 0 -166M621 449l13 0M634 614l0 -170M634 614l1 -1 12 0M647 615l0 -168M647 449l14 0M661 614l0 -174M661 613l66 0 0 -165M727 449l13 0M740 614l0 -170M740 613l40 0 0 -165M780 449l13 0M793 613l0 -174M793 613l41 0"/>
<path stroke="#A52A2A" d="M834 613l0 -165M834 449l11 0 0 -10 1 153M846 613l0 -21M846 613l91 0 1 -55 0 -110M938 449l13 0M951 613l0 -172M951 613l23 0"/>
</svg>
