<?xml version="1.0" standalone="yes"?>
<!DOCTYPE svg PUBLIC "-//W3C//DTD SVG 1.1//EN"
 "http://www.w3.org/Graphics/SVG/1.1/DTD/svg11.dtd">
<svg xmlns="http://www.w3.org/2000/svg" version="1.1"
  width="100%" height="100%" viewBox="0 0 1024 768"
  style="fill: none; font-family: Helvetica;
 font: Helvetica;
">

<!-- Creator: NGspice -->

<rect x="0" y="0" width="1024" height="768" fill="black" stroke="none"/>
<text stroke="none" fill="white" font-size="16" x="358" y="752">
time
</text>
<text stroke="none" fill="white" font-size="16" x="10" y="16">
tran1: run413_vin-0.536573
</text>
<path stroke="white" d="M50 704l0 -637"/>
<text stroke="none" fill="white" font-size="16" x="35" y="728">
0.0
</text>
<path stroke="white" stroke-dasharray="1,2" d="M182 704l0 -637"/>
<text stroke="none" fill="white" font-size="16" x="157" y="728">
100.0
</text>
<path stroke="white" stroke-dasharray="1,2" d="M314 704l0 -637"/>
<text stroke="none" fill="white" font-size="16" x="289" y="728">
200.0
</text>
<path stroke="white" stroke-dasharray="1,2" d="M446 704l0 -637"/>
<text stroke="none" fill="white" font-size="16" x="421" y="728">
300.0
</text>
<path stroke="white" stroke-dasharray="1,2" d="M578 704l0 -637"/>
<text stroke="none" fill="white" font-size="16" x="553" y="728">
400.0
</text>
<path stroke="white" stroke-dasharray="1,2" d="M710 704l0 -637"/>
<text stroke="none" fill="white" font-size="16" x="685" y="728">
500.0
</text>
<path stroke="white" stroke-dasharray="1,2" d="M842 704l0 -637"/>
<text stroke="none" fill="white" font-size="16" x="817" y="728">
600.0
</text>
<path stroke="white" stroke-dasharray="1,2" d="M974 704l0 -637"/>
<text stroke="none" fill="white" font-size="16" x="949" y="728">
700.0
</text>
<text stroke="none" fill="white" font-size="16" x="614" y="752">
ns
</text>
<path stroke="white" stroke-dasharray="1,2" d="M50 704l924 0"/>
<text stroke="none" fill="white" font-size="16" x="8" y="712">
-3.0
</text>
<path stroke="white" stroke-dasharray="1,2" d="M50 613l924 0"/>
<text stroke="none" fill="white" font-size="16" x="8" y="621">
-2.0
</text>
<path stroke="white" stroke-dasharray="1,2" d="M50 522l924 0"/>
<text stroke="none" fill="white" font-size="16" x="8" y="530">
-1.0
</text>
<path stroke="white" d="M50 431l924 0"/>
<text stroke="none" fill="white" font-size="16" x="18" y="439">
0.0
</text>
<path stroke="white" stroke-dasharray="1,2" d="M50 340l924 0"/>
<text stroke="none" fill="white" font-size="16" x="18" y="348">
1.0
</text>
<path stroke="white" stroke-dasharray="1,2" d="M50 249l924 0"/>
<text stroke="none" fill="white" font-size="16" x="18" y="257">
2.0
</text>
<path stroke="white" stroke-dasharray="1,2" d="M50 158l924 0"/>
<text stroke="none" fill="white" font-size="16" x="18" y="166">
3.0
</text>
<path stroke="white" stroke-dasharray="1,2" d="M50 67l924 0"/>
<text stroke="none" fill="white" font-size="16" x="18" y="75">
4.0
</text>
<text stroke="none" fill="white" font-size="16" x="10" y="32">
     
</text>
<path stroke="red" d="M462 23l46 0"/>
<text stroke="none" fill="white" font-size="16" x="518" y="32">
x1.vsampled_p
</text>
<path stroke="red" d="M50 431l1 0 1 -7 0 -15 1 -14 0 -5 1 2M54 415l0 -40 1 -4 0 -14 1 -2 0 -3 2 -2 1 0 1 -1 3 0 1 1 4 0 1 -1 48 0M117 360l0 -11M117 360l1 13M118 387l0 -14M118 387l1 3M119 394l0 -4M119 394l1 2M120 397l0 -1M120 397l1 0 1 1 424 0"/>
<path stroke="red" d="M546 398l0 -23 1 -3 0 -22 1 -5 0 -5 1 -1 0 -1 1 -1 4 0 0 -1M554 337l13 0M567 338l0 -1 13 0 0 -1M580 337l20 0M600 354l0 -17M600 354l1 3M601 363l0 -6M601 362l1 -3 0 -1 1 -1 22 0 0 -11 1 -1 0 -7 1 0M627 339l0 -1M627 339l19 0"/>
<path stroke="red" d="M646 340l0 -1 7 0M653 349l0 -10M653 349l1 2M654 352l0 -1 1 -1 4 0 0 -1 13 0M672 350l0 -1 1 0M673 350l0 -1M673 350l13 0 0 -1 12 0 1 1 0 -1M699 350l13 0 0 -1 13 0M725 350l0 -1M725 350l7 0 0 -4 1 1 18 0M751 348l0 -1M751 348l1 0"/>
<path stroke="red" d="M752 348l0 -1 7 0M759 350l0 -3M759 349l6 0 0 -1M765 349l13 0 0 -1M778 349l8 0M786 350l0 -1 18 0M804 350l0 -1 27 0M831 350l0 -1 26 0M857 350l0 -1 26 0M883 350l0 -1 27 0M910 350l0 -1 7 0M917 352l0 -3M917 352l1 4M918 391l0 -35"/>
<path stroke="red" d="M918 391l1 3M919 400l0 -6M919 400l1 0 0 -1 1 0 0 -1 53 0"/>
<path stroke="blue" d="M50 23l46 0"/>
<text stroke="none" fill="white" font-size="16" x="106" y="32">
x1.vsampled_n
</text>
<path stroke="blue" d="M50 431l1 0 1 -7 0 -15 1 -15 0 -4 1 1M54 414l0 -39 1 -4 0 -14 1 -2 0 -3 2 -2 1 0 1 -1 3 0 1 1 4 0 1 -1 48 0 0 -1 1 -10 0 -21 1 -5 0 -6 1 -3 0 -1 1 -1 1 0 0 -1 417 0M539 301l0 -1M539 301l1 0 0 -1M540 301l14 0 0 -1 12 0 1 1"/>
<path stroke="blue" d="M567 302l0 -1 7 0M574 324l0 -24M574 324l1 8M575 339l0 -7M575 339l1 2M576 342l0 -1M576 342l1 -1 16 0M593 342l0 -1 26 0M619 342l0 -1M619 342l1 0 0 -1 26 0M646 342l0 -1 26 0M672 342l0 -1 7 0M679 346l0 -5M679 346l1 1M680 348l0 -1"/>
<path stroke="blue" d="M680 347l6 0 0 -1 12 0 1 1 0 -1M699 347l7 0M706 350l0 -3M706 350l1 -1 106 0M813 350l0 -1 17 0 1 1 0 -1 86 0M917 350l0 -4 1 -6 0 -21 1 -2 0 -9 1 -3 0 -2 1 -1 0 -1 2 0 0 -1 13 0M936 302l0 -2M936 301l14 0 0 -1 24 0"/>
<path stroke="#FFA500" d="M462 39l46 0"/>
<text stroke="none" fill="white" font-size="16" x="518" y="48">
x1.vsampled_p-x1.vsampled_n
</text>
<path stroke="#FFA500" d="M50 431l2 0 1 1 1 0 0 -1 63 0M117 443l0 -12M117 443l1 23M118 501l0 -35M118 501l1 8M119 520l0 -11M119 520l1 3M120 526l0 -3M120 526l3 3 416 0 0 -1 1 1 0 -1 6 0M546 529l0 -23 1 -3 0 -23 1 -4 0 -6 1 -1 0 -1 1 0 0 -1 17 0"/>
<path stroke="#FFA500" d="M567 468l0 -2M567 467l7 0 0 -23 1 -8 0 -8 1 -1 0 -1 17 0M593 427l0 -1 7 0M600 444l0 -18M600 444l1 2M601 453l0 -7M601 451l1 -2 0 -1 1 -1 22 0 0 -11 1 -2 0 -6 1 0 1 1 25 0M653 439l0 -10M653 439l1 2M654 442l0 -1 1 -1 0 -1"/>
<path stroke="#FFA500" d="M655 439l24 0 0 -5 1 -1M680 434l0 -1M680 434l26 0 0 -3 19 0M725 432l0 -1 7 0 0 -3 1 1 26 0M759 432l0 -3M759 431l6 0 0 -1M765 431l13 0 0 -1M778 431l8 0M786 432l0 -1 27 0 0 -1M813 431l104 0M917 437l0 -7M917 437l1 10M918 504l0 -57"/>
<path stroke="#FFA500" d="M918 504l1 5M919 523l0 -14M919 523l1 2M920 527l0 -2M920 527l1 1 2 0M923 529l0 -1M923 529l13 0 0 -2M936 528l14 0M950 529l0 -1M950 529l24 0"/>
<path stroke="green" d="M50 39l46 0"/>
<text stroke="none" fill="white" font-size="16" x="106" y="48">
x1.sw_sample-2
</text>
<path stroke="green" d="M50 613l1 0 1 -9 0 -21 1 -21M53 580l0 -24M53 580l1 30M54 613l0 -3M54 613l63 0M117 620l0 -172M117 449l422 0M539 614l0 -171M539 613l422 0M961 618l0 -170 1 1 12 0"/>
<path stroke="#FFC0C5" d="M462 55l46 0"/>
<text stroke="none" fill="white" font-size="16" x="518" y="64">
x1.comp_out_p+2
</text>
<path stroke="#FFC0C5" d="M50 249l1 0 1 -9 0 -22 1 -18 0 -4M53 198l1 5M54 250l0 -47M54 248l1 1 539 0 0 -165 1 1 13 0M608 249l0 -173M608 249l39 0 0 -166M647 85l14 0M661 249l0 -174M661 249l92 0 0 -165M753 85l13 0M766 249l0 -171M766 249l14 0 0 -165"/>
<path stroke="#FFC0C5" d="M780 84l1 1 12 0M793 249l0 -171M793 249l41 0 0 -165M834 85l11 0 0 -2 1 151M846 249l0 -15M846 249l128 0"/>
<path stroke="#A52A2A" d="M50 55l46 0"/>
<text stroke="none" fill="white" font-size="16" x="106" y="64">
x1.comp_out_n-2
</text>
<path stroke="#A52A2A" d="M50 613l1 0 1 -9 0 -22 1 -19M53 564l0 -3M53 564l1 6M54 613l0 -43M54 613l487 0 1 1 0 -167M542 449l13 0M555 614l0 -167M555 613l13 0M568 614l0 -167M568 449l13 0M581 599l0 -158M581 599l1 14 39 0M621 614l0 -167M621 449l13 0"/>
<path stroke="#A52A2A" d="M634 613l0 -173M634 613l39 0M673 614l0 -96 1 -62 0 -9M674 449l13 0M687 613l0 -172M687 613l13 0 0 -165M700 449l13 0 0 -9 1 147M714 613l0 -26M714 613l13 0 1 -158 0 -7M728 449l12 0M740 613l0 -173M740 613l67 0 0 -164 12 0"/>
<path stroke="#A52A2A" d="M819 613l0 -168M819 613l41 0 0 -164 12 0M872 613l0 -174M872 613l14 0 0 -158 1 -7M887 449l0 -1M887 449l11 0M898 613l0 -174M898 613l14 0 1 -158 0 -7M913 449l12 0M925 613l0 -173M925 613l12 0 1 -11 0 -155M938 449l13 0M951 613l0 -170"/>
<path stroke="#A52A2A" d="M951 613l23 0"/>
</svg>
