<?xml version="1.0" standalone="yes"?>
<!DOCTYPE svg PUBLIC "-//W3C//DTD SVG 1.1//EN"
 "http://www.w3.org/Graphics/SVG/1.1/DTD/svg11.dtd">
<svg xmlns="http://www.w3.org/2000/svg" version="1.1"
  width="100%" height="100%" viewBox="0 0 1024 768"
  style="fill: none; font-family: Helvetica;
 font: Helvetica;
">

<!-- Creator: NGspice -->

<rect x="0" y="0" width="1024" height="768" fill="black" stroke="none"/>
<text stroke="none" fill="white" font-size="16" x="358" y="752">
time
</text>
<text stroke="none" fill="white" font-size="16" x="10" y="16">
tran1: run410_vin-0.539209
</text>
<path stroke="white" d="M50 704l0 -637"/>
<text stroke="none" fill="white" font-size="16" x="35" y="728">
0.0
</text>
<path stroke="white" stroke-dasharray="1,2" d="M182 704l0 -637"/>
<text stroke="none" fill="white" font-size="16" x="157" y="728">
100.0
</text>
<path stroke="white" stroke-dasharray="1,2" d="M314 704l0 -637"/>
<text stroke="none" fill="white" font-size="16" x="289" y="728">
200.0
</text>
<path stroke="white" stroke-dasharray="1,2" d="M446 704l0 -637"/>
<text stroke="none" fill="white" font-size="16" x="421" y="728">
300.0
</text>
<path stroke="white" stroke-dasharray="1,2" d="M578 704l0 -637"/>
<text stroke="none" fill="white" font-size="16" x="553" y="728">
400.0
</text>
<path stroke="white" stroke-dasharray="1,2" d="M710 704l0 -637"/>
<text stroke="none" fill="white" font-size="16" x="685" y="728">
500.0
</text>
<path stroke="white" stroke-dasharray="1,2" d="M842 704l0 -637"/>
<text stroke="none" fill="white" font-size="16" x="817" y="728">
600.0
</text>
<path stroke="white" stroke-dasharray="1,2" d="M974 704l0 -637"/>
<text stroke="none" fill="white" font-size="16" x="949" y="728">
700.0
</text>
<text stroke="none" fill="white" font-size="16" x="614" y="752">
ns
</text>
<path stroke="white" stroke-dasharray="1,2" d="M50 704l924 0"/>
<text stroke="none" fill="white" font-size="16" x="8" y="712">
-3.0
</text>
<path stroke="white" stroke-dasharray="1,2" d="M50 613l924 0"/>
<text stroke="none" fill="white" font-size="16" x="8" y="621">
-2.0
</text>
<path stroke="white" stroke-dasharray="1,2" d="M50 522l924 0"/>
<text stroke="none" fill="white" font-size="16" x="8" y="530">
-1.0
</text>
<path stroke="white" d="M50 431l924 0"/>
<text stroke="none" fill="white" font-size="16" x="18" y="439">
0.0
</text>
<path stroke="white" stroke-dasharray="1,2" d="M50 340l924 0"/>
<text stroke="none" fill="white" font-size="16" x="18" y="348">
1.0
</text>
<path stroke="white" stroke-dasharray="1,2" d="M50 249l924 0"/>
<text stroke="none" fill="white" font-size="16" x="18" y="257">
2.0
</text>
<path stroke="white" stroke-dasharray="1,2" d="M50 158l924 0"/>
<text stroke="none" fill="white" font-size="16" x="18" y="166">
3.0
</text>
<path stroke="white" stroke-dasharray="1,2" d="M50 67l924 0"/>
<text stroke="none" fill="white" font-size="16" x="18" y="75">
4.0
</text>
<text stroke="none" fill="white" font-size="16" x="10" y="32">
     
</text>
<path stroke="red" d="M462 23l46 0"/>
<text stroke="none" fill="white" font-size="16" x="518" y="32">
x1.vsampled_p
</text>
<path stroke="red" d="M50 431l1 0 1 -7 0 -15 1 -14 0 -5 1 2M54 415l0 -38 1 -4 0 -17 1 -2 0 -3 1 -1 2 0 1 -1 4 0M64 350l0 -1M64 350l4 0 1 -1 48 0M117 360l0 -11M117 360l1 13M118 387l0 -14M118 387l1 3M119 395l0 -5M119 395l1 1M120 397l0 -1M120 397l1 1"/>
<path stroke="red" d="M121 398l419 0M540 399l0 -1 6 0 0 -22 1 -3 0 -26 1 -4 0 -3 1 -1 0 -1 1 -1 4 0 0 -1M554 337l13 0M567 338l0 -1 26 0M593 338l0 -1 7 0M600 357l0 -20M600 357l1 2M601 364l0 -5M601 362l1 -2 0 -2 1 -1 16 0M619 358l0 -1M619 358l1 0"/>
<path stroke="red" d="M620 358l0 -1 5 0 0 -12 1 -1 0 -5 2 0 1 1 4 0 0 -1 13 0M646 340l0 -1M646 340l7 0M653 350l0 -10M653 350l1 2 0 -1 1 -1 4 0 0 -1M659 350l73 0 0 -4M732 347l1 0M733 348l0 -1M733 348l5 0 0 -1 13 0M751 348l0 -1M751 348l1 0 0 -1"/>
<path stroke="red" d="M752 348l7 0M759 350l0 -2M759 349l53 0M812 350l0 -1 19 0M831 350l0 -1 26 0M857 350l0 -1 26 0M883 350l0 -1 27 0M910 350l0 -1 9 0M919 385l0 -36M919 385l1 1M920 398l0 -12M920 398l1 2 1 0 0 -1 1 0 0 -1 51 0"/>
<path stroke="blue" d="M50 23l46 0"/>
<text stroke="none" fill="white" font-size="16" x="106" y="32">
x1.vsampled_n
</text>
<path stroke="blue" d="M50 431l1 0 1 -7 0 -15 1 -15 0 -4 1 1M54 414l0 -37 1 -4 0 -17 1 -2 0 -3 1 -1 2 0 1 -1 4 0M64 350l0 -1M64 350l4 0 1 -1 48 0 0 -1 1 -10 0 -21 1 -5 0 -7 1 -2 0 -1 2 -2 418 0M540 301l0 -1 26 0 1 1M567 302l0 -2 6 0M573 309l0 -9"/>
<path stroke="blue" d="M573 309l1 3M574 332l0 -20M574 332l1 8 1 1 17 0M593 342l0 -1 26 0M619 342l0 -1 27 0M646 342l0 -1 26 0M672 342l0 -1 7 0M679 346l0 -5M679 346l1 1M680 348l0 -2 19 0M699 347l0 -1 7 0M706 350l0 -4M706 349l85 0M791 350l0 -1 13 0"/>
<path stroke="blue" d="M804 350l0 -1 26 0 1 1 0 -1 88 0M919 350l0 -24 1 -2 0 -11 1 -3 0 -5 1 -1 0 -2 1 0 0 -2M923 301l1 0 0 -1 12 0M936 302l0 -2 38 0"/>
<path stroke="#FFA500" d="M462 39l46 0"/>
<text stroke="none" fill="white" font-size="16" x="518" y="48">
x1.vsampled_p-x1.vsampled_n
</text>
<path stroke="#FFA500" d="M50 431l2 0 1 1 1 0 0 -1 63 0M117 443l0 -12M117 443l1 23M118 501l0 -35M118 501l1 8M119 520l0 -11M119 520l1 4M120 527l0 -3M120 527l2 2 418 0 0 -1M540 529l6 0 0 -22 1 -3 0 -27 1 -3 0 -4 1 0 0 -1 1 -1 4 0 0 -1M554 468l13 0"/>
<path stroke="#FFA500" d="M567 468l0 -1M567 468l6 0 0 -9 1 -3 0 -20 1 -8 1 -1 24 0M600 447l0 -20M600 447l1 2M601 453l0 -4M601 452l1 -2 0 -3 23 0 0 -12 1 -2 0 -5 1 0M627 429l0 -1M627 429l19 0M646 430l0 -1 7 0M653 440l0 -11M653 440l1 2 0 -1 1 -1"/>
<path stroke="#FFA500" d="M655 440l17 0 0 -1 1 1 6 0 0 -6 1 -1M680 434l0 -1M680 434l18 0 1 1 0 -1 6 0 1 1 0 -4M706 432l26 0 0 -4M732 429l1 0M733 430l0 -1M733 430l26 0M759 433l0 -3M759 431l32 0 0 -1 13 0M804 431l0 -1 8 0M812 431l0 -1M812 431l107 0"/>
<path stroke="#FFA500" d="M919 490l0 -60M919 490l1 3M920 516l0 -23M920 516l1 5M921 526l0 -5M921 526l1 0M922 528l0 -2M922 528l1 0M923 529l0 -1M923 529l13 0 0 -1M936 529l38 0"/>
<path stroke="green" d="M50 39l46 0"/>
<text stroke="none" fill="white" font-size="16" x="106" y="48">
x1.sw_sample-2
</text>
<path stroke="green" d="M50 613l1 0 1 -9 0 -21 1 -21M53 580l0 -24M53 580l1 30M54 613l0 -3M54 613l63 0M117 620l0 -172M117 449l422 0M539 614l0 -171M539 613l422 0M961 618l0 -170 1 1 12 0"/>
<path stroke="#FFC0C5" d="M462 55l46 0"/>
<text stroke="none" fill="white" font-size="16" x="518" y="64">
x1.comp_out_p+2
</text>
<path stroke="#FFC0C5" d="M50 249l1 0 1 -9 0 -22 1 -18 0 -4M53 198l1 5M54 250l0 -90 1 83M55 249l0 -6M55 249l539 0M594 252l0 -168M594 85l14 0M608 250l0 -173M608 249l39 0M647 254l0 -171M647 85l14 0M661 249l0 -173M661 249l92 0 0 -165M753 85l13 0"/>
<path stroke="#FFC0C5" d="M766 250l0 -174M766 249l40 0 1 -155 0 -10M807 85l12 0M819 249l0 -174M819 249l14 0 1 -154 0 -10 11 0 0 -5 1 153M846 249l0 -16M846 249l41 0 0 -165M887 85l11 0M898 249l0 -173M898 249l76 0"/>
<path stroke="#A52A2A" d="M50 55l46 0"/>
<text stroke="none" fill="white" font-size="16" x="106" y="64">
x1.comp_out_n-2
</text>
<path stroke="#A52A2A" d="M50 613l1 0 1 -9 0 -22 1 -19M53 564l0 -3M53 564l1 6M54 615l0 -45M54 612l1 0M55 613l0 -1M55 613l486 0 1 1 0 -167M542 449l13 0M555 614l0 -167M555 613l13 0M568 615l0 -168M568 449l13 0 0 -7 1 144M582 613l0 -27M582 613l39 0"/>
<path stroke="#A52A2A" d="M621 614l0 -167M621 449l13 0M634 613l0 -173M634 613l39 0M673 615l0 -2M673 615l1 -107 0 -61M674 449l13 0M687 613l0 -173M687 613l13 0 0 -165M700 449l13 0 0 -8 1 154M714 613l0 -18M714 613l13 0 1 -153 0 -11 12 0M740 613l0 -172"/>
<path stroke="#A52A2A" d="M740 613l45 0M785 614l0 -166M785 449l8 0M793 614l0 -169M793 613l68 0 0 -165M861 449l11 0M872 613l0 -172M872 613l42 0 0 -165M914 449l11 0M925 613l0 -173M925 613l12 0 1 -20 0 -146M938 449l13 0M951 614l0 -171M951 613l23 0"/>
</svg>
