<?xml version="1.0" standalone="yes"?>
<!DOCTYPE svg PUBLIC "-//W3C//DTD SVG 1.1//EN"
 "http://www.w3.org/Graphics/SVG/1.1/DTD/svg11.dtd">
<svg xmlns="http://www.w3.org/2000/svg" version="1.1"
  width="100%" height="100%" viewBox="0 0 1024 768"
  style="fill: none; font-family: Helvetica;
 font: Helvetica;
">

<!-- Creator: NGspice -->

<rect x="0" y="0" width="1024" height="768" fill="black" stroke="none"/>
<text stroke="none" fill="white" font-size="16" x="358" y="752">
time
</text>
<text stroke="none" fill="white" font-size="16" x="10" y="16">
tran1: run641_vin-0.336182
</text>
<path stroke="white" d="M50 704l0 -637"/>
<text stroke="none" fill="white" font-size="16" x="35" y="728">
0.0
</text>
<path stroke="white" stroke-dasharray="1,2" d="M182 704l0 -637"/>
<text stroke="none" fill="white" font-size="16" x="157" y="728">
100.0
</text>
<path stroke="white" stroke-dasharray="1,2" d="M314 704l0 -637"/>
<text stroke="none" fill="white" font-size="16" x="289" y="728">
200.0
</text>
<path stroke="white" stroke-dasharray="1,2" d="M446 704l0 -637"/>
<text stroke="none" fill="white" font-size="16" x="421" y="728">
300.0
</text>
<path stroke="white" stroke-dasharray="1,2" d="M578 704l0 -637"/>
<text stroke="none" fill="white" font-size="16" x="553" y="728">
400.0
</text>
<path stroke="white" stroke-dasharray="1,2" d="M710 704l0 -637"/>
<text stroke="none" fill="white" font-size="16" x="685" y="728">
500.0
</text>
<path stroke="white" stroke-dasharray="1,2" d="M842 704l0 -637"/>
<text stroke="none" fill="white" font-size="16" x="817" y="728">
600.0
</text>
<path stroke="white" stroke-dasharray="1,2" d="M974 704l0 -637"/>
<text stroke="none" fill="white" font-size="16" x="949" y="728">
700.0
</text>
<text stroke="none" fill="white" font-size="16" x="614" y="752">
ns
</text>
<path stroke="white" stroke-dasharray="1,2" d="M50 704l924 0"/>
<text stroke="none" fill="white" font-size="16" x="8" y="712">
-3.0
</text>
<path stroke="white" stroke-dasharray="1,2" d="M50 613l924 0"/>
<text stroke="none" fill="white" font-size="16" x="8" y="621">
-2.0
</text>
<path stroke="white" stroke-dasharray="1,2" d="M50 522l924 0"/>
<text stroke="none" fill="white" font-size="16" x="8" y="530">
-1.0
</text>
<path stroke="white" d="M50 431l924 0"/>
<text stroke="none" fill="white" font-size="16" x="18" y="439">
0.0
</text>
<path stroke="white" stroke-dasharray="1,2" d="M50 340l924 0"/>
<text stroke="none" fill="white" font-size="16" x="18" y="348">
1.0
</text>
<path stroke="white" stroke-dasharray="1,2" d="M50 249l924 0"/>
<text stroke="none" fill="white" font-size="16" x="18" y="257">
2.0
</text>
<path stroke="white" stroke-dasharray="1,2" d="M50 158l924 0"/>
<text stroke="none" fill="white" font-size="16" x="18" y="166">
3.0
</text>
<path stroke="white" stroke-dasharray="1,2" d="M50 67l924 0"/>
<text stroke="none" fill="white" font-size="16" x="18" y="75">
4.0
</text>
<text stroke="none" fill="white" font-size="16" x="10" y="32">
     
</text>
<path stroke="red" d="M462 23l46 0"/>
<text stroke="none" fill="white" font-size="16" x="518" y="32">
x1.vsampled_p
</text>
<path stroke="red" d="M50 431l1 0 1 -7 0 -15 1 -14 0 -6 1 1M54 420l0 -45 1 -5 0 -11 1 -3 0 -3 1 -2 0 -1 2 0 1 -1 57 0M117 354l0 -5M117 354l1 9M118 373l0 -10M118 373l1 3M119 378l0 -2M119 378l1 1 1 0 1 1 424 0 0 -23 1 -4 0 -23 1 -3 0 -6 2 -2 4 0"/>
<path stroke="red" d="M554 319l0 -1 12 0 1 1M567 320l0 -1 7 0M574 349l0 -30M574 349l1 3M575 361l0 -9M575 361l1 0 2 -2 15 0M593 360l0 -1 26 0M619 360l0 -1M619 360l1 0 0 -1 5 0 0 -10 1 -2 0 -5 1 -1 1 0 1 1 4 0 0 -1 13 0M646 342l0 -1M646 342l13 0"/>
<path stroke="red" d="M659 342l0 -1 13 0M672 342l0 -1M672 342l7 0M679 348l0 -6M679 348l1 1 0 -2 6 0 0 -1M686 347l20 0M706 350l0 -3M706 350l1 0 0 -1 18 0M725 350l0 -1 26 0M751 350l0 -1 27 0M778 350l0 -1 26 0M804 350l0 -1 27 0M831 350l0 -1 26 0"/>
<path stroke="red" d="M857 350l0 -1 26 0M883 350l0 -1 27 0M910 350l0 -1 7 0 1 1M918 386l0 -36M918 386l1 -1 0 -4 1 -1 54 0"/>
<path stroke="blue" d="M50 23l46 0"/>
<text stroke="none" fill="white" font-size="16" x="106" y="32">
x1.vsampled_n
</text>
<path stroke="blue" d="M50 431l1 0 1 -7 0 -15 1 -15 0 -5 1 0M54 420l0 -45 1 -5 0 -11 1 -3 0 -3 1 -2 0 -1 2 0 1 -1 57 0 1 -8 0 -14 1 -4 0 -2 2 -2 418 0 0 -1M539 319l1 0M540 320l0 -1 14 0 0 -1M554 319l13 0M567 320l0 -1 13 0 0 -1M580 319l13 0M593 320l0 -1"/>
<path stroke="blue" d="M593 319l7 0M600 337l0 -18M600 337l1 5 0 -1 1 0 0 -1 1 -1 16 0M619 340l0 -1 27 0M646 340l0 -1 7 0M653 347l0 -8M653 347l1 3M654 351l0 -1 1 0 1 -1 16 0M672 350l0 -1 26 0 1 1 0 -1 26 0M725 350l0 -1 8 0 0 -3M733 347l18 0M751 348l0 -1"/>
<path stroke="blue" d="M751 347l8 0M759 349l0 -2M759 349l1 0 1 -1 17 0M778 349l0 -1 7 0M785 349l0 -1M785 349l1 1 0 -1 26 0M812 350l0 -1M812 350l1 0 0 -1 17 0 1 1 0 -1 86 0M917 350l0 -1M917 350l1 -5 0 -22 1 -2 0 -3 1 0 1 1 2 0 0 -1M923 319l13 0"/>
<path stroke="blue" d="M936 320l0 -1 14 0 0 -1M950 319l12 0 0 -1 2 0M964 319l0 -1M964 319l10 0"/>
<path stroke="#FFA500" d="M462 39l46 0"/>
<text stroke="none" fill="white" font-size="16" x="518" y="48">
x1.vsampled_p-x1.vsampled_n
</text>
<path stroke="#FFA500" d="M50 431l67 0M117 436l0 -5M117 436l1 17M118 477l0 -24M118 477l1 7M119 488l0 -4M119 488l1 2 1 1M121 492l0 -1M121 492l425 0 0 -23 1 -4 0 -23 1 -2 0 -6 1 -2 1 -1 24 0M574 461l0 -30M574 461l1 3M575 473l0 -9M575 473l1 1 0 -1"/>
<path stroke="#FFA500" d="M576 473l1 -1 16 0 0 -1M593 472l7 0 0 -19 1 -4 0 -1M601 449l1 1M602 451l0 -1M602 451l23 0 0 -11 1 -1 0 -6 20 0M646 434l0 -1 7 0 0 -8 1 -2 0 -1 1 1 17 0M672 424l0 -1 7 0M679 429l0 -6M679 429l1 1M680 431l0 -3 26 0M706 432l0 -4"/>
<path stroke="#FFA500" d="M706 432l1 -1 26 0M733 434l0 -3M733 433l26 0 0 -2M759 432l26 0 0 -1 27 0 0 -1 1 1 104 0 0 -1 1 6M918 494l0 -58M918 494l1 1 0 -1 2 -2 15 0 0 -1M936 492l38 0"/>
<path stroke="green" d="M50 39l46 0"/>
<text stroke="none" fill="white" font-size="16" x="106" y="48">
x1.sw_sample-2
</text>
<path stroke="green" d="M50 613l1 0 1 -9 0 -21 1 -21 0 -8 1 0M54 613l0 -59M54 613l62 0 1 6 0 -170 422 0M539 614l0 -171M539 613l422 0M961 618l0 -170 1 1 12 0"/>
<path stroke="#FFC0C5" d="M462 55l46 0"/>
<text stroke="none" fill="white" font-size="16" x="518" y="64">
x1.comp_out_p+2
</text>
<path stroke="#FFC0C5" d="M50 249l1 0 1 -9 0 -22 1 -18 0 -5 1 3M54 249l0 -51M54 249l514 0 0 -165M568 85l13 0 0 -9 1 161M582 249l0 -12M582 249l91 0M673 250l0 -73 1 -81 0 -12M674 85l13 0M687 249l0 -172M687 249l13 0M700 250l0 -167M700 85l13 0 0 -9"/>
<path stroke="#FFC0C5" d="M713 76l1 138M714 249l0 -35M714 249l14 0 0 -164 1 -1M729 85l0 -1M729 85l11 0M740 249l0 -173M740 249l94 0 0 -165M834 85l11 0M845 86l0 -3M845 86l1 149M846 249l0 -14M846 249l128 0"/>
<path stroke="#A52A2A" d="M50 55l46 0"/>
<text stroke="none" fill="white" font-size="16" x="106" y="64">
x1.comp_out_n-2
</text>
<path stroke="#A52A2A" d="M50 613l1 0 1 -9 0 -22 1 -19 0 -4M53 560l1 4M54 613l0 -49M54 613l487 0 1 1 0 -166M542 449l13 0M555 613l0 -172M555 613l39 0M594 616l0 -169M594 449l14 0M608 613l0 -173M608 613l13 0M621 614l0 -166M621 449l13 0M634 613l0 -173"/>
<path stroke="#A52A2A" d="M634 613l13 0M647 616l0 -169M647 449l14 0M661 613l0 -174M661 613l92 0 0 -165M753 449l13 0M766 613l0 -173M766 613l14 0 0 -165M780 449l13 0M793 613l0 -174M793 613l14 0 0 -165 1 1 11 0M819 613l0 -170M819 613l41 0 0 -164"/>
<path stroke="#A52A2A" d="M860 449l12 0M872 613l0 -174M872 613l14 0 0 -158 1 -7M887 449l0 -1M887 449l11 0M898 613l0 -174M898 613l14 0 1 -158 0 -7M913 449l12 0M925 614l0 -167M925 613l12 0 1 -53 0 -112M938 449l13 0M951 614l0 -171M951 613l23 0"/>
</svg>
