<?xml version="1.0" standalone="yes"?>
<!DOCTYPE svg PUBLIC "-//W3C//DTD SVG 1.1//EN"
 "http://www.w3.org/Graphics/SVG/1.1/DTD/svg11.dtd">
<svg xmlns="http://www.w3.org/2000/svg" version="1.1"
  width="100%" height="100%" viewBox="0 0 1024 768"
  style="fill: none; font-family: Helvetica;
 font: Helvetica;
">

<!-- Creator: NGspice -->

<rect x="0" y="0" width="1024" height="768" fill="black" stroke="none"/>
<text stroke="none" fill="white" font-size="16" x="358" y="752">
time
</text>
<text stroke="none" fill="white" font-size="16" x="10" y="16">
tran1: run643_vin-0.334425
</text>
<path stroke="white" d="M50 704l0 -637"/>
<text stroke="none" fill="white" font-size="16" x="35" y="728">
0.0
</text>
<path stroke="white" stroke-dasharray="1,2" d="M182 704l0 -637"/>
<text stroke="none" fill="white" font-size="16" x="157" y="728">
100.0
</text>
<path stroke="white" stroke-dasharray="1,2" d="M314 704l0 -637"/>
<text stroke="none" fill="white" font-size="16" x="289" y="728">
200.0
</text>
<path stroke="white" stroke-dasharray="1,2" d="M446 704l0 -637"/>
<text stroke="none" fill="white" font-size="16" x="421" y="728">
300.0
</text>
<path stroke="white" stroke-dasharray="1,2" d="M578 704l0 -637"/>
<text stroke="none" fill="white" font-size="16" x="553" y="728">
400.0
</text>
<path stroke="white" stroke-dasharray="1,2" d="M710 704l0 -637"/>
<text stroke="none" fill="white" font-size="16" x="685" y="728">
500.0
</text>
<path stroke="white" stroke-dasharray="1,2" d="M842 704l0 -637"/>
<text stroke="none" fill="white" font-size="16" x="817" y="728">
600.0
</text>
<path stroke="white" stroke-dasharray="1,2" d="M974 704l0 -637"/>
<text stroke="none" fill="white" font-size="16" x="949" y="728">
700.0
</text>
<text stroke="none" fill="white" font-size="16" x="614" y="752">
ns
</text>
<path stroke="white" stroke-dasharray="1,2" d="M50 704l924 0"/>
<text stroke="none" fill="white" font-size="16" x="8" y="712">
-3.0
</text>
<path stroke="white" stroke-dasharray="1,2" d="M50 613l924 0"/>
<text stroke="none" fill="white" font-size="16" x="8" y="621">
-2.0
</text>
<path stroke="white" stroke-dasharray="1,2" d="M50 522l924 0"/>
<text stroke="none" fill="white" font-size="16" x="8" y="530">
-1.0
</text>
<path stroke="white" d="M50 431l924 0"/>
<text stroke="none" fill="white" font-size="16" x="18" y="439">
0.0
</text>
<path stroke="white" stroke-dasharray="1,2" d="M50 340l924 0"/>
<text stroke="none" fill="white" font-size="16" x="18" y="348">
1.0
</text>
<path stroke="white" stroke-dasharray="1,2" d="M50 249l924 0"/>
<text stroke="none" fill="white" font-size="16" x="18" y="257">
2.0
</text>
<path stroke="white" stroke-dasharray="1,2" d="M50 158l924 0"/>
<text stroke="none" fill="white" font-size="16" x="18" y="166">
3.0
</text>
<path stroke="white" stroke-dasharray="1,2" d="M50 67l924 0"/>
<text stroke="none" fill="white" font-size="16" x="18" y="75">
4.0
</text>
<text stroke="none" fill="white" font-size="16" x="10" y="32">
     
</text>
<path stroke="red" d="M462 23l46 0"/>
<text stroke="none" fill="white" font-size="16" x="518" y="32">
x1.vsampled_p
</text>
<path stroke="red" d="M50 431l1 0 1 -7 0 -15 1 -14 0 -5 1 2M54 415l0 -40 1 -4 0 -14 1 -3 0 -2 2 -2 1 0 1 -1 4 0M64 350l0 -1M64 350l4 0 1 -1 48 0M117 354l0 -5M117 354l1 9M118 373l0 -10M118 373l1 3M119 378l0 -2M119 378l1 1 3 0M123 380l0 -1M123 380l418 0"/>
<path stroke="red" d="M541 380l0 -1M541 380l5 0 0 -21 1 -3 0 -26 1 -3 0 -6 2 -2 1 0 1 -1 14 0 1 1 0 -1 26 0M593 320l0 -2 7 0M600 339l0 -21M600 339l1 3M601 345l0 -3 1 -1 0 -2 4 0 0 -1 1 0M607 339l0 -1M607 339l26 0 0 -1M633 339l20 0M653 349l0 -10"/>
<path stroke="red" d="M653 349l1 2 1 -1 0 -1 158 0M813 350l0 -1 17 0 1 1 0 -1 86 0M917 350l0 -1 1 -1M918 370l0 -24M918 370l1 3M919 381l0 -8M919 381l1 0 1 -1 41 0 0 -1 1 0M963 380l0 -1M963 380l11 0"/>
<path stroke="blue" d="M50 23l46 0"/>
<text stroke="none" fill="white" font-size="16" x="106" y="32">
x1.vsampled_n
</text>
<path stroke="blue" d="M50 431l1 0 1 -7 0 -15 1 -15 0 -4 1 1M54 415l0 -40 1 -4 0 -14 1 -3 0 -2 2 -2 1 0 1 -1 4 0M64 350l0 -1M64 350l4 0 1 -1 48 0 0 -1 1 -8 0 -13 1 -4 0 -2 2 -2 419 0M540 320l0 -1 14 0 0 -1M554 319l13 0M567 320l0 -1 7 0M574 343l0 -24"/>
<path stroke="blue" d="M574 343l1 3M575 358l0 -12M575 358l1 1M576 360l0 -1M576 360l49 0 0 -10 1 -1 0 -6 1 0 0 -1 52 0M679 347l0 -5M679 347l1 1M680 349l0 -2 26 0M706 350l0 -3M706 350l6 0 0 -1M712 350l13 0 0 -1M725 350l7 0 0 -3 19 0M751 348l0 -1"/>
<path stroke="blue" d="M751 347l8 0M759 350l0 -3M759 349l6 0 0 -1M765 349l21 0M786 350l0 -1 18 0M804 350l0 -1 27 0M831 350l0 -1 26 0M857 350l0 -1 26 0M883 350l0 -1 27 0M910 350l0 -1 7 0M917 350l0 -1M917 350l1 1 0 -9 1 -2 0 -8 1 -5 0 -3 1 -3 0 -1"/>
<path stroke="blue" d="M921 320l1 0 0 -1 14 0M936 320l0 -1 14 0 0 -1M950 319l24 0"/>
<path stroke="#FFA500" d="M462 39l46 0"/>
<text stroke="none" fill="white" font-size="16" x="518" y="48">
x1.vsampled_p-x1.vsampled_n
</text>
<path stroke="#FFA500" d="M50 431l67 0M117 437l0 -6M117 437l1 17M118 477l0 -23M118 477l1 7M119 487l0 -3M119 487l1 3 2 2 418 0 0 -1M540 492l6 0 0 -21 1 -3 0 -26 1 -2 0 -7 2 -2 1 0 1 -1 14 0 1 1 0 -1 7 0M574 431l0 -24 1 -4 0 -11 1 -2 4 0 0 -1M580 390l13 0"/>
<path stroke="#FFA500" d="M593 391l0 -1 7 0M600 410l0 -20M600 410l1 3M601 416l0 -3 1 0 0 -2 1 -1 16 0M619 411l0 -1 6 0M625 420l0 -10M625 420l1 1M626 427l0 -6M626 427l1 0M627 428l0 -1M627 428l26 0M653 438l0 -10M653 438l1 2M654 441l0 -1 1 -1 0 -1"/>
<path stroke="#FFA500" d="M655 438l24 0 0 -5 1 -1M680 433l0 -2M680 433l26 0 0 -3 1 0M707 431l0 -1M707 431l1 -1 17 0M725 431l0 -1 7 0M732 433l0 -3M732 433l27 0 0 -3M759 431l19 0M778 432l0 -1 8 0 0 -1M786 431l27 0M813 432l0 -1 25 0 0 -1M838 431l79 0"/>
<path stroke="#FFA500" d="M917 432l0 -1 1 -3M918 459l0 -32M918 459l1 5M919 480l0 -16M919 480l1 5M920 488l0 -3M920 488l1 2M921 491l0 -1M921 491l2 0M923 492l0 -1M923 492l13 0 0 -1M936 492l38 0"/>
<path stroke="green" d="M50 39l46 0"/>
<text stroke="none" fill="white" font-size="16" x="106" y="48">
x1.sw_sample-2
</text>
<path stroke="green" d="M50 613l1 0 1 -9 0 -21 1 -21M53 581l0 -25M53 581l1 29M54 613l0 -3M54 613l63 0M117 620l0 -172M117 449l422 0M539 614l0 -171M539 613l422 0M961 618l0 -170 1 1 12 0"/>
<path stroke="#FFC0C5" d="M462 55l46 0"/>
<text stroke="none" fill="white" font-size="16" x="518" y="64">
x1.comp_out_p+2
</text>
<path stroke="#FFC0C5" d="M50 249l1 0 1 -9 0 -22 1 -18 0 -4M53 198l1 5M54 249l0 -46M54 249l540 0M594 252l0 -169M594 85l14 0M608 250l0 -168M608 249l13 0M621 250l0 -166M621 85l13 0M634 249l0 -166M634 249l13 0M647 251l0 -168M647 85l14 0M661 249l0 -174"/>
<path stroke="#FFC0C5" d="M661 249l66 0 1 -157 0 -8M728 85l12 0M740 249l0 -171M740 249l67 0 0 -164 12 0M819 250l0 -171M819 249l41 0 0 -164 12 0M872 249l0 -174M872 249l14 0 0 -157 1 -8M887 85l0 -1M887 85l11 0M898 249l0 -174M898 249l14 0 1 -157"/>
<path stroke="#FFC0C5" d="M913 92l0 -8M913 85l12 0M925 250l0 -174M925 249l49 0"/>
<path stroke="#A52A2A" d="M50 55l46 0"/>
<text stroke="none" fill="white" font-size="16" x="106" y="64">
x1.comp_out_n-2
</text>
<path stroke="#A52A2A" d="M50 613l1 0 1 -9 0 -22 1 -19M53 564l0 -3M53 564l1 6M54 613l0 -43M54 613l487 0 1 1 0 -166M542 449l13 0M555 613l0 -168M555 613l13 0M568 614l0 -167M568 449l13 0 0 -9 1 164M582 613l0 -9M582 613l39 0M621 614l0 -1 52 0M673 615l0 -2"/>
<path stroke="#A52A2A" d="M673 615l1 -118 0 -50M674 449l13 0M687 613l0 -171M687 613l13 0 0 -165M700 449l13 0 0 -10 1 149M714 613l0 -25M714 613l39 0 0 -165M753 449l13 0M766 614l0 -170M766 613l14 0 0 -165M780 449l13 0M793 613l0 -174M793 613l41 0"/>
<path stroke="#A52A2A" d="M834 613l0 -165M834 449l11 0 0 -10 1 153M846 613l0 -21M846 613l91 0 1 -53 0 -112M938 449l13 0M951 614l0 -171M951 613l23 0"/>
</svg>
