<?xml version="1.0" standalone="yes"?>
<!DOCTYPE svg PUBLIC "-//W3C//DTD SVG 1.1//EN"
 "http://www.w3.org/Graphics/SVG/1.1/DTD/svg11.dtd">
<svg xmlns="http://www.w3.org/2000/svg" version="1.1"
  width="100%" height="100%" viewBox="0 0 1024 768"
  style="fill: none; font-family: Helvetica;
 font: Helvetica;
">

<!-- Creator: NGspice -->

<rect x="0" y="0" width="1024" height="768" fill="black" stroke="none"/>
<text stroke="none" fill="white" font-size="16" x="358" y="752">
time
</text>
<text stroke="none" fill="white" font-size="16" x="10" y="16">
tran1: run1989_vin0.848581
</text>
<path stroke="white" d="M50 704l0 -637"/>
<text stroke="none" fill="white" font-size="16" x="35" y="728">
0.0
</text>
<path stroke="white" stroke-dasharray="1,2" d="M182 704l0 -637"/>
<text stroke="none" fill="white" font-size="16" x="157" y="728">
100.0
</text>
<path stroke="white" stroke-dasharray="1,2" d="M314 704l0 -637"/>
<text stroke="none" fill="white" font-size="16" x="289" y="728">
200.0
</text>
<path stroke="white" stroke-dasharray="1,2" d="M446 704l0 -637"/>
<text stroke="none" fill="white" font-size="16" x="421" y="728">
300.0
</text>
<path stroke="white" stroke-dasharray="1,2" d="M578 704l0 -637"/>
<text stroke="none" fill="white" font-size="16" x="553" y="728">
400.0
</text>
<path stroke="white" stroke-dasharray="1,2" d="M710 704l0 -637"/>
<text stroke="none" fill="white" font-size="16" x="685" y="728">
500.0
</text>
<path stroke="white" stroke-dasharray="1,2" d="M842 704l0 -637"/>
<text stroke="none" fill="white" font-size="16" x="817" y="728">
600.0
</text>
<path stroke="white" stroke-dasharray="1,2" d="M974 704l0 -637"/>
<text stroke="none" fill="white" font-size="16" x="949" y="728">
700.0
</text>
<text stroke="none" fill="white" font-size="16" x="614" y="752">
ns
</text>
<path stroke="white" stroke-dasharray="1,2" d="M50 704l924 0"/>
<text stroke="none" fill="white" font-size="16" x="8" y="712">
-2.5
</text>
<path stroke="white" stroke-dasharray="1,2" d="M50 655l924 0"/>
<text stroke="none" fill="white" font-size="16" x="8" y="663">
-2.0
</text>
<path stroke="white" stroke-dasharray="1,2" d="M50 606l924 0"/>
<text stroke="none" fill="white" font-size="16" x="8" y="614">
-1.5
</text>
<path stroke="white" stroke-dasharray="1,2" d="M50 557l924 0"/>
<text stroke="none" fill="white" font-size="16" x="8" y="565">
-1.0
</text>
<path stroke="white" stroke-dasharray="1,2" d="M50 508l924 0"/>
<text stroke="none" fill="white" font-size="16" x="8" y="516">
-0.5
</text>
<path stroke="white" d="M50 459l924 0"/>
<text stroke="none" fill="white" font-size="16" x="18" y="467">
0.0
</text>
<path stroke="white" stroke-dasharray="1,2" d="M50 410l924 0"/>
<text stroke="none" fill="white" font-size="16" x="18" y="418">
0.5
</text>
<path stroke="white" stroke-dasharray="1,2" d="M50 361l924 0"/>
<text stroke="none" fill="white" font-size="16" x="18" y="369">
1.0
</text>
<path stroke="white" stroke-dasharray="1,2" d="M50 312l924 0"/>
<text stroke="none" fill="white" font-size="16" x="18" y="320">
1.5
</text>
<path stroke="white" stroke-dasharray="1,2" d="M50 263l924 0"/>
<text stroke="none" fill="white" font-size="16" x="18" y="271">
2.0
</text>
<path stroke="white" stroke-dasharray="1,2" d="M50 214l924 0"/>
<text stroke="none" fill="white" font-size="16" x="18" y="222">
2.5
</text>
<path stroke="white" stroke-dasharray="1,2" d="M50 165l924 0"/>
<text stroke="none" fill="white" font-size="16" x="18" y="173">
3.0
</text>
<path stroke="white" stroke-dasharray="1,2" d="M50 116l924 0"/>
<text stroke="none" fill="white" font-size="16" x="18" y="124">
3.5
</text>
<path stroke="white" stroke-dasharray="1,2" d="M50 67l924 0"/>
<text stroke="none" fill="white" font-size="16" x="18" y="75">
4.0
</text>
<text stroke="none" fill="white" font-size="16" x="10" y="32">
     
</text>
<path stroke="red" d="M462 23l46 0"/>
<text stroke="none" fill="white" font-size="16" x="518" y="32">
x1.vsampled_p
</text>
<path stroke="red" d="M50 459l1 0 1 -7 0 -17 1 -16 0 -5 1 2M54 441l0 -42 1 -4 0 -15 1 -3 0 -3 1 -1 0 -1 1 -1 59 0 0 -2 1 -13 0 -39 1 -7 0 -12 1 -3 0 -5 2 -2 418 0M540 289l0 -1 14 0 0 -1M554 288l13 0M567 290l0 -2 7 0M574 313l0 -25M574 313l1 8"/>
<path stroke="red" d="M575 330l0 -9M575 330l1 2 17 0M593 333l0 -1 7 0M600 346l0 -14M600 346l1 4M601 355l0 -5M601 355l1 -1 17 0M619 355l0 -1 27 0M646 355l0 -1 7 0M653 363l0 -9M653 363l1 2 25 0M679 369l0 -4M679 369l1 0M680 372l0 -3M680 371l1 -1"/>
<path stroke="red" d="M681 370l17 0 1 1 0 -1 26 0M725 371l0 -1 26 0M751 371l0 -1M751 371l1 0 0 -1 26 0M778 371l0 -1 8 0M786 372l0 -2M786 372l1 -1 131 0M918 372l0 -1 1 -1 0 -67 1 -3 0 -7 1 -2 0 -2 1 0 0 -1 1 0 0 -1M923 288l13 0M936 290l0 -2 14 0"/>
<path stroke="red" d="M950 288l0 -1M950 288l24 0"/>
<path stroke="blue" d="M50 23l46 0"/>
<text stroke="none" fill="white" font-size="16" x="106" y="32">
x1.vsampled_n
</text>
<path stroke="blue" d="M50 459l1 0 1 -7 0 -17 1 -15 0 -5 1 2M54 441l0 -42 1 -4 0 -15 1 -3 0 -3 1 -1 0 -1 1 -1 59 0M117 397l0 -26M117 397l1 19M118 439l0 -23M118 439l1 4M119 449l0 -6M119 449l1 1M120 453l0 -3M120 453l1 0 1 1 424 0 0 -29 1 -4 0 -19"/>
<path stroke="blue" d="M547 402l1 -8 0 -4 2 -2 75 0 0 -7 1 -5 0 -8 2 0M628 369l0 -1M628 369l5 0 0 -1M633 369l26 0 0 -1M659 369l27 0 0 -1M686 369l20 0M706 373l0 -4M706 373l1 0 0 -1 5 0 0 -1 1 0M713 372l0 -1M713 372l12 0 0 -1M725 372l7 0 0 -5M732 368l1 1"/>
<path stroke="blue" d="M733 369l18 0M751 370l0 -1 8 0M759 373l0 -4M759 371l6 0 0 -1 13 0M778 371l0 -1M778 371l13 0 0 -1 13 0M804 371l0 -1 1 0M805 371l0 -1M805 371l7 0M812 372l0 -1M812 372l1 -1 105 0M918 372l0 -1M918 372l1 1M919 472l0 -99M919 465l1 -2"/>
<path stroke="blue" d="M920 463l0 -5 1 -1 0 -2 1 0 0 -1 52 0"/>
<path stroke="#FFA500" d="M462 39l46 0"/>
<text stroke="none" fill="white" font-size="16" x="518" y="48">
x1.vsampled_p-x1.vsampled_n
</text>
<path stroke="#FFA500" d="M50 459l2 0 0 -1 2 0M54 459l0 -1M54 459l63 0 0 -28 1 -31 0 -63 1 -11 0 -17 1 -6 0 -6 1 -2 1 -1 0 -1 418 0M540 294l0 -1 6 0M546 322l0 -29M546 322l1 4M547 346l0 -20M547 346l1 7M548 357l0 -4M548 357l2 2 4 0 0 -1M554 359l13 0"/>
<path stroke="#FFA500" d="M567 360l0 -1 7 0M574 384l0 -25M574 384l1 8M575 401l0 -9M575 401l1 2 17 0M593 404l0 -1 7 0M600 417l0 -14M600 417l1 4M601 426l0 -5M601 426l1 -1 23 0M625 432l0 -7M625 432l1 5M626 445l0 -8M626 445l2 0 0 -1 25 0M653 453l0 -9"/>
<path stroke="#FFA500" d="M653 453l1 2M654 456l0 -1 25 0M679 459l0 -4M679 459l1 0M680 462l0 -3M680 461l19 0 0 -1M699 461l7 0 0 -5 1 0M707 458l0 -2M707 458l25 0M732 462l0 -4M732 461l1 0 0 -1 5 0M738 461l0 -1 21 0 0 -3M759 459l27 0M786 460l0 -1"/>
<path stroke="#FFA500" d="M786 460l18 0 0 -1M804 460l8 0 0 -2M812 459l106 0M918 460l0 -2 1 -2 0 -159 1 -2 0 -1 1 -1 2 0 0 -1M923 293l13 0M936 294l0 -1 14 0 0 -1M950 293l24 0"/>
<path stroke="green" d="M50 39l46 0"/>
<text stroke="none" fill="white" font-size="16" x="106" y="48">
x1.sw_sample-2
</text>
<path stroke="green" d="M50 655l1 0 1 -10 0 -23 1 -21M53 618l0 -24M53 618l1 34M54 655l0 -3M54 655l63 0M117 662l0 -184 1 0M118 479l0 -1M118 479l421 0M539 656l0 -184M539 655l422 0M961 660l0 -182 1 0M962 479l0 -1M962 479l12 0"/>
<path stroke="#FFC0C5" d="M462 55l46 0"/>
<text stroke="none" fill="white" font-size="16" x="518" y="64">
x1.comp_out_p+2
</text>
<path stroke="#FFC0C5" d="M50 263l1 0 1 -10 0 -23 1 -20 0 -4M53 208l1 5M54 263l0 -50M54 263l488 0 0 -178M542 87l13 0M555 264l0 -181M555 263l13 0 0 -178M568 87l13 0 0 -2 1 41M582 264l0 -138M582 263l12 0M594 264l0 -179M594 86l1 1 13 0M608 264l0 -181"/>
<path stroke="#FFC0C5" d="M608 263l13 0 0 -178M621 87l13 0M634 263l0 -186M634 263l13 0M647 264l0 -179M647 87l14 0M661 263l0 -186M661 263l12 0 1 1 0 -179M674 87l13 0M687 263l0 -185M687 263l40 0 0 -162 1 -15M728 87l0 -1M728 87l12 0M740 263l0 -185"/>
<path stroke="#FFC0C5" d="M740 263l40 0 1 -159 0 -18M781 87l12 0M793 264l0 -181M793 263l144 0M937 264l0 -1M937 264l1 -67 0 -112M938 87l13 0M951 264l0 -185M951 263l23 0"/>
<path stroke="#A52A2A" d="M50 55l46 0"/>
<text stroke="none" fill="white" font-size="16" x="106" y="64">
x1.comp_out_n-2
</text>
<path stroke="#A52A2A" d="M50 655l1 0 1 -10 0 -24 1 -20M53 602l0 -4M53 602l1 7M54 656l0 -47M54 653l1 2 539 0M594 656l0 -1 80 0M674 656l0 -1 26 0 0 -178M700 478l1 1 12 0 0 -8 1 145M714 655l0 -39M714 655l39 0 0 -178M753 479l13 0M766 655l0 -187"/>
<path stroke="#A52A2A" d="M766 655l41 0 0 -177M807 479l12 0M819 655l0 -188M819 655l15 0 0 -177M834 479l11 0 0 -10 1 170M846 655l0 -16M846 655l15 0 0 -177M861 479l11 0M872 655l0 -186M872 655l15 0 0 -177 1 1 10 0M898 655l0 -186M898 655l15 0 1 -163"/>
<path stroke="#A52A2A" d="M914 492l0 -14M914 479l11 0M925 656l0 -184M925 655l13 0M938 656l0 -1 36 0"/>
</svg>
