<?xml version="1.0" standalone="yes"?>
<!DOCTYPE svg PUBLIC "-//W3C//DTD SVG 1.1//EN"
 "http://www.w3.org/Graphics/SVG/1.1/DTD/svg11.dtd">
<svg xmlns="http://www.w3.org/2000/svg" version="1.1"
  width="100%" height="100%" viewBox="0 0 1024 768"
  style="fill: none; font-family: Helvetica;
 font: Helvetica;
">

<!-- Creator: NGspice -->

<rect x="0" y="0" width="1024" height="768" fill="black" stroke="none"/>
<text stroke="none" fill="white" font-size="16" x="358" y="752">
time
</text>
<text stroke="none" fill="white" font-size="16" x="10" y="16">
tran1: run1988_vin0.847703
</text>
<path stroke="white" d="M50 704l0 -637"/>
<text stroke="none" fill="white" font-size="16" x="35" y="728">
0.0
</text>
<path stroke="white" stroke-dasharray="1,2" d="M182 704l0 -637"/>
<text stroke="none" fill="white" font-size="16" x="157" y="728">
100.0
</text>
<path stroke="white" stroke-dasharray="1,2" d="M314 704l0 -637"/>
<text stroke="none" fill="white" font-size="16" x="289" y="728">
200.0
</text>
<path stroke="white" stroke-dasharray="1,2" d="M446 704l0 -637"/>
<text stroke="none" fill="white" font-size="16" x="421" y="728">
300.0
</text>
<path stroke="white" stroke-dasharray="1,2" d="M578 704l0 -637"/>
<text stroke="none" fill="white" font-size="16" x="553" y="728">
400.0
</text>
<path stroke="white" stroke-dasharray="1,2" d="M710 704l0 -637"/>
<text stroke="none" fill="white" font-size="16" x="685" y="728">
500.0
</text>
<path stroke="white" stroke-dasharray="1,2" d="M842 704l0 -637"/>
<text stroke="none" fill="white" font-size="16" x="817" y="728">
600.0
</text>
<path stroke="white" stroke-dasharray="1,2" d="M974 704l0 -637"/>
<text stroke="none" fill="white" font-size="16" x="949" y="728">
700.0
</text>
<text stroke="none" fill="white" font-size="16" x="614" y="752">
ns
</text>
<path stroke="white" stroke-dasharray="1,2" d="M50 704l924 0"/>
<text stroke="none" fill="white" font-size="16" x="8" y="712">
-3.0
</text>
<path stroke="white" stroke-dasharray="1,2" d="M50 613l924 0"/>
<text stroke="none" fill="white" font-size="16" x="8" y="621">
-2.0
</text>
<path stroke="white" stroke-dasharray="1,2" d="M50 522l924 0"/>
<text stroke="none" fill="white" font-size="16" x="8" y="530">
-1.0
</text>
<path stroke="white" d="M50 431l924 0"/>
<text stroke="none" fill="white" font-size="16" x="18" y="439">
0.0
</text>
<path stroke="white" stroke-dasharray="1,2" d="M50 340l924 0"/>
<text stroke="none" fill="white" font-size="16" x="18" y="348">
1.0
</text>
<path stroke="white" stroke-dasharray="1,2" d="M50 249l924 0"/>
<text stroke="none" fill="white" font-size="16" x="18" y="257">
2.0
</text>
<path stroke="white" stroke-dasharray="1,2" d="M50 158l924 0"/>
<text stroke="none" fill="white" font-size="16" x="18" y="166">
3.0
</text>
<path stroke="white" stroke-dasharray="1,2" d="M50 67l924 0"/>
<text stroke="none" fill="white" font-size="16" x="18" y="75">
4.0
</text>
<text stroke="none" fill="white" font-size="16" x="10" y="32">
     
</text>
<path stroke="red" d="M462 23l46 0"/>
<text stroke="none" fill="white" font-size="16" x="518" y="32">
x1.vsampled_p
</text>
<path stroke="red" d="M50 431l1 0 1 -7 0 -16 1 -14 0 -5 1 2M54 414l0 -38 1 -5 0 -13 1 -3 0 -3 1 -1 0 -1 2 0 1 -1 3 0 1 1 4 0 1 -1 48 0 0 -1 1 -12 0 -37 1 -6 0 -11 1 -4 0 -4 1 -1 1 0 0 -1 418 0M540 273l0 -1 27 0M567 274l0 -2 7 0M574 296l0 -24"/>
<path stroke="red" d="M574 296l1 7M575 312l0 -9M575 312l1 1 17 0M593 314l0 -1 7 0M600 325l0 -12M600 325l1 3M601 335l0 -7M601 335l1 -1 4 0 0 -1 13 0M619 334l0 -1M619 334l14 0 0 -1 1 0M634 334l0 -1 12 0M646 334l0 -1M646 334l7 0M653 341l0 -8M653 341l1 2"/>
<path stroke="red" d="M654 344l0 -1M654 344l25 0M679 348l0 -4M679 348l1 1M680 350l0 -1 132 0M812 350l0 -1M812 350l1 0 0 -1 105 0 0 -40 1 -3 0 -24 1 -2 0 -4 1 -1 0 -2 2 0 0 -1 13 0M936 274l0 -2 38 0"/>
<path stroke="blue" d="M50 23l46 0"/>
<text stroke="none" fill="white" font-size="16" x="106" y="32">
x1.vsampled_n
</text>
<path stroke="blue" d="M50 431l1 0 1 -7 0 -15 1 -14 0 -4 1 1M54 414l0 -39 1 -4 0 -13 1 -3 0 -3 1 -1 0 -1 2 0 1 -1 3 0 1 1 3 0 0 -1 50 0M117 373l0 -24M117 373l1 18M118 413l0 -22M118 413l1 3M119 421l0 -5M119 421l1 2M120 425l0 -2M120 425l1 1 419 0"/>
<path stroke="blue" d="M540 427l0 -1 6 0 0 -24 1 -3 0 -21 1 -7 0 -4 2 -2 75 0 0 -14 1 -2 0 -3 1 0M627 347l0 -1M627 347l19 0M646 348l0 -1 26 0M672 348l0 -1 27 0M699 348l0 -1 7 0M706 351l0 -4M706 351l1 1 0 -2 5 0 0 -1M712 350l20 0 0 -4M732 347l2 0"/>
<path stroke="blue" d="M734 347l1 1 3 0 0 -1 13 0M751 348l0 -1M751 348l1 0 0 -1M752 348l7 0M759 351l0 -4M759 349l6 0 0 -1M765 349l21 0M786 350l0 -1 18 0M804 350l0 -1 26 0 1 1 0 -1 26 0M857 350l0 -1 26 0M883 350l0 -1 27 0M910 350l0 -1 8 0M918 436l0 -87"/>
<path stroke="blue" d="M918 436l1 4M919 443l0 -9 1 -2 0 -3 1 -1 0 -1 2 0 0 -1 13 0M936 427l0 -1 38 0"/>
<path stroke="#FFA500" d="M462 39l46 0"/>
<text stroke="none" fill="white" font-size="16" x="518" y="48">
x1.vsampled_p-x1.vsampled_n
</text>
<path stroke="#FFA500" d="M50 431l2 0 0 -1 2 0M54 431l0 -1M54 431l63 0 0 -26 1 -29 0 -59 1 -9 0 -17 1 -4 0 -7 2 -2 0 -1 418 0M540 278l0 -1 6 0M546 301l0 -24M546 301l1 3M547 326l0 -22M547 326l1 7M548 336l0 -3M548 336l2 2 17 0M567 339l0 -1 7 0"/>
<path stroke="#FFA500" d="M574 362l0 -24M574 362l1 7M575 378l0 -9M575 378l1 1 17 0M593 380l0 -1 7 0M600 391l0 -12M600 391l1 3M601 401l0 -7M601 401l1 -1 4 0 0 -1 2 0M608 400l0 -1 5 0M613 400l0 -1M613 400l12 0M625 414l0 -14M625 414l1 1M626 419l0 -4"/>
<path stroke="#FFA500" d="M626 419l1 -1 1 0 1 -1 4 0M633 418l0 -1 13 0M646 418l0 -1 7 0M653 425l0 -8M653 425l1 2M654 428l0 -1M654 428l18 0 0 -1M672 428l7 0M679 432l0 -4M679 432l1 1M680 434l0 -1 19 0 0 -1M699 433l7 0 0 -4 1 -1M707 430l0 -2M707 430l25 0"/>
<path stroke="#FFA500" d="M732 434l0 -4M732 433l1 0 0 -1 5 0M738 433l0 -1M738 433l1 -1 20 0 0 -3M759 431l27 0 0 -1 5 0M791 431l0 -1M791 431l1 -1 12 0M804 431l0 -1M804 431l1 0 0 -1 7 0M812 431l0 -1M812 431l26 0M838 432l0 -1 80 0 0 -127 1 -7 0 -18"/>
<path stroke="#FFA500" d="M919 279l1 -1 0 -1 3 0 0 -1M923 277l13 0M936 278l0 -1 14 0 0 -1M950 277l24 0"/>
<path stroke="green" d="M50 39l46 0"/>
<text stroke="none" fill="white" font-size="16" x="106" y="48">
x1.sw_sample-2
</text>
<path stroke="green" d="M50 613l1 0 1 -9 0 -21 1 -21M53 579l0 -23M53 579l1 31M54 613l0 -3M54 613l63 0M117 620l0 -172M117 449l422 0M539 614l0 -171M539 613l422 0M961 618l0 -170 1 1 12 0"/>
<path stroke="#FFC0C5" d="M462 55l46 0"/>
<text stroke="none" fill="white" font-size="16" x="518" y="64">
x1.comp_out_p+2
</text>
<path stroke="#FFC0C5" d="M50 249l1 0 1 -9 0 -22 1 -18 0 -4M53 198l1 5M54 249l0 -46M54 249l488 0 0 -165M542 85l13 0M555 250l0 -168M555 249l13 0M568 250l0 -167M568 85l13 0 0 -2 1 41M582 250l0 -126M582 249l12 0M594 250l0 -166M594 85l14 0M608 250l0 -173"/>
<path stroke="#FFC0C5" d="M608 249l13 0 0 -165M621 85l13 0M634 249l0 -172M634 249l13 0M647 250l0 -166M647 85l14 0M661 249l0 -172M661 249l12 0M673 250l0 -1M673 250l1 -75 0 -91M674 85l13 0M687 249l0 -172M687 249l40 0 0 -150 1 -14 0 -1M728 85l12 0"/>
<path stroke="#FFC0C5" d="M740 249l0 -172M740 249l67 0 0 -165M807 85l12 0M819 249l0 -171M819 249l15 0 0 -165M834 85l11 0 0 -10 1 143M846 249l0 -31M846 249l91 0M937 250l0 -1M937 250l1 -65 0 -101M938 85l13 0M951 250l0 -172M951 249l23 0"/>
<path stroke="#A52A2A" d="M50 55l46 0"/>
<text stroke="none" fill="white" font-size="16" x="106" y="64">
x1.comp_out_n-2
</text>
<path stroke="#A52A2A" d="M50 613l1 0 1 -9 0 -22 1 -19M53 564l0 -3M53 564l1 6M54 614l0 -44M54 611l1 2 592 0M647 614l0 -1 53 0 0 -165M700 449l13 0 0 -3 1 14M714 613l0 -153M714 613l39 0 0 -165M753 449l13 0M766 613l0 -171M766 613l14 0 0 -157 1 -8"/>
<path stroke="#A52A2A" d="M781 449l0 -1M781 449l12 0M793 613l0 -174M793 613l67 0 0 -165 1 1 11 0M872 613l0 -174M872 613l14 0 1 -150 0 -15M887 449l11 0M898 613l0 -174M898 613l15 0 0 -165M913 449l12 0M925 614l0 -170M925 613l13 0M938 614l0 -1 36 0"/>
</svg>
