<?xml version="1.0" standalone="yes"?>
<!DOCTYPE svg PUBLIC "-//W3C//DTD SVG 1.1//EN"
 "http://www.w3.org/Graphics/SVG/1.1/DTD/svg11.dtd">
<svg xmlns="http://www.w3.org/2000/svg" version="1.1"
  width="100%" height="100%" viewBox="0 0 1024 768"
  style="fill: none; font-family: Helvetica;
 font: Helvetica;
">

<!-- Creator: NGspice -->

<rect x="0" y="0" width="1024" height="768" fill="black" stroke="none"/>
<text stroke="none" fill="white" font-size="16" x="358" y="752">
time
</text>
<text stroke="none" fill="white" font-size="16" x="10" y="16">
tran1: run1663_vin0.562058
</text>
<path stroke="white" d="M50 704l0 -637"/>
<text stroke="none" fill="white" font-size="16" x="35" y="728">
0.0
</text>
<path stroke="white" stroke-dasharray="1,2" d="M182 704l0 -637"/>
<text stroke="none" fill="white" font-size="16" x="157" y="728">
100.0
</text>
<path stroke="white" stroke-dasharray="1,2" d="M314 704l0 -637"/>
<text stroke="none" fill="white" font-size="16" x="289" y="728">
200.0
</text>
<path stroke="white" stroke-dasharray="1,2" d="M446 704l0 -637"/>
<text stroke="none" fill="white" font-size="16" x="421" y="728">
300.0
</text>
<path stroke="white" stroke-dasharray="1,2" d="M578 704l0 -637"/>
<text stroke="none" fill="white" font-size="16" x="553" y="728">
400.0
</text>
<path stroke="white" stroke-dasharray="1,2" d="M710 704l0 -637"/>
<text stroke="none" fill="white" font-size="16" x="685" y="728">
500.0
</text>
<path stroke="white" stroke-dasharray="1,2" d="M842 704l0 -637"/>
<text stroke="none" fill="white" font-size="16" x="817" y="728">
600.0
</text>
<path stroke="white" stroke-dasharray="1,2" d="M974 704l0 -637"/>
<text stroke="none" fill="white" font-size="16" x="949" y="728">
700.0
</text>
<text stroke="none" fill="white" font-size="16" x="614" y="752">
ns
</text>
<path stroke="white" stroke-dasharray="1,2" d="M50 704l924 0"/>
<text stroke="none" fill="white" font-size="16" x="8" y="712">
-3.0
</text>
<path stroke="white" stroke-dasharray="1,2" d="M50 613l924 0"/>
<text stroke="none" fill="white" font-size="16" x="8" y="621">
-2.0
</text>
<path stroke="white" stroke-dasharray="1,2" d="M50 522l924 0"/>
<text stroke="none" fill="white" font-size="16" x="8" y="530">
-1.0
</text>
<path stroke="white" d="M50 431l924 0"/>
<text stroke="none" fill="white" font-size="16" x="18" y="439">
0.0
</text>
<path stroke="white" stroke-dasharray="1,2" d="M50 340l924 0"/>
<text stroke="none" fill="white" font-size="16" x="18" y="348">
1.0
</text>
<path stroke="white" stroke-dasharray="1,2" d="M50 249l924 0"/>
<text stroke="none" fill="white" font-size="16" x="18" y="257">
2.0
</text>
<path stroke="white" stroke-dasharray="1,2" d="M50 158l924 0"/>
<text stroke="none" fill="white" font-size="16" x="18" y="166">
3.0
</text>
<path stroke="white" stroke-dasharray="1,2" d="M50 67l924 0"/>
<text stroke="none" fill="white" font-size="16" x="18" y="75">
4.0
</text>
<text stroke="none" fill="white" font-size="16" x="10" y="32">
     
</text>
<path stroke="red" d="M462 23l46 0"/>
<text stroke="none" fill="white" font-size="16" x="518" y="32">
x1.vsampled_p
</text>
<path stroke="red" d="M50 431l1 0 1 -7 0 -15 1 -15 0 -4 1 1M54 414l0 -37 1 -3 0 -18 1 -2 0 -2 1 -2 2 0 1 -1 4 0M64 350l0 -1M64 350l4 0 1 -1 48 0 0 -1 1 -10 0 -22 1 -5 0 -7 1 -2 0 -2 2 -2 418 0M540 299l0 -1 26 0 1 1 0 -1 7 0M574 324l0 -26M574 324l1 9"/>
<path stroke="red" d="M575 338l0 -5M575 338l1 1 17 0M593 340l0 -1 7 0M600 352l0 -13M600 352l1 2M601 361l0 -7M601 360l1 0 0 -1 1 0 1 1 2 0 0 -1 13 0M619 360l0 -1M619 360l1 0 0 -1M620 360l5 0 0 -9 1 -1 0 -7 1 0 0 -1 6 0 0 -1M633 342l26 0 0 -1M659 342l20 0"/>
<path stroke="red" d="M679 347l0 -5M679 347l1 1 0 -1 26 0M706 350l0 -3M706 350l1 0 0 -1 18 0M725 350l0 -1 9 0 0 -2 25 0M759 349l0 -2M759 348l19 0M778 349l0 -1 7 0 1 1 26 0 1 1 0 -1 18 0M831 350l0 -1 87 0M918 350l0 -25 1 -4 0 -13 1 -3 0 -3 1 -1"/>
<path stroke="red" d="M921 301l0 -2 2 0 0 -1 13 0M936 300l0 -2 38 0"/>
<path stroke="blue" d="M50 23l46 0"/>
<text stroke="none" fill="white" font-size="16" x="106" y="32">
x1.vsampled_n
</text>
<path stroke="blue" d="M50 431l1 0 1 -7 0 -15 1 -14 0 -5 1 2M54 415l0 -38 1 -3 0 -18 1 -2 0 -2 1 -2 2 0 1 -1 4 0M64 350l0 -1M64 350l4 0 1 -1 48 0M117 361l0 -12M117 361l1 13M118 389l0 -15M118 389l1 3M119 396l0 -4M119 396l1 2M120 399l0 -1M120 399l1 1"/>
<path stroke="blue" d="M121 400l419 0M540 401l0 -1 6 0 0 -24 1 -3 0 -25 1 -3 0 -3 1 -1 0 -1 1 -1 4 0 0 -1M554 339l13 0M567 340l0 -1 26 0M593 340l0 -1 26 0M619 340l0 -1 27 0M646 340l0 -1 7 0M653 351l0 -12M653 351l1 1 0 -1 1 -1 0 -1 17 0M672 350l0 -1"/>
<path stroke="blue" d="M672 349l27 0M699 350l0 -1 26 0M725 350l0 -1 26 0M751 350l0 -1M751 350l1 -1 26 0M778 350l0 -1 26 0M804 350l0 -1 27 0M831 350l0 -1 26 0M857 350l0 -1 26 0M883 350l0 -1M883 350l1 -1 26 0M910 350l0 -1 8 0M918 399l0 -53M918 399l1 5"/>
<path stroke="blue" d="M919 406l0 -2 1 -1 0 -1 1 -1 1 0 0 -1 14 0M936 401l0 -1 38 0"/>
<path stroke="#FFA500" d="M462 39l46 0"/>
<text stroke="none" fill="white" font-size="16" x="518" y="48">
x1.vsampled_p-x1.vsampled_n
</text>
<path stroke="#FFA500" d="M50 431l2 0 1 -1 1 0M54 431l0 -1M54 431l63 0 0 -13 1 -24 0 -36 1 -8 0 -11 1 -4 0 -4 2 -2 418 0M540 330l0 -1 6 0M546 353l0 -24M546 353l1 3M547 381l0 -25M547 381l1 4M548 387l0 -2M548 387l1 1M549 389l0 -1M549 389l1 1 17 0"/>
<path stroke="#FFA500" d="M567 391l0 -1 7 0M574 416l0 -26M574 416l1 9M575 430l0 -5M575 430l1 1 24 0M600 444l0 -13M600 444l1 2M601 452l0 -6M601 452l1 -1 4 0M606 452l0 -1M606 452l1 0 0 -1 18 0 0 -8 1 -1 0 -7 1 0 0 -1 19 0 0 -1M646 434l7 0 0 -12"/>
<path stroke="#FFA500" d="M653 422l1 -1M654 422l0 -1M654 422l1 1 24 0M679 428l0 -5M679 428l1 1M680 430l0 -2 19 0M699 429l0 -1 7 0M706 432l0 -4M706 432l1 -1 27 0 0 -2 1 -1M735 429l0 -1M735 429l24 0M759 431l0 -2M759 430l27 0M786 431l0 -1M786 431l53 0"/>
<path stroke="#FFA500" d="M839 431l1 -1M840 431l0 -1M840 431l78 0M918 432l0 -75 1 -10 0 -12 1 -2 0 -1 1 -2 1 0 0 -1 1 0 0 -1M923 329l13 0M936 330l0 -1 14 0 0 -1M950 329l24 0"/>
<path stroke="green" d="M50 39l46 0"/>
<text stroke="none" fill="white" font-size="16" x="106" y="48">
x1.sw_sample-2
</text>
<path stroke="green" d="M50 613l1 0 1 -9 0 -21 1 -21M53 580l0 -24M53 580l1 30M54 613l0 -3M54 613l63 0M117 620l0 -172M117 449l422 0M539 614l0 -171M539 613l422 0M961 618l0 -170 1 1 12 0"/>
<path stroke="#FFC0C5" d="M462 55l46 0"/>
<text stroke="none" fill="white" font-size="16" x="518" y="64">
x1.comp_out_p+2
</text>
<path stroke="#FFC0C5" d="M50 249l1 0 1 -9 0 -22 1 -18 0 -4M53 198l1 5M54 251l0 -48M54 248l1 1 487 0 0 -165M542 85l13 0M555 249l0 -172M555 249l13 0 0 -165M568 85l13 0 0 -8 1 156M582 249l0 -16M582 249l12 0 0 -152 1 -13M595 85l0 -1M595 85l13 0"/>
<path stroke="#FFC0C5" d="M608 249l0 -173M608 249l65 0 0 -32 1 -112 0 -21M674 85l13 0M687 249l0 -171M687 249l13 0M700 250l0 -167M700 85l13 0 0 -6 1 92M714 250l0 -79M714 249l39 0 0 -165M753 85l13 0M766 249l0 -171M766 249l14 0M780 250l0 -166M780 85l13 0"/>
<path stroke="#FFC0C5" d="M793 249l0 -174M793 249l14 0 0 -165M807 85l12 0M819 250l0 -171M819 249l41 0 0 -165M860 85l12 0M872 249l0 -174M872 249l14 0 0 -164 1 -1M887 85l0 -1M887 85l11 0M898 249l0 -174M898 249l15 0 0 -165M913 85l12 0M925 249l0 -172"/>
<path stroke="#FFC0C5" d="M925 249l12 0M937 250l0 -1M937 250l1 -83 0 -84M938 85l13 0M951 250l0 -167M951 249l23 0"/>
<path stroke="#A52A2A" d="M50 55l46 0"/>
<text stroke="none" fill="white" font-size="16" x="106" y="64">
x1.comp_out_n-2
</text>
<path stroke="#A52A2A" d="M50 613l1 0 1 -9 0 -22 1 -19M53 564l0 -3M53 564l1 6M54 614l0 -93 1 87M55 613l0 -5M55 613l566 0 0 -166M621 449l13 0M634 613l0 -173M634 613l13 0M647 615l0 -168M647 449l14 0M661 613l0 -174M661 613l69 0 0 -165M730 449l10 0"/>
<path stroke="#A52A2A" d="M740 613l0 -173M740 613l95 0 0 -158 1 -7M836 449l0 -1M836 449l9 0M845 478l0 -33M845 478l1 128M846 613l0 -7M846 613l128 0"/>
</svg>
