<?xml version="1.0" standalone="yes"?>
<!DOCTYPE svg PUBLIC "-//W3C//DTD SVG 1.1//EN"
 "http://www.w3.org/Graphics/SVG/1.1/DTD/svg11.dtd">
<svg xmlns="http://www.w3.org/2000/svg" version="1.1"
  width="100%" height="100%" viewBox="0 0 1024 768"
  style="fill: none; font-family: Helvetica;
 font: Helvetica;
">

<!-- Creator: NGspice -->

<rect x="0" y="0" width="1024" height="768" fill="black" stroke="none"/>
<text stroke="none" fill="white" font-size="16" x="358" y="752">
time
</text>
<text stroke="none" fill="white" font-size="16" x="10" y="16">
tran1: run1_vin0.759489
</text>
<path stroke="white" d="M50 704l0 -637"/>
<text stroke="none" fill="white" font-size="16" x="35" y="728">
0.0
</text>
<path stroke="white" stroke-dasharray="1,2" d="M182 704l0 -637"/>
<text stroke="none" fill="white" font-size="16" x="157" y="728">
100.0
</text>
<path stroke="white" stroke-dasharray="1,2" d="M314 704l0 -637"/>
<text stroke="none" fill="white" font-size="16" x="289" y="728">
200.0
</text>
<path stroke="white" stroke-dasharray="1,2" d="M446 704l0 -637"/>
<text stroke="none" fill="white" font-size="16" x="421" y="728">
300.0
</text>
<path stroke="white" stroke-dasharray="1,2" d="M578 704l0 -637"/>
<text stroke="none" fill="white" font-size="16" x="553" y="728">
400.0
</text>
<path stroke="white" stroke-dasharray="1,2" d="M710 704l0 -637"/>
<text stroke="none" fill="white" font-size="16" x="685" y="728">
500.0
</text>
<path stroke="white" stroke-dasharray="1,2" d="M842 704l0 -637"/>
<text stroke="none" fill="white" font-size="16" x="817" y="728">
600.0
</text>
<path stroke="white" stroke-dasharray="1,2" d="M974 704l0 -637"/>
<text stroke="none" fill="white" font-size="16" x="949" y="728">
700.0
</text>
<text stroke="none" fill="white" font-size="16" x="614" y="752">
ns
</text>
<path stroke="white" stroke-dasharray="1,2" d="M50 704l924 0"/>
<text stroke="none" fill="white" font-size="16" x="8" y="712">
-3.0
</text>
<path stroke="white" stroke-dasharray="1,2" d="M50 613l924 0"/>
<text stroke="none" fill="white" font-size="16" x="8" y="621">
-2.0
</text>
<path stroke="white" stroke-dasharray="1,2" d="M50 522l924 0"/>
<text stroke="none" fill="white" font-size="16" x="8" y="530">
-1.0
</text>
<path stroke="white" d="M50 431l924 0"/>
<text stroke="none" fill="white" font-size="16" x="18" y="439">
0.0
</text>
<path stroke="white" stroke-dasharray="1,2" d="M50 340l924 0"/>
<text stroke="none" fill="white" font-size="16" x="18" y="348">
1.0
</text>
<path stroke="white" stroke-dasharray="1,2" d="M50 249l924 0"/>
<text stroke="none" fill="white" font-size="16" x="18" y="257">
2.0
</text>
<path stroke="white" stroke-dasharray="1,2" d="M50 158l924 0"/>
<text stroke="none" fill="white" font-size="16" x="18" y="166">
3.0
</text>
<path stroke="white" stroke-dasharray="1,2" d="M50 67l924 0"/>
<text stroke="none" fill="white" font-size="16" x="18" y="75">
4.0
</text>
<text stroke="none" fill="white" font-size="16" x="10" y="32">
     
</text>
<path stroke="red" d="M462 23l46 0"/>
<text stroke="none" fill="white" font-size="16" x="518" y="32">
x1.vsampled_p
</text>
<path stroke="red" d="M50 431l1 0 1 -7 0 -16 1 -14 0 -5 1 2M54 414l0 -38 1 -5 0 -13 1 -3 0 -2 1 -2 0 -1 2 0 1 -1 3 0 1 1 5 0 0 -1 48 0 0 -1 1 -12 0 -34 1 -6 0 -9 1 -3 0 -2 1 -1 1 0 0 -1 418 0M540 281l0 -1 27 0M567 282l0 -2 7 0M574 303l0 -23M574 303l1 7"/>
<path stroke="red" d="M575 319l0 -9M575 319l1 2 17 0M593 322l0 -1 7 0M600 335l0 -14M600 335l1 3M601 343l0 -5M601 342l5 0 0 -1 1 0M607 342l0 -1M607 342l12 0 0 -1M619 342l14 0 0 -1M633 342l13 0 0 -1M646 342l13 0 0 -1M659 342l13 0 0 -1M672 342l7 0"/>
<path stroke="red" d="M679 347l0 -5M679 347l1 1 0 -1 6 0 0 -1M686 347l20 0M706 350l0 -3M706 350l1 0 0 -1 18 0M725 350l0 -1 26 0M751 350l0 -1 27 0M778 350l0 -1 26 0M804 350l0 -1 27 0M831 350l0 -1 26 0M857 350l0 -1 26 0M883 350l0 -1 27 0M910 350l0 -1"/>
<path stroke="red" d="M910 349l8 0 0 -47 1 -2 0 -13 1 -2 0 -2 1 -1 0 -1 2 0 0 -1 13 0M936 282l0 -2 38 0"/>
<path stroke="blue" d="M50 23l46 0"/>
<text stroke="none" fill="white" font-size="16" x="106" y="32">
x1.vsampled_n
</text>
<path stroke="blue" d="M50 431l1 0 1 -7 0 -15 1 -14 0 -5 1 2M54 414l0 -38 1 -5 0 -13 1 -3 0 -2 1 -2 0 -1 2 0 1 -1 3 0 1 1 3 0 1 -1 49 0M117 369l0 -20M117 369l1 16M118 406l0 -21M118 406l1 3M119 414l0 -5M119 414l1 2M120 417l0 -1M120 417l1 0 1 1"/>
<path stroke="blue" d="M122 418l418 0M540 419l0 -1 6 0M546 419l0 -28 1 -3 0 -19 1 -6 0 -4 2 -2 75 0 0 -9 1 -4 0 -6 1 0M627 339l0 -1M627 339l19 0M646 340l0 -1 7 0M653 351l0 -12M653 351l1 1 0 -1 1 -1 0 -1 17 0M672 350l0 -1 26 0 1 1 0 -1 26 0M725 350l0 -1"/>
<path stroke="blue" d="M725 349l8 0 0 -4M733 347l18 0M751 348l0 -1 8 0M759 350l0 -3M759 349l1 0 0 -1 18 0M778 349l0 -1 7 0M785 350l0 -2M785 350l1 0 0 -1 18 0M804 350l0 -1 9 0M813 350l0 -1 17 0 1 1 0 -1 8 0 0 -1M839 349l18 0M857 350l0 -1 26 0"/>
<path stroke="blue" d="M883 350l0 -1 27 0M910 350l0 -1 8 0M918 424l0 -75M918 424l1 0M919 425l0 -2 1 -1 0 -2 1 0 0 -1 1 0 0 -1 14 0M936 419l0 -1 38 0"/>
<path stroke="#FFA500" d="M462 39l46 0"/>
<text stroke="none" fill="white" font-size="16" x="518" y="48">
x1.vsampled_p-x1.vsampled_n
</text>
<path stroke="#FFA500" d="M50 431l2 0 0 -1 2 0M54 431l0 -1M54 431l63 0 0 -21 1 -28 0 -56 1 -8 0 -14 1 -4 0 -3 1 -2 1 -1 0 -1 418 0M540 294l0 -1 6 0M546 320l0 -27M546 320l1 3M547 342l0 -19M547 342l1 6M548 352l0 -4M548 352l2 2 17 0M567 355l0 -1"/>
<path stroke="#FFA500" d="M567 354l7 0M574 377l0 -23M574 377l1 7M575 393l0 -9M575 393l1 2 17 0M593 396l0 -1 7 0M600 409l0 -14M600 409l1 3M601 417l0 -5M601 416l5 0 0 -1 1 0M607 416l0 -1M607 416l12 0 0 -1 1 0M620 416l0 -1M620 416l5 0M625 425l0 -9"/>
<path stroke="#FFA500" d="M625 425l1 3M626 435l0 -7M626 435l1 0 0 -1 1 0 1 -1 4 0M633 434l0 -1 20 0M653 434l0 -12 1 -1M654 422l0 -1M654 422l1 1 24 0M679 429l0 -6M679 429l1 0 0 -1 26 0M706 431l0 -3M706 431l27 0M733 435l0 -4M733 433l26 0 0 -3M759 432l26 0"/>
<path stroke="#FFA500" d="M785 432l0 -2 1 0M786 431l0 -1M786 431l27 0 0 -1M813 431l26 0M839 432l0 -1 79 0 0 -122 1 -3 0 -10 1 -1 0 -1 1 0 0 -1 2 0 0 -1M923 293l13 0M936 294l0 -1 14 0 0 -1M950 293l24 0"/>
<path stroke="green" d="M50 39l46 0"/>
<text stroke="none" fill="white" font-size="16" x="106" y="48">
x1.sw_sample-2
</text>
<path stroke="green" d="M50 613l1 0 1 -9 0 -21 1 -21M53 579l0 -23M53 579l1 31M54 613l0 -3M54 613l63 0M117 620l0 -172M117 449l422 0M539 614l0 -171M539 613l422 0M961 618l0 -170 1 1 12 0"/>
<path stroke="#FFC0C5" d="M462 55l46 0"/>
<text stroke="none" fill="white" font-size="16" x="518" y="64">
x1.comp_out_p+2
</text>
<path stroke="#FFC0C5" d="M50 249l1 0 1 -9 0 -22 1 -18 0 -4M53 198l1 5M54 249l0 -46M54 249l487 0 1 1 0 -167M542 85l13 0M555 249l0 -173M555 249l13 0 0 -165M568 85l13 0 0 -8 1 161M582 250l0 -12M582 249l12 0 0 -165M594 85l14 0M608 250l0 -173M608 249l13 0"/>
<path stroke="#FFC0C5" d="M621 251l0 -167M621 85l13 0M634 249l0 -172M634 249l39 0M673 250l0 -63 1 -89 0 -14M674 85l13 0M687 250l0 -172M687 249l13 0M700 250l0 -167M700 85l13 0 0 -7 1 140M714 249l0 -31M714 249l14 0 0 -164 12 0M740 249l0 -173M740 249l94 0"/>
<path stroke="#FFC0C5" d="M834 249l0 -165M834 85l11 0 0 -9 1 137M846 250l0 -37M846 249l91 0 1 -40 0 -125M938 85l13 0M951 250l0 -171M951 249l23 0"/>
<path stroke="#A52A2A" d="M50 55l46 0"/>
<text stroke="none" fill="white" font-size="16" x="106" y="64">
x1.comp_out_n-2
</text>
<path stroke="#A52A2A" d="M50 613l1 0 1 -9 0 -22 1 -19M53 564l0 -3M53 564l1 6M54 613l0 -43M54 611l1 2 566 0M621 614l0 -1 26 0M647 618l0 -171M647 449l14 0M661 613l0 -174M661 613l12 0 1 1 0 -1 79 0 0 -165M753 449l13 0M766 614l0 -174M766 614l1 -1"/>
<path stroke="#A52A2A" d="M767 613l13 0 0 -165M780 449l13 0M793 613l0 -174M793 613l14 0 0 -165M807 449l12 0M819 613l0 -172M819 613l41 0 0 -165M860 449l12 0M872 613l0 -174M872 613l14 0 0 -151 1 -13 0 -1M887 449l11 0M898 613l0 -174M898 613l15 0"/>
<path stroke="#A52A2A" d="M913 613l0 -165M913 449l12 0M925 613l0 -167M925 613l49 0"/>
</svg>
