<?xml version="1.0" standalone="yes"?>
<!DOCTYPE svg PUBLIC "-//W3C//DTD SVG 1.1//EN"
 "http://www.w3.org/Graphics/SVG/1.1/DTD/svg11.dtd">
<svg xmlns="http://www.w3.org/2000/svg" version="1.1"
  width="100%" height="100%" viewBox="0 0 1024 768"
  style="fill: none; font-family: Helvetica;
 font: Helvetica;
">

<!-- Creator: NGspice -->

<rect x="0" y="0" width="1024" height="768" fill="black" stroke="none"/>
<text stroke="none" fill="white" font-size="16" x="358" y="752">
time
</text>
<text stroke="none" fill="white" font-size="16" x="10" y="16">
tran1: run299_vin-0.636768
</text>
<path stroke="white" d="M50 704l0 -637"/>
<text stroke="none" fill="white" font-size="16" x="35" y="728">
0.0
</text>
<path stroke="white" stroke-dasharray="1,2" d="M182 704l0 -637"/>
<text stroke="none" fill="white" font-size="16" x="157" y="728">
100.0
</text>
<path stroke="white" stroke-dasharray="1,2" d="M314 704l0 -637"/>
<text stroke="none" fill="white" font-size="16" x="289" y="728">
200.0
</text>
<path stroke="white" stroke-dasharray="1,2" d="M446 704l0 -637"/>
<text stroke="none" fill="white" font-size="16" x="421" y="728">
300.0
</text>
<path stroke="white" stroke-dasharray="1,2" d="M578 704l0 -637"/>
<text stroke="none" fill="white" font-size="16" x="553" y="728">
400.0
</text>
<path stroke="white" stroke-dasharray="1,2" d="M710 704l0 -637"/>
<text stroke="none" fill="white" font-size="16" x="685" y="728">
500.0
</text>
<path stroke="white" stroke-dasharray="1,2" d="M842 704l0 -637"/>
<text stroke="none" fill="white" font-size="16" x="817" y="728">
600.0
</text>
<path stroke="white" stroke-dasharray="1,2" d="M974 704l0 -637"/>
<text stroke="none" fill="white" font-size="16" x="949" y="728">
700.0
</text>
<text stroke="none" fill="white" font-size="16" x="614" y="752">
ns
</text>
<path stroke="white" stroke-dasharray="1,2" d="M50 704l924 0"/>
<text stroke="none" fill="white" font-size="16" x="8" y="712">
-3.0
</text>
<path stroke="white" stroke-dasharray="1,2" d="M50 613l924 0"/>
<text stroke="none" fill="white" font-size="16" x="8" y="621">
-2.0
</text>
<path stroke="white" stroke-dasharray="1,2" d="M50 522l924 0"/>
<text stroke="none" fill="white" font-size="16" x="8" y="530">
-1.0
</text>
<path stroke="white" d="M50 431l924 0"/>
<text stroke="none" fill="white" font-size="16" x="18" y="439">
0.0
</text>
<path stroke="white" stroke-dasharray="1,2" d="M50 340l924 0"/>
<text stroke="none" fill="white" font-size="16" x="18" y="348">
1.0
</text>
<path stroke="white" stroke-dasharray="1,2" d="M50 249l924 0"/>
<text stroke="none" fill="white" font-size="16" x="18" y="257">
2.0
</text>
<path stroke="white" stroke-dasharray="1,2" d="M50 158l924 0"/>
<text stroke="none" fill="white" font-size="16" x="18" y="166">
3.0
</text>
<path stroke="white" stroke-dasharray="1,2" d="M50 67l924 0"/>
<text stroke="none" fill="white" font-size="16" x="18" y="75">
4.0
</text>
<text stroke="none" fill="white" font-size="16" x="10" y="32">
     
</text>
<path stroke="red" d="M462 23l46 0"/>
<text stroke="none" fill="white" font-size="16" x="518" y="32">
x1.vsampled_p
</text>
<path stroke="red" d="M50 431l1 0 1 -7 0 -15 1 -14 0 -5 1 2M54 414l0 -37 1 -4 0 -16 1 -3 0 -2 2 -2 1 0 1 -1 4 0M64 350l0 -1M64 350l4 0 1 -1 48 0M117 364l0 -15M117 364l1 14M118 397l0 -19M118 397l1 3M119 404l0 -4M119 404l2 2M121 407l0 -1M121 407l425 0"/>
<path stroke="red" d="M546 407l0 -23 1 -3 0 -24 1 -5 0 -3 1 -1 0 -1 1 -1 4 0 0 -1M554 346l13 0M567 347l0 -1 13 0 0 -1M580 346l53 0 0 -1M633 346l73 0M706 350l0 -4M706 349l1 0 0 -1 18 0M725 349l0 -1 26 0M751 349l0 -1M751 349l1 0 0 -1 26 0M778 349l0 -1"/>
<path stroke="red" d="M778 348l7 0 1 1M786 350l0 -1 27 0M813 350l0 -1 17 0 1 1 0 -1 87 0M918 386l0 -41M918 386l1 5M919 411l0 -20M919 411l1 0 0 -2 1 -1 1 0 0 -1 52 0"/>
<path stroke="blue" d="M50 23l46 0"/>
<text stroke="none" fill="white" font-size="16" x="106" y="32">
x1.vsampled_n
</text>
<path stroke="blue" d="M50 431l1 0 1 -7 0 -15 1 -15 0 -4 1 1M54 414l0 -37 1 -4 0 -16 1 -3 0 -2 2 -2 1 0 1 -1 4 0M64 350l0 -1M64 350l4 0 1 -1 48 0 0 -1 1 -11 0 -29 1 -5 0 -7 2 -4 1 -1 418 0M540 292l0 -1M540 292l14 0 0 -1 12 0 1 1M567 293l0 -2"/>
<path stroke="blue" d="M567 292l7 0M574 315l0 -24M574 315l1 7M575 331l0 -9M575 331l1 1 17 0M593 333l0 -1 7 0M600 348l0 -16M600 348l1 2M601 354l0 -4M601 353l24 0 0 -1 1 -3 0 -12 1 0 0 -2 26 0M653 343l0 -8M653 343l1 2M654 346l0 -1 25 0M679 350l0 -5"/>
<path stroke="blue" d="M679 350l1 1 0 -1 51 0 0 -2 1 0 0 -1M732 348l27 0M759 350l0 -2M759 349l19 0M778 350l0 -1 26 0M804 350l0 -1 27 0M831 350l0 -1 26 0M857 350l0 -1 26 0M883 350l0 -1 27 0M910 350l0 -1 8 0M918 352l0 -23 1 -2 0 -22 1 -3 0 -7 1 -1"/>
<path stroke="blue" d="M921 294l0 -1 1 0 0 -1 1 0 0 -1 13 0M936 293l0 -2M936 292l14 0 0 -1 24 0"/>
<path stroke="#FFA500" d="M462 39l46 0"/>
<text stroke="none" fill="white" font-size="16" x="518" y="48">
x1.vsampled_p-x1.vsampled_n
</text>
<path stroke="#FFA500" d="M50 431l2 0M52 432l0 -1M52 432l2 0 0 -1 63 0M117 447l0 -16M117 447l1 25M118 520l0 -48M118 520l1 7M119 539l0 -12M119 539l1 4 1 2M121 546l0 -1M121 546l1 0 1 1 417 0 0 -1M540 547l1 -1M541 547l0 -1M541 547l5 0 0 -24 1 -2"/>
<path stroke="#FFA500" d="M547 521l0 -25 1 -4 0 -3 1 -2 0 -1 1 0 1 -1 3 0M554 486l0 -1 13 0M567 486l0 -2M567 485l7 0M574 486l0 -24 1 -7 0 -9 2 -2 1 1 2 0 0 -1M580 445l13 0 0 -1M593 445l7 0 0 -16 1 -2 0 -4 1 1 23 0M625 425l0 -1M625 425l1 3M626 440l0 -12"/>
<path stroke="#FFA500" d="M626 440l1 0M627 442l0 -2M627 442l26 0 0 -8 1 -2 0 -1M654 432l25 0 0 -6 1 0M680 427l0 -1M680 427l26 0M706 431l0 -4M706 430l1 0 0 -1 24 0M731 431l0 -2M731 431l1 1 1 -1 18 0M751 432l0 -1M751 432l1 0 0 -1 7 0M759 432l0 -3"/>
<path stroke="#FFA500" d="M759 430l26 0 1 1M786 432l0 -1 27 0M813 432l0 -1 25 0 0 -1M838 431l80 0M918 488l0 -63M918 488l1 8M919 536l0 -40M919 536l1 4M920 545l0 -5M920 545l1 1 2 0M923 547l0 -1M923 547l13 0 0 -2M936 547l38 0"/>
<path stroke="green" d="M50 39l46 0"/>
<text stroke="none" fill="white" font-size="16" x="106" y="48">
x1.sw_sample-2
</text>
<path stroke="green" d="M50 613l1 0 1 -9 0 -21 1 -21M53 579l0 -23M53 579l1 31M54 613l0 -3M54 613l63 0M117 620l0 -172M117 449l422 0M539 614l0 -171M539 613l422 0M961 618l0 -170 1 1 12 0"/>
<path stroke="#FFC0C5" d="M462 55l46 0"/>
<text stroke="none" fill="white" font-size="16" x="518" y="64">
x1.comp_out_p+2
</text>
<path stroke="#FFC0C5" d="M50 249l1 0 1 -9 0 -22 1 -18 0 -4M53 198l1 5M54 250l0 -52M54 210l1 37M55 249l0 -2M55 249l566 0M621 254l0 -171M621 85l13 0M634 249l0 -172M634 249l66 0M700 254l0 -171M700 85l13 0 0 -8 1 161M714 250l0 -12M714 249l13 0 0 -165"/>
<path stroke="#FFC0C5" d="M727 85l13 0M740 250l0 -173M740 249l40 0 0 -165M780 85l13 0M793 249l0 -173M793 249l14 0M807 250l0 -152 1 -14M808 85l0 -1M808 85l11 0M819 250l0 -172M819 249l41 0 0 -165 1 1 11 0M872 250l0 -174M872 249l14 0 0 -144 1 -19"/>
<path stroke="#FFC0C5" d="M887 86l0 -2M887 85l11 0M898 250l0 -174M898 249l15 0 0 -164 12 0M925 250l0 -172M925 249l49 0"/>
<path stroke="#A52A2A" d="M50 55l46 0"/>
<text stroke="none" fill="white" font-size="16" x="106" y="64">
x1.comp_out_n-2
</text>
<path stroke="#A52A2A" d="M50 613l1 0 1 -9 0 -22 1 -19M53 564l0 -3M53 564l1 6M54 614l0 -44M54 612l1 1 486 0 1 1 0 -167M542 449l13 0M555 614l0 -173M555 613l13 0M568 614l0 -167M568 449l13 0 0 -8 1 158M582 613l0 -14M582 613l12 0 0 -165M594 449l14 0"/>
<path stroke="#A52A2A" d="M608 613l0 -172M608 613l39 0 0 -166M647 449l14 0M661 613l0 -173M661 613l13 0 0 -166M674 449l13 0M687 613l0 -173M687 613l66 0 0 -165 1 0M754 449l0 -1M754 449l12 0M766 613l0 -173M766 613l68 0 0 -164 11 0 0 -10 1 153M846 613l0 -21"/>
<path stroke="#A52A2A" d="M846 613l91 0M937 614l0 -1M937 614l1 -57 0 -110M938 449l13 0M951 613l0 -172M951 613l23 0"/>
</svg>
