<?xml version="1.0" standalone="yes"?>
<!DOCTYPE svg PUBLIC "-//W3C//DTD SVG 1.1//EN"
 "http://www.w3.org/Graphics/SVG/1.1/DTD/svg11.dtd">
<svg xmlns="http://www.w3.org/2000/svg" version="1.1"
  width="100%" height="100%" viewBox="0 0 1024 768"
  style="fill: none; font-family: Helvetica;
 font: Helvetica;
">

<!-- Creator: NGspice -->

<rect x="0" y="0" width="1024" height="768" fill="black" stroke="none"/>
<text stroke="none" fill="white" font-size="16" x="358" y="752">
time
</text>
<text stroke="none" fill="white" font-size="16" x="10" y="16">
tran1: run2011_vin0.867917
</text>
<path stroke="white" d="M50 704l0 -637"/>
<text stroke="none" fill="white" font-size="16" x="35" y="728">
0.0
</text>
<path stroke="white" stroke-dasharray="1,2" d="M182 704l0 -637"/>
<text stroke="none" fill="white" font-size="16" x="157" y="728">
100.0
</text>
<path stroke="white" stroke-dasharray="1,2" d="M314 704l0 -637"/>
<text stroke="none" fill="white" font-size="16" x="289" y="728">
200.0
</text>
<path stroke="white" stroke-dasharray="1,2" d="M446 704l0 -637"/>
<text stroke="none" fill="white" font-size="16" x="421" y="728">
300.0
</text>
<path stroke="white" stroke-dasharray="1,2" d="M578 704l0 -637"/>
<text stroke="none" fill="white" font-size="16" x="553" y="728">
400.0
</text>
<path stroke="white" stroke-dasharray="1,2" d="M710 704l0 -637"/>
<text stroke="none" fill="white" font-size="16" x="685" y="728">
500.0
</text>
<path stroke="white" stroke-dasharray="1,2" d="M842 704l0 -637"/>
<text stroke="none" fill="white" font-size="16" x="817" y="728">
600.0
</text>
<path stroke="white" stroke-dasharray="1,2" d="M974 704l0 -637"/>
<text stroke="none" fill="white" font-size="16" x="949" y="728">
700.0
</text>
<text stroke="none" fill="white" font-size="16" x="614" y="752">
ns
</text>
<path stroke="white" stroke-dasharray="1,2" d="M50 704l924 0"/>
<text stroke="none" fill="white" font-size="16" x="8" y="712">
-3.0
</text>
<path stroke="white" stroke-dasharray="1,2" d="M50 613l924 0"/>
<text stroke="none" fill="white" font-size="16" x="8" y="621">
-2.0
</text>
<path stroke="white" stroke-dasharray="1,2" d="M50 522l924 0"/>
<text stroke="none" fill="white" font-size="16" x="8" y="530">
-1.0
</text>
<path stroke="white" d="M50 431l924 0"/>
<text stroke="none" fill="white" font-size="16" x="18" y="439">
0.0
</text>
<path stroke="white" stroke-dasharray="1,2" d="M50 340l924 0"/>
<text stroke="none" fill="white" font-size="16" x="18" y="348">
1.0
</text>
<path stroke="white" stroke-dasharray="1,2" d="M50 249l924 0"/>
<text stroke="none" fill="white" font-size="16" x="18" y="257">
2.0
</text>
<path stroke="white" stroke-dasharray="1,2" d="M50 158l924 0"/>
<text stroke="none" fill="white" font-size="16" x="18" y="166">
3.0
</text>
<path stroke="white" stroke-dasharray="1,2" d="M50 67l924 0"/>
<text stroke="none" fill="white" font-size="16" x="18" y="75">
4.0
</text>
<text stroke="none" fill="white" font-size="16" x="10" y="32">
     
</text>
<path stroke="red" d="M462 23l46 0"/>
<text stroke="none" fill="white" font-size="16" x="518" y="32">
x1.vsampled_p
</text>
<path stroke="red" d="M50 431l1 0 1 -7 0 -16 1 -14 0 -5 1 2M54 414l0 -38 1 -5 0 -13 1 -3 0 -3 1 -1 0 -1 2 0 1 -1 3 0 1 1 4 0 1 -1 48 0 0 -1 1 -12 0 -37 1 -7 0 -15 1 -2 0 -2 1 -2 1 0 0 -1 417 0M539 271l0 -1 1 0M540 272l0 -2M540 271l14 0 0 -1 13 0"/>
<path stroke="red" d="M567 272l0 -2M567 271l7 0M574 292l0 -22M574 292l1 5M575 307l0 -10M575 307l1 4M576 312l0 -1M576 312l1 -1 16 0M593 312l0 -1 7 0M600 326l0 -15M600 326l1 4M601 333l0 -3M601 332l5 0 0 -1 1 0M607 332l0 -1M607 332l26 0 0 -1M633 332l20 0"/>
<path stroke="red" d="M653 340l0 -8M653 340l1 2 25 0M679 346l0 -4M679 346l1 1M680 348l0 -1 26 0M706 350l0 -3M706 350l6 0 0 -1M712 350l20 0 0 -3 19 0M751 348l0 -1 8 0M759 349l0 -2M759 349l6 0 0 -1M765 349l21 0M786 350l0 -1 18 0M804 350l0 -1 27 0"/>
<path stroke="red" d="M831 350l0 -1 26 0M857 350l0 -1 26 0M883 350l0 -1 27 0M910 350l0 -1 8 0 0 -57 1 -3 0 -13 1 -1 0 -2 1 -1 0 -1 2 0 0 -1 13 0M936 272l0 -2M936 271l14 0 0 -1 24 0"/>
<path stroke="blue" d="M50 23l46 0"/>
<text stroke="none" fill="white" font-size="16" x="106" y="32">
x1.vsampled_n
</text>
<path stroke="blue" d="M50 431l1 0 1 -7 0 -15 1 -14 0 -4 1 1M54 414l0 -38 1 -5 0 -13 1 -3 0 -3 1 -1 0 -1 2 0 1 -1 4 0 1 1 2 0 0 -1 50 0M117 374l0 -25M117 374l1 18M118 414l0 -22M118 414l1 3M119 424l0 -7M119 424l1 2M120 427l0 -1M120 427l1 0 1 1"/>
<path stroke="blue" d="M122 428l424 0 0 -10 1 -8 0 -31 1 -6 1 -4 0 -1 1 -1 75 0 0 -9 1 -4 0 -6 1 0 1 1 18 0M646 350l0 -1 79 0M725 350l0 -1 26 0M751 350l0 -1 27 0M778 350l0 -1 26 0M804 350l0 -1 8 0M812 350l0 -1 18 0 1 1 0 -1 7 0 0 -1M838 349l19 0"/>
<path stroke="blue" d="M857 350l0 -1 26 0M883 350l0 -1 27 0M910 350l0 -1 8 0M918 450l0 -101M918 446l1 -2 0 -10 1 -2 0 -1 1 -1 0 -1 1 0 0 -1 52 0"/>
<path stroke="#FFA500" d="M462 39l46 0"/>
<text stroke="none" fill="white" font-size="16" x="518" y="48">
x1.vsampled_p-x1.vsampled_n
</text>
<path stroke="#FFA500" d="M50 431l2 0 0 -1 2 0M54 431l0 -1M54 431l63 0 0 -27 1 -29 0 -60 1 -10 0 -21 1 -4 0 -3 1 -2 2 -2 417 0M540 274l0 -1 1 0M541 274l0 -1 5 0M546 283l0 -10M546 283l1 8M547 322l0 -31M547 322l1 7 1 3M549 334l0 -2M549 334l1 0"/>
<path stroke="#FFA500" d="M550 334l1 1 3 0 0 -1 12 0 1 1M567 336l0 -1 7 0M574 356l0 -22M574 356l1 6M575 371l0 -9M575 371l1 4M576 376l0 -1M576 376l2 0 0 -1 15 0M593 376l0 -1 7 0M600 390l0 -15M600 390l1 4M601 397l0 -3M601 397l1 -1 23 0M625 405l0 -9"/>
<path stroke="#FFA500" d="M625 405l1 4M626 415l0 -6M626 415l1 0 0 -1 19 0 0 -1M646 414l7 0M653 422l0 -8M653 422l1 2 25 0M679 428l0 -4M679 428l1 1M680 430l0 -1 26 0M706 432l0 -3M706 432l19 0 0 -1M725 432l7 0 0 -3 27 0M759 431l0 -2M759 431l19 0"/>
<path stroke="#FFA500" d="M778 431l0 -1M778 431l8 0M786 432l0 -1 26 0 0 -1M812 431l26 0M838 432l0 -1 80 0 0 -154 1 -1 0 -2 1 0 0 -1 16 0M936 275l0 -2 38 0"/>
<path stroke="green" d="M50 39l46 0"/>
<text stroke="none" fill="white" font-size="16" x="106" y="48">
x1.sw_sample-2
</text>
<path stroke="green" d="M50 613l1 0 1 -9 0 -21 1 -21M53 578l0 -22M53 578l1 32M54 613l0 -3M54 613l63 0M117 620l0 -172M117 449l422 0M539 614l0 -171M539 613l422 0M961 618l0 -170 1 1 12 0"/>
<path stroke="#FFC0C5" d="M462 55l46 0"/>
<text stroke="none" fill="white" font-size="16" x="518" y="64">
x1.comp_out_p+2
</text>
<path stroke="#FFC0C5" d="M50 249l1 0 1 -9 0 -22 1 -18 0 -4M53 198l1 5M54 249l0 -46M54 249l487 0 1 1 0 -166M542 85l13 0M555 249l0 -172M555 249l13 0M568 251l0 -168M568 85l13 0 0 -6 1 115M582 250l0 -56M582 249l12 0M594 251l0 -168M594 85l14 0M608 250l0 -167"/>
<path stroke="#FFC0C5" d="M608 249l13 0 0 -165M621 85l13 0M634 249l0 -172M634 249l13 0M647 250l0 -166M647 85l14 0M661 250l0 -171M661 249l12 0M673 252l0 -3M673 252l1 -108 0 -61M674 85l13 0M687 250l0 -171M687 249l13 0 0 -165M700 85l13 0 0 -2 1 151"/>
<path stroke="#FFC0C5" d="M714 249l0 -15M714 249l39 0 0 -165M753 85l13 0M766 249l0 -166M766 249l14 0 0 -165 1 1 12 0M793 249l0 -174M793 249l41 0 0 -165M834 85l11 0 0 -5 1 64M846 250l0 -106M846 249l91 0 1 -52 0 -113M938 85l13 0M951 249l0 -173"/>
<path stroke="#FFC0C5" d="M951 249l23 0"/>
<path stroke="#A52A2A" d="M50 55l46 0"/>
<text stroke="none" fill="white" font-size="16" x="106" y="64">
x1.comp_out_n-2
</text>
<path stroke="#A52A2A" d="M50 613l1 0 1 -9 0 -22 1 -19M53 564l0 -3M53 564l1 6M54 614l0 -44M54 611l1 2 592 0M647 614l0 -1 81 0 0 -164 12 0M740 613l0 -171M740 613l67 0 0 -165M807 449l12 0M819 613l0 -172M819 613l40 0 1 -158 0 -7M860 449l12 0M872 613l0 -174"/>
<path stroke="#A52A2A" d="M872 613l14 0 0 -164 1 -1M887 449l0 -1M887 449l11 0M898 613l0 -174M898 613l15 0 0 -165M913 449l12 0M925 614l0 -173M925 613l49 0"/>
</svg>
