<?xml version="1.0" standalone="yes"?>
<!DOCTYPE svg PUBLIC "-//W3C//DTD SVG 1.1//EN"
 "http://www.w3.org/Graphics/SVG/1.1/DTD/svg11.dtd">
<svg xmlns="http://www.w3.org/2000/svg" version="1.1"
  width="100%" height="100%" viewBox="0 0 1024 768"
  style="fill: none; font-family: Helvetica;
 font: Helvetica;
">

<!-- Creator: NGspice -->

<rect x="0" y="0" width="1024" height="768" fill="black" stroke="none"/>
<text stroke="none" fill="white" font-size="16" x="358" y="752">
time
</text>
<text stroke="none" fill="white" font-size="16" x="10" y="16">
tran1: run2015_vin0.871433
</text>
<path stroke="white" d="M50 704l0 -637"/>
<text stroke="none" fill="white" font-size="16" x="35" y="728">
0.0
</text>
<path stroke="white" stroke-dasharray="1,2" d="M182 704l0 -637"/>
<text stroke="none" fill="white" font-size="16" x="157" y="728">
100.0
</text>
<path stroke="white" stroke-dasharray="1,2" d="M314 704l0 -637"/>
<text stroke="none" fill="white" font-size="16" x="289" y="728">
200.0
</text>
<path stroke="white" stroke-dasharray="1,2" d="M446 704l0 -637"/>
<text stroke="none" fill="white" font-size="16" x="421" y="728">
300.0
</text>
<path stroke="white" stroke-dasharray="1,2" d="M578 704l0 -637"/>
<text stroke="none" fill="white" font-size="16" x="553" y="728">
400.0
</text>
<path stroke="white" stroke-dasharray="1,2" d="M710 704l0 -637"/>
<text stroke="none" fill="white" font-size="16" x="685" y="728">
500.0
</text>
<path stroke="white" stroke-dasharray="1,2" d="M842 704l0 -637"/>
<text stroke="none" fill="white" font-size="16" x="817" y="728">
600.0
</text>
<path stroke="white" stroke-dasharray="1,2" d="M974 704l0 -637"/>
<text stroke="none" fill="white" font-size="16" x="949" y="728">
700.0
</text>
<text stroke="none" fill="white" font-size="16" x="614" y="752">
ns
</text>
<path stroke="white" stroke-dasharray="1,2" d="M50 704l924 0"/>
<text stroke="none" fill="white" font-size="16" x="8" y="712">
-3.0
</text>
<path stroke="white" stroke-dasharray="1,2" d="M50 613l924 0"/>
<text stroke="none" fill="white" font-size="16" x="8" y="621">
-2.0
</text>
<path stroke="white" stroke-dasharray="1,2" d="M50 522l924 0"/>
<text stroke="none" fill="white" font-size="16" x="8" y="530">
-1.0
</text>
<path stroke="white" d="M50 431l924 0"/>
<text stroke="none" fill="white" font-size="16" x="18" y="439">
0.0
</text>
<path stroke="white" stroke-dasharray="1,2" d="M50 340l924 0"/>
<text stroke="none" fill="white" font-size="16" x="18" y="348">
1.0
</text>
<path stroke="white" stroke-dasharray="1,2" d="M50 249l924 0"/>
<text stroke="none" fill="white" font-size="16" x="18" y="257">
2.0
</text>
<path stroke="white" stroke-dasharray="1,2" d="M50 158l924 0"/>
<text stroke="none" fill="white" font-size="16" x="18" y="166">
3.0
</text>
<path stroke="white" stroke-dasharray="1,2" d="M50 67l924 0"/>
<text stroke="none" fill="white" font-size="16" x="18" y="75">
4.0
</text>
<text stroke="none" fill="white" font-size="16" x="10" y="32">
     
</text>
<path stroke="red" d="M462 23l46 0"/>
<text stroke="none" fill="white" font-size="16" x="518" y="32">
x1.vsampled_p
</text>
<path stroke="red" d="M50 431l1 0 1 -7 0 -16 1 -14 0 -5 1 2M54 414l0 -38 1 -5 0 -13 1 -3 0 -3 1 -1 0 -1 2 0 1 -1 3 0 1 1 4 0 1 -1 48 0 0 -1 1 -12 0 -38 1 -7 0 -14 1 -3 0 -2 2 -2 418 0M540 271l0 -1 14 0 0 -1M554 270l13 0M567 272l0 -2 7 0M574 292l0 -22"/>
<path stroke="red" d="M574 292l1 6M575 308l0 -10M575 308l1 3 17 0M593 312l0 -1 7 0M600 328l0 -17M600 328l1 4 1 0 0 -1 17 0M619 332l0 -1M619 332l1 0 0 -1 26 0M646 332l0 -1 7 0M653 339l0 -8M653 339l1 2M654 342l0 -1M654 342l5 0 0 -1M659 342l20 0"/>
<path stroke="red" d="M679 346l0 -4M679 346l1 0M680 348l0 -2M680 347l26 0M706 350l0 -3M706 350l1 -1 18 0M725 350l0 -1 26 0M751 350l0 -1 27 0M778 350l0 -1 26 0M804 350l0 -1 27 0M831 350l0 -1 26 0M857 350l0 -1 26 0M883 350l0 -1 27 0M910 350l0 -1"/>
<path stroke="red" d="M910 349l8 0 0 -58 1 -3 0 -12 1 -2 0 -2 1 0 0 -1 1 0 0 -1 14 0M936 272l0 -2 38 0"/>
<path stroke="blue" d="M50 23l46 0"/>
<text stroke="none" fill="white" font-size="16" x="106" y="32">
x1.vsampled_n
</text>
<path stroke="blue" d="M50 431l1 0 1 -7 0 -15 1 -14 0 -4 1 1M54 414l0 -38 1 -5 0 -13 1 -3 0 -3 1 -1 0 -1 2 0 1 -1 4 0 1 1 2 0 0 -1 50 0M117 374l0 -25M117 374l1 18M118 414l0 -22M118 414l1 4M119 425l0 -7M119 425l1 1M120 427l0 -1M120 427l1 1 418 0"/>
<path stroke="blue" d="M539 428l1 1 1 -1M541 429l0 -1M541 429l5 0 0 -27 1 -3 0 -17 1 -7 0 -5 1 -2 1 0 0 -1 17 0M567 368l0 -1 58 0 0 -13 1 -1 0 -5 1 0M627 349l0 -1M627 349l19 0M646 350l0 -1 26 0M672 350l0 -1 26 0 1 1 0 -1 26 0M725 350l0 -1 8 0"/>
<path stroke="blue" d="M733 349l0 -4M733 347l18 0M751 348l0 -1 8 0M759 350l0 -3M759 348l19 0M778 349l0 -1 7 0M785 350l0 -2M785 350l1 0 0 -1 18 0M804 350l0 -1 9 0M813 350l0 -1 17 0 1 1 0 -1 7 0 0 -1M838 349l19 0M857 350l0 -1 26 0M883 350l0 -1"/>
<path stroke="blue" d="M883 349l27 0M910 350l0 -1 8 0M918 451l0 -102M918 446l1 -2 0 -10 1 -2 0 -1 1 -1 0 -1 2 0 0 -1 1 1 0 -1 12 0M936 429l0 -1M936 429l14 0 0 -1 24 0"/>
<path stroke="#FFA500" d="M462 39l46 0"/>
<text stroke="none" fill="white" font-size="16" x="518" y="48">
x1.vsampled_p-x1.vsampled_n
</text>
<path stroke="#FFA500" d="M50 431l2 0 0 -1 2 0M54 431l0 -1M54 431l63 0 0 -27 1 -30 0 -59 1 -10 0 -22 1 -4 0 -3 1 -1 1 -2 2 0 0 -1 415 0M539 273l0 -1M539 273l1 0 0 -1M540 273l6 0M546 299l0 -26M546 299l1 3M547 319l0 -17M547 319l1 7M548 331l0 -5"/>
<path stroke="#FFA500" d="M548 331l1 2 1 1 4 0 0 -1M554 334l13 0M567 335l0 -1 7 0M574 356l0 -22M574 356l1 6M575 372l0 -10M575 372l1 3 4 0 0 -1M580 375l13 0M593 376l0 -1 7 0M600 392l0 -17M600 392l1 4 1 -1 17 0M619 396l0 -1 6 0M625 408l0 -13M625 408l1 1"/>
<path stroke="#FFA500" d="M626 414l0 -5M626 414l1 0 1 -1 25 0M653 421l0 -8M653 421l1 2M654 424l0 -1M654 424l1 -1 24 0M679 427l0 -4M679 427l1 1M680 429l0 -1 6 0M686 429l0 -1 13 0M699 429l0 -1 7 0M706 431l0 -3M706 431l27 0M733 435l0 -4M733 433l26 0"/>
<path stroke="#FFA500" d="M759 433l0 -3M759 432l26 0 0 -2 1 0M786 431l0 -1M786 431l27 0 0 -1M813 431l25 0M838 432l0 -1 80 0 0 -155 1 -1 0 -2 4 0 0 -1 13 0M936 274l0 -2M936 273l14 0 0 -1 12 0M962 273l0 -1 12 0"/>
<path stroke="green" d="M50 39l46 0"/>
<text stroke="none" fill="white" font-size="16" x="106" y="48">
x1.sw_sample-2
</text>
<path stroke="green" d="M50 613l1 0 1 -9 0 -21 1 -21M53 578l0 -22M53 578l1 32M54 613l0 -3M54 613l63 0M117 620l0 -172M117 449l422 0M539 614l0 -171M539 613l422 0M961 618l0 -170 1 1 12 0"/>
<path stroke="#FFC0C5" d="M462 55l46 0"/>
<text stroke="none" fill="white" font-size="16" x="518" y="64">
x1.comp_out_p+2
</text>
<path stroke="#FFC0C5" d="M50 249l1 0 1 -9 0 -22 1 -18 0 -4M53 198l1 5M54 249l0 -46M54 249l487 0 1 1 0 -166M542 85l13 0M555 249l0 -171M555 249l13 0M568 253l0 -169M568 85l13 0 0 -6 1 107M582 250l0 -64M582 249l12 0 0 -165M594 85l14 0M608 250l0 -168"/>
<path stroke="#FFC0C5" d="M608 249l13 0M621 250l0 -167M621 85l13 0M634 249l0 -172M634 249l13 0M647 252l0 -168M647 85l14 0M661 249l0 -172M661 249l12 0M673 254l0 -118 1 -44 0 -8M674 85l13 0M687 249l0 -171M687 249l13 0M700 250l0 -167M700 85l13 0"/>
<path stroke="#FFC0C5" d="M713 85l0 -6 1 100M714 250l0 -71M714 249l14 0 1 -157 0 -8M729 85l11 0M740 249l0 -173M740 249l94 0 0 -165M834 85l11 0 0 -5 1 64M846 250l0 -106M846 249l91 0M937 250l0 -1M937 250l1 -77 0 -89M938 85l13 0M951 250l0 -174M951 249l23 0"/>
<path stroke="#A52A2A" d="M50 55l46 0"/>
<text stroke="none" fill="white" font-size="16" x="106" y="64">
x1.comp_out_n-2
</text>
<path stroke="#A52A2A" d="M50 613l1 0 1 -9 0 -22 1 -19M53 564l0 -3M53 564l1 6M54 614l0 -44M54 611l1 2 698 0 0 -165M753 449l13 0M766 613l0 -173M766 613l14 0 0 -165M780 449l13 0M793 613l0 -174M793 613l14 0 0 -165 1 1 11 0M819 613l0 -172M819 613l40 0"/>
<path stroke="#A52A2A" d="M859 613l1 -158 0 -7M860 449l12 0M872 613l0 -174M872 613l14 0 0 -161 1 -4M887 449l0 -1M887 449l11 0M898 613l0 -174M898 613l15 0 0 -165M913 449l12 0M925 614l0 -172M925 613l49 0"/>
</svg>
