<?xml version="1.0" standalone="yes"?>
<!DOCTYPE svg PUBLIC "-//W3C//DTD SVG 1.1//EN"
 "http://www.w3.org/Graphics/SVG/1.1/DTD/svg11.dtd">
<svg xmlns="http://www.w3.org/2000/svg" version="1.1"
  width="100%" height="100%" viewBox="0 0 1024 768"
  style="fill: none; font-family: Helvetica;
 font: Helvetica;
">

<!-- Creator: NGspice -->

<rect x="0" y="0" width="1024" height="768" fill="black" stroke="none"/>
<text stroke="none" fill="white" font-size="16" x="358" y="752">
time
</text>
<text stroke="none" fill="white" font-size="16" x="10" y="16">
tran1: run97_vin0.195695
</text>
<path stroke="white" d="M50 704l0 -637"/>
<text stroke="none" fill="white" font-size="16" x="35" y="728">
0.0
</text>
<path stroke="white" stroke-dasharray="1,2" d="M182 704l0 -637"/>
<text stroke="none" fill="white" font-size="16" x="157" y="728">
100.0
</text>
<path stroke="white" stroke-dasharray="1,2" d="M314 704l0 -637"/>
<text stroke="none" fill="white" font-size="16" x="289" y="728">
200.0
</text>
<path stroke="white" stroke-dasharray="1,2" d="M446 704l0 -637"/>
<text stroke="none" fill="white" font-size="16" x="421" y="728">
300.0
</text>
<path stroke="white" stroke-dasharray="1,2" d="M578 704l0 -637"/>
<text stroke="none" fill="white" font-size="16" x="553" y="728">
400.0
</text>
<path stroke="white" stroke-dasharray="1,2" d="M710 704l0 -637"/>
<text stroke="none" fill="white" font-size="16" x="685" y="728">
500.0
</text>
<path stroke="white" stroke-dasharray="1,2" d="M842 704l0 -637"/>
<text stroke="none" fill="white" font-size="16" x="817" y="728">
600.0
</text>
<path stroke="white" stroke-dasharray="1,2" d="M974 704l0 -637"/>
<text stroke="none" fill="white" font-size="16" x="949" y="728">
700.0
</text>
<text stroke="none" fill="white" font-size="16" x="614" y="752">
ns
</text>
<path stroke="white" stroke-dasharray="1,2" d="M50 704l924 0"/>
<text stroke="none" fill="white" font-size="16" x="8" y="712">
-3.0
</text>
<path stroke="white" stroke-dasharray="1,2" d="M50 613l924 0"/>
<text stroke="none" fill="white" font-size="16" x="8" y="621">
-2.0
</text>
<path stroke="white" stroke-dasharray="1,2" d="M50 522l924 0"/>
<text stroke="none" fill="white" font-size="16" x="8" y="530">
-1.0
</text>
<path stroke="white" d="M50 431l924 0"/>
<text stroke="none" fill="white" font-size="16" x="18" y="439">
0.0
</text>
<path stroke="white" stroke-dasharray="1,2" d="M50 340l924 0"/>
<text stroke="none" fill="white" font-size="16" x="18" y="348">
1.0
</text>
<path stroke="white" stroke-dasharray="1,2" d="M50 249l924 0"/>
<text stroke="none" fill="white" font-size="16" x="18" y="257">
2.0
</text>
<path stroke="white" stroke-dasharray="1,2" d="M50 158l924 0"/>
<text stroke="none" fill="white" font-size="16" x="18" y="166">
3.0
</text>
<path stroke="white" stroke-dasharray="1,2" d="M50 67l924 0"/>
<text stroke="none" fill="white" font-size="16" x="18" y="75">
4.0
</text>
<text stroke="none" fill="white" font-size="16" x="10" y="32">
     
</text>
<path stroke="red" d="M462 23l46 0"/>
<text stroke="none" fill="white" font-size="16" x="518" y="32">
x1.vsampled_p
</text>
<path stroke="red" d="M50 431l1 0 1 -7 0 -15 1 -15 0 -4 1 1M54 415l0 -39 1 -5 0 -14 1 -3 0 -2 1 -2 2 0 1 -1 4 0M64 350l0 -1M64 350l4 0 1 -1 48 0 1 -6 0 -8 1 -2 2 -2 418 0M539 332l0 -1M539 332l15 0 0 -1 12 0 1 1 13 0 0 -1 13 0M593 332l0 -1M593 332l7 0"/>
<path stroke="red" d="M600 346l0 -15M600 346l1 3M601 355l0 -6M601 354l2 -2 22 0 1 -1 0 -16 1 0 0 -1 19 0M646 335l0 -1 7 0M653 344l0 -10M653 344l1 1M654 346l0 -1 1 0 1 -1 16 0M672 345l0 -1 7 0M679 348l0 -4M679 348l1 1M680 351l0 -2M680 350l1 0"/>
<path stroke="red" d="M681 350l1 -1 16 0 1 1 0 -1 26 0M725 350l0 -1 7 0 0 -3 1 0M733 347l0 -1M733 347l18 0M751 348l0 -1 8 0M759 349l0 -2M759 349l1 0 1 -1 17 0M778 349l0 -1 8 0M786 350l0 -2M786 349l27 0M813 350l0 -1 17 0 1 1 0 -1 86 0M917 351l0 -2"/>
<path stroke="red" d="M917 351l1 -3 0 -12 1 -2 0 -3 2 0M921 332l0 -1M921 332l2 0 0 -1 13 0M936 332l0 -1M936 332l14 0 0 -1 24 0"/>
<path stroke="blue" d="M50 23l46 0"/>
<text stroke="none" fill="white" font-size="16" x="106" y="32">
x1.vsampled_n
</text>
<path stroke="blue" d="M50 431l1 0 1 -7 0 -15 1 -14 0 -5 1 2M54 415l0 -39 1 -5 0 -14 1 -3 0 -2 1 -2 2 0 1 -1 4 0M64 350l0 -1M64 350l4 0 1 -1 48 0M117 352l0 -3M117 352l1 5M118 363l0 -6M118 363l1 2 1 1M120 367l0 -1M120 367l426 0 0 -24 1 -3 0 -21"/>
<path stroke="blue" d="M547 319l1 -6 0 -4 1 -1 0 -1 1 -1 4 0 0 -1M554 306l13 0M567 307l0 -1 6 0M573 316l0 -10M573 316l1 3M574 340l0 -21M574 340l1 4M575 349l0 -5M575 349l2 -2 3 0 0 -1M580 347l26 0 0 -1 1 0M607 347l0 -1M607 347l26 0 0 -1M633 347l26 0"/>
<path stroke="blue" d="M659 347l0 -1M659 347l27 0 0 -1M686 347l20 0M706 350l0 -3M706 350l1 -1 18 0M725 350l0 -1 26 0M751 350l0 -1M751 350l1 0 0 -1 26 0M778 350l0 -1 26 0M804 350l0 -1 27 0M831 350l0 -1 26 0M857 350l0 -1 26 0M883 350l0 -1 27 0"/>
<path stroke="blue" d="M910 350l0 -1 7 0 0 -1 1 -1M918 370l0 -23M918 370l1 0 0 -2 1 0 0 -1 54 0"/>
<path stroke="#FFA500" d="M462 39l46 0"/>
<text stroke="none" fill="white" font-size="16" x="518" y="48">
x1.vsampled_p-x1.vsampled_n
</text>
<path stroke="#FFA500" d="M50 431l67 0 0 -3 1 -11 0 -14 1 -4 1 -2 0 -1 2 0 0 -1 418 0M540 396l0 -1M540 396l6 0M546 420l0 -25M546 420l1 3M547 444l0 -21M547 444l1 5M548 453l0 -4M548 453l1 2M549 456l0 -1M549 456l1 0M550 457l0 -1M550 457l16 0 1 -1"/>
<path stroke="#FFA500" d="M567 457l0 -1M567 457l6 0 0 -10 1 -4 0 -21 1 -4 0 -4 1 0M576 415l0 -1M576 415l1 0M577 416l0 -1M577 416l23 0M600 430l0 -14M600 430l1 3M601 439l0 -6M601 438l1 0 0 -1 1 0 0 -1 23 0 0 -16 1 -1 0 -1 19 0M646 419l0 -1 7 0"/>
<path stroke="#FFA500" d="M653 428l0 -10M653 428l1 1M654 430l0 -1 18 0 0 -1M672 429l7 0M679 432l0 -3M679 432l1 1M680 435l0 -2M680 434l26 0 0 -4M706 431l26 0 0 -3 1 0M733 429l0 -1M733 429l26 0M759 431l0 -2M759 430l27 0M786 431l0 -1M786 431l27 0"/>
<path stroke="#FFA500" d="M813 432l0 -1 104 0M917 434l0 -3M917 434l1 -2 0 -35 1 -3 1 1 16 0M936 396l0 -1M936 396l14 0 0 -1 24 0"/>
<path stroke="green" d="M50 39l46 0"/>
<text stroke="none" fill="white" font-size="16" x="106" y="48">
x1.sw_sample-2
</text>
<path stroke="green" d="M50 613l1 0 1 -9 0 -21 1 -21M53 581l0 -25M53 581l1 29M54 613l0 -3M54 613l63 0M117 620l0 -172M117 449l422 0M539 614l0 -171M539 613l422 0M961 618l0 -170 1 1 12 0"/>
<path stroke="#FFC0C5" d="M462 55l46 0"/>
<text stroke="none" fill="white" font-size="16" x="518" y="64">
x1.comp_out_p+2
</text>
<path stroke="#FFC0C5" d="M50 249l1 0 1 -9 0 -22 1 -18 0 -4M53 198l1 5M54 249l0 -46M54 249l487 0 1 1 0 -166M542 85l13 0M555 250l0 -174M555 249l39 0M594 250l0 -166M594 85l14 0M608 250l0 -173M608 249l39 0 0 -165M647 85l14 0M661 250l0 -171M661 249l12 0"/>
<path stroke="#FFC0C5" d="M673 249l1 3 0 -169M674 85l13 0M687 249l0 -172M687 249l66 0 0 -165M753 85l13 0M766 249l0 -173M766 249l14 0 0 -165M780 85l13 0M793 249l0 -174M793 249l14 0 0 -150 1 -15M808 85l0 -1M808 85l11 0M819 249l0 -167M819 249l41 0"/>
<path stroke="#FFC0C5" d="M860 249l0 -165 1 1 11 0M872 249l0 -174M872 249l14 0 0 -157 1 -8M887 85l0 -1M887 85l11 0M898 249l0 -174M898 249l14 0 1 -157 0 -8M913 85l12 0M925 250l0 -167M925 249l12 0M937 250l0 -1M937 250l1 -97 0 -70M938 85l13 0M951 250l0 -167"/>
<path stroke="#FFC0C5" d="M951 249l23 0"/>
<path stroke="#A52A2A" d="M50 55l46 0"/>
<text stroke="none" fill="white" font-size="16" x="106" y="64">
x1.comp_out_n-2
</text>
<path stroke="#A52A2A" d="M50 613l1 0 1 -9 0 -22 1 -19M53 564l0 -3M53 564l1 6M54 613l0 -43M54 613l514 0M568 615l0 -168M568 449l13 0 0 -9 1 163M582 613l0 -10M582 613l12 0M594 614l0 -1 27 0 0 -166M621 449l13 0M634 614l0 -174M634 613l66 0M700 614l0 -167"/>
<path stroke="#A52A2A" d="M700 449l13 0 0 -10 1 154M714 613l0 -20M714 613l14 0 0 -165 1 1 11 0M740 613l0 -173M740 613l94 0 0 -165M834 449l11 0 0 -2 1 155M846 613l0 -11M846 613l128 0"/>
</svg>
