<?xml version="1.0" standalone="yes"?>
<!DOCTYPE svg PUBLIC "-//W3C//DTD SVG 1.1//EN"
 "http://www.w3.org/Graphics/SVG/1.1/DTD/svg11.dtd">
<svg xmlns="http://www.w3.org/2000/svg" version="1.1"
  width="100%" height="100%" viewBox="0 0 1024 768"
  style="fill: none; font-family: Helvetica;
 font: Helvetica;
">

<!-- Creator: NGspice -->

<rect x="0" y="0" width="1024" height="768" fill="black" stroke="none"/>
<text stroke="none" fill="white" font-size="16" x="358" y="752">
time
</text>
<text stroke="none" fill="white" font-size="16" x="10" y="16">
tran1: run1230_vin0.181493
</text>
<path stroke="white" d="M50 704l0 -637"/>
<text stroke="none" fill="white" font-size="16" x="35" y="728">
0.0
</text>
<path stroke="white" stroke-dasharray="1,2" d="M182 704l0 -637"/>
<text stroke="none" fill="white" font-size="16" x="157" y="728">
100.0
</text>
<path stroke="white" stroke-dasharray="1,2" d="M314 704l0 -637"/>
<text stroke="none" fill="white" font-size="16" x="289" y="728">
200.0
</text>
<path stroke="white" stroke-dasharray="1,2" d="M446 704l0 -637"/>
<text stroke="none" fill="white" font-size="16" x="421" y="728">
300.0
</text>
<path stroke="white" stroke-dasharray="1,2" d="M578 704l0 -637"/>
<text stroke="none" fill="white" font-size="16" x="553" y="728">
400.0
</text>
<path stroke="white" stroke-dasharray="1,2" d="M710 704l0 -637"/>
<text stroke="none" fill="white" font-size="16" x="685" y="728">
500.0
</text>
<path stroke="white" stroke-dasharray="1,2" d="M842 704l0 -637"/>
<text stroke="none" fill="white" font-size="16" x="817" y="728">
600.0
</text>
<path stroke="white" stroke-dasharray="1,2" d="M974 704l0 -637"/>
<text stroke="none" fill="white" font-size="16" x="949" y="728">
700.0
</text>
<text stroke="none" fill="white" font-size="16" x="614" y="752">
ns
</text>
<path stroke="white" stroke-dasharray="1,2" d="M50 704l924 0"/>
<text stroke="none" fill="white" font-size="16" x="8" y="712">
-3.0
</text>
<path stroke="white" stroke-dasharray="1,2" d="M50 613l924 0"/>
<text stroke="none" fill="white" font-size="16" x="8" y="621">
-2.0
</text>
<path stroke="white" stroke-dasharray="1,2" d="M50 522l924 0"/>
<text stroke="none" fill="white" font-size="16" x="8" y="530">
-1.0
</text>
<path stroke="white" d="M50 431l924 0"/>
<text stroke="none" fill="white" font-size="16" x="18" y="439">
0.0
</text>
<path stroke="white" stroke-dasharray="1,2" d="M50 340l924 0"/>
<text stroke="none" fill="white" font-size="16" x="18" y="348">
1.0
</text>
<path stroke="white" stroke-dasharray="1,2" d="M50 249l924 0"/>
<text stroke="none" fill="white" font-size="16" x="18" y="257">
2.0
</text>
<path stroke="white" stroke-dasharray="1,2" d="M50 158l924 0"/>
<text stroke="none" fill="white" font-size="16" x="18" y="166">
3.0
</text>
<path stroke="white" stroke-dasharray="1,2" d="M50 67l924 0"/>
<text stroke="none" fill="white" font-size="16" x="18" y="75">
4.0
</text>
<text stroke="none" fill="white" font-size="16" x="10" y="32">
     
</text>
<path stroke="red" d="M462 23l46 0"/>
<text stroke="none" fill="white" font-size="16" x="518" y="32">
x1.vsampled_p
</text>
<path stroke="red" d="M50 431l1 0 1 -7 0 -15 1 -15 0 -4 1 1M54 415l0 -39 1 -5 0 -14 1 -3 0 -2 1 -2 2 0 1 -1 4 0M64 350l0 -1M64 350l4 0 1 -1 48 0 1 -5 0 -8 1 -2 1 -1 434 0 0 -1M554 333l13 0M567 334l0 -1 13 0 0 -1M580 333l20 0M600 350l0 -17M600 350l1 3"/>
<path stroke="red" d="M601 356l0 -3M601 355l1 -1 1 0 0 -1 16 0M619 354l0 -1 6 0 0 -1 1 -4 0 -12 1 -1 19 0M646 336l0 -1 7 0M653 345l0 -10M653 345l1 1M654 347l0 -1 5 0 0 -1M659 346l13 0 0 -1M672 346l14 0 0 -1M686 346l20 0M706 349l0 -3M706 349l1 -1"/>
<path stroke="red" d="M707 348l78 0M785 349l0 -1M785 349l27 0M812 350l0 -1 106 0 0 -6 1 0 0 -9 1 -1 0 -1 1 1 2 0 0 -1M923 333l27 0 0 -1M950 333l24 0"/>
<path stroke="blue" d="M50 23l46 0"/>
<text stroke="none" fill="white" font-size="16" x="106" y="32">
x1.vsampled_n
</text>
<path stroke="blue" d="M50 431l1 0 1 -7 0 -15 1 -14 0 -5 1 2M54 415l0 -39 1 -5 0 -14 1 -3 0 -2 1 -2 2 0 1 -1 4 0M64 350l0 -1M64 350l4 0 1 -1 48 0M117 351l0 -2M117 351l1 5M118 362l0 -6M118 362l1 2 1 1 1 0 1 1 424 0 0 -21 1 -3 0 -24 1 -6 0 -4 1 -2"/>
<path stroke="blue" d="M549 306l0 -1 5 0 0 -1 12 0 1 1M567 306l0 -1 7 0M574 332l0 -27M574 332l1 5M575 347l0 -10M575 347l1 0 0 -1 1 0 1 -1 15 0M593 346l0 -1 26 0M619 346l0 -1 27 0M646 346l0 -1 26 0M672 346l0 -1 7 0M679 350l0 -5M679 350l1 1M680 353l0 -2"/>
<path stroke="blue" d="M680 351l2 0 1 -1 15 0 1 1 0 -1 26 0M725 351l0 -1 6 0M731 351l0 -4 1 0M732 348l0 -1M732 348l19 0M751 349l0 -1 8 0M759 351l0 -3M759 350l6 0 0 -1 13 0M778 350l0 -1M778 350l13 0 0 -1 13 0M804 350l0 -1 1 0M805 350l0 -1M805 350l13 0"/>
<path stroke="blue" d="M818 350l0 -1 12 0 1 1 0 -1M831 350l7 0 0 -1 19 0M857 350l0 -1 26 0M883 350l0 -1 27 0M910 350l0 -1 8 0M918 361l0 -12M918 361l1 2M919 369l0 -6M919 368l1 -1 0 -1 54 0"/>
<path stroke="#FFA500" d="M462 39l46 0"/>
<text stroke="none" fill="white" font-size="16" x="518" y="48">
x1.vsampled_p-x1.vsampled_n
</text>
<path stroke="#FFA500" d="M50 431l67 0 0 -3 1 -10 0 -13 1 -4 1 -2 1 -1 425 0M546 419l0 -21M546 419l1 3M547 446l0 -24M547 446l1 6M548 456l0 -4M548 456l1 2 1 1 4 0M554 460l0 -1 13 0M567 460l0 -2M567 459l7 0 0 -27 1 -6 0 -9 1 -1M576 417l0 -1M576 417l1 1"/>
<path stroke="#FFA500" d="M577 418l3 0M580 419l0 -1 13 0M593 419l0 -1 7 0M600 435l0 -17M600 435l1 4M601 442l0 -3M601 441l2 -2 22 0 0 -1 1 -5 0 -11 1 -1 26 0M653 430l0 -9M653 430l1 2M654 433l0 -1 1 0 0 -1 24 0 0 -5 1 0 0 -2M680 426l26 0M706 430l0 -4"/>
<path stroke="#FFA500" d="M706 429l25 0M731 432l0 -3M731 432l1 0 0 -1 27 0 0 -3M759 429l1 1 25 0M785 431l0 -1M785 431l1 0 0 -1 26 0M812 431l0 -1M812 431l106 0 0 -18 1 -2 0 -14 1 0 1 1 15 0M936 399l0 -1 38 0"/>
<path stroke="green" d="M50 39l46 0"/>
<text stroke="none" fill="white" font-size="16" x="106" y="48">
x1.sw_sample-2
</text>
<path stroke="green" d="M50 613l1 0 1 -9 0 -21 1 -21M53 581l0 -25M53 581l1 29M54 613l0 -3M54 613l63 0M117 620l0 -172M117 449l422 0M539 614l0 -171M539 613l422 0M961 618l0 -170 1 1 12 0"/>
<path stroke="#FFC0C5" d="M462 55l46 0"/>
<text stroke="none" fill="white" font-size="16" x="518" y="64">
x1.comp_out_p+2
</text>
<path stroke="#FFC0C5" d="M50 249l1 0 1 -9 0 -22 1 -18 0 -4M53 198l1 5M54 249l0 -46M54 249l488 0M542 251l0 -168M542 85l13 0M555 250l0 -171M555 249l39 0M594 250l0 -167M594 85l14 0M608 250l0 -172M608 249l39 0 0 -165M647 85l14 0M661 249l0 -173M661 249l39 0"/>
<path stroke="#FFC0C5" d="M700 252l0 -169M700 85l13 0 0 -8 1 149M714 249l0 -23M714 249l13 0 0 -165M727 85l13 0M740 250l0 -171M740 249l40 0 0 -165M780 85l13 0M793 250l0 -172M793 249l13 0 1 -151 0 -14M807 85l12 0M819 250l0 -174M819 249l14 0 1 -157"/>
<path stroke="#FFC0C5" d="M834 92l0 -8M834 85l11 0 0 -10 1 151M846 249l0 -23M846 249l14 0 0 -165M860 85l12 0M872 249l0 -174M872 249l14 0 0 -157 1 -8M887 85l0 -1M887 85l11 0M898 249l0 -174M898 249l15 0 0 -165M913 85l12 0M925 249l0 -172M925 249l12 0"/>
<path stroke="#FFC0C5" d="M937 250l0 -1M937 250l1 -98 0 -69M938 85l13 0M951 250l0 -167M951 249l23 0"/>
<path stroke="#A52A2A" d="M50 55l46 0"/>
<text stroke="none" fill="white" font-size="16" x="106" y="64">
x1.comp_out_n-2
</text>
<path stroke="#A52A2A" d="M50 613l1 0 1 -9 0 -22 1 -19M53 564l0 -3M53 564l1 6M54 613l0 -43M54 613l514 0M568 614l0 -167M568 449l13 0M581 468l0 -22M581 468l1 137M582 613l0 -8M582 613l39 0M621 614l0 -167M621 449l13 0M634 613l0 -173M634 613l40 0"/>
<path stroke="#A52A2A" d="M674 613l0 -165M674 449l13 0M687 613l0 -171M687 613l66 0 1 -155 0 -10M754 449l12 0M766 613l0 -173M766 613l208 0"/>
</svg>
