<?xml version="1.0" standalone="yes"?>
<!DOCTYPE svg PUBLIC "-//W3C//DTD SVG 1.1//EN"
 "http://www.w3.org/Graphics/SVG/1.1/DTD/svg11.dtd">
<svg xmlns="http://www.w3.org/2000/svg" version="1.1"
  width="100%" height="100%" viewBox="0 0 1024 768"
  style="fill: none; font-family: Helvetica;
 font: Helvetica;
">

<!-- Creator: NGspice -->

<rect x="0" y="0" width="1024" height="768" fill="black" stroke="none"/>
<text stroke="none" fill="white" font-size="16" x="358" y="752">
time
</text>
<text stroke="none" fill="white" font-size="16" x="10" y="16">
tran1: run790_vin-0.205226
</text>
<path stroke="white" d="M50 704l0 -637"/>
<text stroke="none" fill="white" font-size="16" x="35" y="728">
0.0
</text>
<path stroke="white" stroke-dasharray="1,2" d="M182 704l0 -637"/>
<text stroke="none" fill="white" font-size="16" x="157" y="728">
100.0
</text>
<path stroke="white" stroke-dasharray="1,2" d="M314 704l0 -637"/>
<text stroke="none" fill="white" font-size="16" x="289" y="728">
200.0
</text>
<path stroke="white" stroke-dasharray="1,2" d="M446 704l0 -637"/>
<text stroke="none" fill="white" font-size="16" x="421" y="728">
300.0
</text>
<path stroke="white" stroke-dasharray="1,2" d="M578 704l0 -637"/>
<text stroke="none" fill="white" font-size="16" x="553" y="728">
400.0
</text>
<path stroke="white" stroke-dasharray="1,2" d="M710 704l0 -637"/>
<text stroke="none" fill="white" font-size="16" x="685" y="728">
500.0
</text>
<path stroke="white" stroke-dasharray="1,2" d="M842 704l0 -637"/>
<text stroke="none" fill="white" font-size="16" x="817" y="728">
600.0
</text>
<path stroke="white" stroke-dasharray="1,2" d="M974 704l0 -637"/>
<text stroke="none" fill="white" font-size="16" x="949" y="728">
700.0
</text>
<text stroke="none" fill="white" font-size="16" x="614" y="752">
ns
</text>
<path stroke="white" stroke-dasharray="1,2" d="M50 704l924 0"/>
<text stroke="none" fill="white" font-size="16" x="8" y="712">
-3.0
</text>
<path stroke="white" stroke-dasharray="1,2" d="M50 613l924 0"/>
<text stroke="none" fill="white" font-size="16" x="8" y="621">
-2.0
</text>
<path stroke="white" stroke-dasharray="1,2" d="M50 522l924 0"/>
<text stroke="none" fill="white" font-size="16" x="8" y="530">
-1.0
</text>
<path stroke="white" d="M50 431l924 0"/>
<text stroke="none" fill="white" font-size="16" x="18" y="439">
0.0
</text>
<path stroke="white" stroke-dasharray="1,2" d="M50 340l924 0"/>
<text stroke="none" fill="white" font-size="16" x="18" y="348">
1.0
</text>
<path stroke="white" stroke-dasharray="1,2" d="M50 249l924 0"/>
<text stroke="none" fill="white" font-size="16" x="18" y="257">
2.0
</text>
<path stroke="white" stroke-dasharray="1,2" d="M50 158l924 0"/>
<text stroke="none" fill="white" font-size="16" x="18" y="166">
3.0
</text>
<path stroke="white" stroke-dasharray="1,2" d="M50 67l924 0"/>
<text stroke="none" fill="white" font-size="16" x="18" y="75">
4.0
</text>
<text stroke="none" fill="white" font-size="16" x="10" y="32">
     
</text>
<path stroke="red" d="M462 23l46 0"/>
<text stroke="none" fill="white" font-size="16" x="518" y="32">
x1.vsampled_p
</text>
<path stroke="red" d="M50 431l1 0 1 -7 0 -15 1 -14 0 -5 1 2M54 415l0 -39 1 -5 0 -14 1 -3 0 -2 1 -2 2 0 1 -1 4 0M64 350l0 -1M64 350l4 0 1 -1 48 0M117 352l0 -3M117 352l1 5M118 364l0 -7M118 364l1 2 2 2 425 0 0 -19 1 -4 0 -27 1 -5 0 -3 1 -2 0 -1"/>
<path stroke="red" d="M549 307l5 0 0 -1M554 307l13 0M567 308l0 -1 7 0M574 334l0 -27M574 334l1 4M575 349l0 -11M575 349l1 1 0 -1 1 -1 3 0 0 -1 13 0M593 348l0 -1M593 348l13 0 0 -1 13 0M619 348l0 -1M619 348l1 0 0 -1M620 348l13 0 0 -1 13 0M646 348l0 -1"/>
<path stroke="red" d="M646 348l13 0 0 -1 13 0M672 348l0 -1 1 0M673 348l0 -1M673 348l13 0 0 -1 12 0 1 1 0 -1M699 348l7 0M706 351l0 -3M706 351l1 0 0 -1 24 0 0 -3 1 0M732 348l0 -1M732 348l27 0M759 350l0 -2M759 349l19 0M778 350l0 -1 26 0M804 350l0 -1"/>
<path stroke="red" d="M804 349l9 0M813 350l0 -1 17 0 1 1 0 -1 26 0M857 350l0 -1 26 0M883 350l0 -1 27 0M910 350l0 -1 7 0 1 1M918 368l0 -19M918 368l1 2M919 371l0 -2 1 0 0 -1 54 0"/>
<path stroke="blue" d="M50 23l46 0"/>
<text stroke="none" fill="white" font-size="16" x="106" y="32">
x1.vsampled_n
</text>
<path stroke="blue" d="M50 431l1 0 1 -7 0 -15 1 -15 0 -4 1 1M54 415l0 -39 1 -5 0 -14 1 -3 0 -2 1 -2 2 0 1 -1 4 0M64 350l0 -1M64 350l4 0 1 -1 48 0 1 -6 0 -8 1 -3 1 -1 2 0 0 -1 417 0M539 331l0 -1M539 331l15 0 0 -1M554 331l26 0 0 -1M580 331l20 0"/>
<path stroke="blue" d="M600 348l0 -17M600 348l1 3M601 354l0 -3M601 353l1 -1 0 -1 24 0 0 -15 1 -2 0 -1 19 0M646 334l0 -1 7 0M653 343l0 -10M653 343l1 1M654 345l0 -1 2 0 0 -1 16 0M672 344l0 -1 7 0M679 348l0 -5M679 348l1 1M680 350l0 -1 6 0 0 -1 12 0"/>
<path stroke="blue" d="M698 348l1 1 0 -1M699 349l13 0 0 -1 13 0M725 349l0 -1M725 349l13 0 0 -1 13 0M751 349l0 -1M751 349l1 0 0 -1M752 349l13 0 0 -1 13 0M778 349l0 -1M778 349l7 0M785 350l0 -1M785 350l1 0 0 -1 132 0M918 350l0 -13 1 -2 0 -4 1 -1"/>
<path stroke="blue" d="M920 330l1 0M921 331l0 -1M921 331l2 0 0 -1M923 331l27 0 0 -1M950 331l12 0 0 -1 12 0"/>
<path stroke="#FFA500" d="M462 39l46 0"/>
<text stroke="none" fill="white" font-size="16" x="518" y="48">
x1.vsampled_p-x1.vsampled_n
</text>
<path stroke="#FFA500" d="M50 431l67 0M117 434l0 -3M117 434l1 11M118 460l0 -15M118 460l1 5 1 2M120 468l0 -1M120 468l426 0 0 -19 1 -3 0 -28 1 -5 0 -3 1 -2 1 -1 17 0M567 408l0 -1 7 0M574 435l0 -28M574 435l1 4M575 450l0 -11M575 450l1 0 0 -1 1 0"/>
<path stroke="#FFA500" d="M577 449l0 -1 16 0 0 -1M593 448l7 0 0 -18 1 -3 0 -2 1 1M602 427l0 -1M602 427l17 0M619 428l0 -1 7 0M626 443l0 -16M626 443l1 1M627 446l0 -2M627 446l1 0 0 -1 18 0M646 446l0 -1 7 0 0 -9 1 -1 0 -1 1 1 24 0 0 -5 1 0 0 -2M680 430l26 0"/>
<path stroke="#FFA500" d="M706 433l0 -3M706 433l1 1 0 -1 18 0 0 -1M725 433l6 0 0 -4 1 0M732 430l0 -1M732 430l27 0M759 433l0 -3M759 432l26 0 0 -2 1 0M786 431l0 -1M786 431l27 0M813 432l0 -1 104 0 1 1M918 462l0 -33M918 462l1 4M919 470l0 -4M919 470l1 -1"/>
<path stroke="#FFA500" d="M920 469l1 0 0 -1 2 0M923 469l0 -1 27 0M950 469l0 -1 24 0"/>
<path stroke="green" d="M50 39l46 0"/>
<text stroke="none" fill="white" font-size="16" x="106" y="48">
x1.sw_sample-2
</text>
<path stroke="green" d="M50 613l1 0 1 -9 0 -21 1 -21M53 581l0 -25M53 581l1 29M54 613l0 -3M54 613l63 0M117 620l0 -172M117 449l422 0M539 614l0 -173M539 613l422 0M961 618l0 -170 1 1 12 0"/>
<path stroke="#FFC0C5" d="M462 55l46 0"/>
<text stroke="none" fill="white" font-size="16" x="518" y="64">
x1.comp_out_p+2
</text>
<path stroke="#FFC0C5" d="M50 249l1 0 1 -9 0 -22 1 -18 0 -4M53 198l1 5M54 249l0 -46M54 249l514 0M568 251l0 -168M568 85l13 0 0 -8 1 158M582 249l0 -14M582 249l39 0 0 -165M621 85l13 0M634 249l0 -172M634 249l66 0 0 -163 1 -2M701 85l0 -1M701 85l12 0"/>
<path stroke="#FFC0C5" d="M713 85l0 -8 1 162M714 250l0 -11M714 249l39 0 0 -165 1 1 12 0M766 250l0 -170M766 249l41 0 0 -149 1 -16M808 85l0 -1M808 85l11 0M819 249l0 -169M819 249l41 0 0 -165 1 1 11 0M872 249l0 -174M872 249l14 0 1 -157 0 -8M887 85l11 0"/>
<path stroke="#FFC0C5" d="M898 249l0 -174M898 249l15 0 0 -165M913 85l12 0M925 250l0 -174M925 249l49 0"/>
<path stroke="#A52A2A" d="M50 55l46 0"/>
<text stroke="none" fill="white" font-size="16" x="106" y="64">
x1.comp_out_n-2
</text>
<path stroke="#A52A2A" d="M50 613l1 0 1 -9 0 -22 1 -19M53 564l0 -3M53 564l1 6M54 613l0 -43M54 613l487 0 1 1 0 -167M542 449l13 0M555 614l0 -165M555 613l39 0M594 616l0 -169M594 449l14 0M608 614l0 -169M608 613l39 0 0 -166M647 449l14 0M661 614l0 -168"/>
<path stroke="#A52A2A" d="M661 613l12 0M673 614l0 -1M673 614l1 -66 0 -100M674 449l13 0M687 613l0 -174M687 613l40 0 0 -165M727 449l13 0M740 613l0 -174M740 613l40 0 0 -165M780 449l13 0M793 613l0 -166M793 613l41 0 0 -165M834 449l11 0 0 -2M845 449l1 153"/>
<path stroke="#A52A2A" d="M846 613l0 -11M846 613l91 0 1 -56 0 -109M938 449l13 0M951 614l0 -167M951 613l23 0"/>
</svg>
