<?xml version="1.0" standalone="yes"?>
<!DOCTYPE svg PUBLIC "-//W3C//DTD SVG 1.1//EN"
 "http://www.w3.org/Graphics/SVG/1.1/DTD/svg11.dtd">
<svg xmlns="http://www.w3.org/2000/svg" version="1.1"
  width="100%" height="100%" viewBox="0 0 1024 768"
  style="fill: none; font-family: Helvetica;
 font: Helvetica;
">

<!-- Creator: NGspice -->

<rect x="0" y="0" width="1024" height="768" fill="black" stroke="none"/>
<text stroke="none" fill="white" font-size="16" x="358" y="752">
time
</text>
<text stroke="none" fill="white" font-size="16" x="10" y="16">
tran1: run927_vin-0.0848156
</text>
<path stroke="white" d="M50 704l0 -637"/>
<text stroke="none" fill="white" font-size="16" x="35" y="728">
0.0
</text>
<path stroke="white" stroke-dasharray="1,2" d="M182 704l0 -637"/>
<text stroke="none" fill="white" font-size="16" x="157" y="728">
100.0
</text>
<path stroke="white" stroke-dasharray="1,2" d="M314 704l0 -637"/>
<text stroke="none" fill="white" font-size="16" x="289" y="728">
200.0
</text>
<path stroke="white" stroke-dasharray="1,2" d="M446 704l0 -637"/>
<text stroke="none" fill="white" font-size="16" x="421" y="728">
300.0
</text>
<path stroke="white" stroke-dasharray="1,2" d="M578 704l0 -637"/>
<text stroke="none" fill="white" font-size="16" x="553" y="728">
400.0
</text>
<path stroke="white" stroke-dasharray="1,2" d="M710 704l0 -637"/>
<text stroke="none" fill="white" font-size="16" x="685" y="728">
500.0
</text>
<path stroke="white" stroke-dasharray="1,2" d="M842 704l0 -637"/>
<text stroke="none" fill="white" font-size="16" x="817" y="728">
600.0
</text>
<path stroke="white" stroke-dasharray="1,2" d="M974 704l0 -637"/>
<text stroke="none" fill="white" font-size="16" x="949" y="728">
700.0
</text>
<text stroke="none" fill="white" font-size="16" x="614" y="752">
ns
</text>
<path stroke="white" stroke-dasharray="1,2" d="M50 704l924 0"/>
<text stroke="none" fill="white" font-size="16" x="8" y="712">
-3.0
</text>
<path stroke="white" stroke-dasharray="1,2" d="M50 613l924 0"/>
<text stroke="none" fill="white" font-size="16" x="8" y="621">
-2.0
</text>
<path stroke="white" stroke-dasharray="1,2" d="M50 522l924 0"/>
<text stroke="none" fill="white" font-size="16" x="8" y="530">
-1.0
</text>
<path stroke="white" d="M50 431l924 0"/>
<text stroke="none" fill="white" font-size="16" x="18" y="439">
0.0
</text>
<path stroke="white" stroke-dasharray="1,2" d="M50 340l924 0"/>
<text stroke="none" fill="white" font-size="16" x="18" y="348">
1.0
</text>
<path stroke="white" stroke-dasharray="1,2" d="M50 249l924 0"/>
<text stroke="none" fill="white" font-size="16" x="18" y="257">
2.0
</text>
<path stroke="white" stroke-dasharray="1,2" d="M50 158l924 0"/>
<text stroke="none" fill="white" font-size="16" x="18" y="166">
3.0
</text>
<path stroke="white" stroke-dasharray="1,2" d="M50 67l924 0"/>
<text stroke="none" fill="white" font-size="16" x="18" y="75">
4.0
</text>
<text stroke="none" fill="white" font-size="16" x="10" y="32">
     
</text>
<path stroke="red" d="M462 23l46 0"/>
<text stroke="none" fill="white" font-size="16" x="518" y="32">
x1.vsampled_p
</text>
<path stroke="red" d="M50 431l1 0 1 -7 0 -15 1 -14 0 -5 1 2M54 415l0 -39 1 -5 0 -15 1 -2 0 -2 1 -2 2 0 1 -1 4 0M64 350l0 -1M64 350l4 0 1 -1 48 0M117 350l0 -1M117 350l1 2M118 354l0 -2M118 354l1 2 1 1 426 0 0 -25 1 -2 0 -21 1 -6 0 -5 1 -1 0 -1"/>
<path stroke="red" d="M549 296l5 0 0 -1M554 296l13 0M567 297l0 -1 6 0 1 7M574 326l0 -23M574 326l1 8M575 339l0 -5M575 339l2 -2 3 0 0 -1M580 337l13 0 0 -1M593 337l7 0M600 355l0 -18M600 355l1 3M601 360l0 -2M601 359l1 -1 0 -1 23 0 0 -11 1 -1 0 -6"/>
<path stroke="red" d="M626 339l20 0M646 340l0 -1 7 0M653 348l0 -9M653 348l1 2M654 351l0 -1 1 0 1 -1 16 0M672 350l0 -1 26 0 1 1 0 -1 26 0M725 350l0 -1 8 0 0 -3M733 347l18 0M751 348l0 -1 8 0M759 350l0 -3M759 348l19 0M778 349l0 -1 7 0M785 349l0 -1"/>
<path stroke="red" d="M785 349l1 0M786 350l0 -1 26 0M812 350l0 -1M812 350l1 -1 17 0 1 1 0 -1 86 0M917 350l0 -1M917 350l1 0M918 360l0 -10M918 358l1 0 0 -1 55 0"/>
<path stroke="blue" d="M50 23l46 0"/>
<text stroke="none" fill="white" font-size="16" x="106" y="32">
x1.vsampled_n
</text>
<path stroke="blue" d="M50 431l1 0 1 -7 0 -15 1 -15 0 -4 1 1M54 415l0 -39 1 -5 0 -15 1 -2 0 -2 1 -2 2 0 1 -1 4 0M64 350l0 -1M64 350l4 0 1 -1 48 0 1 -3 0 -2 1 -1 0 -1 2 0 0 -1 418 0M539 342l0 -1M539 342l15 0 0 -1M554 342l12 0 0 -1M566 342l14 0"/>
<path stroke="blue" d="M580 342l0 -1M580 342l26 0 0 -1 1 0M607 342l0 -1M607 342l26 0 0 -1M633 342l26 0 0 -1M659 342l20 0M679 348l0 -6M679 348l1 1 0 -2 6 0 0 -1M686 347l20 0M706 350l0 -3M706 350l1 0 0 -1 18 0M725 350l0 -1 26 0M751 350l0 -1M751 350l1 0"/>
<path stroke="blue" d="M752 350l0 -1 26 0M778 350l0 -1 26 0M804 350l0 -1 27 0M831 350l0 -1 26 0M857 350l0 -1 26 0M883 350l0 -1 27 0M910 350l0 -1 8 0 0 -8 1 0 1 1 3 0 0 -1M923 342l27 0 0 -1M950 342l11 0 0 -1 13 0"/>
<path stroke="#FFA500" d="M462 39l46 0"/>
<text stroke="none" fill="white" font-size="16" x="518" y="48">
x1.vsampled_p-x1.vsampled_n
</text>
<path stroke="#FFA500" d="M50 431l67 0M117 432l0 -1M117 432l1 5M118 441l0 -4M118 441l1 3M119 445l0 -1M119 445l1 1 426 0 0 -25 1 -1 0 -21 1 -6 0 -6 2 -2 17 0M567 386l0 -1 6 0M573 386l0 -1M573 386l1 7M574 416l0 -23M574 416l1 8M575 428l0 -4M575 428l1 0"/>
<path stroke="#FFA500" d="M576 428l0 -1 1 0 0 -1 23 0M600 444l0 -18M600 444l1 3M601 450l0 -3M601 449l1 -2 1 -1 3 0M606 447l0 -1M606 447l1 0 0 -1 18 0 0 -10 1 -1 0 -6 1 -1 2 0M629 429l0 -1M629 429l4 0 0 -1M633 429l13 0 0 -1M646 429l7 0M653 437l0 -9"/>
<path stroke="#FFA500" d="M653 437l1 2M654 440l0 -1M654 440l1 -1 24 0 0 -7 1 0M680 433l0 -1M680 433l1 1 25 0 0 -4 1 1 26 0 0 -3M733 429l26 0M759 431l0 -2M759 430l26 0M785 431l0 -1M785 431l27 0M812 432l0 -1 27 0 0 -1M839 431l78 0M917 432l0 -1"/>
<path stroke="#FFA500" d="M917 432l1 0M918 450l0 -18M918 449l1 -1 0 -1 1 0 1 -1 2 0M923 447l0 -1 27 0M950 447l0 -1 24 0"/>
<path stroke="green" d="M50 39l46 0"/>
<text stroke="none" fill="white" font-size="16" x="106" y="48">
x1.sw_sample-2
</text>
<path stroke="green" d="M50 613l1 0 1 -9 0 -21 1 -21M53 581l0 -25M53 581l1 29M54 613l0 -3M54 613l63 0M117 620l0 -172M117 449l422 0M539 614l0 -171M539 613l422 0M961 618l0 -170 1 1 12 0"/>
<path stroke="#FFC0C5" d="M462 55l46 0"/>
<text stroke="none" fill="white" font-size="16" x="518" y="64">
x1.comp_out_p+2
</text>
<path stroke="#FFC0C5" d="M50 249l1 0 1 -9 0 -22 1 -18 0 -4M53 198l1 5M54 249l0 -46M54 249l514 0M568 251l0 -167M568 85l13 0 0 -8 1 159M582 249l0 -13M582 249l12 0 0 -165M594 85l14 0M608 250l0 -173M608 249l39 0 0 -165M647 85l14 0M661 249l0 -173"/>
<path stroke="#FFC0C5" d="M661 249l92 0 0 -165M753 85l13 0M766 250l0 -173M766 250l1 -1 13 0 0 -165M780 85l13 0M793 250l0 -169M793 249l14 0 0 -165 1 1 11 0M819 250l0 -171M819 249l41 0 0 -165M860 85l12 0M872 250l0 -169M872 249l14 0 0 -157 1 -8"/>
<path stroke="#FFC0C5" d="M887 85l0 -1M887 85l11 0M898 250l0 -169M898 249l14 0 1 -157 0 -8M913 85l12 0M925 249l0 -172M925 249l49 0"/>
<path stroke="#A52A2A" d="M50 55l46 0"/>
<text stroke="none" fill="white" font-size="16" x="106" y="64">
x1.comp_out_n-2
</text>
<path stroke="#A52A2A" d="M50 613l1 0 1 -9 0 -22 1 -19M53 564l0 -3M53 564l1 6M54 613l0 -43M54 613l487 0 1 2 0 -168M542 449l13 0M555 614l0 -166M555 613l13 0M568 614l0 -1 53 0M621 615l0 -168M621 449l13 0M634 613l0 -173M634 613l39 0 0 -63 1 -90"/>
<path stroke="#A52A2A" d="M674 460l0 -12M674 449l13 0M687 613l0 -171M687 613l13 0M700 614l0 -167M700 449l13 0 0 -8 1 154M714 613l0 -18M714 613l14 0 0 -157 1 -8M729 449l0 -1M729 449l11 0M740 613l0 -174M740 613l94 0 0 -165 1 1 10 0 0 -10 1 152"/>
<path stroke="#A52A2A" d="M846 613l0 -22M846 613l91 0 1 2 0 -168M938 449l13 0M951 613l0 -173M951 613l23 0"/>
</svg>
