<?xml version="1.0" standalone="yes"?>
<!DOCTYPE svg PUBLIC "-//W3C//DTD SVG 1.1//EN"
 "http://www.w3.org/Graphics/SVG/1.1/DTD/svg11.dtd">
<svg xmlns="http://www.w3.org/2000/svg" version="1.1"
  width="100%" height="100%" viewBox="0 0 1024 768"
  style="fill: none; font-family: Helvetica;
 font: Helvetica;
">

<!-- Creator: NGspice -->

<rect x="0" y="0" width="1024" height="768" fill="black" stroke="none"/>
<text stroke="none" fill="white" font-size="16" x="358" y="752">
time
</text>
<text stroke="none" fill="white" font-size="16" x="10" y="16">
tran1: run924_vin-0.0874523
</text>
<path stroke="white" d="M50 704l0 -637"/>
<text stroke="none" fill="white" font-size="16" x="35" y="728">
0.0
</text>
<path stroke="white" stroke-dasharray="1,2" d="M182 704l0 -637"/>
<text stroke="none" fill="white" font-size="16" x="157" y="728">
100.0
</text>
<path stroke="white" stroke-dasharray="1,2" d="M314 704l0 -637"/>
<text stroke="none" fill="white" font-size="16" x="289" y="728">
200.0
</text>
<path stroke="white" stroke-dasharray="1,2" d="M446 704l0 -637"/>
<text stroke="none" fill="white" font-size="16" x="421" y="728">
300.0
</text>
<path stroke="white" stroke-dasharray="1,2" d="M578 704l0 -637"/>
<text stroke="none" fill="white" font-size="16" x="553" y="728">
400.0
</text>
<path stroke="white" stroke-dasharray="1,2" d="M710 704l0 -637"/>
<text stroke="none" fill="white" font-size="16" x="685" y="728">
500.0
</text>
<path stroke="white" stroke-dasharray="1,2" d="M842 704l0 -637"/>
<text stroke="none" fill="white" font-size="16" x="817" y="728">
600.0
</text>
<path stroke="white" stroke-dasharray="1,2" d="M974 704l0 -637"/>
<text stroke="none" fill="white" font-size="16" x="949" y="728">
700.0
</text>
<text stroke="none" fill="white" font-size="16" x="614" y="752">
ns
</text>
<path stroke="white" stroke-dasharray="1,2" d="M50 704l924 0"/>
<text stroke="none" fill="white" font-size="16" x="8" y="712">
-3.0
</text>
<path stroke="white" stroke-dasharray="1,2" d="M50 613l924 0"/>
<text stroke="none" fill="white" font-size="16" x="8" y="621">
-2.0
</text>
<path stroke="white" stroke-dasharray="1,2" d="M50 522l924 0"/>
<text stroke="none" fill="white" font-size="16" x="8" y="530">
-1.0
</text>
<path stroke="white" d="M50 431l924 0"/>
<text stroke="none" fill="white" font-size="16" x="18" y="439">
0.0
</text>
<path stroke="white" stroke-dasharray="1,2" d="M50 340l924 0"/>
<text stroke="none" fill="white" font-size="16" x="18" y="348">
1.0
</text>
<path stroke="white" stroke-dasharray="1,2" d="M50 249l924 0"/>
<text stroke="none" fill="white" font-size="16" x="18" y="257">
2.0
</text>
<path stroke="white" stroke-dasharray="1,2" d="M50 158l924 0"/>
<text stroke="none" fill="white" font-size="16" x="18" y="166">
3.0
</text>
<path stroke="white" stroke-dasharray="1,2" d="M50 67l924 0"/>
<text stroke="none" fill="white" font-size="16" x="18" y="75">
4.0
</text>
<text stroke="none" fill="white" font-size="16" x="10" y="32">
     
</text>
<path stroke="red" d="M462 23l46 0"/>
<text stroke="none" fill="white" font-size="16" x="518" y="32">
x1.vsampled_p
</text>
<path stroke="red" d="M50 431l1 0 1 -7 0 -15 1 -14 0 -5 1 2M54 415l0 -39 1 -5 0 -15 1 -2 0 -2 1 -2 2 0 1 -1 4 0M64 350l0 -1M64 350l4 0 1 -1 48 0M117 350l0 -1M117 350l1 2M118 354l0 -2M118 354l1 2 1 1 420 0M540 358l0 -1 6 0 0 -22 1 -1 0 -28 1 -5"/>
<path stroke="red" d="M548 301l0 -2 1 -2 1 -1 4 0 0 -1M554 296l13 0M567 298l0 -2 7 0M574 324l0 -28M574 324l1 7M575 338l0 -7M575 338l1 1 0 -1 1 -1 3 0 0 -1M580 337l20 0M600 352l0 -15M600 352l1 2M601 361l0 -7M601 360l1 -2 1 -1 16 0M619 358l0 -1"/>
<path stroke="red" d="M619 357l6 0 0 -8 1 -2 0 -8 20 0M646 340l0 -1 7 0M653 348l0 -9M653 348l1 2M654 351l0 -1M654 351l1 -1 4 0 0 -1M659 350l13 0 0 -1M672 350l14 0 0 -1M686 350l13 0 0 -1M699 350l13 0 0 -1M712 350l13 0 0 -1M725 350l7 0 0 -4M732 347l19 0"/>
<path stroke="red" d="M751 348l0 -1M751 348l1 0 0 -1 7 0M759 350l0 -3M759 349l6 0 0 -1M765 349l21 0M786 350l0 -1 18 0M804 350l0 -1 27 0M831 350l0 -1 26 0M857 350l0 -1 26 0M883 350l0 -1 27 0M910 350l0 -1 8 0M918 361l0 -12M918 361l1 -2 0 -2 17 0"/>
<path stroke="red" d="M936 358l0 -1 38 0"/>
<path stroke="blue" d="M50 23l46 0"/>
<text stroke="none" fill="white" font-size="16" x="106" y="32">
x1.vsampled_n
</text>
<path stroke="blue" d="M50 431l1 0 1 -7 0 -15 1 -15 0 -4 1 1M54 415l0 -39 1 -5 0 -15 1 -2 0 -2 1 -2 2 0 1 -1 4 0M64 350l0 -1M64 350l4 0 1 -1 48 0 1 -3 0 -2 1 -1 0 -1 1 -1 420 0M540 342l0 -1 27 0M567 342l0 -1 26 0M593 342l0 -1 26 0M619 342l0 -1"/>
<path stroke="blue" d="M619 341l27 0M646 342l0 -1 26 0M672 342l0 -1 7 0M679 347l0 -6M679 347l1 1 0 -1 2 0 1 -1 15 0 1 1 0 -1 7 0M706 350l0 -4M706 350l1 0 0 -1 106 0M813 350l0 -1 18 0M831 350l0 -1 87 0M918 350l0 -9 1 -1M919 341l0 -1M919 341l17 0"/>
<path stroke="blue" d="M936 342l0 -1 38 0"/>
<path stroke="#FFA500" d="M462 39l46 0"/>
<text stroke="none" fill="white" font-size="16" x="518" y="48">
x1.vsampled_p-x1.vsampled_n
</text>
<path stroke="#FFA500" d="M50 431l67 0M117 432l0 -1M117 432l1 5M118 441l0 -4M118 441l1 3M119 446l0 -2M119 446l1 0 1 1 425 0 0 -22 1 -2 0 -28 1 -5 0 -2 1 -1 0 -1 5 0 0 -1M554 386l13 0M567 387l0 -2M567 386l7 0M574 413l0 -28M574 413l1 8M575 428l0 -7"/>
<path stroke="#FFA500" d="M575 428l1 0 0 -1 3 0 0 -1 14 0M593 427l0 -1 7 0M600 441l0 -15M600 441l1 3M601 450l0 -6M601 449l1 -1 0 -1 23 0 0 -8 1 -2 0 -8 27 0M653 438l0 -9M653 438l1 2M654 441l0 -1 1 0 0 -1 24 0 0 -6 1 -1M680 434l0 -2M680 434l26 0"/>
<path stroke="#FFA500" d="M706 434l0 -3 1 0M707 432l0 -1M707 432l25 0 0 -4M732 429l27 0M759 432l0 -3M759 431l27 0M786 432l0 -1 27 0 0 -1M813 431l25 0M838 432l0 -1 80 0M918 451l0 -21M918 451l1 -1 0 -3 55 0"/>
<path stroke="green" d="M50 39l46 0"/>
<text stroke="none" fill="white" font-size="16" x="106" y="48">
x1.sw_sample-2
</text>
<path stroke="green" d="M50 613l1 0 1 -9 0 -21 1 -21M53 581l0 -25M53 581l1 29M54 613l0 -3M54 613l63 0M117 620l0 -172M117 449l422 0M539 614l0 -171M539 613l422 0M961 618l0 -170 1 1 12 0"/>
<path stroke="#FFC0C5" d="M462 55l46 0"/>
<text stroke="none" fill="white" font-size="16" x="518" y="64">
x1.comp_out_p+2
</text>
<path stroke="#FFC0C5" d="M50 249l1 0 1 -9 0 -22 1 -18 0 -4M53 198l1 5M54 249l0 -46M54 249l514 0 0 -165M568 85l13 0 0 -8 1 156M582 249l0 -16M582 249l12 0M594 251l0 -167 1 1 13 0M608 249l0 -174M608 249l39 0 0 -166M647 85l14 0M661 249l0 -173M661 249l92 0"/>
<path stroke="#FFC0C5" d="M753 249l0 -165M753 85l13 0M766 250l0 -169M766 249l14 0 0 -165 1 1 12 0M793 249l0 -173M793 249l41 0 0 -165M834 85l11 0 0 -10 1 143M846 249l0 -31M846 249l128 0"/>
<path stroke="#A52A2A" d="M50 55l46 0"/>
<text stroke="none" fill="white" font-size="16" x="106" y="64">
x1.comp_out_n-2
</text>
<path stroke="#A52A2A" d="M50 613l1 0 1 -9 0 -22 1 -19M53 564l0 -3M53 564l1 6M54 613l0 -43M54 613l487 0 1 1 0 -167M542 449l13 0M555 613l0 -172M555 613l66 0M621 614l0 -167M621 449l13 0M634 613l0 -173M634 613l39 0M673 614l0 -95 1 -63 0 -9M674 449l13 0"/>
<path stroke="#A52A2A" d="M687 613l0 -173M687 613l13 0M700 614l0 -167M700 449l13 0 0 -7 1 158M714 613l0 -13M714 613l13 0 1 -158 0 -7M728 449l12 0M740 613l0 -171M740 613l67 0 0 -165 1 1 11 0M819 614l0 -171M819 613l41 0 0 -165M860 449l12 0M872 613l0 -167"/>
<path stroke="#A52A2A" d="M872 613l14 0 0 -164 1 -1M887 449l0 -1M887 449l11 0M898 613l0 -167M898 613l15 0 0 -165M913 449l12 0M925 613l0 -173M925 613l12 0 1 5 0 -171M938 449l13 0M951 613l0 -173M951 613l23 0"/>
</svg>
