<?xml version="1.0" standalone="yes"?>
<!DOCTYPE svg PUBLIC "-//W3C//DTD SVG 1.1//EN"
 "http://www.w3.org/Graphics/SVG/1.1/DTD/svg11.dtd">
<svg xmlns="http://www.w3.org/2000/svg" version="1.1"
  width="100%" height="100%" viewBox="0 0 1024 768"
  style="fill: none; font-family: Helvetica;
 font: Helvetica;
">

<!-- Creator: NGspice -->

<rect x="0" y="0" width="1024" height="768" fill="black" stroke="none"/>
<text stroke="none" fill="white" font-size="16" x="358" y="752">
time
</text>
<text stroke="none" fill="white" font-size="16" x="10" y="16">
tran1: run990_vin-0.0294446
</text>
<path stroke="white" d="M50 704l0 -637"/>
<text stroke="none" fill="white" font-size="16" x="35" y="728">
0.0
</text>
<path stroke="white" stroke-dasharray="1,2" d="M182 704l0 -637"/>
<text stroke="none" fill="white" font-size="16" x="157" y="728">
100.0
</text>
<path stroke="white" stroke-dasharray="1,2" d="M314 704l0 -637"/>
<text stroke="none" fill="white" font-size="16" x="289" y="728">
200.0
</text>
<path stroke="white" stroke-dasharray="1,2" d="M446 704l0 -637"/>
<text stroke="none" fill="white" font-size="16" x="421" y="728">
300.0
</text>
<path stroke="white" stroke-dasharray="1,2" d="M578 704l0 -637"/>
<text stroke="none" fill="white" font-size="16" x="553" y="728">
400.0
</text>
<path stroke="white" stroke-dasharray="1,2" d="M710 704l0 -637"/>
<text stroke="none" fill="white" font-size="16" x="685" y="728">
500.0
</text>
<path stroke="white" stroke-dasharray="1,2" d="M842 704l0 -637"/>
<text stroke="none" fill="white" font-size="16" x="817" y="728">
600.0
</text>
<path stroke="white" stroke-dasharray="1,2" d="M974 704l0 -637"/>
<text stroke="none" fill="white" font-size="16" x="949" y="728">
700.0
</text>
<text stroke="none" fill="white" font-size="16" x="614" y="752">
ns
</text>
<path stroke="white" stroke-dasharray="1,2" d="M50 704l924 0"/>
<text stroke="none" fill="white" font-size="16" x="8" y="712">
-3.0
</text>
<path stroke="white" stroke-dasharray="1,2" d="M50 613l924 0"/>
<text stroke="none" fill="white" font-size="16" x="8" y="621">
-2.0
</text>
<path stroke="white" stroke-dasharray="1,2" d="M50 522l924 0"/>
<text stroke="none" fill="white" font-size="16" x="8" y="530">
-1.0
</text>
<path stroke="white" d="M50 431l924 0"/>
<text stroke="none" fill="white" font-size="16" x="18" y="439">
0.0
</text>
<path stroke="white" stroke-dasharray="1,2" d="M50 340l924 0"/>
<text stroke="none" fill="white" font-size="16" x="18" y="348">
1.0
</text>
<path stroke="white" stroke-dasharray="1,2" d="M50 249l924 0"/>
<text stroke="none" fill="white" font-size="16" x="18" y="257">
2.0
</text>
<path stroke="white" stroke-dasharray="1,2" d="M50 158l924 0"/>
<text stroke="none" fill="white" font-size="16" x="18" y="166">
3.0
</text>
<path stroke="white" stroke-dasharray="1,2" d="M50 67l924 0"/>
<text stroke="none" fill="white" font-size="16" x="18" y="75">
4.0
</text>
<text stroke="none" fill="white" font-size="16" x="10" y="32">
     
</text>
<path stroke="red" d="M462 23l46 0"/>
<text stroke="none" fill="white" font-size="16" x="518" y="32">
x1.vsampled_p
</text>
<path stroke="red" d="M50 431l1 0 1 -7 0 -15 1 -14 0 -5 1 1M54 415l0 -39 1 -5 0 -15 1 -3 0 -2 1 -1 2 0 1 -1 4 0M64 350l0 -1M64 350l4 0 1 -1 48 0 1 1M118 351l0 -1M118 351l1 0M119 352l0 -1M119 352l427 0 1 -5 0 -38 1 -8 0 -7 1 -1 0 -1 1 -1 4 0 0 -1"/>
<path stroke="red" d="M554 291l13 0M567 292l0 -1 7 0M574 320l0 -29M574 320l1 7M575 333l0 -6M575 333l1 0 1 -1 3 0 0 -1 13 0M593 332l0 -1M593 332l7 0M600 348l0 -16M600 348l1 3M601 356l0 -5M601 355l1 -2 0 -1 23 0 0 -6 1 -4 0 -7 1 -1 19 0M646 335l0 -1"/>
<path stroke="red" d="M646 334l7 0M653 344l0 -10M653 344l1 1M654 346l0 -1 1 0 1 -1 16 0M672 345l0 -1 7 0M679 348l0 -4M679 348l1 1M680 352l0 -3M680 350l1 0 0 -1 17 0 1 1 0 -1 26 0M725 350l0 -1 7 0 0 -3 1 0M733 347l0 -1M733 347l18 0M751 348l0 -1"/>
<path stroke="red" d="M751 347l8 0M759 350l0 -3M759 349l2 0 0 -1 17 0M778 349l0 -1 7 0M785 349l0 -1M785 349l1 0M786 350l0 -1 27 0M813 350l0 -1 17 0 1 1 0 -1 86 0 1 1M918 353l0 -3M918 353l1 -1 55 0"/>
<path stroke="blue" d="M50 23l46 0"/>
<text stroke="none" fill="white" font-size="16" x="106" y="32">
x1.vsampled_n
</text>
<path stroke="blue" d="M50 431l1 0 1 -7 0 -15 1 -15 0 -4 1 1M54 415l0 -39 1 -5 0 -15 1 -3 0 -2 1 -1 2 0 1 -1 4 0M64 350l0 -1M64 350l4 0 1 -1 48 0 1 -1 0 -1 2 0 1 -1 418 0M539 347l0 -1M539 347l15 0 0 -1M554 347l26 0 0 -1M580 347l26 0 0 -1 1 0"/>
<path stroke="blue" d="M607 347l0 -1M607 347l26 0 0 -1M633 347l26 0 0 -1M659 347l27 0 0 -1M686 347l20 0M706 350l0 -3M706 350l1 0 0 -1 18 0M725 350l0 -1 26 0M751 350l0 -1 27 0M778 350l0 -1 26 0M804 350l0 -1 27 0M831 350l0 -1 26 0M857 350l0 -1"/>
<path stroke="blue" d="M857 349l26 0M883 350l0 -1 27 0M910 350l0 -1 8 0 0 -3 1 0M919 347l0 -1M919 347l4 0 0 -1M923 347l27 0 0 -1M950 347l12 0 0 -1 12 0"/>
<path stroke="#FFA500" d="M462 39l46 0"/>
<text stroke="none" fill="white" font-size="16" x="518" y="48">
x1.vsampled_p-x1.vsampled_n
</text>
<path stroke="#FFA500" d="M50 431l67 0 1 2M118 434l0 -1M118 434l1 2 427 0M546 437l0 -1M546 437l1 -6 0 -37 1 -8 0 -8 1 -1 0 -1 1 0 1 -1 3 0 0 -1M554 375l13 0M567 376l0 -1 7 0M574 404l0 -29M574 404l1 7M575 418l0 -7M575 418l1 0 0 -1 1 -1 23 0M600 432l0 -16"/>
<path stroke="#FFA500" d="M600 432l1 3M601 440l0 -5M601 439l1 -1 0 -1 1 -1 22 0 0 -6 1 -3 0 -8 1 -1 3 0M630 419l0 -1M630 419l3 0 0 -1 13 0M646 419l0 -1M646 419l7 0M653 428l0 -10M653 428l1 2 0 -1 25 0M679 433l0 -4M679 433l1 1M680 436l0 -2 26 0"/>
<path stroke="#FFA500" d="M706 434l0 -4 1 1 25 0 0 -3 1 0M733 429l0 -1M733 429l26 0M759 431l0 -2M759 430l26 0 1 1M786 432l0 -1 27 0M813 432l0 -1 105 0M918 438l0 -7M918 437l1 0 1 -1 54 0"/>
<path stroke="green" d="M50 39l46 0"/>
<text stroke="none" fill="white" font-size="16" x="106" y="48">
x1.sw_sample-2
</text>
<path stroke="green" d="M50 613l1 0 1 -9 0 -21 1 -21M53 582l0 -26M53 582l1 28M54 613l0 -3M54 613l63 0M117 620l0 -172M117 449l422 0M539 614l0 -171M539 613l422 0M961 618l0 -170 1 1 12 0"/>
<path stroke="#FFC0C5" d="M462 55l46 0"/>
<text stroke="none" fill="white" font-size="16" x="518" y="64">
x1.comp_out_p+2
</text>
<path stroke="#FFC0C5" d="M50 249l1 0 1 -9 0 -22 1 -18 0 -4M53 198l1 5M54 249l0 -46M54 249l514 0M568 250l0 -166M568 85l13 0 0 -8 1 161M582 249l0 -11M582 249l12 0M594 250l0 -166M594 85l14 0M608 249l0 -173M608 249l39 0 0 -165M647 85l14 0M661 249l0 -171"/>
<path stroke="#FFC0C5" d="M661 249l12 0 1 2 0 -168M674 85l13 0M687 249l0 -172M687 249l66 0M753 250l0 -166M753 85l13 0M766 249l0 -172M766 249l14 0 0 -165M780 85l13 0M793 249l0 -174M793 249l14 0 0 -157 1 -8M808 85l0 -1M808 85l11 0M819 249l0 -169"/>
<path stroke="#FFC0C5" d="M819 249l41 0 0 -165 1 1 11 0M872 249l0 -174M872 249l14 0 1 -157 0 -8M887 85l11 0M898 249l0 -174M898 249l15 0 0 -165M913 85l12 0M925 250l0 -166M925 249l49 0"/>
<path stroke="#A52A2A" d="M50 55l46 0"/>
<text stroke="none" fill="white" font-size="16" x="106" y="64">
x1.comp_out_n-2
</text>
<path stroke="#A52A2A" d="M50 613l1 0 1 -9 0 -22 1 -19M53 564l0 -3M53 564l1 6M54 613l0 -43M54 613l488 0 0 -165M542 449l13 0M555 614l0 -169M555 613l13 0M568 614l0 -1 26 0M594 614l0 -1 27 0M621 616l0 -169M621 449l13 0M634 613l0 -173M634 613l66 0"/>
<path stroke="#A52A2A" d="M700 614l0 -167M700 449l13 0 0 -10 1 152M714 613l0 -22M714 613l14 0 0 -165M728 449l12 0M740 613l0 -174M740 613l94 0 0 -165M834 449l11 0M845 450l0 -3M845 450l1 152M846 613l0 -11M846 613l92 0 0 -165M938 449l13 0M951 613l0 -172"/>
<path stroke="#A52A2A" d="M951 613l23 0"/>
</svg>
