<?xml version="1.0" standalone="yes"?>
<!DOCTYPE svg PUBLIC "-//W3C//DTD SVG 1.1//EN"
 "http://www.w3.org/Graphics/SVG/1.1/DTD/svg11.dtd">
<svg xmlns="http://www.w3.org/2000/svg" version="1.1"
  width="100%" height="100%" viewBox="0 0 1024 768"
  style="fill: none; font-family: Helvetica;
 font: Helvetica;
">

<!-- Creator: NGspice -->

<rect x="0" y="0" width="1024" height="768" fill="black" stroke="none"/>
<text stroke="none" fill="white" font-size="16" x="358" y="752">
time
</text>
<text stroke="none" fill="white" font-size="16" x="10" y="16">
tran1: run764_vin-0.228077
</text>
<path stroke="white" d="M50 704l0 -637"/>
<text stroke="none" fill="white" font-size="16" x="35" y="728">
0.0
</text>
<path stroke="white" stroke-dasharray="1,2" d="M182 704l0 -637"/>
<text stroke="none" fill="white" font-size="16" x="157" y="728">
100.0
</text>
<path stroke="white" stroke-dasharray="1,2" d="M314 704l0 -637"/>
<text stroke="none" fill="white" font-size="16" x="289" y="728">
200.0
</text>
<path stroke="white" stroke-dasharray="1,2" d="M446 704l0 -637"/>
<text stroke="none" fill="white" font-size="16" x="421" y="728">
300.0
</text>
<path stroke="white" stroke-dasharray="1,2" d="M578 704l0 -637"/>
<text stroke="none" fill="white" font-size="16" x="553" y="728">
400.0
</text>
<path stroke="white" stroke-dasharray="1,2" d="M710 704l0 -637"/>
<text stroke="none" fill="white" font-size="16" x="685" y="728">
500.0
</text>
<path stroke="white" stroke-dasharray="1,2" d="M842 704l0 -637"/>
<text stroke="none" fill="white" font-size="16" x="817" y="728">
600.0
</text>
<path stroke="white" stroke-dasharray="1,2" d="M974 704l0 -637"/>
<text stroke="none" fill="white" font-size="16" x="949" y="728">
700.0
</text>
<text stroke="none" fill="white" font-size="16" x="614" y="752">
ns
</text>
<path stroke="white" stroke-dasharray="1,2" d="M50 704l924 0"/>
<text stroke="none" fill="white" font-size="16" x="8" y="712">
-3.0
</text>
<path stroke="white" stroke-dasharray="1,2" d="M50 613l924 0"/>
<text stroke="none" fill="white" font-size="16" x="8" y="621">
-2.0
</text>
<path stroke="white" stroke-dasharray="1,2" d="M50 522l924 0"/>
<text stroke="none" fill="white" font-size="16" x="8" y="530">
-1.0
</text>
<path stroke="white" d="M50 431l924 0"/>
<text stroke="none" fill="white" font-size="16" x="18" y="439">
0.0
</text>
<path stroke="white" stroke-dasharray="1,2" d="M50 340l924 0"/>
<text stroke="none" fill="white" font-size="16" x="18" y="348">
1.0
</text>
<path stroke="white" stroke-dasharray="1,2" d="M50 249l924 0"/>
<text stroke="none" fill="white" font-size="16" x="18" y="257">
2.0
</text>
<path stroke="white" stroke-dasharray="1,2" d="M50 158l924 0"/>
<text stroke="none" fill="white" font-size="16" x="18" y="166">
3.0
</text>
<path stroke="white" stroke-dasharray="1,2" d="M50 67l924 0"/>
<text stroke="none" fill="white" font-size="16" x="18" y="75">
4.0
</text>
<text stroke="none" fill="white" font-size="16" x="10" y="32">
     
</text>
<path stroke="red" d="M462 23l46 0"/>
<text stroke="none" fill="white" font-size="16" x="518" y="32">
x1.vsampled_p
</text>
<path stroke="red" d="M50 431l1 0 1 -7 0 -15 1 -14 0 -5 1 2M54 415l0 -39 1 -5 0 -14 1 -3 0 -2 1 -2 2 0 1 -1 4 0M64 350l0 -1M64 350l4 0 1 -1 48 0M117 352l0 -3M117 352l1 6M118 366l0 -8M118 366l1 2 2 2 425 0 0 -24 1 -2 0 -25 1 -5 0 -3 1 -1 0 -1"/>
<path stroke="red" d="M549 309l5 0 0 -1M554 309l13 0M567 310l0 -1 7 0M574 335l0 -27M574 335l1 4M575 351l0 -12M575 351l1 1 0 -1 1 -1 3 0 0 -1M580 350l13 0 0 -1M593 350l13 0 0 -1 1 0M607 350l0 -1M607 350l13 0 0 -1M620 350l7 0 0 -18 6 0 0 -1M633 332l13 0"/>
<path stroke="red" d="M646 333l0 -1 7 0M653 342l0 -10M653 342l1 1M654 344l0 -1 1 -1 24 0M679 347l0 -5M679 347l1 1M680 350l0 -3 26 0M706 351l0 -4M706 351l1 -1 5 0 0 -1M712 350l13 0 0 -1M725 350l7 0 0 -3 1 -1M733 347l0 -1M733 347l18 0M751 348l0 -1"/>
<path stroke="red" d="M751 348l1 -1 7 0M759 350l0 -3M759 349l6 0 0 -1M765 349l21 0M786 350l0 -1 18 0M804 350l0 -1 27 0M831 350l0 -1 26 0M857 350l0 -1 26 0M883 350l0 -1M883 350l1 -1 26 0M910 350l0 -1 8 0M918 370l0 -21M918 370l1 4 0 -3 1 0 0 -1"/>
<path stroke="red" d="M920 370l54 0"/>
<path stroke="blue" d="M50 23l46 0"/>
<text stroke="none" fill="white" font-size="16" x="106" y="32">
x1.vsampled_n
</text>
<path stroke="blue" d="M50 431l1 0 1 -7 0 -15 1 -15 0 -4 1 1M54 415l0 -39 1 -5 0 -14 1 -3 0 -2 1 -2 2 0 1 -1 4 0M64 350l0 -1M64 350l4 0 1 -1 48 0 1 -7 0 -8 1 -3 1 -2 1 0 1 -1 417 0M539 329l0 -1M539 329l15 0 0 -1 12 0M566 329l0 -1M566 329l14 0"/>
<path stroke="blue" d="M580 329l0 -1 1 0M581 329l0 -1M581 329l12 0 0 -1M593 329l7 0M600 345l0 -17M600 345l1 3M601 352l0 -4M601 351l1 0 0 -2 210 0M812 350l0 -1 19 0M831 350l0 -1 86 0 1 1 0 -16 1 -3 0 -3 2 0M921 329l0 -1M921 329l2 0 0 -1 1 0M924 329l0 -1"/>
<path stroke="blue" d="M924 329l12 0 0 -1M936 329l14 0 0 -1 1 1 10 0 0 -1 13 0"/>
<path stroke="#FFA500" d="M462 39l46 0"/>
<text stroke="none" fill="white" font-size="16" x="518" y="48">
x1.vsampled_p-x1.vsampled_n
</text>
<path stroke="#FFA500" d="M50 431l67 0M117 435l0 -4M117 435l1 12M118 463l0 -16M118 463l1 5 1 3M120 472l0 -1M120 472l4 0 1 1 414 0 0 -1 1 0M540 473l0 -1 6 0 0 -23 1 -3 0 -24 1 -5 0 -3 1 -2 1 -1 17 0M567 412l0 -1 7 0M574 437l0 -26M574 437l1 4M575 454l0 -13"/>
<path stroke="#FFA500" d="M575 454l1 0 0 -1 1 0 0 -1 23 0 0 -16 1 -3 0 -4 1 1M602 431l0 -1M602 431l1 0 1 1 23 0 0 -18 1 0 0 -1 1 1 4 0 0 -1M633 414l20 0M653 424l0 -10M653 424l1 1M654 426l0 -1 1 -1 24 0M679 429l0 -5M679 429l1 1M680 432l0 -3 26 0"/>
<path stroke="#FFA500" d="M706 433l0 -4M706 433l1 -1 25 0 0 -3 1 -1M733 429l0 -1M733 429l26 0M759 432l0 -3M759 431l27 0M786 432l0 -1 26 0 0 -1M812 431l27 0M839 432l0 -1 79 0M918 467l0 -36M918 467l1 7 1 -1 2 0 0 -1 1 0M923 473l0 -1M923 473l1 0"/>
<path stroke="#FFA500" d="M924 473l0 -1 26 0M950 473l0 -1 12 0M962 473l0 -1M962 473l12 0"/>
<path stroke="green" d="M50 39l46 0"/>
<text stroke="none" fill="white" font-size="16" x="106" y="48">
x1.sw_sample-2
</text>
<path stroke="green" d="M50 613l1 0 1 -9 0 -21 1 -21M53 581l0 -25M53 581l1 29M54 613l0 -3M54 613l63 0M117 620l0 -172M117 449l422 0M539 614l0 -171M539 613l422 0M961 618l0 -170 1 1 12 0"/>
<path stroke="#FFC0C5" d="M462 55l46 0"/>
<text stroke="none" fill="white" font-size="16" x="518" y="64">
x1.comp_out_p+2
</text>
<path stroke="#FFC0C5" d="M50 249l1 0 1 -9 0 -22 1 -18 0 -4M53 198l1 5M54 249l0 -46M54 249l514 0 0 -166M568 85l13 0 0 -8 1 151M582 249l0 -21M582 249l65 0M647 250l0 -166M647 85l14 0M661 249l0 -172M661 249l12 0 0 -11 1 -122 0 -33M674 85l13 0M687 249l0 -166"/>
<path stroke="#FFC0C5" d="M687 249l13 0 0 -165M700 85l13 0 0 -9 1 137M714 249l0 -36M714 249l39 0 0 -165M753 85l13 0M766 250l0 -169M766 249l14 0 0 -165 1 1 12 0M793 249l0 -173M793 249l41 0 0 -164 1 -1M835 85l0 -1M835 85l10 0 0 -10 1 144M846 249l0 -30"/>
<path stroke="#FFC0C5" d="M846 249l128 0"/>
<path stroke="#A52A2A" d="M50 55l46 0"/>
<text stroke="none" fill="white" font-size="16" x="106" y="64">
x1.comp_out_n-2
</text>
<path stroke="#A52A2A" d="M50 613l1 0 1 -9 0 -22 1 -19M53 564l0 -3M53 564l1 6M54 613l0 -43M54 613l488 0 0 -165M542 449l13 0M555 613l0 -166M555 613l39 0M594 614l0 -167M594 449l14 0M608 613l0 -171M608 613l14 0 0 -164 12 0M634 613l0 -173M634 613l13 0"/>
<path stroke="#A52A2A" d="M647 614l0 -1 81 0 0 -165M728 449l12 0M740 613l0 -171M740 613l67 0 0 -165M807 449l12 0M819 614l0 -171M819 613l41 0 0 -164 12 0M872 613l0 -166M872 613l14 0 0 -164 1 -1M887 449l0 -1M887 449l11 0M898 613l0 -166M898 613l15 0"/>
<path stroke="#A52A2A" d="M913 613l0 -165M913 449l12 0M925 613l0 -172M925 613l12 0M937 614l0 -1M937 614l1 -111 0 -56M938 449l13 0M951 614l0 -167M951 613l23 0"/>
</svg>
