<?xml version="1.0" standalone="yes"?>
<!DOCTYPE svg PUBLIC "-//W3C//DTD SVG 1.1//EN"
 "http://www.w3.org/Graphics/SVG/1.1/DTD/svg11.dtd">
<svg xmlns="http://www.w3.org/2000/svg" version="1.1"
  width="100%" height="100%" viewBox="0 0 1024 768"
  style="fill: none; font-family: Helvetica;
 font: Helvetica;
">

<!-- Creator: NGspice -->

<rect x="0" y="0" width="1024" height="768" fill="black" stroke="none"/>
<text stroke="none" fill="white" font-size="16" x="358" y="752">
time
</text>
<text stroke="none" fill="white" font-size="16" x="10" y="16">
tran1: run766_vin-0.226319
</text>
<path stroke="white" d="M50 704l0 -637"/>
<text stroke="none" fill="white" font-size="16" x="35" y="728">
0.0
</text>
<path stroke="white" stroke-dasharray="1,2" d="M182 704l0 -637"/>
<text stroke="none" fill="white" font-size="16" x="157" y="728">
100.0
</text>
<path stroke="white" stroke-dasharray="1,2" d="M314 704l0 -637"/>
<text stroke="none" fill="white" font-size="16" x="289" y="728">
200.0
</text>
<path stroke="white" stroke-dasharray="1,2" d="M446 704l0 -637"/>
<text stroke="none" fill="white" font-size="16" x="421" y="728">
300.0
</text>
<path stroke="white" stroke-dasharray="1,2" d="M578 704l0 -637"/>
<text stroke="none" fill="white" font-size="16" x="553" y="728">
400.0
</text>
<path stroke="white" stroke-dasharray="1,2" d="M710 704l0 -637"/>
<text stroke="none" fill="white" font-size="16" x="685" y="728">
500.0
</text>
<path stroke="white" stroke-dasharray="1,2" d="M842 704l0 -637"/>
<text stroke="none" fill="white" font-size="16" x="817" y="728">
600.0
</text>
<path stroke="white" stroke-dasharray="1,2" d="M974 704l0 -637"/>
<text stroke="none" fill="white" font-size="16" x="949" y="728">
700.0
</text>
<text stroke="none" fill="white" font-size="16" x="614" y="752">
ns
</text>
<path stroke="white" stroke-dasharray="1,2" d="M50 704l924 0"/>
<text stroke="none" fill="white" font-size="16" x="8" y="712">
-3.0
</text>
<path stroke="white" stroke-dasharray="1,2" d="M50 613l924 0"/>
<text stroke="none" fill="white" font-size="16" x="8" y="621">
-2.0
</text>
<path stroke="white" stroke-dasharray="1,2" d="M50 522l924 0"/>
<text stroke="none" fill="white" font-size="16" x="8" y="530">
-1.0
</text>
<path stroke="white" d="M50 431l924 0"/>
<text stroke="none" fill="white" font-size="16" x="18" y="439">
0.0
</text>
<path stroke="white" stroke-dasharray="1,2" d="M50 340l924 0"/>
<text stroke="none" fill="white" font-size="16" x="18" y="348">
1.0
</text>
<path stroke="white" stroke-dasharray="1,2" d="M50 249l924 0"/>
<text stroke="none" fill="white" font-size="16" x="18" y="257">
2.0
</text>
<path stroke="white" stroke-dasharray="1,2" d="M50 158l924 0"/>
<text stroke="none" fill="white" font-size="16" x="18" y="166">
3.0
</text>
<path stroke="white" stroke-dasharray="1,2" d="M50 67l924 0"/>
<text stroke="none" fill="white" font-size="16" x="18" y="75">
4.0
</text>
<text stroke="none" fill="white" font-size="16" x="10" y="32">
     
</text>
<path stroke="red" d="M462 23l46 0"/>
<text stroke="none" fill="white" font-size="16" x="518" y="32">
x1.vsampled_p
</text>
<path stroke="red" d="M50 431l1 0 1 -7 0 -15 1 -14 0 -5 1 2M54 415l0 -39 1 -5 0 -14 1 -3 0 -2 1 -2 2 0 1 -1 4 0M64 350l0 -1M64 350l4 0 1 -1 48 0M117 352l0 -3M117 352l1 6M118 365l0 -7M118 365l1 3 2 2 425 0 0 -18 1 -4 0 -24 1 -6 0 -7 2 -2 4 0 0 -1"/>
<path stroke="red" d="M554 308l12 0M566 309l0 -1M566 309l1 0M567 310l0 -1 7 0M574 336l0 -27M574 336l1 4M575 351l0 -11M575 351l1 0 0 -1 2 0 0 -1 15 0M593 350l0 -1 26 0M619 350l0 -1M619 350l1 0 0 -1 7 0 0 -14 1 -2 0 -2 2 0M630 332l0 -1M630 332l3 0"/>
<path stroke="red" d="M633 332l0 -1 13 0M646 332l0 -1M646 332l7 0M653 341l0 -9M653 341l1 1M654 344l0 -2 5 0 0 -1M659 342l20 0M679 348l0 -6M679 348l1 1 0 -2 26 0M706 351l0 -4M706 351l1 -1 0 -1 18 0M725 350l0 -1 7 0 0 -3 1 0M733 347l0 -1M733 347l18 0"/>
<path stroke="red" d="M751 348l0 -1 8 0M759 350l0 -3M759 349l2 0 0 -1 17 0M778 349l0 -1 7 0M785 349l0 -1M785 349l1 1 0 -1 18 0M804 350l0 -1 8 0M812 350l0 -1M812 350l1 0 0 -1 17 0 1 1 0 -1 26 0M857 350l0 -1 26 0M883 350l0 -1 27 0M910 350l0 -1"/>
<path stroke="red" d="M910 349l8 0M918 362l0 -13M918 362l1 1M919 373l0 -10M919 373l1 0 0 -3 54 0"/>
<path stroke="blue" d="M50 23l46 0"/>
<text stroke="none" fill="white" font-size="16" x="106" y="32">
x1.vsampled_n
</text>
<path stroke="blue" d="M50 431l1 0 1 -7 0 -15 1 -15 0 -4 1 1M54 415l0 -39 1 -5 0 -14 1 -3 0 -2 1 -2 2 0 1 -1 4 0M64 350l0 -1M64 350l4 0 1 -1 48 0 1 -7 0 -8 1 -3 1 -1 0 -1 419 0 0 -1M539 329l15 0 0 -1M554 329l13 0M567 330l0 -1 13 0 0 -1M580 329l20 0"/>
<path stroke="blue" d="M600 346l0 -17M600 346l1 3M601 352l0 -3M601 351l1 -1 0 -1 316 0 0 -9 1 -1 0 -8 1 -1 0 -2 1 0M921 329l0 -1M921 329l2 0 0 -1M923 329l13 0M936 330l0 -1 14 0 0 -1M950 329l12 0 0 -1 2 0M964 329l0 -1M964 329l10 0"/>
<path stroke="#FFA500" d="M462 39l46 0"/>
<text stroke="none" fill="white" font-size="16" x="518" y="48">
x1.vsampled_p-x1.vsampled_n
</text>
<path stroke="#FFA500" d="M50 431l67 0M117 435l0 -4M117 435l1 12M118 463l0 -16M118 463l1 5 1 2M120 471l0 -1M120 471l1 1 425 0 0 -18 1 -4 0 -24 1 -6 0 -6 1 -2 1 -1 17 0M567 412l0 -1 7 0M574 438l0 -27M574 438l1 4M575 454l0 -12M575 454l1 0 0 -1"/>
<path stroke="#FFA500" d="M576 453l1 -1 16 0 0 -1M593 452l7 0 0 -17 1 -3 0 -4M601 429l1 1M602 431l0 -1M602 431l25 0 0 -14 1 -2 0 -2 18 0M646 414l0 -1 7 0M653 423l0 -10M653 423l1 1M654 425l0 -1 5 0 0 -1M659 424l13 0 0 -1M672 424l7 0M679 430l0 -7"/>
<path stroke="#FFA500" d="M679 430l1 1 0 -2 26 0M706 432l0 -3M706 432l1 0 0 -1 25 0 0 -3 1 0M733 429l0 -1M733 429l26 0M759 432l0 -3M759 430l26 0M785 431l0 -1M785 431l1 0M786 432l0 -1 26 0M812 432l0 -1M812 432l1 -1 105 0M918 453l0 -22M918 453l1 3"/>
<path stroke="#FFA500" d="M919 473l0 -17M919 473l1 1 0 -1 1 0 0 -1 15 0 0 -1M936 472l38 0"/>
<path stroke="green" d="M50 39l46 0"/>
<text stroke="none" fill="white" font-size="16" x="106" y="48">
x1.sw_sample-2
</text>
<path stroke="green" d="M50 613l1 0 1 -9 0 -21 1 -21M53 581l0 -25M53 581l1 29M54 613l0 -3M54 613l63 0M117 620l0 -172M117 449l422 0M539 614l0 -171M539 613l422 0M961 618l0 -170 1 1 12 0"/>
<path stroke="#FFC0C5" d="M462 55l46 0"/>
<text stroke="none" fill="white" font-size="16" x="518" y="64">
x1.comp_out_p+2
</text>
<path stroke="#FFC0C5" d="M50 249l1 0 1 -9 0 -22 1 -18 0 -4M53 198l1 5M54 249l0 -46M54 249l514 0M568 251l0 -168M568 85l13 0 0 -8 1 151M582 249l0 -21M582 249l65 0M647 250l0 -166M647 85l14 0M661 249l0 -172M661 249l12 0M673 252l0 -3M673 252l1 -109"/>
<path stroke="#FFC0C5" d="M674 143l0 -60M674 85l13 0M687 249l0 -171M687 249l13 0 0 -165M700 85l13 0 0 -5 1 153M714 249l0 -16M714 249l39 0 0 -165M753 85l13 0M766 249l0 -173M766 249l14 0 0 -165M780 85l13 0M793 249l0 -174M793 249l14 0 0 -165 1 1"/>
<path stroke="#FFC0C5" d="M808 85l11 0M819 249l0 -169M819 249l41 0 0 -165M860 85l12 0M872 249l0 -174M872 249l14 0 0 -157 1 -8M887 85l0 -1M887 85l11 0M898 249l0 -174M898 249l15 0M913 251l0 -167M913 85l12 0M925 250l0 -166M925 249l49 0"/>
<path stroke="#A52A2A" d="M50 55l46 0"/>
<text stroke="none" fill="white" font-size="16" x="106" y="64">
x1.comp_out_n-2
</text>
<path stroke="#A52A2A" d="M50 613l1 0 1 -9 0 -22 1 -19M53 564l0 -3M53 564l1 6M54 613l0 -43M54 613l488 0 0 -165M542 449l13 0M555 613l0 -166M555 613l39 0M594 615l0 -168M594 449l14 0M608 613l0 -174M608 613l14 0 1 -156 0 -8 11 0M634 614l0 -170M634 614l1 -1"/>
<path stroke="#A52A2A" d="M635 613l12 0M647 614l0 -1 81 0 0 -165 1 1 11 0M740 613l0 -173M740 613l94 0 0 -165M834 449l11 0 0 -2M845 449l1 153M846 613l0 -11M846 613l91 0M937 614l0 -1M937 614l1 -97 0 -70M938 449l13 0M951 614l0 -167M951 613l23 0"/>
</svg>
