<?xml version="1.0" standalone="yes"?>
<!DOCTYPE svg PUBLIC "-//W3C//DTD SVG 1.1//EN"
 "http://www.w3.org/Graphics/SVG/1.1/DTD/svg11.dtd">
<svg xmlns="http://www.w3.org/2000/svg" version="1.1"
  width="100%" height="100%" viewBox="0 0 1024 768"
  style="fill: none; font-family: Helvetica;
 font: Helvetica;
">

<!-- Creator: NGspice -->

<rect x="0" y="0" width="1024" height="768" fill="black" stroke="none"/>
<text stroke="none" fill="white" font-size="16" x="358" y="752">
time
</text>
<text stroke="none" fill="white" font-size="16" x="10" y="16">
tran1: run762_vin-0.229835
</text>
<path stroke="white" d="M50 704l0 -637"/>
<text stroke="none" fill="white" font-size="16" x="35" y="728">
0.0
</text>
<path stroke="white" stroke-dasharray="1,2" d="M182 704l0 -637"/>
<text stroke="none" fill="white" font-size="16" x="157" y="728">
100.0
</text>
<path stroke="white" stroke-dasharray="1,2" d="M314 704l0 -637"/>
<text stroke="none" fill="white" font-size="16" x="289" y="728">
200.0
</text>
<path stroke="white" stroke-dasharray="1,2" d="M446 704l0 -637"/>
<text stroke="none" fill="white" font-size="16" x="421" y="728">
300.0
</text>
<path stroke="white" stroke-dasharray="1,2" d="M578 704l0 -637"/>
<text stroke="none" fill="white" font-size="16" x="553" y="728">
400.0
</text>
<path stroke="white" stroke-dasharray="1,2" d="M710 704l0 -637"/>
<text stroke="none" fill="white" font-size="16" x="685" y="728">
500.0
</text>
<path stroke="white" stroke-dasharray="1,2" d="M842 704l0 -637"/>
<text stroke="none" fill="white" font-size="16" x="817" y="728">
600.0
</text>
<path stroke="white" stroke-dasharray="1,2" d="M974 704l0 -637"/>
<text stroke="none" fill="white" font-size="16" x="949" y="728">
700.0
</text>
<text stroke="none" fill="white" font-size="16" x="614" y="752">
ns
</text>
<path stroke="white" stroke-dasharray="1,2" d="M50 704l924 0"/>
<text stroke="none" fill="white" font-size="16" x="8" y="712">
-3.0
</text>
<path stroke="white" stroke-dasharray="1,2" d="M50 613l924 0"/>
<text stroke="none" fill="white" font-size="16" x="8" y="621">
-2.0
</text>
<path stroke="white" stroke-dasharray="1,2" d="M50 522l924 0"/>
<text stroke="none" fill="white" font-size="16" x="8" y="530">
-1.0
</text>
<path stroke="white" d="M50 431l924 0"/>
<text stroke="none" fill="white" font-size="16" x="18" y="439">
0.0
</text>
<path stroke="white" stroke-dasharray="1,2" d="M50 340l924 0"/>
<text stroke="none" fill="white" font-size="16" x="18" y="348">
1.0
</text>
<path stroke="white" stroke-dasharray="1,2" d="M50 249l924 0"/>
<text stroke="none" fill="white" font-size="16" x="18" y="257">
2.0
</text>
<path stroke="white" stroke-dasharray="1,2" d="M50 158l924 0"/>
<text stroke="none" fill="white" font-size="16" x="18" y="166">
3.0
</text>
<path stroke="white" stroke-dasharray="1,2" d="M50 67l924 0"/>
<text stroke="none" fill="white" font-size="16" x="18" y="75">
4.0
</text>
<text stroke="none" fill="white" font-size="16" x="10" y="32">
     
</text>
<path stroke="red" d="M462 23l46 0"/>
<text stroke="none" fill="white" font-size="16" x="518" y="32">
x1.vsampled_p
</text>
<path stroke="red" d="M50 431l1 0 1 -7 0 -15 1 -14 0 -5 1 2M54 415l0 -39 1 -5 0 -14 1 -3 0 -2 1 -2 2 0 1 -1 4 0M64 350l0 -1M64 350l4 0 1 -1 48 0M117 352l0 -3M117 352l1 6M118 366l0 -8M118 366l1 2 1 1M120 370l0 -1M120 370l426 0 0 -13 1 -7 0 -26"/>
<path stroke="red" d="M547 324l1 -6 0 -4 1 -3 0 -1 1 -1 4 0 0 -1M554 309l13 0M567 310l0 -1 7 0M574 334l0 -25M574 334l1 5M575 351l0 -12M575 351l1 1 0 -1 1 0 0 -1 3 0 0 -1M580 350l46 0 0 -11 1 -1 0 -6 6 0 0 -1M633 332l13 0M646 333l0 -1 7 0M653 342l0 -10"/>
<path stroke="red" d="M653 342l1 1M654 344l0 -1 1 -1 17 0M672 343l0 -1 7 0M679 348l0 -6M679 348l1 0M680 350l0 -3 19 0M699 348l0 -1 7 0M706 351l0 -4M706 350l26 0 0 -4M732 347l1 0 1 1 4 0 0 -1 13 0M751 348l0 -1M751 348l1 0 0 -1M752 348l7 0M759 350l0 -3"/>
<path stroke="red" d="M759 349l27 0M786 350l0 -1 18 0M804 350l0 -1 26 0 1 1 0 -1 26 0M857 350l0 -1 26 0M883 350l0 -1 27 0M910 350l0 -1 8 0M918 363l0 -14M918 363l1 1M919 374l0 -10M919 373l1 -2 1 -1 53 0"/>
<path stroke="blue" d="M50 23l46 0"/>
<text stroke="none" fill="white" font-size="16" x="106" y="32">
x1.vsampled_n
</text>
<path stroke="blue" d="M50 431l1 0 1 -7 0 -15 1 -15 0 -4 1 1M54 415l0 -39 1 -5 0 -14 1 -3 0 -2 1 -2 2 0 1 -1 4 0M64 350l0 -1M64 350l4 0 1 -1 48 0 1 -7 0 -9 1 -3 2 -2 419 0M540 329l0 -1 1 0M541 329l0 -1 25 0 1 1 0 -1 26 0M593 329l0 -1 7 0M600 344l0 -16"/>
<path stroke="blue" d="M600 344l1 2M601 352l0 -6M601 351l1 -1 0 -1 210 0M812 350l0 -1 106 0 0 -10 1 -1 0 -9 1 -1 16 0M936 329l0 -1 1 0M937 329l0 -1 37 0"/>
<path stroke="#FFA500" d="M462 39l46 0"/>
<text stroke="none" fill="white" font-size="16" x="518" y="48">
x1.vsampled_p-x1.vsampled_n
</text>
<path stroke="#FFA500" d="M50 431l67 0M117 435l0 -4M117 435l1 12M118 463l0 -16M118 463l1 6 1 2M120 472l0 -1M120 472l1 0 1 1 418 0 0 -1M540 473l1 0 0 -1M541 473l5 0 0 -14 1 -6 0 -27 1 -6 0 -4 1 -2 0 -1 1 -1 1 0 1 -1 14 0 1 1 0 -1 7 0M574 437l0 -26"/>
<path stroke="#FFA500" d="M574 437l1 4M575 454l0 -13M575 454l1 0 2 -2 2 0M580 453l0 -1 13 0M593 453l0 -1 7 0 0 -15 1 -3 0 -5M601 430l2 2 23 0 0 -11 1 -1 0 -6 19 0M646 415l0 -1 7 0M653 424l0 -10M653 424l1 2 0 -1 1 0 0 -1 17 0M672 425l0 -1 7 0"/>
<path stroke="#FFA500" d="M679 430l0 -6M679 430l1 1M680 432l0 -2 1 -1 25 0M706 433l0 -4M706 433l1 -1 25 0 0 -4M732 429l1 0M733 430l0 -1M733 430l26 0M759 432l0 -2M759 431l27 0M786 432l0 -1M786 432l26 0 0 -1 106 0M918 455l0 -24M918 455l1 2M919 475l0 -18"/>
<path stroke="#FFA500" d="M919 475l2 -2 15 0 0 -1M936 473l38 0"/>
<path stroke="green" d="M50 39l46 0"/>
<text stroke="none" fill="white" font-size="16" x="106" y="48">
x1.sw_sample-2
</text>
<path stroke="green" d="M50 613l1 0 1 -9 0 -21 1 -21M53 581l0 -25M53 581l1 29M54 613l0 -3M54 613l63 0M117 620l0 -172M117 449l422 0M539 614l0 -171M539 613l422 0M961 618l0 -170 1 1 12 0"/>
<path stroke="#FFC0C5" d="M462 55l46 0"/>
<text stroke="none" fill="white" font-size="16" x="518" y="64">
x1.comp_out_p+2
</text>
<path stroke="#FFC0C5" d="M50 249l1 0 1 -9 0 -22 1 -18 0 -4M53 198l1 5M54 249l0 -46M54 249l514 0 0 -166M568 85l13 0 0 -8 1 159M582 249l0 -13M582 249l65 0M647 250l0 -166M647 85l14 0M661 249l0 -172M661 249l12 0 0 -27 1 -117 0 -21M674 85l13 0M687 249l0 -171"/>
<path stroke="#FFC0C5" d="M687 249l13 0 0 -165M700 85l13 0 0 -5 1 67M714 250l0 -103M714 249l39 0 0 -165M753 85l13 0M766 250l0 -174M766 249l14 0 0 -156 1 -9M781 85l0 -1M781 85l12 0M793 249l0 -170M793 249l67 0 0 -165M860 85l12 0M872 249l0 -174"/>
<path stroke="#FFC0C5" d="M872 249l14 0 0 -157 1 -8M887 85l0 -1M887 85l11 0M898 249l0 -174M898 249l15 0M913 250l0 -166M913 85l12 0M925 250l0 -166M925 249l49 0"/>
<path stroke="#A52A2A" d="M50 55l46 0"/>
<text stroke="none" fill="white" font-size="16" x="106" y="64">
x1.comp_out_n-2
</text>
<path stroke="#A52A2A" d="M50 613l1 0 1 -9 0 -22 1 -19M53 564l0 -3M53 564l1 6M54 613l0 -43M54 613l488 0 0 -165M542 449l13 0M555 613l0 -167M555 613l39 0M594 614l0 -166M594 449l14 0M608 613l0 -171M608 613l14 0 0 -164 12 0M634 613l0 -173M634 613l13 0"/>
<path stroke="#A52A2A" d="M647 614l0 -1 80 0 1 -151 0 -14M728 449l12 0M740 613l0 -172M740 613l67 0 0 -164 12 0M819 613l0 -174M819 613l15 0 0 -164 11 0 0 -2M845 449l1 153M846 613l0 -11M846 613l91 0M937 615l0 -2M937 615l1 -116 0 -52M938 449l13 0"/>
<path stroke="#A52A2A" d="M951 614l0 -167M951 613l23 0"/>
</svg>
