<?xml version="1.0" standalone="yes"?>
<!DOCTYPE svg PUBLIC "-//W3C//DTD SVG 1.1//EN"
 "http://www.w3.org/Graphics/SVG/1.1/DTD/svg11.dtd">
<svg xmlns="http://www.w3.org/2000/svg" version="1.1"
  width="100%" height="100%" viewBox="0 0 1024 768"
  style="fill: none; font-family: Helvetica;
 font: Helvetica;
">

<!-- Creator: NGspice -->

<rect x="0" y="0" width="1024" height="768" fill="black" stroke="none"/>
<text stroke="none" fill="white" font-size="16" x="358" y="752">
time
</text>
<text stroke="none" fill="white" font-size="16" x="10" y="16">
tran1: run765_vin-0.227198
</text>
<path stroke="white" d="M50 704l0 -637"/>
<text stroke="none" fill="white" font-size="16" x="35" y="728">
0.0
</text>
<path stroke="white" stroke-dasharray="1,2" d="M182 704l0 -637"/>
<text stroke="none" fill="white" font-size="16" x="157" y="728">
100.0
</text>
<path stroke="white" stroke-dasharray="1,2" d="M314 704l0 -637"/>
<text stroke="none" fill="white" font-size="16" x="289" y="728">
200.0
</text>
<path stroke="white" stroke-dasharray="1,2" d="M446 704l0 -637"/>
<text stroke="none" fill="white" font-size="16" x="421" y="728">
300.0
</text>
<path stroke="white" stroke-dasharray="1,2" d="M578 704l0 -637"/>
<text stroke="none" fill="white" font-size="16" x="553" y="728">
400.0
</text>
<path stroke="white" stroke-dasharray="1,2" d="M710 704l0 -637"/>
<text stroke="none" fill="white" font-size="16" x="685" y="728">
500.0
</text>
<path stroke="white" stroke-dasharray="1,2" d="M842 704l0 -637"/>
<text stroke="none" fill="white" font-size="16" x="817" y="728">
600.0
</text>
<path stroke="white" stroke-dasharray="1,2" d="M974 704l0 -637"/>
<text stroke="none" fill="white" font-size="16" x="949" y="728">
700.0
</text>
<text stroke="none" fill="white" font-size="16" x="614" y="752">
ns
</text>
<path stroke="white" stroke-dasharray="1,2" d="M50 704l924 0"/>
<text stroke="none" fill="white" font-size="16" x="8" y="712">
-2.5
</text>
<path stroke="white" stroke-dasharray="1,2" d="M50 655l924 0"/>
<text stroke="none" fill="white" font-size="16" x="8" y="663">
-2.0
</text>
<path stroke="white" stroke-dasharray="1,2" d="M50 606l924 0"/>
<text stroke="none" fill="white" font-size="16" x="8" y="614">
-1.5
</text>
<path stroke="white" stroke-dasharray="1,2" d="M50 557l924 0"/>
<text stroke="none" fill="white" font-size="16" x="8" y="565">
-1.0
</text>
<path stroke="white" stroke-dasharray="1,2" d="M50 508l924 0"/>
<text stroke="none" fill="white" font-size="16" x="8" y="516">
-0.5
</text>
<path stroke="white" d="M50 459l924 0"/>
<text stroke="none" fill="white" font-size="16" x="18" y="467">
0.0
</text>
<path stroke="white" stroke-dasharray="1,2" d="M50 410l924 0"/>
<text stroke="none" fill="white" font-size="16" x="18" y="418">
0.5
</text>
<path stroke="white" stroke-dasharray="1,2" d="M50 361l924 0"/>
<text stroke="none" fill="white" font-size="16" x="18" y="369">
1.0
</text>
<path stroke="white" stroke-dasharray="1,2" d="M50 312l924 0"/>
<text stroke="none" fill="white" font-size="16" x="18" y="320">
1.5
</text>
<path stroke="white" stroke-dasharray="1,2" d="M50 263l924 0"/>
<text stroke="none" fill="white" font-size="16" x="18" y="271">
2.0
</text>
<path stroke="white" stroke-dasharray="1,2" d="M50 214l924 0"/>
<text stroke="none" fill="white" font-size="16" x="18" y="222">
2.5
</text>
<path stroke="white" stroke-dasharray="1,2" d="M50 165l924 0"/>
<text stroke="none" fill="white" font-size="16" x="18" y="173">
3.0
</text>
<path stroke="white" stroke-dasharray="1,2" d="M50 116l924 0"/>
<text stroke="none" fill="white" font-size="16" x="18" y="124">
3.5
</text>
<path stroke="white" stroke-dasharray="1,2" d="M50 67l924 0"/>
<text stroke="none" fill="white" font-size="16" x="18" y="75">
4.0
</text>
<text stroke="none" fill="white" font-size="16" x="10" y="32">
     
</text>
<path stroke="red" d="M462 23l46 0"/>
<text stroke="none" fill="white" font-size="16" x="518" y="32">
x1.vsampled_p
</text>
<path stroke="red" d="M50 459l1 0 1 -7 0 -17 1 -15 0 -5 1 2M54 442l0 -42 1 -6 0 -15 1 -3 0 -2 1 -2 1 0 0 -1 59 0M117 374l0 -3M117 374l1 7M118 388l0 -7M118 388l1 3 1 1M120 393l0 -1M120 393l426 0 0 -27 1 -3 0 -24 1 -5 0 -4 1 -1 0 -1 1 0 1 -1 15 0"/>
<path stroke="red" d="M566 327l1 1M567 329l0 -2 7 0M574 360l0 -33M574 360l1 4M575 373l0 -9M575 373l1 0 2 -2 15 0M593 372l0 -1 26 0M619 372l0 -1M619 372l1 -1 6 0 0 -1 1 -5 0 -13 6 0 0 -1M633 352l13 0M646 353l0 -1 7 0M653 362l0 -10M653 362l1 2"/>
<path stroke="red" d="M654 365l0 -1 1 -1 17 0M672 364l0 -1 7 0M679 370l0 -7M679 370l1 1 0 -2 6 0 0 -1 12 0 1 1 0 -1M699 369l7 0M706 373l0 -5M706 373l1 -1 0 -1 18 0M725 372l0 -1 7 0 1 -2 0 -1M733 369l26 0M759 372l0 -3M759 370l19 0M778 371l0 -1"/>
<path stroke="red" d="M778 370l7 0 1 1M786 372l0 -1 131 0M917 372l0 -1M917 372l1 0M918 397l0 -25M918 397l1 0 0 -3 1 0 0 -1 54 0"/>
<path stroke="blue" d="M50 23l46 0"/>
<text stroke="none" fill="white" font-size="16" x="106" y="32">
x1.vsampled_n
</text>
<path stroke="blue" d="M50 459l1 0 1 -7 0 -17 1 -15 0 -5 1 1M54 441l0 -41 1 -6 0 -15 1 -3 0 -2 1 -2 1 0 0 -1 59 0 0 -1 1 -6 0 -10 1 -3 1 -1 0 -1 420 0M540 350l0 -1 14 0 0 -1M554 349l13 0M567 350l0 -1 13 0 0 -1M580 349l13 0M593 350l0 -1 7 0M600 365l0 -16"/>
<path stroke="blue" d="M600 365l1 2M601 374l0 -7M601 373l1 -1 0 -1 211 0M813 372l0 -1 25 0 0 -1M838 371l79 0M917 372l0 -1 1 -3 0 -16 1 -2 0 -2 1 0M920 349l0 -1M920 349l3 0 0 -1M923 349l13 0M936 350l0 -1 14 0 0 -1M950 349l12 0 0 -1 1 0M963 349l0 -1"/>
<path stroke="blue" d="M963 349l11 0"/>
<path stroke="#FFA500" d="M462 39l46 0"/>
<text stroke="none" fill="white" font-size="16" x="518" y="48">
x1.vsampled_p-x1.vsampled_n
</text>
<path stroke="#FFA500" d="M50 459l67 0M117 463l0 -4M117 463l1 13M118 493l0 -17M118 493l1 6 1 3M120 503l0 -1M120 503l3 0 1 1 415 0 0 -1 1 0M540 504l0 -1 6 0 0 -27 1 -3 0 -24 1 -5 0 -4 1 -1 0 -1 2 0 0 -1 15 0 1 1 0 -1 7 0M574 470l0 -33M574 470l1 4"/>
<path stroke="#FFA500" d="M575 484l0 -10M575 484l3 -3 2 0M580 482l0 -1 13 0M593 482l0 -1 7 0M600 482l0 -17 1 -2 0 -7M601 458l1 0M602 459l0 -1M602 459l17 0M619 460l0 -1M619 460l1 -1 6 0 1 -6 0 -12 1 -1 18 0M646 441l0 -1 7 0M653 450l0 -10M653 450l1 2"/>
<path stroke="#FFA500" d="M654 453l0 -1 1 0 0 -1 17 0M672 452l0 -1 7 0M679 458l0 -7M679 458l1 1 0 -2 26 0M706 461l0 -4M706 461l1 -1 0 -1 18 0M725 460l0 -1 7 0 1 -2 0 -1M733 457l26 0M759 460l0 -3M759 459l1 -1 18 0M778 459l0 -1 7 0 1 1M786 460l0 -1"/>
<path stroke="#FFA500" d="M786 459l26 0 1 -1M813 459l0 -1M813 459l104 0M917 460l0 -2M917 460l1 3M918 504l0 -41M918 504l1 2 0 -1 1 -1 1 0 1 -1 1 0M923 504l0 -1M923 504l1 0 0 -1 12 0M936 504l0 -1 14 0M950 504l0 -1M950 504l1 0 0 -1 11 0M962 504l0 -1"/>
<path stroke="#FFA500" d="M962 504l12 0"/>
<path stroke="green" d="M50 39l46 0"/>
<text stroke="none" fill="white" font-size="16" x="106" y="48">
x1.sw_sample-2
</text>
<path stroke="green" d="M50 655l1 0 1 -10 0 -23 1 -21M53 620l0 -26M53 620l1 32M54 655l0 -3M54 655l63 0M117 662l0 -184 1 0M118 479l0 -1M118 479l421 0M539 656l0 -184M539 655l422 0M961 660l0 -182 1 0M962 479l0 -1 1 1 11 0"/>
<path stroke="#FFC0C5" d="M462 55l46 0"/>
<text stroke="none" fill="white" font-size="16" x="518" y="64">
x1.comp_out_p+2
</text>
<path stroke="#FFC0C5" d="M50 263l1 0 1 -10 0 -23 1 -20 0 -4M53 209l1 4M54 263l0 -50M54 263l514 0M568 265l0 -180M568 87l13 0 0 -9 1 163M582 263l0 -22M582 263l65 0M647 264l0 -179M647 87l14 0M661 263l0 -186M661 263l12 0M673 266l0 -3M673 266l1 -113"/>
<path stroke="#FFC0C5" d="M674 153l0 -68M674 87l13 0M687 264l0 -185M687 263l13 0M700 264l0 -179M700 86l1 1 12 0 0 -10 1 142M714 264l0 -45M714 263l39 0 0 -178M753 87l13 0M766 263l0 -185M766 263l14 0 0 -177 1 1 12 0M793 263l0 -179M793 263l41 0"/>
<path stroke="#FFC0C5" d="M834 263l0 -177M834 87l11 0 0 -3M845 87l1 161M846 263l0 -15M846 263l128 0"/>
<path stroke="#A52A2A" d="M50 55l46 0"/>
<text stroke="none" fill="white" font-size="16" x="106" y="64">
x1.comp_out_n-2
</text>
<path stroke="#A52A2A" d="M50 655l1 0 1 -10 0 -24 1 -20M53 602l0 -3M53 602l1 7M54 655l0 -46M54 655l488 0 0 -178M542 479l13 0M555 655l0 -179M555 655l39 0 0 -178M594 478l1 1 13 0M608 655l0 -187M608 655l14 0 0 -170 1 -7M623 479l0 -1M623 479l11 0"/>
<path stroke="#A52A2A" d="M634 656l0 -186M634 655l13 0M647 656l0 -1 81 0 0 -177M728 479l12 0M740 656l0 -187M740 655l67 0 0 -177 1 0M808 479l0 -1M808 479l11 0M819 655l0 -183M819 655l41 0 0 -177 1 0M861 479l0 -1M861 479l11 0M872 655l0 -187M872 655l14 0"/>
<path stroke="#A52A2A" d="M886 655l0 -170 1 -7M887 479l0 -1M887 479l11 0M898 655l0 -187M898 655l14 0 1 -170 0 -7M913 479l12 0M925 655l0 -185M925 655l12 0M937 657l0 -2M937 657l1 -122 0 -59M938 479l13 0M951 656l0 -180M951 655l23 0"/>
</svg>
