<?xml version="1.0" standalone="yes"?>
<!DOCTYPE svg PUBLIC "-//W3C//DTD SVG 1.1//EN"
 "http://www.w3.org/Graphics/SVG/1.1/DTD/svg11.dtd">
<svg xmlns="http://www.w3.org/2000/svg" version="1.1"
  width="100%" height="100%" viewBox="0 0 1024 768"
  style="fill: none; font-family: Helvetica;
 font: Helvetica;
">

<!-- Creator: NGspice -->

<rect x="0" y="0" width="1024" height="768" fill="black" stroke="none"/>
<text stroke="none" fill="white" font-size="16" x="358" y="752">
time
</text>
<text stroke="none" fill="white" font-size="16" x="10" y="16">
tran1: run142_vin-0.774756
</text>
<path stroke="white" d="M50 704l0 -637"/>
<text stroke="none" fill="white" font-size="16" x="35" y="728">
0.0
</text>
<path stroke="white" stroke-dasharray="1,2" d="M182 704l0 -637"/>
<text stroke="none" fill="white" font-size="16" x="157" y="728">
100.0
</text>
<path stroke="white" stroke-dasharray="1,2" d="M314 704l0 -637"/>
<text stroke="none" fill="white" font-size="16" x="289" y="728">
200.0
</text>
<path stroke="white" stroke-dasharray="1,2" d="M446 704l0 -637"/>
<text stroke="none" fill="white" font-size="16" x="421" y="728">
300.0
</text>
<path stroke="white" stroke-dasharray="1,2" d="M578 704l0 -637"/>
<text stroke="none" fill="white" font-size="16" x="553" y="728">
400.0
</text>
<path stroke="white" stroke-dasharray="1,2" d="M710 704l0 -637"/>
<text stroke="none" fill="white" font-size="16" x="685" y="728">
500.0
</text>
<path stroke="white" stroke-dasharray="1,2" d="M842 704l0 -637"/>
<text stroke="none" fill="white" font-size="16" x="817" y="728">
600.0
</text>
<path stroke="white" stroke-dasharray="1,2" d="M974 704l0 -637"/>
<text stroke="none" fill="white" font-size="16" x="949" y="728">
700.0
</text>
<text stroke="none" fill="white" font-size="16" x="614" y="752">
ns
</text>
<path stroke="white" stroke-dasharray="1,2" d="M50 704l924 0"/>
<text stroke="none" fill="white" font-size="16" x="8" y="712">
-3.0
</text>
<path stroke="white" stroke-dasharray="1,2" d="M50 613l924 0"/>
<text stroke="none" fill="white" font-size="16" x="8" y="621">
-2.0
</text>
<path stroke="white" stroke-dasharray="1,2" d="M50 522l924 0"/>
<text stroke="none" fill="white" font-size="16" x="8" y="530">
-1.0
</text>
<path stroke="white" d="M50 431l924 0"/>
<text stroke="none" fill="white" font-size="16" x="18" y="439">
0.0
</text>
<path stroke="white" stroke-dasharray="1,2" d="M50 340l924 0"/>
<text stroke="none" fill="white" font-size="16" x="18" y="348">
1.0
</text>
<path stroke="white" stroke-dasharray="1,2" d="M50 249l924 0"/>
<text stroke="none" fill="white" font-size="16" x="18" y="257">
2.0
</text>
<path stroke="white" stroke-dasharray="1,2" d="M50 158l924 0"/>
<text stroke="none" fill="white" font-size="16" x="18" y="166">
3.0
</text>
<path stroke="white" stroke-dasharray="1,2" d="M50 67l924 0"/>
<text stroke="none" fill="white" font-size="16" x="18" y="75">
4.0
</text>
<text stroke="none" fill="white" font-size="16" x="10" y="32">
     
</text>
<path stroke="red" d="M462 23l46 0"/>
<text stroke="none" fill="white" font-size="16" x="518" y="32">
x1.vsampled_p
</text>
<path stroke="red" d="M50 431l1 0 1 -7 0 -15 1 -14 0 -5 1 2M54 414l0 -38 1 -5 0 -13 1 -3 0 -3 1 -1 0 -1 2 0 1 -1 3 0 1 1 3 0 1 -1 49 0M117 370l0 -21M117 370l1 16M118 407l0 -21M118 407l1 3M119 415l0 -5M119 415l1 2M120 418l0 -1M120 418l1 1 2 0"/>
<path stroke="red" d="M123 420l0 -1M123 420l423 0 0 -23 1 -3 0 -21 1 -7 0 -5 3 -3 16 0M567 359l0 -1 26 0M593 359l0 -1 26 0M619 359l0 -1M619 359l1 0 0 -1 5 0 0 -12 1 -1 0 -6 1 1 2 0M629 341l0 -1M629 341l4 0 0 -1 13 0M646 341l0 -1M646 341l13 0"/>
<path stroke="red" d="M659 341l0 -1 13 0M672 341l0 -1M672 341l7 0M679 349l0 -8M679 349l1 0 0 -3 6 0 0 -1M686 346l19 0 1 2M706 350l0 -2M706 349l1 -1 18 0M725 349l0 -1 26 0M751 349l0 -1 27 0M778 349l0 -1 7 0M785 350l0 -2M785 350l1 0 0 -1 26 0M812 350l0 -1"/>
<path stroke="red" d="M812 349l19 0M831 350l0 -1 26 0M857 350l0 -1 26 0M883 350l0 -1 27 0M910 350l0 -1 8 0M918 402l0 -55M918 402l1 6M919 430l0 -22M919 427l1 -1 0 -3 1 -1 0 -2 53 0"/>
<path stroke="blue" d="M50 23l46 0"/>
<text stroke="none" fill="white" font-size="16" x="106" y="32">
x1.vsampled_n
</text>
<path stroke="blue" d="M50 431l1 0 1 -7 0 -16 1 -14 0 -5 1 2M54 414l0 -38 1 -5 0 -13 1 -3 0 -3 1 -1 0 -1 2 0 1 -1 3 0 1 1 5 0 0 -1 48 0 0 -1 1 -12 0 -35 1 -5 0 -10 1 -3 0 -2 1 -1 0 -1 419 0M540 280l0 -1 14 0 0 -1M554 279l13 0M567 280l0 -1 7 0"/>
<path stroke="blue" d="M574 302l0 -23M574 302l1 7M575 318l0 -9M575 318l1 2 4 0 0 -1M580 320l13 0M593 321l0 -1 7 0M600 334l0 -14M600 334l1 4M601 341l0 -3M601 341l1 -1 17 0M619 341l0 -1 27 0M646 341l0 -1 7 0M653 348l0 -8M653 348l1 2M654 351l0 -1"/>
<path stroke="blue" d="M654 351l1 -1 17 0M672 351l0 -1 26 0 1 1 0 -1 26 0M725 351l0 -1 6 0 0 -2 39 0M770 350l0 -2M770 349l8 0M778 350l0 -1 26 0M804 350l0 -1 26 0 1 1 0 -1 87 0M918 351l0 -29 1 -2 0 -29 1 -3 0 -5 1 -1 0 -2 1 0 0 -1 1 0 0 -1M923 279l13 0"/>
<path stroke="blue" d="M936 280l0 -1 14 0 0 -1M950 279l24 0"/>
<path stroke="#FFA500" d="M462 39l46 0"/>
<text stroke="none" fill="white" font-size="16" x="518" y="48">
x1.vsampled_p-x1.vsampled_n
</text>
<path stroke="#FFA500" d="M50 431l2 0M52 432l0 -1M52 432l2 0 0 -1 63 0M117 453l0 -22M117 453l1 28M118 537l0 -56M118 537l1 9M119 560l0 -14M119 560l1 5M120 568l0 -3M120 568l1 2M121 571l0 -1M121 571l1 0 1 1 417 0 0 -1M540 572l6 0 0 -23 1 -3 0 -21"/>
<path stroke="#FFA500" d="M547 525l1 -7 0 -5 3 -3 3 0M554 511l0 -1M554 511l12 0 1 -1M567 511l0 -2M567 510l7 0 0 -23 1 -7 0 -8 1 -2 1 -1M577 470l0 -1M577 470l16 0 0 -1M593 470l7 0 0 -15 1 -3 0 -4M601 449l24 0 0 -12 1 -2 0 -5 1 0M627 431l0 -1M627 431l19 0"/>
<path stroke="#FFA500" d="M646 432l0 -1 7 0 0 -7 1 -3 18 0M672 422l0 -1 7 0M679 429l0 -8M679 429l1 1 0 -4 19 0M699 427l0 -1 6 0M705 427l0 -1M705 427l1 2M706 431l0 -2 25 0M731 431l0 -2M731 431l39 0 0 -2M770 430l15 0M785 431l0 -1M785 431l1 0 0 -1"/>
<path stroke="#FFA500" d="M786 430l18 0M804 431l0 -1 8 0M812 432l0 -2M812 431l106 0M918 510l0 -83M918 510l1 9M919 567l0 -48M919 567l1 2M920 571l0 -2M920 571l1 0 1 1 14 0 0 -1M936 572l38 0"/>
<path stroke="green" d="M50 39l46 0"/>
<text stroke="none" fill="white" font-size="16" x="106" y="48">
x1.sw_sample-2
</text>
<path stroke="green" d="M50 613l1 0 1 -9 0 -21 1 -21M53 579l0 -23M53 579l1 31M54 613l0 -3M54 613l63 0M117 620l0 -172M117 449l422 0M539 614l0 -171M539 613l422 0M961 618l0 -170 1 1 12 0"/>
<path stroke="#FFC0C5" d="M462 55l46 0"/>
<text stroke="none" fill="white" font-size="16" x="518" y="64">
x1.comp_out_p+2
</text>
<path stroke="#FFC0C5" d="M50 249l1 0 1 -9 0 -22 1 -18 0 -4M53 198l1 5M54 249l0 -46M54 247l1 2 618 0M673 250l0 -1M673 250l1 -73 0 -93M674 85l13 0M687 250l0 -172M687 249l13 0M700 255l0 -172M700 85l13 0 0 -8 1 149M714 249l0 -23M714 249l13 0 0 -165"/>
<path stroke="#FFC0C5" d="M727 85l13 0M740 250l0 -171M740 249l40 0 0 -165M780 85l13 0M793 250l0 -172M793 249l13 0 1 -155 0 -10M807 85l12 0M819 249l0 -174M819 249l15 0 0 -165M834 85l11 0 0 -8 1 153M846 249l0 -19M846 249l128 0"/>
<path stroke="#A52A2A" d="M50 55l46 0"/>
<text stroke="none" fill="white" font-size="16" x="106" y="64">
x1.comp_out_n-2
</text>
<path stroke="#A52A2A" d="M50 613l1 0 1 -9 0 -22 1 -19M53 564l0 -3M53 564l1 6M54 613l0 -43M54 613l487 0 1 1 0 -167M542 449l13 0M555 613l0 -173M555 613l13 0M568 616l0 -169M568 449l13 0 0 -9 1 165M582 613l0 -8M582 613l12 0M594 620l0 -173M594 449l14 0"/>
<path stroke="#A52A2A" d="M608 614l0 -168M608 613l13 0M621 615l0 -168M621 449l13 0M634 613l0 -171M634 613l13 0M647 614l0 -167M647 449l14 0M661 613l0 -172M661 613l13 0M674 614l0 -1 90 0M764 614l0 -167M764 449l2 0M766 614l0 -173M766 613l95 0 0 -165"/>
<path stroke="#A52A2A" d="M861 449l11 0M872 613l0 -172M872 613l15 0 0 -165M887 449l11 0M898 613l0 -172M898 613l15 0M913 614l0 -166M913 449l12 0M925 613l0 -173M925 613l12 0 1 -52 0 -113M938 449l13 0M951 613l0 -173M951 613l23 0"/>
</svg>
