<?xml version="1.0" standalone="yes"?>
<!DOCTYPE svg PUBLIC "-//W3C//DTD SVG 1.1//EN"
 "http://www.w3.org/Graphics/SVG/1.1/DTD/svg11.dtd">
<svg xmlns="http://www.w3.org/2000/svg" version="1.1"
  width="100%" height="100%" viewBox="0 0 1024 768"
  style="fill: none; font-family: Helvetica;
 font: Helvetica;
">

<!-- Creator: NGspice -->

<rect x="0" y="0" width="1024" height="768" fill="black" stroke="none"/>
<text stroke="none" fill="white" font-size="16" x="358" y="752">
time
</text>
<text stroke="none" fill="white" font-size="16" x="10" y="16">
tran1: run137_vin-0.779151
</text>
<path stroke="white" d="M50 704l0 -637"/>
<text stroke="none" fill="white" font-size="16" x="35" y="728">
0.0
</text>
<path stroke="white" stroke-dasharray="1,2" d="M182 704l0 -637"/>
<text stroke="none" fill="white" font-size="16" x="157" y="728">
100.0
</text>
<path stroke="white" stroke-dasharray="1,2" d="M314 704l0 -637"/>
<text stroke="none" fill="white" font-size="16" x="289" y="728">
200.0
</text>
<path stroke="white" stroke-dasharray="1,2" d="M446 704l0 -637"/>
<text stroke="none" fill="white" font-size="16" x="421" y="728">
300.0
</text>
<path stroke="white" stroke-dasharray="1,2" d="M578 704l0 -637"/>
<text stroke="none" fill="white" font-size="16" x="553" y="728">
400.0
</text>
<path stroke="white" stroke-dasharray="1,2" d="M710 704l0 -637"/>
<text stroke="none" fill="white" font-size="16" x="685" y="728">
500.0
</text>
<path stroke="white" stroke-dasharray="1,2" d="M842 704l0 -637"/>
<text stroke="none" fill="white" font-size="16" x="817" y="728">
600.0
</text>
<path stroke="white" stroke-dasharray="1,2" d="M974 704l0 -637"/>
<text stroke="none" fill="white" font-size="16" x="949" y="728">
700.0
</text>
<text stroke="none" fill="white" font-size="16" x="614" y="752">
ns
</text>
<path stroke="white" stroke-dasharray="1,2" d="M50 704l924 0"/>
<text stroke="none" fill="white" font-size="16" x="8" y="712">
-2.5
</text>
<path stroke="white" stroke-dasharray="1,2" d="M50 655l924 0"/>
<text stroke="none" fill="white" font-size="16" x="8" y="663">
-2.0
</text>
<path stroke="white" stroke-dasharray="1,2" d="M50 606l924 0"/>
<text stroke="none" fill="white" font-size="16" x="8" y="614">
-1.5
</text>
<path stroke="white" stroke-dasharray="1,2" d="M50 557l924 0"/>
<text stroke="none" fill="white" font-size="16" x="8" y="565">
-1.0
</text>
<path stroke="white" stroke-dasharray="1,2" d="M50 508l924 0"/>
<text stroke="none" fill="white" font-size="16" x="8" y="516">
-0.5
</text>
<path stroke="white" d="M50 459l924 0"/>
<text stroke="none" fill="white" font-size="16" x="18" y="467">
0.0
</text>
<path stroke="white" stroke-dasharray="1,2" d="M50 410l924 0"/>
<text stroke="none" fill="white" font-size="16" x="18" y="418">
0.5
</text>
<path stroke="white" stroke-dasharray="1,2" d="M50 361l924 0"/>
<text stroke="none" fill="white" font-size="16" x="18" y="369">
1.0
</text>
<path stroke="white" stroke-dasharray="1,2" d="M50 312l924 0"/>
<text stroke="none" fill="white" font-size="16" x="18" y="320">
1.5
</text>
<path stroke="white" stroke-dasharray="1,2" d="M50 263l924 0"/>
<text stroke="none" fill="white" font-size="16" x="18" y="271">
2.0
</text>
<path stroke="white" stroke-dasharray="1,2" d="M50 214l924 0"/>
<text stroke="none" fill="white" font-size="16" x="18" y="222">
2.5
</text>
<path stroke="white" stroke-dasharray="1,2" d="M50 165l924 0"/>
<text stroke="none" fill="white" font-size="16" x="18" y="173">
3.0
</text>
<path stroke="white" stroke-dasharray="1,2" d="M50 116l924 0"/>
<text stroke="none" fill="white" font-size="16" x="18" y="124">
3.5
</text>
<path stroke="white" stroke-dasharray="1,2" d="M50 67l924 0"/>
<text stroke="none" fill="white" font-size="16" x="18" y="75">
4.0
</text>
<text stroke="none" fill="white" font-size="16" x="10" y="32">
     
</text>
<path stroke="red" d="M462 23l46 0"/>
<text stroke="none" fill="white" font-size="16" x="518" y="32">
x1.vsampled_p
</text>
<path stroke="red" d="M50 459l1 0 1 -7 0 -17 1 -15 0 -5 1 2M54 441l0 -42 1 -5 0 -14 1 -3 0 -3 1 -1 0 -1 1 -1 59 0M117 393l0 -22M117 393l1 18M118 434l0 -23M118 434l1 3M119 443l0 -6M119 443l1 1M120 446l0 -2M120 446l1 0M121 447l0 -1M121 447l419 0"/>
<path stroke="red" d="M540 448l0 -1 6 0M546 448l0 -23 1 -3 0 -27 1 -7 0 -4 1 -2 1 0 0 -1 17 0M567 382l0 -1 26 0M593 382l0 -1 26 0M619 382l0 -1 6 0 0 -13 1 -2 0 -5 1 0M627 362l0 -1M627 362l6 0 0 -1M633 362l13 0M646 363l0 -1 13 0 0 -1M659 362l13 0"/>
<path stroke="red" d="M672 363l0 -1 7 0M679 370l0 -8M679 370l1 1M680 372l0 -4 6 0 0 -1 12 0 1 1 0 -1M699 368l7 0M706 372l0 -5M706 372l1 -1 0 -1 18 0M725 371l0 -1 26 0M751 371l0 -1M751 371l1 0 0 -1 26 0M778 371l0 -1 7 0M785 371l0 -1M785 371l1 1"/>
<path stroke="red" d="M786 372l0 -1 132 0M918 456l0 -87M918 456l1 2 0 -5 1 -2 0 -2 1 -1 1 0 0 -1 14 0M936 448l0 -1 38 0"/>
<path stroke="blue" d="M50 23l46 0"/>
<text stroke="none" fill="white" font-size="16" x="106" y="32">
x1.vsampled_n
</text>
<path stroke="blue" d="M50 459l1 0 1 -7 0 -17 1 -16 0 -5 1 2M54 441l0 -42 1 -5 0 -14 1 -3 0 -3 1 -1 0 -1 1 -1 59 0 0 -2 1 -12 0 -38 1 -6 0 -11 1 -3 0 -2 1 -1 0 -1 2 0 1 -1 415 0M539 295l0 -1M539 295l1 0M540 296l0 -1 14 0 0 -1M554 295l13 0M567 296l0 -1"/>
<path stroke="blue" d="M567 295l7 0M574 319l0 -24M574 319l1 7M575 336l0 -10M575 336l1 3 4 0 0 -1M580 339l13 0M593 340l0 -1 7 0M600 353l0 -14M600 353l1 4M601 362l0 -5M601 362l1 -1 4 0 0 -1 1 1 26 0 0 -1M633 361l20 0M653 369l0 -8M653 369l1 2M654 372l0 -1"/>
<path stroke="blue" d="M654 372l77 0 0 -1 1 -1 0 -1 19 0M751 370l0 -1M751 370l1 0 0 -1 7 0M759 371l0 -2M759 371l54 0M813 372l0 -1 105 0M918 372l0 -48 1 -4 0 -17 1 -3 0 -3 1 -1 0 -1 2 0 0 -1M923 295l13 0M936 296l0 -1 14 0 0 -1M950 295l12 0 0 -1"/>
<path stroke="blue" d="M962 294l12 0"/>
<path stroke="#FFA500" d="M462 39l46 0"/>
<text stroke="none" fill="white" font-size="16" x="518" y="48">
x1.vsampled_p-x1.vsampled_n
</text>
<path stroke="#FFA500" d="M50 459l2 0M52 460l0 -1M52 460l2 0 0 -1 63 0M117 483l0 -24M117 483l1 30M118 574l0 -61M118 574l1 9M119 600l0 -17M119 600l1 4M120 607l0 -3M120 607l1 2M121 610l0 -1M121 610l1 1 1 0M123 612l0 -1M123 612l416 0 0 -1 1 1 0 -1"/>
<path stroke="#FFA500" d="M540 611l6 0M546 612l0 -23 1 -3 0 -27 1 -7 0 -4 1 -2 1 0 1 -1 3 0M554 546l0 -1M554 546l12 0 1 -1M567 546l0 -2M567 545l6 0 1 1 0 -25 1 -7 0 -10 1 -3 4 0M580 502l0 -1M580 502l13 0 0 -1 7 0M600 502l0 -15 1 -4 0 -5M601 479l5 0"/>
<path stroke="#FFA500" d="M606 480l0 -1M606 480l1 0 0 -1 12 0M619 480l0 -1M619 480l1 0 0 -1 5 0 0 -13 1 -2 0 -5 1 0M627 460l0 -1M627 460l19 0M646 461l0 -1 7 0 0 -8 1 -2 0 -1 18 0M672 450l0 -1 7 0M679 457l0 -8M679 457l1 1M680 459l0 -4 26 0M706 459l0 -4"/>
<path stroke="#FFA500" d="M706 459l1 -1 1 0 1 -1 16 0M725 458l0 -1 6 0M731 459l0 -2M731 459l1 1 27 0 0 -2 1 1 5 0 0 -1M765 459l13 0 0 -1M778 459l7 0 1 1 0 -1 27 0 0 -1M813 459l105 0M918 591l0 -134M918 591l1 6M919 609l0 -12M919 609l1 1M920 611l0 -1"/>
<path stroke="#FFA500" d="M920 611l3 0M923 612l0 -1M923 612l13 0 0 -2M936 611l14 0M950 612l0 -1M950 612l24 0"/>
<path stroke="green" d="M50 39l46 0"/>
<text stroke="none" fill="white" font-size="16" x="106" y="48">
x1.sw_sample-2
</text>
<path stroke="green" d="M50 655l1 0 1 -10 0 -23 1 -21M53 618l0 -24M53 618l1 34M54 655l0 -3M54 655l63 0M117 662l0 -184 1 0M118 479l0 -1M118 479l421 0M539 656l0 -184M539 655l422 0M961 660l0 -182 1 0M962 479l0 -1M962 479l12 0"/>
<path stroke="#FFC0C5" d="M462 55l46 0"/>
<text stroke="none" fill="white" font-size="16" x="518" y="64">
x1.comp_out_p+2
</text>
<path stroke="#FFC0C5" d="M50 263l1 0 1 -10 0 -23 1 -20 0 -4M53 208l1 5M54 263l0 -50M54 261l1 2 618 0 0 -11 1 -140 0 -27M674 87l13 0M687 264l0 -187M687 263l13 0 0 -178M700 87l13 0 0 -10 1 175M714 264l0 -12M714 263l13 0 0 -177 1 0M728 87l0 -1"/>
<path stroke="#FFC0C5" d="M728 87l12 0M740 264l0 -184M740 263l40 0 0 -177M780 87l13 0M793 263l0 -181M793 263l41 0 0 -177 1 1 10 0 0 -3M845 85l1 162M846 263l0 -16M846 263l128 0"/>
<path stroke="#A52A2A" d="M50 55l46 0"/>
<text stroke="none" fill="white" font-size="16" x="106" y="64">
x1.comp_out_n-2
</text>
<path stroke="#A52A2A" d="M50 655l1 0 1 -10 0 -24 1 -20M53 602l0 -4M53 602l1 7M54 655l0 -46M54 655l487 0 1 1 0 -180M542 479l13 0M555 655l0 -186M555 655l13 0 0 -178M568 479l13 0 0 -10 1 177M582 656l0 -10M582 655l12 0M594 656l0 -179M594 479l14 0"/>
<path stroke="#A52A2A" d="M608 656l0 -179M608 655l13 0 0 -178M621 479l13 0M634 655l0 -186M634 655l13 0M647 656l0 -180M647 479l14 0M661 655l0 -187M661 655l92 0 0 -178 1 1M754 479l0 -1M754 479l12 0M766 656l0 -183M766 655l41 0 0 -177 1 0M808 479l0 -1"/>
<path stroke="#A52A2A" d="M808 479l11 0M819 655l0 -180M819 655l41 0 0 -177M860 479l12 0M872 655l0 -188M872 655l14 0 0 -165 1 -12M887 479l0 -1M887 479l11 0M898 655l0 -188M898 655l15 0 0 -177M913 479l12 0M925 656l0 -187M925 655l12 0 1 -70 0 -108"/>
<path stroke="#A52A2A" d="M938 479l13 0M951 655l0 -186M951 655l23 0"/>
</svg>
