<?xml version="1.0" standalone="yes"?>
<!DOCTYPE svg PUBLIC "-//W3C//DTD SVG 1.1//EN"
 "http://www.w3.org/Graphics/SVG/1.1/DTD/svg11.dtd">
<svg xmlns="http://www.w3.org/2000/svg" version="1.1"
  width="100%" height="100%" viewBox="0 0 1024 768"
  style="fill: none; font-family: Helvetica;
 font: Helvetica;
">

<!-- Creator: NGspice -->

<rect x="0" y="0" width="1024" height="768" fill="black" stroke="none"/>
<text stroke="none" fill="white" font-size="16" x="358" y="752">
time
</text>
<text stroke="none" fill="white" font-size="16" x="10" y="16">
tran1: run350_vin-0.591944
</text>
<path stroke="white" d="M50 704l0 -637"/>
<text stroke="none" fill="white" font-size="16" x="35" y="728">
0.0
</text>
<path stroke="white" stroke-dasharray="1,2" d="M182 704l0 -637"/>
<text stroke="none" fill="white" font-size="16" x="157" y="728">
100.0
</text>
<path stroke="white" stroke-dasharray="1,2" d="M314 704l0 -637"/>
<text stroke="none" fill="white" font-size="16" x="289" y="728">
200.0
</text>
<path stroke="white" stroke-dasharray="1,2" d="M446 704l0 -637"/>
<text stroke="none" fill="white" font-size="16" x="421" y="728">
300.0
</text>
<path stroke="white" stroke-dasharray="1,2" d="M578 704l0 -637"/>
<text stroke="none" fill="white" font-size="16" x="553" y="728">
400.0
</text>
<path stroke="white" stroke-dasharray="1,2" d="M710 704l0 -637"/>
<text stroke="none" fill="white" font-size="16" x="685" y="728">
500.0
</text>
<path stroke="white" stroke-dasharray="1,2" d="M842 704l0 -637"/>
<text stroke="none" fill="white" font-size="16" x="817" y="728">
600.0
</text>
<path stroke="white" stroke-dasharray="1,2" d="M974 704l0 -637"/>
<text stroke="none" fill="white" font-size="16" x="949" y="728">
700.0
</text>
<text stroke="none" fill="white" font-size="16" x="614" y="752">
ns
</text>
<path stroke="white" stroke-dasharray="1,2" d="M50 704l924 0"/>
<text stroke="none" fill="white" font-size="16" x="8" y="712">
-2.5
</text>
<path stroke="white" stroke-dasharray="1,2" d="M50 655l924 0"/>
<text stroke="none" fill="white" font-size="16" x="8" y="663">
-2.0
</text>
<path stroke="white" stroke-dasharray="1,2" d="M50 606l924 0"/>
<text stroke="none" fill="white" font-size="16" x="8" y="614">
-1.5
</text>
<path stroke="white" stroke-dasharray="1,2" d="M50 557l924 0"/>
<text stroke="none" fill="white" font-size="16" x="8" y="565">
-1.0
</text>
<path stroke="white" stroke-dasharray="1,2" d="M50 508l924 0"/>
<text stroke="none" fill="white" font-size="16" x="8" y="516">
-0.5
</text>
<path stroke="white" d="M50 459l924 0"/>
<text stroke="none" fill="white" font-size="16" x="18" y="467">
0.0
</text>
<path stroke="white" stroke-dasharray="1,2" d="M50 410l924 0"/>
<text stroke="none" fill="white" font-size="16" x="18" y="418">
0.5
</text>
<path stroke="white" stroke-dasharray="1,2" d="M50 361l924 0"/>
<text stroke="none" fill="white" font-size="16" x="18" y="369">
1.0
</text>
<path stroke="white" stroke-dasharray="1,2" d="M50 312l924 0"/>
<text stroke="none" fill="white" font-size="16" x="18" y="320">
1.5
</text>
<path stroke="white" stroke-dasharray="1,2" d="M50 263l924 0"/>
<text stroke="none" fill="white" font-size="16" x="18" y="271">
2.0
</text>
<path stroke="white" stroke-dasharray="1,2" d="M50 214l924 0"/>
<text stroke="none" fill="white" font-size="16" x="18" y="222">
2.5
</text>
<path stroke="white" stroke-dasharray="1,2" d="M50 165l924 0"/>
<text stroke="none" fill="white" font-size="16" x="18" y="173">
3.0
</text>
<path stroke="white" stroke-dasharray="1,2" d="M50 116l924 0"/>
<text stroke="none" fill="white" font-size="16" x="18" y="124">
3.5
</text>
<path stroke="white" stroke-dasharray="1,2" d="M50 67l924 0"/>
<text stroke="none" fill="white" font-size="16" x="18" y="75">
4.0
</text>
<text stroke="none" fill="white" font-size="16" x="10" y="32">
     
</text>
<path stroke="red" d="M462 23l46 0"/>
<text stroke="none" fill="white" font-size="16" x="518" y="32">
x1.vsampled_p
</text>
<path stroke="red" d="M50 459l1 0 1 -7 0 -17 1 -15 0 -5 1 2M54 441l0 -40 1 -4 0 -15 1 -4 0 -3 1 -2 0 -1 1 -1 59 0M117 384l0 -13M117 384l1 14M118 416l0 -18M118 416l1 4M119 424l0 -4M119 424l1 2M120 428l0 -2M120 428l1 0 1 1 424 0 0 -25 1 -5 0 -26"/>
<path stroke="red" d="M547 373l1 -4 0 -2 1 -2 0 -1 1 -1 4 0 0 -1M554 363l13 0M567 364l0 -1 13 0 0 -1M580 363l13 0M593 364l0 -1 13 0 0 -1 1 1 12 0M619 364l0 -1 14 0 0 -1M633 363l13 0M646 364l0 -1 13 0 0 -1M659 363l13 0M672 364l0 -1 7 0M679 372l0 -9"/>
<path stroke="red" d="M679 372l1 0 0 -3 1 0 1 -1 16 0 1 1 0 -1 7 0M706 373l0 -5M706 373l1 -1 0 -1 18 0M725 372l0 -1 8 0 0 -4M733 368l1 1 4 0 0 -1M738 369l21 0M759 372l0 -3M759 370l19 0M778 371l0 -1 7 0M785 372l0 -2M785 372l1 0 0 -1 134 0M920 398l0 -33"/>
<path stroke="red" d="M920 398l1 3M921 431l0 -30M921 431l1 0M922 432l0 -1 1 0 0 -1 1 0 0 -1 50 0"/>
<path stroke="blue" d="M50 23l46 0"/>
<text stroke="none" fill="white" font-size="16" x="106" y="32">
x1.vsampled_n
</text>
<path stroke="blue" d="M50 459l1 0 1 -7 0 -17 1 -16 0 -5 1 2M54 441l0 -40 1 -4 0 -15 1 -4 0 -3 1 -2 0 -1 1 -1 59 0 0 -1 1 -10 0 -27 1 -6 0 -7 1 -3 0 -2 2 -2 418 0M540 314l0 -1 27 0M567 315l0 -2 7 0M574 339l0 -26M574 339l1 9M575 356l0 -8M575 356l1 1"/>
<path stroke="blue" d="M576 357l17 0M593 358l0 -1 7 0M600 373l0 -16M600 373l1 5M601 380l0 -2M601 380l1 -1 23 0 0 -9 1 -1 0 -7 1 -1 0 -1 6 0 0 -1M633 360l20 0M653 369l0 -9M653 369l1 2 161 0M815 372l0 -1 16 0M831 372l0 -1 89 0M920 373l0 -14 1 -1"/>
<path stroke="blue" d="M921 358l0 -28 1 -1 0 -10 1 -1 0 -3 1 0 0 -2 12 0M936 315l0 -2 14 0 0 -1M950 313l24 0"/>
<path stroke="#FFA500" d="M462 39l46 0"/>
<text stroke="none" fill="white" font-size="16" x="518" y="48">
x1.vsampled_p-x1.vsampled_n
</text>
<path stroke="#FFA500" d="M50 459l2 0M52 460l0 -1M52 460l2 0 0 -1 63 0M117 473l0 -14M117 473l1 24M118 541l0 -44M118 541l1 11M119 564l0 -12M119 564l1 5M120 572l0 -3M120 572l1 2 1 0M122 575l0 -1M122 575l418 0 0 -1M540 575l6 0 0 -26 1 -4 0 -26 1 -4"/>
<path stroke="#FFA500" d="M548 515l0 -2 1 -2 0 -1 1 -1 17 0 0 -1M567 509l7 0 0 -26 1 -9 0 -8 1 -1 24 0 0 -16 1 -5 0 -2 1 1 4 0 0 -1 1 1 18 0M625 452l0 -9M625 452l1 1M626 460l0 -7M626 460l1 1M627 462l0 -1M627 462l26 0 0 -9 1 -2 25 0M679 460l0 -9"/>
<path stroke="#FFA500" d="M679 460l1 0 0 -3 6 0 0 -1M686 457l20 0M706 461l0 -4M706 461l1 -1 0 -1 26 0 0 -4M733 456l1 1 25 0M759 460l0 -3M759 458l26 0M785 460l0 -2M785 460l1 0 0 -1 29 0 0 -1M815 459l105 0M920 498l0 -44M920 498l1 4M921 560l0 -58"/>
<path stroke="#FFA500" d="M921 560l1 1M922 571l0 -10M922 571l1 1M923 574l0 -2M923 574l1 0M924 575l0 -1M924 575l12 0 0 -1M936 575l38 0"/>
<path stroke="green" d="M50 39l46 0"/>
<text stroke="none" fill="white" font-size="16" x="106" y="48">
x1.sw_sample-2
</text>
<path stroke="green" d="M50 655l1 0 1 -10 0 -23 1 -21M53 619l0 -25M53 619l1 33M54 655l0 -3M54 655l62 0 1 7 0 -184 1 0M118 479l0 -1M118 479l421 0M539 656l0 -184M539 655l422 0M961 660l0 -182 1 0M962 479l0 -1M962 479l12 0"/>
<path stroke="#FFC0C5" d="M462 55l46 0"/>
<text stroke="none" fill="white" font-size="16" x="518" y="64">
x1.comp_out_p+2
</text>
<path stroke="#FFC0C5" d="M50 263l1 0 1 -10 0 -23 1 -20 0 -4M53 209l1 4M54 264l0 -71 1 66M55 263l0 -4M55 263l566 0M621 265l0 -180M621 87l13 0M634 264l0 -180M634 264l1 -1 38 0M673 266l0 -3M673 266l1 -117 0 -64M674 87l13 0M687 264l0 -185M687 263l13 0"/>
<path stroke="#FFC0C5" d="M700 264l0 -179M700 87l13 0 0 -9 1 165M714 263l0 -20M714 263l39 0 0 -178M753 87l13 0M766 263l0 -186M766 263l14 0 0 -177M780 87l13 0M793 263l0 -186M793 263l40 0 1 -165 0 -12M834 87l11 0 0 -9 1 165M846 263l0 -20M846 263l43 0"/>
<path stroke="#FFC0C5" d="M889 263l1 -169 0 -8M890 87l8 0M898 263l0 -183M898 263l76 0"/>
<path stroke="#A52A2A" d="M50 55l46 0"/>
<text stroke="none" fill="white" font-size="16" x="106" y="64">
x1.comp_out_n-2
</text>
<path stroke="#A52A2A" d="M50 655l1 0 1 -10 0 -24 1 -20M53 602l0 -3M53 602l1 7M54 656l0 -47M54 654l1 1 486 0 1 1 0 -180M542 479l13 0M555 655l0 -185M555 655l13 0M568 657l0 -181M568 479l13 0 0 -10 1 175M582 655l0 -11M582 655l12 0M594 657l0 -181"/>
<path stroke="#A52A2A" d="M594 478l1 1 13 0M608 655l0 -186M608 655l39 0M647 658l0 -182M647 479l14 0M661 655l0 -187M661 655l67 0 0 -177 1 0M729 479l0 -1M729 479l11 0M740 656l0 -185M740 655l69 0 1 -162 0 -15M810 479l9 0M819 655l0 -180M819 655l43 0"/>
<path stroke="#A52A2A" d="M862 655l0 -162 1 -15M863 479l0 -1M863 479l9 0M872 655l0 -185M872 655l43 0 0 -177 1 0M916 479l0 -1M916 479l9 0M925 655l0 -186M925 655l12 0M937 656l0 -1M937 656l1 -65 0 -114M938 479l13 0M951 655l0 -185M951 655l23 0"/>
</svg>
