<?xml version="1.0" standalone="yes"?>
<!DOCTYPE svg PUBLIC "-//W3C//DTD SVG 1.1//EN"
 "http://www.w3.org/Graphics/SVG/1.1/DTD/svg11.dtd">
<svg xmlns="http://www.w3.org/2000/svg" version="1.1"
  width="100%" height="100%" viewBox="0 0 1024 768"
  style="fill: none; font-family: Helvetica;
 font: Helvetica;
">

<!-- Creator: NGspice -->

<rect x="0" y="0" width="1024" height="768" fill="black" stroke="none"/>
<text stroke="none" fill="white" font-size="16" x="358" y="752">
time
</text>
<text stroke="none" fill="white" font-size="16" x="10" y="16">
tran1: run48_vin-0.425657
</text>
<path stroke="white" d="M50 704l0 -637"/>
<text stroke="none" fill="white" font-size="16" x="35" y="728">
0.0
</text>
<path stroke="white" stroke-dasharray="1,2" d="M182 704l0 -637"/>
<text stroke="none" fill="white" font-size="16" x="157" y="728">
100.0
</text>
<path stroke="white" stroke-dasharray="1,2" d="M314 704l0 -637"/>
<text stroke="none" fill="white" font-size="16" x="289" y="728">
200.0
</text>
<path stroke="white" stroke-dasharray="1,2" d="M446 704l0 -637"/>
<text stroke="none" fill="white" font-size="16" x="421" y="728">
300.0
</text>
<path stroke="white" stroke-dasharray="1,2" d="M578 704l0 -637"/>
<text stroke="none" fill="white" font-size="16" x="553" y="728">
400.0
</text>
<path stroke="white" stroke-dasharray="1,2" d="M710 704l0 -637"/>
<text stroke="none" fill="white" font-size="16" x="685" y="728">
500.0
</text>
<path stroke="white" stroke-dasharray="1,2" d="M842 704l0 -637"/>
<text stroke="none" fill="white" font-size="16" x="817" y="728">
600.0
</text>
<path stroke="white" stroke-dasharray="1,2" d="M974 704l0 -637"/>
<text stroke="none" fill="white" font-size="16" x="949" y="728">
700.0
</text>
<text stroke="none" fill="white" font-size="16" x="614" y="752">
ns
</text>
<path stroke="white" stroke-dasharray="1,2" d="M50 704l924 0"/>
<text stroke="none" fill="white" font-size="16" x="8" y="712">
-3.0
</text>
<path stroke="white" stroke-dasharray="1,2" d="M50 613l924 0"/>
<text stroke="none" fill="white" font-size="16" x="8" y="621">
-2.0
</text>
<path stroke="white" stroke-dasharray="1,2" d="M50 522l924 0"/>
<text stroke="none" fill="white" font-size="16" x="8" y="530">
-1.0
</text>
<path stroke="white" d="M50 431l924 0"/>
<text stroke="none" fill="white" font-size="16" x="18" y="439">
0.0
</text>
<path stroke="white" stroke-dasharray="1,2" d="M50 340l924 0"/>
<text stroke="none" fill="white" font-size="16" x="18" y="348">
1.0
</text>
<path stroke="white" stroke-dasharray="1,2" d="M50 249l924 0"/>
<text stroke="none" fill="white" font-size="16" x="18" y="257">
2.0
</text>
<path stroke="white" stroke-dasharray="1,2" d="M50 158l924 0"/>
<text stroke="none" fill="white" font-size="16" x="18" y="166">
3.0
</text>
<path stroke="white" stroke-dasharray="1,2" d="M50 67l924 0"/>
<text stroke="none" fill="white" font-size="16" x="18" y="75">
4.0
</text>
<text stroke="none" fill="white" font-size="16" x="10" y="32">
     
</text>
<path stroke="red" d="M462 23l46 0"/>
<text stroke="none" fill="white" font-size="16" x="518" y="32">
x1.vsampled_p
</text>
<path stroke="red" d="M50 431l1 0 1 -7 0 -15 1 -14 0 -5 1 2M54 415l0 -40 1 -5 0 -13 1 -3 0 -2 2 -2 1 0 1 -1 4 0M64 350l0 -1M64 350l4 0 1 -1 48 0M117 357l0 -8M117 357l1 10M118 380l0 -13M118 380l1 2M119 386l0 -4M119 386l1 1 1 0M121 388l0 -1M121 388l425 0"/>
<path stroke="red" d="M546 388l0 -23 1 -3 0 -26 1 -1 0 -5 1 -2 0 -1 5 0 0 -1M554 327l13 0M567 328l0 -1 13 0 0 -1M580 327l13 0M593 328l0 -1 7 0M600 344l0 -17M600 344l1 2M601 353l0 -7M601 351l1 -2 0 -1 1 -1 16 0M619 348l0 -1 27 0M646 348l0 -1 26 0"/>
<path stroke="red" d="M672 348l0 -1 27 0M699 348l0 -1 7 0M706 351l0 -4M706 351l1 0 0 -1 5 0 0 -1M712 350l20 0 0 -4 1 0M733 347l0 -1M733 347l18 0M751 348l0 -1M751 348l1 0 0 -1 7 0M759 350l0 -3M759 349l6 0 0 -1M765 349l21 0M786 350l0 -1 18 0M804 350l0 -1"/>
<path stroke="red" d="M804 349l26 0 1 1 0 -1 86 0M917 350l0 -1 1 -1M918 378l0 -30M918 378l1 4M919 389l0 -7M919 389l1 1 0 -1 1 0 0 -1 53 0"/>
<path stroke="blue" d="M50 23l46 0"/>
<text stroke="none" fill="white" font-size="16" x="106" y="32">
x1.vsampled_n
</text>
<path stroke="blue" d="M50 431l1 0 1 -7 0 -15 1 -15 0 -4 1 1M54 415l0 -40 1 -5 0 -13 1 -3 0 -2 2 -2 1 0 1 -1 4 0M64 350l0 -1M64 350l4 0 1 -1 48 0 0 -1 1 -9 0 -17 1 -4 0 -5 2 -2 1 0 1 -1 416 0M539 311l0 -1M539 311l15 0 0 -1M554 311l12 0 0 -1M566 311l1 0"/>
<path stroke="blue" d="M567 312l0 -1 7 0M574 333l0 -22M574 333l1 4M575 349l0 -12M575 349l1 2M576 352l0 -1M576 352l2 0 0 -1 15 0M593 352l0 -1 26 0M619 352l0 -1M619 352l1 0 0 -1 6 0 0 -15 1 -1 0 -1 6 0 0 -1M633 334l20 0M653 342l0 -8M653 342l1 2"/>
<path stroke="blue" d="M654 345l0 -1 25 0M679 348l0 -4M679 348l1 1M680 350l0 -1 132 0M812 350l0 -1M812 350l1 -1 18 0M831 350l0 -1 26 0M857 350l0 -1 26 0M883 350l0 -1 27 0M910 350l0 -1 7 0M917 350l0 -1M917 350l1 -2 0 -17 1 -3 0 -8 1 -3 0 -2 1 -2"/>
<path stroke="blue" d="M921 313l0 -1 1 0 0 -1 1 0 0 -1M923 311l13 0M936 312l0 -2M936 311l14 0 0 -1M950 311l11 0 0 -1 13 0"/>
<path stroke="#FFA500" d="M462 39l46 0"/>
<text stroke="none" fill="white" font-size="16" x="518" y="48">
x1.vsampled_p-x1.vsampled_n
</text>
<path stroke="#FFA500" d="M50 431l2 0 1 1 1 0 0 -1 63 0M117 439l0 -8M117 439l1 20M118 489l0 -30M118 489l1 7M119 503l0 -7M119 503l1 3 1 1M121 508l0 -1M121 508l425 0M546 509l0 -24 1 -3 0 -26 1 -1 0 -5 1 -1 0 -1 1 -1 17 0M567 448l0 -1 7 0 0 -22"/>
<path stroke="#FFA500" d="M574 425l1 -4 0 -13 1 -1 0 -1 17 0M593 407l0 -1 7 0M600 423l0 -17M600 423l1 3M601 433l0 -7M601 430l1 -1 0 -1 1 -1 23 0M626 442l0 -15M626 442l1 1M627 444l0 -1M627 444l6 0M633 445l0 -1M633 445l13 0 0 -1 7 0M653 445l0 -9"/>
<path stroke="#FFA500" d="M653 436l1 -1 0 -1 18 0M672 435l0 -1 7 0 0 -4 1 0 0 -2M680 429l26 0M706 433l0 -4M706 433l1 0 0 -1 25 0 0 -4 1 0M733 429l0 -1M733 429l1 0 1 1 3 0 0 -1 1 0 1 1 0 -1M740 430l11 0 0 -1M751 430l8 0M759 432l0 -2M759 431l27 0"/>
<path stroke="#FFA500" d="M786 432l0 -1M786 432l1 0 0 -1 17 0M804 432l0 -1 34 0 0 -1M838 431l79 0M917 432l0 -2 1 2M918 477l0 -45M918 477l1 8M919 500l0 -15M919 500l1 4M920 506l0 -2M920 506l1 1M921 508l0 -1M921 508l2 0M923 509l0 -1 13 0 0 -1M936 508l14 0"/>
<path stroke="#FFA500" d="M950 509l0 -1 24 0"/>
<path stroke="green" d="M50 39l46 0"/>
<text stroke="none" fill="white" font-size="16" x="106" y="48">
x1.sw_sample-2
</text>
<path stroke="green" d="M50 613l1 0 1 -9 0 -21 1 -21M53 580l0 -24M53 580l1 30M54 613l0 -3M54 613l63 0M117 620l0 -172M117 449l422 0M539 614l0 -171M539 613l422 0M961 618l0 -170 1 1 12 0"/>
<path stroke="#FFC0C5" d="M462 55l46 0"/>
<text stroke="none" fill="white" font-size="16" x="518" y="64">
x1.comp_out_p+2
</text>
<path stroke="#FFC0C5" d="M50 249l1 0 1 -9 0 -22 1 -18 0 -4M53 198l1 5M54 249l0 -46M54 248l1 1 539 0 0 -165M594 85l14 0M608 249l0 -171M608 249l13 0M621 250l0 -167M621 85l13 0M634 250l0 -171M634 249l66 0 0 -165M700 85l13 0 0 -2M713 85l1 150M714 249l0 -14"/>
<path stroke="#FFC0C5" d="M714 249l39 0 0 -165M753 85l13 0M766 249l0 -166M766 249l14 0 0 -160 1 -5M781 85l0 -1M781 85l12 0M793 249l0 -174M793 249l67 0 0 -164 12 0M872 249l0 -166M872 249l14 0 0 -157 1 -8M887 85l0 -1M887 85l11 0M898 249l0 -166"/>
<path stroke="#FFC0C5" d="M898 249l14 0 1 -157 0 -8M913 85l12 0M925 249l0 -172M925 249l49 0"/>
<path stroke="#A52A2A" d="M50 55l46 0"/>
<text stroke="none" fill="white" font-size="16" x="106" y="64">
x1.comp_out_n-2
</text>
<path stroke="#A52A2A" d="M50 613l1 0 1 -9 0 -22 1 -19M53 564l0 -3M53 564l1 6M54 613l0 -43M54 613l487 0 1 2 0 -168M542 449l13 0M555 614l0 -173M555 613l13 0 0 -166M568 449l13 0 0 -9 1 161M582 613l0 -12M582 613l65 0 0 -165M647 449l14 0M661 613l0 -173"/>
<path stroke="#A52A2A" d="M661 613l12 0 1 1 0 -166M674 449l13 0M687 613l0 -172M687 613l41 0 0 -165M728 449l12 0M740 613l0 -172M740 613l67 0 0 -165M807 449l12 0M819 613l0 -172M819 613l15 0 0 -165M834 449l11 0 0 -10 1 151M846 613l0 -23M846 613l91 0"/>
<path stroke="#A52A2A" d="M937 613l1 -52 0 -113M938 449l13 0M951 614l0 -172M951 613l23 0"/>
</svg>
