<?xml version="1.0" standalone="yes"?>
<!DOCTYPE svg PUBLIC "-//W3C//DTD SVG 1.1//EN"
 "http://www.w3.org/Graphics/SVG/1.1/DTD/svg11.dtd">
<svg xmlns="http://www.w3.org/2000/svg" version="1.1"
  width="100%" height="100%" viewBox="0 0 1024 768"
  style="fill: none; font-family: Helvetica;
 font: Helvetica;
">

<!-- Creator: NGspice -->

<rect x="0" y="0" width="1024" height="768" fill="black" stroke="none"/>
<text stroke="none" fill="white" font-size="16" x="358" y="752">
time
</text>
<text stroke="none" fill="white" font-size="16" x="10" y="16">
tran1: run572_vin-0.396827
</text>
<path stroke="white" d="M50 704l0 -637"/>
<text stroke="none" fill="white" font-size="16" x="35" y="728">
0.0
</text>
<path stroke="white" stroke-dasharray="1,2" d="M182 704l0 -637"/>
<text stroke="none" fill="white" font-size="16" x="157" y="728">
100.0
</text>
<path stroke="white" stroke-dasharray="1,2" d="M314 704l0 -637"/>
<text stroke="none" fill="white" font-size="16" x="289" y="728">
200.0
</text>
<path stroke="white" stroke-dasharray="1,2" d="M446 704l0 -637"/>
<text stroke="none" fill="white" font-size="16" x="421" y="728">
300.0
</text>
<path stroke="white" stroke-dasharray="1,2" d="M578 704l0 -637"/>
<text stroke="none" fill="white" font-size="16" x="553" y="728">
400.0
</text>
<path stroke="white" stroke-dasharray="1,2" d="M710 704l0 -637"/>
<text stroke="none" fill="white" font-size="16" x="685" y="728">
500.0
</text>
<path stroke="white" stroke-dasharray="1,2" d="M842 704l0 -637"/>
<text stroke="none" fill="white" font-size="16" x="817" y="728">
600.0
</text>
<path stroke="white" stroke-dasharray="1,2" d="M974 704l0 -637"/>
<text stroke="none" fill="white" font-size="16" x="949" y="728">
700.0
</text>
<text stroke="none" fill="white" font-size="16" x="614" y="752">
ns
</text>
<path stroke="white" stroke-dasharray="1,2" d="M50 704l924 0"/>
<text stroke="none" fill="white" font-size="16" x="8" y="712">
-3.0
</text>
<path stroke="white" stroke-dasharray="1,2" d="M50 613l924 0"/>
<text stroke="none" fill="white" font-size="16" x="8" y="621">
-2.0
</text>
<path stroke="white" stroke-dasharray="1,2" d="M50 522l924 0"/>
<text stroke="none" fill="white" font-size="16" x="8" y="530">
-1.0
</text>
<path stroke="white" d="M50 431l924 0"/>
<text stroke="none" fill="white" font-size="16" x="18" y="439">
0.0
</text>
<path stroke="white" stroke-dasharray="1,2" d="M50 340l924 0"/>
<text stroke="none" fill="white" font-size="16" x="18" y="348">
1.0
</text>
<path stroke="white" stroke-dasharray="1,2" d="M50 249l924 0"/>
<text stroke="none" fill="white" font-size="16" x="18" y="257">
2.0
</text>
<path stroke="white" stroke-dasharray="1,2" d="M50 158l924 0"/>
<text stroke="none" fill="white" font-size="16" x="18" y="166">
3.0
</text>
<path stroke="white" stroke-dasharray="1,2" d="M50 67l924 0"/>
<text stroke="none" fill="white" font-size="16" x="18" y="75">
4.0
</text>
<text stroke="none" fill="white" font-size="16" x="10" y="32">
     
</text>
<path stroke="red" d="M462 23l46 0"/>
<text stroke="none" fill="white" font-size="16" x="518" y="32">
x1.vsampled_p
</text>
<path stroke="red" d="M50 431l1 0 1 -7 0 -15 1 -14 0 -5 1 2M54 415l0 -40 1 -5 0 -13 1 -3 0 -2 2 -2 1 0 1 -1 4 0M64 350l0 -1M64 350l4 0 1 -1 48 0M117 356l0 -7M117 356l1 10M118 378l0 -12M118 378l1 2M119 382l0 -2M119 382l1 1M120 384l0 -1M120 384l1 1"/>
<path stroke="red" d="M121 385l419 0M540 386l0 -1 6 0 0 -22 1 -3 0 -25 1 -2 0 -6 2 -2 0 -1 4 0 0 -1M554 324l13 0M567 325l0 -1 26 0M593 325l0 -1 7 0M600 343l0 -19M600 343l1 3M601 351l0 -5M601 348l1 -1 0 -2 4 0 0 -1 13 0M619 345l0 -1M619 345l1 0"/>
<path stroke="red" d="M620 345l0 -1M620 345l13 0 0 -1 13 0M646 345l0 -1M646 345l13 0 0 -1 13 0M672 345l0 -1M672 345l7 0M679 350l0 -6M679 350l1 1M680 353l0 -3 6 0 0 -1M686 350l26 0 0 -1M712 350l20 0 0 -4 1 0M733 347l0 -1M733 347l18 0M751 348l0 -1"/>
<path stroke="red" d="M751 348l1 0 0 -1 7 0M759 350l0 -3M759 349l6 0 0 -1M765 349l21 0M786 350l0 -1 18 0M804 350l0 -1 27 0M831 350l0 -1 26 0M857 350l0 -1 26 0M883 350l0 -1M883 350l1 -1 26 0M910 350l0 -1 8 0M918 363l0 -16M918 363l1 3M919 380l0 -14"/>
<path stroke="red" d="M919 380l1 5M920 387l0 -2M920 387l1 -1 1 0 0 -1 14 0M936 386l0 -1 38 0"/>
<path stroke="blue" d="M50 23l46 0"/>
<text stroke="none" fill="white" font-size="16" x="106" y="32">
x1.vsampled_n
</text>
<path stroke="blue" d="M50 431l1 0 1 -7 0 -15 1 -15 0 -4 1 1M54 415l0 -40 1 -5 0 -13 1 -3 0 -2 2 -2 1 0 1 -1 4 0M64 350l0 -1M64 350l4 0 1 -1 48 0 0 -1 1 -9 0 -16 1 -3 0 -3 1 -2 0 -1 1 0 0 -1 419 0M540 314l0 -1 26 0 1 1 0 -1 7 0M574 339l0 -26"/>
<path stroke="blue" d="M574 339l1 4M575 353l0 -10M575 353l1 0M576 354l0 -1M576 354l49 0 0 -7 1 -2 0 -7 1 -1 0 -1 19 0M646 337l0 -1 7 0M653 344l0 -8M653 344l1 2M654 347l0 -1M654 347l1 0 0 -1 17 0M672 347l0 -1 26 0 1 1 0 -1 7 0M706 350l0 -4M706 350l1 -1"/>
<path stroke="blue" d="M707 349l105 0M812 350l0 -1 19 0M831 350l0 -1 87 0M918 350l0 -7 1 -2 0 -11 1 -4 0 -7 1 -2 0 -2 1 0 0 -1 1 0 0 -1 13 0M936 314l0 -1 38 0"/>
<path stroke="#FFA500" d="M462 39l46 0"/>
<text stroke="none" fill="white" font-size="16" x="518" y="48">
x1.vsampled_p-x1.vsampled_n
</text>
<path stroke="#FFA500" d="M50 431l2 0 1 1 1 -1 63 0M117 439l0 -8M117 439l1 19M118 485l0 -27M118 485l1 7M119 496l0 -4M119 496l1 3M120 501l0 -2M120 501l1 1M121 503l0 -1M121 503l419 0 0 -1M540 503l6 0 0 -22 1 -4 0 -25 1 -1 0 -6 1 -2 1 -1 17 0M567 443l0 -1"/>
<path stroke="#FFA500" d="M567 442l7 0 0 -26 1 -4 0 -9 1 -1 0 -1 17 0M593 402l0 -1 7 0M600 420l0 -19M600 420l1 3M601 427l0 -4M601 425l1 -1 0 -2 1 0 1 -1 15 0M619 422l0 -1 1 0M620 422l0 -1 5 0M625 428l0 -7M625 428l1 2M626 438l0 -8M626 438l1 0"/>
<path stroke="#FFA500" d="M627 439l0 -1M627 439l19 0M646 440l0 -1 7 0 0 -7 1 -2 0 -2M654 429l25 0M679 435l0 -6M679 435l1 1M680 437l0 -2 1 0 0 -1 25 0 0 -3 1 0M707 432l0 -1M707 432l25 0 0 -4 1 0M733 429l0 -1M733 429l26 0M759 432l0 -3M759 431l27 0"/>
<path stroke="#FFA500" d="M786 432l0 -1 26 0 0 -1M812 431l27 0M839 432l0 -1 79 0M918 451l0 -20M918 451l1 4M919 481l0 -26M919 481l1 9M920 499l0 -9M920 499l1 2M921 502l0 -1M921 502l1 0M922 503l0 -1M922 503l14 0 0 -1M936 503l14 0M950 504l0 -1 24 0"/>
<path stroke="green" d="M50 39l46 0"/>
<text stroke="none" fill="white" font-size="16" x="106" y="48">
x1.sw_sample-2
</text>
<path stroke="green" d="M50 613l1 0 1 -9 0 -21 1 -21M53 580l0 -24M53 580l1 30M54 613l0 -3M54 613l63 0M117 620l0 -172M117 449l422 0M539 614l0 -171M539 613l422 0M961 618l0 -170 1 1 12 0"/>
<path stroke="#FFC0C5" d="M462 55l46 0"/>
<text stroke="none" fill="white" font-size="16" x="518" y="64">
x1.comp_out_p+2
</text>
<path stroke="#FFC0C5" d="M50 249l1 0 1 -9 0 -22 1 -18 0 -4M53 198l1 5M54 249l0 -46M54 248l1 1 539 0M594 250l0 -167M594 84l1 1 13 0M608 250l0 -172M608 249l13 0M621 252l0 -169M621 85l13 0M634 250l0 -172M634 250l1 -1 39 0 0 -165M674 85l13 0M687 250l0 -173"/>
<path stroke="#FFC0C5" d="M687 249l66 0 0 -165M753 85l13 0M766 250l0 -168M766 249l14 0 0 -165 1 1 12 0M793 250l0 -174M793 249l41 0 0 -145 1 -19 0 -1M835 85l10 0 0 -10 1 149M846 249l0 -25M846 249l128 0"/>
<path stroke="#A52A2A" d="M50 55l46 0"/>
<text stroke="none" fill="white" font-size="16" x="106" y="64">
x1.comp_out_n-2
</text>
<path stroke="#A52A2A" d="M50 613l1 0 1 -9 0 -22 1 -19M53 564l0 -3M53 564l1 6M54 613l0 -43M54 613l487 0 1 1 0 -167M542 449l13 0M555 614l0 -171M555 613l13 0M568 614l0 -166M568 449l13 0 1 -9M582 614l0 -174M582 613l65 0M647 614l0 -167M647 449l14 0"/>
<path stroke="#A52A2A" d="M661 613l0 -173M661 613l39 0 0 -166M700 449l13 0 0 -3 1 155M714 613l0 -12M714 613l14 0 0 -164 12 0M740 613l0 -171M740 613l67 0 0 -165M807 449l12 0M819 614l0 -171M819 613l41 0 0 -164 12 0M872 613l0 -174M872 613l14 0 0 -164"/>
<path stroke="#A52A2A" d="M886 449l1 -1M887 449l0 -1M887 449l11 0M898 613l0 -174M898 613l15 0 0 -165M913 449l12 0M925 613l0 -172M925 613l12 0M937 614l0 -1M937 614l1 -58 0 -108M938 449l13 0M951 614l0 -171M951 613l23 0"/>
</svg>
