<?xml version="1.0" standalone="yes"?>
<!DOCTYPE svg PUBLIC "-//W3C//DTD SVG 1.1//EN"
 "http://www.w3.org/Graphics/SVG/1.1/DTD/svg11.dtd">
<svg xmlns="http://www.w3.org/2000/svg" version="1.1"
  width="100%" height="100%" viewBox="0 0 1024 768"
  style="fill: none; font-family: Helvetica;
 font: Helvetica;
">

<!-- Creator: NGspice -->

<rect x="0" y="0" width="1024" height="768" fill="black" stroke="none"/>
<text stroke="none" fill="white" font-size="16" x="358" y="752">
time
</text>
<text stroke="none" fill="white" font-size="16" x="10" y="16">
tran1: run231_vin-0.480329
</text>
<path stroke="white" d="M50 704l0 -637"/>
<text stroke="none" fill="white" font-size="16" x="35" y="728">
0.0
</text>
<path stroke="white" stroke-dasharray="1,2" d="M182 704l0 -637"/>
<text stroke="none" fill="white" font-size="16" x="157" y="728">
100.0
</text>
<path stroke="white" stroke-dasharray="1,2" d="M314 704l0 -637"/>
<text stroke="none" fill="white" font-size="16" x="289" y="728">
200.0
</text>
<path stroke="white" stroke-dasharray="1,2" d="M446 704l0 -637"/>
<text stroke="none" fill="white" font-size="16" x="421" y="728">
300.0
</text>
<path stroke="white" stroke-dasharray="1,2" d="M578 704l0 -637"/>
<text stroke="none" fill="white" font-size="16" x="553" y="728">
400.0
</text>
<path stroke="white" stroke-dasharray="1,2" d="M710 704l0 -637"/>
<text stroke="none" fill="white" font-size="16" x="685" y="728">
500.0
</text>
<path stroke="white" stroke-dasharray="1,2" d="M842 704l0 -637"/>
<text stroke="none" fill="white" font-size="16" x="817" y="728">
600.0
</text>
<path stroke="white" stroke-dasharray="1,2" d="M974 704l0 -637"/>
<text stroke="none" fill="white" font-size="16" x="949" y="728">
700.0
</text>
<text stroke="none" fill="white" font-size="16" x="614" y="752">
ns
</text>
<path stroke="white" stroke-dasharray="1,2" d="M50 704l924 0"/>
<text stroke="none" fill="white" font-size="16" x="8" y="712">
-2.5
</text>
<path stroke="white" stroke-dasharray="1,2" d="M50 655l924 0"/>
<text stroke="none" fill="white" font-size="16" x="8" y="663">
-2.0
</text>
<path stroke="white" stroke-dasharray="1,2" d="M50 606l924 0"/>
<text stroke="none" fill="white" font-size="16" x="8" y="614">
-1.5
</text>
<path stroke="white" stroke-dasharray="1,2" d="M50 557l924 0"/>
<text stroke="none" fill="white" font-size="16" x="8" y="565">
-1.0
</text>
<path stroke="white" stroke-dasharray="1,2" d="M50 508l924 0"/>
<text stroke="none" fill="white" font-size="16" x="8" y="516">
-0.5
</text>
<path stroke="white" d="M50 459l924 0"/>
<text stroke="none" fill="white" font-size="16" x="18" y="467">
0.0
</text>
<path stroke="white" stroke-dasharray="1,2" d="M50 410l924 0"/>
<text stroke="none" fill="white" font-size="16" x="18" y="418">
0.5
</text>
<path stroke="white" stroke-dasharray="1,2" d="M50 361l924 0"/>
<text stroke="none" fill="white" font-size="16" x="18" y="369">
1.0
</text>
<path stroke="white" stroke-dasharray="1,2" d="M50 312l924 0"/>
<text stroke="none" fill="white" font-size="16" x="18" y="320">
1.5
</text>
<path stroke="white" stroke-dasharray="1,2" d="M50 263l924 0"/>
<text stroke="none" fill="white" font-size="16" x="18" y="271">
2.0
</text>
<path stroke="white" stroke-dasharray="1,2" d="M50 214l924 0"/>
<text stroke="none" fill="white" font-size="16" x="18" y="222">
2.5
</text>
<path stroke="white" stroke-dasharray="1,2" d="M50 165l924 0"/>
<text stroke="none" fill="white" font-size="16" x="18" y="173">
3.0
</text>
<path stroke="white" stroke-dasharray="1,2" d="M50 116l924 0"/>
<text stroke="none" fill="white" font-size="16" x="18" y="124">
3.5
</text>
<path stroke="white" stroke-dasharray="1,2" d="M50 67l924 0"/>
<text stroke="none" fill="white" font-size="16" x="18" y="75">
4.0
</text>
<text stroke="none" fill="white" font-size="16" x="10" y="32">
     
</text>
<path stroke="red" d="M462 23l46 0"/>
<text stroke="none" fill="white" font-size="16" x="518" y="32">
x1.vsampled_p
</text>
<path stroke="red" d="M50 459l1 0 1 -7 0 -17 1 -15 0 -5 1 2M54 441l0 -42 1 -5 0 -15 1 -2 0 -3 1 -2 1 0 0 -1 59 0M117 381l0 -10M117 381l1 13M118 408l0 -14M118 408l1 3M119 415l0 -4M119 415l3 3 424 0 0 -24 1 -3 0 -27 1 -2 0 -7 1 -1 0 -1 1 -1 4 0"/>
<path stroke="red" d="M554 352l0 -1M554 352l13 0M567 353l0 -1 13 0 0 -1M580 352l13 0M593 353l0 -1 7 0M600 375l0 -23M600 375l1 3M601 380l0 -2 1 -2 0 -1 1 -1 22 0 0 -1 1 -7 0 -12 2 0M628 355l0 -1M628 355l5 0 0 -1M633 355l13 0M646 356l0 -1 7 0M653 367l0 -12"/>
<path stroke="red" d="M653 367l1 1M654 369l0 -2 1 0 0 -1 4 0 0 -1M659 366l20 0M679 372l0 -6M679 372l1 1M680 374l0 -2 1 0 0 -1 18 0M699 372l0 -1 26 0M725 372l0 -1 7 0 0 -4M732 368l1 0M733 369l0 -1M733 369l26 0M759 372l0 -3M759 371l1 -1 18 0M778 371l0 -1"/>
<path stroke="red" d="M778 370l8 0M786 372l0 -2M786 371l131 0M917 373l0 -2M917 373l1 2M918 408l0 -33M918 408l1 4M919 420l0 -8M919 420l1 0 0 -1 1 -1 53 0"/>
<path stroke="blue" d="M50 23l46 0"/>
<text stroke="none" fill="white" font-size="16" x="106" y="32">
x1.vsampled_n
</text>
<path stroke="blue" d="M50 459l1 0 1 -7 0 -17 1 -16 0 -5 1 2M54 441l0 -42 1 -5 0 -15 1 -2 0 -3 1 -2 1 0 0 -1 59 0 0 -1 1 -11 0 -21 1 -4 0 -6 1 -2 1 -1 0 -1 419 0M540 325l0 -1 14 0 0 -1M554 324l13 0M567 325l0 -1 7 0M574 350l0 -26M574 350l1 8M575 367l0 -9"/>
<path stroke="blue" d="M575 367l1 1 130 0M706 371l0 -3M706 371l107 0M813 372l0 -1 25 0 0 -1M838 371l79 0M917 372l0 -5 1 -4 0 -18 1 -2 0 -11 1 -3 0 -2 1 -1 0 -1 1 0 0 -1 14 0M936 325l0 -1 14 0 0 -1M950 324l24 0"/>
<path stroke="#FFA500" d="M462 39l46 0"/>
<text stroke="none" fill="white" font-size="16" x="518" y="48">
x1.vsampled_p-x1.vsampled_n
</text>
<path stroke="#FFA500" d="M50 459l2 0 1 1 1 0 0 -1 63 0M117 470l0 -11M117 470l1 23M118 529l0 -36M118 529l1 8M119 546l0 -9M119 546l1 3 1 2M121 552l0 -1M121 552l1 1 418 0 0 -1M540 553l6 0 0 -24 1 -3 0 -27 1 -3 0 -6 1 -1 0 -1 1 -1 17 0M567 488l0 -2"/>
<path stroke="#FFA500" d="M567 487l7 0 0 -26 1 -8 0 -9 1 0 0 -1 17 0M593 444l0 -1 7 0M600 466l0 -23M600 466l1 3M601 471l0 -2 1 -2 0 -1 1 -1 22 0 0 -1 1 -7 0 -12 2 0M628 446l0 -1M628 446l5 0 0 -1M633 446l20 0M653 458l0 -12M653 458l1 1 0 -1 1 0"/>
<path stroke="#FFA500" d="M655 458l0 -1 24 0M679 463l0 -6M679 463l1 1M680 465l0 -2 1 -1 25 0 0 -3 1 0M707 460l0 -1M707 460l1 -1 17 0M725 460l0 -1 7 0 0 -3 1 1 26 0M759 460l0 -3M759 459l1 0 1 -1 17 0M778 459l0 -1 8 0M786 460l0 -2M786 459l27 0"/>
<path stroke="#FFA500" d="M813 459l0 -1M813 459l104 0M917 466l0 -8M917 466l1 5M918 522l0 -51M918 522l1 6M919 547l0 -19M919 547l1 2M920 551l0 -2M920 551l1 1 1 0M922 553l0 -1M922 553l14 0 0 -1M936 553l38 0"/>
<path stroke="green" d="M50 39l46 0"/>
<text stroke="none" fill="white" font-size="16" x="106" y="48">
x1.sw_sample-2
</text>
<path stroke="green" d="M50 655l1 0 1 -10 0 -23 1 -21M53 619l0 -25M53 619l1 33M54 655l0 -3M54 655l63 0M117 662l0 -184 1 0M118 479l0 -1M118 479l421 0M539 656l0 -184M539 655l422 0M961 660l0 -182 1 0M962 479l0 -1M962 479l12 0"/>
<path stroke="#FFC0C5" d="M462 55l46 0"/>
<text stroke="none" fill="white" font-size="16" x="518" y="64">
x1.comp_out_p+2
</text>
<path stroke="#FFC0C5" d="M50 263l1 0 1 -10 0 -23 1 -20 0 -4M53 209l1 4M54 264l0 -51M54 262l1 1 539 0 0 -178M594 86l1 1 13 0M608 263l0 -184M608 263l39 0 0 -178M647 87l14 0M661 264l0 -187M661 263l12 0 1 1 0 -179M674 87l13 0M687 263l0 -186M687 263l66 0"/>
<path stroke="#FFC0C5" d="M753 263l0 -178M753 87l13 0M766 263l0 -184M766 263l14 0 0 -177 1 1 12 0M793 263l0 -185M793 263l41 0 0 -177M834 87l11 0 0 -3 1 163M846 263l0 -16M846 263l128 0"/>
<path stroke="#A52A2A" d="M50 55l46 0"/>
<text stroke="none" fill="white" font-size="16" x="106" y="64">
x1.comp_out_n-2
</text>
<path stroke="#A52A2A" d="M50 655l1 0 1 -10 0 -24 1 -20M53 602l0 -3M53 602l1 7M54 655l0 -46M54 655l488 0 0 -178M542 479l13 0M555 656l0 -184M555 655l13 0M568 656l0 -179M568 479l13 0 0 -10 1 175M582 655l0 -11M582 655l12 0M594 656l0 -1 27 0 0 -178"/>
<path stroke="#A52A2A" d="M621 479l13 0M634 656l0 -187M634 655l66 0M700 659l0 -182M700 479l13 0 0 -11 1 158M714 655l0 -29M714 655l13 0 1 -170 0 -7M728 479l12 0M740 655l0 -186M740 655l67 0 0 -177 1 0M808 479l0 -1M808 479l11 0M819 655l0 -180M819 655l41 0"/>
<path stroke="#A52A2A" d="M860 655l0 -177 1 1 11 0M872 655l0 -188M872 655l14 0 0 -170 1 -7M887 479l0 -1M887 479l11 0M898 655l0 -188M898 655l14 0 1 -170 0 -7M913 479l12 0M925 655l0 -186M925 655l12 0M937 660l0 -5M937 660l1 -156 0 -27M938 479l13 0"/>
<path stroke="#A52A2A" d="M951 656l0 -185M951 655l23 0"/>
</svg>
