<?xml version="1.0" standalone="yes"?>
<!DOCTYPE svg PUBLIC "-//W3C//DTD SVG 1.1//EN"
 "http://www.w3.org/Graphics/SVG/1.1/DTD/svg11.dtd">
<svg xmlns="http://www.w3.org/2000/svg" version="1.1"
  width="100%" height="100%" viewBox="0 0 1024 768"
  style="fill: none; font-family: Helvetica;
 font: Helvetica;
">

<!-- Creator: NGspice -->

<rect x="0" y="0" width="1024" height="768" fill="black" stroke="none"/>
<text stroke="none" fill="white" font-size="16" x="358" y="752">
time
</text>
<text stroke="none" fill="white" font-size="16" x="10" y="16">
tran1: run1153_vin0.113817
</text>
<path stroke="white" d="M50 704l0 -637"/>
<text stroke="none" fill="white" font-size="16" x="35" y="728">
0.0
</text>
<path stroke="white" stroke-dasharray="1,2" d="M182 704l0 -637"/>
<text stroke="none" fill="white" font-size="16" x="157" y="728">
100.0
</text>
<path stroke="white" stroke-dasharray="1,2" d="M314 704l0 -637"/>
<text stroke="none" fill="white" font-size="16" x="289" y="728">
200.0
</text>
<path stroke="white" stroke-dasharray="1,2" d="M446 704l0 -637"/>
<text stroke="none" fill="white" font-size="16" x="421" y="728">
300.0
</text>
<path stroke="white" stroke-dasharray="1,2" d="M578 704l0 -637"/>
<text stroke="none" fill="white" font-size="16" x="553" y="728">
400.0
</text>
<path stroke="white" stroke-dasharray="1,2" d="M710 704l0 -637"/>
<text stroke="none" fill="white" font-size="16" x="685" y="728">
500.0
</text>
<path stroke="white" stroke-dasharray="1,2" d="M842 704l0 -637"/>
<text stroke="none" fill="white" font-size="16" x="817" y="728">
600.0
</text>
<path stroke="white" stroke-dasharray="1,2" d="M974 704l0 -637"/>
<text stroke="none" fill="white" font-size="16" x="949" y="728">
700.0
</text>
<text stroke="none" fill="white" font-size="16" x="614" y="752">
ns
</text>
<path stroke="white" stroke-dasharray="1,2" d="M50 704l924 0"/>
<text stroke="none" fill="white" font-size="16" x="8" y="712">
-3.0
</text>
<path stroke="white" stroke-dasharray="1,2" d="M50 613l924 0"/>
<text stroke="none" fill="white" font-size="16" x="8" y="621">
-2.0
</text>
<path stroke="white" stroke-dasharray="1,2" d="M50 522l924 0"/>
<text stroke="none" fill="white" font-size="16" x="8" y="530">
-1.0
</text>
<path stroke="white" d="M50 431l924 0"/>
<text stroke="none" fill="white" font-size="16" x="18" y="439">
0.0
</text>
<path stroke="white" stroke-dasharray="1,2" d="M50 340l924 0"/>
<text stroke="none" fill="white" font-size="16" x="18" y="348">
1.0
</text>
<path stroke="white" stroke-dasharray="1,2" d="M50 249l924 0"/>
<text stroke="none" fill="white" font-size="16" x="18" y="257">
2.0
</text>
<path stroke="white" stroke-dasharray="1,2" d="M50 158l924 0"/>
<text stroke="none" fill="white" font-size="16" x="18" y="166">
3.0
</text>
<path stroke="white" stroke-dasharray="1,2" d="M50 67l924 0"/>
<text stroke="none" fill="white" font-size="16" x="18" y="75">
4.0
</text>
<text stroke="none" fill="white" font-size="16" x="10" y="32">
     
</text>
<path stroke="red" d="M462 23l46 0"/>
<text stroke="none" fill="white" font-size="16" x="518" y="32">
x1.vsampled_p
</text>
<path stroke="red" d="M50 431l1 0 1 -7 0 -15 1 -15 0 -4 1 1M54 415l0 -39 1 -5 0 -15 1 -2 0 -2 1 -2 2 0 1 -1 4 0M64 350l0 -1M64 350l4 0 1 -1 48 0 1 -4 0 -2 1 -2 0 -1 1 -1 420 0M540 340l0 -1 14 0 0 -1M554 339l13 0M567 340l0 -1 33 0M600 351l0 -12"/>
<path stroke="red" d="M600 351l1 2M601 362l0 -9M601 362l1 0 0 -2 1 0 0 -1 16 0M619 360l0 -1M619 360l1 0 0 -1 5 0 0 -9 1 -2 0 -6 1 0 0 -1 2 0M629 342l0 -1M629 342l4 0 0 -1 13 0M646 342l0 -1M646 342l13 0 0 -1 13 0M672 342l0 -1M672 342l7 0M679 347l0 -6"/>
<path stroke="red" d="M679 347l1 1M680 349l0 -2 6 0 0 -1M686 347l20 0M706 350l0 -3M706 350l1 -1 18 0M725 350l0 -1 26 0M751 350l0 -1 27 0M778 350l0 -1 26 0M804 350l0 -1 27 0M831 350l0 -1 26 0M857 350l0 -1 26 0M883 350l0 -1 27 0M910 350l0 -1 8 0"/>
<path stroke="red" d="M918 349l0 -5 1 0 0 -3 1 -1 0 -1 54 0"/>
<path stroke="blue" d="M50 23l46 0"/>
<text stroke="none" fill="white" font-size="16" x="106" y="32">
x1.vsampled_n
</text>
<path stroke="blue" d="M50 431l1 0 1 -7 0 -15 1 -14 0 -5 1 2M54 415l0 -39 1 -5 0 -15 1 -2 0 -2 1 -2 2 0 1 -1 4 0M64 350l0 -1M64 350l4 0 1 -1 48 0M117 350l0 -1M117 350l1 3M118 356l0 -3M118 356l1 2M119 359l0 -1M119 359l420 0M539 360l0 -1M539 360l2 0"/>
<path stroke="blue" d="M541 360l0 -1M541 360l5 0 0 -23 1 -1 0 -26 1 -6 0 -2 1 -2 0 -1 1 0 1 -1 15 0 1 1M567 300l0 -2 6 0 1 1M574 328l0 -29M574 328l1 8M575 341l0 -5M575 341l1 0 0 -1 1 0 0 -1 16 0M593 340l0 -1 26 0M619 340l0 -1 27 0M646 340l0 -1"/>
<path stroke="blue" d="M646 339l7 0M653 348l0 -9M653 348l1 2M654 351l0 -1 1 0 1 -1 16 0M672 350l0 -1 26 0 1 1 0 -1 26 0M725 350l0 -1 7 0 0 -3 1 1 18 0M751 348l0 -1 8 0M759 350l0 -3M759 349l1 0 1 -1 17 0M778 349l0 -1 7 0M785 349l0 -1M785 349l1 0"/>
<path stroke="blue" d="M786 350l0 -1 27 0M813 350l0 -1 17 0 1 1 0 -1 87 0M918 361l0 -15M918 361l1 1M919 365l0 -3M919 363l1 -2 0 -1 3 0 0 -1M923 360l27 0 0 -1M950 360l12 0 0 -1 12 0"/>
<path stroke="#FFA500" d="M462 39l46 0"/>
<text stroke="none" fill="white" font-size="16" x="518" y="48">
x1.vsampled_p-x1.vsampled_n
</text>
<path stroke="#FFA500" d="M50 431l67 0 0 -2 1 -6 0 -5 1 -4 0 -2 1 -1 1 0 0 -1 419 0M540 411l0 -1 1 0M541 411l0 -1 5 0M546 433l0 -23M546 433l1 1M547 461l0 -27M547 461l1 5M548 468l0 -2M548 468l1 2M549 471l0 -1M549 471l1 0 1 1 15 0 1 -1M567 472l0 -2"/>
<path stroke="#FFA500" d="M567 472l6 0 1 -1 0 -29 1 -8 0 -5 1 0M576 430l0 -1M576 430l1 0M577 431l0 -1M577 431l23 0M600 442l0 -12M600 442l1 3M601 454l0 -9M601 454l1 -1 0 -1 1 -1 22 0 0 -9 1 -2 0 -6 1 -1 26 0 0 -9 1 -2 0 -1M654 422l1 1 24 0M679 429l0 -6"/>
<path stroke="#FFA500" d="M679 429l1 1 0 -2 26 0M706 432l0 -4M706 431l26 0M732 434l0 -3M732 434l1 -1 26 0 0 -3M759 432l26 0 1 -1 0 -1M786 431l27 0 0 -1M813 431l105 0 0 -17 1 -2 0 -3 1 1 16 0M936 411l0 -1 38 0"/>
<path stroke="green" d="M50 39l46 0"/>
<text stroke="none" fill="white" font-size="16" x="106" y="48">
x1.sw_sample-2
</text>
<path stroke="green" d="M50 613l1 0 1 -9 0 -21 1 -21M53 581l0 -25M53 581l1 29M54 613l0 -3M54 613l63 0M117 620l0 -172M117 449l422 0M539 614l0 -171M539 613l422 0M961 618l0 -170 1 1 12 0"/>
<path stroke="#FFC0C5" d="M462 55l46 0"/>
<text stroke="none" fill="white" font-size="16" x="518" y="64">
x1.comp_out_p+2
</text>
<path stroke="#FFC0C5" d="M50 249l1 0 1 -9 0 -22 1 -18 0 -4M53 198l1 5M54 249l0 -46M54 249l488 0M542 254l0 -171M542 85l13 0M555 250l0 -167M555 249l39 0M594 251l0 -167 1 1 13 0M608 250l0 -171M608 249l65 0M673 250l0 -69 1 -84 0 -13M674 85l13 0"/>
<path stroke="#FFC0C5" d="M687 249l0 -172M687 249l13 0 0 -166M700 85l13 0 0 -9 1 140M714 249l0 -33M714 249l14 0 0 -164 12 0M740 249l0 -173M740 249l94 0 0 -165M834 85l11 0 0 -2M845 85l1 150M846 249l0 -14M846 249l91 0M937 250l0 -1M937 250l1 -65"/>
<path stroke="#FFC0C5" d="M938 185l0 -101M938 85l13 0M951 249l0 -171M951 249l23 0"/>
<path stroke="#A52A2A" d="M50 55l46 0"/>
<text stroke="none" fill="white" font-size="16" x="106" y="64">
x1.comp_out_n-2
</text>
<path stroke="#A52A2A" d="M50 613l1 0 1 -9 0 -22 1 -19M53 564l0 -3M53 564l1 6M54 613l0 -43M54 613l514 0M568 614l0 -167M568 449l13 0 0 -9 1 161M582 613l0 -12M582 613l12 0M594 614l0 -1 27 0 0 -166M621 449l13 0M634 613l0 -173M634 613l13 0M647 614l0 -167"/>
<path stroke="#A52A2A" d="M647 449l14 0M661 613l0 -174M661 613l12 0 1 1 0 -1 79 0 0 -165M753 449l13 0M766 613l0 -173M766 613l14 0 0 -165M780 449l13 0M793 613l0 -174M793 613l14 0 0 -158 1 -7M808 449l0 -1M808 449l11 0M819 613l0 -169M819 613l41 0"/>
<path stroke="#A52A2A" d="M860 613l0 -165 1 1 11 0M872 613l0 -174M872 613l15 0 0 -165M887 449l11 0M898 613l0 -174M898 613l15 0 0 -165M913 449l12 0M925 614l0 -168M925 613l13 0M938 614l0 -1 36 0"/>
</svg>
