<?xml version="1.0" standalone="yes"?>
<!DOCTYPE svg PUBLIC "-//W3C//DTD SVG 1.1//EN"
 "http://www.w3.org/Graphics/SVG/1.1/DTD/svg11.dtd">
<svg xmlns="http://www.w3.org/2000/svg" version="1.1"
  width="100%" height="100%" viewBox="0 0 1024 768"
  style="fill: none; font-family: Helvetica;
 font: Helvetica;
">

<!-- Creator: NGspice -->

<rect x="0" y="0" width="1024" height="768" fill="black" stroke="none"/>
<text stroke="none" fill="white" font-size="16" x="358" y="752">
time
</text>
<text stroke="none" fill="white" font-size="16" x="10" y="16">
tran1: run1159_vin0.11909
</text>
<path stroke="white" d="M50 704l0 -637"/>
<text stroke="none" fill="white" font-size="16" x="35" y="728">
0.0
</text>
<path stroke="white" stroke-dasharray="1,2" d="M182 704l0 -637"/>
<text stroke="none" fill="white" font-size="16" x="157" y="728">
100.0
</text>
<path stroke="white" stroke-dasharray="1,2" d="M314 704l0 -637"/>
<text stroke="none" fill="white" font-size="16" x="289" y="728">
200.0
</text>
<path stroke="white" stroke-dasharray="1,2" d="M446 704l0 -637"/>
<text stroke="none" fill="white" font-size="16" x="421" y="728">
300.0
</text>
<path stroke="white" stroke-dasharray="1,2" d="M578 704l0 -637"/>
<text stroke="none" fill="white" font-size="16" x="553" y="728">
400.0
</text>
<path stroke="white" stroke-dasharray="1,2" d="M710 704l0 -637"/>
<text stroke="none" fill="white" font-size="16" x="685" y="728">
500.0
</text>
<path stroke="white" stroke-dasharray="1,2" d="M842 704l0 -637"/>
<text stroke="none" fill="white" font-size="16" x="817" y="728">
600.0
</text>
<path stroke="white" stroke-dasharray="1,2" d="M974 704l0 -637"/>
<text stroke="none" fill="white" font-size="16" x="949" y="728">
700.0
</text>
<text stroke="none" fill="white" font-size="16" x="614" y="752">
ns
</text>
<path stroke="white" stroke-dasharray="1,2" d="M50 704l924 0"/>
<text stroke="none" fill="white" font-size="16" x="8" y="712">
-3.0
</text>
<path stroke="white" stroke-dasharray="1,2" d="M50 613l924 0"/>
<text stroke="none" fill="white" font-size="16" x="8" y="621">
-2.0
</text>
<path stroke="white" stroke-dasharray="1,2" d="M50 522l924 0"/>
<text stroke="none" fill="white" font-size="16" x="8" y="530">
-1.0
</text>
<path stroke="white" d="M50 431l924 0"/>
<text stroke="none" fill="white" font-size="16" x="18" y="439">
0.0
</text>
<path stroke="white" stroke-dasharray="1,2" d="M50 340l924 0"/>
<text stroke="none" fill="white" font-size="16" x="18" y="348">
1.0
</text>
<path stroke="white" stroke-dasharray="1,2" d="M50 249l924 0"/>
<text stroke="none" fill="white" font-size="16" x="18" y="257">
2.0
</text>
<path stroke="white" stroke-dasharray="1,2" d="M50 158l924 0"/>
<text stroke="none" fill="white" font-size="16" x="18" y="166">
3.0
</text>
<path stroke="white" stroke-dasharray="1,2" d="M50 67l924 0"/>
<text stroke="none" fill="white" font-size="16" x="18" y="75">
4.0
</text>
<text stroke="none" fill="white" font-size="16" x="10" y="32">
     
</text>
<path stroke="red" d="M462 23l46 0"/>
<text stroke="none" fill="white" font-size="16" x="518" y="32">
x1.vsampled_p
</text>
<path stroke="red" d="M50 431l1 0 1 -7 0 -15 1 -15 0 -4 1 1M54 415l0 -39 1 -5 0 -15 1 -2 0 -2 1 -2 2 0 1 -1 4 0M64 350l0 -1M64 350l4 0 1 -1 48 0 1 -4 0 -3 1 -2 0 -1 1 0 1 -1 418 0 1 1 0 -1M540 339l1 -1M541 339l0 -1M541 339l13 0 0 -1 12 0 1 1"/>
<path stroke="red" d="M567 339l0 -1M567 339l13 0 0 -1 13 0M593 339l0 -1M593 339l7 0M600 351l0 -12M600 351l1 3M601 362l0 -8M601 362l1 -1 0 -2 23 0 0 -9 1 -1 0 -7 1 -1 45 0M672 342l0 -1 7 0M679 346l0 -5M679 346l1 1M680 348l0 -1 1 -1 18 0M699 347l0 -1"/>
<path stroke="red" d="M699 346l7 0M706 350l0 -4M706 349l80 0M786 350l0 -1 18 0M804 350l0 -1 27 0M831 350l0 -1 87 0M918 350l0 -7 1 0 0 -3 1 -1 0 -1 2 0M922 339l0 -1M922 339l1 0 0 -1 13 0M936 339l0 -1M936 339l14 0 0 -1 24 0"/>
<path stroke="blue" d="M50 23l46 0"/>
<text stroke="none" fill="white" font-size="16" x="106" y="32">
x1.vsampled_n
</text>
<path stroke="blue" d="M50 431l1 0 1 -7 0 -15 1 -14 0 -5 1 2M54 415l0 -39 1 -5 0 -15 1 -2 0 -2 1 -2 2 0 1 -1 4 0M64 350l0 -1M64 350l4 0 1 -1 48 0M117 350l0 -1M117 350l1 4M118 356l0 -2M118 356l1 2M119 359l0 -1M119 359l1 1 426 0 0 -30 1 -3 0 -18"/>
<path stroke="blue" d="M547 309l1 -5 0 -2 1 -2 1 -1 4 0 0 -1M554 299l13 0M567 300l0 -1 7 0M574 329l0 -30M574 329l1 8M575 342l0 -5M575 342l1 0 0 -1 1 0 0 -1 3 0 0 -1M580 340l26 0 0 -1 1 0M607 340l0 -1M607 340l26 0 0 -1M633 340l20 0M653 349l0 -9"/>
<path stroke="blue" d="M653 349l1 3 0 -1 1 -1 76 0 1 -2 0 -1M732 348l6 0 0 -1M738 348l21 0M759 350l0 -2M759 349l53 0 1 1 0 -1 18 0M831 350l0 -1 26 0M857 350l0 -1 26 0M883 350l0 -1 27 0M910 350l0 -1 8 0M918 363l0 -16M918 363l1 1M919 366l0 -3 1 -2"/>
<path stroke="blue" d="M920 361l0 -1 54 0"/>
<path stroke="#FFA500" d="M462 39l46 0"/>
<text stroke="none" fill="white" font-size="16" x="518" y="48">
x1.vsampled_p-x1.vsampled_n
</text>
<path stroke="#FFA500" d="M50 431l67 0 0 -2 1 -6 0 -6 1 -3 0 -3 1 -1 1 0 0 -1 419 0M540 410l0 -1 1 0M541 410l0 -1 5 0M546 440l0 -31M546 440l1 3M547 460l0 -17M547 460l1 5M548 468l0 -3M548 468l1 1M549 470l0 -1M549 470l1 0M550 471l0 -1M550 471l16 0"/>
<path stroke="#FFA500" d="M566 471l1 -1M567 471l0 -2M567 471l7 0 0 -30 1 -8 0 -5 1 0 2 2 22 0M600 442l0 -12M600 442l1 3M601 453l0 -8M601 453l1 -1 0 -1 1 -1 3 0M606 451l0 -1M606 451l1 -1 18 0 0 -8 1 -2 0 -7 1 -1 26 0 0 -9 1 -2M654 422l0 -1M654 422l25 0"/>
<path stroke="#FFA500" d="M679 427l0 -5M679 427l1 1M680 429l0 -1 1 -1 25 0M706 431l0 -4M706 430l25 0 1 1M732 433l0 -2M732 432l27 0 0 -2M759 431l27 0M786 432l0 -1 27 0 0 -1M813 431l25 0 1 -1M839 431l0 -1M839 431l79 0M918 432l0 -20 1 -2 0 -2 1 1"/>
<path stroke="#FFA500" d="M920 409l16 0M936 410l0 -1M936 410l1 -1 37 0"/>
<path stroke="green" d="M50 39l46 0"/>
<text stroke="none" fill="white" font-size="16" x="106" y="48">
x1.sw_sample-2
</text>
<path stroke="green" d="M50 613l1 0 1 -9 0 -21 1 -21M53 581l0 -25M53 581l1 29M54 613l0 -3M54 613l63 0M117 620l0 -172M117 449l422 0M539 614l0 -171M539 613l422 0M961 618l0 -170 1 1 12 0"/>
<path stroke="#FFC0C5" d="M462 55l46 0"/>
<text stroke="none" fill="white" font-size="16" x="518" y="64">
x1.comp_out_p+2
</text>
<path stroke="#FFC0C5" d="M50 249l1 0 1 -9 0 -22 1 -18 0 -4M53 198l1 5M54 249l0 -46M54 249l487 0 1 2 0 -167M542 85l13 0M555 249l0 -172M555 249l39 0M594 250l0 -167 1 2 13 0M608 249l0 -171M608 249l65 0M673 251l0 -2M673 251l1 -89 0 -78M674 85l13 0"/>
<path stroke="#FFC0C5" d="M687 249l0 -171M687 249l13 0 0 -165M700 85l13 0 1 -8M714 250l0 -173M714 249l13 0 0 -165 1 1 12 0M740 250l0 -173M740 249l40 0 0 -159 1 -6M781 85l0 -1M781 85l12 0M793 250l0 -174M793 249l67 0 0 -165M860 85l12 0M872 249l0 -166"/>
<path stroke="#FFC0C5" d="M872 249l14 0 0 -164 1 -1M887 85l0 -1M887 85l11 0M898 249l0 -166M898 249l15 0 0 -165M913 85l12 0M925 249l0 -172M925 249l12 0 1 -15 0 -151M938 85l13 0M951 249l0 -172M951 249l23 0"/>
<path stroke="#A52A2A" d="M50 55l46 0"/>
<text stroke="none" fill="white" font-size="16" x="106" y="64">
x1.comp_out_n-2
</text>
<path stroke="#A52A2A" d="M50 613l1 0 1 -9 0 -22 1 -19M53 564l0 -3M53 564l1 6M54 613l0 -43M54 613l488 0M542 614l0 -1 26 0M568 614l0 -167M568 449l13 0 0 -3 1 97M582 614l0 -71M582 613l12 0M594 614l0 -1 27 0M621 619l0 -172M621 449l13 0M634 613l0 -172"/>
<path stroke="#A52A2A" d="M634 613l13 0M647 619l0 -172M647 449l14 0M661 613l0 -167M661 613l92 0 0 -165M753 449l13 0M766 613l0 -174M766 613l41 0 0 -164 12 0M819 613l0 -172M819 613l15 0 0 -164 11 0 0 -10 1 153M846 613l0 -21M846 613l128 0"/>
</svg>
