<?xml version="1.0" standalone="yes"?>
<!DOCTYPE svg PUBLIC "-//W3C//DTD SVG 1.1//EN"
 "http://www.w3.org/Graphics/SVG/1.1/DTD/svg11.dtd">
<svg xmlns="http://www.w3.org/2000/svg" version="1.1"
  width="100%" height="100%" viewBox="0 0 1024 768"
  style="fill: none; font-family: Helvetica;
 font: Helvetica;
">

<!-- Creator: NGspice -->

<rect x="0" y="0" width="1024" height="768" fill="black" stroke="none"/>
<text stroke="none" fill="white" font-size="16" x="358" y="752">
time
</text>
<text stroke="none" fill="white" font-size="16" x="10" y="16">
tran1: run265_vin-0.666651
</text>
<path stroke="white" d="M50 704l0 -637"/>
<text stroke="none" fill="white" font-size="16" x="35" y="728">
0.0
</text>
<path stroke="white" stroke-dasharray="1,2" d="M182 704l0 -637"/>
<text stroke="none" fill="white" font-size="16" x="157" y="728">
100.0
</text>
<path stroke="white" stroke-dasharray="1,2" d="M314 704l0 -637"/>
<text stroke="none" fill="white" font-size="16" x="289" y="728">
200.0
</text>
<path stroke="white" stroke-dasharray="1,2" d="M446 704l0 -637"/>
<text stroke="none" fill="white" font-size="16" x="421" y="728">
300.0
</text>
<path stroke="white" stroke-dasharray="1,2" d="M578 704l0 -637"/>
<text stroke="none" fill="white" font-size="16" x="553" y="728">
400.0
</text>
<path stroke="white" stroke-dasharray="1,2" d="M710 704l0 -637"/>
<text stroke="none" fill="white" font-size="16" x="685" y="728">
500.0
</text>
<path stroke="white" stroke-dasharray="1,2" d="M842 704l0 -637"/>
<text stroke="none" fill="white" font-size="16" x="817" y="728">
600.0
</text>
<path stroke="white" stroke-dasharray="1,2" d="M974 704l0 -637"/>
<text stroke="none" fill="white" font-size="16" x="949" y="728">
700.0
</text>
<text stroke="none" fill="white" font-size="16" x="614" y="752">
ns
</text>
<path stroke="white" stroke-dasharray="1,2" d="M50 704l924 0"/>
<text stroke="none" fill="white" font-size="16" x="8" y="712">
-2.5
</text>
<path stroke="white" stroke-dasharray="1,2" d="M50 655l924 0"/>
<text stroke="none" fill="white" font-size="16" x="8" y="663">
-2.0
</text>
<path stroke="white" stroke-dasharray="1,2" d="M50 606l924 0"/>
<text stroke="none" fill="white" font-size="16" x="8" y="614">
-1.5
</text>
<path stroke="white" stroke-dasharray="1,2" d="M50 557l924 0"/>
<text stroke="none" fill="white" font-size="16" x="8" y="565">
-1.0
</text>
<path stroke="white" stroke-dasharray="1,2" d="M50 508l924 0"/>
<text stroke="none" fill="white" font-size="16" x="8" y="516">
-0.5
</text>
<path stroke="white" d="M50 459l924 0"/>
<text stroke="none" fill="white" font-size="16" x="18" y="467">
0.0
</text>
<path stroke="white" stroke-dasharray="1,2" d="M50 410l924 0"/>
<text stroke="none" fill="white" font-size="16" x="18" y="418">
0.5
</text>
<path stroke="white" stroke-dasharray="1,2" d="M50 361l924 0"/>
<text stroke="none" fill="white" font-size="16" x="18" y="369">
1.0
</text>
<path stroke="white" stroke-dasharray="1,2" d="M50 312l924 0"/>
<text stroke="none" fill="white" font-size="16" x="18" y="320">
1.5
</text>
<path stroke="white" stroke-dasharray="1,2" d="M50 263l924 0"/>
<text stroke="none" fill="white" font-size="16" x="18" y="271">
2.0
</text>
<path stroke="white" stroke-dasharray="1,2" d="M50 214l924 0"/>
<text stroke="none" fill="white" font-size="16" x="18" y="222">
2.5
</text>
<path stroke="white" stroke-dasharray="1,2" d="M50 165l924 0"/>
<text stroke="none" fill="white" font-size="16" x="18" y="173">
3.0
</text>
<path stroke="white" stroke-dasharray="1,2" d="M50 116l924 0"/>
<text stroke="none" fill="white" font-size="16" x="18" y="124">
3.5
</text>
<path stroke="white" stroke-dasharray="1,2" d="M50 67l924 0"/>
<text stroke="none" fill="white" font-size="16" x="18" y="75">
4.0
</text>
<text stroke="none" fill="white" font-size="16" x="10" y="32">
     
</text>
<path stroke="red" d="M462 23l46 0"/>
<text stroke="none" fill="white" font-size="16" x="518" y="32">
x1.vsampled_p
</text>
<path stroke="red" d="M50 459l1 0 1 -7 0 -17 1 -15 0 -5 1 2M54 441l0 -41 1 -5 0 -14 1 -4 0 -2 1 -2 0 -1 1 -1 59 0M117 388l0 -17M117 388l1 16M118 425l0 -21M118 425l1 2M119 432l0 -5M119 432l1 2 1 1M121 436l0 -1M121 436l419 0M540 437l0 -1 6 0 0 -25"/>
<path stroke="red" d="M546 411l1 -2 0 -25 1 -7 0 -4 1 -1 0 -1 1 -1 17 0M567 371l0 -1 26 0M593 371l0 -1 26 0M619 371l0 -1 27 0M646 371l0 -1 26 0M672 371l0 -1 27 0M699 371l0 -1 26 0M725 371l0 -1 26 0M751 371l0 -1M751 371l1 -1 26 0M778 371l0 -1"/>
<path stroke="red" d="M778 370l7 0M785 372l0 -2M785 372l1 0 0 -1 132 0M918 422l0 -53M918 422l1 8M919 441l0 -11M919 441l1 -1 0 -2 1 -1 1 0 0 -1 52 0"/>
<path stroke="blue" d="M50 23l46 0"/>
<text stroke="none" fill="white" font-size="16" x="106" y="32">
x1.vsampled_n
</text>
<path stroke="blue" d="M50 459l1 0 1 -7 0 -17 1 -16 0 -5 1 2M54 441l0 -41 1 -5 0 -14 1 -4 0 -2 1 -2 0 -1 1 -1 59 0 0 -2 1 -11 0 -33 1 -5 0 -8 1 -3 1 -2 0 -1 3 0 0 -1 415 0M539 306l0 -1M539 306l1 0M540 307l0 -1 14 0 0 -1M554 306l13 0M567 307l0 -1"/>
<path stroke="blue" d="M567 306l6 0 1 5M574 330l0 -19M574 330l1 8M575 348l0 -10M575 348l1 2 4 0 0 -1M580 350l20 0M600 367l0 -17M600 367l1 3M601 373l0 -3M601 372l25 0 0 -14 1 -1 0 -4 6 0 0 -1 13 0M646 353l0 -1M646 353l7 0M653 361l0 -9M653 361l1 3"/>
<path stroke="blue" d="M654 364l5 0 0 -1 13 0M672 364l0 -1M672 364l7 0M679 369l0 -6M679 369l1 1 0 -1 26 0M706 372l0 -3M706 372l26 0 0 -3 19 0M751 370l0 -1M751 370l1 -1 7 0M759 372l0 -3M759 371l54 0M813 372l0 -1 105 0M918 373l0 -32 1 -4 0 -20"/>
<path stroke="blue" d="M919 317l1 -3 0 -4 1 -2 0 -1 1 0 0 -1 1 0 0 -1M923 306l13 0M936 307l0 -1 14 0 0 -1M950 306l12 0 0 -1 12 0"/>
<path stroke="#FFA500" d="M462 39l46 0"/>
<text stroke="none" fill="white" font-size="16" x="518" y="48">
x1.vsampled_p-x1.vsampled_n
</text>
<path stroke="#FFA500" d="M50 459l2 0M52 460l0 -1M52 460l2 0 0 -1 63 0M117 477l0 -18M117 477l1 28M118 559l0 -54M118 559l1 7M119 580l0 -14M119 580l1 4 1 3M121 588l0 -1M121 588l2 2 416 0 0 -1 1 0M540 590l0 -1 6 0 0 -24 1 -3 0 -25 1 -7 0 -3 1 -2"/>
<path stroke="#FFA500" d="M549 525l0 -1 1 0 1 -1 3 0M554 524l0 -1M554 524l12 0 1 -1M567 524l0 -2M567 523l6 0M573 524l0 -1M573 524l1 -6 0 -19 1 -8 0 -9 1 -3 4 0M580 480l0 -1 13 0M593 480l0 -1 7 0 0 -16 1 -3 0 -4M601 457l1 0 1 1 0 -1 16 0M619 458l0 -1"/>
<path stroke="#FFA500" d="M619 458l1 0 0 -1 6 0M626 471l0 -14M626 471l1 1M627 476l0 -4M627 476l1 0 1 1 17 0 0 -1M646 477l7 0 0 -9 1 -2 0 -1 1 1 24 0 0 -6 1 -1M680 460l0 -1M680 460l26 0 0 -3 19 0M725 458l0 -1 6 0 1 1M732 460l0 -2M732 460l27 0"/>
<path stroke="#FFA500" d="M759 460l0 -2 19 0M778 459l0 -1 7 0M785 460l0 -2M785 460l1 0 0 -1 27 0 0 -1M813 459l105 0M918 540l0 -84M918 540l1 13M919 583l0 -30M919 583l1 2M920 588l0 -3M920 588l1 0M921 589l0 -1M921 589l2 0M923 590l0 -1M923 590l13 0"/>
<path stroke="#FFA500" d="M936 590l0 -2M936 589l14 0M950 590l0 -1M950 590l24 0"/>
<path stroke="green" d="M50 39l46 0"/>
<text stroke="none" fill="white" font-size="16" x="106" y="48">
x1.sw_sample-2
</text>
<path stroke="green" d="M50 655l1 0 1 -10 0 -23 1 -21M53 619l0 -25M53 619l1 33M54 655l0 -3M54 655l63 0M117 662l0 -184 1 0M118 479l0 -1M118 479l421 0M539 656l0 -184M539 655l422 0M961 660l0 -182 1 0M962 479l0 -1M962 479l12 0"/>
<path stroke="#FFC0C5" d="M462 55l46 0"/>
<text stroke="none" fill="white" font-size="16" x="518" y="64">
x1.comp_out_p+2
</text>
<path stroke="#FFC0C5" d="M50 263l1 0 1 -10 0 -23 1 -20 0 -4M53 208l1 5M54 264l0 -51M54 249l1 13M55 263l0 -1M55 263l566 0 1 -164 0 -13M622 87l12 0M634 263l0 -186M634 263l93 0 0 -177 1 1 12 0M740 264l0 -183M740 263l40 0 0 -177M780 87l13 0M793 263l0 -180"/>
<path stroke="#FFC0C5" d="M793 263l41 0 0 -177 1 1 10 0 0 -3M845 85l1 162M846 263l0 -16M846 263l128 0"/>
<path stroke="#A52A2A" d="M50 55l46 0"/>
<text stroke="none" fill="white" font-size="16" x="106" y="64">
x1.comp_out_n-2
</text>
<path stroke="#A52A2A" d="M50 655l1 0 1 -10 0 -24 1 -20M53 602l0 -3M53 602l1 7M54 656l0 -47M54 654l1 1 486 0 1 2 0 -181M542 479l13 0M555 655l0 -186M555 655l13 0M568 658l0 -182M568 479l13 0 0 -10 1 171M582 655l0 -15M582 655l12 0M594 656l0 -180"/>
<path stroke="#A52A2A" d="M594 478l1 1 13 0M608 656l0 -187M608 655l39 0M647 662l0 -186M647 479l14 0M661 655l0 -185M661 655l12 0 0 -11 1 -143 0 -24M674 479l13 0M687 655l0 -184M687 655l13 0 0 -178 1 1M701 479l0 -1M701 479l12 0 0 -10 1 177M714 656l0 -10"/>
<path stroke="#A52A2A" d="M714 655l39 0 0 -177 1 1 12 0M766 656l0 -183M766 655l41 0 0 -177 1 1 11 0M819 655l0 -180M819 655l41 0 0 -177M860 479l12 0M872 655l0 -188M872 655l14 0 0 -163 1 -14M887 479l0 -1M887 479l11 0M898 655l0 -188M898 655l15 0"/>
<path stroke="#A52A2A" d="M913 655l0 -177M913 479l12 0M925 655l0 -186M925 655l12 0M937 656l0 -1M937 656l1 -78 0 -101M938 479l13 0M951 655l0 -186M951 655l23 0"/>
</svg>
