<?xml version="1.0" standalone="yes"?>
<!DOCTYPE svg PUBLIC "-//W3C//DTD SVG 1.1//EN"
 "http://www.w3.org/Graphics/SVG/1.1/DTD/svg11.dtd">
<svg xmlns="http://www.w3.org/2000/svg" version="1.1"
  width="100%" height="100%" viewBox="0 0 1024 768"
  style="fill: none; font-family: Helvetica;
 font: Helvetica;
">

<!-- Creator: NGspice -->

<rect x="0" y="0" width="1024" height="768" fill="black" stroke="none"/>
<text stroke="none" fill="white" font-size="16" x="358" y="752">
time
</text>
<text stroke="none" fill="white" font-size="16" x="10" y="16">
tran1: run12_vin-0.498658
</text>
<path stroke="white" d="M50 704l0 -637"/>
<text stroke="none" fill="white" font-size="16" x="35" y="728">
0.0
</text>
<path stroke="white" stroke-dasharray="1,2" d="M182 704l0 -637"/>
<text stroke="none" fill="white" font-size="16" x="157" y="728">
100.0
</text>
<path stroke="white" stroke-dasharray="1,2" d="M314 704l0 -637"/>
<text stroke="none" fill="white" font-size="16" x="289" y="728">
200.0
</text>
<path stroke="white" stroke-dasharray="1,2" d="M446 704l0 -637"/>
<text stroke="none" fill="white" font-size="16" x="421" y="728">
300.0
</text>
<path stroke="white" stroke-dasharray="1,2" d="M578 704l0 -637"/>
<text stroke="none" fill="white" font-size="16" x="553" y="728">
400.0
</text>
<path stroke="white" stroke-dasharray="1,2" d="M710 704l0 -637"/>
<text stroke="none" fill="white" font-size="16" x="685" y="728">
500.0
</text>
<path stroke="white" stroke-dasharray="1,2" d="M842 704l0 -637"/>
<text stroke="none" fill="white" font-size="16" x="817" y="728">
600.0
</text>
<path stroke="white" stroke-dasharray="1,2" d="M974 704l0 -637"/>
<text stroke="none" fill="white" font-size="16" x="949" y="728">
700.0
</text>
<text stroke="none" fill="white" font-size="16" x="614" y="752">
ns
</text>
<path stroke="white" stroke-dasharray="1,2" d="M50 704l924 0"/>
<text stroke="none" fill="white" font-size="16" x="8" y="712">
-3.0
</text>
<path stroke="white" stroke-dasharray="1,2" d="M50 613l924 0"/>
<text stroke="none" fill="white" font-size="16" x="8" y="621">
-2.0
</text>
<path stroke="white" stroke-dasharray="1,2" d="M50 522l924 0"/>
<text stroke="none" fill="white" font-size="16" x="8" y="530">
-1.0
</text>
<path stroke="white" d="M50 431l924 0"/>
<text stroke="none" fill="white" font-size="16" x="18" y="439">
0.0
</text>
<path stroke="white" stroke-dasharray="1,2" d="M50 340l924 0"/>
<text stroke="none" fill="white" font-size="16" x="18" y="348">
1.0
</text>
<path stroke="white" stroke-dasharray="1,2" d="M50 249l924 0"/>
<text stroke="none" fill="white" font-size="16" x="18" y="257">
2.0
</text>
<path stroke="white" stroke-dasharray="1,2" d="M50 158l924 0"/>
<text stroke="none" fill="white" font-size="16" x="18" y="166">
3.0
</text>
<path stroke="white" stroke-dasharray="1,2" d="M50 67l924 0"/>
<text stroke="none" fill="white" font-size="16" x="18" y="75">
4.0
</text>
<text stroke="none" fill="white" font-size="16" x="10" y="32">
     
</text>
<path stroke="red" d="M462 23l46 0"/>
<text stroke="none" fill="white" font-size="16" x="518" y="32">
x1.vsampled_p
</text>
<path stroke="red" d="M50 431l1 0 1 -7 0 -15 1 -14 0 -5 1 2M54 415l0 -40 1 -4 0 -14 1 -2 0 -3 2 -2 1 0 1 -1 3 0 1 1 4 0 1 -1 48 0M117 359l0 -10M117 359l1 12M118 385l0 -14M118 385l1 3M119 392l0 -4M119 392l2 2 418 0M539 395l0 -1M539 395l1 0 1 -1"/>
<path stroke="red" d="M541 395l0 -1M541 395l5 0 0 -27 1 -4 0 -22 1 -2 0 -4 1 -1 0 -1 1 0 0 -1 17 0M567 334l0 -1 26 0M593 334l0 -1 7 0M600 353l0 -20M600 353l1 3M601 360l0 -4M601 358l1 -2 0 -1 1 -1 22 0 0 -5 1 -4 0 -10 2 0M628 336l0 -1M628 336l5 0"/>
<path stroke="red" d="M633 336l0 -1M633 336l13 0M646 337l0 -1 7 0M653 347l0 -11M653 347l1 2 0 -2 1 -1 17 0M672 347l0 -1 27 0M699 347l0 -1 6 0 1 1M706 350l0 -3M706 349l6 0 0 -1M712 349l26 0 0 -1 1 1 26 0 0 -1M765 349l21 0M786 350l0 -1 18 0M804 350l0 -1"/>
<path stroke="red" d="M804 349l27 0M831 350l0 -1 26 0M857 350l0 -1 26 0M883 350l0 -1M883 350l1 -1 26 0M910 350l0 -1 8 0M918 383l0 -35M918 383l1 3M919 396l0 -10M919 396l1 1 0 -1 1 -1 40 0 1 -1 12 0"/>
<path stroke="blue" d="M50 23l46 0"/>
<text stroke="none" fill="white" font-size="16" x="106" y="32">
x1.vsampled_n
</text>
<path stroke="blue" d="M50 431l1 0 1 -7 0 -15 1 -15 0 -4 1 1M54 414l0 -39 1 -4 0 -14 1 -2 0 -3 2 -2 1 0 1 -1 3 0 1 1 4 0 1 -1 48 0 0 -1 1 -10 0 -20 1 -5 0 -6 2 -2 0 -1 419 0M540 305l0 -1 14 0 0 -1M554 304l13 0M567 305l0 -1 7 0M574 329l0 -25M574 329l1 9"/>
<path stroke="blue" d="M575 344l0 -6M575 344l1 0M576 345l0 -1M576 345l103 0M679 349l0 -4M679 349l1 0M680 351l0 -2M680 350l52 0 0 -3M732 348l27 0M759 350l0 -2M759 349l53 0M812 350l0 -1M812 350l1 0 0 -1 18 0M831 350l0 -1 86 0 1 1 0 -24 1 -3 0 -7"/>
<path stroke="blue" d="M919 316l1 -4 0 -5 1 -1 0 -1 1 0 0 -1 14 0M936 305l0 -1 14 0 0 -1M950 304l24 0"/>
<path stroke="#FFA500" d="M462 39l46 0"/>
<text stroke="none" fill="white" font-size="16" x="518" y="48">
x1.vsampled_p-x1.vsampled_n
</text>
<path stroke="#FFA500" d="M50 431l2 0 1 1 1 0 0 -1 63 0M117 442l0 -11M117 442l1 22M118 498l0 -34M118 498l1 8M119 516l0 -10M119 516l2 4M121 521l0 -1M121 521l1 0 1 1 417 0 0 -1M540 522l1 -1M541 522l0 -1M541 522l5 0 0 -27 1 -4 0 -22 1 -2 0 -4 1 -1"/>
<path stroke="#FFA500" d="M549 462l0 -1 1 0 0 -1 17 0M567 461l0 -1 7 0 0 -25 1 -8 0 -6 1 -1 0 -1 17 0M593 420l0 -1M593 420l1 0 0 -1 6 0M600 439l0 -20M600 439l1 3M601 446l0 -4M601 444l1 -2 0 -1 1 -1 22 0 0 -5 1 -4 0 -10 2 0M628 422l0 -1M628 422l25 0"/>
<path stroke="#FFA500" d="M653 433l0 -11M653 433l1 2 0 -2 1 0 0 -1 24 0 0 -4 1 0 0 -2M680 427l25 0 1 1M706 431l0 -3M706 430l26 0M732 433l0 -3M732 432l27 0 0 -2M759 431l27 0M786 432l0 -1 53 0M839 432l0 -1 79 0M918 488l0 -59M918 488l1 5M919 511l0 -18"/>
<path stroke="#FFA500" d="M919 511l1 4M920 520l0 -5M920 520l1 1 2 0M923 522l0 -1M923 522l13 0 0 -2M936 522l38 0"/>
<path stroke="green" d="M50 39l46 0"/>
<text stroke="none" fill="white" font-size="16" x="106" y="48">
x1.sw_sample-2
</text>
<path stroke="green" d="M50 613l1 0 1 -9 0 -21 1 -21M53 580l0 -24M53 580l1 30M54 613l0 -3M54 613l63 0M117 620l0 -172M117 449l422 0M539 614l0 -171M539 613l422 0M961 618l0 -170 1 1 12 0"/>
<path stroke="#FFC0C5" d="M462 55l46 0"/>
<text stroke="none" fill="white" font-size="16" x="518" y="64">
x1.comp_out_p+2
</text>
<path stroke="#FFC0C5" d="M50 249l1 0 1 -9 0 -22 1 -18 0 -4M53 198l1 5M54 250l0 -47M54 248l1 1 539 0 0 -165 1 1 13 0M608 250l0 -173M608 249l39 0 0 -166M647 85l14 0M661 249l0 -168M661 249l39 0 0 -166M700 85l13 0 1 -8M714 250l0 -173M714 249l13 0"/>
<path stroke="#FFC0C5" d="M727 249l0 -165 1 1 12 0M740 249l0 -172M740 249l40 0 0 -164 1 -1M781 85l0 -1M781 85l12 0M793 249l0 -173M793 249l41 0 0 -148 1 -16 0 -1M835 85l10 0 0 -10 1 146M846 249l0 -28M846 249l128 0"/>
<path stroke="#A52A2A" d="M50 55l46 0"/>
<text stroke="none" fill="white" font-size="16" x="106" y="64">
x1.comp_out_n-2
</text>
<path stroke="#A52A2A" d="M50 613l1 0 1 -9 0 -22 1 -19M53 564l0 -3M53 564l1 6M54 613l0 -43M54 613l488 0 0 -165M542 449l13 0M555 613l0 -172M555 613l13 0M568 614l0 -167M568 449l13 0 1 -7M582 614l0 -172M582 613l39 0 0 -166M621 449l13 0M634 613l0 -173"/>
<path stroke="#A52A2A" d="M634 613l40 0M674 618l0 -171M674 449l13 0M687 613l0 -173M687 613l66 0M753 615l0 -167M753 449l13 0M766 613l0 -167M766 613l41 0 0 -164 12 0M819 614l0 -171M819 613l40 0 1 -158 0 -7M860 449l12 0M872 613l0 -166M872 613l14 0"/>
<path stroke="#A52A2A" d="M886 613l0 -164 12 0M898 613l0 -166M898 613l14 0 1 -155 0 -9 12 0M925 614l0 -171M925 613l12 0 1 -51 0 -114M938 449l13 0M951 613l0 -173M951 613l23 0"/>
</svg>
