<?xml version="1.0" standalone="yes"?>
<!DOCTYPE svg PUBLIC "-//W3C//DTD SVG 1.1//EN"
 "http://www.w3.org/Graphics/SVG/1.1/DTD/svg11.dtd">
<svg xmlns="http://www.w3.org/2000/svg" version="1.1"
  width="100%" height="100%" viewBox="0 0 1024 768"
  style="fill: none; font-family: Helvetica;
 font: Helvetica;
">

<!-- Creator: NGspice -->

<rect x="0" y="0" width="1024" height="768" fill="black" stroke="none"/>
<text stroke="none" fill="white" font-size="16" x="358" y="752">
time
</text>
<text stroke="none" fill="white" font-size="16" x="10" y="16">
tran1: run14_vin-0.304732
</text>
<path stroke="white" d="M50 704l0 -637"/>
<text stroke="none" fill="white" font-size="16" x="35" y="728">
0.0
</text>
<path stroke="white" stroke-dasharray="1,2" d="M182 704l0 -637"/>
<text stroke="none" fill="white" font-size="16" x="157" y="728">
100.0
</text>
<path stroke="white" stroke-dasharray="1,2" d="M314 704l0 -637"/>
<text stroke="none" fill="white" font-size="16" x="289" y="728">
200.0
</text>
<path stroke="white" stroke-dasharray="1,2" d="M446 704l0 -637"/>
<text stroke="none" fill="white" font-size="16" x="421" y="728">
300.0
</text>
<path stroke="white" stroke-dasharray="1,2" d="M578 704l0 -637"/>
<text stroke="none" fill="white" font-size="16" x="553" y="728">
400.0
</text>
<path stroke="white" stroke-dasharray="1,2" d="M710 704l0 -637"/>
<text stroke="none" fill="white" font-size="16" x="685" y="728">
500.0
</text>
<path stroke="white" stroke-dasharray="1,2" d="M842 704l0 -637"/>
<text stroke="none" fill="white" font-size="16" x="817" y="728">
600.0
</text>
<path stroke="white" stroke-dasharray="1,2" d="M974 704l0 -637"/>
<text stroke="none" fill="white" font-size="16" x="949" y="728">
700.0
</text>
<text stroke="none" fill="white" font-size="16" x="614" y="752">
ns
</text>
<path stroke="white" stroke-dasharray="1,2" d="M50 704l924 0"/>
<text stroke="none" fill="white" font-size="16" x="8" y="712">
-3.0
</text>
<path stroke="white" stroke-dasharray="1,2" d="M50 613l924 0"/>
<text stroke="none" fill="white" font-size="16" x="8" y="621">
-2.0
</text>
<path stroke="white" stroke-dasharray="1,2" d="M50 522l924 0"/>
<text stroke="none" fill="white" font-size="16" x="8" y="530">
-1.0
</text>
<path stroke="white" d="M50 431l924 0"/>
<text stroke="none" fill="white" font-size="16" x="18" y="439">
0.0
</text>
<path stroke="white" stroke-dasharray="1,2" d="M50 340l924 0"/>
<text stroke="none" fill="white" font-size="16" x="18" y="348">
1.0
</text>
<path stroke="white" stroke-dasharray="1,2" d="M50 249l924 0"/>
<text stroke="none" fill="white" font-size="16" x="18" y="257">
2.0
</text>
<path stroke="white" stroke-dasharray="1,2" d="M50 158l924 0"/>
<text stroke="none" fill="white" font-size="16" x="18" y="166">
3.0
</text>
<path stroke="white" stroke-dasharray="1,2" d="M50 67l924 0"/>
<text stroke="none" fill="white" font-size="16" x="18" y="75">
4.0
</text>
<text stroke="none" fill="white" font-size="16" x="10" y="32">
     
</text>
<path stroke="red" d="M462 23l46 0"/>
<text stroke="none" fill="white" font-size="16" x="518" y="32">
x1.vsampled_p
</text>
<path stroke="red" d="M50 431l1 0 1 -7 0 -15 1 -14 0 -5 1 2M54 415l0 -40 1 -4 0 -14 1 -2 0 -3 2 -2 1 0 1 -1 3 0 1 1 4 0 1 -1 48 0M117 354l0 -5M117 354l1 8M118 371l0 -9M118 371l1 3 1 1M120 376l0 -1M120 376l1 1 425 0 0 -21 1 -3 0 -27 1 -4 0 -3"/>
<path stroke="red" d="M548 319l1 -2 0 -1 5 0 0 -1M554 316l13 0M567 317l0 -1 7 0M574 348l0 -32M574 348l1 3M575 358l0 -7M575 358l1 0 1 -1 3 0 0 -1 1 0M581 357l0 -1M581 357l5 0 1 -1 6 0M593 357l0 -1M593 357l13 0 0 -1 1 0M607 357l0 -1M607 357l12 0"/>
<path stroke="red" d="M619 357l0 -1M619 357l1 0 0 -1M620 357l5 0 0 -11 1 -2 0 -5 1 0 0 -1 1 1 5 0 0 -1M633 339l20 0M653 349l0 -10M653 349l1 2 0 -1 1 -1 157 0 1 1 0 -1 18 0M831 350l0 -1 26 0M857 350l0 -1 26 0M883 350l0 -1 27 0M910 350l0 -1 7 0"/>
<path stroke="red" d="M917 350l0 -1M917 350l1 5M918 381l0 -26M918 381l1 -1 0 -2 1 -1 54 0"/>
<path stroke="blue" d="M50 23l46 0"/>
<text stroke="none" fill="white" font-size="16" x="106" y="32">
x1.vsampled_n
</text>
<path stroke="blue" d="M50 431l1 0 1 -7 0 -15 1 -15 0 -4 1 1M54 415l0 -40 1 -4 0 -14 1 -2 0 -3 2 -2 1 0 1 -1 3 0 1 1 4 0 1 -1 48 0 0 -1 1 -7 0 -12 1 -4 1 -2 0 -1 1 0 1 -1 417 0M539 322l0 -1M539 322l15 0 0 -1M554 322l12 0 0 -1M566 322l1 0M567 323l0 -1"/>
<path stroke="blue" d="M567 322l13 0 0 -1M580 322l13 0M593 323l0 -2M593 322l7 0M600 337l0 -15M600 337l1 3M601 345l0 -5M601 344l2 -2 76 0M679 348l0 -6M679 348l1 1 0 -2 26 0M706 351l0 -4M706 350l26 0 0 -3 19 0M751 348l0 -1M751 348l1 0 0 -1 7 0"/>
<path stroke="blue" d="M759 350l0 -3M759 349l27 0M786 350l0 -1 18 0M804 350l0 -1 26 0 1 1 0 -1 86 0M917 350l0 -3 1 -6 0 -18 1 -1 0 -1 2 0M921 322l0 -1M921 322l2 0 0 -1 1 0M924 322l0 -1M924 322l12 0M936 323l0 -2M936 322l14 0 0 -1M950 322l11 0"/>
<path stroke="blue" d="M961 322l0 -1 13 0"/>
<path stroke="#FFA500" d="M462 39l46 0"/>
<text stroke="none" fill="white" font-size="16" x="518" y="48">
x1.vsampled_p-x1.vsampled_n
</text>
<path stroke="#FFA500" d="M50 431l67 0M117 436l0 -5M117 436l1 16M118 473l0 -21M118 473l1 7 1 3M120 485l0 -2M120 485l1 1 425 0 0 -21 1 -3 0 -27 1 -4 0 -3 1 -1 0 -1 1 -1 24 0M574 457l0 -32M574 457l1 3M575 468l0 -8M575 468l1 0 0 -1 1 0 0 -1 16 0"/>
<path stroke="#FFA500" d="M593 466l0 -1M593 466l7 0 0 -15 1 -3 0 -6M601 444l1 0M602 445l0 -1M602 445l4 0M606 446l0 -1M606 446l13 0 0 -1M619 446l1 0 0 -1 5 0 0 -11 1 -1 0 -5 1 -1 1 0 1 1 4 0 0 -1M633 428l20 0M653 438l0 -10M653 438l1 2 0 -1 1 -1"/>
<path stroke="#FFA500" d="M655 438l24 0 0 -6 1 -1M680 432l0 -1M680 432l1 1 25 0 0 -4M706 430l26 0M732 433l0 -3M732 433l1 0 1 -1 17 0M751 433l0 -1M751 433l1 -1 7 0 0 -2M759 431l27 0 0 -1 1 0 1 1 3 0 0 -1M791 431l13 0 0 -1 1 0M805 431l0 -1M805 431l8 0"/>
<path stroke="#FFA500" d="M813 432l0 -1 104 0M917 435l0 -5M917 435l1 10M918 489l0 -44M918 489l1 0 0 -1 1 -1 1 0 0 -1 2 0M923 487l0 -1 27 0M950 487l0 -1 24 0"/>
<path stroke="green" d="M50 39l46 0"/>
<text stroke="none" fill="white" font-size="16" x="106" y="48">
x1.sw_sample-2
</text>
<path stroke="green" d="M50 613l1 0 1 -9 0 -21 1 -21M53 581l0 -25M53 581l1 29M54 613l0 -3M54 613l63 0M117 620l0 -172M117 449l422 0M539 614l0 -171M539 613l422 0M961 618l0 -170 1 1 12 0"/>
<path stroke="#FFC0C5" d="M462 55l46 0"/>
<text stroke="none" fill="white" font-size="16" x="518" y="64">
x1.comp_out_p+2
</text>
<path stroke="#FFC0C5" d="M50 249l1 0 1 -9 0 -22 1 -18 0 -4M53 198l1 5M54 250l0 -47M54 248l1 1 513 0 0 -165M568 85l13 0 0 -8 1 155M582 249l0 -17M582 249l65 0M647 252l0 -169M647 85l14 0M661 249l0 -167M661 249l66 0 1 -145 0 -20M728 85l12 0M740 249l0 -172"/>
<path stroke="#FFC0C5" d="M740 249l67 0 0 -165M807 85l12 0M819 249l0 -174M819 249l15 0 0 -165M834 85l11 0 0 -2 1 151M846 249l0 -15M846 249l128 0"/>
<path stroke="#A52A2A" d="M50 55l46 0"/>
<text stroke="none" fill="white" font-size="16" x="106" y="64">
x1.comp_out_n-2
</text>
<path stroke="#A52A2A" d="M50 613l1 0 1 -9 0 -22 1 -19M53 564l0 -3M53 564l1 6M54 613l0 -43M54 612l1 1 487 0 0 -165M542 449l13 0M555 613l0 -173M555 613l39 0 0 -165M594 449l14 0M608 613l0 -171M608 613l13 0 0 -166M621 449l13 0M634 614l0 -168M634 614l1 -1"/>
<path stroke="#A52A2A" d="M635 613l38 0M673 617l0 -4M673 617l1 -127 0 -43M674 449l13 0M687 613l0 -171M687 613l13 0 0 -165M700 449l13 0 0 -5 1 72M714 614l0 -98M714 613l39 0 0 -165M753 449l13 0M766 613l0 -173M766 613l14 0 0 -157 1 -8M781 449l0 -1"/>
<path stroke="#A52A2A" d="M781 449l12 0M793 613l0 -173M793 613l67 0 0 -165M860 449l12 0M872 613l0 -174M872 613l14 0 0 -158 1 -7M887 449l0 -1M887 449l11 0M898 613l0 -174M898 613l14 0 1 -158 0 -7M913 449l12 0M925 613l0 -173M925 613l12 0 1 -52 0 -113"/>
<path stroke="#A52A2A" d="M938 449l13 0M951 614l0 -166M951 613l23 0"/>
</svg>
