<?xml version="1.0" standalone="yes"?>
<!DOCTYPE svg PUBLIC "-//W3C//DTD SVG 1.1//EN"
 "http://www.w3.org/Graphics/SVG/1.1/DTD/svg11.dtd">
<svg xmlns="http://www.w3.org/2000/svg" version="1.1"
  width="100%" height="100%" viewBox="0 0 1024 768"
  style="fill: none; font-family: Helvetica;
 font: Helvetica;
">

<!-- Creator: NGspice -->

<rect x="0" y="0" width="1024" height="768" fill="black" stroke="none"/>
<text stroke="none" fill="white" font-size="16" x="358" y="752">
time
</text>
<text stroke="none" fill="white" font-size="16" x="10" y="16">
tran1: run811_vin-0.186769
</text>
<path stroke="white" d="M50 704l0 -637"/>
<text stroke="none" fill="white" font-size="16" x="35" y="728">
0.0
</text>
<path stroke="white" stroke-dasharray="1,2" d="M182 704l0 -637"/>
<text stroke="none" fill="white" font-size="16" x="157" y="728">
100.0
</text>
<path stroke="white" stroke-dasharray="1,2" d="M314 704l0 -637"/>
<text stroke="none" fill="white" font-size="16" x="289" y="728">
200.0
</text>
<path stroke="white" stroke-dasharray="1,2" d="M446 704l0 -637"/>
<text stroke="none" fill="white" font-size="16" x="421" y="728">
300.0
</text>
<path stroke="white" stroke-dasharray="1,2" d="M578 704l0 -637"/>
<text stroke="none" fill="white" font-size="16" x="553" y="728">
400.0
</text>
<path stroke="white" stroke-dasharray="1,2" d="M710 704l0 -637"/>
<text stroke="none" fill="white" font-size="16" x="685" y="728">
500.0
</text>
<path stroke="white" stroke-dasharray="1,2" d="M842 704l0 -637"/>
<text stroke="none" fill="white" font-size="16" x="817" y="728">
600.0
</text>
<path stroke="white" stroke-dasharray="1,2" d="M974 704l0 -637"/>
<text stroke="none" fill="white" font-size="16" x="949" y="728">
700.0
</text>
<text stroke="none" fill="white" font-size="16" x="614" y="752">
ns
</text>
<path stroke="white" stroke-dasharray="1,2" d="M50 704l924 0"/>
<text stroke="none" fill="white" font-size="16" x="8" y="712">
-2.5
</text>
<path stroke="white" stroke-dasharray="1,2" d="M50 655l924 0"/>
<text stroke="none" fill="white" font-size="16" x="8" y="663">
-2.0
</text>
<path stroke="white" stroke-dasharray="1,2" d="M50 606l924 0"/>
<text stroke="none" fill="white" font-size="16" x="8" y="614">
-1.5
</text>
<path stroke="white" stroke-dasharray="1,2" d="M50 557l924 0"/>
<text stroke="none" fill="white" font-size="16" x="8" y="565">
-1.0
</text>
<path stroke="white" stroke-dasharray="1,2" d="M50 508l924 0"/>
<text stroke="none" fill="white" font-size="16" x="8" y="516">
-0.5
</text>
<path stroke="white" d="M50 459l924 0"/>
<text stroke="none" fill="white" font-size="16" x="18" y="467">
0.0
</text>
<path stroke="white" stroke-dasharray="1,2" d="M50 410l924 0"/>
<text stroke="none" fill="white" font-size="16" x="18" y="418">
0.5
</text>
<path stroke="white" stroke-dasharray="1,2" d="M50 361l924 0"/>
<text stroke="none" fill="white" font-size="16" x="18" y="369">
1.0
</text>
<path stroke="white" stroke-dasharray="1,2" d="M50 312l924 0"/>
<text stroke="none" fill="white" font-size="16" x="18" y="320">
1.5
</text>
<path stroke="white" stroke-dasharray="1,2" d="M50 263l924 0"/>
<text stroke="none" fill="white" font-size="16" x="18" y="271">
2.0
</text>
<path stroke="white" stroke-dasharray="1,2" d="M50 214l924 0"/>
<text stroke="none" fill="white" font-size="16" x="18" y="222">
2.5
</text>
<path stroke="white" stroke-dasharray="1,2" d="M50 165l924 0"/>
<text stroke="none" fill="white" font-size="16" x="18" y="173">
3.0
</text>
<path stroke="white" stroke-dasharray="1,2" d="M50 116l924 0"/>
<text stroke="none" fill="white" font-size="16" x="18" y="124">
3.5
</text>
<path stroke="white" stroke-dasharray="1,2" d="M50 67l924 0"/>
<text stroke="none" fill="white" font-size="16" x="18" y="75">
4.0
</text>
<text stroke="none" fill="white" font-size="16" x="10" y="32">
     
</text>
<path stroke="red" d="M462 23l46 0"/>
<text stroke="none" fill="white" font-size="16" x="518" y="32">
x1.vsampled_p
</text>
<path stroke="red" d="M50 459l1 0 1 -7 0 -17 1 -15 0 -5 1 2M54 442l0 -42 1 -6 0 -15 1 -3 0 -2 1 -2 1 0 0 -1 59 0M117 373l0 -2M117 373l1 6M118 385l0 -6M118 385l1 3 1 0M120 389l0 -1M120 389l420 0M540 390l0 -1 6 0 0 -23 1 -3 0 -26 1 -6 0 -4 1 -2"/>
<path stroke="red" d="M549 325l0 -1 1 0 1 -1 15 0 1 1M567 325l0 -2 6 0 1 1M574 359l0 -35M574 359l1 4M575 369l0 -6M575 369l1 0 2 -2 15 0M593 368l0 -1 26 0M619 368l0 -1 27 0M646 368l0 -1 26 0M672 368l0 -1 26 0 1 1 0 -1 7 0M706 371l0 -4M706 370l79 0"/>
<path stroke="red" d="M785 371l0 -1M785 371l28 0M813 372l0 -1 25 0 0 -1M838 371l80 0M918 385l0 -18M918 385l1 2M919 393l0 -6M919 392l1 -1 0 -1 1 -1 53 0"/>
<path stroke="blue" d="M50 23l46 0"/>
<text stroke="none" fill="white" font-size="16" x="106" y="32">
x1.vsampled_n
</text>
<path stroke="blue" d="M50 459l1 0 1 -7 0 -17 1 -15 0 -5 1 1M54 441l0 -41 1 -6 0 -15 1 -3 0 -2 1 -2 1 0 0 -1 59 0 0 -1 1 -5 0 -8 1 -3 1 -1 4 0 1 -1 414 0M539 353l0 -1M539 353l15 0 0 -1M554 353l13 0M567 354l0 -1 13 0 0 -1M580 353l20 0M600 369l0 -16"/>
<path stroke="blue" d="M600 369l1 3M601 378l0 -6M601 378l1 -1 0 -2 23 0 0 -1 1 -6 0 -12 1 0 0 -1 2 0 1 1 3 0 0 -1 13 0M646 356l0 -1M646 356l7 0M653 364l0 -9M653 364l1 3M654 368l0 -1 5 0 0 -1 13 0M672 367l0 -1 1 1 6 0M679 371l0 -4M679 371l1 1"/>
<path stroke="blue" d="M680 374l0 -2M680 373l1 -1 51 0 0 -3 1 0M733 370l0 -1M733 370l5 0 0 -1 1 0M739 370l0 -1M739 370l20 0M759 372l0 -2M759 371l159 0M918 374l0 -11 1 -1 0 -8 1 -1 0 -1 1 1 2 0 0 -1M923 353l27 0 0 -1M950 353l12 0 0 -1 12 0"/>
<path stroke="#FFA500" d="M462 39l46 0"/>
<text stroke="none" fill="white" font-size="16" x="518" y="48">
x1.vsampled_p-x1.vsampled_n
</text>
<path stroke="#FFA500" d="M50 459l67 0M117 462l0 -3M117 462l1 11M118 488l0 -15M118 488l1 4 1 2M120 495l0 -1M120 495l2 0M122 496l0 -1M122 496l418 0 0 -1 6 0M546 496l0 -24 1 -2 0 -27 1 -6 0 -4 1 -2 0 -1 5 0 0 -1M554 430l13 0M567 431l0 -2M567 430l7 0"/>
<path stroke="#FFA500" d="M574 465l0 -35M574 465l1 4M575 476l0 -7M575 476l1 0 0 -1 1 -1 3 0 0 -1M580 474l13 0 0 -1 1 1 6 0 0 -17 1 -3 0 -6M601 449l1 1M602 451l0 -1M602 451l1 0 1 1 2 0 0 -1 1 0M607 452l0 -1M607 452l12 0 0 -1 1 0M620 452l0 -1M620 452l5 0"/>
<path stroke="#FFA500" d="M625 452l1 6M626 470l0 -12M626 470l1 1 26 0 0 -9 1 -2 0 -2M654 459l1 0M655 460l0 -1M655 460l24 0 0 -5 1 -1 0 -1M680 454l26 0M706 458l0 -4M706 457l26 0M732 460l0 -3M732 460l1 0 0 -1 18 0M751 460l0 -1M751 460l1 -1 7 0"/>
<path stroke="#FFA500" d="M759 459l0 -2M759 458l26 0M785 459l0 -1M785 459l28 0M813 460l0 -1 25 0 0 -1M838 459l80 0M918 480l0 -28M918 480l1 4M919 497l0 -13M919 497l1 0 0 -1 16 0 0 -1 14 0M950 496l0 -1M950 496l24 0"/>
<path stroke="green" d="M50 39l46 0"/>
<text stroke="none" fill="white" font-size="16" x="106" y="48">
x1.sw_sample-2
</text>
<path stroke="green" d="M50 655l1 0 1 -10 0 -23 1 -21M53 621l0 -27M53 621l1 31M54 655l0 -3M54 655l63 0M117 662l0 -184 1 0M118 479l0 -1M118 479l421 0M539 656l0 -184M539 655l422 0M961 660l0 -182 1 0M962 479l0 -1 1 1 11 0"/>
<path stroke="#FFC0C5" d="M462 55l46 0"/>
<text stroke="none" fill="white" font-size="16" x="518" y="64">
x1.comp_out_p+2
</text>
<path stroke="#FFC0C5" d="M50 263l1 0 1 -10 0 -23 1 -20 0 -4M53 209l1 4M54 263l0 -50M54 263l514 0M568 266l0 -181M568 87l13 0 0 -7 1 117M582 264l0 -67M582 263l39 0M621 268l0 -183M621 87l13 0M634 263l0 -185M634 263l66 0M700 268l0 -183M700 87l13 0"/>
<path stroke="#FFC0C5" d="M713 87l0 -10 1 173M714 263l0 -13M714 263l13 0 0 -177M727 87l13 0M740 264l0 -186M740 263l40 0 0 -178M780 87l13 0M793 264l0 -182M793 263l14 0 0 -177 1 0M808 87l0 -1M808 87l11 0M819 264l0 -184M819 263l41 0 0 -177M860 87l12 0"/>
<path stroke="#FFC0C5" d="M872 264l0 -182M872 263l14 0 0 -169 1 -9M887 87l0 -2M887 87l11 0M898 264l0 -182M898 263l15 0 0 -177M913 87l12 0M925 264l0 -184M925 263l49 0"/>
<path stroke="#A52A2A" d="M50 55l46 0"/>
<text stroke="none" fill="white" font-size="16" x="106" y="64">
x1.comp_out_n-2
</text>
<path stroke="#A52A2A" d="M50 655l1 0 1 -10 0 -24 1 -20M53 602l0 -3M53 602l1 7M54 655l0 -46M54 655l487 0 1 1 0 -180M542 479l13 0M555 656l0 -180M555 655l39 0M594 656l0 -179M594 478l1 1 13 0M608 655l0 -185M608 655l39 0M647 656l0 -180M647 479l14 0"/>
<path stroke="#A52A2A" d="M661 655l0 -186M661 655l13 0 0 -178M674 479l13 0M687 655l0 -186M687 655l66 0 0 -175 1 -3M754 479l0 -2M754 479l12 0M766 656l0 -184M766 656l1 -1 67 0 0 -177M834 479l11 0 0 -11 1 163M846 655l0 -24M846 655l91 0 1 -68 0 -110"/>
<path stroke="#A52A2A" d="M938 479l13 0M951 656l0 -179M951 655l23 0"/>
</svg>
