<?xml version="1.0" standalone="yes"?>
<!DOCTYPE svg PUBLIC "-//W3C//DTD SVG 1.1//EN"
 "http://www.w3.org/Graphics/SVG/1.1/DTD/svg11.dtd">
<svg xmlns="http://www.w3.org/2000/svg" version="1.1"
  width="100%" height="100%" viewBox="0 0 1024 768"
  style="fill: none; font-family: Helvetica;
 font: Helvetica;
">

<!-- Creator: NGspice -->

<rect x="0" y="0" width="1024" height="768" fill="black" stroke="none"/>
<text stroke="none" fill="white" font-size="16" x="358" y="752">
time
</text>
<text stroke="none" fill="white" font-size="16" x="10" y="16">
tran1: run812_vin-0.18589
</text>
<path stroke="white" d="M50 704l0 -637"/>
<text stroke="none" fill="white" font-size="16" x="35" y="728">
0.0
</text>
<path stroke="white" stroke-dasharray="1,2" d="M182 704l0 -637"/>
<text stroke="none" fill="white" font-size="16" x="157" y="728">
100.0
</text>
<path stroke="white" stroke-dasharray="1,2" d="M314 704l0 -637"/>
<text stroke="none" fill="white" font-size="16" x="289" y="728">
200.0
</text>
<path stroke="white" stroke-dasharray="1,2" d="M446 704l0 -637"/>
<text stroke="none" fill="white" font-size="16" x="421" y="728">
300.0
</text>
<path stroke="white" stroke-dasharray="1,2" d="M578 704l0 -637"/>
<text stroke="none" fill="white" font-size="16" x="553" y="728">
400.0
</text>
<path stroke="white" stroke-dasharray="1,2" d="M710 704l0 -637"/>
<text stroke="none" fill="white" font-size="16" x="685" y="728">
500.0
</text>
<path stroke="white" stroke-dasharray="1,2" d="M842 704l0 -637"/>
<text stroke="none" fill="white" font-size="16" x="817" y="728">
600.0
</text>
<path stroke="white" stroke-dasharray="1,2" d="M974 704l0 -637"/>
<text stroke="none" fill="white" font-size="16" x="949" y="728">
700.0
</text>
<text stroke="none" fill="white" font-size="16" x="614" y="752">
ns
</text>
<path stroke="white" stroke-dasharray="1,2" d="M50 704l924 0"/>
<text stroke="none" fill="white" font-size="16" x="8" y="712">
-3.0
</text>
<path stroke="white" stroke-dasharray="1,2" d="M50 613l924 0"/>
<text stroke="none" fill="white" font-size="16" x="8" y="621">
-2.0
</text>
<path stroke="white" stroke-dasharray="1,2" d="M50 522l924 0"/>
<text stroke="none" fill="white" font-size="16" x="8" y="530">
-1.0
</text>
<path stroke="white" d="M50 431l924 0"/>
<text stroke="none" fill="white" font-size="16" x="18" y="439">
0.0
</text>
<path stroke="white" stroke-dasharray="1,2" d="M50 340l924 0"/>
<text stroke="none" fill="white" font-size="16" x="18" y="348">
1.0
</text>
<path stroke="white" stroke-dasharray="1,2" d="M50 249l924 0"/>
<text stroke="none" fill="white" font-size="16" x="18" y="257">
2.0
</text>
<path stroke="white" stroke-dasharray="1,2" d="M50 158l924 0"/>
<text stroke="none" fill="white" font-size="16" x="18" y="166">
3.0
</text>
<path stroke="white" stroke-dasharray="1,2" d="M50 67l924 0"/>
<text stroke="none" fill="white" font-size="16" x="18" y="75">
4.0
</text>
<text stroke="none" fill="white" font-size="16" x="10" y="32">
     
</text>
<path stroke="red" d="M462 23l46 0"/>
<text stroke="none" fill="white" font-size="16" x="518" y="32">
x1.vsampled_p
</text>
<path stroke="red" d="M50 431l1 0 1 -7 0 -15 1 -14 0 -5 1 2M54 415l0 -39 1 -5 0 -14 1 -3 0 -2 1 -2 2 0 1 -1 4 0M64 350l0 -1M64 350l4 0 1 -1 48 0M117 351l0 -2M117 351l1 5M118 363l0 -7M118 363l1 2 1 0M120 366l0 -1M120 366l426 0 0 -20 1 -3 0 -27"/>
<path stroke="red" d="M547 316l1 -5 0 -3 1 -2 1 -1 4 0 0 -1M554 305l13 0M567 306l0 -1 7 0M574 333l0 -28M574 333l1 5M575 348l0 -10M575 348l1 0 0 -1 1 -1 3 0 0 -1M580 346l26 0 0 -1M606 346l27 0 0 -1M633 346l26 0 0 -1M659 346l27 0 0 -1M686 346l20 0"/>
<path stroke="red" d="M706 350l0 -4M706 349l1 -1 18 0M725 349l0 -1 26 0M751 349l0 -1M751 349l1 -1 26 0M778 349l0 -1 7 0M785 350l0 -2M785 350l1 0 0 -1 26 0M812 350l0 -1 19 0M831 350l0 -1 26 0M857 350l0 -1 26 0M883 350l0 -1M883 350l1 -1 26 0M910 350l0 -1"/>
<path stroke="red" d="M910 349l8 0M918 364l0 -19M918 364l1 3M919 369l0 -2M919 368l1 -1 0 -1 54 0"/>
<path stroke="blue" d="M50 23l46 0"/>
<text stroke="none" fill="white" font-size="16" x="106" y="32">
x1.vsampled_n
</text>
<path stroke="blue" d="M50 431l1 0 1 -7 0 -15 1 -15 0 -4 1 1M54 415l0 -39 1 -5 0 -14 1 -3 0 -2 1 -2 2 0 1 -1 4 0M64 350l0 -1M64 350l4 0 1 -1 48 0 1 -6 0 -7 1 -2 2 -2 419 0M540 333l0 -1M540 333l1 -1 25 0 1 1 0 -1 26 0M593 333l0 -1 7 0M600 350l0 -18"/>
<path stroke="blue" d="M600 350l1 4M601 356l0 -2M601 355l1 -1 0 -1 23 0 0 -6 1 -3 0 -9 20 0M646 336l0 -1 7 0M653 345l0 -10M653 345l1 1M654 347l0 -1 1 0 0 -1 17 0M672 346l0 -1 7 0M679 350l0 -5M679 350l1 1M680 352l0 -1 1 -1 18 0M699 351l0 -1 26 0"/>
<path stroke="blue" d="M725 351l0 -1 6 0 0 -1 1 -1 0 -1M732 348l27 0M759 350l0 -2M759 350l1 0 0 -1 18 0M778 350l0 -1 26 0M804 350l0 -1 27 0M831 350l0 -1 87 0M918 352l0 -11 1 -3 0 -5 1 -1 16 0M936 333l0 -1 38 0"/>
<path stroke="#FFA500" d="M462 39l46 0"/>
<text stroke="none" fill="white" font-size="16" x="518" y="48">
x1.vsampled_p-x1.vsampled_n
</text>
<path stroke="#FFA500" d="M50 431l67 0M117 434l0 -3M117 434l1 10M118 458l0 -14M118 458l1 4 1 1M120 464l0 -1M120 464l1 1 419 0 0 -1M540 465l6 0 0 -20 1 -3 0 -28 1 -5 0 -2 1 -2 0 -1 5 0 0 -1 12 0 1 1 0 -1M567 404l1 0 0 -1 6 0M574 432l0 -29M574 432l1 4"/>
<path stroke="#FFA500" d="M575 446l0 -10M575 446l1 0 0 -1 1 0 1 -1 2 0M580 445l0 -1 13 0M593 445l0 -1 7 0 0 -18 1 -3 0 -2M601 422l2 2 22 0M625 429l0 -5M625 429l1 3M626 441l0 -9M626 441l1 1 26 0 0 -10 1 -1 0 -1M654 431l1 0 1 1 23 0 0 -5 1 -1 0 -1"/>
<path stroke="#FFA500" d="M680 426l18 0 1 1 0 -1 7 0M706 430l0 -4M706 429l25 0M731 430l0 -1M731 430l1 1M732 432l0 -1 27 0 0 -2 1 1 25 0M785 431l0 -1M785 431l27 0M812 432l0 -1 26 0M838 432l0 -1 80 0M918 454l0 -29M918 454l1 5M919 466l0 -7M919 466l1 0"/>
<path stroke="#FFA500" d="M920 466l0 -1 16 0 0 -1M936 465l38 0"/>
<path stroke="green" d="M50 39l46 0"/>
<text stroke="none" fill="white" font-size="16" x="106" y="48">
x1.sw_sample-2
</text>
<path stroke="green" d="M50 613l1 0 1 -9 0 -21 1 -21M53 581l0 -25M53 581l1 29M54 613l0 -3M54 613l63 0M117 620l0 -172M117 449l422 0M539 614l0 -172M539 613l422 0M961 618l0 -170 1 1 12 0"/>
<path stroke="#FFC0C5" d="M462 55l46 0"/>
<text stroke="none" fill="white" font-size="16" x="518" y="64">
x1.comp_out_p+2
</text>
<path stroke="#FFC0C5" d="M50 249l1 0 1 -9 0 -22 1 -18 0 -4M53 198l1 5M54 249l0 -46M54 249l514 0M568 253l0 -170M568 85l13 0 0 -6 1 115M582 250l0 -56M582 249l39 0M621 255l0 -172M621 85l13 0M634 249l0 -172M634 249l66 0M700 254l0 -171M700 85l13 0"/>
<path stroke="#FFC0C5" d="M713 85l0 -8 1 156M714 249l0 -16M714 249l13 0 0 -165M727 85l13 0M740 249l0 -172M740 249l40 0 0 -165M780 85l13 0M793 249l0 -174M793 249l14 0 0 -165M807 85l12 0M819 249l0 -171M819 249l15 0 0 -165M834 85l11 0 0 -10 1 143"/>
<path stroke="#FFC0C5" d="M846 249l0 -31M846 249l128 0"/>
<path stroke="#A52A2A" d="M50 55l46 0"/>
<text stroke="none" fill="white" font-size="16" x="106" y="64">
x1.comp_out_n-2
</text>
<path stroke="#A52A2A" d="M50 613l1 0 1 -9 0 -22 1 -19M53 564l0 -3M53 564l1 6M54 613l0 -43M54 613l488 0 0 -165M542 449l13 0M555 613l0 -172M555 613l39 0M594 614l0 -166M594 449l14 0M608 614l0 -173M608 613l39 0 0 -166M647 449l14 0M661 613l0 -173"/>
<path stroke="#A52A2A" d="M661 613l13 0 0 -166M674 449l13 0M687 613l0 -173M687 613l66 0 0 -143 1 -21 0 -1M754 449l12 0M766 613l0 -171M766 613l93 0 1 -158 0 -7M860 449l12 0M872 613l0 -166M872 613l14 0 0 -164 1 -1M887 449l0 -1M887 449l11 0M898 613l0 -166"/>
<path stroke="#A52A2A" d="M898 613l15 0 0 -165M913 449l12 0M925 613l0 -172M925 613l12 0 1 -67 0 -98M938 449l13 0M951 614l0 -167M951 613l23 0"/>
</svg>
