<?xml version="1.0" standalone="yes"?>
<!DOCTYPE svg PUBLIC "-//W3C//DTD SVG 1.1//EN"
 "http://www.w3.org/Graphics/SVG/1.1/DTD/svg11.dtd">
<svg xmlns="http://www.w3.org/2000/svg" version="1.1"
  width="100%" height="100%" viewBox="0 0 1024 768"
  style="fill: none; font-family: Helvetica;
 font: Helvetica;
">

<!-- Creator: NGspice -->

<rect x="0" y="0" width="1024" height="768" fill="black" stroke="none"/>
<text stroke="none" fill="white" font-size="16" x="358" y="752">
time
</text>
<text stroke="none" fill="white" font-size="16" x="10" y="16">
tran1: run180_vin0.635377
</text>
<path stroke="white" d="M50 704l0 -637"/>
<text stroke="none" fill="white" font-size="16" x="35" y="728">
0.0
</text>
<path stroke="white" stroke-dasharray="1,2" d="M182 704l0 -637"/>
<text stroke="none" fill="white" font-size="16" x="157" y="728">
100.0
</text>
<path stroke="white" stroke-dasharray="1,2" d="M314 704l0 -637"/>
<text stroke="none" fill="white" font-size="16" x="289" y="728">
200.0
</text>
<path stroke="white" stroke-dasharray="1,2" d="M446 704l0 -637"/>
<text stroke="none" fill="white" font-size="16" x="421" y="728">
300.0
</text>
<path stroke="white" stroke-dasharray="1,2" d="M578 704l0 -637"/>
<text stroke="none" fill="white" font-size="16" x="553" y="728">
400.0
</text>
<path stroke="white" stroke-dasharray="1,2" d="M710 704l0 -637"/>
<text stroke="none" fill="white" font-size="16" x="685" y="728">
500.0
</text>
<path stroke="white" stroke-dasharray="1,2" d="M842 704l0 -637"/>
<text stroke="none" fill="white" font-size="16" x="817" y="728">
600.0
</text>
<path stroke="white" stroke-dasharray="1,2" d="M974 704l0 -637"/>
<text stroke="none" fill="white" font-size="16" x="949" y="728">
700.0
</text>
<text stroke="none" fill="white" font-size="16" x="614" y="752">
ns
</text>
<path stroke="white" stroke-dasharray="1,2" d="M50 704l924 0"/>
<text stroke="none" fill="white" font-size="16" x="8" y="712">
-2.5
</text>
<path stroke="white" stroke-dasharray="1,2" d="M50 655l924 0"/>
<text stroke="none" fill="white" font-size="16" x="8" y="663">
-2.0
</text>
<path stroke="white" stroke-dasharray="1,2" d="M50 606l924 0"/>
<text stroke="none" fill="white" font-size="16" x="8" y="614">
-1.5
</text>
<path stroke="white" stroke-dasharray="1,2" d="M50 557l924 0"/>
<text stroke="none" fill="white" font-size="16" x="8" y="565">
-1.0
</text>
<path stroke="white" stroke-dasharray="1,2" d="M50 508l924 0"/>
<text stroke="none" fill="white" font-size="16" x="8" y="516">
-0.5
</text>
<path stroke="white" d="M50 459l924 0"/>
<text stroke="none" fill="white" font-size="16" x="18" y="467">
0.0
</text>
<path stroke="white" stroke-dasharray="1,2" d="M50 410l924 0"/>
<text stroke="none" fill="white" font-size="16" x="18" y="418">
0.5
</text>
<path stroke="white" stroke-dasharray="1,2" d="M50 361l924 0"/>
<text stroke="none" fill="white" font-size="16" x="18" y="369">
1.0
</text>
<path stroke="white" stroke-dasharray="1,2" d="M50 312l924 0"/>
<text stroke="none" fill="white" font-size="16" x="18" y="320">
1.5
</text>
<path stroke="white" stroke-dasharray="1,2" d="M50 263l924 0"/>
<text stroke="none" fill="white" font-size="16" x="18" y="271">
2.0
</text>
<path stroke="white" stroke-dasharray="1,2" d="M50 214l924 0"/>
<text stroke="none" fill="white" font-size="16" x="18" y="222">
2.5
</text>
<path stroke="white" stroke-dasharray="1,2" d="M50 165l924 0"/>
<text stroke="none" fill="white" font-size="16" x="18" y="173">
3.0
</text>
<path stroke="white" stroke-dasharray="1,2" d="M50 116l924 0"/>
<text stroke="none" fill="white" font-size="16" x="18" y="124">
3.5
</text>
<path stroke="white" stroke-dasharray="1,2" d="M50 67l924 0"/>
<text stroke="none" fill="white" font-size="16" x="18" y="75">
4.0
</text>
<text stroke="none" fill="white" font-size="16" x="10" y="32">
     
</text>
<path stroke="red" d="M462 23l46 0"/>
<text stroke="none" fill="white" font-size="16" x="518" y="32">
x1.vsampled_p
</text>
<path stroke="red" d="M50 459l1 0 1 -7 0 -17 1 -16 0 -5 1 2M54 441l0 -40 1 -4 0 -16 1 -4 0 -2 1 -2 0 -1 1 -1 59 0 0 -1 1 -12 0 -32 1 -4 0 -8 1 -3 1 -1 0 -1 419 0M540 310l0 -1 14 0 0 -1M554 309l13 0M567 310l0 -1 7 0M574 332l0 -23M574 332l1 7M575 350l0 -11"/>
<path stroke="red" d="M575 350l1 3 24 0M600 366l0 -13M600 366l1 2M601 376l0 -8M601 376l1 -1 23 0 0 -5 1 -3 0 -9 1 -1 0 -1 6 0 0 -1M633 356l13 0 0 -1M646 356l7 0M653 364l0 -8M653 364l1 2M654 367l0 -1M654 367l5 0 0 -1M659 367l20 0M679 371l0 -5"/>
<path stroke="red" d="M679 371l1 1M680 373l0 -1 51 0 0 -3 1 0M732 370l0 -1M732 370l6 0 0 -1M738 370l21 0M759 372l0 -2M759 371l80 0 0 -1M839 371l79 0M918 375l0 -35 1 -6 0 -16 1 -2 0 -3 1 -2 0 -1 1 0 0 -1 1 0 0 -1M923 309l13 0M936 310l0 -1 14 0"/>
<path stroke="red" d="M950 309l0 -1M950 309l12 0 0 -1 1 0 1 1 10 0"/>
<path stroke="blue" d="M50 23l46 0"/>
<text stroke="none" fill="white" font-size="16" x="106" y="32">
x1.vsampled_n
</text>
<path stroke="blue" d="M50 459l1 0 1 -7 0 -17 1 -15 0 -5 1 2M54 441l0 -40 1 -4 0 -16 1 -4 0 -2 1 -2 0 -1 1 -1 59 0M117 386l0 -15M117 386l1 16M118 422l0 -20M118 422l1 3M119 430l0 -5M119 430l2 2M121 433l0 -1M121 433l425 0 0 -26 1 -3 0 -23 1 -6"/>
<path stroke="blue" d="M548 375l0 -4 1 -2 0 -1 1 0 1 -1 16 0M567 368l0 -1 26 0M593 368l0 -1 26 0M619 368l0 -1 27 0M646 368l0 -1 26 0M672 368l0 -1 27 0M699 368l0 -1 6 0 1 1M706 372l0 -4M706 371l1 -1 78 0M785 371l0 -1M785 371l1 0M786 372l0 -1 5 0"/>
<path stroke="blue" d="M791 371l0 -1M791 371l21 0M812 372l0 -1 106 0M918 429l0 -64M918 429l1 5M919 437l0 -3M919 437l1 -1 0 -1 1 -1 1 0 0 -1 52 0"/>
<path stroke="#FFA500" d="M462 39l46 0"/>
<text stroke="none" fill="white" font-size="16" x="518" y="48">
x1.vsampled_p-x1.vsampled_n
</text>
<path stroke="#FFA500" d="M50 459l2 0 0 -1 2 0M54 459l0 -1M54 459l63 0 0 -17 1 -27 0 -52 1 -7 0 -13 1 -4 1 -2 0 -2 3 0 1 -1 414 0M539 335l0 -1M539 335l1 0 0 -1M540 335l6 0M546 361l0 -26M546 361l1 3M547 387l0 -23M547 387l1 6M548 397l0 -4M548 397l1 2"/>
<path stroke="#FFA500" d="M549 400l0 -1M549 400l1 0 1 1 3 0 0 -1M554 401l13 0M567 402l0 -2M567 401l7 0M574 423l0 -23M574 423l1 8M575 442l0 -11M575 442l1 3 17 0 0 -1M593 445l7 0M600 458l0 -14M600 458l1 2M601 468l0 -8M601 468l1 -1 17 0 0 -1M619 467l6 0"/>
<path stroke="#FFA500" d="M625 467l0 -5 1 -3 0 -10 1 0 0 -1 1 0 0 -1 5 0M633 448l0 -1 13 0M646 448l0 -1 7 0M653 456l0 -9M653 456l1 2M654 459l0 -1M654 459l1 0 0 -1 4 0M659 459l0 -1 20 0M679 463l0 -5M679 463l1 0M680 465l0 -2M680 464l25 0 1 -1 0 -4"/>
<path stroke="#FFA500" d="M706 461l25 0 0 -3 1 0M732 459l0 -1M732 459l27 0M759 461l0 -2M759 460l26 0 0 -1 6 0M791 460l0 -1 21 0 0 -1M812 459l27 0 0 -1M839 459l79 0M918 468l0 -98 1 -10 0 -20 1 -1 0 -2 1 -1 0 -1 2 0 0 -1M923 335l13 0M936 336l0 -1"/>
<path stroke="#FFA500" d="M936 335l14 0 0 -1M950 335l12 0 0 -1 12 0"/>
<path stroke="green" d="M50 39l46 0"/>
<text stroke="none" fill="white" font-size="16" x="106" y="48">
x1.sw_sample-2
</text>
<path stroke="green" d="M50 655l1 0 1 -10 0 -23 1 -21M53 619l0 -25M53 619l1 33M54 655l0 -3M54 655l63 0M117 662l0 -184 1 0M118 479l0 -1M118 479l421 0M539 656l0 -184M539 655l422 0M961 660l0 -182 1 0M962 479l0 -1M962 479l12 0"/>
<path stroke="#FFC0C5" d="M462 55l46 0"/>
<text stroke="none" fill="white" font-size="16" x="518" y="64">
x1.comp_out_p+2
</text>
<path stroke="#FFC0C5" d="M50 263l1 0 1 -10 0 -23 1 -20 0 -4M53 208l1 5M54 264l0 -51M54 262l1 1 486 0 1 1 0 -179M542 87l13 0M555 264l0 -187M555 263l13 0M568 264l0 -179M568 87l13 0 0 -2 1 27M582 264l0 -152M582 263l12 0M594 264l0 -179M594 86l1 1"/>
<path stroke="#FFC0C5" d="M595 87l13 0M608 264l0 -187M608 263l39 0 0 -178M647 87l14 0M661 263l0 -186M661 263l13 0 0 -178M674 87l13 0M687 263l0 -185M687 263l66 0 0 -146 1 -29 0 -3M754 87l12 0M766 264l0 -187M766 263l94 0 0 -177M860 87l12 0M872 264l0 -187"/>
<path stroke="#FFC0C5" d="M872 263l14 0 0 -177 1 0M887 87l0 -1M887 87l11 0M898 264l0 -187M898 263l15 0 0 -177M913 87l12 0M925 263l0 -186M925 263l12 0M937 264l0 -1M937 264l1 -82 0 -97M938 87l13 0M951 263l0 -185M951 263l23 0"/>
<path stroke="#A52A2A" d="M50 55l46 0"/>
<text stroke="none" fill="white" font-size="16" x="106" y="64">
x1.comp_out_n-2
</text>
<path stroke="#A52A2A" d="M50 655l1 0 1 -10 0 -24 1 -20M53 602l0 -3M53 602l1 7M54 656l0 -64M54 599l1 53M55 655l0 -3M55 655l513 0M568 656l0 -1 26 0M594 656l0 -1 27 0M621 662l0 -186M621 479l13 0M634 655l0 -185M634 655l66 0M700 661l0 -185M700 479l13 0"/>
<path stroke="#A52A2A" d="M713 479l0 -10 1 172M714 655l0 -14M714 655l13 0 0 -178M727 479l13 0M740 655l0 -184M740 655l40 0 0 -177M780 479l13 0M793 655l0 -184M793 655l14 0 0 -177M807 479l12 0M819 655l0 -184M819 655l15 0 0 -177 1 0M835 479l0 -1"/>
<path stroke="#A52A2A" d="M835 479l10 0 0 -11 1 170M846 655l0 -17M846 655l92 0M938 656l0 -1 36 0"/>
</svg>
