<?xml version="1.0" standalone="yes"?>
<!DOCTYPE svg PUBLIC "-//W3C//DTD SVG 1.1//EN"
 "http://www.w3.org/Graphics/SVG/1.1/DTD/svg11.dtd">
<svg xmlns="http://www.w3.org/2000/svg" version="1.1"
  width="100%" height="100%" viewBox="0 0 1024 768"
  style="fill: none; font-family: Helvetica;
 font: Helvetica;
">

<!-- Creator: NGspice -->

<rect x="0" y="0" width="1024" height="768" fill="black" stroke="none"/>
<text stroke="none" fill="white" font-size="16" x="358" y="752">
time
</text>
<text stroke="none" fill="white" font-size="16" x="10" y="16">
tran1: run183_vin0.734998
</text>
<path stroke="white" d="M50 704l0 -637"/>
<text stroke="none" fill="white" font-size="16" x="35" y="728">
0.0
</text>
<path stroke="white" stroke-dasharray="1,2" d="M182 704l0 -637"/>
<text stroke="none" fill="white" font-size="16" x="157" y="728">
100.0
</text>
<path stroke="white" stroke-dasharray="1,2" d="M314 704l0 -637"/>
<text stroke="none" fill="white" font-size="16" x="289" y="728">
200.0
</text>
<path stroke="white" stroke-dasharray="1,2" d="M446 704l0 -637"/>
<text stroke="none" fill="white" font-size="16" x="421" y="728">
300.0
</text>
<path stroke="white" stroke-dasharray="1,2" d="M578 704l0 -637"/>
<text stroke="none" fill="white" font-size="16" x="553" y="728">
400.0
</text>
<path stroke="white" stroke-dasharray="1,2" d="M710 704l0 -637"/>
<text stroke="none" fill="white" font-size="16" x="685" y="728">
500.0
</text>
<path stroke="white" stroke-dasharray="1,2" d="M842 704l0 -637"/>
<text stroke="none" fill="white" font-size="16" x="817" y="728">
600.0
</text>
<path stroke="white" stroke-dasharray="1,2" d="M974 704l0 -637"/>
<text stroke="none" fill="white" font-size="16" x="949" y="728">
700.0
</text>
<text stroke="none" fill="white" font-size="16" x="614" y="752">
ns
</text>
<path stroke="white" stroke-dasharray="1,2" d="M50 704l924 0"/>
<text stroke="none" fill="white" font-size="16" x="8" y="712">
-3.0
</text>
<path stroke="white" stroke-dasharray="1,2" d="M50 613l924 0"/>
<text stroke="none" fill="white" font-size="16" x="8" y="621">
-2.0
</text>
<path stroke="white" stroke-dasharray="1,2" d="M50 522l924 0"/>
<text stroke="none" fill="white" font-size="16" x="8" y="530">
-1.0
</text>
<path stroke="white" d="M50 431l924 0"/>
<text stroke="none" fill="white" font-size="16" x="18" y="439">
0.0
</text>
<path stroke="white" stroke-dasharray="1,2" d="M50 340l924 0"/>
<text stroke="none" fill="white" font-size="16" x="18" y="348">
1.0
</text>
<path stroke="white" stroke-dasharray="1,2" d="M50 249l924 0"/>
<text stroke="none" fill="white" font-size="16" x="18" y="257">
2.0
</text>
<path stroke="white" stroke-dasharray="1,2" d="M50 158l924 0"/>
<text stroke="none" fill="white" font-size="16" x="18" y="166">
3.0
</text>
<path stroke="white" stroke-dasharray="1,2" d="M50 67l924 0"/>
<text stroke="none" fill="white" font-size="16" x="18" y="75">
4.0
</text>
<text stroke="none" fill="white" font-size="16" x="10" y="32">
     
</text>
<path stroke="red" d="M462 23l46 0"/>
<text stroke="none" fill="white" font-size="16" x="518" y="32">
x1.vsampled_p
</text>
<path stroke="red" d="M50 431l1 0 1 -7 0 -16 1 -14 0 -5 1 2M54 414l0 -38 1 -4 0 -14 1 -3 0 -2 1 -2 0 -1 2 0 1 -1 3 0 1 1 5 0 0 -1 48 0 0 -1 1 -11 0 -34 1 -5 0 -9 1 -3 0 -2 1 -1 1 0 0 -1 417 0M539 283l0 -1M539 283l1 -1M540 284l0 -2M540 283l14 0"/>
<path stroke="red" d="M554 283l0 -1 12 0 1 1M567 284l0 -1 7 0M574 304l0 -22M574 304l1 7M575 321l0 -10M575 321l1 2 1 1 1 -1 15 0M593 324l0 -1 7 0M600 336l0 -13M600 336l1 3M601 345l0 -6M601 345l1 -1 77 0M679 348l0 -4M679 348l1 1M680 350l0 -1 133 0"/>
<path stroke="red" d="M813 350l0 -1 18 0M831 350l0 -1 26 0M857 350l0 -1 26 0M883 350l0 -1 27 0M910 350l0 -1 8 0 0 -46 1 -3 0 -10 1 -2 0 -3 1 -1 0 -1 2 0 0 -1 13 0M936 284l0 -2M936 283l14 0 0 -1 24 0"/>
<path stroke="blue" d="M50 23l46 0"/>
<text stroke="none" fill="white" font-size="16" x="106" y="32">
x1.vsampled_n
</text>
<path stroke="blue" d="M50 431l1 0 1 -7 0 -15 1 -14 0 -5 1 2M54 414l0 -38 1 -4 0 -14 1 -3 0 -2 1 -2 0 -1 2 0 1 -1 3 0 1 1 4 0 1 -1 48 0M117 368l0 -19M117 368l1 16M118 405l0 -21M118 405l1 2M119 412l0 -5M119 412l1 2M120 415l0 -1M120 415l1 0 1 1"/>
<path stroke="blue" d="M122 416l424 0 0 -21 1 -2 0 -24 1 -7 0 -4 1 -2 1 -1 4 0 0 -1M554 355l71 0 0 -1 1 -7 0 -11 1 0 1 1 5 0 0 -1M633 337l13 0M646 338l0 -1 7 0M653 348l0 -11M653 348l1 1M654 350l0 -1 1 -1 0 -1 17 0M672 348l0 -1 27 0M699 348l0 -1"/>
<path stroke="blue" d="M699 347l7 0M706 351l0 -4M706 351l1 0 0 -1 5 0 0 -1M712 350l20 0 0 -4M732 347l19 0M751 348l0 -1M751 348l1 0 0 -1 7 0M759 351l0 -4M759 349l6 0 0 -1M765 349l21 0M786 350l0 -1M786 350l1 0 0 -1 17 0M804 350l0 -1 26 0 1 1 0 -1"/>
<path stroke="blue" d="M831 349l26 0M857 350l0 -1 26 0M883 350l0 -1 27 0M910 350l0 -1 7 0M917 350l0 -1M917 350l1 0M918 421l0 -71M918 421l1 0M919 422l0 -2 1 -1 0 -2 1 0 0 -1 53 0"/>
<path stroke="#FFA500" d="M462 39l46 0"/>
<text stroke="none" fill="white" font-size="16" x="518" y="48">
x1.vsampled_p-x1.vsampled_n
</text>
<path stroke="#FFA500" d="M50 431l2 0 0 -1 2 0M54 431l0 -1M54 431l63 0 0 -20 1 -27 0 -55 1 -8 0 -14 1 -4 0 -3 3 -3 416 0M539 298l0 -1 1 0M540 298l0 -1 1 1 0 -1 5 0M546 318l0 -21M546 318l1 3M547 345l0 -24M547 345l1 7M548 356l0 -4M548 356l1 2 1 0"/>
<path stroke="#FFA500" d="M550 359l0 -1M550 359l4 0 0 -1M554 359l13 0M567 360l0 -1 7 0M574 380l0 -21M574 380l1 7M575 397l0 -10M575 397l1 2 1 1 3 0 0 -1M580 400l13 0 0 -1M593 400l7 0M600 412l0 -13M600 412l1 3M601 421l0 -6M601 421l1 -1 23 0M625 421l0 -1"/>
<path stroke="#FFA500" d="M625 421l1 7M626 439l0 -11M626 439l1 0 1 -1 18 0 0 -1M646 438l7 0 0 -11 1 -1 0 -1M654 426l1 1M655 428l0 -1M655 428l17 0 0 -1M672 428l7 0M679 432l0 -4M679 432l1 1M680 434l0 -1 26 0 0 -4 1 0M707 430l0 -1M707 430l25 0M732 434l0 -4"/>
<path stroke="#FFA500" d="M732 433l1 0 0 -1 5 0M738 433l0 -1M738 433l1 0 0 -1 13 0M752 433l0 -1 7 0 0 -3M759 431l27 0 0 -1 1 0M787 431l0 -1M787 431l17 0 0 -1M804 431l34 0M838 432l0 -1 79 0 1 -1 0 -117 1 -3 0 -9 1 -1 0 -2 3 0 0 -1 13 0M936 299l0 -2"/>
<path stroke="#FFA500" d="M936 298l1 0 0 -1 37 0"/>
<path stroke="green" d="M50 39l46 0"/>
<text stroke="none" fill="white" font-size="16" x="106" y="48">
x1.sw_sample-2
</text>
<path stroke="green" d="M50 613l1 0 1 -9 0 -21 1 -21M53 579l0 -23M53 579l1 31M54 613l0 -3M54 613l63 0M117 620l0 -172M117 449l422 0M539 614l0 -171M539 613l422 0M961 618l0 -170 1 1 12 0"/>
<path stroke="#FFC0C5" d="M462 55l46 0"/>
<text stroke="none" fill="white" font-size="16" x="518" y="64">
x1.comp_out_p+2
</text>
<path stroke="#FFC0C5" d="M50 249l1 0 1 -9 0 -22 1 -18 0 -4M53 198l1 5M54 249l0 -46M54 248l1 1 487 0M542 251l0 -168M542 85l13 0M555 249l0 -172M555 249l13 0 0 -165M568 85l13 0 0 -8 1 154M582 249l0 -18M582 249l12 0 0 -165 1 1 13 0M608 249l0 -171"/>
<path stroke="#FFC0C5" d="M608 249l13 0M621 250l0 -167M621 85l13 0M634 250l0 -172M634 250l1 -1 38 0M673 250l0 -1M673 250l1 -80 0 -86M674 85l13 0M687 249l0 -172M687 249l40 0 1 -156 0 -9M728 85l12 0M740 249l0 -171M740 249l67 0 0 -165M807 85l12 0"/>
<path stroke="#FFC0C5" d="M819 249l0 -171M819 249l15 0 0 -164 11 0 0 -9 1 136M846 250l0 -38M846 249l91 0M937 250l0 -1M937 250l1 -87 0 -80M938 85l13 0M951 250l0 -170M951 249l23 0"/>
<path stroke="#A52A2A" d="M50 55l46 0"/>
<text stroke="none" fill="white" font-size="16" x="106" y="64">
x1.comp_out_n-2
</text>
<path stroke="#A52A2A" d="M50 613l1 0 1 -9 0 -22 1 -19M53 564l0 -3M53 564l1 6M54 614l0 -44M54 608l1 4M55 613l0 -1M55 613l592 0M647 614l0 -167M647 449l14 0M661 613l0 -167M661 613l39 0 0 -165M700 449l13 0M713 450l0 -3M713 450l1 152M714 613l0 -11"/>
<path stroke="#A52A2A" d="M714 613l39 0 0 -165M753 449l13 0M766 613l0 -166M766 613l14 0 0 -152 1 -13M781 449l0 -1M781 449l12 0M793 613l0 -174M793 613l67 0 0 -164 12 0M872 613l0 -169M872 613l14 0 0 -152 1 -12 0 -1M887 449l11 0M898 613l0 -169M898 613l15 0"/>
<path stroke="#A52A2A" d="M913 613l0 -165M913 449l12 0M925 613l0 -172M925 613l49 0"/>
</svg>
