<?xml version="1.0" standalone="yes"?>
<!DOCTYPE svg PUBLIC "-//W3C//DTD SVG 1.1//EN"
 "http://www.w3.org/Graphics/SVG/1.1/DTD/svg11.dtd">
<svg xmlns="http://www.w3.org/2000/svg" version="1.1"
  width="100%" height="100%" viewBox="0 0 1024 768"
  style="fill: none; font-family: Helvetica;
 font: Helvetica;
">

<!-- Creator: NGspice -->

<rect x="0" y="0" width="1024" height="768" fill="black" stroke="none"/>
<text stroke="none" fill="white" font-size="16" x="358" y="752">
time
</text>
<text stroke="none" fill="white" font-size="16" x="10" y="16">
tran1: run182_vin0.133479
</text>
<path stroke="white" d="M50 704l0 -637"/>
<text stroke="none" fill="white" font-size="16" x="35" y="728">
0.0
</text>
<path stroke="white" stroke-dasharray="1,2" d="M182 704l0 -637"/>
<text stroke="none" fill="white" font-size="16" x="157" y="728">
100.0
</text>
<path stroke="white" stroke-dasharray="1,2" d="M314 704l0 -637"/>
<text stroke="none" fill="white" font-size="16" x="289" y="728">
200.0
</text>
<path stroke="white" stroke-dasharray="1,2" d="M446 704l0 -637"/>
<text stroke="none" fill="white" font-size="16" x="421" y="728">
300.0
</text>
<path stroke="white" stroke-dasharray="1,2" d="M578 704l0 -637"/>
<text stroke="none" fill="white" font-size="16" x="553" y="728">
400.0
</text>
<path stroke="white" stroke-dasharray="1,2" d="M710 704l0 -637"/>
<text stroke="none" fill="white" font-size="16" x="685" y="728">
500.0
</text>
<path stroke="white" stroke-dasharray="1,2" d="M842 704l0 -637"/>
<text stroke="none" fill="white" font-size="16" x="817" y="728">
600.0
</text>
<path stroke="white" stroke-dasharray="1,2" d="M974 704l0 -637"/>
<text stroke="none" fill="white" font-size="16" x="949" y="728">
700.0
</text>
<text stroke="none" fill="white" font-size="16" x="614" y="752">
ns
</text>
<path stroke="white" stroke-dasharray="1,2" d="M50 704l924 0"/>
<text stroke="none" fill="white" font-size="16" x="8" y="712">
-3.0
</text>
<path stroke="white" stroke-dasharray="1,2" d="M50 613l924 0"/>
<text stroke="none" fill="white" font-size="16" x="8" y="621">
-2.0
</text>
<path stroke="white" stroke-dasharray="1,2" d="M50 522l924 0"/>
<text stroke="none" fill="white" font-size="16" x="8" y="530">
-1.0
</text>
<path stroke="white" d="M50 431l924 0"/>
<text stroke="none" fill="white" font-size="16" x="18" y="439">
0.0
</text>
<path stroke="white" stroke-dasharray="1,2" d="M50 340l924 0"/>
<text stroke="none" fill="white" font-size="16" x="18" y="348">
1.0
</text>
<path stroke="white" stroke-dasharray="1,2" d="M50 249l924 0"/>
<text stroke="none" fill="white" font-size="16" x="18" y="257">
2.0
</text>
<path stroke="white" stroke-dasharray="1,2" d="M50 158l924 0"/>
<text stroke="none" fill="white" font-size="16" x="18" y="166">
3.0
</text>
<path stroke="white" stroke-dasharray="1,2" d="M50 67l924 0"/>
<text stroke="none" fill="white" font-size="16" x="18" y="75">
4.0
</text>
<text stroke="none" fill="white" font-size="16" x="10" y="32">
     
</text>
<path stroke="red" d="M462 23l46 0"/>
<text stroke="none" fill="white" font-size="16" x="518" y="32">
x1.vsampled_p
</text>
<path stroke="red" d="M50 431l1 0 1 -7 0 -15 1 -15 0 -4 1 1M54 415l0 -39 1 -5 0 -15 1 -2 0 -2 1 -2 2 0 1 -1 4 0M64 350l0 -1M64 350l4 0 1 -1 48 0 1 -4 0 -3 1 -2 0 -2 1 -1 420 0M540 338l0 -1 27 0M567 338l0 -1 26 0M593 338l0 -1 7 0M600 350l0 -13"/>
<path stroke="red" d="M600 350l1 3M601 361l0 -8M601 360l1 -1 0 -1 4 0 0 -1M606 358l14 0 0 -1M620 358l5 0 0 -9 1 -1 0 -8 1 0 0 -1 1 1 5 0 0 -1M633 340l20 0M653 348l0 -8M653 348l1 3 1 -1 77 0 0 -3M732 348l6 0 0 -1M738 348l21 0M759 350l0 -2M759 349l53 0"/>
<path stroke="red" d="M812 350l0 -1M812 350l1 0 0 -1 18 0M831 350l0 -1 87 0M918 353l0 -5 1 -3 0 -7 1 -1 16 0M936 338l0 -1 38 0"/>
<path stroke="blue" d="M50 23l46 0"/>
<text stroke="none" fill="white" font-size="16" x="106" y="32">
x1.vsampled_n
</text>
<path stroke="blue" d="M50 431l1 0 1 -7 0 -15 1 -14 0 -5 1 2M54 415l0 -39 1 -5 0 -15 1 -2 0 -2 1 -2 2 0 1 -1 4 0M64 350l0 -1M64 350l4 0 1 -1 48 0M117 351l0 -2M117 351l1 3M118 357l0 -3M118 357l1 2M119 360l0 -1M119 360l1 1 420 0M540 362l0 -1 6 0"/>
<path stroke="blue" d="M546 361l0 -19 1 -3 0 -29 1 -5 0 -2 1 -1 0 -1 1 -1 4 0 0 -1M554 300l12 0 1 1M567 302l0 -2 7 0M574 328l0 -28M574 328l1 8M575 343l0 -7M575 343l1 0 0 -1 1 0 0 -1 16 0M593 342l0 -1 26 0M619 342l0 -1 27 0M646 342l0 -1 26 0M672 342l0 -1"/>
<path stroke="blue" d="M672 341l7 0M679 347l0 -6M679 347l1 1 0 -2 19 0M699 347l0 -1 7 0M706 350l0 -4M706 349l6 0 0 -1M712 349l26 0 0 -1M738 349l27 0 0 -1M765 349l21 0M786 350l0 -1 18 0M804 350l0 -1 27 0M831 350l0 -1 26 0M857 350l0 -1 26 0M883 350l0 -1"/>
<path stroke="blue" d="M883 350l1 -1 26 0M910 350l0 -1 8 0M918 358l0 -14M918 358l1 2M919 364l0 -4M919 363l2 -2 15 0M936 362l0 -1 38 0"/>
<path stroke="#FFA500" d="M462 39l46 0"/>
<text stroke="none" fill="white" font-size="16" x="518" y="48">
x1.vsampled_p-x1.vsampled_n
</text>
<path stroke="#FFA500" d="M50 431l67 0 0 -2 1 -7 0 -7 1 -3 0 -3 1 -1 0 -1 426 0M546 427l0 -20M546 427l1 2M547 459l0 -30M547 459l1 4M548 465l0 -2M548 465l1 2 1 1 17 0 0 -1M567 468l7 0 0 -28 1 -8 0 -7 1 0M576 426l0 -1M576 426l1 1 23 0M600 440l0 -13"/>
<path stroke="#FFA500" d="M600 440l1 3M601 450l0 -7M601 450l1 -1 0 -1 17 0 0 -1M619 448l1 0 0 -1M620 448l5 0 0 -9 1 -1 0 -8 1 0 0 -1 1 1 25 0M653 438l0 -8M653 438l1 3 1 -1 24 0 0 -6 1 -1M680 435l0 -3M680 435l26 0 0 -4M706 432l26 0 0 -3M732 430l27 0"/>
<path stroke="#FFA500" d="M759 432l0 -2M759 431l27 0 0 -1M786 431l26 0 1 1 0 -1 26 0 0 -1 1 0M840 431l0 -1M840 431l78 0M918 439l0 -18 1 -5 0 -10 2 0M921 407l0 -1M921 407l2 0 0 -1M923 407l27 0 0 -1M950 407l24 0"/>
<path stroke="green" d="M50 39l46 0"/>
<text stroke="none" fill="white" font-size="16" x="106" y="48">
x1.sw_sample-2
</text>
<path stroke="green" d="M50 613l1 0 1 -9 0 -21 1 -21M53 581l0 -25M53 581l1 29M54 613l0 -3M54 613l63 0M117 620l0 -172M117 449l422 0M539 614l0 -171M539 613l422 0M961 618l0 -170 1 1 12 0"/>
<path stroke="#FFC0C5" d="M462 55l46 0"/>
<text stroke="none" fill="white" font-size="16" x="518" y="64">
x1.comp_out_p+2
</text>
<path stroke="#FFC0C5" d="M50 249l1 0 1 -9 0 -22 1 -18 0 -4M53 198l1 5M54 249l0 -46M54 249l488 0 0 -165M542 85l13 0M555 249l0 -172M555 249l39 0M594 252l0 -168M594 85l14 0M608 249l0 -174M608 249l39 0M647 251l0 -168M647 85l14 0M661 249l0 -166M661 249l92 0"/>
<path stroke="#FFC0C5" d="M753 249l0 -165M753 85l13 0M766 249l0 -171M766 249l41 0 0 -164 12 0M819 250l0 -171M819 249l41 0 0 -164 12 0M872 250l0 -174M872 249l14 0 0 -164 12 0M898 250l0 -174M898 249l15 0M913 251l0 -167M913 85l12 0M925 249l0 -172"/>
<path stroke="#FFC0C5" d="M925 249l12 0M937 250l0 -1M937 250l1 -56 0 -110M938 85l13 0M951 250l0 -173M951 249l23 0"/>
<path stroke="#A52A2A" d="M50 55l46 0"/>
<text stroke="none" fill="white" font-size="16" x="106" y="64">
x1.comp_out_n-2
</text>
<path stroke="#A52A2A" d="M50 613l1 0 1 -9 0 -22 1 -19M53 564l0 -3M53 564l1 6M54 613l0 -43M54 613l514 0 0 -166M568 449l13 0 0 -7 1 143M582 613l0 -28M582 613l39 0M621 614l0 -167M621 449l13 0M634 613l0 -173M634 613l39 0M673 615l0 -2M673 615l1 -102"/>
<path stroke="#A52A2A" d="M674 513l0 -66M674 449l13 0M687 613l0 -173M687 613l13 0 0 -166M700 449l13 0 1 -9M714 614l0 -174M714 613l13 0 0 -165M727 449l13 0M740 613l0 -173M740 613l40 0 0 -164 13 0M793 613l0 -173M793 613l42 0 0 -158 1 -7M836 449l0 -1"/>
<path stroke="#A52A2A" d="M836 449l9 0 0 -6 1 163M846 614l0 -8M846 613l128 0"/>
</svg>
