<?xml version="1.0" standalone="yes"?>
<!DOCTYPE svg PUBLIC "-//W3C//DTD SVG 1.1//EN"
 "http://www.w3.org/Graphics/SVG/1.1/DTD/svg11.dtd">
<svg xmlns="http://www.w3.org/2000/svg" version="1.1"
  width="100%" height="100%" viewBox="0 0 1024 768"
  style="fill: none; font-family: Helvetica;
 font: Helvetica;
">

<!-- Creator: NGspice -->

<rect x="0" y="0" width="1024" height="768" fill="black" stroke="none"/>
<text stroke="none" fill="white" font-size="16" x="358" y="752">
time
</text>
<text stroke="none" fill="white" font-size="16" x="10" y="16">
tran1: run1290_vin0.234227
</text>
<path stroke="white" d="M50 704l0 -637"/>
<text stroke="none" fill="white" font-size="16" x="35" y="728">
0.0
</text>
<path stroke="white" stroke-dasharray="1,2" d="M182 704l0 -637"/>
<text stroke="none" fill="white" font-size="16" x="157" y="728">
100.0
</text>
<path stroke="white" stroke-dasharray="1,2" d="M314 704l0 -637"/>
<text stroke="none" fill="white" font-size="16" x="289" y="728">
200.0
</text>
<path stroke="white" stroke-dasharray="1,2" d="M446 704l0 -637"/>
<text stroke="none" fill="white" font-size="16" x="421" y="728">
300.0
</text>
<path stroke="white" stroke-dasharray="1,2" d="M578 704l0 -637"/>
<text stroke="none" fill="white" font-size="16" x="553" y="728">
400.0
</text>
<path stroke="white" stroke-dasharray="1,2" d="M710 704l0 -637"/>
<text stroke="none" fill="white" font-size="16" x="685" y="728">
500.0
</text>
<path stroke="white" stroke-dasharray="1,2" d="M842 704l0 -637"/>
<text stroke="none" fill="white" font-size="16" x="817" y="728">
600.0
</text>
<path stroke="white" stroke-dasharray="1,2" d="M974 704l0 -637"/>
<text stroke="none" fill="white" font-size="16" x="949" y="728">
700.0
</text>
<text stroke="none" fill="white" font-size="16" x="614" y="752">
ns
</text>
<path stroke="white" stroke-dasharray="1,2" d="M50 704l924 0"/>
<text stroke="none" fill="white" font-size="16" x="8" y="712">
-3.0
</text>
<path stroke="white" stroke-dasharray="1,2" d="M50 613l924 0"/>
<text stroke="none" fill="white" font-size="16" x="8" y="621">
-2.0
</text>
<path stroke="white" stroke-dasharray="1,2" d="M50 522l924 0"/>
<text stroke="none" fill="white" font-size="16" x="8" y="530">
-1.0
</text>
<path stroke="white" d="M50 431l924 0"/>
<text stroke="none" fill="white" font-size="16" x="18" y="439">
0.0
</text>
<path stroke="white" stroke-dasharray="1,2" d="M50 340l924 0"/>
<text stroke="none" fill="white" font-size="16" x="18" y="348">
1.0
</text>
<path stroke="white" stroke-dasharray="1,2" d="M50 249l924 0"/>
<text stroke="none" fill="white" font-size="16" x="18" y="257">
2.0
</text>
<path stroke="white" stroke-dasharray="1,2" d="M50 158l924 0"/>
<text stroke="none" fill="white" font-size="16" x="18" y="166">
3.0
</text>
<path stroke="white" stroke-dasharray="1,2" d="M50 67l924 0"/>
<text stroke="none" fill="white" font-size="16" x="18" y="75">
4.0
</text>
<text stroke="none" fill="white" font-size="16" x="10" y="32">
     
</text>
<path stroke="red" d="M462 23l46 0"/>
<text stroke="none" fill="white" font-size="16" x="518" y="32">
x1.vsampled_p
</text>
<path stroke="red" d="M50 431l1 0 1 -7 0 -15 1 -15 0 -4 1 1M54 415l0 -39 1 -5 0 -14 1 -3 0 -2 1 -2 2 0 1 -1 4 0M64 350l0 -1M64 350l4 0 1 -1 48 0 1 -7 0 -9 1 -3 1 -1 0 -1 420 0M540 329l0 -1 14 0 0 -1M554 328l13 0M567 329l0 -1 26 0M593 329l0 -1"/>
<path stroke="red" d="M593 328l7 0M600 343l0 -15M600 343l1 3M601 351l0 -5M601 350l1 0 0 -1 1 0 1 -1 15 0M619 349l0 -1M619 349l1 0 0 -1 26 0M646 349l0 -1 26 0M672 349l0 -1 26 0 1 1 0 -1 26 0M725 349l0 -1 26 0M751 349l0 -1M751 349l1 0 0 -1 26 0"/>
<path stroke="red" d="M778 349l0 -1 7 0M785 349l0 -1M785 349l1 0M786 350l0 -1 26 0M812 350l0 -1M812 350l1 0 0 -1 17 0 1 1 0 -1 86 0M917 350l0 -1 1 -3 0 -16 1 -1 0 -1 17 0M936 329l0 -1 38 0"/>
<path stroke="blue" d="M50 23l46 0"/>
<text stroke="none" fill="white" font-size="16" x="106" y="32">
x1.vsampled_n
</text>
<path stroke="blue" d="M50 431l1 0 1 -7 0 -15 1 -14 0 -5 1 2M54 415l0 -39 1 -5 0 -14 1 -3 0 -2 1 -2 2 0 1 -1 4 0M64 350l0 -1M64 350l4 0 1 -1 48 0M117 352l0 -3M117 352l1 7M118 366l0 -7M118 366l2 4 419 0M539 371l0 -1M539 371l1 0 1 -1M541 371l0 -1"/>
<path stroke="blue" d="M541 371l5 0 0 -18 1 -5 0 -29 1 -4 0 -3 3 -3 15 0 1 1M567 311l0 -2 7 0M574 340l0 -31M574 340l1 4M575 352l0 -8M575 352l1 0 0 -1 1 0 1 -1 15 0M593 351l0 -1 26 0M619 351l0 -1 7 0 0 -15 1 -1 0 -2 19 0M646 333l0 -1 7 0M653 341l0 -9"/>
<path stroke="blue" d="M653 341l1 2M654 344l0 -1 5 0 0 -1 13 0M672 343l0 -1M672 343l7 0M679 349l0 -7M679 349l1 1 0 -2 6 0 0 -1M686 348l20 0M706 351l0 -3M706 351l1 0 0 -1 18 0M725 351l0 -1 7 0 0 -3M732 348l27 0M759 351l0 -3M759 350l1 -1 18 0M778 350l0 -1"/>
<path stroke="blue" d="M778 349l26 0M804 350l0 -1 27 0M831 350l0 -1 26 0M857 350l0 -1 26 0M883 350l0 -1 27 0M910 350l0 -1 7 0M917 351l0 -2M917 351l1 0M918 374l0 -23M918 374l1 -1 0 -2 4 0 0 -1M923 371l27 0 0 -1M950 371l11 0 0 -1 13 0"/>
<path stroke="#FFA500" d="M462 39l46 0"/>
<text stroke="none" fill="white" font-size="16" x="518" y="48">
x1.vsampled_p-x1.vsampled_n
</text>
<path stroke="#FFA500" d="M50 431l67 0 0 -4 1 -12 0 -17 1 -5 1 -3 0 -1 2 0 0 -1 418 0M540 389l0 -1M540 389l6 0M546 407l0 -19M546 407l1 4M547 440l0 -29M547 440l1 4M548 447l0 -3M548 447l2 2M550 450l0 -1M550 450l16 0 1 -1M567 450l0 -1M567 450l7 0"/>
<path stroke="#FFA500" d="M574 450l0 -31 1 -4 0 -8 1 0M576 408l0 -1M576 408l1 1 23 0M600 424l0 -15M600 424l1 2M601 432l0 -6M601 431l1 0 0 -1 1 0 0 -1 23 0M626 445l0 -16M626 445l1 1M627 447l0 -1M627 447l6 0M633 448l0 -1 20 0 0 -9 1 -1 0 -2M654 436l1 1"/>
<path stroke="#FFA500" d="M655 437l24 0 0 -6 1 -1M680 432l0 -3M680 432l26 0 0 -4 1 1 24 0 1 1M732 433l0 -3M732 432l19 0 0 -1M751 432l8 0 0 -3M759 430l26 0M785 431l0 -1M785 431l27 0M812 432l0 -1 105 0M917 432l0 -3 1 -3 0 -39 1 0 1 1 16 0M936 389l0 -1"/>
<path stroke="#FFA500" d="M936 389l14 0 0 -1 24 0"/>
<path stroke="green" d="M50 39l46 0"/>
<text stroke="none" fill="white" font-size="16" x="106" y="48">
x1.sw_sample-2
</text>
<path stroke="green" d="M50 613l1 0 1 -9 0 -21 1 -21M53 581l0 -25M53 581l1 29M54 613l0 -3M54 613l63 0M117 620l0 -172M117 449l422 0M539 614l0 -171M539 613l422 0M961 618l0 -170 1 1 12 0"/>
<path stroke="#FFC0C5" d="M462 55l46 0"/>
<text stroke="none" fill="white" font-size="16" x="518" y="64">
x1.comp_out_p+2
</text>
<path stroke="#FFC0C5" d="M50 249l1 0 1 -9 0 -22 1 -18 0 -4M53 198l1 5M54 249l0 -46M54 249l488 0 0 -165M542 85l13 0M555 250l0 -167M555 249l39 0M594 253l0 -169M594 85l14 0M608 249l0 -173M608 249l13 0 0 -144 1 -20 0 -1M622 85l12 0M634 249l0 -172"/>
<path stroke="#FFC0C5" d="M634 249l93 0 0 -165M727 85l13 0M740 249l0 -172M740 249l40 0 0 -165M780 85l13 0M793 249l0 -174M793 249l14 0 0 -165 1 1 11 0M819 250l0 -174M819 249l41 0 0 -165 1 1 11 0M872 249l0 -173M872 249l14 0 1 -147 0 -18M887 85l11 0"/>
<path stroke="#FFC0C5" d="M898 249l0 -173M898 249l14 0 1 -157 0 -8M913 85l12 0M925 250l0 -169M925 249l12 0M937 250l0 -1M937 250l1 -85 0 -82M938 85l13 0M951 250l0 -166M951 249l23 0"/>
<path stroke="#A52A2A" d="M50 55l46 0"/>
<text stroke="none" fill="white" font-size="16" x="106" y="64">
x1.comp_out_n-2
</text>
<path stroke="#A52A2A" d="M50 613l1 0 1 -9 0 -22 1 -19M53 564l0 -3M53 564l1 6M54 613l0 -43M54 613l514 0M568 614l0 -167M568 449l13 0 0 -9 1 163M582 613l0 -10M582 613l65 0M647 614l0 -167M647 449l14 0M661 614l0 -171M661 613l12 0M673 615l0 -2M673 615l1 -122"/>
<path stroke="#A52A2A" d="M674 493l0 -46M674 449l13 0M687 613l0 -173M687 613l13 0 0 -163 1 -2M701 449l0 -1M701 449l12 0 0 -9 1 165M714 614l0 -9M714 613l39 0 0 -165 1 1 12 0M766 613l0 -172M766 613l68 0 0 -164 11 0M845 450l0 -3M845 450l1 153M846 613l0 -10"/>
<path stroke="#A52A2A" d="M846 613l128 0"/>
</svg>
