<?xml version="1.0" standalone="yes"?>
<!DOCTYPE svg PUBLIC "-//W3C//DTD SVG 1.1//EN"
 "http://www.w3.org/Graphics/SVG/1.1/DTD/svg11.dtd">
<svg xmlns="http://www.w3.org/2000/svg" version="1.1"
  width="100%" height="100%" viewBox="0 0 1024 768"
  style="fill: none; font-family: Helvetica;
 font: Helvetica;
">

<!-- Creator: NGspice -->

<rect x="0" y="0" width="1024" height="768" fill="black" stroke="none"/>
<text stroke="none" fill="white" font-size="16" x="358" y="752">
time
</text>
<text stroke="none" fill="white" font-size="16" x="10" y="16">
tran1: run577_vin-0.392432
</text>
<path stroke="white" d="M50 704l0 -637"/>
<text stroke="none" fill="white" font-size="16" x="35" y="728">
0.0
</text>
<path stroke="white" stroke-dasharray="1,2" d="M182 704l0 -637"/>
<text stroke="none" fill="white" font-size="16" x="157" y="728">
100.0
</text>
<path stroke="white" stroke-dasharray="1,2" d="M314 704l0 -637"/>
<text stroke="none" fill="white" font-size="16" x="289" y="728">
200.0
</text>
<path stroke="white" stroke-dasharray="1,2" d="M446 704l0 -637"/>
<text stroke="none" fill="white" font-size="16" x="421" y="728">
300.0
</text>
<path stroke="white" stroke-dasharray="1,2" d="M578 704l0 -637"/>
<text stroke="none" fill="white" font-size="16" x="553" y="728">
400.0
</text>
<path stroke="white" stroke-dasharray="1,2" d="M710 704l0 -637"/>
<text stroke="none" fill="white" font-size="16" x="685" y="728">
500.0
</text>
<path stroke="white" stroke-dasharray="1,2" d="M842 704l0 -637"/>
<text stroke="none" fill="white" font-size="16" x="817" y="728">
600.0
</text>
<path stroke="white" stroke-dasharray="1,2" d="M974 704l0 -637"/>
<text stroke="none" fill="white" font-size="16" x="949" y="728">
700.0
</text>
<text stroke="none" fill="white" font-size="16" x="614" y="752">
ns
</text>
<path stroke="white" stroke-dasharray="1,2" d="M50 704l924 0"/>
<text stroke="none" fill="white" font-size="16" x="8" y="712">
-3.0
</text>
<path stroke="white" stroke-dasharray="1,2" d="M50 613l924 0"/>
<text stroke="none" fill="white" font-size="16" x="8" y="621">
-2.0
</text>
<path stroke="white" stroke-dasharray="1,2" d="M50 522l924 0"/>
<text stroke="none" fill="white" font-size="16" x="8" y="530">
-1.0
</text>
<path stroke="white" d="M50 431l924 0"/>
<text stroke="none" fill="white" font-size="16" x="18" y="439">
0.0
</text>
<path stroke="white" stroke-dasharray="1,2" d="M50 340l924 0"/>
<text stroke="none" fill="white" font-size="16" x="18" y="348">
1.0
</text>
<path stroke="white" stroke-dasharray="1,2" d="M50 249l924 0"/>
<text stroke="none" fill="white" font-size="16" x="18" y="257">
2.0
</text>
<path stroke="white" stroke-dasharray="1,2" d="M50 158l924 0"/>
<text stroke="none" fill="white" font-size="16" x="18" y="166">
3.0
</text>
<path stroke="white" stroke-dasharray="1,2" d="M50 67l924 0"/>
<text stroke="none" fill="white" font-size="16" x="18" y="75">
4.0
</text>
<text stroke="none" fill="white" font-size="16" x="10" y="32">
     
</text>
<path stroke="red" d="M462 23l46 0"/>
<text stroke="none" fill="white" font-size="16" x="518" y="32">
x1.vsampled_p
</text>
<path stroke="red" d="M50 431l1 0 1 -7 0 -15 1 -14 0 -5 1 2M54 415l0 -40 1 -5 0 -13 1 -3 0 -2 2 -2 1 0 1 -1 4 0M64 350l0 -1M64 350l4 0 1 -1 48 0M117 356l0 -7M117 356l1 10M118 377l0 -11M118 377l1 3M119 382l0 -2M119 382l1 1M120 384l0 -1M120 384l1 0"/>
<path stroke="red" d="M121 385l0 -1M121 385l425 0 0 -22 1 -4 0 -26 1 -1 0 -5 1 -2 0 -1 5 0 0 -1M554 324l13 0M567 325l0 -1 13 0 0 -1M580 324l13 0M593 325l0 -1 7 0M600 346l0 -22M600 346l1 2M601 350l0 -3 1 -1 0 -2 17 0M619 345l0 -1 27 0M646 345l0 -1"/>
<path stroke="red" d="M646 344l26 0M672 345l0 -1 7 0M679 350l0 -6M679 350l1 1M680 352l0 -2 1 -1 18 0M699 350l0 -1 26 0M725 350l0 -1 26 0M751 350l0 -1 27 0M778 350l0 -1 26 0M804 350l0 -1 27 0M831 350l0 -1 26 0M857 350l0 -1 26 0M883 350l0 -1 27 0"/>
<path stroke="red" d="M910 350l0 -1 8 0M918 364l0 -18M918 364l1 3M919 382l0 -15M919 382l1 4M920 387l0 -1 1 0 0 -1 53 0"/>
<path stroke="blue" d="M50 23l46 0"/>
<text stroke="none" fill="white" font-size="16" x="106" y="32">
x1.vsampled_n
</text>
<path stroke="blue" d="M50 431l1 0 1 -7 0 -15 1 -15 0 -4 1 1M54 415l0 -40 1 -5 0 -13 1 -3 0 -2 2 -2 1 0 1 -1 4 0M64 350l0 -1M64 350l4 0 1 -1 48 0 0 -1 1 -9 0 -15 1 -4 0 -3 1 -1 0 -1 1 -1 1 0 1 -1 416 0M539 314l0 -1M539 314l15 0 0 -1M554 314l20 0"/>
<path stroke="blue" d="M574 339l0 -25M574 339l1 4M575 354l0 -11M575 354l1 0M576 355l0 -1M576 355l4 0 0 -1 13 0M593 355l0 -1M593 355l13 0 0 -1 13 0M619 355l0 -1M619 355l1 0 0 -1M620 355l5 0 0 -7 1 -2 0 -8 1 0 0 -1 6 0 0 -1M633 337l20 0M653 344l0 -7"/>
<path stroke="blue" d="M653 344l1 1M654 348l0 -3M654 347l52 0M706 350l0 -3M706 350l1 0 0 -1 18 0M725 350l0 -1 7 0 0 -1 1 -1 18 0M751 348l0 -1 8 0M759 349l0 -2M759 348l19 0M778 349l0 -1 7 0 1 1M786 350l0 -1 26 0M812 350l0 -1M812 350l1 0 0 -1 17 0"/>
<path stroke="blue" d="M830 349l1 1 0 -1 87 0M918 350l0 -8 1 -2 0 -11 1 -4 0 -6 1 -2 0 -2 1 0 0 -1 1 0 0 -1M923 314l13 0M936 315l0 -1 14 0 0 -1M950 314l11 0 0 -1 13 0"/>
<path stroke="#FFA500" d="M462 39l46 0"/>
<text stroke="none" fill="white" font-size="16" x="518" y="48">
x1.vsampled_p-x1.vsampled_n
</text>
<path stroke="#FFA500" d="M50 431l2 0 1 1 1 -1 63 0M117 439l0 -8M117 439l1 18M118 485l0 -28M118 485l1 6M119 495l0 -4M119 495l1 4M120 500l0 -1M120 500l1 1M121 502l0 -1M121 502l425 0 0 -22 1 -4 0 -25 1 -2 0 -5 1 -1 0 -1 1 -1 17 0M567 442l0 -1 7 0"/>
<path stroke="#FFA500" d="M574 441l0 -25 1 -4 0 -11 1 -1 17 0M593 401l0 -1 7 0M600 422l0 -22M600 422l1 3M601 427l0 -4 1 -1 0 -1 4 0 0 -1 1 0M607 421l0 -1M607 421l18 0M625 427l0 -6M625 427l1 3M626 437l0 -7M626 437l1 1 6 0M633 439l0 -1 13 0M646 439l0 -1"/>
<path stroke="#FFA500" d="M646 438l7 0M653 439l0 -8 1 -1 0 -2 25 0M679 434l0 -6M679 434l1 1M680 436l0 -2 1 0 0 -1 18 0M699 434l0 -1 7 0 0 -3 1 0M707 431l0 -1M707 431l25 0M732 432l0 -1M732 432l1 1M733 434l0 -1 26 0 0 -2M759 432l26 0 1 -1 26 0"/>
<path stroke="#FFA500" d="M812 431l0 -1 1 1 105 0M918 453l0 -24M918 453l1 5M919 483l0 -25M919 483l1 9M920 498l0 -6M920 498l1 2M921 501l0 -1M921 501l1 0M922 502l0 -1M922 502l1 0M923 503l0 -1 13 0 0 -1M936 502l14 0M950 503l0 -1 24 0"/>
<path stroke="green" d="M50 39l46 0"/>
<text stroke="none" fill="white" font-size="16" x="106" y="48">
x1.sw_sample-2
</text>
<path stroke="green" d="M50 613l1 0 1 -9 0 -21 1 -21M53 580l0 -24M53 580l1 30M54 613l0 -3M54 613l63 0M117 620l0 -172M117 449l422 0M539 614l0 -171M539 613l422 0M961 618l0 -170 1 1 12 0"/>
<path stroke="#FFC0C5" d="M462 55l46 0"/>
<text stroke="none" fill="white" font-size="16" x="518" y="64">
x1.comp_out_p+2
</text>
<path stroke="#FFC0C5" d="M50 249l1 0 1 -9 0 -22 1 -18 0 -4M53 198l1 5M54 249l0 -46M54 248l1 1 539 0 0 -165M594 85l14 0M608 249l0 -171M608 249l13 0 0 -166M621 85l13 0M634 249l0 -173M634 249l39 0 1 -45 0 -120M674 85l13 0M687 249l0 -171M687 249l41 0"/>
<path stroke="#FFC0C5" d="M728 249l0 -157 1 -8M729 85l0 -1M729 85l11 0M740 249l0 -173M740 249l94 0 0 -165M834 85l11 0 0 -2 1 151M846 249l0 -15M846 249l128 0"/>
<path stroke="#A52A2A" d="M50 55l46 0"/>
<text stroke="none" fill="white" font-size="16" x="106" y="64">
x1.comp_out_n-2
</text>
<path stroke="#A52A2A" d="M50 613l1 0 1 -9 0 -22 1 -19M53 564l0 -3M53 564l1 6M54 613l0 -43M54 613l488 0 0 -166M542 449l13 0M555 613l0 -172M555 613l13 0 0 -165M568 449l13 0 0 -9 1 164M582 613l0 -9M582 613l65 0M647 614l0 -166M647 449l14 0M661 613l0 -168"/>
<path stroke="#A52A2A" d="M661 613l39 0 0 -165M700 449l13 0 0 -4 1 156M714 613l0 -12M714 613l39 0 0 -165M753 449l13 0M766 613l0 -173M766 613l14 0 0 -165M780 449l13 0M793 613l0 -174M793 613l14 0 0 -165 1 1 11 0M819 613l0 -167M819 613l41 0 0 -165"/>
<path stroke="#A52A2A" d="M860 448l1 1 11 0M872 613l0 -174M872 613l14 0 0 -158 1 -7M887 449l0 -1M887 449l11 0M898 613l0 -174M898 613l15 0 0 -165M913 449l12 0M925 614l0 -166M925 613l12 0M937 614l0 -1M937 614l1 -74 0 -92M938 449l13 0M951 613l0 -172"/>
<path stroke="#A52A2A" d="M951 613l23 0"/>
</svg>
