<?xml version="1.0" standalone="yes"?>
<!DOCTYPE svg PUBLIC "-//W3C//DTD SVG 1.1//EN"
 "http://www.w3.org/Graphics/SVG/1.1/DTD/svg11.dtd">
<svg xmlns="http://www.w3.org/2000/svg" version="1.1"
  width="100%" height="100%" viewBox="0 0 1024 768"
  style="fill: none; font-family: Helvetica;
 font: Helvetica;
">

<!-- Creator: NGspice -->

<rect x="0" y="0" width="1024" height="768" fill="black" stroke="none"/>
<text stroke="none" fill="white" font-size="16" x="358" y="752">
time
</text>
<text stroke="none" fill="white" font-size="16" x="10" y="16">
tran1: run1577_vin0.486473
</text>
<path stroke="white" d="M50 704l0 -637"/>
<text stroke="none" fill="white" font-size="16" x="35" y="728">
0.0
</text>
<path stroke="white" stroke-dasharray="1,2" d="M182 704l0 -637"/>
<text stroke="none" fill="white" font-size="16" x="157" y="728">
100.0
</text>
<path stroke="white" stroke-dasharray="1,2" d="M314 704l0 -637"/>
<text stroke="none" fill="white" font-size="16" x="289" y="728">
200.0
</text>
<path stroke="white" stroke-dasharray="1,2" d="M446 704l0 -637"/>
<text stroke="none" fill="white" font-size="16" x="421" y="728">
300.0
</text>
<path stroke="white" stroke-dasharray="1,2" d="M578 704l0 -637"/>
<text stroke="none" fill="white" font-size="16" x="553" y="728">
400.0
</text>
<path stroke="white" stroke-dasharray="1,2" d="M710 704l0 -637"/>
<text stroke="none" fill="white" font-size="16" x="685" y="728">
500.0
</text>
<path stroke="white" stroke-dasharray="1,2" d="M842 704l0 -637"/>
<text stroke="none" fill="white" font-size="16" x="817" y="728">
600.0
</text>
<path stroke="white" stroke-dasharray="1,2" d="M974 704l0 -637"/>
<text stroke="none" fill="white" font-size="16" x="949" y="728">
700.0
</text>
<text stroke="none" fill="white" font-size="16" x="614" y="752">
ns
</text>
<path stroke="white" stroke-dasharray="1,2" d="M50 704l924 0"/>
<text stroke="none" fill="white" font-size="16" x="8" y="712">
-2.5
</text>
<path stroke="white" stroke-dasharray="1,2" d="M50 655l924 0"/>
<text stroke="none" fill="white" font-size="16" x="8" y="663">
-2.0
</text>
<path stroke="white" stroke-dasharray="1,2" d="M50 606l924 0"/>
<text stroke="none" fill="white" font-size="16" x="8" y="614">
-1.5
</text>
<path stroke="white" stroke-dasharray="1,2" d="M50 557l924 0"/>
<text stroke="none" fill="white" font-size="16" x="8" y="565">
-1.0
</text>
<path stroke="white" stroke-dasharray="1,2" d="M50 508l924 0"/>
<text stroke="none" fill="white" font-size="16" x="8" y="516">
-0.5
</text>
<path stroke="white" d="M50 459l924 0"/>
<text stroke="none" fill="white" font-size="16" x="18" y="467">
0.0
</text>
<path stroke="white" stroke-dasharray="1,2" d="M50 410l924 0"/>
<text stroke="none" fill="white" font-size="16" x="18" y="418">
0.5
</text>
<path stroke="white" stroke-dasharray="1,2" d="M50 361l924 0"/>
<text stroke="none" fill="white" font-size="16" x="18" y="369">
1.0
</text>
<path stroke="white" stroke-dasharray="1,2" d="M50 312l924 0"/>
<text stroke="none" fill="white" font-size="16" x="18" y="320">
1.5
</text>
<path stroke="white" stroke-dasharray="1,2" d="M50 263l924 0"/>
<text stroke="none" fill="white" font-size="16" x="18" y="271">
2.0
</text>
<path stroke="white" stroke-dasharray="1,2" d="M50 214l924 0"/>
<text stroke="none" fill="white" font-size="16" x="18" y="222">
2.5
</text>
<path stroke="white" stroke-dasharray="1,2" d="M50 165l924 0"/>
<text stroke="none" fill="white" font-size="16" x="18" y="173">
3.0
</text>
<path stroke="white" stroke-dasharray="1,2" d="M50 116l924 0"/>
<text stroke="none" fill="white" font-size="16" x="18" y="124">
3.5
</text>
<path stroke="white" stroke-dasharray="1,2" d="M50 67l924 0"/>
<text stroke="none" fill="white" font-size="16" x="18" y="75">
4.0
</text>
<text stroke="none" fill="white" font-size="16" x="10" y="32">
     
</text>
<path stroke="red" d="M462 23l46 0"/>
<text stroke="none" fill="white" font-size="16" x="518" y="32">
x1.vsampled_p
</text>
<path stroke="red" d="M50 459l1 0 1 -7 0 -17 1 -16 0 -5 1 2M54 441l0 -42 1 -5 0 -15 1 -2 0 -3 1 -2 1 0 0 -1 59 0 0 -1 1 -11 0 -21 1 -5 0 -6 1 -2 2 -2 418 0M540 324l0 -1M540 324l1 -1M541 324l0 -1 25 0 1 1M567 325l0 -2 7 0M574 348l0 -25M574 348l1 9"/>
<path stroke="red" d="M575 365l0 -8M575 365l1 1M576 367l0 -1M576 367l17 0M593 368l0 -1 26 0M619 368l0 -1M619 368l1 0 0 -1 26 0M646 368l0 -1 26 0M672 368l0 -1 26 0 1 1 0 -1 7 0M706 371l0 -4M706 370l19 0M725 371l0 -1 26 0M751 371l0 -1 27 0M778 371l0 -1"/>
<path stroke="red" d="M778 370l7 0M785 371l0 -1M785 371l134 0 0 -17 1 -2 0 -12 1 -3 0 -8 1 0 0 -4 1 0 0 -1 1 0 0 -1 12 0M936 325l0 -2 1 1 0 -1 37 0"/>
<path stroke="blue" d="M50 23l46 0"/>
<text stroke="none" fill="white" font-size="16" x="106" y="32">
x1.vsampled_n
</text>
<path stroke="blue" d="M50 459l1 0 1 -7 0 -17 1 -15 0 -5 1 2M54 441l0 -42 1 -5 0 -15 1 -2 0 -3 1 -2 1 0 0 -1 59 0M117 381l0 -10M117 381l1 13M118 408l0 -14M118 408l1 4M119 416l0 -4M119 416l2 2 418 0M539 419l0 -1M539 419l2 0 0 -1M541 419l5 0 0 -25"/>
<path stroke="blue" d="M546 394l1 -3 0 -26 1 -3 0 -6 1 -1 0 -1 1 -1 4 0 0 -1M554 353l12 0 0 -1M566 353l1 0M567 354l0 -1 13 0 0 -1M580 353l13 0 0 -1M593 353l7 0M600 375l0 -23M600 375l1 3M601 381l0 -3M601 379l1 -2 0 -2 4 0 0 -1 1 0M607 375l0 -1"/>
<path stroke="blue" d="M607 375l13 0 0 -1M620 375l5 0 0 -1 1 -6 0 -13 1 -1M627 355l0 -1M627 355l19 0M646 356l0 -1 7 0M653 366l0 -11M653 366l1 2M654 369l0 -1 2 -2 16 0M672 367l0 -1 7 0M679 371l0 -5M679 371l1 1M680 375l0 -3M680 373l1 -1 50 0 1 -1"/>
<path stroke="blue" d="M732 371l0 -3M732 369l19 0M751 370l0 -1M751 370l1 0 0 -1 7 0M759 372l0 -3M759 371l55 0M814 372l0 -1 17 0M831 372l0 -1 7 0 0 -1M838 371l81 0M919 397l0 -26M919 397l1 2M920 415l0 -16M920 415l1 4M921 421l0 -2M921 420l1 0 0 -1"/>
<path stroke="blue" d="M922 419l39 0 1 -1 12 0"/>
<path stroke="#FFA500" d="M462 39l46 0"/>
<text stroke="none" fill="white" font-size="16" x="518" y="48">
x1.vsampled_p-x1.vsampled_n
</text>
<path stroke="#FFA500" d="M50 459l2 0 1 -1 1 0M54 459l0 -1M54 459l63 0 0 -11 1 -23 0 -37 1 -8 0 -10 1 -2 1 -3 1 -1 418 0M540 365l0 -1 6 0M546 388l0 -24M546 388l1 4M547 418l0 -26M547 418l1 2M548 426l0 -6M548 426l1 2M549 429l0 -1M549 429l1 0M550 430l0 -1"/>
<path stroke="#FFA500" d="M550 430l17 0 0 -1M567 430l7 0M574 454l0 -24M574 454l1 9M575 472l0 -9M575 472l1 1M576 474l0 -1M576 474l17 0 0 -1M593 474l7 0 0 -22 1 -3 0 -4M601 448l1 2M602 452l0 -2M602 452l23 0M625 453l0 -1M625 453l1 5M626 472l0 -14"/>
<path stroke="#FFA500" d="M626 472l2 0 0 -1 25 0 0 -10 1 -3M654 459l0 -2M654 459l1 0M655 460l0 -1M655 460l24 0 0 -5 1 -1 0 -3M680 454l1 0 1 1 17 0 0 -1M699 455l7 0M706 458l0 -3M706 458l1 -1 24 0 1 1M732 461l0 -3M732 460l27 0 0 -3M759 458l26 0"/>
<path stroke="#FFA500" d="M785 459l0 -1M785 459l29 0 0 -1M814 459l105 0 0 -43 1 -4 0 -28 1 -8 0 -8 1 -1 0 -2 1 0 0 -1 13 0M936 365l0 -1 14 0 0 -1M950 364l24 0"/>
<path stroke="green" d="M50 39l46 0"/>
<text stroke="none" fill="white" font-size="16" x="106" y="48">
x1.sw_sample-2
</text>
<path stroke="green" d="M50 655l1 0 1 -10 0 -23 1 -21M53 619l0 -25M53 619l1 33M54 655l0 -3M54 655l63 0M117 662l0 -184 1 0M118 479l0 -1M118 479l421 0M539 656l0 -184M539 655l422 0M961 660l0 -182 1 0M962 479l0 -1M962 479l12 0"/>
<path stroke="#FFC0C5" d="M462 55l46 0"/>
<text stroke="none" fill="white" font-size="16" x="518" y="64">
x1.comp_out_p+2
</text>
<path stroke="#FFC0C5" d="M50 263l1 0 1 -10 0 -23 1 -20 0 -4M53 209l1 4M54 263l0 -50M54 263l487 0 1 1 0 -179M542 87l13 0M555 263l0 -186M555 263l13 0M568 265l0 -180M568 87l13 0 0 -10 1 175M582 264l0 -12M582 263l39 0M621 268l0 -183M621 87l13 0"/>
<path stroke="#FFC0C5" d="M634 263l0 -179M634 263l66 0M700 266l0 -181M700 87l13 0 0 -8 1 152M714 263l0 -32M714 263l13 0 0 -177 1 1 12 0M740 264l0 -187M740 263l40 0 0 -177M780 87l13 0M793 263l0 -185M793 263l41 0 0 -177M834 87l11 0 0 -9 1 158M846 263l0 -27"/>
<path stroke="#FFC0C5" d="M846 263l91 0M937 270l0 -7M937 270l1 -147 0 -38M938 87l13 0M951 263l0 -186M951 263l23 0"/>
<path stroke="#A52A2A" d="M50 55l46 0"/>
<text stroke="none" fill="white" font-size="16" x="106" y="64">
x1.comp_out_n-2
</text>
<path stroke="#A52A2A" d="M50 655l1 0 1 -10 0 -24 1 -20M53 602l0 -3M53 602l1 7M54 656l0 -47M54 654l1 1 513 0M568 656l0 -1 26 0 0 -179M594 478l1 1 13 0M608 655l0 -185M608 655l39 0M647 656l0 -179M647 479l14 0M661 656l0 -187M661 655l13 0 0 -178"/>
<path stroke="#A52A2A" d="M674 479l13 0M687 655l0 -186M687 655l66 0 0 -177 1 0M754 479l0 -1M754 479l12 0M766 655l0 -184M766 655l42 0 1 -170 0 -7M809 479l10 0M819 655l0 -185M819 655l42 0 1 -170 0 -7M862 479l10 0M872 655l0 -186M872 655l16 0 0 -177"/>
<path stroke="#A52A2A" d="M888 479l10 0M898 655l0 -186M898 655l16 0 0 -170 1 -7M915 479l0 -1M915 479l10 0M925 656l0 -179M925 655l49 0"/>
</svg>
