<?xml version="1.0" standalone="yes"?>
<!DOCTYPE svg PUBLIC "-//W3C//DTD SVG 1.1//EN"
 "http://www.w3.org/Graphics/SVG/1.1/DTD/svg11.dtd">
<svg xmlns="http://www.w3.org/2000/svg" version="1.1"
  width="100%" height="100%" viewBox="0 0 1024 768"
  style="fill: none; font-family: Helvetica;
 font: Helvetica;
">

<!-- Creator: NGspice -->

<rect x="0" y="0" width="1024" height="768" fill="black" stroke="none"/>
<text stroke="none" fill="white" font-size="16" x="358" y="752">
time
</text>
<text stroke="none" fill="white" font-size="16" x="10" y="16">
tran1: run186_vin0.812977
</text>
<path stroke="white" d="M50 704l0 -637"/>
<text stroke="none" fill="white" font-size="16" x="35" y="728">
0.0
</text>
<path stroke="white" stroke-dasharray="1,2" d="M182 704l0 -637"/>
<text stroke="none" fill="white" font-size="16" x="157" y="728">
100.0
</text>
<path stroke="white" stroke-dasharray="1,2" d="M314 704l0 -637"/>
<text stroke="none" fill="white" font-size="16" x="289" y="728">
200.0
</text>
<path stroke="white" stroke-dasharray="1,2" d="M446 704l0 -637"/>
<text stroke="none" fill="white" font-size="16" x="421" y="728">
300.0
</text>
<path stroke="white" stroke-dasharray="1,2" d="M578 704l0 -637"/>
<text stroke="none" fill="white" font-size="16" x="553" y="728">
400.0
</text>
<path stroke="white" stroke-dasharray="1,2" d="M710 704l0 -637"/>
<text stroke="none" fill="white" font-size="16" x="685" y="728">
500.0
</text>
<path stroke="white" stroke-dasharray="1,2" d="M842 704l0 -637"/>
<text stroke="none" fill="white" font-size="16" x="817" y="728">
600.0
</text>
<path stroke="white" stroke-dasharray="1,2" d="M974 704l0 -637"/>
<text stroke="none" fill="white" font-size="16" x="949" y="728">
700.0
</text>
<text stroke="none" fill="white" font-size="16" x="614" y="752">
ns
</text>
<path stroke="white" stroke-dasharray="1,2" d="M50 704l924 0"/>
<text stroke="none" fill="white" font-size="16" x="8" y="712">
-2.5
</text>
<path stroke="white" stroke-dasharray="1,2" d="M50 655l924 0"/>
<text stroke="none" fill="white" font-size="16" x="8" y="663">
-2.0
</text>
<path stroke="white" stroke-dasharray="1,2" d="M50 606l924 0"/>
<text stroke="none" fill="white" font-size="16" x="8" y="614">
-1.5
</text>
<path stroke="white" stroke-dasharray="1,2" d="M50 557l924 0"/>
<text stroke="none" fill="white" font-size="16" x="8" y="565">
-1.0
</text>
<path stroke="white" stroke-dasharray="1,2" d="M50 508l924 0"/>
<text stroke="none" fill="white" font-size="16" x="8" y="516">
-0.5
</text>
<path stroke="white" d="M50 459l924 0"/>
<text stroke="none" fill="white" font-size="16" x="18" y="467">
0.0
</text>
<path stroke="white" stroke-dasharray="1,2" d="M50 410l924 0"/>
<text stroke="none" fill="white" font-size="16" x="18" y="418">
0.5
</text>
<path stroke="white" stroke-dasharray="1,2" d="M50 361l924 0"/>
<text stroke="none" fill="white" font-size="16" x="18" y="369">
1.0
</text>
<path stroke="white" stroke-dasharray="1,2" d="M50 312l924 0"/>
<text stroke="none" fill="white" font-size="16" x="18" y="320">
1.5
</text>
<path stroke="white" stroke-dasharray="1,2" d="M50 263l924 0"/>
<text stroke="none" fill="white" font-size="16" x="18" y="271">
2.0
</text>
<path stroke="white" stroke-dasharray="1,2" d="M50 214l924 0"/>
<text stroke="none" fill="white" font-size="16" x="18" y="222">
2.5
</text>
<path stroke="white" stroke-dasharray="1,2" d="M50 165l924 0"/>
<text stroke="none" fill="white" font-size="16" x="18" y="173">
3.0
</text>
<path stroke="white" stroke-dasharray="1,2" d="M50 116l924 0"/>
<text stroke="none" fill="white" font-size="16" x="18" y="124">
3.5
</text>
<path stroke="white" stroke-dasharray="1,2" d="M50 67l924 0"/>
<text stroke="none" fill="white" font-size="16" x="18" y="75">
4.0
</text>
<text stroke="none" fill="white" font-size="16" x="10" y="32">
     
</text>
<path stroke="red" d="M462 23l46 0"/>
<text stroke="none" fill="white" font-size="16" x="518" y="32">
x1.vsampled_p
</text>
<path stroke="red" d="M50 459l1 0 1 -7 0 -17 1 -16 0 -5 1 2M54 441l0 -42 1 -5 0 -14 1 -3 0 -3 1 -1 0 -1 1 -1 59 0 0 -2 1 -12 0 -38 1 -7 0 -11 1 -3 0 -3 1 -2 0 -1 1 0 1 -1 416 0M539 292l0 -1M539 292l1 -1M540 293l0 -2M540 292l14 0 0 -1 12 0 1 1"/>
<path stroke="red" d="M567 293l0 -1 7 0M574 316l0 -25M574 316l1 6M575 332l0 -10M575 332l1 3 1 1 3 0 0 -1 13 0M593 336l0 -1M593 336l7 0M600 351l0 -15M600 351l1 4M601 359l0 -4M601 358l1 0 1 -1 1 1 2 0 0 -1 13 0M619 358l0 -1M619 358l1 0 0 -1M620 358l13 0"/>
<path stroke="red" d="M633 358l0 -1 13 0M646 358l0 -1M646 358l7 0M653 365l0 -7M653 365l1 3M654 369l0 -1M654 369l1 0 0 -1 17 0M672 369l0 -1 26 0 1 1 0 -1 7 0M706 372l0 -4M706 372l1 -1 18 0M725 372l0 -1 7 0 0 -2 1 0 0 -1M733 369l26 0M759 371l0 -2"/>
<path stroke="red" d="M759 370l26 0M785 371l0 -1M785 371l133 0 0 -31 1 -3 0 -32 1 -4 0 -5 1 -1 0 -2 1 0 0 -1 1 0 0 -1 13 0M936 293l0 -2M936 292l14 0 0 -1 24 0"/>
<path stroke="blue" d="M50 23l46 0"/>
<text stroke="none" fill="white" font-size="16" x="106" y="32">
x1.vsampled_n
</text>
<path stroke="blue" d="M50 459l1 0 1 -7 0 -17 1 -15 0 -5 1 2M54 441l0 -42 1 -5 0 -14 1 -3 0 -3 1 -1 0 -1 1 -1 59 0M117 395l0 -24M117 395l1 18M118 436l0 -23M118 436l1 3M119 445l0 -6M119 445l1 2M120 448l0 -1M120 448l1 1M121 450l0 -1M121 450l418 0"/>
<path stroke="blue" d="M539 451l0 -1M539 451l1 0 1 -1M541 451l0 -1M541 451l5 0 0 -34 1 -5 0 -15 1 -7 0 -3 1 -2 5 0 0 -1 12 0 1 1 0 -1M567 385l13 0 0 -1M580 385l13 0 0 -1M593 385l13 0 0 -1 1 0M607 385l0 -1M607 385l12 0 0 -1M619 385l1 0 0 -1M620 385l5 0"/>
<path stroke="blue" d="M625 385l0 -14 1 -1 0 -6 1 0M627 365l0 -1M627 365l19 0M646 366l0 -1 26 0M672 366l0 -1 7 0M679 374l0 -9M679 374l1 1 0 -4 133 0M813 372l0 -1 18 0M831 372l0 -1 7 0 0 -1M838 371l80 0M918 435l0 -64M918 435l1 6M919 464l0 -23"/>
<path stroke="blue" d="M919 459l1 -1 0 -4 1 -1 0 -2 29 0 0 -1M950 451l11 0 0 -1 13 0"/>
<path stroke="#FFA500" d="M462 39l46 0"/>
<text stroke="none" fill="white" font-size="16" x="518" y="48">
x1.vsampled_p-x1.vsampled_n
</text>
<path stroke="#FFA500" d="M50 459l2 0 0 -1 2 0M54 459l0 -1M54 459l63 0 0 -26 1 -31 0 -60 1 -10 0 -18 1 -5 0 -3 1 -3 0 -2 1 -1 418 0M540 301l0 -1 6 0M546 334l0 -34M546 334l1 4M547 354l0 -16M547 354l1 7M548 364l0 -3M548 364l2 2 4 0 0 -1M554 366l13 0"/>
<path stroke="#FFA500" d="M567 367l0 -1 7 0M574 390l0 -24M574 390l1 7M575 407l0 -10M575 407l1 3 17 0M593 411l0 -1 7 0M600 425l0 -15M600 425l1 5M601 433l0 -3M601 433l1 -1 23 0M625 446l0 -14M625 446l1 1M626 452l0 -5M626 452l2 0 0 -1 25 0M653 459l0 -8"/>
<path stroke="#FFA500" d="M653 459l1 2M654 463l0 -2M654 462l25 0 0 -8 1 -1M680 456l0 -3M680 456l1 1 18 0 0 -1M699 457l7 0M706 460l0 -3M706 460l1 0 0 -1 5 0M712 460l0 -1 20 0 0 -2 27 0M759 459l0 -2M759 458l26 0M785 459l0 -1M785 459l28 0 0 -1M813 459l18 0"/>
<path stroke="#FFA500" d="M831 459l0 -1M831 459l7 0M838 460l0 -1 80 0 0 -95 1 -9 0 -51 1 -1 0 -2 1 0 0 -1 2 0 0 -1M923 300l13 0M936 301l0 -1 14 0 0 -1M950 300l24 0"/>
<path stroke="green" d="M50 39l46 0"/>
<text stroke="none" fill="white" font-size="16" x="106" y="48">
x1.sw_sample-2
</text>
<path stroke="green" d="M50 655l1 0 1 -10 0 -23 1 -21M53 618l0 -24M53 618l1 34M54 655l0 -3M54 655l63 0M117 662l0 -184 1 0M118 479l0 -1M118 479l421 0M539 656l0 -184M539 655l422 0M961 660l0 -182 1 0M962 479l0 -1M962 479l12 0"/>
<path stroke="#FFC0C5" d="M462 55l46 0"/>
<text stroke="none" fill="white" font-size="16" x="518" y="64">
x1.comp_out_p+2
</text>
<path stroke="#FFC0C5" d="M50 263l1 0 1 -10 0 -23 1 -20 0 -4M53 208l1 5M54 263l0 -50M54 263l487 0 1 1 0 -179M542 87l13 0M555 264l0 -183M555 263l13 0M568 264l0 -179M568 87l13 0 0 -4 1 81M582 264l0 -100M582 263l12 0M594 264l0 -179M594 86l1 1 13 0"/>
<path stroke="#FFC0C5" d="M608 263l0 -184M608 263l13 0M621 264l0 -179M621 87l13 0M634 264l0 -182M634 263l13 0 0 -178M647 87l14 0M661 264l0 -181M661 263l39 0 0 -178M700 87l13 0 0 -5 1 57M714 264l0 -125M714 263l39 0 0 -178M753 87l13 0M766 264l0 -185"/>
<path stroke="#FFC0C5" d="M766 264l1 -1 13 0 0 -177 1 1 12 0M793 263l0 -184M793 263l41 0 0 -177M834 87l11 0 0 -7 1 165M846 263l0 -18M846 263l91 0M937 264l0 -1M937 264l1 -92 0 -87M938 87l13 0M951 263l0 -185M951 263l23 0"/>
<path stroke="#A52A2A" d="M50 55l46 0"/>
<text stroke="none" fill="white" font-size="16" x="106" y="64">
x1.comp_out_n-2
</text>
<path stroke="#A52A2A" d="M50 655l1 0 1 -10 0 -24 1 -20M53 602l0 -4M53 602l1 7M54 656l0 -47M54 652l1 3 566 0M621 656l0 -1 52 0 1 1 0 -180M674 479l13 0M687 655l0 -185M687 655l41 0 0 -177M728 479l12 0M740 656l0 -186M740 655l67 0 0 -168 1 -9M808 479l0 -1"/>
<path stroke="#A52A2A" d="M808 479l11 0M819 655l0 -179M819 655l41 0 0 -177 1 0M861 479l0 -1M861 479l11 0M872 655l0 -187M872 655l15 0 0 -177M887 479l11 0M898 655l0 -187M898 655l15 0 0 -178M913 478l1 1 11 0M925 656l0 -184M925 655l49 0"/>
</svg>
