<?xml version="1.0" standalone="yes"?>
<!DOCTYPE svg PUBLIC "-//W3C//DTD SVG 1.1//EN"
 "http://www.w3.org/Graphics/SVG/1.1/DTD/svg11.dtd">
<svg xmlns="http://www.w3.org/2000/svg" version="1.1"
  width="100%" height="100%" viewBox="0 0 1024 768"
  style="fill: none; font-family: Helvetica;
 font: Helvetica;
">

<!-- Creator: NGspice -->

<rect x="0" y="0" width="1024" height="768" fill="black" stroke="none"/>
<text stroke="none" fill="white" font-size="16" x="358" y="752">
time
</text>
<text stroke="none" fill="white" font-size="16" x="10" y="16">
tran1: run207_vin-0.717627
</text>
<path stroke="white" d="M50 704l0 -637"/>
<text stroke="none" fill="white" font-size="16" x="35" y="728">
0.0
</text>
<path stroke="white" stroke-dasharray="1,2" d="M182 704l0 -637"/>
<text stroke="none" fill="white" font-size="16" x="157" y="728">
100.0
</text>
<path stroke="white" stroke-dasharray="1,2" d="M314 704l0 -637"/>
<text stroke="none" fill="white" font-size="16" x="289" y="728">
200.0
</text>
<path stroke="white" stroke-dasharray="1,2" d="M446 704l0 -637"/>
<text stroke="none" fill="white" font-size="16" x="421" y="728">
300.0
</text>
<path stroke="white" stroke-dasharray="1,2" d="M578 704l0 -637"/>
<text stroke="none" fill="white" font-size="16" x="553" y="728">
400.0
</text>
<path stroke="white" stroke-dasharray="1,2" d="M710 704l0 -637"/>
<text stroke="none" fill="white" font-size="16" x="685" y="728">
500.0
</text>
<path stroke="white" stroke-dasharray="1,2" d="M842 704l0 -637"/>
<text stroke="none" fill="white" font-size="16" x="817" y="728">
600.0
</text>
<path stroke="white" stroke-dasharray="1,2" d="M974 704l0 -637"/>
<text stroke="none" fill="white" font-size="16" x="949" y="728">
700.0
</text>
<text stroke="none" fill="white" font-size="16" x="614" y="752">
ns
</text>
<path stroke="white" stroke-dasharray="1,2" d="M50 704l924 0"/>
<text stroke="none" fill="white" font-size="16" x="8" y="712">
-3.0
</text>
<path stroke="white" stroke-dasharray="1,2" d="M50 613l924 0"/>
<text stroke="none" fill="white" font-size="16" x="8" y="621">
-2.0
</text>
<path stroke="white" stroke-dasharray="1,2" d="M50 522l924 0"/>
<text stroke="none" fill="white" font-size="16" x="8" y="530">
-1.0
</text>
<path stroke="white" d="M50 431l924 0"/>
<text stroke="none" fill="white" font-size="16" x="18" y="439">
0.0
</text>
<path stroke="white" stroke-dasharray="1,2" d="M50 340l924 0"/>
<text stroke="none" fill="white" font-size="16" x="18" y="348">
1.0
</text>
<path stroke="white" stroke-dasharray="1,2" d="M50 249l924 0"/>
<text stroke="none" fill="white" font-size="16" x="18" y="257">
2.0
</text>
<path stroke="white" stroke-dasharray="1,2" d="M50 158l924 0"/>
<text stroke="none" fill="white" font-size="16" x="18" y="166">
3.0
</text>
<path stroke="white" stroke-dasharray="1,2" d="M50 67l924 0"/>
<text stroke="none" fill="white" font-size="16" x="18" y="75">
4.0
</text>
<text stroke="none" fill="white" font-size="16" x="10" y="32">
     
</text>
<path stroke="red" d="M462 23l46 0"/>
<text stroke="none" fill="white" font-size="16" x="518" y="32">
x1.vsampled_p
</text>
<path stroke="red" d="M50 431l1 0 1 -7 0 -15 1 -14 0 -5 1 2M54 414l0 -38 1 -4 0 -14 1 -3 0 -2 1 -2 0 -1 2 0 1 -1 3 0 1 1 4 0 1 -1 48 0M117 367l0 -18M117 367l1 16M118 403l0 -20M118 403l1 3M119 411l0 -5M119 411l1 1M120 413l0 -1M120 413l1 1 418 0"/>
<path stroke="red" d="M539 414l1 1 1 -1M541 415l0 -1M541 415l5 0 0 -26 1 -3 0 -19 1 -7 0 -4 1 -2 1 0 0 -1 17 0M567 354l0 -1 26 0M593 354l0 -1 26 0M619 354l0 -1M619 354l1 0 0 -1 5 0 0 -5 1 -5 0 -9 1 0M627 335l0 -1M627 335l19 0M646 336l0 -1 7 0"/>
<path stroke="red" d="M653 347l0 -12M653 347l1 1 0 -2 5 0 0 -1 1 0M660 346l0 -1M660 346l12 0 0 -1M672 346l14 0 0 -1M686 346l12 0 0 -1M698 346l1 0 0 -1M699 346l7 0M706 350l0 -4M706 349l1 -1 18 0M725 349l0 -1 26 0M751 349l0 -1 8 0M759 351l0 -3"/>
<path stroke="red" d="M759 351l1 -1 0 -1 18 0M778 350l0 -1 26 0M804 350l0 -1 26 0 1 1 0 -1 26 0M857 350l0 -1 26 0M883 350l0 -1 27 0M910 350l0 -1 8 0M918 401l0 -54M918 401l1 6M919 420l0 -13M919 420l1 -1 0 -2 1 -1 0 -1 2 0 0 -1M923 415l2 0 0 -1"/>
<path stroke="red" d="M925 414l11 0M936 415l0 -1M936 415l14 0 0 -1 24 0"/>
<path stroke="blue" d="M50 23l46 0"/>
<text stroke="none" fill="white" font-size="16" x="106" y="32">
x1.vsampled_n
</text>
<path stroke="blue" d="M50 431l1 0 1 -7 0 -16 1 -14 0 -5 1 2M54 414l0 -38 1 -4 0 -14 1 -3 0 -2 1 -2 0 -1 2 0 1 -1 3 0 1 1 5 0 0 -1 48 0 0 -1 1 -11 0 -34 1 -5 0 -8 1 -3 0 -1 2 -2 418 0M540 285l0 -1 27 0M567 286l0 -2 7 0M574 307l0 -23M574 307l1 7"/>
<path stroke="blue" d="M575 323l0 -9M575 323l1 2 17 0M593 326l0 -1 7 0M600 340l0 -15M600 340l1 3M601 346l0 -3M601 346l1 0 0 -1 17 0M619 346l0 -1 27 0M646 346l0 -1 26 0M672 346l0 -1 7 0M679 349l0 -4M679 349l1 1M680 352l0 -2M680 351l1 -1 17 0 1 1"/>
<path stroke="blue" d="M699 351l0 -1 26 0M725 351l0 -1 6 0 0 -2 20 0M751 349l0 -1 27 0M778 349l0 -1 7 0M785 349l0 -1M785 349l27 0M812 350l0 -1 19 0M831 350l0 -1 87 0M918 350l0 -28 1 -3 0 -23 1 -3 0 -4 1 -2 0 -2 1 0 0 -1 14 0M936 286l0 -2 14 0"/>
<path stroke="blue" d="M950 284l0 -1M950 284l24 0"/>
<path stroke="#FFA500" d="M462 39l46 0"/>
<text stroke="none" fill="white" font-size="16" x="518" y="48">
x1.vsampled_p-x1.vsampled_n
</text>
<path stroke="#FFA500" d="M50 431l2 0M52 432l0 -1M52 432l2 0 0 -1 63 0M117 450l0 -19M117 450l1 27M118 531l0 -54M118 531l1 8M119 552l0 -13M119 552l1 4M120 559l0 -3M120 559l2 2 1 0 1 1 415 0 0 -1 1 0M540 562l0 -1 6 0M546 562l0 -26 1 -3 0 -20 1 -7"/>
<path stroke="#FFA500" d="M548 506l0 -3 1 -2 1 -1 4 0M554 501l0 -1 13 0 0 -1M567 500l7 0 0 -23 1 -7 0 -9 1 -2 24 0 0 -15 1 -2 0 -4 1 0M602 439l0 -1M602 439l23 0 0 -5 1 -5 0 -9 1 0 1 1 18 0M646 422l0 -1 7 0M653 432l0 -11M653 432l1 2 0 -2 1 0 0 -1"/>
<path stroke="#FFA500" d="M655 431l24 0 0 -3 1 -1 0 -2M680 426l26 0M706 430l0 -4M706 429l6 0 0 -1M712 429l19 0M731 431l0 -2M731 431l28 0M759 434l0 -3M759 433l1 0 0 -1 25 0 1 -1 18 0M804 432l0 -1 8 0M812 432l0 -1 26 0 0 -1M838 431l80 0M918 510l0 -80"/>
<path stroke="#FFA500" d="M918 510l1 8M919 555l0 -37M919 555l1 2M920 559l0 -2M920 559l1 1M921 561l0 -1M921 561l2 0M923 562l0 -1M923 562l13 0 0 -2M936 561l14 0M950 562l0 -1M950 562l12 0 0 -1M962 562l12 0"/>
<path stroke="green" d="M50 39l46 0"/>
<text stroke="none" fill="white" font-size="16" x="106" y="48">
x1.sw_sample-2
</text>
<path stroke="green" d="M50 613l1 0 1 -9 0 -21 1 -21M53 579l0 -23M53 579l1 31M54 613l0 -3M54 613l63 0M117 620l0 -172M117 449l422 0M539 614l0 -171M539 613l422 0M961 618l0 -170 1 1 12 0"/>
<path stroke="#FFC0C5" d="M462 55l46 0"/>
<text stroke="none" fill="white" font-size="16" x="518" y="64">
x1.comp_out_p+2
</text>
<path stroke="#FFC0C5" d="M50 249l1 0 1 -9 0 -22 1 -18 0 -4M53 198l1 5M54 250l0 -47M54 242l1 6M55 249l0 -1M55 249l592 0M647 250l0 -166M647 85l14 0M661 249l0 -173M661 249l39 0M700 251l0 -168M700 85l13 0 0 -7 1 141M714 249l0 -30M714 249l13 0 0 -165"/>
<path stroke="#FFC0C5" d="M727 85l13 0M740 250l0 -171M740 249l13 0 1 -127 0 -38M754 85l12 0M766 250l0 -173M766 249l94 0 0 -164 12 0M872 249l0 -173M872 249l14 0 1 -147 0 -18M887 85l11 0M898 249l0 -173M898 249l15 0 0 -165M913 85l12 0M925 250l0 -174"/>
<path stroke="#FFC0C5" d="M925 249l49 0"/>
<path stroke="#A52A2A" d="M50 55l46 0"/>
<text stroke="none" fill="white" font-size="16" x="106" y="64">
x1.comp_out_n-2
</text>
<path stroke="#A52A2A" d="M50 613l1 0 1 -9 0 -22 1 -19M53 564l0 -3M53 564l1 6M54 613l0 -43M54 612l1 1 487 0M542 619l0 -172M542 449l13 0M555 613l0 -172M555 613l13 0M568 614l0 -166M568 449l13 0 0 -8 1 156M582 613l0 -16M582 613l12 0M594 614l0 -167"/>
<path stroke="#A52A2A" d="M594 449l14 0M608 613l0 -168M608 613l13 0M621 614l0 -167M621 449l13 0M634 613l0 -173M634 613l13 0M647 614l0 -1 27 0 0 -165M674 449l13 0M687 613l0 -171M687 613l93 0 0 -165M780 449l13 0M793 613l0 -172M793 613l14 0 0 -165"/>
<path stroke="#A52A2A" d="M807 449l12 0M819 613l0 -167M819 613l15 0 0 -164 11 0 0 -10 1 153M846 613l0 -21M846 613l91 0M937 614l0 -1M937 614l1 -100 0 -67M938 449l13 0M951 614l0 -171M951 613l23 0"/>
</svg>
