<?xml version="1.0" standalone="yes"?>
<!DOCTYPE svg PUBLIC "-//W3C//DTD SVG 1.1//EN"
 "http://www.w3.org/Graphics/SVG/1.1/DTD/svg11.dtd">
<svg xmlns="http://www.w3.org/2000/svg" version="1.1"
  width="100%" height="100%" viewBox="0 0 1024 768"
  style="fill: none; font-family: Helvetica;
 font: Helvetica;
">

<!-- Creator: NGspice -->

<rect x="0" y="0" width="1024" height="768" fill="black" stroke="none"/>
<text stroke="none" fill="white" font-size="16" x="358" y="752">
time
</text>
<text stroke="none" fill="white" font-size="16" x="10" y="16">
tran1: run206_vin-0.718506
</text>
<path stroke="white" d="M50 704l0 -637"/>
<text stroke="none" fill="white" font-size="16" x="35" y="728">
0.0
</text>
<path stroke="white" stroke-dasharray="1,2" d="M182 704l0 -637"/>
<text stroke="none" fill="white" font-size="16" x="157" y="728">
100.0
</text>
<path stroke="white" stroke-dasharray="1,2" d="M314 704l0 -637"/>
<text stroke="none" fill="white" font-size="16" x="289" y="728">
200.0
</text>
<path stroke="white" stroke-dasharray="1,2" d="M446 704l0 -637"/>
<text stroke="none" fill="white" font-size="16" x="421" y="728">
300.0
</text>
<path stroke="white" stroke-dasharray="1,2" d="M578 704l0 -637"/>
<text stroke="none" fill="white" font-size="16" x="553" y="728">
400.0
</text>
<path stroke="white" stroke-dasharray="1,2" d="M710 704l0 -637"/>
<text stroke="none" fill="white" font-size="16" x="685" y="728">
500.0
</text>
<path stroke="white" stroke-dasharray="1,2" d="M842 704l0 -637"/>
<text stroke="none" fill="white" font-size="16" x="817" y="728">
600.0
</text>
<path stroke="white" stroke-dasharray="1,2" d="M974 704l0 -637"/>
<text stroke="none" fill="white" font-size="16" x="949" y="728">
700.0
</text>
<text stroke="none" fill="white" font-size="16" x="614" y="752">
ns
</text>
<path stroke="white" stroke-dasharray="1,2" d="M50 704l924 0"/>
<text stroke="none" fill="white" font-size="16" x="8" y="712">
-3.0
</text>
<path stroke="white" stroke-dasharray="1,2" d="M50 613l924 0"/>
<text stroke="none" fill="white" font-size="16" x="8" y="621">
-2.0
</text>
<path stroke="white" stroke-dasharray="1,2" d="M50 522l924 0"/>
<text stroke="none" fill="white" font-size="16" x="8" y="530">
-1.0
</text>
<path stroke="white" d="M50 431l924 0"/>
<text stroke="none" fill="white" font-size="16" x="18" y="439">
0.0
</text>
<path stroke="white" stroke-dasharray="1,2" d="M50 340l924 0"/>
<text stroke="none" fill="white" font-size="16" x="18" y="348">
1.0
</text>
<path stroke="white" stroke-dasharray="1,2" d="M50 249l924 0"/>
<text stroke="none" fill="white" font-size="16" x="18" y="257">
2.0
</text>
<path stroke="white" stroke-dasharray="1,2" d="M50 158l924 0"/>
<text stroke="none" fill="white" font-size="16" x="18" y="166">
3.0
</text>
<path stroke="white" stroke-dasharray="1,2" d="M50 67l924 0"/>
<text stroke="none" fill="white" font-size="16" x="18" y="75">
4.0
</text>
<text stroke="none" fill="white" font-size="16" x="10" y="32">
     
</text>
<path stroke="red" d="M462 23l46 0"/>
<text stroke="none" fill="white" font-size="16" x="518" y="32">
x1.vsampled_p
</text>
<path stroke="red" d="M50 431l1 0 1 -7 0 -15 1 -14 0 -5 1 2M54 414l0 -38 1 -4 0 -14 1 -3 0 -2 1 -2 0 -1 2 0 1 -1 3 0 1 1 4 0 1 -1 48 0M117 367l0 -18M117 367l1 16M118 403l0 -20M118 403l1 3M119 411l0 -5M119 411l1 1M120 413l0 -1M120 413l1 1 418 0"/>
<path stroke="red" d="M539 415l0 -1M539 415l1 0 1 -1M541 415l0 -1M541 415l5 0 0 -23 1 -3 0 -22 1 -7 0 -4 1 -2 1 0 0 -1 17 0M567 354l0 -1 26 0M593 354l0 -1 26 0M619 354l0 -1M619 354l1 0 0 -1 5 0 0 -14 1 -1 0 -4 1 1 19 0M646 336l0 -1 7 0M653 346l0 -11"/>
<path stroke="red" d="M653 346l1 2 0 -1 1 -1 4 0 0 -1M659 346l27 0 0 -1M686 346l20 0M706 350l0 -4M706 350l1 -1 0 -1 18 0M725 349l0 -1 26 0M751 349l0 -1 27 0M778 349l0 -1 7 0M785 350l0 -2M785 350l1 0 0 -1 26 0M812 350l0 -1 19 0M831 350l0 -1 26 0"/>
<path stroke="red" d="M857 350l0 -1 26 0M883 350l0 -1 27 0M910 350l0 -1 9 0M919 412l0 -65M919 412l1 3M920 420l0 -5M920 419l1 -1 0 -2 1 0 0 -1 28 0 0 -1M950 415l11 0 0 -1 13 0"/>
<path stroke="blue" d="M50 23l46 0"/>
<text stroke="none" fill="white" font-size="16" x="106" y="32">
x1.vsampled_n
</text>
<path stroke="blue" d="M50 431l1 0 1 -7 0 -16 1 -14 0 -5 1 2M54 414l0 -38 1 -4 0 -14 1 -3 0 -2 1 -2 0 -1 2 0 1 -1 3 0 1 1 5 0 0 -1 48 0 0 -1 1 -11 0 -34 1 -5 0 -8 1 -3 0 -2 1 0 1 -1 418 0M540 285l0 -1 14 0 0 -1M554 284l13 0M567 285l0 -1 7 0M574 307l0 -23"/>
<path stroke="blue" d="M574 307l1 7M575 323l0 -9M575 323l1 2 17 0M593 326l0 -1 7 0M600 339l0 -14M600 339l1 2M601 346l0 -5M601 346l1 0 0 -1 17 0M619 346l0 -1 27 0M646 346l0 -1 26 0M672 346l0 -1 7 0M679 349l0 -4M679 349l1 1M680 351l0 -1M680 351l1 -1"/>
<path stroke="blue" d="M681 350l17 0 1 1 0 -1 26 0M725 351l0 -1 6 0 1 -1 0 -1 38 0M770 350l0 -2M770 349l8 0M778 350l0 -1 26 0M804 350l0 -1 26 0 1 1 0 -1 88 0M919 351l0 -37 1 -3 0 -18 1 -3 0 -3 1 0 0 -2 1 0 0 -1 13 0M936 285l0 -1 14 0 0 -1M950 284l24 0"/>
<path stroke="#FFA500" d="M462 39l46 0"/>
<text stroke="none" fill="white" font-size="16" x="518" y="48">
x1.vsampled_p-x1.vsampled_n
</text>
<path stroke="#FFA500" d="M50 431l2 0M52 432l0 -1M52 432l2 0 0 -1 63 0M117 450l0 -19M117 450l1 27M118 531l0 -54M118 531l1 8M119 552l0 -13M119 552l1 4M120 559l0 -3M120 559l3 3 416 0 0 -1M539 562l1 0 0 -1M540 562l1 -1M541 562l0 -1M541 562l5 0 0 -24"/>
<path stroke="#FFA500" d="M546 538l1 -2 0 -22 1 -8 0 -3 1 -2 1 0 0 -1 4 0M554 501l0 -1 13 0 0 -1M567 500l7 0 0 -23 1 -7 0 -9 1 -2 4 0M580 460l0 -1 13 0M593 460l0 -1 7 0M600 460l0 -14 1 -3 0 -5 1 1 23 0 0 -14 1 -1 0 -4 1 0M627 421l0 -1M627 421l19 0"/>
<path stroke="#FFA500" d="M646 422l0 -1 7 0M653 432l0 -11M653 432l1 2 0 -2 1 0 0 -1 17 0M672 432l0 -1 7 0 0 -3 1 -1 0 -2M680 426l19 0M699 427l0 -1 7 0M706 430l0 -4M706 430l1 0 0 -1 24 0 1 1M732 432l0 -2M732 431l38 0 0 -2M770 430l15 0M785 431l0 -1"/>
<path stroke="#FFA500" d="M785 431l1 0 0 -1 18 0M804 431l0 -1 8 0M812 432l0 -2M812 431l107 0M919 529l0 -102M919 529l1 6M920 557l0 -22M920 557l1 2M921 560l0 -1M921 560l1 0M922 561l0 -1M922 561l1 0M923 562l0 -1M923 562l13 0 0 -2M936 562l1 -1M937 562l0 -1"/>
<path stroke="#FFA500" d="M937 562l37 0"/>
<path stroke="green" d="M50 39l46 0"/>
<text stroke="none" fill="white" font-size="16" x="106" y="48">
x1.sw_sample-2
</text>
<path stroke="green" d="M50 613l1 0 1 -9 0 -21 1 -21M53 579l0 -23M53 579l1 31M54 613l0 -3M54 613l63 0M117 620l0 -172M117 449l422 0M539 614l0 -171M539 613l422 0M961 618l0 -170 1 1 12 0"/>
<path stroke="#FFC0C5" d="M462 55l46 0"/>
<text stroke="none" fill="white" font-size="16" x="518" y="64">
x1.comp_out_p+2
</text>
<path stroke="#FFC0C5" d="M50 249l1 0 1 -9 0 -22 1 -18 0 -4M53 198l1 5M54 249l0 -46M54 242l1 6M55 249l0 -1M55 249l592 0M647 250l0 -166M647 85l14 0M661 250l0 -174M661 249l39 0M700 255l0 -172M700 85l13 0 0 -8 1 150M714 249l0 -22M714 249l13 0 0 -165"/>
<path stroke="#FFC0C5" d="M727 85l13 0M740 250l0 -171M740 249l40 0 0 -165M780 85l13 0M793 250l0 -172M793 249l13 0 1 -156 0 -9M807 85l12 0M819 249l0 -174M819 249l15 0 0 -165M834 85l11 0 0 -9 1 153M846 249l0 -20M846 249l128 0"/>
<path stroke="#A52A2A" d="M50 55l46 0"/>
<text stroke="none" fill="white" font-size="16" x="106" y="64">
x1.comp_out_n-2
</text>
<path stroke="#A52A2A" d="M50 613l1 0 1 -9 0 -22 1 -19M53 564l0 -3M53 564l1 6M54 613l0 -43M54 612l1 1 487 0 0 -165M542 449l13 0M555 613l0 -172M555 613l13 0 0 -165M568 449l13 0 0 -8 1 156M582 613l0 -16M582 613l12 0M594 614l0 -166M594 449l14 0"/>
<path stroke="#A52A2A" d="M608 614l0 -172M608 613l13 0M621 615l0 -168M621 449l13 0M634 613l0 -173M634 613l13 0M647 614l0 -1 27 0 0 -165M674 449l13 0M687 613l0 -172M687 613l77 0M764 614l0 -167M764 449l2 0M766 613l0 -172M766 613l95 0 1 -158 0 -7"/>
<path stroke="#A52A2A" d="M862 449l10 0M872 613l0 -172M872 613l15 0 0 -164 11 0M898 613l0 -172M898 613l16 0 0 -165M914 449l11 0M925 613l0 -173M925 613l12 0 1 -55 0 -110M938 449l13 0M951 614l0 -169M951 613l23 0"/>
</svg>
