<?xml version="1.0" standalone="yes"?>
<!DOCTYPE svg PUBLIC "-//W3C//DTD SVG 1.1//EN"
 "http://www.w3.org/Graphics/SVG/1.1/DTD/svg11.dtd">
<svg xmlns="http://www.w3.org/2000/svg" version="1.1"
  width="100%" height="100%" viewBox="0 0 1024 768"
  style="fill: none; font-family: Helvetica;
 font: Helvetica;
">

<!-- Creator: NGspice -->

<rect x="0" y="0" width="1024" height="768" fill="black" stroke="none"/>
<text stroke="none" fill="white" font-size="16" x="358" y="752">
time
</text>
<text stroke="none" fill="white" font-size="16" x="10" y="16">
tran1: run294_vin-0.641162
</text>
<path stroke="white" d="M50 704l0 -637"/>
<text stroke="none" fill="white" font-size="16" x="35" y="728">
0.0
</text>
<path stroke="white" stroke-dasharray="1,2" d="M182 704l0 -637"/>
<text stroke="none" fill="white" font-size="16" x="157" y="728">
100.0
</text>
<path stroke="white" stroke-dasharray="1,2" d="M314 704l0 -637"/>
<text stroke="none" fill="white" font-size="16" x="289" y="728">
200.0
</text>
<path stroke="white" stroke-dasharray="1,2" d="M446 704l0 -637"/>
<text stroke="none" fill="white" font-size="16" x="421" y="728">
300.0
</text>
<path stroke="white" stroke-dasharray="1,2" d="M578 704l0 -637"/>
<text stroke="none" fill="white" font-size="16" x="553" y="728">
400.0
</text>
<path stroke="white" stroke-dasharray="1,2" d="M710 704l0 -637"/>
<text stroke="none" fill="white" font-size="16" x="685" y="728">
500.0
</text>
<path stroke="white" stroke-dasharray="1,2" d="M842 704l0 -637"/>
<text stroke="none" fill="white" font-size="16" x="817" y="728">
600.0
</text>
<path stroke="white" stroke-dasharray="1,2" d="M974 704l0 -637"/>
<text stroke="none" fill="white" font-size="16" x="949" y="728">
700.0
</text>
<text stroke="none" fill="white" font-size="16" x="614" y="752">
ns
</text>
<path stroke="white" stroke-dasharray="1,2" d="M50 704l924 0"/>
<text stroke="none" fill="white" font-size="16" x="8" y="712">
-2.5
</text>
<path stroke="white" stroke-dasharray="1,2" d="M50 655l924 0"/>
<text stroke="none" fill="white" font-size="16" x="8" y="663">
-2.0
</text>
<path stroke="white" stroke-dasharray="1,2" d="M50 606l924 0"/>
<text stroke="none" fill="white" font-size="16" x="8" y="614">
-1.5
</text>
<path stroke="white" stroke-dasharray="1,2" d="M50 557l924 0"/>
<text stroke="none" fill="white" font-size="16" x="8" y="565">
-1.0
</text>
<path stroke="white" stroke-dasharray="1,2" d="M50 508l924 0"/>
<text stroke="none" fill="white" font-size="16" x="8" y="516">
-0.5
</text>
<path stroke="white" d="M50 459l924 0"/>
<text stroke="none" fill="white" font-size="16" x="18" y="467">
0.0
</text>
<path stroke="white" stroke-dasharray="1,2" d="M50 410l924 0"/>
<text stroke="none" fill="white" font-size="16" x="18" y="418">
0.5
</text>
<path stroke="white" stroke-dasharray="1,2" d="M50 361l924 0"/>
<text stroke="none" fill="white" font-size="16" x="18" y="369">
1.0
</text>
<path stroke="white" stroke-dasharray="1,2" d="M50 312l924 0"/>
<text stroke="none" fill="white" font-size="16" x="18" y="320">
1.5
</text>
<path stroke="white" stroke-dasharray="1,2" d="M50 263l924 0"/>
<text stroke="none" fill="white" font-size="16" x="18" y="271">
2.0
</text>
<path stroke="white" stroke-dasharray="1,2" d="M50 214l924 0"/>
<text stroke="none" fill="white" font-size="16" x="18" y="222">
2.5
</text>
<path stroke="white" stroke-dasharray="1,2" d="M50 165l924 0"/>
<text stroke="none" fill="white" font-size="16" x="18" y="173">
3.0
</text>
<path stroke="white" stroke-dasharray="1,2" d="M50 116l924 0"/>
<text stroke="none" fill="white" font-size="16" x="18" y="124">
3.5
</text>
<path stroke="white" stroke-dasharray="1,2" d="M50 67l924 0"/>
<text stroke="none" fill="white" font-size="16" x="18" y="75">
4.0
</text>
<text stroke="none" fill="white" font-size="16" x="10" y="32">
     
</text>
<path stroke="red" d="M462 23l46 0"/>
<text stroke="none" fill="white" font-size="16" x="518" y="32">
x1.vsampled_p
</text>
<path stroke="red" d="M50 459l1 0 1 -7 0 -17 1 -15 0 -5 1 2M54 441l0 -41 1 -4 0 -17 1 -3 0 -2 1 -2 1 0 0 -1 59 0M117 387l0 -16M117 387l1 16M118 423l0 -20M118 423l1 2M119 430l0 -5M119 430l1 2 1 1 1 0 1 1 423 0 0 -24 1 -3 0 -22 1 -9 0 -6 2 -2 4 0"/>
<path stroke="red" d="M554 368l0 -1M554 368l26 0 0 -1M580 368l26 0 0 -1 1 1 26 0 0 -1M633 368l26 0 0 -1M659 368l27 0 0 -1M686 368l20 0M706 372l0 -4M706 372l1 -1 5 0 0 -1 13 0M725 371l0 -1M725 371l13 0 0 -1 13 0M751 371l0 -1M751 371l1 0 0 -1M752 371l13 0"/>
<path stroke="red" d="M765 371l0 -1 13 0M778 371l0 -1M778 371l12 0 0 -1 1 1M791 372l0 -1 13 0M804 372l0 -1 27 0M831 372l0 -1 7 0 0 -1M838 371l82 0M920 418l0 -51M920 418l1 8M921 438l0 -12M921 438l1 0 0 -2 1 -1 0 -1 51 0"/>
<path stroke="blue" d="M50 23l46 0"/>
<text stroke="none" fill="white" font-size="16" x="106" y="32">
x1.vsampled_n
</text>
<path stroke="blue" d="M50 459l1 0 1 -7 0 -17 1 -16 0 -5 1 2M54 441l0 -41 1 -4 0 -17 1 -3 0 -2 1 -2 1 0 0 -1 59 0 0 -1 1 -12 0 -32 1 -5 0 -7 1 -3 1 -2 1 -1 418 0M540 309l0 -1 26 0 1 1M567 310l0 -2 7 0M574 333l0 -25M574 333l1 8M575 350l0 -9M575 350l1 2"/>
<path stroke="blue" d="M576 352l17 0M593 353l0 -1 7 0M600 368l0 -16M600 368l1 3M601 375l0 -4M601 375l1 -1 17 0M619 375l0 -1 6 0 1 -5 0 -12 1 -1 0 -1 19 0M646 356l0 -1 7 0M653 363l0 -8M653 363l1 2M654 367l0 -2M654 366l25 0M679 371l0 -5M679 371l1 0"/>
<path stroke="blue" d="M680 373l0 -2M680 372l6 0 0 -1 12 0 1 1 0 -1M699 372l13 0 0 -1 13 0M725 372l0 -1M725 372l7 0 0 -3 27 0M759 371l0 -2M759 371l6 0 0 -1 13 0M778 371l0 -1M778 371l13 0 0 -1 13 0M804 371l0 -1 1 0M805 371l0 -1M805 371l7 0 0 -1"/>
<path stroke="blue" d="M812 371l108 0M920 373l0 -27 1 -4 0 -23 1 0 0 -7 1 0 0 -3 1 0 0 -1 12 0M936 310l0 -2 38 0"/>
<path stroke="#FFA500" d="M462 39l46 0"/>
<text stroke="none" fill="white" font-size="16" x="518" y="48">
x1.vsampled_p-x1.vsampled_n
</text>
<path stroke="#FFA500" d="M50 459l2 0M52 460l0 -1M52 460l2 0 0 -1 63 0M117 476l0 -17M117 476l1 28M118 556l0 -52M118 556l1 7M119 576l0 -13M119 576l1 4 1 2M121 584l0 -2M121 584l2 0M123 585l0 -1M123 585l416 0 0 -1 1 0M540 585l0 -1 6 0M546 585l0 -24"/>
<path stroke="#FFA500" d="M546 561l1 -3 0 -23 1 -8 0 -6 1 -2 1 0 1 -1 3 0M554 519l0 -1M554 519l12 0 1 -1M567 519l0 -2M567 518l6 0 1 1 0 -25 1 -8 0 -10 1 -2 4 0M580 475l0 -1 13 0M593 475l0 -1 7 0M600 475l0 -16 1 -3 0 -5M601 452l1 0M602 453l0 -1"/>
<path stroke="#FFA500" d="M602 453l4 0 0 -1 13 0M619 453l0 -1 1 0M620 453l0 -1M620 453l5 0 1 5M626 470l0 -12M626 470l1 0M627 471l0 -1M627 471l1 1 25 0 0 -8 1 -2 0 -2 1 1 24 0 0 -5 1 0 0 -2M680 455l26 0M706 460l0 -5M706 459l1 0 0 -1 25 0M732 461l0 -3"/>
<path stroke="#FFA500" d="M732 461l1 0 0 -1 18 0M751 461l0 -1M751 461l1 -1 7 0 0 -2M759 459l32 0M791 461l0 -2M791 460l21 0 0 -1 19 0M831 460l0 -1 7 0 0 -1M838 459l82 0M920 531l0 -75M920 531l1 12M921 577l0 -34M921 577l1 1M922 583l0 -5M922 583l1 0"/>
<path stroke="#FFA500" d="M923 584l0 -1M923 584l2 0M925 585l0 -1M925 585l11 0 0 -2M936 584l14 0M950 585l0 -1M950 585l24 0"/>
<path stroke="green" d="M50 39l46 0"/>
<text stroke="none" fill="white" font-size="16" x="106" y="48">
x1.sw_sample-2
</text>
<path stroke="green" d="M50 655l1 0 1 -10 0 -23 1 -21M53 619l0 -25M53 619l1 33M54 655l0 -3M54 655l63 0M117 662l0 -184 1 0M118 479l0 -1M118 479l421 0M539 656l0 -184M539 655l422 0M961 660l0 -182 1 0M962 479l0 -1M962 479l12 0"/>
<path stroke="#FFC0C5" d="M462 55l46 0"/>
<text stroke="none" fill="white" font-size="16" x="518" y="64">
x1.comp_out_p+2
</text>
<path stroke="#FFC0C5" d="M50 263l1 0 1 -10 0 -23 1 -20 0 -4M53 208l1 5M54 264l0 -55M54 224l1 37M55 263l0 -2M55 263l566 0 0 -178M621 87l13 0M634 264l0 -187M634 263l66 0 0 -178M700 87l13 0 0 -9 1 168M714 263l0 -17M714 263l13 0 0 -163 1 -14M728 87l0 -1"/>
<path stroke="#FFC0C5" d="M728 87l12 0M740 263l0 -185M740 263l45 0M785 264l0 -178M785 87l8 0M793 264l0 -187M793 263l69 0 0 -177 1 1 9 0M872 263l0 -185M872 263l43 0M915 264l0 -178M915 87l10 0M925 264l0 -181M925 263l49 0"/>
<path stroke="#A52A2A" d="M50 55l46 0"/>
<text stroke="none" fill="white" font-size="16" x="106" y="64">
x1.comp_out_n-2
</text>
<path stroke="#A52A2A" d="M50 655l1 0 1 -10 0 -24 1 -20M53 602l0 -3M53 602l1 7M54 656l0 -47M54 654l1 1 486 0 1 1 0 -180M542 479l13 0M555 656l0 -180M555 655l13 0M568 657l0 -181M568 479l13 0 0 -3 1 74M582 656l0 -106M582 655l12 0 0 -178M594 478l1 1"/>
<path stroke="#A52A2A" d="M595 479l13 0M608 655l0 -186M608 655l39 0 0 -179M647 479l14 0M661 656l0 -186M661 655l12 0 1 2 0 -181M674 479l13 0M687 655l0 -186M687 655l66 0 0 -178M753 479l13 0M766 655l0 -187M766 655l41 0 0 -177M807 479l12 0M819 655l0 -187"/>
<path stroke="#A52A2A" d="M819 655l14 0 1 -170 0 -7M834 479l11 0 0 -9 1 166M846 655l0 -19M846 655l42 0 0 -177 1 0M889 479l0 -1M889 479l9 0M898 655l0 -185M898 655l39 0M937 656l0 -1M937 656l1 -60 0 -119M938 479l13 0M951 655l0 -186M951 655l23 0"/>
</svg>
