<?xml version="1.0" standalone="yes"?>
<!DOCTYPE svg PUBLIC "-//W3C//DTD SVG 1.1//EN"
 "http://www.w3.org/Graphics/SVG/1.1/DTD/svg11.dtd">
<svg xmlns="http://www.w3.org/2000/svg" version="1.1"
  width="100%" height="100%" viewBox="0 0 1024 768"
  style="fill: none; font-family: Helvetica;
 font: Helvetica;
">

<!-- Creator: NGspice -->

<rect x="0" y="0" width="1024" height="768" fill="black" stroke="none"/>
<text stroke="none" fill="white" font-size="16" x="358" y="752">
time
</text>
<text stroke="none" fill="white" font-size="16" x="10" y="16">
tran1: run292_vin-0.64292
</text>
<path stroke="white" d="M50 704l0 -637"/>
<text stroke="none" fill="white" font-size="16" x="35" y="728">
0.0
</text>
<path stroke="white" stroke-dasharray="1,2" d="M182 704l0 -637"/>
<text stroke="none" fill="white" font-size="16" x="157" y="728">
100.0
</text>
<path stroke="white" stroke-dasharray="1,2" d="M314 704l0 -637"/>
<text stroke="none" fill="white" font-size="16" x="289" y="728">
200.0
</text>
<path stroke="white" stroke-dasharray="1,2" d="M446 704l0 -637"/>
<text stroke="none" fill="white" font-size="16" x="421" y="728">
300.0
</text>
<path stroke="white" stroke-dasharray="1,2" d="M578 704l0 -637"/>
<text stroke="none" fill="white" font-size="16" x="553" y="728">
400.0
</text>
<path stroke="white" stroke-dasharray="1,2" d="M710 704l0 -637"/>
<text stroke="none" fill="white" font-size="16" x="685" y="728">
500.0
</text>
<path stroke="white" stroke-dasharray="1,2" d="M842 704l0 -637"/>
<text stroke="none" fill="white" font-size="16" x="817" y="728">
600.0
</text>
<path stroke="white" stroke-dasharray="1,2" d="M974 704l0 -637"/>
<text stroke="none" fill="white" font-size="16" x="949" y="728">
700.0
</text>
<text stroke="none" fill="white" font-size="16" x="614" y="752">
ns
</text>
<path stroke="white" stroke-dasharray="1,2" d="M50 704l924 0"/>
<text stroke="none" fill="white" font-size="16" x="8" y="712">
-3.0
</text>
<path stroke="white" stroke-dasharray="1,2" d="M50 613l924 0"/>
<text stroke="none" fill="white" font-size="16" x="8" y="621">
-2.0
</text>
<path stroke="white" stroke-dasharray="1,2" d="M50 522l924 0"/>
<text stroke="none" fill="white" font-size="16" x="8" y="530">
-1.0
</text>
<path stroke="white" d="M50 431l924 0"/>
<text stroke="none" fill="white" font-size="16" x="18" y="439">
0.0
</text>
<path stroke="white" stroke-dasharray="1,2" d="M50 340l924 0"/>
<text stroke="none" fill="white" font-size="16" x="18" y="348">
1.0
</text>
<path stroke="white" stroke-dasharray="1,2" d="M50 249l924 0"/>
<text stroke="none" fill="white" font-size="16" x="18" y="257">
2.0
</text>
<path stroke="white" stroke-dasharray="1,2" d="M50 158l924 0"/>
<text stroke="none" fill="white" font-size="16" x="18" y="166">
3.0
</text>
<path stroke="white" stroke-dasharray="1,2" d="M50 67l924 0"/>
<text stroke="none" fill="white" font-size="16" x="18" y="75">
4.0
</text>
<text stroke="none" fill="white" font-size="16" x="10" y="32">
     
</text>
<path stroke="red" d="M462 23l46 0"/>
<text stroke="none" fill="white" font-size="16" x="518" y="32">
x1.vsampled_p
</text>
<path stroke="red" d="M50 431l1 0 1 -7 0 -15 1 -14 0 -5 1 2M54 414l0 -37 1 -4 0 -16 1 -3 0 -2 2 -2 1 0 1 -1 4 0M64 350l0 -1M64 350l4 0 1 -1 48 0M117 364l0 -15M117 364l1 15M118 397l0 -18M118 397l1 3M119 404l0 -4M119 404l1 2 1 1 1 0 1 1 423 0 0 -21"/>
<path stroke="red" d="M546 387l1 -2 0 -26 1 -6 0 -3 1 -2 0 -1 2 0 0 -1 15 0 1 1 0 -1 26 0M593 347l0 -1 26 0M619 347l0 -1M619 347l1 0 0 -1 26 0M646 347l0 -1 26 0M672 347l0 -1 26 0 1 1 0 -1 7 0M706 351l0 -5M706 350l1 0 0 -1 105 0M812 350l0 -1 18 0"/>
<path stroke="red" d="M830 349l1 1 0 -1 86 0 1 1M918 408l0 -62M918 408l1 1M919 411l0 -2M919 411l1 -1 0 -1 1 0 0 -1 53 0"/>
<path stroke="blue" d="M50 23l46 0"/>
<text stroke="none" fill="white" font-size="16" x="106" y="32">
x1.vsampled_n
</text>
<path stroke="blue" d="M50 431l1 0 1 -7 0 -15 1 -15 0 -4 1 1M54 414l0 -37 1 -4 0 -16 1 -3 0 -2 2 -2 1 0 1 -1 4 0M64 350l0 -1M64 350l4 0 1 -1 48 0 0 -1 1 -11 0 -30 1 -4 0 -7 1 -3 1 -1 0 -1 419 0M540 292l0 -1 14 0 0 -1M554 291l13 0M567 292l0 -1"/>
<path stroke="blue" d="M567 291l7 0M574 314l0 -23M574 314l1 7M575 330l0 -9M575 330l1 2 4 0 0 -1M580 332l20 0M600 346l0 -14M600 346l1 3M601 353l0 -4M601 353l1 -1 23 0 0 -6 1 -2 0 -8 2 -2 18 0M646 335l0 -1 7 0M653 344l0 -10M653 344l1 1 5 0 0 -1"/>
<path stroke="blue" d="M659 344l13 0M672 345l0 -1M672 345l7 0M679 349l0 -5M679 349l1 1M680 351l0 -1 6 0 0 -1M686 350l26 0 0 -1M712 350l20 0 0 -3 19 0M751 348l0 -1M751 348l1 -1 7 0M759 349l0 -2M759 349l6 0 0 -1M765 349l21 0M786 350l0 -1 18 0M804 350l0 -1"/>
<path stroke="blue" d="M804 349l27 0M831 350l0 -1 26 0M857 350l0 -1 26 0M883 350l0 -1 27 0M910 350l0 -1 8 0M918 351l0 -36 1 -3 0 -13 1 -3 0 -2 1 -1 0 -1 1 0 0 -1 1 0 0 -1M923 291l13 0M936 292l0 -1 14 0 0 -1M950 291l24 0"/>
<path stroke="#FFA500" d="M462 39l46 0"/>
<text stroke="none" fill="white" font-size="16" x="518" y="48">
x1.vsampled_p-x1.vsampled_n
</text>
<path stroke="#FFA500" d="M50 431l2 0M52 432l0 -1M52 432l2 0 0 -1 63 0M117 447l0 -16M117 447l1 25M118 521l0 -49M118 521l1 7M119 540l0 -12M119 540l1 4 1 2M121 547l0 -1M121 547l1 1 418 0 0 -1M540 548l6 0 0 -21 1 -2 0 -26 1 -6 0 -3 1 -2 0 -1 4 0"/>
<path stroke="#FFA500" d="M553 487l0 -1 1 0M554 487l0 -1M554 487l12 0 1 -1M567 487l0 -1 6 0 1 1 0 -23 1 -8 0 -9 1 -1 17 0 0 -1M593 446l7 0 0 -15 1 -3 0 -4M601 425l18 0M619 426l0 -1 6 0M625 431l0 -6M625 431l1 3M626 442l0 -8M626 442l1 0M627 443l0 -1"/>
<path stroke="#FFA500" d="M627 443l19 0M646 444l0 -1 7 0 0 -9 1 -1 0 -1M654 433l25 0 0 -4 1 -1 0 -1M680 428l26 0M706 432l0 -4M706 432l1 -1 0 -1 18 0M725 431l0 -1 7 0M732 433l0 -3M732 433l27 0 0 -2 27 0 0 -1M786 431l26 0M812 432l0 -1 27 0 0 -1"/>
<path stroke="#FFA500" d="M839 430l1 0M840 431l0 -1M840 431l78 0M918 523l0 -96M918 523l1 5M919 543l0 -15M919 543l1 2M920 546l0 -1M920 546l1 1 1 0M922 548l0 -1M922 548l14 0 0 -1M936 548l38 0"/>
<path stroke="green" d="M50 39l46 0"/>
<text stroke="none" fill="white" font-size="16" x="106" y="48">
x1.sw_sample-2
</text>
<path stroke="green" d="M50 613l1 0 1 -9 0 -21 1 -21M53 579l0 -23M53 579l1 31M54 613l0 -3M54 613l63 0M117 620l0 -172M117 449l422 0M539 614l0 -171M539 613l422 0M961 618l0 -170 1 1 12 0"/>
<path stroke="#FFC0C5" d="M462 55l46 0"/>
<text stroke="none" fill="white" font-size="16" x="518" y="64">
x1.comp_out_p+2
</text>
<path stroke="#FFC0C5" d="M50 249l1 0 1 -9 0 -22 1 -18 0 -4M53 198l1 5M54 250l0 -52M54 211l1 36M55 249l0 -2M55 249l566 0M621 250l0 -167M621 85l13 0M634 250l0 -169M634 249l66 0 0 -165M700 85l13 0 0 -3 1 24M714 250l0 -144M714 249l13 0 1 -157 0 -8"/>
<path stroke="#FFC0C5" d="M728 85l12 0M740 249l0 -171M740 249l67 0 0 -165M807 85l12 0M819 249l0 -171M819 249l41 0 0 -164 12 0M872 249l0 -174M872 249l14 0 0 -164 1 -1M887 85l0 -1M887 85l11 0M898 249l0 -174M898 249l15 0 0 -165M913 85l12 0M925 249l0 -172"/>
<path stroke="#FFC0C5" d="M925 249l49 0"/>
<path stroke="#A52A2A" d="M50 55l46 0"/>
<text stroke="none" fill="white" font-size="16" x="106" y="64">
x1.comp_out_n-2
</text>
<path stroke="#A52A2A" d="M50 613l1 0 1 -9 0 -22 1 -19M53 564l0 -3M53 564l1 6M54 614l0 -44M54 612l1 1 486 0 1 1 0 -167M542 449l13 0M555 613l0 -171M555 613l13 0M568 615l0 -168M568 449l13 0 0 -9 1 164M582 613l0 -9M582 613l12 0M594 614l0 -166M594 449l14 0"/>
<path stroke="#A52A2A" d="M608 614l0 -174M608 613l39 0 0 -165M647 449l14 0M661 614l0 -173M661 613l12 0 1 2 0 -168M674 449l13 0M687 613l0 -173M687 613l66 0M753 614l0 -166M753 449l13 0M766 613l0 -166M766 613l14 0 0 -165 1 1 12 0M793 613l0 -174"/>
<path stroke="#A52A2A" d="M793 613l42 0 0 -158 1 -7M836 449l0 -1M836 449l9 0 0 -8 1 158M846 613l0 -14M846 613l91 0M937 614l0 -1M937 614l1 -56 0 -111M938 449l13 0M951 613l0 -173M951 613l23 0"/>
</svg>
