<?xml version="1.0" standalone="yes"?>
<!DOCTYPE svg PUBLIC "-//W3C//DTD SVG 1.1//EN"
 "http://www.w3.org/Graphics/SVG/1.1/DTD/svg11.dtd">
<svg xmlns="http://www.w3.org/2000/svg" version="1.1"
  width="100%" height="100%" viewBox="0 0 1024 768"
  style="fill: none; font-family: Helvetica;
 font: Helvetica;
">

<!-- Creator: NGspice -->

<rect x="0" y="0" width="1024" height="768" fill="black" stroke="none"/>
<text stroke="none" fill="white" font-size="16" x="358" y="752">
time
</text>
<text stroke="none" fill="white" font-size="16" x="10" y="16">
tran1: run1528_vin0.443406
</text>
<path stroke="white" d="M50 704l0 -637"/>
<text stroke="none" fill="white" font-size="16" x="35" y="728">
0.0
</text>
<path stroke="white" stroke-dasharray="1,2" d="M182 704l0 -637"/>
<text stroke="none" fill="white" font-size="16" x="157" y="728">
100.0
</text>
<path stroke="white" stroke-dasharray="1,2" d="M314 704l0 -637"/>
<text stroke="none" fill="white" font-size="16" x="289" y="728">
200.0
</text>
<path stroke="white" stroke-dasharray="1,2" d="M446 704l0 -637"/>
<text stroke="none" fill="white" font-size="16" x="421" y="728">
300.0
</text>
<path stroke="white" stroke-dasharray="1,2" d="M578 704l0 -637"/>
<text stroke="none" fill="white" font-size="16" x="553" y="728">
400.0
</text>
<path stroke="white" stroke-dasharray="1,2" d="M710 704l0 -637"/>
<text stroke="none" fill="white" font-size="16" x="685" y="728">
500.0
</text>
<path stroke="white" stroke-dasharray="1,2" d="M842 704l0 -637"/>
<text stroke="none" fill="white" font-size="16" x="817" y="728">
600.0
</text>
<path stroke="white" stroke-dasharray="1,2" d="M974 704l0 -637"/>
<text stroke="none" fill="white" font-size="16" x="949" y="728">
700.0
</text>
<text stroke="none" fill="white" font-size="16" x="614" y="752">
ns
</text>
<path stroke="white" stroke-dasharray="1,2" d="M50 704l924 0"/>
<text stroke="none" fill="white" font-size="16" x="8" y="712">
-3.0
</text>
<path stroke="white" stroke-dasharray="1,2" d="M50 613l924 0"/>
<text stroke="none" fill="white" font-size="16" x="8" y="621">
-2.0
</text>
<path stroke="white" stroke-dasharray="1,2" d="M50 522l924 0"/>
<text stroke="none" fill="white" font-size="16" x="8" y="530">
-1.0
</text>
<path stroke="white" d="M50 431l924 0"/>
<text stroke="none" fill="white" font-size="16" x="18" y="439">
0.0
</text>
<path stroke="white" stroke-dasharray="1,2" d="M50 340l924 0"/>
<text stroke="none" fill="white" font-size="16" x="18" y="348">
1.0
</text>
<path stroke="white" stroke-dasharray="1,2" d="M50 249l924 0"/>
<text stroke="none" fill="white" font-size="16" x="18" y="257">
2.0
</text>
<path stroke="white" stroke-dasharray="1,2" d="M50 158l924 0"/>
<text stroke="none" fill="white" font-size="16" x="18" y="166">
3.0
</text>
<path stroke="white" stroke-dasharray="1,2" d="M50 67l924 0"/>
<text stroke="none" fill="white" font-size="16" x="18" y="75">
4.0
</text>
<text stroke="none" fill="white" font-size="16" x="10" y="32">
     
</text>
<path stroke="red" d="M462 23l46 0"/>
<text stroke="none" fill="white" font-size="16" x="518" y="32">
x1.vsampled_p
</text>
<path stroke="red" d="M50 431l1 0 1 -7 0 -15 1 -15 0 -4 1 1M54 414l0 -39 1 -5 0 -13 1 -3 0 -2 2 -2 1 0 1 -1 4 0M64 350l0 -1M64 350l4 0 1 -1 48 0 0 -1 1 -9 0 -18 1 -4 0 -5 2 -2 0 -1 419 0M540 310l0 -1 27 0M567 310l0 -1 7 0M574 332l0 -23M574 332l1 5"/>
<path stroke="red" d="M575 349l0 -12M575 349l1 0M576 350l0 -1M576 350l50 0 0 -14 1 -2 0 -1 1 -1 18 0M646 333l0 -1 7 0M653 341l0 -9M653 341l1 2 1 -1 17 0M672 343l0 -1 7 0M679 347l0 -5M679 347l1 1M680 349l0 -2 19 0M699 348l0 -1 7 0M706 351l0 -4"/>
<path stroke="red" d="M706 351l1 -1 25 0 0 -3 1 1 5 0 0 -1M738 348l21 0M759 350l0 -2M759 349l53 0M812 350l0 -1M812 350l1 -1 18 0M831 350l0 -1 26 0M857 350l0 -1 26 0M883 350l0 -1 27 0M910 350l0 -1 8 0M918 350l0 -14 1 -2 0 -11 1 -5 0 -3 1 -2 0 -2"/>
<path stroke="red" d="M921 311l1 -1 1 0 0 -1 13 0M936 310l0 -1 38 0"/>
<path stroke="blue" d="M50 23l46 0"/>
<text stroke="none" fill="white" font-size="16" x="106" y="32">
x1.vsampled_n
</text>
<path stroke="blue" d="M50 431l1 0 1 -7 0 -15 1 -14 0 -5 1 2M54 415l0 -40 1 -5 0 -13 1 -3 0 -2 2 -2 1 0 1 -1 4 0M64 350l0 -1M64 350l4 0 1 -1 48 0M117 357l0 -8M117 357l1 11M118 381l0 -13M118 381l1 3M119 387l0 -3M119 387l2 2 418 0M539 390l0 -1"/>
<path stroke="blue" d="M539 390l2 0 0 -1M541 390l5 0 0 -25 1 -4 0 -23 1 -1 0 -6 3 -3 15 0 1 1 0 -1 26 0M593 329l0 -1 7 0M600 349l0 -21M600 349l1 3M601 355l0 -3M601 353l1 -2 0 -2 31 0 0 -1M633 349l26 0 0 -1M659 349l127 0M786 350l0 -1 18 0M804 350l0 -1"/>
<path stroke="blue" d="M804 349l26 0 1 1 0 -1 87 0M918 369l0 -21M918 369l1 4M919 389l0 -16M919 389l1 2 1 0 0 -1 29 0 0 -1M950 390l11 0 0 -1 13 0"/>
<path stroke="#FFA500" d="M462 39l46 0"/>
<text stroke="none" fill="white" font-size="16" x="518" y="48">
x1.vsampled_p-x1.vsampled_n
</text>
<path stroke="#FFA500" d="M50 431l2 0 1 -1 1 0M54 431l0 -1M54 431l63 0 0 -9 1 -20 0 -31 1 -7 0 -8 1 -3 1 -1 0 -1 1 0 1 -1 417 0M540 351l0 -1 1 1 0 -1 5 0M546 375l0 -25M546 375l1 4M547 402l0 -23M547 402l1 2M548 409l0 -5M548 409l2 2M550 412l0 -1"/>
<path stroke="#FFA500" d="M550 412l17 0 0 -1M567 412l7 0M574 434l0 -22M574 434l1 5M575 451l0 -12M575 451l1 1M576 453l0 -1M576 453l17 0 0 -1M593 453l7 0 0 -21 1 -3 0 -3M601 428l1 2M602 432l0 -2M602 432l24 0 0 -14 1 -1 0 -2 1 0 0 -1 18 0M646 415l0 -1"/>
<path stroke="#FFA500" d="M646 414l7 0M653 423l0 -9M653 423l1 2 1 0 0 -1 1 0 1 1 2 0 0 -1 13 0M672 425l0 -1M672 425l7 0M679 430l0 -6M679 430l1 0M680 431l0 -1 19 0 0 -1M699 430l7 0M706 433l0 -3M706 433l1 0 0 -1 25 0 0 -3M732 430l27 0M759 432l0 -2"/>
<path stroke="#FFA500" d="M759 431l27 0 0 -1 1 0M787 431l0 -1M787 431l17 0 0 -1M804 431l34 0M838 432l0 -1 80 0M918 432l0 -34 1 -6 0 -27 1 -7 0 -3 1 -2 0 -2 2 0 0 -1 13 0M936 351l0 -1 1 1 0 -1 37 0"/>
<path stroke="green" d="M50 39l46 0"/>
<text stroke="none" fill="white" font-size="16" x="106" y="48">
x1.sw_sample-2
</text>
<path stroke="green" d="M50 613l1 0 1 -9 0 -21 1 -21M53 580l0 -24M53 580l1 30M54 613l0 -3M54 613l63 0M117 620l0 -172M117 449l422 0M539 614l0 -171M539 613l422 0M961 618l0 -170 1 1 12 0"/>
<path stroke="#FFC0C5" d="M462 55l46 0"/>
<text stroke="none" fill="white" font-size="16" x="518" y="64">
x1.comp_out_p+2
</text>
<path stroke="#FFC0C5" d="M50 249l1 0 1 -9 0 -22 1 -18 0 -4M53 198l1 5M54 249l0 -46M54 249l487 0 1 1 0 -166M542 85l13 0M555 249l0 -172M555 249l13 0 0 -166M568 85l13 0 0 -8 1 159M582 249l0 -13M582 249l65 0 0 -166M647 85l14 0M661 250l0 -172M661 249l12 0"/>
<path stroke="#FFC0C5" d="M673 249l0 -29 1 -115 0 -21M674 85l13 0M687 250l0 -172M687 249l13 0 0 -165M700 85l13 0 0 -8 1 158M714 249l0 -14M714 249l39 0 0 -165M753 85l13 0M766 250l0 -174M766 249l41 0 0 -165M807 85l12 0M819 249l0 -166M819 249l15 0"/>
<path stroke="#FFC0C5" d="M834 249l0 -165M834 85l11 0 0 -10 1 143M846 249l0 -31M846 249l91 0 1 -55 0 -110M938 85l13 0M951 250l0 -170M951 249l23 0"/>
<path stroke="#A52A2A" d="M50 55l46 0"/>
<text stroke="none" fill="white" font-size="16" x="106" y="64">
x1.comp_out_n-2
</text>
<path stroke="#A52A2A" d="M50 613l1 0 1 -9 0 -22 1 -19M53 564l0 -3M53 564l1 6M54 613l0 -43M54 612l1 1 539 0M594 614l0 -166M594 449l14 0M608 613l0 -173M608 613l13 0 1 -155 0 -10M622 449l12 0M634 613l0 -173M634 613l93 0 0 -165 1 1 12 0M740 613l0 -173"/>
<path stroke="#A52A2A" d="M740 613l40 0 0 -165 1 1 12 0M793 613l0 -174M793 613l67 0 0 -164 12 0M872 613l0 -174M872 613l14 0 0 -158 1 -7M887 449l0 -1M887 449l11 0M898 613l0 -174M898 613l15 0 0 -165M913 449l12 0M925 613l0 -172M925 613l49 0"/>
</svg>
