<?xml version="1.0" standalone="yes"?>
<!DOCTYPE svg PUBLIC "-//W3C//DTD SVG 1.1//EN"
 "http://www.w3.org/Graphics/SVG/1.1/DTD/svg11.dtd">
<svg xmlns="http://www.w3.org/2000/svg" version="1.1"
  width="100%" height="100%" viewBox="0 0 1024 768"
  style="fill: none; font-family: Helvetica;
 font: Helvetica;
">

<!-- Creator: NGspice -->

<rect x="0" y="0" width="1024" height="768" fill="black" stroke="none"/>
<text stroke="none" fill="white" font-size="16" x="358" y="752">
time
</text>
<text stroke="none" fill="white" font-size="16" x="10" y="16">
tran1: run1532_vin0.446922
</text>
<path stroke="white" d="M50 704l0 -637"/>
<text stroke="none" fill="white" font-size="16" x="35" y="728">
0.0
</text>
<path stroke="white" stroke-dasharray="1,2" d="M182 704l0 -637"/>
<text stroke="none" fill="white" font-size="16" x="157" y="728">
100.0
</text>
<path stroke="white" stroke-dasharray="1,2" d="M314 704l0 -637"/>
<text stroke="none" fill="white" font-size="16" x="289" y="728">
200.0
</text>
<path stroke="white" stroke-dasharray="1,2" d="M446 704l0 -637"/>
<text stroke="none" fill="white" font-size="16" x="421" y="728">
300.0
</text>
<path stroke="white" stroke-dasharray="1,2" d="M578 704l0 -637"/>
<text stroke="none" fill="white" font-size="16" x="553" y="728">
400.0
</text>
<path stroke="white" stroke-dasharray="1,2" d="M710 704l0 -637"/>
<text stroke="none" fill="white" font-size="16" x="685" y="728">
500.0
</text>
<path stroke="white" stroke-dasharray="1,2" d="M842 704l0 -637"/>
<text stroke="none" fill="white" font-size="16" x="817" y="728">
600.0
</text>
<path stroke="white" stroke-dasharray="1,2" d="M974 704l0 -637"/>
<text stroke="none" fill="white" font-size="16" x="949" y="728">
700.0
</text>
<text stroke="none" fill="white" font-size="16" x="614" y="752">
ns
</text>
<path stroke="white" stroke-dasharray="1,2" d="M50 704l924 0"/>
<text stroke="none" fill="white" font-size="16" x="8" y="712">
-3.0
</text>
<path stroke="white" stroke-dasharray="1,2" d="M50 613l924 0"/>
<text stroke="none" fill="white" font-size="16" x="8" y="621">
-2.0
</text>
<path stroke="white" stroke-dasharray="1,2" d="M50 522l924 0"/>
<text stroke="none" fill="white" font-size="16" x="8" y="530">
-1.0
</text>
<path stroke="white" d="M50 431l924 0"/>
<text stroke="none" fill="white" font-size="16" x="18" y="439">
0.0
</text>
<path stroke="white" stroke-dasharray="1,2" d="M50 340l924 0"/>
<text stroke="none" fill="white" font-size="16" x="18" y="348">
1.0
</text>
<path stroke="white" stroke-dasharray="1,2" d="M50 249l924 0"/>
<text stroke="none" fill="white" font-size="16" x="18" y="257">
2.0
</text>
<path stroke="white" stroke-dasharray="1,2" d="M50 158l924 0"/>
<text stroke="none" fill="white" font-size="16" x="18" y="166">
3.0
</text>
<path stroke="white" stroke-dasharray="1,2" d="M50 67l924 0"/>
<text stroke="none" fill="white" font-size="16" x="18" y="75">
4.0
</text>
<text stroke="none" fill="white" font-size="16" x="10" y="32">
     
</text>
<path stroke="red" d="M462 23l46 0"/>
<text stroke="none" fill="white" font-size="16" x="518" y="32">
x1.vsampled_p
</text>
<path stroke="red" d="M50 431l1 0 1 -7 0 -15 1 -15 0 -4 1 1M54 414l0 -39 1 -5 0 -13 1 -3 0 -2 2 -2 1 0 1 -1 4 0M64 350l0 -1M64 350l4 0 1 -1 48 0 0 -1 1 -9 0 -18 1 -4 0 -5 1 -2 1 -1 2 0 0 -1 416 0M539 309l0 -1M539 309l1 0M540 310l0 -1 14 0 0 -1"/>
<path stroke="red" d="M554 309l13 0M567 310l0 -1 7 0M574 329l0 -21M574 329l1 8M575 347l0 -10M575 347l1 1M576 350l0 -2M576 350l4 0 0 -1 13 0M593 350l0 -1M593 350l13 0 0 -1 1 0M607 350l0 -1M607 350l12 0 0 -1M619 350l1 0 0 -1M620 350l7 0 0 -15 1 -1"/>
<path stroke="red" d="M628 334l0 -2 5 0 0 -1M633 332l20 0M653 341l0 -9M653 341l1 1M654 343l0 -1 25 0M679 347l0 -5M679 347l1 1 0 -1 26 0M706 350l0 -3M706 350l6 0 0 -1M712 350l13 0 0 -1M725 350l7 0 0 -3 19 0M751 348l0 -1M751 348l1 0 0 -1 7 0M759 349l0 -2"/>
<path stroke="red" d="M759 349l6 0 0 -1M765 349l21 0M786 350l0 -1 18 0M804 350l0 -1 27 0M831 350l0 -1 26 0M857 350l0 -1 26 0M883 350l0 -1 27 0M910 350l0 -1 8 0M918 350l0 -12 1 -2 0 -11 1 -5 0 -4 1 -3 0 -3 1 0 0 -1 1 0 0 -1M923 309l13 0M936 310l0 -1"/>
<path stroke="red" d="M936 309l14 0 0 -1M950 309l12 0 0 -1 12 0"/>
<path stroke="blue" d="M50 23l46 0"/>
<text stroke="none" fill="white" font-size="16" x="106" y="32">
x1.vsampled_n
</text>
<path stroke="blue" d="M50 431l1 0 1 -7 0 -15 1 -14 0 -5 1 2M54 415l0 -40 1 -5 0 -13 1 -3 0 -2 2 -2 1 0 1 -1 4 0M64 350l0 -1M64 350l4 0 1 -1 48 0M117 357l0 -8M117 357l1 12M118 381l0 -12M118 381l1 3M119 387l0 -3M119 387l3 3 424 0 0 -19 1 -4 0 -28"/>
<path stroke="blue" d="M547 339l1 -1 0 -6 1 -1 0 -1 1 -1 4 0 0 -1M554 329l12 0 0 -1M566 329l1 0M567 330l0 -1 13 0 0 -1M580 329l13 0M593 330l0 -1 7 0M600 348l0 -19M600 348l1 3M601 355l0 -4M601 354l1 -2 0 -2 1 -1 210 0M813 350l0 -1 17 0 1 1 0 -1"/>
<path stroke="blue" d="M831 349l87 0M918 366l0 -17M918 366l1 2M919 385l0 -17M919 385l1 6M920 392l0 -1M920 392l1 -1 0 -1 53 0"/>
<path stroke="#FFA500" d="M462 39l46 0"/>
<text stroke="none" fill="white" font-size="16" x="518" y="48">
x1.vsampled_p-x1.vsampled_n
</text>
<path stroke="#FFA500" d="M50 431l2 0 1 -1 1 0M54 431l0 -1M54 431l63 0 0 -9 1 -21 0 -31 1 -6 0 -9 2 -4 0 -1 425 0M546 369l0 -19M546 369l1 4M547 401l0 -28M547 401l1 1M548 407l0 -5M548 407l1 2M549 410l0 -1M549 410l1 1 17 0 0 -1M567 411l7 0M574 431l0 -20"/>
<path stroke="#FFA500" d="M574 431l1 9M575 449l0 -9M575 449l1 2M576 452l0 -1M576 452l17 0 0 -1M593 452l7 0 0 -20 1 -3 0 -4M601 427l1 2M602 431l0 -2M602 431l1 0M603 432l0 -1M603 432l16 0 0 -1 1 0M620 432l0 -1M620 432l7 0 0 -15 1 -1 0 -2 5 0 0 -1"/>
<path stroke="#FFA500" d="M633 414l13 0 0 -1M646 414l7 0M653 423l0 -9M653 423l1 1M654 425l0 -1 25 0M679 429l0 -5M679 429l1 1 0 -1 26 0M706 432l0 -3M706 432l1 0 0 -1 1 0M708 432l0 -1M708 432l17 0 0 -1 1 0M726 432l0 -1M726 432l6 0 0 -3 27 0M759 431l0 -2"/>
<path stroke="#FFA500" d="M759 431l19 0 0 -1M778 431l8 0M786 432l0 -1 27 0 0 -1M813 431l25 0M838 432l0 -1 80 0M918 432l0 -29 1 -4 0 -28 1 -11 0 -5 1 -2 0 -2 1 0 0 -1 1 0 0 -1M923 350l13 0M936 351l0 -1 14 0 0 -1M950 350l24 0"/>
<path stroke="green" d="M50 39l46 0"/>
<text stroke="none" fill="white" font-size="16" x="106" y="48">
x1.sw_sample-2
</text>
<path stroke="green" d="M50 613l1 0 1 -9 0 -21 1 -21M53 580l0 -24M53 580l1 30M54 613l0 -3M54 613l63 0M117 620l0 -172M117 449l422 0M539 614l0 -171M539 613l422 0M961 618l0 -170 1 1 12 0"/>
<path stroke="#FFC0C5" d="M462 55l46 0"/>
<text stroke="none" fill="white" font-size="16" x="518" y="64">
x1.comp_out_p+2
</text>
<path stroke="#FFC0C5" d="M50 249l1 0 1 -9 0 -22 1 -18 0 -4M53 198l1 5M54 249l0 -46M54 249l488 0 0 -165M542 85l13 0M555 250l0 -168M555 249l13 0 0 -166M568 85l13 0 0 -8 1 152M582 249l0 -20M582 249l65 0M647 251l0 -167M647 85l14 0M661 250l0 -171"/>
<path stroke="#FFC0C5" d="M661 249l12 0M673 252l0 -3M673 252l1 -108 0 -61M674 85l13 0M687 250l0 -171M687 249l13 0 0 -165M700 85l13 0 0 -9 1 136M714 250l0 -38M714 249l39 0 0 -165M753 85l13 0M766 250l0 -170M766 249l14 0 0 -165 1 1 12 0M793 249l0 -174"/>
<path stroke="#FFC0C5" d="M793 249l40 0 1 -157 0 -8M834 85l11 0 0 -10 1 143M846 249l0 -31M846 249l91 0 1 -47 0 -118M938 85l13 0M951 250l0 -170M951 249l23 0"/>
<path stroke="#A52A2A" d="M50 55l46 0"/>
<text stroke="none" fill="white" font-size="16" x="106" y="64">
x1.comp_out_n-2
</text>
<path stroke="#A52A2A" d="M50 613l1 0 1 -9 0 -22 1 -19M53 564l0 -3M53 564l1 6M54 613l0 -43M54 612l1 1 539 0 0 -166M594 449l14 0M608 613l0 -172M608 613l14 0 0 -164 1 -1M623 449l0 -1M623 449l11 0M634 613l0 -173M634 613l13 0M647 614l0 -1 81 0 0 -165"/>
<path stroke="#A52A2A" d="M728 449l12 0M740 613l0 -172M740 613l67 0 0 -164 12 0M819 613l0 -171M819 613l41 0 0 -164 12 0M872 613l0 -174M872 613l14 0 0 -157 1 -8M887 449l0 -1M887 449l11 0M898 613l0 -174M898 613l15 0 0 -165M913 449l12 0M925 613l0 -172"/>
<path stroke="#A52A2A" d="M925 613l49 0"/>
</svg>
