<?xml version="1.0" standalone="yes"?>
<!DOCTYPE svg PUBLIC "-//W3C//DTD SVG 1.1//EN"
 "http://www.w3.org/Graphics/SVG/1.1/DTD/svg11.dtd">
<svg xmlns="http://www.w3.org/2000/svg" version="1.1"
  width="100%" height="100%" viewBox="0 0 1024 768"
  style="fill: none; font-family: Helvetica;
 font: Helvetica;
">

<!-- Creator: NGspice -->

<rect x="0" y="0" width="1024" height="768" fill="black" stroke="none"/>
<text stroke="none" fill="white" font-size="16" x="358" y="752">
time
</text>
<text stroke="none" fill="white" font-size="16" x="10" y="16">
tran1: run174_vin-0.746631
</text>
<path stroke="white" d="M50 704l0 -637"/>
<text stroke="none" fill="white" font-size="16" x="35" y="728">
0.0
</text>
<path stroke="white" stroke-dasharray="1,2" d="M182 704l0 -637"/>
<text stroke="none" fill="white" font-size="16" x="157" y="728">
100.0
</text>
<path stroke="white" stroke-dasharray="1,2" d="M314 704l0 -637"/>
<text stroke="none" fill="white" font-size="16" x="289" y="728">
200.0
</text>
<path stroke="white" stroke-dasharray="1,2" d="M446 704l0 -637"/>
<text stroke="none" fill="white" font-size="16" x="421" y="728">
300.0
</text>
<path stroke="white" stroke-dasharray="1,2" d="M578 704l0 -637"/>
<text stroke="none" fill="white" font-size="16" x="553" y="728">
400.0
</text>
<path stroke="white" stroke-dasharray="1,2" d="M710 704l0 -637"/>
<text stroke="none" fill="white" font-size="16" x="685" y="728">
500.0
</text>
<path stroke="white" stroke-dasharray="1,2" d="M842 704l0 -637"/>
<text stroke="none" fill="white" font-size="16" x="817" y="728">
600.0
</text>
<path stroke="white" stroke-dasharray="1,2" d="M974 704l0 -637"/>
<text stroke="none" fill="white" font-size="16" x="949" y="728">
700.0
</text>
<text stroke="none" fill="white" font-size="16" x="614" y="752">
ns
</text>
<path stroke="white" stroke-dasharray="1,2" d="M50 704l924 0"/>
<text stroke="none" fill="white" font-size="16" x="8" y="712">
-3.0
</text>
<path stroke="white" stroke-dasharray="1,2" d="M50 613l924 0"/>
<text stroke="none" fill="white" font-size="16" x="8" y="621">
-2.0
</text>
<path stroke="white" stroke-dasharray="1,2" d="M50 522l924 0"/>
<text stroke="none" fill="white" font-size="16" x="8" y="530">
-1.0
</text>
<path stroke="white" d="M50 431l924 0"/>
<text stroke="none" fill="white" font-size="16" x="18" y="439">
0.0
</text>
<path stroke="white" stroke-dasharray="1,2" d="M50 340l924 0"/>
<text stroke="none" fill="white" font-size="16" x="18" y="348">
1.0
</text>
<path stroke="white" stroke-dasharray="1,2" d="M50 249l924 0"/>
<text stroke="none" fill="white" font-size="16" x="18" y="257">
2.0
</text>
<path stroke="white" stroke-dasharray="1,2" d="M50 158l924 0"/>
<text stroke="none" fill="white" font-size="16" x="18" y="166">
3.0
</text>
<path stroke="white" stroke-dasharray="1,2" d="M50 67l924 0"/>
<text stroke="none" fill="white" font-size="16" x="18" y="75">
4.0
</text>
<text stroke="none" fill="white" font-size="16" x="10" y="32">
     
</text>
<path stroke="red" d="M462 23l46 0"/>
<text stroke="none" fill="white" font-size="16" x="518" y="32">
x1.vsampled_p
</text>
<path stroke="red" d="M50 431l1 0 1 -7 0 -15 1 -14 0 -5 1 2M54 414l0 -38 1 -4 0 -14 1 -3 0 -2 1 -2 0 -1 2 0 1 -1 3 0 1 1 4 0 1 -1 48 0M117 368l0 -19M117 368l1 17M118 405l0 -20M118 405l1 3M119 413l0 -5M119 413l1 2M120 416l0 -1M120 416l1 0 1 1"/>
<path stroke="red" d="M122 417l424 0 0 -24 1 -2 0 -25 1 -6 1 -2 0 -1 1 -1 75 0 0 -12 1 -2 0 -5 1 0 1 1 5 0 0 -1M633 338l13 0M646 339l0 -1 7 0M653 350l0 -12M653 350l1 1 0 -1 1 -1 0 -1 17 0M672 349l0 -1 27 0M699 349l0 -1 26 0M725 349l0 -1 26 0"/>
<path stroke="red" d="M751 349l0 -1 27 0M778 349l0 -1 7 0M785 350l0 -2M785 349l27 0M812 350l0 -1 19 0M831 350l0 -1 26 0M857 350l0 -1 26 0M883 350l0 -1 27 0M910 350l0 -1 9 0M919 408l0 -60M919 408l1 4M920 423l0 -11M920 423l1 -1 0 -3 1 0 0 -1 1 0"/>
<path stroke="red" d="M923 418l0 -1 51 0"/>
<path stroke="blue" d="M50 23l46 0"/>
<text stroke="none" fill="white" font-size="16" x="106" y="32">
x1.vsampled_n
</text>
<path stroke="blue" d="M50 431l1 0 1 -7 0 -16 1 -14 0 -5 1 2M54 414l0 -38 1 -4 0 -14 1 -3 0 -2 1 -2 0 -1 2 0 1 -1 3 0 1 1 5 0 0 -1 48 0 0 -1 1 -11 0 -35 1 -5 0 -9 1 -3 0 -2 1 -1 1 0 0 -1 417 0M539 282l0 -1M539 282l1 -1M540 282l0 -1M540 282l14 0"/>
<path stroke="blue" d="M554 282l0 -1 12 0 1 1M567 283l0 -1 7 0M574 307l0 -25M574 307l1 8M575 321l0 -6M575 321l1 1 17 0M593 323l0 -1 7 0M600 336l0 -14M600 336l1 4M601 344l0 -4M601 343l32 0 0 -1M633 343l26 0 0 -1M659 343l20 0M679 348l0 -5M679 348l1 1"/>
<path stroke="blue" d="M680 349l0 -1 26 0M706 351l0 -3M706 351l1 0 0 -1 18 0M725 351l0 -1 7 0 0 -2 38 0M770 350l0 -2M770 349l8 0M778 350l0 -1 26 0M804 350l0 -1 26 0 1 1 0 -1 88 0M919 350l0 -31 1 -2 0 -24 1 -2 0 -6 1 0 0 -2 1 0 0 -2M923 282l1 0"/>
<path stroke="blue" d="M924 282l0 -1 12 0M936 283l0 -2M936 282l14 0 0 -1 24 0"/>
<path stroke="#FFA500" d="M462 39l46 0"/>
<text stroke="none" fill="white" font-size="16" x="518" y="48">
x1.vsampled_p-x1.vsampled_n
</text>
<path stroke="#FFA500" d="M50 431l2 0M52 432l0 -1M52 432l2 0 0 -1 63 0M117 452l0 -21M117 452l1 27M118 534l0 -55M118 534l1 8M119 557l0 -15M119 557l1 4M120 564l0 -3M120 564l3 3 417 0 0 -1M540 567l1 0 0 -1M541 567l5 0 0 -24 1 -3 0 -24 1 -6 1 -3"/>
<path stroke="#FFA500" d="M549 507l0 -1 1 0 1 -1 3 0M554 506l0 -1 13 0M567 506l0 -2M567 505l7 0 0 -25 1 -8 0 -7 1 -1 4 0M580 465l0 -1M580 465l13 0 0 -1 7 0M600 465l0 -15 1 -3 0 -4M601 444l24 0 0 -12 1 -1 0 -6 1 0M627 426l0 -1M627 426l19 0M646 427l0 -1"/>
<path stroke="#FFA500" d="M646 426l7 0M653 438l0 -12M653 438l1 1 0 -1 1 -1 0 -1 17 0M672 437l0 -1 7 0 0 -5 1 -1M680 431l0 -1M680 431l19 0M699 432l0 -1 7 0 0 -2 1 -1M707 429l0 -1M707 429l25 0M732 432l0 -3M732 431l38 0 0 -2M770 430l15 0M785 431l0 -1"/>
<path stroke="#FFA500" d="M785 431l1 0 0 -1 18 0M804 431l0 -1 8 0M812 432l0 -2M812 431l107 0M919 519l0 -90M919 519l1 8M920 561l0 -34M920 561l1 1M921 565l0 -3M921 565l1 0M922 566l0 -1M922 566l1 0M923 567l0 -1M923 567l13 0 0 -2M936 567l38 0"/>
<path stroke="green" d="M50 39l46 0"/>
<text stroke="none" fill="white" font-size="16" x="106" y="48">
x1.sw_sample-2
</text>
<path stroke="green" d="M50 613l1 0 1 -9 0 -21 1 -21M53 579l0 -23M53 579l1 31M54 613l0 -3M54 613l63 0M117 620l0 -172M117 449l422 0M539 614l0 -171M539 613l422 0M961 618l0 -170 1 1 12 0"/>
<path stroke="#FFC0C5" d="M462 55l46 0"/>
<text stroke="none" fill="white" font-size="16" x="518" y="64">
x1.comp_out_p+2
</text>
<path stroke="#FFC0C5" d="M50 249l1 0 1 -9 0 -22 1 -18 0 -4M53 198l1 5M54 249l0 -46M54 244l1 4M55 249l0 -1M55 249l592 0M647 255l0 -172M647 85l14 0M661 250l0 -172M661 249l66 0M727 251l0 -167M727 85l13 0M740 250l0 -171M740 249l40 0 0 -165M780 85l13 0"/>
<path stroke="#FFC0C5" d="M793 250l0 -172M793 249l13 0 1 -155 0 -10M807 85l12 0M819 249l0 -174M819 249l15 0 0 -165M834 85l11 0 0 -9 1 153M846 249l0 -20M846 249l41 0 0 -165M887 85l11 0M898 249l0 -173M898 249l76 0"/>
<path stroke="#A52A2A" d="M50 55l46 0"/>
<text stroke="none" fill="white" font-size="16" x="106" y="64">
x1.comp_out_n-2
</text>
<path stroke="#A52A2A" d="M50 613l1 0 1 -9 0 -22 1 -19M53 564l0 -3M53 564l1 6M54 613l0 -43M54 613l488 0 0 -166M542 449l13 0M555 613l0 -171M555 613l13 0M568 614l0 -166M568 449l13 0 0 -9 1 162M582 613l0 -11M582 613l12 0M594 614l0 -167M594 449l14 0"/>
<path stroke="#A52A2A" d="M608 613l0 -172M608 613l13 0M621 615l0 -168M621 449l13 0M634 613l0 -172M634 613l39 0M673 618l0 -5M673 618l1 -135 0 -36M674 449l13 0M687 614l0 -170M687 613l13 0 1 -147 0 -18M701 449l12 0 0 -7 1 145M714 613l0 -26M714 613l50 0"/>
<path stroke="#A52A2A" d="M764 615l0 -168M764 449l2 0M766 614l0 -173M766 614l1 -1 94 0 0 -164 1 -1M862 449l0 -1M862 449l10 0M872 613l0 -166M872 613l42 0 0 -165 1 1 10 0M925 613l0 -172M925 613l12 0 1 -64 0 -101M938 449l13 0M951 613l0 -172M951 613l23 0"/>
</svg>
