<?xml version="1.0" standalone="yes"?>
<!DOCTYPE svg PUBLIC "-//W3C//DTD SVG 1.1//EN"
 "http://www.w3.org/Graphics/SVG/1.1/DTD/svg11.dtd">
<svg xmlns="http://www.w3.org/2000/svg" version="1.1"
  width="100%" height="100%" viewBox="0 0 1024 768"
  style="fill: none; font-family: Helvetica;
 font: Helvetica;
">

<!-- Creator: NGspice -->

<rect x="0" y="0" width="1024" height="768" fill="black" stroke="none"/>
<text stroke="none" fill="white" font-size="16" x="358" y="752">
time
</text>
<text stroke="none" fill="white" font-size="16" x="10" y="16">
tran1: run168_vin0.0867688
</text>
<path stroke="white" d="M50 704l0 -637"/>
<text stroke="none" fill="white" font-size="16" x="35" y="728">
0.0
</text>
<path stroke="white" stroke-dasharray="1,2" d="M182 704l0 -637"/>
<text stroke="none" fill="white" font-size="16" x="157" y="728">
100.0
</text>
<path stroke="white" stroke-dasharray="1,2" d="M314 704l0 -637"/>
<text stroke="none" fill="white" font-size="16" x="289" y="728">
200.0
</text>
<path stroke="white" stroke-dasharray="1,2" d="M446 704l0 -637"/>
<text stroke="none" fill="white" font-size="16" x="421" y="728">
300.0
</text>
<path stroke="white" stroke-dasharray="1,2" d="M578 704l0 -637"/>
<text stroke="none" fill="white" font-size="16" x="553" y="728">
400.0
</text>
<path stroke="white" stroke-dasharray="1,2" d="M710 704l0 -637"/>
<text stroke="none" fill="white" font-size="16" x="685" y="728">
500.0
</text>
<path stroke="white" stroke-dasharray="1,2" d="M842 704l0 -637"/>
<text stroke="none" fill="white" font-size="16" x="817" y="728">
600.0
</text>
<path stroke="white" stroke-dasharray="1,2" d="M974 704l0 -637"/>
<text stroke="none" fill="white" font-size="16" x="949" y="728">
700.0
</text>
<text stroke="none" fill="white" font-size="16" x="614" y="752">
ns
</text>
<path stroke="white" stroke-dasharray="1,2" d="M50 704l924 0"/>
<text stroke="none" fill="white" font-size="16" x="8" y="712">
-3.0
</text>
<path stroke="white" stroke-dasharray="1,2" d="M50 613l924 0"/>
<text stroke="none" fill="white" font-size="16" x="8" y="621">
-2.0
</text>
<path stroke="white" stroke-dasharray="1,2" d="M50 522l924 0"/>
<text stroke="none" fill="white" font-size="16" x="8" y="530">
-1.0
</text>
<path stroke="white" d="M50 431l924 0"/>
<text stroke="none" fill="white" font-size="16" x="18" y="439">
0.0
</text>
<path stroke="white" stroke-dasharray="1,2" d="M50 340l924 0"/>
<text stroke="none" fill="white" font-size="16" x="18" y="348">
1.0
</text>
<path stroke="white" stroke-dasharray="1,2" d="M50 249l924 0"/>
<text stroke="none" fill="white" font-size="16" x="18" y="257">
2.0
</text>
<path stroke="white" stroke-dasharray="1,2" d="M50 158l924 0"/>
<text stroke="none" fill="white" font-size="16" x="18" y="166">
3.0
</text>
<path stroke="white" stroke-dasharray="1,2" d="M50 67l924 0"/>
<text stroke="none" fill="white" font-size="16" x="18" y="75">
4.0
</text>
<text stroke="none" fill="white" font-size="16" x="10" y="32">
     
</text>
<path stroke="red" d="M462 23l46 0"/>
<text stroke="none" fill="white" font-size="16" x="518" y="32">
x1.vsampled_p
</text>
<path stroke="red" d="M50 431l1 0 1 -7 0 -15 1 -15 0 -4 1 1M54 415l0 -39 1 -5 0 -15 1 -2 0 -2 1 -2 2 0 1 -1 4 0M64 350l0 -1M64 350l4 0 1 -1 48 0 1 -3 0 -2 1 -1 0 -1 1 0 1 -1 419 0M540 342l0 -1 26 0 1 1 0 -1 26 0M593 342l0 -1 26 0M619 342l0 -1"/>
<path stroke="red" d="M619 342l1 0 0 -1 26 0M646 342l0 -1 26 0M672 342l0 -1 7 0M679 347l0 -6M679 347l1 1M680 349l0 -2 6 0 0 -1 12 0 1 1 0 -1M699 347l7 0M706 350l0 -3M706 350l1 -1 105 0 1 1 0 -1 17 0 1 1 0 -1 86 0M917 350l0 -5 1 -1 0 -4 1 1 17 0"/>
<path stroke="red" d="M936 342l0 -1 38 0"/>
<path stroke="blue" d="M50 23l46 0"/>
<text stroke="none" fill="white" font-size="16" x="106" y="32">
x1.vsampled_n
</text>
<path stroke="blue" d="M50 431l1 0 1 -7 0 -15 1 -14 0 -5 1 2M54 415l0 -39 1 -5 0 -15 1 -2 0 -2 1 -2 2 0 1 -1 4 0M64 350l0 -1M64 350l4 0 1 -1 48 0M117 350l0 -1M117 350l1 2M118 354l0 -2M118 354l1 2 1 1 420 0M540 358l0 -1 6 0M546 358l0 -21 1 -2"/>
<path stroke="blue" d="M547 335l0 -30 1 -4 0 -2 1 -2 1 -1 4 0 0 -1M554 296l13 0M567 298l0 -2 7 0M574 326l0 -30M574 326l1 9M575 338l0 -3M575 338l1 1 0 -1 1 0 0 -1 3 0 0 -1M580 337l20 0M600 354l0 -17M600 354l1 3M601 361l0 -4M601 359l2 -2 22 0 0 -10"/>
<path stroke="blue" d="M625 347l1 -1 0 -7 20 0M646 340l0 -1 7 0M653 350l0 -11M653 350l1 1 1 -1 4 0 0 -1 13 0M672 350l0 -1 1 0M673 350l0 -1M673 350l13 0 0 -1 12 0 1 1 0 -1M699 350l13 0 0 -1 13 0M725 350l0 -1M725 350l7 0 0 -4 1 1 18 0M751 348l0 -1"/>
<path stroke="blue" d="M751 347l8 0M759 350l0 -3M759 349l6 0 0 -1M765 349l13 0 0 -1M778 349l8 0M786 350l0 -1 18 0M804 350l0 -1 27 0M831 350l0 -1 26 0M857 350l0 -1 26 0M883 350l0 -1 27 0M910 350l0 -1 7 0M917 352l0 -3M917 352l1 3M918 360l0 -5M918 358l1 0"/>
<path stroke="blue" d="M919 358l0 -1 55 0"/>
<path stroke="#FFA500" d="M462 39l46 0"/>
<text stroke="none" fill="white" font-size="16" x="518" y="48">
x1.vsampled_p-x1.vsampled_n
</text>
<path stroke="#FFA500" d="M50 431l67 0 0 -1 1 -5 0 -4 1 -3 0 -2 1 0 1 -1 425 0M546 436l0 -21M546 436l1 1M547 467l0 -30M547 467l1 5M548 474l0 -2M548 474l1 1M549 476l0 -1M549 476l5 0M554 477l0 -1M554 477l12 0 1 -1M567 477l0 -2M567 476l6 0 1 1 0 -31"/>
<path stroke="#FFA500" d="M574 446l1 -8 0 -4 1 0 2 2 15 0 0 -1M593 436l7 0 0 -18 1 -3 0 -3M601 413l1 1M602 415l0 -1M602 415l17 0M619 416l0 -1 6 0M625 425l0 -10M625 425l1 2M626 433l0 -6M626 433l27 0 0 -10 1 -2M654 422l0 -1M654 422l1 1 24 0M679 428l0 -5"/>
<path stroke="#FFA500" d="M679 428l1 1M680 430l0 -2 26 0M706 432l0 -4M706 431l26 0M732 434l0 -3M732 434l1 0 0 -1 26 0 0 -3M759 431l2 0M761 432l0 -1M761 432l17 0 0 -1M778 432l7 0 1 -1 0 -1M786 431l27 0M813 432l0 -1 104 0M917 432l0 -8 1 -4 0 -9"/>
<path stroke="#FFA500" d="M918 413l1 1M919 415l0 -1M919 415l17 0M936 416l0 -1 38 0"/>
<path stroke="green" d="M50 39l46 0"/>
<text stroke="none" fill="white" font-size="16" x="106" y="48">
x1.sw_sample-2
</text>
<path stroke="green" d="M50 613l1 0 1 -9 0 -21 1 -21M53 581l0 -25M53 581l1 29M54 613l0 -3M54 613l63 0M117 620l0 -172M117 449l422 0M539 614l0 -171M539 613l422 0M961 618l0 -170 1 1 12 0"/>
<path stroke="#FFC0C5" d="M462 55l46 0"/>
<text stroke="none" fill="white" font-size="16" x="518" y="64">
x1.comp_out_p+2
</text>
<path stroke="#FFC0C5" d="M50 249l1 0 1 -9 0 -22 1 -18 0 -4M53 198l1 5M54 249l0 -46M54 249l487 0 1 1 0 -166M542 85l13 0M555 250l0 -173M555 249l66 0 0 -166M621 85l13 0M634 249l0 -172M634 249l39 0M673 250l0 -62 1 -89 0 -15M674 85l13 0M687 249l0 -172"/>
<path stroke="#FFC0C5" d="M687 249l13 0 0 -165M700 85l13 0 0 -9 1 134M714 250l0 -40M714 249l14 0 0 -165M728 85l12 0M740 249l0 -172M740 249l67 0 0 -164 12 0M819 249l0 -166M819 249l41 0 0 -164 12 0M872 249l0 -174M872 249l14 0 0 -157 1 -8M887 85l0 -1"/>
<path stroke="#FFC0C5" d="M887 85l11 0M898 249l0 -174M898 249l14 0 1 -157 0 -8M913 85l12 0M925 249l0 -172M925 249l12 0 1 2 0 -167M938 85l13 0M951 249l0 -172M951 249l23 0"/>
<path stroke="#A52A2A" d="M50 55l46 0"/>
<text stroke="none" fill="white" font-size="16" x="106" y="64">
x1.comp_out_n-2
</text>
<path stroke="#A52A2A" d="M50 613l1 0 1 -9 0 -22 1 -19M53 564l0 -3M53 564l1 6M54 613l0 -43M54 613l514 0 0 -165M568 449l13 0 0 -9 1 163M582 613l0 -10M582 613l12 0M594 615l0 -168M594 449l14 0M608 613l0 -173M608 613l39 0 0 -165M647 449l14 0M661 613l0 -174"/>
<path stroke="#A52A2A" d="M661 613l12 0 1 1 0 -1 79 0 0 -165M753 449l13 0M766 613l0 -171M766 613l14 0 0 -165M780 449l13 0M793 613l0 -168M793 613l41 0 0 -165M834 449l11 0 0 -3 1 155M846 613l0 -12M846 613l128 0"/>
</svg>
