<?xml version="1.0" standalone="yes"?>
<!DOCTYPE svg PUBLIC "-//W3C//DTD SVG 1.1//EN"
 "http://www.w3.org/Graphics/SVG/1.1/DTD/svg11.dtd">
<svg xmlns="http://www.w3.org/2000/svg" version="1.1"
  width="100%" height="100%" viewBox="0 0 1024 768"
  style="fill: none; font-family: Helvetica;
 font: Helvetica;
">

<!-- Creator: NGspice -->

<rect x="0" y="0" width="1024" height="768" fill="black" stroke="none"/>
<text stroke="none" fill="white" font-size="16" x="358" y="752">
time
</text>
<text stroke="none" fill="white" font-size="16" x="10" y="16">
tran1: run1518_vin0.434617
</text>
<path stroke="white" d="M50 704l0 -637"/>
<text stroke="none" fill="white" font-size="16" x="35" y="728">
0.0
</text>
<path stroke="white" stroke-dasharray="1,2" d="M182 704l0 -637"/>
<text stroke="none" fill="white" font-size="16" x="157" y="728">
100.0
</text>
<path stroke="white" stroke-dasharray="1,2" d="M314 704l0 -637"/>
<text stroke="none" fill="white" font-size="16" x="289" y="728">
200.0
</text>
<path stroke="white" stroke-dasharray="1,2" d="M446 704l0 -637"/>
<text stroke="none" fill="white" font-size="16" x="421" y="728">
300.0
</text>
<path stroke="white" stroke-dasharray="1,2" d="M578 704l0 -637"/>
<text stroke="none" fill="white" font-size="16" x="553" y="728">
400.0
</text>
<path stroke="white" stroke-dasharray="1,2" d="M710 704l0 -637"/>
<text stroke="none" fill="white" font-size="16" x="685" y="728">
500.0
</text>
<path stroke="white" stroke-dasharray="1,2" d="M842 704l0 -637"/>
<text stroke="none" fill="white" font-size="16" x="817" y="728">
600.0
</text>
<path stroke="white" stroke-dasharray="1,2" d="M974 704l0 -637"/>
<text stroke="none" fill="white" font-size="16" x="949" y="728">
700.0
</text>
<text stroke="none" fill="white" font-size="16" x="614" y="752">
ns
</text>
<path stroke="white" stroke-dasharray="1,2" d="M50 704l924 0"/>
<text stroke="none" fill="white" font-size="16" x="8" y="712">
-3.0
</text>
<path stroke="white" stroke-dasharray="1,2" d="M50 613l924 0"/>
<text stroke="none" fill="white" font-size="16" x="8" y="621">
-2.0
</text>
<path stroke="white" stroke-dasharray="1,2" d="M50 522l924 0"/>
<text stroke="none" fill="white" font-size="16" x="8" y="530">
-1.0
</text>
<path stroke="white" d="M50 431l924 0"/>
<text stroke="none" fill="white" font-size="16" x="18" y="439">
0.0
</text>
<path stroke="white" stroke-dasharray="1,2" d="M50 340l924 0"/>
<text stroke="none" fill="white" font-size="16" x="18" y="348">
1.0
</text>
<path stroke="white" stroke-dasharray="1,2" d="M50 249l924 0"/>
<text stroke="none" fill="white" font-size="16" x="18" y="257">
2.0
</text>
<path stroke="white" stroke-dasharray="1,2" d="M50 158l924 0"/>
<text stroke="none" fill="white" font-size="16" x="18" y="166">
3.0
</text>
<path stroke="white" stroke-dasharray="1,2" d="M50 67l924 0"/>
<text stroke="none" fill="white" font-size="16" x="18" y="75">
4.0
</text>
<text stroke="none" fill="white" font-size="16" x="10" y="32">
     
</text>
<path stroke="red" d="M462 23l46 0"/>
<text stroke="none" fill="white" font-size="16" x="518" y="32">
x1.vsampled_p
</text>
<path stroke="red" d="M50 431l1 0 1 -7 0 -15 1 -15 0 -4 1 1M54 414l0 -39 1 -5 0 -13 1 -3 0 -2 2 -2 1 0 1 -1 4 0M64 350l0 -1M64 350l4 0 1 -1 48 0 0 -1 1 -9 0 -18 1 -4 0 -4 1 -2 1 -1 419 0M540 311l0 -1 14 0 0 -1M554 310l13 0M567 311l0 -1 7 0M574 332l0 -22"/>
<path stroke="red" d="M574 332l1 5M575 349l0 -12M575 349l1 1M576 351l0 -1M576 351l4 0 0 -1M580 351l46 0 0 -15 1 -1 0 -1 1 -1 5 0 0 -1M633 333l20 0M653 341l0 -8M653 341l1 2M654 344l0 -1 25 0M679 348l0 -5M679 348l1 1M680 350l0 -2 79 0M759 350l0 -2"/>
<path stroke="red" d="M759 350l1 -1 18 0M778 350l0 -1 26 0M804 350l0 -1 26 0 1 1 0 -1 86 0M917 350l0 -1 1 -3 0 -14 1 -4 0 -7 1 -3 0 -5 1 -2 1 0 0 -1 1 0 0 -1M923 310l13 0M936 311l0 -1 14 0 0 -1M950 310l12 0 0 -1 1 0M963 310l0 -1M963 310l11 0"/>
<path stroke="blue" d="M50 23l46 0"/>
<text stroke="none" fill="white" font-size="16" x="106" y="32">
x1.vsampled_n
</text>
<path stroke="blue" d="M50 431l1 0 1 -7 0 -15 1 -14 0 -5 1 2M54 415l0 -40 1 -5 0 -13 1 -3 0 -2 2 -2 1 0 1 -1 4 0M64 350l0 -1M64 350l4 0 1 -1 48 0M117 357l0 -8M117 357l1 11M118 380l0 -12M118 380l1 3M119 386l0 -3M119 386l3 3 424 0 0 -18 1 -5 0 -27"/>
<path stroke="blue" d="M547 339l1 -2 0 -5 1 -2 0 -1 1 -1 4 0 0 -1 12 0 1 1M567 329l0 -1 13 0 0 -1 13 0M593 328l0 -1M593 328l7 0M600 347l0 -19M600 347l1 3M601 354l0 -4M601 351l1 -1 0 -1 1 -1 103 0M706 352l0 -4M706 352l1 0 0 -1 1 0 1 -1 16 0M725 351l0 -1"/>
<path stroke="blue" d="M725 350l6 0 0 -3 1 0M732 348l0 -1M732 348l19 0M751 349l0 -1 27 0M778 349l0 -1 7 0 1 1M786 350l0 -1 26 0M812 350l0 -1 19 0M831 350l0 -1 26 0M857 350l0 -1 26 0M883 350l0 -1 27 0M910 350l0 -1 7 0 0 -1M917 349l1 0M918 376l0 -27"/>
<path stroke="blue" d="M918 376l1 5M919 390l0 -9M919 390l1 1 0 -1 1 -1 53 0"/>
<path stroke="#FFA500" d="M462 39l46 0"/>
<text stroke="none" fill="white" font-size="16" x="518" y="48">
x1.vsampled_p-x1.vsampled_n
</text>
<path stroke="#FFA500" d="M50 431l2 0 1 -1 1 0M54 431l0 -1M54 431l63 0 0 -9 1 -20 0 -30 1 -7 0 -8 2 -4 1 -1 418 0M540 353l0 -1 6 0M546 370l0 -18M546 370l1 4M547 402l0 -28M547 402l1 2M548 409l0 -5M548 409l1 2M549 412l0 -1M549 412l1 1 4 0M554 414l0 -1"/>
<path stroke="#FFA500" d="M554 413l13 0M567 414l0 -1 7 0M574 435l0 -22M574 435l1 5M575 452l0 -12M575 452l1 1M576 454l0 -1M576 454l4 0M580 455l0 -1 13 0 0 -1M593 454l7 0 0 -20 1 -3 0 -3M601 430l1 2M602 433l0 -1M602 433l1 1 23 0 0 -15 1 -1 0 -1"/>
<path stroke="#FFA500" d="M627 417l1 -1 25 0M653 424l0 -8M653 424l1 2M654 427l0 -1 25 0M679 431l0 -5M679 431l1 1M680 433l0 -2 26 0 0 -4 2 2 17 0 0 -1M725 429l6 0M731 432l0 -3M731 432l1 0 0 -1 27 0M759 433l0 -2M759 432l26 0 1 -1 1 0 1 1 16 0 0 -1"/>
<path stroke="#FFA500" d="M804 432l8 0 0 -1 105 0M917 432l0 -1M917 432l1 -4 0 -41 1 -9 0 -15 1 -5 0 -4 1 -1 1 0 0 -1 14 0M936 353l0 -1 38 0"/>
<path stroke="green" d="M50 39l46 0"/>
<text stroke="none" fill="white" font-size="16" x="106" y="48">
x1.sw_sample-2
</text>
<path stroke="green" d="M50 613l1 0 1 -9 0 -21 1 -21M53 580l0 -24M53 580l1 30M54 613l0 -3M54 613l63 0M117 620l0 -172M117 449l422 0M539 614l0 -171M539 613l422 0M961 618l0 -170 1 1 12 0"/>
<path stroke="#FFC0C5" d="M462 55l46 0"/>
<text stroke="none" fill="white" font-size="16" x="518" y="64">
x1.comp_out_p+2
</text>
<path stroke="#FFC0C5" d="M50 249l1 0 1 -9 0 -22 1 -18 0 -4M53 198l1 5M54 249l0 -46M54 249l488 0 0 -165M542 85l13 0M555 249l0 -171M555 249l13 0 0 -166M568 85l13 0 0 -8 1 154M582 249l0 -18M582 249l65 0M647 250l0 -166M647 85l14 0M661 249l0 -171"/>
<path stroke="#FFC0C5" d="M661 249l12 0M673 255l0 -6M673 255l1 -128 0 -44M674 85l13 0M687 250l0 -173M687 249l40 0 0 -165M727 85l13 0M740 249l0 -169M740 249l13 0 0 -138 1 -25 0 -2M754 85l12 0M766 250l0 -173M766 249l94 0 0 -165 1 1 11 0M872 249l0 -174"/>
<path stroke="#FFC0C5" d="M872 249l14 0 0 -157 1 -8M887 85l0 -1M887 85l11 0M898 249l0 -174M898 249l14 0 1 -157 0 -8M913 85l12 0M925 250l0 -171M925 249l12 0 1 -44 0 -121M938 85l13 0M951 249l0 -169M951 249l23 0"/>
<path stroke="#A52A2A" d="M50 55l46 0"/>
<text stroke="none" fill="white" font-size="16" x="106" y="64">
x1.comp_out_n-2
</text>
<path stroke="#A52A2A" d="M50 613l1 0 1 -9 0 -22 1 -19M53 564l0 -3M53 564l1 6M54 613l0 -43M54 612l1 1 539 0M594 616l0 -169M594 449l14 0M608 613l0 -171M608 613l13 0 0 -166M621 449l13 0M634 614l0 -173M634 614l1 -1 12 0M647 614l0 -1 53 0 1 -147"/>
<path stroke="#A52A2A" d="M701 466l0 -18M701 449l12 0 0 -8 1 156M714 613l0 -16M714 613l66 0M780 614l0 -166M780 449l13 0M793 613l0 -167M793 613l13 0 1 -157 0 -8M807 449l12 0M819 613l0 -174M819 613l15 0 0 -165M834 449l11 0 0 -2 1 155M846 613l0 -11"/>
<path stroke="#A52A2A" d="M846 613l128 0"/>
</svg>
