<?xml version="1.0" standalone="yes"?>
<!DOCTYPE svg PUBLIC "-//W3C//DTD SVG 1.1//EN"
 "http://www.w3.org/Graphics/SVG/1.1/DTD/svg11.dtd">
<svg xmlns="http://www.w3.org/2000/svg" version="1.1"
  width="100%" height="100%" viewBox="0 0 1024 768"
  style="fill: none; font-family: Helvetica;
 font: Helvetica;
">

<!-- Creator: NGspice -->

<rect x="0" y="0" width="1024" height="768" fill="black" stroke="none"/>
<text stroke="none" fill="white" font-size="16" x="358" y="752">
time
</text>
<text stroke="none" fill="white" font-size="16" x="10" y="16">
tran1: run1513_vin0.430223
</text>
<path stroke="white" d="M50 704l0 -637"/>
<text stroke="none" fill="white" font-size="16" x="35" y="728">
0.0
</text>
<path stroke="white" stroke-dasharray="1,2" d="M182 704l0 -637"/>
<text stroke="none" fill="white" font-size="16" x="157" y="728">
100.0
</text>
<path stroke="white" stroke-dasharray="1,2" d="M314 704l0 -637"/>
<text stroke="none" fill="white" font-size="16" x="289" y="728">
200.0
</text>
<path stroke="white" stroke-dasharray="1,2" d="M446 704l0 -637"/>
<text stroke="none" fill="white" font-size="16" x="421" y="728">
300.0
</text>
<path stroke="white" stroke-dasharray="1,2" d="M578 704l0 -637"/>
<text stroke="none" fill="white" font-size="16" x="553" y="728">
400.0
</text>
<path stroke="white" stroke-dasharray="1,2" d="M710 704l0 -637"/>
<text stroke="none" fill="white" font-size="16" x="685" y="728">
500.0
</text>
<path stroke="white" stroke-dasharray="1,2" d="M842 704l0 -637"/>
<text stroke="none" fill="white" font-size="16" x="817" y="728">
600.0
</text>
<path stroke="white" stroke-dasharray="1,2" d="M974 704l0 -637"/>
<text stroke="none" fill="white" font-size="16" x="949" y="728">
700.0
</text>
<text stroke="none" fill="white" font-size="16" x="614" y="752">
ns
</text>
<path stroke="white" stroke-dasharray="1,2" d="M50 704l924 0"/>
<text stroke="none" fill="white" font-size="16" x="8" y="712">
-2.5
</text>
<path stroke="white" stroke-dasharray="1,2" d="M50 655l924 0"/>
<text stroke="none" fill="white" font-size="16" x="8" y="663">
-2.0
</text>
<path stroke="white" stroke-dasharray="1,2" d="M50 606l924 0"/>
<text stroke="none" fill="white" font-size="16" x="8" y="614">
-1.5
</text>
<path stroke="white" stroke-dasharray="1,2" d="M50 557l924 0"/>
<text stroke="none" fill="white" font-size="16" x="8" y="565">
-1.0
</text>
<path stroke="white" stroke-dasharray="1,2" d="M50 508l924 0"/>
<text stroke="none" fill="white" font-size="16" x="8" y="516">
-0.5
</text>
<path stroke="white" d="M50 459l924 0"/>
<text stroke="none" fill="white" font-size="16" x="18" y="467">
0.0
</text>
<path stroke="white" stroke-dasharray="1,2" d="M50 410l924 0"/>
<text stroke="none" fill="white" font-size="16" x="18" y="418">
0.5
</text>
<path stroke="white" stroke-dasharray="1,2" d="M50 361l924 0"/>
<text stroke="none" fill="white" font-size="16" x="18" y="369">
1.0
</text>
<path stroke="white" stroke-dasharray="1,2" d="M50 312l924 0"/>
<text stroke="none" fill="white" font-size="16" x="18" y="320">
1.5
</text>
<path stroke="white" stroke-dasharray="1,2" d="M50 263l924 0"/>
<text stroke="none" fill="white" font-size="16" x="18" y="271">
2.0
</text>
<path stroke="white" stroke-dasharray="1,2" d="M50 214l924 0"/>
<text stroke="none" fill="white" font-size="16" x="18" y="222">
2.5
</text>
<path stroke="white" stroke-dasharray="1,2" d="M50 165l924 0"/>
<text stroke="none" fill="white" font-size="16" x="18" y="173">
3.0
</text>
<path stroke="white" stroke-dasharray="1,2" d="M50 116l924 0"/>
<text stroke="none" fill="white" font-size="16" x="18" y="124">
3.5
</text>
<path stroke="white" stroke-dasharray="1,2" d="M50 67l924 0"/>
<text stroke="none" fill="white" font-size="16" x="18" y="75">
4.0
</text>
<text stroke="none" fill="white" font-size="16" x="10" y="32">
     
</text>
<path stroke="red" d="M462 23l46 0"/>
<text stroke="none" fill="white" font-size="16" x="518" y="32">
x1.vsampled_p
</text>
<path stroke="red" d="M50 459l1 0 1 -7 0 -17 1 -16 0 -5 1 2M54 441l0 -42 1 -6 0 -14 1 -3 0 -2 1 -2 1 0 0 -1 59 0 0 -1 1 -10 0 -19 1 -4 0 -5 1 -2 1 -1 419 0M540 330l0 -1 14 0 0 -1M554 329l13 0M567 330l0 -1 7 0M574 352l0 -23M574 352l1 6M575 372l0 -14"/>
<path stroke="red" d="M575 372l1 1 50 0 0 -16 1 -1 0 -2 6 0 0 -1M633 354l20 0M653 362l0 -8M653 362l1 1M654 365l0 -2M654 365l5 0 0 -1M659 365l20 0M679 370l0 -5M679 370l1 0M680 372l0 -2 19 0M699 371l0 -1 26 0M725 371l0 -1 26 0M751 371l0 -1 27 0"/>
<path stroke="red" d="M778 371l0 -1 7 0M785 371l0 -1M785 371l134 0 0 -9 1 0 0 -15 1 -4 0 -7 1 0 0 -5 1 0 0 -2 13 0M936 330l0 -1 14 0 0 -1M950 329l24 0"/>
<path stroke="blue" d="M50 23l46 0"/>
<text stroke="none" fill="white" font-size="16" x="106" y="32">
x1.vsampled_n
</text>
<path stroke="blue" d="M50 459l1 0 1 -7 0 -17 1 -15 0 -5 1 2M54 441l0 -42 1 -6 0 -14 1 -3 0 -2 1 -2 1 0 0 -1 59 0M117 379l0 -8M117 379l1 12M118 404l0 -13M118 404l1 3M119 411l0 -4M119 411l1 1 1 0M121 413l0 -1M121 413l425 0 0 -22 1 -3 0 -30 1 -2"/>
<path stroke="blue" d="M548 356l0 -6 1 -2 1 0 0 -1 4 0 0 -1M554 347l13 0M567 348l0 -1 26 0M593 348l0 -1 7 0M600 368l0 -21M600 368l1 4M601 376l0 -4M601 373l1 -2 0 -1 1 -1 16 0M619 370l0 -1 27 0M646 370l0 -1 26 0M672 370l0 -1 27 0M699 370l0 -1"/>
<path stroke="blue" d="M699 369l7 0M706 373l0 -4M706 373l1 0 0 -1 25 0 0 -4M732 369l19 0M751 370l0 -1M751 370l1 0 0 -1 7 0M759 372l0 -3M759 371l54 0M813 372l0 -1 18 0M831 372l0 -1 7 0 0 -1 1 0M839 371l0 -1M839 371l80 0M919 385l0 -15M919 385l1 1"/>
<path stroke="blue" d="M920 408l0 -22M920 408l1 5M921 415l0 -2M921 415l1 0 0 -1 1 0 0 -1 51 0"/>
<path stroke="#FFA500" d="M462 39l46 0"/>
<text stroke="none" fill="white" font-size="16" x="518" y="48">
x1.vsampled_p-x1.vsampled_n
</text>
<path stroke="#FFA500" d="M50 459l2 0 1 -1 1 0M54 459l0 -1M54 459l63 0 0 -9 1 -22 0 -32 1 -7 0 -9 2 -4 0 -1 419 0M540 376l0 -1 6 0M546 397l0 -22M546 397l1 3M547 430l0 -30M547 430l1 2M548 438l0 -6M548 438l1 2 1 0M550 441l0 -1M550 441l17 0 0 -1"/>
<path stroke="#FFA500" d="M567 441l7 0M574 464l0 -23M574 464l1 6M575 484l0 -14M575 484l1 0M576 485l0 -1M576 485l17 0 0 -1M593 485l7 0 0 -21 1 -4 0 -4M601 459l1 2M602 462l0 -1M602 462l1 1 23 0 0 -16 1 -1 0 -2 6 0 0 -1M633 444l13 0 0 -1M646 444l7 0"/>
<path stroke="#FFA500" d="M653 452l0 -9M653 452l1 1M654 455l0 -2M654 455l18 0 0 -1M672 455l7 0M679 459l0 -5M679 459l1 1M680 462l0 -2 26 0 0 -4 1 0M707 457l0 -1M707 457l25 0M732 461l0 -4M732 460l27 0 0 -3M759 458l26 0M785 459l0 -1M785 459l28 0"/>
<path stroke="#FFA500" d="M813 459l0 -1M813 459l106 0 0 -23 1 -2 0 -36 1 -9 0 -9 1 0 0 -3 1 -1 0 -1 13 0M936 376l0 -1 14 0 0 -1M950 375l24 0"/>
<path stroke="green" d="M50 39l46 0"/>
<text stroke="none" fill="white" font-size="16" x="106" y="48">
x1.sw_sample-2
</text>
<path stroke="green" d="M50 655l1 0 1 -10 0 -23 1 -21M53 620l0 -26M53 620l1 32M54 655l0 -3M54 655l63 0M117 662l0 -184 1 0M118 479l0 -1M118 479l421 0M539 656l0 -184M539 655l422 0M961 660l0 -182 1 0M962 479l0 -1M962 479l12 0"/>
<path stroke="#FFC0C5" d="M462 55l46 0"/>
<text stroke="none" fill="white" font-size="16" x="518" y="64">
x1.comp_out_p+2
</text>
<path stroke="#FFC0C5" d="M50 263l1 0 1 -10 0 -23 1 -20 0 -4M53 209l1 4M54 263l0 -50M54 263l487 0 1 1 0 -179M542 87l13 0M555 264l0 -183M555 263l13 0M568 264l0 -179M568 87l13 0 0 -9 1 175M582 264l0 -11M582 263l65 0 0 -178M647 87l14 0M661 264l0 -181"/>
<path stroke="#FFC0C5" d="M661 263l12 0M673 264l0 -1M673 264l1 -70 0 -109M674 87l13 0M687 263l0 -185M687 263l40 0 0 -178M727 87l13 0M740 264l0 -187M740 263l40 0 0 -177M780 87l13 0M793 263l0 -185M793 263l41 0 0 -177M834 87l11 0 0 -9 1 158M846 263l0 -27"/>
<path stroke="#FFC0C5" d="M846 263l91 0 1 -48 0 -130M938 87l13 0M951 264l0 -184M951 263l23 0"/>
<path stroke="#A52A2A" d="M50 55l46 0"/>
<text stroke="none" fill="white" font-size="16" x="106" y="64">
x1.comp_out_n-2
</text>
<path stroke="#A52A2A" d="M50 655l1 0 1 -10 0 -24 1 -20M53 602l0 -3M53 602l1 7M54 655l0 -46M54 654l1 1 539 0 0 -178M594 478l1 1 13 0M608 656l0 -183M608 655l13 0 0 -178M621 479l13 0M634 655l0 -185M634 655l40 0M674 656l0 -1 26 0 0 -177 1 0M701 479l0 -1"/>
<path stroke="#A52A2A" d="M701 479l12 0 0 -10 1 177M714 656l0 -10M714 655l39 0 0 -177 1 0M754 479l0 -1M754 479l12 0M766 655l0 -184M766 655l41 0 1 -162 0 -15M808 479l11 0M819 655l0 -186M819 655l41 0 0 -164 1 -13M861 479l0 -1M861 479l11 0M872 655l0 -186"/>
<path stroke="#A52A2A" d="M872 655l15 0 1 -154 0 -23M888 479l10 0M898 655l0 -186M898 655l16 0 0 -178M914 479l11 0M925 656l0 -184M925 655l49 0"/>
</svg>
