<?xml version="1.0" standalone="yes"?>
<!DOCTYPE svg PUBLIC "-//W3C//DTD SVG 1.1//EN"
 "http://www.w3.org/Graphics/SVG/1.1/DTD/svg11.dtd">
<svg xmlns="http://www.w3.org/2000/svg" version="1.1"
  width="100%" height="100%" viewBox="0 0 1024 768"
  style="fill: none; font-family: Helvetica;
 font: Helvetica;
">

<!-- Creator: NGspice -->

<rect x="0" y="0" width="1024" height="768" fill="black" stroke="none"/>
<text stroke="none" fill="white" font-size="16" x="358" y="752">
time
</text>
<text stroke="none" fill="white" font-size="16" x="10" y="16">
tran1: run949_vin-0.0654797
</text>
<path stroke="white" d="M50 704l0 -637"/>
<text stroke="none" fill="white" font-size="16" x="35" y="728">
0.0
</text>
<path stroke="white" stroke-dasharray="1,2" d="M182 704l0 -637"/>
<text stroke="none" fill="white" font-size="16" x="157" y="728">
100.0
</text>
<path stroke="white" stroke-dasharray="1,2" d="M314 704l0 -637"/>
<text stroke="none" fill="white" font-size="16" x="289" y="728">
200.0
</text>
<path stroke="white" stroke-dasharray="1,2" d="M446 704l0 -637"/>
<text stroke="none" fill="white" font-size="16" x="421" y="728">
300.0
</text>
<path stroke="white" stroke-dasharray="1,2" d="M578 704l0 -637"/>
<text stroke="none" fill="white" font-size="16" x="553" y="728">
400.0
</text>
<path stroke="white" stroke-dasharray="1,2" d="M710 704l0 -637"/>
<text stroke="none" fill="white" font-size="16" x="685" y="728">
500.0
</text>
<path stroke="white" stroke-dasharray="1,2" d="M842 704l0 -637"/>
<text stroke="none" fill="white" font-size="16" x="817" y="728">
600.0
</text>
<path stroke="white" stroke-dasharray="1,2" d="M974 704l0 -637"/>
<text stroke="none" fill="white" font-size="16" x="949" y="728">
700.0
</text>
<text stroke="none" fill="white" font-size="16" x="614" y="752">
ns
</text>
<path stroke="white" stroke-dasharray="1,2" d="M50 704l924 0"/>
<text stroke="none" fill="white" font-size="16" x="8" y="712">
-2.5
</text>
<path stroke="white" stroke-dasharray="1,2" d="M50 655l924 0"/>
<text stroke="none" fill="white" font-size="16" x="8" y="663">
-2.0
</text>
<path stroke="white" stroke-dasharray="1,2" d="M50 606l924 0"/>
<text stroke="none" fill="white" font-size="16" x="8" y="614">
-1.5
</text>
<path stroke="white" stroke-dasharray="1,2" d="M50 557l924 0"/>
<text stroke="none" fill="white" font-size="16" x="8" y="565">
-1.0
</text>
<path stroke="white" stroke-dasharray="1,2" d="M50 508l924 0"/>
<text stroke="none" fill="white" font-size="16" x="8" y="516">
-0.5
</text>
<path stroke="white" d="M50 459l924 0"/>
<text stroke="none" fill="white" font-size="16" x="18" y="467">
0.0
</text>
<path stroke="white" stroke-dasharray="1,2" d="M50 410l924 0"/>
<text stroke="none" fill="white" font-size="16" x="18" y="418">
0.5
</text>
<path stroke="white" stroke-dasharray="1,2" d="M50 361l924 0"/>
<text stroke="none" fill="white" font-size="16" x="18" y="369">
1.0
</text>
<path stroke="white" stroke-dasharray="1,2" d="M50 312l924 0"/>
<text stroke="none" fill="white" font-size="16" x="18" y="320">
1.5
</text>
<path stroke="white" stroke-dasharray="1,2" d="M50 263l924 0"/>
<text stroke="none" fill="white" font-size="16" x="18" y="271">
2.0
</text>
<path stroke="white" stroke-dasharray="1,2" d="M50 214l924 0"/>
<text stroke="none" fill="white" font-size="16" x="18" y="222">
2.5
</text>
<path stroke="white" stroke-dasharray="1,2" d="M50 165l924 0"/>
<text stroke="none" fill="white" font-size="16" x="18" y="173">
3.0
</text>
<path stroke="white" stroke-dasharray="1,2" d="M50 116l924 0"/>
<text stroke="none" fill="white" font-size="16" x="18" y="124">
3.5
</text>
<path stroke="white" stroke-dasharray="1,2" d="M50 67l924 0"/>
<text stroke="none" fill="white" font-size="16" x="18" y="75">
4.0
</text>
<text stroke="none" fill="white" font-size="16" x="10" y="32">
     
</text>
<path stroke="red" d="M462 23l46 0"/>
<text stroke="none" fill="white" font-size="16" x="518" y="32">
x1.vsampled_p
</text>
<path stroke="red" d="M50 459l1 0 1 -7 0 -17 1 -15 0 -5 1 1M54 442l0 -42 1 -6 0 -16 1 -2 0 -3 1 -1 1 0 0 -1 59 0M117 372l0 -1M117 372l1 1M118 375l0 -2M118 375l1 1M119 377l0 -1M119 377l421 0M540 378l0 -1 6 0M546 378l0 -24 1 -1 0 -32 1 -5 0 -2"/>
<path stroke="red" d="M548 314l1 -1 0 -1 4 0 0 -1 13 0 1 1M567 313l0 -2M567 312l1 0 0 -1 6 0M574 342l0 -31M574 342l1 9M575 357l0 -6M575 357l1 1 0 -1 1 -1 3 0 0 -1 13 0M593 356l0 -1 7 0M600 374l0 -19M600 374l1 3M601 381l0 -4M601 380l1 -1 0 -1"/>
<path stroke="red" d="M602 378l1 0 0 -1 16 0M619 378l0 -1M619 378l1 0 0 -1 5 0 0 -6 1 -4 0 -9 20 0M646 359l0 -1 7 0M653 369l0 -11M653 369l1 2 0 -1 1 0 0 -1 17 0M672 370l0 -1 27 0M699 370l0 -1 7 0M706 373l0 -4M706 373l1 0 0 -1 24 0 0 -3 1 0 0 -1"/>
<path stroke="red" d="M732 369l1 0M733 370l0 -1M733 370l5 0 0 -1 13 0M751 370l0 -1M751 370l1 0 0 -1M752 370l7 0M759 372l0 -3M759 371l158 0M917 373l0 -2M917 373l1 3M918 380l0 -4M918 378l1 0 1 -1 16 0M936 378l0 -1 38 0"/>
<path stroke="blue" d="M50 23l46 0"/>
<text stroke="none" fill="white" font-size="16" x="106" y="32">
x1.vsampled_n
</text>
<path stroke="blue" d="M50 459l1 0 1 -7 0 -17 1 -15 0 -5 1 1M54 442l0 -42 1 -6 0 -16 1 -2 0 -3 1 -1 1 0 0 -1 59 0 1 -2 0 -2 1 -2 1 0 1 -1 418 0M539 365l0 -1M539 365l15 0 0 -1M554 365l12 0 0 -1M566 365l14 0 0 -1M580 365l26 0 0 -1 1 0M607 365l0 -1"/>
<path stroke="blue" d="M607 365l26 0 0 -1M633 365l26 0 0 -1M659 365l20 0M679 371l0 -7M679 371l1 1 0 -2 106 0M786 371l0 -1M786 371l26 0M812 372l0 -1 19 0M831 372l0 -1 7 0 0 -1 1 1 78 0M917 372l0 -3 1 -2 0 -3 1 0M919 365l0 -1M919 365l4 0 0 -1M923 365l27 0"/>
<path stroke="blue" d="M950 365l0 -1M950 365l11 0 0 -1 13 0"/>
<path stroke="#FFA500" d="M462 39l46 0"/>
<text stroke="none" fill="white" font-size="16" x="518" y="48">
x1.vsampled_p-x1.vsampled_n
</text>
<path stroke="#FFA500" d="M50 459l67 0M117 460l0 -1M117 460l1 4M118 467l0 -3M118 467l1 3M119 471l0 -1M119 471l1 0 1 1 425 0 0 -23 1 -2 0 -31 1 -5 0 -2 1 -2 1 -1 4 0 0 -1M554 406l13 0M567 407l0 -1 7 0M574 437l0 -31M574 437l1 8M575 451l0 -6M575 451l1 1"/>
<path stroke="#FFA500" d="M576 452l0 -1 1 0 0 -1 23 0M600 468l0 -18M600 468l1 3M601 476l0 -5M601 474l1 -1 0 -1 23 0 0 -6 1 -4 0 -9 1 -1 2 0M629 453l0 -1M629 453l4 0 0 -1M633 453l13 0 0 -1M646 453l7 0M653 463l0 -11M653 463l1 2 0 -1 18 0 0 -1 1 1"/>
<path stroke="#FFA500" d="M673 464l6 0 0 -7 1 -1M680 458l0 -2M680 458l26 0M706 462l0 -4M706 462l1 0 0 -1 24 0 0 -3 1 -1M732 458l0 -1M732 458l27 0M759 461l0 -3M759 460l27 0 0 -2M786 459l26 0 0 -1M812 459l105 0M917 463l0 -5M917 463l1 5M918 475l0 -7"/>
<path stroke="#FFA500" d="M918 473l1 0 0 -1 55 0"/>
<path stroke="green" d="M50 39l46 0"/>
<text stroke="none" fill="white" font-size="16" x="106" y="48">
x1.sw_sample-2
</text>
<path stroke="green" d="M50 655l1 0 1 -10 0 -23 1 -21M53 621l0 -27M53 621l1 31M54 655l0 -3M54 655l63 0M117 662l0 -184 1 1 421 0M539 656l0 -184M539 655l422 0M961 660l0 -182 1 0M962 479l0 -1 1 1 11 0"/>
<path stroke="#FFC0C5" d="M462 55l46 0"/>
<text stroke="none" fill="white" font-size="16" x="518" y="64">
x1.comp_out_p+2
</text>
<path stroke="#FFC0C5" d="M50 263l1 0 1 -10 0 -23 1 -20 0 -4M53 209l1 4M54 263l0 -50M54 263l514 0M568 264l0 -179M568 87l13 0 0 -10 1 171M582 263l0 -15M582 263l12 0M594 264l0 -179M594 86l1 1 13 0M608 264l0 -181M608 263l39 0M647 270l0 -185M647 87l14 0"/>
<path stroke="#FFC0C5" d="M661 264l0 -184M661 263l39 0M700 265l0 -179 1 -1M701 87l0 -2M701 87l12 0 0 -10 1 175M714 264l0 -12M714 263l39 0 0 -177 1 0M754 87l0 -1M754 87l12 0M766 263l0 -185M766 263l68 0 0 -177M834 87l11 0 0 -3M845 87l1 161M846 263l0 -15"/>
<path stroke="#FFC0C5" d="M846 263l128 0"/>
<path stroke="#A52A2A" d="M50 55l46 0"/>
<text stroke="none" fill="white" font-size="16" x="106" y="64">
x1.comp_out_n-2
</text>
<path stroke="#A52A2A" d="M50 655l1 0 1 -10 0 -24 1 -20M53 602l0 -3M53 602l1 7M54 655l0 -46M54 655l488 0M542 656l0 -180M542 479l13 0M555 656l0 -186M555 655l13 0M568 656l0 -1 26 0M594 656l0 -1 27 0M621 656l0 -180M621 479l13 0M634 655l0 -185M634 655l39 0"/>
<path stroke="#A52A2A" d="M673 656l0 -1M673 656l1 -48 0 -131M674 479l13 0M687 655l0 -186M687 655l40 0 0 -177M727 479l13 0M740 655l0 -183M740 655l40 0 0 -177M780 479l13 0M793 655l0 -187M793 655l14 0 0 -177 1 0M808 479l0 -1M808 479l11 0M819 655l0 -182"/>
<path stroke="#A52A2A" d="M819 655l41 0 0 -177 1 1 11 0M872 655l0 -187M872 655l14 0 0 -170 1 -7M887 479l0 -1M887 479l11 0M898 655l0 -187M898 655l15 0 0 -177M913 479l12 0M925 656l0 -183M925 655l12 0 1 2 0 -181M938 479l13 0M951 655l0 -185M951 655l23 0"/>
</svg>
