<?xml version="1.0" standalone="yes"?>
<!DOCTYPE svg PUBLIC "-//W3C//DTD SVG 1.1//EN"
 "http://www.w3.org/Graphics/SVG/1.1/DTD/svg11.dtd">
<svg xmlns="http://www.w3.org/2000/svg" version="1.1"
  width="100%" height="100%" viewBox="0 0 1024 768"
  style="fill: none; font-family: Helvetica;
 font: Helvetica;
">

<!-- Creator: NGspice -->

<rect x="0" y="0" width="1024" height="768" fill="black" stroke="none"/>
<text stroke="none" fill="white" font-size="16" x="358" y="752">
time
</text>
<text stroke="none" fill="white" font-size="16" x="10" y="16">
tran1: run277_vin-0.656104
</text>
<path stroke="white" d="M50 704l0 -637"/>
<text stroke="none" fill="white" font-size="16" x="35" y="728">
0.0
</text>
<path stroke="white" stroke-dasharray="1,2" d="M182 704l0 -637"/>
<text stroke="none" fill="white" font-size="16" x="157" y="728">
100.0
</text>
<path stroke="white" stroke-dasharray="1,2" d="M314 704l0 -637"/>
<text stroke="none" fill="white" font-size="16" x="289" y="728">
200.0
</text>
<path stroke="white" stroke-dasharray="1,2" d="M446 704l0 -637"/>
<text stroke="none" fill="white" font-size="16" x="421" y="728">
300.0
</text>
<path stroke="white" stroke-dasharray="1,2" d="M578 704l0 -637"/>
<text stroke="none" fill="white" font-size="16" x="553" y="728">
400.0
</text>
<path stroke="white" stroke-dasharray="1,2" d="M710 704l0 -637"/>
<text stroke="none" fill="white" font-size="16" x="685" y="728">
500.0
</text>
<path stroke="white" stroke-dasharray="1,2" d="M842 704l0 -637"/>
<text stroke="none" fill="white" font-size="16" x="817" y="728">
600.0
</text>
<path stroke="white" stroke-dasharray="1,2" d="M974 704l0 -637"/>
<text stroke="none" fill="white" font-size="16" x="949" y="728">
700.0
</text>
<text stroke="none" fill="white" font-size="16" x="614" y="752">
ns
</text>
<path stroke="white" stroke-dasharray="1,2" d="M50 704l924 0"/>
<text stroke="none" fill="white" font-size="16" x="8" y="712">
-2.5
</text>
<path stroke="white" stroke-dasharray="1,2" d="M50 655l924 0"/>
<text stroke="none" fill="white" font-size="16" x="8" y="663">
-2.0
</text>
<path stroke="white" stroke-dasharray="1,2" d="M50 606l924 0"/>
<text stroke="none" fill="white" font-size="16" x="8" y="614">
-1.5
</text>
<path stroke="white" stroke-dasharray="1,2" d="M50 557l924 0"/>
<text stroke="none" fill="white" font-size="16" x="8" y="565">
-1.0
</text>
<path stroke="white" stroke-dasharray="1,2" d="M50 508l924 0"/>
<text stroke="none" fill="white" font-size="16" x="8" y="516">
-0.5
</text>
<path stroke="white" d="M50 459l924 0"/>
<text stroke="none" fill="white" font-size="16" x="18" y="467">
0.0
</text>
<path stroke="white" stroke-dasharray="1,2" d="M50 410l924 0"/>
<text stroke="none" fill="white" font-size="16" x="18" y="418">
0.5
</text>
<path stroke="white" stroke-dasharray="1,2" d="M50 361l924 0"/>
<text stroke="none" fill="white" font-size="16" x="18" y="369">
1.0
</text>
<path stroke="white" stroke-dasharray="1,2" d="M50 312l924 0"/>
<text stroke="none" fill="white" font-size="16" x="18" y="320">
1.5
</text>
<path stroke="white" stroke-dasharray="1,2" d="M50 263l924 0"/>
<text stroke="none" fill="white" font-size="16" x="18" y="271">
2.0
</text>
<path stroke="white" stroke-dasharray="1,2" d="M50 214l924 0"/>
<text stroke="none" fill="white" font-size="16" x="18" y="222">
2.5
</text>
<path stroke="white" stroke-dasharray="1,2" d="M50 165l924 0"/>
<text stroke="none" fill="white" font-size="16" x="18" y="173">
3.0
</text>
<path stroke="white" stroke-dasharray="1,2" d="M50 116l924 0"/>
<text stroke="none" fill="white" font-size="16" x="18" y="124">
3.5
</text>
<path stroke="white" stroke-dasharray="1,2" d="M50 67l924 0"/>
<text stroke="none" fill="white" font-size="16" x="18" y="75">
4.0
</text>
<text stroke="none" fill="white" font-size="16" x="10" y="32">
     
</text>
<path stroke="red" d="M462 23l46 0"/>
<text stroke="none" fill="white" font-size="16" x="518" y="32">
x1.vsampled_p
</text>
<path stroke="red" d="M50 459l1 0 1 -7 0 -17 1 -15 0 -5 1 2M54 441l0 -41 1 -5 0 -14 1 -4 0 -2 1 -2 0 -1 1 -1 59 0M117 387l0 -16M117 387l1 16M118 424l0 -21M118 424l1 3M119 431l0 -4M119 431l1 2 1 1M121 435l0 -1M121 435l425 0 0 -20 1 -3 0 -25 1 -8"/>
<path stroke="red" d="M548 379l0 -7 1 -2 1 0 0 -1 17 0M567 370l0 -1 26 0M593 370l0 -1 26 0M619 370l0 -1 27 0M646 370l0 -1 26 0M672 370l0 -1 27 0M699 370l0 -1 7 0M706 373l0 -4M706 373l1 1 0 -2 24 0 0 -2 1 -1 0 -1M732 369l1 0M733 370l0 -1M733 370l5 0"/>
<path stroke="red" d="M738 370l0 -1 1 0M739 370l0 -1M739 370l12 0 0 -1M751 370l1 0 0 -1M752 370l7 0M759 373l0 -3M759 371l159 0M918 415l0 -45M918 415l1 5M919 439l0 -19M919 439l1 0 0 -2 1 -1 1 0 0 -1 52 0"/>
<path stroke="blue" d="M50 23l46 0"/>
<text stroke="none" fill="white" font-size="16" x="106" y="32">
x1.vsampled_n
</text>
<path stroke="blue" d="M50 459l1 0 1 -7 0 -17 1 -16 0 -5 1 2M54 441l0 -41 1 -5 0 -14 1 -4 0 -2 1 -2 0 -1 1 -1 59 0 0 -2 1 -11 0 -33 1 -4 0 -9 2 -4 0 -1 418 0 0 -1M539 307l1 0M540 308l0 -1 14 0 0 -1M554 307l13 0M567 308l0 -1 7 0M574 332l0 -25"/>
<path stroke="blue" d="M574 332l1 7M575 349l0 -10M575 349l1 2 4 0 0 -1M580 351l20 0M600 367l0 -16M600 367l1 3M601 374l0 -4M601 373l24 0 0 -1 1 -4 0 -13 1 0 0 -1 6 0 0 -1 13 0M646 354l0 -1M646 354l7 0M653 362l0 -9M653 362l1 2M654 365l0 -1M654 365l5 0"/>
<path stroke="blue" d="M659 365l0 -1 1 1 12 0 0 -1M672 365l7 0M679 369l0 -4M679 369l1 1M680 371l0 -1 105 0M785 371l0 -1M785 371l28 0M813 372l0 -1 105 0 0 -25 1 -3 0 -22 1 -3 0 -7 1 -2 0 -1 1 0 0 -1 1 0 0 -1M923 307l13 0M936 308l0 -1 14 0 0 -1"/>
<path stroke="blue" d="M950 307l12 0 0 -1 3 0 1 1 8 0"/>
<path stroke="#FFA500" d="M462 39l46 0"/>
<text stroke="none" fill="white" font-size="16" x="518" y="48">
x1.vsampled_p-x1.vsampled_n
</text>
<path stroke="#FFA500" d="M50 459l2 0M52 460l0 -1M52 460l2 0 0 -1 63 0M117 477l0 -18M117 477l1 28M118 557l0 -52M118 557l1 8M119 578l0 -13M119 578l1 4 1 3M121 586l0 -1M121 586l1 1 1 0 1 1 415 0 0 -1 1 0M540 588l0 -1 6 0 0 -20 1 -3 0 -25 1 -8 0 -7"/>
<path stroke="#FFA500" d="M548 524l1 -2 1 0 0 -1 4 0M554 522l0 -1 13 0M567 522l0 -2M567 521l7 0 0 -24 1 -8 0 -10 1 -2 4 0M580 478l0 -1 13 0M593 478l0 -1 7 0M600 478l0 -16 1 -4 0 -4M601 455l18 0M619 456l0 -1 6 0M625 456l0 -1M625 456l1 4M626 473l0 -13"/>
<path stroke="#FFA500" d="M626 473l2 2 18 0 0 -1M646 475l7 0 0 -8 1 -3 0 -1 1 1 24 0 0 -5 1 0 0 -2M680 458l26 0M706 462l0 -4M706 462l1 1 0 -2 24 0 0 -2 1 -2M732 458l0 -1M732 458l19 0M751 459l0 -1M751 459l1 0 0 -1 7 0M759 462l0 -4M759 460l26 0"/>
<path stroke="#FFA500" d="M785 460l0 -1 28 0 0 -1M813 459l105 0M918 528l0 -69M918 528l1 8M919 577l0 -41M919 577l1 3M920 585l0 -5M920 585l1 1M921 587l0 -1M921 587l2 0M923 588l0 -1M923 588l13 0 0 -2M936 587l14 0M950 588l0 -1M950 588l12 0 0 -1M962 588l12 0"/>
<path stroke="green" d="M50 39l46 0"/>
<text stroke="none" fill="white" font-size="16" x="106" y="48">
x1.sw_sample-2
</text>
<path stroke="green" d="M50 655l1 0 1 -10 0 -23 1 -21M53 619l0 -25M53 619l1 33M54 655l0 -3M54 655l63 0M117 662l0 -184 1 0M118 479l0 -1M118 479l421 0M539 656l0 -184M539 655l422 0M961 660l0 -182 1 0M962 479l0 -1M962 479l12 0"/>
<path stroke="#FFC0C5" d="M462 55l46 0"/>
<text stroke="none" fill="white" font-size="16" x="518" y="64">
x1.comp_out_p+2
</text>
<path stroke="#FFC0C5" d="M50 263l1 0 1 -10 0 -23 1 -20 0 -4M53 208l1 5M54 264l0 -52M54 247l1 15M55 263l0 -1M55 263l566 0M621 266l0 -181M621 87l13 0M634 263l0 -185M634 263l66 0 0 -174 1 -4M701 87l0 -2M701 87l12 0 0 -9 1 174M714 264l0 -12M714 263l39 0"/>
<path stroke="#FFC0C5" d="M753 263l0 -177 1 0M754 87l0 -1M754 87l12 0M766 263l0 -181M766 263l68 0 0 -177M834 87l11 0 0 -3 1 163M846 263l0 -16M846 263l128 0"/>
<path stroke="#A52A2A" d="M50 55l46 0"/>
<text stroke="none" fill="white" font-size="16" x="106" y="64">
x1.comp_out_n-2
</text>
<path stroke="#A52A2A" d="M50 655l1 0 1 -10 0 -24 1 -20M53 602l0 -3M53 602l1 7M54 656l0 -47M54 654l1 1 486 0 1 1 0 -179M542 479l13 0M555 655l0 -185M555 655l13 0 0 -178M568 479l13 0 0 -9 1 169M582 655l0 -16M582 655l12 0M594 657l0 -181M594 478l1 1"/>
<path stroke="#A52A2A" d="M595 479l13 0M608 655l0 -185M608 655l39 0 0 -178M647 479l14 0M661 656l0 -186M661 655l12 0M673 656l0 -1M673 656l1 -62 0 -117M674 479l13 0M687 655l0 -186M687 655l40 0 0 -177M727 479l13 0M740 656l0 -187M740 655l40 0 0 -177"/>
<path stroke="#A52A2A" d="M780 479l13 0M793 655l0 -188M793 655l14 0 0 -177 1 0M808 479l0 -1M808 479l11 0M819 655l0 -180M819 655l41 0 0 -177M860 479l12 0M872 655l0 -188M872 655l14 0 0 -163 1 -14M887 479l0 -1M887 479l11 0M898 655l0 -188M898 655l15 0"/>
<path stroke="#A52A2A" d="M913 655l0 -177M913 479l12 0M925 656l0 -185M925 655l12 0M937 656l0 -1M937 656l1 -60 0 -119M938 479l13 0M951 656l0 -184M951 655l23 0"/>
</svg>
