<?xml version="1.0" standalone="yes"?>
<!DOCTYPE svg PUBLIC "-//W3C//DTD SVG 1.1//EN"
 "http://www.w3.org/Graphics/SVG/1.1/DTD/svg11.dtd">
<svg xmlns="http://www.w3.org/2000/svg" version="1.1"
  width="100%" height="100%" viewBox="0 0 1024 768"
  style="fill: none; font-family: Helvetica;
 font: Helvetica;
">

<!-- Creator: NGspice -->

<rect x="0" y="0" width="1024" height="768" fill="black" stroke="none"/>
<text stroke="none" fill="white" font-size="16" x="358" y="752">
time
</text>
<text stroke="none" fill="white" font-size="16" x="10" y="16">
tran1: run162_vin-0.757178
</text>
<path stroke="white" d="M50 704l0 -637"/>
<text stroke="none" fill="white" font-size="16" x="35" y="728">
0.0
</text>
<path stroke="white" stroke-dasharray="1,2" d="M182 704l0 -637"/>
<text stroke="none" fill="white" font-size="16" x="157" y="728">
100.0
</text>
<path stroke="white" stroke-dasharray="1,2" d="M314 704l0 -637"/>
<text stroke="none" fill="white" font-size="16" x="289" y="728">
200.0
</text>
<path stroke="white" stroke-dasharray="1,2" d="M446 704l0 -637"/>
<text stroke="none" fill="white" font-size="16" x="421" y="728">
300.0
</text>
<path stroke="white" stroke-dasharray="1,2" d="M578 704l0 -637"/>
<text stroke="none" fill="white" font-size="16" x="553" y="728">
400.0
</text>
<path stroke="white" stroke-dasharray="1,2" d="M710 704l0 -637"/>
<text stroke="none" fill="white" font-size="16" x="685" y="728">
500.0
</text>
<path stroke="white" stroke-dasharray="1,2" d="M842 704l0 -637"/>
<text stroke="none" fill="white" font-size="16" x="817" y="728">
600.0
</text>
<path stroke="white" stroke-dasharray="1,2" d="M974 704l0 -637"/>
<text stroke="none" fill="white" font-size="16" x="949" y="728">
700.0
</text>
<text stroke="none" fill="white" font-size="16" x="614" y="752">
ns
</text>
<path stroke="white" stroke-dasharray="1,2" d="M50 704l924 0"/>
<text stroke="none" fill="white" font-size="16" x="8" y="712">
-3.0
</text>
<path stroke="white" stroke-dasharray="1,2" d="M50 613l924 0"/>
<text stroke="none" fill="white" font-size="16" x="8" y="621">
-2.0
</text>
<path stroke="white" stroke-dasharray="1,2" d="M50 522l924 0"/>
<text stroke="none" fill="white" font-size="16" x="8" y="530">
-1.0
</text>
<path stroke="white" d="M50 431l924 0"/>
<text stroke="none" fill="white" font-size="16" x="18" y="439">
0.0
</text>
<path stroke="white" stroke-dasharray="1,2" d="M50 340l924 0"/>
<text stroke="none" fill="white" font-size="16" x="18" y="348">
1.0
</text>
<path stroke="white" stroke-dasharray="1,2" d="M50 249l924 0"/>
<text stroke="none" fill="white" font-size="16" x="18" y="257">
2.0
</text>
<path stroke="white" stroke-dasharray="1,2" d="M50 158l924 0"/>
<text stroke="none" fill="white" font-size="16" x="18" y="166">
3.0
</text>
<path stroke="white" stroke-dasharray="1,2" d="M50 67l924 0"/>
<text stroke="none" fill="white" font-size="16" x="18" y="75">
4.0
</text>
<text stroke="none" fill="white" font-size="16" x="10" y="32">
     
</text>
<path stroke="red" d="M462 23l46 0"/>
<text stroke="none" fill="white" font-size="16" x="518" y="32">
x1.vsampled_p
</text>
<path stroke="red" d="M50 431l1 0 1 -7 0 -15 1 -14 0 -5 1 2M54 414l0 -38 1 -5 0 -13 1 -3 0 -2 1 -2 0 -1 2 0 1 -1 3 0 1 1 3 0 1 -1 49 0M117 369l0 -20M117 369l1 16M118 406l0 -21M118 406l1 3M119 414l0 -5M119 414l1 2M120 417l0 -1M120 417l1 0 1 1"/>
<path stroke="red" d="M122 418l424 0 0 -20 1 -3 0 -24 1 -7 0 -4 1 -2 1 -1 75 0 0 -14 1 -1 0 -4 1 0 1 1 5 0 0 -1M633 339l13 0M646 340l0 -1 7 0M653 350l0 -11M653 350l1 2 0 -2 1 -1 17 0M672 350l0 -1 27 0M699 350l0 -1 26 0M725 350l0 -1 26 0M751 350l0 -1"/>
<path stroke="red" d="M751 349l27 0M778 350l0 -1 26 0M804 350l0 -1 9 0M813 350l0 -1M813 350l1 0 1 -1 15 0 1 1 0 -1 26 0M857 350l0 -1 26 0M883 350l0 -1 27 0M910 350l0 -1 8 0M918 352l0 -3M918 352l1 9M919 424l0 -63M919 424l1 0 0 -2 1 -1 0 -2 1 0"/>
<path stroke="red" d="M922 419l0 -1 52 0"/>
<path stroke="blue" d="M50 23l46 0"/>
<text stroke="none" fill="white" font-size="16" x="106" y="32">
x1.vsampled_n
</text>
<path stroke="blue" d="M50 431l1 0 1 -7 0 -16 1 -14 0 -5 1 2M54 414l0 -38 1 -5 0 -13 1 -3 0 -2 1 -2 0 -1 2 0 1 -1 3 0 1 1 5 0 0 -1 48 0 0 -1 1 -12 0 -34 1 -6 0 -9 1 -3 0 -2 1 -1 1 0 0 -1 417 0M539 281l0 -1M539 281l1 -1M540 282l0 -2M540 281l14 0"/>
<path stroke="blue" d="M554 281l0 -1 12 0 1 1M567 282l0 -1 6 0 1 -1M574 303l0 -23M574 303l1 7M575 319l0 -9M575 319l1 2 1 1 0 -1 16 0M593 322l0 -1 7 0M600 336l0 -15M600 336l1 3M601 343l0 -4M601 342l78 0M679 347l0 -5M679 347l1 1 0 -1 26 0M706 350l0 -3"/>
<path stroke="blue" d="M706 350l1 0 0 -1 18 0M725 350l0 -1 8 0 0 -2 18 0M751 348l0 -1 8 0M759 349l0 -2M759 349l6 0 0 -1 13 0M778 349l0 -1M778 349l7 0 0 -1M785 349l1 0M786 350l0 -1 132 0 0 -11 1 -7 0 -35 1 -3 0 -7 1 -2 0 -2 1 0 0 -1 1 0 0 -1 13 0"/>
<path stroke="blue" d="M936 282l0 -2M936 281l14 0 0 -1 24 0"/>
<path stroke="#FFA500" d="M462 39l46 0"/>
<text stroke="none" fill="white" font-size="16" x="518" y="48">
x1.vsampled_p-x1.vsampled_n
</text>
<path stroke="#FFA500" d="M50 431l2 0M52 432l0 -1M52 432l2 0 0 -1 63 0M117 452l0 -21M117 452l1 28M118 535l0 -55M118 535l1 9M119 558l0 -14M119 558l1 4M120 565l0 -3M120 565l1 2 2 2 417 0 0 -1M540 569l1 -1M541 569l0 -1M541 569l5 0 0 -21 1 -2 0 -24"/>
<path stroke="#FFA500" d="M547 522l1 -8 0 -4 1 -2 1 0 0 -1 4 0M554 508l0 -1 13 0 0 -1M567 507l6 0 1 1 0 -23 1 -7 0 -9 1 -3 4 0M580 467l0 -1 13 0M593 467l0 -1 7 0M600 467l0 -15 1 -3 0 -4 1 1 23 0 0 -14 1 -1 0 -4 1 0 1 1 18 0M646 429l0 -1 7 0M653 440l0 -12"/>
<path stroke="#FFA500" d="M653 440l1 1 0 -2 1 0 0 -1 17 0M672 439l0 -1 7 0 0 -5 1 -1M680 433l0 -1M680 433l19 0M699 434l0 -1 7 0 0 -3 1 1 26 0M733 433l0 -2M733 433l26 0 0 -2M759 432l26 0 0 -1 28 0 1 1 0 -1 17 0M831 432l0 -1 7 0 0 -1M838 431l80 0"/>
<path stroke="#FFA500" d="M918 445l0 -14M918 445l1 15M919 559l0 -99M919 559l1 3M920 566l0 -4M920 566l1 1M921 568l0 -1M921 568l2 0M923 569l0 -1M923 569l13 0 0 -2M936 569l38 0"/>
<path stroke="green" d="M50 39l46 0"/>
<text stroke="none" fill="white" font-size="16" x="106" y="48">
x1.sw_sample-2
</text>
<path stroke="green" d="M50 613l1 0 1 -9 0 -21 1 -21M53 579l0 -23M53 579l1 31M54 613l0 -3M54 613l63 0M117 620l0 -172M117 449l422 0M539 614l0 -171M539 613l422 0M961 618l0 -170 1 1 12 0"/>
<path stroke="#FFC0C5" d="M462 55l46 0"/>
<text stroke="none" fill="white" font-size="16" x="518" y="64">
x1.comp_out_p+2
</text>
<path stroke="#FFC0C5" d="M50 249l1 0 1 -9 0 -22 1 -18 0 -4M53 198l1 5M54 249l0 -46M54 247l1 2 592 0M647 251l0 -168M647 85l14 0M661 250l0 -174M661 249l67 0 0 -165M728 85l12 0M740 250l0 -172M740 249l68 0 0 -165M808 85l11 0M819 249l0 -172M819 249l41 0"/>
<path stroke="#FFC0C5" d="M860 249l1 -147 0 -18M861 85l11 0M872 249l0 -173M872 249l41 0 0 -139 1 -25 0 -1M914 85l11 0M925 249l0 -172M925 249l49 0"/>
<path stroke="#A52A2A" d="M50 55l46 0"/>
<text stroke="none" fill="white" font-size="16" x="106" y="64">
x1.comp_out_n-2
</text>
<path stroke="#A52A2A" d="M50 613l1 0 1 -9 0 -22 1 -19M53 564l0 -3M53 564l1 6M54 613l0 -43M54 613l487 0 1 1 0 -167M542 449l13 0M555 613l0 -173M555 613l13 0M568 615l0 -168M568 449l13 0 0 -9 1 165M582 613l0 -8M582 613l12 0M594 614l0 -167M594 449l14 0"/>
<path stroke="#A52A2A" d="M608 614l0 -173M608 613l13 0M621 619l0 -172M621 449l13 0M634 614l0 -169M634 614l1 -1 38 0 0 -3 1 -139 0 -24M674 449l13 0M687 613l0 -171M687 613l13 0 0 -165M700 449l13 0 0 -9 1 146M714 613l0 -27M714 613l39 0 0 -165M753 449l13 0"/>
<path stroke="#A52A2A" d="M766 613l0 -172M766 613l14 0 0 -165M780 449l13 0M793 613l0 -172M793 613l41 0 0 -164 11 0 0 -8 1 155M846 613l0 -17M846 613l42 0 0 -165M888 449l10 0M898 613l0 -166M898 613l39 0 1 -48 0 -117M938 449l13 0M951 614l0 -170"/>
<path stroke="#A52A2A" d="M951 613l23 0"/>
</svg>
