<?xml version="1.0" standalone="yes"?>
<!DOCTYPE svg PUBLIC "-//W3C//DTD SVG 1.1//EN"
 "http://www.w3.org/Graphics/SVG/1.1/DTD/svg11.dtd">
<svg xmlns="http://www.w3.org/2000/svg" version="1.1"
  width="100%" height="100%" viewBox="0 0 1024 768"
  style="fill: none; font-family: Helvetica;
 font: Helvetica;
">

<!-- Creator: NGspice -->

<rect x="0" y="0" width="1024" height="768" fill="black" stroke="none"/>
<text stroke="none" fill="white" font-size="16" x="358" y="752">
time
</text>
<text stroke="none" fill="white" font-size="16" x="10" y="16">
tran1: run557_vin-0.41001
</text>
<path stroke="white" d="M50 704l0 -637"/>
<text stroke="none" fill="white" font-size="16" x="35" y="728">
0.0
</text>
<path stroke="white" stroke-dasharray="1,2" d="M182 704l0 -637"/>
<text stroke="none" fill="white" font-size="16" x="157" y="728">
100.0
</text>
<path stroke="white" stroke-dasharray="1,2" d="M314 704l0 -637"/>
<text stroke="none" fill="white" font-size="16" x="289" y="728">
200.0
</text>
<path stroke="white" stroke-dasharray="1,2" d="M446 704l0 -637"/>
<text stroke="none" fill="white" font-size="16" x="421" y="728">
300.0
</text>
<path stroke="white" stroke-dasharray="1,2" d="M578 704l0 -637"/>
<text stroke="none" fill="white" font-size="16" x="553" y="728">
400.0
</text>
<path stroke="white" stroke-dasharray="1,2" d="M710 704l0 -637"/>
<text stroke="none" fill="white" font-size="16" x="685" y="728">
500.0
</text>
<path stroke="white" stroke-dasharray="1,2" d="M842 704l0 -637"/>
<text stroke="none" fill="white" font-size="16" x="817" y="728">
600.0
</text>
<path stroke="white" stroke-dasharray="1,2" d="M974 704l0 -637"/>
<text stroke="none" fill="white" font-size="16" x="949" y="728">
700.0
</text>
<text stroke="none" fill="white" font-size="16" x="614" y="752">
ns
</text>
<path stroke="white" stroke-dasharray="1,2" d="M50 704l924 0"/>
<text stroke="none" fill="white" font-size="16" x="8" y="712">
-3.0
</text>
<path stroke="white" stroke-dasharray="1,2" d="M50 613l924 0"/>
<text stroke="none" fill="white" font-size="16" x="8" y="621">
-2.0
</text>
<path stroke="white" stroke-dasharray="1,2" d="M50 522l924 0"/>
<text stroke="none" fill="white" font-size="16" x="8" y="530">
-1.0
</text>
<path stroke="white" d="M50 431l924 0"/>
<text stroke="none" fill="white" font-size="16" x="18" y="439">
0.0
</text>
<path stroke="white" stroke-dasharray="1,2" d="M50 340l924 0"/>
<text stroke="none" fill="white" font-size="16" x="18" y="348">
1.0
</text>
<path stroke="white" stroke-dasharray="1,2" d="M50 249l924 0"/>
<text stroke="none" fill="white" font-size="16" x="18" y="257">
2.0
</text>
<path stroke="white" stroke-dasharray="1,2" d="M50 158l924 0"/>
<text stroke="none" fill="white" font-size="16" x="18" y="166">
3.0
</text>
<path stroke="white" stroke-dasharray="1,2" d="M50 67l924 0"/>
<text stroke="none" fill="white" font-size="16" x="18" y="75">
4.0
</text>
<text stroke="none" fill="white" font-size="16" x="10" y="32">
     
</text>
<path stroke="red" d="M462 23l46 0"/>
<text stroke="none" fill="white" font-size="16" x="518" y="32">
x1.vsampled_p
</text>
<path stroke="red" d="M50 431l1 0 1 -7 0 -15 1 -14 0 -5 1 2M54 415l0 -40 1 -5 0 -13 1 -3 0 -2 2 -2 1 0 1 -1 4 0M64 350l0 -1M64 350l4 0 1 -1 48 0M117 356l0 -7M117 356l1 11M118 379l0 -12M118 379l1 2M119 383l0 -2M119 383l1 1M120 385l0 -1M120 385l1 1"/>
<path stroke="red" d="M121 386l418 0M539 387l0 -1M539 387l1 0 1 -1M541 387l0 -1M541 387l5 0 0 -24 1 -4 0 -25 1 -1 0 -5 1 -1 0 -1 1 0 1 -1 15 0 1 1 0 -1 26 0M593 326l0 -1 7 0M600 347l0 -22M600 347l1 2M601 352l0 -3 1 -1 0 -2 4 0 0 -1 1 0M607 346l0 -1"/>
<path stroke="red" d="M607 346l26 0 0 -1M633 346l26 0 0 -1M659 346l27 0 0 -1M686 346l20 0M706 350l0 -4M706 350l1 -1 0 -1 18 0M725 349l0 -1 26 0M751 349l0 -1 27 0M778 349l0 -1 7 0 1 1M786 350l0 -1 26 0M812 350l0 -1 19 0M831 350l0 -1 26 0M857 350l0 -1"/>
<path stroke="red" d="M857 349l26 0M883 350l0 -1 27 0M910 350l0 -1 7 0 0 -3 1 -1M918 374l0 -29M918 374l1 6M919 388l0 -8M919 388l1 0 1 -1 2 0 0 -1M923 387l13 0 0 -1M936 387l14 0 0 -1M950 387l11 0 0 -1 13 0"/>
<path stroke="blue" d="M50 23l46 0"/>
<text stroke="none" fill="white" font-size="16" x="106" y="32">
x1.vsampled_n
</text>
<path stroke="blue" d="M50 431l1 0 1 -7 0 -15 1 -15 0 -4 1 1M54 415l0 -40 1 -5 0 -13 1 -3 0 -2 2 -2 1 0 1 -1 4 0M64 350l0 -1M64 350l4 0 1 -1 48 0 0 -1 1 -9 0 -16 1 -4 0 -3 1 -2 0 -1 1 -1 419 0M540 313l0 -1 27 0M567 313l0 -1 7 0M574 338l0 -26"/>
<path stroke="blue" d="M574 338l1 4M575 352l0 -10M575 352l1 0M576 353l0 -1M576 353l49 0 0 -1 1 -3 0 -12 1 -1 0 -1 19 0M646 336l0 -1 7 0M653 344l0 -9M653 344l1 1M654 346l0 -1 18 0M672 346l0 -1 7 0M679 349l0 -4M679 349l1 1M680 352l0 -2M680 351l1 -1"/>
<path stroke="blue" d="M681 350l18 0M699 351l0 -1 26 0M725 351l0 -1 6 0 0 -2 1 0 0 -1M732 348l27 0M759 350l0 -2M759 350l1 -1 18 0M778 350l0 -1 26 0M804 350l0 -1 26 0 1 1 0 -1 86 0M917 352l0 -3M917 352l1 0 0 -18 1 -4 0 -7 1 -3 0 -4 1 -1 0 -2 1 0"/>
<path stroke="blue" d="M922 313l0 -1 14 0M936 313l0 -1 38 0"/>
<path stroke="#FFA500" d="M462 39l46 0"/>
<text stroke="none" fill="white" font-size="16" x="518" y="48">
x1.vsampled_p-x1.vsampled_n
</text>
<path stroke="#FFA500" d="M50 431l2 0 1 1 1 0 0 -1 63 0M117 439l0 -8M117 439l1 19M118 487l0 -29M118 487l1 7M119 498l0 -4M119 498l1 3M120 503l0 -2M120 503l1 1M121 505l0 -1M121 505l2 0M123 506l0 -1M123 506l416 0 0 -1 1 0M540 506l0 -1 6 0M546 506l0 -24"/>
<path stroke="#FFA500" d="M546 482l1 -5 0 -24 1 -2 0 -4 1 -1 0 -1 1 -1 17 0M567 445l0 -1 7 0 0 -26 1 -3 0 -10 1 -1 0 -1 17 0M593 404l0 -1 7 0M600 425l0 -22M600 425l1 2M601 430l0 -3 1 -1 0 -2 23 0 1 4M626 440l0 -12M626 440l2 2 18 0 0 -1M646 442l7 0"/>
<path stroke="#FFA500" d="M653 442l0 -10 1 -1 18 0M672 432l0 -1 7 0M679 432l0 -4 1 -1 0 -2M680 426l19 0M699 427l0 -1 7 0M706 430l0 -4M706 430l1 0 0 -1 24 0M731 431l0 -2M731 431l1 0M732 432l0 -1 27 0 0 -2M759 430l26 0 1 1 1 0 1 -1 16 0M804 431l0 -1"/>
<path stroke="#FFA500" d="M804 430l8 0M812 431l0 -1M812 431l105 0 0 -6 1 -1M918 472l0 -48M918 472l1 9M919 496l0 -15M919 496l1 4M920 502l0 -2M920 502l1 2M921 505l0 -1M921 505l2 0M923 506l0 -1M923 506l13 0 0 -1 14 0M950 506l0 -1M950 506l24 0"/>
<path stroke="green" d="M50 39l46 0"/>
<text stroke="none" fill="white" font-size="16" x="106" y="48">
x1.sw_sample-2
</text>
<path stroke="green" d="M50 613l1 0 1 -9 0 -21 1 -21M53 580l0 -24M53 580l1 30M54 613l0 -3M54 613l63 0M117 620l0 -172M117 449l422 0M539 614l0 -171M539 613l422 0M961 618l0 -170 1 1 12 0"/>
<path stroke="#FFC0C5" d="M462 55l46 0"/>
<text stroke="none" fill="white" font-size="16" x="518" y="64">
x1.comp_out_p+2
</text>
<path stroke="#FFC0C5" d="M50 249l1 0 1 -9 0 -22 1 -18 0 -4M53 198l1 5M54 249l0 -46M54 248l1 1 539 0M594 250l0 -167M594 85l14 0M608 250l0 -172M608 249l13 0 0 -166M621 85l13 0M634 249l0 -171M634 249l66 0M700 254l0 -171M700 85l13 0 0 -8 1 153M714 249l0 -19"/>
<path stroke="#FFC0C5" d="M714 249l13 0 0 -165M727 85l13 0M740 250l0 -170M740 249l40 0M780 250l0 -166M780 85l13 0M793 249l0 -167M793 249l13 0 1 -156 0 -9M807 85l12 0M819 249l0 -174M819 249l15 0 0 -165M834 85l11 0 0 -2 1 151M846 249l0 -15M846 249l128 0"/>
<path stroke="#A52A2A" d="M50 55l46 0"/>
<text stroke="none" fill="white" font-size="16" x="106" y="64">
x1.comp_out_n-2
</text>
<path stroke="#A52A2A" d="M50 613l1 0 1 -9 0 -22 1 -19M53 564l0 -3M53 564l1 6M54 613l0 -43M54 613l488 0M542 615l0 -168M542 449l13 0M555 613l0 -170M555 613l13 0 0 -166M568 449l13 0 0 -9 1 164M582 613l0 -9M582 613l65 0M647 615l0 -168M647 449l14 0"/>
<path stroke="#A52A2A" d="M661 613l0 -173M661 613l13 0 0 -166M674 449l13 0M687 613l0 -171M687 613l66 0 1 -30 0 -135M754 449l12 0M766 614l0 -174M766 613l94 0 0 -165 1 1 11 0M872 613l0 -174M872 613l14 0 1 -150 0 -15M887 449l11 0M898 613l0 -174"/>
<path stroke="#A52A2A" d="M898 613l14 0 1 -158 0 -7M913 449l12 0M925 613l0 -171M925 613l12 0 1 -19 0 -147M938 449l13 0M951 614l0 -171M951 613l23 0"/>
</svg>
