<?xml version="1.0" standalone="yes"?>
<!DOCTYPE svg PUBLIC "-//W3C//DTD SVG 1.1//EN"
 "http://www.w3.org/Graphics/SVG/1.1/DTD/svg11.dtd">
<svg xmlns="http://www.w3.org/2000/svg" version="1.1"
  width="100%" height="100%" viewBox="0 0 1024 768"
  style="fill: none; font-family: Helvetica;
 font: Helvetica;
">

<!-- Creator: NGspice -->

<rect x="0" y="0" width="1024" height="768" fill="black" stroke="none"/>
<text stroke="none" fill="white" font-size="16" x="358" y="752">
time
</text>
<text stroke="none" fill="white" font-size="16" x="10" y="16">
tran1: run553_vin-0.413526
</text>
<path stroke="white" d="M50 704l0 -637"/>
<text stroke="none" fill="white" font-size="16" x="35" y="728">
0.0
</text>
<path stroke="white" stroke-dasharray="1,2" d="M182 704l0 -637"/>
<text stroke="none" fill="white" font-size="16" x="157" y="728">
100.0
</text>
<path stroke="white" stroke-dasharray="1,2" d="M314 704l0 -637"/>
<text stroke="none" fill="white" font-size="16" x="289" y="728">
200.0
</text>
<path stroke="white" stroke-dasharray="1,2" d="M446 704l0 -637"/>
<text stroke="none" fill="white" font-size="16" x="421" y="728">
300.0
</text>
<path stroke="white" stroke-dasharray="1,2" d="M578 704l0 -637"/>
<text stroke="none" fill="white" font-size="16" x="553" y="728">
400.0
</text>
<path stroke="white" stroke-dasharray="1,2" d="M710 704l0 -637"/>
<text stroke="none" fill="white" font-size="16" x="685" y="728">
500.0
</text>
<path stroke="white" stroke-dasharray="1,2" d="M842 704l0 -637"/>
<text stroke="none" fill="white" font-size="16" x="817" y="728">
600.0
</text>
<path stroke="white" stroke-dasharray="1,2" d="M974 704l0 -637"/>
<text stroke="none" fill="white" font-size="16" x="949" y="728">
700.0
</text>
<text stroke="none" fill="white" font-size="16" x="614" y="752">
ns
</text>
<path stroke="white" stroke-dasharray="1,2" d="M50 704l924 0"/>
<text stroke="none" fill="white" font-size="16" x="8" y="712">
-2.5
</text>
<path stroke="white" stroke-dasharray="1,2" d="M50 655l924 0"/>
<text stroke="none" fill="white" font-size="16" x="8" y="663">
-2.0
</text>
<path stroke="white" stroke-dasharray="1,2" d="M50 606l924 0"/>
<text stroke="none" fill="white" font-size="16" x="8" y="614">
-1.5
</text>
<path stroke="white" stroke-dasharray="1,2" d="M50 557l924 0"/>
<text stroke="none" fill="white" font-size="16" x="8" y="565">
-1.0
</text>
<path stroke="white" stroke-dasharray="1,2" d="M50 508l924 0"/>
<text stroke="none" fill="white" font-size="16" x="8" y="516">
-0.5
</text>
<path stroke="white" d="M50 459l924 0"/>
<text stroke="none" fill="white" font-size="16" x="18" y="467">
0.0
</text>
<path stroke="white" stroke-dasharray="1,2" d="M50 410l924 0"/>
<text stroke="none" fill="white" font-size="16" x="18" y="418">
0.5
</text>
<path stroke="white" stroke-dasharray="1,2" d="M50 361l924 0"/>
<text stroke="none" fill="white" font-size="16" x="18" y="369">
1.0
</text>
<path stroke="white" stroke-dasharray="1,2" d="M50 312l924 0"/>
<text stroke="none" fill="white" font-size="16" x="18" y="320">
1.5
</text>
<path stroke="white" stroke-dasharray="1,2" d="M50 263l924 0"/>
<text stroke="none" fill="white" font-size="16" x="18" y="271">
2.0
</text>
<path stroke="white" stroke-dasharray="1,2" d="M50 214l924 0"/>
<text stroke="none" fill="white" font-size="16" x="18" y="222">
2.5
</text>
<path stroke="white" stroke-dasharray="1,2" d="M50 165l924 0"/>
<text stroke="none" fill="white" font-size="16" x="18" y="173">
3.0
</text>
<path stroke="white" stroke-dasharray="1,2" d="M50 116l924 0"/>
<text stroke="none" fill="white" font-size="16" x="18" y="124">
3.5
</text>
<path stroke="white" stroke-dasharray="1,2" d="M50 67l924 0"/>
<text stroke="none" fill="white" font-size="16" x="18" y="75">
4.0
</text>
<text stroke="none" fill="white" font-size="16" x="10" y="32">
     
</text>
<path stroke="red" d="M462 23l46 0"/>
<text stroke="none" fill="white" font-size="16" x="518" y="32">
x1.vsampled_p
</text>
<path stroke="red" d="M50 459l1 0 1 -7 0 -17 1 -15 0 -5 1 2M54 441l0 -42 1 -6 0 -14 1 -3 0 -2 1 -2 1 0 0 -1 59 0M117 379l0 -8M117 379l1 11M118 403l0 -13M118 403l1 3M119 408l0 -2M119 408l1 1M120 410l0 -1M120 410l1 1 419 0M540 412l0 -1M540 412l1 -1"/>
<path stroke="red" d="M541 411l5 0M546 412l0 -33 1 -6 0 -20 1 -2 0 -3 1 -1 0 -1 5 0 0 -1 12 0 1 1M567 347l0 -2M567 346l13 0 0 -1 13 0M593 347l0 -2M593 346l7 0M600 365l0 -20M600 365l1 3M601 374l0 -6M601 371l1 -1 0 -2 4 0 0 -1 13 0M619 368l0 -1"/>
<path stroke="red" d="M619 368l1 0 0 -1M620 368l5 0 0 -1 8 0M633 368l0 -1 13 0M646 368l0 -1M646 368l3 0 0 -1 4 0M653 368l0 -1M653 368l6 0 0 -1 13 0M672 368l0 -1 1 0M673 368l0 -1M673 368l13 0 0 -1 12 0 1 1 0 -1M699 368l6 0 1 -1M706 372l0 -5M706 371l1 0"/>
<path stroke="red" d="M707 371l0 -1 18 0M725 371l0 -1 26 0M751 371l0 -1 27 0M778 371l0 -1 7 0M785 371l0 -1M785 371l1 1 0 -1 131 0 0 -2 1 -2M918 397l0 -30M918 397l1 4M919 412l0 -11M919 412l1 1 1 -1 2 0 0 -1 13 0M936 412l0 -1 38 0"/>
<path stroke="blue" d="M50 23l46 0"/>
<text stroke="none" fill="white" font-size="16" x="106" y="32">
x1.vsampled_n
</text>
<path stroke="blue" d="M50 459l1 0 1 -7 0 -17 1 -16 0 -4 1 1M54 441l0 -42 1 -6 0 -14 1 -3 0 -2 1 -2 1 0 0 -1 59 0 0 -1 1 -10 0 -18 1 -4 0 -3 1 -2 0 -1 2 -2 417 0M539 331l0 -1M539 331l1 0 0 -1M540 331l14 0 0 -1 12 0 1 1M567 332l0 -1 7 0M574 359l0 -29"/>
<path stroke="blue" d="M574 359l1 4M575 373l0 -10M575 373l1 1M576 375l0 -1M576 375l4 0 0 -1 13 0M593 375l0 -1M593 375l13 0 0 -1 1 0M607 375l0 -1M607 375l12 0 0 -1M619 375l1 0 0 -1M620 375l5 0 0 -7 1 -3 0 -8 1 0 0 -1 1 -1 18 0M646 356l0 -1 7 0"/>
<path stroke="blue" d="M653 364l0 -9M653 364l1 2M654 367l0 -1M654 367l1 -1 17 0M672 367l0 -1 7 0M679 372l0 -6M679 372l1 0M680 373l0 -1 51 0 1 -1 0 -2 19 0M751 370l0 -1M751 370l1 0 0 -1 7 0M759 372l0 -3M759 371l54 0M813 372l0 -1 25 0 0 -1M838 371l79 0"/>
<path stroke="blue" d="M917 373l0 -2M917 373l1 -1 0 -17 1 -3 0 -8 1 -4 0 -6 1 -2 1 0 0 -1 1 0 0 -1 13 0M936 332l0 -2M936 331l14 0 0 -1 24 0"/>
<path stroke="#FFA500" d="M462 39l46 0"/>
<text stroke="none" fill="white" font-size="16" x="518" y="48">
x1.vsampled_p-x1.vsampled_n
</text>
<path stroke="#FFA500" d="M50 459l2 0 1 1 1 0 0 -1 63 0M117 468l0 -9M117 468l1 21M118 520l0 -31M118 520l1 7M119 531l0 -4M119 531l1 4M120 537l0 -2M120 537l1 2 1 1 418 0 0 -1M540 540l6 0 0 -33 1 -6 0 -20 1 -2 0 -2 1 -2 0 -1 18 0M567 475l0 -1 7 0"/>
<path stroke="#FFA500" d="M574 474l0 -28 1 -4 0 -11 1 0 0 -1 4 0 0 -1M580 430l13 0M593 431l0 -1 7 0M600 450l0 -20M600 450l1 2M601 459l0 -7M601 456l1 -2 0 -2 23 0M625 458l0 -6M625 458l1 3M626 469l0 -8M626 469l1 1M627 471l0 -1M627 471l19 0M646 472l0 -1"/>
<path stroke="#FFA500" d="M646 471l7 0 0 -8 1 -2 0 -2M654 460l25 0 0 -5 1 -1M680 455l0 -2M680 455l26 0M706 459l0 -4M706 459l2 -2 17 0M725 458l0 -1 6 0 1 1M732 461l0 -3M732 460l27 0 0 -3M759 458l19 0M778 459l0 -1 7 0M785 460l0 -2M785 460l1 0 0 -1"/>
<path stroke="#FFA500" d="M786 459l27 0 0 -1M813 459l104 0 0 -5 1 1M918 501l0 -46M918 501l1 7M919 527l0 -19M919 527l1 6M920 537l0 -4M920 537l1 2 1 0M922 540l0 -1M922 540l14 0 0 -1M936 540l38 0"/>
<path stroke="green" d="M50 39l46 0"/>
<text stroke="none" fill="white" font-size="16" x="106" y="48">
x1.sw_sample-2
</text>
<path stroke="green" d="M50 655l1 0 1 -10 0 -23 1 -21M53 620l0 -26M53 620l1 32M54 655l0 -3M54 655l63 0M117 662l0 -184 1 0M118 479l0 -1M118 479l421 0M539 656l0 -184M539 655l422 0M961 660l0 -182 1 0M962 479l0 -1M962 479l12 0"/>
<path stroke="#FFC0C5" d="M462 55l46 0"/>
<text stroke="none" fill="white" font-size="16" x="518" y="64">
x1.comp_out_p+2
</text>
<path stroke="#FFC0C5" d="M50 263l1 0 1 -10 0 -23 1 -20 0 -4M53 209l1 4M54 263l0 -50M54 262l1 1 539 0 0 -178M594 86l1 1 13 0M608 264l0 -184M608 263l13 0M621 268l0 -183M621 87l13 0M634 264l0 -182M634 263l66 0 0 -178M700 87l13 0 0 -10 1 175M714 264l0 -12"/>
<path stroke="#FFC0C5" d="M714 263l13 0 0 -177 1 1 12 0M740 263l0 -179M740 263l40 0 0 -177M780 87l13 0M793 263l0 -179M793 263l41 0 0 -177M834 87l11 0 0 -3M845 85l1 162M846 263l0 -16M846 263l128 0"/>
<path stroke="#A52A2A" d="M50 55l46 0"/>
<text stroke="none" fill="white" font-size="16" x="106" y="64">
x1.comp_out_n-2
</text>
<path stroke="#A52A2A" d="M50 655l1 0 1 -10 0 -24 1 -20M53 602l0 -3M53 602l1 7M54 655l0 -46M54 655l487 0 1 1 0 -180M542 479l13 0M555 655l0 -188M555 655l13 0 0 -178M568 479l13 0 0 -10 1 176M582 655l0 -10M582 655l12 0M594 656l0 -1 53 0 0 -179M647 479l14 0"/>
<path stroke="#A52A2A" d="M661 655l0 -185M661 655l13 0M674 661l0 -185M674 479l13 0M687 655l0 -186M687 655l66 0 0 -177 1 0M754 479l0 -1M754 479l12 0M766 656l0 -183M766 655l41 0 0 -177 1 0M808 479l0 -1M808 479l11 0M819 655l0 -180M819 655l41 0 0 -177"/>
<path stroke="#A52A2A" d="M860 479l12 0M872 655l0 -188M872 655l14 0 0 -170 1 -7M887 479l0 -1M887 479l11 0M898 655l0 -188M898 655l14 0 1 -170 0 -7M913 479l12 0M925 655l0 -185M925 655l12 0 1 -56 0 -122M938 479l13 0M951 656l0 -184M951 655l23 0"/>
</svg>
