<?xml version="1.0" standalone="yes"?>
<!DOCTYPE svg PUBLIC "-//W3C//DTD SVG 1.1//EN"
 "http://www.w3.org/Graphics/SVG/1.1/DTD/svg11.dtd">
<svg xmlns="http://www.w3.org/2000/svg" version="1.1"
  width="100%" height="100%" viewBox="0 0 1024 768"
  style="fill: none; font-family: Helvetica;
 font: Helvetica;
">

<!-- Creator: NGspice -->

<rect x="0" y="0" width="1024" height="768" fill="black" stroke="none"/>
<text stroke="none" fill="white" font-size="16" x="358" y="752">
time
</text>
<text stroke="none" fill="white" font-size="16" x="10" y="16">
tran1: run130_vin-0.785303
</text>
<path stroke="white" d="M50 704l0 -637"/>
<text stroke="none" fill="white" font-size="16" x="35" y="728">
0.0
</text>
<path stroke="white" stroke-dasharray="1,2" d="M182 704l0 -637"/>
<text stroke="none" fill="white" font-size="16" x="157" y="728">
100.0
</text>
<path stroke="white" stroke-dasharray="1,2" d="M314 704l0 -637"/>
<text stroke="none" fill="white" font-size="16" x="289" y="728">
200.0
</text>
<path stroke="white" stroke-dasharray="1,2" d="M446 704l0 -637"/>
<text stroke="none" fill="white" font-size="16" x="421" y="728">
300.0
</text>
<path stroke="white" stroke-dasharray="1,2" d="M578 704l0 -637"/>
<text stroke="none" fill="white" font-size="16" x="553" y="728">
400.0
</text>
<path stroke="white" stroke-dasharray="1,2" d="M710 704l0 -637"/>
<text stroke="none" fill="white" font-size="16" x="685" y="728">
500.0
</text>
<path stroke="white" stroke-dasharray="1,2" d="M842 704l0 -637"/>
<text stroke="none" fill="white" font-size="16" x="817" y="728">
600.0
</text>
<path stroke="white" stroke-dasharray="1,2" d="M974 704l0 -637"/>
<text stroke="none" fill="white" font-size="16" x="949" y="728">
700.0
</text>
<text stroke="none" fill="white" font-size="16" x="614" y="752">
ns
</text>
<path stroke="white" stroke-dasharray="1,2" d="M50 704l924 0"/>
<text stroke="none" fill="white" font-size="16" x="8" y="712">
-3.0
</text>
<path stroke="white" stroke-dasharray="1,2" d="M50 613l924 0"/>
<text stroke="none" fill="white" font-size="16" x="8" y="621">
-2.0
</text>
<path stroke="white" stroke-dasharray="1,2" d="M50 522l924 0"/>
<text stroke="none" fill="white" font-size="16" x="8" y="530">
-1.0
</text>
<path stroke="white" d="M50 431l924 0"/>
<text stroke="none" fill="white" font-size="16" x="18" y="439">
0.0
</text>
<path stroke="white" stroke-dasharray="1,2" d="M50 340l924 0"/>
<text stroke="none" fill="white" font-size="16" x="18" y="348">
1.0
</text>
<path stroke="white" stroke-dasharray="1,2" d="M50 249l924 0"/>
<text stroke="none" fill="white" font-size="16" x="18" y="257">
2.0
</text>
<path stroke="white" stroke-dasharray="1,2" d="M50 158l924 0"/>
<text stroke="none" fill="white" font-size="16" x="18" y="166">
3.0
</text>
<path stroke="white" stroke-dasharray="1,2" d="M50 67l924 0"/>
<text stroke="none" fill="white" font-size="16" x="18" y="75">
4.0
</text>
<text stroke="none" fill="white" font-size="16" x="10" y="32">
     
</text>
<path stroke="red" d="M462 23l46 0"/>
<text stroke="none" fill="white" font-size="16" x="518" y="32">
x1.vsampled_p
</text>
<path stroke="red" d="M50 431l1 0 1 -7 0 -15 1 -14 0 -5 1 2M54 414l0 -38 1 -5 0 -13 1 -3 0 -3 1 -1 0 -1 2 0 1 -1 3 0 1 1 3 0 1 -1 49 0M117 370l0 -21M117 370l1 17M118 408l0 -21M118 408l1 3M119 416l0 -5M119 416l1 2M120 419l0 -1M120 419l1 1 2 0"/>
<path stroke="red" d="M123 420l1 1 417 0 0 -1M541 421l5 0 0 -25 1 -2 0 -24 1 -6 1 -3 0 -1 1 0 1 -1 16 0M567 360l0 -1 26 0M593 360l0 -1 26 0M619 360l0 -1M619 360l1 0 0 -1 5 0 0 -13 1 -1 0 -5 1 0M627 341l0 -1M627 341l1 0 1 1 4 0 0 -1 13 0M646 342l0 -1"/>
<path stroke="red" d="M646 342l13 0 0 -1 13 0M672 342l0 -1M672 342l7 0M679 349l0 -7M679 349l1 1 0 -3 6 0 0 -1M686 347l20 0M706 351l0 -4M706 351l1 -1 0 -1 18 0M725 350l0 -1 26 0M751 350l0 -1 27 0M778 350l0 -1 26 0M804 350l0 -1 9 0M813 350l0 -1"/>
<path stroke="red" d="M813 350l1 0 0 -1 16 0 1 1 0 -1 26 0M857 350l0 -1 26 0M883 350l0 -1 27 0M910 350l0 -1 8 0M918 350l0 -2M918 349l1 8M919 431l0 -74M919 429l1 -1 0 -3 1 -2 0 -1 1 0 0 -1 40 0 0 -1M962 421l12 0"/>
<path stroke="blue" d="M50 23l46 0"/>
<text stroke="none" fill="white" font-size="16" x="106" y="32">
x1.vsampled_n
</text>
<path stroke="blue" d="M50 431l1 0 1 -7 0 -16 1 -14 0 -5 1 2M54 414l0 -38 1 -5 0 -13 1 -3 0 -3 1 -1 0 -1 2 0 1 -1 3 0 1 1 4 0 1 -1 48 0 0 -1 1 -12 0 -34 1 -6 0 -10 1 -3 0 -2 1 -2 0 -1 419 0M540 279l0 -1 14 0 0 -1M554 278l13 0M567 279l0 -1 6 0"/>
<path stroke="blue" d="M573 278l1 2M574 304l0 -24M574 304l1 8M575 318l0 -6M575 318l1 1 4 0 0 -1M580 319l13 0M593 320l0 -1 7 0M600 333l0 -14M600 333l1 4M601 340l0 -3M601 340l1 0 0 -1 17 0M619 340l0 -1 27 0M646 340l0 -1 7 0M653 346l0 -7M653 346l1 3"/>
<path stroke="blue" d="M654 350l0 -1M654 350l1 0 0 -1 17 0M672 350l0 -1 26 0 1 1 0 -1 26 0M725 350l0 -1 7 0 1 -1 0 -1 18 0M751 348l0 -1 8 0M759 349l0 -2M759 349l6 0 0 -1 13 0M778 349l0 -1M778 349l140 0M918 350l0 -12 1 -5 0 -41 1 -3 0 -5 1 -2"/>
<path stroke="blue" d="M921 282l0 -3 1 0 0 -1 1 0 0 -1M923 278l13 0M936 279l0 -1 14 0 0 -1M950 278l24 0"/>
<path stroke="#FFA500" d="M462 39l46 0"/>
<text stroke="none" fill="white" font-size="16" x="518" y="48">
x1.vsampled_p-x1.vsampled_n
</text>
<path stroke="#FFA500" d="M50 431l2 0M52 432l0 -1M52 432l2 0 0 -1 63 0M117 453l0 -22M117 453l1 29M118 536l0 -54M118 536l1 9M119 561l0 -16M119 561l1 4M120 569l0 -4M120 569l1 2M121 573l0 -2M121 573l1 0 1 1 417 0 0 -1M540 574l1 0 0 -1M541 574l5 0"/>
<path stroke="#FFA500" d="M546 574l0 -25 1 -2 0 -24 1 -6 1 -3 0 -1 1 0 1 -1 3 0M554 513l0 -1M554 513l12 0 1 -1 0 -1M567 512l6 0 1 -2 0 -23 1 -9 0 -6 1 -1 4 0M580 472l0 -1M580 472l13 0 0 -1 1 0M594 472l0 -1 6 0 0 -14 1 -4 0 -3 1 1 23 0 0 -13 1 -2"/>
<path stroke="#FFA500" d="M626 436l0 -4 1 0M627 433l0 -1M627 433l19 0M646 434l0 -1 7 0 0 -7 1 -2 0 -1 18 0M672 424l0 -1 7 0M679 430l0 -7M679 430l1 1M680 432l0 -4 26 0M706 432l0 -4M706 432l1 0 0 -1 25 0 1 1M733 433l0 -1M733 433l26 0 0 -2M759 432l26 0"/>
<path stroke="#FFA500" d="M785 432l1 -1 27 0M813 432l0 -1 18 0M831 432l0 -1 7 0 0 -1M838 431l80 0M918 443l0 -13M918 443l1 12M919 568l0 -113M919 568l1 2M920 572l0 -2M920 572l1 1 1 0M922 574l0 -1M922 574l14 0 0 -2M936 574l38 0"/>
<path stroke="green" d="M50 39l46 0"/>
<text stroke="none" fill="white" font-size="16" x="106" y="48">
x1.sw_sample-2
</text>
<path stroke="green" d="M50 613l1 0 1 -9 0 -21 1 -21M53 579l0 -23M53 579l1 31M54 613l0 -3M54 613l63 0M117 620l0 -172M117 449l422 0M539 614l0 -171M539 613l422 0M961 618l0 -170 1 1 12 0"/>
<path stroke="#FFC0C5" d="M462 55l46 0"/>
<text stroke="none" fill="white" font-size="16" x="518" y="64">
x1.comp_out_p+2
</text>
<path stroke="#FFC0C5" d="M50 249l1 0 1 -9 0 -22 1 -18 0 -4M53 198l1 5M54 249l0 -46M54 247l1 2 618 0M673 250l0 -78 1 -77 0 -11M674 85l13 0M687 249l0 -172M687 249l13 0M700 250l0 -167M700 85l13 0 0 -10 1 150M714 249l0 -24M714 249l14 0 0 -165 1 1"/>
<path stroke="#FFC0C5" d="M729 85l11 0M740 250l0 -172M740 249l67 0 1 -150 0 -15M808 85l11 0M819 249l0 -173M819 249l155 0"/>
<path stroke="#A52A2A" d="M50 55l46 0"/>
<text stroke="none" fill="white" font-size="16" x="106" y="64">
x1.comp_out_n-2
</text>
<path stroke="#A52A2A" d="M50 613l1 0 1 -9 0 -22 1 -19M53 564l0 -3M53 564l1 6M54 613l0 -43M54 613l488 0 0 -165M542 449l13 0M555 613l0 -172M555 613l13 0 0 -165M568 449l13 0 0 -9 1 165M582 614l0 -9M582 613l12 0M594 616l0 -169M594 449l14 0M608 613l0 -172"/>
<path stroke="#A52A2A" d="M608 613l13 0M621 614l0 -166M621 449l13 0M634 613l0 -173M634 613l13 0M647 615l0 -168M647 449l14 0M661 613l0 -174M661 613l92 0 0 -165M753 449l13 0M766 613l0 -172M766 613l14 0 0 -165M780 449l13 0M793 613l0 -172M793 613l40 0"/>
<path stroke="#A52A2A" d="M833 613l1 -153 0 -12M834 449l11 0 0 -8 1 154M846 613l0 -18M846 613l14 0 0 -164 12 0M872 613l0 -172M872 613l14 0 1 -155 0 -9 11 0M898 613l0 -172M898 613l15 0 0 -164 1 -1M914 449l0 -1M914 449l11 0M925 613l0 -173M925 613l12 0"/>
<path stroke="#A52A2A" d="M937 613l1 -55 0 -110M938 449l13 0M951 613l0 -172M951 613l23 0"/>
</svg>
