<?xml version="1.0" standalone="yes"?>
<!DOCTYPE svg PUBLIC "-//W3C//DTD SVG 1.1//EN"
 "http://www.w3.org/Graphics/SVG/1.1/DTD/svg11.dtd">
<svg xmlns="http://www.w3.org/2000/svg" version="1.1"
  width="100%" height="100%" viewBox="0 0 1024 768"
  style="fill: none; font-family: Helvetica;
 font: Helvetica;
">

<!-- Creator: NGspice -->

<rect x="0" y="0" width="1024" height="768" fill="black" stroke="none"/>
<text stroke="none" fill="white" font-size="16" x="358" y="752">
time
</text>
<text stroke="none" fill="white" font-size="16" x="10" y="16">
tran1: run135_vin-0.780908
</text>
<path stroke="white" d="M50 704l0 -637"/>
<text stroke="none" fill="white" font-size="16" x="35" y="728">
0.0
</text>
<path stroke="white" stroke-dasharray="1,2" d="M182 704l0 -637"/>
<text stroke="none" fill="white" font-size="16" x="157" y="728">
100.0
</text>
<path stroke="white" stroke-dasharray="1,2" d="M314 704l0 -637"/>
<text stroke="none" fill="white" font-size="16" x="289" y="728">
200.0
</text>
<path stroke="white" stroke-dasharray="1,2" d="M446 704l0 -637"/>
<text stroke="none" fill="white" font-size="16" x="421" y="728">
300.0
</text>
<path stroke="white" stroke-dasharray="1,2" d="M578 704l0 -637"/>
<text stroke="none" fill="white" font-size="16" x="553" y="728">
400.0
</text>
<path stroke="white" stroke-dasharray="1,2" d="M710 704l0 -637"/>
<text stroke="none" fill="white" font-size="16" x="685" y="728">
500.0
</text>
<path stroke="white" stroke-dasharray="1,2" d="M842 704l0 -637"/>
<text stroke="none" fill="white" font-size="16" x="817" y="728">
600.0
</text>
<path stroke="white" stroke-dasharray="1,2" d="M974 704l0 -637"/>
<text stroke="none" fill="white" font-size="16" x="949" y="728">
700.0
</text>
<text stroke="none" fill="white" font-size="16" x="614" y="752">
ns
</text>
<path stroke="white" stroke-dasharray="1,2" d="M50 704l924 0"/>
<text stroke="none" fill="white" font-size="16" x="8" y="712">
-3.0
</text>
<path stroke="white" stroke-dasharray="1,2" d="M50 613l924 0"/>
<text stroke="none" fill="white" font-size="16" x="8" y="621">
-2.0
</text>
<path stroke="white" stroke-dasharray="1,2" d="M50 522l924 0"/>
<text stroke="none" fill="white" font-size="16" x="8" y="530">
-1.0
</text>
<path stroke="white" d="M50 431l924 0"/>
<text stroke="none" fill="white" font-size="16" x="18" y="439">
0.0
</text>
<path stroke="white" stroke-dasharray="1,2" d="M50 340l924 0"/>
<text stroke="none" fill="white" font-size="16" x="18" y="348">
1.0
</text>
<path stroke="white" stroke-dasharray="1,2" d="M50 249l924 0"/>
<text stroke="none" fill="white" font-size="16" x="18" y="257">
2.0
</text>
<path stroke="white" stroke-dasharray="1,2" d="M50 158l924 0"/>
<text stroke="none" fill="white" font-size="16" x="18" y="166">
3.0
</text>
<path stroke="white" stroke-dasharray="1,2" d="M50 67l924 0"/>
<text stroke="none" fill="white" font-size="16" x="18" y="75">
4.0
</text>
<text stroke="none" fill="white" font-size="16" x="10" y="32">
     
</text>
<path stroke="red" d="M462 23l46 0"/>
<text stroke="none" fill="white" font-size="16" x="518" y="32">
x1.vsampled_p
</text>
<path stroke="red" d="M50 431l1 0 1 -7 0 -15 1 -14 0 -5 1 2M54 414l0 -38 1 -5 0 -13 1 -3 0 -3 1 -1 0 -1 2 0 1 -1 3 0 1 1 3 0 1 -1 49 0M117 370l0 -21M117 370l1 17M118 407l0 -20M118 407l1 3M119 416l0 -6M119 416l1 1M120 418l0 -1M120 418l1 1M121 420l0 -1"/>
<path stroke="red" d="M121 420l419 0M540 421l0 -1 6 0 0 -21 1 -2 0 -26 1 -6 1 -4 0 -1 1 -1 75 0 0 -10 1 -3 0 -6 1 0M627 341l0 -1M627 341l19 0M646 342l0 -1 26 0M672 342l0 -1 7 0M679 349l0 -8M679 349l1 1 0 -4 19 0M699 347l0 -1 7 0M706 350l0 -4"/>
<path stroke="red" d="M706 350l1 -1 5 0 0 -1M712 349l26 0 0 -1M738 349l27 0 0 -1M765 349l21 0M786 350l0 -1 18 0M804 350l0 -1 26 0 1 1 0 -1 26 0M857 350l0 -1 26 0M883 350l0 -1 27 0M910 350l0 -1 8 0M918 413l0 -65M918 413l1 9M919 430l0 -8M919 427l1 -1"/>
<path stroke="red" d="M920 426l0 -3 1 -1 0 -1 1 0 0 -1 14 0M936 421l0 -1 38 0"/>
<path stroke="blue" d="M50 23l46 0"/>
<text stroke="none" fill="white" font-size="16" x="106" y="32">
x1.vsampled_n
</text>
<path stroke="blue" d="M50 431l1 0 1 -7 0 -16 1 -14 0 -5 1 2M54 414l0 -38 1 -5 0 -13 1 -3 0 -3 1 -1 0 -1 2 0 1 -1 3 0 1 1 4 0 1 -1 48 0 0 -1 1 -12 0 -34 1 -6 0 -10 1 -3 0 -2 1 -1 0 -1 1 -1 418 0M540 279l0 -1 27 0M567 280l0 -2 6 0 1 5M574 301l0 -18"/>
<path stroke="blue" d="M574 301l1 7M575 317l0 -9M575 317l1 2 17 0M593 320l0 -1 7 0M600 333l0 -14M600 333l1 4M601 341l0 -4M601 340l5 0 0 -1 1 0M607 340l0 -1M607 340l26 0 0 -1M633 340l20 0M653 348l0 -8M653 348l1 2 78 0 0 -3M732 348l6 0 0 -1 1 1"/>
<path stroke="blue" d="M739 348l20 0M759 350l0 -2M759 349l53 0M812 350l0 -1M812 350l1 -1 105 0M918 350l0 -34 1 -4 0 -23 1 -3 0 -4 1 -1 0 -2 2 0 0 -1 13 0M936 280l0 -2 38 0"/>
<path stroke="#FFA500" d="M462 39l46 0"/>
<text stroke="none" fill="white" font-size="16" x="518" y="48">
x1.vsampled_p-x1.vsampled_n
</text>
<path stroke="#FFA500" d="M50 431l2 0M52 432l0 -1M52 432l2 0 0 -1 63 0M117 453l0 -22M117 453l1 28M118 536l0 -55M118 536l1 9M119 560l0 -15M119 560l1 5M120 568l0 -3M120 568l1 2M121 572l0 -2M121 572l1 0 1 1 417 0 0 -1M540 573l6 0 0 -21 1 -3 0 -25"/>
<path stroke="#FFA500" d="M547 524l1 -7 1 -3 0 -2 18 0 0 -2M567 512l6 0 1 -5 0 -18 1 -7 0 -9 1 -2 17 0 0 -1M593 471l7 0 0 -14 1 -4 0 -4M601 450l24 0 0 -10 1 -2 0 -7 1 0M627 432l0 -1M627 432l19 0M646 433l0 -1 7 0M653 433l0 -9 1 -2 18 0M672 423l0 -1"/>
<path stroke="#FFA500" d="M672 422l7 0M679 430l0 -8M679 430l1 1 0 -3 1 -1 18 0M699 428l0 -1 7 0M706 432l0 -5M706 431l1 -1 25 0M732 433l0 -3M732 432l27 0 0 -2M759 431l27 0M786 432l0 -1M786 432l5 0 0 -1 1 0M792 432l0 -1M792 432l12 0 0 -1 1 0M805 432l0 -1"/>
<path stroke="#FFA500" d="M805 432l7 0 0 -1 26 0 0 -1M838 431l80 0M918 528l0 -98M918 528l1 13M919 569l0 -28M919 569l1 2M920 572l0 -1M920 572l1 0M921 573l0 -1M921 573l15 0 0 -1M936 573l38 0"/>
<path stroke="green" d="M50 39l46 0"/>
<text stroke="none" fill="white" font-size="16" x="106" y="48">
x1.sw_sample-2
</text>
<path stroke="green" d="M50 613l1 0 1 -9 0 -21 1 -21M53 579l0 -23M53 579l1 31M54 613l0 -3M54 613l63 0M117 620l0 -172M117 449l422 0M539 614l0 -171M539 613l422 0M961 618l0 -170 1 1 12 0"/>
<path stroke="#FFC0C5" d="M462 55l46 0"/>
<text stroke="none" fill="white" font-size="16" x="518" y="64">
x1.comp_out_p+2
</text>
<path stroke="#FFC0C5" d="M50 249l1 0 1 -9 0 -22 1 -18 0 -4M53 198l1 5M54 249l0 -46M54 247l1 2 618 0M673 251l0 -2M673 251l1 -84 0 -84M674 85l13 0M687 249l0 -171M687 249l13 0 0 -166M700 85l13 0 0 -8 1 162M714 250l0 -11M714 249l13 0 0 -165 1 1"/>
<path stroke="#FFC0C5" d="M728 85l12 0M740 249l0 -172M740 249l40 0 0 -164 1 -1M781 85l0 -1M781 85l12 0M793 250l0 -174M793 249l67 0 0 -165 1 1 11 0M872 250l0 -174M872 249l14 0 1 -147 0 -18M887 85l11 0M898 250l0 -174M898 249l15 0 0 -165M913 85l12 0"/>
<path stroke="#FFC0C5" d="M925 250l0 -170M925 249l49 0"/>
<path stroke="#A52A2A" d="M50 55l46 0"/>
<text stroke="none" fill="white" font-size="16" x="106" y="64">
x1.comp_out_n-2
</text>
<path stroke="#A52A2A" d="M50 613l1 0 1 -9 0 -22 1 -19M53 564l0 -3M53 564l1 6M54 613l0 -43M54 613l487 0 1 1 0 -167M542 449l13 0M555 613l0 -173M555 613l13 0M568 617l0 -170M568 449l13 0 0 -9 1 165M582 614l0 -9M582 613l12 0M594 614l0 -166M594 449l14 0"/>
<path stroke="#A52A2A" d="M608 613l0 -172M608 613l13 0M621 614l0 -167M621 449l13 0M634 613l0 -173M634 613l13 0M647 614l0 -166M647 449l14 0M661 613l0 -169M661 613l92 0 0 -166M753 449l13 0M766 613l0 -173M766 613l41 0 0 -165M807 449l12 0M819 613l0 -168"/>
<path stroke="#A52A2A" d="M819 613l15 0 0 -164 11 0 0 -10 1 153M846 613l0 -21M846 613l91 0 1 -60 0 -105M938 449l13 0M951 613l0 -172M951 613l23 0"/>
</svg>
