<?xml version="1.0" standalone="yes"?>
<!DOCTYPE svg PUBLIC "-//W3C//DTD SVG 1.1//EN"
 "http://www.w3.org/Graphics/SVG/1.1/DTD/svg11.dtd">
<svg xmlns="http://www.w3.org/2000/svg" version="1.1"
  width="100%" height="100%" viewBox="0 0 1024 768"
  style="fill: none; font-family: Helvetica;
 font: Helvetica;
">

<!-- Creator: NGspice -->

<rect x="0" y="0" width="1024" height="768" fill="black" stroke="none"/>
<text stroke="none" fill="white" font-size="16" x="358" y="752">
time
</text>
<text stroke="none" fill="white" font-size="16" x="10" y="16">
tran1: run134_vin-0.781787
</text>
<path stroke="white" d="M50 704l0 -637"/>
<text stroke="none" fill="white" font-size="16" x="35" y="728">
0.0
</text>
<path stroke="white" stroke-dasharray="1,2" d="M182 704l0 -637"/>
<text stroke="none" fill="white" font-size="16" x="157" y="728">
100.0
</text>
<path stroke="white" stroke-dasharray="1,2" d="M314 704l0 -637"/>
<text stroke="none" fill="white" font-size="16" x="289" y="728">
200.0
</text>
<path stroke="white" stroke-dasharray="1,2" d="M446 704l0 -637"/>
<text stroke="none" fill="white" font-size="16" x="421" y="728">
300.0
</text>
<path stroke="white" stroke-dasharray="1,2" d="M578 704l0 -637"/>
<text stroke="none" fill="white" font-size="16" x="553" y="728">
400.0
</text>
<path stroke="white" stroke-dasharray="1,2" d="M710 704l0 -637"/>
<text stroke="none" fill="white" font-size="16" x="685" y="728">
500.0
</text>
<path stroke="white" stroke-dasharray="1,2" d="M842 704l0 -637"/>
<text stroke="none" fill="white" font-size="16" x="817" y="728">
600.0
</text>
<path stroke="white" stroke-dasharray="1,2" d="M974 704l0 -637"/>
<text stroke="none" fill="white" font-size="16" x="949" y="728">
700.0
</text>
<text stroke="none" fill="white" font-size="16" x="614" y="752">
ns
</text>
<path stroke="white" stroke-dasharray="1,2" d="M50 704l924 0"/>
<text stroke="none" fill="white" font-size="16" x="8" y="712">
-2.5
</text>
<path stroke="white" stroke-dasharray="1,2" d="M50 655l924 0"/>
<text stroke="none" fill="white" font-size="16" x="8" y="663">
-2.0
</text>
<path stroke="white" stroke-dasharray="1,2" d="M50 606l924 0"/>
<text stroke="none" fill="white" font-size="16" x="8" y="614">
-1.5
</text>
<path stroke="white" stroke-dasharray="1,2" d="M50 557l924 0"/>
<text stroke="none" fill="white" font-size="16" x="8" y="565">
-1.0
</text>
<path stroke="white" stroke-dasharray="1,2" d="M50 508l924 0"/>
<text stroke="none" fill="white" font-size="16" x="8" y="516">
-0.5
</text>
<path stroke="white" d="M50 459l924 0"/>
<text stroke="none" fill="white" font-size="16" x="18" y="467">
0.0
</text>
<path stroke="white" stroke-dasharray="1,2" d="M50 410l924 0"/>
<text stroke="none" fill="white" font-size="16" x="18" y="418">
0.5
</text>
<path stroke="white" stroke-dasharray="1,2" d="M50 361l924 0"/>
<text stroke="none" fill="white" font-size="16" x="18" y="369">
1.0
</text>
<path stroke="white" stroke-dasharray="1,2" d="M50 312l924 0"/>
<text stroke="none" fill="white" font-size="16" x="18" y="320">
1.5
</text>
<path stroke="white" stroke-dasharray="1,2" d="M50 263l924 0"/>
<text stroke="none" fill="white" font-size="16" x="18" y="271">
2.0
</text>
<path stroke="white" stroke-dasharray="1,2" d="M50 214l924 0"/>
<text stroke="none" fill="white" font-size="16" x="18" y="222">
2.5
</text>
<path stroke="white" stroke-dasharray="1,2" d="M50 165l924 0"/>
<text stroke="none" fill="white" font-size="16" x="18" y="173">
3.0
</text>
<path stroke="white" stroke-dasharray="1,2" d="M50 116l924 0"/>
<text stroke="none" fill="white" font-size="16" x="18" y="124">
3.5
</text>
<path stroke="white" stroke-dasharray="1,2" d="M50 67l924 0"/>
<text stroke="none" fill="white" font-size="16" x="18" y="75">
4.0
</text>
<text stroke="none" fill="white" font-size="16" x="10" y="32">
     
</text>
<path stroke="red" d="M462 23l46 0"/>
<text stroke="none" fill="white" font-size="16" x="518" y="32">
x1.vsampled_p
</text>
<path stroke="red" d="M50 459l1 0 1 -7 0 -17 1 -15 0 -5 1 2M54 441l0 -42 1 -5 0 -14 1 -3 0 -3 1 -1 0 -1 1 -1 59 0M117 393l0 -22M117 393l1 18M118 433l0 -22M118 433l1 4M119 442l0 -5M119 442l1 2M120 445l0 -1M120 445l1 1M121 447l0 -1M121 447l418 0"/>
<path stroke="red" d="M539 448l0 -1M539 448l1 0 1 -1M541 448l0 -1M541 448l5 0 0 -23 1 -2 0 -26 1 -8 0 -5 2 -2 4 0 0 -1 12 0 1 1 0 -1M567 382l13 0 0 -1 13 0M593 382l0 -1M593 382l13 0 0 -1 13 0M619 382l0 -1M619 382l1 0 0 -1M620 382l5 0 0 -14 1 -1"/>
<path stroke="red" d="M626 367l0 -6 1 0M627 362l0 -1M627 362l19 0M646 363l0 -1 26 0M672 363l0 -1 7 0M679 370l0 -8M679 370l1 1M680 372l0 -4 6 0 0 -1M686 368l20 0M706 372l0 -4M706 372l1 -1 5 0 0 -1 13 0M725 371l0 -1M725 371l13 0 0 -1 13 0M751 371l0 -1"/>
<path stroke="red" d="M751 371l1 0 0 -1M752 371l13 0 0 -1 13 0M778 371l0 -1M778 371l10 0M788 372l0 -1M788 372l1 -1 15 0M804 372l0 -1 27 0M831 372l0 -1 7 0 0 -1M838 371l80 0M918 420l0 -50M918 420l1 5M919 458l0 -33M919 455l1 -1 0 -3 1 -1 0 -2 8 0"/>
<path stroke="red" d="M929 448l1 -1 6 0M936 448l0 -1M936 448l14 0 0 -1 1 0M951 448l0 -1 23 0"/>
<path stroke="blue" d="M50 23l46 0"/>
<text stroke="none" fill="white" font-size="16" x="106" y="32">
x1.vsampled_n
</text>
<path stroke="blue" d="M50 459l1 0 1 -7 0 -17 1 -16 0 -5 1 2M54 441l0 -42 1 -5 0 -14 1 -3 0 -3 1 -1 0 -1 1 -1 59 0 0 -2 1 -12 0 -37 1 -6 0 -11 1 -3 0 -2 1 -2 0 -1 1 0 1 -1 416 0M539 295l0 -1M539 295l1 -1M540 296l0 -2M540 295l14 0 0 -1 12 0 1 1"/>
<path stroke="blue" d="M567 296l0 -1 6 0 1 -1M574 324l0 -30M574 324l1 11 1 3M576 339l0 -1M576 339l4 0 0 -1 13 0M593 339l0 -1M593 339l7 0M600 354l0 -16M600 354l1 4M601 362l0 -4M601 361l5 0 0 -1 13 0M619 361l0 -1M619 361l14 0 0 -1 13 0M646 361l0 -1"/>
<path stroke="blue" d="M646 361l7 0M653 368l0 -7M653 368l1 3M654 372l0 -1M654 372l1 0 1 -1M656 372l0 -1M656 372l3 0 0 -1 13 0M672 372l0 -1 1 0M673 372l0 -1M673 372l13 0 0 -1 12 0 1 1 0 -1M699 372l13 0 0 -1 13 0M725 372l0 -1M725 372l7 0 0 -3 27 0"/>
<path stroke="blue" d="M759 371l0 -2M759 371l1 0 1 -1 4 0M765 371l0 -1 13 0M778 371l0 -1 10 0M788 371l0 -1 1 0M789 371l0 -1M789 371l2 0 0 -1 13 0M804 371l0 -1 1 0M805 371l0 -1M805 371l7 0 0 -1M812 371l106 0 0 -27 1 -2 0 -35 1 -3 0 -5 1 -1 0 -2"/>
<path stroke="blue" d="M921 296l1 0 0 -1 1 0 0 -1 13 0M936 296l0 -2M936 295l14 0 0 -1 24 0"/>
<path stroke="#FFA500" d="M462 39l46 0"/>
<text stroke="none" fill="white" font-size="16" x="518" y="48">
x1.vsampled_p-x1.vsampled_n
</text>
<path stroke="#FFA500" d="M50 459l2 0M52 460l0 -1M52 460l2 0 0 -1 63 0M117 483l0 -24M117 483l1 30M118 572l0 -59M118 572l1 10M119 598l0 -16M119 598l1 5M120 607l0 -4M120 607l1 2M121 611l0 -2M121 611l1 1 418 0 0 -1M540 612l6 0 0 -22 1 -3 0 -26 1 -8"/>
<path stroke="#FFA500" d="M548 553l0 -4 1 -2 1 -1 17 0 0 -1M567 546l7 0 0 -30 1 -10 1 -4 17 0 0 -1M593 502l7 0 0 -16 1 -4 0 -3 1 1 23 0 0 -14 1 -1 0 -6 1 1 1 0M628 461l0 -1M628 461l5 0 0 -1M633 461l20 0 0 -8 1 -2 0 -2M654 450l5 0 0 -1M659 450l20 0"/>
<path stroke="#FFA500" d="M679 458l0 -8M679 458l1 0M680 459l0 -3 1 -1 18 0M699 456l0 -1 7 0M706 460l0 -5M706 459l1 -1 25 0M732 461l0 -3M732 461l1 0 0 -1 18 0M751 461l0 -1M751 461l1 0 0 -1 7 0 0 -2M759 459l29 0M788 461l0 -2M788 460l24 0 0 -1 19 0"/>
<path stroke="#FFA500" d="M831 460l0 -1 7 0 0 -1M838 459l80 0M918 535l0 -77M918 535l1 6M919 607l0 -66M919 607l1 2M920 611l0 -2M920 611l1 0M921 612l0 -1M921 612l2 0M923 613l0 -1 13 0 0 -1M936 612l14 0M950 613l0 -1 24 0"/>
<path stroke="green" d="M50 39l46 0"/>
<text stroke="none" fill="white" font-size="16" x="106" y="48">
x1.sw_sample-2
</text>
<path stroke="green" d="M50 655l1 0 1 -10 0 -23 1 -21M53 618l0 -24M53 618l1 34M54 655l0 -3M54 655l63 0M117 662l0 -184 1 0M118 479l0 -1M118 479l421 0M539 656l0 -184M539 655l422 0M961 660l0 -182 1 0M962 479l0 -1M962 479l12 0"/>
<path stroke="#FFC0C5" d="M462 55l46 0"/>
<text stroke="none" fill="white" font-size="16" x="518" y="64">
x1.comp_out_p+2
</text>
<path stroke="#FFC0C5" d="M50 263l1 0 1 -10 0 -23 1 -20 0 -4M53 208l1 5M54 263l0 -50M54 261l1 2 618 0M673 265l0 -2M673 265l1 -100 0 -80M674 87l13 0M687 264l0 -187M687 263l13 0M700 265l0 -180M700 87l13 0 0 -9 1 168M714 263l0 -17M714 263l13 0 0 -163"/>
<path stroke="#FFC0C5" d="M727 100l1 -14M728 87l0 -1M728 87l12 0M740 263l0 -185M740 263l42 0 0 -169 1 -9M783 87l0 -2M783 87l10 0M793 263l0 -179M793 263l67 0 0 -161 1 -16M861 87l0 -1M861 87l11 0M872 263l0 -185M872 263l41 0 0 -177 1 0M914 87l0 -1"/>
<path stroke="#FFC0C5" d="M914 87l11 0M925 263l0 -184M925 263l49 0"/>
<path stroke="#A52A2A" d="M50 55l46 0"/>
<text stroke="none" fill="white" font-size="16" x="106" y="64">
x1.comp_out_n-2
</text>
<path stroke="#A52A2A" d="M50 655l1 0 1 -10 0 -24 1 -20M53 602l0 -4M53 602l1 7M54 655l0 -46M54 655l487 0 1 1 0 -180M542 479l13 0M555 655l0 -185M555 655l13 0 0 -178M568 479l13 0 0 -10 1 177M582 656l0 -10M582 655l12 0M594 656l0 -179M594 479l14 0"/>
<path stroke="#A52A2A" d="M608 655l0 -185M608 655l13 0M621 658l0 -182M621 479l13 0M634 655l0 -186M634 655l13 0M647 656l0 -180M647 479l14 0M661 655l0 -187M661 655l13 0M674 656l0 -1 79 0 0 -178M753 479l13 0M766 655l0 -187M766 655l41 0 0 -177M807 479l12 0"/>
<path stroke="#A52A2A" d="M819 655l0 -187M819 655l14 0 1 -167 0 -10M834 479l11 0 0 -9 1 166M846 655l0 -19M846 655l41 0 1 -168 0 -9M888 479l10 0M898 655l0 -185M898 655l39 0 1 -64 0 -114M938 479l13 0M951 656l0 -182M951 655l23 0"/>
</svg>
