<?xml version="1.0" standalone="yes"?>
<!DOCTYPE svg PUBLIC "-//W3C//DTD SVG 1.1//EN"
 "http://www.w3.org/Graphics/SVG/1.1/DTD/svg11.dtd">
<svg xmlns="http://www.w3.org/2000/svg" version="1.1"
  width="100%" height="100%" viewBox="0 0 1024 768"
  style="fill: none; font-family: Helvetica;
 font: Helvetica;
">

<!-- Creator: NGspice -->

<rect x="0" y="0" width="1024" height="768" fill="black" stroke="none"/>
<text stroke="none" fill="white" font-size="16" x="358" y="752">
time
</text>
<text stroke="none" fill="white" font-size="16" x="10" y="16">
tran1: run127_vin-0.78794
</text>
<path stroke="white" d="M50 704l0 -637"/>
<text stroke="none" fill="white" font-size="16" x="35" y="728">
0.0
</text>
<path stroke="white" stroke-dasharray="1,2" d="M182 704l0 -637"/>
<text stroke="none" fill="white" font-size="16" x="157" y="728">
100.0
</text>
<path stroke="white" stroke-dasharray="1,2" d="M314 704l0 -637"/>
<text stroke="none" fill="white" font-size="16" x="289" y="728">
200.0
</text>
<path stroke="white" stroke-dasharray="1,2" d="M446 704l0 -637"/>
<text stroke="none" fill="white" font-size="16" x="421" y="728">
300.0
</text>
<path stroke="white" stroke-dasharray="1,2" d="M578 704l0 -637"/>
<text stroke="none" fill="white" font-size="16" x="553" y="728">
400.0
</text>
<path stroke="white" stroke-dasharray="1,2" d="M710 704l0 -637"/>
<text stroke="none" fill="white" font-size="16" x="685" y="728">
500.0
</text>
<path stroke="white" stroke-dasharray="1,2" d="M842 704l0 -637"/>
<text stroke="none" fill="white" font-size="16" x="817" y="728">
600.0
</text>
<path stroke="white" stroke-dasharray="1,2" d="M974 704l0 -637"/>
<text stroke="none" fill="white" font-size="16" x="949" y="728">
700.0
</text>
<text stroke="none" fill="white" font-size="16" x="614" y="752">
ns
</text>
<path stroke="white" stroke-dasharray="1,2" d="M50 704l924 0"/>
<text stroke="none" fill="white" font-size="16" x="8" y="712">
-3.0
</text>
<path stroke="white" stroke-dasharray="1,2" d="M50 613l924 0"/>
<text stroke="none" fill="white" font-size="16" x="8" y="621">
-2.0
</text>
<path stroke="white" stroke-dasharray="1,2" d="M50 522l924 0"/>
<text stroke="none" fill="white" font-size="16" x="8" y="530">
-1.0
</text>
<path stroke="white" d="M50 431l924 0"/>
<text stroke="none" fill="white" font-size="16" x="18" y="439">
0.0
</text>
<path stroke="white" stroke-dasharray="1,2" d="M50 340l924 0"/>
<text stroke="none" fill="white" font-size="16" x="18" y="348">
1.0
</text>
<path stroke="white" stroke-dasharray="1,2" d="M50 249l924 0"/>
<text stroke="none" fill="white" font-size="16" x="18" y="257">
2.0
</text>
<path stroke="white" stroke-dasharray="1,2" d="M50 158l924 0"/>
<text stroke="none" fill="white" font-size="16" x="18" y="166">
3.0
</text>
<path stroke="white" stroke-dasharray="1,2" d="M50 67l924 0"/>
<text stroke="none" fill="white" font-size="16" x="18" y="75">
4.0
</text>
<text stroke="none" fill="white" font-size="16" x="10" y="32">
     
</text>
<path stroke="red" d="M462 23l46 0"/>
<text stroke="none" fill="white" font-size="16" x="518" y="32">
x1.vsampled_p
</text>
<path stroke="red" d="M50 431l1 0 1 -7 0 -15 1 -14 0 -5 1 2M54 414l0 -38 1 -5 0 -13 1 -3 0 -3 1 -1 0 -1 2 0 1 -1 3 0 1 1 3 0 1 -1 49 0M117 370l0 -21M117 370l1 17M118 408l0 -21M118 408l1 3M119 416l0 -5M119 416l1 2M120 419l0 -1M120 419l2 2 424 0"/>
<path stroke="red" d="M546 421l0 -22 1 -2 0 -26 1 -6 1 -3 0 -2 5 0 0 -1M554 360l13 0 0 -1M567 360l13 0 0 -1M580 360l13 0 0 -1M593 360l13 0 0 -1M606 360l14 0 0 -1M620 360l5 0 0 -15 1 -2 0 -2 1 0 1 1 5 0 0 -1M633 342l26 0 0 -1M659 342l20 0M679 349l0 -7"/>
<path stroke="red" d="M679 349l1 1M680 351l0 -4 26 0M706 351l0 -4M706 351l1 0 0 -2 18 0M725 350l0 -1 7 0 0 -4 1 0M733 347l0 -2M733 347l18 0M751 348l0 -1M751 348l1 0 0 -1 7 0M759 350l0 -3M759 349l1 0 0 -1 18 0M778 349l0 -1 7 0M785 350l0 -2M785 350l1 0"/>
<path stroke="red" d="M786 350l0 -1 18 0M804 350l0 -1 9 0M813 350l0 -1 17 0 1 1 0 -1 26 0M857 350l0 -1 26 0M883 350l0 -1 27 0M910 350l0 -1 8 0M918 415l0 -66M918 415l1 8M919 431l0 -8M919 427l1 -1 0 -3 1 -1 1 0 0 -1 52 0"/>
<path stroke="blue" d="M50 23l46 0"/>
<text stroke="none" fill="white" font-size="16" x="106" y="32">
x1.vsampled_n
</text>
<path stroke="blue" d="M50 431l1 0 1 -7 0 -16 1 -14 0 -5 1 2M54 414l0 -38 1 -5 0 -13 1 -3 0 -3 1 -1 0 -1 2 0 1 -1 3 0 1 1 4 0 1 -1 48 0 0 -1 1 -12 0 -34 1 -6 0 -10 1 -3 0 -2 1 -2 0 -1 2 0 0 -1 416 0M539 278l0 -1M539 278l1 0M540 279l0 -1 14 0"/>
<path stroke="blue" d="M554 278l0 -1M554 278l13 0M567 279l0 -1 6 0M573 285l0 -7M573 285l1 3M574 302l0 -14M574 302l1 8M575 317l0 -7M575 317l1 2 4 0 0 -1 13 0M593 319l0 -1M593 319l7 0M600 332l0 -14M600 332l1 4M601 340l0 -4M601 340l1 -1 51 0M653 348l0 -9"/>
<path stroke="blue" d="M653 348l1 2 0 -1 264 0 0 -34 1 -4 0 -23 1 -3 0 -4 1 -1 0 -1 1 0 0 -1 1 0 0 -1M923 278l13 0M936 279l0 -1 14 0 0 -1M950 278l11 0 0 -1 13 0"/>
<path stroke="#FFA500" d="M462 39l46 0"/>
<text stroke="none" fill="white" font-size="16" x="518" y="48">
x1.vsampled_p-x1.vsampled_n
</text>
<path stroke="#FFA500" d="M50 431l2 0M52 432l0 -1M52 432l2 0 0 -1 63 0M117 454l0 -23M117 454l1 28M118 537l0 -55M118 537l1 9M119 561l0 -15M119 561l1 5M120 569l0 -3M120 569l1 3M121 573l0 -1M121 573l1 1 418 0 0 -1M540 574l6 0 0 -21 1 -3 0 -26 1 -6"/>
<path stroke="#FFA500" d="M548 518l1 -3 0 -1 1 -1 17 0 0 -1M567 513l6 0 0 -7 1 -3 0 -15 1 -8 0 -7 1 -1 17 0 0 -1M593 472l7 0 0 -14 1 -3 0 -4 1 0M602 452l0 -1M602 452l17 0 0 -1M619 452l1 0 0 -1M620 452l5 0 0 -16 1 -1 0 -2 1 0 1 1 5 0 0 -1M633 434l20 0"/>
<path stroke="#FFA500" d="M653 434l0 -10 1 -1 1 1 4 0 0 -1 1 1 12 0 0 -1M672 424l7 0M679 431l0 -7M679 431l1 0M680 432l0 -3 6 0 0 -1M686 429l20 0M706 433l0 -4M706 433l1 -1 0 -1 25 0 0 -4 1 0M733 429l0 -2M733 429l26 0M759 432l0 -3M759 430l26 0"/>
<path stroke="#FFA500" d="M785 431l0 -1M785 431l1 1 0 -1 27 0M813 432l0 -1 26 0 0 -1M839 431l79 0M918 531l0 -100M918 531l1 12M919 571l0 -28M919 571l1 1M920 573l0 -1M920 573l1 1 2 0M923 575l0 -1 13 0 0 -1M936 574l14 0M950 575l0 -1 24 0"/>
<path stroke="green" d="M50 39l46 0"/>
<text stroke="none" fill="white" font-size="16" x="106" y="48">
x1.sw_sample-2
</text>
<path stroke="green" d="M50 613l1 0 1 -9 0 -21 1 -21M53 579l0 -23M53 579l1 31M54 613l0 -3M54 613l63 0M117 620l0 -172M117 449l422 0M539 614l0 -171M539 613l422 0M961 618l0 -170 1 1 12 0"/>
<path stroke="#FFC0C5" d="M462 55l46 0"/>
<text stroke="none" fill="white" font-size="16" x="518" y="64">
x1.comp_out_p+2
</text>
<path stroke="#FFC0C5" d="M50 249l1 0 1 -9 0 -22 1 -18 0 -4M53 198l1 5M54 249l0 -46M54 247l1 2 618 0M673 252l0 -3M673 252l1 -105 0 -64M674 85l13 0M687 249l0 -172M687 249l13 0 0 -165M700 85l13 0 0 -7 1 124M714 250l0 -48M714 249l39 0 0 -165M753 85l13 0"/>
<path stroke="#FFC0C5" d="M766 250l0 -173M766 250l1 -1 13 0 0 -165M780 85l13 0M793 250l0 -174M793 249l14 0 0 -148 1 -16 0 -1M808 85l11 0M819 250l0 -172M819 249l41 0 0 -165 1 1 11 0M872 250l0 -174M872 249l14 0 0 -151 1 -13 0 -1M887 85l11 0M898 250l0 -174"/>
<path stroke="#FFC0C5" d="M898 249l15 0 0 -165M913 85l12 0M925 250l0 -171M925 249l49 0"/>
<path stroke="#A52A2A" d="M50 55l46 0"/>
<text stroke="none" fill="white" font-size="16" x="106" y="64">
x1.comp_out_n-2
</text>
<path stroke="#A52A2A" d="M50 613l1 0 1 -9 0 -22 1 -19M53 564l0 -3M53 564l1 6M54 613l0 -43M54 613l488 0 0 -165M542 449l13 0M555 613l0 -172M555 613l13 0 0 -165M568 449l13 0 0 -9 1 165M582 614l0 -9M582 613l12 0 0 -166M594 449l14 0M608 613l0 -171"/>
<path stroke="#A52A2A" d="M608 613l13 0M621 620l0 -173M621 449l13 0M634 613l0 -173M634 613l13 0M647 615l0 -168M647 449l14 0M661 613l0 -174M661 613l67 0 0 -165 1 1 11 0M740 613l0 -173M740 613l94 0 0 -165M834 449l11 0 0 -10 1 153M846 613l0 -21"/>
<path stroke="#A52A2A" d="M846 613l91 0 1 -56 0 -109M938 449l13 0M951 613l0 -171M951 613l23 0"/>
</svg>
