<?xml version="1.0" standalone="yes"?>
<!DOCTYPE svg PUBLIC "-//W3C//DTD SVG 1.1//EN"
 "http://www.w3.org/Graphics/SVG/1.1/DTD/svg11.dtd">
<svg xmlns="http://www.w3.org/2000/svg" version="1.1"
  width="100%" height="100%" viewBox="0 0 1024 768"
  style="fill: none; font-family: Helvetica;
 font: Helvetica;
">

<!-- Creator: NGspice -->

<rect x="0" y="0" width="1024" height="768" fill="black" stroke="none"/>
<text stroke="none" fill="white" font-size="16" x="358" y="752">
time
</text>
<text stroke="none" fill="white" font-size="16" x="10" y="16">
tran1: run122_vin-0.792334
</text>
<path stroke="white" d="M50 704l0 -637"/>
<text stroke="none" fill="white" font-size="16" x="35" y="728">
0.0
</text>
<path stroke="white" stroke-dasharray="1,2" d="M182 704l0 -637"/>
<text stroke="none" fill="white" font-size="16" x="157" y="728">
100.0
</text>
<path stroke="white" stroke-dasharray="1,2" d="M314 704l0 -637"/>
<text stroke="none" fill="white" font-size="16" x="289" y="728">
200.0
</text>
<path stroke="white" stroke-dasharray="1,2" d="M446 704l0 -637"/>
<text stroke="none" fill="white" font-size="16" x="421" y="728">
300.0
</text>
<path stroke="white" stroke-dasharray="1,2" d="M578 704l0 -637"/>
<text stroke="none" fill="white" font-size="16" x="553" y="728">
400.0
</text>
<path stroke="white" stroke-dasharray="1,2" d="M710 704l0 -637"/>
<text stroke="none" fill="white" font-size="16" x="685" y="728">
500.0
</text>
<path stroke="white" stroke-dasharray="1,2" d="M842 704l0 -637"/>
<text stroke="none" fill="white" font-size="16" x="817" y="728">
600.0
</text>
<path stroke="white" stroke-dasharray="1,2" d="M974 704l0 -637"/>
<text stroke="none" fill="white" font-size="16" x="949" y="728">
700.0
</text>
<text stroke="none" fill="white" font-size="16" x="614" y="752">
ns
</text>
<path stroke="white" stroke-dasharray="1,2" d="M50 704l924 0"/>
<text stroke="none" fill="white" font-size="16" x="8" y="712">
-3.0
</text>
<path stroke="white" stroke-dasharray="1,2" d="M50 613l924 0"/>
<text stroke="none" fill="white" font-size="16" x="8" y="621">
-2.0
</text>
<path stroke="white" stroke-dasharray="1,2" d="M50 522l924 0"/>
<text stroke="none" fill="white" font-size="16" x="8" y="530">
-1.0
</text>
<path stroke="white" d="M50 431l924 0"/>
<text stroke="none" fill="white" font-size="16" x="18" y="439">
0.0
</text>
<path stroke="white" stroke-dasharray="1,2" d="M50 340l924 0"/>
<text stroke="none" fill="white" font-size="16" x="18" y="348">
1.0
</text>
<path stroke="white" stroke-dasharray="1,2" d="M50 249l924 0"/>
<text stroke="none" fill="white" font-size="16" x="18" y="257">
2.0
</text>
<path stroke="white" stroke-dasharray="1,2" d="M50 158l924 0"/>
<text stroke="none" fill="white" font-size="16" x="18" y="166">
3.0
</text>
<path stroke="white" stroke-dasharray="1,2" d="M50 67l924 0"/>
<text stroke="none" fill="white" font-size="16" x="18" y="75">
4.0
</text>
<text stroke="none" fill="white" font-size="16" x="10" y="32">
     
</text>
<path stroke="red" d="M462 23l46 0"/>
<text stroke="none" fill="white" font-size="16" x="518" y="32">
x1.vsampled_p
</text>
<path stroke="red" d="M50 431l1 0 1 -7 0 -15 1 -14 0 -5 1 2M54 414l0 -38 1 -5 0 -13 1 -3 0 -3 1 -1 0 -1 2 0 1 -1 3 0 1 1 3 0 1 -1 49 0M117 370l0 -21M117 370l1 17M118 408l0 -21M118 408l1 3M119 417l0 -6M119 417l1 1M120 419l0 -1M120 419l1 1M121 421l0 -1"/>
<path stroke="red" d="M121 421l419 0M540 422l0 -1 6 0M546 422l0 -27 1 -3 0 -19 1 -7 0 -4 2 -2 75 0 0 -13 1 -1 0 -5 1 0M627 342l0 -1M627 342l19 0M646 343l0 -1 26 0M672 343l0 -1 7 0M679 350l0 -8M679 350l1 0M680 351l0 -4 19 0M699 348l0 -1 7 0M706 351l0 -4"/>
<path stroke="red" d="M706 351l1 0 0 -1 25 0 0 -4M732 347l1 0M733 348l0 -1M733 348l5 0 0 -1 1 0M739 348l0 -1M739 348l12 0 0 -1M751 348l1 0 0 -1M752 348l7 0M759 351l0 -3M759 349l53 0M812 350l0 -1 19 0M831 350l0 -1 26 0M857 350l0 -1 26 0M883 350l0 -1"/>
<path stroke="red" d="M883 349l27 0M910 350l0 -1 8 0M918 430l0 -81M918 430l1 2 0 -5 1 -1 0 -3 1 -1 1 0 0 -1 14 0M936 422l0 -1 38 0"/>
<path stroke="blue" d="M50 23l46 0"/>
<text stroke="none" fill="white" font-size="16" x="106" y="32">
x1.vsampled_n
</text>
<path stroke="blue" d="M50 431l1 0 1 -7 0 -16 1 -14 0 -5 1 2M54 414l0 -38 1 -5 0 -13 1 -3 0 -3 1 -1 0 -1 2 0 1 -1 3 0 1 1 4 0 1 -1 48 0 0 -1 1 -12 0 -34 1 -6 0 -10 1 -3 0 -3 1 -1 0 -1 1 -1 418 0M540 278l0 -1 27 0M567 279l0 -2 7 0M574 300l0 -23"/>
<path stroke="blue" d="M574 300l1 7M575 316l0 -9M575 316l1 2 17 0M593 319l0 -1 7 0M600 334l0 -16M600 334l1 4M601 340l0 -2M601 339l5 0 0 -1 1 0M607 339l0 -1M607 339l26 0 0 -1M633 339l20 0M653 346l0 -7M653 346l1 2M654 349l0 -1M654 349l132 0M786 350l0 -1"/>
<path stroke="blue" d="M786 350l1 0 0 -1 17 0M804 350l0 -1 26 0 1 1 0 -1 87 0M918 350l0 -44 1 -4 0 -16 1 -3 0 -3 1 -1 0 -1 2 0 0 -1 13 0M936 279l0 -2 38 0"/>
<path stroke="#FFA500" d="M462 39l46 0"/>
<text stroke="none" fill="white" font-size="16" x="518" y="48">
x1.vsampled_p-x1.vsampled_n
</text>
<path stroke="#FFA500" d="M50 431l2 0M52 432l0 -1M52 432l2 0 0 -1 63 0M117 454l0 -23M117 454l1 28M118 537l0 -55M118 537l1 9M119 562l0 -16M119 562l1 5M120 570l0 -3M120 570l1 2M121 574l0 -2M121 574l1 1 418 0 0 -1M540 575l6 0 0 -27 1 -2 0 -19 1 -7"/>
<path stroke="#FFA500" d="M548 520l0 -4 2 -2 17 0 0 -1M567 514l7 0 0 -23 1 -7 0 -9 1 -2 17 0 0 -1M593 473l7 0 0 -16 1 -4 0 -2M601 452l5 0M606 453l0 -1M606 453l1 0 0 -1 12 0M619 453l0 -1 1 1 0 -1 5 0 0 -12 1 -2 0 -5 1 0M627 434l0 -1M627 434l1 0"/>
<path stroke="#FFA500" d="M628 434l1 1 4 0 0 -1M633 435l13 0 0 -1M646 435l7 0 0 -8 1 -2 0 -1 18 0M672 425l0 -1 7 0M679 432l0 -8M679 432l1 1 0 -3 1 0 0 -1 17 0 1 1 0 -1 7 0M706 434l0 -5M706 434l1 0 0 -2 25 0 0 -4M732 429l1 0M733 430l0 -1M733 430l26 0"/>
<path stroke="#FFA500" d="M759 433l0 -3M759 431l27 0 0 -1 18 0M804 431l0 -1 8 0M812 432l0 -2M812 431l106 0M918 555l0 -125M918 555l1 6M919 572l0 -11M919 572l1 1M920 574l0 -1M920 574l1 1 2 0M923 576l0 -1 13 0 0 -1M936 575l14 0M950 576l0 -1 24 0"/>
<path stroke="green" d="M50 39l46 0"/>
<text stroke="none" fill="white" font-size="16" x="106" y="48">
x1.sw_sample-2
</text>
<path stroke="green" d="M50 613l1 0 1 -9 0 -21 1 -21M53 579l0 -23M53 579l1 31M54 613l0 -3M54 613l63 0M117 620l0 -172M117 449l422 0M539 614l0 -171M539 613l422 0M961 618l0 -170 1 1 12 0"/>
<path stroke="#FFC0C5" d="M462 55l46 0"/>
<text stroke="none" fill="white" font-size="16" x="518" y="64">
x1.comp_out_p+2
</text>
<path stroke="#FFC0C5" d="M50 249l1 0 1 -9 0 -22 1 -18 0 -4M53 198l1 5M54 249l0 -46M54 247l1 2 618 0M673 250l0 -27 1 -112 0 -28M674 85l13 0M687 249l0 -171M687 249l13 0 0 -165M700 85l13 0 0 -6 1 120M714 250l0 -51M714 249l39 0 0 -165M753 85l13 0"/>
<path stroke="#FFC0C5" d="M766 249l0 -174M766 249l40 0 1 -156 0 -9M807 85l12 0M819 249l0 -174M819 249l15 0 0 -165M834 85l11 0 0 -8 1 153M846 249l0 -19M846 249l41 0 0 -165M887 85l11 0M898 249l0 -172M898 249l76 0"/>
<path stroke="#A52A2A" d="M50 55l46 0"/>
<text stroke="none" fill="white" font-size="16" x="106" y="64">
x1.comp_out_n-2
</text>
<path stroke="#A52A2A" d="M50 613l1 0 1 -9 0 -22 1 -19M53 564l0 -3M53 564l1 6M54 613l0 -43M54 613l488 0 0 -165M542 449l13 0M555 613l0 -172M555 613l13 0M568 620l0 -173M568 449l13 0 0 -8 1 164M582 614l0 -9M582 613l12 0 0 -166M594 449l14 0M608 613l0 -173"/>
<path stroke="#A52A2A" d="M608 613l13 0 0 -166M621 449l13 0M634 614l0 -168M634 614l1 -1 12 0M647 614l0 -167M647 449l14 0M661 613l0 -167M661 613l66 0 0 -153 1 -11 12 0M740 613l0 -172M740 613l40 0 1 -150 0 -15M781 449l12 0M793 613l0 -167M793 613l67 0"/>
<path stroke="#A52A2A" d="M860 613l0 -164 12 0M872 613l0 -172M872 613l41 0 0 -164 12 0M925 614l0 -174M925 613l12 0 1 -62 0 -103M938 449l13 0M951 613l0 -173M951 613l23 0"/>
</svg>
