<?xml version="1.0" standalone="yes"?>
<!DOCTYPE svg PUBLIC "-//W3C//DTD SVG 1.1//EN"
 "http://www.w3.org/Graphics/SVG/1.1/DTD/svg11.dtd">
<svg xmlns="http://www.w3.org/2000/svg" version="1.1"
  width="100%" height="100%" viewBox="0 0 1024 768"
  style="fill: none; font-family: Helvetica;
 font: Helvetica;
">

<!-- Creator: NGspice -->

<rect x="0" y="0" width="1024" height="768" fill="black" stroke="none"/>
<text stroke="none" fill="white" font-size="16" x="358" y="752">
time
</text>
<text stroke="none" fill="white" font-size="16" x="10" y="16">
tran1: run1232_vin0.18325
</text>
<path stroke="white" d="M50 704l0 -637"/>
<text stroke="none" fill="white" font-size="16" x="35" y="728">
0.0
</text>
<path stroke="white" stroke-dasharray="1,2" d="M182 704l0 -637"/>
<text stroke="none" fill="white" font-size="16" x="157" y="728">
100.0
</text>
<path stroke="white" stroke-dasharray="1,2" d="M314 704l0 -637"/>
<text stroke="none" fill="white" font-size="16" x="289" y="728">
200.0
</text>
<path stroke="white" stroke-dasharray="1,2" d="M446 704l0 -637"/>
<text stroke="none" fill="white" font-size="16" x="421" y="728">
300.0
</text>
<path stroke="white" stroke-dasharray="1,2" d="M578 704l0 -637"/>
<text stroke="none" fill="white" font-size="16" x="553" y="728">
400.0
</text>
<path stroke="white" stroke-dasharray="1,2" d="M710 704l0 -637"/>
<text stroke="none" fill="white" font-size="16" x="685" y="728">
500.0
</text>
<path stroke="white" stroke-dasharray="1,2" d="M842 704l0 -637"/>
<text stroke="none" fill="white" font-size="16" x="817" y="728">
600.0
</text>
<path stroke="white" stroke-dasharray="1,2" d="M974 704l0 -637"/>
<text stroke="none" fill="white" font-size="16" x="949" y="728">
700.0
</text>
<text stroke="none" fill="white" font-size="16" x="614" y="752">
ns
</text>
<path stroke="white" stroke-dasharray="1,2" d="M50 704l924 0"/>
<text stroke="none" fill="white" font-size="16" x="8" y="712">
-3.0
</text>
<path stroke="white" stroke-dasharray="1,2" d="M50 613l924 0"/>
<text stroke="none" fill="white" font-size="16" x="8" y="621">
-2.0
</text>
<path stroke="white" stroke-dasharray="1,2" d="M50 522l924 0"/>
<text stroke="none" fill="white" font-size="16" x="8" y="530">
-1.0
</text>
<path stroke="white" d="M50 431l924 0"/>
<text stroke="none" fill="white" font-size="16" x="18" y="439">
0.0
</text>
<path stroke="white" stroke-dasharray="1,2" d="M50 340l924 0"/>
<text stroke="none" fill="white" font-size="16" x="18" y="348">
1.0
</text>
<path stroke="white" stroke-dasharray="1,2" d="M50 249l924 0"/>
<text stroke="none" fill="white" font-size="16" x="18" y="257">
2.0
</text>
<path stroke="white" stroke-dasharray="1,2" d="M50 158l924 0"/>
<text stroke="none" fill="white" font-size="16" x="18" y="166">
3.0
</text>
<path stroke="white" stroke-dasharray="1,2" d="M50 67l924 0"/>
<text stroke="none" fill="white" font-size="16" x="18" y="75">
4.0
</text>
<text stroke="none" fill="white" font-size="16" x="10" y="32">
     
</text>
<path stroke="red" d="M462 23l46 0"/>
<text stroke="none" fill="white" font-size="16" x="518" y="32">
x1.vsampled_p
</text>
<path stroke="red" d="M50 431l1 0 1 -7 0 -15 1 -15 0 -4 1 1M54 415l0 -39 1 -5 0 -14 1 -3 0 -2 1 -2 2 0 1 -1 4 0M64 350l0 -1M64 350l4 0 1 -1 48 0 1 -6 0 -7 1 -2 1 -1 1 0 1 -1 417 0M539 333l0 -1M539 333l15 0 0 -1M554 333l26 0 0 -1M580 333l20 0"/>
<path stroke="red" d="M600 347l0 -15M600 347l1 4M601 356l0 -5M601 356l1 -1 0 -1 1 -1 22 0 0 -9 1 -1 0 -7 1 -1 19 0M646 336l0 -1 7 0M653 344l0 -9M653 344l1 2M654 347l0 -1 1 0 1 -1 16 0M672 346l0 -1 7 0M679 348l0 -3M679 348l1 1M680 352l0 -3M680 351l6 0"/>
<path stroke="red" d="M686 351l0 -1 12 0 1 1 0 -1M699 351l13 0 0 -1 13 0M725 351l0 -1M725 351l6 0 0 -3 20 0M751 349l0 -1 27 0M778 349l0 -1 7 0M785 349l0 -1M785 349l27 0M812 350l0 -1M812 350l1 0 0 -1 18 0M831 350l0 -1 26 0M857 350l0 -1 26 0M883 350l0 -1"/>
<path stroke="red" d="M883 349l27 0M910 350l0 -1 8 0M918 351l0 -10 1 -2 0 -6 1 -1 1 1 2 0 0 -1M923 333l27 0 0 -1M950 333l12 0 0 -1 12 0"/>
<path stroke="blue" d="M50 23l46 0"/>
<text stroke="none" fill="white" font-size="16" x="106" y="32">
x1.vsampled_n
</text>
<path stroke="blue" d="M50 431l1 0 1 -7 0 -15 1 -14 0 -5 1 2M54 415l0 -39 1 -5 0 -14 1 -3 0 -2 1 -2 2 0 1 -1 4 0M64 350l0 -1M64 350l4 0 1 -1 48 0M117 351l0 -2M117 351l1 5M118 362l0 -6M118 362l1 2 2 2 425 0 0 -32 1 -1 0 -21 1 -4 0 -2 1 0 1 -1"/>
<path stroke="blue" d="M550 305l4 0 0 -1M554 305l13 0M567 306l0 -1 7 0M574 334l0 -29M574 334l1 4M575 348l0 -10M575 348l2 -2 3 0 0 -1 13 0M593 346l0 -1M593 346l13 0 0 -1 13 0M619 346l0 -1M619 346l1 0 0 -1M620 346l13 0 0 -1 13 0M646 346l0 -1M646 346l13 0"/>
<path stroke="blue" d="M659 346l0 -1 13 0M672 346l0 -1 1 1 13 0 0 -1 12 0 1 1 0 -1M699 346l6 0 1 -1M706 349l0 -4M706 349l1 -1 52 0M759 351l0 -3M759 350l1 0 0 -1 18 0M778 350l0 -1 26 0M804 350l0 -1 26 0 1 1 0 -1 87 0M918 363l0 -18M918 363l1 2"/>
<path stroke="blue" d="M919 369l0 -4M919 368l1 -1 0 -1 54 0"/>
<path stroke="#FFA500" d="M462 39l46 0"/>
<text stroke="none" fill="white" font-size="16" x="518" y="48">
x1.vsampled_p-x1.vsampled_n
</text>
<path stroke="#FFA500" d="M50 431l67 0 0 -3 1 -10 0 -13 1 -4 1 -2 0 -1 426 0M546 429l0 -31M546 429l1 2M547 452l0 -21M547 452l1 3M548 457l0 -2M548 457l2 2 17 0 0 -1M567 459l7 0 0 -29 1 -4 0 -10 1 0M576 417l0 -1M576 417l1 1 23 0M600 433l0 -15M600 433l1 3"/>
<path stroke="#FFA500" d="M601 441l0 -5M601 441l1 -1 0 -1 17 0 0 -1M619 439l1 0 0 -1M620 439l5 0 0 -10 1 -1 0 -7 1 0 0 -1 1 0 1 1 17 0 0 -1M646 421l7 0M653 429l0 -8M653 429l1 2M654 432l0 -1M654 432l1 -1 24 0M679 434l0 -3M679 434l1 1M680 438l0 -3"/>
<path stroke="#FFA500" d="M680 436l26 0 0 -4M706 433l6 0M712 434l0 -1 13 0M725 434l0 -1 6 0 0 -2 1 -1M732 431l0 -1M732 431l27 0 0 -2 1 1 25 0 1 1 52 0 1 1 0 -1 79 0M918 435l0 -27 1 -3 0 -9 2 2 2 0 0 -1M923 398l27 0 0 -1M950 398l24 0"/>
<path stroke="green" d="M50 39l46 0"/>
<text stroke="none" fill="white" font-size="16" x="106" y="48">
x1.sw_sample-2
</text>
<path stroke="green" d="M50 613l1 0 1 -9 0 -21 1 -21M53 581l0 -25M53 581l1 29M54 613l0 -3M54 613l63 0M117 620l0 -172M117 449l422 0M539 614l0 -171M539 613l422 0M961 618l0 -170 1 1 12 0"/>
<path stroke="#FFC0C5" d="M462 55l46 0"/>
<text stroke="none" fill="white" font-size="16" x="518" y="64">
x1.comp_out_p+2
</text>
<path stroke="#FFC0C5" d="M50 249l1 0 1 -9 0 -22 1 -18 0 -4M53 198l1 5M54 249l0 -46M54 249l487 0 1 4 0 -169M542 85l13 0M555 249l0 -171M555 249l39 0M594 255l0 -172M594 84l1 1 13 0M608 250l0 -172M608 249l39 0M647 251l0 -167M647 85l14 0M661 249l0 -173"/>
<path stroke="#FFC0C5" d="M661 249l13 0 0 -165M674 85l13 0M687 250l0 -173M687 249l93 0 0 -165M780 85l13 0M793 249l0 -174M793 249l14 0 0 -164 12 0M819 249l0 -171M819 249l15 0 0 -165 1 1 10 0 0 -9 1 140M846 249l0 -33M846 249l91 0 1 -54 0 -111M938 85l13 0"/>
<path stroke="#FFC0C5" d="M951 250l0 -167M951 249l23 0"/>
<path stroke="#A52A2A" d="M50 55l46 0"/>
<text stroke="none" fill="white" font-size="16" x="106" y="64">
x1.comp_out_n-2
</text>
<path stroke="#A52A2A" d="M50 613l1 0 1 -9 0 -22 1 -19M53 564l0 -3M53 564l1 6M54 613l0 -43M54 613l514 0M568 615l0 -168M568 449l13 0 0 -6 1 163M582 614l0 -8M582 613l39 0 0 -165M621 449l13 0M634 614l0 -170M634 614l1 -1 65 0M700 615l0 -168M700 449l13 0"/>
<path stroke="#A52A2A" d="M713 449l0 -7 1 149M714 613l0 -22M714 613l13 0 0 -165M727 449l13 0M740 613l0 -173M740 613l13 0 0 -151 1 -14M754 449l0 -1M754 449l12 0M766 613l0 -173M766 613l94 0 0 -165M860 449l12 0M872 614l0 -169M872 613l14 0 0 -158"/>
<path stroke="#A52A2A" d="M886 455l1 -7M887 449l0 -1M887 449l11 0M898 614l0 -169M898 613l15 0 0 -165M913 449l12 0M925 613l0 -174M925 613l49 0"/>
</svg>
