<?xml version="1.0" standalone="yes"?>
<!DOCTYPE svg PUBLIC "-//W3C//DTD SVG 1.1//EN"
 "http://www.w3.org/Graphics/SVG/1.1/DTD/svg11.dtd">
<svg xmlns="http://www.w3.org/2000/svg" version="1.1"
  width="100%" height="100%" viewBox="0 0 1024 768"
  style="fill: none; font-family: Helvetica;
 font: Helvetica;
">

<!-- Creator: NGspice -->

<rect x="0" y="0" width="1024" height="768" fill="black" stroke="none"/>
<text stroke="none" fill="white" font-size="16" x="358" y="752">
time
</text>
<text stroke="none" fill="white" font-size="16" x="10" y="16">
tran1: run1236_vin0.186766
</text>
<path stroke="white" d="M50 704l0 -637"/>
<text stroke="none" fill="white" font-size="16" x="35" y="728">
0.0
</text>
<path stroke="white" stroke-dasharray="1,2" d="M182 704l0 -637"/>
<text stroke="none" fill="white" font-size="16" x="157" y="728">
100.0
</text>
<path stroke="white" stroke-dasharray="1,2" d="M314 704l0 -637"/>
<text stroke="none" fill="white" font-size="16" x="289" y="728">
200.0
</text>
<path stroke="white" stroke-dasharray="1,2" d="M446 704l0 -637"/>
<text stroke="none" fill="white" font-size="16" x="421" y="728">
300.0
</text>
<path stroke="white" stroke-dasharray="1,2" d="M578 704l0 -637"/>
<text stroke="none" fill="white" font-size="16" x="553" y="728">
400.0
</text>
<path stroke="white" stroke-dasharray="1,2" d="M710 704l0 -637"/>
<text stroke="none" fill="white" font-size="16" x="685" y="728">
500.0
</text>
<path stroke="white" stroke-dasharray="1,2" d="M842 704l0 -637"/>
<text stroke="none" fill="white" font-size="16" x="817" y="728">
600.0
</text>
<path stroke="white" stroke-dasharray="1,2" d="M974 704l0 -637"/>
<text stroke="none" fill="white" font-size="16" x="949" y="728">
700.0
</text>
<text stroke="none" fill="white" font-size="16" x="614" y="752">
ns
</text>
<path stroke="white" stroke-dasharray="1,2" d="M50 704l924 0"/>
<text stroke="none" fill="white" font-size="16" x="8" y="712">
-3.0
</text>
<path stroke="white" stroke-dasharray="1,2" d="M50 613l924 0"/>
<text stroke="none" fill="white" font-size="16" x="8" y="621">
-2.0
</text>
<path stroke="white" stroke-dasharray="1,2" d="M50 522l924 0"/>
<text stroke="none" fill="white" font-size="16" x="8" y="530">
-1.0
</text>
<path stroke="white" d="M50 431l924 0"/>
<text stroke="none" fill="white" font-size="16" x="18" y="439">
0.0
</text>
<path stroke="white" stroke-dasharray="1,2" d="M50 340l924 0"/>
<text stroke="none" fill="white" font-size="16" x="18" y="348">
1.0
</text>
<path stroke="white" stroke-dasharray="1,2" d="M50 249l924 0"/>
<text stroke="none" fill="white" font-size="16" x="18" y="257">
2.0
</text>
<path stroke="white" stroke-dasharray="1,2" d="M50 158l924 0"/>
<text stroke="none" fill="white" font-size="16" x="18" y="166">
3.0
</text>
<path stroke="white" stroke-dasharray="1,2" d="M50 67l924 0"/>
<text stroke="none" fill="white" font-size="16" x="18" y="75">
4.0
</text>
<text stroke="none" fill="white" font-size="16" x="10" y="32">
     
</text>
<path stroke="red" d="M462 23l46 0"/>
<text stroke="none" fill="white" font-size="16" x="518" y="32">
x1.vsampled_p
</text>
<path stroke="red" d="M50 431l1 0 1 -7 0 -15 1 -15 0 -5 1 2M54 410l0 -31 1 -4 0 -18 1 -1 0 -4 1 -2 2 0 1 -1 57 0 1 -6 0 -7 1 -2 1 -1 0 -1 420 0M540 333l0 -1 27 0M567 333l0 -1 26 0M593 333l0 -1 7 0M600 349l0 -17M600 349l1 3M601 356l0 -4M601 354l1 0"/>
<path stroke="red" d="M602 354l0 -1 23 0 0 -6 1 -3 0 -8 1 -1 26 0M653 345l0 -10M653 345l1 1 1 -1 24 0M679 348l0 -3M679 348l1 1M680 352l0 -3M680 351l1 -1 18 0M699 351l0 -1 26 0M725 351l0 -1 7 0 0 -3M732 348l27 0M759 350l0 -2M759 350l1 0 0 -1 18 0"/>
<path stroke="red" d="M778 350l0 -1 26 0M804 350l0 -1 27 0M831 350l0 -1 26 0M857 350l0 -1 26 0M883 350l0 -1 27 0M910 350l0 -1 8 0M918 352l0 -10 1 -2 0 -7 1 -1 16 0M936 333l0 -1 38 0"/>
<path stroke="blue" d="M50 23l46 0"/>
<text stroke="none" fill="white" font-size="16" x="106" y="32">
x1.vsampled_n
</text>
<path stroke="blue" d="M50 431l1 0 1 -7 0 -15 1 -14 0 -6M53 390l1 1M54 410l0 -31 1 -4 0 -18 1 -1 0 -4 1 -2 2 0 1 -1 57 0M117 351l0 -2M117 351l1 6M118 363l0 -6M118 363l1 2 1 0M120 366l0 -1M120 366l420 0M540 367l0 -1 6 0 0 -20 1 -3 0 -24 1 -6 0 -4"/>
<path stroke="blue" d="M548 309l1 -2 0 -1 1 -1 4 0 0 -1M554 305l13 0M567 306l0 -1 7 0M574 333l0 -28M574 333l1 4M575 348l0 -11M575 348l1 0 0 -1 1 0 0 -1 3 0 0 -1M580 346l53 0 0 -1M633 346l72 0 1 1M706 350l0 -3M706 349l1 0 0 -1 18 0M725 349l0 -1"/>
<path stroke="blue" d="M725 348l26 0M751 349l0 -1M751 349l1 0 0 -1 26 0M778 349l0 -1 7 0M785 350l0 -2M785 350l1 0 0 -1 26 0M812 350l0 -1 18 0 1 1 0 -1 87 0M918 362l0 -16M918 362l1 2M919 369l0 -5M919 368l1 -1 0 -1 54 0"/>
<path stroke="#FFA500" d="M462 39l46 0"/>
<text stroke="none" fill="white" font-size="16" x="518" y="48">
x1.vsampled_p-x1.vsampled_n
</text>
<path stroke="#FFA500" d="M50 431l67 0 0 -3 1 -10 0 -14 1 -4 1 -2 1 -1 425 0M546 418l0 -21M546 418l1 3M547 444l0 -23M547 444l1 6M548 454l0 -4M548 454l1 2M549 457l0 -1M549 457l1 1 4 0M554 459l0 -1 13 0M567 459l0 -2M567 458l7 0 0 -27 1 -5 0 -10"/>
<path stroke="#FFA500" d="M575 416l1 0 1 1 2 0M579 418l0 -1M579 418l1 0 0 -1 13 0M593 418l0 -1M593 418l7 0M600 434l0 -17M600 434l1 3M601 441l0 -4M601 439l1 0 0 -1 23 0 0 -6 1 -3 0 -8 1 -1 26 0M653 430l0 -10M653 430l1 1M654 432l0 -1 1 0 0 -1 24 0"/>
<path stroke="#FFA500" d="M679 434l0 -4M679 434l1 1M680 437l0 -2M680 436l1 0 0 -1 24 0 1 -1 0 -2 1 1 24 0 1 -1 0 -2 1 0M733 431l0 -1M733 431l26 0M759 433l0 -2M759 433l1 -1 25 0 0 -1 27 0 0 -1M812 431l26 0M838 432l0 -1 80 0M918 437l0 -26 1 -4"/>
<path stroke="#FFA500" d="M919 407l0 -11 1 0M920 397l0 -1M920 397l16 0M936 398l0 -1 38 0"/>
<path stroke="green" d="M50 39l46 0"/>
<text stroke="none" fill="white" font-size="16" x="106" y="48">
x1.sw_sample-2
</text>
<path stroke="green" d="M50 613l1 0 1 -9 0 -21 1 -21 0 -8 1 42M54 613l0 -17M54 613l63 0M117 620l0 -172M117 449l422 0M539 614l0 -171M539 613l422 0M961 618l0 -170 1 1 12 0"/>
<path stroke="#FFC0C5" d="M462 55l46 0"/>
<text stroke="none" fill="white" font-size="16" x="518" y="64">
x1.comp_out_p+2
</text>
<path stroke="#FFC0C5" d="M50 249l1 0 1 -9 0 -22 1 -18 0 -5M53 197l1 5M54 249l0 -147 1 -14M55 249l0 -161M55 249l487 0 0 -165M542 85l13 0M555 250l0 -167M555 249l39 0M594 250l0 -166M594 85l14 0M608 249l0 -171M608 249l39 0M647 250l0 -167M647 85l14 0"/>
<path stroke="#FFC0C5" d="M661 249l0 -173M661 249l13 0 0 -166M674 85l13 0M687 249l0 -172M687 249l66 0 0 -151 1 -14M754 85l0 -1M754 85l12 0M766 250l0 -171M766 250l1 -1 67 0 0 -165M834 85l11 0 0 -9 1 140M846 249l0 -33M846 249l91 0 1 -54 0 -111"/>
<path stroke="#FFC0C5" d="M938 85l13 0M951 250l0 -167M951 249l23 0"/>
<path stroke="#A52A2A" d="M50 55l46 0"/>
<text stroke="none" fill="white" font-size="16" x="106" y="64">
x1.comp_out_n-2
</text>
<path stroke="#A52A2A" d="M50 613l1 0 1 -9 0 -22 1 -19 0 -4M53 563l1 6M54 613l0 -149 1 -11M55 613l0 -160M55 613l513 0M568 616l0 -169M568 449l13 0 0 -6 1 105M582 614l0 -66M582 613l12 0M594 614l0 -1 27 0M621 619l0 -172M621 449l13 0M634 613l0 -172"/>
<path stroke="#A52A2A" d="M634 613l66 0M700 618l0 -171M700 449l13 0 0 -9 1 164M714 613l0 -9M714 613l13 0 0 -165M727 449l13 0M740 614l0 -174M740 613l40 0 0 -165M780 449l13 0M793 614l0 -169M793 613l14 0 0 -165M807 449l12 0M819 614l0 -171M819 613l41 0"/>
<path stroke="#A52A2A" d="M860 613l0 -165M860 449l12 0M872 614l0 -169M872 613l14 0 0 -158 1 -7M887 449l0 -1M887 449l11 0M898 614l0 -169M898 613l15 0 0 -165M913 449l12 0M925 614l0 -171M925 613l49 0"/>
</svg>
