<?xml version="1.0" standalone="yes"?>
<!DOCTYPE svg PUBLIC "-//W3C//DTD SVG 1.1//EN"
 "http://www.w3.org/Graphics/SVG/1.1/DTD/svg11.dtd">
<svg xmlns="http://www.w3.org/2000/svg" version="1.1"
  width="100%" height="100%" viewBox="0 0 1024 768"
  style="fill: none; font-family: Helvetica;
 font: Helvetica;
">

<!-- Creator: NGspice -->

<rect x="0" y="0" width="1024" height="768" fill="black" stroke="none"/>
<text stroke="none" fill="white" font-size="16" x="358" y="752">
time
</text>
<text stroke="none" fill="white" font-size="16" x="10" y="16">
tran1: run1795_vin0.678074
</text>
<path stroke="white" d="M50 704l0 -637"/>
<text stroke="none" fill="white" font-size="16" x="35" y="728">
0.0
</text>
<path stroke="white" stroke-dasharray="1,2" d="M182 704l0 -637"/>
<text stroke="none" fill="white" font-size="16" x="157" y="728">
100.0
</text>
<path stroke="white" stroke-dasharray="1,2" d="M314 704l0 -637"/>
<text stroke="none" fill="white" font-size="16" x="289" y="728">
200.0
</text>
<path stroke="white" stroke-dasharray="1,2" d="M446 704l0 -637"/>
<text stroke="none" fill="white" font-size="16" x="421" y="728">
300.0
</text>
<path stroke="white" stroke-dasharray="1,2" d="M578 704l0 -637"/>
<text stroke="none" fill="white" font-size="16" x="553" y="728">
400.0
</text>
<path stroke="white" stroke-dasharray="1,2" d="M710 704l0 -637"/>
<text stroke="none" fill="white" font-size="16" x="685" y="728">
500.0
</text>
<path stroke="white" stroke-dasharray="1,2" d="M842 704l0 -637"/>
<text stroke="none" fill="white" font-size="16" x="817" y="728">
600.0
</text>
<path stroke="white" stroke-dasharray="1,2" d="M974 704l0 -637"/>
<text stroke="none" fill="white" font-size="16" x="949" y="728">
700.0
</text>
<text stroke="none" fill="white" font-size="16" x="614" y="752">
ns
</text>
<path stroke="white" stroke-dasharray="1,2" d="M50 704l924 0"/>
<text stroke="none" fill="white" font-size="16" x="8" y="712">
-3.0
</text>
<path stroke="white" stroke-dasharray="1,2" d="M50 613l924 0"/>
<text stroke="none" fill="white" font-size="16" x="8" y="621">
-2.0
</text>
<path stroke="white" stroke-dasharray="1,2" d="M50 522l924 0"/>
<text stroke="none" fill="white" font-size="16" x="8" y="530">
-1.0
</text>
<path stroke="white" d="M50 431l924 0"/>
<text stroke="none" fill="white" font-size="16" x="18" y="439">
0.0
</text>
<path stroke="white" stroke-dasharray="1,2" d="M50 340l924 0"/>
<text stroke="none" fill="white" font-size="16" x="18" y="348">
1.0
</text>
<path stroke="white" stroke-dasharray="1,2" d="M50 249l924 0"/>
<text stroke="none" fill="white" font-size="16" x="18" y="257">
2.0
</text>
<path stroke="white" stroke-dasharray="1,2" d="M50 158l924 0"/>
<text stroke="none" fill="white" font-size="16" x="18" y="166">
3.0
</text>
<path stroke="white" stroke-dasharray="1,2" d="M50 67l924 0"/>
<text stroke="none" fill="white" font-size="16" x="18" y="75">
4.0
</text>
<text stroke="none" fill="white" font-size="16" x="10" y="32">
     
</text>
<path stroke="red" d="M462 23l46 0"/>
<text stroke="none" fill="white" font-size="16" x="518" y="32">
x1.vsampled_p
</text>
<path stroke="red" d="M50 431l1 0 1 -7 0 -15 1 -15 0 -5 1 2M54 414l0 -37 1 -5 0 -13 1 -3 0 -3 1 -2 0 -1 2 0 1 -1 3 0 1 1 4 0 1 -1 48 0 0 -1 1 -11 0 -32 1 -5 0 -7 1 -3 1 -1 0 -1 2 0 0 -1 416 0M539 288l0 -1M539 288l1 0M540 289l0 -1 14 0 0 -1M554 288l13 0"/>
<path stroke="red" d="M567 289l0 -1 7 0M574 313l0 -25M574 313l1 8M575 328l0 -7M575 328l1 1 4 0 0 -1 13 0M593 329l0 -1M593 329l7 0M600 344l0 -16M600 344l1 2M601 350l0 -4M601 350l1 -1 210 0 1 1 0 -1 18 0M831 350l0 -1 86 0 1 1 0 -38 1 -4 0 -12 1 -3"/>
<path stroke="red" d="M920 293l0 -3 1 -1 0 -1 2 0 0 -1M923 288l13 0M936 289l0 -1 14 0 0 -1M950 288l11 0 0 -1 13 0"/>
<path stroke="blue" d="M50 23l46 0"/>
<text stroke="none" fill="white" font-size="16" x="106" y="32">
x1.vsampled_n
</text>
<path stroke="blue" d="M50 431l1 0 1 -7 0 -15 1 -14 0 -5 1 2M54 414l0 -37 1 -5 0 -13 1 -3 0 -3 1 -2 0 -1 2 0 1 -1 3 0 1 1 4 0 0 -1 49 0M117 365l0 -16M117 365l1 16M118 400l0 -19M118 400l1 3M119 408l0 -5M119 408l3 3 424 0 0 -18 1 -3 0 -26 1 -7"/>
<path stroke="blue" d="M548 357l0 -4 1 -2 0 -1 5 0 0 -1M554 350l26 0 0 -1M580 350l26 0 0 -1 1 0M607 350l0 -1M607 350l20 0 0 -19 2 0 1 1 3 0 0 -1M633 332l13 0M646 333l0 -1 7 0M653 343l0 -11M653 343l1 1M654 345l0 -2 1 0 0 -1 17 0M672 343l0 -1 7 0"/>
<path stroke="blue" d="M679 349l0 -7M679 349l1 1M680 351l0 -4 19 0M699 348l0 -1 7 0M706 351l0 -4M706 351l1 0 0 -1 5 0 0 -1M712 350l20 0 0 -4M732 347l19 0M751 348l0 -1M751 348l1 0 0 -1 7 0M759 350l0 -3M759 349l6 0 0 -1M765 349l21 0M786 350l0 -1"/>
<path stroke="blue" d="M786 349l18 0M804 350l0 -1 26 0 1 1 0 -1 26 0M857 350l0 -1 26 0M883 350l0 -1M883 350l1 -1 26 0M910 350l0 -1 8 0M918 411l0 -62M918 411l1 3M919 415l0 -1M919 415l1 -1 0 -2 1 0 0 -1 53 0"/>
<path stroke="#FFA500" d="M462 39l46 0"/>
<text stroke="none" fill="white" font-size="16" x="518" y="48">
x1.vsampled_p-x1.vsampled_n
</text>
<path stroke="#FFA500" d="M50 431l2 0 0 -1 2 0M54 431l0 -1M54 431l63 0 0 -18 1 -26 0 -52 1 -7 0 -12 1 -4 1 -2 0 -1 1 -1 418 0M540 309l0 -1 6 0M546 326l0 -18M546 326l1 3M547 355l0 -26M547 355l1 7M548 366l0 -4M548 366l1 1M549 368l0 -1M549 368l1 1"/>
<path stroke="#FFA500" d="M550 369l17 0M567 370l0 -1 7 0M574 394l0 -25M574 394l1 9M575 409l0 -6M575 409l1 1 24 0M600 425l0 -15M600 425l1 3M601 431l0 -3M601 431l1 0 0 -1 25 0M627 449l0 -19M627 449l2 0 1 -1 3 0M633 449l0 -1 13 0 0 -1M646 448l7 0"/>
<path stroke="#FFA500" d="M653 448l0 -11 1 -1M654 437l0 -2M654 437l1 0M655 438l0 -1M655 438l24 0 0 -7 1 -1M680 433l0 -4M680 433l26 0 0 -4 1 0M707 430l0 -1M707 430l25 0M732 434l0 -4M732 433l19 0 0 -1M751 433l8 0 0 -3M759 431l27 0 0 -1M786 431l53 0"/>
<path stroke="#FFA500" d="M839 431l0 -1M839 431l79 0 0 -99 1 -7 0 -13 1 -1 0 -2 1 -1 2 0 0 -1M923 308l13 0M936 309l0 -1 14 0 0 -1M950 308l24 0"/>
<path stroke="green" d="M50 39l46 0"/>
<text stroke="none" fill="white" font-size="16" x="106" y="48">
x1.sw_sample-2
</text>
<path stroke="green" d="M50 613l1 0 1 -9 0 -21 1 -21M53 579l0 -23M53 579l1 31M54 613l0 -3M54 613l63 0M117 620l0 -172M117 449l422 0M539 614l0 -171M539 613l422 0M961 618l0 -170 1 1 12 0"/>
<path stroke="#FFC0C5" d="M462 55l46 0"/>
<text stroke="none" fill="white" font-size="16" x="518" y="64">
x1.comp_out_p+2
</text>
<path stroke="#FFC0C5" d="M50 249l1 0 1 -9 0 -22 1 -18 0 -4M53 198l1 5M54 249l0 -46M54 248l1 1 487 0 0 -165M542 85l13 0M555 249l0 -171M555 249l13 0M568 250l0 -166M568 85l13 0 0 -8 1 160M582 249l0 -12M582 249l12 0 0 -166M594 85l14 0M608 249l0 -166"/>
<path stroke="#FFC0C5" d="M608 249l14 0M622 250l0 -166 1 1 11 0M634 249l0 -172M634 249l93 0 1 -157 0 -8M728 85l12 0M740 249l0 -171M740 249l67 0 0 -165M807 85l12 0M819 250l0 -171M819 249l41 0 0 -165M860 85l12 0M872 249l0 -174M872 249l14 0 0 -164"/>
<path stroke="#FFC0C5" d="M886 85l12 0M898 249l0 -174M898 249l14 0 1 -153 0 -11 12 0M925 249l0 -172M925 249l12 0 1 -47 0 -118M938 85l13 0M951 250l0 -170M951 249l23 0"/>
<path stroke="#A52A2A" d="M50 55l46 0"/>
<text stroke="none" fill="white" font-size="16" x="106" y="64">
x1.comp_out_n-2
</text>
<path stroke="#A52A2A" d="M50 613l1 0 1 -9 0 -22 1 -19M53 564l0 -3M53 564l1 6M54 614l0 -49M54 595l1 17M55 613l0 -1M55 613l592 0M647 614l0 -166M647 449l14 0M661 613l0 -172M661 613l12 0 0 -56 1 -96 0 -13M674 449l13 0M687 613l0 -171M687 613l13 0"/>
<path stroke="#A52A2A" d="M700 613l0 -165M700 449l13 0 0 -10 1 153M714 613l0 -21M714 613l39 0 0 -165M753 449l13 0M766 613l0 -168M766 613l14 0 0 -164 13 0M793 613l0 -173M793 613l42 0 0 -165M835 449l10 0M845 450l0 -3M845 450l1 152M846 613l0 -11"/>
<path stroke="#A52A2A" d="M846 613l128 0"/>
</svg>
