<?xml version="1.0" standalone="yes"?>
<!DOCTYPE svg PUBLIC "-//W3C//DTD SVG 1.1//EN"
 "http://www.w3.org/Graphics/SVG/1.1/DTD/svg11.dtd">
<svg xmlns="http://www.w3.org/2000/svg" version="1.1"
  width="100%" height="100%" viewBox="0 0 1024 768"
  style="fill: none; font-family: Helvetica;
 font: Helvetica;
">

<!-- Creator: NGspice -->

<rect x="0" y="0" width="1024" height="768" fill="black" stroke="none"/>
<text stroke="none" fill="white" font-size="16" x="358" y="752">
time
</text>
<text stroke="none" fill="white" font-size="16" x="10" y="16">
tran1: run1793_vin0.676316
</text>
<path stroke="white" d="M50 704l0 -637"/>
<text stroke="none" fill="white" font-size="16" x="35" y="728">
0.0
</text>
<path stroke="white" stroke-dasharray="1,2" d="M182 704l0 -637"/>
<text stroke="none" fill="white" font-size="16" x="157" y="728">
100.0
</text>
<path stroke="white" stroke-dasharray="1,2" d="M314 704l0 -637"/>
<text stroke="none" fill="white" font-size="16" x="289" y="728">
200.0
</text>
<path stroke="white" stroke-dasharray="1,2" d="M446 704l0 -637"/>
<text stroke="none" fill="white" font-size="16" x="421" y="728">
300.0
</text>
<path stroke="white" stroke-dasharray="1,2" d="M578 704l0 -637"/>
<text stroke="none" fill="white" font-size="16" x="553" y="728">
400.0
</text>
<path stroke="white" stroke-dasharray="1,2" d="M710 704l0 -637"/>
<text stroke="none" fill="white" font-size="16" x="685" y="728">
500.0
</text>
<path stroke="white" stroke-dasharray="1,2" d="M842 704l0 -637"/>
<text stroke="none" fill="white" font-size="16" x="817" y="728">
600.0
</text>
<path stroke="white" stroke-dasharray="1,2" d="M974 704l0 -637"/>
<text stroke="none" fill="white" font-size="16" x="949" y="728">
700.0
</text>
<text stroke="none" fill="white" font-size="16" x="614" y="752">
ns
</text>
<path stroke="white" stroke-dasharray="1,2" d="M50 704l924 0"/>
<text stroke="none" fill="white" font-size="16" x="8" y="712">
-3.0
</text>
<path stroke="white" stroke-dasharray="1,2" d="M50 613l924 0"/>
<text stroke="none" fill="white" font-size="16" x="8" y="621">
-2.0
</text>
<path stroke="white" stroke-dasharray="1,2" d="M50 522l924 0"/>
<text stroke="none" fill="white" font-size="16" x="8" y="530">
-1.0
</text>
<path stroke="white" d="M50 431l924 0"/>
<text stroke="none" fill="white" font-size="16" x="18" y="439">
0.0
</text>
<path stroke="white" stroke-dasharray="1,2" d="M50 340l924 0"/>
<text stroke="none" fill="white" font-size="16" x="18" y="348">
1.0
</text>
<path stroke="white" stroke-dasharray="1,2" d="M50 249l924 0"/>
<text stroke="none" fill="white" font-size="16" x="18" y="257">
2.0
</text>
<path stroke="white" stroke-dasharray="1,2" d="M50 158l924 0"/>
<text stroke="none" fill="white" font-size="16" x="18" y="166">
3.0
</text>
<path stroke="white" stroke-dasharray="1,2" d="M50 67l924 0"/>
<text stroke="none" fill="white" font-size="16" x="18" y="75">
4.0
</text>
<text stroke="none" fill="white" font-size="16" x="10" y="32">
     
</text>
<path stroke="red" d="M462 23l46 0"/>
<text stroke="none" fill="white" font-size="16" x="518" y="32">
x1.vsampled_p
</text>
<path stroke="red" d="M50 431l1 0 1 -7 0 -15 1 -15 0 -5 1 2M54 414l0 -37 1 -5 0 -13 1 -3 0 -3 1 -2 0 -1 2 0 1 -1 3 0 1 1 4 0 1 -1 48 0 0 -1 1 -11 0 -32 1 -4 0 -8 1 -3 1 -1 0 -1 419 0M540 289l0 -1 14 0 0 -1M554 288l13 0M567 289l0 -1 7 0M574 316l0 -28"/>
<path stroke="red" d="M574 316l1 10 1 3 4 0 0 -1M580 329l20 0M600 342l0 -13M600 342l1 2M601 350l0 -6M601 350l1 0 0 -1 317 0M919 350l0 -35 1 -3 0 -15 1 -2 0 -5 1 0 0 -1 1 0 0 -1 13 0M936 289l0 -1 14 0 0 -1M950 288l12 0 0 -1 1 0M963 288l0 -1M963 288l11 0"/>
<path stroke="blue" d="M50 23l46 0"/>
<text stroke="none" fill="white" font-size="16" x="106" y="32">
x1.vsampled_n
</text>
<path stroke="blue" d="M50 431l1 0 1 -7 0 -15 1 -14 0 -5 1 2M54 414l0 -37 1 -5 0 -13 1 -3 0 -3 1 -2 0 -1 2 0 1 -1 3 0 1 1 4 0 0 -1 49 0M117 365l0 -16M117 365l1 16M118 400l0 -19M118 400l1 3M119 408l0 -5M119 408l2 2 1 0 1 1 423 0 0 -21 1 -2 0 -24"/>
<path stroke="blue" d="M547 364l1 -8 0 -3 1 -2 0 -1 2 0 0 -1 15 0 1 1 0 -1 26 0M593 350l0 -1 26 0M619 350l0 -1M619 350l1 0 0 -1 6 0M626 350l0 -1 1 -5 0 -14 1 1 1 0M629 332l0 -1M629 332l4 0 0 -1M633 332l13 0M646 333l0 -2M646 332l7 0M653 344l0 -13"/>
<path stroke="blue" d="M653 344l1 0M654 345l0 -2 1 -1 4 0 0 -1M659 342l20 0M679 349l0 -7M679 349l1 1 0 -3 26 0M706 351l0 -4M706 350l2 0 0 -1 17 0M725 350l0 -1 7 0 0 -3 1 0M733 347l0 -1M733 347l18 0M751 348l0 -1 8 0M759 350l0 -3M759 349l6 0 0 -1"/>
<path stroke="blue" d="M765 348l13 0M778 349l0 -1M778 349l7 0 1 1 0 -1 18 0M804 350l0 -1 10 0M814 350l0 -1M814 350l1 0 0 -1 15 0 1 1 0 -1 26 0M857 350l0 -1 26 0M883 350l0 -1 27 0M910 350l0 -1 9 0M919 407l0 -59M919 407l1 4M920 415l0 -4M920 415l1 -1"/>
<path stroke="blue" d="M921 414l0 -2 1 0 0 -1 52 0"/>
<path stroke="#FFA500" d="M462 39l46 0"/>
<text stroke="none" fill="white" font-size="16" x="518" y="48">
x1.vsampled_p-x1.vsampled_n
</text>
<path stroke="#FFA500" d="M50 431l2 0 0 -1 2 0M54 431l0 -1M54 431l63 0 0 -17 1 -27 0 -51 1 -7 0 -13 2 -6 0 -1 1 -1 418 0M540 309l0 -1 6 0M546 329l0 -21M546 329l1 2M547 355l0 -24M547 355l1 7M548 366l0 -4M548 366l1 2M549 369l0 -1M549 369l17 0 1 1"/>
<path stroke="#FFA500" d="M567 370l0 -1 7 0M574 398l0 -29M574 398l1 10 1 2 17 0M593 411l0 -1 7 0M600 424l0 -14M600 424l1 2M601 432l0 -6M601 432l1 -1 24 0 1 5M627 450l0 -14M627 450l1 0 0 -1 2 0 1 -1 2 0M633 449l0 -1M633 449l13 0 0 -1 7 0M653 449l0 -12"/>
<path stroke="#FFA500" d="M653 437l1 -1M654 437l0 -2M654 437l1 1 4 0M659 439l0 -1 20 0 0 -7 1 -1M680 433l0 -3M680 433l26 0 0 -4M706 430l1 0M707 431l0 -1M707 431l25 0M732 435l0 -4M732 435l1 -1 0 -1 26 0 0 -3M759 431l1 0M760 432l0 -1M760 432l18 0"/>
<path stroke="#FFA500" d="M778 432l0 -1M778 432l7 0 0 -1 1 -1M786 431l0 -1M786 431l28 0 0 -1M814 431l24 0M838 432l0 -1 81 0 0 -92 1 -8 0 -17 1 -2 0 -3 1 0 1 -1 13 0M936 309l0 -1 38 0"/>
<path stroke="green" d="M50 39l46 0"/>
<text stroke="none" fill="white" font-size="16" x="106" y="48">
x1.sw_sample-2
</text>
<path stroke="green" d="M50 613l1 0 1 -9 0 -21 1 -21M53 579l0 -23M53 579l1 31M54 613l0 -3M54 613l63 0M117 620l0 -172M117 449l422 0M539 614l0 -171M539 613l422 0M961 618l0 -170 1 1 12 0"/>
<path stroke="#FFC0C5" d="M462 55l46 0"/>
<text stroke="none" fill="white" font-size="16" x="518" y="64">
x1.comp_out_p+2
</text>
<path stroke="#FFC0C5" d="M50 249l1 0 1 -9 0 -22 1 -18 0 -4M53 198l1 5M54 249l0 -46M54 248l1 1 486 0 1 1 0 -167M542 85l13 0M555 249l0 -171M555 249l13 0M568 250l0 -166M568 85l13 0 0 -8 1 157M582 249l0 -15M582 249l12 0M594 250l0 -166M594 85l14 0"/>
<path stroke="#FFC0C5" d="M608 250l0 -174M608 249l14 0 0 -157 1 -8M623 85l0 -1M623 85l11 0M634 250l0 -170M634 250l1 -1 93 0 0 -164 12 0M740 250l0 -172M740 249l94 0 0 -165M834 85l11 0 0 -7 1 146M846 249l0 -25M846 249l15 0 0 -164 1 -1M862 85l0 -1"/>
<path stroke="#FFC0C5" d="M862 85l10 0M872 249l0 -172M872 249l15 0 1 -157 0 -8M888 85l10 0M898 249l0 -172M898 249l16 0 0 -165M914 85l11 0M925 249l0 -172M925 249l12 0 1 -47 0 -118M938 85l13 0M951 250l0 -171M951 249l23 0"/>
<path stroke="#A52A2A" d="M50 55l46 0"/>
<text stroke="none" fill="white" font-size="16" x="106" y="64">
x1.comp_out_n-2
</text>
<path stroke="#A52A2A" d="M50 613l1 0 1 -9 0 -22 1 -19M53 564l0 -3M53 564l1 6M54 614l0 -49M54 594l1 18M55 613l0 -1M55 613l592 0M647 615l0 -168M647 449l14 0M661 613l0 -173M661 613l12 0M673 616l0 -3M673 616l1 -118 0 -51M674 449l13 0M687 613l0 -171"/>
<path stroke="#A52A2A" d="M687 613l13 0 0 -165M700 449l13 0 0 -8 1 158M714 613l0 -14M714 613l39 0 0 -165M753 449l13 0M766 613l0 -173M766 613l14 0 0 -165M780 449l13 0M793 613l0 -173M793 613l15 0 0 -164 1 -1M809 449l0 -1M809 449l10 0M819 613l0 -173"/>
<path stroke="#A52A2A" d="M819 613l155 0"/>
</svg>
