<?xml version="1.0" standalone="yes"?>
<!DOCTYPE svg PUBLIC "-//W3C//DTD SVG 1.1//EN"
 "http://www.w3.org/Graphics/SVG/1.1/DTD/svg11.dtd">
<svg xmlns="http://www.w3.org/2000/svg" version="1.1"
  width="100%" height="100%" viewBox="0 0 1024 768"
  style="fill: none; font-family: Helvetica;
 font: Helvetica;
">

<!-- Creator: NGspice -->

<rect x="0" y="0" width="1024" height="768" fill="black" stroke="none"/>
<text stroke="none" fill="white" font-size="16" x="358" y="752">
time
</text>
<text stroke="none" fill="white" font-size="16" x="10" y="16">
tran1: run1284_vin0.228953
</text>
<path stroke="white" d="M50 704l0 -637"/>
<text stroke="none" fill="white" font-size="16" x="35" y="728">
0.0
</text>
<path stroke="white" stroke-dasharray="1,2" d="M182 704l0 -637"/>
<text stroke="none" fill="white" font-size="16" x="157" y="728">
100.0
</text>
<path stroke="white" stroke-dasharray="1,2" d="M314 704l0 -637"/>
<text stroke="none" fill="white" font-size="16" x="289" y="728">
200.0
</text>
<path stroke="white" stroke-dasharray="1,2" d="M446 704l0 -637"/>
<text stroke="none" fill="white" font-size="16" x="421" y="728">
300.0
</text>
<path stroke="white" stroke-dasharray="1,2" d="M578 704l0 -637"/>
<text stroke="none" fill="white" font-size="16" x="553" y="728">
400.0
</text>
<path stroke="white" stroke-dasharray="1,2" d="M710 704l0 -637"/>
<text stroke="none" fill="white" font-size="16" x="685" y="728">
500.0
</text>
<path stroke="white" stroke-dasharray="1,2" d="M842 704l0 -637"/>
<text stroke="none" fill="white" font-size="16" x="817" y="728">
600.0
</text>
<path stroke="white" stroke-dasharray="1,2" d="M974 704l0 -637"/>
<text stroke="none" fill="white" font-size="16" x="949" y="728">
700.0
</text>
<text stroke="none" fill="white" font-size="16" x="614" y="752">
ns
</text>
<path stroke="white" stroke-dasharray="1,2" d="M50 704l924 0"/>
<text stroke="none" fill="white" font-size="16" x="8" y="712">
-3.0
</text>
<path stroke="white" stroke-dasharray="1,2" d="M50 613l924 0"/>
<text stroke="none" fill="white" font-size="16" x="8" y="621">
-2.0
</text>
<path stroke="white" stroke-dasharray="1,2" d="M50 522l924 0"/>
<text stroke="none" fill="white" font-size="16" x="8" y="530">
-1.0
</text>
<path stroke="white" d="M50 431l924 0"/>
<text stroke="none" fill="white" font-size="16" x="18" y="439">
0.0
</text>
<path stroke="white" stroke-dasharray="1,2" d="M50 340l924 0"/>
<text stroke="none" fill="white" font-size="16" x="18" y="348">
1.0
</text>
<path stroke="white" stroke-dasharray="1,2" d="M50 249l924 0"/>
<text stroke="none" fill="white" font-size="16" x="18" y="257">
2.0
</text>
<path stroke="white" stroke-dasharray="1,2" d="M50 158l924 0"/>
<text stroke="none" fill="white" font-size="16" x="18" y="166">
3.0
</text>
<path stroke="white" stroke-dasharray="1,2" d="M50 67l924 0"/>
<text stroke="none" fill="white" font-size="16" x="18" y="75">
4.0
</text>
<text stroke="none" fill="white" font-size="16" x="10" y="32">
     
</text>
<path stroke="red" d="M462 23l46 0"/>
<text stroke="none" fill="white" font-size="16" x="518" y="32">
x1.vsampled_p
</text>
<path stroke="red" d="M50 431l1 0 1 -7 0 -15 1 -15 0 -4 1 1M54 415l0 -39 1 -5 0 -14 1 -3 0 -2 1 -2 2 0 1 -1 4 0M64 350l0 -1M64 350l4 0 1 -1 48 0 1 -7 0 -9 2 -4 1 -1 418 0M539 329l0 -1M539 329l1 0 0 -1M540 329l14 0 0 -1 12 0 1 1 13 0 0 -1 13 0"/>
<path stroke="red" d="M593 329l0 -1M593 329l7 0M600 344l0 -16M600 344l1 3M601 352l0 -5M601 351l1 0 0 -2 210 0M812 350l0 -1M812 350l1 -1 18 0M831 350l0 -1 26 0M857 350l0 -1 26 0M883 350l0 -1 27 0M910 350l0 -1 8 0 0 -12 1 -2 0 -6 1 -1 2 0M922 329l0 -1"/>
<path stroke="red" d="M922 329l1 0 0 -1 13 0M936 329l0 -1M936 329l14 0 0 -1 24 0"/>
<path stroke="blue" d="M50 23l46 0"/>
<text stroke="none" fill="white" font-size="16" x="106" y="32">
x1.vsampled_n
</text>
<path stroke="blue" d="M50 431l1 0 1 -7 0 -15 1 -14 0 -5 1 2M54 415l0 -39 1 -5 0 -14 1 -3 0 -2 1 -2 2 0 1 -1 4 0M64 350l0 -1M64 350l4 0 1 -1 48 0M117 352l0 -3M117 352l1 6M118 366l0 -8M118 366l1 2 1 1M120 370l0 -1M120 370l426 0 0 -26 1 -3 0 -23"/>
<path stroke="blue" d="M547 318l1 -4 0 -3 1 -1 0 -1 5 0 0 -1M554 309l13 0M567 310l0 -1 7 0M574 339l0 -30M574 339l1 4M575 351l0 -8M575 351l1 1 0 -1 1 -1 3 0 0 -1M580 350l26 0 0 -1M606 350l20 0 0 -13 1 0 0 -5 6 0 0 -1M633 332l13 0M646 333l0 -1"/>
<path stroke="blue" d="M646 332l7 0M653 343l0 -11M653 343l1 1 0 -2 18 0M672 343l0 -1 7 0M679 348l0 -6M679 348l1 1M680 350l0 -3 19 0M699 348l0 -1 7 0M706 351l0 -4M706 351l1 -1 5 0 0 -1M712 350l20 0 0 -4 1 0M733 347l0 -1M733 347l18 0M751 348l0 -1"/>
<path stroke="blue" d="M751 348l1 0 0 -1 7 0M759 350l0 -3M759 349l6 0 0 -1M765 349l21 0M786 350l0 -1 18 0M804 350l0 -1 26 0 1 1 0 -1 87 0M918 366l0 -17M918 366l1 3M919 373l0 -4M919 372l1 -1 0 -1 54 0"/>
<path stroke="#FFA500" d="M462 39l46 0"/>
<text stroke="none" fill="white" font-size="16" x="518" y="48">
x1.vsampled_p-x1.vsampled_n
</text>
<path stroke="#FFA500" d="M50 431l67 0 0 -4 1 -12 0 -16 1 -6 1 -2 0 -1 2 0 0 -1 418 0M540 390l0 -1 1 1 0 -1 5 0M546 415l0 -26M546 415l1 4M547 442l0 -23M547 442l1 4M548 448l0 -2M548 448l1 2 1 1 16 0 1 -1M567 451l0 -1M567 451l7 0 0 -31 1 -3 0 -9"/>
<path stroke="#FFA500" d="M575 408l1 0 1 1M577 410l0 -1M577 410l23 0M600 426l0 -16M600 426l1 2M601 433l0 -5M601 433l1 -1 0 -1 1 -1 23 0M626 442l0 -12M626 442l1 1M627 448l0 -5M627 448l19 0 0 -1M646 448l7 0 0 -11 1 -1M654 437l0 -1M654 437l1 1 24 0"/>
<path stroke="#FFA500" d="M679 438l0 -6 1 -1M680 433l0 -3M680 433l26 0 0 -4 1 1 25 0M732 434l0 -4M732 434l1 0 0 -1 1 0 1 -1 3 0M738 433l0 -1M738 433l1 0 0 -1 12 0M751 433l0 -1M751 433l1 -1M752 433l0 -1 7 0 0 -2M759 431l27 0 0 -1M786 431l52 0"/>
<path stroke="#FFA500" d="M838 432l0 -1 80 0 0 -30 1 -4 0 -9 1 0M920 389l0 -1M920 389l16 0M936 390l0 -1 38 0"/>
<path stroke="green" d="M50 39l46 0"/>
<text stroke="none" fill="white" font-size="16" x="106" y="48">
x1.sw_sample-2
</text>
<path stroke="green" d="M50 613l1 0 1 -9 0 -21 1 -21M53 581l0 -25M53 581l1 29M54 613l0 -3M54 613l63 0M117 620l0 -172M117 449l422 0M539 614l0 -171M539 613l422 0M961 618l0 -170 1 1 12 0"/>
<path stroke="#FFC0C5" d="M462 55l46 0"/>
<text stroke="none" fill="white" font-size="16" x="518" y="64">
x1.comp_out_p+2
</text>
<path stroke="#FFC0C5" d="M50 249l1 0 1 -9 0 -22 1 -18 0 -4M53 198l1 5M54 249l0 -46M54 249l488 0 0 -165M542 85l13 0M555 249l0 -166M555 249l39 0M594 250l0 -166M594 85l14 0M608 250l0 -168M608 249l14 0 0 -165M622 85l12 0M634 249l0 -172M634 249l94 0"/>
<path stroke="#FFC0C5" d="M728 249l0 -165M728 85l12 0M740 249l0 -172M740 249l67 0 0 -165M807 85l12 0M819 249l0 -171M819 249l15 0 0 -165M834 85l11 0 0 -9 1 139M846 249l0 -34M846 249l91 0M937 251l0 -2M937 251l1 -101 0 -67M938 85l13 0M951 250l0 -167"/>
<path stroke="#FFC0C5" d="M951 249l23 0"/>
<path stroke="#A52A2A" d="M50 55l46 0"/>
<text stroke="none" fill="white" font-size="16" x="106" y="64">
x1.comp_out_n-2
</text>
<path stroke="#A52A2A" d="M50 613l1 0 1 -9 0 -22 1 -19M53 564l0 -3M53 564l1 6M54 613l0 -43M54 613l514 0 0 -166M568 449l13 0 0 -8 1 157M582 613l0 -15M582 613l12 0M594 614l0 -1 53 0M647 614l0 -166M647 449l14 0M661 614l0 -171M661 613l12 0 0 -42"/>
<path stroke="#A52A2A" d="M673 571l1 -107 0 -16M674 449l13 0M687 613l0 -171M687 613l13 0 0 -166M700 449l13 0M713 451l0 -4M713 451l1 152M714 613l0 -10M714 613l39 0M753 614l0 -166M753 449l13 0M766 613l0 -168M766 613l14 0 0 -164 13 0M793 613l0 -174"/>
<path stroke="#A52A2A" d="M793 613l67 0 0 -164 12 0M872 614l0 -169M872 613l14 0 0 -156 1 -9M887 449l0 -1M887 449l11 0M898 614l0 -169M898 613l15 0 0 -165M913 449l12 0M925 613l0 -173M925 613l49 0"/>
</svg>
