<?xml version="1.0" standalone="yes"?>
<!DOCTYPE svg PUBLIC "-//W3C//DTD SVG 1.1//EN"
 "http://www.w3.org/Graphics/SVG/1.1/DTD/svg11.dtd">
<svg xmlns="http://www.w3.org/2000/svg" version="1.1"
  width="100%" height="100%" viewBox="0 0 1024 768"
  style="fill: none; font-family: Helvetica;
 font: Helvetica;
">

<!-- Creator: NGspice -->

<rect x="0" y="0" width="1024" height="768" fill="black" stroke="none"/>
<text stroke="none" fill="white" font-size="16" x="358" y="752">
time
</text>
<text stroke="none" fill="white" font-size="16" x="10" y="16">
tran1: run157_vin-0.761572
</text>
<path stroke="white" d="M50 704l0 -637"/>
<text stroke="none" fill="white" font-size="16" x="35" y="728">
0.0
</text>
<path stroke="white" stroke-dasharray="1,2" d="M182 704l0 -637"/>
<text stroke="none" fill="white" font-size="16" x="157" y="728">
100.0
</text>
<path stroke="white" stroke-dasharray="1,2" d="M314 704l0 -637"/>
<text stroke="none" fill="white" font-size="16" x="289" y="728">
200.0
</text>
<path stroke="white" stroke-dasharray="1,2" d="M446 704l0 -637"/>
<text stroke="none" fill="white" font-size="16" x="421" y="728">
300.0
</text>
<path stroke="white" stroke-dasharray="1,2" d="M578 704l0 -637"/>
<text stroke="none" fill="white" font-size="16" x="553" y="728">
400.0
</text>
<path stroke="white" stroke-dasharray="1,2" d="M710 704l0 -637"/>
<text stroke="none" fill="white" font-size="16" x="685" y="728">
500.0
</text>
<path stroke="white" stroke-dasharray="1,2" d="M842 704l0 -637"/>
<text stroke="none" fill="white" font-size="16" x="817" y="728">
600.0
</text>
<path stroke="white" stroke-dasharray="1,2" d="M974 704l0 -637"/>
<text stroke="none" fill="white" font-size="16" x="949" y="728">
700.0
</text>
<text stroke="none" fill="white" font-size="16" x="614" y="752">
ns
</text>
<path stroke="white" stroke-dasharray="1,2" d="M50 704l924 0"/>
<text stroke="none" fill="white" font-size="16" x="8" y="712">
-3.0
</text>
<path stroke="white" stroke-dasharray="1,2" d="M50 613l924 0"/>
<text stroke="none" fill="white" font-size="16" x="8" y="621">
-2.0
</text>
<path stroke="white" stroke-dasharray="1,2" d="M50 522l924 0"/>
<text stroke="none" fill="white" font-size="16" x="8" y="530">
-1.0
</text>
<path stroke="white" d="M50 431l924 0"/>
<text stroke="none" fill="white" font-size="16" x="18" y="439">
0.0
</text>
<path stroke="white" stroke-dasharray="1,2" d="M50 340l924 0"/>
<text stroke="none" fill="white" font-size="16" x="18" y="348">
1.0
</text>
<path stroke="white" stroke-dasharray="1,2" d="M50 249l924 0"/>
<text stroke="none" fill="white" font-size="16" x="18" y="257">
2.0
</text>
<path stroke="white" stroke-dasharray="1,2" d="M50 158l924 0"/>
<text stroke="none" fill="white" font-size="16" x="18" y="166">
3.0
</text>
<path stroke="white" stroke-dasharray="1,2" d="M50 67l924 0"/>
<text stroke="none" fill="white" font-size="16" x="18" y="75">
4.0
</text>
<text stroke="none" fill="white" font-size="16" x="10" y="32">
     
</text>
<path stroke="red" d="M462 23l46 0"/>
<text stroke="none" fill="white" font-size="16" x="518" y="32">
x1.vsampled_p
</text>
<path stroke="red" d="M50 431l1 0 1 -7 0 -15 1 -14 0 -5 1 2M54 414l0 -38 1 -5 0 -13 1 -3 0 -2 1 -2 0 -1 2 0 1 -1 3 0 1 1 3 0 1 -1 49 0M117 369l0 -20M117 369l1 16M118 407l0 -22M118 407l1 2M119 414l0 -5M119 414l1 2M120 417l0 -1M120 417l1 1 418 0"/>
<path stroke="red" d="M539 418l1 1 1 -1M541 419l0 -1M541 419l5 0 0 -22 1 -3 0 -26 1 -6 1 -3 0 -1 1 -1 17 0M567 358l0 -1 26 0M593 358l0 -1 26 0M619 358l0 -1 6 0 0 -14 1 -1 0 -4 1 0M627 339l0 -1M627 339l19 0M646 340l0 -1 7 0M653 351l0 -12M653 351l1 1"/>
<path stroke="red" d="M654 352l0 -1 1 -1 4 0 0 -1 1 0M660 350l0 -1M660 350l1 -1 11 0M672 350l0 -1 1 0M673 350l0 -1M673 350l13 0 0 -1M686 350l12 0 0 -1M698 350l1 0 0 -1M699 350l13 0 0 -1 1 0M713 350l0 -1M713 350l12 0 0 -1M725 350l7 0 0 -4 1 1"/>
<path stroke="red" d="M733 347l18 0M751 348l0 -1M751 348l1 0 0 -1 7 0M759 350l0 -3M759 349l6 0 0 -1M765 349l13 0 0 -1M778 349l7 0M785 350l0 -1M785 350l1 0 0 -1 18 0M804 350l0 -1 27 0M831 350l0 -1 26 0M857 350l0 -1 26 0M883 350l0 -1M883 350l1 -1"/>
<path stroke="red" d="M884 349l26 0M910 350l0 -1 8 0M918 424l0 -75M918 424l1 1 0 -1 1 -1 0 -3 1 0 0 -1 2 0 0 -1M923 419l1 0 0 -1 12 0M936 419l0 -1M936 419l14 0 0 -1 24 0"/>
<path stroke="blue" d="M50 23l46 0"/>
<text stroke="none" fill="white" font-size="16" x="106" y="32">
x1.vsampled_n
</text>
<path stroke="blue" d="M50 431l1 0 1 -7 0 -16 1 -14 0 -5 1 2M54 414l0 -38 1 -5 0 -13 1 -3 0 -2 1 -2 0 -1 2 0 1 -1 3 0 1 1 5 0 0 -1 48 0 0 -1 1 -12 0 -34 1 -6 0 -9 1 -3 0 -2 2 -2 418 0M540 281l0 -1 14 0 0 -1M554 280l13 0M567 282l0 -2 7 0M574 303l0 -23"/>
<path stroke="blue" d="M574 303l1 6M575 319l0 -10M575 319l1 2 17 0M593 322l0 -1 7 0M600 335l0 -14M600 335l1 3M601 342l0 -4M601 342l1 0 0 -1 17 0M619 342l0 -1 27 0M646 342l0 -1 26 0M672 342l0 -1 7 0M679 346l0 -5M679 346l1 1M680 348l0 -1 6 0 0 -1"/>
<path stroke="blue" d="M686 346l12 0 1 1 0 -1M699 347l6 0 1 1M706 350l0 -2M706 349l106 0 1 1 0 -1 18 0M831 350l0 -1 87 0M918 350l0 -48 1 -3 0 -10 1 -2 0 -4 1 -1 0 -1 1 0 0 -1 14 0M936 282l0 -2 14 0 0 -1M950 280l24 0"/>
<path stroke="#FFA500" d="M462 39l46 0"/>
<text stroke="none" fill="white" font-size="16" x="518" y="48">
x1.vsampled_p-x1.vsampled_n
</text>
<path stroke="#FFA500" d="M50 431l2 0M52 432l0 -1M52 432l2 0 0 -1 63 0M117 452l0 -21M117 452l1 28M118 536l0 -56M118 536l1 8M119 558l0 -14M119 558l1 5M120 566l0 -3M120 566l1 2 1 1 1 0 1 1 415 0 0 -1 1 0M540 570l0 -1 6 0 0 -21 1 -3 0 -26 1 -6 1 -3"/>
<path stroke="#FFA500" d="M549 510l0 -1 1 -1 4 0M554 509l0 -1 13 0 0 -1M567 508l7 0 0 -23 1 -6 0 -9 1 -3 24 0 0 -14 1 -3 0 -4 1 0M602 447l0 -1M602 447l23 0 0 -14 1 -1 0 -4 1 0 1 1 25 0M653 440l0 -11M653 440l1 2 0 -2 1 -1 24 0 0 -5 1 -1M680 434l0 -1"/>
<path stroke="#FFA500" d="M680 434l25 0 1 -1 0 -2 1 1 5 0 0 -1 1 0M713 432l0 -1M713 432l12 0 0 -1M725 432l7 0 0 -5M732 428l1 1 18 0M751 430l0 -1 8 0M759 432l0 -3M759 431l6 0 0 -1M765 431l13 0 0 -1M778 431l7 0M785 432l0 -1M785 432l1 0 0 -1 27 0"/>
<path stroke="#FFA500" d="M813 431l0 -1M813 431l105 0M918 553l0 -123M918 553l1 3M919 566l0 -10M919 566l1 1M920 568l0 -1M920 568l1 1 2 0M923 570l0 -1M923 570l13 0 0 -2M936 569l14 0M950 570l0 -1M950 570l12 0 0 -1M962 570l12 0"/>
<path stroke="green" d="M50 39l46 0"/>
<text stroke="none" fill="white" font-size="16" x="106" y="48">
x1.sw_sample-2
</text>
<path stroke="green" d="M50 613l1 0 1 -9 0 -21 1 -21M53 579l0 -23M53 579l1 31M54 613l0 -3M54 613l63 0M117 620l0 -172M117 449l422 0M539 614l0 -171M539 613l422 0M961 618l0 -170 1 1 12 0"/>
<path stroke="#FFC0C5" d="M462 55l46 0"/>
<text stroke="none" fill="white" font-size="16" x="518" y="64">
x1.comp_out_p+2
</text>
<path stroke="#FFC0C5" d="M50 249l1 0 1 -9 0 -22 1 -18 0 -4M53 198l1 5M54 249l0 -46M54 247l1 2 592 0 0 -165M647 85l14 0M661 249l0 -173M661 249l92 0 0 -165M753 85l13 0M766 249l0 -174M766 249l14 0 0 -165M780 85l13 0M793 249l0 -167M793 249l41 0"/>
<path stroke="#FFC0C5" d="M834 249l0 -165M834 85l11 0 0 -2M845 84l1 151M846 249l0 -14M846 249l128 0"/>
<path stroke="#A52A2A" d="M50 55l46 0"/>
<text stroke="none" fill="white" font-size="16" x="106" y="64">
x1.comp_out_n-2
</text>
<path stroke="#A52A2A" d="M50 613l1 0 1 -9 0 -22 1 -19M53 564l0 -3M53 564l1 6M54 613l0 -43M54 613l487 0 1 1 0 -167M542 449l13 0M555 613l0 -173M555 613l13 0 0 -165M568 449l13 0 0 -9 1 165M582 613l0 -8M582 613l12 0M594 614l0 -167M594 449l14 0M608 613l0 -173"/>
<path stroke="#A52A2A" d="M608 613l13 0M621 615l0 -168M621 449l13 0M634 613l0 -173M634 613l39 0 0 -4 1 -137 0 -25M674 449l13 0M687 613l0 -172M687 613l13 0 0 -165M700 449l13 0 0 -10 1 148M714 613l0 -26M714 613l13 0 1 -158 0 -7M728 449l12 0M740 613l0 -172"/>
<path stroke="#A52A2A" d="M740 613l67 0 0 -164 12 0M819 613l0 -168M819 613l41 0 0 -164 12 0M872 613l0 -174M872 613l14 0 0 -151 1 -13 0 -1M887 449l11 0M898 613l0 -174M898 613l15 0 0 -165M913 449l12 0M925 613l0 -173M925 613l12 0 1 -62 0 -103M938 449l13 0"/>
<path stroke="#A52A2A" d="M951 613l0 -172M951 613l23 0"/>
</svg>
