<?xml version="1.0" standalone="yes"?>
<!DOCTYPE svg PUBLIC "-//W3C//DTD SVG 1.1//EN"
 "http://www.w3.org/Graphics/SVG/1.1/DTD/svg11.dtd">
<svg xmlns="http://www.w3.org/2000/svg" version="1.1"
  width="100%" height="100%" viewBox="0 0 1024 768"
  style="fill: none; font-family: Helvetica;
 font: Helvetica;
">

<!-- Creator: NGspice -->

<rect x="0" y="0" width="1024" height="768" fill="black" stroke="none"/>
<text stroke="none" fill="white" font-size="16" x="358" y="752">
time
</text>
<text stroke="none" fill="white" font-size="16" x="10" y="16">
tran1: run153_vin-0.765088
</text>
<path stroke="white" d="M50 704l0 -637"/>
<text stroke="none" fill="white" font-size="16" x="35" y="728">
0.0
</text>
<path stroke="white" stroke-dasharray="1,2" d="M182 704l0 -637"/>
<text stroke="none" fill="white" font-size="16" x="157" y="728">
100.0
</text>
<path stroke="white" stroke-dasharray="1,2" d="M314 704l0 -637"/>
<text stroke="none" fill="white" font-size="16" x="289" y="728">
200.0
</text>
<path stroke="white" stroke-dasharray="1,2" d="M446 704l0 -637"/>
<text stroke="none" fill="white" font-size="16" x="421" y="728">
300.0
</text>
<path stroke="white" stroke-dasharray="1,2" d="M578 704l0 -637"/>
<text stroke="none" fill="white" font-size="16" x="553" y="728">
400.0
</text>
<path stroke="white" stroke-dasharray="1,2" d="M710 704l0 -637"/>
<text stroke="none" fill="white" font-size="16" x="685" y="728">
500.0
</text>
<path stroke="white" stroke-dasharray="1,2" d="M842 704l0 -637"/>
<text stroke="none" fill="white" font-size="16" x="817" y="728">
600.0
</text>
<path stroke="white" stroke-dasharray="1,2" d="M974 704l0 -637"/>
<text stroke="none" fill="white" font-size="16" x="949" y="728">
700.0
</text>
<text stroke="none" fill="white" font-size="16" x="614" y="752">
ns
</text>
<path stroke="white" stroke-dasharray="1,2" d="M50 704l924 0"/>
<text stroke="none" fill="white" font-size="16" x="8" y="712">
-3.0
</text>
<path stroke="white" stroke-dasharray="1,2" d="M50 613l924 0"/>
<text stroke="none" fill="white" font-size="16" x="8" y="621">
-2.0
</text>
<path stroke="white" stroke-dasharray="1,2" d="M50 522l924 0"/>
<text stroke="none" fill="white" font-size="16" x="8" y="530">
-1.0
</text>
<path stroke="white" d="M50 431l924 0"/>
<text stroke="none" fill="white" font-size="16" x="18" y="439">
0.0
</text>
<path stroke="white" stroke-dasharray="1,2" d="M50 340l924 0"/>
<text stroke="none" fill="white" font-size="16" x="18" y="348">
1.0
</text>
<path stroke="white" stroke-dasharray="1,2" d="M50 249l924 0"/>
<text stroke="none" fill="white" font-size="16" x="18" y="257">
2.0
</text>
<path stroke="white" stroke-dasharray="1,2" d="M50 158l924 0"/>
<text stroke="none" fill="white" font-size="16" x="18" y="166">
3.0
</text>
<path stroke="white" stroke-dasharray="1,2" d="M50 67l924 0"/>
<text stroke="none" fill="white" font-size="16" x="18" y="75">
4.0
</text>
<text stroke="none" fill="white" font-size="16" x="10" y="32">
     
</text>
<path stroke="red" d="M462 23l46 0"/>
<text stroke="none" fill="white" font-size="16" x="518" y="32">
x1.vsampled_p
</text>
<path stroke="red" d="M50 431l1 0 1 -7 0 -15 1 -14 0 -5 1 2M54 414l0 -38 1 -5 0 -13 1 -3 0 -2 1 -2 0 -1 2 0 1 -1 3 0 1 1 3 0 1 -1 49 0M117 369l0 -20M117 369l1 17M118 407l0 -21M118 407l1 3M119 415l0 -5M119 415l1 1M120 417l0 -1M120 417l2 2 424 0"/>
<path stroke="red" d="M546 419l0 -24 1 -3 0 -24 1 -6 1 -3 0 -1 5 0 0 -1 12 0 1 1 0 -1M567 358l13 0 0 -1 13 0M593 358l0 -1M593 358l13 0 0 -1 13 0M619 358l0 -1M619 358l1 0 0 -1M620 358l5 0 0 -9 1 -4 0 -6 2 0M628 340l0 -1M628 340l5 0 0 -1M633 340l20 0"/>
<path stroke="red" d="M653 351l0 -11M653 351l1 2 0 -2 1 -1 77 0 0 -4M732 347l1 1 5 0 0 -1 1 0M739 348l0 -1M739 348l20 0M759 351l0 -3M759 349l53 0M812 350l0 -1 19 0M831 350l0 -1 26 0M857 350l0 -1 26 0M883 350l0 -1M883 350l1 -1 26 0M910 350l0 -1"/>
<path stroke="red" d="M910 349l8 0M918 425l0 -76M918 425l1 0 0 -1 1 -1 0 -2 1 -1 0 -1 53 0"/>
<path stroke="blue" d="M50 23l46 0"/>
<text stroke="none" fill="white" font-size="16" x="106" y="32">
x1.vsampled_n
</text>
<path stroke="blue" d="M50 431l1 0 1 -7 0 -16 1 -14 0 -5 1 2M54 414l0 -38 1 -5 0 -13 1 -3 0 -2 1 -2 0 -1 2 0 1 -1 3 0 1 1 5 0 0 -1 48 0 0 -1 1 -12 0 -35 1 -5 0 -9 1 -3 0 -2 1 -1 0 -1 3 0 1 -1 414 0M539 280l0 -1M539 280l1 0M540 281l0 -1 14 0 0 -1"/>
<path stroke="blue" d="M554 280l13 0M567 281l0 -1 7 0M574 303l0 -23M574 303l1 7M575 319l0 -9M575 319l1 2 4 0 0 -1M580 321l20 0M600 338l0 -17M600 338l1 4 1 -1 77 0M679 346l0 -5M679 346l1 1 0 -1 26 0M706 349l0 -3M706 349l80 0M786 350l0 -1 18 0"/>
<path stroke="blue" d="M804 350l0 -1 27 0M831 350l0 -1 87 0M918 350l0 -50 1 -2 0 -10 1 -2 0 -4 1 -1 0 -1 2 0 0 -1M923 280l13 0M936 281l0 -1 14 0 0 -1M950 280l12 0 0 -1 12 0"/>
<path stroke="#FFA500" d="M462 39l46 0"/>
<text stroke="none" fill="white" font-size="16" x="518" y="48">
x1.vsampled_p-x1.vsampled_n
</text>
<path stroke="#FFA500" d="M50 431l2 0M52 432l0 -1M52 432l2 0 0 -1 63 0M117 452l0 -21M117 452l1 28M118 536l0 -56M118 536l1 9M119 559l0 -14M119 559l1 4M120 566l0 -3M120 566l1 2M121 569l0 -1M121 569l1 1 418 0 0 -1M540 570l6 0 0 -24 1 -3 0 -24 1 -6"/>
<path stroke="#FFA500" d="M548 513l1 -3 0 -1 18 0 0 -1M567 509l7 0 0 -24 1 -6 0 -9 1 -2 17 0 0 -1M593 468l7 0 0 -18 1 -3 0 -1M601 447l5 0M606 448l0 -1M606 448l1 0 0 -1 12 0M619 448l0 -1M619 448l1 0 0 -1 5 0 0 -8 1 -4 0 -7 1 1 1 0 1 1 4 0 0 -1"/>
<path stroke="#FFA500" d="M633 430l20 0M653 441l0 -12M653 441l1 1 0 -1 1 -1 24 0 0 -5 1 -1M680 435l0 -1M680 435l26 0 0 -3 26 0 0 -4M732 430l27 0M759 433l0 -3M759 431l27 0 0 -1M786 431l5 0 0 -1M791 431l13 0 0 -1 1 1 7 0M812 432l0 -1 106 0M918 556l0 -125"/>
<path stroke="#FFA500" d="M918 556l1 2M919 567l0 -9M919 567l1 1M920 569l0 -1M920 569l1 0M921 570l0 -1M921 570l2 0M923 571l0 -1 13 0 0 -1M936 570l14 0M950 571l0 -1 24 0"/>
<path stroke="green" d="M50 39l46 0"/>
<text stroke="none" fill="white" font-size="16" x="106" y="48">
x1.sw_sample-2
</text>
<path stroke="green" d="M50 613l1 0 1 -9 0 -21 1 -21M53 579l0 -23M53 579l1 31M54 613l0 -3M54 613l63 0M117 620l0 -172M117 449l422 0M539 614l0 -171M539 613l422 0M961 618l0 -170 1 1 12 0"/>
<path stroke="#FFC0C5" d="M462 55l46 0"/>
<text stroke="none" fill="white" font-size="16" x="518" y="64">
x1.comp_out_p+2
</text>
<path stroke="#FFC0C5" d="M50 249l1 0 1 -9 0 -22 1 -18 0 -4M53 198l1 5M54 249l0 -46M54 247l1 2 592 0M647 251l0 -167M647 85l14 0M661 249l0 -174M661 249l92 0 0 -165M753 85l13 0M766 250l0 -174M766 249l41 0 0 -165M807 85l12 0M819 249l0 -174M819 249l15 0"/>
<path stroke="#FFC0C5" d="M834 249l0 -165M834 85l11 0 0 -2M845 84l1 151M846 249l0 -14M846 249l128 0"/>
<path stroke="#A52A2A" d="M50 55l46 0"/>
<text stroke="none" fill="white" font-size="16" x="106" y="64">
x1.comp_out_n-2
</text>
<path stroke="#A52A2A" d="M50 613l1 0 1 -9 0 -22 1 -19M53 564l0 -3M53 564l1 6M54 613l0 -43M54 613l487 0 1 1 0 -167M542 449l13 0M555 613l0 -173M555 613l13 0M568 614l0 -167M568 449l13 0 0 -9 1 165M582 613l0 -8M582 613l12 0M594 617l0 -170M594 449l14 0"/>
<path stroke="#A52A2A" d="M608 614l0 -168M608 613l13 0 0 -166M621 449l13 0M634 613l0 -173M634 613l13 0M647 614l0 -1 26 0M673 615l0 -2M673 615l1 -106 0 -62M674 449l13 0M687 613l0 -172M687 613l13 0 0 -166M700 449l13 0 0 -9 1 163M714 613l0 -10M714 613l13 0"/>
<path stroke="#A52A2A" d="M727 613l0 -165 1 1 12 0M740 613l0 -173M740 613l40 0 0 -154 1 -11M781 449l0 -1M781 449l12 0M793 613l0 -172M793 613l67 0 0 -164 12 0M872 613l0 -174M872 613l14 0 0 -151 1 -13 0 -1M887 449l11 0M898 613l0 -174M898 613l15 0"/>
<path stroke="#A52A2A" d="M913 613l0 -165M913 449l12 0M925 613l0 -172M925 613l12 0M937 614l0 -1M937 614l1 -90 0 -77M938 449l13 0M951 613l0 -171M951 613l23 0"/>
</svg>
