<?xml version="1.0" standalone="yes"?>
<!DOCTYPE svg PUBLIC "-//W3C//DTD SVG 1.1//EN"
 "http://www.w3.org/Graphics/SVG/1.1/DTD/svg11.dtd">
<svg xmlns="http://www.w3.org/2000/svg" version="1.1"
  width="100%" height="100%" viewBox="0 0 1024 768"
  style="fill: none; font-family: Helvetica;
 font: Helvetica;
">

<!-- Creator: NGspice -->

<rect x="0" y="0" width="1024" height="768" fill="black" stroke="none"/>
<text stroke="none" fill="white" font-size="16" x="358" y="752">
time
</text>
<text stroke="none" fill="white" font-size="16" x="10" y="16">
tran1: run1241_vin0.191161
</text>
<path stroke="white" d="M50 704l0 -637"/>
<text stroke="none" fill="white" font-size="16" x="35" y="728">
0.0
</text>
<path stroke="white" stroke-dasharray="1,2" d="M182 704l0 -637"/>
<text stroke="none" fill="white" font-size="16" x="157" y="728">
100.0
</text>
<path stroke="white" stroke-dasharray="1,2" d="M314 704l0 -637"/>
<text stroke="none" fill="white" font-size="16" x="289" y="728">
200.0
</text>
<path stroke="white" stroke-dasharray="1,2" d="M446 704l0 -637"/>
<text stroke="none" fill="white" font-size="16" x="421" y="728">
300.0
</text>
<path stroke="white" stroke-dasharray="1,2" d="M578 704l0 -637"/>
<text stroke="none" fill="white" font-size="16" x="553" y="728">
400.0
</text>
<path stroke="white" stroke-dasharray="1,2" d="M710 704l0 -637"/>
<text stroke="none" fill="white" font-size="16" x="685" y="728">
500.0
</text>
<path stroke="white" stroke-dasharray="1,2" d="M842 704l0 -637"/>
<text stroke="none" fill="white" font-size="16" x="817" y="728">
600.0
</text>
<path stroke="white" stroke-dasharray="1,2" d="M974 704l0 -637"/>
<text stroke="none" fill="white" font-size="16" x="949" y="728">
700.0
</text>
<text stroke="none" fill="white" font-size="16" x="614" y="752">
ns
</text>
<path stroke="white" stroke-dasharray="1,2" d="M50 704l924 0"/>
<text stroke="none" fill="white" font-size="16" x="8" y="712">
-3.0
</text>
<path stroke="white" stroke-dasharray="1,2" d="M50 613l924 0"/>
<text stroke="none" fill="white" font-size="16" x="8" y="621">
-2.0
</text>
<path stroke="white" stroke-dasharray="1,2" d="M50 522l924 0"/>
<text stroke="none" fill="white" font-size="16" x="8" y="530">
-1.0
</text>
<path stroke="white" d="M50 431l924 0"/>
<text stroke="none" fill="white" font-size="16" x="18" y="439">
0.0
</text>
<path stroke="white" stroke-dasharray="1,2" d="M50 340l924 0"/>
<text stroke="none" fill="white" font-size="16" x="18" y="348">
1.0
</text>
<path stroke="white" stroke-dasharray="1,2" d="M50 249l924 0"/>
<text stroke="none" fill="white" font-size="16" x="18" y="257">
2.0
</text>
<path stroke="white" stroke-dasharray="1,2" d="M50 158l924 0"/>
<text stroke="none" fill="white" font-size="16" x="18" y="166">
3.0
</text>
<path stroke="white" stroke-dasharray="1,2" d="M50 67l924 0"/>
<text stroke="none" fill="white" font-size="16" x="18" y="75">
4.0
</text>
<text stroke="none" fill="white" font-size="16" x="10" y="32">
     
</text>
<path stroke="red" d="M462 23l46 0"/>
<text stroke="none" fill="white" font-size="16" x="518" y="32">
x1.vsampled_p
</text>
<path stroke="red" d="M50 431l1 0 1 -7 0 -15 1 -15 0 -4 1 1M54 415l0 -39 1 -5 0 -14 1 -3 0 -2 1 -2 2 0 1 -1 4 0M64 350l0 -1M64 350l4 0 1 -1 48 0 1 -6 0 -7 1 -2 1 -1 0 -1 420 0M540 333l0 -1 14 0 0 -1M554 332l13 0M567 333l0 -1 26 0M593 333l0 -1"/>
<path stroke="red" d="M593 332l7 0M600 346l0 -14M600 346l1 2M601 355l0 -7M601 355l1 -1 0 -1 1 0 1 -1 15 0M619 353l0 -1M619 353l1 0 0 -1 6 0 0 -17 1 0 0 -1 2 0 1 1 3 0 0 -1 13 0M646 335l0 -1M646 335l7 0M653 344l0 -10M653 344l1 1M654 346l0 -1M654 346l1 -1"/>
<path stroke="red" d="M655 345l4 0 0 -1M659 345l20 0M679 351l0 -6M679 351l1 1 0 -2 52 0 0 -3 1 0M733 348l0 -1M733 348l5 0 0 -1 1 0M739 348l0 -1M739 348l12 0 0 -1M751 348l8 0M759 350l0 -2M759 349l53 0M812 350l0 -1 19 0M831 350l0 -1 26 0M857 350l0 -1"/>
<path stroke="red" d="M857 349l26 0M883 350l0 -1 27 0M910 350l0 -1 8 0M918 351l0 -7 1 -1 0 -10 1 -1 16 0M936 333l0 -1 38 0"/>
<path stroke="blue" d="M50 23l46 0"/>
<text stroke="none" fill="white" font-size="16" x="106" y="32">
x1.vsampled_n
</text>
<path stroke="blue" d="M50 431l1 0 1 -7 0 -15 1 -14 0 -5 1 2M54 415l0 -39 1 -5 0 -14 1 -3 0 -2 1 -2 2 0 1 -1 4 0M64 350l0 -1M64 350l4 0 1 -1 48 0M117 352l0 -3M117 352l1 5M118 363l0 -6M118 363l1 2 1 1 419 0M539 367l0 -1M539 367l2 0 0 -1M541 367l5 0"/>
<path stroke="blue" d="M546 367l0 -21 1 -3 0 -24 1 -6 0 -4 1 -2 0 -1 2 0 0 -1 15 0 1 1M567 307l0 -2 7 0M574 333l0 -28M574 333l1 5M575 348l0 -10M575 348l1 0 0 -1 1 0 1 -1 15 0M593 347l0 -1 26 0M619 347l0 -1 27 0M646 347l0 -1 26 0M672 347l0 -1"/>
<path stroke="blue" d="M672 346l27 0M699 347l0 -1 7 0M706 350l0 -4M706 349l80 0M786 350l0 -1 18 0M804 350l0 -1 26 0 1 1 0 -1 87 0M918 360l0 -14M918 360l1 1M919 370l0 -9M919 369l1 -1 0 -1 42 0 0 -1 12 0"/>
<path stroke="#FFA500" d="M462 39l46 0"/>
<text stroke="none" fill="white" font-size="16" x="518" y="48">
x1.vsampled_p-x1.vsampled_n
</text>
<path stroke="#FFA500" d="M50 431l67 0 0 -3 1 -10 0 -14 1 -4 1 -2 0 -1 1 0 1 -1 418 0M540 397l0 -1 1 0M541 397l0 -1 5 0M546 417l0 -21M546 417l1 3M547 444l0 -24M547 444l1 6M548 454l0 -4M548 454l1 2M549 457l0 -1M549 457l2 0M551 458l0 -1M551 458l15 0"/>
<path stroke="#FFA500" d="M566 458l1 -1M567 458l0 -1M567 458l7 0 0 -28 1 -5 0 -10 1 0M576 416l0 -1M576 416l1 0 1 1 15 0 0 -1M593 417l7 0M600 431l0 -15M600 431l1 2M601 440l0 -7M601 440l1 -1 0 -2 24 0 0 -17 1 -1 19 0M646 420l0 -1 7 0M653 429l0 -10"/>
<path stroke="#FFA500" d="M653 429l1 1M654 431l0 -1 2 0 0 -1 16 0M672 430l0 -1 7 0M679 435l0 -6M679 435l1 1 0 -1 19 0 0 -1M699 435l7 0 0 -4 1 1 25 0 0 -3 1 0M733 430l0 -1M733 430l26 0M759 432l0 -2M759 431l27 0 0 -1 26 0M812 431l0 -1M812 431l106 0"/>
<path stroke="#FFA500" d="M918 436l0 -21 1 -3 0 -17 1 0 1 1 15 0M936 397l0 -1 38 0"/>
<path stroke="green" d="M50 39l46 0"/>
<text stroke="none" fill="white" font-size="16" x="106" y="48">
x1.sw_sample-2
</text>
<path stroke="green" d="M50 613l1 0 1 -9 0 -21 1 -21M53 581l0 -25M53 581l1 29M54 613l0 -3M54 613l63 0M117 620l0 -172M117 449l422 0M539 614l0 -171M539 613l422 0M961 618l0 -170 1 1 12 0"/>
<path stroke="#FFC0C5" d="M462 55l46 0"/>
<text stroke="none" fill="white" font-size="16" x="518" y="64">
x1.comp_out_p+2
</text>
<path stroke="#FFC0C5" d="M50 249l1 0 1 -9 0 -22 1 -18 0 -4M53 198l1 5M54 249l0 -46M54 249l488 0M542 251l0 -167M542 85l13 0M555 250l0 -166M555 249l39 0M594 250l0 -166M594 85l14 0M608 249l0 -172M608 249l39 0M647 250l0 -166M647 85l14 0M661 250l0 -172"/>
<path stroke="#FFC0C5" d="M661 249l12 0 1 1 0 -167M674 85l13 0M687 249l0 -172M687 249l66 0 0 -165M753 85l13 0M766 250l0 -174M766 249l41 0 0 -164 12 0M819 249l0 -173M819 249l15 0 0 -164 11 0 0 -2M845 85l1 150M846 249l0 -14M846 249l91 0M937 250l0 -1"/>
<path stroke="#FFC0C5" d="M937 250l1 -99 0 -68M938 85l13 0M951 250l0 -167M951 249l23 0"/>
<path stroke="#A52A2A" d="M50 55l46 0"/>
<text stroke="none" fill="white" font-size="16" x="106" y="64">
x1.comp_out_n-2
</text>
<path stroke="#A52A2A" d="M50 613l1 0 1 -9 0 -22 1 -19M53 564l0 -3M53 564l1 6M54 613l0 -43M54 613l488 0M542 614l0 -1 26 0M568 616l0 -169M568 449l13 0 0 -9 1 164M582 613l0 -9M582 613l12 0M594 614l0 -1 27 0M621 619l0 -172M621 449l13 0M634 614l0 -173"/>
<path stroke="#A52A2A" d="M634 613l13 0M647 614l0 -1 53 0M700 615l0 -168M700 449l13 0 0 -9 1 162M714 613l0 -11M714 613l13 0 0 -153 1 -11 12 0M740 613l0 -173M740 613l40 0 0 -157 1 -8M781 449l0 -1M781 449l12 0M793 613l0 -170M793 613l67 0 0 -148"/>
<path stroke="#A52A2A" d="M860 465l1 -17M861 449l0 -1M861 449l11 0M872 613l0 -174M872 613l14 0 1 -158 0 -7M887 449l11 0M898 613l0 -174M898 613l15 0 0 -165M913 449l12 0M925 613l0 -172M925 613l49 0"/>
</svg>
