<?xml version="1.0" standalone="yes"?>
<!DOCTYPE svg PUBLIC "-//W3C//DTD SVG 1.1//EN"
 "http://www.w3.org/Graphics/SVG/1.1/DTD/svg11.dtd">
<svg xmlns="http://www.w3.org/2000/svg" version="1.1"
  width="100%" height="100%" viewBox="0 0 1024 768"
  style="fill: none; font-family: Helvetica;
 font: Helvetica;
">

<!-- Creator: NGspice -->

<rect x="0" y="0" width="1024" height="768" fill="black" stroke="none"/>
<text stroke="none" fill="white" font-size="16" x="358" y="752">
time
</text>
<text stroke="none" fill="white" font-size="16" x="10" y="16">
tran1: run34_vin0.220238
</text>
<path stroke="white" d="M50 704l0 -637"/>
<text stroke="none" fill="white" font-size="16" x="35" y="728">
0.0
</text>
<path stroke="white" stroke-dasharray="1,2" d="M182 704l0 -637"/>
<text stroke="none" fill="white" font-size="16" x="157" y="728">
100.0
</text>
<path stroke="white" stroke-dasharray="1,2" d="M314 704l0 -637"/>
<text stroke="none" fill="white" font-size="16" x="289" y="728">
200.0
</text>
<path stroke="white" stroke-dasharray="1,2" d="M446 704l0 -637"/>
<text stroke="none" fill="white" font-size="16" x="421" y="728">
300.0
</text>
<path stroke="white" stroke-dasharray="1,2" d="M578 704l0 -637"/>
<text stroke="none" fill="white" font-size="16" x="553" y="728">
400.0
</text>
<path stroke="white" stroke-dasharray="1,2" d="M710 704l0 -637"/>
<text stroke="none" fill="white" font-size="16" x="685" y="728">
500.0
</text>
<path stroke="white" stroke-dasharray="1,2" d="M842 704l0 -637"/>
<text stroke="none" fill="white" font-size="16" x="817" y="728">
600.0
</text>
<path stroke="white" stroke-dasharray="1,2" d="M974 704l0 -637"/>
<text stroke="none" fill="white" font-size="16" x="949" y="728">
700.0
</text>
<text stroke="none" fill="white" font-size="16" x="614" y="752">
ns
</text>
<path stroke="white" stroke-dasharray="1,2" d="M50 704l924 0"/>
<text stroke="none" fill="white" font-size="16" x="8" y="712">
-3.0
</text>
<path stroke="white" stroke-dasharray="1,2" d="M50 613l924 0"/>
<text stroke="none" fill="white" font-size="16" x="8" y="621">
-2.0
</text>
<path stroke="white" stroke-dasharray="1,2" d="M50 522l924 0"/>
<text stroke="none" fill="white" font-size="16" x="8" y="530">
-1.0
</text>
<path stroke="white" d="M50 431l924 0"/>
<text stroke="none" fill="white" font-size="16" x="18" y="439">
0.0
</text>
<path stroke="white" stroke-dasharray="1,2" d="M50 340l924 0"/>
<text stroke="none" fill="white" font-size="16" x="18" y="348">
1.0
</text>
<path stroke="white" stroke-dasharray="1,2" d="M50 249l924 0"/>
<text stroke="none" fill="white" font-size="16" x="18" y="257">
2.0
</text>
<path stroke="white" stroke-dasharray="1,2" d="M50 158l924 0"/>
<text stroke="none" fill="white" font-size="16" x="18" y="166">
3.0
</text>
<path stroke="white" stroke-dasharray="1,2" d="M50 67l924 0"/>
<text stroke="none" fill="white" font-size="16" x="18" y="75">
4.0
</text>
<text stroke="none" fill="white" font-size="16" x="10" y="32">
     
</text>
<path stroke="red" d="M462 23l46 0"/>
<text stroke="none" fill="white" font-size="16" x="518" y="32">
x1.vsampled_p
</text>
<path stroke="red" d="M50 431l1 0 1 -7 0 -15 1 -15 0 -4 1 1M54 415l0 -39 1 -5 0 -14 1 -3 0 -2 1 -2 2 0 1 -1 4 0M64 350l0 -1M64 350l4 0 1 -1 48 0 1 -6 0 -9 1 -3 1 -1 0 -1 420 0M540 330l0 -1 27 0M567 330l0 -1 26 0M593 330l0 -1 7 0M600 345l0 -16"/>
<path stroke="red" d="M600 345l1 2M601 353l0 -6M601 352l1 -1 0 -1 24 0 0 -6 1 -3 0 -8 1 -1 5 0 0 -1M633 332l13 0M646 333l0 -1 7 0M653 341l0 -9M653 341l1 2 1 -1 17 0M672 343l0 -1 7 0M679 348l0 -6M679 348l1 1 0 -2 19 0M699 348l0 -1 7 0M706 351l0 -4"/>
<path stroke="red" d="M706 351l1 -1 25 0 0 -3 2 0 1 1 3 0 0 -1 13 0M751 348l0 -1M751 348l1 0 0 -1M752 348l7 0M759 350l0 -3M759 349l27 0M786 350l0 -1M786 350l1 0 0 -1 17 0M804 350l0 -1 26 0 1 1 0 -1 86 0M917 351l0 -2M917 351l1 -3 0 -16 1 -2 0 -1"/>
<path stroke="red" d="M919 329l17 0M936 330l0 -1 38 0"/>
<path stroke="blue" d="M50 23l46 0"/>
<text stroke="none" fill="white" font-size="16" x="106" y="32">
x1.vsampled_n
</text>
<path stroke="blue" d="M50 431l1 0 1 -7 0 -15 1 -14 0 -5 1 2M54 415l0 -39 1 -5 0 -14 1 -3 0 -2 1 -2 2 0 1 -1 4 0M64 350l0 -1M64 350l4 0 1 -1 48 0M117 352l0 -3M117 352l1 6M118 365l0 -7M118 365l1 2 1 1M120 369l0 -1M120 369l420 0M540 370l0 -1 6 0"/>
<path stroke="blue" d="M546 370l0 -24 1 -2 0 -25 1 -5 0 -3 1 -2 1 -1 4 0 0 -1M554 308l13 0M567 309l0 -1 7 0M574 335l0 -27M574 335l1 4M575 351l0 -12M575 351l1 0 0 -1 1 0 0 -1 235 0M812 350l0 -1 19 0M831 350l0 -1 26 0M857 350l0 -1 26 0M883 350l0 -1"/>
<path stroke="blue" d="M883 349l27 0M910 350l0 -1 7 0 1 -1M918 373l0 -25M918 373l1 -1 0 -2 1 0 0 -1 54 0"/>
<path stroke="#FFA500" d="M462 39l46 0"/>
<text stroke="none" fill="white" font-size="16" x="518" y="48">
x1.vsampled_p-x1.vsampled_n
</text>
<path stroke="#FFA500" d="M50 431l67 0 0 -3 1 -12 0 -16 1 -5 1 -2 0 -1 1 -1 425 0M546 414l0 -23M546 414l1 3M547 441l0 -24M547 441l1 5M548 449l0 -3M548 449l1 2M549 452l0 -1M549 452l5 0M554 453l0 -1 13 0M567 453l0 -2M567 452l7 0 0 -27 1 -4 0 -11"/>
<path stroke="#FFA500" d="M575 410l1 -1M576 410l0 -1M576 410l1 1 16 0M593 412l0 -1 7 0M600 427l0 -16M600 427l1 2M601 435l0 -6M601 434l1 0 0 -2 24 0 0 -6 1 -3 0 -8 1 -1 25 0M653 423l0 -9M653 423l1 2M654 426l0 -1 1 0 0 -1 24 0M679 430l0 -6M679 430l1 1"/>
<path stroke="#FFA500" d="M680 431l0 -1 1 -1 25 0M706 433l0 -4M706 433l1 -1 25 0 0 -3 1 0M733 430l0 -1M733 430l19 0 0 -1M752 430l7 0M759 432l0 -2M759 431l27 0M786 432l0 -1M786 432l18 0 0 -1M804 432l8 0 0 -1 105 0M917 433l0 -2M917 433l1 -2 0 -41"/>
<path stroke="#FFA500" d="M918 390l1 -1M919 390l0 -1M919 390l1 0M920 391l0 -1M920 391l16 0M936 392l0 -1 38 0"/>
<path stroke="green" d="M50 39l46 0"/>
<text stroke="none" fill="white" font-size="16" x="106" y="48">
x1.sw_sample-2
</text>
<path stroke="green" d="M50 613l1 0 1 -9 0 -21 1 -21M53 581l0 -25M53 581l1 29M54 613l0 -3M54 613l63 0M117 620l0 -172M117 449l422 0M539 614l0 -171M539 613l422 0M961 618l0 -170 1 1 12 0"/>
<path stroke="#FFC0C5" d="M462 55l46 0"/>
<text stroke="none" fill="white" font-size="16" x="518" y="64">
x1.comp_out_p+2
</text>
<path stroke="#FFC0C5" d="M50 249l1 0 1 -9 0 -22 1 -18 0 -4M53 198l1 5M54 249l0 -46M54 249l488 0M542 251l0 -167M542 85l13 0M555 250l0 -167M555 249l39 0M594 250l0 -167M594 85l14 0M608 250l0 -170M608 249l39 0M647 254l0 -171M647 85l14 0M661 249l0 -172"/>
<path stroke="#FFC0C5" d="M661 249l12 0 0 -48 1 -100 0 -17M674 85l13 0M687 249l0 -171M687 249l13 0 0 -165M700 85l13 0 0 -5 1 66M714 250l0 -104M714 249l39 0 0 -165M753 85l13 0M766 250l0 -174M766 249l14 0 1 -148 0 -17M781 85l12 0M793 249l0 -171"/>
<path stroke="#FFC0C5" d="M793 249l67 0M860 250l0 -166 1 1 11 0M872 249l0 -174M872 249l14 0 0 -157 1 -8M887 85l0 -1M887 85l11 0M898 249l0 -174M898 249l14 0 1 -157 0 -8M913 85l12 0M925 250l0 -169M925 249l12 0M937 250l0 -1M937 250l1 -85 0 -82M938 85l13 0"/>
<path stroke="#FFC0C5" d="M951 250l0 -167M951 249l23 0"/>
<path stroke="#A52A2A" d="M50 55l46 0"/>
<text stroke="none" fill="white" font-size="16" x="106" y="64">
x1.comp_out_n-2
</text>
<path stroke="#A52A2A" d="M50 613l1 0 1 -9 0 -22 1 -19M53 564l0 -3M53 564l1 6M54 613l0 -43M54 613l488 0M542 614l0 -1 26 0M568 615l0 -168M568 449l13 0 0 -9 1 160M582 613l0 -13M582 613l40 0 0 -165M622 449l12 0M634 613l0 -173M634 613l93 0 1 -148"/>
<path stroke="#A52A2A" d="M728 465l0 -17M728 449l12 0M740 613l0 -171M740 613l67 0 0 -165M807 449l12 0M819 613l0 -174M819 613l15 0 0 -165M834 449l11 0 0 -2M845 449l1 153M846 613l0 -11M846 613l128 0"/>
</svg>
