<?xml version="1.0" standalone="yes"?>
<!DOCTYPE svg PUBLIC "-//W3C//DTD SVG 1.1//EN"
 "http://www.w3.org/Graphics/SVG/1.1/DTD/svg11.dtd">
<svg xmlns="http://www.w3.org/2000/svg" version="1.1"
  width="100%" height="100%" viewBox="0 0 1024 768"
  style="fill: none; font-family: Helvetica;
 font: Helvetica;
">

<!-- Creator: NGspice -->

<rect x="0" y="0" width="1024" height="768" fill="black" stroke="none"/>
<text stroke="none" fill="white" font-size="16" x="358" y="752">
time
</text>
<text stroke="none" fill="white" font-size="16" x="10" y="16">
tran1: run1615_vin0.519871
</text>
<path stroke="white" d="M50 704l0 -637"/>
<text stroke="none" fill="white" font-size="16" x="35" y="728">
0.0
</text>
<path stroke="white" stroke-dasharray="1,2" d="M182 704l0 -637"/>
<text stroke="none" fill="white" font-size="16" x="157" y="728">
100.0
</text>
<path stroke="white" stroke-dasharray="1,2" d="M314 704l0 -637"/>
<text stroke="none" fill="white" font-size="16" x="289" y="728">
200.0
</text>
<path stroke="white" stroke-dasharray="1,2" d="M446 704l0 -637"/>
<text stroke="none" fill="white" font-size="16" x="421" y="728">
300.0
</text>
<path stroke="white" stroke-dasharray="1,2" d="M578 704l0 -637"/>
<text stroke="none" fill="white" font-size="16" x="553" y="728">
400.0
</text>
<path stroke="white" stroke-dasharray="1,2" d="M710 704l0 -637"/>
<text stroke="none" fill="white" font-size="16" x="685" y="728">
500.0
</text>
<path stroke="white" stroke-dasharray="1,2" d="M842 704l0 -637"/>
<text stroke="none" fill="white" font-size="16" x="817" y="728">
600.0
</text>
<path stroke="white" stroke-dasharray="1,2" d="M974 704l0 -637"/>
<text stroke="none" fill="white" font-size="16" x="949" y="728">
700.0
</text>
<text stroke="none" fill="white" font-size="16" x="614" y="752">
ns
</text>
<path stroke="white" stroke-dasharray="1,2" d="M50 704l924 0"/>
<text stroke="none" fill="white" font-size="16" x="8" y="712">
-2.5
</text>
<path stroke="white" stroke-dasharray="1,2" d="M50 655l924 0"/>
<text stroke="none" fill="white" font-size="16" x="8" y="663">
-2.0
</text>
<path stroke="white" stroke-dasharray="1,2" d="M50 606l924 0"/>
<text stroke="none" fill="white" font-size="16" x="8" y="614">
-1.5
</text>
<path stroke="white" stroke-dasharray="1,2" d="M50 557l924 0"/>
<text stroke="none" fill="white" font-size="16" x="8" y="565">
-1.0
</text>
<path stroke="white" stroke-dasharray="1,2" d="M50 508l924 0"/>
<text stroke="none" fill="white" font-size="16" x="8" y="516">
-0.5
</text>
<path stroke="white" d="M50 459l924 0"/>
<text stroke="none" fill="white" font-size="16" x="18" y="467">
0.0
</text>
<path stroke="white" stroke-dasharray="1,2" d="M50 410l924 0"/>
<text stroke="none" fill="white" font-size="16" x="18" y="418">
0.5
</text>
<path stroke="white" stroke-dasharray="1,2" d="M50 361l924 0"/>
<text stroke="none" fill="white" font-size="16" x="18" y="369">
1.0
</text>
<path stroke="white" stroke-dasharray="1,2" d="M50 312l924 0"/>
<text stroke="none" fill="white" font-size="16" x="18" y="320">
1.5
</text>
<path stroke="white" stroke-dasharray="1,2" d="M50 263l924 0"/>
<text stroke="none" fill="white" font-size="16" x="18" y="271">
2.0
</text>
<path stroke="white" stroke-dasharray="1,2" d="M50 214l924 0"/>
<text stroke="none" fill="white" font-size="16" x="18" y="222">
2.5
</text>
<path stroke="white" stroke-dasharray="1,2" d="M50 165l924 0"/>
<text stroke="none" fill="white" font-size="16" x="18" y="173">
3.0
</text>
<path stroke="white" stroke-dasharray="1,2" d="M50 116l924 0"/>
<text stroke="none" fill="white" font-size="16" x="18" y="124">
3.5
</text>
<path stroke="white" stroke-dasharray="1,2" d="M50 67l924 0"/>
<text stroke="none" fill="white" font-size="16" x="18" y="75">
4.0
</text>
<text stroke="none" fill="white" font-size="16" x="10" y="32">
     
</text>
<path stroke="red" d="M462 23l46 0"/>
<text stroke="none" fill="white" font-size="16" x="518" y="32">
x1.vsampled_p
</text>
<path stroke="red" d="M50 459l1 0 1 -7 0 -17 1 -16 0 -5 1 2M54 441l0 -42 1 -5 0 -15 1 -2 0 -3 1 -2 1 0 0 -1 59 0 0 -1 1 -11 0 -22 1 -5 0 -7 1 -2 0 -2 1 0 1 -1 418 0M540 321l0 -1 26 0 1 1 0 -1 7 0M574 344l0 -24M574 344l1 9M575 360l0 -7M575 360l1 3"/>
<path stroke="red" d="M576 364l0 -1M576 364l17 0M593 365l0 -1 26 0M619 365l0 -1 27 0M646 365l0 -1 26 0M672 365l0 -1 7 0M679 370l0 -6M679 370l1 1 0 -1 6 0 0 -1M686 370l26 0 0 -1M712 370l26 0 0 -1M738 370l21 0M759 372l0 -2M759 371l158 0 0 -1 1 -1"/>
<path stroke="red" d="M918 369l0 -29 1 -2 0 -9 1 -3 0 -3 1 -1 0 -1 1 0 0 -1 14 0M936 322l0 -2 38 0"/>
<path stroke="blue" d="M50 23l46 0"/>
<text stroke="none" fill="white" font-size="16" x="106" y="32">
x1.vsampled_n
</text>
<path stroke="blue" d="M50 459l1 0 1 -7 0 -17 1 -15 0 -5 1 2M54 441l0 -42 1 -5 0 -15 1 -2 0 -3 1 -2 1 0 0 -1 59 0M117 382l0 -11M117 382l1 14M118 410l0 -14M118 410l1 4M119 418l0 -4M119 418l1 2M120 421l0 -1M120 421l1 0 1 1 424 0 0 -24 1 -3 0 -25"/>
<path stroke="blue" d="M547 370l1 -5 0 -6 1 -1 0 -1 1 0 0 -1 4 0 0 -1M554 356l13 0M567 357l0 -1 13 0 0 -1M580 356l13 0M593 357l0 -1 7 0M600 376l0 -20M600 376l1 3M601 384l0 -5M601 382l1 -2 0 -1 1 -1 22 0 0 -9 1 -3 0 -8 1 -1M627 358l0 -1M627 358l1 0"/>
<path stroke="blue" d="M628 358l1 1 4 0 0 -1M633 359l20 0M653 370l0 -11M653 370l1 2 0 -1 1 -1 4 0 0 -1M659 370l27 0 0 -1M686 370l26 0 0 -1M712 370l5 0M717 373l0 -3M717 373l1 1 0 -1 1 -1 6 0M725 373l0 -1 6 0 0 -2 1 -1M732 370l0 -2M732 370l53 0"/>
<path stroke="blue" d="M785 370l1 1 5 0 0 -1M791 371l21 0 1 1 0 -1 26 0 0 -1M839 371l5 0 0 -1M844 371l26 0 0 -1 1 1 26 0 0 -1M897 371l20 0M917 372l0 -1M917 372l1 0M918 414l0 -42M918 414l1 3M919 424l0 -7M919 424l1 0 0 -1 1 -1 53 0"/>
<path stroke="#FFA500" d="M462 39l46 0"/>
<text stroke="none" fill="white" font-size="16" x="518" y="48">
x1.vsampled_p-x1.vsampled_n
</text>
<path stroke="#FFA500" d="M50 459l2 0 1 -1 1 0M54 459l0 -1M54 459l63 0 0 -12 1 -25 0 -37 1 -8 0 -12 1 -3 0 -2 1 -2 1 0 0 -1 418 0M540 358l0 -1 1 0M541 358l0 -1 5 0M546 381l0 -24M546 381l1 3M547 409l0 -25M547 409l1 5M548 421l0 -7M548 421l1 0M549 422l0 -1"/>
<path stroke="#FFA500" d="M549 422l1 1 4 0M554 424l0 -1 13 0M567 424l0 -1 7 0M574 447l0 -24M574 447l1 9M575 463l0 -7M575 463l1 3M576 467l0 -1M576 467l4 0M580 468l0 -1 20 0 0 -19 1 -3 0 -6M601 441l1 2M602 445l0 -2M602 445l23 0M625 454l0 -9M625 454l1 4"/>
<path stroke="#FFA500" d="M626 466l0 -8M626 466l1 0 0 -1 2 0 1 -1 3 0M633 465l0 -1M633 465l13 0 0 -1 1 0M647 465l0 -1 6 0M653 465l0 -11 1 -3M654 452l0 -1M654 452l1 1 1 0M656 454l0 -1M656 454l3 0 0 -1M659 454l13 0 0 -1M672 454l7 0M679 459l0 -5"/>
<path stroke="#FFA500" d="M679 459l1 1 0 -1 37 0 0 -4 1 0M718 456l0 -1M718 456l13 0M731 459l0 -3M731 459l1 1 0 -1 27 0M759 461l0 -2M759 460l26 0 1 -1 26 0 1 -1M813 459l0 -1M813 459l26 0M839 460l0 -1 78 0 0 -2 1 -2 0 -69 1 -6 0 -16 1 -3 0 -2 1 -1"/>
<path stroke="#FFA500" d="M921 358l2 0 0 -1 13 0M936 359l0 -2 38 0"/>
<path stroke="green" d="M50 39l46 0"/>
<text stroke="none" fill="white" font-size="16" x="106" y="48">
x1.sw_sample-2
</text>
<path stroke="green" d="M50 655l1 0 1 -10 0 -23 1 -21M53 619l0 -25M53 619l1 33M54 655l0 -3M54 655l63 0M117 662l0 -184 1 0M118 479l0 -1M118 479l421 0M539 656l0 -184M539 655l422 0M961 660l0 -182 1 0M962 479l0 -1M962 479l12 0"/>
<path stroke="#FFC0C5" d="M462 55l46 0"/>
<text stroke="none" fill="white" font-size="16" x="518" y="64">
x1.comp_out_p+2
</text>
<path stroke="#FFC0C5" d="M50 263l1 0 1 -10 0 -23 1 -20 0 -4M53 209l1 4M54 263l0 -50M54 263l488 0 0 -178M542 87l13 0M555 264l0 -181M555 263l13 0M568 268l0 -183M568 87l13 0 0 -9 1 167M582 263l0 -18M582 263l39 0M621 265l0 -180M621 87l13 0M634 264l0 -185"/>
<path stroke="#FFC0C5" d="M634 264l1 -1 38 0 1 -58 0 -120M674 87l13 0M687 263l0 -185M687 263l40 0 0 -178M727 87l13 0M740 264l0 -187M740 263l13 0 0 -158 1 -19M754 87l0 -1M754 87l12 0M766 263l0 -185M766 263l68 0 1 -169 0 -8M835 87l10 0 0 -7 1 116"/>
<path stroke="#FFC0C5" d="M846 264l0 -68M846 263l91 0M937 270l0 -7M937 270l1 -150 0 -35M938 87l13 0M951 264l0 -180M951 263l23 0"/>
<path stroke="#A52A2A" d="M50 55l46 0"/>
<text stroke="none" fill="white" font-size="16" x="106" y="64">
x1.comp_out_n-2
</text>
<path stroke="#A52A2A" d="M50 655l1 0 1 -10 0 -24 1 -20M53 602l0 -3M53 602l1 7M54 656l0 -47M54 654l1 1 539 0M594 661l0 -185M594 478l1 0M595 479l0 -1M595 479l13 0M608 656l0 -187M608 655l39 0M647 657l0 -181M647 479l14 0M661 655l0 -184M661 655l50 0"/>
<path stroke="#A52A2A" d="M711 655l0 -178M711 479l2 0 0 -8 1 139M714 655l0 -45M714 655l66 0 0 -177M780 479l13 0M793 655l0 -188M793 655l14 0 0 -177M807 479l12 0M819 655l0 -185M819 655l41 0 0 -177M860 479l12 0M872 655l0 -188M872 655l14 0 0 -177"/>
<path stroke="#A52A2A" d="M886 478l1 1 11 0M898 655l0 -188M898 655l14 0 1 -164 0 -13M913 479l12 0M925 656l0 -187M925 655l49 0"/>
</svg>
