<?xml version="1.0" standalone="yes"?>
<!DOCTYPE svg PUBLIC "-//W3C//DTD SVG 1.1//EN"
 "http://www.w3.org/Graphics/SVG/1.1/DTD/svg11.dtd">
<svg xmlns="http://www.w3.org/2000/svg" version="1.1"
  width="100%" height="100%" viewBox="0 0 1024 768"
  style="fill: none; font-family: Helvetica;
 font: Helvetica;
">

<!-- Creator: NGspice -->

<rect x="0" y="0" width="1024" height="768" fill="black" stroke="none"/>
<text stroke="none" fill="white" font-size="16" x="358" y="752">
time
</text>
<text stroke="none" fill="white" font-size="16" x="10" y="16">
tran1: run1614_vin0.518992
</text>
<path stroke="white" d="M50 704l0 -637"/>
<text stroke="none" fill="white" font-size="16" x="35" y="728">
0.0
</text>
<path stroke="white" stroke-dasharray="1,2" d="M182 704l0 -637"/>
<text stroke="none" fill="white" font-size="16" x="157" y="728">
100.0
</text>
<path stroke="white" stroke-dasharray="1,2" d="M314 704l0 -637"/>
<text stroke="none" fill="white" font-size="16" x="289" y="728">
200.0
</text>
<path stroke="white" stroke-dasharray="1,2" d="M446 704l0 -637"/>
<text stroke="none" fill="white" font-size="16" x="421" y="728">
300.0
</text>
<path stroke="white" stroke-dasharray="1,2" d="M578 704l0 -637"/>
<text stroke="none" fill="white" font-size="16" x="553" y="728">
400.0
</text>
<path stroke="white" stroke-dasharray="1,2" d="M710 704l0 -637"/>
<text stroke="none" fill="white" font-size="16" x="685" y="728">
500.0
</text>
<path stroke="white" stroke-dasharray="1,2" d="M842 704l0 -637"/>
<text stroke="none" fill="white" font-size="16" x="817" y="728">
600.0
</text>
<path stroke="white" stroke-dasharray="1,2" d="M974 704l0 -637"/>
<text stroke="none" fill="white" font-size="16" x="949" y="728">
700.0
</text>
<text stroke="none" fill="white" font-size="16" x="614" y="752">
ns
</text>
<path stroke="white" stroke-dasharray="1,2" d="M50 704l924 0"/>
<text stroke="none" fill="white" font-size="16" x="8" y="712">
-3.0
</text>
<path stroke="white" stroke-dasharray="1,2" d="M50 613l924 0"/>
<text stroke="none" fill="white" font-size="16" x="8" y="621">
-2.0
</text>
<path stroke="white" stroke-dasharray="1,2" d="M50 522l924 0"/>
<text stroke="none" fill="white" font-size="16" x="8" y="530">
-1.0
</text>
<path stroke="white" d="M50 431l924 0"/>
<text stroke="none" fill="white" font-size="16" x="18" y="439">
0.0
</text>
<path stroke="white" stroke-dasharray="1,2" d="M50 340l924 0"/>
<text stroke="none" fill="white" font-size="16" x="18" y="348">
1.0
</text>
<path stroke="white" stroke-dasharray="1,2" d="M50 249l924 0"/>
<text stroke="none" fill="white" font-size="16" x="18" y="257">
2.0
</text>
<path stroke="white" stroke-dasharray="1,2" d="M50 158l924 0"/>
<text stroke="none" fill="white" font-size="16" x="18" y="166">
3.0
</text>
<path stroke="white" stroke-dasharray="1,2" d="M50 67l924 0"/>
<text stroke="none" fill="white" font-size="16" x="18" y="75">
4.0
</text>
<text stroke="none" fill="white" font-size="16" x="10" y="32">
     
</text>
<path stroke="red" d="M462 23l46 0"/>
<text stroke="none" fill="white" font-size="16" x="518" y="32">
x1.vsampled_p
</text>
<path stroke="red" d="M50 431l1 0 1 -7 0 -15 1 -15 0 -4 1 1M54 414l0 -39 1 -4 0 -14 1 -2 0 -3 2 -2 1 0 1 -1 3 0 1 1 4 0 1 -1 48 0 0 -1 1 -10 0 -20 1 -5 0 -7 1 -1 0 -2 1 -1 419 0M540 303l0 -1 27 0M567 303l0 -1 7 0M574 327l0 -25M574 327l1 9M575 341l0 -5"/>
<path stroke="red" d="M575 341l1 1M576 343l0 -1M576 343l103 0M679 347l0 -4M679 347l1 1M680 349l0 -1 79 0M759 350l0 -2M759 349l19 0M778 350l0 -1 26 0M804 350l0 -1 26 0 1 1 0 -1 86 0M917 350l0 -1 1 -2 0 -26 1 -3 0 -8 1 -3 0 -2 1 -2 1 0 0 -1 14 0"/>
<path stroke="red" d="M936 303l0 -1 38 0"/>
<path stroke="blue" d="M50 23l46 0"/>
<text stroke="none" fill="white" font-size="16" x="106" y="32">
x1.vsampled_n
</text>
<path stroke="blue" d="M50 431l1 0 1 -7 0 -15 1 -14 0 -5 1 2M54 415l0 -40 1 -4 0 -14 1 -2 0 -3 2 -2 1 0 1 -1 3 0 1 1 4 0 1 -1 48 0M117 360l0 -11M117 360l1 12M118 386l0 -14M118 386l1 3M119 393l0 -4M119 393l1 1M120 395l0 -1M120 395l1 1 419 0M540 397l0 -1"/>
<path stroke="blue" d="M540 396l6 0 0 -24 1 -4 0 -21 1 -4 0 -5 1 -1 0 -1 1 0 0 -1 4 0 0 -1M554 335l13 0M567 336l0 -1 26 0M593 336l0 -1 7 0M600 356l0 -21M600 356l1 3M601 362l0 -3M601 360l1 -3 0 -1 4 0 0 -1 1 0M607 356l0 -1M607 356l13 0 0 -1M620 356l5 0"/>
<path stroke="blue" d="M625 356l0 -12 1 -1 0 -6 2 0M628 338l0 -1M628 338l5 0 0 -1M633 338l20 0M653 348l0 -10M653 348l1 2 0 -1 1 0 0 -1 51 0M706 352l0 -4M706 352l1 0 0 -1 2 0 0 -1 16 0M725 351l0 -1 1 1 0 -1 5 0M731 351l0 -1 1 -2 0 -1M732 348l19 0"/>
<path stroke="blue" d="M751 349l0 -1 27 0M778 349l0 -1 7 0M785 349l0 -1M785 349l1 0M786 350l0 -1 26 0M812 350l0 -1 19 0M831 350l0 -1 26 0M857 350l0 -1 26 0M883 350l0 -1 27 0M910 350l0 -1 7 0 1 1M918 389l0 -39M918 389l1 3M919 399l0 -7M919 399l1 -1"/>
<path stroke="blue" d="M920 398l0 -1 3 0 0 -1 13 0M936 397l0 -1 38 0"/>
<path stroke="#FFA500" d="M462 39l46 0"/>
<text stroke="none" fill="white" font-size="16" x="518" y="48">
x1.vsampled_p-x1.vsampled_n
</text>
<path stroke="#FFA500" d="M50 431l2 0 1 -1 1 0M54 431l0 -1M54 431l63 0 0 -11 1 -23 0 -34 1 -8 0 -11 1 -3 0 -2 2 -2 424 0M546 361l0 -24M546 361l1 4M547 386l0 -21M547 386l1 4M548 396l0 -6M548 396l1 0M549 397l0 -1M549 397l1 1 17 0M567 399l0 -2M567 398l7 0"/>
<path stroke="#FFA500" d="M574 423l0 -25M574 423l1 9M575 437l0 -5M575 437l1 1M576 439l0 -1M576 439l17 0 0 -1M593 439l7 0 0 -21 1 -3 0 -2M601 414l1 3M602 418l0 -1M602 418l17 0M619 419l0 -1 1 0M620 419l0 -1 5 0M625 430l0 -12M625 430l1 1M626 437l0 -6"/>
<path stroke="#FFA500" d="M626 437l2 0 1 -1 4 0M633 437l0 -1 20 0 0 -10 1 -2M654 425l0 -1M654 425l1 0M655 426l0 -1M655 426l24 0M679 431l0 -5M679 431l1 0M680 432l0 -1 26 0 0 -3 1 -1M707 428l0 -1M707 428l1 1 17 0 0 -1M725 429l6 0M731 430l0 -1M731 430l1 1"/>
<path stroke="#FFA500" d="M732 432l0 -1 27 0M759 433l0 -2M759 432l26 0 0 -1 6 0M791 432l0 -1M791 432l1 0 0 -1 12 0M804 432l0 -1M804 432l1 -1 7 0M812 432l0 -2M812 431l105 0M917 432l0 -1 1 -3 0 -66 1 -5 0 -15 1 -2 0 -2 1 0 0 -1 2 0 0 -1M923 337l13 0"/>
<path stroke="#FFA500" d="M936 338l0 -1 14 0 0 -1M950 337l24 0"/>
<path stroke="green" d="M50 39l46 0"/>
<text stroke="none" fill="white" font-size="16" x="106" y="48">
x1.sw_sample-2
</text>
<path stroke="green" d="M50 613l1 0 1 -9 0 -21 1 -21M53 580l0 -24M53 580l1 30M54 613l0 -3M54 613l63 0M117 620l0 -172M117 449l422 0M539 614l0 -171M539 613l422 0M961 618l0 -170 1 1 12 0"/>
<path stroke="#FFC0C5" d="M462 55l46 0"/>
<text stroke="none" fill="white" font-size="16" x="518" y="64">
x1.comp_out_p+2
</text>
<path stroke="#FFC0C5" d="M50 249l1 0 1 -9 0 -22 1 -18 0 -4M53 198l1 5M54 249l0 -46M54 249l488 0 0 -165M542 85l13 0M555 250l0 -168M555 249l13 0M568 250l0 -167M568 85l13 0M581 88l0 -5M581 88l1 148M582 249l0 -13M582 249l39 0M621 251l0 -168M621 85l13 0"/>
<path stroke="#FFC0C5" d="M634 249l0 -171M634 249l39 0M673 252l0 -3M673 252l1 -96 0 -72M674 85l13 0M687 250l0 -170M687 249l40 0 0 -165M727 85l13 0M740 250l0 -171M740 249l13 0 0 -142 1 -22 0 -1M754 85l12 0M766 249l0 -174M766 249l94 0 0 -164 12 0"/>
<path stroke="#FFC0C5" d="M872 249l0 -174M872 249l14 0 0 -157 1 -8M887 85l0 -1M887 85l11 0M898 249l0 -174M898 249l15 0 0 -165M913 85l12 0M925 250l0 -171M925 249l12 0M937 250l0 -1M937 250l1 -65 0 -101M938 85l13 0M951 250l0 -168M951 249l23 0"/>
<path stroke="#A52A2A" d="M50 55l46 0"/>
<text stroke="none" fill="white" font-size="16" x="106" y="64">
x1.comp_out_n-2
</text>
<path stroke="#A52A2A" d="M50 613l1 0 1 -9 0 -22 1 -19M53 564l0 -3M53 564l1 6M54 614l0 -44M54 612l1 1 539 0M594 614l0 -167M594 449l14 0M608 614l0 -174M608 613l39 0M647 615l0 -168M647 449l14 0M661 614l0 -172M661 613l40 0 0 -165M701 449l12 0 0 -8"/>
<path stroke="#A52A2A" d="M713 441l1 156M714 613l0 -16M714 613l66 0 0 -165M780 449l13 0M793 613l0 -167M793 613l13 0 1 -157 0 -8M807 449l12 0M819 613l0 -174M819 613l15 0 0 -164 11 0 0 -9 1 161M846 613l0 -12M846 613l128 0"/>
</svg>
