<?xml version="1.0" standalone="yes"?>
<!DOCTYPE svg PUBLIC "-//W3C//DTD SVG 1.1//EN"
 "http://www.w3.org/Graphics/SVG/1.1/DTD/svg11.dtd">
<svg xmlns="http://www.w3.org/2000/svg" version="1.1"
  width="100%" height="100%" viewBox="0 0 1024 768"
  style="fill: none; font-family: Helvetica;
 font: Helvetica;
">

<!-- Creator: NGspice -->

<rect x="0" y="0" width="1024" height="768" fill="black" stroke="none"/>
<text stroke="none" fill="white" font-size="16" x="358" y="752">
time
</text>
<text stroke="none" fill="white" font-size="16" x="10" y="16">
tran1: run1609_vin0.514598
</text>
<path stroke="white" d="M50 704l0 -637"/>
<text stroke="none" fill="white" font-size="16" x="35" y="728">
0.0
</text>
<path stroke="white" stroke-dasharray="1,2" d="M182 704l0 -637"/>
<text stroke="none" fill="white" font-size="16" x="157" y="728">
100.0
</text>
<path stroke="white" stroke-dasharray="1,2" d="M314 704l0 -637"/>
<text stroke="none" fill="white" font-size="16" x="289" y="728">
200.0
</text>
<path stroke="white" stroke-dasharray="1,2" d="M446 704l0 -637"/>
<text stroke="none" fill="white" font-size="16" x="421" y="728">
300.0
</text>
<path stroke="white" stroke-dasharray="1,2" d="M578 704l0 -637"/>
<text stroke="none" fill="white" font-size="16" x="553" y="728">
400.0
</text>
<path stroke="white" stroke-dasharray="1,2" d="M710 704l0 -637"/>
<text stroke="none" fill="white" font-size="16" x="685" y="728">
500.0
</text>
<path stroke="white" stroke-dasharray="1,2" d="M842 704l0 -637"/>
<text stroke="none" fill="white" font-size="16" x="817" y="728">
600.0
</text>
<path stroke="white" stroke-dasharray="1,2" d="M974 704l0 -637"/>
<text stroke="none" fill="white" font-size="16" x="949" y="728">
700.0
</text>
<text stroke="none" fill="white" font-size="16" x="614" y="752">
ns
</text>
<path stroke="white" stroke-dasharray="1,2" d="M50 704l924 0"/>
<text stroke="none" fill="white" font-size="16" x="8" y="712">
-3.0
</text>
<path stroke="white" stroke-dasharray="1,2" d="M50 613l924 0"/>
<text stroke="none" fill="white" font-size="16" x="8" y="621">
-2.0
</text>
<path stroke="white" stroke-dasharray="1,2" d="M50 522l924 0"/>
<text stroke="none" fill="white" font-size="16" x="8" y="530">
-1.0
</text>
<path stroke="white" d="M50 431l924 0"/>
<text stroke="none" fill="white" font-size="16" x="18" y="439">
0.0
</text>
<path stroke="white" stroke-dasharray="1,2" d="M50 340l924 0"/>
<text stroke="none" fill="white" font-size="16" x="18" y="348">
1.0
</text>
<path stroke="white" stroke-dasharray="1,2" d="M50 249l924 0"/>
<text stroke="none" fill="white" font-size="16" x="18" y="257">
2.0
</text>
<path stroke="white" stroke-dasharray="1,2" d="M50 158l924 0"/>
<text stroke="none" fill="white" font-size="16" x="18" y="166">
3.0
</text>
<path stroke="white" stroke-dasharray="1,2" d="M50 67l924 0"/>
<text stroke="none" fill="white" font-size="16" x="18" y="75">
4.0
</text>
<text stroke="none" fill="white" font-size="16" x="10" y="32">
     
</text>
<path stroke="red" d="M462 23l46 0"/>
<text stroke="none" fill="white" font-size="16" x="518" y="32">
x1.vsampled_p
</text>
<path stroke="red" d="M50 431l1 0 1 -7 0 -15 1 -15 0 -4 1 1M54 414l0 -39 1 -4 0 -14 1 -2 0 -3 2 -2 1 0 1 -1 3 0 1 1 4 0 1 -1 48 0 0 -1 1 -10 0 -20 1 -5 0 -6 1 -2 0 -1 1 -1 1 0 0 -1 417 0M539 303l0 -1M539 303l1 0 0 -1M540 303l14 0 0 -1 12 0 1 1"/>
<path stroke="red" d="M567 304l0 -1 6 0 1 -1M574 324l0 -22M574 324l1 8M575 342l0 -10M575 342l1 1 17 0M593 344l0 -1 26 0M619 344l0 -1 1 1 0 -1 26 0M646 344l0 -1 26 0M672 344l0 -1 7 0M679 348l0 -5M679 348l1 1M680 350l0 -1 1 -1M681 349l0 -1M681 349l5 0"/>
<path stroke="red" d="M686 349l0 -1 12 0 1 1 0 -1M699 349l13 0 0 -1 13 0M725 349l0 -1M725 349l13 0 0 -1 13 0M751 349l0 -1M751 349l1 0 0 -1M752 349l13 0 0 -1 13 0M778 349l0 -1M778 349l8 0M786 350l0 -1 28 0M814 350l0 -1 16 0 1 1 0 -1 88 0M919 350l0 -13"/>
<path stroke="red" d="M919 337l1 0 0 -18 1 -3 0 -7 1 0 0 -4 1 0 0 -2 2 0 0 -1 11 0M936 304l0 -2M936 303l14 0 0 -1 24 0"/>
<path stroke="blue" d="M50 23l46 0"/>
<text stroke="none" fill="white" font-size="16" x="106" y="32">
x1.vsampled_n
</text>
<path stroke="blue" d="M50 431l1 0 1 -7 0 -15 1 -14 0 -5 1 2M54 415l0 -40 1 -4 0 -14 1 -2 0 -3 2 -2 1 0 1 -1 3 0 1 1 4 0 1 -1 48 0M117 359l0 -10M117 359l1 13M118 386l0 -14M118 386l1 3M119 393l0 -4M119 393l1 1M120 395l0 -1M120 395l1 0 1 1 424 0"/>
<path stroke="blue" d="M546 396l0 -32 1 -5 0 -17 1 -2 0 -3 1 -1 0 -1 5 0 0 -1M554 335l13 0M567 336l0 -1 13 0 0 -1M580 335l20 0M600 353l0 -18M600 353l1 3M601 361l0 -5M601 359l1 -2 0 -1 1 -1 16 0M619 356l0 -1 6 0 0 -5 1 -5 0 -9 1 0M627 337l0 -1"/>
<path stroke="blue" d="M627 337l19 0M646 338l0 -1 7 0M653 348l0 -11M653 348l1 2 0 -1 1 -1 4 0 0 -1 13 0M672 348l0 -1 1 1 13 0 0 -1 12 0 1 1 0 -1M699 348l7 0M706 352l0 -4M706 352l1 -1 0 -1 24 0 0 -1 1 -1 0 -2M732 348l27 0M759 351l0 -3M759 349l19 0"/>
<path stroke="blue" d="M778 350l0 -1 26 0M804 350l0 -1 27 0M831 350l0 -1 26 0M857 350l0 -1 26 0M883 350l0 -1 27 0M910 350l0 -1 9 0M919 363l0 -14M919 363l1 3M920 392l0 -26M920 392l1 3M921 398l0 -3M921 398l1 0 0 -1 1 0 0 -1 51 0"/>
<path stroke="#FFA500" d="M462 39l46 0"/>
<text stroke="none" fill="white" font-size="16" x="518" y="48">
x1.vsampled_p-x1.vsampled_n
</text>
<path stroke="#FFA500" d="M50 431l2 0 1 -1 1 0M54 431l0 -1M54 431l63 0 0 -11 1 -23 0 -34 1 -8 0 -10 1 -3 0 -3 1 -1 1 0 1 -1 416 0M539 338l0 -1M539 338l1 -1M540 338l0 -1M540 338l6 0M546 370l0 -33M546 370l1 5M547 392l0 -17M547 392l1 1M548 397l0 -4"/>
<path stroke="#FFA500" d="M548 397l2 2 17 0 0 -1M567 399l7 0M574 420l0 -21M574 420l1 8M575 439l0 -11M575 439l1 0M576 440l0 -1M576 440l17 0 0 -1M593 440l7 0 0 -19 1 -3 0 -5M601 416l1 2M602 419l0 -1M602 419l23 0M625 425l0 -6M625 425l1 4M626 438l0 -9"/>
<path stroke="#FFA500" d="M626 438l2 0 0 -1 25 0 0 -11 1 -2M654 426l0 -2M654 426l1 0M655 427l0 -1M655 427l24 0M679 431l0 -4M679 431l1 1M680 433l0 -1 26 0 0 -4 1 0M707 429l0 -1M707 429l24 0M731 430l0 -1M731 430l1 2M732 433l0 -1 27 0 0 -3M759 430l26 0"/>
<path stroke="#FFA500" d="M785 430l1 1 28 0M814 432l0 -1 105 0M919 432l0 -27 1 -4 0 -43 1 -6 0 -10 1 0 0 -3 1 0 0 -1 2 0 0 -1 11 0M936 339l0 -2M936 338l14 0 0 -1 24 0"/>
<path stroke="green" d="M50 39l46 0"/>
<text stroke="none" fill="white" font-size="16" x="106" y="48">
x1.sw_sample-2
</text>
<path stroke="green" d="M50 613l1 0 1 -9 0 -21 1 -21M53 580l0 -24M53 580l1 30M54 613l0 -3M54 613l63 0M117 620l0 -172M117 449l422 0M539 614l0 -171M539 613l422 0M961 618l0 -170 1 1 12 0"/>
<path stroke="#FFC0C5" d="M462 55l46 0"/>
<text stroke="none" fill="white" font-size="16" x="518" y="64">
x1.comp_out_p+2
</text>
<path stroke="#FFC0C5" d="M50 249l1 0 1 -9 0 -22 1 -18 0 -4M53 198l1 5M54 249l0 -46M54 249l487 0 1 2 0 -168M542 85l13 0M555 250l0 -168M555 249l13 0M568 251l0 -167M568 85l13 0 0 -8 1 158M582 249l0 -14M582 249l39 0M621 250l0 -167M621 85l13 0M634 249l0 -172"/>
<path stroke="#FFC0C5" d="M634 249l39 0M673 250l0 -1M673 250l1 -54 0 -112M674 85l13 0M687 249l0 -172M687 249l40 0 0 -165M727 85l13 0M740 250l0 -173M740 249l40 0 0 -165M780 85l13 0M793 249l0 -171M793 249l15 0 0 -165M808 85l11 0M819 249l0 -174"/>
<path stroke="#FFC0C5" d="M819 249l118 0M937 253l0 -4M937 253l1 -138 0 -32M938 85l13 0M951 250l0 -167M951 249l23 0"/>
<path stroke="#A52A2A" d="M50 55l46 0"/>
<text stroke="none" fill="white" font-size="16" x="106" y="64">
x1.comp_out_n-2
</text>
<path stroke="#A52A2A" d="M50 613l1 0 1 -9 0 -22 1 -19M53 564l0 -3M53 564l1 6M54 614l0 -44M54 612l1 1 539 0 0 -166M594 449l14 0M608 613l0 -172M608 613l39 0M647 614l0 -167M647 449l14 0M661 613l0 -167M661 613l13 0M674 614l0 -1 26 0 0 -165 1 1 12 0"/>
<path stroke="#A52A2A" d="M713 449l0 -9 1 165M714 614l0 -9M714 613l39 0 0 -165 1 1 12 0M766 613l0 -171M766 613l67 0 1 -155 0 -9 11 0 0 -9 1 158M846 613l0 -15M846 613l15 0 1 -151 0 -14M862 449l10 0M872 613l0 -173M872 613l16 0 0 -165M888 449l10 0"/>
<path stroke="#A52A2A" d="M898 613l0 -173M898 613l16 0 0 -165 1 1 10 0M925 613l0 -173M925 613l49 0"/>
</svg>
