<?xml version="1.0" standalone="yes"?>
<!DOCTYPE svg PUBLIC "-//W3C//DTD SVG 1.1//EN"
 "http://www.w3.org/Graphics/SVG/1.1/DTD/svg11.dtd">
<svg xmlns="http://www.w3.org/2000/svg" version="1.1"
  width="100%" height="100%" viewBox="0 0 1024 768"
  style="fill: none; font-family: Helvetica;
 font: Helvetica;
">

<!-- Creator: NGspice -->

<rect x="0" y="0" width="1024" height="768" fill="black" stroke="none"/>
<text stroke="none" fill="white" font-size="16" x="358" y="752">
time
</text>
<text stroke="none" fill="white" font-size="16" x="10" y="16">
tran1: run725_vin-0.262354
</text>
<path stroke="white" d="M50 704l0 -637"/>
<text stroke="none" fill="white" font-size="16" x="35" y="728">
0.0
</text>
<path stroke="white" stroke-dasharray="1,2" d="M182 704l0 -637"/>
<text stroke="none" fill="white" font-size="16" x="157" y="728">
100.0
</text>
<path stroke="white" stroke-dasharray="1,2" d="M314 704l0 -637"/>
<text stroke="none" fill="white" font-size="16" x="289" y="728">
200.0
</text>
<path stroke="white" stroke-dasharray="1,2" d="M446 704l0 -637"/>
<text stroke="none" fill="white" font-size="16" x="421" y="728">
300.0
</text>
<path stroke="white" stroke-dasharray="1,2" d="M578 704l0 -637"/>
<text stroke="none" fill="white" font-size="16" x="553" y="728">
400.0
</text>
<path stroke="white" stroke-dasharray="1,2" d="M710 704l0 -637"/>
<text stroke="none" fill="white" font-size="16" x="685" y="728">
500.0
</text>
<path stroke="white" stroke-dasharray="1,2" d="M842 704l0 -637"/>
<text stroke="none" fill="white" font-size="16" x="817" y="728">
600.0
</text>
<path stroke="white" stroke-dasharray="1,2" d="M974 704l0 -637"/>
<text stroke="none" fill="white" font-size="16" x="949" y="728">
700.0
</text>
<text stroke="none" fill="white" font-size="16" x="614" y="752">
ns
</text>
<path stroke="white" stroke-dasharray="1,2" d="M50 704l924 0"/>
<text stroke="none" fill="white" font-size="16" x="8" y="712">
-2.5
</text>
<path stroke="white" stroke-dasharray="1,2" d="M50 655l924 0"/>
<text stroke="none" fill="white" font-size="16" x="8" y="663">
-2.0
</text>
<path stroke="white" stroke-dasharray="1,2" d="M50 606l924 0"/>
<text stroke="none" fill="white" font-size="16" x="8" y="614">
-1.5
</text>
<path stroke="white" stroke-dasharray="1,2" d="M50 557l924 0"/>
<text stroke="none" fill="white" font-size="16" x="8" y="565">
-1.0
</text>
<path stroke="white" stroke-dasharray="1,2" d="M50 508l924 0"/>
<text stroke="none" fill="white" font-size="16" x="8" y="516">
-0.5
</text>
<path stroke="white" d="M50 459l924 0"/>
<text stroke="none" fill="white" font-size="16" x="18" y="467">
0.0
</text>
<path stroke="white" stroke-dasharray="1,2" d="M50 410l924 0"/>
<text stroke="none" fill="white" font-size="16" x="18" y="418">
0.5
</text>
<path stroke="white" stroke-dasharray="1,2" d="M50 361l924 0"/>
<text stroke="none" fill="white" font-size="16" x="18" y="369">
1.0
</text>
<path stroke="white" stroke-dasharray="1,2" d="M50 312l924 0"/>
<text stroke="none" fill="white" font-size="16" x="18" y="320">
1.5
</text>
<path stroke="white" stroke-dasharray="1,2" d="M50 263l924 0"/>
<text stroke="none" fill="white" font-size="16" x="18" y="271">
2.0
</text>
<path stroke="white" stroke-dasharray="1,2" d="M50 214l924 0"/>
<text stroke="none" fill="white" font-size="16" x="18" y="222">
2.5
</text>
<path stroke="white" stroke-dasharray="1,2" d="M50 165l924 0"/>
<text stroke="none" fill="white" font-size="16" x="18" y="173">
3.0
</text>
<path stroke="white" stroke-dasharray="1,2" d="M50 116l924 0"/>
<text stroke="none" fill="white" font-size="16" x="18" y="124">
3.5
</text>
<path stroke="white" stroke-dasharray="1,2" d="M50 67l924 0"/>
<text stroke="none" fill="white" font-size="16" x="18" y="75">
4.0
</text>
<text stroke="none" fill="white" font-size="16" x="10" y="32">
     
</text>
<path stroke="red" d="M462 23l46 0"/>
<text stroke="none" fill="white" font-size="16" x="518" y="32">
x1.vsampled_p
</text>
<path stroke="red" d="M50 459l1 0 1 -7 0 -17 1 -15 0 -5 1 2M54 441l0 -42 1 -5 0 -15 1 -2 0 -3 1 -2 1 0 0 -1 59 0M117 375l0 -4M117 375l1 7M118 391l0 -9M118 391l1 3 1 1M120 396l0 -1M120 396l4 0M124 397l0 -1M124 397l415 0 0 -1M539 397l2 0 0 -1M541 397l5 0"/>
<path stroke="red" d="M546 397l0 -25 1 -4 0 -22 1 -6 0 -7 2 -2 4 0 0 -1M554 331l13 0M567 332l0 -1 7 0M574 363l0 -32M574 363l1 4M575 377l0 -10M575 377l1 0 0 -1 1 -1 3 0 0 -1M580 375l26 0 0 -1M606 375l19 0 0 -3 1 -6 0 -10 1 -1 19 0M646 356l0 -1"/>
<path stroke="red" d="M646 355l1 0M647 356l0 -1 6 0M653 366l0 -11M653 366l1 2 0 -1 2 0 0 -1 16 0M672 367l0 -1 7 0M679 372l0 -6M679 372l1 1M680 375l0 -3 52 0 0 -4M732 369l1 0M733 370l0 -1M733 370l5 0 0 -1 13 0M751 370l0 -1M751 370l1 0 0 -1M752 370l7 0"/>
<path stroke="red" d="M759 372l0 -2M759 371l159 0M918 393l0 -22M918 393l1 2M919 401l0 -6M919 400l1 -2 0 -1 42 0 0 -1 2 0M964 397l0 -1M964 397l10 0"/>
<path stroke="blue" d="M50 23l46 0"/>
<text stroke="none" fill="white" font-size="16" x="106" y="32">
x1.vsampled_n
</text>
<path stroke="blue" d="M50 459l1 0 1 -7 0 -17 1 -15 0 -5 1 1M54 441l0 -42 1 -5 0 -15 1 -2 0 -3 1 -2 1 0 0 -1 59 0 0 -1 1 -7 0 -11 1 -4 1 -2 1 -1 419 0M540 346l0 -1 26 0 1 1 0 -1 26 0M593 346l0 -1 7 0M600 364l0 -19M600 364l1 3M601 371l0 -4M601 369l1 0"/>
<path stroke="blue" d="M602 369l0 -1 1 0 0 -1 16 0M619 368l0 -1 27 0M646 368l0 -1 26 0M672 368l0 -1 26 0 1 1 0 -1 7 0M706 371l0 -4M706 370l79 0M785 371l0 -1M785 371l27 0M812 372l0 -1 26 0 0 -1M838 371l80 0M918 372l0 -17 1 -2 0 -7 1 -1 16 0M936 346l0 -1"/>
<path stroke="blue" d="M936 345l38 0"/>
<path stroke="#FFA500" d="M462 39l46 0"/>
<text stroke="none" fill="white" font-size="16" x="518" y="48">
x1.vsampled_p-x1.vsampled_n
</text>
<path stroke="#FFA500" d="M50 459l67 0M117 464l0 -5M117 464l1 15M118 498l0 -19M118 498l1 7 1 3M120 509l0 -1M120 509l1 1 425 0M546 511l0 -26 1 -3 0 -23 1 -5 0 -7 3 -3 15 0 1 1 0 -1 7 0M574 477l0 -33M574 477l1 3M575 490l0 -10M575 490l1 0 0 -1 1 0"/>
<path stroke="#FFA500" d="M577 489l1 -1 2 0M580 489l0 -1 13 0M593 489l0 -1 7 0 0 -18 1 -3 0 -4M601 464l1 1M602 466l0 -1M602 466l17 0M619 467l0 -1M619 467l1 0 0 -1 5 0 0 -3 1 -5 0 -11 20 0M646 448l0 -1 7 0M653 458l0 -11M653 458l1 2 0 -1 1 -1 24 0"/>
<path stroke="#FFA500" d="M679 464l0 -6M679 464l1 1M680 466l0 -2 19 0 0 -1M699 464l7 0 0 -4 1 1 24 0 1 -1 0 -3M732 458l19 0M751 459l0 -1M751 459l1 -1 7 0M759 461l0 -3M759 460l26 0 0 -1 27 0 0 -1M812 459l106 0M918 497l0 -39M918 497l1 4M919 513l0 -12"/>
<path stroke="#FFA500" d="M919 513l1 -1 0 -1 2 0 0 -1 1 0M923 511l0 -1 27 0M950 511l0 -1 24 0"/>
<path stroke="green" d="M50 39l46 0"/>
<text stroke="none" fill="white" font-size="16" x="106" y="48">
x1.sw_sample-2
</text>
<path stroke="green" d="M50 655l1 0 1 -10 0 -23 1 -21M53 620l0 -26M53 620l1 32M54 655l0 -3M54 655l63 0M117 662l0 -184 1 0M118 479l0 -1M118 479l421 0M539 656l0 -184M539 655l422 0M961 660l0 -182 1 0M962 479l0 -1 1 1 11 0"/>
<path stroke="#FFC0C5" d="M462 55l46 0"/>
<text stroke="none" fill="white" font-size="16" x="518" y="64">
x1.comp_out_p+2
</text>
<path stroke="#FFC0C5" d="M50 263l1 0 1 -10 0 -23 1 -20 0 -4M53 209l1 4M54 263l0 -50M54 262l1 1 513 0 0 -178M568 87l13 0 0 -10 1 174M582 264l0 -13M582 263l65 0 0 -178M647 87l14 0M661 264l0 -187M661 263l13 0 0 -178M674 87l13 0M687 263l0 -186M687 263l66 0"/>
<path stroke="#FFC0C5" d="M753 263l0 -176 1 -1M754 87l0 -1M754 87l12 0M766 263l0 -185M766 263l68 0 0 -177M834 87l11 0 0 -3M845 87l1 161M846 263l0 -15M846 263l128 0"/>
<path stroke="#A52A2A" d="M50 55l46 0"/>
<text stroke="none" fill="white" font-size="16" x="106" y="64">
x1.comp_out_n-2
</text>
<path stroke="#A52A2A" d="M50 655l1 0 1 -10 0 -24 1 -20M53 602l0 -3M53 602l1 7M54 655l0 -46M54 655l487 0 1 1 0 -180M542 479l13 0M555 655l0 -185M555 655l39 0M594 656l0 -180M594 478l1 1 13 0M608 656l0 -185M608 655l13 0M621 661l0 -185M621 479l13 0"/>
<path stroke="#A52A2A" d="M634 655l0 -185M634 655l66 0M700 660l0 -184M700 479l13 0 0 -10 1 178M714 656l0 -9M714 655l13 0 0 -177 1 1 12 0M740 655l0 -186M740 655l40 0 0 -177M780 479l13 0M793 655l0 -187M793 655l14 0 0 -177 1 0M808 479l0 -1M808 479l11 0"/>
<path stroke="#A52A2A" d="M819 655l0 -183M819 655l41 0 0 -177 1 0M861 479l0 -1M861 479l11 0M872 655l0 -187M872 655l14 0 0 -170 1 -7M887 479l0 -1M887 479l11 0M898 655l0 -187M898 655l15 0 0 -177 1 1 11 0M925 656l0 -185M925 655l12 0 1 -57 0 -121"/>
<path stroke="#A52A2A" d="M938 479l13 0M951 656l0 -179M951 655l23 0"/>
</svg>
