<?xml version="1.0" standalone="yes"?>
<!DOCTYPE svg PUBLIC "-//W3C//DTD SVG 1.1//EN"
 "http://www.w3.org/Graphics/SVG/1.1/DTD/svg11.dtd">
<svg xmlns="http://www.w3.org/2000/svg" version="1.1"
  width="100%" height="100%" viewBox="0 0 1024 768"
  style="fill: none; font-family: Helvetica;
 font: Helvetica;
">

<!-- Creator: NGspice -->

<rect x="0" y="0" width="1024" height="768" fill="black" stroke="none"/>
<text stroke="none" fill="white" font-size="16" x="358" y="752">
time
</text>
<text stroke="none" fill="white" font-size="16" x="10" y="16">
tran1: run1714_vin0.606883
</text>
<path stroke="white" d="M50 704l0 -637"/>
<text stroke="none" fill="white" font-size="16" x="35" y="728">
0.0
</text>
<path stroke="white" stroke-dasharray="1,2" d="M182 704l0 -637"/>
<text stroke="none" fill="white" font-size="16" x="157" y="728">
100.0
</text>
<path stroke="white" stroke-dasharray="1,2" d="M314 704l0 -637"/>
<text stroke="none" fill="white" font-size="16" x="289" y="728">
200.0
</text>
<path stroke="white" stroke-dasharray="1,2" d="M446 704l0 -637"/>
<text stroke="none" fill="white" font-size="16" x="421" y="728">
300.0
</text>
<path stroke="white" stroke-dasharray="1,2" d="M578 704l0 -637"/>
<text stroke="none" fill="white" font-size="16" x="553" y="728">
400.0
</text>
<path stroke="white" stroke-dasharray="1,2" d="M710 704l0 -637"/>
<text stroke="none" fill="white" font-size="16" x="685" y="728">
500.0
</text>
<path stroke="white" stroke-dasharray="1,2" d="M842 704l0 -637"/>
<text stroke="none" fill="white" font-size="16" x="817" y="728">
600.0
</text>
<path stroke="white" stroke-dasharray="1,2" d="M974 704l0 -637"/>
<text stroke="none" fill="white" font-size="16" x="949" y="728">
700.0
</text>
<text stroke="none" fill="white" font-size="16" x="614" y="752">
ns
</text>
<path stroke="white" stroke-dasharray="1,2" d="M50 704l924 0"/>
<text stroke="none" fill="white" font-size="16" x="8" y="712">
-3.0
</text>
<path stroke="white" stroke-dasharray="1,2" d="M50 613l924 0"/>
<text stroke="none" fill="white" font-size="16" x="8" y="621">
-2.0
</text>
<path stroke="white" stroke-dasharray="1,2" d="M50 522l924 0"/>
<text stroke="none" fill="white" font-size="16" x="8" y="530">
-1.0
</text>
<path stroke="white" d="M50 431l924 0"/>
<text stroke="none" fill="white" font-size="16" x="18" y="439">
0.0
</text>
<path stroke="white" stroke-dasharray="1,2" d="M50 340l924 0"/>
<text stroke="none" fill="white" font-size="16" x="18" y="348">
1.0
</text>
<path stroke="white" stroke-dasharray="1,2" d="M50 249l924 0"/>
<text stroke="none" fill="white" font-size="16" x="18" y="257">
2.0
</text>
<path stroke="white" stroke-dasharray="1,2" d="M50 158l924 0"/>
<text stroke="none" fill="white" font-size="16" x="18" y="166">
3.0
</text>
<path stroke="white" stroke-dasharray="1,2" d="M50 67l924 0"/>
<text stroke="none" fill="white" font-size="16" x="18" y="75">
4.0
</text>
<text stroke="none" fill="white" font-size="16" x="10" y="32">
     
</text>
<path stroke="red" d="M462 23l46 0"/>
<text stroke="none" fill="white" font-size="16" x="518" y="32">
x1.vsampled_p
</text>
<path stroke="red" d="M50 431l1 0 1 -7 0 -15 1 -15 0 -4 1 1M54 414l0 -37 1 -4 0 -17 1 -3 0 -2 1 -1 2 0 1 -1 4 0M64 350l0 -1M64 350l4 0 1 -1 48 0 0 -1 1 -10 0 -30 1 -4 0 -3 1 -3 0 -2 2 -2 418 0M540 295l0 -1 27 0M567 296l0 -2 6 0M573 295l0 -1M573 295l1 5"/>
<path stroke="red" d="M574 320l0 -20M574 320l1 9M575 334l0 -5M575 334l1 1 17 0M593 336l0 -1 7 0M600 350l0 -15M600 350l1 5M601 356l0 -1M601 356l1 0 0 -1 17 0M619 356l0 -1M619 356l1 0 0 -1 5 0 0 -7 1 -1 0 -8 1 0 0 -1 6 0 0 -1M633 338l13 0 0 -1"/>
<path stroke="red" d="M646 338l7 0M653 345l0 -7M653 345l1 2M654 348l0 -1M654 348l52 0M706 351l0 -3M706 351l1 0 0 -1 18 0M725 351l0 -1 6 0 0 -2 28 0M759 350l0 -2M759 350l1 0 0 -1 18 0M778 350l0 -1 26 0M804 350l0 -1 26 0 1 1 0 -1 87 0M918 351l0 -20"/>
<path stroke="red" d="M918 331l1 -3 0 -22 1 -3 0 -4 1 -2 0 -2 2 0 0 -1 13 0M936 296l0 -2 38 0"/>
<path stroke="blue" d="M50 23l46 0"/>
<text stroke="none" fill="white" font-size="16" x="106" y="32">
x1.vsampled_n
</text>
<path stroke="blue" d="M50 431l1 0 1 -7 0 -15 1 -14 0 -5 1 2M54 414l0 -37 1 -4 0 -17 1 -3 0 -2 1 -1 2 0 1 -1 4 0M64 350l0 -1M64 350l4 0 1 -1 48 0M117 363l0 -14M117 363l1 14M118 395l0 -18M118 395l1 3M119 400l0 -2M119 400l1 2M120 403l0 -1M120 403l1 1"/>
<path stroke="blue" d="M121 404l419 0M540 405l0 -1 6 0M546 405l0 -22 1 -2 0 -24 1 -6 0 -5 1 -2 1 0 0 -1 17 0M567 344l0 -1 26 0M593 344l0 -1 26 0M619 344l0 -1 27 0M646 344l0 -1 26 0M672 344l0 -1 7 0M679 350l0 -7M679 350l1 1M680 352l0 -3 1 -1 18 0"/>
<path stroke="blue" d="M699 349l0 -1 26 0M725 349l0 -1 26 0M751 349l0 -1M751 349l1 0 0 -1 26 0M778 349l0 -1 7 0M785 350l0 -2M785 350l1 0 0 -1 26 0M812 350l0 -1 19 0M831 350l0 -1 26 0M857 350l0 -1 26 0M883 350l0 -1 27 0M910 350l0 -1 8 0M918 386l0 -44"/>
<path stroke="blue" d="M918 386l1 6M919 407l0 -15M919 407l1 0 0 -1 1 0 0 -1 2 0 0 -1 13 0M936 405l0 -1 38 0"/>
<path stroke="#FFA500" d="M462 39l46 0"/>
<text stroke="none" fill="white" font-size="16" x="518" y="48">
x1.vsampled_p-x1.vsampled_n
</text>
<path stroke="#FFA500" d="M50 431l2 0 0 -1 2 0M54 431l0 -1M54 431l63 0 0 -15 1 -24 0 -48 1 -7 0 -5 1 -5 0 -3 1 -2 1 -1 424 0M546 342l0 -22M546 342l1 2M547 368l0 -24M547 368l1 6M548 379l0 -5M548 379l1 2 1 1 17 0M567 383l0 -1 6 0M573 383l0 -1M573 383l1 5"/>
<path stroke="#FFA500" d="M574 408l0 -20M574 408l1 9M575 422l0 -5M575 422l1 1 17 0 0 -1M593 423l7 0M600 438l0 -15M600 438l1 5M601 444l0 -1M601 444l1 -1 4 0M606 444l0 -1M606 444l1 0 0 -1 18 0 0 -7 1 -2 0 -7 2 -2 5 0M633 426l0 -1 20 0M653 433l0 -8"/>
<path stroke="#FFA500" d="M653 433l1 2M654 436l0 -1M654 436l18 0 0 -1M672 436l7 0 0 -7 1 -1M680 430l0 -3M680 430l1 0 1 1 16 0 1 -1M699 431l0 -1M699 431l7 0M706 434l0 -4M706 434l1 -1 24 0 0 -3 1 0M732 431l0 -1M732 431l27 0M759 433l0 -2M759 433l1 -1"/>
<path stroke="#FFA500" d="M760 432l25 0 0 -1 6 0M791 432l0 -1M791 432l1 -1 20 0 0 -1M812 431l106 0M918 435l0 -58 1 -10 0 -37 1 -3 0 -4 1 -1 0 -1 2 0 0 -1M923 321l13 0M936 322l0 -1 14 0 0 -1M950 321l24 0"/>
<path stroke="green" d="M50 39l46 0"/>
<text stroke="none" fill="white" font-size="16" x="106" y="48">
x1.sw_sample-2
</text>
<path stroke="green" d="M50 613l1 0 1 -9 0 -21 1 -21M53 579l0 -23M53 579l1 31M54 613l0 -3M54 613l63 0M117 620l0 -172M117 449l422 0M539 614l0 -170M539 613l422 0M961 618l0 -170 1 1 12 0"/>
<path stroke="#FFC0C5" d="M462 55l46 0"/>
<text stroke="none" fill="white" font-size="16" x="518" y="64">
x1.comp_out_p+2
</text>
<path stroke="#FFC0C5" d="M50 249l1 0 1 -9 0 -22 1 -18 0 -4M53 198l1 5M54 250l0 -47M54 248l1 1 486 0 1 1 0 -166M542 85l13 0M555 250l0 -173M555 249l13 0M568 250l0 -166M568 85l13 0 0 -8 1 154M582 249l0 -18M582 249l12 0M594 255l0 -172M594 84l1 1"/>
<path stroke="#FFC0C5" d="M595 85l13 0M608 249l0 -167M608 249l39 0M647 250l0 -166M647 85l14 0M661 250l0 -172M661 249l39 0 0 -146 1 -19M701 85l0 -1M701 85l12 0 0 -8 1 155M714 249l0 -17M714 249l39 0 1 -148 0 -17M754 85l12 0M766 250l0 -173M766 250l1 -1"/>
<path stroke="#FFC0C5" d="M767 249l93 0 0 -165M860 85l12 0M872 249l0 -174M872 249l14 0 0 -157 1 -8M887 85l0 -1M887 85l11 0M898 249l0 -174M898 249l15 0M913 251l0 -167M913 85l12 0M925 250l0 -173M925 249l12 0 1 -23 0 -143M938 85l13 0M951 249l0 -167"/>
<path stroke="#FFC0C5" d="M951 249l23 0"/>
<path stroke="#A52A2A" d="M50 55l46 0"/>
<text stroke="none" fill="white" font-size="16" x="106" y="64">
x1.comp_out_n-2
</text>
<path stroke="#A52A2A" d="M50 613l1 0 1 -9 0 -22 1 -19M53 564l0 -3M53 564l1 6M54 614l0 -71 1 66M55 613l0 -4M55 613l487 0M542 614l0 -1 26 0M568 614l0 -1 53 0M621 614l0 -167M621 449l13 0M634 613l0 -172M634 613l39 0M673 614l0 -1M673 614l1 -91 0 -76"/>
<path stroke="#A52A2A" d="M674 449l13 0M687 613l0 -173M687 613l40 0 0 -165M727 449l13 0M740 614l0 -171M740 613l40 0 0 -165M780 449l13 0M793 613l0 -167M793 613l14 0 0 -164 12 0M819 613l0 -174M819 613l15 0 0 -165M834 449l11 0 0 -2 1 155M846 613l0 -11"/>
<path stroke="#A52A2A" d="M846 613l128 0"/>
</svg>
