<?xml version="1.0" standalone="yes"?>
<!DOCTYPE svg PUBLIC "-//W3C//DTD SVG 1.1//EN"
 "http://www.w3.org/Graphics/SVG/1.1/DTD/svg11.dtd">
<svg xmlns="http://www.w3.org/2000/svg" version="1.1"
  width="100%" height="100%" viewBox="0 0 1024 768"
  style="fill: none; font-family: Helvetica;
 font: Helvetica;
">

<!-- Creator: NGspice -->

<rect x="0" y="0" width="1024" height="768" fill="black" stroke="none"/>
<text stroke="none" fill="white" font-size="16" x="358" y="752">
time
</text>
<text stroke="none" fill="white" font-size="16" x="10" y="16">
tran1: run1712_vin0.605125
</text>
<path stroke="white" d="M50 704l0 -637"/>
<text stroke="none" fill="white" font-size="16" x="35" y="728">
0.0
</text>
<path stroke="white" stroke-dasharray="1,2" d="M182 704l0 -637"/>
<text stroke="none" fill="white" font-size="16" x="157" y="728">
100.0
</text>
<path stroke="white" stroke-dasharray="1,2" d="M314 704l0 -637"/>
<text stroke="none" fill="white" font-size="16" x="289" y="728">
200.0
</text>
<path stroke="white" stroke-dasharray="1,2" d="M446 704l0 -637"/>
<text stroke="none" fill="white" font-size="16" x="421" y="728">
300.0
</text>
<path stroke="white" stroke-dasharray="1,2" d="M578 704l0 -637"/>
<text stroke="none" fill="white" font-size="16" x="553" y="728">
400.0
</text>
<path stroke="white" stroke-dasharray="1,2" d="M710 704l0 -637"/>
<text stroke="none" fill="white" font-size="16" x="685" y="728">
500.0
</text>
<path stroke="white" stroke-dasharray="1,2" d="M842 704l0 -637"/>
<text stroke="none" fill="white" font-size="16" x="817" y="728">
600.0
</text>
<path stroke="white" stroke-dasharray="1,2" d="M974 704l0 -637"/>
<text stroke="none" fill="white" font-size="16" x="949" y="728">
700.0
</text>
<text stroke="none" fill="white" font-size="16" x="614" y="752">
ns
</text>
<path stroke="white" stroke-dasharray="1,2" d="M50 704l924 0"/>
<text stroke="none" fill="white" font-size="16" x="8" y="712">
-2.5
</text>
<path stroke="white" stroke-dasharray="1,2" d="M50 655l924 0"/>
<text stroke="none" fill="white" font-size="16" x="8" y="663">
-2.0
</text>
<path stroke="white" stroke-dasharray="1,2" d="M50 606l924 0"/>
<text stroke="none" fill="white" font-size="16" x="8" y="614">
-1.5
</text>
<path stroke="white" stroke-dasharray="1,2" d="M50 557l924 0"/>
<text stroke="none" fill="white" font-size="16" x="8" y="565">
-1.0
</text>
<path stroke="white" stroke-dasharray="1,2" d="M50 508l924 0"/>
<text stroke="none" fill="white" font-size="16" x="8" y="516">
-0.5
</text>
<path stroke="white" d="M50 459l924 0"/>
<text stroke="none" fill="white" font-size="16" x="18" y="467">
0.0
</text>
<path stroke="white" stroke-dasharray="1,2" d="M50 410l924 0"/>
<text stroke="none" fill="white" font-size="16" x="18" y="418">
0.5
</text>
<path stroke="white" stroke-dasharray="1,2" d="M50 361l924 0"/>
<text stroke="none" fill="white" font-size="16" x="18" y="369">
1.0
</text>
<path stroke="white" stroke-dasharray="1,2" d="M50 312l924 0"/>
<text stroke="none" fill="white" font-size="16" x="18" y="320">
1.5
</text>
<path stroke="white" stroke-dasharray="1,2" d="M50 263l924 0"/>
<text stroke="none" fill="white" font-size="16" x="18" y="271">
2.0
</text>
<path stroke="white" stroke-dasharray="1,2" d="M50 214l924 0"/>
<text stroke="none" fill="white" font-size="16" x="18" y="222">
2.5
</text>
<path stroke="white" stroke-dasharray="1,2" d="M50 165l924 0"/>
<text stroke="none" fill="white" font-size="16" x="18" y="173">
3.0
</text>
<path stroke="white" stroke-dasharray="1,2" d="M50 116l924 0"/>
<text stroke="none" fill="white" font-size="16" x="18" y="124">
3.5
</text>
<path stroke="white" stroke-dasharray="1,2" d="M50 67l924 0"/>
<text stroke="none" fill="white" font-size="16" x="18" y="75">
4.0
</text>
<text stroke="none" fill="white" font-size="16" x="10" y="32">
     
</text>
<path stroke="red" d="M462 23l46 0"/>
<text stroke="none" fill="white" font-size="16" x="518" y="32">
x1.vsampled_p
</text>
<path stroke="red" d="M50 459l1 0 1 -7 0 -17 1 -16 0 -5 1 2M54 441l0 -40 1 -4 0 -19 1 -2 0 -3 1 -1 1 0 0 -1 59 0 0 -1 1 -12 0 -31 1 -4 0 -4 1 -3 0 -2 1 -2 5 0 1 -1 412 0M539 312l0 -1M539 312l1 0M540 313l0 -1 14 0 0 -1M554 312l13 0M567 313l0 -1"/>
<path stroke="red" d="M567 312l7 0M574 333l0 -21M574 333l1 8M575 350l0 -9M575 350l1 5M576 356l0 -1M576 356l4 0 0 -1M580 356l20 0M600 371l0 -15M600 371l1 5M601 379l0 -3M601 379l1 -1 23 0 0 -9 1 -1 0 -8 1 0 0 -1 6 0 0 -1 13 0M646 359l0 -1M646 359l7 0"/>
<path stroke="red" d="M653 367l0 -8M653 367l1 2M654 370l0 -1M654 370l5 0 0 -1 1 0M660 370l0 -1M660 370l1 -1 11 0M672 370l0 -1M672 370l14 0 0 -1M686 370l12 0 0 -1M698 370l1 0 0 -1M699 370l7 0M706 372l0 -2M706 372l1 1 0 -1 18 0M725 373l0 -1 6 0"/>
<path stroke="red" d="M731 372l0 -3 1 0M732 370l0 -1M732 370l53 0M785 371l0 -1M785 371l6 0 0 -1M791 371l127 0M918 373l0 -22 1 -4 0 -23 1 -3 0 -5 1 -2 0 -1 1 0 0 -1 1 0 0 -1M923 312l13 0M936 313l0 -1 14 0 0 -1M950 312l12 0 0 -1 12 0"/>
<path stroke="blue" d="M50 23l46 0"/>
<text stroke="none" fill="white" font-size="16" x="106" y="32">
x1.vsampled_n
</text>
<path stroke="blue" d="M50 459l1 0 1 -7 0 -17 1 -15 0 -5 1 2M54 441l0 -40 1 -4 0 -19 1 -2 0 -3 1 -1 1 0 0 -1 59 0M117 385l0 -14M117 385l1 15M118 420l0 -20M118 420l1 3M119 425l0 -2M119 425l1 2M120 429l0 -2M120 429l1 0 1 1 424 0 0 -23 1 -3 0 -27"/>
<path stroke="blue" d="M547 377l1 -4 0 -6 1 -2 1 0 0 -1 17 0M567 365l0 -1 26 0M593 365l0 -1 26 0M619 365l0 -1 27 0M646 365l0 -1 26 0M672 365l0 -1 7 0M679 373l0 -9M679 373l1 1 0 -4 6 0 0 -1M686 370l26 0 0 -1M712 370l26 0 0 -1M738 370l21 0M759 373l0 -3"/>
<path stroke="blue" d="M759 371l19 0M778 372l0 -1 26 0M804 372l0 -1 27 0M831 372l0 -1 7 0 0 -1 1 1 79 0M918 415l0 -50M918 415l1 6M919 433l0 -12M919 433l1 0 0 -1 1 -1 1 0 0 -1 52 0"/>
<path stroke="#FFA500" d="M462 39l46 0"/>
<text stroke="none" fill="white" font-size="16" x="518" y="48">
x1.vsampled_p-x1.vsampled_n
</text>
<path stroke="#FFA500" d="M50 459l2 0 0 -1 2 0M54 459l0 -1M54 459l63 0 0 -16 1 -26 0 -52 1 -7 0 -5 1 -6 0 -3 1 -2 1 -1 1 0 0 -1 416 0M539 341l0 -1M539 341l1 0 0 -1M540 341l6 0M546 364l0 -23M546 364l1 3M547 394l0 -27M547 394l1 4M548 404l0 -6M548 404l1 2"/>
<path stroke="#FFA500" d="M549 406l1 0 1 1 3 0 0 -1M554 407l13 0M567 408l0 -2M567 407l7 0M574 427l0 -20M574 427l1 8M575 445l0 -10M575 445l1 5M576 451l0 -1M576 451l17 0 0 -1M593 451l7 0M600 466l0 -16M600 466l1 4M601 474l0 -4M601 474l1 -1 0 -1"/>
<path stroke="#FFA500" d="M602 472l1 0 1 1 15 0 0 -1M619 473l1 0 0 -1M620 473l5 0 0 -9 1 -1 0 -8 1 0 0 -1 1 -1 25 0M653 461l0 -8M653 461l1 3M654 465l0 -1 5 0M659 465l0 -1 20 0 0 -8 1 -1M680 459l0 -4M680 459l26 0M706 462l0 -3M706 462l19 0 0 -1"/>
<path stroke="#FFA500" d="M725 462l6 0 0 -3 28 0 0 -3M759 457l1 1 25 0M785 459l0 -1M785 459l1 0 0 -1 5 0M791 459l0 -1M791 459l1 0 0 -1 12 0M804 459l0 -1M804 459l1 0 0 -1 7 0M812 459l0 -1M812 459l26 0M838 460l0 -1M838 460l1 -1 79 0M918 465l0 -70"/>
<path stroke="#FFA500" d="M918 395l1 -9 0 -36 1 -3 0 -4 1 -1 0 -1 2 0 0 -1 13 0M936 342l0 -2M936 341l14 0 0 -1 12 0M962 341l0 -1 12 0"/>
<path stroke="green" d="M50 39l46 0"/>
<text stroke="none" fill="white" font-size="16" x="106" y="48">
x1.sw_sample-2
</text>
<path stroke="green" d="M50 655l1 0 1 -10 0 -23 1 -21M53 619l0 -25M53 619l1 33M54 655l0 -3M54 655l63 0M117 662l0 -184 1 0M118 479l0 -1M118 479l421 0M539 656l0 -184M539 655l422 0M961 660l0 -182 1 0M962 479l0 -1M962 479l12 0"/>
<path stroke="#FFC0C5" d="M462 55l46 0"/>
<text stroke="none" fill="white" font-size="16" x="518" y="64">
x1.comp_out_p+2
</text>
<path stroke="#FFC0C5" d="M50 263l1 0 1 -10 0 -23 1 -20 0 -4M53 209l1 4M54 264l0 -51M54 262l1 1 486 0 1 1 0 -179M542 87l13 0M555 264l0 -184M555 263l13 0M568 264l0 -179M568 87l13 0M581 186l0 -104M581 186l1 75M582 264l0 -3M582 263l12 0M594 264l0 -179"/>
<path stroke="#FFC0C5" d="M594 86l1 1 13 0M608 264l0 -181M608 263l39 0M647 264l0 -179M647 87l14 0M661 264l0 -185M661 263l40 0 0 -178M701 87l12 0 0 -9 1 160M714 263l0 -25M714 263l66 0 0 -178M780 87l13 0M793 263l0 -185M793 263l14 0 0 -177M807 87l12 0"/>
<path stroke="#FFC0C5" d="M819 263l0 -180M819 263l15 0 0 -177M834 87l11 0M845 246l0 -168M845 246l1 17 91 0M937 264l0 -1M937 264l1 -66 0 -113M938 87l13 0M951 264l0 -185M951 263l23 0"/>
<path stroke="#A52A2A" d="M50 55l46 0"/>
<text stroke="none" fill="white" font-size="16" x="106" y="64">
x1.comp_out_n-2
</text>
<path stroke="#A52A2A" d="M50 655l1 0 1 -10 0 -24 1 -20M53 602l0 -3M53 602l1 7M54 656l0 -77 1 72M55 655l0 -4M55 655l513 0M568 656l0 -1 26 0M594 656l0 -1 27 0M621 658l0 -182M621 479l13 0M634 655l0 -185M634 655l13 0M647 656l0 -1 26 0M673 658l0 -3"/>
<path stroke="#A52A2A" d="M673 658l1 -117 0 -65M674 479l13 0M687 655l0 -186M687 655l40 0M727 656l0 -179M727 479l13 0M740 655l0 -185M740 655l13 0 0 -164 1 -13M754 479l0 -1M754 479l12 0M766 655l0 -186M766 655l94 0 0 -177M860 479l12 0M872 655l0 -187"/>
<path stroke="#A52A2A" d="M872 655l14 0 0 -163 1 -14M887 479l0 -1M887 479l11 0M898 655l0 -187M898 655l15 0 0 -177M913 479l12 0M925 656l0 -186M925 655l13 0M938 656l0 -1 36 0"/>
</svg>
