<?xml version="1.0" standalone="yes"?>
<!DOCTYPE svg PUBLIC "-//W3C//DTD SVG 1.1//EN"
 "http://www.w3.org/Graphics/SVG/1.1/DTD/svg11.dtd">
<svg xmlns="http://www.w3.org/2000/svg" version="1.1"
  width="100%" height="100%" viewBox="0 0 1024 768"
  style="fill: none; font-family: Helvetica;
 font: Helvetica;
">

<!-- Creator: NGspice -->

<rect x="0" y="0" width="1024" height="768" fill="black" stroke="none"/>
<text stroke="none" fill="white" font-size="16" x="358" y="752">
time
</text>
<text stroke="none" fill="white" font-size="16" x="10" y="16">
tran1: run2025_vin0.880222
</text>
<path stroke="white" d="M50 704l0 -637"/>
<text stroke="none" fill="white" font-size="16" x="35" y="728">
0.0
</text>
<path stroke="white" stroke-dasharray="1,2" d="M182 704l0 -637"/>
<text stroke="none" fill="white" font-size="16" x="157" y="728">
100.0
</text>
<path stroke="white" stroke-dasharray="1,2" d="M314 704l0 -637"/>
<text stroke="none" fill="white" font-size="16" x="289" y="728">
200.0
</text>
<path stroke="white" stroke-dasharray="1,2" d="M446 704l0 -637"/>
<text stroke="none" fill="white" font-size="16" x="421" y="728">
300.0
</text>
<path stroke="white" stroke-dasharray="1,2" d="M578 704l0 -637"/>
<text stroke="none" fill="white" font-size="16" x="553" y="728">
400.0
</text>
<path stroke="white" stroke-dasharray="1,2" d="M710 704l0 -637"/>
<text stroke="none" fill="white" font-size="16" x="685" y="728">
500.0
</text>
<path stroke="white" stroke-dasharray="1,2" d="M842 704l0 -637"/>
<text stroke="none" fill="white" font-size="16" x="817" y="728">
600.0
</text>
<path stroke="white" stroke-dasharray="1,2" d="M974 704l0 -637"/>
<text stroke="none" fill="white" font-size="16" x="949" y="728">
700.0
</text>
<text stroke="none" fill="white" font-size="16" x="614" y="752">
ns
</text>
<path stroke="white" stroke-dasharray="1,2" d="M50 704l924 0"/>
<text stroke="none" fill="white" font-size="16" x="8" y="712">
-3.0
</text>
<path stroke="white" stroke-dasharray="1,2" d="M50 613l924 0"/>
<text stroke="none" fill="white" font-size="16" x="8" y="621">
-2.0
</text>
<path stroke="white" stroke-dasharray="1,2" d="M50 522l924 0"/>
<text stroke="none" fill="white" font-size="16" x="8" y="530">
-1.0
</text>
<path stroke="white" d="M50 431l924 0"/>
<text stroke="none" fill="white" font-size="16" x="18" y="439">
0.0
</text>
<path stroke="white" stroke-dasharray="1,2" d="M50 340l924 0"/>
<text stroke="none" fill="white" font-size="16" x="18" y="348">
1.0
</text>
<path stroke="white" stroke-dasharray="1,2" d="M50 249l924 0"/>
<text stroke="none" fill="white" font-size="16" x="18" y="257">
2.0
</text>
<path stroke="white" stroke-dasharray="1,2" d="M50 158l924 0"/>
<text stroke="none" fill="white" font-size="16" x="18" y="166">
3.0
</text>
<path stroke="white" stroke-dasharray="1,2" d="M50 67l924 0"/>
<text stroke="none" fill="white" font-size="16" x="18" y="75">
4.0
</text>
<text stroke="none" fill="white" font-size="16" x="10" y="32">
     
</text>
<path stroke="red" d="M462 23l46 0"/>
<text stroke="none" fill="white" font-size="16" x="518" y="32">
x1.vsampled_p
</text>
<path stroke="red" d="M50 431l1 0 1 -7 0 -16 1 -14 0 -5 1 2M54 414l0 -38 1 -5 0 -13 1 -3 0 -3 1 -1 0 -1 2 0 1 -1 3 0 1 1 4 0 1 -1 48 0 0 -2 1 -11 0 -38 1 -7 0 -15 1 -2 0 -2 1 -2 1 0 0 -1 418 0M540 270l0 -1 27 0M567 271l0 -2 7 0M574 293l0 -24"/>
<path stroke="red" d="M574 293l1 7M575 309l0 -9M575 309l1 1 17 0M593 311l0 -1 7 0M600 324l0 -14M600 324l1 3M601 332l0 -5M601 331l5 0 0 -1 1 0M607 331l0 -1M607 331l26 0 0 -1M633 331l20 0M653 337l0 -6M653 337l1 2M654 341l0 -2M654 341l25 0M679 345l0 -4"/>
<path stroke="red" d="M679 345l1 1M680 347l0 -1 26 0M706 349l0 -3M706 349l1 0 0 -1 18 0M725 349l0 -1 26 0M751 349l0 -1M751 349l1 0 0 -1 7 0M759 349l0 -1 19 0M778 349l0 -1 7 0M785 349l0 -1M785 349l27 0M812 350l0 -1 18 0 1 1 0 -1 87 0M918 350l0 -48"/>
<path stroke="red" d="M918 302l1 -2 0 -21 1 -3 0 -3 1 -1 0 -2 2 0 0 -1 13 0M936 271l0 -2 38 0"/>
<path stroke="blue" d="M50 23l46 0"/>
<text stroke="none" fill="white" font-size="16" x="106" y="32">
x1.vsampled_n
</text>
<path stroke="blue" d="M50 431l1 0 1 -7 0 -15 1 -14 0 -4 1 1M54 414l0 -38 1 -5 0 -13 1 -3 0 -3 1 -1 0 -1 2 0 1 -1 4 0 1 1 2 0 0 -1 50 0M117 375l0 -26M117 375l1 18M118 415l0 -22M118 415l1 3M119 425l0 -7M119 425l1 2M120 428l0 -1M120 428l1 0 1 1"/>
<path stroke="blue" d="M122 429l418 0M540 430l0 -1 6 0 0 -21 1 -2 0 -22 1 -8 0 -4 1 -3 1 -1 75 0 0 -11 1 -2 0 -6 1 0 1 1 18 0M646 351l0 -1 26 0M672 351l0 -1 27 0M699 351l0 -1 26 0M725 351l0 -1 6 0 0 -2 1 -2M732 348l0 -2M732 348l27 0M759 351l0 -3"/>
<path stroke="blue" d="M759 349l19 0M778 350l0 -1 26 0M804 350l0 -1 27 0M831 350l0 -1 26 0M857 350l0 -1 26 0M883 350l0 -1 27 0M910 350l0 -1 8 0M918 452l0 -103M918 452l1 0 0 -14 1 -2 0 -3 1 -2 0 -1 2 0 0 -1 13 0M936 430l0 -1 38 0"/>
<path stroke="#FFA500" d="M462 39l46 0"/>
<text stroke="none" fill="white" font-size="16" x="518" y="48">
x1.vsampled_p-x1.vsampled_n
</text>
<path stroke="#FFA500" d="M50 431l2 0 0 -1 2 0M54 431l0 -1M54 431l63 0 0 -27 1 -30 0 -60 1 -10 0 -22 1 -4 0 -3 1 -2 1 -1 0 -1 418 0M540 272l0 -1 6 0M546 292l0 -21M546 292l1 2M547 317l0 -23M547 317l1 7M548 329l0 -5M548 329l1 2M549 332l0 -1M549 332l18 0"/>
<path stroke="#FFA500" d="M567 333l0 -1 7 0M574 356l0 -24M574 356l1 7M575 372l0 -9M575 372l1 1 17 0M593 374l0 -1 7 0M600 387l0 -14M600 387l1 3M601 395l0 -5M601 394l5 0 0 -1 1 0M607 394l0 -1M607 394l18 0M625 405l0 -11M625 405l1 2M626 413l0 -6"/>
<path stroke="#FFA500" d="M626 413l1 -1 6 0 0 -1 13 0M646 412l0 -1M646 412l7 0M653 418l0 -7M653 418l1 2M654 422l0 -2M654 422l18 0 0 -1M672 422l7 0M679 426l0 -4M679 426l1 1M680 428l0 -1 19 0 0 -1M699 427l7 0M706 430l0 -3M706 430l1 -1 24 0M731 431l0 -2"/>
<path stroke="#FFA500" d="M731 431l1 2M732 434l0 -2 19 0 0 -1 1 1 7 0 0 -4M759 430l26 0M785 431l0 -1M785 431l27 0M812 432l0 -1 106 0M918 432l0 -151 1 -2 0 -7 1 -1 3 0 0 -1M923 271l13 0M936 272l0 -1 38 0"/>
<path stroke="green" d="M50 39l46 0"/>
<text stroke="none" fill="white" font-size="16" x="106" y="48">
x1.sw_sample-2
</text>
<path stroke="green" d="M50 613l1 0 1 -9 0 -21 1 -21M53 578l0 -22M53 578l1 32M54 613l0 -3M54 613l63 0M117 620l0 -172M117 449l422 0M539 614l0 -171M539 613l422 0M961 618l0 -170 1 1 12 0"/>
<path stroke="#FFC0C5" d="M462 55l46 0"/>
<text stroke="none" fill="white" font-size="16" x="518" y="64">
x1.comp_out_p+2
</text>
<path stroke="#FFC0C5" d="M50 249l1 0 1 -9 0 -22 1 -18 0 -4M53 198l1 5M54 249l0 -46M54 249l487 0 1 1 0 -166M542 85l13 0M555 250l0 -173M555 249l13 0 0 -165M568 85l13 0M581 222l0 -144M581 222l1 27 12 0M594 250l0 -167M594 85l14 0M608 249l0 -172"/>
<path stroke="#FFC0C5" d="M608 249l13 0M621 254l0 -171M621 85l13 0M634 249l0 -172M634 249l13 0M647 251l0 -167M647 85l13 0 1 1M661 250l0 -172M661 249l12 0M673 251l0 -101 1 -57 0 -10M674 85l13 0M687 249l0 -172M687 249l13 0M700 253l0 -170M700 85l13 0"/>
<path stroke="#FFC0C5" d="M713 85l0 -8 1 161M714 250l0 -12M714 249l13 0M727 250l0 -166M727 85l13 0M740 249l0 -172M740 249l40 0 0 -165M780 85l13 0M793 249l0 -166M793 249l14 0 0 -165 1 1 11 0M819 249l0 -173M819 249l41 0M860 250l0 -151 1 -15M861 85l0 -1"/>
<path stroke="#FFC0C5" d="M861 85l11 0M872 249l0 -166M872 249l14 0 0 -157 1 -8M887 85l0 -1M887 85l11 0M898 249l0 -166M898 249l15 0 0 -165 1 1 11 0M925 250l0 -170M925 249l12 0M937 250l0 -1M937 250l1 -72 0 -94M938 85l13 0M951 250l0 -173M951 249l23 0"/>
<path stroke="#A52A2A" d="M50 55l46 0"/>
<text stroke="none" fill="white" font-size="16" x="106" y="64">
x1.comp_out_n-2
</text>
<path stroke="#A52A2A" d="M50 613l1 0 1 -9 0 -22 1 -19M53 564l0 -3M53 564l1 6M54 614l0 -44M54 611l1 2 592 0M647 614l0 -1 106 0 0 -165 1 0M754 449l0 -1M754 449l12 0M766 613l0 -171M766 613l67 0 1 -28 0 -137M834 449l11 0 0 -9 1 158M846 613l0 -15"/>
<path stroke="#A52A2A" d="M846 613l128 0"/>
</svg>
