<?xml version="1.0" standalone="yes"?>
<!DOCTYPE svg PUBLIC "-//W3C//DTD SVG 1.1//EN"
 "http://www.w3.org/Graphics/SVG/1.1/DTD/svg11.dtd">
<svg xmlns="http://www.w3.org/2000/svg" version="1.1"
  width="100%" height="100%" viewBox="0 0 1024 768"
  style="fill: none; font-family: Helvetica;
 font: Helvetica;
">

<!-- Creator: NGspice -->

<rect x="0" y="0" width="1024" height="768" fill="black" stroke="none"/>
<text stroke="none" fill="white" font-size="16" x="358" y="752">
time
</text>
<text stroke="none" fill="white" font-size="16" x="10" y="16">
tran1: run2029_vin0.883738
</text>
<path stroke="white" d="M50 704l0 -637"/>
<text stroke="none" fill="white" font-size="16" x="35" y="728">
0.0
</text>
<path stroke="white" stroke-dasharray="1,2" d="M182 704l0 -637"/>
<text stroke="none" fill="white" font-size="16" x="157" y="728">
100.0
</text>
<path stroke="white" stroke-dasharray="1,2" d="M314 704l0 -637"/>
<text stroke="none" fill="white" font-size="16" x="289" y="728">
200.0
</text>
<path stroke="white" stroke-dasharray="1,2" d="M446 704l0 -637"/>
<text stroke="none" fill="white" font-size="16" x="421" y="728">
300.0
</text>
<path stroke="white" stroke-dasharray="1,2" d="M578 704l0 -637"/>
<text stroke="none" fill="white" font-size="16" x="553" y="728">
400.0
</text>
<path stroke="white" stroke-dasharray="1,2" d="M710 704l0 -637"/>
<text stroke="none" fill="white" font-size="16" x="685" y="728">
500.0
</text>
<path stroke="white" stroke-dasharray="1,2" d="M842 704l0 -637"/>
<text stroke="none" fill="white" font-size="16" x="817" y="728">
600.0
</text>
<path stroke="white" stroke-dasharray="1,2" d="M974 704l0 -637"/>
<text stroke="none" fill="white" font-size="16" x="949" y="728">
700.0
</text>
<text stroke="none" fill="white" font-size="16" x="614" y="752">
ns
</text>
<path stroke="white" stroke-dasharray="1,2" d="M50 704l924 0"/>
<text stroke="none" fill="white" font-size="16" x="8" y="712">
-3.0
</text>
<path stroke="white" stroke-dasharray="1,2" d="M50 613l924 0"/>
<text stroke="none" fill="white" font-size="16" x="8" y="621">
-2.0
</text>
<path stroke="white" stroke-dasharray="1,2" d="M50 522l924 0"/>
<text stroke="none" fill="white" font-size="16" x="8" y="530">
-1.0
</text>
<path stroke="white" d="M50 431l924 0"/>
<text stroke="none" fill="white" font-size="16" x="18" y="439">
0.0
</text>
<path stroke="white" stroke-dasharray="1,2" d="M50 340l924 0"/>
<text stroke="none" fill="white" font-size="16" x="18" y="348">
1.0
</text>
<path stroke="white" stroke-dasharray="1,2" d="M50 249l924 0"/>
<text stroke="none" fill="white" font-size="16" x="18" y="257">
2.0
</text>
<path stroke="white" stroke-dasharray="1,2" d="M50 158l924 0"/>
<text stroke="none" fill="white" font-size="16" x="18" y="166">
3.0
</text>
<path stroke="white" stroke-dasharray="1,2" d="M50 67l924 0"/>
<text stroke="none" fill="white" font-size="16" x="18" y="75">
4.0
</text>
<text stroke="none" fill="white" font-size="16" x="10" y="32">
     
</text>
<path stroke="red" d="M462 23l46 0"/>
<text stroke="none" fill="white" font-size="16" x="518" y="32">
x1.vsampled_p
</text>
<path stroke="red" d="M50 431l1 0 1 -7 0 -16 1 -14 0 -5 1 2M54 414l0 -38 1 -5 0 -13 1 -3 0 -3 1 -1 0 -1 2 0 1 -1 3 0 1 1 4 0 1 -1 48 0 0 -2 1 -11 0 -38 1 -7 0 -15 1 -3 0 -2 2 -2 418 0M540 270l0 -1 14 0 0 -1M554 269l13 0M567 270l0 -1 7 0M574 291l0 -22"/>
<path stroke="red" d="M574 291l1 6M575 307l0 -10M575 307l1 3 4 0 0 -1M580 310l13 0M593 311l0 -1 7 0M600 324l0 -14M600 324l1 3M601 331l0 -4M601 331l1 0 0 -1 17 0M619 331l0 -1 27 0M646 331l0 -1 7 0M653 339l0 -9M653 339l1 2 5 0 0 -1 13 0M672 341l0 -1"/>
<path stroke="red" d="M672 341l7 0M679 346l0 -6M679 346l1 0M680 347l0 -1 6 0 0 -1M686 346l20 0M706 349l0 -3M706 348l79 0M785 349l0 -1M785 349l27 0M812 350l0 -1 106 0 0 -45 1 -3 0 -24 1 -2 0 -3 1 -1 0 -1 1 0 0 -1 1 0 0 -1M923 269l13 0M936 271l0 -2"/>
<path stroke="red" d="M936 269l14 0 0 -1M950 269l24 0"/>
<path stroke="blue" d="M50 23l46 0"/>
<text stroke="none" fill="white" font-size="16" x="106" y="32">
x1.vsampled_n
</text>
<path stroke="blue" d="M50 431l1 0 1 -7 0 -15 1 -14 0 -4 1 1M54 414l0 -38 1 -5 0 -13 1 -3 0 -3 1 -1 0 -1 2 0 1 -1 4 0 1 1 1 0 1 -1 50 0M117 375l0 -26M117 375l1 18M118 415l0 -22M118 415l1 4M119 426l0 -7M119 426l1 1M120 428l0 -1M120 428l1 1 3 0"/>
<path stroke="blue" d="M124 429l1 1 416 0 0 -1M541 430l5 0 0 -23 1 -2 0 -25 1 -6 1 -4 0 -1 1 0 0 -1 17 0M567 369l0 -1 26 0M593 369l0 -1 26 0M619 369l0 -1 6 0 0 -14 1 -1 0 -4 1 1 19 0M646 351l0 -1 26 0M672 351l0 -1 26 0 1 1 0 -1 26 0M725 351l0 -1"/>
<path stroke="blue" d="M725 350l6 0 0 -4 1 0M732 348l0 -2M732 348l19 0M751 349l0 -1 8 0M759 351l0 -3M759 351l1 -1 2 0 0 -1 16 0M778 350l0 -1 26 0M804 350l0 -1 26 0 1 1 0 -1 26 0M857 350l0 -1 26 0M883 350l0 -1 27 0M910 350l0 -1 8 0M918 452l0 -103"/>
<path stroke="blue" d="M918 452l1 1 0 -16 1 -1 0 -4 1 -1 0 -1 41 0 0 -1 1 0M963 430l0 -1M963 430l11 0"/>
<path stroke="#FFA500" d="M462 39l46 0"/>
<text stroke="none" fill="white" font-size="16" x="518" y="48">
x1.vsampled_p-x1.vsampled_n
</text>
<path stroke="#FFA500" d="M50 431l2 0 0 -1 2 0M54 431l0 -1M54 431l63 0 0 -28 1 -30 0 -59 1 -11 0 -22 1 -4 0 -3 1 -2 2 -2 416 0M539 271l0 -1 1 0M540 271l0 -1 1 1 0 -1 5 0M546 293l0 -23M546 293l1 2M547 320l0 -25M547 320l1 6 1 4M549 331l0 -1M549 331l1 0"/>
<path stroke="#FFA500" d="M550 332l0 -1M550 332l4 0 0 -1M554 332l13 0M567 333l0 -1 7 0M574 354l0 -22M574 354l1 6M575 369l0 -9M575 369l1 3M576 373l0 -1M576 373l4 0 0 -1 13 0M593 373l0 -1M593 373l7 0M600 386l0 -14M600 386l1 4M601 394l0 -4M601 394l1 0"/>
<path stroke="#FFA500" d="M602 394l0 -1 23 0M625 407l0 -14M625 407l1 1M626 412l0 -4M626 412l1 0 0 -1 19 0 0 -1M646 411l7 0M653 419l0 -8M653 419l1 2 25 0M679 426l0 -5M679 426l1 1 0 -1 26 0M706 429l0 -3M706 429l19 0 0 -1M725 429l6 0M731 433l0 -4"/>
<path stroke="#FFA500" d="M731 433l1 0 0 -2 27 0 0 -3 1 1M760 430l0 -1M760 430l18 0 0 -1M778 430l7 0M785 431l0 -1M785 431l1 0 0 -1 26 0M812 431l0 -1M812 431l19 0 0 -1M831 431l7 0M838 432l0 -1 80 0 0 -147 1 -4 0 -9 1 0 1 -1 15 0M936 272l0 -2 38 0"/>
<path stroke="green" d="M50 39l46 0"/>
<text stroke="none" fill="white" font-size="16" x="106" y="48">
x1.sw_sample-2
</text>
<path stroke="green" d="M50 613l1 0 1 -9 0 -21 1 -21M53 578l0 -22M53 578l1 32M54 613l0 -3M54 613l63 0M117 620l0 -172M117 449l422 0M539 614l0 -171M539 613l422 0M961 618l0 -170 1 1 12 0"/>
<path stroke="#FFC0C5" d="M462 55l46 0"/>
<text stroke="none" fill="white" font-size="16" x="518" y="64">
x1.comp_out_p+2
</text>
<path stroke="#FFC0C5" d="M50 249l1 0 1 -9 0 -22 1 -18 0 -4M53 198l1 5M54 249l0 -46M54 249l487 0 1 1 0 -166M542 85l13 0M555 250l0 -173M555 249l13 0 0 -165M568 85l13 0M581 190l0 -109M581 190l1 58M582 250l0 -2M582 249l12 0M594 250l0 -167M594 85l14 0"/>
<path stroke="#FFC0C5" d="M608 249l0 -172M608 249l13 0 0 -165M621 85l13 0M634 249l0 -172M634 249l13 0 0 -165M647 85l14 0M661 249l0 -172M661 249l12 0M673 250l0 -1M673 250l1 -73 0 -93M674 85l13 0M687 250l0 -172M687 249l13 0M700 252l0 -169M700 85l13 0"/>
<path stroke="#FFC0C5" d="M713 85l0 -7 1 140M714 249l0 -31M714 249l13 0 0 -165M727 85l13 0M740 249l0 -166M740 249l40 0 0 -165M780 85l13 0M793 250l0 -168M793 249l13 0 1 -155 0 -10M807 85l12 0M819 250l0 -174M819 249l14 0 1 -154 0 -10 11 0 0 -2"/>
<path stroke="#FFC0C5" d="M845 85l1 150M846 249l0 -14M846 249l14 0 0 -165M860 85l12 0M872 249l0 -166M872 249l14 0 0 -157 1 -8M887 85l0 -1M887 85l11 0M898 249l0 -166M898 249l15 0 0 -165 1 1 11 0M925 250l0 -169M925 249l12 0 1 -41 0 -124M938 85l13 0"/>
<path stroke="#FFC0C5" d="M951 250l0 -173M951 249l23 0"/>
<path stroke="#A52A2A" d="M50 55l46 0"/>
<text stroke="none" fill="white" font-size="16" x="106" y="64">
x1.comp_out_n-2
</text>
<path stroke="#A52A2A" d="M50 613l1 0 1 -9 0 -22 1 -19M53 564l0 -3M53 564l1 6M54 614l0 -44M54 611l1 2 619 0M674 614l0 -1 80 0 0 -165M754 449l12 0M766 613l0 -173M766 613l208 0"/>
</svg>
