<?xml version="1.0" standalone="yes"?>
<!DOCTYPE svg PUBLIC "-//W3C//DTD SVG 1.1//EN"
 "http://www.w3.org/Graphics/SVG/1.1/DTD/svg11.dtd">
<svg xmlns="http://www.w3.org/2000/svg" version="1.1"
  width="100%" height="100%" viewBox="0 0 1024 768"
  style="fill: none; font-family: Helvetica;
 font: Helvetica;
">

<!-- Creator: NGspice -->

<rect x="0" y="0" width="1024" height="768" fill="black" stroke="none"/>
<text stroke="none" fill="white" font-size="16" x="358" y="752">
time
</text>
<text stroke="none" fill="white" font-size="16" x="10" y="16">
tran1: run1635_vin0.537449
</text>
<path stroke="white" d="M50 704l0 -637"/>
<text stroke="none" fill="white" font-size="16" x="35" y="728">
0.0
</text>
<path stroke="white" stroke-dasharray="1,2" d="M182 704l0 -637"/>
<text stroke="none" fill="white" font-size="16" x="157" y="728">
100.0
</text>
<path stroke="white" stroke-dasharray="1,2" d="M314 704l0 -637"/>
<text stroke="none" fill="white" font-size="16" x="289" y="728">
200.0
</text>
<path stroke="white" stroke-dasharray="1,2" d="M446 704l0 -637"/>
<text stroke="none" fill="white" font-size="16" x="421" y="728">
300.0
</text>
<path stroke="white" stroke-dasharray="1,2" d="M578 704l0 -637"/>
<text stroke="none" fill="white" font-size="16" x="553" y="728">
400.0
</text>
<path stroke="white" stroke-dasharray="1,2" d="M710 704l0 -637"/>
<text stroke="none" fill="white" font-size="16" x="685" y="728">
500.0
</text>
<path stroke="white" stroke-dasharray="1,2" d="M842 704l0 -637"/>
<text stroke="none" fill="white" font-size="16" x="817" y="728">
600.0
</text>
<path stroke="white" stroke-dasharray="1,2" d="M974 704l0 -637"/>
<text stroke="none" fill="white" font-size="16" x="949" y="728">
700.0
</text>
<text stroke="none" fill="white" font-size="16" x="614" y="752">
ns
</text>
<path stroke="white" stroke-dasharray="1,2" d="M50 704l924 0"/>
<text stroke="none" fill="white" font-size="16" x="8" y="712">
-3.0
</text>
<path stroke="white" stroke-dasharray="1,2" d="M50 613l924 0"/>
<text stroke="none" fill="white" font-size="16" x="8" y="621">
-2.0
</text>
<path stroke="white" stroke-dasharray="1,2" d="M50 522l924 0"/>
<text stroke="none" fill="white" font-size="16" x="8" y="530">
-1.0
</text>
<path stroke="white" d="M50 431l924 0"/>
<text stroke="none" fill="white" font-size="16" x="18" y="439">
0.0
</text>
<path stroke="white" stroke-dasharray="1,2" d="M50 340l924 0"/>
<text stroke="none" fill="white" font-size="16" x="18" y="348">
1.0
</text>
<path stroke="white" stroke-dasharray="1,2" d="M50 249l924 0"/>
<text stroke="none" fill="white" font-size="16" x="18" y="257">
2.0
</text>
<path stroke="white" stroke-dasharray="1,2" d="M50 158l924 0"/>
<text stroke="none" fill="white" font-size="16" x="18" y="166">
3.0
</text>
<path stroke="white" stroke-dasharray="1,2" d="M50 67l924 0"/>
<text stroke="none" fill="white" font-size="16" x="18" y="75">
4.0
</text>
<text stroke="none" fill="white" font-size="16" x="10" y="32">
     
</text>
<path stroke="red" d="M462 23l46 0"/>
<text stroke="none" fill="white" font-size="16" x="518" y="32">
x1.vsampled_p
</text>
<path stroke="red" d="M50 431l1 0 1 -7 0 -15 1 -15 0 -4 1 1M54 414l0 -39 1 -4 0 -14 1 -2 0 -3 2 -2 1 0 1 -1 3 0 1 1 4 0 1 -1 48 0 0 -1 1 -10 0 -21 1 -5 0 -7 1 -2 0 -1 1 -1 1 0 0 -1 417 0M539 301l0 -1M539 301l1 -1M540 301l0 -1M540 301l14 0 0 -1"/>
<path stroke="red" d="M554 300l12 0 1 1M567 302l0 -1 7 0M574 323l0 -23M574 323l1 8M575 339l0 -8M575 339l1 2 17 0M593 342l0 -1 26 0M619 342l0 -1 27 0M646 342l0 -1 26 0M672 342l0 -1 7 0M679 346l0 -5M679 346l1 0M680 348l0 -2 18 0 1 1 0 -1 7 0M706 350l0 -4"/>
<path stroke="red" d="M706 350l1 -1 105 0 1 1 0 -1 18 0M831 350l0 -1 86 0 1 1 0 -29 1 -2 0 -7 1 -3 0 -3 1 -3 0 -2 2 0 0 -1 13 0M936 302l0 -2M936 301l14 0 0 -1 24 0"/>
<path stroke="blue" d="M50 23l46 0"/>
<text stroke="none" fill="white" font-size="16" x="106" y="32">
x1.vsampled_n
</text>
<path stroke="blue" d="M50 431l1 0 1 -7 0 -15 1 -14 0 -5 1 2M54 415l0 -40 1 -4 0 -14 1 -2 0 -3 2 -2 1 0 1 -1 3 0 1 1 4 0 1 -1 48 0M117 360l0 -11M117 360l1 13M118 387l0 -14M118 387l1 3M119 394l0 -4M119 394l1 2M120 397l0 -1M120 397l1 1 425 0 0 -25"/>
<path stroke="blue" d="M546 373l1 -3 0 -21 1 -4 0 -6 1 0 0 -1 1 -1 4 0 0 -1M554 337l13 0M567 338l0 -1 13 0 0 -1M580 337l20 0M600 355l0 -18M600 355l1 2M601 363l0 -6M601 362l1 -2 0 -2 1 -1 16 0M619 358l0 -1 6 0 0 -10 1 -2 0 -7 1 0M627 339l0 -1"/>
<path stroke="blue" d="M627 339l19 0M646 340l0 -1 7 0M653 349l0 -10M653 349l1 2M654 352l0 -1 1 -1 4 0 0 -1M659 350l13 0 0 -1M672 350l14 0 0 -1M686 350l26 0 0 -1M712 350l20 0 0 -4 1 0M733 347l0 -1M733 347l18 0M751 348l0 -1M751 348l1 0 0 -1 7 0"/>
<path stroke="blue" d="M759 350l0 -3M759 349l6 0 0 -1M765 349l21 0M786 350l0 -1 18 0M804 350l0 -1 27 0M831 350l0 -1 26 0M857 350l0 -1 26 0M883 350l0 -1M883 350l1 -1 26 0M910 350l0 -1 8 0M918 388l0 -39M918 388l1 3M919 399l0 -8M919 399l1 1 1 -1"/>
<path stroke="blue" d="M921 399l0 -1 53 0"/>
<path stroke="#FFA500" d="M462 39l46 0"/>
<text stroke="none" fill="white" font-size="16" x="518" y="48">
x1.vsampled_p-x1.vsampled_n
</text>
<path stroke="#FFA500" d="M50 431l2 0 1 -1 1 0M54 431l0 -1M54 431l63 0 0 -12 1 -23 0 -35 1 -8 0 -11 1 -3 0 -3 1 -2 1 0 0 -1 418 0M540 334l0 -1 1 0M541 334l0 -1 5 0M546 358l0 -25M546 358l1 4M547 383l0 -21M547 383l1 4M548 392l0 -5M548 392l1 1M549 394l0 -1"/>
<path stroke="#FFA500" d="M549 394l1 0 1 1 3 0 0 -1M554 395l13 0 0 -1M567 395l7 0M574 417l0 -23M574 417l1 9M575 433l0 -7M575 433l1 2 1 1 1 -1 2 0M580 436l0 -1 13 0M593 436l0 -1 7 0 0 -17 1 -3 0 -6M601 411l1 2M602 415l0 -2M602 415l23 0M625 426l0 -11"/>
<path stroke="#FFA500" d="M625 426l1 1M626 434l0 -7M626 434l1 0 1 -1 25 0 0 -10 1 -2 0 -1M654 421l1 1M655 423l0 -1M655 423l17 0 0 -1M672 423l7 0M679 427l0 -4M679 427l1 1M680 429l0 -1 26 0M706 431l0 -3M706 431l1 0 0 -1 25 0M732 434l0 -4M732 434l1 0"/>
<path stroke="#FFA500" d="M733 434l0 -1 18 0 0 -1M751 433l8 0 0 -3M759 431l27 0 0 -1M786 431l53 0 1 -1M840 431l0 -1M840 431l78 0M918 432l0 -68 1 -5 0 -16 1 -4 0 -2 1 -2 0 -1 2 0 0 -1 13 0M936 334l0 -1 38 0"/>
<path stroke="green" d="M50 39l46 0"/>
<text stroke="none" fill="white" font-size="16" x="106" y="48">
x1.sw_sample-2
</text>
<path stroke="green" d="M50 613l1 0 1 -9 0 -21 1 -21M53 580l0 -24M53 580l1 30M54 613l0 -3M54 613l63 0M117 620l0 -172M117 449l422 0M539 614l0 -171M539 613l422 0M961 618l0 -170 1 1 12 0"/>
<path stroke="#FFC0C5" d="M462 55l46 0"/>
<text stroke="none" fill="white" font-size="16" x="518" y="64">
x1.comp_out_p+2
</text>
<path stroke="#FFC0C5" d="M50 249l1 0 1 -9 0 -22 1 -18 0 -4M53 198l1 5M54 249l0 -46M54 249l488 0 0 -165M542 85l13 0M555 250l0 -167M555 249l13 0M568 250l0 -167M568 85l13 0 0 -7 1 136M582 249l0 -35M582 249l39 0M621 250l0 -166M621 85l13 0M634 249l0 -172"/>
<path stroke="#FFC0C5" d="M634 249l39 0M673 253l0 -4M673 253l1 -109 0 -61M674 85l13 0M687 250l0 -173M687 249l13 0M700 251l0 -168M700 85l13 0 0 -3 1 152M714 249l0 -15M714 249l14 0 0 -164 12 0M740 249l0 -171M740 249l67 0 0 -165M807 85l12 0M819 250l0 -171"/>
<path stroke="#FFC0C5" d="M819 249l41 0 0 -165M860 85l12 0M872 249l0 -173M872 249l14 0 0 -164 1 -1M887 85l0 -1M887 85l11 0M898 249l0 -173M898 249l15 0 0 -165M913 85l12 0M925 249l0 -172M925 249l12 0 1 -10 0 -156M938 85l13 0M951 250l0 -171M951 249l23 0"/>
<path stroke="#A52A2A" d="M50 55l46 0"/>
<text stroke="none" fill="white" font-size="16" x="106" y="64">
x1.comp_out_n-2
</text>
<path stroke="#A52A2A" d="M50 613l1 0 1 -9 0 -22 1 -19M53 564l0 -3M53 564l1 6M54 614l0 -44M54 612l1 1 539 0M594 616l0 -169M594 448l1 1 13 0M608 613l0 -174M608 613l39 0M647 615l0 -168M647 449l14 0M661 613l0 -173M661 613l92 0 0 -165M753 449l13 0"/>
<path stroke="#A52A2A" d="M766 613l0 -168M766 613l14 0 0 -164 1 -1M781 449l0 -1M781 449l12 0M793 613l0 -174M793 613l42 0 0 -158 1 -7M836 449l0 -1M836 449l9 0M845 465l0 -19M845 465l1 140M846 613l0 -8M846 613l128 0"/>
</svg>
