<?xml version="1.0" standalone="yes"?>
<!DOCTYPE svg PUBLIC "-//W3C//DTD SVG 1.1//EN"
 "http://www.w3.org/Graphics/SVG/1.1/DTD/svg11.dtd">
<svg xmlns="http://www.w3.org/2000/svg" version="1.1"
  width="100%" height="100%" viewBox="0 0 1024 768"
  style="fill: none; font-family: Helvetica;
 font: Helvetica;
">

<!-- Creator: NGspice -->

<rect x="0" y="0" width="1024" height="768" fill="black" stroke="none"/>
<text stroke="none" fill="white" font-size="16" x="358" y="752">
time
</text>
<text stroke="none" fill="white" font-size="16" x="10" y="16">
tran1: run1638_vin0.540086
</text>
<path stroke="white" d="M50 704l0 -637"/>
<text stroke="none" fill="white" font-size="16" x="35" y="728">
0.0
</text>
<path stroke="white" stroke-dasharray="1,2" d="M182 704l0 -637"/>
<text stroke="none" fill="white" font-size="16" x="157" y="728">
100.0
</text>
<path stroke="white" stroke-dasharray="1,2" d="M314 704l0 -637"/>
<text stroke="none" fill="white" font-size="16" x="289" y="728">
200.0
</text>
<path stroke="white" stroke-dasharray="1,2" d="M446 704l0 -637"/>
<text stroke="none" fill="white" font-size="16" x="421" y="728">
300.0
</text>
<path stroke="white" stroke-dasharray="1,2" d="M578 704l0 -637"/>
<text stroke="none" fill="white" font-size="16" x="553" y="728">
400.0
</text>
<path stroke="white" stroke-dasharray="1,2" d="M710 704l0 -637"/>
<text stroke="none" fill="white" font-size="16" x="685" y="728">
500.0
</text>
<path stroke="white" stroke-dasharray="1,2" d="M842 704l0 -637"/>
<text stroke="none" fill="white" font-size="16" x="817" y="728">
600.0
</text>
<path stroke="white" stroke-dasharray="1,2" d="M974 704l0 -637"/>
<text stroke="none" fill="white" font-size="16" x="949" y="728">
700.0
</text>
<text stroke="none" fill="white" font-size="16" x="614" y="752">
ns
</text>
<path stroke="white" stroke-dasharray="1,2" d="M50 704l924 0"/>
<text stroke="none" fill="white" font-size="16" x="8" y="712">
-3.0
</text>
<path stroke="white" stroke-dasharray="1,2" d="M50 613l924 0"/>
<text stroke="none" fill="white" font-size="16" x="8" y="621">
-2.0
</text>
<path stroke="white" stroke-dasharray="1,2" d="M50 522l924 0"/>
<text stroke="none" fill="white" font-size="16" x="8" y="530">
-1.0
</text>
<path stroke="white" d="M50 431l924 0"/>
<text stroke="none" fill="white" font-size="16" x="18" y="439">
0.0
</text>
<path stroke="white" stroke-dasharray="1,2" d="M50 340l924 0"/>
<text stroke="none" fill="white" font-size="16" x="18" y="348">
1.0
</text>
<path stroke="white" stroke-dasharray="1,2" d="M50 249l924 0"/>
<text stroke="none" fill="white" font-size="16" x="18" y="257">
2.0
</text>
<path stroke="white" stroke-dasharray="1,2" d="M50 158l924 0"/>
<text stroke="none" fill="white" font-size="16" x="18" y="166">
3.0
</text>
<path stroke="white" stroke-dasharray="1,2" d="M50 67l924 0"/>
<text stroke="none" fill="white" font-size="16" x="18" y="75">
4.0
</text>
<text stroke="none" fill="white" font-size="16" x="10" y="32">
     
</text>
<path stroke="red" d="M462 23l46 0"/>
<text stroke="none" fill="white" font-size="16" x="518" y="32">
x1.vsampled_p
</text>
<path stroke="red" d="M50 431l1 0 1 -7 0 -15 1 -15 0 -4 1 1M54 414l0 -37 1 -3 0 -17 1 -3 0 -2 2 -2 1 0 1 -1 4 0M64 350l0 -1M64 350l4 0 1 -1 48 0 0 -1 1 -10 0 -21 1 -5 0 -7 1 -2 0 -2 1 0 1 -1 418 0M540 301l0 -1 26 0 1 1 0 -1 7 0M574 323l0 -23"/>
<path stroke="red" d="M574 323l1 8M575 339l0 -8M575 339l1 2 17 0M593 342l0 -1 26 0M619 342l0 -1 53 0M672 342l0 -1 7 0M679 346l0 -5M679 346l1 1M680 348l0 -2 19 0M699 347l0 -1 7 0M706 349l0 -3M706 349l80 0M786 350l0 -1M786 350l1 -1 17 0M804 350l0 -1"/>
<path stroke="red" d="M804 349l26 0 1 1 0 -1 86 0M917 350l0 -3 1 -5 0 -24 1 -2 0 -9 1 -3 0 -1 1 -2 1 0 1 -1 13 0M936 302l0 -2 38 0"/>
<path stroke="blue" d="M50 23l46 0"/>
<text stroke="none" fill="white" font-size="16" x="106" y="32">
x1.vsampled_n
</text>
<path stroke="blue" d="M50 431l1 0 1 -7 0 -15 1 -14 0 -5 1 2M54 415l0 -38 1 -3 0 -17 1 -3 0 -2 2 -2 1 0 1 -1 4 0M64 350l0 -1M64 350l4 0 1 -1 48 0M117 360l0 -11M117 360l1 13M118 387l0 -14M118 387l1 3M119 395l0 -5M119 395l1 1M120 397l0 -1M120 397l1 1"/>
<path stroke="blue" d="M121 398l419 0M540 399l0 -1 6 0M546 399l0 -28 1 -4 0 -22 1 -2 0 -3 1 -1 0 -1 1 -1 4 0 0 -1M554 337l13 0M567 338l0 -1 26 0M593 338l0 -1 7 0M600 357l0 -20M600 357l1 2M601 364l0 -5M601 362l1 -2 0 -2 1 0 1 -1 1 0M605 358l0 -1"/>
<path stroke="blue" d="M605 358l1 0 0 -1 13 0M619 358l0 -1M619 358l1 0 0 -1M620 358l5 0 0 -12 1 -1 0 -6 2 0 1 1 4 0 0 -1M633 340l20 0M653 350l0 -10M653 350l1 2 0 -1 1 0 0 -1 77 0 0 -4M732 347l1 0M733 348l0 -1M733 348l5 0 0 -1 1 0M739 348l0 -1"/>
<path stroke="blue" d="M739 348l20 0M759 350l0 -2M759 349l53 0M812 350l0 -1M812 350l1 0 0 -1 18 0M831 350l0 -1 26 0M857 350l0 -1 26 0M883 350l0 -1 27 0M910 350l0 -1 7 0M917 353l0 -4M917 353l1 4M918 393l0 -36M918 393l1 3M919 400l0 -4M919 400l1 0"/>
<path stroke="blue" d="M920 400l0 -1 2 0 0 -1 14 0M936 399l0 -1 38 0"/>
<path stroke="#FFA500" d="M462 39l46 0"/>
<text stroke="none" fill="white" font-size="16" x="518" y="48">
x1.vsampled_p-x1.vsampled_n
</text>
<path stroke="#FFA500" d="M50 431l2 0 1 -1 1 0M54 431l0 -1M54 431l63 0 0 -12 1 -23 0 -35 1 -8 0 -11 1 -4 0 -3 2 -2 418 0M540 334l0 -1 6 0M546 361l0 -29M546 361l1 4M547 386l0 -21M547 386l1 2M548 392l0 -4M548 392l1 0M549 393l0 -1M549 393l1 1 17 0"/>
<path stroke="#FFA500" d="M567 395l0 -1 7 0M574 416l0 -22M574 416l1 8M575 433l0 -9M575 433l1 2 24 0 0 -19 1 -3 0 -5M601 410l1 2M602 414l0 -2M602 414l1 1 3 0 0 -1 1 0M607 415l0 -1M607 415l12 0 0 -1 1 0M620 415l0 -1M620 415l5 0M625 426l0 -11M625 426l1 1"/>
<path stroke="#FFA500" d="M626 433l0 -6M626 433l1 1 0 -1 1 0 1 -1 4 0M633 433l0 -1 20 0 0 -9 1 -3M654 421l0 -1M654 421l1 1 24 0M679 427l0 -5M679 427l1 1M680 429l0 -2 26 0M706 431l0 -4M706 430l26 0M732 434l0 -4M732 433l1 0 0 -1 26 0 0 -3M759 431l27 0"/>
<path stroke="#FFA500" d="M786 432l0 -1M786 432l1 0 0 -1 4 0M791 432l0 -1M791 432l1 0 0 -1 12 0M804 432l0 -1M804 432l1 -1 7 0 1 -1M813 431l0 -1M813 431l104 0M917 432l0 -7 1 -9 0 -60 1 -5 0 -13 1 -2 0 -2 1 0 0 -1 2 0 0 -1M923 333l13 0M936 334l0 -1"/>
<path stroke="#FFA500" d="M936 333l14 0 0 -1M950 333l24 0"/>
<path stroke="green" d="M50 39l46 0"/>
<text stroke="none" fill="white" font-size="16" x="106" y="48">
x1.sw_sample-2
</text>
<path stroke="green" d="M50 613l1 0 1 -9 0 -21 1 -21M53 580l0 -24M53 580l1 30M54 613l0 -3M54 613l63 0M117 620l0 -172M117 449l422 0M539 614l0 -171M539 613l422 0M961 618l0 -170 1 1 12 0"/>
<path stroke="#FFC0C5" d="M462 55l46 0"/>
<text stroke="none" fill="white" font-size="16" x="518" y="64">
x1.comp_out_p+2
</text>
<path stroke="#FFC0C5" d="M50 249l1 0 1 -9 0 -22 1 -18 0 -4M53 198l1 5M54 251l0 -48M54 248l1 0M55 249l0 -1M55 249l487 0 0 -165M542 85l13 0M555 250l0 -167M555 249l13 0M568 251l0 -167M568 85l13 0 0 -7 1 129M582 250l0 -43M582 249l39 0 0 -165M621 85l13 0"/>
<path stroke="#FFC0C5" d="M634 249l0 -172M634 249l39 0M673 251l0 -2M673 251l1 -91 0 -77M674 85l13 0M687 249l0 -171M687 249l13 0 0 -166M700 85l13 0 0 -8 1 159M714 249l0 -13M714 249l13 0 0 -149 1 -15 0 -1M728 85l12 0M740 249l0 -172M740 249l40 0"/>
<path stroke="#FFC0C5" d="M780 249l1 -147 0 -18M781 85l12 0M793 249l0 -171M793 249l67 0 0 -165M860 85l12 0M872 249l0 -174M872 249l14 0 0 -157 1 -8M887 85l0 -1M887 85l11 0M898 249l0 -174M898 249l14 0 1 -157 0 -8M913 85l12 0M925 249l0 -172M925 249l12 0"/>
<path stroke="#FFC0C5" d="M937 249l1 -14 0 -152M938 85l13 0M951 250l0 -171M951 249l23 0"/>
<path stroke="#A52A2A" d="M50 55l46 0"/>
<text stroke="none" fill="white" font-size="16" x="106" y="64">
x1.comp_out_n-2
</text>
<path stroke="#A52A2A" d="M50 613l1 0 1 -9 0 -22 1 -19M53 564l0 -3M53 564l1 6M54 614l0 -104 1 97M55 613l0 -6M55 613l539 0 0 -166M594 449l14 0M608 613l0 -172M608 613l39 0M647 615l0 -168M647 449l14 0M661 613l0 -174M661 613l92 0 0 -165M753 449l13 0"/>
<path stroke="#A52A2A" d="M766 613l0 -173M766 613l41 0 0 -165M807 449l12 0M819 613l0 -174M819 613l15 0 0 -165M834 449l11 0 0 -2M845 448l1 154M846 613l0 -11M846 613l128 0"/>
</svg>
