<?xml version="1.0" standalone="yes"?>
<!DOCTYPE svg PUBLIC "-//W3C//DTD SVG 1.1//EN"
 "http://www.w3.org/Graphics/SVG/1.1/DTD/svg11.dtd">
<svg xmlns="http://www.w3.org/2000/svg" version="1.1"
  width="100%" height="100%" viewBox="0 0 1024 768"
  style="fill: none; font-family: Helvetica;
 font: Helvetica;
">

<!-- Creator: NGspice -->

<rect x="0" y="0" width="1024" height="768" fill="black" stroke="none"/>
<text stroke="none" fill="white" font-size="16" x="358" y="752">
time
</text>
<text stroke="none" fill="white" font-size="16" x="10" y="16">
tran1: run1639_vin0.540965
</text>
<path stroke="white" d="M50 704l0 -637"/>
<text stroke="none" fill="white" font-size="16" x="35" y="728">
0.0
</text>
<path stroke="white" stroke-dasharray="1,2" d="M182 704l0 -637"/>
<text stroke="none" fill="white" font-size="16" x="157" y="728">
100.0
</text>
<path stroke="white" stroke-dasharray="1,2" d="M314 704l0 -637"/>
<text stroke="none" fill="white" font-size="16" x="289" y="728">
200.0
</text>
<path stroke="white" stroke-dasharray="1,2" d="M446 704l0 -637"/>
<text stroke="none" fill="white" font-size="16" x="421" y="728">
300.0
</text>
<path stroke="white" stroke-dasharray="1,2" d="M578 704l0 -637"/>
<text stroke="none" fill="white" font-size="16" x="553" y="728">
400.0
</text>
<path stroke="white" stroke-dasharray="1,2" d="M710 704l0 -637"/>
<text stroke="none" fill="white" font-size="16" x="685" y="728">
500.0
</text>
<path stroke="white" stroke-dasharray="1,2" d="M842 704l0 -637"/>
<text stroke="none" fill="white" font-size="16" x="817" y="728">
600.0
</text>
<path stroke="white" stroke-dasharray="1,2" d="M974 704l0 -637"/>
<text stroke="none" fill="white" font-size="16" x="949" y="728">
700.0
</text>
<text stroke="none" fill="white" font-size="16" x="614" y="752">
ns
</text>
<path stroke="white" stroke-dasharray="1,2" d="M50 704l924 0"/>
<text stroke="none" fill="white" font-size="16" x="8" y="712">
-3.0
</text>
<path stroke="white" stroke-dasharray="1,2" d="M50 613l924 0"/>
<text stroke="none" fill="white" font-size="16" x="8" y="621">
-2.0
</text>
<path stroke="white" stroke-dasharray="1,2" d="M50 522l924 0"/>
<text stroke="none" fill="white" font-size="16" x="8" y="530">
-1.0
</text>
<path stroke="white" d="M50 431l924 0"/>
<text stroke="none" fill="white" font-size="16" x="18" y="439">
0.0
</text>
<path stroke="white" stroke-dasharray="1,2" d="M50 340l924 0"/>
<text stroke="none" fill="white" font-size="16" x="18" y="348">
1.0
</text>
<path stroke="white" stroke-dasharray="1,2" d="M50 249l924 0"/>
<text stroke="none" fill="white" font-size="16" x="18" y="257">
2.0
</text>
<path stroke="white" stroke-dasharray="1,2" d="M50 158l924 0"/>
<text stroke="none" fill="white" font-size="16" x="18" y="166">
3.0
</text>
<path stroke="white" stroke-dasharray="1,2" d="M50 67l924 0"/>
<text stroke="none" fill="white" font-size="16" x="18" y="75">
4.0
</text>
<text stroke="none" fill="white" font-size="16" x="10" y="32">
     
</text>
<path stroke="red" d="M462 23l46 0"/>
<text stroke="none" fill="white" font-size="16" x="518" y="32">
x1.vsampled_p
</text>
<path stroke="red" d="M50 431l1 0 1 -7 0 -15 1 -15 0 -4 1 1M54 414l0 -37 1 -3 0 -17 1 -3 0 -2 2 -2 1 0 1 -1 4 0M64 350l0 -1M64 350l4 0 1 -1 48 0 0 -1 1 -10 0 -21 1 -5 0 -7 1 -2 0 -2 1 0 1 -1 418 0M540 301l0 -1 27 0M567 301l0 -1 7 0M574 321l0 -21"/>
<path stroke="red" d="M574 321l1 8M575 339l0 -10M575 339l1 1M576 341l0 -1M576 341l103 0M679 346l0 -5M679 346l1 0M680 347l0 -1 26 0M706 349l0 -3M706 349l6 0 0 -1M712 349l26 0 0 -1M738 349l27 0 0 -1M765 349l21 0M786 350l0 -1 18 0M804 350l0 -1 27 0"/>
<path stroke="red" d="M831 350l0 -1 87 0M918 350l0 -27 1 -1 0 -9 1 -3 0 -6 1 -2 0 -1 2 0 0 -1 13 0M936 301l0 -1 38 0"/>
<path stroke="blue" d="M50 23l46 0"/>
<text stroke="none" fill="white" font-size="16" x="106" y="32">
x1.vsampled_n
</text>
<path stroke="blue" d="M50 431l1 0 1 -7 0 -15 1 -14 0 -5 1 2M54 415l0 -38 1 -3 0 -17 1 -3 0 -2 2 -2 1 0 1 -1 4 0M64 350l0 -1M64 350l4 0 1 -1 48 0M117 360l0 -11M117 360l1 13M118 387l0 -14M118 387l1 3M119 395l0 -5M119 395l1 1M120 397l0 -1M120 397l1 1"/>
<path stroke="blue" d="M121 398l419 0M540 399l0 -1 6 0 0 -22 1 -4 0 -22 1 -4 0 -6 1 -1 0 -1 1 0 0 -1 4 0 0 -1M554 337l13 0M567 338l0 -1 26 0M593 338l0 -1 7 0M600 361l0 -24M600 361l1 3 0 -3 1 -2 0 -1 4 0 0 -1 1 0M607 358l0 -1M607 358l13 0 0 -1"/>
<path stroke="blue" d="M620 358l5 0 0 -12 1 -1 0 -6 2 0M628 340l0 -1M628 340l5 0 0 -1M633 340l20 0M653 350l0 -10M653 350l1 1M654 353l0 -2M654 352l1 -1 0 -1 76 0 1 -2 0 -2M732 347l1 1 5 0 0 -1M738 348l21 0M759 351l0 -3M759 349l53 0M812 350l0 -1"/>
<path stroke="blue" d="M812 349l19 0M831 350l0 -1 26 0M857 350l0 -1 26 0M883 350l0 -1M883 350l1 -1 26 0M910 350l0 -1 8 0M918 387l0 -38M918 387l1 1M919 398l0 -10M919 398l1 2M920 401l0 -1 1 -1 2 0 0 -1 13 0M936 399l0 -1 38 0"/>
<path stroke="#FFA500" d="M462 39l46 0"/>
<text stroke="none" fill="white" font-size="16" x="518" y="48">
x1.vsampled_p-x1.vsampled_n
</text>
<path stroke="#FFA500" d="M50 431l2 0 1 -1 1 0M54 431l0 -1M54 431l63 0 0 -12 1 -23 0 -35 1 -8 0 -11 1 -4 0 -3 2 -2 424 0M546 356l0 -23M546 356l1 3M547 381l0 -22M547 381l1 4M548 391l0 -6M548 391l1 1M549 393l0 -1M549 393l1 1 17 0M567 395l0 -2M567 394l7 0"/>
<path stroke="#FFA500" d="M574 415l0 -21M574 415l1 8M575 432l0 -9M575 432l1 2M576 435l0 -1M576 435l24 0 0 -24 1 -3M601 411l0 -3M601 411l1 2M602 414l0 -1M602 414l17 0M619 415l0 -1 1 0M620 415l0 -1 5 0M625 426l0 -12M625 426l1 1M626 433l0 -6M626 433l2 0"/>
<path stroke="#FFA500" d="M628 433l0 -1 25 0 0 -9 1 -2 0 -2M654 420l1 1M655 422l0 -1M655 422l24 0M679 427l0 -5M679 427l1 0M680 428l0 -1 26 0M706 430l0 -3M706 430l25 0 1 2M732 433l0 -1 27 0 0 -3M759 430l1 1 26 0M786 432l0 -1 26 0 0 -1M812 431l27 0"/>
<path stroke="#FFA500" d="M839 431l1 -1M840 431l0 -1M840 431l78 0 0 -63 1 -3 0 -19 1 -5 0 -6 1 -1 0 -1 2 0 0 -1M923 333l13 0M936 334l0 -1 14 0 0 -1M950 333l24 0"/>
<path stroke="green" d="M50 39l46 0"/>
<text stroke="none" fill="white" font-size="16" x="106" y="48">
x1.sw_sample-2
</text>
<path stroke="green" d="M50 613l1 0 1 -9 0 -21 1 -21M53 580l0 -24M53 580l1 30M54 613l0 -3M54 613l63 0M117 620l0 -172M117 449l422 0M539 614l0 -171M539 613l422 0M961 618l0 -170 1 1 12 0"/>
<path stroke="#FFC0C5" d="M462 55l46 0"/>
<text stroke="none" fill="white" font-size="16" x="518" y="64">
x1.comp_out_p+2
</text>
<path stroke="#FFC0C5" d="M50 249l1 0 1 -9 0 -22 1 -18 0 -4M53 198l1 5M54 251l0 -48M54 248l1 0M55 249l0 -1M55 249l486 0 1 1 0 -167M542 85l13 0M555 250l0 -167M555 249l13 0M568 252l0 -168M568 85l13 0 0 -7 1 130M582 250l0 -42M582 249l39 0 0 -165"/>
<path stroke="#FFC0C5" d="M621 85l13 0M634 250l0 -173M634 249l39 0M673 251l0 -2M673 251l1 -90 0 -78M674 85l13 0M687 250l0 -173M687 249l13 0 0 -165M700 85l13 0 1 -8M714 250l0 -173M714 249l13 0 0 -165M727 85l13 0M740 250l0 -173M740 249l40 0 0 -164"/>
<path stroke="#FFC0C5" d="M780 85l1 -1M781 85l0 -1M781 85l12 0M793 249l0 -174M793 249l67 0 0 -165M860 85l12 0M872 249l0 -173M872 249l14 0 0 -165 1 0M887 85l0 -1M887 85l11 0M898 249l0 -173M898 249l15 0 0 -165M913 85l12 0M925 249l0 -172M925 249l12 0"/>
<path stroke="#FFC0C5" d="M937 249l1 -15 0 -151M938 85l13 0M951 250l0 -171M951 249l23 0"/>
<path stroke="#A52A2A" d="M50 55l46 0"/>
<text stroke="none" fill="white" font-size="16" x="106" y="64">
x1.comp_out_n-2
</text>
<path stroke="#A52A2A" d="M50 613l1 0 1 -9 0 -22 1 -19M53 564l0 -3M53 564l1 6M54 614l0 -105 1 98M55 613l0 -6M55 613l539 0M594 614l0 -166M594 449l14 0M608 613l0 -173M608 613l39 0M647 614l0 -167M647 449l14 0M661 613l0 -167M661 613l92 0 0 -165M753 449l13 0"/>
<path stroke="#A52A2A" d="M766 613l0 -174M766 613l41 0 0 -165M807 449l12 0M819 613l0 -172M819 613l16 0 0 -158 1 -7M836 449l0 -1M836 449l9 0M845 466l0 -20M845 466l1 139M846 613l0 -8M846 613l128 0"/>
</svg>
