<?xml version="1.0" standalone="yes"?>
<!DOCTYPE svg PUBLIC "-//W3C//DTD SVG 1.1//EN"
 "http://www.w3.org/Graphics/SVG/1.1/DTD/svg11.dtd">
<svg xmlns="http://www.w3.org/2000/svg" version="1.1"
  width="100%" height="100%" viewBox="0 0 1024 768"
  style="fill: none; font-family: Helvetica;
 font: Helvetica;
">

<!-- Creator: NGspice -->

<rect x="0" y="0" width="1024" height="768" fill="black" stroke="none"/>
<text stroke="none" fill="white" font-size="16" x="358" y="752">
time
</text>
<text stroke="none" fill="white" font-size="16" x="10" y="16">
tran1: run1637_vin0.539207
</text>
<path stroke="white" d="M50 704l0 -637"/>
<text stroke="none" fill="white" font-size="16" x="35" y="728">
0.0
</text>
<path stroke="white" stroke-dasharray="1,2" d="M182 704l0 -637"/>
<text stroke="none" fill="white" font-size="16" x="157" y="728">
100.0
</text>
<path stroke="white" stroke-dasharray="1,2" d="M314 704l0 -637"/>
<text stroke="none" fill="white" font-size="16" x="289" y="728">
200.0
</text>
<path stroke="white" stroke-dasharray="1,2" d="M446 704l0 -637"/>
<text stroke="none" fill="white" font-size="16" x="421" y="728">
300.0
</text>
<path stroke="white" stroke-dasharray="1,2" d="M578 704l0 -637"/>
<text stroke="none" fill="white" font-size="16" x="553" y="728">
400.0
</text>
<path stroke="white" stroke-dasharray="1,2" d="M710 704l0 -637"/>
<text stroke="none" fill="white" font-size="16" x="685" y="728">
500.0
</text>
<path stroke="white" stroke-dasharray="1,2" d="M842 704l0 -637"/>
<text stroke="none" fill="white" font-size="16" x="817" y="728">
600.0
</text>
<path stroke="white" stroke-dasharray="1,2" d="M974 704l0 -637"/>
<text stroke="none" fill="white" font-size="16" x="949" y="728">
700.0
</text>
<text stroke="none" fill="white" font-size="16" x="614" y="752">
ns
</text>
<path stroke="white" stroke-dasharray="1,2" d="M50 704l924 0"/>
<text stroke="none" fill="white" font-size="16" x="8" y="712">
-3.0
</text>
<path stroke="white" stroke-dasharray="1,2" d="M50 613l924 0"/>
<text stroke="none" fill="white" font-size="16" x="8" y="621">
-2.0
</text>
<path stroke="white" stroke-dasharray="1,2" d="M50 522l924 0"/>
<text stroke="none" fill="white" font-size="16" x="8" y="530">
-1.0
</text>
<path stroke="white" d="M50 431l924 0"/>
<text stroke="none" fill="white" font-size="16" x="18" y="439">
0.0
</text>
<path stroke="white" stroke-dasharray="1,2" d="M50 340l924 0"/>
<text stroke="none" fill="white" font-size="16" x="18" y="348">
1.0
</text>
<path stroke="white" stroke-dasharray="1,2" d="M50 249l924 0"/>
<text stroke="none" fill="white" font-size="16" x="18" y="257">
2.0
</text>
<path stroke="white" stroke-dasharray="1,2" d="M50 158l924 0"/>
<text stroke="none" fill="white" font-size="16" x="18" y="166">
3.0
</text>
<path stroke="white" stroke-dasharray="1,2" d="M50 67l924 0"/>
<text stroke="none" fill="white" font-size="16" x="18" y="75">
4.0
</text>
<text stroke="none" fill="white" font-size="16" x="10" y="32">
     
</text>
<path stroke="red" d="M462 23l46 0"/>
<text stroke="none" fill="white" font-size="16" x="518" y="32">
x1.vsampled_p
</text>
<path stroke="red" d="M50 431l1 0 1 -7 0 -15 1 -15 0 -4 1 1M54 414l0 -37 1 -3 0 -17 1 -3 0 -2 2 -2 1 0 1 -1 4 0M64 350l0 -1M64 350l4 0 1 -1 48 0 0 -1 1 -10 0 -21 1 -5 0 -7 1 -2 0 -1 2 -2 418 0M540 301l0 -1 26 0 1 1M567 302l0 -2 7 0M574 323l0 -23"/>
<path stroke="red" d="M574 323l1 9M575 340l0 -8M575 340l1 1 17 0M593 342l0 -1 26 0M619 342l0 -1 27 0M646 342l0 -1 26 0M672 342l0 -1 7 0M679 346l0 -5M679 346l1 0M680 348l0 -2 19 0M699 347l0 -1 7 0M706 349l0 -3M706 349l84 0M790 350l0 -1M790 350l1 0"/>
<path stroke="red" d="M791 350l0 -1 13 0M804 350l0 -1 26 0 1 1 0 -1 88 0M919 350l0 -26 1 -2 0 -8 1 -4 0 -6 1 0 0 -2 1 0 0 -2M923 301l1 -1 12 0M936 302l0 -2 38 0"/>
<path stroke="blue" d="M50 23l46 0"/>
<text stroke="none" fill="white" font-size="16" x="106" y="32">
x1.vsampled_n
</text>
<path stroke="blue" d="M50 431l1 0 1 -7 0 -15 1 -14 0 -5 1 2M54 415l0 -38 1 -3 0 -17 1 -3 0 -2 2 -2 1 0 1 -1 4 0M64 350l0 -1M64 350l4 0 1 -1 48 0M117 360l0 -11M117 360l1 13M118 387l0 -14M118 387l1 3M119 395l0 -5M119 395l1 1M120 397l0 -1M120 397l1 1"/>
<path stroke="blue" d="M121 398l419 0M540 399l0 -1 6 0M546 399l0 -22 1 -2 0 -25 1 -4 0 -6 1 -1 0 -1 1 -1 4 0 0 -1M554 337l13 0M567 338l0 -1 26 0M593 338l0 -1 7 0M600 357l0 -20M600 357l1 3M601 364l0 -4M601 362l1 -2 0 -2 1 -1 16 0M619 358l0 -1"/>
<path stroke="blue" d="M619 358l1 0 0 -1 5 0 0 -6 1 -4 0 -8 1 -1M627 339l0 -1M627 339l1 0 1 1 4 0 0 -1 13 0M646 340l0 -1M646 340l7 0M653 351l0 -12M653 351l1 1 0 -1 1 -1 4 0 0 -1M659 350l73 0 0 -4M732 347l1 0 1 1 4 0 0 -1 13 0M751 348l0 -1M751 348l1 0"/>
<path stroke="blue" d="M752 348l0 -1M752 348l7 0M759 350l0 -2M759 349l53 0M812 350l0 -1 19 0M831 350l0 -1 26 0M857 350l0 -1 26 0M883 350l0 -1 27 0M910 350l0 -1 9 0M919 387l0 -38M919 387l1 1M920 398l0 -10M920 398l1 2 1 0 0 -1 1 0 0 -1 51 0"/>
<path stroke="#FFA500" d="M462 39l46 0"/>
<text stroke="none" fill="white" font-size="16" x="518" y="48">
x1.vsampled_p-x1.vsampled_n
</text>
<path stroke="#FFA500" d="M50 431l2 0 1 -1 1 0M54 431l0 -1M54 431l63 0 0 -12 1 -23 0 -35 1 -8 0 -11 1 -4 0 -3 2 -2 418 0M540 334l0 -1 6 0M546 354l0 -21M546 354l1 3M547 381l0 -24M547 381l1 4M548 392l0 -7M548 392l1 0M549 394l0 -2M549 394l5 0M554 395l0 -1"/>
<path stroke="#FFA500" d="M554 394l13 0M567 395l0 -1 7 0M574 417l0 -23M574 417l1 9M575 434l0 -8M575 434l1 1 24 0 0 -20 1 -2 0 -4M601 410l1 3M602 415l0 -2M602 415l23 0M625 421l0 -6M625 421l1 4M626 434l0 -9M626 434l1 0 0 -1 19 0 0 -1M646 433l7 0"/>
<path stroke="#FFA500" d="M653 433l0 -12 1 -1M654 422l0 -2M654 422l18 0M672 423l0 -1M672 423l1 -1 6 0M679 427l0 -5M679 427l1 1M680 429l0 -1 18 0 1 -1M699 428l0 -1M699 428l6 0 1 -1M706 431l0 -4M706 430l26 0M732 434l0 -4M732 433l1 0 0 -1 26 0 0 -3"/>
<path stroke="#FFA500" d="M759 431l31 0M790 432l0 -1M790 432l14 0 0 -1M804 432l8 0 0 -1 107 0M919 432l0 -63 1 -3 0 -20 1 -5 0 -5 1 -1 0 -1 1 0 0 -1 13 0M936 334l0 -1 38 0"/>
<path stroke="green" d="M50 39l46 0"/>
<text stroke="none" fill="white" font-size="16" x="106" y="48">
x1.sw_sample-2
</text>
<path stroke="green" d="M50 613l1 0 1 -9 0 -21 1 -21M53 580l0 -24M53 580l1 30M54 613l0 -3M54 613l63 0M117 620l0 -172M117 449l422 0M539 614l0 -171M539 613l422 0M961 618l0 -170 1 1 12 0"/>
<path stroke="#FFC0C5" d="M462 55l46 0"/>
<text stroke="none" fill="white" font-size="16" x="518" y="64">
x1.comp_out_p+2
</text>
<path stroke="#FFC0C5" d="M50 249l1 0 1 -9 0 -22 1 -18 0 -4M53 198l1 5M54 251l0 -48M54 248l1 0M55 249l0 -1M55 249l486 0 1 2 0 -168M542 85l13 0M555 250l0 -167M555 249l13 0M568 251l0 -167M568 85l13 0 0 -7 1 132M582 250l0 -40M582 249l39 0M621 250l0 -167"/>
<path stroke="#FFC0C5" d="M621 85l13 0M634 249l0 -172M634 249l39 0M673 251l0 -2M673 251l1 -93 0 -75M674 85l13 0M687 249l0 -173M687 249l13 0 0 -165M700 85l13 0M713 90l0 -8M713 90l1 146M714 249l0 -13M714 249l13 0 1 -151 0 -14M728 85l12 0M740 249l0 -174"/>
<path stroke="#FFC0C5" d="M740 249l45 0 0 -165M785 85l8 0M793 249l0 -167M793 249l68 0 0 -165M861 85l11 0M872 249l0 -172M872 249l42 0 0 -165M914 85l11 0M925 249l0 -172M925 249l12 0 1 -16 0 -150M938 85l13 0M951 250l0 -171M951 249l23 0"/>
<path stroke="#A52A2A" d="M50 55l46 0"/>
<text stroke="none" fill="white" font-size="16" x="106" y="64">
x1.comp_out_n-2
</text>
<path stroke="#A52A2A" d="M50 613l1 0 1 -9 0 -22 1 -19M53 564l0 -3M53 564l1 6M54 614l0 -106 1 99M55 613l0 -6M55 613l539 0M594 616l0 -169M594 448l1 1 13 0M608 613l0 -173M608 613l39 0M647 619l0 -172M647 449l14 0M661 613l0 -174M661 613l92 0 0 -165"/>
<path stroke="#A52A2A" d="M753 449l13 0M766 613l0 -174M766 613l41 0 0 -165M807 449l12 0M819 613l0 -174M819 613l14 0 1 -155 0 -9 11 0 0 -9 1 158M846 613l0 -15M846 613l41 0 0 -164 11 0M898 613l0 -173M898 613l76 0"/>
</svg>
