<?xml version="1.0" standalone="yes"?>
<!DOCTYPE svg PUBLIC "-//W3C//DTD SVG 1.1//EN"
 "http://www.w3.org/Graphics/SVG/1.1/DTD/svg11.dtd">
<svg xmlns="http://www.w3.org/2000/svg" version="1.1"
  width="100%" height="100%" viewBox="0 0 1024 768"
  style="fill: none; font-family: Helvetica;
 font: Helvetica;
">

<!-- Creator: NGspice -->

<rect x="0" y="0" width="1024" height="768" fill="black" stroke="none"/>
<text stroke="none" fill="white" font-size="16" x="358" y="752">
time
</text>
<text stroke="none" fill="white" font-size="16" x="10" y="16">
tran1: run666_vin-0.31421
</text>
<path stroke="white" d="M50 704l0 -637"/>
<text stroke="none" fill="white" font-size="16" x="35" y="728">
0.0
</text>
<path stroke="white" stroke-dasharray="1,2" d="M182 704l0 -637"/>
<text stroke="none" fill="white" font-size="16" x="157" y="728">
100.0
</text>
<path stroke="white" stroke-dasharray="1,2" d="M314 704l0 -637"/>
<text stroke="none" fill="white" font-size="16" x="289" y="728">
200.0
</text>
<path stroke="white" stroke-dasharray="1,2" d="M446 704l0 -637"/>
<text stroke="none" fill="white" font-size="16" x="421" y="728">
300.0
</text>
<path stroke="white" stroke-dasharray="1,2" d="M578 704l0 -637"/>
<text stroke="none" fill="white" font-size="16" x="553" y="728">
400.0
</text>
<path stroke="white" stroke-dasharray="1,2" d="M710 704l0 -637"/>
<text stroke="none" fill="white" font-size="16" x="685" y="728">
500.0
</text>
<path stroke="white" stroke-dasharray="1,2" d="M842 704l0 -637"/>
<text stroke="none" fill="white" font-size="16" x="817" y="728">
600.0
</text>
<path stroke="white" stroke-dasharray="1,2" d="M974 704l0 -637"/>
<text stroke="none" fill="white" font-size="16" x="949" y="728">
700.0
</text>
<text stroke="none" fill="white" font-size="16" x="614" y="752">
ns
</text>
<path stroke="white" stroke-dasharray="1,2" d="M50 704l924 0"/>
<text stroke="none" fill="white" font-size="16" x="8" y="712">
-3.0
</text>
<path stroke="white" stroke-dasharray="1,2" d="M50 613l924 0"/>
<text stroke="none" fill="white" font-size="16" x="8" y="621">
-2.0
</text>
<path stroke="white" stroke-dasharray="1,2" d="M50 522l924 0"/>
<text stroke="none" fill="white" font-size="16" x="8" y="530">
-1.0
</text>
<path stroke="white" d="M50 431l924 0"/>
<text stroke="none" fill="white" font-size="16" x="18" y="439">
0.0
</text>
<path stroke="white" stroke-dasharray="1,2" d="M50 340l924 0"/>
<text stroke="none" fill="white" font-size="16" x="18" y="348">
1.0
</text>
<path stroke="white" stroke-dasharray="1,2" d="M50 249l924 0"/>
<text stroke="none" fill="white" font-size="16" x="18" y="257">
2.0
</text>
<path stroke="white" stroke-dasharray="1,2" d="M50 158l924 0"/>
<text stroke="none" fill="white" font-size="16" x="18" y="166">
3.0
</text>
<path stroke="white" stroke-dasharray="1,2" d="M50 67l924 0"/>
<text stroke="none" fill="white" font-size="16" x="18" y="75">
4.0
</text>
<text stroke="none" fill="white" font-size="16" x="10" y="32">
     
</text>
<path stroke="red" d="M462 23l46 0"/>
<text stroke="none" fill="white" font-size="16" x="518" y="32">
x1.vsampled_p
</text>
<path stroke="red" d="M50 431l1 0 1 -7 0 -15 1 -14 0 -5 1 2M54 415l0 -40 1 -4 0 -14 1 -3 0 -2 2 -2 1 0 1 -1 4 0M64 350l0 -1M64 350l4 0 1 -1 48 0M117 354l0 -5M117 354l1 8M118 372l0 -10M118 372l1 3M119 376l0 -1M119 376l1 1 1 0M121 378l0 -1M121 378l425 0"/>
<path stroke="red" d="M546 378l0 -23 1 -4 0 -22 1 -4 0 -6 2 -2 4 0 0 -1 12 0 1 1M567 318l0 -1 7 0M574 343l0 -27M574 343l1 3M575 359l0 -13M575 359l1 0 1 -1 1 0 0 -1 15 0M593 358l0 -1 26 0M619 358l0 -1M619 358l1 0 0 -1 5 0 0 -12 1 -1 0 -5 2 0 1 1"/>
<path stroke="red" d="M629 340l4 0 0 -1 13 0M646 340l0 -1M646 340l7 0M653 348l0 -9M653 348l1 2M654 352l0 -2M654 351l1 -1 4 0 0 -1M659 350l73 0 0 -4M732 347l1 0M733 348l0 -1M733 348l5 0 0 -1 13 0M751 348l0 -1M751 348l1 0 0 -1M752 348l7 0M759 350l0 -3"/>
<path stroke="red" d="M759 349l27 0M786 350l0 -1M786 350l1 0 0 -1 17 0M804 350l0 -1 26 0 1 1 0 -1 26 0M857 350l0 -1 26 0M883 350l0 -1 27 0M910 350l0 -1 8 0M918 381l0 -32M918 381l1 1 0 -2 1 -1 0 -1 54 0"/>
<path stroke="blue" d="M50 23l46 0"/>
<text stroke="none" fill="white" font-size="16" x="106" y="32">
x1.vsampled_n
</text>
<path stroke="blue" d="M50 431l1 0 1 -7 0 -15 1 -15 0 -4 1 1M54 415l0 -40 1 -4 0 -14 1 -3 0 -2 2 -2 1 0 1 -1 4 0M64 350l0 -1M64 350l4 0 1 -1 48 0 0 -1 1 -7 0 -13 1 -3 0 -2 1 -2 419 0 0 -1M539 321l1 0M540 322l0 -1 14 0 0 -1M554 321l13 0M567 322l0 -1"/>
<path stroke="blue" d="M567 321l13 0 0 -1M580 321l13 0M593 322l0 -1 7 0M600 340l0 -19M600 340l1 4 0 -2 1 0 1 -1 16 0M619 342l0 -1 27 0M646 342l0 -1 26 0M672 342l0 -1 7 0M679 346l0 -5M679 346l1 1M680 348l0 -1 1 0 0 -1 18 0M699 347l0 -1 7 0M706 350l0 -4"/>
<path stroke="blue" d="M706 349l106 0M812 350l0 -1 106 0 0 -24 1 -1 0 -4 2 0M921 321l0 -1M921 321l2 0 0 -1M923 321l13 0M936 322l0 -1 14 0 0 -1M950 321l12 0 0 -1 2 0M964 321l0 -1M964 321l10 0"/>
<path stroke="#FFA500" d="M462 39l46 0"/>
<text stroke="none" fill="white" font-size="16" x="518" y="48">
x1.vsampled_p-x1.vsampled_n
</text>
<path stroke="#FFA500" d="M50 431l67 0M117 437l0 -6M117 437l1 16M118 474l0 -21M118 474l1 7M119 485l0 -4M119 485l1 2 1 0M121 488l0 -1M121 488l425 0 0 -23 1 -4 0 -22 1 -3 0 -7 2 -2 24 0M574 453l0 -26M574 453l1 3M575 470l0 -14M575 470l2 -2 16 0"/>
<path stroke="#FFA500" d="M593 468l0 -1M593 468l7 0 0 -20 1 -4M601 446l0 -2M601 446l1 0M602 447l0 -1M602 447l23 0 0 -12 1 -1 0 -5 20 0M646 430l0 -1 7 0M653 438l0 -9M653 438l1 2M654 441l0 -1M654 441l1 -1 17 0 0 -1 1 0M673 440l0 -1M673 440l6 0"/>
<path stroke="#FFA500" d="M679 440l0 -6 1 -1M680 434l0 -1M680 434l19 0M699 435l0 -1 7 0 0 -3 1 1 25 0 0 -4M732 429l1 0M733 430l0 -1M733 430l26 0M759 432l0 -2M759 431l27 0M786 432l0 -1M786 432l26 0 0 -1 106 0M918 487l0 -56M918 487l1 2M919 491l0 -2"/>
<path stroke="#FFA500" d="M919 490l1 0 0 -1 1 0 0 -1 15 0 0 -1M936 488l38 0"/>
<path stroke="green" d="M50 39l46 0"/>
<text stroke="none" fill="white" font-size="16" x="106" y="48">
x1.sw_sample-2
</text>
<path stroke="green" d="M50 613l1 0 1 -9 0 -21 1 -21M53 581l0 -25M53 581l1 29M54 613l0 -3M54 613l63 0M117 620l0 -172M117 449l422 0M539 614l0 -171M539 613l422 0M961 618l0 -170 1 1 12 0"/>
<path stroke="#FFC0C5" d="M462 55l46 0"/>
<text stroke="none" fill="white" font-size="16" x="518" y="64">
x1.comp_out_p+2
</text>
<path stroke="#FFC0C5" d="M50 249l1 0 1 -9 0 -22 1 -18 0 -4M53 198l1 5M54 249l0 -46M54 249l514 0 0 -165M568 85l13 0 0 -8 1 154M582 249l0 -18M582 249l65 0M647 250l0 -166M647 85l14 0M661 249l0 -173M661 249l92 0 0 -165M753 85l13 0M766 250l0 -174"/>
<path stroke="#FFC0C5" d="M766 249l14 0 1 -142 0 -23M781 85l12 0M793 249l0 -170M793 249l67 0 0 -164 1 -1M861 85l0 -1M861 85l11 0M872 249l0 -174M872 249l41 0 0 -165M913 85l12 0M925 250l0 -166M925 249l49 0"/>
<path stroke="#A52A2A" d="M50 55l46 0"/>
<text stroke="none" fill="white" font-size="16" x="106" y="64">
x1.comp_out_n-2
</text>
<path stroke="#A52A2A" d="M50 613l1 0 1 -9 0 -22 1 -19M53 564l0 -3M53 564l1 6M54 613l0 -43M54 613l488 0M542 615l0 -168M542 449l13 0M555 613l0 -167M555 613l39 0 0 -166M594 449l14 0M608 614l0 -168M608 613l13 0M621 615l0 -168M621 449l13 0M634 613l0 -173"/>
<path stroke="#A52A2A" d="M634 613l39 0M673 616l0 -3M673 616l1 -114 0 -55M674 449l13 0M687 613l0 -173M687 613l13 0 0 -165M700 449l13 0 0 -7 1 150M714 613l0 -21M714 613l13 0 1 -153 0 -11 12 0M740 613l0 -172M740 613l66 0 1 -157 0 -8M807 449l12 0"/>
<path stroke="#A52A2A" d="M819 613l0 -174M819 613l14 0 1 -158 0 -7M834 449l11 0 0 -2M845 448l1 154M846 613l0 -11M846 613l41 0 0 -165M887 449l11 0M898 613l0 -166M898 613l39 0M937 614l0 -1M937 614l1 -85 0 -82M938 449l13 0M951 614l0 -167M951 613l23 0"/>
</svg>
