<?xml version="1.0" standalone="yes"?>
<!DOCTYPE svg PUBLIC "-//W3C//DTD SVG 1.1//EN"
 "http://www.w3.org/Graphics/SVG/1.1/DTD/svg11.dtd">
<svg xmlns="http://www.w3.org/2000/svg" version="1.1"
  width="100%" height="100%" viewBox="0 0 1024 768"
  style="fill: none; font-family: Helvetica;
 font: Helvetica;
">

<!-- Creator: NGspice -->

<rect x="0" y="0" width="1024" height="768" fill="black" stroke="none"/>
<text stroke="none" fill="white" font-size="16" x="358" y="752">
time
</text>
<text stroke="none" fill="white" font-size="16" x="10" y="16">
tran1: run669_vin-0.311573
</text>
<path stroke="white" d="M50 704l0 -637"/>
<text stroke="none" fill="white" font-size="16" x="35" y="728">
0.0
</text>
<path stroke="white" stroke-dasharray="1,2" d="M182 704l0 -637"/>
<text stroke="none" fill="white" font-size="16" x="157" y="728">
100.0
</text>
<path stroke="white" stroke-dasharray="1,2" d="M314 704l0 -637"/>
<text stroke="none" fill="white" font-size="16" x="289" y="728">
200.0
</text>
<path stroke="white" stroke-dasharray="1,2" d="M446 704l0 -637"/>
<text stroke="none" fill="white" font-size="16" x="421" y="728">
300.0
</text>
<path stroke="white" stroke-dasharray="1,2" d="M578 704l0 -637"/>
<text stroke="none" fill="white" font-size="16" x="553" y="728">
400.0
</text>
<path stroke="white" stroke-dasharray="1,2" d="M710 704l0 -637"/>
<text stroke="none" fill="white" font-size="16" x="685" y="728">
500.0
</text>
<path stroke="white" stroke-dasharray="1,2" d="M842 704l0 -637"/>
<text stroke="none" fill="white" font-size="16" x="817" y="728">
600.0
</text>
<path stroke="white" stroke-dasharray="1,2" d="M974 704l0 -637"/>
<text stroke="none" fill="white" font-size="16" x="949" y="728">
700.0
</text>
<text stroke="none" fill="white" font-size="16" x="614" y="752">
ns
</text>
<path stroke="white" stroke-dasharray="1,2" d="M50 704l924 0"/>
<text stroke="none" fill="white" font-size="16" x="8" y="712">
-3.0
</text>
<path stroke="white" stroke-dasharray="1,2" d="M50 613l924 0"/>
<text stroke="none" fill="white" font-size="16" x="8" y="621">
-2.0
</text>
<path stroke="white" stroke-dasharray="1,2" d="M50 522l924 0"/>
<text stroke="none" fill="white" font-size="16" x="8" y="530">
-1.0
</text>
<path stroke="white" d="M50 431l924 0"/>
<text stroke="none" fill="white" font-size="16" x="18" y="439">
0.0
</text>
<path stroke="white" stroke-dasharray="1,2" d="M50 340l924 0"/>
<text stroke="none" fill="white" font-size="16" x="18" y="348">
1.0
</text>
<path stroke="white" stroke-dasharray="1,2" d="M50 249l924 0"/>
<text stroke="none" fill="white" font-size="16" x="18" y="257">
2.0
</text>
<path stroke="white" stroke-dasharray="1,2" d="M50 158l924 0"/>
<text stroke="none" fill="white" font-size="16" x="18" y="166">
3.0
</text>
<path stroke="white" stroke-dasharray="1,2" d="M50 67l924 0"/>
<text stroke="none" fill="white" font-size="16" x="18" y="75">
4.0
</text>
<text stroke="none" fill="white" font-size="16" x="10" y="32">
     
</text>
<path stroke="red" d="M462 23l46 0"/>
<text stroke="none" fill="white" font-size="16" x="518" y="32">
x1.vsampled_p
</text>
<path stroke="red" d="M50 431l1 0 1 -7 0 -15 1 -14 0 -5 1 2M54 415l0 -39 1 -5 0 -13 1 -3 0 -2 1 -2 0 -1 2 0 1 -1 3 0 1 1 5 0 0 -1 48 0M117 354l0 -5M117 354l1 8M118 371l0 -9M118 371l1 3M119 376l0 -2M119 376l1 1 419 0M539 378l0 -1M539 378l1 0 1 -1"/>
<path stroke="red" d="M541 378l0 -1M541 378l5 0 0 -28 1 -5 0 -19 1 -4 0 -3 1 -1 0 -1 1 0 1 -1 15 0 1 1 0 -1 7 0M574 345l0 -29M574 345l1 4M575 358l0 -9M575 358l1 1 0 -1 1 0 1 -1 47 0 0 -10 1 -2 0 -6 20 0M646 340l0 -1 7 0M653 348l0 -9M653 348l1 2"/>
<path stroke="red" d="M654 351l0 -1M654 351l1 -1 4 0 0 -1 13 0M672 350l0 -1 1 0M673 350l0 -1M673 350l13 0 0 -1 12 0 1 1 0 -1M699 350l13 0 0 -1 13 0M725 350l0 -1M725 350l7 0 0 -4M732 347l19 0M751 348l0 -1M751 348l1 0 0 -1 7 0M759 350l0 -3M759 349l6 0"/>
<path stroke="red" d="M765 349l0 -1M765 349l13 0 0 -1M778 349l8 0M786 350l0 -1 18 0M804 350l0 -1 27 0M831 350l0 -1 26 0M857 350l0 -1 26 0M883 350l0 -1 27 0M910 350l0 -1 7 0M917 355l0 -6M917 355l1 6M918 382l0 -21M918 382l1 -1 0 -2 1 -1 3 0 0 -1"/>
<path stroke="red" d="M923 378l27 0 0 -1M950 378l11 0 1 -1 12 0"/>
<path stroke="blue" d="M50 23l46 0"/>
<text stroke="none" fill="white" font-size="16" x="106" y="32">
x1.vsampled_n
</text>
<path stroke="blue" d="M50 431l1 0 1 -7 0 -15 1 -15 0 -4 1 1M54 415l0 -39 1 -5 0 -13 1 -3 0 -2 1 -2 0 -1 2 0 1 -1 3 0 1 1 5 0 0 -1 48 0 0 -1 1 -7 0 -12 1 -4 0 -2 2 -2 419 0M540 322l0 -1 14 0 0 -1M554 321l13 0M567 322l0 -1 26 0M593 322l0 -1 7 0"/>
<path stroke="blue" d="M600 340l0 -19M600 340l1 4 0 -1 1 0 0 -1 2 0 0 -1 15 0M619 342l0 -1M619 342l1 0 0 -1 26 0M646 342l0 -1 26 0M672 342l0 -1 7 0M679 347l0 -6M679 347l1 1 0 -1 6 0 0 -1 12 0 1 1 0 -1M699 347l7 0M706 350l0 -3M706 350l1 -1 106 0"/>
<path stroke="blue" d="M813 350l0 -1 17 0 1 1 0 -1 86 0M917 350l0 -12 1 -2 0 -14 1 -1 17 0M936 322l0 -1 38 0"/>
<path stroke="#FFA500" d="M462 39l46 0"/>
<text stroke="none" fill="white" font-size="16" x="518" y="48">
x1.vsampled_p-x1.vsampled_n
</text>
<path stroke="#FFA500" d="M50 431l67 0M117 436l0 -5M117 436l1 16M118 474l0 -22M118 474l1 7M119 484l0 -3M119 484l1 2 2 2 418 0 0 -1M540 488l1 -1M541 488l0 -1M541 488l5 0 0 -28 1 -5 0 -19 1 -4 0 -3 1 -1 0 -1 1 0 1 -1 16 0M567 427l0 -1 7 0M574 455l0 -29"/>
<path stroke="#FFA500" d="M574 455l1 4M575 468l0 -9M575 468l1 1 0 -1 1 0 1 -1 2 0M580 468l0 -1 13 0 0 -1M593 467l7 0 0 -19 1 -4M601 445l0 -1M601 445l2 2 16 0 0 -1M619 447l6 0 0 -11 1 -1 0 -6 27 0M653 438l0 -9M653 438l1 1M654 441l0 -2M654 440l1 -1"/>
<path stroke="#FFA500" d="M655 439l24 0 0 -5 1 -1M680 434l0 -2M680 434l26 0 0 -3 19 0M725 432l0 -1 7 0 0 -3M732 429l27 0M759 432l0 -3M759 431l1 0 0 -1 18 0M778 431l0 -1 7 0M785 431l0 -1M785 431l1 0M786 432l0 -1 27 0 0 -1M813 431l104 0M917 448l0 -18"/>
<path stroke="#FFA500" d="M917 448l1 7M918 491l0 -36M918 491l1 0 0 -2 1 0 0 -1 16 0 0 -1M936 488l38 0"/>
<path stroke="green" d="M50 39l46 0"/>
<text stroke="none" fill="white" font-size="16" x="106" y="48">
x1.sw_sample-2
</text>
<path stroke="green" d="M50 613l1 0 1 -9 0 -21 1 -21M53 581l0 -25M53 581l1 29M54 613l0 -3M54 613l63 0M117 620l0 -172M117 449l422 0M539 614l0 -171M539 613l422 0M961 618l0 -170 1 1 12 0"/>
<path stroke="#FFC0C5" d="M462 55l46 0"/>
<text stroke="none" fill="white" font-size="16" x="518" y="64">
x1.comp_out_p+2
</text>
<path stroke="#FFC0C5" d="M50 249l1 0 1 -9 0 -22 1 -18 0 -4M53 198l1 5M54 250l0 -47M54 248l1 1 513 0 0 -165M568 85l13 0 0 -8 1 154M582 249l0 -18M582 249l65 0 0 -166M647 85l14 0M661 249l0 -174M661 249l92 0 0 -165M753 85l13 0M766 249l0 -171M766 249l14 0"/>
<path stroke="#FFC0C5" d="M780 249l0 -165M780 85l13 0M793 249l0 -172M793 249l41 0 0 -165M834 85l11 0M845 86l0 -3M845 86l1 149M846 249l0 -14M846 249l128 0"/>
<path stroke="#A52A2A" d="M50 55l46 0"/>
<text stroke="none" fill="white" font-size="16" x="106" y="64">
x1.comp_out_n-2
</text>
<path stroke="#A52A2A" d="M50 613l1 0 1 -9 0 -22 1 -19M53 564l0 -3M53 564l1 6M54 613l0 -43M54 612l1 1 487 0M542 615l0 -168M542 449l13 0M555 613l0 -167M555 613l39 0M594 614l0 -167M594 449l14 0M608 613l0 -173M608 613l13 0 0 -165M621 449l13 0M634 613l0 -173"/>
<path stroke="#A52A2A" d="M634 613l39 0M673 615l0 -118 1 -43 0 -7M674 449l13 0M687 613l0 -172M687 613l13 0 0 -165M700 449l13 0 0 -10 1 150M714 613l0 -24M714 613l13 0 1 -157 0 -7 12 0M740 613l0 -172M740 613l67 0 0 -164 12 0M819 613l0 -170M819 613l41 0"/>
<path stroke="#A52A2A" d="M860 613l0 -165 1 0M861 449l0 -1M861 449l11 0M872 613l0 -174M872 613l14 0 0 -158 1 -7M887 449l0 -1M887 449l11 0M898 613l0 -174M898 613l14 0 1 -158 0 -7M913 449l12 0M925 613l0 -173M925 613l12 0 1 -52 0 -113M938 449l13 0"/>
<path stroke="#A52A2A" d="M951 614l0 -167M951 613l23 0"/>
</svg>
