<?xml version="1.0" standalone="yes"?>
<!DOCTYPE svg PUBLIC "-//W3C//DTD SVG 1.1//EN"
 "http://www.w3.org/Graphics/SVG/1.1/DTD/svg11.dtd">
<svg xmlns="http://www.w3.org/2000/svg" version="1.1"
  width="100%" height="100%" viewBox="0 0 1024 768"
  style="fill: none; font-family: Helvetica;
 font: Helvetica;
">

<!-- Creator: NGspice -->

<rect x="0" y="0" width="1024" height="768" fill="black" stroke="none"/>
<text stroke="none" fill="white" font-size="16" x="358" y="752">
time
</text>
<text stroke="none" fill="white" font-size="16" x="10" y="16">
tran1: run973_vin-0.044386
</text>
<path stroke="white" d="M50 704l0 -637"/>
<text stroke="none" fill="white" font-size="16" x="35" y="728">
0.0
</text>
<path stroke="white" stroke-dasharray="1,2" d="M182 704l0 -637"/>
<text stroke="none" fill="white" font-size="16" x="157" y="728">
100.0
</text>
<path stroke="white" stroke-dasharray="1,2" d="M314 704l0 -637"/>
<text stroke="none" fill="white" font-size="16" x="289" y="728">
200.0
</text>
<path stroke="white" stroke-dasharray="1,2" d="M446 704l0 -637"/>
<text stroke="none" fill="white" font-size="16" x="421" y="728">
300.0
</text>
<path stroke="white" stroke-dasharray="1,2" d="M578 704l0 -637"/>
<text stroke="none" fill="white" font-size="16" x="553" y="728">
400.0
</text>
<path stroke="white" stroke-dasharray="1,2" d="M710 704l0 -637"/>
<text stroke="none" fill="white" font-size="16" x="685" y="728">
500.0
</text>
<path stroke="white" stroke-dasharray="1,2" d="M842 704l0 -637"/>
<text stroke="none" fill="white" font-size="16" x="817" y="728">
600.0
</text>
<path stroke="white" stroke-dasharray="1,2" d="M974 704l0 -637"/>
<text stroke="none" fill="white" font-size="16" x="949" y="728">
700.0
</text>
<text stroke="none" fill="white" font-size="16" x="614" y="752">
ns
</text>
<path stroke="white" stroke-dasharray="1,2" d="M50 704l924 0"/>
<text stroke="none" fill="white" font-size="16" x="8" y="712">
-2.5
</text>
<path stroke="white" stroke-dasharray="1,2" d="M50 655l924 0"/>
<text stroke="none" fill="white" font-size="16" x="8" y="663">
-2.0
</text>
<path stroke="white" stroke-dasharray="1,2" d="M50 606l924 0"/>
<text stroke="none" fill="white" font-size="16" x="8" y="614">
-1.5
</text>
<path stroke="white" stroke-dasharray="1,2" d="M50 557l924 0"/>
<text stroke="none" fill="white" font-size="16" x="8" y="565">
-1.0
</text>
<path stroke="white" stroke-dasharray="1,2" d="M50 508l924 0"/>
<text stroke="none" fill="white" font-size="16" x="8" y="516">
-0.5
</text>
<path stroke="white" d="M50 459l924 0"/>
<text stroke="none" fill="white" font-size="16" x="18" y="467">
0.0
</text>
<path stroke="white" stroke-dasharray="1,2" d="M50 410l924 0"/>
<text stroke="none" fill="white" font-size="16" x="18" y="418">
0.5
</text>
<path stroke="white" stroke-dasharray="1,2" d="M50 361l924 0"/>
<text stroke="none" fill="white" font-size="16" x="18" y="369">
1.0
</text>
<path stroke="white" stroke-dasharray="1,2" d="M50 312l924 0"/>
<text stroke="none" fill="white" font-size="16" x="18" y="320">
1.5
</text>
<path stroke="white" stroke-dasharray="1,2" d="M50 263l924 0"/>
<text stroke="none" fill="white" font-size="16" x="18" y="271">
2.0
</text>
<path stroke="white" stroke-dasharray="1,2" d="M50 214l924 0"/>
<text stroke="none" fill="white" font-size="16" x="18" y="222">
2.5
</text>
<path stroke="white" stroke-dasharray="1,2" d="M50 165l924 0"/>
<text stroke="none" fill="white" font-size="16" x="18" y="173">
3.0
</text>
<path stroke="white" stroke-dasharray="1,2" d="M50 116l924 0"/>
<text stroke="none" fill="white" font-size="16" x="18" y="124">
3.5
</text>
<path stroke="white" stroke-dasharray="1,2" d="M50 67l924 0"/>
<text stroke="none" fill="white" font-size="16" x="18" y="75">
4.0
</text>
<text stroke="none" fill="white" font-size="16" x="10" y="32">
     
</text>
<path stroke="red" d="M462 23l46 0"/>
<text stroke="none" fill="white" font-size="16" x="518" y="32">
x1.vsampled_p
</text>
<path stroke="red" d="M50 459l1 0 1 -7 0 -17 1 -15 0 -5 1 1M54 442l0 -42 1 -6 0 -16 1 -2 0 -3 1 -1 1 0 0 -1 59 0 1 2M118 374l0 -1M118 374l1 1 421 0M540 376l0 -1 6 0 0 -23 1 -1 0 -24 1 -8 0 -7 1 -1 0 -1 2 0 0 -1 15 0 1 1M567 311l0 -2 7 0M574 341l0 -32"/>
<path stroke="red" d="M574 341l1 8M575 355l0 -6M575 355l1 0 1 -1 1 0 0 -1 15 0M593 354l0 -1 7 0M600 370l0 -17M600 370l1 4M601 379l0 -5M601 379l1 -2 0 -1 1 0 0 -1 16 0M619 376l0 -1M619 376l1 0 0 -1 5 0 0 -5 1 -4 0 -9 1 -1 19 0M646 357l0 -1 7 0"/>
<path stroke="red" d="M653 365l0 -9M653 365l1 2M654 369l0 -2M654 368l1 0 0 -1 17 0M672 368l0 -1 27 0M699 368l0 -1 7 0M706 371l0 -4M706 371l1 -1 52 0M759 373l0 -3M759 372l1 -1 18 0M778 372l0 -1 26 0M804 372l0 -1 27 0M831 372l0 -1 86 0M917 372l0 -1"/>
<path stroke="red" d="M917 372l1 -2M918 377l0 -7M918 376l1 0 0 -1 17 0M936 376l0 -1 38 0"/>
<path stroke="blue" d="M50 23l46 0"/>
<text stroke="none" fill="white" font-size="16" x="106" y="32">
x1.vsampled_n
</text>
<path stroke="blue" d="M50 459l1 0 1 -7 0 -17 1 -15 0 -5 1 1M54 442l0 -42 1 -6 0 -16 1 -2 0 -3 1 -1 1 0 0 -1 59 0 1 -2 0 -1 1 -1 2 0 0 -1 418 0M539 367l0 -1M539 367l15 0 0 -1M554 367l26 0 0 -1M580 367l26 0 0 -1 1 0M607 367l0 -1M607 367l26 0 0 -1"/>
<path stroke="blue" d="M633 367l26 0 0 -1M659 367l20 0M679 371l0 -4M679 371l1 1M680 374l0 -2M680 373l1 -1 18 0M699 373l0 -1 26 0M725 373l0 -1 6 0 0 -2 1 -1M732 370l0 -1M732 370l53 0M785 371l0 -1M785 371l1 0 1 -1 17 0M804 371l0 -1 8 0M812 371l0 -1"/>
<path stroke="blue" d="M812 371l106 0 0 -5 1 0M919 367l0 -1M919 367l4 0 0 -1M923 367l27 0 0 -1M950 367l12 0 0 -1 12 0"/>
<path stroke="#FFA500" d="M462 39l46 0"/>
<text stroke="none" fill="white" font-size="16" x="518" y="48">
x1.vsampled_p-x1.vsampled_n
</text>
<path stroke="#FFA500" d="M50 459l67 0M117 460l0 -1M117 460l1 2M118 465l0 -3M118 465l1 1M119 467l0 -1M119 467l1 0 1 1 425 0 0 -24 1 -1 0 -24 1 -8 0 -7 1 -1 0 -1 5 0 0 -1M554 402l13 0M567 403l0 -2M567 402l7 0M574 433l0 -31M574 433l1 8M575 447l0 -6"/>
<path stroke="#FFA500" d="M575 447l1 1 0 -1 1 -1 3 0 0 -1M580 446l13 0 0 -1M593 446l7 0M600 462l0 -16M600 462l1 4M601 471l0 -5M601 471l1 -1 0 -2 17 0 0 -1M619 468l6 0 0 -5 1 -4 0 -10 1 0 0 -1 19 0M646 449l0 -1 7 0M653 458l0 -10M653 458l1 1M654 461l0 -2"/>
<path stroke="#FFA500" d="M654 460l1 0 1 -1 23 0M679 460l0 -5 1 -1 0 -2M680 453l1 1 25 0M706 458l0 -4M706 458l1 -1 24 0M731 459l0 -2M731 459l1 1 0 -1 27 0M759 462l0 -3M759 461l1 0 1 -1 17 0M778 461l0 -1 7 0 0 -1 1 0M786 460l0 -1M786 460l26 0"/>
<path stroke="#FFA500" d="M812 460l0 -1 105 0M917 460l0 -1M917 460l1 -2M918 470l0 -12M918 469l1 0 0 -1 17 0 0 -1M936 468l38 0"/>
<path stroke="green" d="M50 39l46 0"/>
<text stroke="none" fill="white" font-size="16" x="106" y="48">
x1.sw_sample-2
</text>
<path stroke="green" d="M50 655l1 0 1 -10 0 -23 1 -21M53 621l0 -27M53 621l1 31M54 655l0 -3M54 655l63 0M117 662l0 -184 1 1 421 0M539 656l0 -184M539 655l422 0M961 660l0 -182 1 0M962 479l0 -1 1 1 11 0"/>
<path stroke="#FFC0C5" d="M462 55l46 0"/>
<text stroke="none" fill="white" font-size="16" x="518" y="64">
x1.comp_out_p+2
</text>
<path stroke="#FFC0C5" d="M50 263l1 0 1 -10 0 -23 1 -20 0 -4M53 209l1 4M54 263l0 -50M54 263l514 0 0 -178M568 87l13 0 0 -8 1 133M582 264l0 -52M582 263l12 0M594 269l0 -184M594 86l1 1 13 0M608 264l0 -184M608 263l39 0M647 264l0 -179M647 87l14 0M661 264l0 -187"/>
<path stroke="#FFC0C5" d="M661 263l39 0M700 269l0 -184M700 87l13 0 0 -9 1 164M714 263l0 -21M714 263l13 0 0 -177M727 87l13 0M740 264l0 -181M740 263l13 0 1 -164 0 -13M754 87l12 0M766 263l0 -186M766 263l208 0"/>
<path stroke="#A52A2A" d="M50 55l46 0"/>
<text stroke="none" fill="white" font-size="16" x="106" y="64">
x1.comp_out_n-2
</text>
<path stroke="#A52A2A" d="M50 655l1 0 1 -10 0 -24 1 -20M53 602l0 -3M53 602l1 7M54 655l0 -46M54 655l488 0M542 657l0 -181M542 479l13 0M555 656l0 -185M555 655l66 0M621 656l0 -180M621 479l13 0M634 655l0 -187M634 655l13 0M647 656l0 -1 27 0M674 659l0 -182"/>
<path stroke="#A52A2A" d="M674 479l13 0M687 655l0 -186M687 655l93 0 0 -177M780 479l13 0M793 655l0 -184M793 655l13 0 1 -165 0 -12M807 479l12 0M819 655l0 -187M819 655l14 0 1 -170 0 -7M834 479l11 0 0 -11 1 169M846 655l0 -18M846 655l14 0 0 -177 1 1"/>
<path stroke="#A52A2A" d="M861 479l11 0M872 655l0 -187M872 655l14 0 0 -170 1 -7M887 479l0 -1M887 479l11 0M898 655l0 -187M898 655l15 0 0 -177M913 479l12 0M925 655l0 -183M925 655l13 0M938 657l0 -181M938 479l13 0M951 655l0 -186M951 655l23 0"/>
</svg>
