<?xml version="1.0" standalone="yes"?>
<!DOCTYPE svg PUBLIC "-//W3C//DTD SVG 1.1//EN"
 "http://www.w3.org/Graphics/SVG/1.1/DTD/svg11.dtd">
<svg xmlns="http://www.w3.org/2000/svg" version="1.1"
  width="100%" height="100%" viewBox="0 0 1024 768"
  style="fill: none; font-family: Helvetica;
 font: Helvetica;
">

<!-- Creator: NGspice -->

<rect x="0" y="0" width="1024" height="768" fill="black" stroke="none"/>
<text stroke="none" fill="white" font-size="16" x="358" y="752">
time
</text>
<text stroke="none" fill="white" font-size="16" x="10" y="16">
tran1: run974_vin-0.0435071
</text>
<path stroke="white" d="M50 704l0 -637"/>
<text stroke="none" fill="white" font-size="16" x="35" y="728">
0.0
</text>
<path stroke="white" stroke-dasharray="1,2" d="M182 704l0 -637"/>
<text stroke="none" fill="white" font-size="16" x="157" y="728">
100.0
</text>
<path stroke="white" stroke-dasharray="1,2" d="M314 704l0 -637"/>
<text stroke="none" fill="white" font-size="16" x="289" y="728">
200.0
</text>
<path stroke="white" stroke-dasharray="1,2" d="M446 704l0 -637"/>
<text stroke="none" fill="white" font-size="16" x="421" y="728">
300.0
</text>
<path stroke="white" stroke-dasharray="1,2" d="M578 704l0 -637"/>
<text stroke="none" fill="white" font-size="16" x="553" y="728">
400.0
</text>
<path stroke="white" stroke-dasharray="1,2" d="M710 704l0 -637"/>
<text stroke="none" fill="white" font-size="16" x="685" y="728">
500.0
</text>
<path stroke="white" stroke-dasharray="1,2" d="M842 704l0 -637"/>
<text stroke="none" fill="white" font-size="16" x="817" y="728">
600.0
</text>
<path stroke="white" stroke-dasharray="1,2" d="M974 704l0 -637"/>
<text stroke="none" fill="white" font-size="16" x="949" y="728">
700.0
</text>
<text stroke="none" fill="white" font-size="16" x="614" y="752">
ns
</text>
<path stroke="white" stroke-dasharray="1,2" d="M50 704l924 0"/>
<text stroke="none" fill="white" font-size="16" x="8" y="712">
-3.0
</text>
<path stroke="white" stroke-dasharray="1,2" d="M50 613l924 0"/>
<text stroke="none" fill="white" font-size="16" x="8" y="621">
-2.0
</text>
<path stroke="white" stroke-dasharray="1,2" d="M50 522l924 0"/>
<text stroke="none" fill="white" font-size="16" x="8" y="530">
-1.0
</text>
<path stroke="white" d="M50 431l924 0"/>
<text stroke="none" fill="white" font-size="16" x="18" y="439">
0.0
</text>
<path stroke="white" stroke-dasharray="1,2" d="M50 340l924 0"/>
<text stroke="none" fill="white" font-size="16" x="18" y="348">
1.0
</text>
<path stroke="white" stroke-dasharray="1,2" d="M50 249l924 0"/>
<text stroke="none" fill="white" font-size="16" x="18" y="257">
2.0
</text>
<path stroke="white" stroke-dasharray="1,2" d="M50 158l924 0"/>
<text stroke="none" fill="white" font-size="16" x="18" y="166">
3.0
</text>
<path stroke="white" stroke-dasharray="1,2" d="M50 67l924 0"/>
<text stroke="none" fill="white" font-size="16" x="18" y="75">
4.0
</text>
<text stroke="none" fill="white" font-size="16" x="10" y="32">
     
</text>
<path stroke="red" d="M462 23l46 0"/>
<text stroke="none" fill="white" font-size="16" x="518" y="32">
x1.vsampled_p
</text>
<path stroke="red" d="M50 431l1 0 1 -7 0 -15 1 -14 0 -5 1 1M54 415l0 -39 1 -5 0 -15 1 -2 0 -3 1 -1 2 0 1 -1 4 0M64 350l0 -1M64 350l4 0 1 -1 48 0M117 350l0 -1M117 350l1 1M118 352l0 -1M118 352l1 0M119 353l0 -1M119 353l421 0M540 354l0 -1 6 0 0 -25"/>
<path stroke="red" d="M546 328l1 -1 0 -21 1 -7 0 -5 2 -2 4 0 0 -1M554 292l13 0M567 294l0 -2 7 0M574 321l0 -29M574 321l1 8M575 334l0 -5M575 334l1 1 0 -1 1 -1 3 0 0 -1M580 333l13 0M593 334l0 -1 7 0M600 350l0 -18M600 350l1 3M601 357l0 -4M601 355l2 -2"/>
<path stroke="red" d="M603 353l16 0M619 354l0 -1 6 0 0 -11 1 -1 0 -6 20 0M646 336l0 -1 7 0M653 345l0 -10M653 345l1 2 0 -1 5 0 0 -1M659 346l27 0 0 -1M686 346l20 0M706 349l0 -3M706 349l1 0 0 -1 18 0M725 349l0 -1 26 0M751 349l0 -1 8 0M759 351l0 -3"/>
<path stroke="red" d="M759 350l1 0 0 -1 18 0M778 350l0 -1 26 0M804 350l0 -1 26 0 1 1 0 -1 86 0 1 1M918 355l0 -7M918 354l1 0 0 -1 17 0M936 354l0 -1 38 0"/>
<path stroke="blue" d="M50 23l46 0"/>
<text stroke="none" fill="white" font-size="16" x="106" y="32">
x1.vsampled_n
</text>
<path stroke="blue" d="M50 431l1 0 1 -7 0 -15 1 -15 0 -4 1 1M54 415l0 -39 1 -5 0 -15 1 -2 0 -3 1 -1 2 0 1 -1 4 0M64 350l0 -1M64 350l4 0 1 -1 48 0 1 -1 0 -1 1 -1 0 -1 421 0M540 346l0 -1 27 0M567 346l0 -1 26 0M593 346l0 -1 26 0M619 346l0 -1 27 0"/>
<path stroke="blue" d="M646 346l0 -1 26 0M672 346l0 -1 7 0M679 350l0 -5M679 350l1 1M680 353l0 -2 1 0 1 -1 16 0 1 1 0 -1 26 0M725 351l0 -1 6 0 0 -3 1 0M732 348l0 -1M732 348l19 0M751 349l0 -1 27 0M778 349l0 -1 7 0M785 349l0 -1M785 349l27 0M812 350l0 -1"/>
<path stroke="blue" d="M812 349l19 0M831 350l0 -1 26 0M857 350l0 -1 26 0M883 350l0 -1 27 0M910 350l0 -1 8 0 0 -4 18 0M936 346l0 -1 38 0"/>
<path stroke="#FFA500" d="M462 39l46 0"/>
<text stroke="none" fill="white" font-size="16" x="518" y="48">
x1.vsampled_p-x1.vsampled_n
</text>
<path stroke="#FFA500" d="M50 431l67 0M117 432l0 -1M117 432l1 2M118 436l0 -2M118 436l1 2 1 1 426 0 0 -25 1 -2 0 -21 1 -6 0 -5 1 -1 0 -1 5 0 0 -1M554 378l13 0M567 379l0 -2M567 378l7 0M574 407l0 -29M574 407l1 7M575 420l0 -6M575 420l1 0 1 -1 3 0"/>
<path stroke="#FFA500" d="M580 419l0 -1 13 0M593 419l0 -1M593 419l7 0M600 435l0 -17M600 435l1 4M601 442l0 -3M601 441l1 -1 0 -1 23 0 0 -11 1 -1 0 -6 27 0M653 431l0 -10M653 431l1 1M654 433l0 -1 1 0 0 -1 24 0 0 -4 1 -1 0 -2M680 426l26 0M706 430l0 -4"/>
<path stroke="#FFA500" d="M706 430l1 -1 24 0M731 432l0 -3M731 432l1 0 0 -1 27 0M759 433l0 -2M759 432l26 0 0 -1 1 0M786 432l0 -1M786 432l26 0 0 -1 105 0 1 1M918 441l0 -11M918 441l1 -1 0 -1 55 0"/>
<path stroke="green" d="M50 39l46 0"/>
<text stroke="none" fill="white" font-size="16" x="106" y="48">
x1.sw_sample-2
</text>
<path stroke="green" d="M50 613l1 0 1 -9 0 -21 1 -21M53 582l0 -26M53 582l1 28M54 613l0 -3M54 613l63 0M117 620l0 -172M117 449l422 0M539 614l0 -171M539 613l422 0M961 618l0 -170 1 1 12 0"/>
<path stroke="#FFC0C5" d="M462 55l46 0"/>
<text stroke="none" fill="white" font-size="16" x="518" y="64">
x1.comp_out_p+2
</text>
<path stroke="#FFC0C5" d="M50 249l1 0 1 -9 0 -22 1 -18 0 -4M53 198l1 5M54 249l0 -46M54 249l514 0 0 -165M568 85l13 0 0 -3 1 71M582 250l0 -97M582 249l12 0M594 255l0 -172M594 85l14 0M608 249l0 -172M608 249l39 0 0 -165M647 85l14 0M661 249l0 -173"/>
<path stroke="#FFC0C5" d="M661 249l39 0M700 252l0 -169M700 85l13 0 0 -8 1 150M714 249l0 -22M714 249l13 0 0 -165M727 85l13 0M740 250l0 -171M740 249l13 0 0 -139 1 -24 0 -2M754 85l12 0M766 250l0 -173M766 249l94 0 0 -164 1 -1M861 85l0 -1M861 85l11 0"/>
<path stroke="#FFC0C5" d="M872 249l0 -174M872 249l14 0 1 -149 0 -16M887 85l11 0M898 249l0 -174M898 249l15 0 0 -165M913 85l12 0M925 249l0 -168M925 249l49 0"/>
<path stroke="#A52A2A" d="M50 55l46 0"/>
<text stroke="none" fill="white" font-size="16" x="106" y="64">
x1.comp_out_n-2
</text>
<path stroke="#A52A2A" d="M50 613l1 0 1 -9 0 -22 1 -19M53 564l0 -3M53 564l1 6M54 613l0 -43M54 613l488 0M542 615l0 -168M542 449l13 0M555 614l0 -172M555 613l66 0 0 -165M621 449l13 0M634 613l0 -173M634 613l40 0 0 -165M674 449l13 0M687 613l0 -171"/>
<path stroke="#A52A2A" d="M687 613l93 0 0 -165M780 449l13 0M793 613l0 -167M793 613l14 0 0 -165M807 449l12 0M819 613l0 -172M819 613l15 0 0 -164 11 0 0 -2M845 449l1 153M846 613l0 -11M846 613l92 0M938 615l0 -168M938 449l13 0M951 613l0 -169M951 613l23 0"/>
</svg>
