<?xml version="1.0" standalone="yes"?>
<!DOCTYPE svg PUBLIC "-//W3C//DTD SVG 1.1//EN"
 "http://www.w3.org/Graphics/SVG/1.1/DTD/svg11.dtd">
<svg xmlns="http://www.w3.org/2000/svg" version="1.1"
  width="100%" height="100%" viewBox="0 0 1024 768"
  style="fill: none; font-family: Helvetica;
 font: Helvetica;
">

<!-- Creator: NGspice -->

<rect x="0" y="0" width="1024" height="768" fill="black" stroke="none"/>
<text stroke="none" fill="white" font-size="16" x="358" y="752">
time
</text>
<text stroke="none" fill="white" font-size="16" x="10" y="16">
tran1: run112_vin0.793013
</text>
<path stroke="white" d="M50 704l0 -637"/>
<text stroke="none" fill="white" font-size="16" x="35" y="728">
0.0
</text>
<path stroke="white" stroke-dasharray="1,2" d="M182 704l0 -637"/>
<text stroke="none" fill="white" font-size="16" x="157" y="728">
100.0
</text>
<path stroke="white" stroke-dasharray="1,2" d="M314 704l0 -637"/>
<text stroke="none" fill="white" font-size="16" x="289" y="728">
200.0
</text>
<path stroke="white" stroke-dasharray="1,2" d="M446 704l0 -637"/>
<text stroke="none" fill="white" font-size="16" x="421" y="728">
300.0
</text>
<path stroke="white" stroke-dasharray="1,2" d="M578 704l0 -637"/>
<text stroke="none" fill="white" font-size="16" x="553" y="728">
400.0
</text>
<path stroke="white" stroke-dasharray="1,2" d="M710 704l0 -637"/>
<text stroke="none" fill="white" font-size="16" x="685" y="728">
500.0
</text>
<path stroke="white" stroke-dasharray="1,2" d="M842 704l0 -637"/>
<text stroke="none" fill="white" font-size="16" x="817" y="728">
600.0
</text>
<path stroke="white" stroke-dasharray="1,2" d="M974 704l0 -637"/>
<text stroke="none" fill="white" font-size="16" x="949" y="728">
700.0
</text>
<text stroke="none" fill="white" font-size="16" x="614" y="752">
ns
</text>
<path stroke="white" stroke-dasharray="1,2" d="M50 704l924 0"/>
<text stroke="none" fill="white" font-size="16" x="8" y="712">
-3.0
</text>
<path stroke="white" stroke-dasharray="1,2" d="M50 613l924 0"/>
<text stroke="none" fill="white" font-size="16" x="8" y="621">
-2.0
</text>
<path stroke="white" stroke-dasharray="1,2" d="M50 522l924 0"/>
<text stroke="none" fill="white" font-size="16" x="8" y="530">
-1.0
</text>
<path stroke="white" d="M50 431l924 0"/>
<text stroke="none" fill="white" font-size="16" x="18" y="439">
0.0
</text>
<path stroke="white" stroke-dasharray="1,2" d="M50 340l924 0"/>
<text stroke="none" fill="white" font-size="16" x="18" y="348">
1.0
</text>
<path stroke="white" stroke-dasharray="1,2" d="M50 249l924 0"/>
<text stroke="none" fill="white" font-size="16" x="18" y="257">
2.0
</text>
<path stroke="white" stroke-dasharray="1,2" d="M50 158l924 0"/>
<text stroke="none" fill="white" font-size="16" x="18" y="166">
3.0
</text>
<path stroke="white" stroke-dasharray="1,2" d="M50 67l924 0"/>
<text stroke="none" fill="white" font-size="16" x="18" y="75">
4.0
</text>
<text stroke="none" fill="white" font-size="16" x="10" y="32">
     
</text>
<path stroke="red" d="M462 23l46 0"/>
<text stroke="none" fill="white" font-size="16" x="518" y="32">
x1.vsampled_p
</text>
<path stroke="red" d="M50 431l1 0 1 -7 0 -16 1 -14 0 -5 1 2M54 414l0 -38 1 -5 0 -13 1 -3 0 -3 1 -1 0 -1 2 0 1 -1 3 0 1 1 4 0 1 -1 48 0 0 -1 1 -12 0 -34 1 -6 0 -10 1 -3 0 -3 1 -1 0 -1 1 -1 418 0M540 278l0 -1 27 0M567 279l0 -2 7 0M574 300l0 -23"/>
<path stroke="red" d="M574 300l1 6M575 315l0 -9M575 315l1 3 17 0M593 319l0 -1 7 0M600 332l0 -14M600 332l1 4M601 340l0 -4M601 339l5 0 0 -1 13 0M619 339l0 -1M619 339l14 0 0 -1 13 0M646 339l0 -1M646 339l7 0M653 348l0 -9M653 348l1 1 132 0M786 350l0 -1"/>
<path stroke="red" d="M786 350l1 -1 17 0M804 350l0 -1 26 0 1 1 0 -1 87 0M918 350l0 -45 1 -4 0 -16 1 -2 0 -3 1 -1 0 -1 1 0 1 -1 13 0M936 279l0 -2 38 0"/>
<path stroke="blue" d="M50 23l46 0"/>
<text stroke="none" fill="white" font-size="16" x="106" y="32">
x1.vsampled_n
</text>
<path stroke="blue" d="M50 431l1 0 1 -7 0 -15 1 -14 0 -5 1 2M54 414l0 -38 1 -5 0 -13 1 -3 0 -3 1 -1 0 -1 2 0 1 -1 3 0 1 1 3 0 1 -1 49 0M117 370l0 -21M117 370l1 17M118 408l0 -21M118 408l1 3M119 417l0 -6M119 417l1 1M120 419l0 -1M120 419l1 1M121 421l0 -1"/>
<path stroke="blue" d="M121 421l419 0M540 422l0 -1 6 0M546 422l0 -30 1 -4 0 -20 1 -5 1 -2 1 -1 17 0M567 361l0 -1 58 0 0 -15 1 -1 0 -3 1 0M627 342l0 -1M627 342l19 0M646 343l0 -1 26 0M672 343l0 -1 7 0M679 351l0 -9M679 351l1 0 0 -4 18 0 1 1 0 -1"/>
<path stroke="blue" d="M699 347l7 0M706 352l0 -5M706 352l1 -1 0 -1 25 0 0 -4M732 347l1 0M733 348l0 -1M733 348l5 0 0 -1 1 0M739 348l0 -1M739 348l20 0M759 351l0 -3M759 349l53 0M812 350l0 -1 19 0M831 350l0 -1 26 0M857 350l0 -1 26 0M883 350l0 -1"/>
<path stroke="blue" d="M883 350l1 -1 26 0M910 350l0 -1 8 0M918 431l0 -82M918 431l1 1 0 -5 1 -2 0 -2 1 -1 2 0 0 -1 13 0M936 422l0 -1 38 0"/>
<path stroke="#FFA500" d="M462 39l46 0"/>
<text stroke="none" fill="white" font-size="16" x="518" y="48">
x1.vsampled_p-x1.vsampled_n
</text>
<path stroke="#FFA500" d="M50 431l2 0 0 -1 2 0M54 431l0 -1M54 431l63 0 0 -23 1 -28 0 -55 1 -9 0 -16 1 -5 0 -3 1 -2 0 -2 1 -1 418 0M540 288l0 -1 6 0M546 316l0 -29M546 316l1 4M547 341l0 -21M547 341l1 4 1 2M549 348l0 -1M549 348l18 0M567 349l0 -1"/>
<path stroke="#FFA500" d="M567 348l7 0M574 371l0 -23M574 371l1 6M575 386l0 -9M575 386l1 3 17 0M593 390l0 -1 7 0M600 403l0 -14M600 403l1 4M601 410l0 -3M601 410l1 0 1 -1 1 1 2 0 0 -1 13 0M619 410l0 -1 1 0M620 410l0 -1M620 410l5 0M625 425l0 -15"/>
<path stroke="#FFA500" d="M625 425l1 1M626 429l0 -3M626 428l2 0 0 -1 5 0M633 428l0 -1 20 0M653 436l0 -9M653 436l1 2 1 0 0 -1 1 0M656 438l0 -1M656 438l16 0 0 -1 1 0M673 438l0 -1M673 438l6 0 0 -9 1 0M680 432l0 -3M680 432l6 0M686 433l0 -1 20 0M706 433l0 -5"/>
<path stroke="#FFA500" d="M706 428l1 1M707 430l0 -1M707 430l25 0M732 434l0 -4M732 433l1 0 0 -1 26 0 0 -3M759 431l27 0M786 432l0 -1M786 432l1 0 0 -1 4 0M791 432l0 -1M791 432l1 0 0 -1 12 0M804 432l0 -1M804 432l1 0 0 -1 7 0M812 432l0 -2M812 431l106 0"/>
<path stroke="#FFA500" d="M918 432l0 -127 1 -4 0 -12 1 -1 0 -1 3 0 0 -1M923 287l13 0M936 288l0 -1 14 0 0 -1M950 287l24 0"/>
<path stroke="green" d="M50 39l46 0"/>
<text stroke="none" fill="white" font-size="16" x="106" y="48">
x1.sw_sample-2
</text>
<path stroke="green" d="M50 613l1 0 1 -9 0 -21 1 -21M53 579l0 -23M53 579l1 31M54 613l0 -3M54 613l63 0M117 620l0 -172M117 449l422 0M539 614l0 -172M539 613l422 0M961 618l0 -170 1 1 12 0"/>
<path stroke="#FFC0C5" d="M462 55l46 0"/>
<text stroke="none" fill="white" font-size="16" x="518" y="64">
x1.comp_out_p+2
</text>
<path stroke="#FFC0C5" d="M50 249l1 0 1 -9 0 -22 1 -18 0 -4M53 198l1 5M54 249l0 -46M54 249l488 0 0 -165M542 85l13 0M555 249l0 -171M555 249l13 0M568 255l0 -172M568 85l13 0 0 -8 1 162M582 250l0 -11M582 249l12 0M594 251l0 -167M594 85l14 0M608 249l0 -172"/>
<path stroke="#FFC0C5" d="M608 249l13 0 0 -166M621 85l13 0M634 249l0 -172M634 249l13 0M647 252l0 -168M647 85l14 0M661 250l0 -171M661 249l66 0 0 -149 1 -15 0 -1M728 85l12 0M740 249l0 -172M740 249l40 0M780 251l0 -148 1 -18 0 -1M781 85l12 0M793 249l0 -168"/>
<path stroke="#FFC0C5" d="M793 249l67 0M860 250l0 -166 1 1 11 0M872 249l0 -172M872 249l14 0 0 -157 1 -8M887 85l0 -1M887 85l11 0M898 249l0 -173M898 249l15 0 0 -165M913 85l12 0M925 250l0 -173M925 249l12 0 1 -53 0 -112M938 85l13 0M951 249l0 -172"/>
<path stroke="#FFC0C5" d="M951 249l23 0"/>
<path stroke="#A52A2A" d="M50 55l46 0"/>
<text stroke="none" fill="white" font-size="16" x="106" y="64">
x1.comp_out_n-2
</text>
<path stroke="#A52A2A" d="M50 613l1 0 1 -9 0 -22 1 -19M53 564l0 -3M53 564l1 6M54 613l0 -43M54 612l1 1 539 0M594 614l0 -1 79 0M673 619l0 -6M673 619l1 -138 0 -34M674 449l13 0M687 613l0 -171M687 613l13 0 0 -165M700 449l13 0 0 -8 1 155M714 613l0 -17"/>
<path stroke="#A52A2A" d="M714 613l39 0 0 -165M753 449l13 0M766 613l0 -173M766 613l40 0 1 -157 0 -8M807 449l12 0M819 613l0 -174M819 613l15 0 0 -164 11 0M845 451l0 -4M845 451l1 152M846 613l0 -10M846 613l128 0"/>
</svg>
