<?xml version="1.0" standalone="yes"?>
<!DOCTYPE svg PUBLIC "-//W3C//DTD SVG 1.1//EN"
 "http://www.w3.org/Graphics/SVG/1.1/DTD/svg11.dtd">
<svg xmlns="http://www.w3.org/2000/svg" version="1.1"
  width="100%" height="100%" viewBox="0 0 1024 768"
  style="fill: none; font-family: Helvetica;
 font: Helvetica;
">

<!-- Creator: NGspice -->

<rect x="0" y="0" width="1024" height="768" fill="black" stroke="none"/>
<text stroke="none" fill="white" font-size="16" x="358" y="752">
time
</text>
<text stroke="none" fill="white" font-size="16" x="10" y="16">
tran1: run113_vin-0.736698
</text>
<path stroke="white" d="M50 704l0 -637"/>
<text stroke="none" fill="white" font-size="16" x="35" y="728">
0.0
</text>
<path stroke="white" stroke-dasharray="1,2" d="M182 704l0 -637"/>
<text stroke="none" fill="white" font-size="16" x="157" y="728">
100.0
</text>
<path stroke="white" stroke-dasharray="1,2" d="M314 704l0 -637"/>
<text stroke="none" fill="white" font-size="16" x="289" y="728">
200.0
</text>
<path stroke="white" stroke-dasharray="1,2" d="M446 704l0 -637"/>
<text stroke="none" fill="white" font-size="16" x="421" y="728">
300.0
</text>
<path stroke="white" stroke-dasharray="1,2" d="M578 704l0 -637"/>
<text stroke="none" fill="white" font-size="16" x="553" y="728">
400.0
</text>
<path stroke="white" stroke-dasharray="1,2" d="M710 704l0 -637"/>
<text stroke="none" fill="white" font-size="16" x="685" y="728">
500.0
</text>
<path stroke="white" stroke-dasharray="1,2" d="M842 704l0 -637"/>
<text stroke="none" fill="white" font-size="16" x="817" y="728">
600.0
</text>
<path stroke="white" stroke-dasharray="1,2" d="M974 704l0 -637"/>
<text stroke="none" fill="white" font-size="16" x="949" y="728">
700.0
</text>
<text stroke="none" fill="white" font-size="16" x="614" y="752">
ns
</text>
<path stroke="white" stroke-dasharray="1,2" d="M50 704l924 0"/>
<text stroke="none" fill="white" font-size="16" x="8" y="712">
-3.0
</text>
<path stroke="white" stroke-dasharray="1,2" d="M50 613l924 0"/>
<text stroke="none" fill="white" font-size="16" x="8" y="621">
-2.0
</text>
<path stroke="white" stroke-dasharray="1,2" d="M50 522l924 0"/>
<text stroke="none" fill="white" font-size="16" x="8" y="530">
-1.0
</text>
<path stroke="white" d="M50 431l924 0"/>
<text stroke="none" fill="white" font-size="16" x="18" y="439">
0.0
</text>
<path stroke="white" stroke-dasharray="1,2" d="M50 340l924 0"/>
<text stroke="none" fill="white" font-size="16" x="18" y="348">
1.0
</text>
<path stroke="white" stroke-dasharray="1,2" d="M50 249l924 0"/>
<text stroke="none" fill="white" font-size="16" x="18" y="257">
2.0
</text>
<path stroke="white" stroke-dasharray="1,2" d="M50 158l924 0"/>
<text stroke="none" fill="white" font-size="16" x="18" y="166">
3.0
</text>
<path stroke="white" stroke-dasharray="1,2" d="M50 67l924 0"/>
<text stroke="none" fill="white" font-size="16" x="18" y="75">
4.0
</text>
<text stroke="none" fill="white" font-size="16" x="10" y="32">
     
</text>
<path stroke="red" d="M462 23l46 0"/>
<text stroke="none" fill="white" font-size="16" x="518" y="32">
x1.vsampled_p
</text>
<path stroke="red" d="M50 431l1 0 1 -7 0 -15 1 -14 0 -5 1 2M54 414l0 -38 1 -4 0 -14 1 -3 0 -2 1 -2 0 -1 2 0 1 -1 3 0 1 1 4 0 1 -1 48 0M117 368l0 -19M117 368l1 16M118 405l0 -21M118 405l1 2M119 413l0 -6M119 413l1 1M120 415l0 -1M120 415l1 1 419 0"/>
<path stroke="red" d="M540 417l0 -1 6 0 0 -19 1 -3 0 -29 1 -6 1 -2 0 -1 1 -1 75 0 0 -13 1 -1 0 -5 1 0 1 1 18 0M646 338l0 -1 7 0M653 348l0 -11M653 348l1 2 0 -1 1 -1 0 -1 17 0M672 348l0 -1 26 0 1 1 0 -1 7 0M706 351l0 -4M706 351l1 0 0 -1 25 0 0 -4"/>
<path stroke="red" d="M732 347l1 0M733 348l0 -1M733 348l5 0 0 -1 1 0M739 348l0 -1M739 348l13 0 0 -1M752 348l7 0M759 351l0 -3M759 349l53 0 1 1 0 -1 18 0M831 350l0 -1 26 0M857 350l0 -1 26 0M883 350l0 -1 27 0M910 350l0 -1 7 0M917 350l0 -1M917 350l1 0"/>
<path stroke="red" d="M918 422l0 -72M918 422l1 0 0 -3 1 -1 0 -1 1 0 1 -1 52 0"/>
<path stroke="blue" d="M50 23l46 0"/>
<text stroke="none" fill="white" font-size="16" x="106" y="32">
x1.vsampled_n
</text>
<path stroke="blue" d="M50 431l1 0 1 -7 0 -16 1 -14 0 -5 1 2M54 414l0 -38 1 -4 0 -14 1 -3 0 -2 1 -2 0 -1 2 0 1 -1 3 0 1 1 5 0 0 -1 48 0 0 -1 1 -11 0 -34 1 -6 0 -9 1 -2 0 -2 1 -1 1 0 0 -1 418 0M540 283l0 -1 26 0 1 1M567 284l0 -2 6 0 1 1M574 308l0 -25"/>
<path stroke="blue" d="M574 308l1 8M575 322l0 -6M575 322l1 1 17 0M593 324l0 -1 7 0M600 340l0 -17M600 340l1 4M601 345l0 -1 5 0 0 -1 1 0M607 344l0 -1M607 344l26 0 0 -1M633 344l26 0 0 -1M659 344l20 0M679 348l0 -4M679 348l1 1M680 350l0 -1 106 0M786 350l0 -1"/>
<path stroke="blue" d="M786 349l18 0M804 350l0 -1 26 0 1 1 0 -1 86 0M917 350l0 -1 1 -2 0 -47 1 -3 0 -9 1 -2 0 -2 1 -1 2 0 0 -1 13 0M936 284l0 -2 38 0"/>
<path stroke="#FFA500" d="M462 39l46 0"/>
<text stroke="none" fill="white" font-size="16" x="518" y="48">
x1.vsampled_p-x1.vsampled_n
</text>
<path stroke="#FFA500" d="M50 431l2 0M52 432l0 -1M52 432l2 0 0 -1 63 0M117 451l0 -20M117 451l1 27M118 533l0 -55M118 533l1 8M119 555l0 -14M119 555l1 4M120 562l0 -3M120 562l2 2M122 565l0 -1M122 565l418 0 0 -1M540 565l6 0 0 -19 1 -3 0 -29 1 -6 1 -3"/>
<path stroke="#FFA500" d="M549 505l0 -1 18 0 0 -2M567 504l6 0 1 -1 0 -25 1 -8 0 -6 1 -1 17 0 0 -1M593 463l7 0 0 -17 1 -4 0 -1M601 442l24 0 0 -12 1 -1 0 -6 1 0M627 424l0 -1M627 424l19 0M646 425l0 -1 7 0M653 435l0 -11M653 435l1 2 0 -1 1 -1 24 0"/>
<path stroke="#FFA500" d="M679 435l0 -5 1 -1M680 430l0 -2M680 430l6 0 0 -1M686 430l13 0 0 -1M699 430l7 0M706 434l0 -5M706 434l1 -1 0 -1 25 0 0 -4M732 429l1 0M733 430l0 -1M733 430l26 0M759 433l0 -3M759 431l27 0 0 -1 18 0M804 431l0 -1 8 0M812 431l0 -1"/>
<path stroke="#FFA500" d="M812 431l1 1 0 -1 104 0M917 432l0 -2M917 432l1 2M918 553l0 -119M918 553l1 3M919 563l0 -7M919 563l1 1 1 0M921 565l0 -1M921 565l15 0 0 -1M936 565l38 0"/>
<path stroke="green" d="M50 39l46 0"/>
<text stroke="none" fill="white" font-size="16" x="106" y="48">
x1.sw_sample-2
</text>
<path stroke="green" d="M50 613l1 0 1 -9 0 -21 1 -21M53 579l0 -23M53 579l1 31M54 613l0 -3M54 613l63 0M117 620l0 -172M117 449l422 0M539 614l0 -171M539 613l422 0M961 618l0 -170 1 1 12 0"/>
<path stroke="#FFC0C5" d="M462 55l46 0"/>
<text stroke="none" fill="white" font-size="16" x="518" y="64">
x1.comp_out_p+2
</text>
<path stroke="#FFC0C5" d="M50 249l1 0 1 -9 0 -22 1 -18 0 -4M53 198l1 5M54 249l0 -46M54 243l1 5M55 249l0 -1M55 249l592 0M647 251l0 -168M647 85l14 0M661 249l0 -167M661 249l39 0 0 -165M700 85l13 0 0 -7 1 144M714 249l0 -27M714 249l39 0 0 -165M753 85l13 0"/>
<path stroke="#FFC0C5" d="M766 250l0 -174M766 249l41 0 0 -165M807 85l12 0M819 250l0 -174M819 249l15 0 0 -165M834 85l11 0 0 -7 1 147M846 249l0 -24M846 249l128 0"/>
<path stroke="#A52A2A" d="M50 55l46 0"/>
<text stroke="none" fill="white" font-size="16" x="106" y="64">
x1.comp_out_n-2
</text>
<path stroke="#A52A2A" d="M50 613l1 0 1 -9 0 -22 1 -19M53 564l0 -3M53 564l1 6M54 613l0 -43M54 613l488 0M542 615l0 -168M542 449l13 0M555 613l0 -173M555 613l13 0M568 617l0 -170M568 449l13 0 0 -1 1 30M582 614l0 -136M582 613l12 0 0 -165M594 449l14 0"/>
<path stroke="#A52A2A" d="M608 613l0 -172M608 613l13 0M621 614l0 -167M621 449l13 0M634 613l0 -173M634 613l39 0M673 614l0 -1M673 614l1 -75 0 -91M674 449l13 0M687 613l0 -172M687 613l40 0 0 -151 1 -13 0 -1M728 449l12 0M740 613l0 -173M740 613l40 0"/>
<path stroke="#A52A2A" d="M780 613l0 -141 1 -22 0 -2M781 449l12 0M793 613l0 -166M793 613l67 0 0 -164 12 0M872 613l0 -173M872 613l14 0 0 -158 1 -7M887 449l0 -1M887 449l11 0M898 613l0 -173M898 613l15 0 0 -165M913 449l12 0M925 613l0 -172M925 613l12 0"/>
<path stroke="#A52A2A" d="M937 613l1 -52 0 -113M938 449l13 0M951 613l0 -171M951 613l23 0"/>
</svg>
