<?xml version="1.0" standalone="yes"?>
<!DOCTYPE svg PUBLIC "-//W3C//DTD SVG 1.1//EN"
 "http://www.w3.org/Graphics/SVG/1.1/DTD/svg11.dtd">
<svg xmlns="http://www.w3.org/2000/svg" version="1.1"
  width="100%" height="100%" viewBox="0 0 1024 768"
  style="fill: none; font-family: Helvetica;
 font: Helvetica;
">

<!-- Creator: NGspice -->

<rect x="0" y="0" width="1024" height="768" fill="black" stroke="none"/>
<text stroke="none" fill="white" font-size="16" x="358" y="752">
time
</text>
<text stroke="none" fill="white" font-size="16" x="10" y="16">
tran1: run282_vin-0.651709
</text>
<path stroke="white" d="M50 704l0 -637"/>
<text stroke="none" fill="white" font-size="16" x="35" y="728">
0.0
</text>
<path stroke="white" stroke-dasharray="1,2" d="M182 704l0 -637"/>
<text stroke="none" fill="white" font-size="16" x="157" y="728">
100.0
</text>
<path stroke="white" stroke-dasharray="1,2" d="M314 704l0 -637"/>
<text stroke="none" fill="white" font-size="16" x="289" y="728">
200.0
</text>
<path stroke="white" stroke-dasharray="1,2" d="M446 704l0 -637"/>
<text stroke="none" fill="white" font-size="16" x="421" y="728">
300.0
</text>
<path stroke="white" stroke-dasharray="1,2" d="M578 704l0 -637"/>
<text stroke="none" fill="white" font-size="16" x="553" y="728">
400.0
</text>
<path stroke="white" stroke-dasharray="1,2" d="M710 704l0 -637"/>
<text stroke="none" fill="white" font-size="16" x="685" y="728">
500.0
</text>
<path stroke="white" stroke-dasharray="1,2" d="M842 704l0 -637"/>
<text stroke="none" fill="white" font-size="16" x="817" y="728">
600.0
</text>
<path stroke="white" stroke-dasharray="1,2" d="M974 704l0 -637"/>
<text stroke="none" fill="white" font-size="16" x="949" y="728">
700.0
</text>
<text stroke="none" fill="white" font-size="16" x="614" y="752">
ns
</text>
<path stroke="white" stroke-dasharray="1,2" d="M50 704l924 0"/>
<text stroke="none" fill="white" font-size="16" x="8" y="712">
-3.0
</text>
<path stroke="white" stroke-dasharray="1,2" d="M50 613l924 0"/>
<text stroke="none" fill="white" font-size="16" x="8" y="621">
-2.0
</text>
<path stroke="white" stroke-dasharray="1,2" d="M50 522l924 0"/>
<text stroke="none" fill="white" font-size="16" x="8" y="530">
-1.0
</text>
<path stroke="white" d="M50 431l924 0"/>
<text stroke="none" fill="white" font-size="16" x="18" y="439">
0.0
</text>
<path stroke="white" stroke-dasharray="1,2" d="M50 340l924 0"/>
<text stroke="none" fill="white" font-size="16" x="18" y="348">
1.0
</text>
<path stroke="white" stroke-dasharray="1,2" d="M50 249l924 0"/>
<text stroke="none" fill="white" font-size="16" x="18" y="257">
2.0
</text>
<path stroke="white" stroke-dasharray="1,2" d="M50 158l924 0"/>
<text stroke="none" fill="white" font-size="16" x="18" y="166">
3.0
</text>
<path stroke="white" stroke-dasharray="1,2" d="M50 67l924 0"/>
<text stroke="none" fill="white" font-size="16" x="18" y="75">
4.0
</text>
<text stroke="none" fill="white" font-size="16" x="10" y="32">
     
</text>
<path stroke="red" d="M462 23l46 0"/>
<text stroke="none" fill="white" font-size="16" x="518" y="32">
x1.vsampled_p
</text>
<path stroke="red" d="M50 431l1 0 1 -7 0 -15 1 -14 0 -5 1 2M54 414l0 -38 1 -4 0 -14 1 -3 0 -2 1 -2 0 -1 2 0 1 -1 3 0 1 1 4 0 1 -1 48 0M117 364l0 -15M117 364l1 15M118 398l0 -19M118 398l1 3M119 405l0 -4M119 405l1 2 1 1 418 0 1 1 1 0 0 -1M541 409l5 0"/>
<path stroke="red" d="M546 409l0 -25 1 -2 0 -26 1 -4 0 -2 1 -2 1 0 0 -1 17 0M567 348l0 -1 26 0M593 348l0 -1 26 0M619 348l0 -1 27 0M646 348l0 -1 26 0M672 348l0 -1 27 0M699 348l0 -1 7 0M706 351l0 -4M706 351l1 0 0 -1 25 0 0 -4M732 347l1 0M733 348l0 -1"/>
<path stroke="red" d="M733 348l5 0 0 -1 13 0M751 348l0 -1M751 348l1 0 0 -1M752 348l7 0M759 351l0 -3M759 349l32 0M791 350l0 -1 13 0M804 350l0 -1 26 0 1 1 0 -1 26 0M857 350l0 -1 26 0M883 350l0 -1 27 0M910 350l0 -1 9 0M919 350l0 -1 1 0M920 411l0 -63"/>
<path stroke="red" d="M920 411l1 1 0 -1 1 0 0 -2 5 0 0 -1 9 0M936 409l0 -1M936 409l14 0 0 -1 24 0"/>
<path stroke="blue" d="M50 23l46 0"/>
<text stroke="none" fill="white" font-size="16" x="106" y="32">
x1.vsampled_n
</text>
<path stroke="blue" d="M50 431l1 0 1 -7 0 -15 1 -15 0 -4 1 1M54 414l0 -38 1 -4 0 -14 1 -3 0 -2 1 -2 0 -1 2 0 1 -1 3 0 1 1 5 0 0 -1 48 0 0 -1 1 -11 0 -30 1 -4 0 -8 2 -4 0 -1 419 0M540 291l0 -1 27 0M567 291l0 -1 6 0 1 4M574 313l0 -19M574 313l1 7"/>
<path stroke="blue" d="M575 329l0 -9M575 329l1 2 17 0M593 332l0 -1 7 0M600 345l0 -14M600 345l1 3M601 352l0 -4M601 352l1 0 0 -1 17 0M619 352l0 -1M619 352l1 0 0 -1 5 0 1 -5 0 -10 1 -1 0 -1 6 0 0 -1 13 0M646 334l0 -1M646 334l7 0M653 342l0 -9M653 342l1 1"/>
<path stroke="blue" d="M654 344l0 -1M654 344l5 0 0 -1M659 344l20 0M679 348l0 -4M679 348l1 1M680 350l0 -1 132 0M812 350l0 -1 107 0 1 1 0 -40 1 -5 0 -9 1 0 0 -4 1 0 0 -2 13 0M936 292l0 -2 14 0 0 -1M950 290l24 0"/>
<path stroke="#FFA500" d="M462 39l46 0"/>
<text stroke="none" fill="white" font-size="16" x="518" y="48">
x1.vsampled_p-x1.vsampled_n
</text>
<path stroke="#FFA500" d="M50 431l2 0M52 432l0 -1M52 432l2 0 0 -1 63 0M117 447l0 -16M117 447l1 26M118 522l0 -49M118 522l1 7M119 541l0 -12M119 541l1 4 1 2M121 549l0 -2M121 549l2 0 1 1 415 0 0 -1 1 0M540 550l0 -1 6 0 0 -24 1 -2 0 -26 1 -4 0 -2"/>
<path stroke="#FFA500" d="M548 491l1 -2 1 -1 17 0M567 489l0 -2M567 488l6 0 1 -4 0 -18 1 -8 0 -9 1 -2 17 0M593 448l0 -1 7 0M600 448l0 -15 1 -3 0 -4 1 0M602 427l0 -1M602 427l23 0M625 428l0 -1M625 428l1 4M626 442l0 -10M626 442l1 1M627 444l0 -1M627 444l1 1"/>
<path stroke="#FFA500" d="M628 445l25 0 0 -9 1 -1 0 -1 1 0M655 435l0 -1M655 435l3 0 0 -1 1 0M659 435l0 -1 1 1 12 0 0 -1 1 0M673 435l0 -1M673 435l1 -1M674 435l0 -1M674 435l1 0 1 -1 3 0M679 435l0 -5 1 -1 0 -1M680 429l19 0M699 430l0 -1 7 0M706 434l0 -5"/>
<path stroke="#FFA500" d="M706 434l1 -1 0 -1 25 0 0 -4M732 429l1 0M733 430l0 -1M733 430l26 0M759 433l0 -3M759 431l32 0M791 432l0 -1M791 432l21 0 0 -1 107 0M919 432l0 -1 1 -1M920 532l0 -102M920 532l1 6M921 546l0 -8M921 546l1 0M922 548l0 -2M922 548l1 0"/>
<path stroke="#FFA500" d="M923 550l0 -2M923 549l2 0M925 550l0 -1M925 550l11 0 0 -2M936 549l14 0M950 550l0 -1M950 550l24 0"/>
<path stroke="green" d="M50 39l46 0"/>
<text stroke="none" fill="white" font-size="16" x="106" y="48">
x1.sw_sample-2
</text>
<path stroke="green" d="M50 613l1 0 1 -9 0 -21 1 -21M53 579l0 -23M53 579l1 31M54 613l0 -3M54 613l63 0M117 620l0 -172M117 449l422 0M539 614l0 -171M539 613l422 0M961 618l0 -170 1 1 12 0"/>
<path stroke="#FFC0C5" d="M462 55l46 0"/>
<text stroke="none" fill="white" font-size="16" x="518" y="64">
x1.comp_out_p+2
</text>
<path stroke="#FFC0C5" d="M50 249l1 0 1 -9 0 -22 1 -18 0 -4M53 198l1 5M54 250l0 -49M54 234l1 14M55 249l0 -1M55 249l566 0M621 251l0 -167M621 85l13 0M634 249l0 -172M634 249l66 0 0 -165M700 85l13 0 0 -6 1 119M714 250l0 -52M714 249l39 0 0 -165M753 85l13 0"/>
<path stroke="#FFC0C5" d="M766 249l0 -174M766 249l19 0 0 -165M785 85l8 0M793 249l0 -172M793 249l69 0 0 -165M862 85l10 0M872 249l0 -172M872 249l42 0 1 -157 0 -8M915 85l10 0M925 250l0 -167M925 249l49 0"/>
<path stroke="#A52A2A" d="M50 55l46 0"/>
<text stroke="none" fill="white" font-size="16" x="106" y="64">
x1.comp_out_n-2
</text>
<path stroke="#A52A2A" d="M50 613l1 0 1 -9 0 -22 1 -19M53 564l0 -3M53 564l1 6M54 614l0 -44M54 612l1 1 486 0 1 1 0 -166M542 449l13 0M555 613l0 -171M555 613l13 0M568 614l0 -167M568 449l13 0 0 -9 1 163M582 613l0 -10M582 613l12 0M594 614l0 -166M594 449l14 0"/>
<path stroke="#A52A2A" d="M608 613l0 -171M608 613l39 0 0 -165M647 449l14 0M661 613l0 -173M661 613l12 0M673 614l0 -1M673 614l1 -75 0 -91M674 449l13 0M687 613l0 -172M687 613l40 0 0 -153 1 -11 12 0M740 613l0 -172M740 613l66 0 1 -157 0 -8M807 449l12 0"/>
<path stroke="#A52A2A" d="M819 613l0 -173M819 613l14 0 1 -158 0 -7M834 449l11 0 0 -8 1 154M846 613l0 -18M846 613l42 0 0 -165M888 449l10 0M898 613l0 -172M898 613l39 0M937 614l0 -1M937 614l1 -67 0 -99M938 449l13 0M951 613l0 -173M951 613l23 0"/>
</svg>
