<?xml version="1.0" standalone="yes"?>
<!DOCTYPE svg PUBLIC "-//W3C//DTD SVG 1.1//EN"
 "http://www.w3.org/Graphics/SVG/1.1/DTD/svg11.dtd">
<svg xmlns="http://www.w3.org/2000/svg" version="1.1"
  width="100%" height="100%" viewBox="0 0 1024 768"
  style="fill: none; font-family: Helvetica;
 font: Helvetica;
">

<!-- Creator: NGspice -->

<rect x="0" y="0" width="1024" height="768" fill="black" stroke="none"/>
<text stroke="none" fill="white" font-size="16" x="358" y="752">
time
</text>
<text stroke="none" fill="white" font-size="16" x="10" y="16">
tran1: run1970_vin0.831882
</text>
<path stroke="white" d="M50 704l0 -637"/>
<text stroke="none" fill="white" font-size="16" x="35" y="728">
0.0
</text>
<path stroke="white" stroke-dasharray="1,2" d="M182 704l0 -637"/>
<text stroke="none" fill="white" font-size="16" x="157" y="728">
100.0
</text>
<path stroke="white" stroke-dasharray="1,2" d="M314 704l0 -637"/>
<text stroke="none" fill="white" font-size="16" x="289" y="728">
200.0
</text>
<path stroke="white" stroke-dasharray="1,2" d="M446 704l0 -637"/>
<text stroke="none" fill="white" font-size="16" x="421" y="728">
300.0
</text>
<path stroke="white" stroke-dasharray="1,2" d="M578 704l0 -637"/>
<text stroke="none" fill="white" font-size="16" x="553" y="728">
400.0
</text>
<path stroke="white" stroke-dasharray="1,2" d="M710 704l0 -637"/>
<text stroke="none" fill="white" font-size="16" x="685" y="728">
500.0
</text>
<path stroke="white" stroke-dasharray="1,2" d="M842 704l0 -637"/>
<text stroke="none" fill="white" font-size="16" x="817" y="728">
600.0
</text>
<path stroke="white" stroke-dasharray="1,2" d="M974 704l0 -637"/>
<text stroke="none" fill="white" font-size="16" x="949" y="728">
700.0
</text>
<text stroke="none" fill="white" font-size="16" x="614" y="752">
ns
</text>
<path stroke="white" stroke-dasharray="1,2" d="M50 704l924 0"/>
<text stroke="none" fill="white" font-size="16" x="8" y="712">
-3.0
</text>
<path stroke="white" stroke-dasharray="1,2" d="M50 613l924 0"/>
<text stroke="none" fill="white" font-size="16" x="8" y="621">
-2.0
</text>
<path stroke="white" stroke-dasharray="1,2" d="M50 522l924 0"/>
<text stroke="none" fill="white" font-size="16" x="8" y="530">
-1.0
</text>
<path stroke="white" d="M50 431l924 0"/>
<text stroke="none" fill="white" font-size="16" x="18" y="439">
0.0
</text>
<path stroke="white" stroke-dasharray="1,2" d="M50 340l924 0"/>
<text stroke="none" fill="white" font-size="16" x="18" y="348">
1.0
</text>
<path stroke="white" stroke-dasharray="1,2" d="M50 249l924 0"/>
<text stroke="none" fill="white" font-size="16" x="18" y="257">
2.0
</text>
<path stroke="white" stroke-dasharray="1,2" d="M50 158l924 0"/>
<text stroke="none" fill="white" font-size="16" x="18" y="166">
3.0
</text>
<path stroke="white" stroke-dasharray="1,2" d="M50 67l924 0"/>
<text stroke="none" fill="white" font-size="16" x="18" y="75">
4.0
</text>
<text stroke="none" fill="white" font-size="16" x="10" y="32">
     
</text>
<path stroke="red" d="M462 23l46 0"/>
<text stroke="none" fill="white" font-size="16" x="518" y="32">
x1.vsampled_p
</text>
<path stroke="red" d="M50 431l1 0 1 -7 0 -16 1 -14 0 -5 1 2M54 414l0 -39 1 -4 0 -13 1 -3 0 -3 1 -1 0 -1 2 0 1 -1 3 0 1 1 4 0 1 -1 48 0 0 -1 1 -12 0 -36 1 -6 0 -11 1 -3 0 -4 2 -2 1 0 1 -1 415 0M539 274l0 -1M539 274l1 0M540 275l0 -1 14 0 0 -1M554 274l13 0"/>
<path stroke="red" d="M567 275l0 -1 7 0M574 298l0 -24M574 298l1 6M575 313l0 -9M575 313l1 2 4 0 0 -1 13 0M593 316l0 -2M593 315l7 0M600 327l0 -12M600 327l1 3M601 336l0 -6M601 336l1 -1 17 0M619 336l0 -1 34 0M653 343l0 -8M653 343l1 2M654 346l0 -1"/>
<path stroke="red" d="M654 345l18 0M672 346l0 -1 7 0M679 349l0 -4M679 349l1 1M680 351l0 -1 19 0M699 351l0 -1 26 0M725 351l0 -1 6 0 0 -2 28 0M759 350l0 -2M759 350l1 0 0 -1 18 0M778 350l0 -1 26 0M804 350l0 -1 27 0M831 350l0 -1 87 0M918 350l0 -42"/>
<path stroke="red" d="M918 308l1 -3 0 -22 1 -2 0 -4 1 -1 0 -1 1 -1 1 0 0 -1M923 274l13 0M936 275l0 -1 14 0 0 -1M950 274l11 0 0 -1 13 0"/>
<path stroke="blue" d="M50 23l46 0"/>
<text stroke="none" fill="white" font-size="16" x="106" y="32">
x1.vsampled_n
</text>
<path stroke="blue" d="M50 431l1 0 1 -7 0 -15 1 -14 0 -4 1 1M54 414l0 -39 1 -4 0 -13 1 -3 0 -3 1 -1 0 -1 2 0 1 -1 3 0 1 1 3 0 0 -1 50 0M117 372l0 -23M117 372l1 18M118 411l0 -21M118 411l1 3M119 420l0 -6M119 420l1 1M120 423l0 -2M120 423l1 1 1 0"/>
<path stroke="blue" d="M122 425l0 -1M122 425l424 0 0 -24 1 -3 0 -21 1 -7 0 -4 2 -2 4 0 0 -1M554 364l26 0 0 -1M580 364l26 0 0 -1 1 1 18 0 0 -17 1 -1 0 -1 2 0M628 346l0 -1M628 346l5 0 0 -1M633 346l26 0 0 -1M659 346l27 0 0 -1M686 346l20 0M706 350l0 -4"/>
<path stroke="blue" d="M706 349l1 -1 18 0M725 349l0 -1 26 0M751 349l0 -1M751 349l1 -1 26 0M778 349l0 -1 7 0M785 350l0 -2M785 350l1 0 0 -1 26 0M812 350l0 -1M812 350l1 0 0 -1 18 0M831 350l0 -1 26 0M857 350l0 -1 26 0M883 350l0 -1M883 350l1 -1 26 0"/>
<path stroke="blue" d="M910 350l0 -1 8 0M918 438l0 -91M918 438l1 2 0 -8 1 -1 0 -3 1 -1 0 -1 1 0 0 -1 52 0"/>
<path stroke="#FFA500" d="M462 39l46 0"/>
<text stroke="none" fill="white" font-size="16" x="518" y="48">
x1.vsampled_p-x1.vsampled_n
</text>
<path stroke="#FFA500" d="M50 431l2 0 0 -1 2 0M54 431l0 -1M54 431l63 0 0 -25 1 -29 0 -57 1 -10 0 -16 1 -5 0 -6 1 -2 1 -1 418 0M540 281l0 -1 6 0M546 304l0 -24M546 304l1 3M547 328l0 -21M547 328l1 7M548 339l0 -4M548 339l2 2 17 0M567 342l0 -1 7 0"/>
<path stroke="#FFA500" d="M574 365l0 -24M574 365l1 7M575 380l0 -8M575 380l1 2 17 0M593 383l0 -1 7 0M600 394l0 -12M600 394l1 3M601 403l0 -6M601 403l1 0 0 -1 17 0M619 403l0 -1 1 0M620 403l0 -1 5 0M625 419l0 -17M625 419l1 1M626 421l0 -1M626 421l2 0"/>
<path stroke="#FFA500" d="M628 421l0 -1 25 0M653 428l0 -8M653 428l1 2M654 431l0 -1M654 431l1 0 0 -1 4 0M659 431l0 -1M659 431l1 -1 12 0M672 431l0 -1M672 431l1 0 0 -1 6 0M679 435l0 -5M679 435l1 0M680 437l0 -2M680 436l18 0 1 -1M699 436l0 -1M699 436l6 0"/>
<path stroke="#FFA500" d="M705 436l1 -1 0 -4M706 433l25 0 0 -2 1 -1M732 431l0 -1M732 431l27 0M759 433l0 -2M759 433l1 -1 25 0 0 -2 1 1 5 0M791 432l0 -1 13 0M804 432l0 -1M804 432l1 -1 7 0 0 -1 1 0M813 431l0 -1M813 431l105 0M918 434l0 -132 1 -6"/>
<path stroke="#FFA500" d="M919 296l0 -14 1 -1 0 -1 3 0 0 -1M923 280l13 0M936 281l0 -1 14 0 0 -1M950 280l24 0"/>
<path stroke="green" d="M50 39l46 0"/>
<text stroke="none" fill="white" font-size="16" x="106" y="48">
x1.sw_sample-2
</text>
<path stroke="green" d="M50 613l1 0 1 -9 0 -21 1 -21M53 579l0 -23M53 579l1 31M54 613l0 -3M54 613l63 0M117 620l0 -172M117 449l422 0M539 614l0 -171M539 613l422 0M961 618l0 -170 1 1 12 0"/>
<path stroke="#FFC0C5" d="M462 55l46 0"/>
<text stroke="none" fill="white" font-size="16" x="518" y="64">
x1.comp_out_p+2
</text>
<path stroke="#FFC0C5" d="M50 249l1 0 1 -9 0 -22 1 -18 0 -4M53 198l1 5M54 249l0 -46M54 249l488 0 0 -165M542 85l13 0M555 249l0 -171M555 249l13 0 0 -165M568 85l13 0 0 -3 1 71M582 250l0 -97M582 249l12 0M594 250l0 -167M594 85l14 0M608 249l0 -172"/>
<path stroke="#FFC0C5" d="M608 249l13 0M621 251l0 -168M621 85l13 0M634 250l0 -167M634 249l13 0 0 -165M647 85l14 0M661 249l0 -172M661 249l13 0 0 -166M674 85l13 0M687 249l0 -172M687 249l66 0 1 -134 0 -31M754 85l12 0M766 250l0 -173M766 249l94 0"/>
<path stroke="#FFC0C5" d="M860 249l0 -165M860 85l12 0M872 249l0 -174M872 249l14 0 0 -150 1 -15M887 85l0 -1M887 85l11 0M898 249l0 -174M898 249l15 0 0 -165M913 85l12 0M925 250l0 -172M925 249l12 0 1 -39 0 -126M938 85l13 0M951 249l0 -172M951 249l23 0"/>
<path stroke="#A52A2A" d="M50 55l46 0"/>
<text stroke="none" fill="white" font-size="16" x="106" y="64">
x1.comp_out_n-2
</text>
<path stroke="#A52A2A" d="M50 613l1 0 1 -9 0 -22 1 -19M53 564l0 -3M53 564l1 6M54 614l0 -44M54 611l1 2 645 0M700 618l0 -171M700 449l13 0 0 -8 1 158M714 613l0 -14M714 613l13 0 0 -165M727 449l13 0M740 613l0 -172M740 613l40 0 0 -165M780 449l13 0"/>
<path stroke="#A52A2A" d="M793 613l0 -167M793 613l14 0 0 -165M807 449l12 0M819 613l0 -174M819 613l15 0 0 -165M834 449l11 0 0 -2M845 448l1 154M846 613l0 -11M846 613l128 0"/>
</svg>
