<?xml version="1.0" standalone="yes"?>
<!DOCTYPE svg PUBLIC "-//W3C//DTD SVG 1.1//EN"
 "http://www.w3.org/Graphics/SVG/1.1/DTD/svg11.dtd">
<svg xmlns="http://www.w3.org/2000/svg" version="1.1"
  width="100%" height="100%" viewBox="0 0 1024 768"
  style="fill: none; font-family: Helvetica;
 font: Helvetica;
">

<!-- Creator: NGspice -->

<rect x="0" y="0" width="1024" height="768" fill="black" stroke="none"/>
<text stroke="none" fill="white" font-size="16" x="358" y="752">
time
</text>
<text stroke="none" fill="white" font-size="16" x="10" y="16">
tran1: run125_vin-0.241489
</text>
<path stroke="white" d="M50 704l0 -637"/>
<text stroke="none" fill="white" font-size="16" x="35" y="728">
0.0
</text>
<path stroke="white" stroke-dasharray="1,2" d="M182 704l0 -637"/>
<text stroke="none" fill="white" font-size="16" x="157" y="728">
100.0
</text>
<path stroke="white" stroke-dasharray="1,2" d="M314 704l0 -637"/>
<text stroke="none" fill="white" font-size="16" x="289" y="728">
200.0
</text>
<path stroke="white" stroke-dasharray="1,2" d="M446 704l0 -637"/>
<text stroke="none" fill="white" font-size="16" x="421" y="728">
300.0
</text>
<path stroke="white" stroke-dasharray="1,2" d="M578 704l0 -637"/>
<text stroke="none" fill="white" font-size="16" x="553" y="728">
400.0
</text>
<path stroke="white" stroke-dasharray="1,2" d="M710 704l0 -637"/>
<text stroke="none" fill="white" font-size="16" x="685" y="728">
500.0
</text>
<path stroke="white" stroke-dasharray="1,2" d="M842 704l0 -637"/>
<text stroke="none" fill="white" font-size="16" x="817" y="728">
600.0
</text>
<path stroke="white" stroke-dasharray="1,2" d="M974 704l0 -637"/>
<text stroke="none" fill="white" font-size="16" x="949" y="728">
700.0
</text>
<text stroke="none" fill="white" font-size="16" x="614" y="752">
ns
</text>
<path stroke="white" stroke-dasharray="1,2" d="M50 704l924 0"/>
<text stroke="none" fill="white" font-size="16" x="8" y="712">
-3.0
</text>
<path stroke="white" stroke-dasharray="1,2" d="M50 613l924 0"/>
<text stroke="none" fill="white" font-size="16" x="8" y="621">
-2.0
</text>
<path stroke="white" stroke-dasharray="1,2" d="M50 522l924 0"/>
<text stroke="none" fill="white" font-size="16" x="8" y="530">
-1.0
</text>
<path stroke="white" d="M50 431l924 0"/>
<text stroke="none" fill="white" font-size="16" x="18" y="439">
0.0
</text>
<path stroke="white" stroke-dasharray="1,2" d="M50 340l924 0"/>
<text stroke="none" fill="white" font-size="16" x="18" y="348">
1.0
</text>
<path stroke="white" stroke-dasharray="1,2" d="M50 249l924 0"/>
<text stroke="none" fill="white" font-size="16" x="18" y="257">
2.0
</text>
<path stroke="white" stroke-dasharray="1,2" d="M50 158l924 0"/>
<text stroke="none" fill="white" font-size="16" x="18" y="166">
3.0
</text>
<path stroke="white" stroke-dasharray="1,2" d="M50 67l924 0"/>
<text stroke="none" fill="white" font-size="16" x="18" y="75">
4.0
</text>
<text stroke="none" fill="white" font-size="16" x="10" y="32">
     
</text>
<path stroke="red" d="M462 23l46 0"/>
<text stroke="none" fill="white" font-size="16" x="518" y="32">
x1.vsampled_p
</text>
<path stroke="red" d="M50 431l1 0 1 -7 0 -15 1 -14 0 -5 1 2M54 415l0 -39 1 -5 0 -14 1 -3 0 -2 1 -2 2 0 1 -1 4 0M64 350l0 -1M64 350l4 0 1 -1 48 0M117 352l0 -3M117 352l1 7M118 366l0 -7M118 366l1 3 1 1M120 371l0 -1M120 371l426 0 0 -21 1 -4 0 -26"/>
<path stroke="red" d="M547 320l1 -5 0 -3 1 -1 1 0 0 -1 4 0 0 -1M554 310l13 0M567 311l0 -1 7 0M574 337l0 -27M574 337l1 4M575 352l0 -11M575 352l1 1 0 -1 1 0 0 -1 49 0 0 -17 1 -1 6 0 0 -1M633 333l13 0M646 334l0 -1 7 0M653 342l0 -9M653 342l1 2M654 345l0 -1"/>
<path stroke="red" d="M654 344l1 0 0 -1 17 0M672 344l0 -1 7 0M679 349l0 -6M679 349l1 0M680 351l0 -3 19 0M699 349l0 -1 26 0M725 349l0 -1 26 0M751 349l0 -1 27 0M778 349l0 -1 7 0M785 349l0 -1M785 349l1 0M786 350l0 -1 26 0M812 350l0 -1 19 0M831 350l0 -1"/>
<path stroke="red" d="M831 349l26 0M857 350l0 -1 26 0M883 350l0 -1 27 0M910 350l0 -1 7 0M917 350l0 -2M917 350l1 5M918 375l0 -20M918 375l1 -1 0 -2 1 0 0 -1 54 0"/>
<path stroke="blue" d="M50 23l46 0"/>
<text stroke="none" fill="white" font-size="16" x="106" y="32">
x1.vsampled_n
</text>
<path stroke="blue" d="M50 431l1 0 1 -7 0 -15 1 -15 0 -4 1 1M54 415l0 -39 1 -5 0 -14 1 -3 0 -2 1 -2 2 0 1 -1 4 0M64 350l0 -1M64 350l4 0 1 -1 48 0 1 -7 0 -9 1 -3 1 -2 1 -1 419 0M540 328l0 -1 26 0 1 1 0 -1 26 0M593 328l0 -1 7 0M600 344l0 -17M600 344l1 2"/>
<path stroke="blue" d="M601 351l0 -5M601 350l1 -1 0 -1 104 0M706 351l0 -3M706 351l1 0 0 -1 18 0M725 351l0 -1 6 0 0 -3 1 0M732 348l0 -1M732 348l27 0M759 350l0 -2M759 350l1 0 0 -1 18 0M778 350l0 -1 26 0M804 350l0 -1 26 0 1 1 0 -1 86 0M917 350l0 -4"/>
<path stroke="blue" d="M917 346l1 -3 0 -14 1 -1 0 -1 17 0M936 328l0 -1 38 0"/>
<path stroke="#FFA500" d="M462 39l46 0"/>
<text stroke="none" fill="white" font-size="16" x="518" y="48">
x1.vsampled_p-x1.vsampled_n
</text>
<path stroke="#FFA500" d="M50 431l67 0M117 435l0 -4M117 435l1 13M118 465l0 -17M118 465l1 5 1 3M120 474l0 -1M120 474l1 1 419 0 0 -1M540 475l6 0 0 -21 1 -4 0 -27 1 -4 0 -3 2 -2 4 0 0 -1M554 414l13 0 0 -1M567 414l7 0M574 440l0 -26M574 440l1 4M575 456l0 -12"/>
<path stroke="#FFA500" d="M575 456l1 0 2 -2 2 0M580 455l0 -1 13 0M593 455l0 -1 7 0M600 455l0 -17 1 -3 0 -4M601 432l2 2 23 0 0 -16 1 -1 0 -1 19 0M646 417l0 -1 7 0M653 426l0 -10M653 426l1 2 0 -1 1 0 1 -1 16 0M672 427l0 -1 7 0M679 432l0 -6M679 432l1 1"/>
<path stroke="#FFA500" d="M680 434l0 -2 1 0 1 -1 16 0 1 1 0 -1 7 0M706 432l0 -4 1 0M707 429l0 -1M707 429l24 0M731 432l0 -3M731 432l1 0 0 -1 27 0 0 -2 1 1 25 0 1 1 5 0 0 -1M791 431l13 0 0 -1 1 0M805 431l0 -1M805 431l112 0M917 435l0 -6M917 435l1 8"/>
<path stroke="#FFA500" d="M918 477l0 -34M918 477l1 0 0 -1 1 0 0 -1 16 0 0 -1M936 475l38 0"/>
<path stroke="green" d="M50 39l46 0"/>
<text stroke="none" fill="white" font-size="16" x="106" y="48">
x1.sw_sample-2
</text>
<path stroke="green" d="M50 613l1 0 1 -9 0 -21 1 -21M53 581l0 -25M53 581l1 29M54 613l0 -3M54 613l63 0M117 620l0 -172M117 449l422 0M539 614l0 -171M539 613l422 0M961 618l0 -170 1 1 12 0"/>
<path stroke="#FFC0C5" d="M462 55l46 0"/>
<text stroke="none" fill="white" font-size="16" x="518" y="64">
x1.comp_out_p+2
</text>
<path stroke="#FFC0C5" d="M50 249l1 0 1 -9 0 -22 1 -18 0 -4M53 198l1 5M54 249l0 -46M54 249l514 0M568 250l0 -167M568 85l13 0 0 -8 1 154M582 249l0 -18M582 249l65 0 0 -165M647 85l14 0M661 250l0 -168M661 249l12 0M673 251l0 -2M673 251l1 -78 0 -89"/>
<path stroke="#FFC0C5" d="M674 85l13 0M687 250l0 -174M687 249l40 0 0 -165M727 85l13 0M740 250l0 -170M740 249l40 0 0 -165M780 85l13 0M793 249l0 -167M793 249l14 0 0 -165M807 85l12 0M819 249l0 -174M819 249l15 0 0 -165M834 85l11 0 0 -3 1 152M846 249l0 -15"/>
<path stroke="#FFC0C5" d="M846 249l128 0"/>
<path stroke="#A52A2A" d="M50 55l46 0"/>
<text stroke="none" fill="white" font-size="16" x="106" y="64">
x1.comp_out_n-2
</text>
<path stroke="#A52A2A" d="M50 613l1 0 1 -9 0 -22 1 -19M53 564l0 -3M53 564l1 6M54 613l0 -43M54 613l487 0 1 1 0 -167M542 449l13 0M555 613l0 -170M555 613l39 0 0 -165M594 449l14 0M608 613l0 -172M608 613l13 0 0 -165M621 449l13 0M634 614l0 -173M634 614l1 -1"/>
<path stroke="#A52A2A" d="M635 613l39 0M674 614l0 -1 26 0 0 -142 1 -21 0 -2M701 449l12 0 0 -8 1 159M714 613l0 -13M714 613l39 0 0 -1 1 -150 0 -14M754 449l12 0M766 614l0 -174M766 613l94 0 0 -165M860 449l12 0M872 613l0 -174M872 613l14 0 1 -151 0 -14"/>
<path stroke="#A52A2A" d="M887 449l11 0M898 613l0 -174M898 613l14 0 1 -158 0 -7M913 449l12 0M925 613l0 -172M925 613l12 0M937 614l0 -1M937 614l1 -91 0 -76M938 449l13 0M951 614l0 -167M951 613l23 0"/>
</svg>
