<?xml version="1.0" standalone="yes"?>
<!DOCTYPE svg PUBLIC "-//W3C//DTD SVG 1.1//EN"
 "http://www.w3.org/Graphics/SVG/1.1/DTD/svg11.dtd">
<svg xmlns="http://www.w3.org/2000/svg" version="1.1"
  width="100%" height="100%" viewBox="0 0 1024 768"
  style="fill: none; font-family: Helvetica;
 font: Helvetica;
">

<!-- Creator: NGspice -->

<rect x="0" y="0" width="1024" height="768" fill="black" stroke="none"/>
<text stroke="none" fill="white" font-size="16" x="358" y="752">
time
</text>
<text stroke="none" fill="white" font-size="16" x="10" y="16">
tran1: run124_vin0.882999
</text>
<path stroke="white" d="M50 704l0 -637"/>
<text stroke="none" fill="white" font-size="16" x="35" y="728">
0.0
</text>
<path stroke="white" stroke-dasharray="1,2" d="M182 704l0 -637"/>
<text stroke="none" fill="white" font-size="16" x="157" y="728">
100.0
</text>
<path stroke="white" stroke-dasharray="1,2" d="M314 704l0 -637"/>
<text stroke="none" fill="white" font-size="16" x="289" y="728">
200.0
</text>
<path stroke="white" stroke-dasharray="1,2" d="M446 704l0 -637"/>
<text stroke="none" fill="white" font-size="16" x="421" y="728">
300.0
</text>
<path stroke="white" stroke-dasharray="1,2" d="M578 704l0 -637"/>
<text stroke="none" fill="white" font-size="16" x="553" y="728">
400.0
</text>
<path stroke="white" stroke-dasharray="1,2" d="M710 704l0 -637"/>
<text stroke="none" fill="white" font-size="16" x="685" y="728">
500.0
</text>
<path stroke="white" stroke-dasharray="1,2" d="M842 704l0 -637"/>
<text stroke="none" fill="white" font-size="16" x="817" y="728">
600.0
</text>
<path stroke="white" stroke-dasharray="1,2" d="M974 704l0 -637"/>
<text stroke="none" fill="white" font-size="16" x="949" y="728">
700.0
</text>
<text stroke="none" fill="white" font-size="16" x="614" y="752">
ns
</text>
<path stroke="white" stroke-dasharray="1,2" d="M50 704l924 0"/>
<text stroke="none" fill="white" font-size="16" x="8" y="712">
-2.5
</text>
<path stroke="white" stroke-dasharray="1,2" d="M50 655l924 0"/>
<text stroke="none" fill="white" font-size="16" x="8" y="663">
-2.0
</text>
<path stroke="white" stroke-dasharray="1,2" d="M50 606l924 0"/>
<text stroke="none" fill="white" font-size="16" x="8" y="614">
-1.5
</text>
<path stroke="white" stroke-dasharray="1,2" d="M50 557l924 0"/>
<text stroke="none" fill="white" font-size="16" x="8" y="565">
-1.0
</text>
<path stroke="white" stroke-dasharray="1,2" d="M50 508l924 0"/>
<text stroke="none" fill="white" font-size="16" x="8" y="516">
-0.5
</text>
<path stroke="white" d="M50 459l924 0"/>
<text stroke="none" fill="white" font-size="16" x="18" y="467">
0.0
</text>
<path stroke="white" stroke-dasharray="1,2" d="M50 410l924 0"/>
<text stroke="none" fill="white" font-size="16" x="18" y="418">
0.5
</text>
<path stroke="white" stroke-dasharray="1,2" d="M50 361l924 0"/>
<text stroke="none" fill="white" font-size="16" x="18" y="369">
1.0
</text>
<path stroke="white" stroke-dasharray="1,2" d="M50 312l924 0"/>
<text stroke="none" fill="white" font-size="16" x="18" y="320">
1.5
</text>
<path stroke="white" stroke-dasharray="1,2" d="M50 263l924 0"/>
<text stroke="none" fill="white" font-size="16" x="18" y="271">
2.0
</text>
<path stroke="white" stroke-dasharray="1,2" d="M50 214l924 0"/>
<text stroke="none" fill="white" font-size="16" x="18" y="222">
2.5
</text>
<path stroke="white" stroke-dasharray="1,2" d="M50 165l924 0"/>
<text stroke="none" fill="white" font-size="16" x="18" y="173">
3.0
</text>
<path stroke="white" stroke-dasharray="1,2" d="M50 116l924 0"/>
<text stroke="none" fill="white" font-size="16" x="18" y="124">
3.5
</text>
<path stroke="white" stroke-dasharray="1,2" d="M50 67l924 0"/>
<text stroke="none" fill="white" font-size="16" x="18" y="75">
4.0
</text>
<text stroke="none" fill="white" font-size="16" x="10" y="32">
     
</text>
<path stroke="red" d="M462 23l46 0"/>
<text stroke="none" fill="white" font-size="16" x="518" y="32">
x1.vsampled_p
</text>
<path stroke="red" d="M50 459l1 0 1 -7 0 -17 1 -16 0 -5 1 2M54 441l0 -42 1 -4 0 -15 1 -3 0 -3 1 -1 0 -1 1 -1 59 0 0 -2 1 -13 0 -40 1 -8 0 -16 1 -3 0 -2 3 -3 416 0M539 285l0 -1M539 285l1 0M540 286l0 -2M540 285l14 0 0 -1 12 0 1 1M567 286l0 -1 7 0"/>
<path stroke="red" d="M574 310l0 -26M574 310l1 8M575 327l0 -9M575 327l1 2 4 0 0 -1 1 0M581 329l0 -1 5 0 1 1 6 0M593 330l0 -2M593 329l7 0M600 341l0 -13M600 341l1 2M601 352l0 -9M601 352l1 -1 4 0 0 -1 1 0M607 351l0 -1M607 351l26 0 0 -1M633 351l20 0"/>
<path stroke="red" d="M653 359l0 -8M653 359l1 2M654 362l0 -1M654 362l5 0 0 -1M659 362l20 0M679 366l0 -4M679 366l1 1M680 368l0 -1 26 0M706 370l0 -3M706 370l53 0 1 1M760 372l0 -1 18 0M778 372l0 -1 26 0M804 372l0 -1 27 0M831 372l0 -1 87 0M918 372l0 -69"/>
<path stroke="red" d="M918 303l1 -3 0 -10 1 -2 0 -1 1 -1 0 -1 2 0 0 -1 13 0M936 286l0 -2M936 285l14 0 0 -1 24 0"/>
<path stroke="blue" d="M50 23l46 0"/>
<text stroke="none" fill="white" font-size="16" x="106" y="32">
x1.vsampled_n
</text>
<path stroke="blue" d="M50 459l1 0 1 -7 0 -17 1 -15 0 -5 1 2M54 441l0 -42 1 -4 0 -15 1 -3 0 -3 1 -1 0 -1 1 -1 59 0M117 399l0 -28M117 399l1 19M118 442l0 -24M118 442l1 4M119 453l0 -7M119 453l1 2M120 456l0 -1M120 456l1 0 1 1 418 0M540 458l0 -1M540 458l1 -1"/>
<path stroke="blue" d="M541 457l5 0 0 -29 1 -4 0 -20 1 -7 0 -3 1 -2 1 0 1 -1 16 0M567 392l0 -1 26 0M593 392l0 -1 26 0M619 392l0 -1 6 0 0 -14 1 -1 0 -5 1 0M627 372l0 -1M627 372l19 0M646 373l0 -1 26 0M672 373l0 -1 27 0M699 373l0 -1 26 0M725 373l0 -1"/>
<path stroke="blue" d="M725 372l6 0 0 -3 1 -1M732 370l0 -2M732 370l6 0 0 -1M738 370l27 0 0 -1M765 370l20 0M785 371l0 -1M785 371l1 1 0 -1 1 -1 17 0M804 371l0 -1 8 0M812 372l0 -2M812 371l6 0 0 -1M818 371l26 0 0 -1M844 371l26 0 0 -1M870 371l27 0"/>
<path stroke="blue" d="M897 371l0 -1M897 371l21 0M918 484l0 -113M918 474l1 -2 0 -9 1 -2 0 -1 1 -1 0 -1 2 0 0 -1 13 0M936 458l0 -1 38 0"/>
<path stroke="#FFA500" d="M462 39l46 0"/>
<text stroke="none" fill="white" font-size="16" x="518" y="48">
x1.vsampled_p-x1.vsampled_n
</text>
<path stroke="#FFA500" d="M50 459l2 0 0 -1 2 0M54 459l0 -1M54 459l63 0 0 -30 1 -32 0 -64 1 -12 0 -23 1 -4 0 -3 1 -3 2 -2 417 0M540 287l0 -1 6 0M546 316l0 -30M546 316l1 4M547 339l0 -19M547 339l1 7M548 350l0 -4M548 350l2 2 17 0M567 353l0 -1 7 0"/>
<path stroke="#FFA500" d="M574 377l0 -25M574 377l1 8M575 394l0 -9M575 394l1 2 17 0M593 397l0 -1 7 0M600 409l0 -13M600 409l1 2M601 419l0 -8M601 419l1 0 0 -1 17 0M619 419l0 -1 6 0M625 432l0 -14M625 432l1 2M626 439l0 -5M626 439l1 0 0 -1 2 0 1 -1"/>
<path stroke="#FFA500" d="M630 437l3 0M633 438l0 -1 13 0M646 438l0 -1 7 0M653 446l0 -9M653 446l1 2M654 449l0 -1M654 449l1 0 0 -1 4 0M659 449l0 -1 13 0M672 449l0 -1M672 449l1 0 0 -1 6 0M679 453l0 -5M679 453l1 1M680 455l0 -1 26 0M706 457l0 -3M706 457l19 0"/>
<path stroke="#FFA500" d="M725 457l0 -1M725 457l6 0M731 460l0 -3M731 460l1 1 0 -2 27 0 1 1M760 461l0 -1 5 0M765 461l0 -1 13 0M778 461l0 -1 7 0 0 -1 1 0M786 460l0 -1M786 460l18 0 0 -1M804 460l8 0 0 -2M812 459l6 0M818 460l0 -1 13 0M831 460l0 -1"/>
<path stroke="#FFA500" d="M831 459l87 0M918 460l0 -172 1 -1 0 -1 17 0M936 288l0 -2 38 0"/>
<path stroke="green" d="M50 39l46 0"/>
<text stroke="none" fill="white" font-size="16" x="106" y="48">
x1.sw_sample-2
</text>
<path stroke="green" d="M50 655l1 0 1 -10 0 -23 1 -21M53 618l0 -24M53 618l1 34M54 655l0 -3M54 655l63 0M117 662l0 -184 1 0M118 479l0 -1M118 479l421 0M539 656l0 -184M539 655l422 0M961 660l0 -182 1 0M962 479l0 -1M962 479l12 0"/>
<path stroke="#FFC0C5" d="M462 55l46 0"/>
<text stroke="none" fill="white" font-size="16" x="518" y="64">
x1.comp_out_p+2
</text>
<path stroke="#FFC0C5" d="M50 263l1 0 1 -10 0 -23 1 -20 0 -4M53 208l1 5M54 263l0 -50M54 263l487 0 1 1 0 -179M542 87l13 0M555 264l0 -186M555 263l13 0 0 -178M568 87l13 0M581 200l0 -118M581 200l1 61M582 264l0 -3M582 263l12 0M594 264l0 -179M594 86l1 1"/>
<path stroke="#FFC0C5" d="M595 87l13 0M608 263l0 -185M608 263l13 0 0 -178M621 87l13 0M634 263l0 -185M634 263l13 0 0 -178M647 87l14 0M661 263l0 -186M661 263l12 0 0 -51 1 -108 0 -19M674 87l13 0M687 264l0 -185M687 263l13 0M700 265l0 -180M700 87l13 0"/>
<path stroke="#FFC0C5" d="M713 87l0 -9 1 165M714 263l0 -20M714 263l13 0M727 264l0 -178M727 87l13 0M740 264l0 -184M740 263l14 0M754 265l0 -179M754 87l12 0M766 263l0 -186M766 263l171 0M937 264l0 -1M937 264l1 -89 0 -90M938 87l13 0M951 264l0 -187"/>
<path stroke="#FFC0C5" d="M951 263l23 0"/>
<path stroke="#A52A2A" d="M50 55l46 0"/>
<text stroke="none" fill="white" font-size="16" x="106" y="64">
x1.comp_out_n-2
</text>
<path stroke="#A52A2A" d="M50 655l1 0 1 -10 0 -24 1 -20M53 602l0 -4M53 602l1 7M54 656l0 -47M54 653l1 2 724 0 1 1 0 -179M780 479l13 0M793 655l0 -185M793 655l14 0 0 -177M807 479l12 0M819 655l0 -188M819 655l14 0 1 -164 0 -13M834 479l11 0 0 -11 1 156"/>
<path stroke="#A52A2A" d="M846 655l0 -31M846 655l14 0 0 -177 1 0M861 479l0 -1M861 479l11 0M872 655l0 -187M872 655l14 0 1 -163 0 -14M887 479l11 0M898 655l0 -184M898 655l15 0 0 -177 1 1 11 0M925 656l0 -179M925 655l49 0"/>
</svg>
