<?xml version="1.0" standalone="yes"?>
<!DOCTYPE svg PUBLIC "-//W3C//DTD SVG 1.1//EN"
 "http://www.w3.org/Graphics/SVG/1.1/DTD/svg11.dtd">
<svg xmlns="http://www.w3.org/2000/svg" version="1.1"
  width="100%" height="100%" viewBox="0 0 1024 768"
  style="fill: none; font-family: Helvetica;
 font: Helvetica;
">

<!-- Creator: NGspice -->

<rect x="0" y="0" width="1024" height="768" fill="black" stroke="none"/>
<text stroke="none" fill="white" font-size="16" x="358" y="752">
time
</text>
<text stroke="none" fill="white" font-size="16" x="10" y="16">
tran1: run1396_vin0.327391
</text>
<path stroke="white" d="M50 704l0 -637"/>
<text stroke="none" fill="white" font-size="16" x="35" y="728">
0.0
</text>
<path stroke="white" stroke-dasharray="1,2" d="M182 704l0 -637"/>
<text stroke="none" fill="white" font-size="16" x="157" y="728">
100.0
</text>
<path stroke="white" stroke-dasharray="1,2" d="M314 704l0 -637"/>
<text stroke="none" fill="white" font-size="16" x="289" y="728">
200.0
</text>
<path stroke="white" stroke-dasharray="1,2" d="M446 704l0 -637"/>
<text stroke="none" fill="white" font-size="16" x="421" y="728">
300.0
</text>
<path stroke="white" stroke-dasharray="1,2" d="M578 704l0 -637"/>
<text stroke="none" fill="white" font-size="16" x="553" y="728">
400.0
</text>
<path stroke="white" stroke-dasharray="1,2" d="M710 704l0 -637"/>
<text stroke="none" fill="white" font-size="16" x="685" y="728">
500.0
</text>
<path stroke="white" stroke-dasharray="1,2" d="M842 704l0 -637"/>
<text stroke="none" fill="white" font-size="16" x="817" y="728">
600.0
</text>
<path stroke="white" stroke-dasharray="1,2" d="M974 704l0 -637"/>
<text stroke="none" fill="white" font-size="16" x="949" y="728">
700.0
</text>
<text stroke="none" fill="white" font-size="16" x="614" y="752">
ns
</text>
<path stroke="white" stroke-dasharray="1,2" d="M50 704l924 0"/>
<text stroke="none" fill="white" font-size="16" x="8" y="712">
-3.0
</text>
<path stroke="white" stroke-dasharray="1,2" d="M50 613l924 0"/>
<text stroke="none" fill="white" font-size="16" x="8" y="621">
-2.0
</text>
<path stroke="white" stroke-dasharray="1,2" d="M50 522l924 0"/>
<text stroke="none" fill="white" font-size="16" x="8" y="530">
-1.0
</text>
<path stroke="white" d="M50 431l924 0"/>
<text stroke="none" fill="white" font-size="16" x="18" y="439">
0.0
</text>
<path stroke="white" stroke-dasharray="1,2" d="M50 340l924 0"/>
<text stroke="none" fill="white" font-size="16" x="18" y="348">
1.0
</text>
<path stroke="white" stroke-dasharray="1,2" d="M50 249l924 0"/>
<text stroke="none" fill="white" font-size="16" x="18" y="257">
2.0
</text>
<path stroke="white" stroke-dasharray="1,2" d="M50 158l924 0"/>
<text stroke="none" fill="white" font-size="16" x="18" y="166">
3.0
</text>
<path stroke="white" stroke-dasharray="1,2" d="M50 67l924 0"/>
<text stroke="none" fill="white" font-size="16" x="18" y="75">
4.0
</text>
<text stroke="none" fill="white" font-size="16" x="10" y="32">
     
</text>
<path stroke="red" d="M462 23l46 0"/>
<text stroke="none" fill="white" font-size="16" x="518" y="32">
x1.vsampled_p
</text>
<path stroke="red" d="M50 431l1 0 1 -7 0 -15 1 -15 0 -4 1 1M54 415l0 -40 1 -4 0 -14 1 -3 0 -2 2 -2 1 0 1 -1 4 0M64 350l0 -1M64 350l4 0 1 -1 48 0 0 -1 1 -8 0 -12 1 -4 0 -2 1 -2 1 0 1 -1 417 0M539 320l0 -1M539 320l15 0 0 -1 12 0 1 1 13 0 0 -1 13 0"/>
<path stroke="red" d="M593 321l0 -2M593 320l7 0M600 335l0 -16M600 335l1 3M601 343l0 -5M601 342l1 0 0 -2 51 0M653 348l0 -8M653 348l1 2M654 351l0 -1M654 351l1 0 0 -1 77 0 0 -3M732 348l27 0M759 350l0 -2M759 349l19 0M778 350l0 -1 26 0M804 350l0 -1"/>
<path stroke="red" d="M804 349l27 0M831 350l0 -1 26 0M857 350l0 -1 26 0M883 350l0 -1 27 0M910 350l0 -1 8 0M918 351l0 -23 1 -3 0 -6 3 0M922 320l0 -1M922 320l1 0 0 -1 13 0M936 321l0 -2M936 320l14 0 0 -1 24 0"/>
<path stroke="blue" d="M50 23l46 0"/>
<text stroke="none" fill="white" font-size="16" x="106" y="32">
x1.vsampled_n
</text>
<path stroke="blue" d="M50 431l1 0 1 -7 0 -15 1 -14 0 -5 1 2M54 415l0 -40 1 -4 0 -14 1 -3 0 -2 2 -2 1 0 1 -1 4 0M64 350l0 -1M64 350l4 0 1 -1 48 0M117 354l0 -5M117 354l1 9M118 373l0 -10M118 373l1 2M119 377l0 -2M119 377l2 2 425 0 0 -20 1 -3 0 -26"/>
<path stroke="blue" d="M547 330l1 -4 0 -6 2 -2 4 0 0 -1M554 318l13 0M567 319l0 -1 7 0M574 346l0 -28M574 346l1 3M575 360l0 -11M575 360l1 1 0 -1 1 -1 3 0 0 -1M580 359l13 0 0 -1M593 359l13 0 0 -1M606 359l14 0 0 -1M620 359l5 0 0 -12 1 -1 0 -5 1 0"/>
<path stroke="blue" d="M627 341l0 -1 1 1 5 0 0 -1M633 341l26 0 0 -1M659 341l20 0M679 347l0 -6M679 347l1 0M680 349l0 -3 26 0M706 350l0 -4M706 349l1 0 0 -1 18 0M725 349l0 -1 26 0M751 349l0 -1M751 349l1 0 0 -1 26 0M778 349l0 -1 7 0M785 350l0 -2"/>
<path stroke="blue" d="M785 350l1 -1 26 0M812 350l0 -1 18 0 1 1 0 -1 87 0M918 382l0 -34M918 382l1 3 0 -4 2 -2 53 0"/>
<path stroke="#FFA500" d="M462 39l46 0"/>
<text stroke="none" fill="white" font-size="16" x="518" y="48">
x1.vsampled_p-x1.vsampled_n
</text>
<path stroke="#FFA500" d="M50 431l67 0 0 -6 1 -16 0 -23 1 -7 0 -3 1 -3 1 -1 2 0 0 -1 416 0M539 372l0 -1M539 372l1 0 0 -1M540 372l6 0M546 391l0 -19M546 391l1 3M547 421l0 -27M547 421l1 3M548 430l0 -6M548 430l1 2 1 0M550 433l0 -1M550 433l24 0 0 -28"/>
<path stroke="#FFA500" d="M574 405l1 -3 0 -12 1 0M576 391l0 -1M576 391l1 0M577 392l0 -1M577 392l16 0M593 393l0 -1 7 0M600 407l0 -15M600 407l1 3M601 415l0 -5M601 415l1 -1 0 -1 1 0 1 -1 15 0M619 413l0 -1 1 0M620 413l0 -1 5 0M625 424l0 -12M625 424l1 1"/>
<path stroke="#FFA500" d="M626 430l0 -5M626 430l1 1 1 -1 25 0M653 438l0 -8M653 438l1 3M654 442l0 -1 1 0 1 -1 3 0M659 441l0 -1 13 0M672 441l0 -1 7 0 0 -5 1 -1M680 435l0 -2M680 435l6 0M686 436l0 -1 20 0 0 -3 1 1 25 0 0 -3 1 0M733 431l0 -1M733 431l18 0"/>
<path stroke="#FFA500" d="M751 431l0 -1 1 0M752 431l0 -1M752 431l7 0M759 433l0 -2M759 432l26 0 0 -2M785 431l27 0 0 -1M812 431l26 0M838 432l0 -1M838 432l1 -1 79 0M918 434l0 -57 1 -6 0 -2 2 2 1 0M922 372l0 -1M922 372l1 0 0 -1 13 0M936 372l0 -1"/>
<path stroke="#FFA500" d="M936 372l14 0 0 -1 24 0"/>
<path stroke="green" d="M50 39l46 0"/>
<text stroke="none" fill="white" font-size="16" x="106" y="48">
x1.sw_sample-2
</text>
<path stroke="green" d="M50 613l1 0 1 -9 0 -21 1 -21M53 581l0 -25M53 581l1 29M54 613l0 -3M54 613l63 0M117 620l0 -172M117 449l422 0M539 614l0 -171M539 613l422 0M961 618l0 -170 1 1 12 0"/>
<path stroke="#FFC0C5" d="M462 55l46 0"/>
<text stroke="none" fill="white" font-size="16" x="518" y="64">
x1.comp_out_p+2
</text>
<path stroke="#FFC0C5" d="M50 249l1 0 1 -9 0 -22 1 -18 0 -4M53 198l1 5M54 249l0 -46M54 249l488 0 0 -165M542 85l13 0M555 249l0 -167M555 249l39 0M594 250l0 -166M594 85l14 0M608 250l0 -173M608 249l13 0M621 250l0 -166M621 85l13 0M634 250l0 -172M634 249l13 0"/>
<path stroke="#FFC0C5" d="M647 251l0 -168M647 85l14 0M661 250l0 -174M661 249l92 0 0 -164 1 -1M754 85l0 -1M754 85l12 0M766 250l0 -171M766 250l1 -1 67 0 0 -164 11 0 0 -9 1 138M846 249l0 -35M846 249l91 0M937 250l0 -1M937 250l1 -74 0 -92M938 85l13 0"/>
<path stroke="#FFC0C5" d="M951 250l0 -168M951 249l23 0"/>
<path stroke="#A52A2A" d="M50 55l46 0"/>
<text stroke="none" fill="white" font-size="16" x="106" y="64">
x1.comp_out_n-2
</text>
<path stroke="#A52A2A" d="M50 613l1 0 1 -9 0 -22 1 -19M53 564l0 -3M53 564l1 6M54 613l0 -43M54 613l514 0M568 616l0 -169M568 449l13 0 0 -9 1 162M582 613l0 -11M582 613l12 0M594 614l0 -1 27 0M621 614l0 -1 52 0M673 619l0 -6M673 619l1 -136 0 -36M674 449l13 0"/>
<path stroke="#A52A2A" d="M687 613l0 -171M687 613l13 0M700 618l0 -171M700 449l13 0 0 -9 1 164M714 613l0 -9M714 613l13 0 0 -165M727 449l13 0M740 614l0 -174M740 613l40 0 0 -165M780 449l13 0M793 614l0 -169M793 613l14 0 0 -165 1 1 11 0M819 614l0 -171"/>
<path stroke="#A52A2A" d="M819 613l41 0 0 -164 12 0M872 614l0 -169M872 613l14 0 0 -151 1 -13 0 -1M887 449l11 0M898 614l0 -169M898 613l15 0 0 -165M913 449l12 0M925 614l0 -174M925 613l49 0"/>
</svg>
