<?xml version="1.0" standalone="yes"?>
<!DOCTYPE svg PUBLIC "-//W3C//DTD SVG 1.1//EN"
 "http://www.w3.org/Graphics/SVG/1.1/DTD/svg11.dtd">
<svg xmlns="http://www.w3.org/2000/svg" version="1.1"
  width="100%" height="100%" viewBox="0 0 1024 768"
  style="fill: none; font-family: Helvetica;
 font: Helvetica;
">

<!-- Creator: NGspice -->

<rect x="0" y="0" width="1024" height="768" fill="black" stroke="none"/>
<text stroke="none" fill="white" font-size="16" x="358" y="752">
time
</text>
<text stroke="none" fill="white" font-size="16" x="10" y="16">
tran1: run913_vin-0.0971203
</text>
<path stroke="white" d="M50 704l0 -637"/>
<text stroke="none" fill="white" font-size="16" x="35" y="728">
0.0
</text>
<path stroke="white" stroke-dasharray="1,2" d="M182 704l0 -637"/>
<text stroke="none" fill="white" font-size="16" x="157" y="728">
100.0
</text>
<path stroke="white" stroke-dasharray="1,2" d="M314 704l0 -637"/>
<text stroke="none" fill="white" font-size="16" x="289" y="728">
200.0
</text>
<path stroke="white" stroke-dasharray="1,2" d="M446 704l0 -637"/>
<text stroke="none" fill="white" font-size="16" x="421" y="728">
300.0
</text>
<path stroke="white" stroke-dasharray="1,2" d="M578 704l0 -637"/>
<text stroke="none" fill="white" font-size="16" x="553" y="728">
400.0
</text>
<path stroke="white" stroke-dasharray="1,2" d="M710 704l0 -637"/>
<text stroke="none" fill="white" font-size="16" x="685" y="728">
500.0
</text>
<path stroke="white" stroke-dasharray="1,2" d="M842 704l0 -637"/>
<text stroke="none" fill="white" font-size="16" x="817" y="728">
600.0
</text>
<path stroke="white" stroke-dasharray="1,2" d="M974 704l0 -637"/>
<text stroke="none" fill="white" font-size="16" x="949" y="728">
700.0
</text>
<text stroke="none" fill="white" font-size="16" x="614" y="752">
ns
</text>
<path stroke="white" stroke-dasharray="1,2" d="M50 704l924 0"/>
<text stroke="none" fill="white" font-size="16" x="8" y="712">
-2.5
</text>
<path stroke="white" stroke-dasharray="1,2" d="M50 655l924 0"/>
<text stroke="none" fill="white" font-size="16" x="8" y="663">
-2.0
</text>
<path stroke="white" stroke-dasharray="1,2" d="M50 606l924 0"/>
<text stroke="none" fill="white" font-size="16" x="8" y="614">
-1.5
</text>
<path stroke="white" stroke-dasharray="1,2" d="M50 557l924 0"/>
<text stroke="none" fill="white" font-size="16" x="8" y="565">
-1.0
</text>
<path stroke="white" stroke-dasharray="1,2" d="M50 508l924 0"/>
<text stroke="none" fill="white" font-size="16" x="8" y="516">
-0.5
</text>
<path stroke="white" d="M50 459l924 0"/>
<text stroke="none" fill="white" font-size="16" x="18" y="467">
0.0
</text>
<path stroke="white" stroke-dasharray="1,2" d="M50 410l924 0"/>
<text stroke="none" fill="white" font-size="16" x="18" y="418">
0.5
</text>
<path stroke="white" stroke-dasharray="1,2" d="M50 361l924 0"/>
<text stroke="none" fill="white" font-size="16" x="18" y="369">
1.0
</text>
<path stroke="white" stroke-dasharray="1,2" d="M50 312l924 0"/>
<text stroke="none" fill="white" font-size="16" x="18" y="320">
1.5
</text>
<path stroke="white" stroke-dasharray="1,2" d="M50 263l924 0"/>
<text stroke="none" fill="white" font-size="16" x="18" y="271">
2.0
</text>
<path stroke="white" stroke-dasharray="1,2" d="M50 214l924 0"/>
<text stroke="none" fill="white" font-size="16" x="18" y="222">
2.5
</text>
<path stroke="white" stroke-dasharray="1,2" d="M50 165l924 0"/>
<text stroke="none" fill="white" font-size="16" x="18" y="173">
3.0
</text>
<path stroke="white" stroke-dasharray="1,2" d="M50 116l924 0"/>
<text stroke="none" fill="white" font-size="16" x="18" y="124">
3.5
</text>
<path stroke="white" stroke-dasharray="1,2" d="M50 67l924 0"/>
<text stroke="none" fill="white" font-size="16" x="18" y="75">
4.0
</text>
<text stroke="none" fill="white" font-size="16" x="10" y="32">
     
</text>
<path stroke="red" d="M462 23l46 0"/>
<text stroke="none" fill="white" font-size="16" x="518" y="32">
x1.vsampled_p
</text>
<path stroke="red" d="M50 459l1 0 1 -7 0 -17 1 -15 0 -5 1 1M54 442l0 -42 1 -6 0 -15 1 -3 0 -3 1 -1 1 0 0 -1 59 0M117 372l0 -1M117 372l1 3M118 377l0 -2M118 377l1 2M119 380l0 -1M119 380l420 0 1 1 1 -1M541 381l0 -1M541 381l5 0 0 -32 1 -3 0 -17 1 -7"/>
<path stroke="red" d="M548 322l0 -5 1 -1 0 -1 5 0 0 -1 12 0 1 1M567 316l0 -1 7 0M574 345l0 -30M574 345l1 8M575 360l0 -7M575 360l1 1 0 -1 1 -1 3 0 0 -1 13 0M593 359l0 -1M593 359l7 0M600 376l0 -17M600 376l1 2M601 384l0 -6M601 383l1 -2 4 0 0 -1"/>
<path stroke="red" d="M606 380l13 0M619 381l0 -1M619 381l1 0 0 -1M620 381l5 0 0 -11 1 -1 0 -8 20 0M646 362l0 -1 7 0M653 371l0 -10M653 371l1 2M654 374l0 -1 1 0 0 -1 17 0M672 373l0 -1 27 0M699 373l0 -1 26 0M725 373l0 -1 6 0 0 -3 1 0M732 370l0 -1"/>
<path stroke="red" d="M732 370l27 0M759 373l0 -3M759 372l1 -1 18 0M778 372l0 -1 26 0M804 372l0 -1 27 0M831 372l0 -1 87 0M918 384l0 -13M918 384l1 -1 0 -2 4 0 0 -1 13 0M936 381l0 -1 1 0M937 381l0 -1M937 381l13 0 0 -1 24 0"/>
<path stroke="blue" d="M50 23l46 0"/>
<text stroke="none" fill="white" font-size="16" x="106" y="32">
x1.vsampled_n
</text>
<path stroke="blue" d="M50 459l1 0 1 -7 0 -17 1 -15 0 -5 1 1M54 442l0 -42 1 -6 0 -15 1 -3 0 -3 1 -1 1 0 0 -1 59 0 1 -4 0 -2 1 -2 0 -1 1 0 1 -1 418 0M539 362l0 -1M539 362l15 0 0 -1 12 0 1 1 13 0 0 -1 13 0M593 362l0 -1M593 362l13 0 0 -1 13 0M619 362l0 -1"/>
<path stroke="blue" d="M619 362l14 0 0 -1 13 0M646 362l0 -1M646 362l13 0 0 -1 13 0M672 362l0 -1M672 362l7 0M679 369l0 -8M679 369l1 0 0 -2 25 0 1 1M706 371l0 -3M706 370l79 0M785 371l0 -1M785 371l1 0 0 -1 18 0M804 371l0 -1 8 0M812 371l0 -1M812 371l106 0"/>
<path stroke="blue" d="M918 371l0 -10 1 -1M919 361l0 -1M919 361l1 0M920 362l0 -1M920 362l3 0 0 -1 13 0M936 362l0 -1M936 362l14 0 0 -1 24 0"/>
<path stroke="#FFA500" d="M462 39l46 0"/>
<text stroke="none" fill="white" font-size="16" x="518" y="48">
x1.vsampled_p-x1.vsampled_n
</text>
<path stroke="#FFA500" d="M50 459l67 0M117 460l0 -1M117 460l1 6M118 471l0 -5M118 471l1 4M119 476l0 -1M119 476l2 2 425 0 0 -31 1 -3 0 -18 1 -6 0 -6 2 -2 17 0M567 413l0 -1 7 0M574 442l0 -30M574 442l1 9M575 458l0 -7M575 458l1 0 0 -1 1 0 0 -1 23 0"/>
<path stroke="#FFA500" d="M600 473l0 -17M600 473l1 3M601 481l0 -5M601 480l1 -1 0 -1 23 0 0 -11 1 -1 0 -7 1 0 0 -1 1 0M628 459l0 -1M628 459l25 0M653 468l0 -9M653 468l1 2M654 471l0 -1M654 471l1 -1 24 0 0 -8 1 0M680 464l0 -2M680 464l25 0 1 -1 0 -3"/>
<path stroke="#FFA500" d="M706 461l6 0M712 462l0 -1M712 462l1 0 0 -1M713 462l12 0 0 -1 6 0 0 -3 1 0M732 459l0 -1M732 459l27 0M759 462l0 -3M759 461l1 0 1 -1 17 0M778 461l0 -1 7 0 0 -1M785 460l27 0 0 -1 106 0M918 482l0 -23M918 482l1 -1 0 -2 1 0"/>
<path stroke="#FFA500" d="M920 479l0 -1 54 0"/>
<path stroke="green" d="M50 39l46 0"/>
<text stroke="none" fill="white" font-size="16" x="106" y="48">
x1.sw_sample-2
</text>
<path stroke="green" d="M50 655l1 0 1 -10 0 -23 1 -21M53 621l0 -27M53 621l1 31M54 655l0 -3M54 655l63 0M117 662l0 -184 1 1 421 0M539 656l0 -184M539 655l422 0M961 660l0 -182 1 0M962 479l0 -1 1 1 11 0"/>
<path stroke="#FFC0C5" d="M462 55l46 0"/>
<text stroke="none" fill="white" font-size="16" x="518" y="64">
x1.comp_out_p+2
</text>
<path stroke="#FFC0C5" d="M50 263l1 0 1 -10 0 -23 1 -20 0 -4M53 209l1 4M54 263l0 -50M54 263l514 0M568 267l0 -182M568 87l13 0 0 -10 1 170M582 263l0 -16M582 263l12 0M594 265l0 -180 1 1M595 87l0 -1M595 87l13 0M608 264l0 -185M608 263l39 0 0 -178"/>
<path stroke="#FFC0C5" d="M647 87l14 0M661 263l0 -185M661 263l92 0 1 -164 0 -13M754 87l12 0M766 263l0 -186M766 263l208 0"/>
<path stroke="#A52A2A" d="M50 55l46 0"/>
<text stroke="none" fill="white" font-size="16" x="106" y="64">
x1.comp_out_n-2
</text>
<path stroke="#A52A2A" d="M50 655l1 0 1 -10 0 -24 1 -20M53 602l0 -3M53 602l1 7M54 655l0 -46M54 655l487 0 1 1 0 -180M542 479l13 0M555 655l0 -185M555 655l66 0M621 661l0 -185M621 479l13 0M634 655l0 -186M634 655l39 0M673 663l0 -8M673 663l1 -155 0 -32"/>
<path stroke="#A52A2A" d="M674 479l13 0M687 655l0 -184M687 655l13 0M700 658l0 -182M700 479l13 0 0 -9 1 167M714 655l0 -18M714 655l13 0 0 -177M727 479l13 0M740 656l0 -184M740 655l40 0 0 -177M780 479l13 0M793 655l0 -184M793 655l14 0 0 -177M807 479l12 0"/>
<path stroke="#A52A2A" d="M819 655l0 -187M819 655l14 0 1 -170 0 -7M834 479l11 0 0 -11 1 169M846 655l0 -18M846 655l14 0 0 -177 1 0M861 479l0 -1M861 479l11 0M872 655l0 -187M872 655l14 0 1 -161 0 -16M887 479l11 0M898 655l0 -187M898 655l15 0 0 -177"/>
<path stroke="#A52A2A" d="M913 478l1 1 11 0M925 656l0 -179M925 655l12 0 1 -16 0 -162M938 479l13 0M951 655l0 -186M951 655l23 0"/>
</svg>
