<?xml version="1.0" standalone="yes"?>
<!DOCTYPE svg PUBLIC "-//W3C//DTD SVG 1.1//EN"
 "http://www.w3.org/Graphics/SVG/1.1/DTD/svg11.dtd">
<svg xmlns="http://www.w3.org/2000/svg" version="1.1"
  width="100%" height="100%" viewBox="0 0 1024 768"
  style="fill: none; font-family: Helvetica;
 font: Helvetica;
">

<!-- Creator: NGspice -->

<rect x="0" y="0" width="1024" height="768" fill="black" stroke="none"/>
<text stroke="none" fill="white" font-size="16" x="358" y="752">
time
</text>
<text stroke="none" fill="white" font-size="16" x="10" y="16">
tran1: run242_vin-0.686866
</text>
<path stroke="white" d="M50 704l0 -637"/>
<text stroke="none" fill="white" font-size="16" x="35" y="728">
0.0
</text>
<path stroke="white" stroke-dasharray="1,2" d="M182 704l0 -637"/>
<text stroke="none" fill="white" font-size="16" x="157" y="728">
100.0
</text>
<path stroke="white" stroke-dasharray="1,2" d="M314 704l0 -637"/>
<text stroke="none" fill="white" font-size="16" x="289" y="728">
200.0
</text>
<path stroke="white" stroke-dasharray="1,2" d="M446 704l0 -637"/>
<text stroke="none" fill="white" font-size="16" x="421" y="728">
300.0
</text>
<path stroke="white" stroke-dasharray="1,2" d="M578 704l0 -637"/>
<text stroke="none" fill="white" font-size="16" x="553" y="728">
400.0
</text>
<path stroke="white" stroke-dasharray="1,2" d="M710 704l0 -637"/>
<text stroke="none" fill="white" font-size="16" x="685" y="728">
500.0
</text>
<path stroke="white" stroke-dasharray="1,2" d="M842 704l0 -637"/>
<text stroke="none" fill="white" font-size="16" x="817" y="728">
600.0
</text>
<path stroke="white" stroke-dasharray="1,2" d="M974 704l0 -637"/>
<text stroke="none" fill="white" font-size="16" x="949" y="728">
700.0
</text>
<text stroke="none" fill="white" font-size="16" x="614" y="752">
ns
</text>
<path stroke="white" stroke-dasharray="1,2" d="M50 704l924 0"/>
<text stroke="none" fill="white" font-size="16" x="8" y="712">
-3.0
</text>
<path stroke="white" stroke-dasharray="1,2" d="M50 613l924 0"/>
<text stroke="none" fill="white" font-size="16" x="8" y="621">
-2.0
</text>
<path stroke="white" stroke-dasharray="1,2" d="M50 522l924 0"/>
<text stroke="none" fill="white" font-size="16" x="8" y="530">
-1.0
</text>
<path stroke="white" d="M50 431l924 0"/>
<text stroke="none" fill="white" font-size="16" x="18" y="439">
0.0
</text>
<path stroke="white" stroke-dasharray="1,2" d="M50 340l924 0"/>
<text stroke="none" fill="white" font-size="16" x="18" y="348">
1.0
</text>
<path stroke="white" stroke-dasharray="1,2" d="M50 249l924 0"/>
<text stroke="none" fill="white" font-size="16" x="18" y="257">
2.0
</text>
<path stroke="white" stroke-dasharray="1,2" d="M50 158l924 0"/>
<text stroke="none" fill="white" font-size="16" x="18" y="166">
3.0
</text>
<path stroke="white" stroke-dasharray="1,2" d="M50 67l924 0"/>
<text stroke="none" fill="white" font-size="16" x="18" y="75">
4.0
</text>
<text stroke="none" fill="white" font-size="16" x="10" y="32">
     
</text>
<path stroke="red" d="M462 23l46 0"/>
<text stroke="none" fill="white" font-size="16" x="518" y="32">
x1.vsampled_p
</text>
<path stroke="red" d="M50 431l1 0 1 -7 0 -15 1 -14 0 -5 1 2M54 414l0 -38 1 -4 0 -14 1 -3 0 -2 1 -2 0 -1 2 0 1 -1 3 0 1 1 4 0 1 -1 48 0M117 366l0 -17M117 366l1 15M118 401l0 -20M118 401l1 3M119 408l0 -4M119 408l1 2 1 1 2 0M123 412l0 -1M123 412l423 0"/>
<path stroke="red" d="M546 412l0 -27 1 -2 0 -20 1 -7 0 -3 3 -3 15 0 1 1 0 -1 26 0M593 351l0 -1 26 0M619 351l0 -1M619 351l1 0 0 -1 6 0 0 -17 1 -1 0 -1M627 332l2 0 1 1 3 0 0 -1 13 0M646 333l0 -1M646 333l7 0M653 344l0 -11M653 344l1 1M654 346l0 -2"/>
<path stroke="red" d="M654 344l1 -1 4 0 0 -1M659 343l20 0M679 351l0 -8M679 351l1 0 0 -3 26 0M706 352l0 -4M706 352l1 0 0 -2 18 0M725 351l0 -1 6 0 0 -3 1 0M732 348l0 -1M732 348l19 0M751 349l0 -1M751 349l1 0 0 -1 26 0M778 349l0 -1 7 0M785 350l0 -2"/>
<path stroke="red" d="M785 350l1 0 0 -1 26 0M812 350l0 -1M812 350l1 -1 18 0M831 350l0 -1 26 0M857 350l0 -1 26 0M883 350l0 -1 27 0M910 350l0 -1 9 0M919 414l0 -65M919 414l1 1M920 416l0 -1 1 -1 0 -1 1 0 0 -1 52 0"/>
<path stroke="blue" d="M50 23l46 0"/>
<text stroke="none" fill="white" font-size="16" x="106" y="32">
x1.vsampled_n
</text>
<path stroke="blue" d="M50 431l1 0 1 -7 0 -15 1 -15 0 -5 1 2M54 414l0 -38 1 -4 0 -14 1 -3 0 -2 1 -2 0 -1 2 0 1 -1 3 0 1 1 5 0 0 -1 48 0 0 -1 1 -11 0 -32 1 -5 0 -8 2 -4 0 -1 419 0M540 288l0 -1 14 0 0 -1M554 287l13 0M567 288l0 -1 6 0 1 2M574 314l0 -25"/>
<path stroke="blue" d="M574 314l1 10 1 4 4 0 0 -1M580 328l20 0M600 342l0 -14M600 342l1 2M601 349l0 -5M601 349l1 0 0 -1 168 0M770 350l0 -2M770 349l8 0M778 350l0 -1 26 0M804 350l0 -1 26 0 1 1 0 -1 87 0M918 350l0 -1M918 350l1 0 0 -41 1 -4 0 -11"/>
<path stroke="blue" d="M920 294l1 -3 0 -2 1 0 0 -1 1 0 0 -1 13 0M936 288l0 -1 14 0 0 -1M950 287l24 0"/>
<path stroke="#FFA500" d="M462 39l46 0"/>
<text stroke="none" fill="white" font-size="16" x="518" y="48">
x1.vsampled_p-x1.vsampled_n
</text>
<path stroke="#FFA500" d="M50 431l2 0M52 432l0 -1M52 432l2 0 0 -1 63 0M117 449l0 -18M117 449l1 26M118 528l0 -53M118 528l1 7M119 547l0 -12M119 547l1 4 1 3M121 555l0 -1M121 555l1 0 1 1 417 0 0 -1M540 556l6 0 0 -27 1 -2 0 -20 1 -7 0 -3 2 -2 1 0"/>
<path stroke="#FFA500" d="M551 495l1 -1 2 0M554 495l0 -1M554 495l12 0 1 -1M567 495l0 -2M567 494l6 0 1 -2 0 -25 1 -10 1 -3 0 -1 1 1 16 0 0 -1M593 454l7 0 0 -15 1 -2 0 -5 1 1 24 0 0 -17 1 -1 0 -1M627 415l19 0M646 416l0 -1 7 0M653 427l0 -12M653 427l1 1"/>
<path stroke="#FFA500" d="M654 429l0 -3 5 0 0 -1M659 426l20 0M679 433l0 -8M679 433l1 1 0 -3 26 0M706 435l0 -4M706 435l1 0 0 -2 24 0 0 -4M731 430l1 0M732 431l0 -1M732 431l38 0 0 -2M770 430l15 0M785 431l0 -1M785 431l1 0 0 -1 18 0M804 431l0 -1 8 0"/>
<path stroke="#FFA500" d="M812 432l0 -2M812 431l106 0 0 -1 1 0M919 536l0 -106M919 536l1 5M920 552l0 -11M920 552l1 2M921 555l0 -1M921 555l2 0M923 556l0 -1M923 556l13 0 0 -1M936 556l38 0"/>
<path stroke="green" d="M50 39l46 0"/>
<text stroke="none" fill="white" font-size="16" x="106" y="48">
x1.sw_sample-2
</text>
<path stroke="green" d="M50 613l1 0 1 -9 0 -21 1 -21M53 579l0 -23M53 579l1 31M54 613l0 -3M54 613l63 0M117 620l0 -172M117 449l422 0M539 614l0 -171M539 613l422 0M961 618l0 -170 1 1 12 0"/>
<path stroke="#FFC0C5" d="M462 55l46 0"/>
<text stroke="none" fill="white" font-size="16" x="518" y="64">
x1.comp_out_p+2
</text>
<path stroke="#FFC0C5" d="M50 249l1 0 1 -9 0 -22 1 -18 0 -4M53 198l1 5M54 250l0 -47M54 240l1 8M55 249l0 -1M55 249l592 0M647 250l0 -166M647 85l14 0M661 250l0 -171M661 249l13 0 0 -165M674 85l13 0M687 250l0 -171M687 249l13 0 0 -143 1 -21 0 -1M701 85l12 0"/>
<path stroke="#FFC0C5" d="M713 85l0 -8 1 153M714 249l0 -19M714 249l66 0 0 -165M780 85l13 0M793 250l0 -172M793 249l14 0 0 -165M807 85l12 0M819 249l0 -174M819 249l14 0 1 -151 0 -14M834 85l11 0 0 -8 1 153M846 249l0 -19M846 249l15 0 0 -165M861 85l11 0"/>
<path stroke="#FFC0C5" d="M872 249l0 -172M872 249l15 0 0 -164 11 0M898 249l0 -172M898 249l15 0 1 -148 0 -17M914 85l11 0M925 249l0 -171M925 249l49 0"/>
<path stroke="#A52A2A" d="M50 55l46 0"/>
<text stroke="none" fill="white" font-size="16" x="106" y="64">
x1.comp_out_n-2
</text>
<path stroke="#A52A2A" d="M50 613l1 0 1 -9 0 -22 1 -19M53 564l0 -3M53 564l1 6M54 613l0 -43M54 612l1 1 487 0M542 620l0 -173M542 449l13 0M555 613l0 -171M555 613l13 0M568 615l0 -168M568 449l13 0 0 -2 1 64M582 614l0 -103M582 613l12 0 0 -165M594 449l14 0"/>
<path stroke="#A52A2A" d="M608 613l0 -171M608 613l13 0 0 -165 1 1 12 0M634 614l0 -173M634 613l13 0M647 614l0 -1 80 0 0 -165M727 449l13 0M740 613l0 -169M740 613l24 0 0 -166M764 449l2 0M766 613l0 -173M766 613l171 0 1 -56 0 -109M938 449l13 0M951 613l0 -172"/>
<path stroke="#A52A2A" d="M951 613l23 0"/>
</svg>
