<?xml version="1.0" standalone="yes"?>
<!DOCTYPE svg PUBLIC "-//W3C//DTD SVG 1.1//EN"
 "http://www.w3.org/Graphics/SVG/1.1/DTD/svg11.dtd">
<svg xmlns="http://www.w3.org/2000/svg" version="1.1"
  width="100%" height="100%" viewBox="0 0 1024 768"
  style="fill: none; font-family: Helvetica;
 font: Helvetica;
">

<!-- Creator: NGspice -->

<rect x="0" y="0" width="1024" height="768" fill="black" stroke="none"/>
<text stroke="none" fill="white" font-size="16" x="358" y="752">
time
</text>
<text stroke="none" fill="white" font-size="16" x="10" y="16">
tran1: run427_vin-0.524268
</text>
<path stroke="white" d="M50 704l0 -637"/>
<text stroke="none" fill="white" font-size="16" x="35" y="728">
0.0
</text>
<path stroke="white" stroke-dasharray="1,2" d="M182 704l0 -637"/>
<text stroke="none" fill="white" font-size="16" x="157" y="728">
100.0
</text>
<path stroke="white" stroke-dasharray="1,2" d="M314 704l0 -637"/>
<text stroke="none" fill="white" font-size="16" x="289" y="728">
200.0
</text>
<path stroke="white" stroke-dasharray="1,2" d="M446 704l0 -637"/>
<text stroke="none" fill="white" font-size="16" x="421" y="728">
300.0
</text>
<path stroke="white" stroke-dasharray="1,2" d="M578 704l0 -637"/>
<text stroke="none" fill="white" font-size="16" x="553" y="728">
400.0
</text>
<path stroke="white" stroke-dasharray="1,2" d="M710 704l0 -637"/>
<text stroke="none" fill="white" font-size="16" x="685" y="728">
500.0
</text>
<path stroke="white" stroke-dasharray="1,2" d="M842 704l0 -637"/>
<text stroke="none" fill="white" font-size="16" x="817" y="728">
600.0
</text>
<path stroke="white" stroke-dasharray="1,2" d="M974 704l0 -637"/>
<text stroke="none" fill="white" font-size="16" x="949" y="728">
700.0
</text>
<text stroke="none" fill="white" font-size="16" x="614" y="752">
ns
</text>
<path stroke="white" stroke-dasharray="1,2" d="M50 704l924 0"/>
<text stroke="none" fill="white" font-size="16" x="8" y="712">
-3.0
</text>
<path stroke="white" stroke-dasharray="1,2" d="M50 613l924 0"/>
<text stroke="none" fill="white" font-size="16" x="8" y="621">
-2.0
</text>
<path stroke="white" stroke-dasharray="1,2" d="M50 522l924 0"/>
<text stroke="none" fill="white" font-size="16" x="8" y="530">
-1.0
</text>
<path stroke="white" d="M50 431l924 0"/>
<text stroke="none" fill="white" font-size="16" x="18" y="439">
0.0
</text>
<path stroke="white" stroke-dasharray="1,2" d="M50 340l924 0"/>
<text stroke="none" fill="white" font-size="16" x="18" y="348">
1.0
</text>
<path stroke="white" stroke-dasharray="1,2" d="M50 249l924 0"/>
<text stroke="none" fill="white" font-size="16" x="18" y="257">
2.0
</text>
<path stroke="white" stroke-dasharray="1,2" d="M50 158l924 0"/>
<text stroke="none" fill="white" font-size="16" x="18" y="166">
3.0
</text>
<path stroke="white" stroke-dasharray="1,2" d="M50 67l924 0"/>
<text stroke="none" fill="white" font-size="16" x="18" y="75">
4.0
</text>
<text stroke="none" fill="white" font-size="16" x="10" y="32">
     
</text>
<path stroke="red" d="M462 23l46 0"/>
<text stroke="none" fill="white" font-size="16" x="518" y="32">
x1.vsampled_p
</text>
<path stroke="red" d="M50 431l1 0 1 -7 0 -15 1 -14 0 -5 1 2M54 415l0 -40 1 -4 0 -14 1 -2 0 -3 2 -2 1 0 1 -1 3 0 1 1 4 0 1 -1 48 0M117 360l0 -11M117 360l1 12M118 386l0 -14M118 386l1 3M119 394l0 -5M119 394l1 1M120 396l0 -1M120 396l1 0 1 1 424 0"/>
<path stroke="red" d="M546 397l0 -28 1 -4 0 -18 1 -4 0 -5 1 0 0 -2 5 0 0 -1M554 336l13 0M567 337l0 -1 13 0 0 -1M580 336l20 0M600 357l0 -21M600 357l1 2M601 362l0 -3M601 360l1 -2 0 -1 1 -1 22 0 0 -10 1 -2 0 -7 1 0M627 338l0 -1M627 338l19 0M646 339l0 -1"/>
<path stroke="red" d="M646 338l7 0M653 348l0 -10M653 348l1 3 0 -1 2 -2 16 0M672 349l0 -1 26 0 1 1 0 -1 26 0M725 349l0 -1 26 0M751 349l0 -1M751 349l1 0 0 -1 26 0M778 349l0 -1 8 0M786 350l0 -2M786 349l27 0M813 350l0 -1 17 0 1 1 0 -1 87 0M918 382l0 -33"/>
<path stroke="red" d="M918 382l1 2M919 396l0 -12M919 396l1 2M920 399l0 -1M920 399l1 -1 0 -1 53 0"/>
<path stroke="blue" d="M50 23l46 0"/>
<text stroke="none" fill="white" font-size="16" x="106" y="32">
x1.vsampled_n
</text>
<path stroke="blue" d="M50 431l1 0 1 -7 0 -15 1 -15 0 -4 1 1M54 414l0 -39 1 -4 0 -14 1 -2 0 -3 2 -2 1 0 1 -1 3 0 1 1 4 0 1 -1 48 0 0 -1 1 -10 0 -21 1 -4 0 -7 1 -2 0 -1 1 -1 1 0 1 -1 416 0M539 302l0 -1M539 302l1 0M540 303l0 -1 14 0 0 -1M554 302l13 0"/>
<path stroke="blue" d="M567 303l0 -1 7 0M574 324l0 -22M574 324l1 9M575 342l0 -9M575 342l1 0M576 343l0 -1M576 343l4 0 0 -1 13 0M593 343l0 -1M593 343l13 0 0 -1 13 0M619 343l0 -1M619 343l14 0 0 -1 13 0M646 343l0 -1M646 343l13 0 0 -1 13 0M672 343l0 -1"/>
<path stroke="blue" d="M672 343l7 0M679 348l0 -5M679 348l1 1 0 -1 6 0 0 -1M686 348l20 0M706 351l0 -3M706 351l1 0 0 -1 24 0 1 -1 0 -2M732 348l27 0M759 350l0 -2M759 349l19 0M778 350l0 -1 26 0M804 350l0 -1 27 0M831 350l0 -1 26 0M857 350l0 -1 26 0"/>
<path stroke="blue" d="M883 350l0 -1 27 0M910 350l0 -1 8 0 0 -21 1 -2 0 -10 1 -4 0 -6 1 -2 0 -1 1 0 0 -1 1 0 0 -1M923 302l13 0M936 303l0 -1 14 0 0 -1M950 302l11 0 0 -1 13 0"/>
<path stroke="#FFA500" d="M462 39l46 0"/>
<text stroke="none" fill="white" font-size="16" x="518" y="48">
x1.vsampled_p-x1.vsampled_n
</text>
<path stroke="#FFA500" d="M50 431l2 0 1 1 1 0 0 -1 63 0M117 443l0 -12M117 443l1 22M118 500l0 -35M118 500l1 8M119 518l0 -10M119 518l1 4M120 524l0 -2M120 524l2 2 424 0M546 527l0 -29 1 -4 0 -18 1 -4 0 -5 1 0 0 -1 1 -1 17 0M567 466l0 -2M567 465l7 0"/>
<path stroke="#FFA500" d="M574 465l0 -23 1 -8 0 -9 1 -1 17 0M593 425l0 -1 7 0M600 445l0 -21M600 445l1 2M601 450l0 -3M601 449l1 -3 0 -1 1 0 0 -1 2 0 1 1 13 0 0 -1M619 445l1 0 0 -1M620 445l5 0 0 -11 1 -1 0 -7 2 0 1 1 4 0 0 -1M633 427l20 0M653 437l0 -10"/>
<path stroke="#FFA500" d="M653 437l1 2 0 -1 1 -1 24 0 0 -5 1 -1M680 432l0 -1M680 432l26 0 0 -3 25 0 1 2M732 432l0 -1 19 0M751 432l0 -1M751 432l1 0 0 -1 7 0 0 -2M759 430l27 0M786 432l0 -2M786 431l27 0M813 432l0 -1 25 0 0 -1 1 0M839 431l0 -1M839 431l79 0"/>
<path stroke="#FFA500" d="M918 485l0 -54M918 485l1 4M919 511l0 -22M919 511l1 6M920 523l0 -6M920 523l1 2 1 0M922 526l0 -1M922 526l1 0M923 527l0 -1 13 0 0 -1M936 526l14 0M950 527l0 -1 24 0"/>
<path stroke="green" d="M50 39l46 0"/>
<text stroke="none" fill="white" font-size="16" x="106" y="48">
x1.sw_sample-2
</text>
<path stroke="green" d="M50 613l1 0 1 -9 0 -21 1 -21M53 580l0 -24M53 580l1 30M54 613l0 -3M54 613l63 0M117 620l0 -172M117 449l422 0M539 614l0 -171M539 613l422 0M961 618l0 -170 1 1 12 0"/>
<path stroke="#FFC0C5" d="M462 55l46 0"/>
<text stroke="none" fill="white" font-size="16" x="518" y="64">
x1.comp_out_p+2
</text>
<path stroke="#FFC0C5" d="M50 249l1 0 1 -9 0 -22 1 -18 0 -4M53 198l1 5M54 250l0 -47M54 248l1 1 539 0M594 253l0 -169M594 85l14 0M608 250l0 -173M608 249l39 0M647 252l0 -168M647 85l14 0M661 250l0 -172M661 249l66 0 0 -165M727 85l13 0M740 250l0 -173"/>
<path stroke="#FFC0C5" d="M740 249l40 0 0 -165M780 85l13 0M793 249l0 -174M793 249l14 0 0 -164 12 0M819 250l0 -171M819 249l41 0 0 -164 12 0M872 249l0 -174M872 249l14 0 0 -154 1 -10 11 0M898 249l0 -174M898 249l15 0 0 -165M913 85l12 0M925 250l0 -169"/>
<path stroke="#FFC0C5" d="M925 249l49 0"/>
<path stroke="#A52A2A" d="M50 55l46 0"/>
<text stroke="none" fill="white" font-size="16" x="106" y="64">
x1.comp_out_n-2
</text>
<path stroke="#A52A2A" d="M50 613l1 0 1 -9 0 -22 1 -19M53 564l0 -3M53 564l1 6M54 613l0 -43M54 613l488 0 0 -165M542 449l13 0M555 613l0 -173M555 613l13 0M568 614l0 -167M568 449l13 0 0 -3 1 106M582 614l0 -62M582 613l39 0M621 614l0 -166M621 449l13 0"/>
<path stroke="#A52A2A" d="M634 613l0 -172M634 613l39 0M673 615l0 -2M673 615l1 -114 0 -54M674 449l13 0M687 614l0 -174M687 613l13 0 0 -146 1 -18 0 -1M701 449l12 0 0 -9 1 165M714 613l0 -8M714 613l39 0 0 -165 1 0M754 449l0 -1M754 449l12 0M766 613l0 -173"/>
<path stroke="#A52A2A" d="M766 613l68 0 0 -165M834 449l11 0 0 -10 1 152M846 613l0 -22M846 613l91 0M937 620l0 -7M937 620l1 -145 0 -28M938 449l13 0M951 614l0 -168M951 613l23 0"/>
</svg>
