<?xml version="1.0" standalone="yes"?>
<!DOCTYPE svg PUBLIC "-//W3C//DTD SVG 1.1//EN"
 "http://www.w3.org/Graphics/SVG/1.1/DTD/svg11.dtd">
<svg xmlns="http://www.w3.org/2000/svg" version="1.1"
  width="100%" height="100%" viewBox="0 0 1024 768"
  style="fill: none; font-family: Helvetica;
 font: Helvetica;
">

<!-- Creator: NGspice -->

<rect x="0" y="0" width="1024" height="768" fill="black" stroke="none"/>
<text stroke="none" fill="white" font-size="16" x="358" y="752">
time
</text>
<text stroke="none" fill="white" font-size="16" x="10" y="16">
tran1: run1665_vin0.563816
</text>
<path stroke="white" d="M50 704l0 -637"/>
<text stroke="none" fill="white" font-size="16" x="35" y="728">
0.0
</text>
<path stroke="white" stroke-dasharray="1,2" d="M182 704l0 -637"/>
<text stroke="none" fill="white" font-size="16" x="157" y="728">
100.0
</text>
<path stroke="white" stroke-dasharray="1,2" d="M314 704l0 -637"/>
<text stroke="none" fill="white" font-size="16" x="289" y="728">
200.0
</text>
<path stroke="white" stroke-dasharray="1,2" d="M446 704l0 -637"/>
<text stroke="none" fill="white" font-size="16" x="421" y="728">
300.0
</text>
<path stroke="white" stroke-dasharray="1,2" d="M578 704l0 -637"/>
<text stroke="none" fill="white" font-size="16" x="553" y="728">
400.0
</text>
<path stroke="white" stroke-dasharray="1,2" d="M710 704l0 -637"/>
<text stroke="none" fill="white" font-size="16" x="685" y="728">
500.0
</text>
<path stroke="white" stroke-dasharray="1,2" d="M842 704l0 -637"/>
<text stroke="none" fill="white" font-size="16" x="817" y="728">
600.0
</text>
<path stroke="white" stroke-dasharray="1,2" d="M974 704l0 -637"/>
<text stroke="none" fill="white" font-size="16" x="949" y="728">
700.0
</text>
<text stroke="none" fill="white" font-size="16" x="614" y="752">
ns
</text>
<path stroke="white" stroke-dasharray="1,2" d="M50 704l924 0"/>
<text stroke="none" fill="white" font-size="16" x="8" y="712">
-3.0
</text>
<path stroke="white" stroke-dasharray="1,2" d="M50 613l924 0"/>
<text stroke="none" fill="white" font-size="16" x="8" y="621">
-2.0
</text>
<path stroke="white" stroke-dasharray="1,2" d="M50 522l924 0"/>
<text stroke="none" fill="white" font-size="16" x="8" y="530">
-1.0
</text>
<path stroke="white" d="M50 431l924 0"/>
<text stroke="none" fill="white" font-size="16" x="18" y="439">
0.0
</text>
<path stroke="white" stroke-dasharray="1,2" d="M50 340l924 0"/>
<text stroke="none" fill="white" font-size="16" x="18" y="348">
1.0
</text>
<path stroke="white" stroke-dasharray="1,2" d="M50 249l924 0"/>
<text stroke="none" fill="white" font-size="16" x="18" y="257">
2.0
</text>
<path stroke="white" stroke-dasharray="1,2" d="M50 158l924 0"/>
<text stroke="none" fill="white" font-size="16" x="18" y="166">
3.0
</text>
<path stroke="white" stroke-dasharray="1,2" d="M50 67l924 0"/>
<text stroke="none" fill="white" font-size="16" x="18" y="75">
4.0
</text>
<text stroke="none" fill="white" font-size="16" x="10" y="32">
     
</text>
<path stroke="red" d="M462 23l46 0"/>
<text stroke="none" fill="white" font-size="16" x="518" y="32">
x1.vsampled_p
</text>
<path stroke="red" d="M50 431l1 0 1 -7 0 -15 1 -15 0 -4 1 1M54 414l0 -37 1 -3 0 -18 1 -2 0 -2 1 -2 2 0 1 -1 4 0M64 350l0 -1M64 350l4 0 1 -1 48 0 0 -1 1 -10 0 -22 1 -5 0 -7 1 -3 0 -2 1 0 1 -1 418 0M540 299l0 -1 27 0M567 299l0 -1 7 0M574 321l0 -23"/>
<path stroke="red" d="M574 321l1 9M575 337l0 -7M575 337l1 2 24 0M600 351l0 -12M600 351l1 2M601 360l0 -7M601 360l1 0 0 -1 17 0M619 360l0 -1 6 0 0 -8 1 -1 0 -7 1 0 0 -1 6 0 0 -1 13 0M646 342l0 -1M646 342l13 0 0 -1 13 0M672 342l0 -1M672 342l7 0"/>
<path stroke="red" d="M679 347l0 -6M679 347l1 0M680 348l0 -1 6 0 0 -1M686 347l20 0M706 350l0 -3M706 349l213 0 0 -15 1 -1 0 -19 1 -2 0 -8 1 -1 0 -3 1 0 0 -2 13 0M936 299l0 -1 38 0"/>
<path stroke="blue" d="M50 23l46 0"/>
<text stroke="none" fill="white" font-size="16" x="106" y="32">
x1.vsampled_n
</text>
<path stroke="blue" d="M50 431l1 0 1 -7 0 -15 1 -14 0 -5 1 2M54 414l0 -37 1 -3 0 -18 1 -2 0 -2 1 -2 2 0 1 -1 4 0M64 350l0 -1M64 350l4 0 1 -1 48 0M117 361l0 -12M117 361l1 13M118 389l0 -15M118 389l1 3M119 396l0 -4M119 396l1 2M120 399l0 -1M120 399l1 1"/>
<path stroke="blue" d="M121 400l418 0M539 401l0 -1M539 401l1 0 1 -1M541 401l0 -1M541 401l5 0 0 -24 1 -3 0 -26 1 -3 0 -3 1 -1 0 -1 1 0 0 -1 17 0M567 340l0 -1 26 0M593 340l0 -1 26 0M619 340l0 -1 27 0M646 340l0 -1 7 0M653 349l0 -10M653 349l1 2M654 352l0 -1"/>
<path stroke="blue" d="M654 351l2 -2 16 0M672 350l0 -1 26 0 1 1 0 -1 26 0M725 350l0 -1 7 0 0 -3 1 1 18 0M751 348l0 -1 8 0M759 350l0 -3M759 349l6 0 0 -1 13 0M778 349l0 -1M778 349l7 0 1 1 0 -1 18 0M804 350l0 -1 10 0M814 350l0 -1M814 350l1 0 0 -1"/>
<path stroke="blue" d="M815 349l15 0 1 1 0 -1 26 0M857 350l0 -1 26 0M883 350l0 -1 27 0M910 350l0 -1 9 0M919 373l0 -28M919 373l1 3M920 406l0 -30M920 406l1 0 0 -3 1 0 0 -2 14 0 0 -1M936 401l14 0 0 -1M950 401l11 0 0 -1 13 0"/>
<path stroke="#FFA500" d="M462 39l46 0"/>
<text stroke="none" fill="white" font-size="16" x="518" y="48">
x1.vsampled_p-x1.vsampled_n
</text>
<path stroke="#FFA500" d="M50 431l2 0 1 -1 1 0M54 431l0 -1M54 431l63 0 0 -13 1 -24 0 -36 1 -8 0 -12 1 -4 0 -3 2 -2 1 0 1 -1 415 0M539 329l0 -1M539 329l1 0 0 -1M540 329l6 0M546 352l0 -23M546 352l1 4M547 381l0 -25M547 381l1 3M548 387l0 -3M548 387l1 1"/>
<path stroke="#FFA500" d="M549 389l0 -1M549 389l1 1 17 0M567 391l0 -2M567 390l7 0M574 413l0 -23M574 413l1 8M575 429l0 -8M575 429l1 2 17 0 0 -1M593 431l7 0M600 443l0 -13M600 443l1 2M601 452l0 -7M601 452l1 -1 23 0 0 -8 1 -1 0 -7 2 -2 25 0 0 -10"/>
<path stroke="#FFA500" d="M653 423l1 -2 0 -1M654 421l1 1M655 423l0 -1M655 423l24 0M679 428l0 -5M679 428l1 1 0 -1 26 0M706 431l0 -3M706 431l26 0M732 434l0 -3M732 434l1 0 0 -1 26 0 0 -3M759 432l26 0 0 -1 1 -1M786 431l0 -1M786 431l28 0 0 -1M814 431l105 0"/>
<path stroke="#FFA500" d="M919 431l0 -39 1 -4 0 -49 1 -2 0 -5 1 0 0 -2 1 0 0 -1 2 0 0 -1 11 0M936 330l0 -2M936 329l14 0 0 -1 24 0"/>
<path stroke="green" d="M50 39l46 0"/>
<text stroke="none" fill="white" font-size="16" x="106" y="48">
x1.sw_sample-2
</text>
<path stroke="green" d="M50 613l1 0 1 -9 0 -21 1 -21M53 580l0 -24M53 580l1 30M54 613l0 -3M54 613l63 0M117 620l0 -172M117 449l422 0M539 614l0 -171M539 613l422 0M961 618l0 -170 1 1 12 0"/>
<path stroke="#FFC0C5" d="M462 55l46 0"/>
<text stroke="none" fill="white" font-size="16" x="518" y="64">
x1.comp_out_p+2
</text>
<path stroke="#FFC0C5" d="M50 249l1 0 1 -9 0 -22 1 -18 0 -4M53 198l1 5M54 251l0 -48M54 248l1 1 486 0 1 1 0 -166M542 85l13 0M555 250l0 -167M555 249l13 0M568 250l0 -167M568 85l13 0 0 -8 1 154M582 249l0 -18M582 249l12 0 0 -165 1 0M595 85l0 -1M595 85l13 0"/>
<path stroke="#FFC0C5" d="M608 250l0 -172M608 249l65 0M673 250l0 -60 1 -91 0 -15M674 85l13 0M687 249l0 -172M687 249l13 0 0 -165M700 85l13 0 0 -9 1 135M714 250l0 -39M714 249l14 0 0 -165M728 85l12 0M740 250l0 -172M740 249l93 0 1 -150 0 -15M834 85l11 0"/>
<path stroke="#FFC0C5" d="M845 85l0 -7 1 146M846 249l0 -25M846 249l91 0 0 -21 1 -120 0 -25M938 85l13 0M951 250l0 -167M951 249l23 0"/>
<path stroke="#A52A2A" d="M50 55l46 0"/>
<text stroke="none" fill="white" font-size="16" x="106" y="64">
x1.comp_out_n-2
</text>
<path stroke="#A52A2A" d="M50 613l1 0 1 -9 0 -22 1 -19M53 564l0 -3M53 564l1 6M54 614l0 -93 1 87M55 613l0 -5M55 613l566 0 0 -165M621 449l13 0M634 613l0 -173M634 613l13 0M647 614l0 -167M647 449l14 0M661 613l0 -174M661 613l12 0 1 1 0 -1 79 0 0 -165"/>
<path stroke="#A52A2A" d="M753 449l13 0M766 613l0 -173M766 613l14 0 0 -165M780 449l13 0M793 613l0 -173M793 613l16 0 0 -165M809 449l10 0M819 613l0 -172M819 613l41 0 0 -165 1 1 11 0M872 613l0 -173M872 613l16 0 0 -164 10 0M898 613l0 -173M898 613l16 0"/>
<path stroke="#A52A2A" d="M914 613l0 -165 1 1 10 0M925 613l0 -173M925 613l49 0"/>
</svg>
