<?xml version="1.0" standalone="yes"?>
<!DOCTYPE svg PUBLIC "-//W3C//DTD SVG 1.1//EN"
 "http://www.w3.org/Graphics/SVG/1.1/DTD/svg11.dtd">
<svg xmlns="http://www.w3.org/2000/svg" version="1.1"
  width="100%" height="100%" viewBox="0 0 1024 768"
  style="fill: none; font-family: Helvetica;
 font: Helvetica;
">

<!-- Creator: NGspice -->

<rect x="0" y="0" width="1024" height="768" fill="black" stroke="none"/>
<text stroke="none" fill="white" font-size="16" x="358" y="752">
time
</text>
<text stroke="none" fill="white" font-size="16" x="10" y="16">
tran1: run1667_vin0.565574
</text>
<path stroke="white" d="M50 704l0 -637"/>
<text stroke="none" fill="white" font-size="16" x="35" y="728">
0.0
</text>
<path stroke="white" stroke-dasharray="1,2" d="M182 704l0 -637"/>
<text stroke="none" fill="white" font-size="16" x="157" y="728">
100.0
</text>
<path stroke="white" stroke-dasharray="1,2" d="M314 704l0 -637"/>
<text stroke="none" fill="white" font-size="16" x="289" y="728">
200.0
</text>
<path stroke="white" stroke-dasharray="1,2" d="M446 704l0 -637"/>
<text stroke="none" fill="white" font-size="16" x="421" y="728">
300.0
</text>
<path stroke="white" stroke-dasharray="1,2" d="M578 704l0 -637"/>
<text stroke="none" fill="white" font-size="16" x="553" y="728">
400.0
</text>
<path stroke="white" stroke-dasharray="1,2" d="M710 704l0 -637"/>
<text stroke="none" fill="white" font-size="16" x="685" y="728">
500.0
</text>
<path stroke="white" stroke-dasharray="1,2" d="M842 704l0 -637"/>
<text stroke="none" fill="white" font-size="16" x="817" y="728">
600.0
</text>
<path stroke="white" stroke-dasharray="1,2" d="M974 704l0 -637"/>
<text stroke="none" fill="white" font-size="16" x="949" y="728">
700.0
</text>
<text stroke="none" fill="white" font-size="16" x="614" y="752">
ns
</text>
<path stroke="white" stroke-dasharray="1,2" d="M50 704l924 0"/>
<text stroke="none" fill="white" font-size="16" x="8" y="712">
-3.0
</text>
<path stroke="white" stroke-dasharray="1,2" d="M50 613l924 0"/>
<text stroke="none" fill="white" font-size="16" x="8" y="621">
-2.0
</text>
<path stroke="white" stroke-dasharray="1,2" d="M50 522l924 0"/>
<text stroke="none" fill="white" font-size="16" x="8" y="530">
-1.0
</text>
<path stroke="white" d="M50 431l924 0"/>
<text stroke="none" fill="white" font-size="16" x="18" y="439">
0.0
</text>
<path stroke="white" stroke-dasharray="1,2" d="M50 340l924 0"/>
<text stroke="none" fill="white" font-size="16" x="18" y="348">
1.0
</text>
<path stroke="white" stroke-dasharray="1,2" d="M50 249l924 0"/>
<text stroke="none" fill="white" font-size="16" x="18" y="257">
2.0
</text>
<path stroke="white" stroke-dasharray="1,2" d="M50 158l924 0"/>
<text stroke="none" fill="white" font-size="16" x="18" y="166">
3.0
</text>
<path stroke="white" stroke-dasharray="1,2" d="M50 67l924 0"/>
<text stroke="none" fill="white" font-size="16" x="18" y="75">
4.0
</text>
<text stroke="none" fill="white" font-size="16" x="10" y="32">
     
</text>
<path stroke="red" d="M462 23l46 0"/>
<text stroke="none" fill="white" font-size="16" x="518" y="32">
x1.vsampled_p
</text>
<path stroke="red" d="M50 431l1 0 1 -7 0 -15 1 -15 0 -4 1 1M54 414l0 -37 1 -3 0 -18 1 -2 0 -2 1 -2 2 0 1 -1 4 0M64 350l0 -1M64 350l4 0 1 -1 48 0 0 -1 1 -10 0 -27 1 -4 0 -3 1 -3 0 -2 1 -1 419 0M540 299l0 -1 14 0 0 -1M554 298l13 0M567 299l0 -1"/>
<path stroke="red" d="M567 298l7 0M574 319l0 -21M574 319l1 8M575 337l0 -10M575 337l1 1M576 339l0 -1M576 339l4 0 0 -1M580 339l20 0M600 352l0 -14M600 352l1 3M601 360l0 -5M601 360l1 -1 23 0 0 -6 1 -2 0 -8 1 -1 1 0 0 -1 18 0M646 342l0 -1 26 0M672 342l0 -1"/>
<path stroke="red" d="M672 341l7 0M679 346l0 -5M679 346l1 1M680 348l0 -2 18 0 1 1 0 -1 7 0M706 350l0 -4M706 349l106 0M812 350l0 -1M812 350l1 -1 18 0M831 350l0 -1 87 0M918 350l0 -28 1 -2 0 -12 1 -3 0 -3 1 -2 0 -1 1 0 0 -1 1 0 0 -1M923 298l13 0"/>
<path stroke="red" d="M936 299l0 -1 14 0 0 -1M950 298l24 0"/>
<path stroke="blue" d="M50 23l46 0"/>
<text stroke="none" fill="white" font-size="16" x="106" y="32">
x1.vsampled_n
</text>
<path stroke="blue" d="M50 431l1 0 1 -7 0 -15 1 -14 0 -5 1 2M54 414l0 -37 1 -3 0 -18 1 -2 0 -2 1 -2 2 0 1 -1 4 0M64 350l0 -1M64 350l4 0 1 -1 48 0M117 361l0 -12M117 361l1 14M118 392l0 -17M118 392l1 2M119 397l0 -3M119 397l1 1M120 399l0 -1M120 399l1 1"/>
<path stroke="blue" d="M121 400l1 0 1 1 418 0 0 -1M541 401l5 0 0 -20 1 -3 0 -28 1 -4 0 -3 1 -1 0 -2 2 0 0 -1 15 0 1 1 0 -1 26 0M593 340l0 -1 26 0M619 340l0 -1M619 340l1 0 0 -1 26 0M646 340l0 -1 7 0M653 350l0 -11M653 350l1 2 0 -1 1 -1 4 0 0 -1"/>
<path stroke="blue" d="M659 350l27 0 0 -1M686 350l26 0 0 -1M712 350l20 0 0 -4 1 0M733 347l0 -1M733 347l18 0M751 348l0 -1M751 348l1 0 0 -1 7 0M759 350l0 -3M759 349l6 0 0 -1M765 349l21 0M786 350l0 -1 18 0M804 350l0 -1 27 0M831 350l0 -1 26 0M857 350l0 -1"/>
<path stroke="blue" d="M857 349l26 0M883 350l0 -1M883 350l1 -1 26 0M910 350l0 -1 8 0M918 402l0 -56M918 402l1 3M919 407l0 -2 1 -2 0 -1 1 -1 41 0 0 -1M962 401l12 0"/>
<path stroke="#FFA500" d="M462 39l46 0"/>
<text stroke="none" fill="white" font-size="16" x="518" y="48">
x1.vsampled_p-x1.vsampled_n
</text>
<path stroke="#FFA500" d="M50 431l2 0 1 -1 1 0M54 431l0 -1M54 431l63 0 0 -13 1 -24 0 -45 1 -6 0 -5 1 -4 0 -3 1 -2 1 0 0 -1 418 0M540 329l0 -1 6 0M546 348l0 -20M546 348l1 3M547 379l0 -28M547 379l1 4M548 386l0 -3M548 386l1 1M549 389l0 -2M549 389l2 0"/>
<path stroke="#FFA500" d="M551 390l0 -1M551 390l3 0 0 -1 12 0 1 1 0 -1M567 390l7 0M574 411l0 -22M574 411l1 8M575 428l0 -9M575 428l1 2 4 0M580 431l0 -1 20 0M600 444l0 -14M600 444l1 2M601 452l0 -6M601 452l1 -1 17 0 0 -1M619 451l6 0 0 -7 1 -1 0 -8"/>
<path stroke="#FFA500" d="M626 435l1 -1 0 -1 26 0 0 -10 1 -2 0 -1M654 421l1 1M655 423l0 -1M655 423l17 0 0 -1M672 423l7 0M679 428l0 -5M679 428l1 1 0 -1 26 0M706 431l0 -3M706 431l1 0 0 -1 25 0M732 434l0 -4M732 434l1 0 0 -1 18 0 0 -1M751 433l8 0"/>
<path stroke="#FFA500" d="M759 433l0 -3M759 431l27 0 0 -1M786 431l53 0 1 -1M840 431l0 -1M840 431l78 0 0 -80 1 -5 0 -12 1 -2 0 -1 1 -1 0 -1 1 0 1 -1 13 0M936 329l0 -1 38 0"/>
<path stroke="green" d="M50 39l46 0"/>
<text stroke="none" fill="white" font-size="16" x="106" y="48">
x1.sw_sample-2
</text>
<path stroke="green" d="M50 613l1 0 1 -9 0 -21 1 -21M53 580l0 -24M53 580l1 30M54 613l0 -3M54 613l63 0M117 620l0 -172M117 449l422 0M539 614l0 -171M539 613l422 0M961 618l0 -170 1 1 12 0"/>
<path stroke="#FFC0C5" d="M462 55l46 0"/>
<text stroke="none" fill="white" font-size="16" x="518" y="64">
x1.comp_out_p+2
</text>
<path stroke="#FFC0C5" d="M50 249l1 0 1 -9 0 -22 1 -18 0 -4M53 198l1 5M54 251l0 -48M54 248l1 1 486 0 1 1 0 -166M542 85l13 0M555 250l0 -166M555 249l13 0 0 -166M568 85l13 0 0 -8 1 154M582 249l0 -18M582 249l12 0 0 -165 1 1 13 0M608 250l0 -168M608 249l65 0"/>
<path stroke="#FFC0C5" d="M673 249l0 -6 1 -131 0 -29M674 85l13 0M687 250l0 -173M687 249l13 0M700 251l0 -168M700 85l13 0 0 -2 1 151M714 249l0 -15M714 249l14 0 0 -164 12 0M740 249l0 -171M740 249l67 0 0 -165M807 85l12 0M819 250l0 -171M819 249l41 0"/>
<path stroke="#FFC0C5" d="M860 249l0 -165M860 85l12 0M872 249l0 -174M872 249l14 0 0 -164 1 -1M887 85l0 -1M887 85l11 0M898 249l0 -174M898 249l15 0 0 -165M913 85l12 0M925 249l0 -172M925 249l12 0M937 250l0 -1M937 250l1 -82 0 -84M938 85l13 0M951 250l0 -166"/>
<path stroke="#FFC0C5" d="M951 249l23 0"/>
<path stroke="#A52A2A" d="M50 55l46 0"/>
<text stroke="none" fill="white" font-size="16" x="106" y="64">
x1.comp_out_n-2
</text>
<path stroke="#A52A2A" d="M50 613l1 0 1 -9 0 -22 1 -19M53 564l0 -3M53 564l1 6M54 614l0 -93 1 87M55 613l0 -5M55 613l566 0 0 -166M621 449l13 0M634 613l0 -166M634 613l13 0M647 618l0 -171M647 449l14 0M661 613l0 -173M661 613l92 0 0 -165M753 449l13 0"/>
<path stroke="#A52A2A" d="M766 613l0 -168M766 613l14 0 0 -165 1 0M781 449l0 -1M781 449l12 0M793 613l0 -173M793 613l42 0 0 -158 1 -7M836 449l0 -1M836 449l9 0 0 -4 1 35M846 613l0 -133M846 613l128 0"/>
</svg>
