<?xml version="1.0" standalone="yes"?>
<!DOCTYPE svg PUBLIC "-//W3C//DTD SVG 1.1//EN"
 "http://www.w3.org/Graphics/SVG/1.1/DTD/svg11.dtd">
<svg xmlns="http://www.w3.org/2000/svg" version="1.1"
  width="100%" height="100%" viewBox="0 0 1024 768"
  style="fill: none; font-family: Helvetica;
 font: Helvetica;
">

<!-- Creator: NGspice -->

<rect x="0" y="0" width="1024" height="768" fill="black" stroke="none"/>
<text stroke="none" fill="white" font-size="16" x="358" y="752">
time
</text>
<text stroke="none" fill="white" font-size="16" x="10" y="16">
tran1: run1364_vin0.299266
</text>
<path stroke="white" d="M50 704l0 -637"/>
<text stroke="none" fill="white" font-size="16" x="35" y="728">
0.0
</text>
<path stroke="white" stroke-dasharray="1,2" d="M182 704l0 -637"/>
<text stroke="none" fill="white" font-size="16" x="157" y="728">
100.0
</text>
<path stroke="white" stroke-dasharray="1,2" d="M314 704l0 -637"/>
<text stroke="none" fill="white" font-size="16" x="289" y="728">
200.0
</text>
<path stroke="white" stroke-dasharray="1,2" d="M446 704l0 -637"/>
<text stroke="none" fill="white" font-size="16" x="421" y="728">
300.0
</text>
<path stroke="white" stroke-dasharray="1,2" d="M578 704l0 -637"/>
<text stroke="none" fill="white" font-size="16" x="553" y="728">
400.0
</text>
<path stroke="white" stroke-dasharray="1,2" d="M710 704l0 -637"/>
<text stroke="none" fill="white" font-size="16" x="685" y="728">
500.0
</text>
<path stroke="white" stroke-dasharray="1,2" d="M842 704l0 -637"/>
<text stroke="none" fill="white" font-size="16" x="817" y="728">
600.0
</text>
<path stroke="white" stroke-dasharray="1,2" d="M974 704l0 -637"/>
<text stroke="none" fill="white" font-size="16" x="949" y="728">
700.0
</text>
<text stroke="none" fill="white" font-size="16" x="614" y="752">
ns
</text>
<path stroke="white" stroke-dasharray="1,2" d="M50 704l924 0"/>
<text stroke="none" fill="white" font-size="16" x="8" y="712">
-3.0
</text>
<path stroke="white" stroke-dasharray="1,2" d="M50 613l924 0"/>
<text stroke="none" fill="white" font-size="16" x="8" y="621">
-2.0
</text>
<path stroke="white" stroke-dasharray="1,2" d="M50 522l924 0"/>
<text stroke="none" fill="white" font-size="16" x="8" y="530">
-1.0
</text>
<path stroke="white" d="M50 431l924 0"/>
<text stroke="none" fill="white" font-size="16" x="18" y="439">
0.0
</text>
<path stroke="white" stroke-dasharray="1,2" d="M50 340l924 0"/>
<text stroke="none" fill="white" font-size="16" x="18" y="348">
1.0
</text>
<path stroke="white" stroke-dasharray="1,2" d="M50 249l924 0"/>
<text stroke="none" fill="white" font-size="16" x="18" y="257">
2.0
</text>
<path stroke="white" stroke-dasharray="1,2" d="M50 158l924 0"/>
<text stroke="none" fill="white" font-size="16" x="18" y="166">
3.0
</text>
<path stroke="white" stroke-dasharray="1,2" d="M50 67l924 0"/>
<text stroke="none" fill="white" font-size="16" x="18" y="75">
4.0
</text>
<text stroke="none" fill="white" font-size="16" x="10" y="32">
     
</text>
<path stroke="red" d="M462 23l46 0"/>
<text stroke="none" fill="white" font-size="16" x="518" y="32">
x1.vsampled_p
</text>
<path stroke="red" d="M50 431l1 0 1 -7 0 -15 1 -15 0 -4 1 1M54 415l0 -40 1 -4 0 -14 1 -2 0 -3 2 -2 1 0 1 -1 3 0 1 1 4 0 1 -1 48 0 0 -1 1 -7 0 -12 1 -3 1 -2 0 -1 1 -1 419 0M540 323l0 -1 27 0M567 323l0 -1 26 0M593 323l0 -1 7 0M600 337l0 -15M600 337l1 3"/>
<path stroke="red" d="M601 346l0 -6M601 344l1 0 0 -1 4 0 0 -1 13 0M619 343l0 -1M619 343l14 0 0 -1 13 0M646 343l0 -1M646 343l13 0 0 -1 13 0M672 343l0 -1M672 343l7 0M679 347l0 -5M679 347l1 1M680 349l0 -1 6 0 0 -1M686 348l20 0M706 351l0 -3M706 351l1 0"/>
<path stroke="red" d="M707 351l0 -1 24 0 0 -2 1 -1M732 348l0 -1M732 348l27 0M759 350l0 -2M759 349l19 0M778 350l0 -1 26 0M804 350l0 -1 27 0M831 350l0 -1 26 0M857 350l0 -1 26 0M883 350l0 -1 27 0M910 350l0 -1 7 0 1 -5 0 -20 1 -1 0 -1 17 0M936 323l0 -1"/>
<path stroke="red" d="M936 322l38 0"/>
<path stroke="blue" d="M50 23l46 0"/>
<text stroke="none" fill="white" font-size="16" x="106" y="32">
x1.vsampled_n
</text>
<path stroke="blue" d="M50 431l1 0 1 -7 0 -15 1 -14 0 -5 1 2M54 415l0 -40 1 -4 0 -14 1 -2 0 -3 2 -2 1 0 1 -1 3 0 1 1 4 0 1 -1 48 0M117 354l0 -5M117 354l1 7M118 371l0 -10M118 371l2 4M120 376l0 -1M120 376l420 0M540 377l0 -1 6 0M546 377l0 -25 1 -3"/>
<path stroke="blue" d="M547 349l0 -22 1 -4 0 -6 1 -1 1 0 0 -1 16 0 1 1 0 -1 7 0M574 347l0 -32M574 347l1 3M575 358l0 -8M575 358l1 0 0 -1 1 -1 48 0 0 -7 1 -4 0 -7 20 0M646 339l0 -1 7 0M653 349l0 -11M653 349l1 1 0 -1 1 0 0 -1 17 0M672 349l0 -1 26 0"/>
<path stroke="blue" d="M698 348l1 1 0 -1 26 0M725 349l0 -1 26 0M751 349l0 -1M751 349l1 0 0 -1 26 0M778 349l0 -1 7 0M785 349l0 -1M785 349l1 1 0 -1 26 0M812 350l0 -1M812 350l1 0 0 -1 17 0 1 1 0 -1 86 0M917 350l0 -1 1 1M918 381l0 -31M918 381l1 -1"/>
<path stroke="blue" d="M919 380l0 -2 1 -1 3 0 0 -1 13 0M936 377l0 -1 38 0"/>
<path stroke="#FFA500" d="M462 39l46 0"/>
<text stroke="none" fill="white" font-size="16" x="518" y="48">
x1.vsampled_p-x1.vsampled_n
</text>
<path stroke="#FFA500" d="M50 431l67 0 0 -5 1 -16 0 -20 1 -7 1 -3 0 -2 1 -1 425 0M546 401l0 -25M546 401l1 4M547 426l0 -21M547 426l1 4M548 436l0 -6M548 436l2 2 24 0 0 -32 1 -2 0 -9 1 0M576 396l0 -1M576 396l1 1 16 0M593 398l0 -1 7 0M600 412l0 -15"/>
<path stroke="#FFA500" d="M600 412l1 3M601 421l0 -6M601 419l1 0 0 -1 4 0 0 -1 13 0M619 418l0 -1 1 0M620 418l0 -1M620 418l5 0M625 425l0 -7M625 425l1 3M626 435l0 -7M626 435l1 0M627 436l0 -1M627 436l1 0 1 -1 4 0M633 436l0 -1 20 0 0 -10 1 -2M654 425l0 -2"/>
<path stroke="#FFA500" d="M654 425l25 0M679 430l0 -5M679 430l1 1M680 432l0 -1 1 -1 25 0M706 434l0 -4M706 434l1 0 0 -1 24 0 0 -3 2 0M733 431l0 -1M733 431l18 0 0 -1 1 0M752 431l0 -1M752 431l7 0M759 433l0 -2M759 432l26 0 0 -1 27 0 0 -1 1 1 25 0"/>
<path stroke="#FFA500" d="M838 432l0 -1M838 432l1 0 0 -1 78 0 0 -1M917 431l1 -6 0 -51 1 0M919 375l0 -1M919 375l1 0M920 376l0 -1M920 376l1 1 2 0 0 -1M923 377l27 0 0 -1M950 377l24 0"/>
<path stroke="green" d="M50 39l46 0"/>
<text stroke="none" fill="white" font-size="16" x="106" y="48">
x1.sw_sample-2
</text>
<path stroke="green" d="M50 613l1 0 1 -9 0 -21 1 -21M53 581l0 -25M53 581l1 29M54 613l0 -3M54 613l63 0M117 620l0 -172M117 449l422 0M539 614l0 -171M539 613l422 0M961 618l0 -170 1 1 12 0"/>
<path stroke="#FFC0C5" d="M462 55l46 0"/>
<text stroke="none" fill="white" font-size="16" x="518" y="64">
x1.comp_out_p+2
</text>
<path stroke="#FFC0C5" d="M50 249l1 0 1 -9 0 -22 1 -18 0 -4M53 198l1 5M54 249l0 -46M54 248l1 1 486 0 1 1 0 -166M542 85l13 0M555 250l0 -167M555 249l39 0 0 -166M594 85l14 0M608 250l0 -173M608 249l13 0 0 -165M621 85l13 0M634 249l0 -172M634 249l39 0"/>
<path stroke="#FFC0C5" d="M673 252l0 -3M673 252l1 -120 0 -49M674 85l13 0M687 250l0 -173M687 249l13 0 0 -139 1 -25 0 -1M701 85l12 0 0 -8 1 161M714 249l0 -11M714 249l39 0 0 -163 1 -2M754 85l0 -1M754 85l12 0M766 250l0 -171M766 250l1 -1 67 0 0 -164"/>
<path stroke="#FFC0C5" d="M834 85l11 0 0 -9 1 138M846 249l0 -35M846 249l91 0M937 250l0 -1M937 250l1 -72 0 -94M938 85l13 0M951 249l0 -172M951 249l23 0"/>
<path stroke="#A52A2A" d="M50 55l46 0"/>
<text stroke="none" fill="white" font-size="16" x="106" y="64">
x1.comp_out_n-2
</text>
<path stroke="#A52A2A" d="M50 613l1 0 1 -9 0 -22 1 -19M53 564l0 -3M53 564l1 6M54 614l0 -44M54 612l1 1 513 0 0 -166M568 449l13 0 0 -9 1 161M582 613l0 -12M582 613l65 0M647 614l0 -167M647 449l14 0M661 614l0 -172M661 613l66 0 0 -165M727 449l13 0"/>
<path stroke="#A52A2A" d="M740 614l0 -174M740 613l40 0 0 -165M780 449l13 0M793 614l0 -169M793 613l14 0 0 -165 1 1 11 0M819 613l0 -170M819 613l41 0 0 -164 12 0M872 614l0 -169M872 613l14 0 0 -158 1 -7M887 449l0 -1M887 449l11 0M898 614l0 -169M898 613l14 0"/>
<path stroke="#A52A2A" d="M912 613l1 -158 0 -7M913 449l12 0M925 613l0 -169M925 613l13 0M938 614l0 -1 36 0"/>
</svg>
