<?xml version="1.0" standalone="yes"?>
<!DOCTYPE svg PUBLIC "-//W3C//DTD SVG 1.1//EN"
 "http://www.w3.org/Graphics/SVG/1.1/DTD/svg11.dtd">
<svg xmlns="http://www.w3.org/2000/svg" version="1.1"
  width="100%" height="100%" viewBox="0 0 1024 768"
  style="fill: none; font-family: Helvetica;
 font: Helvetica;
">

<!-- Creator: NGspice -->

<rect x="0" y="0" width="1024" height="768" fill="black" stroke="none"/>
<text stroke="none" fill="white" font-size="16" x="358" y="752">
time
</text>
<text stroke="none" fill="white" font-size="16" x="10" y="16">
tran1: run1558_vin0.469773
</text>
<path stroke="white" d="M50 704l0 -637"/>
<text stroke="none" fill="white" font-size="16" x="35" y="728">
0.0
</text>
<path stroke="white" stroke-dasharray="1,2" d="M182 704l0 -637"/>
<text stroke="none" fill="white" font-size="16" x="157" y="728">
100.0
</text>
<path stroke="white" stroke-dasharray="1,2" d="M314 704l0 -637"/>
<text stroke="none" fill="white" font-size="16" x="289" y="728">
200.0
</text>
<path stroke="white" stroke-dasharray="1,2" d="M446 704l0 -637"/>
<text stroke="none" fill="white" font-size="16" x="421" y="728">
300.0
</text>
<path stroke="white" stroke-dasharray="1,2" d="M578 704l0 -637"/>
<text stroke="none" fill="white" font-size="16" x="553" y="728">
400.0
</text>
<path stroke="white" stroke-dasharray="1,2" d="M710 704l0 -637"/>
<text stroke="none" fill="white" font-size="16" x="685" y="728">
500.0
</text>
<path stroke="white" stroke-dasharray="1,2" d="M842 704l0 -637"/>
<text stroke="none" fill="white" font-size="16" x="817" y="728">
600.0
</text>
<path stroke="white" stroke-dasharray="1,2" d="M974 704l0 -637"/>
<text stroke="none" fill="white" font-size="16" x="949" y="728">
700.0
</text>
<text stroke="none" fill="white" font-size="16" x="614" y="752">
ns
</text>
<path stroke="white" stroke-dasharray="1,2" d="M50 704l924 0"/>
<text stroke="none" fill="white" font-size="16" x="8" y="712">
-3.0
</text>
<path stroke="white" stroke-dasharray="1,2" d="M50 613l924 0"/>
<text stroke="none" fill="white" font-size="16" x="8" y="621">
-2.0
</text>
<path stroke="white" stroke-dasharray="1,2" d="M50 522l924 0"/>
<text stroke="none" fill="white" font-size="16" x="8" y="530">
-1.0
</text>
<path stroke="white" d="M50 431l924 0"/>
<text stroke="none" fill="white" font-size="16" x="18" y="439">
0.0
</text>
<path stroke="white" stroke-dasharray="1,2" d="M50 340l924 0"/>
<text stroke="none" fill="white" font-size="16" x="18" y="348">
1.0
</text>
<path stroke="white" stroke-dasharray="1,2" d="M50 249l924 0"/>
<text stroke="none" fill="white" font-size="16" x="18" y="257">
2.0
</text>
<path stroke="white" stroke-dasharray="1,2" d="M50 158l924 0"/>
<text stroke="none" fill="white" font-size="16" x="18" y="166">
3.0
</text>
<path stroke="white" stroke-dasharray="1,2" d="M50 67l924 0"/>
<text stroke="none" fill="white" font-size="16" x="18" y="75">
4.0
</text>
<text stroke="none" fill="white" font-size="16" x="10" y="32">
     
</text>
<path stroke="red" d="M462 23l46 0"/>
<text stroke="none" fill="white" font-size="16" x="518" y="32">
x1.vsampled_p
</text>
<path stroke="red" d="M50 431l1 0 1 -7 0 -15 1 -15 0 -4 1 1M54 414l0 -39 1 -4 0 -14 1 -3 0 -2 2 -2 1 0 1 -1 4 0M64 350l0 -1M64 350l4 0 1 -1 48 0 0 -1 1 -9 0 -20 1 -4 0 -5 1 -2 1 -1 1 0 1 -1 416 0M539 307l0 -1M539 307l1 0M540 308l0 -1 14 0 0 -1"/>
<path stroke="red" d="M554 306l1 0M555 307l0 -1M555 307l11 0 0 -1M566 307l1 0M567 308l0 -1 7 0M574 330l0 -23M574 330l1 7M575 346l0 -9M575 346l1 1M576 348l0 -1M576 348l1 0 1 -1 15 0M593 348l0 -1 7 0M600 348l0 -1M600 348l1 0 0 -1 18 0M619 348l0 -1"/>
<path stroke="red" d="M619 348l1 0 0 -1 26 0M646 348l0 -1 26 0M672 348l0 -1 7 0M679 348l0 -1 1 1 0 -1 18 0 1 1 0 -1 7 0M706 350l0 -3M706 350l1 1 0 -1 24 0 0 -2 1 -1M732 348l0 -1M732 348l27 0M759 350l0 -2M759 349l54 0M813 350l0 -1 17 0 1 1 0 -1"/>
<path stroke="red" d="M831 349l87 0M918 350l0 -17 1 -2 0 -10 1 -4 0 -3 1 -3 0 -3 1 0 0 -1 1 0 0 -1M923 307l13 0M936 308l0 -2M936 307l14 0 0 -1 1 0M951 307l0 -1M951 307l10 0 0 -1 13 0"/>
<path stroke="blue" d="M50 23l46 0"/>
<text stroke="none" fill="white" font-size="16" x="106" y="32">
x1.vsampled_n
</text>
<path stroke="blue" d="M50 431l1 0 1 -7 0 -15 1 -14 0 -5 1 2M54 415l0 -40 1 -4 0 -14 1 -3 0 -2 2 -2 1 0 1 -1 4 0M64 350l0 -1M64 350l4 0 1 -1 48 0M117 358l0 -9M117 358l1 12M118 383l0 -13M118 383l1 3M119 389l0 -3M119 389l2 2M121 392l0 -1M121 392l425 0"/>
<path stroke="blue" d="M546 392l0 -22 1 -3 0 -26 1 -1 0 -6 1 -2 0 -1 5 0 0 -1M554 331l13 0M567 332l0 -1 13 0 0 -1M580 331l13 0M593 332l0 -1 7 0M600 352l0 -22M600 352l1 3M601 357l0 -2 1 -2 0 -2 23 0 1 -2 0 -17 1 0M627 333l0 -1M627 333l19 0M646 334l0 -1"/>
<path stroke="blue" d="M646 333l7 0M653 344l0 -11M653 344l1 2 0 -1 1 -1 4 0 0 -1 13 0M672 344l0 -1 1 0M673 344l0 -1M673 344l6 0M679 350l0 -7M679 350l1 1M680 352l0 -3 6 0 0 -1M686 349l12 0 0 -1M698 349l1 0 0 -1M699 349l13 0 0 -1M712 349l13 0 0 -1"/>
<path stroke="blue" d="M725 349l13 0 0 -1 1 0M739 349l0 -1M739 349l12 0 0 -1M751 349l1 0 0 -1M752 349l13 0 0 -1M765 349l13 0 0 -1M778 349l7 0 1 1 0 -1 18 0M804 350l0 -1 27 0M831 350l0 -1 26 0M857 350l0 -1 26 0M883 350l0 -1 27 0M910 350l0 -1 8 0"/>
<path stroke="blue" d="M918 374l0 -25M918 374l1 2M919 391l0 -15M919 391l1 2M920 394l0 -1M920 394l1 -1 0 -1 53 0"/>
<path stroke="#FFA500" d="M462 39l46 0"/>
<text stroke="none" fill="white" font-size="16" x="518" y="48">
x1.vsampled_p-x1.vsampled_n
</text>
<path stroke="#FFA500" d="M50 431l2 0 1 -1 1 0M54 431l0 -1M54 431l63 0 0 -10 1 -21 0 -32 1 -8 0 -8 1 -3 1 -2 0 -1 425 0M546 367l0 -21M546 367l1 3M547 396l0 -26M547 396l1 2M548 404l0 -6M548 404l1 1M549 406l0 -1M549 406l1 1 17 0 0 -1M567 407l7 0"/>
<path stroke="#FFA500" d="M574 430l0 -23M574 430l1 8M575 446l0 -8M575 446l1 1M576 448l0 -1M576 448l17 0 0 -1M593 448l7 0 0 -22 1 -2 0 -3M601 424l1 1M602 427l0 -2M602 427l23 0 1 2M626 446l0 -17M626 446l2 0 1 -1 4 0M633 446l0 -1 20 0 0 -11 1 -1"/>
<path stroke="#FFA500" d="M654 434l0 -2M654 434l1 0M655 435l0 -1M655 435l24 0 0 -7 1 -1M680 429l0 -2M680 429l1 1 25 0M706 433l0 -3M706 433l1 0 0 -1 5 0M712 433l0 -1 19 0 0 -2 28 0M759 432l0 -2M759 432l1 0 1 -1 4 0M765 432l0 -1M765 432l13 0 0 -1"/>
<path stroke="#FFA500" d="M778 431l7 0M785 432l0 -1 1 -1M786 431l0 -1M786 431l27 0M813 432l0 -1 105 0M918 432l0 -42 1 -4 0 -25 1 -7 0 -3 1 -3 0 -1 1 0 0 -1 1 0 0 -1M923 346l13 0M936 347l0 -1 14 0 0 -1M950 346l12 0 0 -1 2 0 1 1 9 0"/>
<path stroke="green" d="M50 39l46 0"/>
<text stroke="none" fill="white" font-size="16" x="106" y="48">
x1.sw_sample-2
</text>
<path stroke="green" d="M50 613l1 0 1 -9 0 -21 1 -21M53 580l0 -24M53 580l1 30M54 613l0 -3M54 613l63 0M117 620l0 -172M117 449l422 0M539 614l0 -171M539 613l422 0M961 618l0 -170 1 1 12 0"/>
<path stroke="#FFC0C5" d="M462 55l46 0"/>
<text stroke="none" fill="white" font-size="16" x="518" y="64">
x1.comp_out_p+2
</text>
<path stroke="#FFC0C5" d="M50 249l1 0 1 -9 0 -22 1 -18 0 -4M53 198l1 5M54 249l0 -46M54 249l488 0 0 -165M542 85l13 0M555 249l0 -172M555 249l13 0M568 250l0 -167M568 85l13 0 0 -8 1 158M582 249l0 -14M582 249l39 0 0 -165M621 85l13 0M634 249l0 -172"/>
<path stroke="#FFC0C5" d="M634 249l66 0 0 -165 1 0M701 85l0 -1M701 85l12 0 0 -3 1 27M714 250l0 -141M714 249l39 0 0 -165 1 1 12 0M766 250l0 -170M766 249l41 0 0 -163 1 -2M808 85l0 -1M808 85l11 0M819 249l0 -168M819 249l41 0 0 -165M860 85l12 0M872 249l0 -174"/>
<path stroke="#FFC0C5" d="M872 249l14 0 0 -157 1 -8M887 85l0 -1M887 85l11 0M898 249l0 -174M898 249l15 0 0 -165M913 85l12 0M925 249l0 -172M925 249l12 0 1 -41 0 -124M938 85l13 0M951 250l0 -169M951 249l23 0"/>
<path stroke="#A52A2A" d="M50 55l46 0"/>
<text stroke="none" fill="white" font-size="16" x="106" y="64">
x1.comp_out_n-2
</text>
<path stroke="#A52A2A" d="M50 613l1 0 1 -9 0 -22 1 -19M53 564l0 -3M53 564l1 6M54 614l0 -44M54 612l1 1 539 0 0 -166M594 449l14 0M608 614l0 -167M608 613l39 0 0 -165M647 449l14 0M661 614l0 -168M661 613l12 0M673 614l0 -1M673 614l1 -58 0 -109M674 449l13 0"/>
<path stroke="#A52A2A" d="M687 613l0 -172M687 613l40 0 0 -165M727 449l13 0M740 613l0 -167M740 613l40 0 0 -165M780 449l13 0M793 613l0 -167M793 613l41 0 0 -164 11 0 0 -2 1 155M846 613l0 -11M846 613l128 0"/>
</svg>
