<?xml version="1.0" standalone="yes"?>
<!DOCTYPE svg PUBLIC "-//W3C//DTD SVG 1.1//EN"
 "http://www.w3.org/Graphics/SVG/1.1/DTD/svg11.dtd">
<svg xmlns="http://www.w3.org/2000/svg" version="1.1"
  width="100%" height="100%" viewBox="0 0 1024 768"
  style="fill: none; font-family: Helvetica;
 font: Helvetica;
">

<!-- Creator: NGspice -->

<rect x="0" y="0" width="1024" height="768" fill="black" stroke="none"/>
<text stroke="none" fill="white" font-size="16" x="358" y="752">
time
</text>
<text stroke="none" fill="white" font-size="16" x="10" y="16">
tran1: run1556_vin0.468016
</text>
<path stroke="white" d="M50 704l0 -637"/>
<text stroke="none" fill="white" font-size="16" x="35" y="728">
0.0
</text>
<path stroke="white" stroke-dasharray="1,2" d="M182 704l0 -637"/>
<text stroke="none" fill="white" font-size="16" x="157" y="728">
100.0
</text>
<path stroke="white" stroke-dasharray="1,2" d="M314 704l0 -637"/>
<text stroke="none" fill="white" font-size="16" x="289" y="728">
200.0
</text>
<path stroke="white" stroke-dasharray="1,2" d="M446 704l0 -637"/>
<text stroke="none" fill="white" font-size="16" x="421" y="728">
300.0
</text>
<path stroke="white" stroke-dasharray="1,2" d="M578 704l0 -637"/>
<text stroke="none" fill="white" font-size="16" x="553" y="728">
400.0
</text>
<path stroke="white" stroke-dasharray="1,2" d="M710 704l0 -637"/>
<text stroke="none" fill="white" font-size="16" x="685" y="728">
500.0
</text>
<path stroke="white" stroke-dasharray="1,2" d="M842 704l0 -637"/>
<text stroke="none" fill="white" font-size="16" x="817" y="728">
600.0
</text>
<path stroke="white" stroke-dasharray="1,2" d="M974 704l0 -637"/>
<text stroke="none" fill="white" font-size="16" x="949" y="728">
700.0
</text>
<text stroke="none" fill="white" font-size="16" x="614" y="752">
ns
</text>
<path stroke="white" stroke-dasharray="1,2" d="M50 704l924 0"/>
<text stroke="none" fill="white" font-size="16" x="8" y="712">
-3.0
</text>
<path stroke="white" stroke-dasharray="1,2" d="M50 613l924 0"/>
<text stroke="none" fill="white" font-size="16" x="8" y="621">
-2.0
</text>
<path stroke="white" stroke-dasharray="1,2" d="M50 522l924 0"/>
<text stroke="none" fill="white" font-size="16" x="8" y="530">
-1.0
</text>
<path stroke="white" d="M50 431l924 0"/>
<text stroke="none" fill="white" font-size="16" x="18" y="439">
0.0
</text>
<path stroke="white" stroke-dasharray="1,2" d="M50 340l924 0"/>
<text stroke="none" fill="white" font-size="16" x="18" y="348">
1.0
</text>
<path stroke="white" stroke-dasharray="1,2" d="M50 249l924 0"/>
<text stroke="none" fill="white" font-size="16" x="18" y="257">
2.0
</text>
<path stroke="white" stroke-dasharray="1,2" d="M50 158l924 0"/>
<text stroke="none" fill="white" font-size="16" x="18" y="166">
3.0
</text>
<path stroke="white" stroke-dasharray="1,2" d="M50 67l924 0"/>
<text stroke="none" fill="white" font-size="16" x="18" y="75">
4.0
</text>
<text stroke="none" fill="white" font-size="16" x="10" y="32">
     
</text>
<path stroke="red" d="M462 23l46 0"/>
<text stroke="none" fill="white" font-size="16" x="518" y="32">
x1.vsampled_p
</text>
<path stroke="red" d="M50 431l1 0 1 -7 0 -15 1 -15 0 -4 1 1M54 414l0 -39 1 -4 0 -14 1 -3 0 -2 2 -2 1 0 1 -1 4 0M64 350l0 -1M64 350l4 0 1 -1 48 0 0 -1 1 -9 0 -20 1 -4 0 -5 1 -1 1 -2 419 0M540 308l0 -1 14 0 0 -1M554 307l13 0M567 308l0 -1 7 0M574 328l0 -21"/>
<path stroke="red" d="M574 328l1 9M575 346l0 -9M575 346l1 1M576 348l0 -1M576 348l4 0 0 -1M580 348l26 0 0 -1 1 1 26 0 0 -1M633 348l26 0 0 -1M659 348l27 0 0 -1M686 348l20 0M706 351l0 -3M706 351l1 0 0 -1 24 0 0 -2 1 -1M732 348l0 -1M732 348l27 0"/>
<path stroke="red" d="M759 350l0 -2M759 349l19 0M778 350l0 -1 26 0M804 350l0 -1 27 0M831 350l0 -1 26 0M857 350l0 -1 26 0M883 350l0 -1 27 0M910 350l0 -1 7 0M917 350l0 -1M917 350l1 -3 0 -20 1 -3 0 -7 1 -3 0 -4 1 -2 1 0 0 -1 1 0 0 -1M923 307l13 0"/>
<path stroke="red" d="M936 308l0 -1 14 0 0 -1M950 307l12 0 0 -1 2 0M964 307l0 -1M964 307l10 0"/>
<path stroke="blue" d="M50 23l46 0"/>
<text stroke="none" fill="white" font-size="16" x="106" y="32">
x1.vsampled_n
</text>
<path stroke="blue" d="M50 431l1 0 1 -7 0 -15 1 -14 0 -5 1 2M54 415l0 -40 1 -4 0 -14 1 -3 0 -2 2 -2 1 0 1 -1 4 0M64 350l0 -1M64 350l4 0 1 -1 48 0M117 358l0 -9M117 358l1 12M118 383l0 -13M118 383l1 3M119 389l0 -3M119 389l3 3 424 0 0 -27 1 -3 0 -24"/>
<path stroke="blue" d="M547 338l1 -1 0 -3 1 -2 0 -1 5 0 0 -1 12 0 1 1M567 332l0 -1 13 0 0 -1 13 0M593 331l0 -1M593 331l7 0M600 353l0 -22M600 353l1 2M601 357l0 -3 1 -1 0 -1 1 -1 22 0 1 -2 0 -17 1 0 1 1 18 0M646 334l0 -1 7 0M653 344l0 -11M653 344l1 1"/>
<path stroke="blue" d="M654 346l0 -2 1 0 1 -1 16 0M672 344l0 -1 7 0M679 348l0 -5M679 348l1 1M680 352l0 -3 1 0 0 -1 17 0 1 1 0 -1 26 0M725 349l0 -1 26 0M751 349l0 -1M751 349l1 0 0 -1 26 0M778 349l0 -1 7 0M785 349l0 -1M785 349l1 1 0 -1 27 0M813 350l0 -1"/>
<path stroke="blue" d="M813 349l17 0 1 1 0 -1 86 0M917 350l0 -1 1 0M918 382l0 -33M918 382l1 4M919 393l0 -7M919 393l1 1 0 -1 1 -1 53 0"/>
<path stroke="#FFA500" d="M462 39l46 0"/>
<text stroke="none" fill="white" font-size="16" x="518" y="48">
x1.vsampled_p-x1.vsampled_n
</text>
<path stroke="#FFA500" d="M50 431l2 0 1 -1 1 0M54 431l0 -1M54 431l63 0 0 -10 1 -21 0 -32 1 -7 0 -9 1 -3 1 -2 1 -1 418 0M540 347l0 -1 6 0M546 373l0 -27M546 373l1 3M547 399l0 -23M547 399l1 2M548 404l0 -3M548 404l1 1M549 406l0 -1M549 406l1 1 4 0"/>
<path stroke="#FFA500" d="M554 408l0 -1 13 0M567 408l0 -1 7 0M574 429l0 -22M574 429l1 8M575 446l0 -9M575 446l1 1M576 448l0 -1M576 448l17 0 0 -1M593 448l7 0 0 -22 1 -3M601 424l0 -3M601 424l1 2M602 427l0 -1M602 427l1 1 16 0 0 -1 1 1 5 0 1 2M626 446l0 -16"/>
<path stroke="#FFA500" d="M626 446l1 1 0 -1 3 0 1 -1 1 0M632 446l0 -1M632 446l14 0 0 -1 1 0M647 446l0 -1M647 446l6 0 0 -11 1 -2M654 434l0 -1M654 434l1 1 4 0M659 436l0 -1 20 0 0 -4 1 -1 0 -3M680 430l26 0M706 433l0 -3M706 433l25 0 0 -3 1 0M732 431l0 -1"/>
<path stroke="#FFA500" d="M732 431l19 0 0 -1 1 0M752 431l0 -1M752 431l7 0M759 433l0 -2M759 432l26 0 0 -1 1 0 0 -1M786 431l27 0 0 -1M813 431l25 0M838 432l0 -1M838 432l1 0 0 -1 78 0M917 432l0 -2M917 432l1 -3 0 -54 1 -6 0 -14 1 -3 0 -4 1 -1 1 0"/>
<path stroke="#FFA500" d="M922 347l0 -1 14 0M936 347l0 -1 38 0"/>
<path stroke="green" d="M50 39l46 0"/>
<text stroke="none" fill="white" font-size="16" x="106" y="48">
x1.sw_sample-2
</text>
<path stroke="green" d="M50 613l1 0 1 -9 0 -21 1 -21M53 580l0 -24M53 580l1 30M54 613l0 -3M54 613l63 0M117 620l0 -172M117 449l422 0M539 614l0 -171M539 613l422 0M961 618l0 -170 1 1 12 0"/>
<path stroke="#FFC0C5" d="M462 55l46 0"/>
<text stroke="none" fill="white" font-size="16" x="518" y="64">
x1.comp_out_p+2
</text>
<path stroke="#FFC0C5" d="M50 249l1 0 1 -9 0 -22 1 -18 0 -4M53 198l1 5M54 249l0 -46M54 249l488 0 0 -165M542 85l13 0M555 249l0 -172M555 249l13 0M568 250l0 -167M568 85l13 0 0 -8 1 157M582 249l0 -15M582 249l39 0M621 252l0 -168M621 85l13 0M634 249l0 -172"/>
<path stroke="#FFC0C5" d="M634 249l66 0 0 -163 1 -2M701 85l0 -1M701 85l12 0 0 -8 1 161M714 250l0 -12M714 249l39 0 0 -164 1 -1M754 85l0 -1M754 85l12 0M766 250l0 -170M766 249l68 0 0 -165M834 85l11 0 0 -10 1 142M846 249l0 -32M846 249l91 0M937 255l0 -6"/>
<path stroke="#FFC0C5" d="M937 255l1 -137 0 -35M938 85l13 0M951 250l0 -169M951 249l23 0"/>
<path stroke="#A52A2A" d="M50 55l46 0"/>
<text stroke="none" fill="white" font-size="16" x="106" y="64">
x1.comp_out_n-2
</text>
<path stroke="#A52A2A" d="M50 613l1 0 1 -9 0 -22 1 -19M53 564l0 -3M53 564l1 6M54 614l0 -44M54 612l1 1 539 0M594 614l0 -166M594 449l14 0M608 613l0 -171M608 613l39 0 0 -166M647 449l14 0M661 614l0 -168M661 613l12 0M673 614l0 -1M673 614l1 -76 0 -90"/>
<path stroke="#A52A2A" d="M674 449l13 0M687 614l0 -174M687 613l40 0 0 -165M727 449l13 0M740 614l0 -174M740 613l40 0 0 -165M780 449l13 0M793 613l0 -174M793 613l14 0 0 -165 1 1 11 0M819 613l0 -171M819 613l41 0 0 -164 12 0M872 613l0 -174M872 613l14 0"/>
<path stroke="#A52A2A" d="M886 613l0 -158 1 -7M887 449l0 -1M887 449l11 0M898 613l0 -174M898 613l15 0 0 -165M913 449l12 0M925 614l0 -173M925 613l49 0"/>
</svg>
