<?xml version="1.0" standalone="yes"?>
<!DOCTYPE svg PUBLIC "-//W3C//DTD SVG 1.1//EN"
 "http://www.w3.org/Graphics/SVG/1.1/DTD/svg11.dtd">
<svg xmlns="http://www.w3.org/2000/svg" version="1.1"
  width="100%" height="100%" viewBox="0 0 1024 768"
  style="fill: none; font-family: Helvetica;
 font: Helvetica;
">

<!-- Creator: NGspice -->

<rect x="0" y="0" width="1024" height="768" fill="black" stroke="none"/>
<text stroke="none" fill="white" font-size="16" x="358" y="752">
time
</text>
<text stroke="none" fill="white" font-size="16" x="10" y="16">
tran1: run1557_vin0.468895
</text>
<path stroke="white" d="M50 704l0 -637"/>
<text stroke="none" fill="white" font-size="16" x="35" y="728">
0.0
</text>
<path stroke="white" stroke-dasharray="1,2" d="M182 704l0 -637"/>
<text stroke="none" fill="white" font-size="16" x="157" y="728">
100.0
</text>
<path stroke="white" stroke-dasharray="1,2" d="M314 704l0 -637"/>
<text stroke="none" fill="white" font-size="16" x="289" y="728">
200.0
</text>
<path stroke="white" stroke-dasharray="1,2" d="M446 704l0 -637"/>
<text stroke="none" fill="white" font-size="16" x="421" y="728">
300.0
</text>
<path stroke="white" stroke-dasharray="1,2" d="M578 704l0 -637"/>
<text stroke="none" fill="white" font-size="16" x="553" y="728">
400.0
</text>
<path stroke="white" stroke-dasharray="1,2" d="M710 704l0 -637"/>
<text stroke="none" fill="white" font-size="16" x="685" y="728">
500.0
</text>
<path stroke="white" stroke-dasharray="1,2" d="M842 704l0 -637"/>
<text stroke="none" fill="white" font-size="16" x="817" y="728">
600.0
</text>
<path stroke="white" stroke-dasharray="1,2" d="M974 704l0 -637"/>
<text stroke="none" fill="white" font-size="16" x="949" y="728">
700.0
</text>
<text stroke="none" fill="white" font-size="16" x="614" y="752">
ns
</text>
<path stroke="white" stroke-dasharray="1,2" d="M50 704l924 0"/>
<text stroke="none" fill="white" font-size="16" x="8" y="712">
-2.5
</text>
<path stroke="white" stroke-dasharray="1,2" d="M50 655l924 0"/>
<text stroke="none" fill="white" font-size="16" x="8" y="663">
-2.0
</text>
<path stroke="white" stroke-dasharray="1,2" d="M50 606l924 0"/>
<text stroke="none" fill="white" font-size="16" x="8" y="614">
-1.5
</text>
<path stroke="white" stroke-dasharray="1,2" d="M50 557l924 0"/>
<text stroke="none" fill="white" font-size="16" x="8" y="565">
-1.0
</text>
<path stroke="white" stroke-dasharray="1,2" d="M50 508l924 0"/>
<text stroke="none" fill="white" font-size="16" x="8" y="516">
-0.5
</text>
<path stroke="white" d="M50 459l924 0"/>
<text stroke="none" fill="white" font-size="16" x="18" y="467">
0.0
</text>
<path stroke="white" stroke-dasharray="1,2" d="M50 410l924 0"/>
<text stroke="none" fill="white" font-size="16" x="18" y="418">
0.5
</text>
<path stroke="white" stroke-dasharray="1,2" d="M50 361l924 0"/>
<text stroke="none" fill="white" font-size="16" x="18" y="369">
1.0
</text>
<path stroke="white" stroke-dasharray="1,2" d="M50 312l924 0"/>
<text stroke="none" fill="white" font-size="16" x="18" y="320">
1.5
</text>
<path stroke="white" stroke-dasharray="1,2" d="M50 263l924 0"/>
<text stroke="none" fill="white" font-size="16" x="18" y="271">
2.0
</text>
<path stroke="white" stroke-dasharray="1,2" d="M50 214l924 0"/>
<text stroke="none" fill="white" font-size="16" x="18" y="222">
2.5
</text>
<path stroke="white" stroke-dasharray="1,2" d="M50 165l924 0"/>
<text stroke="none" fill="white" font-size="16" x="18" y="173">
3.0
</text>
<path stroke="white" stroke-dasharray="1,2" d="M50 116l924 0"/>
<text stroke="none" fill="white" font-size="16" x="18" y="124">
3.5
</text>
<path stroke="white" stroke-dasharray="1,2" d="M50 67l924 0"/>
<text stroke="none" fill="white" font-size="16" x="18" y="75">
4.0
</text>
<text stroke="none" fill="white" font-size="16" x="10" y="32">
     
</text>
<path stroke="red" d="M462 23l46 0"/>
<text stroke="none" fill="white" font-size="16" x="518" y="32">
x1.vsampled_p
</text>
<path stroke="red" d="M50 459l1 0 1 -7 0 -17 1 -16 0 -5 1 2M54 441l0 -42 1 -5 0 -15 1 -2 0 -3 1 -2 1 0 0 -1 59 0 0 -1 1 -10 0 -21 1 -5 0 -5 1 -2 1 -1 0 -1 419 0M540 326l0 -1 26 0 1 1 0 -1 7 0M574 348l0 -23M574 348l1 9M575 368l0 -11M575 368l1 1"/>
<path stroke="red" d="M576 369l17 0M593 370l0 -1 26 0M619 370l0 -1 27 0M646 370l0 -1 53 0M699 370l0 -1 7 0M706 373l0 -4M706 373l1 -1 25 0 0 -3 1 0M733 370l0 -1M733 370l2 0 1 -1 2 0M738 370l0 -1 13 0M751 370l0 -1M751 370l1 0 0 -1 7 0M759 372l0 -3"/>
<path stroke="red" d="M759 371l160 0 0 -15 1 -3 0 -13 1 -4 0 -6 1 0 0 -3 1 0 0 -2 13 0M936 326l0 -1 38 0"/>
<path stroke="blue" d="M50 23l46 0"/>
<text stroke="none" fill="white" font-size="16" x="106" y="32">
x1.vsampled_n
</text>
<path stroke="blue" d="M50 459l1 0 1 -7 0 -17 1 -15 0 -5 1 2M54 441l0 -42 1 -5 0 -15 1 -2 0 -3 1 -2 1 0 0 -1 59 0M117 380l0 -9M117 380l1 13M118 407l0 -14M118 407l1 3M119 414l0 -4M119 414l3 3 424 0 0 -22 1 -3 0 -30 1 -2 0 -6 1 -2 1 -1 4 0 0 -1"/>
<path stroke="blue" d="M554 351l13 0M567 352l0 -1 13 0 0 -1M580 351l13 0M593 352l0 -1 7 0M600 374l0 -23M600 374l1 3M601 379l0 -2 1 -2 0 -1 1 -1 23 0 0 -19 1 -1 0 -1M627 353l1 0 1 1 4 0 0 -1M633 354l13 0M646 355l0 -1 7 0M653 365l0 -11M653 365l1 2"/>
<path stroke="blue" d="M654 368l0 -2 1 -1 4 0 0 -1M659 365l20 0M679 371l0 -6M679 371l1 1M680 373l0 -2 1 -1 18 0M699 371l0 -1 26 0M725 371l0 -1 26 0M751 371l0 -1M751 371l1 0 0 -1 26 0M778 371l0 -1 7 0M785 371l0 -1M785 371l1 1 0 -1 27 0M813 372l0 -1"/>
<path stroke="blue" d="M813 371l18 0M831 372l0 -1 7 0 0 -1 1 1 80 0M919 394l0 -23M919 394l1 3M920 416l0 -19M920 416l1 3 0 -1 1 0 0 -1 52 0"/>
<path stroke="#FFA500" d="M462 39l46 0"/>
<text stroke="none" fill="white" font-size="16" x="518" y="48">
x1.vsampled_p-x1.vsampled_n
</text>
<path stroke="#FFA500" d="M50 459l2 0 1 -1 1 0M54 459l0 -1M54 459l63 0 0 -11 1 -22 0 -35 1 -8 0 -9 1 -3 1 -2 0 -1 1 -1 418 0M540 368l0 -1 1 0M541 368l0 -1 5 0M546 390l0 -23M546 390l1 2M547 423l0 -31M547 423l1 1M548 431l0 -7M548 431l2 2 4 0M554 434l0 -1"/>
<path stroke="#FFA500" d="M554 433l13 0M567 434l0 -2M567 433l7 0M574 456l0 -23M574 456l1 9M575 476l0 -11M575 476l1 1 4 0M580 478l0 -1 20 0M600 478l0 -24 1 -3 0 -2M601 451l1 2M602 454l0 -1M602 454l1 1 23 0M626 474l0 -19M626 474l1 1M627 476l0 -1"/>
<path stroke="#FFA500" d="M627 475l2 0 0 -1 4 0M633 475l0 -1M633 475l2 0 0 -1 11 0M646 475l0 -1 7 0 0 -11 1 -2M654 462l0 -1M654 462l1 1 4 0M659 464l0 -1M659 464l1 0 0 -1 12 0M672 464l0 -1 7 0M679 464l0 -7 1 -1M680 457l0 -2M680 457l1 1 25 0M706 461l0 -3"/>
<path stroke="#FFA500" d="M706 461l26 0 0 -3 27 0M759 461l0 -3M759 460l26 0 0 -1 1 -1M786 459l0 -1M786 459l27 0 0 -1M813 459l106 0 0 -39 1 -5 0 -32 1 -7 0 -5 1 0 0 -2 1 -1 0 -1 13 0M936 368l0 -1 38 0"/>
<path stroke="green" d="M50 39l46 0"/>
<text stroke="none" fill="white" font-size="16" x="106" y="48">
x1.sw_sample-2
</text>
<path stroke="green" d="M50 655l1 0 1 -10 0 -23 1 -21M53 619l0 -25M53 619l1 33M54 655l0 -3M54 655l63 0M117 662l0 -184 1 0M118 479l0 -1M118 479l421 0M539 656l0 -184M539 655l422 0M961 660l0 -182 1 0M962 479l0 -1M962 479l12 0"/>
<path stroke="#FFC0C5" d="M462 55l46 0"/>
<text stroke="none" fill="white" font-size="16" x="518" y="64">
x1.comp_out_p+2
</text>
<path stroke="#FFC0C5" d="M50 263l1 0 1 -10 0 -23 1 -20 0 -4M53 209l1 4M54 263l0 -50M54 263l488 0 0 -178M542 87l13 0M555 263l0 -184M555 263l13 0M568 264l0 -179M568 87l13 0 0 -10 1 171M582 263l0 -15M582 263l39 0 0 -178M621 87l13 0M634 263l0 -185"/>
<path stroke="#FFC0C5" d="M634 263l66 0 0 -177 1 -1M701 87l0 -2M701 87l12 0 0 -10 1 174M714 264l0 -13M714 263l39 0 0 -176 1 -2M754 87l0 -2M754 87l12 0M766 263l0 -185M766 263l68 0 0 -177M834 87l11 0 0 -9 1 158M846 263l0 -27M846 263l91 0M937 270l0 -7"/>
<path stroke="#FFC0C5" d="M937 270l1 -147 0 -38M938 87l13 0M951 264l0 -182M951 263l23 0"/>
<path stroke="#A52A2A" d="M50 55l46 0"/>
<text stroke="none" fill="white" font-size="16" x="106" y="64">
x1.comp_out_n-2
</text>
<path stroke="#A52A2A" d="M50 655l1 0 1 -10 0 -24 1 -20M53 602l0 -3M53 602l1 7M54 656l0 -47M54 654l1 1 539 0 0 -178M594 478l1 1 13 0M608 656l0 -186M608 655l39 0 0 -178M647 479l14 0M661 656l0 -186M661 655l12 0M673 656l0 -1M673 656l1 -56 0 -123"/>
<path stroke="#A52A2A" d="M674 479l13 0M687 655l0 -186M687 655l40 0 0 -178M727 479l13 0M740 656l0 -185M740 655l40 0 0 -177M780 479l13 0M793 655l0 -187M793 655l14 0 1 -162 0 -15M808 479l11 0M819 655l0 -186M819 655l42 0 0 -165 1 -12M862 479l0 -1"/>
<path stroke="#A52A2A" d="M862 479l10 0M872 655l0 -186M872 655l16 0 0 -177M888 479l10 0M898 655l0 -186M898 655l16 0 0 -177 1 0M915 479l0 -1M915 479l10 0M925 655l0 -178M925 655l49 0"/>
</svg>
