<?xml version="1.0" standalone="yes"?>
<!DOCTYPE svg PUBLIC "-//W3C//DTD SVG 1.1//EN"
 "http://www.w3.org/Graphics/SVG/1.1/DTD/svg11.dtd">
<svg xmlns="http://www.w3.org/2000/svg" version="1.1"
  width="100%" height="100%" viewBox="0 0 1024 768"
  style="fill: none; font-family: Helvetica;
 font: Helvetica;
">

<!-- Creator: NGspice -->

<rect x="0" y="0" width="1024" height="768" fill="black" stroke="none"/>
<text stroke="none" fill="white" font-size="16" x="358" y="752">
time
</text>
<text stroke="none" fill="white" font-size="16" x="10" y="16">
tran1: run1555_vin0.467137
</text>
<path stroke="white" d="M50 704l0 -637"/>
<text stroke="none" fill="white" font-size="16" x="35" y="728">
0.0
</text>
<path stroke="white" stroke-dasharray="1,2" d="M182 704l0 -637"/>
<text stroke="none" fill="white" font-size="16" x="157" y="728">
100.0
</text>
<path stroke="white" stroke-dasharray="1,2" d="M314 704l0 -637"/>
<text stroke="none" fill="white" font-size="16" x="289" y="728">
200.0
</text>
<path stroke="white" stroke-dasharray="1,2" d="M446 704l0 -637"/>
<text stroke="none" fill="white" font-size="16" x="421" y="728">
300.0
</text>
<path stroke="white" stroke-dasharray="1,2" d="M578 704l0 -637"/>
<text stroke="none" fill="white" font-size="16" x="553" y="728">
400.0
</text>
<path stroke="white" stroke-dasharray="1,2" d="M710 704l0 -637"/>
<text stroke="none" fill="white" font-size="16" x="685" y="728">
500.0
</text>
<path stroke="white" stroke-dasharray="1,2" d="M842 704l0 -637"/>
<text stroke="none" fill="white" font-size="16" x="817" y="728">
600.0
</text>
<path stroke="white" stroke-dasharray="1,2" d="M974 704l0 -637"/>
<text stroke="none" fill="white" font-size="16" x="949" y="728">
700.0
</text>
<text stroke="none" fill="white" font-size="16" x="614" y="752">
ns
</text>
<path stroke="white" stroke-dasharray="1,2" d="M50 704l924 0"/>
<text stroke="none" fill="white" font-size="16" x="8" y="712">
-2.5
</text>
<path stroke="white" stroke-dasharray="1,2" d="M50 655l924 0"/>
<text stroke="none" fill="white" font-size="16" x="8" y="663">
-2.0
</text>
<path stroke="white" stroke-dasharray="1,2" d="M50 606l924 0"/>
<text stroke="none" fill="white" font-size="16" x="8" y="614">
-1.5
</text>
<path stroke="white" stroke-dasharray="1,2" d="M50 557l924 0"/>
<text stroke="none" fill="white" font-size="16" x="8" y="565">
-1.0
</text>
<path stroke="white" stroke-dasharray="1,2" d="M50 508l924 0"/>
<text stroke="none" fill="white" font-size="16" x="8" y="516">
-0.5
</text>
<path stroke="white" d="M50 459l924 0"/>
<text stroke="none" fill="white" font-size="16" x="18" y="467">
0.0
</text>
<path stroke="white" stroke-dasharray="1,2" d="M50 410l924 0"/>
<text stroke="none" fill="white" font-size="16" x="18" y="418">
0.5
</text>
<path stroke="white" stroke-dasharray="1,2" d="M50 361l924 0"/>
<text stroke="none" fill="white" font-size="16" x="18" y="369">
1.0
</text>
<path stroke="white" stroke-dasharray="1,2" d="M50 312l924 0"/>
<text stroke="none" fill="white" font-size="16" x="18" y="320">
1.5
</text>
<path stroke="white" stroke-dasharray="1,2" d="M50 263l924 0"/>
<text stroke="none" fill="white" font-size="16" x="18" y="271">
2.0
</text>
<path stroke="white" stroke-dasharray="1,2" d="M50 214l924 0"/>
<text stroke="none" fill="white" font-size="16" x="18" y="222">
2.5
</text>
<path stroke="white" stroke-dasharray="1,2" d="M50 165l924 0"/>
<text stroke="none" fill="white" font-size="16" x="18" y="173">
3.0
</text>
<path stroke="white" stroke-dasharray="1,2" d="M50 116l924 0"/>
<text stroke="none" fill="white" font-size="16" x="18" y="124">
3.5
</text>
<path stroke="white" stroke-dasharray="1,2" d="M50 67l924 0"/>
<text stroke="none" fill="white" font-size="16" x="18" y="75">
4.0
</text>
<text stroke="none" fill="white" font-size="16" x="10" y="32">
     
</text>
<path stroke="red" d="M462 23l46 0"/>
<text stroke="none" fill="white" font-size="16" x="518" y="32">
x1.vsampled_p
</text>
<path stroke="red" d="M50 459l1 0 1 -7 0 -17 1 -16 0 -5 1 2M54 441l0 -42 1 -5 0 -15 1 -2 0 -3 1 -2 1 0 0 -1 59 0 0 -1 1 -10 0 -21 1 -5 0 -5 1 -2 1 -1 0 -1 419 0M540 326l0 -1 26 0 1 1 0 -1 7 0M574 347l0 -22M574 347l1 9M575 367l0 -11M575 367l1 2"/>
<path stroke="red" d="M576 369l17 0M593 370l0 -1 26 0M619 370l0 -1 27 0M646 370l0 -1 26 0M672 370l0 -1 27 0M699 370l0 -1 7 0M706 373l0 -4M706 373l1 0 0 -1 24 0 0 -3 1 0M732 370l0 -1M732 370l6 0 0 -1M738 370l21 0M759 372l0 -2M759 371l159 0 0 -21"/>
<path stroke="red" d="M918 350l1 -2 0 -9 1 -4 0 -6 1 -2 0 -1 2 0 0 -1 13 0M936 327l0 -2 38 0"/>
<path stroke="blue" d="M50 23l46 0"/>
<text stroke="none" fill="white" font-size="16" x="106" y="32">
x1.vsampled_n
</text>
<path stroke="blue" d="M50 459l1 0 1 -7 0 -17 1 -15 0 -5 1 2M54 441l0 -42 1 -5 0 -15 1 -2 0 -3 1 -2 1 0 0 -1 59 0M117 380l0 -9M117 380l1 13M118 407l0 -14M118 407l1 3M119 414l0 -4M119 414l2 2 2 0M123 417l0 -1M123 417l423 0 0 -21 1 -4 0 -31 1 -1"/>
<path stroke="blue" d="M548 360l0 -7 2 -2 4 0 0 -1M554 351l13 0M567 352l0 -1 13 0 0 -1M580 351l13 0M593 352l0 -1 7 0M600 370l0 -19M600 370l1 4M601 379l0 -5M601 377l1 -2 0 -1 1 -1 23 0 0 -19 1 -1 0 -1 1 1 1 0 1 1 3 0 0 -1 13 0M646 354l0 -1M646 354l7 0"/>
<path stroke="blue" d="M653 364l0 -11M653 364l1 2M654 367l0 -1 1 -1 4 0 0 -1 13 0M672 365l0 -1 1 1 6 0M679 371l0 -7M679 371l1 1M680 373l0 -3 105 0M785 371l0 -1M785 371l6 0 0 -1M791 371l21 0M812 372l0 -1M812 372l1 0 0 -1 26 0 0 -1 1 1 4 0 0 -1"/>
<path stroke="blue" d="M844 371l26 0 0 -1 1 1 26 0 0 -1M897 371l20 0 1 1M918 401l0 -30M918 401l1 4M919 417l0 -12M919 417l1 2 0 -1 1 -1 41 0 0 -1M962 417l12 0"/>
<path stroke="#FFA500" d="M462 39l46 0"/>
<text stroke="none" fill="white" font-size="16" x="518" y="48">
x1.vsampled_p-x1.vsampled_n
</text>
<path stroke="#FFA500" d="M50 459l2 0 1 -1 1 0M54 459l0 -1M54 459l63 0 0 -10 1 -23 0 -35 1 -8 0 -9 1 -3 1 -2 0 -1 2 0 1 -1 415 0M539 368l0 -1M539 368l1 0 0 -1M540 368l6 0M546 389l0 -21M546 389l1 3M547 423l0 -31M547 423l1 2M548 431l0 -6M548 431l3 3"/>
<path stroke="#FFA500" d="M551 434l3 0 0 -1M554 434l13 0 0 -1M567 434l7 0M574 456l0 -23M574 456l1 8M575 476l0 -12M575 476l1 1M576 478l0 -1M576 478l17 0 0 -1M593 478l7 0 0 -20 1 -3 0 -6M601 452l1 1M602 455l0 -2M602 455l1 0M603 456l0 -1M603 456l16 0"/>
<path stroke="#FFA500" d="M619 456l0 -1 1 0M620 456l0 -1M620 456l6 0M626 474l0 -18M626 474l1 2 1 0 0 -1 18 0 0 -1M646 475l7 0 0 -11 1 -2M654 463l0 -2M654 463l1 0M655 464l0 -1M655 464l24 0 0 -6 1 -1M680 458l0 -3M680 458l26 0M706 462l0 -4M706 462l1 0"/>
<path stroke="#FFA500" d="M707 462l0 -1 24 0 0 -3 1 0M732 459l0 -1M732 459l27 0M759 461l0 -2M759 460l26 0 0 -1 27 0 0 -1 1 0M813 459l0 -1M813 459l26 0M839 460l0 -1M839 460l1 -1 77 0 1 -1M918 460l0 -52 1 -7 0 -21 1 -5 0 -5 1 -1 0 -1 2 0 0 -1M923 368l3 0"/>
<path stroke="#FFA500" d="M926 368l0 -1 10 0M936 369l0 -2M936 368l14 0 0 -1 4 0M954 368l0 -1M954 368l8 0 0 -1 12 0"/>
<path stroke="green" d="M50 39l46 0"/>
<text stroke="none" fill="white" font-size="16" x="106" y="48">
x1.sw_sample-2
</text>
<path stroke="green" d="M50 655l1 0 1 -10 0 -23 1 -21M53 619l0 -25M53 619l1 33M54 655l0 -3M54 655l63 0M117 662l0 -184 1 0M118 479l0 -1M118 479l421 0M539 656l0 -184M539 655l422 0M961 660l0 -182 1 0M962 479l0 -1M962 479l12 0"/>
<path stroke="#FFC0C5" d="M462 55l46 0"/>
<text stroke="none" fill="white" font-size="16" x="518" y="64">
x1.comp_out_p+2
</text>
<path stroke="#FFC0C5" d="M50 263l1 0 1 -10 0 -23 1 -20 0 -4M53 209l1 4M54 263l0 -50M54 263l488 0 0 -178M542 87l13 0M555 263l0 -186M555 263l13 0M568 264l0 -179M568 87l13 0 0 -10 1 170M582 263l0 -16M582 263l39 0 0 -178M621 87l13 0M634 263l0 -185"/>
<path stroke="#FFC0C5" d="M634 263l66 0 0 -176 1 -2M701 87l0 -2M701 87l12 0 0 -10 1 170M714 263l0 -16M714 263l39 0 0 -149 1 -27 0 -2M754 87l12 0M766 263l0 -185M766 263l69 0 0 -177M835 87l10 0 0 -7 1 122M846 264l0 -62M846 263l91 0M937 270l0 -7"/>
<path stroke="#FFC0C5" d="M937 270l1 -145 0 -40M938 87l13 0M951 264l0 -182M951 263l23 0"/>
<path stroke="#A52A2A" d="M50 55l46 0"/>
<text stroke="none" fill="white" font-size="16" x="106" y="64">
x1.comp_out_n-2
</text>
<path stroke="#A52A2A" d="M50 655l1 0 1 -10 0 -24 1 -20M53 602l0 -3M53 602l1 7M54 656l0 -47M54 654l1 1 513 0M568 656l0 -1 26 0M594 656l0 -179M594 478l1 1 13 0M608 655l0 -185M608 655l39 0 0 -178M647 479l14 0M661 656l0 -181M661 655l12 0M673 656l0 -1"/>
<path stroke="#A52A2A" d="M673 656l1 -76 0 -103M674 479l13 0M687 655l0 -184M687 655l40 0 0 -177M727 479l13 0M740 655l0 -186M740 655l40 0 0 -177M780 479l13 0M793 655l0 -188M793 655l14 0 0 -177M807 479l12 0M819 655l0 -185M819 655l41 0 0 -177M860 479l12 0"/>
<path stroke="#A52A2A" d="M872 655l0 -188M872 655l14 0 0 -177 1 1 11 0M898 655l0 -188M898 655l14 0 1 -164 0 -13M913 479l12 0M925 655l0 -184M925 655l49 0"/>
</svg>
