<?xml version="1.0" standalone="yes"?>
<!DOCTYPE svg PUBLIC "-//W3C//DTD SVG 1.1//EN"
 "http://www.w3.org/Graphics/SVG/1.1/DTD/svg11.dtd">
<svg xmlns="http://www.w3.org/2000/svg" version="1.1"
  width="100%" height="100%" viewBox="0 0 1024 768"
  style="fill: none; font-family: Helvetica;
 font: Helvetica;
">

<!-- Creator: NGspice -->

<rect x="0" y="0" width="1024" height="768" fill="black" stroke="none"/>
<text stroke="none" fill="white" font-size="16" x="358" y="752">
time
</text>
<text stroke="none" fill="white" font-size="16" x="10" y="16">
tran1: run1559_vin0.470652
</text>
<path stroke="white" d="M50 704l0 -637"/>
<text stroke="none" fill="white" font-size="16" x="35" y="728">
0.0
</text>
<path stroke="white" stroke-dasharray="1,2" d="M182 704l0 -637"/>
<text stroke="none" fill="white" font-size="16" x="157" y="728">
100.0
</text>
<path stroke="white" stroke-dasharray="1,2" d="M314 704l0 -637"/>
<text stroke="none" fill="white" font-size="16" x="289" y="728">
200.0
</text>
<path stroke="white" stroke-dasharray="1,2" d="M446 704l0 -637"/>
<text stroke="none" fill="white" font-size="16" x="421" y="728">
300.0
</text>
<path stroke="white" stroke-dasharray="1,2" d="M578 704l0 -637"/>
<text stroke="none" fill="white" font-size="16" x="553" y="728">
400.0
</text>
<path stroke="white" stroke-dasharray="1,2" d="M710 704l0 -637"/>
<text stroke="none" fill="white" font-size="16" x="685" y="728">
500.0
</text>
<path stroke="white" stroke-dasharray="1,2" d="M842 704l0 -637"/>
<text stroke="none" fill="white" font-size="16" x="817" y="728">
600.0
</text>
<path stroke="white" stroke-dasharray="1,2" d="M974 704l0 -637"/>
<text stroke="none" fill="white" font-size="16" x="949" y="728">
700.0
</text>
<text stroke="none" fill="white" font-size="16" x="614" y="752">
ns
</text>
<path stroke="white" stroke-dasharray="1,2" d="M50 704l924 0"/>
<text stroke="none" fill="white" font-size="16" x="8" y="712">
-3.0
</text>
<path stroke="white" stroke-dasharray="1,2" d="M50 613l924 0"/>
<text stroke="none" fill="white" font-size="16" x="8" y="621">
-2.0
</text>
<path stroke="white" stroke-dasharray="1,2" d="M50 522l924 0"/>
<text stroke="none" fill="white" font-size="16" x="8" y="530">
-1.0
</text>
<path stroke="white" d="M50 431l924 0"/>
<text stroke="none" fill="white" font-size="16" x="18" y="439">
0.0
</text>
<path stroke="white" stroke-dasharray="1,2" d="M50 340l924 0"/>
<text stroke="none" fill="white" font-size="16" x="18" y="348">
1.0
</text>
<path stroke="white" stroke-dasharray="1,2" d="M50 249l924 0"/>
<text stroke="none" fill="white" font-size="16" x="18" y="257">
2.0
</text>
<path stroke="white" stroke-dasharray="1,2" d="M50 158l924 0"/>
<text stroke="none" fill="white" font-size="16" x="18" y="166">
3.0
</text>
<path stroke="white" stroke-dasharray="1,2" d="M50 67l924 0"/>
<text stroke="none" fill="white" font-size="16" x="18" y="75">
4.0
</text>
<text stroke="none" fill="white" font-size="16" x="10" y="32">
     
</text>
<path stroke="red" d="M462 23l46 0"/>
<text stroke="none" fill="white" font-size="16" x="518" y="32">
x1.vsampled_p
</text>
<path stroke="red" d="M50 431l1 0 1 -7 0 -15 1 -15 0 -4 1 1M54 414l0 -39 1 -4 0 -14 1 -3 0 -2 2 -2 1 0 1 -1 4 0M64 350l0 -1M64 350l4 0 1 -1 48 0 0 -1 1 -9 0 -20 1 -4 0 -5 1 -2 2 -2 417 0M539 307l0 -1M539 307l1 0 0 -1M540 307l14 0 0 -1 12 0 1 1"/>
<path stroke="red" d="M567 308l0 -1 7 0M574 328l0 -22M574 328l1 8M575 346l0 -10M575 346l1 1 17 0M593 348l0 -1 26 0M619 348l0 -1M619 348l1 0 0 -1 26 0M646 348l0 -1 26 0M672 348l0 -1 26 0 1 1 0 -1 7 0M706 351l0 -4M706 351l1 0 0 -1 24 0 1 -1 0 -2"/>
<path stroke="red" d="M732 348l27 0M759 350l0 -2M759 349l53 0M812 350l0 -1M812 350l1 -1 18 0M831 350l0 -1 86 0M917 350l0 -5 1 -3 0 -16 1 -2 0 -7 1 -3 0 -5 1 -1 0 -1 2 0 0 -1 13 0M936 308l0 -2M936 307l14 0 0 -1 24 0"/>
<path stroke="blue" d="M50 23l46 0"/>
<text stroke="none" fill="white" font-size="16" x="106" y="32">
x1.vsampled_n
</text>
<path stroke="blue" d="M50 431l1 0 1 -7 0 -15 1 -14 0 -5 1 2M54 415l0 -40 1 -4 0 -14 1 -3 0 -2 2 -2 1 0 1 -1 4 0M64 350l0 -1M64 350l4 0 1 -1 48 0M117 358l0 -9M117 358l1 12M118 383l0 -13M118 383l1 3M119 389l0 -3M119 389l2 2M121 392l0 -1M121 392l425 0"/>
<path stroke="blue" d="M546 392l0 -26 1 -2 0 -25 1 -1 0 -5 2 -2 4 0 0 -1M554 331l13 0M567 332l0 -1 13 0 0 -1M580 331l13 0M593 332l0 -1 7 0M600 350l0 -19M600 350l1 3M601 357l0 -4M601 354l1 -1 0 -1 1 -1 16 0M619 352l0 -1M619 352l1 -1 6 0 0 -18"/>
<path stroke="blue" d="M626 333l1 -1 1 1 18 0M646 334l0 -1 7 0M653 343l0 -10M653 343l1 2M654 346l0 -1 1 -1 4 0 0 -1 13 0M672 344l0 -1M672 344l7 0M679 350l0 -6M679 350l1 1M680 352l0 -3 6 0 0 -1M686 349l26 0 0 -1M712 349l26 0 0 -1 1 1 26 0 0 -1"/>
<path stroke="blue" d="M765 349l21 0M786 350l0 -1 18 0M804 350l0 -1 27 0M831 350l0 -1 26 0M857 350l0 -1 26 0M883 350l0 -1M883 350l1 -1 26 0M910 350l0 -1 7 0M917 350l0 -1M917 350l1 4M918 383l0 -29M918 383l1 4M919 393l0 -6M919 393l1 1 0 -1 1 -1"/>
<path stroke="blue" d="M921 392l53 0"/>
<path stroke="#FFA500" d="M462 39l46 0"/>
<text stroke="none" fill="white" font-size="16" x="518" y="48">
x1.vsampled_p-x1.vsampled_n
</text>
<path stroke="#FFA500" d="M50 431l2 0 1 -1 1 0M54 431l0 -1M54 431l63 0 0 -10 1 -21 0 -33 1 -7 0 -9 2 -4 0 -1 2 0 0 -1 416 0M539 346l0 -1M539 346l1 -1M540 346l0 -1M540 346l6 0M546 371l0 -26M546 371l1 3M547 399l0 -25M547 399l1 1M548 404l0 -4M548 404l1 2"/>
<path stroke="#FFA500" d="M549 406l1 0M550 407l0 -1M550 407l17 0 0 -1M567 407l7 0M574 428l0 -21M574 428l1 9M575 446l0 -9M575 446l1 1M576 448l0 -1M576 448l17 0 0 -1M593 448l7 0 0 -19 1 -4 0 -4M601 424l1 2M602 427l0 -1M602 427l24 0M626 445l0 -18"/>
<path stroke="#FFA500" d="M626 445l1 1 1 0 0 -1 18 0 0 -1M646 445l7 0 0 -10 1 -2M654 434l0 -2M654 434l1 0M655 435l0 -1M655 435l24 0 0 -7 1 -1M680 429l0 -2M680 429l1 0M681 430l0 -1M681 430l25 0M706 433l0 -3M706 433l1 0 0 -1 24 0 1 -1 0 -2M732 430l27 0"/>
<path stroke="#FFA500" d="M759 432l0 -2M759 431l27 0 0 -1M786 431l52 0 1 -1M839 431l0 -1M839 431l78 0M917 432l0 -6 1 -7 0 -45 1 -6 0 -14 1 -3 0 -4 1 -1 2 0 0 -1 13 0M936 347l0 -2M936 346l14 0 0 -1 24 0"/>
<path stroke="green" d="M50 39l46 0"/>
<text stroke="none" fill="white" font-size="16" x="106" y="48">
x1.sw_sample-2
</text>
<path stroke="green" d="M50 613l1 0 1 -9 0 -21 1 -21M53 580l0 -24M53 580l1 30M54 613l0 -3M54 613l63 0M117 620l0 -172M117 449l422 0M539 614l0 -171M539 613l422 0M961 618l0 -170 1 1 12 0"/>
<path stroke="#FFC0C5" d="M462 55l46 0"/>
<text stroke="none" fill="white" font-size="16" x="518" y="64">
x1.comp_out_p+2
</text>
<path stroke="#FFC0C5" d="M50 249l1 0 1 -9 0 -22 1 -18 0 -4M53 198l1 5M54 249l0 -46M54 249l488 0 0 -165M542 85l13 0M555 249l0 -173M555 249l13 0M568 250l0 -166M568 85l13 0 0 -8 1 158M582 249l0 -14M582 249l39 0 0 -165M621 85l13 0M634 249l0 -172"/>
<path stroke="#FFC0C5" d="M634 249l66 0M700 251l0 -167 1 1 12 0 1 -8M714 250l0 -173M714 249l39 0 0 -165M753 85l13 0M766 249l0 -166M766 249l41 0 0 -164 12 0M819 250l0 -171M819 249l40 0 1 -157 0 -8M860 85l12 0M872 249l0 -173M872 249l14 0 0 -164"/>
<path stroke="#FFC0C5" d="M886 85l12 0M898 249l0 -173M898 249l14 0 1 -153 0 -11 12 0M925 249l0 -172M925 249l13 0 0 -166M938 85l13 0M951 250l0 -169M951 249l23 0"/>
<path stroke="#A52A2A" d="M50 55l46 0"/>
<text stroke="none" fill="white" font-size="16" x="106" y="64">
x1.comp_out_n-2
</text>
<path stroke="#A52A2A" d="M50 613l1 0 1 -9 0 -22 1 -19M53 564l0 -3M53 564l1 6M54 614l0 -44M54 612l1 1 539 0 0 -165M594 449l14 0M608 614l0 -168M608 613l39 0 0 -165M647 449l14 0M661 614l0 -172M661 613l12 0 1 2 0 -168M674 449l13 0M687 613l0 -172"/>
<path stroke="#A52A2A" d="M687 613l40 0 0 -165 1 1 12 0M740 613l0 -173M740 613l40 0 0 -164 13 0M793 613l0 -174M793 613l41 0 0 -164 11 0 0 -10 1 155M846 613l0 -19M846 613l128 0"/>
</svg>
