<?xml version="1.0" standalone="yes"?>
<!DOCTYPE svg PUBLIC "-//W3C//DTD SVG 1.1//EN"
 "http://www.w3.org/Graphics/SVG/1.1/DTD/svg11.dtd">
<svg xmlns="http://www.w3.org/2000/svg" version="1.1"
  width="100%" height="100%" viewBox="0 0 1024 768"
  style="fill: none; font-family: Helvetica;
 font: Helvetica;
">

<!-- Creator: NGspice -->

<rect x="0" y="0" width="1024" height="768" fill="black" stroke="none"/>
<text stroke="none" fill="white" font-size="16" x="358" y="752">
time
</text>
<text stroke="none" fill="white" font-size="16" x="10" y="16">
tran1: run492_vin-0.467139
</text>
<path stroke="white" d="M50 704l0 -637"/>
<text stroke="none" fill="white" font-size="16" x="35" y="728">
0.0
</text>
<path stroke="white" stroke-dasharray="1,2" d="M182 704l0 -637"/>
<text stroke="none" fill="white" font-size="16" x="157" y="728">
100.0
</text>
<path stroke="white" stroke-dasharray="1,2" d="M314 704l0 -637"/>
<text stroke="none" fill="white" font-size="16" x="289" y="728">
200.0
</text>
<path stroke="white" stroke-dasharray="1,2" d="M446 704l0 -637"/>
<text stroke="none" fill="white" font-size="16" x="421" y="728">
300.0
</text>
<path stroke="white" stroke-dasharray="1,2" d="M578 704l0 -637"/>
<text stroke="none" fill="white" font-size="16" x="553" y="728">
400.0
</text>
<path stroke="white" stroke-dasharray="1,2" d="M710 704l0 -637"/>
<text stroke="none" fill="white" font-size="16" x="685" y="728">
500.0
</text>
<path stroke="white" stroke-dasharray="1,2" d="M842 704l0 -637"/>
<text stroke="none" fill="white" font-size="16" x="817" y="728">
600.0
</text>
<path stroke="white" stroke-dasharray="1,2" d="M974 704l0 -637"/>
<text stroke="none" fill="white" font-size="16" x="949" y="728">
700.0
</text>
<text stroke="none" fill="white" font-size="16" x="614" y="752">
ns
</text>
<path stroke="white" stroke-dasharray="1,2" d="M50 704l924 0"/>
<text stroke="none" fill="white" font-size="16" x="8" y="712">
-3.0
</text>
<path stroke="white" stroke-dasharray="1,2" d="M50 613l924 0"/>
<text stroke="none" fill="white" font-size="16" x="8" y="621">
-2.0
</text>
<path stroke="white" stroke-dasharray="1,2" d="M50 522l924 0"/>
<text stroke="none" fill="white" font-size="16" x="8" y="530">
-1.0
</text>
<path stroke="white" d="M50 431l924 0"/>
<text stroke="none" fill="white" font-size="16" x="18" y="439">
0.0
</text>
<path stroke="white" stroke-dasharray="1,2" d="M50 340l924 0"/>
<text stroke="none" fill="white" font-size="16" x="18" y="348">
1.0
</text>
<path stroke="white" stroke-dasharray="1,2" d="M50 249l924 0"/>
<text stroke="none" fill="white" font-size="16" x="18" y="257">
2.0
</text>
<path stroke="white" stroke-dasharray="1,2" d="M50 158l924 0"/>
<text stroke="none" fill="white" font-size="16" x="18" y="166">
3.0
</text>
<path stroke="white" stroke-dasharray="1,2" d="M50 67l924 0"/>
<text stroke="none" fill="white" font-size="16" x="18" y="75">
4.0
</text>
<text stroke="none" fill="white" font-size="16" x="10" y="32">
     
</text>
<path stroke="red" d="M462 23l46 0"/>
<text stroke="none" fill="white" font-size="16" x="518" y="32">
x1.vsampled_p
</text>
<path stroke="red" d="M50 431l1 0 1 -7 0 -15 1 -14 0 -5 1 2M54 415l0 -40 1 -4 0 -14 1 -3 0 -2 2 -2 1 0 1 -1 4 0M64 350l0 -1M64 350l4 0 1 -1 48 0M117 358l0 -9M117 358l1 12M118 383l0 -13M118 383l1 3M119 389l0 -3M119 389l2 2 1 0 1 1 423 0 0 -26"/>
<path stroke="red" d="M546 366l1 -4 0 -22 1 -2 0 -4 1 -2 0 -1 5 0 0 -1 12 0 1 1 0 -1M567 331l13 0 0 -1 13 0M593 331l0 -1M593 331l7 0M600 352l0 -21M600 352l1 3M601 357l0 -2 1 -2 0 -2 24 0 0 -19 2 0M628 333l0 -1M628 333l18 0M646 334l0 -1 7 0M653 344l0 -11"/>
<path stroke="red" d="M653 344l1 1M654 346l0 -2 1 0 0 -1 17 0M672 344l0 -1 7 0M679 350l0 -7M679 350l1 1 0 -2 1 0 0 -1 17 0 1 1 0 -1 26 0M725 349l0 -1 26 0M751 349l0 -1M751 349l1 -1 26 0M778 349l0 -1 7 0M785 349l0 -1M785 349l1 1 0 -1 26 0M812 350l0 -1"/>
<path stroke="red" d="M812 350l1 0 0 -1 18 0M831 350l0 -1 86 0M917 350l0 -1M917 350l1 -1M918 380l0 -31M918 380l1 4M919 394l0 -10M919 394l1 0 0 -1 1 -1 53 0"/>
<path stroke="blue" d="M50 23l46 0"/>
<text stroke="none" fill="white" font-size="16" x="106" y="32">
x1.vsampled_n
</text>
<path stroke="blue" d="M50 431l1 0 1 -7 0 -15 1 -15 0 -4 1 1M54 414l0 -39 1 -4 0 -14 1 -3 0 -2 2 -2 1 0 1 -1 4 0M64 350l0 -1M64 350l4 0 1 -1 48 0 0 -1 1 -9 0 -19 1 -5 0 -5 2 -2 0 -1 419 0M540 308l0 -1 14 0 0 -1M554 307l13 0M567 308l0 -1 7 0M574 328l0 -21"/>
<path stroke="blue" d="M574 328l1 8M575 347l0 -11M575 347l1 1 4 0 0 -1M580 348l53 0 0 -1M633 348l26 0 0 -1M659 348l47 0M706 351l0 -3M706 351l1 -1 18 0M725 351l0 -1 6 0 0 -2 1 0 0 -1M732 348l27 0M759 350l0 -2M759 349l19 0M778 350l0 -1 26 0M804 350l0 -1"/>
<path stroke="blue" d="M804 349l27 0M831 350l0 -1 26 0M857 350l0 -1 26 0M883 350l0 -1 27 0M910 350l0 -1 8 0M918 350l0 -22 1 -3 0 -9 1 -3 0 -3 1 -1 0 -1 1 0 0 -1 1 0 0 -1M923 307l13 0M936 308l0 -1 14 0 0 -1M950 307l24 0"/>
<path stroke="#FFA500" d="M462 39l46 0"/>
<text stroke="none" fill="white" font-size="16" x="518" y="48">
x1.vsampled_p-x1.vsampled_n
</text>
<path stroke="#FFA500" d="M50 431l2 0 1 1 1 0 0 -1 63 0M117 441l0 -10M117 441l1 21M118 494l0 -32M118 494l1 7M119 510l0 -9M119 510l1 3 1 1M121 515l0 -1M121 515l1 1 418 0 0 -1M540 516l6 0 0 -26 1 -4 0 -22 1 -2 0 -4 1 -2 0 -1 5 0 0 -1M554 455l12 0"/>
<path stroke="#FFA500" d="M566 455l1 -1M567 455l0 -1M567 455l7 0 0 -21 1 -8 0 -11 1 -1 4 0 0 -1M580 414l20 0M600 435l0 -21M600 435l1 3M601 440l0 -2 1 -2 0 -2 24 0 0 -19 1 0 1 1 18 0M646 417l0 -1 7 0M653 427l0 -11M653 427l1 2 0 -1 1 -1 4 0 0 -1"/>
<path stroke="#FFA500" d="M659 426l1 0M660 427l0 -1M660 427l12 0 0 -1M672 427l7 0M679 433l0 -7M679 433l1 1M680 435l0 -3 26 0 0 -4M706 429l25 0M731 431l0 -2M731 431l1 1 0 -1 27 0 0 -2M759 430l26 0M785 431l0 -1M785 431l27 0M812 432l0 -1M812 432l1 0"/>
<path stroke="#FFA500" d="M813 432l0 -1 26 0 0 -1M839 431l78 0M917 432l0 -1M917 432l1 -1M918 483l0 -53M918 483l1 7M919 509l0 -19M919 509l1 3M920 513l0 -1M920 513l1 2 1 0M922 516l0 -1M922 516l14 0 0 -1M936 516l38 0"/>
<path stroke="green" d="M50 39l46 0"/>
<text stroke="none" fill="white" font-size="16" x="106" y="48">
x1.sw_sample-2
</text>
<path stroke="green" d="M50 613l1 0 1 -9 0 -21 1 -21M53 580l0 -24M53 580l1 30M54 613l0 -3M54 613l63 0M117 620l0 -172M117 449l422 0M539 614l0 -171M539 613l422 0M961 618l0 -170 1 1 12 0"/>
<path stroke="#FFC0C5" d="M462 55l46 0"/>
<text stroke="none" fill="white" font-size="16" x="518" y="64">
x1.comp_out_p+2
</text>
<path stroke="#FFC0C5" d="M50 249l1 0 1 -9 0 -22 1 -18 0 -4M53 198l1 5M54 250l0 -47M54 248l1 1 539 0M594 250l0 -166M594 85l14 0M608 249l0 -172M608 249l39 0 0 -165M647 85l14 0M661 250l0 -168M661 249l12 0M673 250l0 -1M673 250l1 -61 0 -105M674 85l13 0"/>
<path stroke="#FFC0C5" d="M687 249l0 -171M687 249l40 0 0 -165M727 85l13 0M740 249l0 -172M740 249l40 0 0 -165M780 85l13 0M793 249l0 -174M793 249l14 0 0 -165M807 85l12 0M819 249l0 -171M819 249l41 0 0 -164 12 0M872 249l0 -174M872 249l14 0 0 -165"/>
<path stroke="#FFC0C5" d="M886 84l1 1 11 0M898 249l0 -174M898 249l14 0 1 -150 0 -15M913 85l12 0M925 250l0 -172M925 249l49 0"/>
<path stroke="#A52A2A" d="M50 55l46 0"/>
<text stroke="none" fill="white" font-size="16" x="106" y="64">
x1.comp_out_n-2
</text>
<path stroke="#A52A2A" d="M50 613l1 0 1 -9 0 -22 1 -19M53 564l0 -3M53 564l1 6M54 613l0 -43M54 613l488 0 0 -165M542 449l13 0M555 613l0 -173M555 613l13 0M568 614l0 -166M568 449l13 0 0 -9 1 162M582 613l0 -11M582 613l12 0M594 614l0 -1 27 0 0 -165"/>
<path stroke="#A52A2A" d="M621 449l13 0M634 613l0 -172M634 613l40 0M674 614l0 -1 26 0 0 -164 1 -1M701 449l0 -1M701 449l12 0 0 -9 1 162M714 613l0 -11M714 613l39 0 0 -164 1 -1M754 449l0 -1M754 449l12 0M766 613l0 -172M766 613l68 0 1 -158 0 -7M835 449l10 0"/>
<path stroke="#A52A2A" d="M845 449l0 -7 1 132M846 613l0 -39M846 613l91 0M937 619l0 -6M937 619l1 -141 0 -31M938 449l13 0M951 613l0 -169M951 613l23 0"/>
</svg>
