<?xml version="1.0" standalone="yes"?>
<!DOCTYPE svg PUBLIC "-//W3C//DTD SVG 1.1//EN"
 "http://www.w3.org/Graphics/SVG/1.1/DTD/svg11.dtd">
<svg xmlns="http://www.w3.org/2000/svg" version="1.1"
  width="100%" height="100%" viewBox="0 0 1024 768"
  style="fill: none; font-family: Helvetica;
 font: Helvetica;
">

<!-- Creator: NGspice -->

<rect x="0" y="0" width="1024" height="768" fill="black" stroke="none"/>
<text stroke="none" fill="white" font-size="16" x="358" y="752">
time
</text>
<text stroke="none" fill="white" font-size="16" x="10" y="16">
tran1: run494_vin-0.465381
</text>
<path stroke="white" d="M50 704l0 -637"/>
<text stroke="none" fill="white" font-size="16" x="35" y="728">
0.0
</text>
<path stroke="white" stroke-dasharray="1,2" d="M182 704l0 -637"/>
<text stroke="none" fill="white" font-size="16" x="157" y="728">
100.0
</text>
<path stroke="white" stroke-dasharray="1,2" d="M314 704l0 -637"/>
<text stroke="none" fill="white" font-size="16" x="289" y="728">
200.0
</text>
<path stroke="white" stroke-dasharray="1,2" d="M446 704l0 -637"/>
<text stroke="none" fill="white" font-size="16" x="421" y="728">
300.0
</text>
<path stroke="white" stroke-dasharray="1,2" d="M578 704l0 -637"/>
<text stroke="none" fill="white" font-size="16" x="553" y="728">
400.0
</text>
<path stroke="white" stroke-dasharray="1,2" d="M710 704l0 -637"/>
<text stroke="none" fill="white" font-size="16" x="685" y="728">
500.0
</text>
<path stroke="white" stroke-dasharray="1,2" d="M842 704l0 -637"/>
<text stroke="none" fill="white" font-size="16" x="817" y="728">
600.0
</text>
<path stroke="white" stroke-dasharray="1,2" d="M974 704l0 -637"/>
<text stroke="none" fill="white" font-size="16" x="949" y="728">
700.0
</text>
<text stroke="none" fill="white" font-size="16" x="614" y="752">
ns
</text>
<path stroke="white" stroke-dasharray="1,2" d="M50 704l924 0"/>
<text stroke="none" fill="white" font-size="16" x="8" y="712">
-3.0
</text>
<path stroke="white" stroke-dasharray="1,2" d="M50 613l924 0"/>
<text stroke="none" fill="white" font-size="16" x="8" y="621">
-2.0
</text>
<path stroke="white" stroke-dasharray="1,2" d="M50 522l924 0"/>
<text stroke="none" fill="white" font-size="16" x="8" y="530">
-1.0
</text>
<path stroke="white" d="M50 431l924 0"/>
<text stroke="none" fill="white" font-size="16" x="18" y="439">
0.0
</text>
<path stroke="white" stroke-dasharray="1,2" d="M50 340l924 0"/>
<text stroke="none" fill="white" font-size="16" x="18" y="348">
1.0
</text>
<path stroke="white" stroke-dasharray="1,2" d="M50 249l924 0"/>
<text stroke="none" fill="white" font-size="16" x="18" y="257">
2.0
</text>
<path stroke="white" stroke-dasharray="1,2" d="M50 158l924 0"/>
<text stroke="none" fill="white" font-size="16" x="18" y="166">
3.0
</text>
<path stroke="white" stroke-dasharray="1,2" d="M50 67l924 0"/>
<text stroke="none" fill="white" font-size="16" x="18" y="75">
4.0
</text>
<text stroke="none" fill="white" font-size="16" x="10" y="32">
     
</text>
<path stroke="red" d="M462 23l46 0"/>
<text stroke="none" fill="white" font-size="16" x="518" y="32">
x1.vsampled_p
</text>
<path stroke="red" d="M50 431l1 0 1 -7 0 -15 1 -14 0 -5 1 2M54 415l0 -40 1 -4 0 -14 1 -3 0 -2 2 -2 1 0 1 -1 4 0M64 350l0 -1M64 350l4 0 1 -1 48 0M117 358l0 -9M117 358l1 11M118 383l0 -14M118 383l1 2M119 389l0 -4M119 389l2 2 418 0M539 392l0 -1M539 392l1 0"/>
<path stroke="red" d="M540 392l1 -1M541 392l0 -1M541 392l5 0 0 -24 1 -3 0 -26 1 -1 0 -5 1 -1 0 -1 1 0 1 -1 16 0M567 331l0 -1 26 0M593 331l0 -1 7 0M600 349l0 -19M600 349l1 3M601 357l0 -5M601 354l1 -1 0 -1 1 -1 23 0 0 -19 2 0M628 333l0 -1M628 333l5 0"/>
<path stroke="red" d="M633 333l0 -1M633 333l13 0M646 334l0 -1 7 0M653 343l0 -10M653 343l1 2M654 346l0 -2 1 0 0 -1 17 0M672 344l0 -1 7 0M679 349l0 -6M679 349l1 2 0 -2 1 -1 18 0M699 349l0 -1 26 0M725 349l0 -1 26 0M751 349l0 -1 27 0M778 349l0 -1"/>
<path stroke="red" d="M778 348l7 0M785 350l0 -2M785 350l1 -1 26 0M812 350l0 -1 19 0M831 350l0 -1 26 0M857 350l0 -1 26 0M883 350l0 -1 27 0M910 350l0 -1 9 0M919 364l0 -16M919 364l1 1M920 387l0 -22M920 387l1 4M921 393l0 -2M921 393l1 0 0 -1 28 0"/>
<path stroke="red" d="M950 392l0 -1M950 392l11 0 0 -1 13 0"/>
<path stroke="blue" d="M50 23l46 0"/>
<text stroke="none" fill="white" font-size="16" x="106" y="32">
x1.vsampled_n
</text>
<path stroke="blue" d="M50 431l1 0 1 -7 0 -15 1 -15 0 -4 1 1M54 414l0 -39 1 -4 0 -14 1 -3 0 -2 2 -2 1 0 1 -1 4 0M64 350l0 -1M64 350l4 0 1 -1 48 0 0 -1 1 -9 0 -19 1 -5 0 -5 2 -2 0 -1 419 0M540 308l0 -1 27 0M567 308l0 -1 7 0M574 329l0 -22M574 329l1 9"/>
<path stroke="blue" d="M575 347l0 -9M575 347l1 0M576 348l0 -1M576 348l130 0M706 351l0 -3M706 351l1 0 0 -1 18 0M725 351l0 -1 6 0 0 -2 20 0M751 349l0 -1 9 0M760 350l0 -2M760 350l1 0 0 -1 17 0M778 350l0 -1 26 0M804 350l0 -1 26 0 1 1 0 -1 88 0M919 350l0 -11"/>
<path stroke="blue" d="M919 339l1 -1 0 -14 1 -4 0 -7 1 0 0 -4 1 0 0 -2 13 0M936 308l0 -1 14 0 0 -1M950 307l24 0"/>
<path stroke="#FFA500" d="M462 39l46 0"/>
<text stroke="none" fill="white" font-size="16" x="518" y="48">
x1.vsampled_p-x1.vsampled_n
</text>
<path stroke="#FFA500" d="M50 431l2 0 1 1 1 0 0 -1 63 0M117 441l0 -10M117 441l1 21M118 494l0 -32M118 494l1 7M119 510l0 -9M119 510l2 4M121 515l0 -1M121 515l1 0 1 1 416 0 0 -1 1 1 0 -1 2 0M542 516l0 -1M542 516l4 0 0 -24 1 -3 0 -26 1 -1 0 -5 1 -1"/>
<path stroke="#FFA500" d="M549 456l0 -1 1 -1 17 0M567 455l0 -1 7 0 0 -22 1 -9 0 -8 1 -1 0 -1 17 0M593 414l0 -1 7 0M600 432l0 -19M600 432l1 3M601 440l0 -5M601 437l1 -1 0 -1 1 -1 23 0 0 -18 1 -1 1 0M628 416l0 -1M628 416l18 0M646 417l0 -1 7 0M653 426l0 -10"/>
<path stroke="#FFA500" d="M653 426l1 2M654 429l0 -2 1 0 0 -1 24 0M679 433l0 -7M679 433l1 1 0 -2 1 0 0 -1 25 0 0 -3 1 0M707 429l0 -1M707 429l24 0M731 432l0 -3M731 432l1 0 0 -1 28 0 0 -2 1 0M761 430l0 -1M761 430l24 0M785 431l0 -1M785 431l1 0 0 -1"/>
<path stroke="#FFA500" d="M786 430l26 0M812 431l0 -1M812 431l107 0M919 455l0 -26M919 455l1 3M920 494l0 -36M920 494l1 8M921 511l0 -9M921 511l1 0M922 514l0 -3M922 514l1 0M923 515l0 -1M923 515l1 0M924 516l0 -1M924 516l12 0 0 -2M936 515l1 0M937 516l0 -1"/>
<path stroke="#FFA500" d="M937 515l1 0M938 516l0 -1M938 516l12 0 0 -1M950 516l24 0"/>
<path stroke="green" d="M50 39l46 0"/>
<text stroke="none" fill="white" font-size="16" x="106" y="48">
x1.sw_sample-2
</text>
<path stroke="green" d="M50 613l1 0 1 -9 0 -21 1 -21M53 580l0 -24M53 580l1 30M54 613l0 -3M54 613l63 0M117 620l0 -172M117 449l422 0M539 614l0 -171M539 613l422 0M961 618l0 -170 1 1 12 0"/>
<path stroke="#FFC0C5" d="M462 55l46 0"/>
<text stroke="none" fill="white" font-size="16" x="518" y="64">
x1.comp_out_p+2
</text>
<path stroke="#FFC0C5" d="M50 249l1 0 1 -9 0 -22 1 -18 0 -4M53 198l1 5M54 250l0 -47M54 248l1 1 539 0 0 -165M594 85l14 0M608 249l0 -171M608 249l39 0 0 -165M647 85l14 0M661 250l0 -172M661 249l12 0M673 252l0 -3M673 252l1 -89 0 -79M674 85l13 0M687 249l0 -173"/>
<path stroke="#FFC0C5" d="M687 249l40 0 0 -165M727 85l13 0M740 250l0 -170M740 249l39 0 1 -147 0 -18M780 85l13 0M793 250l0 -172M793 249l13 0 1 -155 0 -10M807 85l12 0M819 249l0 -174M819 249l14 0 1 -157 0 -8M834 85l11 0 0 -9 1 153M846 249l0 -20"/>
<path stroke="#FFC0C5" d="M846 249l15 0 0 -151 1 -13 0 -1M862 85l10 0M872 249l0 -173M872 249l16 0 0 -165M888 85l10 0M898 249l0 -173M898 249l16 0 0 -165 1 1 10 0M925 249l0 -169M925 249l49 0"/>
<path stroke="#A52A2A" d="M50 55l46 0"/>
<text stroke="none" fill="white" font-size="16" x="106" y="64">
x1.comp_out_n-2
</text>
<path stroke="#A52A2A" d="M50 613l1 0 1 -9 0 -22 1 -19M53 564l0 -3M53 564l1 6M54 613l0 -43M54 613l488 0 0 -165M542 449l13 0M555 613l0 -173M555 613l13 0M568 618l0 -171M568 449l13 0 0 -9 1 161M582 613l0 -12M582 613l39 0 0 -165M621 449l13 0M634 614l0 -173"/>
<path stroke="#A52A2A" d="M634 614l1 -1 39 0M674 614l0 -1 26 0 1 -147 0 -18M701 449l12 0 0 -7 1 147M714 613l0 -24M714 613l40 0 1 1 0 -166M755 449l11 0M766 613l0 -173M766 613l171 0 1 -49 0 -117M938 449l13 0M951 613l0 -173M951 613l23 0"/>
</svg>
