<?xml version="1.0" standalone="yes"?>
<!DOCTYPE svg PUBLIC "-//W3C//DTD SVG 1.1//EN"
 "http://www.w3.org/Graphics/SVG/1.1/DTD/svg11.dtd">
<svg xmlns="http://www.w3.org/2000/svg" version="1.1"
  width="100%" height="100%" viewBox="0 0 1024 768"
  style="fill: none; font-family: Helvetica;
 font: Helvetica;
">

<!-- Creator: NGspice -->

<rect x="0" y="0" width="1024" height="768" fill="black" stroke="none"/>
<text stroke="none" fill="white" font-size="16" x="358" y="752">
time
</text>
<text stroke="none" fill="white" font-size="16" x="10" y="16">
tran1: run489_vin-0.469776
</text>
<path stroke="white" d="M50 704l0 -637"/>
<text stroke="none" fill="white" font-size="16" x="35" y="728">
0.0
</text>
<path stroke="white" stroke-dasharray="1,2" d="M182 704l0 -637"/>
<text stroke="none" fill="white" font-size="16" x="157" y="728">
100.0
</text>
<path stroke="white" stroke-dasharray="1,2" d="M314 704l0 -637"/>
<text stroke="none" fill="white" font-size="16" x="289" y="728">
200.0
</text>
<path stroke="white" stroke-dasharray="1,2" d="M446 704l0 -637"/>
<text stroke="none" fill="white" font-size="16" x="421" y="728">
300.0
</text>
<path stroke="white" stroke-dasharray="1,2" d="M578 704l0 -637"/>
<text stroke="none" fill="white" font-size="16" x="553" y="728">
400.0
</text>
<path stroke="white" stroke-dasharray="1,2" d="M710 704l0 -637"/>
<text stroke="none" fill="white" font-size="16" x="685" y="728">
500.0
</text>
<path stroke="white" stroke-dasharray="1,2" d="M842 704l0 -637"/>
<text stroke="none" fill="white" font-size="16" x="817" y="728">
600.0
</text>
<path stroke="white" stroke-dasharray="1,2" d="M974 704l0 -637"/>
<text stroke="none" fill="white" font-size="16" x="949" y="728">
700.0
</text>
<text stroke="none" fill="white" font-size="16" x="614" y="752">
ns
</text>
<path stroke="white" stroke-dasharray="1,2" d="M50 704l924 0"/>
<text stroke="none" fill="white" font-size="16" x="8" y="712">
-2.5
</text>
<path stroke="white" stroke-dasharray="1,2" d="M50 655l924 0"/>
<text stroke="none" fill="white" font-size="16" x="8" y="663">
-2.0
</text>
<path stroke="white" stroke-dasharray="1,2" d="M50 606l924 0"/>
<text stroke="none" fill="white" font-size="16" x="8" y="614">
-1.5
</text>
<path stroke="white" stroke-dasharray="1,2" d="M50 557l924 0"/>
<text stroke="none" fill="white" font-size="16" x="8" y="565">
-1.0
</text>
<path stroke="white" stroke-dasharray="1,2" d="M50 508l924 0"/>
<text stroke="none" fill="white" font-size="16" x="8" y="516">
-0.5
</text>
<path stroke="white" d="M50 459l924 0"/>
<text stroke="none" fill="white" font-size="16" x="18" y="467">
0.0
</text>
<path stroke="white" stroke-dasharray="1,2" d="M50 410l924 0"/>
<text stroke="none" fill="white" font-size="16" x="18" y="418">
0.5
</text>
<path stroke="white" stroke-dasharray="1,2" d="M50 361l924 0"/>
<text stroke="none" fill="white" font-size="16" x="18" y="369">
1.0
</text>
<path stroke="white" stroke-dasharray="1,2" d="M50 312l924 0"/>
<text stroke="none" fill="white" font-size="16" x="18" y="320">
1.5
</text>
<path stroke="white" stroke-dasharray="1,2" d="M50 263l924 0"/>
<text stroke="none" fill="white" font-size="16" x="18" y="271">
2.0
</text>
<path stroke="white" stroke-dasharray="1,2" d="M50 214l924 0"/>
<text stroke="none" fill="white" font-size="16" x="18" y="222">
2.5
</text>
<path stroke="white" stroke-dasharray="1,2" d="M50 165l924 0"/>
<text stroke="none" fill="white" font-size="16" x="18" y="173">
3.0
</text>
<path stroke="white" stroke-dasharray="1,2" d="M50 116l924 0"/>
<text stroke="none" fill="white" font-size="16" x="18" y="124">
3.5
</text>
<path stroke="white" stroke-dasharray="1,2" d="M50 67l924 0"/>
<text stroke="none" fill="white" font-size="16" x="18" y="75">
4.0
</text>
<text stroke="none" fill="white" font-size="16" x="10" y="32">
     
</text>
<path stroke="red" d="M462 23l46 0"/>
<text stroke="none" fill="white" font-size="16" x="518" y="32">
x1.vsampled_p
</text>
<path stroke="red" d="M50 459l1 0 1 -7 0 -17 1 -15 0 -5 1 2M54 441l0 -42 1 -5 0 -15 1 -2 0 -3 1 -2 1 0 0 -1 59 0M117 380l0 -9M117 380l1 13M118 407l0 -14M118 407l1 3M119 414l0 -4M119 414l3 3 424 0 0 -29 1 -4 0 -24 1 -2 0 -5 2 -2 4 0 0 -1M554 351l13 0"/>
<path stroke="red" d="M567 352l0 -1 13 0 0 -1M580 351l13 0M593 352l0 -1 7 0M600 372l0 -21M600 372l1 4M601 379l0 -3M601 378l1 -3 0 -2 24 0 0 -20 2 0 1 1 4 0 0 -1M633 354l13 0M646 355l0 -1 7 0M653 366l0 -12M653 366l1 1M654 368l0 -2 1 0 0 -1 4 0"/>
<path stroke="red" d="M659 365l0 -1M659 365l20 0M679 371l0 -6M679 371l1 1M680 374l0 -3 1 0 0 -1 18 0M699 371l0 -1 26 0M725 371l0 -1 26 0M751 371l0 -1M751 371l1 -1 26 0M778 371l0 -1 7 0 1 1M786 372l0 -1 132 0M918 396l0 -26M918 396l1 3M919 416l0 -17"/>
<path stroke="red" d="M919 416l1 3 1 -1 1 0 0 -1 52 0"/>
<path stroke="blue" d="M50 23l46 0"/>
<text stroke="none" fill="white" font-size="16" x="106" y="32">
x1.vsampled_n
</text>
<path stroke="blue" d="M50 459l1 0 1 -7 0 -17 1 -16 0 -5 1 2M54 441l0 -42 1 -5 0 -15 1 -2 0 -3 1 -2 1 0 0 -1 59 0 0 -1 1 -10 0 -21 1 -5 0 -5 1 -2 1 -1 0 -1 419 0M540 326l0 -1 27 0M567 326l0 -1 6 0 1 5M574 349l0 -19M574 349l1 9M575 368l0 -10M575 368l1 1"/>
<path stroke="blue" d="M576 369l130 0M706 373l0 -4M706 373l1 -1 25 0 0 -3 19 0M751 370l0 -1M751 370l1 0 0 -1 7 0M759 372l0 -3M759 371l54 0M813 372l0 -1 25 0 1 -1M839 371l0 -1M839 371l79 0M918 372l0 -18 1 -2 0 -13 1 -3 0 -4 1 -3 0 -2 1 0 0 -1"/>
<path stroke="blue" d="M922 326l1 0 0 -1 13 0M936 326l0 -1 14 0 0 -1M950 325l24 0"/>
<path stroke="#FFA500" d="M462 39l46 0"/>
<text stroke="none" fill="white" font-size="16" x="518" y="48">
x1.vsampled_p-x1.vsampled_n
</text>
<path stroke="#FFA500" d="M50 459l2 0 1 1 1 0 0 -1 63 0M117 470l0 -11M117 470l1 22M118 527l0 -35M118 527l1 8M119 544l0 -9M119 544l1 3 1 2M121 550l0 -1M121 550l1 1 418 0 0 -1M540 551l6 0 0 -29 1 -4 0 -25 1 -1 0 -5 2 -2 17 0M567 486l0 -2M567 485l6 0"/>
<path stroke="#FFA500" d="M573 485l1 -5 0 -19 1 -9 0 -10 1 -1 17 0M593 442l0 -1 7 0M600 462l0 -21M600 462l1 4M601 469l0 -3M601 468l1 -3 0 -2 24 0 0 -20 2 0 1 1 4 0 0 -1M633 444l20 0M653 456l0 -12M653 456l1 1M654 458l0 -2 1 -1 4 0 0 -1M659 455l20 0"/>
<path stroke="#FFA500" d="M679 461l0 -6M679 461l1 1M680 464l0 -3 1 -1 25 0 0 -3 19 0M725 458l0 -1 7 0M732 461l0 -4M732 460l27 0 0 -2 19 0M778 459l0 -1 7 0 1 1M786 460l0 -1 27 0 0 -1M813 459l105 0M918 500l0 -42M918 500l1 5M919 536l0 -31M919 536l1 6"/>
<path stroke="#FFA500" d="M920 546l0 -4M920 546l1 2M921 550l0 -2M921 550l1 0 1 1 13 0 0 -1M936 551l38 0"/>
<path stroke="green" d="M50 39l46 0"/>
<text stroke="none" fill="white" font-size="16" x="106" y="48">
x1.sw_sample-2
</text>
<path stroke="green" d="M50 655l1 0 1 -10 0 -23 1 -21M53 619l0 -25M53 619l1 33M54 655l0 -3M54 655l63 0M117 662l0 -184 1 0M118 479l0 -1M118 479l421 0M539 656l0 -184M539 655l422 0M961 660l0 -182 1 0M962 479l0 -1M962 479l12 0"/>
<path stroke="#FFC0C5" d="M462 55l46 0"/>
<text stroke="none" fill="white" font-size="16" x="518" y="64">
x1.comp_out_p+2
</text>
<path stroke="#FFC0C5" d="M50 263l1 0 1 -10 0 -23 1 -20 0 -4M53 209l1 4M54 264l0 -51M54 262l1 1 539 0 0 -178M594 86l1 1 13 0M608 264l0 -180M608 263l39 0 0 -178M647 87l14 0M661 264l0 -181M661 263l12 0M673 264l0 -1M673 264l1 -53 0 -126M674 87l13 0"/>
<path stroke="#FFC0C5" d="M687 263l0 -185M687 263l40 0 0 -178M727 86l1 1 12 0M740 263l0 -180M740 263l40 0 0 -177M780 87l13 0M793 263l0 -179M793 263l41 0 0 -177M834 87l11 0 0 -3M845 85l1 162M846 263l0 -16M846 263l128 0"/>
<path stroke="#A52A2A" d="M50 55l46 0"/>
<text stroke="none" fill="white" font-size="16" x="106" y="64">
x1.comp_out_n-2
</text>
<path stroke="#A52A2A" d="M50 655l1 0 1 -10 0 -24 1 -20M53 602l0 -3M53 602l1 7M54 655l0 -46M54 655l488 0 0 -178M542 479l13 0M555 655l0 -186M555 655l13 0M568 657l0 -181M568 479l13 0 0 -10 1 174M582 655l0 -12M582 655l39 0 0 -178M621 479l13 0M634 655l0 -185"/>
<path stroke="#A52A2A" d="M634 655l13 0M647 656l0 -1 27 0M674 656l0 -1 26 0 0 -172 1 -6M701 479l0 -2M701 479l12 0 0 -10 1 177M714 656l0 -10M714 655l39 0 0 -177 1 0M754 479l0 -1M754 479l12 0M766 656l0 -183M766 655l41 0 0 -177 1 1 11 0M819 655l0 -180"/>
<path stroke="#A52A2A" d="M819 655l41 0 0 -177 1 0M861 479l0 -1M861 479l11 0M872 655l0 -188M872 655l14 0 0 -170 1 -7M887 479l0 -1M887 479l11 0M898 655l0 -188M898 655l15 0 0 -177M913 479l12 0M925 655l0 -186M925 655l12 0 1 -52 0 -126M938 479l13 0"/>
<path stroke="#A52A2A" d="M951 655l0 -181M951 655l23 0"/>
</svg>
