<?xml version="1.0" standalone="yes"?>
<!DOCTYPE svg PUBLIC "-//W3C//DTD SVG 1.1//EN"
 "http://www.w3.org/Graphics/SVG/1.1/DTD/svg11.dtd">
<svg xmlns="http://www.w3.org/2000/svg" version="1.1"
  width="100%" height="100%" viewBox="0 0 1024 768"
  style="fill: none; font-family: Helvetica;
 font: Helvetica;
">

<!-- Creator: NGspice -->

<rect x="0" y="0" width="1024" height="768" fill="black" stroke="none"/>
<text stroke="none" fill="white" font-size="16" x="358" y="752">
time
</text>
<text stroke="none" fill="white" font-size="16" x="10" y="16">
tran1: run490_vin-0.468897
</text>
<path stroke="white" d="M50 704l0 -637"/>
<text stroke="none" fill="white" font-size="16" x="35" y="728">
0.0
</text>
<path stroke="white" stroke-dasharray="1,2" d="M182 704l0 -637"/>
<text stroke="none" fill="white" font-size="16" x="157" y="728">
100.0
</text>
<path stroke="white" stroke-dasharray="1,2" d="M314 704l0 -637"/>
<text stroke="none" fill="white" font-size="16" x="289" y="728">
200.0
</text>
<path stroke="white" stroke-dasharray="1,2" d="M446 704l0 -637"/>
<text stroke="none" fill="white" font-size="16" x="421" y="728">
300.0
</text>
<path stroke="white" stroke-dasharray="1,2" d="M578 704l0 -637"/>
<text stroke="none" fill="white" font-size="16" x="553" y="728">
400.0
</text>
<path stroke="white" stroke-dasharray="1,2" d="M710 704l0 -637"/>
<text stroke="none" fill="white" font-size="16" x="685" y="728">
500.0
</text>
<path stroke="white" stroke-dasharray="1,2" d="M842 704l0 -637"/>
<text stroke="none" fill="white" font-size="16" x="817" y="728">
600.0
</text>
<path stroke="white" stroke-dasharray="1,2" d="M974 704l0 -637"/>
<text stroke="none" fill="white" font-size="16" x="949" y="728">
700.0
</text>
<text stroke="none" fill="white" font-size="16" x="614" y="752">
ns
</text>
<path stroke="white" stroke-dasharray="1,2" d="M50 704l924 0"/>
<text stroke="none" fill="white" font-size="16" x="8" y="712">
-2.5
</text>
<path stroke="white" stroke-dasharray="1,2" d="M50 655l924 0"/>
<text stroke="none" fill="white" font-size="16" x="8" y="663">
-2.0
</text>
<path stroke="white" stroke-dasharray="1,2" d="M50 606l924 0"/>
<text stroke="none" fill="white" font-size="16" x="8" y="614">
-1.5
</text>
<path stroke="white" stroke-dasharray="1,2" d="M50 557l924 0"/>
<text stroke="none" fill="white" font-size="16" x="8" y="565">
-1.0
</text>
<path stroke="white" stroke-dasharray="1,2" d="M50 508l924 0"/>
<text stroke="none" fill="white" font-size="16" x="8" y="516">
-0.5
</text>
<path stroke="white" d="M50 459l924 0"/>
<text stroke="none" fill="white" font-size="16" x="18" y="467">
0.0
</text>
<path stroke="white" stroke-dasharray="1,2" d="M50 410l924 0"/>
<text stroke="none" fill="white" font-size="16" x="18" y="418">
0.5
</text>
<path stroke="white" stroke-dasharray="1,2" d="M50 361l924 0"/>
<text stroke="none" fill="white" font-size="16" x="18" y="369">
1.0
</text>
<path stroke="white" stroke-dasharray="1,2" d="M50 312l924 0"/>
<text stroke="none" fill="white" font-size="16" x="18" y="320">
1.5
</text>
<path stroke="white" stroke-dasharray="1,2" d="M50 263l924 0"/>
<text stroke="none" fill="white" font-size="16" x="18" y="271">
2.0
</text>
<path stroke="white" stroke-dasharray="1,2" d="M50 214l924 0"/>
<text stroke="none" fill="white" font-size="16" x="18" y="222">
2.5
</text>
<path stroke="white" stroke-dasharray="1,2" d="M50 165l924 0"/>
<text stroke="none" fill="white" font-size="16" x="18" y="173">
3.0
</text>
<path stroke="white" stroke-dasharray="1,2" d="M50 116l924 0"/>
<text stroke="none" fill="white" font-size="16" x="18" y="124">
3.5
</text>
<path stroke="white" stroke-dasharray="1,2" d="M50 67l924 0"/>
<text stroke="none" fill="white" font-size="16" x="18" y="75">
4.0
</text>
<text stroke="none" fill="white" font-size="16" x="10" y="32">
     
</text>
<path stroke="red" d="M462 23l46 0"/>
<text stroke="none" fill="white" font-size="16" x="518" y="32">
x1.vsampled_p
</text>
<path stroke="red" d="M50 459l1 0 1 -7 0 -17 1 -15 0 -5 1 2M54 441l0 -42 1 -5 0 -15 1 -2 0 -3 1 -2 1 0 0 -1 59 0M117 380l0 -9M117 380l1 13M118 407l0 -14M118 407l1 3M119 414l0 -4M119 414l3 3 424 0 0 -25 1 -3 0 -28 1 -2 0 -5 1 -1 0 -1 1 -1 4 0"/>
<path stroke="red" d="M554 351l0 -1M554 351l13 0M567 352l0 -1 13 0 0 -1M580 351l13 0M593 352l0 -1 7 0M600 371l0 -20M600 371l1 3M601 379l0 -5M601 377l1 -2 0 -1 1 -1 23 0 0 -19 1 -1 1 0 1 1 4 0 0 -1M633 354l13 0M646 355l0 -1 7 0M653 366l0 -12M653 366l1 1"/>
<path stroke="red" d="M654 368l0 -2 1 -1 4 0 0 -1M659 365l20 0M679 372l0 -7M679 372l1 1 0 -2 1 -1 18 0M699 371l0 -1 26 0M725 371l0 -1 26 0M751 371l0 -1 27 0M778 371l0 -1 7 0M785 371l0 -1M785 371l1 0M786 372l0 -1 28 0M814 372l0 -1 17 0M831 372l0 -1"/>
<path stroke="red" d="M831 371l7 0 0 -1 1 1 80 0M919 385l0 -15M919 385l1 2M920 409l0 -22M920 409l1 4M921 419l0 -6M921 419l1 0 0 -1 1 0 0 -1 51 0"/>
<path stroke="blue" d="M50 23l46 0"/>
<text stroke="none" fill="white" font-size="16" x="106" y="32">
x1.vsampled_n
</text>
<path stroke="blue" d="M50 459l1 0 1 -7 0 -17 1 -16 0 -5 1 2M54 441l0 -42 1 -5 0 -15 1 -2 0 -3 1 -2 1 0 0 -1 59 0 0 -1 1 -10 0 -21 1 -5 0 -5 1 -2 1 -1 0 -1 419 0M540 326l0 -1 26 0 1 1 0 -1 7 0M574 348l0 -23M574 348l1 10M575 368l0 -10M575 368l1 1"/>
<path stroke="blue" d="M576 369l17 0M593 370l0 -1 26 0M619 370l0 -1 27 0M646 370l0 -1 53 0M699 370l0 -1 7 0M706 373l0 -4M706 373l1 -1 25 0 0 -3 1 0M733 370l0 -1M733 370l2 0 1 -1 2 0M738 370l0 -1 13 0M751 370l0 -1M751 370l1 0 0 -1 7 0M759 372l0 -3"/>
<path stroke="blue" d="M759 371l160 0 0 -9 1 -1 0 -16 1 -3 0 -10 1 0 0 -4 1 -1 0 -2M923 326l1 0 0 -1 12 0M936 326l0 -1 38 0"/>
<path stroke="#FFA500" d="M462 39l46 0"/>
<text stroke="none" fill="white" font-size="16" x="518" y="48">
x1.vsampled_p-x1.vsampled_n
</text>
<path stroke="#FFA500" d="M50 459l2 0 1 1 1 0 0 -1 63 0M117 470l0 -11M117 470l1 22M118 527l0 -35M118 527l1 8M119 544l0 -9M119 544l1 3 1 2M121 550l0 -1M121 550l1 1 418 0 0 -1M540 551l1 0 0 -1M541 551l5 0 0 -25 1 -3 0 -28 1 -2 0 -5 1 -1 0 -2 5 0"/>
<path stroke="#FFA500" d="M554 485l0 -1M554 485l13 0M567 486l0 -2M567 485l7 0 0 -23 1 -10 0 -10 1 -1 4 0 0 -1M580 441l20 0M600 460l0 -19M600 460l1 4M601 469l0 -5M601 467l1 -2 0 -1 1 -1 23 0 0 -20 1 0 0 -1M627 443l2 0M629 444l0 -1M629 444l4 0"/>
<path stroke="#FFA500" d="M633 444l0 -1 2 0M635 444l0 -1M635 444l11 0 0 -1M646 444l7 0M653 456l0 -13M653 456l1 1 0 -1 1 -1 4 0 0 -1 1 0M660 455l0 -1M660 455l12 0 0 -1M672 455l7 0M679 462l0 -7M679 462l1 1 0 -3 26 0 0 -3 26 0M732 460l0 -3M732 460l27 0"/>
<path stroke="#FFA500" d="M759 460l0 -3M759 458l26 0M785 459l0 -1M785 459l1 0M786 460l0 -1 28 0M814 460l0 -1 24 0 0 -1M838 459l81 0M919 482l0 -23M919 482l1 3M920 523l0 -38M920 523l1 7M921 546l0 -16M921 546l1 0M922 549l0 -3M922 549l1 0M923 551l0 -2"/>
<path stroke="#FFA500" d="M923 550l1 0M924 551l0 -1M924 551l12 0 0 -1M936 551l38 0"/>
<path stroke="green" d="M50 39l46 0"/>
<text stroke="none" fill="white" font-size="16" x="106" y="48">
x1.sw_sample-2
</text>
<path stroke="green" d="M50 655l1 0 1 -10 0 -23 1 -21M53 619l0 -25M53 619l1 33M54 655l0 -3M54 655l63 0M117 662l0 -184 1 0M118 479l0 -1M118 479l421 0M539 656l0 -184M539 655l422 0M961 660l0 -182 1 0M962 479l0 -1M962 479l12 0"/>
<path stroke="#FFC0C5" d="M462 55l46 0"/>
<text stroke="none" fill="white" font-size="16" x="518" y="64">
x1.comp_out_p+2
</text>
<path stroke="#FFC0C5" d="M50 263l1 0 1 -10 0 -23 1 -20 0 -4M53 209l1 4M54 264l0 -51M54 262l1 1 539 0M594 264l0 -179M594 86l1 1 13 0M608 264l0 -186M608 263l39 0 0 -178M647 87l14 0M661 264l0 -186M661 263l12 0M673 264l0 -1M673 264l1 -47 0 -132"/>
<path stroke="#FFC0C5" d="M674 87l13 0M687 263l0 -186M687 263l40 0 0 -178M727 87l13 0M740 264l0 -184M740 263l40 0 0 -177M780 87l13 0M793 263l0 -186M793 263l16 0 0 -177M809 87l10 0M819 263l0 -185M819 263l42 0 0 -162 1 -15M862 87l0 -1M862 87l10 0"/>
<path stroke="#FFC0C5" d="M872 263l0 -186M872 263l16 0 0 -177M888 87l10 0M898 263l0 -186M898 263l16 0 0 -177 1 1 10 0M925 263l0 -180M925 263l49 0"/>
<path stroke="#A52A2A" d="M50 55l46 0"/>
<text stroke="none" fill="white" font-size="16" x="106" y="64">
x1.comp_out_n-2
</text>
<path stroke="#A52A2A" d="M50 655l1 0 1 -10 0 -24 1 -20M53 602l0 -3M53 602l1 7M54 655l0 -46M54 655l488 0 0 -178M542 479l13 0M555 655l0 -185M555 655l13 0M568 657l0 -181M568 479l13 0 0 -10 1 174M582 655l0 -12M582 655l12 0M594 656l0 -1 27 0M621 657l0 -180"/>
<path stroke="#A52A2A" d="M621 479l13 0M634 655l0 -185M634 655l66 0 0 -178 1 0M701 479l0 -2M701 479l12 0 0 -10 1 177M714 656l0 -10M714 655l39 0 0 -178M753 478l1 1 12 0M766 655l0 -185M766 655l68 0 0 -177M834 479l11 0 0 -9 1 166M846 655l0 -19M846 655l91 0"/>
<path stroke="#A52A2A" d="M937 662l0 -7M937 662l1 -156 0 -30M938 479l13 0M951 655l0 -182M951 655l23 0"/>
</svg>
