<?xml version="1.0" standalone="yes"?>
<!DOCTYPE svg PUBLIC "-//W3C//DTD SVG 1.1//EN"
 "http://www.w3.org/Graphics/SVG/1.1/DTD/svg11.dtd">
<svg xmlns="http://www.w3.org/2000/svg" version="1.1"
  width="100%" height="100%" viewBox="0 0 1024 768"
  style="fill: none; font-family: Helvetica;
 font: Helvetica;
">

<!-- Creator: NGspice -->

<rect x="0" y="0" width="1024" height="768" fill="black" stroke="none"/>
<text stroke="none" fill="white" font-size="16" x="358" y="752">
time
</text>
<text stroke="none" fill="white" font-size="16" x="10" y="16">
tran1: run491_vin-0.468018
</text>
<path stroke="white" d="M50 704l0 -637"/>
<text stroke="none" fill="white" font-size="16" x="35" y="728">
0.0
</text>
<path stroke="white" stroke-dasharray="1,2" d="M182 704l0 -637"/>
<text stroke="none" fill="white" font-size="16" x="157" y="728">
100.0
</text>
<path stroke="white" stroke-dasharray="1,2" d="M314 704l0 -637"/>
<text stroke="none" fill="white" font-size="16" x="289" y="728">
200.0
</text>
<path stroke="white" stroke-dasharray="1,2" d="M446 704l0 -637"/>
<text stroke="none" fill="white" font-size="16" x="421" y="728">
300.0
</text>
<path stroke="white" stroke-dasharray="1,2" d="M578 704l0 -637"/>
<text stroke="none" fill="white" font-size="16" x="553" y="728">
400.0
</text>
<path stroke="white" stroke-dasharray="1,2" d="M710 704l0 -637"/>
<text stroke="none" fill="white" font-size="16" x="685" y="728">
500.0
</text>
<path stroke="white" stroke-dasharray="1,2" d="M842 704l0 -637"/>
<text stroke="none" fill="white" font-size="16" x="817" y="728">
600.0
</text>
<path stroke="white" stroke-dasharray="1,2" d="M974 704l0 -637"/>
<text stroke="none" fill="white" font-size="16" x="949" y="728">
700.0
</text>
<text stroke="none" fill="white" font-size="16" x="614" y="752">
ns
</text>
<path stroke="white" stroke-dasharray="1,2" d="M50 704l924 0"/>
<text stroke="none" fill="white" font-size="16" x="8" y="712">
-3.0
</text>
<path stroke="white" stroke-dasharray="1,2" d="M50 613l924 0"/>
<text stroke="none" fill="white" font-size="16" x="8" y="621">
-2.0
</text>
<path stroke="white" stroke-dasharray="1,2" d="M50 522l924 0"/>
<text stroke="none" fill="white" font-size="16" x="8" y="530">
-1.0
</text>
<path stroke="white" d="M50 431l924 0"/>
<text stroke="none" fill="white" font-size="16" x="18" y="439">
0.0
</text>
<path stroke="white" stroke-dasharray="1,2" d="M50 340l924 0"/>
<text stroke="none" fill="white" font-size="16" x="18" y="348">
1.0
</text>
<path stroke="white" stroke-dasharray="1,2" d="M50 249l924 0"/>
<text stroke="none" fill="white" font-size="16" x="18" y="257">
2.0
</text>
<path stroke="white" stroke-dasharray="1,2" d="M50 158l924 0"/>
<text stroke="none" fill="white" font-size="16" x="18" y="166">
3.0
</text>
<path stroke="white" stroke-dasharray="1,2" d="M50 67l924 0"/>
<text stroke="none" fill="white" font-size="16" x="18" y="75">
4.0
</text>
<text stroke="none" fill="white" font-size="16" x="10" y="32">
     
</text>
<path stroke="red" d="M462 23l46 0"/>
<text stroke="none" fill="white" font-size="16" x="518" y="32">
x1.vsampled_p
</text>
<path stroke="red" d="M50 431l1 0 1 -7 0 -15 1 -14 0 -5 1 2M54 415l0 -40 1 -4 0 -14 1 -3 0 -2 2 -2 1 0 1 -1 4 0M64 350l0 -1M64 350l4 0 1 -1 48 0M117 358l0 -9M117 358l1 12M118 383l0 -13M118 383l1 3M119 389l0 -3M119 389l3 3 424 0 0 -20 1 -2 0 -28"/>
<path stroke="red" d="M547 342l1 -2 0 -6 1 -2 0 -1 5 0 0 -1 12 0 1 1M567 332l0 -1 13 0 0 -1 13 0M593 331l0 -1M593 331l7 0M600 349l0 -18M600 349l1 3M601 357l0 -5M601 355l1 -2 0 -1 1 -1 22 0 1 -1 0 -17 1 -1 1 1 18 0M646 334l0 -1 7 0M653 345l0 -12"/>
<path stroke="red" d="M653 345l1 1 0 -2 1 0 1 -1 16 0M672 344l0 -1 7 0M679 349l0 -6M679 349l1 1M680 352l0 -3 1 0 0 -1 17 0 1 1 0 -1 26 0M725 349l0 -1 26 0M751 349l0 -1M751 349l1 0 0 -1 26 0M778 349l0 -1 7 0M785 349l0 -1M785 349l1 1 0 -1 27 0"/>
<path stroke="red" d="M813 350l0 -1 17 0 1 1 0 -1 87 0M918 375l0 -26M918 375l1 2M919 392l0 -15M919 392l1 2 1 -1 0 -1 53 0"/>
<path stroke="blue" d="M50 23l46 0"/>
<text stroke="none" fill="white" font-size="16" x="106" y="32">
x1.vsampled_n
</text>
<path stroke="blue" d="M50 431l1 0 1 -7 0 -15 1 -15 0 -4 1 1M54 414l0 -39 1 -4 0 -14 1 -3 0 -2 2 -2 1 0 1 -1 4 0M64 350l0 -1M64 350l4 0 1 -1 48 0 0 -1 1 -9 0 -20 1 -4 0 -5 1 -1 1 -2 419 0M540 308l0 -1 14 0 0 -1M554 307l13 0M567 308l0 -1 7 0M574 330l0 -23"/>
<path stroke="blue" d="M574 330l1 7M575 346l0 -9M575 346l1 1M576 348l0 -1M576 348l4 0 0 -1M580 348l26 0 0 -1 1 1 26 0 0 -1M633 348l26 0 0 -1M659 348l27 0 0 -1M686 348l20 0M706 351l0 -3M706 351l1 0 0 -1 24 0 0 -2 1 -1M732 348l0 -1M732 348l27 0"/>
<path stroke="blue" d="M759 350l0 -2M759 349l19 0M778 350l0 -1 26 0M804 350l0 -1 27 0M831 350l0 -1 26 0M857 350l0 -1 26 0M883 350l0 -1 27 0M910 350l0 -1 8 0M918 350l0 -18 1 -2 0 -11 1 -3 0 -3 1 -3 0 -2 1 0 0 -1 1 0 0 -1M923 307l13 0M936 308l0 -1"/>
<path stroke="blue" d="M936 307l14 0 0 -1M950 307l12 0 0 -1 2 0M964 307l0 -1M964 307l10 0"/>
<path stroke="#FFA500" d="M462 39l46 0"/>
<text stroke="none" fill="white" font-size="16" x="518" y="48">
x1.vsampled_p-x1.vsampled_n
</text>
<path stroke="#FFA500" d="M50 431l2 0 1 1 1 0 0 -1 63 0M117 441l0 -10M117 441l1 21M118 494l0 -32M118 494l1 7M119 510l0 -9M119 510l1 3 1 2 1 1 418 0 0 -1M540 516l6 0 0 -20 1 -2 0 -28 1 -2 0 -6 1 -1 0 -2 5 0 0 -1M554 455l13 0 0 -1M567 455l7 0 0 -24"/>
<path stroke="#FFA500" d="M574 431l1 -6 0 -9 1 -1 0 -1 17 0M593 415l0 -1 7 0M600 432l0 -18M600 432l1 3M601 440l0 -5M601 438l1 -2 0 -1 1 0 0 -1 16 0M619 435l0 -1M619 435l1 -1 6 0 0 -18 1 -1M627 416l0 -1M627 416l2 0 1 1 2 0 0 -1 14 0M646 417l0 -1"/>
<path stroke="#FFA500" d="M646 417l1 0 0 -1 6 0M653 429l0 -13M653 429l1 0 0 -2 5 0 0 -1M659 427l20 0M679 432l0 -5M679 432l1 1M680 435l0 -3 26 0 0 -3 25 0M731 432l0 -3M731 432l1 0 0 -1 19 0M751 432l0 -1M751 432l1 0 0 -1 7 0 0 -2M759 430l26 0M785 431l0 -1"/>
<path stroke="#FFA500" d="M785 431l1 0M786 432l0 -1 27 0M813 432l0 -1 25 0 0 -1M838 431l80 0M918 473l0 -43M918 473l1 5M919 504l0 -26M919 504l1 5M920 512l0 -3M920 512l1 2M921 515l0 -1M921 515l1 0M922 516l0 -1M922 516l14 0 0 -1M936 516l38 0"/>
<path stroke="green" d="M50 39l46 0"/>
<text stroke="none" fill="white" font-size="16" x="106" y="48">
x1.sw_sample-2
</text>
<path stroke="green" d="M50 613l1 0 1 -9 0 -21 1 -21M53 580l0 -24M53 580l1 30M54 613l0 -3M54 613l63 0M117 620l0 -172M117 449l422 0M539 614l0 -171M539 613l422 0M961 618l0 -170 1 1 12 0"/>
<path stroke="#FFC0C5" d="M462 55l46 0"/>
<text stroke="none" fill="white" font-size="16" x="518" y="64">
x1.comp_out_p+2
</text>
<path stroke="#FFC0C5" d="M50 249l1 0 1 -9 0 -22 1 -18 0 -4M53 198l1 5M54 250l0 -47M54 248l1 1 539 0M594 250l0 -166M594 85l14 0M608 249l0 -171M608 249l39 0 0 -165M647 85l14 0M661 250l0 -168M661 249l12 0M673 250l0 -1M673 250l1 -66 0 -100M674 85l13 0"/>
<path stroke="#FFC0C5" d="M687 250l0 -173M687 249l40 0 0 -165M727 85l13 0M740 250l0 -173M740 249l40 0 0 -165M780 85l13 0M793 249l0 -174M793 249l14 0 0 -164 1 -1M808 85l0 -1M808 85l11 0M819 250l0 -171M819 249l41 0 0 -164 12 0M872 249l0 -174M872 249l14 0"/>
<path stroke="#FFC0C5" d="M886 249l0 -148 1 -16 0 -1M887 85l11 0M898 249l0 -174M898 249l15 0 0 -165M913 85l12 0M925 249l0 -172M925 249l49 0"/>
<path stroke="#A52A2A" d="M50 55l46 0"/>
<text stroke="none" fill="white" font-size="16" x="106" y="64">
x1.comp_out_n-2
</text>
<path stroke="#A52A2A" d="M50 613l1 0 1 -9 0 -22 1 -19M53 564l0 -3M53 564l1 6M54 613l0 -43M54 613l488 0 0 -165M542 449l13 0M555 613l0 -172M555 613l13 0M568 614l0 -167M568 449l13 0 0 -7 1 133M582 613l0 -38M582 613l12 0M594 614l0 -1 27 0M621 616l0 -168"/>
<path stroke="#A52A2A" d="M621 449l13 0M634 613l0 -172M634 613l66 0 0 -163 1 -2M701 449l0 -1M701 449l12 0 0 -9 1 165M714 613l0 -8M714 613l39 0 0 -165 1 0M754 449l0 -1M754 449l12 0M766 614l0 -170M766 613l68 0 0 -165M834 449l11 0 0 -10 1 153M846 613l0 -21"/>
<path stroke="#A52A2A" d="M846 613l91 0M937 620l0 -7M937 620l1 -145 0 -28M938 449l13 0M951 613l0 -169M951 613l23 0"/>
</svg>
