<?xml version="1.0" standalone="yes"?>
<!DOCTYPE svg PUBLIC "-//W3C//DTD SVG 1.1//EN"
 "http://www.w3.org/Graphics/SVG/1.1/DTD/svg11.dtd">
<svg xmlns="http://www.w3.org/2000/svg" version="1.1"
  width="100%" height="100%" viewBox="0 0 1024 768"
  style="fill: none; font-family: Helvetica;
 font: Helvetica;
">

<!-- Creator: NGspice -->

<rect x="0" y="0" width="1024" height="768" fill="black" stroke="none"/>
<text stroke="none" fill="white" font-size="16" x="358" y="752">
time
</text>
<text stroke="none" fill="white" font-size="16" x="10" y="16">
tran1: run1680_vin0.577
</text>
<path stroke="white" d="M50 704l0 -637"/>
<text stroke="none" fill="white" font-size="16" x="35" y="728">
0.0
</text>
<path stroke="white" stroke-dasharray="1,2" d="M182 704l0 -637"/>
<text stroke="none" fill="white" font-size="16" x="157" y="728">
100.0
</text>
<path stroke="white" stroke-dasharray="1,2" d="M314 704l0 -637"/>
<text stroke="none" fill="white" font-size="16" x="289" y="728">
200.0
</text>
<path stroke="white" stroke-dasharray="1,2" d="M446 704l0 -637"/>
<text stroke="none" fill="white" font-size="16" x="421" y="728">
300.0
</text>
<path stroke="white" stroke-dasharray="1,2" d="M578 704l0 -637"/>
<text stroke="none" fill="white" font-size="16" x="553" y="728">
400.0
</text>
<path stroke="white" stroke-dasharray="1,2" d="M710 704l0 -637"/>
<text stroke="none" fill="white" font-size="16" x="685" y="728">
500.0
</text>
<path stroke="white" stroke-dasharray="1,2" d="M842 704l0 -637"/>
<text stroke="none" fill="white" font-size="16" x="817" y="728">
600.0
</text>
<path stroke="white" stroke-dasharray="1,2" d="M974 704l0 -637"/>
<text stroke="none" fill="white" font-size="16" x="949" y="728">
700.0
</text>
<text stroke="none" fill="white" font-size="16" x="614" y="752">
ns
</text>
<path stroke="white" stroke-dasharray="1,2" d="M50 704l924 0"/>
<text stroke="none" fill="white" font-size="16" x="8" y="712">
-3.0
</text>
<path stroke="white" stroke-dasharray="1,2" d="M50 613l924 0"/>
<text stroke="none" fill="white" font-size="16" x="8" y="621">
-2.0
</text>
<path stroke="white" stroke-dasharray="1,2" d="M50 522l924 0"/>
<text stroke="none" fill="white" font-size="16" x="8" y="530">
-1.0
</text>
<path stroke="white" d="M50 431l924 0"/>
<text stroke="none" fill="white" font-size="16" x="18" y="439">
0.0
</text>
<path stroke="white" stroke-dasharray="1,2" d="M50 340l924 0"/>
<text stroke="none" fill="white" font-size="16" x="18" y="348">
1.0
</text>
<path stroke="white" stroke-dasharray="1,2" d="M50 249l924 0"/>
<text stroke="none" fill="white" font-size="16" x="18" y="257">
2.0
</text>
<path stroke="white" stroke-dasharray="1,2" d="M50 158l924 0"/>
<text stroke="none" fill="white" font-size="16" x="18" y="166">
3.0
</text>
<path stroke="white" stroke-dasharray="1,2" d="M50 67l924 0"/>
<text stroke="none" fill="white" font-size="16" x="18" y="75">
4.0
</text>
<text stroke="none" fill="white" font-size="16" x="10" y="32">
     
</text>
<path stroke="red" d="M462 23l46 0"/>
<text stroke="none" fill="white" font-size="16" x="518" y="32">
x1.vsampled_p
</text>
<path stroke="red" d="M50 431l1 0 1 -7 0 -15 1 -15 0 -4 1 1M54 414l0 -37 1 -3 0 -18 1 -2 0 -2 1 -2 2 0 1 -1 4 0M64 350l0 -1M64 350l4 0 1 -1 48 0 0 -1 1 -10 0 -23 1 -5 0 -7 1 -3 0 -2 1 -1 419 0M540 298l0 -1 14 0 0 -1M554 297l13 0M567 298l0 -1"/>
<path stroke="red" d="M567 297l7 0M574 320l0 -23M574 320l1 8M575 336l0 -8M575 336l1 2 4 0 0 -1M580 338l20 0M600 351l0 -13M600 351l1 4M601 359l0 -4M601 359l1 -1 23 0 0 -6 1 -2 0 -8 1 0 0 -1 1 -1 18 0M646 341l0 -1 7 0M653 347l0 -7M653 347l1 2M654 351l0 -2"/>
<path stroke="red" d="M654 351l1 0 0 -1 2 0M657 351l0 -1M657 351l2 0 0 -1 13 0M672 351l0 -1 1 0M673 351l0 -1M673 351l13 0 0 -1 12 0 1 1 0 -1M699 351l13 0 0 -1 13 0M725 351l0 -1M725 351l6 0 0 -3 20 0M751 349l0 -1M751 349l1 0 0 -1 26 0M778 349l0 -1"/>
<path stroke="red" d="M778 348l7 0M785 349l0 -1M785 349l27 0M812 350l0 -1 19 0M831 350l0 -1 26 0M857 350l0 -1 26 0M883 350l0 -1 27 0M910 350l0 -1 8 0M918 350l0 -13 1 -2 0 -23 1 -4 0 -5 1 -2 0 -3 1 0 0 -1 1 0 0 -1M923 297l13 0M936 298l0 -1 14 0"/>
<path stroke="red" d="M950 297l0 -1M950 297l24 0"/>
<path stroke="blue" d="M50 23l46 0"/>
<text stroke="none" fill="white" font-size="16" x="106" y="32">
x1.vsampled_n
</text>
<path stroke="blue" d="M50 431l1 0 1 -7 0 -15 1 -14 0 -5 1 2M54 414l0 -37 1 -3 0 -18 1 -2 0 -2 1 -2 2 0 1 -1 4 0M64 350l0 -1M64 350l4 0 1 -1 48 0M117 362l0 -13M117 362l1 13M118 390l0 -15M118 390l1 3M119 398l0 -5M119 398l1 1M120 400l0 -1M120 400l1 1"/>
<path stroke="blue" d="M121 401l1 0 1 1 423 0 0 -24 1 -2 0 -26 1 -4 0 -2 1 -1 0 -2 2 0 1 -1 14 0 1 1 0 -1 26 0M593 341l0 -1 26 0M619 341l0 -1M619 341l1 0 0 -1 26 0M646 341l0 -1 26 0M672 341l0 -1 1 0M673 341l0 -1 6 0M679 348l0 -8M679 348l1 1 0 -3"/>
<path stroke="blue" d="M680 346l6 0 0 -1 1 0M687 346l0 -1 1 0M688 346l0 -1M688 346l10 0 0 -1M698 346l1 0 0 -1M699 346l7 0M706 350l0 -4M706 349l1 0 0 -1 18 0M725 349l0 -1 26 0M751 349l0 -1 8 0M759 351l0 -3M759 350l1 0 0 -1 18 0M778 350l0 -1 26 0"/>
<path stroke="blue" d="M804 350l0 -1 26 0 1 1 0 -1 87 0M918 379l0 -39M918 379l1 5M919 404l0 -20M919 404l1 0 1 -1 0 -1 53 0"/>
<path stroke="#FFA500" d="M462 39l46 0"/>
<text stroke="none" fill="white" font-size="16" x="518" y="48">
x1.vsampled_p-x1.vsampled_n
</text>
<path stroke="#FFA500" d="M50 431l2 0 1 -1 1 0M54 431l0 -1M54 431l63 0 0 -13 1 -24 0 -37 1 -10 0 -11 1 -4 0 -3 1 -2 1 0 0 -1 418 0M540 327l0 -1 6 0M546 350l0 -24M546 350l1 2M547 378l0 -26M547 378l1 4M548 384l0 -2M548 384l1 1M549 387l0 -2M549 387l5 0"/>
<path stroke="#FFA500" d="M554 388l0 -1 12 0 1 1 0 -1 7 0M574 411l0 -24M574 411l1 8M575 427l0 -8M575 427l1 1 24 0M600 442l0 -14M600 442l1 3M601 450l0 -5M601 449l18 0 0 -1M619 449l6 0 0 -6 1 -3 0 -7 1 -1 0 -1 26 0M653 438l0 -7M653 438l1 1M654 441l0 -2"/>
<path stroke="#FFA500" d="M654 441l25 0 0 -8 1 -1M680 436l0 -4M680 436l26 0 0 -4 1 1 5 0M712 434l0 -1 19 0 0 -2 28 0 0 -3M759 429l1 1 25 0M785 431l0 -1M785 431l19 0 0 -1M804 431l34 0M838 432l0 -1M838 432l1 -1 79 0M918 438l0 -49 1 -8 0 -42 1 -4"/>
<path stroke="#FFA500" d="M920 335l0 -5 1 -2 0 -1 1 0 0 -1 14 0M936 327l0 -1 38 0"/>
<path stroke="green" d="M50 39l46 0"/>
<text stroke="none" fill="white" font-size="16" x="106" y="48">
x1.sw_sample-2
</text>
<path stroke="green" d="M50 613l1 0 1 -9 0 -21 1 -21M53 580l0 -24M53 580l1 30M54 613l0 -3M54 613l63 0M117 620l0 -172M117 449l422 0M539 614l0 -171M539 613l422 0M961 618l0 -170 1 1 12 0"/>
<path stroke="#FFC0C5" d="M462 55l46 0"/>
<text stroke="none" fill="white" font-size="16" x="518" y="64">
x1.comp_out_p+2
</text>
<path stroke="#FFC0C5" d="M50 249l1 0 1 -9 0 -22 1 -18 0 -4M53 198l1 5M54 250l0 -47M54 248l1 1 486 0 1 1 0 -167M542 85l13 0M555 249l0 -172M555 249l13 0 0 -165M568 85l13 0 0 -7 1 143M582 249l0 -28M582 249l12 0M594 251l0 -168M594 84l1 1 13 0M608 249l0 -167"/>
<path stroke="#FFC0C5" d="M608 249l39 0M647 256l0 -173M647 85l14 0M661 249l0 -172M661 249l119 0 0 -165M780 85l13 0M793 249l0 -172M793 249l14 0 0 -164 12 0M819 249l0 -167M819 249l15 0 0 -165M834 85l11 0 0 -10 1 143M846 249l0 -31M846 249l91 0M937 255l0 -6"/>
<path stroke="#FFC0C5" d="M937 255l1 -134 0 -38M938 85l13 0M951 250l0 -168M951 249l23 0"/>
<path stroke="#A52A2A" d="M50 55l46 0"/>
<text stroke="none" fill="white" font-size="16" x="106" y="64">
x1.comp_out_n-2
</text>
<path stroke="#A52A2A" d="M50 613l1 0 1 -9 0 -22 1 -19M53 564l0 -3M53 564l1 6M54 614l0 -87 1 81M55 613l0 -5M55 613l566 0M621 614l0 -167M621 449l13 0M634 613l0 -166M634 613l39 0M673 620l0 -7M673 620l1 -142 0 -31M674 449l13 0M687 613l0 -171M687 613l13 0"/>
<path stroke="#A52A2A" d="M700 615l0 -168M700 449l13 0 0 -8 1 151M714 613l0 -21M714 613l13 0M727 615l0 -167M727 449l13 0M740 613l0 -172M740 613l13 0 0 -148 1 -16 0 -1M754 449l12 0M766 613l0 -173M766 613l94 0 0 -164 12 0M872 613l0 -174M872 613l14 0"/>
<path stroke="#A52A2A" d="M886 613l0 -155 1 -9 11 0M898 613l0 -174M898 613l15 0M913 614l0 -166M913 449l12 0M925 613l0 -172M925 613l49 0"/>
</svg>
