<?xml version="1.0" standalone="yes"?>
<!DOCTYPE svg PUBLIC "-//W3C//DTD SVG 1.1//EN"
 "http://www.w3.org/Graphics/SVG/1.1/DTD/svg11.dtd">
<svg xmlns="http://www.w3.org/2000/svg" version="1.1"
  width="100%" height="100%" viewBox="0 0 1024 768"
  style="fill: none; font-family: Helvetica;
 font: Helvetica;
">

<!-- Creator: NGspice -->

<rect x="0" y="0" width="1024" height="768" fill="black" stroke="none"/>
<text stroke="none" fill="white" font-size="16" x="358" y="752">
time
</text>
<text stroke="none" fill="white" font-size="16" x="10" y="16">
tran1: run1684_vin0.580515
</text>
<path stroke="white" d="M50 704l0 -637"/>
<text stroke="none" fill="white" font-size="16" x="35" y="728">
0.0
</text>
<path stroke="white" stroke-dasharray="1,2" d="M182 704l0 -637"/>
<text stroke="none" fill="white" font-size="16" x="157" y="728">
100.0
</text>
<path stroke="white" stroke-dasharray="1,2" d="M314 704l0 -637"/>
<text stroke="none" fill="white" font-size="16" x="289" y="728">
200.0
</text>
<path stroke="white" stroke-dasharray="1,2" d="M446 704l0 -637"/>
<text stroke="none" fill="white" font-size="16" x="421" y="728">
300.0
</text>
<path stroke="white" stroke-dasharray="1,2" d="M578 704l0 -637"/>
<text stroke="none" fill="white" font-size="16" x="553" y="728">
400.0
</text>
<path stroke="white" stroke-dasharray="1,2" d="M710 704l0 -637"/>
<text stroke="none" fill="white" font-size="16" x="685" y="728">
500.0
</text>
<path stroke="white" stroke-dasharray="1,2" d="M842 704l0 -637"/>
<text stroke="none" fill="white" font-size="16" x="817" y="728">
600.0
</text>
<path stroke="white" stroke-dasharray="1,2" d="M974 704l0 -637"/>
<text stroke="none" fill="white" font-size="16" x="949" y="728">
700.0
</text>
<text stroke="none" fill="white" font-size="16" x="614" y="752">
ns
</text>
<path stroke="white" stroke-dasharray="1,2" d="M50 704l924 0"/>
<text stroke="none" fill="white" font-size="16" x="8" y="712">
-3.0
</text>
<path stroke="white" stroke-dasharray="1,2" d="M50 613l924 0"/>
<text stroke="none" fill="white" font-size="16" x="8" y="621">
-2.0
</text>
<path stroke="white" stroke-dasharray="1,2" d="M50 522l924 0"/>
<text stroke="none" fill="white" font-size="16" x="8" y="530">
-1.0
</text>
<path stroke="white" d="M50 431l924 0"/>
<text stroke="none" fill="white" font-size="16" x="18" y="439">
0.0
</text>
<path stroke="white" stroke-dasharray="1,2" d="M50 340l924 0"/>
<text stroke="none" fill="white" font-size="16" x="18" y="348">
1.0
</text>
<path stroke="white" stroke-dasharray="1,2" d="M50 249l924 0"/>
<text stroke="none" fill="white" font-size="16" x="18" y="257">
2.0
</text>
<path stroke="white" stroke-dasharray="1,2" d="M50 158l924 0"/>
<text stroke="none" fill="white" font-size="16" x="18" y="166">
3.0
</text>
<path stroke="white" stroke-dasharray="1,2" d="M50 67l924 0"/>
<text stroke="none" fill="white" font-size="16" x="18" y="75">
4.0
</text>
<text stroke="none" fill="white" font-size="16" x="10" y="32">
     
</text>
<path stroke="red" d="M462 23l46 0"/>
<text stroke="none" fill="white" font-size="16" x="518" y="32">
x1.vsampled_p
</text>
<path stroke="red" d="M50 431l1 0 1 -7 0 -15 1 -15 0 -4 1 1M54 414l0 -37 1 -3 0 -18 1 -2 0 -2 1 -2 2 0 1 -1 4 0M64 350l0 -1M64 350l4 0 1 -1 48 0 0 -1 1 -10 0 -23 1 -6 0 -6 1 -3 0 -2 1 -1 1 0 0 -1 417 0M539 297l0 -1M539 297l1 0M540 298l0 -2M540 297l14 0"/>
<path stroke="red" d="M554 297l0 -1 12 0 1 1M567 298l0 -1 7 0M574 320l0 -23M574 320l1 8M575 336l0 -8M575 336l2 2 1 -1 15 0M593 338l0 -1 7 0M600 350l0 -13M600 350l1 3M601 359l0 -6M601 359l1 -1 23 0 0 -10 1 -1 0 -6 1 0 0 -1 26 0M653 348l0 -8M653 348l1 2"/>
<path stroke="red" d="M654 351l0 -1 78 0 0 -3M732 348l27 0M759 350l0 -2M759 349l19 0M778 350l0 -1 26 0M804 350l0 -1 27 0M831 350l0 -1 26 0M857 350l0 -1 26 0M883 350l0 -1 27 0M910 350l0 -1 8 0M918 352l0 -17 1 -3 0 -20 1 -4 0 -5 1 -3 0 -2 1 0 0 -1"/>
<path stroke="red" d="M922 297l1 0 0 -1 13 0M936 298l0 -2M936 297l14 0 0 -1 24 0"/>
<path stroke="blue" d="M50 23l46 0"/>
<text stroke="none" fill="white" font-size="16" x="106" y="32">
x1.vsampled_n
</text>
<path stroke="blue" d="M50 431l1 0 1 -7 0 -15 1 -14 0 -5 1 2M54 414l0 -37 1 -3 0 -18 1 -2 0 -2 1 -2 2 0 1 -1 4 0M64 350l0 -1M64 350l4 0 1 -1 48 0M117 362l0 -13M117 362l1 13M118 390l0 -15M118 390l1 4M119 398l0 -4M119 398l1 2M120 401l0 -1M120 401l1 0"/>
<path stroke="blue" d="M121 401l1 1 424 0 0 -18 1 -4 0 -29 1 -4 0 -4 2 -2 4 0 0 -1M554 341l13 0M567 342l0 -1 13 0 0 -1M580 341l26 0 0 -1 1 0M607 341l0 -1M607 341l26 0 0 -1M633 341l26 0 0 -1M659 341l20 0M679 348l0 -7M679 348l1 1 0 -3 26 0M706 350l0 -4"/>
<path stroke="blue" d="M706 349l1 0 0 -1 18 0M725 349l0 -1 26 0M751 349l0 -1M751 349l1 0 0 -1 26 0M778 349l0 -1 7 0M785 350l0 -2M785 350l1 0 0 -1 27 0M813 350l0 -1 17 0 1 1 0 -1 87 0M918 384l0 -44M918 384l1 7M919 404l0 -13M919 404l1 1 0 -1 1 0"/>
<path stroke="blue" d="M921 404l0 -1 1 0 0 -1 52 0"/>
<path stroke="#FFA500" d="M462 39l46 0"/>
<text stroke="none" fill="white" font-size="16" x="518" y="48">
x1.vsampled_p-x1.vsampled_n
</text>
<path stroke="#FFA500" d="M50 431l2 0 1 -1 1 0M54 431l0 -1M54 431l63 0 0 -14 1 -24 0 -37 1 -9 0 -11 1 -5 0 -3 3 -3 416 0M539 326l0 -1M539 326l1 -1M540 326l0 -1M540 326l6 0M546 344l0 -18M546 344l1 4M547 377l0 -29M547 377l1 4M548 384l0 -3M548 384l1 1"/>
<path stroke="#FFA500" d="M549 386l0 -1M549 386l1 0M550 387l0 -1M550 387l17 0M567 388l0 -2M567 387l7 0M574 410l0 -23M574 410l1 8M575 426l0 -8M575 426l1 2 17 0 0 -1M593 428l7 0M600 440l0 -13M600 440l1 3M601 449l0 -6M601 449l1 0 0 -1 23 0 0 -9"/>
<path stroke="#FFA500" d="M625 439l1 -2 0 -6 1 0 0 -1 26 0M653 438l0 -8M653 438l1 2M654 441l0 -1M654 441l1 -1 4 0M659 441l0 -1 20 0 0 -7 1 -1M680 435l0 -3M680 435l26 0 0 -4M706 432l1 0M707 433l0 -1M707 433l24 0 1 -1 0 -2M732 431l19 0 0 -1 1 0"/>
<path stroke="#FFA500" d="M752 431l0 -1M752 431l7 0M759 433l0 -3M759 432l26 0 0 -2 1 1 27 0 0 -1M813 431l25 0M838 432l0 -1M838 432l1 0 0 -1 79 0M918 439l0 -58 1 -9 0 -33 1 -5 0 -5 1 -1 0 -2 2 0 0 -1 13 0M936 327l0 -2M936 326l14 0 0 -1 24 0"/>
<path stroke="green" d="M50 39l46 0"/>
<text stroke="none" fill="white" font-size="16" x="106" y="48">
x1.sw_sample-2
</text>
<path stroke="green" d="M50 613l1 0 1 -9 0 -21 1 -21M53 580l0 -24M53 580l1 30M54 613l0 -3M54 613l63 0M117 620l0 -172M117 449l422 0M539 614l0 -171M539 613l422 0M961 618l0 -170 1 1 12 0"/>
<path stroke="#FFC0C5" d="M462 55l46 0"/>
<text stroke="none" fill="white" font-size="16" x="518" y="64">
x1.comp_out_p+2
</text>
<path stroke="#FFC0C5" d="M50 249l1 0 1 -9 0 -22 1 -18 0 -4M53 198l1 5M54 250l0 -47M54 248l1 1 486 0 1 2 0 -168M542 85l13 0M555 250l0 -167M555 249l13 0M568 250l0 -166M568 85l13 0 0 -7 1 149M582 249l0 -22M582 249l12 0M594 251l0 -168M594 85l14 0"/>
<path stroke="#FFC0C5" d="M608 249l0 -172M608 249l39 0M647 251l0 -167M647 85l14 0M661 249l0 -174M661 249l92 0 0 -164 1 -1M754 85l0 -1M754 85l12 0M766 249l0 -172M766 249l68 0 0 -165M834 85l11 0 0 -10 1 143M846 249l0 -31M846 249l91 0M937 255l0 -6"/>
<path stroke="#FFC0C5" d="M937 255l1 -134 0 -38M938 85l13 0M951 249l0 -172M951 249l23 0"/>
<path stroke="#A52A2A" d="M50 55l46 0"/>
<text stroke="none" fill="white" font-size="16" x="106" y="64">
x1.comp_out_n-2
</text>
<path stroke="#A52A2A" d="M50 613l1 0 1 -9 0 -22 1 -19M53 564l0 -3M53 564l1 6M54 614l0 -85 1 79M55 613l0 -5M55 613l566 0M621 617l0 -170M621 449l13 0M634 613l0 -173M634 613l13 0M647 614l0 -1 26 0M673 615l0 -2M673 615l1 -109 0 -59M674 449l13 0"/>
<path stroke="#A52A2A" d="M687 613l0 -172M687 613l13 0M700 618l0 -171M700 449l13 0 0 -9 1 164M714 613l0 -9M714 613l13 0 0 -165M727 449l13 0M740 614l0 -174M740 613l40 0 0 -165M780 449l13 0M793 613l0 -174M793 613l14 0 0 -165 1 0M808 449l0 -1M808 449l11 0"/>
<path stroke="#A52A2A" d="M819 613l0 -171M819 613l41 0 0 -164 12 0M872 613l0 -174M872 613l14 0 0 -155 1 -9 11 0M898 613l0 -174M898 613l15 0 0 -165M913 449l12 0M925 613l0 -172M925 613l49 0"/>
</svg>
