<?xml version="1.0" standalone="yes"?>
<!DOCTYPE svg PUBLIC "-//W3C//DTD SVG 1.1//EN"
 "http://www.w3.org/Graphics/SVG/1.1/DTD/svg11.dtd">
<svg xmlns="http://www.w3.org/2000/svg" version="1.1"
  width="100%" height="100%" viewBox="0 0 1024 768"
  style="fill: none; font-family: Helvetica;
 font: Helvetica;
">

<!-- Creator: NGspice -->

<rect x="0" y="0" width="1024" height="768" fill="black" stroke="none"/>
<text stroke="none" fill="white" font-size="16" x="358" y="752">
time
</text>
<text stroke="none" fill="white" font-size="16" x="10" y="16">
tran1: run658_vin-0.321241
</text>
<path stroke="white" d="M50 704l0 -637"/>
<text stroke="none" fill="white" font-size="16" x="35" y="728">
0.0
</text>
<path stroke="white" stroke-dasharray="1,2" d="M182 704l0 -637"/>
<text stroke="none" fill="white" font-size="16" x="157" y="728">
100.0
</text>
<path stroke="white" stroke-dasharray="1,2" d="M314 704l0 -637"/>
<text stroke="none" fill="white" font-size="16" x="289" y="728">
200.0
</text>
<path stroke="white" stroke-dasharray="1,2" d="M446 704l0 -637"/>
<text stroke="none" fill="white" font-size="16" x="421" y="728">
300.0
</text>
<path stroke="white" stroke-dasharray="1,2" d="M578 704l0 -637"/>
<text stroke="none" fill="white" font-size="16" x="553" y="728">
400.0
</text>
<path stroke="white" stroke-dasharray="1,2" d="M710 704l0 -637"/>
<text stroke="none" fill="white" font-size="16" x="685" y="728">
500.0
</text>
<path stroke="white" stroke-dasharray="1,2" d="M842 704l0 -637"/>
<text stroke="none" fill="white" font-size="16" x="817" y="728">
600.0
</text>
<path stroke="white" stroke-dasharray="1,2" d="M974 704l0 -637"/>
<text stroke="none" fill="white" font-size="16" x="949" y="728">
700.0
</text>
<text stroke="none" fill="white" font-size="16" x="614" y="752">
ns
</text>
<path stroke="white" stroke-dasharray="1,2" d="M50 704l924 0"/>
<text stroke="none" fill="white" font-size="16" x="8" y="712">
-3.0
</text>
<path stroke="white" stroke-dasharray="1,2" d="M50 613l924 0"/>
<text stroke="none" fill="white" font-size="16" x="8" y="621">
-2.0
</text>
<path stroke="white" stroke-dasharray="1,2" d="M50 522l924 0"/>
<text stroke="none" fill="white" font-size="16" x="8" y="530">
-1.0
</text>
<path stroke="white" d="M50 431l924 0"/>
<text stroke="none" fill="white" font-size="16" x="18" y="439">
0.0
</text>
<path stroke="white" stroke-dasharray="1,2" d="M50 340l924 0"/>
<text stroke="none" fill="white" font-size="16" x="18" y="348">
1.0
</text>
<path stroke="white" stroke-dasharray="1,2" d="M50 249l924 0"/>
<text stroke="none" fill="white" font-size="16" x="18" y="257">
2.0
</text>
<path stroke="white" stroke-dasharray="1,2" d="M50 158l924 0"/>
<text stroke="none" fill="white" font-size="16" x="18" y="166">
3.0
</text>
<path stroke="white" stroke-dasharray="1,2" d="M50 67l924 0"/>
<text stroke="none" fill="white" font-size="16" x="18" y="75">
4.0
</text>
<text stroke="none" fill="white" font-size="16" x="10" y="32">
     
</text>
<path stroke="red" d="M462 23l46 0"/>
<text stroke="none" fill="white" font-size="16" x="518" y="32">
x1.vsampled_p
</text>
<path stroke="red" d="M50 431l1 0 1 -7 0 -15 1 -14 0 -5 1 2M54 415l0 -40 1 -4 0 -14 1 -3 0 -2 2 -2 1 0 1 -1 4 0M64 350l0 -1M64 350l4 0 1 -1 48 0M117 354l0 -5M117 354l1 9M118 372l0 -9M118 372l1 3M119 377l0 -2M119 377l1 1 420 0M540 379l0 -1 6 0"/>
<path stroke="red" d="M546 378l0 -22 1 -4 0 -25 1 -4 0 -3 1 -1 0 -1 1 -1 16 0 1 1 0 -1 7 0M574 345l0 -28M574 345l1 3M575 360l0 -12M575 360l1 0 0 -1 1 0 0 -1 48 0 0 -8 1 -3 0 -7 20 0M646 341l0 -1 7 0M653 349l0 -9M653 349l1 1M654 352l0 -2M654 351l1 0"/>
<path stroke="red" d="M655 351l0 -1 17 0M672 351l0 -1 26 0 1 1 0 -1 26 0M725 351l0 -1 6 0 0 -3 1 0M732 348l0 -1M732 348l19 0M751 349l0 -1 1 1 0 -1 26 0M778 349l0 -1 7 0M785 350l0 -2M785 350l1 -1 26 0M812 350l0 -1 19 0M831 350l0 -1 26 0M857 350l0 -1"/>
<path stroke="red" d="M857 349l26 0M883 350l0 -1 27 0M910 350l0 -1 9 0M919 383l0 -34M919 383l1 0 0 -3 1 -1 2 0 0 -1 13 0M936 379l0 -1 38 0"/>
<path stroke="blue" d="M50 23l46 0"/>
<text stroke="none" fill="white" font-size="16" x="106" y="32">
x1.vsampled_n
</text>
<path stroke="blue" d="M50 431l1 0 1 -7 0 -15 1 -15 0 -4 1 1M54 415l0 -40 1 -4 0 -14 1 -3 0 -2 2 -2 1 0 1 -1 4 0M64 350l0 -1M64 350l4 0 1 -1 48 0 0 -1 1 -8 0 -12 1 -4 0 -2 2 -2 419 0M540 321l0 -1 27 0M567 321l0 -1 26 0M593 321l0 -1 7 0M600 336l0 -16"/>
<path stroke="blue" d="M600 336l1 4M601 344l0 -4M601 343l1 -1 0 -1 4 0 0 -1 13 0M619 341l0 -1M619 341l14 0 0 -1 13 0M646 341l0 -1M646 341l13 0 0 -1 13 0M672 341l0 -1M672 341l7 0M679 347l0 -7M679 347l1 0 0 -1 6 0 0 -1M686 346l19 0 1 1M706 349l0 -2"/>
<path stroke="blue" d="M706 349l1 -1 18 0M725 349l0 -1 26 0M751 349l0 -1 8 0M759 350l0 -2M759 350l2 0 1 -1 16 0M778 350l0 -1 26 0M804 350l0 -1 26 0 1 1 0 -1 87 0M918 350l0 -1M918 350l1 -1 0 -27 1 -1 0 -1 16 0M936 321l0 -1 38 0"/>
<path stroke="#FFA500" d="M462 39l46 0"/>
<text stroke="none" fill="white" font-size="16" x="518" y="48">
x1.vsampled_p-x1.vsampled_n
</text>
<path stroke="#FFA500" d="M50 431l67 0M117 437l0 -6M117 437l1 16M118 475l0 -22M118 475l1 7M119 486l0 -4M119 486l1 2 1 1 425 0 0 -22 1 -4 0 -25 1 -4 0 -3 1 -2 1 -1 24 0M574 456l0 -28M574 456l1 3M575 471l0 -12M575 471l1 0 0 -1 1 0 0 -1 16 0 0 -1"/>
<path stroke="#FFA500" d="M593 469l7 0 0 -16 1 -4 0 -3 1 1M602 448l0 -1M602 448l4 0M606 449l0 -1M606 449l13 0 0 -1M619 449l1 0 0 -1 5 0 0 -8 1 -3 0 -6 1 0 0 -1 1 0 1 1 4 0 0 -1M633 431l20 0M653 439l0 -8M653 439l1 2M654 442l0 -1M654 442l1 -1 24 0"/>
<path stroke="#FFA500" d="M679 441l0 -7 1 0M680 435l0 -1M680 435l1 1 24 0 0 -1 1 -1 0 -2M706 433l25 0 0 -3 1 0M732 431l0 -1M732 431l27 0 0 -2 1 0M760 430l0 -1M760 430l25 0M785 431l0 -1M785 431l1 0 0 -1 26 0M812 431l0 -1M812 431l106 0 0 -1 1 1"/>
<path stroke="#FFA500" d="M919 492l0 -61M919 492l1 1 0 -2 1 -1 1 0 0 -1 1 0M923 490l0 -1M923 490l1 0 0 -1 26 0M950 490l0 -1 24 0"/>
<path stroke="green" d="M50 39l46 0"/>
<text stroke="none" fill="white" font-size="16" x="106" y="48">
x1.sw_sample-2
</text>
<path stroke="green" d="M50 613l1 0 1 -9 0 -21 1 -21M53 581l0 -25M53 581l1 29M54 613l0 -3M54 613l63 0M117 620l0 -172M117 449l422 0M539 614l0 -171M539 613l422 0M961 618l0 -170 1 1 12 0"/>
<path stroke="#FFC0C5" d="M462 55l46 0"/>
<text stroke="none" fill="white" font-size="16" x="518" y="64">
x1.comp_out_p+2
</text>
<path stroke="#FFC0C5" d="M50 249l1 0 1 -9 0 -22 1 -18 0 -4M53 198l1 5M54 249l0 -46M54 249l514 0M568 250l0 -166M568 85l13 0 0 -8 1 158M582 249l0 -14M582 249l65 0M647 255l0 -172M647 85l14 0M661 250l0 -170M661 249l118 0 1 -147 0 -18M780 85l13 0"/>
<path stroke="#FFC0C5" d="M793 249l0 -172M793 249l14 0 0 -165M807 85l12 0M819 250l0 -174M819 249l14 0 1 -157 0 -8M834 85l11 0 0 -10 1 150M846 249l0 -24M846 249l128 0"/>
<path stroke="#A52A2A" d="M50 55l46 0"/>
<text stroke="none" fill="white" font-size="16" x="106" y="64">
x1.comp_out_n-2
</text>
<path stroke="#A52A2A" d="M50 613l1 0 1 -9 0 -22 1 -19M53 564l0 -3M53 564l1 6M54 613l0 -43M54 613l488 0 0 -165M542 449l13 0M555 613l0 -167M555 613l13 0M568 614l0 -1 26 0M594 614l0 -167M594 449l14 0M608 614l0 -167M608 613l13 0M621 618l0 -171M621 449l13 0"/>
<path stroke="#A52A2A" d="M634 613l0 -173M634 613l39 0M673 617l0 -4M673 617l1 -121 0 -49M674 449l13 0M687 613l0 -171M687 613l13 0M700 615l0 -168M700 449l13 0 0 -8 1 157M714 613l0 -15M714 613l13 0 0 -165M727 449l13 0M740 613l0 -167M740 613l14 0"/>
<path stroke="#A52A2A" d="M754 613l0 -165M754 449l12 0M766 613l0 -173M766 613l95 0 0 -165M861 449l11 0M872 613l0 -166M872 613l15 0 0 -165M887 449l11 0M898 613l0 -166M898 613l15 0 1 -152 0 -13M914 449l11 0M925 614l0 -167M925 613l12 0 1 -52 0 -113"/>
<path stroke="#A52A2A" d="M938 449l13 0M951 614l0 -168M951 613l23 0"/>
</svg>
