<?xml version="1.0" standalone="yes"?>
<!DOCTYPE svg PUBLIC "-//W3C//DTD SVG 1.1//EN"
 "http://www.w3.org/Graphics/SVG/1.1/DTD/svg11.dtd">
<svg xmlns="http://www.w3.org/2000/svg" version="1.1"
  width="100%" height="100%" viewBox="0 0 1024 768"
  style="fill: none; font-family: Helvetica;
 font: Helvetica;
">

<!-- Creator: NGspice -->

<rect x="0" y="0" width="1024" height="768" fill="black" stroke="none"/>
<text stroke="none" fill="white" font-size="16" x="358" y="752">
time
</text>
<text stroke="none" fill="white" font-size="16" x="10" y="16">
tran1: run717_vin-0.269386
</text>
<path stroke="white" d="M50 704l0 -637"/>
<text stroke="none" fill="white" font-size="16" x="35" y="728">
0.0
</text>
<path stroke="white" stroke-dasharray="1,2" d="M182 704l0 -637"/>
<text stroke="none" fill="white" font-size="16" x="157" y="728">
100.0
</text>
<path stroke="white" stroke-dasharray="1,2" d="M314 704l0 -637"/>
<text stroke="none" fill="white" font-size="16" x="289" y="728">
200.0
</text>
<path stroke="white" stroke-dasharray="1,2" d="M446 704l0 -637"/>
<text stroke="none" fill="white" font-size="16" x="421" y="728">
300.0
</text>
<path stroke="white" stroke-dasharray="1,2" d="M578 704l0 -637"/>
<text stroke="none" fill="white" font-size="16" x="553" y="728">
400.0
</text>
<path stroke="white" stroke-dasharray="1,2" d="M710 704l0 -637"/>
<text stroke="none" fill="white" font-size="16" x="685" y="728">
500.0
</text>
<path stroke="white" stroke-dasharray="1,2" d="M842 704l0 -637"/>
<text stroke="none" fill="white" font-size="16" x="817" y="728">
600.0
</text>
<path stroke="white" stroke-dasharray="1,2" d="M974 704l0 -637"/>
<text stroke="none" fill="white" font-size="16" x="949" y="728">
700.0
</text>
<text stroke="none" fill="white" font-size="16" x="614" y="752">
ns
</text>
<path stroke="white" stroke-dasharray="1,2" d="M50 704l924 0"/>
<text stroke="none" fill="white" font-size="16" x="8" y="712">
-2.5
</text>
<path stroke="white" stroke-dasharray="1,2" d="M50 655l924 0"/>
<text stroke="none" fill="white" font-size="16" x="8" y="663">
-2.0
</text>
<path stroke="white" stroke-dasharray="1,2" d="M50 606l924 0"/>
<text stroke="none" fill="white" font-size="16" x="8" y="614">
-1.5
</text>
<path stroke="white" stroke-dasharray="1,2" d="M50 557l924 0"/>
<text stroke="none" fill="white" font-size="16" x="8" y="565">
-1.0
</text>
<path stroke="white" stroke-dasharray="1,2" d="M50 508l924 0"/>
<text stroke="none" fill="white" font-size="16" x="8" y="516">
-0.5
</text>
<path stroke="white" d="M50 459l924 0"/>
<text stroke="none" fill="white" font-size="16" x="18" y="467">
0.0
</text>
<path stroke="white" stroke-dasharray="1,2" d="M50 410l924 0"/>
<text stroke="none" fill="white" font-size="16" x="18" y="418">
0.5
</text>
<path stroke="white" stroke-dasharray="1,2" d="M50 361l924 0"/>
<text stroke="none" fill="white" font-size="16" x="18" y="369">
1.0
</text>
<path stroke="white" stroke-dasharray="1,2" d="M50 312l924 0"/>
<text stroke="none" fill="white" font-size="16" x="18" y="320">
1.5
</text>
<path stroke="white" stroke-dasharray="1,2" d="M50 263l924 0"/>
<text stroke="none" fill="white" font-size="16" x="18" y="271">
2.0
</text>
<path stroke="white" stroke-dasharray="1,2" d="M50 214l924 0"/>
<text stroke="none" fill="white" font-size="16" x="18" y="222">
2.5
</text>
<path stroke="white" stroke-dasharray="1,2" d="M50 165l924 0"/>
<text stroke="none" fill="white" font-size="16" x="18" y="173">
3.0
</text>
<path stroke="white" stroke-dasharray="1,2" d="M50 116l924 0"/>
<text stroke="none" fill="white" font-size="16" x="18" y="124">
3.5
</text>
<path stroke="white" stroke-dasharray="1,2" d="M50 67l924 0"/>
<text stroke="none" fill="white" font-size="16" x="18" y="75">
4.0
</text>
<text stroke="none" fill="white" font-size="16" x="10" y="32">
     
</text>
<path stroke="red" d="M462 23l46 0"/>
<text stroke="none" fill="white" font-size="16" x="518" y="32">
x1.vsampled_p
</text>
<path stroke="red" d="M50 459l1 0 1 -7 0 -17 1 -15 0 -5 1 2M54 441l0 -42 1 -6 0 -14 1 -2 0 -3 1 -2 1 0 0 -1 59 0M117 375l0 -4M117 375l1 8M118 392l0 -9M118 392l1 3 1 1M120 397l0 -1M120 397l420 0M540 398l0 -1 6 0 0 -22 1 -3 0 -27 1 -5 0 -4 1 -2"/>
<path stroke="red" d="M549 334l0 -2 1 0 1 -1 15 0 1 1M567 333l0 -2 7 0M574 360l0 -29M574 360l1 3M575 377l0 -14M575 377l1 1 0 -2 2 0 0 -1 15 0M593 376l0 -1 26 0M619 376l0 -1M619 376l1 0 0 -1 5 0 0 -2 1 -6 0 -11 20 0M646 357l0 -1 7 0M653 367l0 -11"/>
<path stroke="red" d="M653 367l1 2 0 -1 1 0 0 -1 17 0M672 368l0 -1 27 0M699 368l0 -1 7 0M706 371l0 -4M706 371l1 -1 52 0M759 373l0 -3M759 373l1 -1 0 -1 18 0M778 372l0 -1 26 0M804 372l0 -1 27 0M831 372l0 -1 7 0 0 -1M838 371l79 0M917 372l0 -2 1 5"/>
<path stroke="red" d="M918 402l0 -27M918 401l1 -1 0 -2 1 0 1 -1 15 0M936 398l0 -1 38 0"/>
<path stroke="blue" d="M50 23l46 0"/>
<text stroke="none" fill="white" font-size="16" x="106" y="32">
x1.vsampled_n
</text>
<path stroke="blue" d="M50 459l1 0 1 -7 0 -17 1 -15 0 -5 1 1M54 441l0 -42 1 -6 0 -14 1 -2 0 -3 1 -2 1 0 0 -1 59 0 0 -1 1 -7 0 -12 1 -3 1 -2 0 -1 2 0 0 -1 417 0M539 345l0 -1M539 345l15 0 0 -1M554 345l13 0M567 346l0 -1 13 0 0 -1M580 345l13 0M593 346l0 -1"/>
<path stroke="blue" d="M593 345l7 0M600 362l0 -17M600 362l1 3M601 370l0 -5M601 368l1 0 0 -1 4 0 0 -1 1 0M607 367l0 -1M607 367l26 0 0 -1M633 367l26 0 0 -1M659 367l20 0M679 373l0 -6M679 373l1 1 0 -2 51 0 1 -2 0 -1M732 370l53 0M785 371l0 -1M785 371l1 0"/>
<path stroke="blue" d="M786 371l0 -1 18 0M804 371l0 -1 8 0M812 371l0 -1M812 371l105 0M917 372l0 -3 1 -5 0 -18 1 -1 0 -1 1 0 1 1 2 0 0 -1M923 345l13 0M936 346l0 -1 14 0 0 -1M950 345l11 0 1 -1 12 0"/>
<path stroke="#FFA500" d="M462 39l46 0"/>
<text stroke="none" fill="white" font-size="16" x="518" y="48">
x1.vsampled_p-x1.vsampled_n
</text>
<path stroke="#FFA500" d="M50 459l67 0M117 464l0 -5M117 464l1 15M118 499l0 -20M118 499l1 7 1 3M120 511l0 -2M120 511l1 0 1 1 418 0 0 -1M540 512l1 0 0 -1M541 512l5 0 0 -22 1 -4 0 -26 1 -6 0 -4 1 -2 0 -1 1 -1 17 0 0 -1M567 446l7 0M574 474l0 -28"/>
<path stroke="#FFA500" d="M574 474l1 4M575 492l0 -14M575 492l1 0 0 -1 1 -1 16 0 0 -1M593 490l7 0 0 -18 1 -3 0 -5M601 466l1 0M602 467l0 -1M602 467l1 1 22 0 0 -2 1 -7 0 -10 1 -1 19 0M646 449l0 -1 7 0M653 459l0 -11M653 459l1 2 0 -1 1 0 1 -1 16 0"/>
<path stroke="#FFA500" d="M672 460l0 -1 7 0 0 -5 1 -1M680 454l0 -2M680 454l26 0M706 458l0 -4M706 458l1 -1 24 0 1 2M732 460l0 -1 27 0M759 462l0 -3M759 462l1 -1 1 0 1 -1 4 0M766 461l0 -1 12 0M778 461l0 -1 7 0 0 -1M785 460l27 0 0 -1 18 0 1 1 0 -1"/>
<path stroke="#FFA500" d="M831 459l86 0M917 460l0 -3M917 460l1 10M918 514l0 -44M918 514l1 0 0 -1 1 0 0 -1 16 0 0 -1M936 512l38 0"/>
<path stroke="green" d="M50 39l46 0"/>
<text stroke="none" fill="white" font-size="16" x="106" y="48">
x1.sw_sample-2
</text>
<path stroke="green" d="M50 655l1 0 1 -10 0 -23 1 -21M53 620l0 -26M53 620l1 32M54 655l0 -3M54 655l63 0M117 662l0 -184 1 0M118 479l0 -1M118 479l421 0M539 656l0 -184M539 655l422 0M961 660l0 -182 1 0M962 479l0 -1 1 1 11 0"/>
<path stroke="#FFC0C5" d="M462 55l46 0"/>
<text stroke="none" fill="white" font-size="16" x="518" y="64">
x1.comp_out_p+2
</text>
<path stroke="#FFC0C5" d="M50 263l1 0 1 -10 0 -23 1 -20 0 -4M53 209l1 4M54 263l0 -50M54 262l1 1 513 0M568 265l0 -180M568 87l13 0 0 -10 1 175M582 264l0 -12M582 263l65 0M647 264l0 -179M647 87l14 0M661 264l0 -187M661 263l39 0M700 269l0 -184M700 87l13 0"/>
<path stroke="#FFC0C5" d="M713 87l0 -9 1 164M714 263l0 -21M714 263l13 0 0 -178M727 87l13 0M740 264l0 -183M740 263l13 0 1 -166 0 -11M754 87l12 0M766 263l0 -186M766 263l208 0"/>
<path stroke="#A52A2A" d="M50 55l46 0"/>
<text stroke="none" fill="white" font-size="16" x="106" y="64">
x1.comp_out_n-2
</text>
<path stroke="#A52A2A" d="M50 655l1 0 1 -10 0 -24 1 -20M53 602l0 -3M53 602l1 7M54 655l0 -46M54 655l487 0 1 1 0 -180M542 479l13 0M555 655l0 -186M555 655l39 0M594 656l0 -180M594 478l1 1 13 0M608 655l0 -185M608 655l13 0M621 657l0 -181M621 479l13 0"/>
<path stroke="#A52A2A" d="M634 655l0 -180M634 655l13 0M647 656l0 -1 27 0 0 -178M674 479l13 0M687 655l0 -186M687 655l93 0 0 -177M780 479l13 0M793 655l0 -184M793 655l14 0 0 -177M807 479l12 0M819 655l0 -187M819 655l14 0 1 -170 0 -7M834 479l11 0"/>
<path stroke="#A52A2A" d="M845 479l0 -11 1 170M846 655l0 -17M846 655l14 0 0 -177M860 479l12 0M872 655l0 -187M872 655l14 0 0 -170 1 -7M887 479l0 -1M887 479l11 0M898 655l0 -187M898 655l14 0 1 -170 0 -7M913 479l12 0M925 656l0 -180M925 655l12 0M937 656l0 -1"/>
<path stroke="#A52A2A" d="M937 656l1 -70 0 -109M938 479l13 0M951 656l0 -179M951 655l23 0"/>
</svg>
