<?xml version="1.0" standalone="yes"?>
<!DOCTYPE svg PUBLIC "-//W3C//DTD SVG 1.1//EN"
 "http://www.w3.org/Graphics/SVG/1.1/DTD/svg11.dtd">
<svg xmlns="http://www.w3.org/2000/svg" version="1.1"
  width="100%" height="100%" viewBox="0 0 1024 768"
  style="fill: none; font-family: Helvetica;
 font: Helvetica;
">

<!-- Creator: NGspice -->

<rect x="0" y="0" width="1024" height="768" fill="black" stroke="none"/>
<text stroke="none" fill="white" font-size="16" x="358" y="752">
time
</text>
<text stroke="none" fill="white" font-size="16" x="10" y="16">
tran1: run714_vin-0.272022
</text>
<path stroke="white" d="M50 704l0 -637"/>
<text stroke="none" fill="white" font-size="16" x="35" y="728">
0.0
</text>
<path stroke="white" stroke-dasharray="1,2" d="M182 704l0 -637"/>
<text stroke="none" fill="white" font-size="16" x="157" y="728">
100.0
</text>
<path stroke="white" stroke-dasharray="1,2" d="M314 704l0 -637"/>
<text stroke="none" fill="white" font-size="16" x="289" y="728">
200.0
</text>
<path stroke="white" stroke-dasharray="1,2" d="M446 704l0 -637"/>
<text stroke="none" fill="white" font-size="16" x="421" y="728">
300.0
</text>
<path stroke="white" stroke-dasharray="1,2" d="M578 704l0 -637"/>
<text stroke="none" fill="white" font-size="16" x="553" y="728">
400.0
</text>
<path stroke="white" stroke-dasharray="1,2" d="M710 704l0 -637"/>
<text stroke="none" fill="white" font-size="16" x="685" y="728">
500.0
</text>
<path stroke="white" stroke-dasharray="1,2" d="M842 704l0 -637"/>
<text stroke="none" fill="white" font-size="16" x="817" y="728">
600.0
</text>
<path stroke="white" stroke-dasharray="1,2" d="M974 704l0 -637"/>
<text stroke="none" fill="white" font-size="16" x="949" y="728">
700.0
</text>
<text stroke="none" fill="white" font-size="16" x="614" y="752">
ns
</text>
<path stroke="white" stroke-dasharray="1,2" d="M50 704l924 0"/>
<text stroke="none" fill="white" font-size="16" x="8" y="712">
-3.0
</text>
<path stroke="white" stroke-dasharray="1,2" d="M50 613l924 0"/>
<text stroke="none" fill="white" font-size="16" x="8" y="621">
-2.0
</text>
<path stroke="white" stroke-dasharray="1,2" d="M50 522l924 0"/>
<text stroke="none" fill="white" font-size="16" x="8" y="530">
-1.0
</text>
<path stroke="white" d="M50 431l924 0"/>
<text stroke="none" fill="white" font-size="16" x="18" y="439">
0.0
</text>
<path stroke="white" stroke-dasharray="1,2" d="M50 340l924 0"/>
<text stroke="none" fill="white" font-size="16" x="18" y="348">
1.0
</text>
<path stroke="white" stroke-dasharray="1,2" d="M50 249l924 0"/>
<text stroke="none" fill="white" font-size="16" x="18" y="257">
2.0
</text>
<path stroke="white" stroke-dasharray="1,2" d="M50 158l924 0"/>
<text stroke="none" fill="white" font-size="16" x="18" y="166">
3.0
</text>
<path stroke="white" stroke-dasharray="1,2" d="M50 67l924 0"/>
<text stroke="none" fill="white" font-size="16" x="18" y="75">
4.0
</text>
<text stroke="none" fill="white" font-size="16" x="10" y="32">
     
</text>
<path stroke="red" d="M462 23l46 0"/>
<text stroke="none" fill="white" font-size="16" x="518" y="32">
x1.vsampled_p
</text>
<path stroke="red" d="M50 431l1 0 1 -7 0 -15 1 -14 0 -5 1 2M54 415l0 -40 1 -5 0 -13 1 -3 0 -2 2 -2 1 0 1 -1 4 0M64 350l0 -1M64 350l4 0 1 -1 48 0M117 353l0 -4M117 353l1 7M118 369l0 -9M118 369l2 4 1 1 425 0 0 -21 1 -3 0 -25 1 -5 0 -3 1 -2 0 -1"/>
<path stroke="red" d="M549 314l1 -1 4 0 0 -1M554 313l13 0M567 314l0 -1 7 0M574 342l0 -29M574 342l1 4M575 355l0 -9M575 355l1 1 0 -1 1 -1 3 0 0 -1M580 354l13 0 0 -1M593 354l13 0 0 -1 1 0M607 354l0 -1M607 354l13 0 0 -1M620 354l5 0 0 -1 1 -5 0 -12"/>
<path stroke="red" d="M626 336l1 0 0 -1 1 1 5 0 0 -1M633 336l20 0M653 346l0 -10M653 346l1 2 0 -1 1 -1 51 0M706 350l0 -4M706 349l3 0 1 -1 15 0M725 349l0 -1 26 0M751 349l0 -1M751 349l1 0 0 -1 26 0M778 349l0 -1 7 0M785 350l0 -2M785 350l1 0 0 -1"/>
<path stroke="red" d="M786 349l18 0M804 350l0 -1 9 0M813 350l0 -1 17 0 1 1 0 -1 26 0M857 350l0 -1 26 0M883 350l0 -1 27 0M910 350l0 -1 8 0M918 366l0 -18M918 366l1 1M919 378l0 -11M919 378l1 -2 0 -1 1 -1 53 0"/>
<path stroke="blue" d="M50 23l46 0"/>
<text stroke="none" fill="white" font-size="16" x="106" y="32">
x1.vsampled_n
</text>
<path stroke="blue" d="M50 431l1 0 1 -7 0 -15 1 -15 0 -4 1 1M54 415l0 -40 1 -5 0 -13 1 -3 0 -2 2 -2 1 0 1 -1 4 0M64 350l0 -1M64 350l4 0 1 -1 48 0 0 -1 1 -7 0 -10 1 -4 1 -1 0 -1 1 0 1 -1 417 0M539 325l0 -1M539 325l15 0 0 -1 12 0M566 325l0 -1M566 325l1 0"/>
<path stroke="blue" d="M567 326l0 -1 13 0 0 -1 1 0M581 325l0 -1M581 325l12 0 0 -1M593 325l7 0M600 341l0 -16M600 341l1 3M601 348l0 -4M601 347l1 0 0 -2 77 0M679 349l0 -4M679 349l1 1M680 352l0 -2M680 351l1 -1 50 0 1 -2 0 -1M732 348l27 0M759 350l0 -2"/>
<path stroke="blue" d="M759 349l159 0M918 350l0 -12 1 -1 0 -11 1 -1 0 -1 2 0M922 325l0 -1M922 325l1 0 0 -1 1 0M924 325l0 -1M924 325l1 -1M925 325l0 -1M925 325l11 0 0 -1M936 325l14 0 0 -1 1 0M951 325l0 -1M951 325l10 0 0 -1 13 0"/>
<path stroke="#FFA500" d="M462 39l46 0"/>
<text stroke="none" fill="white" font-size="16" x="518" y="48">
x1.vsampled_p-x1.vsampled_n
</text>
<path stroke="#FFA500" d="M50 431l67 0M117 436l0 -5M117 436l1 14M118 469l0 -19M118 469l1 6 1 3M120 479l0 -1M120 479l1 1 3 0 1 1 414 0 0 -1 7 0 0 -21 1 -3 0 -25 1 -4 0 -4 1 -2 0 -1 1 0 0 -1 17 0M567 420l0 -1 7 0M574 449l0 -30M574 449l1 3M575 462l0 -10"/>
<path stroke="#FFA500" d="M575 462l1 0 0 -1 1 -1 16 0 0 -1M593 460l7 0 0 -17 1 -2 0 -4 1 1M602 439l0 -1M602 439l1 0 1 1 15 0 0 -1M619 440l1 0 0 -1M620 440l5 0 0 -1 1 -5 0 -12 1 0 0 -1 1 0M628 422l0 -1M628 422l5 0 0 -1M633 422l13 0 0 -1M646 422l7 0"/>
<path stroke="#FFA500" d="M653 431l0 -9M653 431l1 2M654 434l0 -1 1 -1 24 0 0 -4 1 -1 0 -2M680 426l1 1 25 0M706 431l0 -4M706 430l1 -1 24 0M731 430l0 -1M731 430l1 1M732 432l0 -1M732 432l27 0 0 -3M759 430l26 0M785 431l0 -1M785 431l1 1 0 -1 27 0"/>
<path stroke="#FFA500" d="M813 432l0 -1 105 0M918 459l0 -30M918 459l1 2M919 483l0 -22M919 483l1 0 0 -2 2 0 0 -1 1 0M923 481l0 -1M923 481l1 0 0 -1 26 0M950 481l0 -1 12 0M962 481l0 -1M962 481l12 0"/>
<path stroke="green" d="M50 39l46 0"/>
<text stroke="none" fill="white" font-size="16" x="106" y="48">
x1.sw_sample-2
</text>
<path stroke="green" d="M50 613l1 0 1 -9 0 -21 1 -21M53 581l0 -25M53 581l1 29M54 613l0 -3M54 613l63 0M117 620l0 -172M117 449l422 0M539 614l0 -171M539 613l422 0M961 618l0 -170 1 1 12 0"/>
<path stroke="#FFC0C5" d="M462 55l46 0"/>
<text stroke="none" fill="white" font-size="16" x="518" y="64">
x1.comp_out_p+2
</text>
<path stroke="#FFC0C5" d="M50 249l1 0 1 -9 0 -22 1 -18 0 -4M53 198l1 5M54 249l0 -46M54 248l1 1 513 0M568 254l0 -171M568 85l13 0 0 -8 1 161M582 250l0 -12M582 249l65 0 0 -165M647 85l14 0M661 250l0 -172M661 249l39 0M700 252l0 -169M700 85l13 0 0 -9"/>
<path stroke="#FFC0C5" d="M713 76l1 162M714 249l0 -11M714 249l13 0 0 -165M727 85l13 0M740 250l0 -170M740 249l40 0 0 -165M780 85l13 0M793 249l0 -174M793 249l14 0 1 -144 0 -21M808 85l11 0M819 249l0 -169M819 249l155 0"/>
<path stroke="#A52A2A" d="M50 55l46 0"/>
<text stroke="none" fill="white" font-size="16" x="106" y="64">
x1.comp_out_n-2
</text>
<path stroke="#A52A2A" d="M50 613l1 0 1 -9 0 -22 1 -19M53 564l0 -3M53 564l1 6M54 613l0 -43M54 613l488 0M542 615l0 -168M542 449l13 0M555 613l0 -172M555 613l39 0 0 -166M594 449l14 0M608 613l0 -173M608 613l13 0M621 614l0 -167M621 449l13 0M634 613l0 -170"/>
<path stroke="#A52A2A" d="M634 613l40 0 0 -165M674 449l13 0M687 613l0 -173M687 613l66 0 0 -165 1 0M754 449l0 -1M754 449l12 0M766 613l0 -172M766 613l68 0 0 -165M834 449l11 0 0 -2M845 448l1 154M846 613l0 -11M846 613l14 0 1 -150 0 -15M861 449l11 0"/>
<path stroke="#A52A2A" d="M872 613l0 -166M872 613l15 0 0 -165M887 449l11 0M898 613l0 -166M898 613l15 0 0 -150 1 -14 0 -1M914 449l11 0M925 614l0 -167M925 613l12 0 1 -78 0 -88M938 449l13 0M951 614l0 -166M951 613l23 0"/>
</svg>
