<?xml version="1.0" standalone="yes"?>
<!DOCTYPE svg PUBLIC "-//W3C//DTD SVG 1.1//EN"
 "http://www.w3.org/Graphics/SVG/1.1/DTD/svg11.dtd">
<svg xmlns="http://www.w3.org/2000/svg" version="1.1"
  width="100%" height="100%" viewBox="0 0 1024 768"
  style="fill: none; font-family: Helvetica;
 font: Helvetica;
">

<!-- Creator: NGspice -->

<rect x="0" y="0" width="1024" height="768" fill="black" stroke="none"/>
<text stroke="none" fill="white" font-size="16" x="358" y="752">
time
</text>
<text stroke="none" fill="white" font-size="16" x="10" y="16">
tran1: run713_vin-0.272901
</text>
<path stroke="white" d="M50 704l0 -637"/>
<text stroke="none" fill="white" font-size="16" x="35" y="728">
0.0
</text>
<path stroke="white" stroke-dasharray="1,2" d="M182 704l0 -637"/>
<text stroke="none" fill="white" font-size="16" x="157" y="728">
100.0
</text>
<path stroke="white" stroke-dasharray="1,2" d="M314 704l0 -637"/>
<text stroke="none" fill="white" font-size="16" x="289" y="728">
200.0
</text>
<path stroke="white" stroke-dasharray="1,2" d="M446 704l0 -637"/>
<text stroke="none" fill="white" font-size="16" x="421" y="728">
300.0
</text>
<path stroke="white" stroke-dasharray="1,2" d="M578 704l0 -637"/>
<text stroke="none" fill="white" font-size="16" x="553" y="728">
400.0
</text>
<path stroke="white" stroke-dasharray="1,2" d="M710 704l0 -637"/>
<text stroke="none" fill="white" font-size="16" x="685" y="728">
500.0
</text>
<path stroke="white" stroke-dasharray="1,2" d="M842 704l0 -637"/>
<text stroke="none" fill="white" font-size="16" x="817" y="728">
600.0
</text>
<path stroke="white" stroke-dasharray="1,2" d="M974 704l0 -637"/>
<text stroke="none" fill="white" font-size="16" x="949" y="728">
700.0
</text>
<text stroke="none" fill="white" font-size="16" x="614" y="752">
ns
</text>
<path stroke="white" stroke-dasharray="1,2" d="M50 704l924 0"/>
<text stroke="none" fill="white" font-size="16" x="8" y="712">
-3.0
</text>
<path stroke="white" stroke-dasharray="1,2" d="M50 613l924 0"/>
<text stroke="none" fill="white" font-size="16" x="8" y="621">
-2.0
</text>
<path stroke="white" stroke-dasharray="1,2" d="M50 522l924 0"/>
<text stroke="none" fill="white" font-size="16" x="8" y="530">
-1.0
</text>
<path stroke="white" d="M50 431l924 0"/>
<text stroke="none" fill="white" font-size="16" x="18" y="439">
0.0
</text>
<path stroke="white" stroke-dasharray="1,2" d="M50 340l924 0"/>
<text stroke="none" fill="white" font-size="16" x="18" y="348">
1.0
</text>
<path stroke="white" stroke-dasharray="1,2" d="M50 249l924 0"/>
<text stroke="none" fill="white" font-size="16" x="18" y="257">
2.0
</text>
<path stroke="white" stroke-dasharray="1,2" d="M50 158l924 0"/>
<text stroke="none" fill="white" font-size="16" x="18" y="166">
3.0
</text>
<path stroke="white" stroke-dasharray="1,2" d="M50 67l924 0"/>
<text stroke="none" fill="white" font-size="16" x="18" y="75">
4.0
</text>
<text stroke="none" fill="white" font-size="16" x="10" y="32">
     
</text>
<path stroke="red" d="M462 23l46 0"/>
<text stroke="none" fill="white" font-size="16" x="518" y="32">
x1.vsampled_p
</text>
<path stroke="red" d="M50 431l1 0 1 -7 0 -15 1 -14 0 -5 1 2M54 415l0 -40 1 -5 0 -13 1 -3 0 -2 2 -2 1 0 1 -1 4 0M64 350l0 -1M64 350l4 0 1 -1 48 0M117 353l0 -4M117 353l1 7M118 369l0 -9M118 369l2 4 1 1 425 0 0 -23 1 -3 0 -23 1 -4 0 -4 1 -2 0 -1"/>
<path stroke="red" d="M549 314l1 -1 4 0 0 -1M554 313l13 0M567 314l0 -1 7 0M574 343l0 -30M574 343l1 3M575 355l0 -9M575 355l1 1 0 -1 1 -1 3 0 0 -1M580 354l13 0 0 -1M593 354l13 0 0 -1M606 354l19 0 0 -3 1 -5 0 -10 7 0 0 -1M633 336l13 0M646 337l0 -1"/>
<path stroke="red" d="M646 336l7 0M653 346l0 -10M653 346l1 1M654 348l0 -1 1 -1 51 0M706 350l0 -4M706 349l6 0 0 -1M712 349l13 0 0 -1M725 349l13 0 0 -1 1 0M739 349l0 -1M739 349l12 0 0 -1M751 349l1 0 0 -1M752 349l13 0 0 -1M765 349l13 0 0 -1M778 349l7 0"/>
<path stroke="red" d="M785 349l1 1 0 -1 18 0M804 350l0 -1 27 0M831 350l0 -1 26 0M857 350l0 -1 26 0M883 350l0 -1 27 0M910 350l0 -1 7 0 1 -1M918 378l0 -30M918 378l1 0 0 -3 1 -1 54 0"/>
<path stroke="blue" d="M50 23l46 0"/>
<text stroke="none" fill="white" font-size="16" x="106" y="32">
x1.vsampled_n
</text>
<path stroke="blue" d="M50 431l1 0 1 -7 0 -15 1 -15 0 -4 1 1M54 415l0 -40 1 -5 0 -13 1 -3 0 -2 2 -2 1 0 1 -1 4 0M64 350l0 -1M64 350l4 0 1 -1 48 0 0 -1 1 -7 0 -10 1 -4 1 -1 0 -1 1 0 1 -1 417 0M539 325l0 -1M539 325l1 0 0 -1M540 325l14 0 0 -1 12 0"/>
<path stroke="blue" d="M566 324l1 1 13 0 0 -1 13 0M593 325l0 -1M593 325l7 0M600 346l0 -22M600 346l1 1M601 348l0 -2 1 0 0 -1 77 0M679 350l0 -5M679 350l1 0M680 352l0 -2 52 0 0 -3M732 348l27 0M759 350l0 -2M759 349l54 0M813 350l0 -1 17 0 1 1 0 -1"/>
<path stroke="blue" d="M831 349l86 0M917 350l0 -1M917 350l1 1 0 -24 1 -1 0 -2 3 0M922 325l0 -1M922 325l1 0 0 -1 13 0M936 325l0 -1M936 325l14 0 0 -1 24 0"/>
<path stroke="#FFA500" d="M462 39l46 0"/>
<text stroke="none" fill="white" font-size="16" x="518" y="48">
x1.vsampled_p-x1.vsampled_n
</text>
<path stroke="#FFA500" d="M50 431l67 0M117 436l0 -5M117 436l1 14M118 469l0 -19M118 469l1 6 1 3M120 480l0 -2M120 480l2 0M122 481l0 -1M122 481l418 0 0 -1M540 481l1 -1M541 481l0 -1M541 481l5 0 0 -23 1 -4 0 -22 1 -5 0 -4 1 -2 0 -1 1 0 0 -1 16 0 1 1"/>
<path stroke="#FFA500" d="M567 420l0 -1 7 0M574 449l0 -30M574 449l1 3M575 462l0 -10M575 462l1 0 0 -1 1 0 1 -1 22 0 0 -21 1 -2M601 438l0 -1M601 438l2 2 22 0 0 -3 1 -5 0 -10 27 0M653 432l0 -10M653 432l1 1M654 434l0 -1 1 -1 24 0 0 -5 1 0 0 -2M680 427l26 0"/>
<path stroke="#FFA500" d="M706 431l0 -4M706 430l6 0 0 -1M712 430l13 0 0 -1M725 430l7 0M732 433l0 -3M732 432l27 0 0 -2 19 0M778 431l0 -1 7 0M785 431l0 -1M785 431l1 1 0 -1 27 0 0 -1M813 431l104 0 0 -1 1 -1M918 482l0 -53M918 482l1 1 0 -1 1 -1 16 0"/>
<path stroke="#FFA500" d="M936 481l0 -1M936 481l38 0"/>
<path stroke="green" d="M50 39l46 0"/>
<text stroke="none" fill="white" font-size="16" x="106" y="48">
x1.sw_sample-2
</text>
<path stroke="green" d="M50 613l1 0 1 -9 0 -21 1 -21M53 581l0 -25M53 581l1 29M54 613l0 -3M54 613l63 0M117 620l0 -172M117 449l422 0M539 614l0 -173M539 613l422 0M961 618l0 -170 1 1 12 0"/>
<path stroke="#FFC0C5" d="M462 55l46 0"/>
<text stroke="none" fill="white" font-size="16" x="518" y="64">
x1.comp_out_p+2
</text>
<path stroke="#FFC0C5" d="M50 249l1 0 1 -9 0 -22 1 -18 0 -4M53 198l1 5M54 249l0 -46M54 248l1 1 513 0M568 250l0 -167M568 85l13 0 0 -8 1 161M582 250l0 -12M582 249l65 0 0 -166M647 85l14 0M661 250l0 -173M661 249l39 0 0 -165M700 85l13 0 0 -8 1 161"/>
<path stroke="#FFC0C5" d="M714 250l0 -12M714 249l13 0 0 -165M727 85l13 0M740 249l0 -174M740 249l40 0 0 -165M780 85l13 0M793 249l0 -172M793 249l41 0 0 -165M834 85l11 0M845 86l0 -3M845 86l1 149M846 249l0 -14M846 249l128 0"/>
<path stroke="#A52A2A" d="M50 55l46 0"/>
<text stroke="none" fill="white" font-size="16" x="106" y="64">
x1.comp_out_n-2
</text>
<path stroke="#A52A2A" d="M50 613l1 0 1 -9 0 -22 1 -19M53 564l0 -3M53 564l1 6M54 613l0 -43M54 613l488 0 0 -166M542 449l13 0M555 613l0 -172M555 613l13 0M568 614l0 -1 26 0M594 614l0 -166M594 449l14 0M608 613l0 -174M608 613l13 0M621 617l0 -170M621 449l13 0"/>
<path stroke="#A52A2A" d="M634 613l0 -173M634 613l40 0M674 616l0 -169M674 449l13 0M687 613l0 -173M687 613l66 0 0 -165M753 449l13 0M766 614l0 -170M766 613l41 0 0 -151 1 -13 0 -1M808 449l11 0M819 613l0 -170M819 613l41 0 0 -165 1 1 11 0M872 613l0 -174"/>
<path stroke="#A52A2A" d="M872 613l14 0 0 -158 1 -7M887 449l0 -1M887 449l11 0M898 613l0 -174M898 613l14 0 1 -158 0 -7M913 449l12 0M925 613l0 -173M925 613l12 0 1 -78 0 -88M938 449l13 0M951 614l0 -166M951 613l23 0"/>
</svg>
