<?xml version="1.0" standalone="yes"?>
<!DOCTYPE svg PUBLIC "-//W3C//DTD SVG 1.1//EN"
 "http://www.w3.org/Graphics/SVG/1.1/DTD/svg11.dtd">
<svg xmlns="http://www.w3.org/2000/svg" version="1.1"
  width="100%" height="100%" viewBox="0 0 1024 768"
  style="fill: none; font-family: Helvetica;
 font: Helvetica;
">

<!-- Creator: NGspice -->

<rect x="0" y="0" width="1024" height="768" fill="black" stroke="none"/>
<text stroke="none" fill="white" font-size="16" x="358" y="752">
time
</text>
<text stroke="none" fill="white" font-size="16" x="10" y="16">
tran1: run638_vin-0.338819
</text>
<path stroke="white" d="M50 704l0 -637"/>
<text stroke="none" fill="white" font-size="16" x="35" y="728">
0.0
</text>
<path stroke="white" stroke-dasharray="1,2" d="M182 704l0 -637"/>
<text stroke="none" fill="white" font-size="16" x="157" y="728">
100.0
</text>
<path stroke="white" stroke-dasharray="1,2" d="M314 704l0 -637"/>
<text stroke="none" fill="white" font-size="16" x="289" y="728">
200.0
</text>
<path stroke="white" stroke-dasharray="1,2" d="M446 704l0 -637"/>
<text stroke="none" fill="white" font-size="16" x="421" y="728">
300.0
</text>
<path stroke="white" stroke-dasharray="1,2" d="M578 704l0 -637"/>
<text stroke="none" fill="white" font-size="16" x="553" y="728">
400.0
</text>
<path stroke="white" stroke-dasharray="1,2" d="M710 704l0 -637"/>
<text stroke="none" fill="white" font-size="16" x="685" y="728">
500.0
</text>
<path stroke="white" stroke-dasharray="1,2" d="M842 704l0 -637"/>
<text stroke="none" fill="white" font-size="16" x="817" y="728">
600.0
</text>
<path stroke="white" stroke-dasharray="1,2" d="M974 704l0 -637"/>
<text stroke="none" fill="white" font-size="16" x="949" y="728">
700.0
</text>
<text stroke="none" fill="white" font-size="16" x="614" y="752">
ns
</text>
<path stroke="white" stroke-dasharray="1,2" d="M50 704l924 0"/>
<text stroke="none" fill="white" font-size="16" x="8" y="712">
-3.0
</text>
<path stroke="white" stroke-dasharray="1,2" d="M50 613l924 0"/>
<text stroke="none" fill="white" font-size="16" x="8" y="621">
-2.0
</text>
<path stroke="white" stroke-dasharray="1,2" d="M50 522l924 0"/>
<text stroke="none" fill="white" font-size="16" x="8" y="530">
-1.0
</text>
<path stroke="white" d="M50 431l924 0"/>
<text stroke="none" fill="white" font-size="16" x="18" y="439">
0.0
</text>
<path stroke="white" stroke-dasharray="1,2" d="M50 340l924 0"/>
<text stroke="none" fill="white" font-size="16" x="18" y="348">
1.0
</text>
<path stroke="white" stroke-dasharray="1,2" d="M50 249l924 0"/>
<text stroke="none" fill="white" font-size="16" x="18" y="257">
2.0
</text>
<path stroke="white" stroke-dasharray="1,2" d="M50 158l924 0"/>
<text stroke="none" fill="white" font-size="16" x="18" y="166">
3.0
</text>
<path stroke="white" stroke-dasharray="1,2" d="M50 67l924 0"/>
<text stroke="none" fill="white" font-size="16" x="18" y="75">
4.0
</text>
<text stroke="none" fill="white" font-size="16" x="10" y="32">
     
</text>
<path stroke="red" d="M462 23l46 0"/>
<text stroke="none" fill="white" font-size="16" x="518" y="32">
x1.vsampled_p
</text>
<path stroke="red" d="M50 431l1 0 1 -7 0 -15 1 -14 0 -5 1 2M54 415l0 -40 1 -5 0 -13 1 -3 0 -2 2 -2 1 0 1 -1 4 0M64 350l0 -1M64 350l4 0 1 -1 48 0M117 355l0 -6M117 355l1 8M118 373l0 -10M118 373l1 3M119 378l0 -2M119 378l2 2 425 0 0 -25 1 -4 0 -22"/>
<path stroke="red" d="M547 329l1 -3 0 -5 2 -2 4 0 0 -1M554 319l13 0M567 320l0 -1 13 0 0 -1M580 319l13 0M593 320l0 -1 7 0M600 339l0 -20M600 339l1 3M601 346l0 -4 1 -1 0 -1 1 -1 16 0M619 340l0 -1 27 0M646 340l0 -1 7 0M653 349l0 -10M653 349l1 2M654 352l0 -1"/>
<path stroke="red" d="M654 351l2 -2 16 0M672 350l0 -1 26 0 1 1 0 -1 26 0M725 350l0 -1 7 0 0 -3 1 0M733 347l0 -1M733 347l18 0M751 348l0 -1 8 0M759 350l0 -3M759 349l2 0 0 -1 17 0M778 349l0 -1M778 349l1 0 0 -1 6 0M785 349l0 -1M785 349l1 1 0 -1 26 0"/>
<path stroke="red" d="M812 350l0 -1M812 350l1 0 0 -1 17 0 1 1 0 -1 87 0M918 361l0 -15M918 361l1 2M919 375l0 -12M919 375l1 4M920 382l0 -3M920 382l1 -1 1 0 0 -1 52 0"/>
<path stroke="blue" d="M50 23l46 0"/>
<text stroke="none" fill="white" font-size="16" x="106" y="32">
x1.vsampled_n
</text>
<path stroke="blue" d="M50 431l1 0 1 -7 0 -15 1 -15 0 -4 1 1M54 415l0 -40 1 -5 0 -13 1 -3 0 -2 2 -2 1 0 1 -1 4 0M64 350l0 -1M64 350l4 0 1 -1 48 0 0 -1 1 -8 0 -13 1 -4 0 -2 1 -2 1 0 1 -1 417 0M539 319l0 -1M539 319l1 0 0 -1M540 319l14 0 0 -1 12 0"/>
<path stroke="blue" d="M566 318l1 1 7 0M574 343l0 -25M574 343l1 3M575 357l0 -11M575 357l1 2 17 0M593 360l0 -1 26 0M619 360l0 -1 6 0 0 -9 1 -1 0 -6 1 -1 6 0 0 -1 13 0M646 342l0 -1M646 342l13 0 0 -1 13 0M672 342l0 -1M672 342l7 0M679 348l0 -6M679 348l1 0"/>
<path stroke="blue" d="M680 348l0 -1 6 0 0 -1M686 347l20 0M706 350l0 -3M706 350l1 -1 211 0 0 -5 1 -1 0 -5 1 -3 0 -9 1 -4 0 -1 1 0 0 -2 1 0 0 -1M923 319l1 0 0 -1 12 0M936 319l0 -1M936 319l14 0 0 -1 24 0"/>
<path stroke="#FFA500" d="M462 39l46 0"/>
<text stroke="none" fill="white" font-size="16" x="518" y="48">
x1.vsampled_p-x1.vsampled_n
</text>
<path stroke="#FFA500" d="M50 431l67 0M117 437l0 -6M117 437l1 17M118 478l0 -24M118 478l1 6M119 488l0 -4M119 488l1 3 1 1 1 0 1 1 417 0 0 -1 6 0M546 493l0 -26 1 -4 0 -21 1 -3 0 -6 1 -1 1 0 0 -1 17 0M567 432l0 -1 7 0 0 -24 1 -3 0 -12 1 -1 0 -1 17 0"/>
<path stroke="#FFA500" d="M593 392l0 -2M593 391l1 0 0 -1 6 0M600 411l0 -21M600 411l1 3M601 417l0 -3 1 -1 0 -2 23 0M625 420l0 -9M625 420l1 2M626 428l0 -6M626 428l1 0M627 429l0 -1M627 429l26 0M653 438l0 -9M653 438l1 3 0 -1 1 0 0 -1 24 0 0 -6 1 -1"/>
<path stroke="#FFA500" d="M680 434l0 -2M680 434l26 0 0 -3 26 0 0 -3 1 0M733 429l0 -1M733 429l26 0M759 432l0 -3M759 431l1 0 0 -1 25 0M785 431l0 -1M785 431l1 0M786 432l0 -1 26 0M812 432l0 -1M812 432l1 -1 105 0M918 448l0 -17M918 448l1 3M919 468l0 -17"/>
<path stroke="#FFA500" d="M919 468l1 7M920 487l0 -12M920 487l1 3M921 491l0 -1M921 491l1 0M922 492l0 -1M922 492l1 0M923 493l0 -1 1 0M924 493l0 -1M924 493l12 0 0 -1 14 0M950 493l0 -1M950 493l24 0"/>
<path stroke="green" d="M50 39l46 0"/>
<text stroke="none" fill="white" font-size="16" x="106" y="48">
x1.sw_sample-2
</text>
<path stroke="green" d="M50 613l1 0 1 -9 0 -21 1 -21M53 580l0 -24M53 580l1 30M54 613l0 -3M54 613l63 0M117 620l0 -172M117 449l422 0M539 614l0 -171M539 613l422 0M961 618l0 -170 1 1 12 0"/>
<path stroke="#FFC0C5" d="M462 55l46 0"/>
<text stroke="none" fill="white" font-size="16" x="518" y="64">
x1.comp_out_p+2
</text>
<path stroke="#FFC0C5" d="M50 249l1 0 1 -9 0 -22 1 -18 0 -4M53 198l1 5M54 249l0 -46M54 249l540 0M594 255l0 -172M594 85l14 0M608 249l0 -172M608 249l13 0M621 250l0 -166M621 85l13 0M634 249l0 -172M634 249l13 0M647 250l0 -167M647 85l14 0M661 249l0 -174"/>
<path stroke="#FFC0C5" d="M661 249l92 0 0 -165M753 85l13 0M766 249l0 -172M766 249l14 0 0 -165M780 85l13 0M793 249l0 -173M793 249l14 0 0 -164 12 0M819 249l0 -172M819 249l41 0 0 -164 12 0M872 249l0 -173M872 249l14 0 0 -157 1 -8M887 85l0 -1M887 85l11 0"/>
<path stroke="#FFC0C5" d="M898 249l0 -173M898 249l15 0 0 -165M913 85l12 0M925 250l0 -169M925 249l49 0"/>
<path stroke="#A52A2A" d="M50 55l46 0"/>
<text stroke="none" fill="white" font-size="16" x="106" y="64">
x1.comp_out_n-2
</text>
<path stroke="#A52A2A" d="M50 613l1 0 1 -9 0 -22 1 -19M53 564l0 -3M53 564l1 6M54 613l0 -43M54 613l488 0M542 619l0 -172M542 449l13 0M555 613l0 -172M555 613l13 0 0 -166M568 449l13 0 0 -9 1 163M582 613l0 -10M582 613l39 0M621 614l0 -1 52 0M673 614l0 -70"/>
<path stroke="#A52A2A" d="M673 544l1 -85 0 -11M674 449l13 0M687 613l0 -172M687 613l13 0M700 614l0 -167M700 449l13 0 0 -10 1 149M714 613l0 -25M714 613l14 0 0 -165M728 449l12 0M740 613l0 -173M740 613l94 0 0 -164 11 0 0 -8 1 154M846 613l0 -18M846 613l91 0"/>
<path stroke="#A52A2A" d="M937 613l1 -53 0 -112M938 449l13 0M951 614l0 -171M951 613l23 0"/>
</svg>
