<?xml version="1.0" standalone="yes"?>
<!DOCTYPE svg PUBLIC "-//W3C//DTD SVG 1.1//EN"
 "http://www.w3.org/Graphics/SVG/1.1/DTD/svg11.dtd">
<svg xmlns="http://www.w3.org/2000/svg" version="1.1"
  width="100%" height="100%" viewBox="0 0 1024 768"
  style="fill: none; font-family: Helvetica;
 font: Helvetica;
">

<!-- Creator: NGspice -->

<rect x="0" y="0" width="1024" height="768" fill="black" stroke="none"/>
<text stroke="none" fill="white" font-size="16" x="358" y="752">
time
</text>
<text stroke="none" fill="white" font-size="16" x="10" y="16">
tran1: run637_vin-0.339698
</text>
<path stroke="white" d="M50 704l0 -637"/>
<text stroke="none" fill="white" font-size="16" x="35" y="728">
0.0
</text>
<path stroke="white" stroke-dasharray="1,2" d="M182 704l0 -637"/>
<text stroke="none" fill="white" font-size="16" x="157" y="728">
100.0
</text>
<path stroke="white" stroke-dasharray="1,2" d="M314 704l0 -637"/>
<text stroke="none" fill="white" font-size="16" x="289" y="728">
200.0
</text>
<path stroke="white" stroke-dasharray="1,2" d="M446 704l0 -637"/>
<text stroke="none" fill="white" font-size="16" x="421" y="728">
300.0
</text>
<path stroke="white" stroke-dasharray="1,2" d="M578 704l0 -637"/>
<text stroke="none" fill="white" font-size="16" x="553" y="728">
400.0
</text>
<path stroke="white" stroke-dasharray="1,2" d="M710 704l0 -637"/>
<text stroke="none" fill="white" font-size="16" x="685" y="728">
500.0
</text>
<path stroke="white" stroke-dasharray="1,2" d="M842 704l0 -637"/>
<text stroke="none" fill="white" font-size="16" x="817" y="728">
600.0
</text>
<path stroke="white" stroke-dasharray="1,2" d="M974 704l0 -637"/>
<text stroke="none" fill="white" font-size="16" x="949" y="728">
700.0
</text>
<text stroke="none" fill="white" font-size="16" x="614" y="752">
ns
</text>
<path stroke="white" stroke-dasharray="1,2" d="M50 704l924 0"/>
<text stroke="none" fill="white" font-size="16" x="8" y="712">
-3.0
</text>
<path stroke="white" stroke-dasharray="1,2" d="M50 613l924 0"/>
<text stroke="none" fill="white" font-size="16" x="8" y="621">
-2.0
</text>
<path stroke="white" stroke-dasharray="1,2" d="M50 522l924 0"/>
<text stroke="none" fill="white" font-size="16" x="8" y="530">
-1.0
</text>
<path stroke="white" d="M50 431l924 0"/>
<text stroke="none" fill="white" font-size="16" x="18" y="439">
0.0
</text>
<path stroke="white" stroke-dasharray="1,2" d="M50 340l924 0"/>
<text stroke="none" fill="white" font-size="16" x="18" y="348">
1.0
</text>
<path stroke="white" stroke-dasharray="1,2" d="M50 249l924 0"/>
<text stroke="none" fill="white" font-size="16" x="18" y="257">
2.0
</text>
<path stroke="white" stroke-dasharray="1,2" d="M50 158l924 0"/>
<text stroke="none" fill="white" font-size="16" x="18" y="166">
3.0
</text>
<path stroke="white" stroke-dasharray="1,2" d="M50 67l924 0"/>
<text stroke="none" fill="white" font-size="16" x="18" y="75">
4.0
</text>
<text stroke="none" fill="white" font-size="16" x="10" y="32">
     
</text>
<path stroke="red" d="M462 23l46 0"/>
<text stroke="none" fill="white" font-size="16" x="518" y="32">
x1.vsampled_p
</text>
<path stroke="red" d="M50 431l1 0 1 -7 0 -15 1 -14 0 -5 1 2M54 415l0 -40 1 -5 0 -13 1 -3 0 -2 2 -2 1 0 1 -1 4 0M64 350l0 -1M64 350l4 0 1 -1 48 0M117 355l0 -6M117 355l1 8M118 373l0 -10M118 373l1 3M119 378l0 -2M119 378l2 2 425 0 0 -23 1 -4 0 -23"/>
<path stroke="red" d="M547 330l1 -3 0 -5 1 -2 1 -1 4 0 0 -1M554 319l13 0M567 320l0 -1 13 0 0 -1M580 319l13 0M593 320l0 -1 7 0M600 340l0 -21M600 340l1 3M601 346l0 -4 1 0 0 -2 1 0 0 -1 16 0M619 340l0 -1 27 0M646 340l0 -1 7 0M653 349l0 -10M653 349l1 3"/>
<path stroke="red" d="M654 352l1 -1 0 -1 4 0 0 -1 13 0M672 350l0 -1 1 0M673 350l0 -1M673 350l13 0 0 -1 12 0 1 1 0 -1M699 350l13 0 0 -1 13 0M725 350l0 -1M725 350l7 0 0 -4 1 0M733 347l0 -1M733 347l18 0M751 348l0 -1 8 0M759 350l0 -3M759 349l6 0"/>
<path stroke="red" d="M765 349l0 -1M765 349l13 0 0 -1M778 349l8 0M786 350l0 -1 18 0M804 350l0 -1 27 0M831 350l0 -1 26 0M857 350l0 -1 26 0M883 350l0 -1 27 0M910 350l0 -1 7 0M917 350l0 -1 1 -2M918 370l0 -23M918 370l1 4M919 381l0 -7M919 381l1 1"/>
<path stroke="red" d="M920 382l0 -1 1 0 0 -1 53 0"/>
<path stroke="blue" d="M50 23l46 0"/>
<text stroke="none" fill="white" font-size="16" x="106" y="32">
x1.vsampled_n
</text>
<path stroke="blue" d="M50 431l1 0 1 -7 0 -15 1 -15 0 -4 1 1M54 415l0 -40 1 -5 0 -13 1 -3 0 -2 2 -2 1 0 1 -1 4 0M64 350l0 -1M64 350l4 0 1 -1 48 0 0 -1 1 -8 0 -13 1 -4 0 -2 1 -2 1 0 0 -1 419 0M540 319l0 -1M540 319l1 -1M541 319l0 -1M541 319l5 0"/>
<path stroke="blue" d="M546 319l0 -1 20 0 1 1 0 -1M567 319l1 0 0 -1M568 319l1 0 0 -1 5 0M574 342l0 -24M574 342l1 4M575 357l0 -11M575 357l1 2 43 0M619 360l0 -1 6 0 0 -8 1 -1 0 -7 1 -1 1 0 1 -1 17 0M646 342l0 -1 26 0M672 342l0 -1 7 0M679 347l0 -6"/>
<path stroke="blue" d="M679 347l1 1 0 -1 6 0 0 -1 12 0 1 1 0 -1M699 347l7 0M706 350l0 -3M706 350l1 -1 106 0M813 350l0 -1 17 0 1 1 0 -1 86 0M917 350l0 -1 1 -1 0 -7 1 -2 0 -9 1 -4 0 -3 1 -2 0 -1 1 -1 1 0 0 -1 13 0M936 319l0 -1M936 319l14 0 0 -1"/>
<path stroke="blue" d="M950 318l24 0"/>
<path stroke="#FFA500" d="M462 39l46 0"/>
<text stroke="none" fill="white" font-size="16" x="518" y="48">
x1.vsampled_p-x1.vsampled_n
</text>
<path stroke="#FFA500" d="M50 431l67 0M117 437l0 -6M117 437l1 17M118 478l0 -24M118 478l1 6M119 488l0 -4M119 488l1 3 2 2 418 0 0 -1M540 493l1 0 0 -1M541 493l5 0 0 -24 1 -4 0 -22 1 -3 0 -6 3 -3 15 0 1 1 0 -1 7 0 0 -24 1 -3 0 -11 1 -2 4 0 0 -1M580 391l13 0"/>
<path stroke="#FFA500" d="M593 392l0 -1 7 0M600 412l0 -21M600 412l1 3M601 417l0 -3 1 -1 0 -1 1 -1 16 0M619 412l0 -1 6 0M625 420l0 -9M625 420l1 1M626 428l0 -7M626 428l1 0M627 429l0 -1M627 429l26 0M653 439l0 -10M653 439l1 2 1 -1 0 -1 24 0 0 -5"/>
<path stroke="#FFA500" d="M679 434l1 -1M680 434l0 -2M680 434l26 0 0 -3 19 0M725 432l0 -1 7 0 0 -3 1 0M733 429l0 -1M733 429l26 0M759 432l0 -3M759 431l1 0 1 -1 17 0M778 431l0 -1 8 0M786 432l0 -2M786 431l27 0 0 -1M813 431l104 0M917 432l0 -2M917 431l1 -1"/>
<path stroke="#FFA500" d="M918 460l0 -30M918 460l1 6M919 482l0 -16M919 482l1 5M920 490l0 -3M920 490l1 1M921 492l0 -1M921 492l2 0M923 493l0 -1M923 493l13 0 0 -1M936 493l38 0"/>
<path stroke="green" d="M50 39l46 0"/>
<text stroke="none" fill="white" font-size="16" x="106" y="48">
x1.sw_sample-2
</text>
<path stroke="green" d="M50 613l1 0 1 -9 0 -21 1 -21M53 580l0 -24M53 580l1 30M54 613l0 -3M54 613l63 0M117 620l0 -172M117 449l422 0M539 614l0 -171M539 613l422 0M961 618l0 -170 1 1 12 0"/>
<path stroke="#FFC0C5" d="M462 55l46 0"/>
<text stroke="none" fill="white" font-size="16" x="518" y="64">
x1.comp_out_p+2
</text>
<path stroke="#FFC0C5" d="M50 249l1 0 1 -9 0 -22 1 -18 0 -4M53 198l1 5M54 249l0 -46M54 249l540 0M594 252l0 -168M594 85l14 0M608 250l0 -173M608 249l13 0M621 250l0 -166M621 85l13 0M634 249l0 -172M634 249l13 0 0 -166M647 85l14 0M661 249l0 -174M661 249l92 0"/>
<path stroke="#FFC0C5" d="M753 249l0 -165M753 85l13 0M766 249l0 -171M766 249l14 0 0 -165M780 85l13 0M793 249l0 -166M793 249l41 0 0 -165M834 85l11 0 0 -2 1 151M846 249l0 -15M846 249l128 0"/>
<path stroke="#A52A2A" d="M50 55l46 0"/>
<text stroke="none" fill="white" font-size="16" x="106" y="64">
x1.comp_out_n-2
</text>
<path stroke="#A52A2A" d="M50 613l1 0 1 -9 0 -22 1 -19M53 564l0 -3M53 564l1 6M54 613l0 -43M54 613l488 0M542 620l0 -173M542 449l13 0M555 613l0 -172M555 613l13 0 0 -165M568 449l13 0 0 -9 1 163M582 613l0 -10M582 613l39 0M621 614l0 -1 52 0M673 614l0 -78"/>
<path stroke="#A52A2A" d="M673 536l1 -78 0 -11M674 449l13 0M687 613l0 -172M687 613l13 0 0 -165M700 449l13 0 0 -9 1 147M714 613l0 -26M714 613l14 0 0 -165M728 449l12 0M740 613l0 -173M740 613l67 0 0 -164 12 0M819 613l0 -172M819 613l41 0 0 -164 12 0"/>
<path stroke="#A52A2A" d="M872 613l0 -174M872 613l14 0 1 -149 0 -16M887 449l11 0M898 613l0 -174M898 613l14 0 1 -158 0 -7M913 449l12 0M925 614l0 -167M925 613l12 0 1 -74 0 -92M938 449l13 0M951 614l0 -171M951 613l23 0"/>
</svg>
