<?xml version="1.0" standalone="yes"?>
<!DOCTYPE svg PUBLIC "-//W3C//DTD SVG 1.1//EN"
 "http://www.w3.org/Graphics/SVG/1.1/DTD/svg11.dtd">
<svg xmlns="http://www.w3.org/2000/svg" version="1.1"
  width="100%" height="100%" viewBox="0 0 1024 768"
  style="fill: none; font-family: Helvetica;
 font: Helvetica;
">

<!-- Creator: NGspice -->

<rect x="0" y="0" width="1024" height="768" fill="black" stroke="none"/>
<text stroke="none" fill="white" font-size="16" x="358" y="752">
time
</text>
<text stroke="none" fill="white" font-size="16" x="10" y="16">
tran1: run633_vin-0.343214
</text>
<path stroke="white" d="M50 704l0 -637"/>
<text stroke="none" fill="white" font-size="16" x="35" y="728">
0.0
</text>
<path stroke="white" stroke-dasharray="1,2" d="M182 704l0 -637"/>
<text stroke="none" fill="white" font-size="16" x="157" y="728">
100.0
</text>
<path stroke="white" stroke-dasharray="1,2" d="M314 704l0 -637"/>
<text stroke="none" fill="white" font-size="16" x="289" y="728">
200.0
</text>
<path stroke="white" stroke-dasharray="1,2" d="M446 704l0 -637"/>
<text stroke="none" fill="white" font-size="16" x="421" y="728">
300.0
</text>
<path stroke="white" stroke-dasharray="1,2" d="M578 704l0 -637"/>
<text stroke="none" fill="white" font-size="16" x="553" y="728">
400.0
</text>
<path stroke="white" stroke-dasharray="1,2" d="M710 704l0 -637"/>
<text stroke="none" fill="white" font-size="16" x="685" y="728">
500.0
</text>
<path stroke="white" stroke-dasharray="1,2" d="M842 704l0 -637"/>
<text stroke="none" fill="white" font-size="16" x="817" y="728">
600.0
</text>
<path stroke="white" stroke-dasharray="1,2" d="M974 704l0 -637"/>
<text stroke="none" fill="white" font-size="16" x="949" y="728">
700.0
</text>
<text stroke="none" fill="white" font-size="16" x="614" y="752">
ns
</text>
<path stroke="white" stroke-dasharray="1,2" d="M50 704l924 0"/>
<text stroke="none" fill="white" font-size="16" x="8" y="712">
-3.0
</text>
<path stroke="white" stroke-dasharray="1,2" d="M50 613l924 0"/>
<text stroke="none" fill="white" font-size="16" x="8" y="621">
-2.0
</text>
<path stroke="white" stroke-dasharray="1,2" d="M50 522l924 0"/>
<text stroke="none" fill="white" font-size="16" x="8" y="530">
-1.0
</text>
<path stroke="white" d="M50 431l924 0"/>
<text stroke="none" fill="white" font-size="16" x="18" y="439">
0.0
</text>
<path stroke="white" stroke-dasharray="1,2" d="M50 340l924 0"/>
<text stroke="none" fill="white" font-size="16" x="18" y="348">
1.0
</text>
<path stroke="white" stroke-dasharray="1,2" d="M50 249l924 0"/>
<text stroke="none" fill="white" font-size="16" x="18" y="257">
2.0
</text>
<path stroke="white" stroke-dasharray="1,2" d="M50 158l924 0"/>
<text stroke="none" fill="white" font-size="16" x="18" y="166">
3.0
</text>
<path stroke="white" stroke-dasharray="1,2" d="M50 67l924 0"/>
<text stroke="none" fill="white" font-size="16" x="18" y="75">
4.0
</text>
<text stroke="none" fill="white" font-size="16" x="10" y="32">
     
</text>
<path stroke="red" d="M462 23l46 0"/>
<text stroke="none" fill="white" font-size="16" x="518" y="32">
x1.vsampled_p
</text>
<path stroke="red" d="M50 431l1 0 1 -7 0 -15 1 -14 0 -5 1 2M54 415l0 -40 1 -5 0 -13 1 -3 0 -2 2 -2 1 0 1 -1 4 0M64 350l0 -1M64 350l4 0 1 -1 48 0M117 355l0 -6M117 355l1 9M118 374l0 -10M118 374l1 3M119 378l0 -1M119 378l2 2 419 0M540 381l0 -1 6 0"/>
<path stroke="red" d="M546 381l0 -23 1 -3 0 -25 1 -3 0 -4 1 -2 0 -1 1 0 0 -1 16 0 1 1 0 -1 26 0M593 320l0 -1 7 0M600 339l0 -20M600 339l1 3M601 346l0 -4 1 -1 0 -1 4 0 0 -1 1 0M607 340l0 -1M607 340l26 0 0 -1M633 340l20 0M653 349l0 -9M653 349l1 2"/>
<path stroke="red" d="M654 352l0 -1M654 352l1 -1 0 -1 77 0 0 -4M732 347l1 0M733 348l0 -1M733 348l5 0 0 -1 1 0M739 348l0 -1M739 348l20 0M759 350l0 -2M759 349l53 0M812 350l0 -1M812 350l1 0 0 -1 18 0M831 350l0 -1 26 0M857 350l0 -1 26 0M883 350l0 -1"/>
<path stroke="red" d="M883 349l27 0M910 350l0 -1 7 0M917 350l0 -1 1 -1M918 371l0 -23M918 371l1 5M919 382l0 -6M919 382l1 0 0 -1 3 0 0 -1 13 0M936 381l0 -1 38 0"/>
<path stroke="blue" d="M50 23l46 0"/>
<text stroke="none" fill="white" font-size="16" x="106" y="32">
x1.vsampled_n
</text>
<path stroke="blue" d="M50 431l1 0 1 -7 0 -15 1 -15 0 -4 1 1M54 415l0 -40 1 -5 0 -13 1 -3 0 -2 2 -2 1 0 1 -1 4 0M64 350l0 -1M64 350l4 0 1 -1 48 0 0 -1 1 -8 0 -13 1 -4 0 -2 1 -2 1 -1 419 0M540 319l0 -1 27 0M567 319l0 -1 7 0M574 340l0 -22M574 340l1 4"/>
<path stroke="blue" d="M575 357l0 -13M575 357l1 1M576 359l0 -1M576 359l49 0 0 -7 1 -2 0 -7 1 -1 0 -1 19 0M646 342l0 -1 26 0M672 342l0 -1 7 0M679 346l0 -5M679 346l1 0M680 348l0 -2 19 0M699 347l0 -1 7 0M706 350l0 -4M706 349l80 0M786 350l0 -1 18 0"/>
<path stroke="blue" d="M804 350l0 -1 26 0 1 1 0 -1 86 0M917 350l0 -1 1 -2 0 -7 1 -3 0 -9 1 -4 0 -2 1 -2 0 -1 1 0 1 -1 13 0M936 319l0 -1 38 0"/>
<path stroke="#FFA500" d="M462 39l46 0"/>
<text stroke="none" fill="white" font-size="16" x="518" y="48">
x1.vsampled_p-x1.vsampled_n
</text>
<path stroke="#FFA500" d="M50 431l67 0M117 437l0 -6M117 437l1 17M118 478l0 -24M118 478l1 7M119 489l0 -4M119 489l1 2 1 1M121 493l0 -1M121 493l425 0M546 494l0 -23 1 -3 0 -26 1 -3 0 -3 1 -2 0 -1 1 -1 24 0 0 -22 1 -4 0 -12 1 -2 0 -1 17 0M593 392l0 -1"/>
<path stroke="#FFA500" d="M593 391l7 0M600 411l0 -20M600 411l1 4M601 418l0 -4 1 -1 0 -1 4 0 0 -1 1 0M607 412l0 -1M607 412l18 0M625 419l0 -7M625 419l1 2M626 428l0 -7M626 428l1 0M627 429l0 -1M627 429l1 0 1 1 4 0 0 -1M633 430l20 0M653 439l0 -10"/>
<path stroke="#FFA500" d="M653 439l1 2M654 442l0 -1 1 -1 24 0 0 -5 1 -1M680 435l0 -2M680 435l26 0 0 -4M706 432l26 0 0 -3 1 0M733 430l0 -1M733 430l26 0M759 432l0 -2M759 431l27 0 0 -1 18 0M804 431l0 -1 8 0M812 431l0 -1M812 431l105 0M917 432l0 -2"/>
<path stroke="#FFA500" d="M917 431l1 1M918 462l0 -30M918 462l1 8M919 485l0 -15M919 485l1 3M920 491l0 -3M920 491l1 1 1 0M922 493l0 -1M922 493l1 0M923 494l0 -1 13 0 0 -1M936 493l14 0M950 494l0 -1 24 0"/>
<path stroke="green" d="M50 39l46 0"/>
<text stroke="none" fill="white" font-size="16" x="106" y="48">
x1.sw_sample-2
</text>
<path stroke="green" d="M50 613l1 0 1 -9 0 -21 1 -21M53 580l0 -24M53 580l1 30M54 613l0 -3M54 613l63 0M117 620l0 -172M117 449l422 0M539 614l0 -171M539 613l422 0M961 618l0 -170 1 1 12 0"/>
<path stroke="#FFC0C5" d="M462 55l46 0"/>
<text stroke="none" fill="white" font-size="16" x="518" y="64">
x1.comp_out_p+2
</text>
<path stroke="#FFC0C5" d="M50 249l1 0 1 -9 0 -22 1 -18 0 -4M53 198l1 5M54 249l0 -46M54 249l540 0M594 250l0 -166M594 85l14 0M608 250l0 -171M608 249l13 0 0 -166M621 85l13 0M634 249l0 -172M634 249l13 0M647 250l0 -166M647 85l14 0M661 250l0 -174M661 249l92 0"/>
<path stroke="#FFC0C5" d="M753 249l0 -165M753 85l13 0M766 250l0 -174M766 249l41 0 0 -165M807 85l12 0M819 249l0 -174M819 249l15 0 0 -165M834 85l11 0 0 -2 1 151M846 249l0 -15M846 249l128 0"/>
<path stroke="#A52A2A" d="M50 55l46 0"/>
<text stroke="none" fill="white" font-size="16" x="106" y="64">
x1.comp_out_n-2
</text>
<path stroke="#A52A2A" d="M50 613l1 0 1 -9 0 -22 1 -19M53 564l0 -3M53 564l1 6M54 613l0 -43M54 613l488 0M542 620l0 -173M542 449l13 0M555 613l0 -172M555 613l13 0M568 614l0 -167M568 449l13 0 0 -9 1 163M582 613l0 -10M582 613l12 0M594 614l0 -1 79 0"/>
<path stroke="#A52A2A" d="M673 615l0 -2M673 615l1 -104 0 -64M674 449l13 0M687 613l0 -172M687 613l13 0 0 -166M700 449l13 0 0 -9 1 162M714 613l0 -11M714 613l13 0 0 -153 1 -11 12 0M740 613l0 -166M740 613l40 0 1 -150 0 -15M781 449l12 0M793 613l0 -172"/>
<path stroke="#A52A2A" d="M793 613l67 0 0 -164 12 0M872 613l0 -174M872 613l14 0 0 -158 1 -7M887 449l0 -1M887 449l11 0M898 613l0 -174M898 613l14 0 1 -158 0 -7M913 449l12 0M925 614l0 -167M925 613l12 0 1 -52 0 -113M938 449l13 0M951 614l0 -171M951 613l23 0"/>
</svg>
