<?xml version="1.0" standalone="yes"?>
<!DOCTYPE svg PUBLIC "-//W3C//DTD SVG 1.1//EN"
 "http://www.w3.org/Graphics/SVG/1.1/DTD/svg11.dtd">
<svg xmlns="http://www.w3.org/2000/svg" version="1.1"
  width="100%" height="100%" viewBox="0 0 1024 768"
  style="fill: none; font-family: Helvetica;
 font: Helvetica;
">

<!-- Creator: NGspice -->

<rect x="0" y="0" width="1024" height="768" fill="black" stroke="none"/>
<text stroke="none" fill="white" font-size="16" x="358" y="752">
time
</text>
<text stroke="none" fill="white" font-size="16" x="10" y="16">
tran1: run251_vin-0.678955
</text>
<path stroke="white" d="M50 704l0 -637"/>
<text stroke="none" fill="white" font-size="16" x="35" y="728">
0.0
</text>
<path stroke="white" stroke-dasharray="1,2" d="M182 704l0 -637"/>
<text stroke="none" fill="white" font-size="16" x="157" y="728">
100.0
</text>
<path stroke="white" stroke-dasharray="1,2" d="M314 704l0 -637"/>
<text stroke="none" fill="white" font-size="16" x="289" y="728">
200.0
</text>
<path stroke="white" stroke-dasharray="1,2" d="M446 704l0 -637"/>
<text stroke="none" fill="white" font-size="16" x="421" y="728">
300.0
</text>
<path stroke="white" stroke-dasharray="1,2" d="M578 704l0 -637"/>
<text stroke="none" fill="white" font-size="16" x="553" y="728">
400.0
</text>
<path stroke="white" stroke-dasharray="1,2" d="M710 704l0 -637"/>
<text stroke="none" fill="white" font-size="16" x="685" y="728">
500.0
</text>
<path stroke="white" stroke-dasharray="1,2" d="M842 704l0 -637"/>
<text stroke="none" fill="white" font-size="16" x="817" y="728">
600.0
</text>
<path stroke="white" stroke-dasharray="1,2" d="M974 704l0 -637"/>
<text stroke="none" fill="white" font-size="16" x="949" y="728">
700.0
</text>
<text stroke="none" fill="white" font-size="16" x="614" y="752">
ns
</text>
<path stroke="white" stroke-dasharray="1,2" d="M50 704l924 0"/>
<text stroke="none" fill="white" font-size="16" x="8" y="712">
-3.0
</text>
<path stroke="white" stroke-dasharray="1,2" d="M50 613l924 0"/>
<text stroke="none" fill="white" font-size="16" x="8" y="621">
-2.0
</text>
<path stroke="white" stroke-dasharray="1,2" d="M50 522l924 0"/>
<text stroke="none" fill="white" font-size="16" x="8" y="530">
-1.0
</text>
<path stroke="white" d="M50 431l924 0"/>
<text stroke="none" fill="white" font-size="16" x="18" y="439">
0.0
</text>
<path stroke="white" stroke-dasharray="1,2" d="M50 340l924 0"/>
<text stroke="none" fill="white" font-size="16" x="18" y="348">
1.0
</text>
<path stroke="white" stroke-dasharray="1,2" d="M50 249l924 0"/>
<text stroke="none" fill="white" font-size="16" x="18" y="257">
2.0
</text>
<path stroke="white" stroke-dasharray="1,2" d="M50 158l924 0"/>
<text stroke="none" fill="white" font-size="16" x="18" y="166">
3.0
</text>
<path stroke="white" stroke-dasharray="1,2" d="M50 67l924 0"/>
<text stroke="none" fill="white" font-size="16" x="18" y="75">
4.0
</text>
<text stroke="none" fill="white" font-size="16" x="10" y="32">
     
</text>
<path stroke="red" d="M462 23l46 0"/>
<text stroke="none" fill="white" font-size="16" x="518" y="32">
x1.vsampled_p
</text>
<path stroke="red" d="M50 431l1 0 1 -7 0 -15 1 -14 0 -5 1 2M54 414l0 -38 1 -4 0 -14 1 -3 0 -2 1 -2 0 -1 2 0 1 -1 3 0 1 1 4 0 1 -1 48 0M117 365l0 -16M117 365l1 16M118 401l0 -20M118 401l1 2M119 408l0 -5M119 408l3 3 424 0 0 -26 1 -3 0 -20 1 -7 0 -3"/>
<path stroke="red" d="M548 352l1 -1 0 -1 5 0 0 -1M554 350l26 0 0 -1M580 350l26 0 0 -1M606 350l20 0 0 -1 1 -2 0 -16 1 0 1 1 4 0 0 -1M633 332l13 0M646 333l0 -1 7 0M653 342l0 -10M653 342l1 2M654 345l0 -2 1 0 0 -1 17 0M672 343l0 -1 7 0M679 349l0 -7"/>
<path stroke="red" d="M679 349l1 1M680 351l0 -3 1 -1 18 0M699 348l0 -1 7 0M706 351l0 -4M706 351l1 0 0 -1 5 0 0 -1M712 350l20 0 0 -4M732 347l19 0M751 348l0 -1M751 348l1 0 0 -1 7 0M759 350l0 -3M759 349l6 0 0 -1M765 349l21 0M786 350l0 -1M786 350l1 0"/>
<path stroke="red" d="M787 350l0 -1 17 0M804 350l0 -1 26 0 1 1 0 -1 26 0M857 350l0 -1 26 0M883 350l0 -1 27 0M910 350l0 -1 7 0 1 1M918 411l0 -61M918 411l1 3M919 415l0 -1 1 0 0 -1 1 -1 0 -1 53 0"/>
<path stroke="blue" d="M50 23l46 0"/>
<text stroke="none" fill="white" font-size="16" x="106" y="32">
x1.vsampled_n
</text>
<path stroke="blue" d="M50 431l1 0 1 -7 0 -15 1 -15 0 -5 1 2M54 414l0 -38 1 -4 0 -14 1 -3 0 -2 1 -2 0 -1 2 0 1 -1 3 0 1 1 5 0 0 -1 48 0 0 -1 1 -11 0 -32 1 -5 0 -7 1 -3 1 -1 0 -1 1 0 1 -1 416 0M539 288l0 -1M539 288l1 0M540 289l0 -1 14 0 0 -1 12 0"/>
<path stroke="blue" d="M566 287l1 1M567 289l0 -1 6 0 1 -1M574 310l0 -23M574 310l1 7M575 326l0 -9M575 326l1 2 1 1 3 0 0 -1 13 0M593 329l0 -1M593 329l7 0M600 343l0 -15M600 343l1 2M601 350l0 -5M601 349l211 0M812 350l0 -1 19 0M831 350l0 -1 26 0M857 350l0 -1"/>
<path stroke="blue" d="M857 349l26 0M883 350l0 -1 27 0M910 350l0 -1 8 0 0 -37 1 -5 0 -12 1 -2 0 -2 1 -2 0 -1 2 0 0 -1 13 0M936 289l0 -2M936 288l14 0 0 -1 24 0"/>
<path stroke="#FFA500" d="M462 39l46 0"/>
<text stroke="none" fill="white" font-size="16" x="518" y="48">
x1.vsampled_p-x1.vsampled_n
</text>
<path stroke="#FFA500" d="M50 431l2 0M52 432l0 -1M52 432l2 0 0 -1 63 0M117 449l0 -18M117 449l1 26M118 527l0 -52M118 527l1 7M119 546l0 -12M119 546l1 4 1 2M121 554l0 -2M121 554l2 0 1 1 415 0 0 -1 1 0M540 555l0 -1 6 0 0 -25 1 -4 0 -19 1 -7 0 -3"/>
<path stroke="#FFA500" d="M548 496l1 -2 1 -1 17 0 0 -1M567 493l7 0 0 -22 1 -7 0 -10 1 -2 17 0M593 453l0 -1 7 0 0 -14 1 -2 0 -5 1 1 24 0 1 -3 0 -16 1 0 1 1 4 0 0 -1M633 414l13 0M646 415l0 -1 7 0M653 424l0 -10M653 424l1 2M654 427l0 -2 1 0 0 -1"/>
<path stroke="#FFA500" d="M655 424l17 0M672 425l0 -1 7 0M679 431l0 -7M679 431l1 1M680 433l0 -3 1 -1 25 0M706 433l0 -4M706 433l1 0 0 -1 25 0 0 -4M732 429l1 0M733 430l0 -1M733 430l5 0 0 -1 1 1 20 0M759 433l0 -3M759 431l27 0M786 432l0 -1M786 432l1 0"/>
<path stroke="#FFA500" d="M787 432l1 -1 16 0M804 432l0 -1 34 0 0 -1M838 431l79 0 1 1M918 530l0 -98M918 530l1 9M919 551l0 -12M919 551l1 1M920 553l0 -1M920 553l1 1 2 0M923 555l0 -1M923 555l13 0 0 -2M936 554l14 0M950 555l0 -1M950 555l11 0 1 -1M962 555l0 -1"/>
<path stroke="#FFA500" d="M962 555l12 0"/>
<path stroke="green" d="M50 39l46 0"/>
<text stroke="none" fill="white" font-size="16" x="106" y="48">
x1.sw_sample-2
</text>
<path stroke="green" d="M50 613l1 0 1 -9 0 -21 1 -21M53 579l0 -23M53 579l1 31M54 613l0 -3M54 613l63 0M117 620l0 -172M117 449l422 0M539 614l0 -171M539 613l422 0M961 618l0 -170 1 1 12 0"/>
<path stroke="#FFC0C5" d="M462 55l46 0"/>
<text stroke="none" fill="white" font-size="16" x="518" y="64">
x1.comp_out_p+2
</text>
<path stroke="#FFC0C5" d="M50 249l1 0 1 -9 0 -22 1 -18 0 -4M53 198l1 5M54 250l0 -47M54 238l1 10M55 249l0 -1M55 249l592 0M647 250l0 -166M647 85l14 0M661 249l0 -171M661 249l12 0 0 -58 1 -92 0 -15M674 85l13 0M687 249l0 -171M687 249l13 0 0 -165M700 85l13 0"/>
<path stroke="#FFC0C5" d="M713 85l0 -3 1 11M714 249l0 -156M714 249l39 0 0 -165M753 85l13 0M766 249l0 -171M766 249l14 0 0 -136 1 -27 0 -2M781 85l12 0M793 250l0 -174M793 249l67 0 0 -165M860 85l12 0M872 250l0 -174M872 249l14 0 0 -154 1 -10 11 0"/>
<path stroke="#FFC0C5" d="M898 250l0 -174M898 249l15 0 0 -164 12 0M925 250l0 -171M925 249l49 0"/>
<path stroke="#A52A2A" d="M50 55l46 0"/>
<text stroke="none" fill="white" font-size="16" x="106" y="64">
x1.comp_out_n-2
</text>
<path stroke="#A52A2A" d="M50 613l1 0 1 -9 0 -22 1 -19M53 564l0 -3M53 564l1 6M54 613l0 -43M54 612l1 1 487 0 0 -165M542 449l13 0M555 613l0 -172M555 613l13 0M568 614l0 -166M568 449l13 0 0 -9 1 161M582 613l0 -12M582 613l12 0M594 615l0 -168M594 449l14 0"/>
<path stroke="#A52A2A" d="M608 614l0 -170M608 613l14 0 0 -165M622 449l12 0M634 613l0 -173M634 613l13 0M647 614l0 -1 80 0 1 -157 0 -8M728 449l12 0M740 613l0 -172M740 613l67 0 0 -165M807 449l12 0M819 613l0 -167M819 613l15 0 0 -164 11 0 0 -10 1 153"/>
<path stroke="#A52A2A" d="M846 613l0 -21M846 613l91 0 1 -53 0 -112M938 449l13 0M951 613l0 -169M951 613l23 0"/>
</svg>
