<?xml version="1.0" standalone="yes"?>
<!DOCTYPE svg PUBLIC "-//W3C//DTD SVG 1.1//EN"
 "http://www.w3.org/Graphics/SVG/1.1/DTD/svg11.dtd">
<svg xmlns="http://www.w3.org/2000/svg" version="1.1"
  width="100%" height="100%" viewBox="0 0 1024 768"
  style="fill: none; font-family: Helvetica;
 font: Helvetica;
">

<!-- Creator: NGspice -->

<rect x="0" y="0" width="1024" height="768" fill="black" stroke="none"/>
<text stroke="none" fill="white" font-size="16" x="358" y="752">
time
</text>
<text stroke="none" fill="white" font-size="16" x="10" y="16">
tran1: run27_vin-0.893033
</text>
<path stroke="white" d="M50 704l0 -637"/>
<text stroke="none" fill="white" font-size="16" x="35" y="728">
0.0
</text>
<path stroke="white" stroke-dasharray="1,2" d="M182 704l0 -637"/>
<text stroke="none" fill="white" font-size="16" x="157" y="728">
100.0
</text>
<path stroke="white" stroke-dasharray="1,2" d="M314 704l0 -637"/>
<text stroke="none" fill="white" font-size="16" x="289" y="728">
200.0
</text>
<path stroke="white" stroke-dasharray="1,2" d="M446 704l0 -637"/>
<text stroke="none" fill="white" font-size="16" x="421" y="728">
300.0
</text>
<path stroke="white" stroke-dasharray="1,2" d="M578 704l0 -637"/>
<text stroke="none" fill="white" font-size="16" x="553" y="728">
400.0
</text>
<path stroke="white" stroke-dasharray="1,2" d="M710 704l0 -637"/>
<text stroke="none" fill="white" font-size="16" x="685" y="728">
500.0
</text>
<path stroke="white" stroke-dasharray="1,2" d="M842 704l0 -637"/>
<text stroke="none" fill="white" font-size="16" x="817" y="728">
600.0
</text>
<path stroke="white" stroke-dasharray="1,2" d="M974 704l0 -637"/>
<text stroke="none" fill="white" font-size="16" x="949" y="728">
700.0
</text>
<text stroke="none" fill="white" font-size="16" x="614" y="752">
ns
</text>
<path stroke="white" stroke-dasharray="1,2" d="M50 704l924 0"/>
<text stroke="none" fill="white" font-size="16" x="8" y="712">
-3.0
</text>
<path stroke="white" stroke-dasharray="1,2" d="M50 613l924 0"/>
<text stroke="none" fill="white" font-size="16" x="8" y="621">
-2.0
</text>
<path stroke="white" stroke-dasharray="1,2" d="M50 522l924 0"/>
<text stroke="none" fill="white" font-size="16" x="8" y="530">
-1.0
</text>
<path stroke="white" d="M50 431l924 0"/>
<text stroke="none" fill="white" font-size="16" x="18" y="439">
0.0
</text>
<path stroke="white" stroke-dasharray="1,2" d="M50 340l924 0"/>
<text stroke="none" fill="white" font-size="16" x="18" y="348">
1.0
</text>
<path stroke="white" stroke-dasharray="1,2" d="M50 249l924 0"/>
<text stroke="none" fill="white" font-size="16" x="18" y="257">
2.0
</text>
<path stroke="white" stroke-dasharray="1,2" d="M50 158l924 0"/>
<text stroke="none" fill="white" font-size="16" x="18" y="166">
3.0
</text>
<path stroke="white" stroke-dasharray="1,2" d="M50 67l924 0"/>
<text stroke="none" fill="white" font-size="16" x="18" y="75">
4.0
</text>
<text stroke="none" fill="white" font-size="16" x="10" y="32">
     
</text>
<path stroke="red" d="M462 23l46 0"/>
<text stroke="none" fill="white" font-size="16" x="518" y="32">
x1.vsampled_p
</text>
<path stroke="red" d="M50 431l1 0 1 -7 0 -15 1 -14 0 -4 1 1M54 414l0 -38 1 -5 0 -13 1 -3 0 -3 1 -1 0 -1 2 0 1 -1 4 0 1 1 1 0 1 -1 50 0M117 376l0 -27M117 376l1 18M118 416l0 -22M118 416l1 3M119 427l0 -8M119 427l1 1M120 429l0 -1M120 429l1 1 419 0"/>
<path stroke="red" d="M540 431l0 -1M540 431l1 -1 5 0M546 431l0 -24 1 -2 0 -20 1 -8 0 -4 1 -2 0 -1 1 -1 17 0M567 370l0 -1 58 0 0 -12 1 -2 0 -5 1 0M627 351l0 -1M627 351l19 0M646 352l0 -1 26 0M672 352l0 -1 27 0M699 352l0 -1 26 0M725 352l0 -1 6 0"/>
<path stroke="red" d="M731 351l0 -4 1 0M732 349l0 -2M732 349l19 0M751 350l0 -1 27 0M778 350l0 -1 26 0M804 350l0 -1 9 0M813 350l0 -1 17 0 1 1 0 -1 7 0 0 -1M838 349l19 0M857 350l0 -1 26 0M883 350l0 -1 27 0M910 350l0 -1 8 0M918 457l0 -108M918 448l1 -3"/>
<path stroke="red" d="M919 445l0 -9 1 -1 0 -2 1 -1 0 -1 2 0 0 -1 13 0M936 431l0 -1 38 0"/>
<path stroke="blue" d="M50 23l46 0"/>
<text stroke="none" fill="white" font-size="16" x="106" y="32">
x1.vsampled_n
</text>
<path stroke="blue" d="M50 431l1 0 1 -7 0 -16 1 -14 0 -5 1 2M54 414l0 -38 1 -5 0 -13 1 -3 0 -3 1 -1 0 -1 2 0 1 -1 3 0 1 1 4 0 1 -1 48 0 0 -2 1 -12 0 -37 1 -8 0 -15 1 -2 0 -2 1 -2 1 0 0 -1 418 0M540 269l0 -1 27 0M567 270l0 -2 6 0 1 1M574 297l0 -28"/>
<path stroke="blue" d="M574 297l1 9 1 3 17 0M593 310l0 -1 7 0M600 324l0 -15M600 324l1 5M601 331l0 -2M601 330l1 0 0 -1 2 0M604 330l0 -1M604 330l2 0 0 -1 13 0M619 330l0 -1M619 330l1 0 0 -1M620 330l5 0 0 -1 1 1 0 -1M626 330l7 0 0 -1 13 0M646 330l0 -1"/>
<path stroke="blue" d="M646 330l1 0 0 -1M647 330l6 0M653 336l0 -7M653 336l1 3M654 340l0 -1M654 340l5 0 0 -1M659 340l20 0M679 344l0 -4M679 344l1 1M680 346l0 -1 26 0M706 348l0 -3M706 348l1 -1 18 0M725 348l0 -1 26 0M751 348l0 -1M751 348l1 0 0 -1"/>
<path stroke="blue" d="M752 347l7 0M759 349l0 -2M759 349l6 0 0 -1M765 349l21 0M786 350l0 -1 132 0 0 -62 1 -3 0 -10 1 -1 0 -2 1 -1 0 -1 1 0 0 -1 14 0M936 270l0 -2 38 0"/>
<path stroke="#FFA500" d="M462 39l46 0"/>
<text stroke="none" fill="white" font-size="16" x="518" y="48">
x1.vsampled_p-x1.vsampled_n
</text>
<path stroke="#FFA500" d="M50 431l2 0M52 432l0 -1M52 432l2 0 0 -1 63 0M117 459l0 -28M117 459l1 30M118 549l0 -60M118 549l1 11M119 582l0 -22M119 582l1 4M120 589l0 -3M120 589l1 2 1 1M122 593l0 -1M122 593l2 0 1 1 414 0 0 -1 7 0 0 -23 1 -2 0 -20 1 -8"/>
<path stroke="#FFA500" d="M548 540l0 -4 1 -3 0 -1 18 0 0 -1M567 532l6 0 1 -1 0 -28 1 -9 1 -3 17 0 0 -1M593 491l7 0 0 -15 1 -5 0 -1 1 1 17 0 0 -1M619 471l6 0 0 -13 1 -1 0 -5 2 0 1 1 24 0 0 -7 1 -2 0 -2 1 1 17 0 0 -1 1 1 6 0 0 -5 1 -1 0 -1M680 437l6 0"/>
<path stroke="#FFA500" d="M686 438l0 -1M686 438l13 0 0 -1 7 0 0 -2 25 0 0 -4 1 0M732 433l0 -2M732 433l27 0 0 -2 19 0M778 432l0 -1 35 0M813 432l0 -1 25 0 0 -1M838 431l80 0M918 592l0 -161M918 592l1 1 4 0M923 594l0 -1M923 594l1 -1 12 0 0 -1M936 593l14 0"/>
<path stroke="#FFA500" d="M950 594l0 -1 12 0M962 594l0 -1M962 594l12 0"/>
<path stroke="green" d="M50 39l46 0"/>
<text stroke="none" fill="white" font-size="16" x="106" y="48">
x1.sw_sample-2
</text>
<path stroke="green" d="M50 613l1 0 1 -9 0 -21 1 -21M53 578l0 -22M53 578l1 32M54 613l0 -3M54 613l63 0M117 620l0 -172M117 449l422 0M539 614l0 -171M539 613l422 0M961 618l0 -170 1 1 12 0"/>
<path stroke="#FFC0C5" d="M462 55l46 0"/>
<text stroke="none" fill="white" font-size="16" x="518" y="64">
x1.comp_out_p+2
</text>
<path stroke="#FFC0C5" d="M50 249l1 0 1 -9 0 -22 1 -18 0 -4M53 198l1 5M54 249l0 -46M54 247l1 2 752 0 0 -165 1 1 11 0M819 250l0 -171M819 249l41 0 0 -165M860 85l12 0M872 250l0 -174M872 249l14 0 0 -151 1 -13 0 -1M887 85l11 0M898 250l0 -174M898 249l15 0"/>
<path stroke="#FFC0C5" d="M913 249l0 -165M913 85l12 0M925 250l0 -166M925 249l49 0"/>
<path stroke="#A52A2A" d="M50 55l46 0"/>
<text stroke="none" fill="white" font-size="16" x="106" y="64">
x1.comp_out_n-2
</text>
<path stroke="#A52A2A" d="M50 613l1 0 1 -9 0 -22 1 -19M53 564l0 -3M53 564l1 6M54 613l0 -43M54 613l487 0 1 1 0 -167M542 449l13 0M555 613l0 -173M555 613l13 0 0 -165M568 449l13 0M581 475l0 -29M581 475l1 131M582 613l0 -7M582 613l12 0 0 -166M594 449l14 0"/>
<path stroke="#A52A2A" d="M608 613l0 -172M608 613l13 0 0 -166M621 449l13 0M634 613l0 -173M634 613l13 0 0 -165M647 449l14 0M661 614l0 -171M661 613l12 0M673 617l0 -4M673 617l1 -123 0 -47M674 449l13 0M687 614l0 -170M687 613l13 0M700 615l0 -168M700 449l13 0"/>
<path stroke="#A52A2A" d="M713 449l0 -6 1 164M714 614l0 -7M714 613l12 0 1 1 0 -166M727 449l13 0M740 613l0 -171M740 613l13 0 0 -165M753 449l13 0M766 613l0 -167M766 613l14 0 0 -165 1 1 12 0M793 613l0 -173M793 613l41 0 0 -165M834 449l11 0 0 -10"/>
<path stroke="#A52A2A" d="M845 439l1 149M846 613l0 -25M846 613l91 0M937 614l0 -1M937 614l1 -100 0 -67M938 449l13 0M951 614l0 -173M951 613l23 0"/>
</svg>
