<?xml version="1.0" standalone="yes"?>
<!DOCTYPE svg PUBLIC "-//W3C//DTD SVG 1.1//EN"
 "http://www.w3.org/Graphics/SVG/1.1/DTD/svg11.dtd">
<svg xmlns="http://www.w3.org/2000/svg" version="1.1"
  width="100%" height="100%" viewBox="0 0 1024 768"
  style="fill: none; font-family: Helvetica;
 font: Helvetica;
">

<!-- Creator: NGspice -->

<rect x="0" y="0" width="1024" height="768" fill="black" stroke="none"/>
<text stroke="none" fill="white" font-size="16" x="358" y="752">
time
</text>
<text stroke="none" fill="white" font-size="16" x="10" y="16">
tran1: run26_vin0.301681
</text>
<path stroke="white" d="M50 704l0 -637"/>
<text stroke="none" fill="white" font-size="16" x="35" y="728">
0.0
</text>
<path stroke="white" stroke-dasharray="1,2" d="M182 704l0 -637"/>
<text stroke="none" fill="white" font-size="16" x="157" y="728">
100.0
</text>
<path stroke="white" stroke-dasharray="1,2" d="M314 704l0 -637"/>
<text stroke="none" fill="white" font-size="16" x="289" y="728">
200.0
</text>
<path stroke="white" stroke-dasharray="1,2" d="M446 704l0 -637"/>
<text stroke="none" fill="white" font-size="16" x="421" y="728">
300.0
</text>
<path stroke="white" stroke-dasharray="1,2" d="M578 704l0 -637"/>
<text stroke="none" fill="white" font-size="16" x="553" y="728">
400.0
</text>
<path stroke="white" stroke-dasharray="1,2" d="M710 704l0 -637"/>
<text stroke="none" fill="white" font-size="16" x="685" y="728">
500.0
</text>
<path stroke="white" stroke-dasharray="1,2" d="M842 704l0 -637"/>
<text stroke="none" fill="white" font-size="16" x="817" y="728">
600.0
</text>
<path stroke="white" stroke-dasharray="1,2" d="M974 704l0 -637"/>
<text stroke="none" fill="white" font-size="16" x="949" y="728">
700.0
</text>
<text stroke="none" fill="white" font-size="16" x="614" y="752">
ns
</text>
<path stroke="white" stroke-dasharray="1,2" d="M50 704l924 0"/>
<text stroke="none" fill="white" font-size="16" x="8" y="712">
-2.5
</text>
<path stroke="white" stroke-dasharray="1,2" d="M50 655l924 0"/>
<text stroke="none" fill="white" font-size="16" x="8" y="663">
-2.0
</text>
<path stroke="white" stroke-dasharray="1,2" d="M50 606l924 0"/>
<text stroke="none" fill="white" font-size="16" x="8" y="614">
-1.5
</text>
<path stroke="white" stroke-dasharray="1,2" d="M50 557l924 0"/>
<text stroke="none" fill="white" font-size="16" x="8" y="565">
-1.0
</text>
<path stroke="white" stroke-dasharray="1,2" d="M50 508l924 0"/>
<text stroke="none" fill="white" font-size="16" x="8" y="516">
-0.5
</text>
<path stroke="white" d="M50 459l924 0"/>
<text stroke="none" fill="white" font-size="16" x="18" y="467">
0.0
</text>
<path stroke="white" stroke-dasharray="1,2" d="M50 410l924 0"/>
<text stroke="none" fill="white" font-size="16" x="18" y="418">
0.5
</text>
<path stroke="white" stroke-dasharray="1,2" d="M50 361l924 0"/>
<text stroke="none" fill="white" font-size="16" x="18" y="369">
1.0
</text>
<path stroke="white" stroke-dasharray="1,2" d="M50 312l924 0"/>
<text stroke="none" fill="white" font-size="16" x="18" y="320">
1.5
</text>
<path stroke="white" stroke-dasharray="1,2" d="M50 263l924 0"/>
<text stroke="none" fill="white" font-size="16" x="18" y="271">
2.0
</text>
<path stroke="white" stroke-dasharray="1,2" d="M50 214l924 0"/>
<text stroke="none" fill="white" font-size="16" x="18" y="222">
2.5
</text>
<path stroke="white" stroke-dasharray="1,2" d="M50 165l924 0"/>
<text stroke="none" fill="white" font-size="16" x="18" y="173">
3.0
</text>
<path stroke="white" stroke-dasharray="1,2" d="M50 116l924 0"/>
<text stroke="none" fill="white" font-size="16" x="18" y="124">
3.5
</text>
<path stroke="white" stroke-dasharray="1,2" d="M50 67l924 0"/>
<text stroke="none" fill="white" font-size="16" x="18" y="75">
4.0
</text>
<text stroke="none" fill="white" font-size="16" x="10" y="32">
     
</text>
<path stroke="red" d="M462 23l46 0"/>
<text stroke="none" fill="white" font-size="16" x="518" y="32">
x1.vsampled_p
</text>
<path stroke="red" d="M50 459l1 0 1 -7 0 -17 1 -16 0 -4 1 1M54 441l0 -42 1 -5 0 -14 1 -3 0 -3 1 -2 1 0 0 -1 59 0 0 -1 1 -8 0 -13 1 -4 1 -2 0 -1 1 0 1 -1 417 0M539 342l0 -1M539 342l1 0 0 -1M540 342l14 0 0 -1 12 0 1 1M567 343l0 -1 13 0 0 -1 13 0"/>
<path stroke="red" d="M593 342l0 -1M593 342l7 0M600 359l0 -18M600 359l1 3M601 367l0 -5M601 365l1 0 0 -1 4 0 0 -1 13 0M619 364l0 -1M619 364l1 0 0 -1M620 364l13 0 0 -1 13 0M646 364l0 -1M646 364l13 0 0 -1 13 0M672 364l0 -1M672 364l7 0M679 370l0 -6"/>
<path stroke="red" d="M679 370l1 1 0 -2 26 0M706 373l0 -4M706 373l1 -1 25 0 0 -3 19 0M751 370l0 -1M751 370l1 -1 7 0M759 372l0 -3M759 371l54 0M813 372l0 -1 25 0 1 -1M839 371l0 -1M839 371l79 0 0 -25 1 -2 0 -3 3 0M922 342l0 -1M922 342l1 0 0 -1 13 0"/>
<path stroke="red" d="M936 342l0 -1M936 342l14 0 0 -1 24 0"/>
<path stroke="blue" d="M50 23l46 0"/>
<text stroke="none" fill="white" font-size="16" x="106" y="32">
x1.vsampled_n
</text>
<path stroke="blue" d="M50 459l1 0 1 -7 0 -17 1 -15 0 -5 1 2M54 441l0 -42 1 -5 0 -14 1 -3 0 -3 1 -2 1 0 0 -1 59 0M117 376l0 -5M117 376l1 8M118 394l0 -10M118 394l1 3 1 2M120 400l0 -1M120 400l419 0M539 401l0 -1M539 401l1 0 1 -1M541 401l0 -1M541 401l5 0"/>
<path stroke="blue" d="M546 401l0 -30 1 -4 0 -21 1 -4 0 -4 1 -2 0 -1 5 0 0 -1 12 0 1 1M567 336l0 -1 7 0M574 365l0 -30M574 365l1 4M575 381l0 -12M575 381l1 0 0 -1 1 -1 3 0 0 -1 13 0M593 379l0 -1M593 379l13 0 0 -1 13 0M619 379l0 -1M619 379l1 0 0 -1"/>
<path stroke="blue" d="M620 379l5 0 0 -13 1 -1 0 -6 20 0M646 360l0 -1 7 0M653 369l0 -10M653 369l1 2M654 372l0 -1 1 0 0 -1 17 0M672 371l0 -1 27 0M699 371l0 -1 26 0M725 371l0 -1 26 0M751 371l0 -1M751 371l1 -1 26 0M778 371l0 -1 7 0 1 1M786 372l0 -1"/>
<path stroke="blue" d="M786 371l132 0M918 404l0 -34M918 404l1 1 0 -2 1 -1 0 -1 3 0 0 -1 13 0M936 401l0 -1M936 401l14 0 0 -1 24 0"/>
<path stroke="#FFA500" d="M462 39l46 0"/>
<text stroke="none" fill="white" font-size="16" x="518" y="48">
x1.vsampled_p-x1.vsampled_n
</text>
<path stroke="#FFA500" d="M50 459l67 0 0 -6 1 -16 0 -23 1 -7 1 -4 0 -2 1 0 1 -1 418 0M540 401l0 -1 6 0M546 430l0 -30M546 430l1 4M547 455l0 -21M547 455l1 4M548 462l0 -3M548 462l1 2M549 465l0 -1M549 465l1 1 24 0 0 -31 1 -4 0 -11 1 0 1 1M577 422l0 -1"/>
<path stroke="#FFA500" d="M577 422l16 0M593 423l0 -1 7 0M600 439l0 -17M600 439l1 4M601 447l0 -4M601 446l2 -2 22 0M625 456l0 -12M625 456l1 1M626 463l0 -6M626 463l1 0M627 464l0 -1M627 464l1 -1 25 0 0 -9 1 -2 0 -2M654 451l1 1 24 0M679 458l0 -6M679 458l1 2"/>
<path stroke="#FFA500" d="M680 460l0 -2 26 0M706 461l0 -3M706 461l2 0 0 -1 4 0M712 461l0 -1 13 0M725 461l0 -1 7 0 0 -3M732 458l27 0M759 460l0 -2M759 460l1 0 0 -1 5 0M765 460l0 -1 21 0 0 -1M786 459l27 0M813 460l0 -1 25 0 1 -1M839 459l0 -1M839 459l79 0"/>
<path stroke="#FFA500" d="M918 460l0 -59 1 -3 0 -1 1 1M920 399l0 -1M920 399l1 1 15 0M936 401l0 -1 38 0"/>
<path stroke="green" d="M50 39l46 0"/>
<text stroke="none" fill="white" font-size="16" x="106" y="48">
x1.sw_sample-2
</text>
<path stroke="green" d="M50 655l1 0 1 -10 0 -23 1 -21M53 620l0 -26M53 620l1 32M54 655l0 -3M54 655l63 0M117 662l0 -184 1 0M118 479l0 -1M118 479l421 0M539 656l0 -184M539 655l422 0M961 660l0 -182 1 0M962 479l0 -1 1 1 11 0"/>
<path stroke="#FFC0C5" d="M462 55l46 0"/>
<text stroke="none" fill="white" font-size="16" x="518" y="64">
x1.comp_out_p+2
</text>
<path stroke="#FFC0C5" d="M50 263l1 0 1 -10 0 -23 1 -20 0 -4M53 209l1 4M54 263l0 -50M54 262l1 1 486 0 1 1 0 -179M542 87l13 0M555 264l0 -186M555 263l39 0M594 264l0 -179M594 86l1 1 13 0M608 264l0 -185M608 263l13 0M621 270l0 -185M621 87l13 0M634 263l0 -185"/>
<path stroke="#FFC0C5" d="M634 263l39 0M673 270l0 -7M673 270l1 -144 0 -41M674 87l13 0M687 263l0 -184M687 263l13 0 0 -177 1 0M701 87l0 -1M701 87l12 0 1 -9M714 264l0 -186M714 263l39 0 0 -177 1 1 12 0M766 264l0 -181M766 263l41 0 0 -177 1 0M808 87l0 -1"/>
<path stroke="#FFC0C5" d="M808 87l11 0M819 264l0 -185M819 263l41 0 0 -177 1 1 11 0M872 264l0 -187M872 263l14 0 0 -177 1 0M887 87l0 -1M887 87l11 0M898 264l0 -187M898 263l15 0 0 -177M913 87l12 0M925 264l0 -187M925 263l12 0 1 -47 0 -131M938 87l13 0"/>
<path stroke="#FFC0C5" d="M951 263l0 -186M951 263l23 0"/>
<path stroke="#A52A2A" d="M50 55l46 0"/>
<text stroke="none" fill="white" font-size="16" x="106" y="64">
x1.comp_out_n-2
</text>
<path stroke="#A52A2A" d="M50 655l1 0 1 -10 0 -24 1 -20M53 602l0 -3M53 602l1 7M54 656l0 -47M54 654l1 1 513 0M568 656l0 -179M568 479l13 0 0 -10 1 173M582 655l0 -13M582 655l12 0M594 656l0 -1 53 0M647 657l0 -181M647 479l14 0M661 655l0 -180M661 655l66 0"/>
<path stroke="#A52A2A" d="M727 655l0 -177 1 1 12 0M740 655l0 -184M740 655l40 0 0 -177 1 1 12 0M793 655l0 -188M793 655l41 0 0 -177 1 1 10 0 0 -12 1 169M846 655l0 -19M846 655l128 0"/>
</svg>
