<?xml version="1.0" standalone="yes"?>
<!DOCTYPE svg PUBLIC "-//W3C//DTD SVG 1.1//EN"
 "http://www.w3.org/Graphics/SVG/1.1/DTD/svg11.dtd">
<svg xmlns="http://www.w3.org/2000/svg" version="1.1"
  width="100%" height="100%" viewBox="0 0 1024 768"
  style="fill: none; font-family: Helvetica;
 font: Helvetica;
">

<!-- Creator: NGspice -->

<rect x="0" y="0" width="1024" height="768" fill="black" stroke="none"/>
<text stroke="none" fill="white" font-size="16" x="358" y="752">
time
</text>
<text stroke="none" fill="white" font-size="16" x="10" y="16">
tran1: run781_vin-0.213136
</text>
<path stroke="white" d="M60 704l0 -636"/>
<text stroke="none" fill="white" font-size="16" x="45" y="728">
0.0
</text>
<path stroke="white" stroke-dasharray="1,2" d="M189 704l0 -636"/>
<text stroke="none" fill="white" font-size="16" x="164" y="728">
100.0
</text>
<path stroke="white" stroke-dasharray="1,2" d="M318 704l0 -636"/>
<text stroke="none" fill="white" font-size="16" x="293" y="728">
200.0
</text>
<path stroke="white" stroke-dasharray="1,2" d="M447 704l0 -636"/>
<text stroke="none" fill="white" font-size="16" x="422" y="728">
300.0
</text>
<path stroke="white" stroke-dasharray="1,2" d="M576 704l0 -636"/>
<text stroke="none" fill="white" font-size="16" x="551" y="728">
400.0
</text>
<path stroke="white" stroke-dasharray="1,2" d="M705 704l0 -636"/>
<text stroke="none" fill="white" font-size="16" x="680" y="728">
500.0
</text>
<path stroke="white" stroke-dasharray="1,2" d="M834 704l0 -636"/>
<text stroke="none" fill="white" font-size="16" x="809" y="728">
600.0
</text>
<path stroke="white" stroke-dasharray="1,2" d="M963 704l0 -636"/>
<text stroke="none" fill="white" font-size="16" x="938" y="728">
700.0
</text>
<text stroke="none" fill="white" font-size="16" x="614" y="752">
ns
</text>
<path stroke="white" stroke-dasharray="1,2" d="M60 704l903 0"/>
<text stroke="none" fill="white" font-size="16" x="18" y="712">
-5.0
</text>
<path stroke="white" d="M60 598l903 0"/>
<text stroke="none" fill="white" font-size="16" x="28" y="606">
0.0
</text>
<path stroke="white" stroke-dasharray="1,2" d="M60 492l903 0"/>
<text stroke="none" fill="white" font-size="16" x="28" y="500">
5.0
</text>
<path stroke="white" stroke-dasharray="1,2" d="M60 386l903 0"/>
<text stroke="none" fill="white" font-size="16" x="18" y="394">
10.0
</text>
<path stroke="white" stroke-dasharray="1,2" d="M60 280l903 0"/>
<text stroke="none" fill="white" font-size="16" x="18" y="288">
15.0
</text>
<path stroke="white" stroke-dasharray="1,2" d="M60 174l903 0"/>
<text stroke="none" fill="white" font-size="16" x="18" y="182">
20.0
</text>
<path stroke="white" stroke-dasharray="1,2" d="M60 68l903 0"/>
<text stroke="none" fill="white" font-size="16" x="18" y="76">
25.0
</text>
<text stroke="none" fill="white" font-size="16" x="10" y="32">
     
</text>
<path stroke="red" d="M451 23l45 0"/>
<text stroke="none" fill="white" font-size="16" x="506" y="32">
x1.comp_out_p-2
</text>
<path stroke="red" d="M60 640l1 0 1 -2 0 -5 1 -4 0 -1M63 629l1 1M64 640l0 -10M64 640l502 0 0 -38 13 0M579 637l0 -37M579 637l1 3 38 0 0 -38 13 0M631 641l0 -41M631 640l90 0 0 -33 1 -5 12 0M734 641l0 -40M734 640l13 0 1 -35 0 -3 12 0M760 640l0 -40"/>
<path stroke="red" d="M760 640l203 0"/>
<path stroke="blue" d="M60 23l45 0"/>
<text stroke="none" fill="white" font-size="16" x="115" y="32">
x1.comp_out_n-4
</text>
<path stroke="blue" d="M60 683l1 0 1 -2 0 -5 1 -5 1 2M64 683l0 -10M64 683l476 0 0 -27 1 -10 0 -2M541 645l13 0M554 683l0 -39M554 683l38 0 0 -39M592 645l13 0M605 683l0 -40M605 683l38 0 0 -9 1 -26 0 -4M644 645l13 0M657 683l0 -40M657 683l12 0 0 -39"/>
<path stroke="blue" d="M669 644l1 0M670 645l0 -1M670 645l13 0M683 683l0 -41M683 683l12 0 1 -35 0 -4M696 645l12 0M708 680l0 -37M708 680l1 3 64 0 0 -39M773 645l13 0M786 683l0 -40M786 683l13 0 1 -36 0 -3M800 645l12 0M812 683l0 -40M812 683l14 0 0 -39"/>
<path stroke="blue" d="M826 645l11 0M837 679l0 -37M837 679l1 4 13 0 1 -37 0 -2M852 645l11 0M863 683l0 -41M863 683l14 0 0 -37 1 -2M878 645l0 -1M878 645l11 0M889 683l0 -41M889 683l14 0 0 -39 1 1 11 0M915 683l0 -40M915 683l12 0 0 -39 1 0M928 645l0 -1"/>
<path stroke="blue" d="M928 645l13 0M941 683l0 -39M941 683l22 0"/>
<path stroke="#FFA500" d="M451 39l45 0"/>
<text stroke="none" fill="white" font-size="16" x="506" y="48">
x1.x1.raw_bit1
</text>
<path stroke="#FFA500" d="M60 598l1 0 1 -2 0 -5 1 -4 0 -2 1 2M64 598l0 -11M64 598l899 0"/>
<path stroke="green" d="M60 39l45 0"/>
<text stroke="none" fill="white" font-size="16" x="115" y="48">
x1.x1.raw_bit2+2
</text>
<path stroke="green" d="M60 556l1 0 1 -2 0 -5 1 -4 0 -1M63 545l1 3M64 556l0 -8M64 556l507 0 0 -39 336 0 1 3M908 556l0 -36M908 556l55 0"/>
<path stroke="#FFC0C5" d="M451 55l45 0"/>
<text stroke="none" fill="white" font-size="16" x="506" y="64">
x1.x1.raw_bit3+4
</text>
<path stroke="#FFC0C5" d="M60 513l1 0 1 -2 0 -4 1 -4 0 -1 1 4M64 513l0 -7M64 513l899 0"/>
<path stroke="#A52A2A" d="M60 55l45 0"/>
<text stroke="none" fill="white" font-size="16" x="115" y="64">
x1.x1.raw_bit4+6
</text>
<path stroke="#A52A2A" d="M60 471l1 0 1 -2 0 -5 1 -4 0 -2 1 1M64 471l0 -12M64 471l558 0 1 -4 0 -34 284 0 0 -1 1 1M908 471l0 -38M908 471l55 0"/>
<path stroke="#F0E68C" d="M451 71l45 0"/>
<text stroke="none" fill="white" font-size="16" x="506" y="80">
x1.x1.raw_bit5+8
</text>
<path stroke="#F0E68C" d="M60 428l1 0 1 -1 0 -5 1 -4 0 -1 1 4M64 428l0 -7M64 428l899 0"/>
<path stroke="#DDA0DD" d="M60 71l45 0"/>
<text stroke="none" fill="white" font-size="16" x="115" y="80">
x1.x1.raw_bit6+10
</text>
<path stroke="#DDA0DD" d="M60 386l1 0 1 -2 0 -4 1 -4 0 -1 1 3M64 386l0 -8M64 386l899 0"/>
<path stroke="#DA70D6" d="M451 87l45 0"/>
<text stroke="none" fill="white" font-size="16" x="506" y="96">
x1.x1.raw_bit7+12
</text>
<path stroke="#DA70D6" d="M60 344l1 0 1 -2 0 -5 1 -4 0 -1M63 333l1 3M64 344l0 -8M64 344l899 0"/>
<path stroke="#EE82EE" d="M60 87l45 0"/>
<text stroke="none" fill="white" font-size="16" x="115" y="96">
x1.x1.raw_bit8+14
</text>
<path stroke="#EE82EE" d="M60 301l1 0 1 -2 0 -4 1 -4 0 -3 1 2M64 301l0 -11M64 301l662 0M726 302l0 -39 181 0 0 -1 1 2M908 301l0 -37M908 301l55 0"/>
<path stroke="#B03060" d="M451 103l45 0"/>
<text stroke="none" fill="white" font-size="16" x="506" y="112">
x1.x1.raw_bit9+16
</text>
<path stroke="#B03060" d="M60 259l1 0 1 -2 0 -4 1 -4 0 -2M63 248l1 3M64 259l0 -8M64 259l688 0 0 -39M752 221l155 0 0 -1 1 3M908 259l0 -36M908 259l55 0"/>
<path stroke="#40E0D0" d="M60 103l45 0"/>
<text stroke="none" fill="white" font-size="16" x="115" y="112">
x1.x1.raw_bit10+18
</text>
<path stroke="#40E0D0" d="M60 216l1 0 1 -1 0 -5 1 -4 0 -1 1 4M64 216l0 -7M64 216l899 0"/>
<path stroke="#A0522D" d="M451 119l45 0"/>
<text stroke="none" fill="white" font-size="16" x="506" y="128">
x1.x1.raw_bit11+20
</text>
<path stroke="#A0522D" d="M60 174l1 0 1 -2 0 -4 1 -4 0 -1 1 3M64 174l0 -8M64 174l899 0"/>
<path stroke="#FF7F50" d="M60 119l45 0"/>
<text stroke="none" fill="white" font-size="16" x="115" y="128">
x1.x1.raw_bit12+22
</text>
<path stroke="#FF7F50" d="M60 132l1 0 1 -2 0 -5 1 -4 0 -1 1 5M64 132l0 -7M64 132l899 0"/>
<path stroke="cyan" d="M451 135l45 0"/>
<text stroke="none" fill="white" font-size="16" x="506" y="144">
x1.x1.raw_bit13+24
</text>
<path stroke="cyan" d="M60 89l1 0 1 -2 0 -5 1 -4M63 79l0 -1M63 79l1 4M64 89l0 -6M64 89l899 0"/>
</svg>
