<?xml version="1.0" standalone="yes"?>
<!DOCTYPE svg PUBLIC "-//W3C//DTD SVG 1.1//EN"
 "http://www.w3.org/Graphics/SVG/1.1/DTD/svg11.dtd">
<svg xmlns="http://www.w3.org/2000/svg" version="1.1"
  width="100%" height="100%" viewBox="0 0 1024 768"
  style="fill: none; font-family: Helvetica;
 font: Helvetica;
">

<!-- Creator: NGspice -->

<rect x="0" y="0" width="1024" height="768" fill="black" stroke="none"/>
<text stroke="none" fill="white" font-size="16" x="358" y="752">
time
</text>
<text stroke="none" fill="white" font-size="16" x="10" y="16">
tran1: run777_vin-0.216651
</text>
<path stroke="white" d="M50 704l0 -637"/>
<text stroke="none" fill="white" font-size="16" x="35" y="728">
0.0
</text>
<path stroke="white" stroke-dasharray="1,2" d="M182 704l0 -637"/>
<text stroke="none" fill="white" font-size="16" x="157" y="728">
100.0
</text>
<path stroke="white" stroke-dasharray="1,2" d="M314 704l0 -637"/>
<text stroke="none" fill="white" font-size="16" x="289" y="728">
200.0
</text>
<path stroke="white" stroke-dasharray="1,2" d="M446 704l0 -637"/>
<text stroke="none" fill="white" font-size="16" x="421" y="728">
300.0
</text>
<path stroke="white" stroke-dasharray="1,2" d="M578 704l0 -637"/>
<text stroke="none" fill="white" font-size="16" x="553" y="728">
400.0
</text>
<path stroke="white" stroke-dasharray="1,2" d="M710 704l0 -637"/>
<text stroke="none" fill="white" font-size="16" x="685" y="728">
500.0
</text>
<path stroke="white" stroke-dasharray="1,2" d="M842 704l0 -637"/>
<text stroke="none" fill="white" font-size="16" x="817" y="728">
600.0
</text>
<path stroke="white" stroke-dasharray="1,2" d="M974 704l0 -637"/>
<text stroke="none" fill="white" font-size="16" x="949" y="728">
700.0
</text>
<text stroke="none" fill="white" font-size="16" x="614" y="752">
ns
</text>
<path stroke="white" stroke-dasharray="1,2" d="M50 704l924 0"/>
<text stroke="none" fill="white" font-size="16" x="8" y="712">
-3.0
</text>
<path stroke="white" stroke-dasharray="1,2" d="M50 613l924 0"/>
<text stroke="none" fill="white" font-size="16" x="8" y="621">
-2.0
</text>
<path stroke="white" stroke-dasharray="1,2" d="M50 522l924 0"/>
<text stroke="none" fill="white" font-size="16" x="8" y="530">
-1.0
</text>
<path stroke="white" d="M50 431l924 0"/>
<text stroke="none" fill="white" font-size="16" x="18" y="439">
0.0
</text>
<path stroke="white" stroke-dasharray="1,2" d="M50 340l924 0"/>
<text stroke="none" fill="white" font-size="16" x="18" y="348">
1.0
</text>
<path stroke="white" stroke-dasharray="1,2" d="M50 249l924 0"/>
<text stroke="none" fill="white" font-size="16" x="18" y="257">
2.0
</text>
<path stroke="white" stroke-dasharray="1,2" d="M50 158l924 0"/>
<text stroke="none" fill="white" font-size="16" x="18" y="166">
3.0
</text>
<path stroke="white" stroke-dasharray="1,2" d="M50 67l924 0"/>
<text stroke="none" fill="white" font-size="16" x="18" y="75">
4.0
</text>
<text stroke="none" fill="white" font-size="16" x="10" y="32">
     
</text>
<path stroke="red" d="M462 23l46 0"/>
<text stroke="none" fill="white" font-size="16" x="518" y="32">
x1.vsampled_p
</text>
<path stroke="red" d="M50 431l1 0 1 -7 0 -15 1 -14 0 -5 1 2M54 415l0 -39 1 -5 0 -14 1 -3 0 -2 1 -2 2 0 1 -1 4 0M64 350l0 -1M64 350l4 0 1 -1 48 0M117 352l0 -3M117 352l1 6M118 365l0 -7M118 365l1 2 2 2 425 0 0 -14 1 -6 0 -30 1 -5 0 -3 1 -2 0 -1"/>
<path stroke="red" d="M549 308l5 0 0 -1M554 308l13 0M567 309l0 -1 7 0M574 335l0 -27M574 335l1 4M575 350l0 -11M575 350l1 1 0 -1 1 -1 3 0 0 -1 13 0M593 349l0 -1M593 349l13 0 0 -1 1 0M607 349l0 -1M607 349l12 0 0 -1M619 349l1 0 0 -1M620 349l13 0"/>
<path stroke="red" d="M633 349l0 -1 13 0M646 349l0 -1M646 349l13 0 0 -1 1 0M660 349l0 -1M660 349l11 0 0 -1 1 0M672 349l0 -1 1 1 13 0 0 -1M686 349l12 0 0 -1M698 349l1 0 0 -1M699 349l13 0 0 -1M712 349l13 0 0 -1M725 349l13 0 0 -1 1 0M739 349l0 -1"/>
<path stroke="red" d="M739 349l12 0 0 -1M751 349l1 0 0 -1M752 349l13 0 0 -1M765 349l13 0 0 -1M778 349l8 0M786 350l0 -1 18 0M804 350l0 -1 27 0M831 350l0 -1 26 0M857 350l0 -1 26 0M883 350l0 -1 27 0M910 350l0 -1 7 0 0 -1 1 2M918 373l0 -23M918 373l1 -1"/>
<path stroke="red" d="M919 372l0 -2 1 -1 54 0"/>
<path stroke="blue" d="M50 23l46 0"/>
<text stroke="none" fill="white" font-size="16" x="106" y="32">
x1.vsampled_n
</text>
<path stroke="blue" d="M50 431l1 0 1 -7 0 -15 1 -15 0 -4 1 1M54 415l0 -39 1 -5 0 -14 1 -3 0 -2 1 -2 2 0 1 -1 4 0M64 350l0 -1M64 350l4 0 1 -1 48 0 1 -6 0 -9 2 -4 1 0 1 -1 417 0M539 330l0 -1M539 330l15 0 0 -1M554 330l12 0 0 -1M566 330l14 0 0 -1"/>
<path stroke="blue" d="M580 330l20 0M600 345l0 -15M600 345l1 2M601 353l0 -6M601 352l2 -2 23 0 0 -15 1 -2 0 -1 19 0M646 333l0 -1 7 0M653 342l0 -10M653 342l1 1M654 344l0 -1 1 0 1 -1 16 0M672 343l0 -1 7 0M679 347l0 -5M679 347l1 1M680 349l0 -1 6 0"/>
<path stroke="blue" d="M686 348l0 -1 12 0 1 1 0 -1M699 348l7 0M706 351l0 -4M706 351l1 0 0 -1 24 0 1 -2 0 -1M732 348l27 0M759 350l0 -2M759 349l54 0M813 350l0 -1 17 0 1 1 0 -1 86 0M917 350l0 -1 1 -3 0 -14 1 -1 0 -2 1 0 1 1 2 0 0 -1M923 330l27 0"/>
<path stroke="blue" d="M950 330l0 -1M950 330l11 0 0 -1 13 0"/>
<path stroke="#FFA500" d="M462 39l46 0"/>
<text stroke="none" fill="white" font-size="16" x="518" y="48">
x1.vsampled_p-x1.vsampled_n
</text>
<path stroke="#FFA500" d="M50 431l67 0M117 434l0 -3M117 434l1 12M118 462l0 -16M118 462l1 5 1 2M120 470l0 -1M120 470l426 0 0 -14 1 -6 0 -29 1 -6 0 -3 1 -1 0 -1 1 -1 17 0M567 410l0 -1 7 0M574 436l0 -27M574 436l1 4M575 452l0 -12M575 452l1 0 0 -1"/>
<path stroke="#FFA500" d="M576 451l1 0 0 -1 16 0 0 -1M593 450l7 0 0 -15 1 -2 0 -6M601 428l1 0M602 429l0 -1M602 429l2 0 1 1 1 0 0 -1 1 0M607 430l0 -1M607 430l12 0 0 -1 1 1 0 -1M620 430l6 0M626 445l0 -15M626 445l1 1M627 448l0 -2M627 448l2 0 0 -1"/>
<path stroke="#FFA500" d="M629 447l4 0M633 448l0 -1 13 0M646 448l0 -1 7 0 0 -10 1 -1 1 1 24 0 0 -5 1 0 0 -2M680 432l26 0 0 -3 2 0 1 1 3 0 0 -1M712 430l13 0 0 -1M725 430l6 0 1 1M732 433l0 -2M732 432l27 0 0 -2 19 0M778 431l0 -1 8 0M786 432l0 -2"/>
<path stroke="#FFA500" d="M786 431l27 0 0 -1M813 431l104 0 0 -2M917 430l1 5M918 471l0 -36M918 471l1 1 0 -1 1 0 1 -1 2 0M923 471l0 -1 27 0M950 471l0 -1 24 0"/>
<path stroke="green" d="M50 39l46 0"/>
<text stroke="none" fill="white" font-size="16" x="106" y="48">
x1.sw_sample-2
</text>
<path stroke="green" d="M50 613l1 0 1 -9 0 -21 1 -21M53 581l0 -25M53 581l1 29M54 613l0 -3M54 613l63 0M117 620l0 -172M117 449l422 0M539 614l0 -171M539 613l422 0M961 618l0 -170 1 1 12 0"/>
<path stroke="#FFC0C5" d="M462 55l46 0"/>
<text stroke="none" fill="white" font-size="16" x="518" y="64">
x1.comp_out_p+2
</text>
<path stroke="#FFC0C5" d="M50 249l1 0 1 -9 0 -22 1 -18 0 -4M53 198l1 5M54 249l0 -46M54 249l514 0M568 251l0 -168M568 85l13 0 0 -8 1 156M582 249l0 -16M582 249l39 0 0 -151 1 -14M622 85l0 -1M622 85l12 0M634 249l0 -172M634 249l93 0 0 -165M727 85l13 0"/>
<path stroke="#FFC0C5" d="M740 249l0 -174M740 249l40 0 0 -165M780 85l13 0M793 249l0 -166M793 249l41 0 0 -165M834 85l11 0M845 86l0 -3M845 86l1 149M846 249l0 -14M846 249l128 0"/>
<path stroke="#A52A2A" d="M50 55l46 0"/>
<text stroke="none" fill="white" font-size="16" x="106" y="64">
x1.comp_out_n-2
</text>
<path stroke="#A52A2A" d="M50 613l1 0 1 -9 0 -22 1 -19M53 564l0 -3M53 564l1 6M54 613l0 -43M54 613l488 0 0 -165M542 449l13 0M555 614l0 -167M555 613l39 0 0 -165M594 449l14 0M608 614l0 -174M608 613l39 0 0 -166M647 449l14 0M661 613l0 -172M661 613l12 0"/>
<path stroke="#A52A2A" d="M673 614l0 -1M673 614l1 -106 0 -61M674 449l13 0M687 613l0 -172M687 613l13 0 0 -165 1 1 12 0 0 -9 1 165M714 614l0 -9M714 613l39 0 0 -165M753 449l13 0M766 614l0 -170M766 613l41 0 0 -164 12 0M819 613l0 -170M819 613l41 0"/>
<path stroke="#A52A2A" d="M860 613l0 -164 12 0M872 613l0 -174M872 613l14 0 0 -158 1 -7M887 449l0 -1M887 449l11 0M898 613l0 -174M898 613l14 0 1 -158 0 -7M913 449l12 0M925 614l0 -173M925 613l12 0 1 -72 0 -94M938 449l13 0M951 614l0 -167M951 613l23 0"/>
</svg>
