<?xml version="1.0" standalone="yes"?>
<!DOCTYPE svg PUBLIC "-//W3C//DTD SVG 1.1//EN"
 "http://www.w3.org/Graphics/SVG/1.1/DTD/svg11.dtd">
<svg xmlns="http://www.w3.org/2000/svg" version="1.1"
  width="100%" height="100%" viewBox="0 0 1024 768"
  style="fill: none; font-family: Helvetica;
 font: Helvetica;
">

<!-- Creator: NGspice -->

<rect x="0" y="0" width="1024" height="768" fill="black" stroke="none"/>
<text stroke="none" fill="white" font-size="16" x="358" y="752">
time
</text>
<text stroke="none" fill="white" font-size="16" x="10" y="16">
tran1: run782_vin-0.212257
</text>
<path stroke="white" d="M50 704l0 -637"/>
<text stroke="none" fill="white" font-size="16" x="35" y="728">
0.0
</text>
<path stroke="white" stroke-dasharray="1,2" d="M182 704l0 -637"/>
<text stroke="none" fill="white" font-size="16" x="157" y="728">
100.0
</text>
<path stroke="white" stroke-dasharray="1,2" d="M314 704l0 -637"/>
<text stroke="none" fill="white" font-size="16" x="289" y="728">
200.0
</text>
<path stroke="white" stroke-dasharray="1,2" d="M446 704l0 -637"/>
<text stroke="none" fill="white" font-size="16" x="421" y="728">
300.0
</text>
<path stroke="white" stroke-dasharray="1,2" d="M578 704l0 -637"/>
<text stroke="none" fill="white" font-size="16" x="553" y="728">
400.0
</text>
<path stroke="white" stroke-dasharray="1,2" d="M710 704l0 -637"/>
<text stroke="none" fill="white" font-size="16" x="685" y="728">
500.0
</text>
<path stroke="white" stroke-dasharray="1,2" d="M842 704l0 -637"/>
<text stroke="none" fill="white" font-size="16" x="817" y="728">
600.0
</text>
<path stroke="white" stroke-dasharray="1,2" d="M974 704l0 -637"/>
<text stroke="none" fill="white" font-size="16" x="949" y="728">
700.0
</text>
<text stroke="none" fill="white" font-size="16" x="614" y="752">
ns
</text>
<path stroke="white" stroke-dasharray="1,2" d="M50 704l924 0"/>
<text stroke="none" fill="white" font-size="16" x="8" y="712">
-3.0
</text>
<path stroke="white" stroke-dasharray="1,2" d="M50 613l924 0"/>
<text stroke="none" fill="white" font-size="16" x="8" y="621">
-2.0
</text>
<path stroke="white" stroke-dasharray="1,2" d="M50 522l924 0"/>
<text stroke="none" fill="white" font-size="16" x="8" y="530">
-1.0
</text>
<path stroke="white" d="M50 431l924 0"/>
<text stroke="none" fill="white" font-size="16" x="18" y="439">
0.0
</text>
<path stroke="white" stroke-dasharray="1,2" d="M50 340l924 0"/>
<text stroke="none" fill="white" font-size="16" x="18" y="348">
1.0
</text>
<path stroke="white" stroke-dasharray="1,2" d="M50 249l924 0"/>
<text stroke="none" fill="white" font-size="16" x="18" y="257">
2.0
</text>
<path stroke="white" stroke-dasharray="1,2" d="M50 158l924 0"/>
<text stroke="none" fill="white" font-size="16" x="18" y="166">
3.0
</text>
<path stroke="white" stroke-dasharray="1,2" d="M50 67l924 0"/>
<text stroke="none" fill="white" font-size="16" x="18" y="75">
4.0
</text>
<text stroke="none" fill="white" font-size="16" x="10" y="32">
     
</text>
<path stroke="red" d="M462 23l46 0"/>
<text stroke="none" fill="white" font-size="16" x="518" y="32">
x1.vsampled_p
</text>
<path stroke="red" d="M50 431l1 0 1 -7 0 -15 1 -14 0 -5 1 2M54 415l0 -39 1 -5 0 -14 1 -3 0 -2 1 -2 2 0 1 -1 4 0M64 350l0 -1M64 350l4 0 1 -1 48 0M117 352l0 -3M117 352l1 6M118 364l0 -6M118 364l1 3 1 1 419 0M539 369l0 -1M539 369l1 0 1 -1M541 369l0 -1"/>
<path stroke="red" d="M541 369l5 0 0 -26 1 -3 0 -21 1 -5 0 -4 1 -1 0 -1 1 0 1 -1 15 0 1 1M567 309l0 -2 7 0M574 334l0 -27M574 334l1 5M575 350l0 -11M575 350l1 0 1 -1 0 -1 16 0M593 349l0 -1 26 0M619 349l0 -1 27 0M646 349l0 -1 26 0M672 349l0 -1 27 0"/>
<path stroke="red" d="M699 349l0 -1 26 0M725 349l0 -1 26 0M751 349l0 -1 8 0M759 351l0 -3M759 350l1 -1 18 0M778 350l0 -1 26 0M804 350l0 -1 26 0 1 1 0 -1 26 0M857 350l0 -1 26 0M883 350l0 -1 27 0M910 350l0 -1 7 0M917 350l0 -2 1 1M918 372l0 -23M918 372l1 0"/>
<path stroke="red" d="M919 372l0 -2 1 -1 3 0 0 -1M923 369l27 0 0 -1M950 369l11 0 0 -1 13 0"/>
<path stroke="blue" d="M50 23l46 0"/>
<text stroke="none" fill="white" font-size="16" x="106" y="32">
x1.vsampled_n
</text>
<path stroke="blue" d="M50 431l1 0 1 -7 0 -15 1 -15 0 -4 1 1M54 415l0 -39 1 -5 0 -14 1 -3 0 -2 1 -2 2 0 1 -1 4 0M64 350l0 -1M64 350l4 0 1 -1 48 0 1 -6 0 -9 1 -2 1 -1 0 -1 420 0M540 331l0 -1 14 0 0 -1M554 330l13 0M567 331l0 -1 26 0M593 331l0 -1"/>
<path stroke="blue" d="M593 330l7 0M600 347l0 -17M600 347l1 3M601 353l0 -3M601 352l1 0 0 -1 1 0 1 -1 15 0M619 351l0 -1M619 351l1 0 0 -1 6 0 0 -16 1 -1 0 -1 2 0 1 1 3 0 0 -1 1 0M634 333l0 -1M634 333l12 0 0 -1M646 333l7 0M653 341l0 -9M653 341l1 2"/>
<path stroke="blue" d="M654 344l0 -1 5 0 0 -1M659 343l20 0M679 348l0 -5M679 348l1 1M680 350l0 -2 26 0M706 351l0 -3M706 351l2 0 0 -1 17 0M725 351l0 -1 6 0 0 -1 1 -1 0 -1M732 348l19 0M751 349l0 -1 27 0M778 349l0 -1 7 0M785 349l0 -1M785 349l27 0"/>
<path stroke="blue" d="M812 350l0 -1 19 0M831 350l0 -1 86 0M917 351l0 -2M917 351l1 -3 0 -14 1 -2 0 -2 17 0M936 331l0 -1 38 0"/>
<path stroke="#FFA500" d="M462 39l46 0"/>
<text stroke="none" fill="white" font-size="16" x="518" y="48">
x1.vsampled_p-x1.vsampled_n
</text>
<path stroke="#FFA500" d="M50 431l67 0M117 434l0 -3M117 434l1 12M118 461l0 -15M118 461l1 5 1 2M120 469l0 -1M120 469l2 0M122 470l0 -1M122 470l418 0 0 -1M540 470l1 -1 5 0M546 470l0 -26 1 -3 0 -21 1 -5 0 -4 1 -1 0 -1 1 0 1 -1 15 0 1 1 0 -1 7 0M574 435l0 -27"/>
<path stroke="#FFA500" d="M574 435l1 4M575 451l0 -12M575 451l1 0 0 -1 1 0 0 -1 23 0 0 -17 1 -3 0 -3M601 427l2 2 23 0M626 445l0 -16M626 445l1 1M627 447l0 -1M627 447l19 0 0 -1M646 447l7 0 0 -9 1 -2 0 -1M654 436l18 0M672 437l0 -1 7 0 0 -5 1 -1M680 431l0 -1"/>
<path stroke="#FFA500" d="M680 431l26 0 0 -3 1 0M707 429l0 -1M707 429l24 0M731 430l0 -1M731 430l1 1M732 432l0 -1 27 0M759 434l0 -3M759 432l26 0 0 -1 1 0M786 432l0 -1M786 432l26 0 0 -1 105 0M917 432l0 -4 1 4M918 469l0 -37M918 469l1 2 1 -1 16 0"/>
<path stroke="#FFA500" d="M936 470l0 -1 14 0M950 470l0 -1M950 470l24 0"/>
<path stroke="green" d="M50 39l46 0"/>
<text stroke="none" fill="white" font-size="16" x="106" y="48">
x1.sw_sample-2
</text>
<path stroke="green" d="M50 613l1 0 1 -9 0 -21 1 -21M53 581l0 -25M53 581l1 29M54 613l0 -3M54 613l63 0M117 620l0 -172M117 449l422 0M539 614l0 -171M539 613l422 0M961 618l0 -170 1 1 12 0"/>
<path stroke="#FFC0C5" d="M462 55l46 0"/>
<text stroke="none" fill="white" font-size="16" x="518" y="64">
x1.comp_out_p+2
</text>
<path stroke="#FFC0C5" d="M50 249l1 0 1 -9 0 -22 1 -18 0 -4M53 198l1 5M54 249l0 -46M54 249l514 0 0 -165M568 85l13 0 0 -8 1 157M582 249l0 -15M582 249l39 0 0 -165M621 85l13 0M634 249l0 -172M634 249l93 0 0 -165M727 85l13 0M740 250l0 -170M740 249l13 0"/>
<path stroke="#FFC0C5" d="M753 249l0 -150 1 -14 0 -1M754 85l12 0M766 250l0 -173M766 249l94 0 0 -165 1 0M861 85l0 -1M861 85l11 0M872 249l0 -174M872 249l14 0 0 -157 1 -8M887 85l0 -1M887 85l11 0M898 249l0 -174M898 249l14 0 1 -157 0 -8M913 85l12 0"/>
<path stroke="#FFC0C5" d="M925 249l0 -173M925 249l49 0"/>
<path stroke="#A52A2A" d="M50 55l46 0"/>
<text stroke="none" fill="white" font-size="16" x="106" y="64">
x1.comp_out_n-2
</text>
<path stroke="#A52A2A" d="M50 613l1 0 1 -9 0 -22 1 -19M53 564l0 -3M53 564l1 6M54 613l0 -43M54 613l488 0M542 615l0 -168M542 449l13 0M555 614l0 -167M555 613l39 0M594 614l0 -167M594 449l14 0M608 613l0 -172M608 613l39 0M647 615l0 -168M647 449l14 0"/>
<path stroke="#A52A2A" d="M661 613l0 -171M661 613l12 0M673 615l0 -2M673 615l1 -122 0 -46M674 449l13 0M687 613l0 -173M687 613l13 0 1 -143 0 -22M701 449l12 0 0 -8 1 152M714 613l0 -20M714 613l65 0 1 -113 0 -52M780 449l13 0M793 613l0 -167M793 613l13 0"/>
<path stroke="#A52A2A" d="M806 613l1 -157 0 -8M807 449l12 0M819 613l0 -174M819 613l15 0 0 -164 11 0 0 -2M845 449l1 153M846 613l0 -11M846 613l91 0 1 -70 0 -96M938 449l13 0M951 614l0 -167M951 613l23 0"/>
</svg>
