<?xml version="1.0" standalone="yes"?>
<!DOCTYPE svg PUBLIC "-//W3C//DTD SVG 1.1//EN"
 "http://www.w3.org/Graphics/SVG/1.1/DTD/svg11.dtd">
<svg xmlns="http://www.w3.org/2000/svg" version="1.1"
  width="100%" height="100%" viewBox="0 0 1024 768"
  style="fill: none; font-family: Helvetica;
 font: Helvetica;
">

<!-- Creator: NGspice -->

<rect x="0" y="0" width="1024" height="768" fill="black" stroke="none"/>
<text stroke="none" fill="white" font-size="16" x="358" y="752">
time
</text>
<text stroke="none" fill="white" font-size="16" x="10" y="16">
tran1: run1495_vin0.414402
</text>
<path stroke="white" d="M50 704l0 -637"/>
<text stroke="none" fill="white" font-size="16" x="35" y="728">
0.0
</text>
<path stroke="white" stroke-dasharray="1,2" d="M182 704l0 -637"/>
<text stroke="none" fill="white" font-size="16" x="157" y="728">
100.0
</text>
<path stroke="white" stroke-dasharray="1,2" d="M314 704l0 -637"/>
<text stroke="none" fill="white" font-size="16" x="289" y="728">
200.0
</text>
<path stroke="white" stroke-dasharray="1,2" d="M446 704l0 -637"/>
<text stroke="none" fill="white" font-size="16" x="421" y="728">
300.0
</text>
<path stroke="white" stroke-dasharray="1,2" d="M578 704l0 -637"/>
<text stroke="none" fill="white" font-size="16" x="553" y="728">
400.0
</text>
<path stroke="white" stroke-dasharray="1,2" d="M710 704l0 -637"/>
<text stroke="none" fill="white" font-size="16" x="685" y="728">
500.0
</text>
<path stroke="white" stroke-dasharray="1,2" d="M842 704l0 -637"/>
<text stroke="none" fill="white" font-size="16" x="817" y="728">
600.0
</text>
<path stroke="white" stroke-dasharray="1,2" d="M974 704l0 -637"/>
<text stroke="none" fill="white" font-size="16" x="949" y="728">
700.0
</text>
<text stroke="none" fill="white" font-size="16" x="614" y="752">
ns
</text>
<path stroke="white" stroke-dasharray="1,2" d="M50 704l924 0"/>
<text stroke="none" fill="white" font-size="16" x="8" y="712">
-2.5
</text>
<path stroke="white" stroke-dasharray="1,2" d="M50 655l924 0"/>
<text stroke="none" fill="white" font-size="16" x="8" y="663">
-2.0
</text>
<path stroke="white" stroke-dasharray="1,2" d="M50 606l924 0"/>
<text stroke="none" fill="white" font-size="16" x="8" y="614">
-1.5
</text>
<path stroke="white" stroke-dasharray="1,2" d="M50 557l924 0"/>
<text stroke="none" fill="white" font-size="16" x="8" y="565">
-1.0
</text>
<path stroke="white" stroke-dasharray="1,2" d="M50 508l924 0"/>
<text stroke="none" fill="white" font-size="16" x="8" y="516">
-0.5
</text>
<path stroke="white" d="M50 459l924 0"/>
<text stroke="none" fill="white" font-size="16" x="18" y="467">
0.0
</text>
<path stroke="white" stroke-dasharray="1,2" d="M50 410l924 0"/>
<text stroke="none" fill="white" font-size="16" x="18" y="418">
0.5
</text>
<path stroke="white" stroke-dasharray="1,2" d="M50 361l924 0"/>
<text stroke="none" fill="white" font-size="16" x="18" y="369">
1.0
</text>
<path stroke="white" stroke-dasharray="1,2" d="M50 312l924 0"/>
<text stroke="none" fill="white" font-size="16" x="18" y="320">
1.5
</text>
<path stroke="white" stroke-dasharray="1,2" d="M50 263l924 0"/>
<text stroke="none" fill="white" font-size="16" x="18" y="271">
2.0
</text>
<path stroke="white" stroke-dasharray="1,2" d="M50 214l924 0"/>
<text stroke="none" fill="white" font-size="16" x="18" y="222">
2.5
</text>
<path stroke="white" stroke-dasharray="1,2" d="M50 165l924 0"/>
<text stroke="none" fill="white" font-size="16" x="18" y="173">
3.0
</text>
<path stroke="white" stroke-dasharray="1,2" d="M50 116l924 0"/>
<text stroke="none" fill="white" font-size="16" x="18" y="124">
3.5
</text>
<path stroke="white" stroke-dasharray="1,2" d="M50 67l924 0"/>
<text stroke="none" fill="white" font-size="16" x="18" y="75">
4.0
</text>
<text stroke="none" fill="white" font-size="16" x="10" y="32">
     
</text>
<path stroke="red" d="M462 23l46 0"/>
<text stroke="none" fill="white" font-size="16" x="518" y="32">
x1.vsampled_p
</text>
<path stroke="red" d="M50 459l1 0 1 -7 0 -17 1 -16 0 -4 1 1M54 441l0 -42 1 -6 0 -14 1 -3 0 -2 1 -2 1 0 0 -1 59 0 0 -1 1 -10 0 -18 1 -4 0 -3 1 -2 0 -1 2 -2 417 0M539 331l0 -1M539 331l1 0 0 -1M540 331l14 0 0 -1 12 0 1 1 7 0M574 354l0 -24M574 354l1 5"/>
<path stroke="red" d="M575 372l0 -13M575 372l1 1M576 375l0 -2M576 375l1 0 1 -1 15 0M593 375l0 -1 26 0M619 375l0 -1M619 375l1 0 0 -1 5 0 0 -5 1 -3 0 -9 2 -2 18 0M646 356l0 -1 7 0M653 364l0 -9M653 364l1 2M654 367l0 -1M654 367l1 -1 17 0M672 367l0 -1"/>
<path stroke="red" d="M672 366l7 0M679 370l0 -4M679 370l1 1M680 373l0 -2M680 372l51 0 0 -2 1 -1 19 0M751 370l0 -1M751 370l1 0 0 -1 7 0M759 372l0 -3M759 371l6 0 0 -1M765 371l26 0 0 -1M791 371l21 0 1 1 0 -1 105 0M918 373l0 -13 1 -2 0 -13 1 -5 0 -3"/>
<path stroke="red" d="M920 337l1 -3 0 -2 1 0 0 -1 1 0 0 -1 13 0M936 332l0 -2M936 331l14 0 0 -1 24 0"/>
<path stroke="blue" d="M50 23l46 0"/>
<text stroke="none" fill="white" font-size="16" x="106" y="32">
x1.vsampled_n
</text>
<path stroke="blue" d="M50 459l1 0 1 -7 0 -17 1 -15 0 -5 1 2M54 441l0 -42 1 -6 0 -14 1 -3 0 -2 1 -2 1 0 0 -1 59 0M117 379l0 -8M117 379l1 11M118 403l0 -13M118 403l1 3M119 408l0 -2M119 408l1 1M120 410l0 -1M120 410l1 1 418 0M539 412l0 -1M539 412l1 0"/>
<path stroke="blue" d="M540 412l1 -1M541 412l0 -1M541 412l5 0 0 -28 1 -3 0 -26 1 -2 0 -4 1 -2 0 -1 5 0 0 -1 12 0 1 1M567 347l0 -1 13 0 0 -1 13 0M593 347l0 -2M593 346l7 0M600 366l0 -21M600 366l1 3M601 374l0 -5M601 371l1 -1 0 -2 4 0 0 -1 1 0M607 368l0 -1"/>
<path stroke="blue" d="M607 368l12 0 0 -1M619 368l14 0 0 -1 13 0M646 368l0 -1M646 368l13 0 0 -1 1 0M660 368l0 -1 1 1 11 0 0 -1M672 368l14 0 0 -1M686 368l12 0 0 -1M698 368l8 0M706 372l0 -4M706 371l1 0 0 -1 18 0M725 371l0 -1 26 0M751 371l0 -1M751 371l1 0"/>
<path stroke="blue" d="M752 371l0 -1 26 0M778 371l0 -1 8 0M786 372l0 -2M786 371l53 0 0 -1M839 371l5 0 0 -1M844 371l26 0 0 -1 1 1 26 0 0 -1M897 371l21 0M918 389l0 -22M918 389l1 3M919 411l0 -19M919 411l1 2 1 0 0 -1 29 0 0 -1M950 412l11 0 0 -1 13 0"/>
<path stroke="#FFA500" d="M462 39l46 0"/>
<text stroke="none" fill="white" font-size="16" x="518" y="48">
x1.vsampled_p-x1.vsampled_n
</text>
<path stroke="#FFA500" d="M50 459l2 0 1 -1 1 0M54 459l0 -1M54 459l63 0 0 -9 1 -21 0 -31 1 -7 0 -5 1 -3 0 -2 1 -2 0 -1 419 0M540 379l0 -1 6 0M546 405l0 -27M546 405l1 4M547 435l0 -26M547 435l1 1M548 441l0 -5M548 441l1 1M549 443l0 -1M549 443l1 1"/>
<path stroke="#FFA500" d="M550 444l17 0 0 -1M567 444l7 0M574 467l0 -23M574 467l1 5M575 485l0 -13M575 485l1 1M576 488l0 -2M576 488l17 0 0 -1M593 488l7 0 0 -21 1 -2 0 -6M601 462l1 2M602 465l0 -1M602 465l1 1 22 0 0 -6 1 -3 0 -9 1 -1 19 0 0 -1M646 447l7 0"/>
<path stroke="#FFA500" d="M653 455l0 -8M653 455l1 2M654 458l0 -1M654 458l18 0 0 -1M672 458l7 0M679 462l0 -4M679 462l1 0M680 465l0 -3M680 463l26 0 0 -4 1 1 24 0 0 -1 1 -1 0 -1M732 458l27 0M759 460l0 -2M759 459l27 0 0 -1M786 459l26 0 1 1 0 -1 26 0"/>
<path stroke="#FFA500" d="M839 460l0 -1 79 0M918 463l0 -33 1 -5 0 -32 1 -8 0 -3 1 -2 0 -1 1 0 0 -1 14 0M936 379l0 -1 14 0 0 -1M950 378l24 0"/>
<path stroke="green" d="M50 39l46 0"/>
<text stroke="none" fill="white" font-size="16" x="106" y="48">
x1.sw_sample-2
</text>
<path stroke="green" d="M50 655l1 0 1 -10 0 -23 1 -21M53 620l0 -26M53 620l1 32M54 655l0 -3M54 655l63 0M117 662l0 -184 1 0M118 479l0 -1M118 479l421 0M539 656l0 -184M539 655l422 0M961 660l0 -182 1 0M962 479l0 -1M962 479l12 0"/>
<path stroke="#FFC0C5" d="M462 55l46 0"/>
<text stroke="none" fill="white" font-size="16" x="518" y="64">
x1.comp_out_p+2
</text>
<path stroke="#FFC0C5" d="M50 263l1 0 1 -10 0 -23 1 -20 0 -4M53 209l1 4M54 263l0 -50M54 263l488 0M542 270l0 -185M542 87l13 0M555 264l0 -186M555 263l13 0 0 -178M568 87l13 0 0 -10 1 173M582 264l0 -14M582 263l65 0 0 -178M647 87l14 0M661 263l0 -186"/>
<path stroke="#FFC0C5" d="M661 263l13 0M674 269l0 -184M674 87l13 0M687 264l0 -187M687 263l66 0 0 -178M753 86l1 0M754 87l0 -1M754 87l12 0M766 263l0 -179M766 263l41 0 0 -177M807 87l12 0M819 264l0 -184M819 263l15 0 1 -163 0 -14M835 87l10 0 0 -7"/>
<path stroke="#FFC0C5" d="M845 80l1 120M846 264l0 -64M846 263l91 0M937 264l0 -1M937 264l1 -53 0 -126M938 87l13 0M951 264l0 -183M951 263l23 0"/>
<path stroke="#A52A2A" d="M50 55l46 0"/>
<text stroke="none" fill="white" font-size="16" x="106" y="64">
x1.comp_out_n-2
</text>
<path stroke="#A52A2A" d="M50 655l1 0 1 -10 0 -24 1 -20M53 602l0 -3M53 602l1 7M54 655l0 -46M54 654l1 1 539 0 0 -178M594 478l1 1 13 0M608 655l0 -184M608 655l13 0M621 661l0 -185M621 479l13 0M634 655l0 -186M634 655l66 0 0 -178M700 479l13 0 1 -10"/>
<path stroke="#A52A2A" d="M714 656l0 -187M714 655l13 0 0 -177 1 0M728 479l0 -1M728 479l12 0M740 655l0 -186M740 655l40 0 0 -177 1 0M781 479l0 -1M781 479l12 0M793 655l0 -187M793 655l66 0 1 -170 0 -7M860 479l12 0M872 655l0 -188M872 655l14 0 0 -177"/>
<path stroke="#A52A2A" d="M886 478l1 1 11 0M898 655l0 -188M898 655l15 0 0 -177M913 479l12 0M925 655l0 -185M925 655l13 0M938 656l0 -1 36 0"/>
</svg>
