<?xml version="1.0" standalone="yes"?>
<!DOCTYPE svg PUBLIC "-//W3C//DTD SVG 1.1//EN"
 "http://www.w3.org/Graphics/SVG/1.1/DTD/svg11.dtd">
<svg xmlns="http://www.w3.org/2000/svg" version="1.1"
  width="100%" height="100%" viewBox="0 0 1024 768"
  style="fill: none; font-family: Helvetica;
 font: Helvetica;
">

<!-- Creator: NGspice -->

<rect x="0" y="0" width="1024" height="768" fill="black" stroke="none"/>
<text stroke="none" fill="white" font-size="16" x="358" y="752">
time
</text>
<text stroke="none" fill="white" font-size="16" x="10" y="16">
tran1: run1489_vin0.409129
</text>
<path stroke="white" d="M50 704l0 -637"/>
<text stroke="none" fill="white" font-size="16" x="35" y="728">
0.0
</text>
<path stroke="white" stroke-dasharray="1,2" d="M182 704l0 -637"/>
<text stroke="none" fill="white" font-size="16" x="157" y="728">
100.0
</text>
<path stroke="white" stroke-dasharray="1,2" d="M314 704l0 -637"/>
<text stroke="none" fill="white" font-size="16" x="289" y="728">
200.0
</text>
<path stroke="white" stroke-dasharray="1,2" d="M446 704l0 -637"/>
<text stroke="none" fill="white" font-size="16" x="421" y="728">
300.0
</text>
<path stroke="white" stroke-dasharray="1,2" d="M578 704l0 -637"/>
<text stroke="none" fill="white" font-size="16" x="553" y="728">
400.0
</text>
<path stroke="white" stroke-dasharray="1,2" d="M710 704l0 -637"/>
<text stroke="none" fill="white" font-size="16" x="685" y="728">
500.0
</text>
<path stroke="white" stroke-dasharray="1,2" d="M842 704l0 -637"/>
<text stroke="none" fill="white" font-size="16" x="817" y="728">
600.0
</text>
<path stroke="white" stroke-dasharray="1,2" d="M974 704l0 -637"/>
<text stroke="none" fill="white" font-size="16" x="949" y="728">
700.0
</text>
<text stroke="none" fill="white" font-size="16" x="614" y="752">
ns
</text>
<path stroke="white" stroke-dasharray="1,2" d="M50 704l924 0"/>
<text stroke="none" fill="white" font-size="16" x="8" y="712">
-3.0
</text>
<path stroke="white" stroke-dasharray="1,2" d="M50 613l924 0"/>
<text stroke="none" fill="white" font-size="16" x="8" y="621">
-2.0
</text>
<path stroke="white" stroke-dasharray="1,2" d="M50 522l924 0"/>
<text stroke="none" fill="white" font-size="16" x="8" y="530">
-1.0
</text>
<path stroke="white" d="M50 431l924 0"/>
<text stroke="none" fill="white" font-size="16" x="18" y="439">
0.0
</text>
<path stroke="white" stroke-dasharray="1,2" d="M50 340l924 0"/>
<text stroke="none" fill="white" font-size="16" x="18" y="348">
1.0
</text>
<path stroke="white" stroke-dasharray="1,2" d="M50 249l924 0"/>
<text stroke="none" fill="white" font-size="16" x="18" y="257">
2.0
</text>
<path stroke="white" stroke-dasharray="1,2" d="M50 158l924 0"/>
<text stroke="none" fill="white" font-size="16" x="18" y="166">
3.0
</text>
<path stroke="white" stroke-dasharray="1,2" d="M50 67l924 0"/>
<text stroke="none" fill="white" font-size="16" x="18" y="75">
4.0
</text>
<text stroke="none" fill="white" font-size="16" x="10" y="32">
     
</text>
<path stroke="red" d="M462 23l46 0"/>
<text stroke="none" fill="white" font-size="16" x="518" y="32">
x1.vsampled_p
</text>
<path stroke="red" d="M50 431l1 0 1 -7 0 -15 1 -15 0 -4 1 1M54 415l0 -40 1 -5 0 -13 1 -3 0 -2 2 -2 1 0 1 -1 4 0M64 350l0 -1M64 350l4 0 1 -1 48 0 0 -1 1 -9 0 -16 1 -4 0 -3 1 -2 0 -1 1 0 0 -1 419 0M540 313l0 -1 27 0M567 313l0 -1 7 0M574 337l0 -25"/>
<path stroke="red" d="M574 337l1 4M575 352l0 -11M575 352l1 1 49 0 0 -5 1 -3 0 -8 1 -1 0 -1 19 0M646 336l0 -1 7 0M653 343l0 -8M653 343l1 2M654 346l0 -1M654 346l1 -1 17 0M672 346l0 -1 7 0M679 349l0 -4M679 349l1 1M680 352l0 -2M680 351l1 -1 17 0"/>
<path stroke="red" d="M698 350l1 1 0 -1 26 0M725 351l0 -1 6 0 0 -2 20 0M751 349l0 -1 27 0M778 349l0 -1 7 0M785 349l0 -1M785 349l27 0M812 350l0 -1 106 0M918 350l0 -4 1 0 0 -13 1 -3 0 -8 1 -3 0 -4 1 0 0 -2 1 0 0 -1 13 0M936 313l0 -1 38 0"/>
<path stroke="blue" d="M50 23l46 0"/>
<text stroke="none" fill="white" font-size="16" x="106" y="32">
x1.vsampled_n
</text>
<path stroke="blue" d="M50 431l1 0 1 -7 0 -15 1 -14 0 -5 1 2M54 415l0 -40 1 -5 0 -13 1 -3 0 -2 2 -2 1 0 1 -1 4 0M64 350l0 -1M64 350l4 0 1 -1 48 0M117 356l0 -7M117 356l1 11M118 378l0 -11M118 378l1 3M119 383l0 -2M119 383l1 1M120 385l0 -1M120 385l1 1"/>
<path stroke="blue" d="M121 386l419 0M540 387l0 -1M540 387l1 -1 5 0M546 387l0 -18 1 -4 0 -30 1 -1 0 -6 2 -2 0 -1 4 0 0 -1M554 325l13 0M567 326l0 -1 26 0M593 326l0 -1 7 0M600 344l0 -19M600 344l1 3M601 352l0 -5M601 349l1 -1 0 -2 4 0 0 -1 1 0M607 346l0 -1"/>
<path stroke="blue" d="M607 346l26 0 0 -1M633 346l26 0 0 -1M659 346l27 0 0 -1M686 346l20 0M706 350l0 -4M706 349l1 -1 18 0M725 349l0 -1 26 0M751 349l0 -1 8 0M759 351l0 -3M759 350l1 0 0 -1 18 0M778 350l0 -1 26 0M804 350l0 -1 26 0 1 1 0 -1 26 0"/>
<path stroke="blue" d="M857 350l0 -1 26 0M883 350l0 -1 27 0M910 350l0 -1 8 0M918 356l0 -10M918 356l1 1M919 375l0 -18M919 375l1 5M920 388l0 -8M920 388l1 0 0 -1 2 0 0 -1 13 0M936 387l0 -1 38 0"/>
<path stroke="#FFA500" d="M462 39l46 0"/>
<text stroke="none" fill="white" font-size="16" x="518" y="48">
x1.vsampled_p-x1.vsampled_n
</text>
<path stroke="#FFA500" d="M50 431l2 0 1 -1 1 0M54 431l0 -1M54 431l63 0 0 -8 1 -19 0 -29 1 -6 0 -5 1 -3 0 -2 1 -1 0 -1 425 0M546 374l0 -17M546 374l1 5M547 408l0 -29M547 408l1 2M548 415l0 -5M548 415l1 2 1 0M550 418l0 -1M550 418l17 0 0 -1M567 418l7 0"/>
<path stroke="#FFA500" d="M574 442l0 -24M574 442l1 4M575 458l0 -12M575 458l1 0M576 459l0 -1M576 459l17 0 0 -1M593 459l7 0 0 -19 1 -3 0 -5M601 435l1 1M602 438l0 -2M602 438l4 0M606 439l0 -1M606 439l1 -1 18 0 0 -5 1 -3 0 -8 1 0 0 -1 6 0 0 -1M633 421l1 0"/>
<path stroke="#FFA500" d="M634 421l0 -1 12 0M646 421l0 -1M646 421l7 0M653 428l0 -8M653 428l1 2M654 431l0 -1M654 431l25 0M679 434l0 -3M679 434l1 1M680 437l0 -2M680 436l25 0 1 -1 0 -3M706 433l25 0 0 -3 1 0M732 431l0 -1M732 431l27 0 0 -3M759 430l26 0"/>
<path stroke="#FFA500" d="M785 431l0 -1M785 431l1 0 0 -1 26 0M812 431l0 -1M812 431l106 0M918 435l0 -13 1 -2 0 -31 1 -9 0 -14 1 -4 0 -4 1 0 0 -1 1 0 0 -1M923 357l13 0M936 358l0 -1 14 0 0 -1M950 357l24 0"/>
<path stroke="green" d="M50 39l46 0"/>
<text stroke="none" fill="white" font-size="16" x="106" y="48">
x1.sw_sample-2
</text>
<path stroke="green" d="M50 613l1 0 1 -9 0 -21 1 -21M53 580l0 -24M53 580l1 30M54 613l0 -3M54 613l63 0M117 620l0 -172M117 449l422 0M539 614l0 -171M539 613l422 0M961 618l0 -170 1 1 12 0"/>
<path stroke="#FFC0C5" d="M462 55l46 0"/>
<text stroke="none" fill="white" font-size="16" x="518" y="64">
x1.comp_out_p+2
</text>
<path stroke="#FFC0C5" d="M50 249l1 0 1 -9 0 -22 1 -18 0 -4M53 198l1 5M54 249l0 -46M54 249l488 0M542 252l0 -168M542 85l13 0M555 250l0 -172M555 249l13 0M568 250l0 -167M568 85l13 0 0 -9 1 162M582 250l0 -12M582 249l65 0M647 250l0 -166M647 85l14 0"/>
<path stroke="#FFC0C5" d="M661 249l0 -173M661 249l13 0M674 250l0 -167M674 85l13 0M687 250l0 -171M687 249l92 0 1 -146 0 -19M780 85l13 0M793 250l0 -168M793 249l14 0 0 -165M807 85l12 0M819 250l0 -174M819 249l14 0 1 -157 0 -8M834 85l11 0 0 -7 1 146"/>
<path stroke="#FFC0C5" d="M846 249l0 -25M846 249l41 0 0 -164 1 -1M888 85l0 -1M888 85l10 0M898 249l0 -171M898 249l39 0M937 250l0 -1M937 250l1 -56 0 -110M938 85l13 0M951 250l0 -171M951 249l23 0"/>
<path stroke="#A52A2A" d="M50 55l46 0"/>
<text stroke="none" fill="white" font-size="16" x="106" y="64">
x1.comp_out_n-2
</text>
<path stroke="#A52A2A" d="M50 613l1 0 1 -9 0 -22 1 -19M53 564l0 -3M53 564l1 6M54 613l0 -43M54 612l1 1 539 0M594 618l0 -171M594 449l14 0M608 613l0 -171M608 613l13 0M621 620l0 -173M621 449l13 0M634 613l0 -172M634 613l13 0M647 614l0 -1 53 0M700 614l0 -167"/>
<path stroke="#A52A2A" d="M700 449l13 0 0 -8 1 156M714 613l0 -16M714 613l13 0 0 -165M727 449l13 0M740 614l0 -170M740 613l13 0 0 -152 1 -13M754 449l0 -1M754 449l12 0M766 613l0 -173M766 613l94 0 0 -164 12 0M872 613l0 -173M872 613l41 0 0 -165M913 449l12 0"/>
<path stroke="#A52A2A" d="M925 613l0 -172M925 613l13 0M938 614l0 -1 36 0"/>
</svg>
