<?xml version="1.0" standalone="yes"?>
<!DOCTYPE svg PUBLIC "-//W3C//DTD SVG 1.1//EN"
 "http://www.w3.org/Graphics/SVG/1.1/DTD/svg11.dtd">
<svg xmlns="http://www.w3.org/2000/svg" version="1.1"
  width="100%" height="100%" viewBox="0 0 1024 768"
  style="fill: none; font-family: Helvetica;
 font: Helvetica;
">

<!-- Creator: NGspice -->

<rect x="0" y="0" width="1024" height="768" fill="black" stroke="none"/>
<text stroke="none" fill="white" font-size="16" x="358" y="752">
time
</text>
<text stroke="none" fill="white" font-size="16" x="10" y="16">
tran1: run1492_vin0.411766
</text>
<path stroke="white" d="M50 704l0 -637"/>
<text stroke="none" fill="white" font-size="16" x="35" y="728">
0.0
</text>
<path stroke="white" stroke-dasharray="1,2" d="M182 704l0 -637"/>
<text stroke="none" fill="white" font-size="16" x="157" y="728">
100.0
</text>
<path stroke="white" stroke-dasharray="1,2" d="M314 704l0 -637"/>
<text stroke="none" fill="white" font-size="16" x="289" y="728">
200.0
</text>
<path stroke="white" stroke-dasharray="1,2" d="M446 704l0 -637"/>
<text stroke="none" fill="white" font-size="16" x="421" y="728">
300.0
</text>
<path stroke="white" stroke-dasharray="1,2" d="M578 704l0 -637"/>
<text stroke="none" fill="white" font-size="16" x="553" y="728">
400.0
</text>
<path stroke="white" stroke-dasharray="1,2" d="M710 704l0 -637"/>
<text stroke="none" fill="white" font-size="16" x="685" y="728">
500.0
</text>
<path stroke="white" stroke-dasharray="1,2" d="M842 704l0 -637"/>
<text stroke="none" fill="white" font-size="16" x="817" y="728">
600.0
</text>
<path stroke="white" stroke-dasharray="1,2" d="M974 704l0 -637"/>
<text stroke="none" fill="white" font-size="16" x="949" y="728">
700.0
</text>
<text stroke="none" fill="white" font-size="16" x="614" y="752">
ns
</text>
<path stroke="white" stroke-dasharray="1,2" d="M50 704l924 0"/>
<text stroke="none" fill="white" font-size="16" x="8" y="712">
-3.0
</text>
<path stroke="white" stroke-dasharray="1,2" d="M50 613l924 0"/>
<text stroke="none" fill="white" font-size="16" x="8" y="621">
-2.0
</text>
<path stroke="white" stroke-dasharray="1,2" d="M50 522l924 0"/>
<text stroke="none" fill="white" font-size="16" x="8" y="530">
-1.0
</text>
<path stroke="white" d="M50 431l924 0"/>
<text stroke="none" fill="white" font-size="16" x="18" y="439">
0.0
</text>
<path stroke="white" stroke-dasharray="1,2" d="M50 340l924 0"/>
<text stroke="none" fill="white" font-size="16" x="18" y="348">
1.0
</text>
<path stroke="white" stroke-dasharray="1,2" d="M50 249l924 0"/>
<text stroke="none" fill="white" font-size="16" x="18" y="257">
2.0
</text>
<path stroke="white" stroke-dasharray="1,2" d="M50 158l924 0"/>
<text stroke="none" fill="white" font-size="16" x="18" y="166">
3.0
</text>
<path stroke="white" stroke-dasharray="1,2" d="M50 67l924 0"/>
<text stroke="none" fill="white" font-size="16" x="18" y="75">
4.0
</text>
<text stroke="none" fill="white" font-size="16" x="10" y="32">
     
</text>
<path stroke="red" d="M462 23l46 0"/>
<text stroke="none" fill="white" font-size="16" x="518" y="32">
x1.vsampled_p
</text>
<path stroke="red" d="M50 431l1 0 1 -7 0 -15 1 -15 0 -4 1 1M54 415l0 -40 1 -5 0 -13 1 -3 0 -2 2 -2 1 0 1 -1 4 0M64 350l0 -1M64 350l4 0 1 -1 48 0 0 -1 1 -9 0 -16 1 -4 0 -3 1 -2 0 -1 1 -1 419 0M540 313l0 -1 14 0 0 -1M554 312l13 0M567 313l0 -1 7 0"/>
<path stroke="red" d="M574 336l0 -24M574 336l1 4M575 351l0 -11M575 351l1 1M576 353l0 -1M576 353l49 0 0 -9 1 -1 0 -6 1 -1 0 -1 26 0M653 344l0 -9M653 344l1 1M654 346l0 -1 25 0M679 349l0 -4M679 349l1 1M680 352l0 -2 19 0M699 351l0 -1 26 0M725 351l0 -1"/>
<path stroke="red" d="M725 350l6 0 0 -1 1 -1 0 -1M732 348l27 0M759 350l0 -2M759 349l19 0M778 350l0 -1 26 0M804 350l0 -1 27 0M831 350l0 -1 26 0M857 350l0 -1 26 0M883 350l0 -1 27 0M910 350l0 -1 8 0M918 352l0 -10 1 -1 0 -14 1 -4 0 -3 1 -3 0 -3 1 0"/>
<path stroke="red" d="M922 314l0 -1 1 -1 13 0M936 313l0 -1 14 0 0 -1M950 312l24 0"/>
<path stroke="blue" d="M50 23l46 0"/>
<text stroke="none" fill="white" font-size="16" x="106" y="32">
x1.vsampled_n
</text>
<path stroke="blue" d="M50 431l1 0 1 -7 0 -15 1 -14 0 -5 1 2M54 415l0 -40 1 -5 0 -13 1 -3 0 -2 2 -2 1 0 1 -1 4 0M64 350l0 -1M64 350l4 0 1 -1 48 0M117 356l0 -7M117 356l1 11M118 379l0 -12M118 379l1 2M119 383l0 -2M119 383l1 2 1 1 1 0 1 1 423 0 0 -17"/>
<path stroke="blue" d="M546 370l1 -5 0 -30 1 -1 0 -6 2 -2 1 0 1 -1 14 0 1 1M567 327l0 -2 26 0M593 326l0 -1M593 326l1 0 0 -1 6 0M600 342l0 -17M600 342l1 2M601 352l0 -8M601 351l1 -2 0 -3 31 0 0 -1M633 346l72 0 1 1M706 350l0 -3M706 349l1 0 0 -1"/>
<path stroke="blue" d="M707 348l18 0M725 349l0 -1 26 0M751 349l0 -1M751 349l1 0 0 -1 26 0M778 349l0 -1 7 0M785 350l0 -2M785 350l1 0 0 -1 26 0M812 350l0 -1M812 350l1 0 0 -1 17 0 1 1 0 -1 87 0M918 362l0 -16M918 362l1 2M919 383l0 -19M919 383l1 4"/>
<path stroke="blue" d="M920 388l0 -1M920 388l1 0 0 -1 41 0 0 -1M962 387l12 0"/>
<path stroke="#FFA500" d="M462 39l46 0"/>
<text stroke="none" fill="white" font-size="16" x="518" y="48">
x1.vsampled_p-x1.vsampled_n
</text>
<path stroke="#FFA500" d="M50 431l2 0 1 -1 1 0M54 431l0 -1M54 431l63 0 0 -8 1 -20 0 -28 1 -7 0 -4 1 -3 0 -2 1 -2 1 -1 418 0M540 357l0 -1 6 0M546 373l0 -17M546 373l1 5M547 408l0 -30M547 408l1 1M548 415l0 -6M548 415l2 2 4 0M554 418l0 -1 12 0 1 1"/>
<path stroke="#FFA500" d="M567 418l0 -1 7 0M574 441l0 -24M574 441l1 4M575 457l0 -12M575 457l1 1 4 0M580 459l0 -1 13 0 0 -1M593 458l7 0M600 459l0 -17 1 -3 0 -7M601 433l1 2M602 437l0 -2M602 437l1 1 22 0 0 -9 1 -1 0 -6 1 -1 0 -1 26 0M653 430l0 -10"/>
<path stroke="#FFA500" d="M653 430l1 1 1 -1 24 0M679 434l0 -4M679 434l1 1M680 437l0 -2 25 0 1 -1 0 -3M706 432l1 0M707 433l0 -1M707 433l24 0 0 -1 1 -2M732 431l0 -1M732 431l19 0 0 -1 1 0M752 431l0 -1M752 431l7 0M759 433l0 -2M759 432l26 0 0 -1 1 -1"/>
<path stroke="#FFA500" d="M786 431l0 -1M786 431l26 0 0 -1 1 1 25 0M838 432l0 -1 80 0M918 437l0 -26 1 -3 0 -33 1 -8 0 -5 1 -2 0 -3 2 0 0 -1 13 0M936 357l0 -1 38 0"/>
<path stroke="green" d="M50 39l46 0"/>
<text stroke="none" fill="white" font-size="16" x="106" y="48">
x1.sw_sample-2
</text>
<path stroke="green" d="M50 613l1 0 1 -9 0 -21 1 -21M53 580l0 -24M53 580l1 30M54 613l0 -3M54 613l63 0M117 620l0 -172M117 449l422 0M539 614l0 -171M539 613l422 0M961 618l0 -170 1 1 12 0"/>
<path stroke="#FFC0C5" d="M462 55l46 0"/>
<text stroke="none" fill="white" font-size="16" x="518" y="64">
x1.comp_out_p+2
</text>
<path stroke="#FFC0C5" d="M50 249l1 0 1 -9 0 -22 1 -18 0 -4M53 198l1 5M54 249l0 -46M54 249l487 0 1 1 0 -166M542 85l13 0M555 249l0 -166M555 249l13 0 0 -166M568 85l13 0 0 -9 1 162M582 249l0 -11M582 249l65 0 0 -166M647 85l14 0M661 250l0 -174M661 249l13 0"/>
<path stroke="#FFC0C5" d="M674 249l0 -166M674 85l13 0M687 249l0 -172M687 249l66 0 0 -164 1 -1M754 85l0 -1M754 85l12 0M766 250l0 -170M766 249l68 0 0 -165M834 85l11 0 0 -10 1 143M846 249l0 -31M846 249l91 0M937 250l0 -1M937 250l1 -50 0 -116M938 85l13 0"/>
<path stroke="#FFC0C5" d="M951 250l0 -171M951 249l23 0"/>
<path stroke="#A52A2A" d="M50 55l46 0"/>
<text stroke="none" fill="white" font-size="16" x="106" y="64">
x1.comp_out_n-2
</text>
<path stroke="#A52A2A" d="M50 613l1 0 1 -9 0 -22 1 -19M53 564l0 -3M53 564l1 6M54 613l0 -43M54 612l1 1 539 0M594 615l0 -168M594 449l14 0M608 614l0 -171M608 613l13 0M621 618l0 -171M621 449l13 0M634 613l0 -172M634 613l66 0M700 618l0 -171M700 449l13 0"/>
<path stroke="#A52A2A" d="M713 449l0 -9 1 164M714 613l0 -9M714 613l13 0 0 -165M727 449l13 0M740 614l0 -174M740 613l40 0 0 -165M780 449l13 0M793 613l0 -174M793 613l14 0 0 -165 1 1 11 0M819 613l0 -171M819 613l41 0 0 -164 12 0M872 613l0 -174M872 613l14 0"/>
<path stroke="#A52A2A" d="M886 613l0 -158 1 -7M887 449l0 -1M887 449l11 0M898 613l0 -174M898 613l15 0 0 -165M913 449l12 0M925 613l0 -172M925 613l13 0M938 614l0 -1 36 0"/>
</svg>
