<?xml version="1.0" standalone="yes"?>
<!DOCTYPE svg PUBLIC "-//W3C//DTD SVG 1.1//EN"
 "http://www.w3.org/Graphics/SVG/1.1/DTD/svg11.dtd">
<svg xmlns="http://www.w3.org/2000/svg" version="1.1"
  width="100%" height="100%" viewBox="0 0 1024 768"
  style="fill: none; font-family: Helvetica;
 font: Helvetica;
">

<!-- Creator: NGspice -->

<rect x="0" y="0" width="1024" height="768" fill="black" stroke="none"/>
<text stroke="none" fill="white" font-size="16" x="358" y="752">
time
</text>
<text stroke="none" fill="white" font-size="16" x="10" y="16">
tran1: run1493_vin0.412645
</text>
<path stroke="white" d="M50 704l0 -637"/>
<text stroke="none" fill="white" font-size="16" x="35" y="728">
0.0
</text>
<path stroke="white" stroke-dasharray="1,2" d="M182 704l0 -637"/>
<text stroke="none" fill="white" font-size="16" x="157" y="728">
100.0
</text>
<path stroke="white" stroke-dasharray="1,2" d="M314 704l0 -637"/>
<text stroke="none" fill="white" font-size="16" x="289" y="728">
200.0
</text>
<path stroke="white" stroke-dasharray="1,2" d="M446 704l0 -637"/>
<text stroke="none" fill="white" font-size="16" x="421" y="728">
300.0
</text>
<path stroke="white" stroke-dasharray="1,2" d="M578 704l0 -637"/>
<text stroke="none" fill="white" font-size="16" x="553" y="728">
400.0
</text>
<path stroke="white" stroke-dasharray="1,2" d="M710 704l0 -637"/>
<text stroke="none" fill="white" font-size="16" x="685" y="728">
500.0
</text>
<path stroke="white" stroke-dasharray="1,2" d="M842 704l0 -637"/>
<text stroke="none" fill="white" font-size="16" x="817" y="728">
600.0
</text>
<path stroke="white" stroke-dasharray="1,2" d="M974 704l0 -637"/>
<text stroke="none" fill="white" font-size="16" x="949" y="728">
700.0
</text>
<text stroke="none" fill="white" font-size="16" x="614" y="752">
ns
</text>
<path stroke="white" stroke-dasharray="1,2" d="M50 704l924 0"/>
<text stroke="none" fill="white" font-size="16" x="8" y="712">
-3.0
</text>
<path stroke="white" stroke-dasharray="1,2" d="M50 613l924 0"/>
<text stroke="none" fill="white" font-size="16" x="8" y="621">
-2.0
</text>
<path stroke="white" stroke-dasharray="1,2" d="M50 522l924 0"/>
<text stroke="none" fill="white" font-size="16" x="8" y="530">
-1.0
</text>
<path stroke="white" d="M50 431l924 0"/>
<text stroke="none" fill="white" font-size="16" x="18" y="439">
0.0
</text>
<path stroke="white" stroke-dasharray="1,2" d="M50 340l924 0"/>
<text stroke="none" fill="white" font-size="16" x="18" y="348">
1.0
</text>
<path stroke="white" stroke-dasharray="1,2" d="M50 249l924 0"/>
<text stroke="none" fill="white" font-size="16" x="18" y="257">
2.0
</text>
<path stroke="white" stroke-dasharray="1,2" d="M50 158l924 0"/>
<text stroke="none" fill="white" font-size="16" x="18" y="166">
3.0
</text>
<path stroke="white" stroke-dasharray="1,2" d="M50 67l924 0"/>
<text stroke="none" fill="white" font-size="16" x="18" y="75">
4.0
</text>
<text stroke="none" fill="white" font-size="16" x="10" y="32">
     
</text>
<path stroke="red" d="M462 23l46 0"/>
<text stroke="none" fill="white" font-size="16" x="518" y="32">
x1.vsampled_p
</text>
<path stroke="red" d="M50 431l1 0 1 -7 0 -15 1 -15 0 -4 1 1M54 415l0 -40 1 -5 0 -13 1 -3 0 -2 2 -2 1 0 1 -1 4 0M64 350l0 -1M64 350l4 0 1 -1 48 0 0 -1 1 -9 0 -17 1 -3 0 -3 1 -2 0 -1 1 -1 419 0M540 313l0 -1 14 0 0 -1M554 312l13 0M567 313l0 -1 7 0"/>
<path stroke="red" d="M574 337l0 -25M574 337l1 4M575 351l0 -10M575 351l1 1M576 353l0 -1M576 353l4 0 0 -1M580 353l45 0 0 -4 1 -4 0 -8 1 -1 0 -1 6 0 0 -1M633 335l20 0M653 343l0 -8M653 343l1 2M654 346l0 -1 25 0M679 350l0 -5M679 350l1 0M680 352l0 -2"/>
<path stroke="red" d="M680 350l51 0 0 -2 1 -1M732 348l0 -1M732 348l27 0M759 350l0 -2M759 350l1 -1 54 0M814 350l0 -1 16 0 1 1 0 -1 88 0M919 352l0 -8 1 -1 0 -14 1 -3 0 -8 1 0 0 -4 1 0 0 -2 13 0M936 313l0 -1 14 0 0 -1M950 312l12 0 0 -1 1 0M963 312l0 -1"/>
<path stroke="red" d="M963 312l11 0"/>
<path stroke="blue" d="M50 23l46 0"/>
<text stroke="none" fill="white" font-size="16" x="106" y="32">
x1.vsampled_n
</text>
<path stroke="blue" d="M50 431l1 0 1 -7 0 -15 1 -14 0 -5 1 2M54 415l0 -40 1 -5 0 -13 1 -3 0 -2 2 -2 1 0 1 -1 4 0M64 350l0 -1M64 350l4 0 1 -1 48 0M117 356l0 -7M117 356l1 11M118 379l0 -12M118 379l1 3M119 383l0 -1M119 383l1 2M120 386l0 -1M120 386l1 0"/>
<path stroke="blue" d="M121 386l1 1 424 0 0 -20 1 -3 0 -28 1 -1 0 -5 1 -2 0 -2 5 0 0 -1 12 0 1 1M567 327l0 -1 13 0 0 -1 13 0M593 327l0 -2M593 326l7 0M600 345l0 -19M600 345l1 2M601 352l0 -5M601 349l1 -1 0 -2 104 0M706 350l0 -4M706 349l6 0 0 -1"/>
<path stroke="blue" d="M712 348l13 0M725 349l0 -1M725 349l6 0 0 -1 1 0M732 349l0 -1M732 349l6 0 0 -1 13 0M751 349l0 -1M751 349l1 0 0 -1M752 349l13 0 0 -1 13 0M778 349l0 -1M778 349l7 0M785 350l0 -1M785 350l1 0 0 -1 18 0M804 350l0 -1 27 0M831 350l0 -1"/>
<path stroke="blue" d="M831 349l26 0M857 350l0 -1 26 0M883 350l0 -1 27 0M910 350l0 -1 9 0M919 358l0 -12M919 358l1 2M920 381l0 -21M920 381l1 4M921 389l0 -4M921 388l1 0 0 -1 52 0"/>
<path stroke="#FFA500" d="M462 39l46 0"/>
<text stroke="none" fill="white" font-size="16" x="518" y="48">
x1.vsampled_p-x1.vsampled_n
</text>
<path stroke="#FFA500" d="M50 431l2 0 1 -1 1 0M54 431l0 -1M54 431l63 0 0 -8 1 -20 0 -28 1 -7 0 -4 1 -3 0 -3 1 -1 0 -1 419 0M540 357l0 -1 6 0M546 376l0 -20M546 376l1 3M547 407l0 -28M547 407l1 1M548 413l0 -5M548 413l1 2M549 416l0 -1M549 416l1 1"/>
<path stroke="#FFA500" d="M550 417l4 0M554 418l0 -1 13 0M567 418l0 -1 7 0M574 443l0 -26M574 443l1 4M575 457l0 -10M575 457l1 1 4 0M580 459l0 -1 13 0 0 -1M593 458l7 0 0 -19 1 -2 0 -5M601 434l1 2M602 437l0 -1M602 437l1 1 22 0 0 -4 1 -4 0 -8 1 -1"/>
<path stroke="#FFA500" d="M627 421l0 -1 26 0M653 428l0 -8M653 428l1 2M654 431l0 -1 25 0M679 435l0 -5M679 435l1 0M680 437l0 -2 26 0 0 -4M706 432l1 0M707 433l0 -1M707 433l24 0 0 -3 28 0M759 433l0 -3M759 432l26 0 0 -1 1 -1M786 431l0 -1M786 431l28 0"/>
<path stroke="#FFA500" d="M814 432l0 -1 105 0M919 436l0 -19 1 -3 0 -35 1 -7 0 -11 1 0 0 -3 1 -1 0 -1 13 0M936 357l0 -1 38 0"/>
<path stroke="green" d="M50 39l46 0"/>
<text stroke="none" fill="white" font-size="16" x="106" y="48">
x1.sw_sample-2
</text>
<path stroke="green" d="M50 613l1 0 1 -9 0 -21 1 -21M53 580l0 -24M53 580l1 30M54 613l0 -3M54 613l63 0M117 620l0 -172M117 449l422 0M539 614l0 -171M539 613l422 0M961 618l0 -170 1 1 12 0"/>
<path stroke="#FFC0C5" d="M462 55l46 0"/>
<text stroke="none" fill="white" font-size="16" x="518" y="64">
x1.comp_out_p+2
</text>
<path stroke="#FFC0C5" d="M50 249l1 0 1 -9 0 -22 1 -18 0 -4M53 198l1 5M54 249l0 -46M54 249l487 0 1 1 0 -166M542 85l13 0M555 249l0 -166M555 249l13 0 0 -166M568 85l13 0 0 -9 1 162M582 249l0 -11M582 249l65 0 0 -165M647 85l14 0M661 250l0 -173M661 249l13 0"/>
<path stroke="#FFC0C5" d="M674 253l0 -170M674 85l13 0M687 249l0 -172M687 249l66 0M753 251l0 -166 1 -1M754 85l0 -1M754 85l12 0M766 249l0 -171M766 249l42 0 0 -165 1 1 10 0M819 249l0 -174M819 249l118 0M937 250l0 -1M937 250l1 -49 0 -117M938 85l13 0"/>
<path stroke="#FFC0C5" d="M951 250l0 -170M951 249l23 0"/>
<path stroke="#A52A2A" d="M50 55l46 0"/>
<text stroke="none" fill="white" font-size="16" x="106" y="64">
x1.comp_out_n-2
</text>
<path stroke="#A52A2A" d="M50 613l1 0 1 -9 0 -22 1 -19M53 564l0 -3M53 564l1 6M54 613l0 -43M54 612l1 1 539 0M594 614l0 -167M594 448l1 1 13 0M608 614l0 -169M608 613l13 0M621 619l0 -172M621 449l13 0M634 613l0 -172M634 613l66 0M700 617l0 -170M700 449l13 0"/>
<path stroke="#A52A2A" d="M713 449l0 -9 1 164M714 613l0 -9M714 613l13 0 0 -165M727 449l13 0M740 614l0 -171M740 613l40 0 0 -165M780 449l13 0M793 613l0 -173M793 613l40 0 1 -155 0 -9 11 0 0 -9 1 158M846 613l0 -15M846 613l15 0 0 -164 11 0M872 613l0 -173"/>
<path stroke="#A52A2A" d="M872 613l15 0 1 -156 0 -8 10 0M898 613l0 -173M898 613l16 0 0 -165M914 449l11 0M925 613l0 -173M925 613l13 0M938 614l0 -1 36 0"/>
</svg>
