<?xml version="1.0" standalone="yes"?>
<!DOCTYPE svg PUBLIC "-//W3C//DTD SVG 1.1//EN"
 "http://www.w3.org/Graphics/SVG/1.1/DTD/svg11.dtd">
<svg xmlns="http://www.w3.org/2000/svg" version="1.1"
  width="100%" height="100%" viewBox="0 0 1024 768"
  style="fill: none; font-family: Helvetica;
 font: Helvetica;
">

<!-- Creator: NGspice -->

<rect x="0" y="0" width="1024" height="768" fill="black" stroke="none"/>
<text stroke="none" fill="white" font-size="16" x="358" y="752">
time
</text>
<text stroke="none" fill="white" font-size="16" x="10" y="16">
tran1: run1491_vin0.410887
</text>
<path stroke="white" d="M50 704l0 -637"/>
<text stroke="none" fill="white" font-size="16" x="35" y="728">
0.0
</text>
<path stroke="white" stroke-dasharray="1,2" d="M182 704l0 -637"/>
<text stroke="none" fill="white" font-size="16" x="157" y="728">
100.0
</text>
<path stroke="white" stroke-dasharray="1,2" d="M314 704l0 -637"/>
<text stroke="none" fill="white" font-size="16" x="289" y="728">
200.0
</text>
<path stroke="white" stroke-dasharray="1,2" d="M446 704l0 -637"/>
<text stroke="none" fill="white" font-size="16" x="421" y="728">
300.0
</text>
<path stroke="white" stroke-dasharray="1,2" d="M578 704l0 -637"/>
<text stroke="none" fill="white" font-size="16" x="553" y="728">
400.0
</text>
<path stroke="white" stroke-dasharray="1,2" d="M710 704l0 -637"/>
<text stroke="none" fill="white" font-size="16" x="685" y="728">
500.0
</text>
<path stroke="white" stroke-dasharray="1,2" d="M842 704l0 -637"/>
<text stroke="none" fill="white" font-size="16" x="817" y="728">
600.0
</text>
<path stroke="white" stroke-dasharray="1,2" d="M974 704l0 -637"/>
<text stroke="none" fill="white" font-size="16" x="949" y="728">
700.0
</text>
<text stroke="none" fill="white" font-size="16" x="614" y="752">
ns
</text>
<path stroke="white" stroke-dasharray="1,2" d="M50 704l924 0"/>
<text stroke="none" fill="white" font-size="16" x="8" y="712">
-3.0
</text>
<path stroke="white" stroke-dasharray="1,2" d="M50 613l924 0"/>
<text stroke="none" fill="white" font-size="16" x="8" y="621">
-2.0
</text>
<path stroke="white" stroke-dasharray="1,2" d="M50 522l924 0"/>
<text stroke="none" fill="white" font-size="16" x="8" y="530">
-1.0
</text>
<path stroke="white" d="M50 431l924 0"/>
<text stroke="none" fill="white" font-size="16" x="18" y="439">
0.0
</text>
<path stroke="white" stroke-dasharray="1,2" d="M50 340l924 0"/>
<text stroke="none" fill="white" font-size="16" x="18" y="348">
1.0
</text>
<path stroke="white" stroke-dasharray="1,2" d="M50 249l924 0"/>
<text stroke="none" fill="white" font-size="16" x="18" y="257">
2.0
</text>
<path stroke="white" stroke-dasharray="1,2" d="M50 158l924 0"/>
<text stroke="none" fill="white" font-size="16" x="18" y="166">
3.0
</text>
<path stroke="white" stroke-dasharray="1,2" d="M50 67l924 0"/>
<text stroke="none" fill="white" font-size="16" x="18" y="75">
4.0
</text>
<text stroke="none" fill="white" font-size="16" x="10" y="32">
     
</text>
<path stroke="red" d="M462 23l46 0"/>
<text stroke="none" fill="white" font-size="16" x="518" y="32">
x1.vsampled_p
</text>
<path stroke="red" d="M50 431l1 0 1 -7 0 -15 1 -15 0 -4 1 1M54 415l0 -40 1 -5 0 -13 1 -3 0 -2 2 -2 1 0 1 -1 4 0M64 350l0 -1M64 350l4 0 1 -1 48 0 0 -1 1 -9 0 -16 1 -4 0 -3 1 -2 0 -1 1 -1 419 0M540 313l0 -1 14 0 0 -1M554 312l13 0M567 313l0 -1 7 0"/>
<path stroke="red" d="M574 338l0 -26M574 338l1 4M575 352l0 -10M575 352l1 0M576 353l0 -1M576 353l49 0 0 -3 1 -4 0 -9 1 -1 0 -1 19 0M646 336l0 -1 7 0M653 344l0 -9M653 344l1 1M654 346l0 -1 18 0M672 346l0 -1 7 0M679 350l0 -5M679 350l1 0M680 352l0 -2"/>
<path stroke="red" d="M680 350l19 0M699 351l0 -1 26 0M725 351l0 -1 6 0 0 -2 1 0 0 -1M732 348l27 0M759 350l0 -2M759 350l1 -1 18 0M778 350l0 -1 26 0M804 350l0 -1 27 0M831 350l0 -1 87 0M918 353l0 -11 1 -2 0 -11 1 -4 0 -7 1 -2 0 -2 1 0 0 -1 1 0 0 -1"/>
<path stroke="red" d="M923 312l13 0M936 313l0 -1 14 0 0 -1M950 312l24 0"/>
<path stroke="blue" d="M50 23l46 0"/>
<text stroke="none" fill="white" font-size="16" x="106" y="32">
x1.vsampled_n
</text>
<path stroke="blue" d="M50 431l1 0 1 -7 0 -15 1 -14 0 -5 1 2M54 415l0 -40 1 -5 0 -13 1 -3 0 -2 2 -2 1 0 1 -1 4 0M64 350l0 -1M64 350l4 0 1 -1 48 0M117 356l0 -7M117 356l1 11M118 379l0 -12M118 379l1 2M119 383l0 -2M119 383l1 2 1 1 418 0M539 387l0 -1"/>
<path stroke="blue" d="M539 387l2 0 0 -1M541 387l5 0 0 -24 1 -4 0 -24 1 -1 0 -6 3 -3 15 0 1 1M567 327l0 -2 26 0M593 326l0 -1 7 0M600 344l0 -19M600 344l1 3M601 352l0 -5M601 349l1 -1 0 -2 4 0 0 -1M606 346l27 0 0 -1M633 346l26 0 0 -1M659 346l27 0"/>
<path stroke="blue" d="M686 346l0 -1M686 346l20 0M706 350l0 -4M706 350l1 -1 0 -1 18 0M725 349l0 -1 26 0M751 349l0 -1M751 349l1 -1 26 0M778 349l0 -1 7 0M785 349l0 -1M785 349l1 1 0 -1 26 0M812 350l0 -1M812 350l1 0 0 -1 18 0M831 350l0 -1 26 0M857 350l0 -1"/>
<path stroke="blue" d="M857 349l26 0M883 350l0 -1M883 350l1 -1 26 0M910 350l0 -1 8 0M918 363l0 -18M918 363l1 3M919 382l0 -16M919 382l1 4M920 388l0 -2M920 388l1 0 0 -1 41 0 0 -1 12 0"/>
<path stroke="#FFA500" d="M462 39l46 0"/>
<text stroke="none" fill="white" font-size="16" x="518" y="48">
x1.vsampled_p-x1.vsampled_n
</text>
<path stroke="#FFA500" d="M50 431l2 0 1 -1 1 0M54 431l0 -1M54 431l63 0 0 -8 1 -20 0 -28 1 -7 0 -4 1 -3 0 -2 1 -2 1 -1 418 0M540 357l0 -1 1 0M541 357l0 -1 5 0M546 380l0 -24M546 380l1 4M547 408l0 -24M547 408l1 1M548 415l0 -6M548 415l3 3 16 0 0 -1"/>
<path stroke="#FFA500" d="M567 418l7 0M574 443l0 -25M574 443l1 4M575 457l0 -10M575 457l1 1 4 0M580 459l0 -1M580 459l6 0 1 -1 6 0M593 459l0 -1 7 0 0 -19 1 -2 0 -5M601 435l1 1M602 438l0 -2M602 438l23 0 0 -3 1 -4 0 -9 1 -1 0 -1 26 0M653 429l0 -9"/>
<path stroke="#FFA500" d="M653 429l1 1M654 431l0 -1M654 431l1 -1 24 0M679 435l0 -5M679 435l1 0M680 437l0 -2M680 436l1 -1 5 0M686 436l0 -1M686 436l2 0 0 -1 10 0M698 436l0 -1 1 0M699 436l0 -1 7 0M706 436l0 -5M706 432l1 0M707 433l0 -1M707 433l24 0"/>
<path stroke="#FFA500" d="M731 433l0 -3 1 0M732 431l0 -1M732 431l27 0M759 433l0 -2M759 432l26 0 0 -1 27 0 0 -1 1 0M813 431l0 -1M813 431l25 0 0 -1 1 0M839 431l0 -1M839 431l79 0M918 438l0 -28 1 -5 0 -27 1 -8 0 -9 1 -2 0 -1 1 0 0 -1 1 0 0 -1 13 0"/>
<path stroke="#FFA500" d="M936 357l0 -1 38 0"/>
<path stroke="green" d="M50 39l46 0"/>
<text stroke="none" fill="white" font-size="16" x="106" y="48">
x1.sw_sample-2
</text>
<path stroke="green" d="M50 613l1 0 1 -9 0 -21 1 -21M53 580l0 -24M53 580l1 30M54 613l0 -3M54 613l63 0M117 620l0 -172M117 449l422 0M539 614l0 -171M539 613l422 0M961 618l0 -170 1 1 12 0"/>
<path stroke="#FFC0C5" d="M462 55l46 0"/>
<text stroke="none" fill="white" font-size="16" x="518" y="64">
x1.comp_out_p+2
</text>
<path stroke="#FFC0C5" d="M50 249l1 0 1 -9 0 -22 1 -18 0 -4M53 198l1 5M54 249l0 -46M54 249l488 0M542 250l0 -166M542 85l13 0M555 250l0 -169M555 249l13 0 0 -166M568 85l13 0 0 -9 1 162M582 249l0 -11M582 249l65 0 0 -166M647 85l14 0M661 249l0 -172"/>
<path stroke="#FFC0C5" d="M661 249l13 0 0 -166M674 85l13 0M687 249l0 -172M687 249l66 0M753 250l0 -147 1 -19M754 85l0 -1M754 85l12 0M766 249l0 -172M766 249l94 0 0 -164 12 0M872 249l0 -173M872 249l14 0 0 -164 12 0M898 249l0 -173M898 249l15 0M913 251l0 -167"/>
<path stroke="#FFC0C5" d="M913 85l12 0M925 249l0 -172M925 249l12 0 1 -45 0 -120M938 85l13 0M951 250l0 -171M951 249l23 0"/>
<path stroke="#A52A2A" d="M50 55l46 0"/>
<text stroke="none" fill="white" font-size="16" x="106" y="64">
x1.comp_out_n-2
</text>
<path stroke="#A52A2A" d="M50 613l1 0 1 -9 0 -22 1 -19M53 564l0 -3M53 564l1 6M54 613l0 -43M54 612l1 1 487 0M542 614l0 -1 52 0 0 -165M594 449l14 0M608 613l0 -171M608 613l13 0M621 620l0 -173M621 449l13 0M634 613l0 -172M634 613l66 0M700 618l0 -171"/>
<path stroke="#A52A2A" d="M700 449l13 0 0 -9 1 161M714 613l0 -12M714 613l13 0 0 -165M727 449l13 0M740 613l0 -172M740 613l40 0 0 -165M780 449l13 0M793 613l0 -174M793 613l14 0 0 -164 12 0M819 613l0 -172M819 613l15 0 0 -164 11 0 0 -10 1 154M846 613l0 -20"/>
<path stroke="#A52A2A" d="M846 613l128 0"/>
</svg>
