<?xml version="1.0" standalone="yes"?>
<!DOCTYPE svg PUBLIC "-//W3C//DTD SVG 1.1//EN"
 "http://www.w3.org/Graphics/SVG/1.1/DTD/svg11.dtd">
<svg xmlns="http://www.w3.org/2000/svg" version="1.1"
  width="100%" height="100%" viewBox="0 0 1024 768"
  style="fill: none; font-family: Helvetica;
 font: Helvetica;
">

<!-- Creator: NGspice -->

<rect x="0" y="0" width="1024" height="768" fill="black" stroke="none"/>
<text stroke="none" fill="white" font-size="16" x="358" y="752">
time
</text>
<text stroke="none" fill="white" font-size="16" x="10" y="16">
tran1: run306_vin-0.630616
</text>
<path stroke="white" d="M50 704l0 -637"/>
<text stroke="none" fill="white" font-size="16" x="35" y="728">
0.0
</text>
<path stroke="white" stroke-dasharray="1,2" d="M182 704l0 -637"/>
<text stroke="none" fill="white" font-size="16" x="157" y="728">
100.0
</text>
<path stroke="white" stroke-dasharray="1,2" d="M314 704l0 -637"/>
<text stroke="none" fill="white" font-size="16" x="289" y="728">
200.0
</text>
<path stroke="white" stroke-dasharray="1,2" d="M446 704l0 -637"/>
<text stroke="none" fill="white" font-size="16" x="421" y="728">
300.0
</text>
<path stroke="white" stroke-dasharray="1,2" d="M578 704l0 -637"/>
<text stroke="none" fill="white" font-size="16" x="553" y="728">
400.0
</text>
<path stroke="white" stroke-dasharray="1,2" d="M710 704l0 -637"/>
<text stroke="none" fill="white" font-size="16" x="685" y="728">
500.0
</text>
<path stroke="white" stroke-dasharray="1,2" d="M842 704l0 -637"/>
<text stroke="none" fill="white" font-size="16" x="817" y="728">
600.0
</text>
<path stroke="white" stroke-dasharray="1,2" d="M974 704l0 -637"/>
<text stroke="none" fill="white" font-size="16" x="949" y="728">
700.0
</text>
<text stroke="none" fill="white" font-size="16" x="614" y="752">
ns
</text>
<path stroke="white" stroke-dasharray="1,2" d="M50 704l924 0"/>
<text stroke="none" fill="white" font-size="16" x="8" y="712">
-3.0
</text>
<path stroke="white" stroke-dasharray="1,2" d="M50 613l924 0"/>
<text stroke="none" fill="white" font-size="16" x="8" y="621">
-2.0
</text>
<path stroke="white" stroke-dasharray="1,2" d="M50 522l924 0"/>
<text stroke="none" fill="white" font-size="16" x="8" y="530">
-1.0
</text>
<path stroke="white" d="M50 431l924 0"/>
<text stroke="none" fill="white" font-size="16" x="18" y="439">
0.0
</text>
<path stroke="white" stroke-dasharray="1,2" d="M50 340l924 0"/>
<text stroke="none" fill="white" font-size="16" x="18" y="348">
1.0
</text>
<path stroke="white" stroke-dasharray="1,2" d="M50 249l924 0"/>
<text stroke="none" fill="white" font-size="16" x="18" y="257">
2.0
</text>
<path stroke="white" stroke-dasharray="1,2" d="M50 158l924 0"/>
<text stroke="none" fill="white" font-size="16" x="18" y="166">
3.0
</text>
<path stroke="white" stroke-dasharray="1,2" d="M50 67l924 0"/>
<text stroke="none" fill="white" font-size="16" x="18" y="75">
4.0
</text>
<text stroke="none" fill="white" font-size="16" x="10" y="32">
     
</text>
<path stroke="red" d="M462 23l46 0"/>
<text stroke="none" fill="white" font-size="16" x="518" y="32">
x1.vsampled_p
</text>
<path stroke="red" d="M50 431l1 0 1 -7 0 -15 1 -14 0 -5 1 2M54 414l0 -37 1 -4 0 -16 1 -2 0 -3 2 -2 1 0 1 -1 3 0 1 1 4 0 1 -1 48 0M117 363l0 -14M117 363l1 15M118 397l0 -19M118 397l1 2M119 403l0 -4M119 403l1 2 1 1 418 0M539 407l0 -1M539 407l1 0"/>
<path stroke="red" d="M540 407l0 -1 1 0M541 407l0 -1M541 407l5 0 0 -24 1 -2 0 -25 1 -4 0 -3 1 -2 0 -1 1 0 1 -1 16 0M567 346l0 -1 26 0M593 346l0 -1 26 0M619 346l0 -1 27 0M646 346l0 -1 26 0M672 346l0 -1 7 0M679 352l0 -7M679 352l1 1M680 354l0 -3"/>
<path stroke="red" d="M680 351l1 0 0 -1 17 0 1 1 0 -1 26 0M725 351l0 -1 6 0 0 -3 1 0M732 348l0 -1M732 348l19 0M751 349l0 -1M751 349l1 0 0 -1 26 0M778 349l0 -1 7 0M785 350l0 -2M785 350l1 -1 26 0M812 350l0 -1 19 0M831 350l0 -1 26 0M857 350l0 -1"/>
<path stroke="red" d="M857 349l26 0M883 350l0 -1 27 0M910 350l0 -1 10 0M920 380l0 -34M920 380l1 3M921 409l0 -26M921 409l1 0M922 410l0 -1 1 0 0 -2 38 0 1 -1 12 0"/>
<path stroke="blue" d="M50 23l46 0"/>
<text stroke="none" fill="white" font-size="16" x="106" y="32">
x1.vsampled_n
</text>
<path stroke="blue" d="M50 431l1 0 1 -7 0 -15 1 -15 0 -4 1 1M54 414l0 -37 1 -4 0 -16 1 -2 0 -3 2 -2 1 0 1 -1 3 0 1 1 4 0 1 -1 48 0 0 -1 1 -11 0 -29 1 -4 0 -7 1 -3 1 -1 0 -1 419 0M540 293l0 -1 14 0 0 -1M554 292l13 0M567 293l0 -1 7 0M574 315l0 -23"/>
<path stroke="blue" d="M574 315l1 8M575 331l0 -8M575 331l1 2 24 0M600 349l0 -16M600 349l1 4M601 354l0 -1M601 354l1 -1 17 0M619 354l0 -1 6 0 0 -6 1 -2 0 -8 1 -1 1 0 1 -1 17 0M646 336l0 -1 7 0M653 342l0 -7M653 342l1 2M654 346l0 -2M654 346l5 0 0 -1"/>
<path stroke="blue" d="M659 346l27 0 0 -1M686 346l20 0M706 349l0 -3M706 349l1 -1 18 0M725 349l0 -1 45 0M770 350l0 -2M770 349l8 0M778 350l0 -1 26 0M804 350l0 -1 26 0 1 1 0 -1 89 0M920 350l0 -18 1 -1 0 -24 1 -1 0 -9 1 -1 0 -3 1 0 0 -1 12 0M936 293l0 -1"/>
<path stroke="blue" d="M936 292l14 0 0 -1M950 292l24 0"/>
<path stroke="#FFA500" d="M462 39l46 0"/>
<text stroke="none" fill="white" font-size="16" x="518" y="48">
x1.vsampled_p-x1.vsampled_n
</text>
<path stroke="#FFA500" d="M50 431l2 0M52 432l0 -1M52 432l2 0 0 -1 63 0M117 447l0 -16M117 447l1 25M118 520l0 -48M118 520l1 7M119 538l0 -11M119 538l1 4 1 2M121 545l0 -1M121 545l1 0 1 1 417 0 0 -1 1 0M541 546l0 -1M541 546l5 0 0 -24 1 -3 0 -24 1 -4"/>
<path stroke="#FFA500" d="M548 491l0 -3 1 -2 0 -1 1 0 1 -1 3 0M554 485l0 -1 13 0M567 485l0 -2M567 484l7 0 0 -23 1 -8 0 -8 1 -2 4 0M580 444l0 -1 13 0M593 444l0 -1 7 0M600 444l0 -17 1 -3 0 -2M601 423l24 0M625 429l0 -6M625 429l1 2M626 439l0 -8M626 439l2 2"/>
<path stroke="#FFA500" d="M628 441l25 0 0 -7 1 -1 0 -3 1 1 24 0M679 437l0 -6M679 437l1 2 0 -3 26 0 0 -3 25 0 0 -4 1 0M732 431l0 -2M732 431l38 0 0 -2M770 430l15 0M785 431l0 -1M785 431l1 0 0 -1 18 0M804 431l0 -1 8 0M812 431l0 -1M812 431l108 0M920 479l0 -49"/>
<path stroke="#FFA500" d="M920 479l1 4M921 534l0 -51M921 534l1 0M922 543l0 -9M922 543l1 0M923 545l0 -2M923 545l2 0M925 546l0 -1M925 546l11 0 0 -2M936 546l38 0"/>
<path stroke="green" d="M50 39l46 0"/>
<text stroke="none" fill="white" font-size="16" x="106" y="48">
x1.sw_sample-2
</text>
<path stroke="green" d="M50 613l1 0 1 -9 0 -21 1 -21M53 579l0 -23M53 579l1 31M54 613l0 -3M54 613l63 0M117 620l0 -172M117 449l422 0M539 614l0 -171M539 613l422 0M961 618l0 -170 1 1 12 0"/>
<path stroke="#FFC0C5" d="M462 55l46 0"/>
<text stroke="none" fill="white" font-size="16" x="518" y="64">
x1.comp_out_p+2
</text>
<path stroke="#FFC0C5" d="M50 249l1 0 1 -9 0 -22 1 -18 0 -4M53 198l1 5M54 250l0 -54M54 206l1 40M55 249l0 -3M55 249l566 0M621 250l0 -166M621 85l13 0M634 249l0 -167M634 249l40 0 0 -166M674 85l13 0M687 249l0 -172M687 249l93 0 0 -165M780 85l13 0"/>
<path stroke="#FFC0C5" d="M793 250l0 -172M793 249l13 0 1 -155 0 -10M807 85l12 0M819 249l0 -174M819 249l14 0 1 -153 0 -11 11 0 0 -8 1 153M846 249l0 -19M846 249l128 0"/>
<path stroke="#A52A2A" d="M50 55l46 0"/>
<text stroke="none" fill="white" font-size="16" x="106" y="64">
x1.comp_out_n-2
</text>
<path stroke="#A52A2A" d="M50 613l1 0 1 -9 0 -22 1 -19M53 564l0 -3M53 564l1 6M54 614l0 -44M54 612l1 1 486 0 1 1 0 -166M542 449l13 0M555 614l0 -167M555 613l13 0M568 615l0 -168M568 449l13 0 0 -8 1 158M582 613l0 -14M582 613l12 0M594 619l0 -172M594 448l1 1"/>
<path stroke="#A52A2A" d="M595 449l13 0M608 613l0 -172M608 613l39 0 0 -165M647 449l14 0M661 613l0 -173M661 613l39 0M700 616l0 -169M700 449l13 0 0 -7 1 145M714 613l0 -26M714 613l13 0 0 -165M727 449l13 0M740 613l0 -166M740 613l24 0 0 -165M764 449l2 0"/>
<path stroke="#A52A2A" d="M766 613l0 -171M766 613l95 0 1 -158 0 -7M862 449l10 0M872 613l0 -172M872 613l17 0 0 -165M889 449l9 0M898 613l0 -172M898 613l17 0 1 -158 0 -7M916 449l9 0M925 613l0 -171M925 613l12 0 1 -32 0 -133M938 449l13 0M951 613l0 -172"/>
<path stroke="#A52A2A" d="M951 613l23 0"/>
</svg>
