<?xml version="1.0" standalone="yes"?>
<!DOCTYPE svg PUBLIC "-//W3C//DTD SVG 1.1//EN"
 "http://www.w3.org/Graphics/SVG/1.1/DTD/svg11.dtd">
<svg xmlns="http://www.w3.org/2000/svg" version="1.1"
  width="100%" height="100%" viewBox="0 0 1024 768"
  style="fill: none; font-family: Helvetica;
 font: Helvetica;
">

<!-- Creator: NGspice -->

<rect x="0" y="0" width="1024" height="768" fill="black" stroke="none"/>
<text stroke="none" fill="white" font-size="16" x="358" y="752">
time
</text>
<text stroke="none" fill="white" font-size="16" x="10" y="16">
tran1: run304_vin-0.632373
</text>
<path stroke="white" d="M50 704l0 -637"/>
<text stroke="none" fill="white" font-size="16" x="35" y="728">
0.0
</text>
<path stroke="white" stroke-dasharray="1,2" d="M182 704l0 -637"/>
<text stroke="none" fill="white" font-size="16" x="157" y="728">
100.0
</text>
<path stroke="white" stroke-dasharray="1,2" d="M314 704l0 -637"/>
<text stroke="none" fill="white" font-size="16" x="289" y="728">
200.0
</text>
<path stroke="white" stroke-dasharray="1,2" d="M446 704l0 -637"/>
<text stroke="none" fill="white" font-size="16" x="421" y="728">
300.0
</text>
<path stroke="white" stroke-dasharray="1,2" d="M578 704l0 -637"/>
<text stroke="none" fill="white" font-size="16" x="553" y="728">
400.0
</text>
<path stroke="white" stroke-dasharray="1,2" d="M710 704l0 -637"/>
<text stroke="none" fill="white" font-size="16" x="685" y="728">
500.0
</text>
<path stroke="white" stroke-dasharray="1,2" d="M842 704l0 -637"/>
<text stroke="none" fill="white" font-size="16" x="817" y="728">
600.0
</text>
<path stroke="white" stroke-dasharray="1,2" d="M974 704l0 -637"/>
<text stroke="none" fill="white" font-size="16" x="949" y="728">
700.0
</text>
<text stroke="none" fill="white" font-size="16" x="614" y="752">
ns
</text>
<path stroke="white" stroke-dasharray="1,2" d="M50 704l924 0"/>
<text stroke="none" fill="white" font-size="16" x="8" y="712">
-3.0
</text>
<path stroke="white" stroke-dasharray="1,2" d="M50 613l924 0"/>
<text stroke="none" fill="white" font-size="16" x="8" y="621">
-2.0
</text>
<path stroke="white" stroke-dasharray="1,2" d="M50 522l924 0"/>
<text stroke="none" fill="white" font-size="16" x="8" y="530">
-1.0
</text>
<path stroke="white" d="M50 431l924 0"/>
<text stroke="none" fill="white" font-size="16" x="18" y="439">
0.0
</text>
<path stroke="white" stroke-dasharray="1,2" d="M50 340l924 0"/>
<text stroke="none" fill="white" font-size="16" x="18" y="348">
1.0
</text>
<path stroke="white" stroke-dasharray="1,2" d="M50 249l924 0"/>
<text stroke="none" fill="white" font-size="16" x="18" y="257">
2.0
</text>
<path stroke="white" stroke-dasharray="1,2" d="M50 158l924 0"/>
<text stroke="none" fill="white" font-size="16" x="18" y="166">
3.0
</text>
<path stroke="white" stroke-dasharray="1,2" d="M50 67l924 0"/>
<text stroke="none" fill="white" font-size="16" x="18" y="75">
4.0
</text>
<text stroke="none" fill="white" font-size="16" x="10" y="32">
     
</text>
<path stroke="red" d="M462 23l46 0"/>
<text stroke="none" fill="white" font-size="16" x="518" y="32">
x1.vsampled_p
</text>
<path stroke="red" d="M50 431l1 0 1 -7 0 -15 1 -14 0 -5 1 2M54 414l0 -37 1 -4 0 -16 1 -2 0 -3 2 -2 1 0 1 -1 3 0 1 1 4 0 1 -1 48 0M117 364l0 -15M117 364l1 14M118 397l0 -19M118 397l1 2M119 404l0 -5M119 404l2 2 1 0 1 1 423 0 0 -23 1 -3 0 -22 1 -7"/>
<path stroke="red" d="M548 352l0 -3 1 -2 0 -1 2 0 1 -1 14 0 1 1 0 -1M567 346l1 -1M568 346l0 -1 6 0M574 346l0 -1 19 0M593 346l0 -1 1 0M594 346l0 -1 6 0M600 346l0 -1M600 346l6 0 0 -1 13 0M619 346l0 -1M619 346l1 0 0 -1M620 346l5 0 0 -1 21 0M646 346l0 -1"/>
<path stroke="red" d="M646 345l7 0 1 1 0 -1 18 0M672 346l0 -1 1 0M673 346l0 -1M673 346l1 0 0 -1 5 0M679 346l0 -1M679 346l7 0 0 -1 12 0 1 1 0 -1M699 346l7 0M706 350l0 -5M706 349l1 0 0 -1 52 0M759 351l0 -3M759 350l1 0 0 -1 18 0M778 350l0 -1 26 0"/>
<path stroke="red" d="M804 350l0 -1 27 0M831 350l0 -1 9 0 0 -1M840 349l77 0M917 350l0 -1M917 350l1 0M918 407l0 -63M918 407l1 2M919 410l0 -1M919 410l1 -1 0 -1 1 0 0 -1 53 0"/>
<path stroke="blue" d="M50 23l46 0"/>
<text stroke="none" fill="white" font-size="16" x="106" y="32">
x1.vsampled_n
</text>
<path stroke="blue" d="M50 431l1 0 1 -7 0 -15 1 -15 0 -4 1 1M54 414l0 -37 1 -4 0 -16 1 -2 0 -3 2 -2 1 0 1 -1 3 0 1 1 4 0 1 -1 48 0 0 -1 1 -11 0 -29 1 -4 0 -8 1 -2 1 -1 0 -1 419 0M540 293l0 -1 14 0 0 -1M554 292l13 0M567 293l0 -1 7 0M574 314l0 -22"/>
<path stroke="blue" d="M574 314l1 7M575 331l0 -10M575 331l1 2 4 0 0 -1M580 333l20 0M600 350l0 -17M600 350l1 3M601 354l0 -1 24 0 0 -1 1 -5 0 -10 1 0 0 -1 1 -1 18 0M646 336l0 -1 7 0M653 343l0 -8M653 343l1 2M654 346l0 -1M654 346l1 0 1 -1 16 0M672 346l0 -1"/>
<path stroke="blue" d="M672 345l7 0M679 349l0 -4M679 349l1 1M680 352l0 -2M680 351l6 0 0 -1M686 351l12 0 0 -1M698 351l1 0 0 -1M699 351l13 0 0 -1M712 351l13 0 0 -1M725 351l6 0 0 -2 1 -1 19 0M751 349l0 -1 27 0M778 349l0 -1 7 0M785 349l0 -1M785 349l28 0"/>
<path stroke="blue" d="M813 350l0 -1 18 0M831 350l0 -1 26 0M857 350l0 -1 26 0M883 350l0 -1 27 0M910 350l0 -1 8 0M918 351l0 -36 1 -3 0 -13 1 -2 0 -2 1 -2 1 0 0 -1 1 0 0 -1M923 292l13 0M936 293l0 -1 14 0 0 -1M950 292l12 0 0 -1 1 0M963 292l0 -1"/>
<path stroke="blue" d="M963 292l11 0"/>
<path stroke="#FFA500" d="M462 39l46 0"/>
<text stroke="none" fill="white" font-size="16" x="518" y="48">
x1.vsampled_p-x1.vsampled_n
</text>
<path stroke="#FFA500" d="M50 431l2 0M52 432l0 -1M52 432l2 0 0 -1 63 0M117 447l0 -16M117 447l1 25M118 520l0 -48M118 520l1 7M119 538l0 -11M119 538l1 4 1 2M121 545l0 -1M121 545l1 1 418 0 0 -1M540 546l6 0 0 -23 1 -2 0 -23 1 -7 0 -3 1 -1 0 -2 5 0"/>
<path stroke="#FFA500" d="M554 485l0 -1M554 485l12 0 1 -1M567 485l0 -1M567 485l7 0 0 -23 1 -7 0 -9 1 -2 24 0 0 -18 1 -3 0 -1M601 423l18 0M619 424l0 -1 6 0M625 424l0 -1M625 424l1 5M626 439l0 -10M626 439l1 1M627 441l0 -1M627 441l19 0M646 442l0 -1"/>
<path stroke="#FFA500" d="M646 441l7 0 0 -7 1 -2 0 -1 25 0 0 -4 1 0 0 -2M680 426l26 0M706 430l0 -4M706 430l2 -2 17 0M725 429l0 -1 6 0M731 430l0 -2M731 430l1 1 27 0M759 434l0 -3M759 432l26 0 1 -1 54 0 0 -1M840 431l77 0 1 1M918 523l0 -97M918 523l1 5"/>
<path stroke="#FFA500" d="M919 542l0 -14M919 542l1 1M920 545l0 -2M920 545l1 0M921 546l0 -1M921 546l15 0 0 -1M936 546l38 0"/>
<path stroke="green" d="M50 39l46 0"/>
<text stroke="none" fill="white" font-size="16" x="106" y="48">
x1.sw_sample-2
</text>
<path stroke="green" d="M50 613l1 0 1 -9 0 -21 1 -21M53 579l0 -23M53 579l1 31M54 613l0 -3M54 613l63 0M117 620l0 -172M117 449l422 0M539 614l0 -171M539 613l422 0M961 618l0 -170 1 1 12 0"/>
<path stroke="#FFC0C5" d="M462 55l46 0"/>
<text stroke="none" fill="white" font-size="16" x="518" y="64">
x1.comp_out_p+2
</text>
<path stroke="#FFC0C5" d="M50 249l1 0 1 -9 0 -22 1 -18 0 -4M53 198l1 5M54 250l0 -53M54 207l1 39M55 249l0 -3M55 249l566 0M621 253l0 -170M621 85l13 0M634 249l0 -173M634 249l66 0M700 250l0 -167M700 85l13 0 0 -7 1 128M714 250l0 -44M714 249l13 0 0 -165"/>
<path stroke="#FFC0C5" d="M727 85l13 0M740 250l0 -173M740 249l13 0 0 -164 1 -1M754 85l0 -1M754 85l12 0M766 250l0 -172M766 249l94 0 0 -165M860 85l12 0M872 249l0 -174M872 249l14 0 0 -165 1 1 11 0M898 249l0 -174M898 249l14 0 1 -150 0 -15M913 85l12 0"/>
<path stroke="#FFC0C5" d="M925 250l0 -172M925 249l49 0"/>
<path stroke="#A52A2A" d="M50 55l46 0"/>
<text stroke="none" fill="white" font-size="16" x="106" y="64">
x1.comp_out_n-2
</text>
<path stroke="#A52A2A" d="M50 613l1 0 1 -9 0 -22 1 -19M53 564l0 -3M53 564l1 6M54 614l0 -44M54 612l1 1 486 0 1 1 0 -166M542 449l13 0M555 613l0 -173M555 613l13 0M568 614l0 -167M568 449l13 0 0 -3 1 85M582 614l0 -83M582 613l12 0M594 615l0 -168M594 449l14 0"/>
<path stroke="#A52A2A" d="M608 613l0 -171M608 613l39 0M647 615l0 -168M647 449l14 0M661 613l0 -173M661 613l13 0 0 -165M674 449l13 0M687 614l0 -174M687 613l93 0M780 614l0 -166M780 449l13 0M793 613l0 -174M793 613l14 0 0 -165M807 449l12 0M819 614l0 -171"/>
<path stroke="#A52A2A" d="M819 613l16 0 0 -150 1 -14 0 -1M836 449l9 0 0 -8 1 157M846 613l0 -15M846 613l91 0M937 614l0 -1M937 614l1 -57 0 -110M938 449l13 0M951 613l0 -174M951 613l23 0"/>
</svg>
