<?xml version="1.0" standalone="yes"?>
<!DOCTYPE svg PUBLIC "-//W3C//DTD SVG 1.1//EN"
 "http://www.w3.org/Graphics/SVG/1.1/DTD/svg11.dtd">
<svg xmlns="http://www.w3.org/2000/svg" version="1.1"
  width="100%" height="100%" viewBox="0 0 1024 768"
  style="fill: none; font-family: Helvetica;
 font: Helvetica;
">

<!-- Creator: NGspice -->

<rect x="0" y="0" width="1024" height="768" fill="black" stroke="none"/>
<text stroke="none" fill="white" font-size="16" x="358" y="752">
time
</text>
<text stroke="none" fill="white" font-size="16" x="10" y="16">
tran1: run883_vin-0.123487
</text>
<path stroke="white" d="M50 704l0 -637"/>
<text stroke="none" fill="white" font-size="16" x="35" y="728">
0.0
</text>
<path stroke="white" stroke-dasharray="1,2" d="M182 704l0 -637"/>
<text stroke="none" fill="white" font-size="16" x="157" y="728">
100.0
</text>
<path stroke="white" stroke-dasharray="1,2" d="M314 704l0 -637"/>
<text stroke="none" fill="white" font-size="16" x="289" y="728">
200.0
</text>
<path stroke="white" stroke-dasharray="1,2" d="M446 704l0 -637"/>
<text stroke="none" fill="white" font-size="16" x="421" y="728">
300.0
</text>
<path stroke="white" stroke-dasharray="1,2" d="M578 704l0 -637"/>
<text stroke="none" fill="white" font-size="16" x="553" y="728">
400.0
</text>
<path stroke="white" stroke-dasharray="1,2" d="M710 704l0 -637"/>
<text stroke="none" fill="white" font-size="16" x="685" y="728">
500.0
</text>
<path stroke="white" stroke-dasharray="1,2" d="M842 704l0 -637"/>
<text stroke="none" fill="white" font-size="16" x="817" y="728">
600.0
</text>
<path stroke="white" stroke-dasharray="1,2" d="M974 704l0 -637"/>
<text stroke="none" fill="white" font-size="16" x="949" y="728">
700.0
</text>
<text stroke="none" fill="white" font-size="16" x="614" y="752">
ns
</text>
<path stroke="white" stroke-dasharray="1,2" d="M50 704l924 0"/>
<text stroke="none" fill="white" font-size="16" x="8" y="712">
-3.0
</text>
<path stroke="white" stroke-dasharray="1,2" d="M50 613l924 0"/>
<text stroke="none" fill="white" font-size="16" x="8" y="621">
-2.0
</text>
<path stroke="white" stroke-dasharray="1,2" d="M50 522l924 0"/>
<text stroke="none" fill="white" font-size="16" x="8" y="530">
-1.0
</text>
<path stroke="white" d="M50 431l924 0"/>
<text stroke="none" fill="white" font-size="16" x="18" y="439">
0.0
</text>
<path stroke="white" stroke-dasharray="1,2" d="M50 340l924 0"/>
<text stroke="none" fill="white" font-size="16" x="18" y="348">
1.0
</text>
<path stroke="white" stroke-dasharray="1,2" d="M50 249l924 0"/>
<text stroke="none" fill="white" font-size="16" x="18" y="257">
2.0
</text>
<path stroke="white" stroke-dasharray="1,2" d="M50 158l924 0"/>
<text stroke="none" fill="white" font-size="16" x="18" y="166">
3.0
</text>
<path stroke="white" stroke-dasharray="1,2" d="M50 67l924 0"/>
<text stroke="none" fill="white" font-size="16" x="18" y="75">
4.0
</text>
<text stroke="none" fill="white" font-size="16" x="10" y="32">
     
</text>
<path stroke="red" d="M462 23l46 0"/>
<text stroke="none" fill="white" font-size="16" x="518" y="32">
x1.vsampled_p
</text>
<path stroke="red" d="M50 431l1 0 1 -7 0 -15 1 -14 0 -5 1 2M54 415l0 -39 1 -5 0 -15 1 -2 0 -2 1 -2 2 0 1 -1 4 0M64 350l0 -1M64 350l4 0 1 -1 48 0M117 350l0 -1M117 350l1 4M118 357l0 -3M118 357l1 1M119 359l0 -1M119 359l1 1 419 0M539 361l0 -1M539 361l1 0"/>
<path stroke="red" d="M540 361l1 -1M541 361l0 -1M541 361l5 0 0 -22 1 -2 0 -25 1 -6 0 -3 1 -2 0 -1 1 0 0 -1 16 0 1 1M567 301l0 -2 7 0M574 330l0 -31M574 330l1 8M575 342l0 -4M575 342l1 0 0 -1 1 0 0 -1 16 0M593 341l0 -1 26 0M619 341l0 -1 27 0M646 341l0 -1"/>
<path stroke="red" d="M646 340l7 0M653 350l0 -10M653 350l1 2 0 -1 1 0 0 -1 17 0M672 351l0 -1 27 0M699 351l0 -1 26 0M725 351l0 -1 6 0 0 -3 1 0M732 348l0 -1M732 348l27 0M759 351l0 -3M759 349l19 0M778 350l0 -1 26 0M804 350l0 -1 26 0 1 1 0 -1 86 0"/>
<path stroke="red" d="M917 351l0 -2M917 351l1 -2M918 366l0 -17M918 366l1 -1 0 -4 1 0 0 -1 2 0M922 361l0 -1M922 361l1 0 0 -1 13 0M936 361l0 -1 1 0M937 361l0 -1M937 361l13 0 0 -1 24 0"/>
<path stroke="blue" d="M50 23l46 0"/>
<text stroke="none" fill="white" font-size="16" x="106" y="32">
x1.vsampled_n
</text>
<path stroke="blue" d="M50 431l1 0 1 -7 0 -15 1 -15 0 -4 1 1M54 415l0 -39 1 -5 0 -15 1 -2 0 -2 1 -2 2 0 1 -1 4 0M64 350l0 -1M64 350l4 0 1 -1 48 0 1 -4 0 -3 1 -2 0 -1 1 -1 420 0M540 339l0 -1 27 0M567 339l0 -1 26 0M593 339l0 -1 7 0M600 354l0 -16"/>
<path stroke="blue" d="M600 354l1 3M601 361l0 -4M601 361l1 -1 0 -1 4 0 0 -1 13 0M619 359l0 -1M619 359l1 0 0 -1M620 359l5 0 0 -10 1 -2 0 -6 1 0 0 -1 1 0 1 1 4 0 0 -1M633 341l26 0 0 -1M659 341l20 0M679 346l0 -5M679 346l1 1M680 348l0 -2 26 0M706 349l0 -3"/>
<path stroke="blue" d="M706 349l1 0 0 -1 18 0M725 349l0 -1 26 0M751 349l0 -1 27 0M778 349l0 -1 7 0M785 349l0 -1M785 349l27 0M812 350l0 -1 19 0M831 350l0 -1 26 0M857 350l0 -1 26 0M883 350l0 -1 27 0M910 350l0 -1 7 0 0 -1 1 0 0 -6 1 -1 0 -3 17 0"/>
<path stroke="blue" d="M936 339l0 -1 38 0"/>
<path stroke="#FFA500" d="M462 39l46 0"/>
<text stroke="none" fill="white" font-size="16" x="518" y="48">
x1.vsampled_p-x1.vsampled_n
</text>
<path stroke="#FFA500" d="M50 431l67 0M117 433l0 -2M117 433l1 7M118 445l0 -5M118 445l1 4M119 452l0 -3M119 452l1 1 426 0 0 -21 1 -2 0 -25 1 -6 0 -3 1 -2 0 -1 1 0 0 -1 17 0M567 393l0 -1 7 0M574 423l0 -31M574 423l1 8M575 435l0 -4M575 435l1 0 0 -1"/>
<path stroke="#FFA500" d="M576 434l1 0 0 -1 23 0 0 -16 1 -2 0 -5 1 1M602 412l0 -1M602 412l1 1 3 0 0 -1 1 0M607 413l0 -1M607 413l18 0M625 422l0 -9M625 422l1 2M626 430l0 -6M626 430l1 0M627 431l0 -1M627 431l2 0 1 -1 16 0M646 431l0 -1 7 0M653 441l0 -11"/>
<path stroke="#FFA500" d="M653 441l1 1 1 -1 17 0 0 -1M672 441l7 0 0 -6 1 -1M680 435l0 -1M680 435l2 0M682 436l0 -1M682 436l17 0 0 -1M699 436l6 0 1 -1 0 -3M706 433l25 0 0 -3 1 0M732 431l0 -1M732 431l27 0M759 433l0 -2M759 432l26 0 0 -1 53 0 0 -1"/>
<path stroke="#FFA500" d="M838 430l1 0M839 431l0 -1M839 431l78 0M917 434l0 -3M917 434l1 -2M918 455l0 -23M918 455l1 0 0 -1 1 0 1 -1 2 0M923 454l0 -1 27 0M950 454l0 -1 24 0"/>
<path stroke="green" d="M50 39l46 0"/>
<text stroke="none" fill="white" font-size="16" x="106" y="48">
x1.sw_sample-2
</text>
<path stroke="green" d="M50 613l1 0 1 -9 0 -21 1 -21M53 581l0 -25M53 581l1 29M54 613l0 -3M54 613l63 0M117 620l0 -172M117 449l422 0M539 614l0 -171M539 613l422 0M961 618l0 -170 1 1 12 0"/>
<path stroke="#FFC0C5" d="M462 55l46 0"/>
<text stroke="none" fill="white" font-size="16" x="518" y="64">
x1.comp_out_p+2
</text>
<path stroke="#FFC0C5" d="M50 249l1 0 1 -9 0 -22 1 -18 0 -4M53 198l1 5M54 249l0 -46M54 249l514 0M568 250l0 -167M568 85l13 0 0 -7 1 142M582 249l0 -29M582 249l39 0 0 -165M621 85l13 0M634 250l0 -171M634 250l1 -1 12 0 0 -166M647 85l14 0M661 249l0 -174"/>
<path stroke="#FFC0C5" d="M661 249l92 0 0 -142 1 -22 0 -1M754 85l12 0M766 249l0 -172M766 249l94 0 0 -165M860 85l12 0M872 250l0 -169M872 249l14 0 0 -157 1 -8M887 85l0 -1M887 85l11 0M898 250l0 -169M898 249l14 0 1 -157 0 -8M913 85l12 0M925 250l0 -171"/>
<path stroke="#FFC0C5" d="M925 249l49 0"/>
<path stroke="#A52A2A" d="M50 55l46 0"/>
<text stroke="none" fill="white" font-size="16" x="106" y="64">
x1.comp_out_n-2
</text>
<path stroke="#A52A2A" d="M50 613l1 0 1 -9 0 -22 1 -19M53 564l0 -3M53 564l1 6M54 613l0 -43M54 613l487 0 1 1 0 -167M542 449l13 0M555 614l0 -167M555 613l39 0M594 617l0 -170M594 448l1 1 13 0M608 613l0 -168M608 613l65 0M673 615l0 -2M673 615l1 -97"/>
<path stroke="#A52A2A" d="M674 518l0 -71M674 449l13 0M687 613l0 -171M687 613l13 0M700 618l0 -171M700 449l13 0 0 -9 1 161M714 613l0 -12M714 613l13 0 0 -165M727 449l13 0M740 613l0 -172M740 613l40 0 0 -165M780 449l13 0M793 613l0 -174M793 613l14 0"/>
<path stroke="#A52A2A" d="M807 613l0 -165M807 449l12 0M819 613l0 -172M819 613l15 0 0 -164 11 0 0 -10 1 152M846 613l0 -22M846 613l91 0M937 614l0 -1M937 614l1 -67 0 -99M938 449l13 0M951 614l0 -171M951 613l23 0"/>
</svg>
