<?xml version="1.0" standalone="yes"?>
<!DOCTYPE svg PUBLIC "-//W3C//DTD SVG 1.1//EN"
 "http://www.w3.org/Graphics/SVG/1.1/DTD/svg11.dtd">
<svg xmlns="http://www.w3.org/2000/svg" version="1.1"
  width="100%" height="100%" viewBox="0 0 1024 768"
  style="fill: none; font-family: Helvetica;
 font: Helvetica;
">

<!-- Creator: NGspice -->

<rect x="0" y="0" width="1024" height="768" fill="black" stroke="none"/>
<text stroke="none" fill="white" font-size="16" x="358" y="752">
time
</text>
<text stroke="none" fill="white" font-size="16" x="10" y="16">
tran1: run612_vin-0.361671
</text>
<path stroke="white" d="M50 704l0 -637"/>
<text stroke="none" fill="white" font-size="16" x="35" y="728">
0.0
</text>
<path stroke="white" stroke-dasharray="1,2" d="M182 704l0 -637"/>
<text stroke="none" fill="white" font-size="16" x="157" y="728">
100.0
</text>
<path stroke="white" stroke-dasharray="1,2" d="M314 704l0 -637"/>
<text stroke="none" fill="white" font-size="16" x="289" y="728">
200.0
</text>
<path stroke="white" stroke-dasharray="1,2" d="M446 704l0 -637"/>
<text stroke="none" fill="white" font-size="16" x="421" y="728">
300.0
</text>
<path stroke="white" stroke-dasharray="1,2" d="M578 704l0 -637"/>
<text stroke="none" fill="white" font-size="16" x="553" y="728">
400.0
</text>
<path stroke="white" stroke-dasharray="1,2" d="M710 704l0 -637"/>
<text stroke="none" fill="white" font-size="16" x="685" y="728">
500.0
</text>
<path stroke="white" stroke-dasharray="1,2" d="M842 704l0 -637"/>
<text stroke="none" fill="white" font-size="16" x="817" y="728">
600.0
</text>
<path stroke="white" stroke-dasharray="1,2" d="M974 704l0 -637"/>
<text stroke="none" fill="white" font-size="16" x="949" y="728">
700.0
</text>
<text stroke="none" fill="white" font-size="16" x="614" y="752">
ns
</text>
<path stroke="white" stroke-dasharray="1,2" d="M50 704l924 0"/>
<text stroke="none" fill="white" font-size="16" x="8" y="712">
-3.0
</text>
<path stroke="white" stroke-dasharray="1,2" d="M50 613l924 0"/>
<text stroke="none" fill="white" font-size="16" x="8" y="621">
-2.0
</text>
<path stroke="white" stroke-dasharray="1,2" d="M50 522l924 0"/>
<text stroke="none" fill="white" font-size="16" x="8" y="530">
-1.0
</text>
<path stroke="white" d="M50 431l924 0"/>
<text stroke="none" fill="white" font-size="16" x="18" y="439">
0.0
</text>
<path stroke="white" stroke-dasharray="1,2" d="M50 340l924 0"/>
<text stroke="none" fill="white" font-size="16" x="18" y="348">
1.0
</text>
<path stroke="white" stroke-dasharray="1,2" d="M50 249l924 0"/>
<text stroke="none" fill="white" font-size="16" x="18" y="257">
2.0
</text>
<path stroke="white" stroke-dasharray="1,2" d="M50 158l924 0"/>
<text stroke="none" fill="white" font-size="16" x="18" y="166">
3.0
</text>
<path stroke="white" stroke-dasharray="1,2" d="M50 67l924 0"/>
<text stroke="none" fill="white" font-size="16" x="18" y="75">
4.0
</text>
<text stroke="none" fill="white" font-size="16" x="10" y="32">
     
</text>
<path stroke="red" d="M462 23l46 0"/>
<text stroke="none" fill="white" font-size="16" x="518" y="32">
x1.vsampled_p
</text>
<path stroke="red" d="M50 431l1 0 1 -7 0 -15 1 -14 0 -5 1 2M54 415l0 -40 1 -5 0 -13 1 -3 0 -2 2 -2 1 0 1 -1 4 0M64 350l0 -1M64 350l4 0 1 -1 48 0M117 355l0 -6M117 355l1 9M118 375l0 -11M118 375l1 3M119 380l0 -2M119 380l1 1 1 0M121 382l0 -1M121 382l425 0"/>
<path stroke="red" d="M546 383l0 -23 1 -4 0 -26 1 -3 0 -3 1 -1 0 -1 1 -1 4 0 0 -1M554 321l13 0M567 322l0 -1 13 0 0 -1M580 321l13 0M593 322l0 -1 7 0M600 339l0 -18M600 339l1 2M601 348l0 -7M601 344l1 0 0 -2 1 0 0 -1 16 0M619 342l0 -1 27 0M646 342l0 -1"/>
<path stroke="red" d="M646 341l26 0M672 342l0 -1 7 0M679 347l0 -6M679 347l1 2 0 -2 1 0 1 -1 16 0 1 1 0 -1 7 0M706 350l0 -4M706 350l1 0 0 -1 105 0M812 350l0 -1 19 0M831 350l0 -1 26 0M857 350l0 -1 26 0M883 350l0 -1M883 350l1 -1 26 0M910 350l0 -1"/>
<path stroke="red" d="M910 349l8 0M918 363l0 -20M918 363l1 2M919 380l0 -15M919 380l1 3M920 384l0 -1M920 384l1 -1 1 0 0 -1 52 0"/>
<path stroke="blue" d="M50 23l46 0"/>
<text stroke="none" fill="white" font-size="16" x="106" y="32">
x1.vsampled_n
</text>
<path stroke="blue" d="M50 431l1 0 1 -7 0 -15 1 -15 0 -4 1 1M54 415l0 -40 1 -5 0 -13 1 -3 0 -2 2 -2 1 0 1 -1 4 0M64 350l0 -1M64 350l4 0 1 -1 48 0 0 -1 1 -8 0 -15 1 -4 0 -2 3 -3 418 0M540 317l0 -1M540 317l1 -1M541 317l0 -1M541 317l6 0 0 -1M547 317l7 0"/>
<path stroke="blue" d="M554 317l0 -1 12 0 1 1 0 -1M567 317l6 0 1 -1M574 344l0 -28M574 344l1 3M575 357l0 -10M575 357l18 0M593 358l0 -1 26 0M619 358l0 -1 6 0 0 -6 1 -3 0 -7 1 -1 1 0 0 -1 18 0M646 340l0 -1 7 0M653 347l0 -8M653 347l1 2M654 350l0 -1"/>
<path stroke="blue" d="M654 350l5 0 0 -1M659 350l27 0 0 -1M686 350l26 0 0 -1M712 350l20 0 0 -3 19 0M751 348l0 -1M751 348l1 -1 7 0M759 350l0 -3M759 349l6 0 0 -1M765 349l21 0M786 350l0 -1 18 0M804 350l0 -1 27 0M831 350l0 -1 87 0M918 351l0 -7 1 -2"/>
<path stroke="blue" d="M919 342l0 -11 1 -4 0 -4 1 -2 0 -3 1 0 0 -1 1 0 0 -1 13 0M936 317l0 -1 1 1 13 0 0 -1 24 0"/>
<path stroke="#FFA500" d="M462 39l46 0"/>
<text stroke="none" fill="white" font-size="16" x="518" y="48">
x1.vsampled_p-x1.vsampled_n
</text>
<path stroke="#FFA500" d="M50 431l3 0M53 432l0 -1 64 0M117 438l0 -7M117 438l1 18M118 481l0 -25M118 481l1 7M119 491l0 -3M119 491l1 3 1 2 1 1 418 0 0 -1M540 497l1 0 0 -1M541 497l5 0 0 -23 1 -3 0 -26 1 -3 0 -3 1 -2 0 -1 1 0 1 -1 16 0M567 436l0 -1"/>
<path stroke="#FFA500" d="M567 435l6 0 1 1 0 -28 1 -3 0 -10 5 0 0 -1M580 395l13 0M593 396l0 -1 7 0M600 412l0 -17M600 412l1 3M601 421l0 -6M601 418l1 -1 0 -1 1 -1 22 0M625 421l0 -6M625 421l1 3M626 431l0 -7M626 431l1 1M627 433l0 -1M627 433l26 0"/>
<path stroke="#FFA500" d="M653 433l0 -8 1 -2 0 -1 1 1 4 0 0 -1M659 423l20 0M679 429l0 -6M679 429l1 1M680 431l0 -3 26 0M706 432l0 -4M706 432l1 -1 0 -1 25 0M732 433l0 -3M732 433l27 0 0 -3M759 431l27 0 0 -1M786 431l26 0M812 432l0 -1 26 0M838 432l0 -1"/>
<path stroke="#FFA500" d="M838 432l1 -1 79 0M918 450l0 -25M918 450l1 4M919 480l0 -26M919 480l1 8M920 491l0 -3M920 491l1 3M921 496l0 -2M921 496l2 0M923 497l0 -1M923 497l13 0 0 -1M936 497l38 0"/>
<path stroke="green" d="M50 39l46 0"/>
<text stroke="none" fill="white" font-size="16" x="106" y="48">
x1.sw_sample-2
</text>
<path stroke="green" d="M50 613l1 0 1 -9 0 -21 1 -21M53 580l0 -24M53 580l1 30M54 613l0 -3M54 613l63 0M117 620l0 -172M117 449l422 0M539 614l0 -171M539 613l422 0M961 618l0 -170 1 1 12 0"/>
<path stroke="#FFC0C5" d="M462 55l46 0"/>
<text stroke="none" fill="white" font-size="16" x="518" y="64">
x1.comp_out_p+2
</text>
<path stroke="#FFC0C5" d="M50 249l1 0 1 -9 0 -22 1 -18 0 -4M53 198l1 5M54 249l0 -46M54 248l1 1 539 0 0 -165M594 85l14 0M608 250l0 -168M608 249l13 0M621 250l0 -166M621 85l13 0M634 249l0 -172M634 249l39 0M673 250l0 -90 1 -67 0 -9M674 85l13 0M687 250l0 -173"/>
<path stroke="#FFC0C5" d="M687 249l13 0 0 -166M700 85l13 0 0 -3 1 24M714 250l0 -144M714 249l14 0 0 -164 12 0M740 249l0 -171M740 249l67 0 0 -165M807 85l12 0M819 249l0 -171M819 249l15 0 0 -164 11 0 0 -10 1 144M846 249l0 -30M846 249l128 0"/>
<path stroke="#A52A2A" d="M50 55l46 0"/>
<text stroke="none" fill="white" font-size="16" x="106" y="64">
x1.comp_out_n-2
</text>
<path stroke="#A52A2A" d="M50 613l1 0 1 -9 0 -22 1 -19M53 564l0 -3M53 564l1 6M54 613l0 -43M54 613l487 0 1 2 0 -168M542 449l13 0M555 613l0 -168M555 613l13 0M568 615l0 -168M568 449l13 0 0 -8 1 158M582 613l0 -14M582 613l39 0M621 614l0 -1 26 0 0 -166"/>
<path stroke="#A52A2A" d="M647 449l14 0M661 613l0 -172M661 613l92 0 0 -165M753 449l13 0M766 613l0 -171M766 613l14 0 0 -157 1 -8M781 449l0 -1M781 449l12 0M793 613l0 -174M793 613l66 0 1 -158 0 -7M860 449l12 0M872 613l0 -174M872 613l14 0 0 -164"/>
<path stroke="#A52A2A" d="M886 449l1 -1M887 449l0 -1M887 449l11 0M898 613l0 -174M898 613l15 0 0 -165M913 449l12 0M925 614l0 -167M925 613l12 0 1 -51 0 -114M938 449l13 0M951 613l0 -173M951 613l23 0"/>
</svg>
