<?xml version="1.0" standalone="yes"?>
<!DOCTYPE svg PUBLIC "-//W3C//DTD SVG 1.1//EN"
 "http://www.w3.org/Graphics/SVG/1.1/DTD/svg11.dtd">
<svg xmlns="http://www.w3.org/2000/svg" version="1.1"
  width="100%" height="100%" viewBox="0 0 1024 768"
  style="fill: none; font-family: Helvetica;
 font: Helvetica;
">

<!-- Creator: NGspice -->

<rect x="0" y="0" width="1024" height="768" fill="black" stroke="none"/>
<text stroke="none" fill="white" font-size="16" x="358" y="752">
time
</text>
<text stroke="none" fill="white" font-size="16" x="10" y="16">
tran1: run208_vin0.259908
</text>
<path stroke="white" d="M50 704l0 -637"/>
<text stroke="none" fill="white" font-size="16" x="35" y="728">
0.0
</text>
<path stroke="white" stroke-dasharray="1,2" d="M182 704l0 -637"/>
<text stroke="none" fill="white" font-size="16" x="157" y="728">
100.0
</text>
<path stroke="white" stroke-dasharray="1,2" d="M314 704l0 -637"/>
<text stroke="none" fill="white" font-size="16" x="289" y="728">
200.0
</text>
<path stroke="white" stroke-dasharray="1,2" d="M446 704l0 -637"/>
<text stroke="none" fill="white" font-size="16" x="421" y="728">
300.0
</text>
<path stroke="white" stroke-dasharray="1,2" d="M578 704l0 -637"/>
<text stroke="none" fill="white" font-size="16" x="553" y="728">
400.0
</text>
<path stroke="white" stroke-dasharray="1,2" d="M710 704l0 -637"/>
<text stroke="none" fill="white" font-size="16" x="685" y="728">
500.0
</text>
<path stroke="white" stroke-dasharray="1,2" d="M842 704l0 -637"/>
<text stroke="none" fill="white" font-size="16" x="817" y="728">
600.0
</text>
<path stroke="white" stroke-dasharray="1,2" d="M974 704l0 -637"/>
<text stroke="none" fill="white" font-size="16" x="949" y="728">
700.0
</text>
<text stroke="none" fill="white" font-size="16" x="614" y="752">
ns
</text>
<path stroke="white" stroke-dasharray="1,2" d="M50 704l924 0"/>
<text stroke="none" fill="white" font-size="16" x="8" y="712">
-2.5
</text>
<path stroke="white" stroke-dasharray="1,2" d="M50 655l924 0"/>
<text stroke="none" fill="white" font-size="16" x="8" y="663">
-2.0
</text>
<path stroke="white" stroke-dasharray="1,2" d="M50 606l924 0"/>
<text stroke="none" fill="white" font-size="16" x="8" y="614">
-1.5
</text>
<path stroke="white" stroke-dasharray="1,2" d="M50 557l924 0"/>
<text stroke="none" fill="white" font-size="16" x="8" y="565">
-1.0
</text>
<path stroke="white" stroke-dasharray="1,2" d="M50 508l924 0"/>
<text stroke="none" fill="white" font-size="16" x="8" y="516">
-0.5
</text>
<path stroke="white" d="M50 459l924 0"/>
<text stroke="none" fill="white" font-size="16" x="18" y="467">
0.0
</text>
<path stroke="white" stroke-dasharray="1,2" d="M50 410l924 0"/>
<text stroke="none" fill="white" font-size="16" x="18" y="418">
0.5
</text>
<path stroke="white" stroke-dasharray="1,2" d="M50 361l924 0"/>
<text stroke="none" fill="white" font-size="16" x="18" y="369">
1.0
</text>
<path stroke="white" stroke-dasharray="1,2" d="M50 312l924 0"/>
<text stroke="none" fill="white" font-size="16" x="18" y="320">
1.5
</text>
<path stroke="white" stroke-dasharray="1,2" d="M50 263l924 0"/>
<text stroke="none" fill="white" font-size="16" x="18" y="271">
2.0
</text>
<path stroke="white" stroke-dasharray="1,2" d="M50 214l924 0"/>
<text stroke="none" fill="white" font-size="16" x="18" y="222">
2.5
</text>
<path stroke="white" stroke-dasharray="1,2" d="M50 165l924 0"/>
<text stroke="none" fill="white" font-size="16" x="18" y="173">
3.0
</text>
<path stroke="white" stroke-dasharray="1,2" d="M50 116l924 0"/>
<text stroke="none" fill="white" font-size="16" x="18" y="124">
3.5
</text>
<path stroke="white" stroke-dasharray="1,2" d="M50 67l924 0"/>
<text stroke="none" fill="white" font-size="16" x="18" y="75">
4.0
</text>
<text stroke="none" fill="white" font-size="16" x="10" y="32">
     
</text>
<path stroke="red" d="M462 23l46 0"/>
<text stroke="none" fill="white" font-size="16" x="518" y="32">
x1.vsampled_p
</text>
<path stroke="red" d="M50 459l1 0 1 -7 0 -17 1 -15 0 -5 1 1M54 441l0 -42 1 -5 0 -15 1 -2 0 -3 1 -2 1 0 0 -1 59 0 0 -1 1 -7 0 -11 1 -4 1 -1 0 -1 1 0 1 -1 417 0M539 346l0 -1M539 346l15 0 0 -1 12 0M566 346l0 -1M566 346l1 0M567 347l0 -1 13 0 0 -1"/>
<path stroke="red" d="M580 345l2 0M582 346l0 -1M582 346l11 0 0 -1M593 346l7 0M600 362l0 -17M600 362l1 2M601 371l0 -7M601 369l1 0 0 -1 4 0 0 -1 1 0M607 368l0 -1M607 368l26 0 0 -1M633 368l13 0 0 -1M646 368l13 0 0 -1M659 368l13 0 0 -1M672 368l14 0"/>
<path stroke="red" d="M686 368l0 -1M686 368l20 0M706 371l0 -3M706 371l1 0 0 -1 18 0M725 371l0 -1 26 0M751 371l0 -1M751 371l1 -1 26 0M778 371l0 -1 8 0M786 372l0 -2M786 371l132 0 0 -21 1 -1 0 -4 2 0M921 346l0 -1M921 346l2 0 0 -1 2 0M925 346l0 -1"/>
<path stroke="red" d="M925 346l11 0 0 -1M936 346l14 0 0 -1 1 0M951 346l0 -1M951 346l10 0 0 -1 13 0"/>
<path stroke="blue" d="M50 23l46 0"/>
<text stroke="none" fill="white" font-size="16" x="106" y="32">
x1.vsampled_n
</text>
<path stroke="blue" d="M50 459l1 0 1 -7 0 -17 1 -15 0 -5 1 2M54 441l0 -42 1 -5 0 -15 1 -2 0 -3 1 -2 1 0 0 -1 59 0M117 375l0 -4M117 375l1 7M118 391l0 -9M118 391l1 3 1 1M120 396l0 -1M120 396l420 0M540 397l0 -1 6 0M546 397l0 -25 1 -4 0 -23 1 -5"/>
<path stroke="blue" d="M548 340l0 -5 1 -2 0 -1 1 -1 4 0 0 -1 12 0 1 1M567 332l0 -2M567 331l7 0M574 363l0 -33M574 363l1 3M575 376l0 -10M575 376l1 1 0 -2 2 0 0 -1 15 0M593 375l0 -1 26 0M619 375l0 -1M619 375l1 0 0 -1 5 0 0 -11 1 -1 0 -7 20 0M646 356l0 -1"/>
<path stroke="blue" d="M646 355l7 0M653 366l0 -11M653 366l1 2 0 -1 1 0 0 -1 17 0M672 367l0 -1 7 0M679 372l0 -6M679 372l1 1M680 374l0 -2 6 0 0 -1M686 372l26 0 0 -1M712 372l19 0 0 -4 1 0M732 369l0 -1M732 369l19 0M751 370l0 -1 8 0M759 372l0 -3M759 371l6 0"/>
<path stroke="blue" d="M765 371l0 -1M765 371l26 0 0 -1M791 371l21 0 1 1 0 -1 26 0 0 -1 1 0M840 371l0 -1M840 371l4 0 0 -1M844 371l26 0 0 -1 1 1 26 0 0 -1M897 371l20 0 1 1M918 399l0 -27M918 399l1 1 0 -2 1 -1 1 0 0 -1 15 0M936 397l0 -1 38 0"/>
<path stroke="#FFA500" d="M462 39l46 0"/>
<text stroke="none" fill="white" font-size="16" x="518" y="48">
x1.vsampled_p-x1.vsampled_n
</text>
<path stroke="#FFA500" d="M50 459l67 0 0 -5 1 -14 0 -20 1 -6 1 -3 0 -2 1 0 1 -1 418 0M540 409l0 -1 6 0M546 433l0 -25M546 433l1 3M547 460l0 -24M547 460l1 5M548 469l0 -4M548 469l1 3M549 473l0 -1M549 473l1 1 24 0 0 -32 1 -4 0 -10 1 0M576 429l0 -1"/>
<path stroke="#FFA500" d="M576 429l1 1 16 0M593 431l0 -1 7 0M600 447l0 -17M600 447l1 2M601 455l0 -6M601 454l2 -2 22 0M625 463l0 -11M625 463l1 1M626 471l0 -7M626 471l1 0M627 472l0 -1M627 472l1 0 0 -1 5 0M633 472l0 -1 13 0M646 472l0 -1 7 0M653 472l0 -11"/>
<path stroke="#FFA500" d="M653 461l1 -2 0 -1M654 459l1 1 4 0M659 461l0 -1 20 0M679 461l0 -6 1 -1M680 455l0 -3M680 455l26 0M706 459l0 -4M706 458l25 0M731 461l0 -3M731 461l1 0 0 -1 27 0 0 -3M759 459l27 0M786 460l0 -1 26 0 1 -1M813 459l0 -1M813 459l26 0"/>
<path stroke="#FFA500" d="M839 460l0 -1M839 460l1 0 0 -1 77 0 1 -1 0 -47 1 -4 0 -1 2 2 15 0M936 409l0 -1 38 0"/>
<path stroke="green" d="M50 39l46 0"/>
<text stroke="none" fill="white" font-size="16" x="106" y="48">
x1.sw_sample-2
</text>
<path stroke="green" d="M50 655l1 0 1 -10 0 -23 1 -21M53 620l0 -26M53 620l1 32M54 655l0 -3M54 655l63 0M117 662l0 -184 1 0M118 479l0 -1M118 479l421 0M539 656l0 -184M539 655l422 0M961 660l0 -182 1 0M962 479l0 -1 1 1 11 0"/>
<path stroke="#FFC0C5" d="M462 55l46 0"/>
<text stroke="none" fill="white" font-size="16" x="518" y="64">
x1.comp_out_p+2
</text>
<path stroke="#FFC0C5" d="M50 263l1 0 1 -10 0 -23 1 -20 0 -4M53 209l1 4M54 263l0 -50M54 263l487 0 1 1 0 -179M542 87l13 0M555 263l0 -185M555 263l39 0 0 -178M594 86l1 1 13 0M608 264l0 -185M608 263l13 0M621 269l0 -184M621 87l13 0M634 264l0 -186"/>
<path stroke="#FFC0C5" d="M634 263l66 0 0 -178M700 87l13 0 1 -10M714 264l0 -187M714 263l13 0 0 -177 1 1 12 0M740 264l0 -187M740 263l40 0 0 -177 1 0M781 87l0 -1M781 87l12 0M793 263l0 -182M793 263l42 0 0 -177M835 87l10 0 0 -8 1 158M846 263l0 -26"/>
<path stroke="#FFC0C5" d="M846 263l91 0 1 -57 0 -121M938 87l13 0M951 264l0 -179M951 263l23 0"/>
<path stroke="#A52A2A" d="M50 55l46 0"/>
<text stroke="none" fill="white" font-size="16" x="106" y="64">
x1.comp_out_n-2
</text>
<path stroke="#A52A2A" d="M50 655l1 0 1 -10 0 -24 1 -20M53 602l0 -3M53 602l1 7M54 655l0 -46M54 654l1 1 513 0 0 -178M568 479l13 0 0 -10 1 176M582 655l0 -10M582 655l12 0M594 656l0 -1 53 0 0 -178M647 479l14 0M661 655l0 -186M661 655l13 0M674 661l0 -185"/>
<path stroke="#A52A2A" d="M674 479l13 0M687 656l0 -187M687 655l66 0 0 -177 1 1 12 0M766 655l0 -188M766 655l41 0 0 -177M807 479l12 0M819 655l0 -185M819 655l41 0 0 -177M860 479l12 0M872 655l0 -188M872 655l14 0 0 -177 1 0M887 479l0 -1M887 479l11 0"/>
<path stroke="#A52A2A" d="M898 655l0 -188M898 655l14 0 1 -164 0 -13M913 479l12 0M925 656l0 -184M925 655l13 0M938 656l0 -1 36 0"/>
</svg>
