<?xml version="1.0" standalone="yes"?>
<!DOCTYPE svg PUBLIC "-//W3C//DTD SVG 1.1//EN"
 "http://www.w3.org/Graphics/SVG/1.1/DTD/svg11.dtd">
<svg xmlns="http://www.w3.org/2000/svg" version="1.1"
  width="100%" height="100%" viewBox="0 0 1024 768"
  style="fill: none; font-family: Helvetica;
 font: Helvetica;
">

<!-- Creator: NGspice -->

<rect x="0" y="0" width="1024" height="768" fill="black" stroke="none"/>
<text stroke="none" fill="white" font-size="16" x="358" y="752">
time
</text>
<text stroke="none" fill="white" font-size="16" x="10" y="16">
tran1: run209_vin-0.886508
</text>
<path stroke="white" d="M50 704l0 -637"/>
<text stroke="none" fill="white" font-size="16" x="35" y="728">
0.0
</text>
<path stroke="white" stroke-dasharray="1,2" d="M182 704l0 -637"/>
<text stroke="none" fill="white" font-size="16" x="157" y="728">
100.0
</text>
<path stroke="white" stroke-dasharray="1,2" d="M314 704l0 -637"/>
<text stroke="none" fill="white" font-size="16" x="289" y="728">
200.0
</text>
<path stroke="white" stroke-dasharray="1,2" d="M446 704l0 -637"/>
<text stroke="none" fill="white" font-size="16" x="421" y="728">
300.0
</text>
<path stroke="white" stroke-dasharray="1,2" d="M578 704l0 -637"/>
<text stroke="none" fill="white" font-size="16" x="553" y="728">
400.0
</text>
<path stroke="white" stroke-dasharray="1,2" d="M710 704l0 -637"/>
<text stroke="none" fill="white" font-size="16" x="685" y="728">
500.0
</text>
<path stroke="white" stroke-dasharray="1,2" d="M842 704l0 -637"/>
<text stroke="none" fill="white" font-size="16" x="817" y="728">
600.0
</text>
<path stroke="white" stroke-dasharray="1,2" d="M974 704l0 -637"/>
<text stroke="none" fill="white" font-size="16" x="949" y="728">
700.0
</text>
<text stroke="none" fill="white" font-size="16" x="614" y="752">
ns
</text>
<path stroke="white" stroke-dasharray="1,2" d="M50 704l924 0"/>
<text stroke="none" fill="white" font-size="16" x="8" y="712">
-2.5
</text>
<path stroke="white" stroke-dasharray="1,2" d="M50 655l924 0"/>
<text stroke="none" fill="white" font-size="16" x="8" y="663">
-2.0
</text>
<path stroke="white" stroke-dasharray="1,2" d="M50 606l924 0"/>
<text stroke="none" fill="white" font-size="16" x="8" y="614">
-1.5
</text>
<path stroke="white" stroke-dasharray="1,2" d="M50 557l924 0"/>
<text stroke="none" fill="white" font-size="16" x="8" y="565">
-1.0
</text>
<path stroke="white" stroke-dasharray="1,2" d="M50 508l924 0"/>
<text stroke="none" fill="white" font-size="16" x="8" y="516">
-0.5
</text>
<path stroke="white" d="M50 459l924 0"/>
<text stroke="none" fill="white" font-size="16" x="18" y="467">
0.0
</text>
<path stroke="white" stroke-dasharray="1,2" d="M50 410l924 0"/>
<text stroke="none" fill="white" font-size="16" x="18" y="418">
0.5
</text>
<path stroke="white" stroke-dasharray="1,2" d="M50 361l924 0"/>
<text stroke="none" fill="white" font-size="16" x="18" y="369">
1.0
</text>
<path stroke="white" stroke-dasharray="1,2" d="M50 312l924 0"/>
<text stroke="none" fill="white" font-size="16" x="18" y="320">
1.5
</text>
<path stroke="white" stroke-dasharray="1,2" d="M50 263l924 0"/>
<text stroke="none" fill="white" font-size="16" x="18" y="271">
2.0
</text>
<path stroke="white" stroke-dasharray="1,2" d="M50 214l924 0"/>
<text stroke="none" fill="white" font-size="16" x="18" y="222">
2.5
</text>
<path stroke="white" stroke-dasharray="1,2" d="M50 165l924 0"/>
<text stroke="none" fill="white" font-size="16" x="18" y="173">
3.0
</text>
<path stroke="white" stroke-dasharray="1,2" d="M50 116l924 0"/>
<text stroke="none" fill="white" font-size="16" x="18" y="124">
3.5
</text>
<path stroke="white" stroke-dasharray="1,2" d="M50 67l924 0"/>
<text stroke="none" fill="white" font-size="16" x="18" y="75">
4.0
</text>
<text stroke="none" fill="white" font-size="16" x="10" y="32">
     
</text>
<path stroke="red" d="M462 23l46 0"/>
<text stroke="none" fill="white" font-size="16" x="518" y="32">
x1.vsampled_p
</text>
<path stroke="red" d="M50 459l1 0 1 -7 0 -17 1 -15 0 -5 1 2M54 441l0 -42 1 -4 0 -15 1 -3 0 -3 1 -1 0 -1 1 -1 59 0M117 399l0 -28M117 399l1 19M118 442l0 -24M118 442l1 4M119 454l0 -8M119 454l1 1M120 456l0 -1M120 456l1 1 1 0 1 1 423 0 0 -24 1 -2"/>
<path stroke="red" d="M547 432l0 -27 1 -7 0 -4 2 -2 75 0 0 -14 1 -1 0 -6 1 0M627 372l0 -1M627 372l2 0M629 373l0 -1M629 373l4 0 0 -1 13 0M646 373l0 -1M646 373l13 0 0 -1 13 0M672 373l0 -1 1 0M673 373l0 -1M673 373l13 0 0 -1 12 0 1 1 0 -1M699 373l13 0"/>
<path stroke="red" d="M712 373l0 -1 13 0M725 373l0 -1M725 373l6 0 0 -5 1 0M732 370l0 -2M732 370l19 0M751 371l0 -1M751 371l1 0 0 -1 26 0M778 371l0 -1 7 0M785 372l0 -2M785 372l1 0 0 -1 5 0 0 -1M791 371l22 0M813 372l0 -1 18 0M831 372l0 -1 7 0 0 -1"/>
<path stroke="red" d="M838 371l6 0 0 -1M844 371l26 0 0 -1M870 371l27 0 0 -1M897 371l21 0M918 485l0 -114M918 477l1 -3 0 -9 1 -2 0 -3 1 -1 0 -1 53 0"/>
<path stroke="blue" d="M50 23l46 0"/>
<text stroke="none" fill="white" font-size="16" x="106" y="32">
x1.vsampled_n
</text>
<path stroke="blue" d="M50 459l1 0 1 -7 0 -17 1 -16 0 -5 1 2M54 441l0 -42 1 -4 0 -15 1 -3 0 -3 1 -1 0 -1 1 -1 59 0 0 -2 1 -13 0 -40 1 -8 0 -16 1 -3 0 -2 1 -2 1 0 0 -1 418 0M540 285l0 -1 27 0M567 286l0 -2 7 0M574 308l0 -24M574 308l1 6M575 324l0 -10"/>
<path stroke="blue" d="M575 324l1 4M576 329l0 -1M576 329l1 -1 16 0M593 329l0 -1 7 0M600 344l0 -16M600 344l1 5M601 351l0 -2M601 351l1 -1 17 0M619 351l0 -1 27 0M646 351l0 -1 7 0M653 359l0 -9M653 359l1 2M654 362l0 -1M654 362l1 -1 17 0M672 362l0 -1"/>
<path stroke="blue" d="M672 361l7 0M679 366l0 -5M679 366l1 1M680 368l0 -1 26 0M706 370l0 -3M706 370l6 0 0 -1 13 0M725 370l0 -1M725 370l13 0 0 -1 13 0M751 370l0 -1M751 370l1 0 0 -1M752 370l7 0M759 372l0 -2M759 371l159 0 0 -66 1 -3 0 -11 1 -2 0 -3"/>
<path stroke="blue" d="M920 286l1 -1 2 0 0 -1 13 0M936 286l0 -2 38 0"/>
<path stroke="#FFA500" d="M462 39l46 0"/>
<text stroke="none" fill="white" font-size="16" x="518" y="48">
x1.vsampled_p-x1.vsampled_n
</text>
<path stroke="#FFA500" d="M50 459l2 0M52 460l0 -1M52 460l2 0 0 -1 63 0M117 489l0 -30M117 489l1 32M118 585l0 -64M118 585l1 12M119 621l0 -24M119 621l1 4M120 628l0 -3M120 628l2 4 1 0 1 1 415 0 0 -1 1 1 0 -1 6 0M546 633l0 -24 1 -3 0 -26 1 -7 0 -4"/>
<path stroke="#FFA500" d="M548 569l1 -2 1 0 1 -1 3 0M554 567l0 -1M554 567l13 0 0 -2M567 566l7 0M574 567l0 -24 1 -6 0 -10 1 -4 0 -1 4 0M580 523l0 -1M580 523l13 0 0 -1 7 0 0 -15 1 -5 0 -3M601 500l1 0M602 501l0 -1M602 501l1 -1 3 0M606 501l0 -1M606 501l13 0"/>
<path stroke="#FFA500" d="M619 501l0 -1 6 0 0 -13 1 -2 0 -5 1 0M627 481l0 -1M627 481l19 0M646 482l0 -1 7 0 0 -8 1 -3 18 0M672 471l0 -1 7 0 0 -5 1 -1M680 465l0 -1M680 465l26 0 0 -4M706 462l25 0 0 -5M731 458l1 0M732 459l0 -1M732 459l1 1 5 0 0 -1"/>
<path stroke="#FFA500" d="M738 459l1 1 13 0 0 -1M752 460l7 0 0 -2 19 0M778 459l0 -1 7 0M785 460l0 -2M785 460l1 0 0 -1 27 0M813 460l0 -1 18 0M831 460l0 -1 7 0 0 -1M838 459l80 0M918 631l0 -172M918 631l1 0M919 632l0 -1M919 632l4 0M923 633l0 -1M923 633l13 0"/>
<path stroke="#FFA500" d="M936 633l0 -2M936 632l14 0M950 633l0 -1M950 633l24 0"/>
<path stroke="green" d="M50 39l46 0"/>
<text stroke="none" fill="white" font-size="16" x="106" y="48">
x1.sw_sample-2
</text>
<path stroke="green" d="M50 655l1 0 1 -10 0 -23 1 -21M53 618l0 -24M53 618l1 34M54 655l0 -3M54 655l63 0M117 662l0 -184 1 0M118 479l0 -1M118 479l421 0M539 656l0 -184M539 655l422 0M961 660l0 -182 1 0M962 479l0 -1M962 479l12 0"/>
<path stroke="#FFC0C5" d="M462 55l46 0"/>
<text stroke="none" fill="white" font-size="16" x="518" y="64">
x1.comp_out_p+2
</text>
<path stroke="#FFC0C5" d="M50 263l1 0 1 -10 0 -23 1 -20 0 -4M53 208l1 5M54 264l0 -51M54 261l1 2 725 0 0 -177M780 87l13 0M793 264l0 -187M793 263l14 0 0 -177 1 -1M808 87l0 -2M808 87l11 0M819 263l0 -184M819 263l41 0 0 -178M860 86l1 1 11 0M872 263l0 -185"/>
<path stroke="#FFC0C5" d="M872 263l14 0 1 -160 0 -17M887 87l11 0M898 264l0 -187M898 263l15 0 0 -178M913 87l12 0M925 264l0 -179M925 263l49 0"/>
<path stroke="#A52A2A" d="M50 55l46 0"/>
<text stroke="none" fill="white" font-size="16" x="106" y="64">
x1.comp_out_n-2
</text>
<path stroke="#A52A2A" d="M50 655l1 0 1 -10 0 -24 1 -20M53 602l0 -4M53 602l1 7M54 655l0 -46M54 655l487 0 1 1 0 -180M542 479l13 0M555 656l0 -187M555 655l13 0 0 -178M568 479l13 0 0 -8 1 176M582 656l0 -9M582 655l12 0M594 656l0 -180M594 478l1 1 13 0"/>
<path stroke="#A52A2A" d="M608 656l0 -184M608 655l13 0M621 656l0 -179M621 479l13 0M634 655l0 -186M634 655l13 0M647 657l0 -181M647 479l14 0M661 655l0 -186M661 655l12 0M673 656l0 -1M673 656l1 -87 0 -92M674 479l13 0M687 655l0 -186M687 655l13 0 0 -179"/>
<path stroke="#A52A2A" d="M700 479l13 0 0 -8 1 151M714 655l0 -33M714 655l13 0 0 -178M727 479l13 0M740 655l0 -186M740 655l13 0 0 -177 1 0M754 479l0 -1M754 479l12 0M766 655l0 -186M766 655l68 0 0 -177M834 479l11 0 0 -12 1 168M846 655l0 -20M846 655l91 0"/>
<path stroke="#A52A2A" d="M937 656l0 -1M937 656l1 -105 0 -75M938 479l13 0M951 656l0 -187M951 655l23 0"/>
</svg>
