<?xml version="1.0" standalone="yes"?>
<!DOCTYPE svg PUBLIC "-//W3C//DTD SVG 1.1//EN"
 "http://www.w3.org/Graphics/SVG/1.1/DTD/svg11.dtd">
<svg xmlns="http://www.w3.org/2000/svg" version="1.1"
  width="100%" height="100%" viewBox="0 0 1024 768"
  style="fill: none; font-family: Helvetica;
 font: Helvetica;
">

<!-- Creator: NGspice -->

<rect x="0" y="0" width="1024" height="768" fill="black" stroke="none"/>
<text stroke="none" fill="white" font-size="16" x="358" y="752">
time
</text>
<text stroke="none" fill="white" font-size="16" x="10" y="16">
tran1: run1501_vin0.419676
</text>
<path stroke="white" d="M50 704l0 -637"/>
<text stroke="none" fill="white" font-size="16" x="35" y="728">
0.0
</text>
<path stroke="white" stroke-dasharray="1,2" d="M182 704l0 -637"/>
<text stroke="none" fill="white" font-size="16" x="157" y="728">
100.0
</text>
<path stroke="white" stroke-dasharray="1,2" d="M314 704l0 -637"/>
<text stroke="none" fill="white" font-size="16" x="289" y="728">
200.0
</text>
<path stroke="white" stroke-dasharray="1,2" d="M446 704l0 -637"/>
<text stroke="none" fill="white" font-size="16" x="421" y="728">
300.0
</text>
<path stroke="white" stroke-dasharray="1,2" d="M578 704l0 -637"/>
<text stroke="none" fill="white" font-size="16" x="553" y="728">
400.0
</text>
<path stroke="white" stroke-dasharray="1,2" d="M710 704l0 -637"/>
<text stroke="none" fill="white" font-size="16" x="685" y="728">
500.0
</text>
<path stroke="white" stroke-dasharray="1,2" d="M842 704l0 -637"/>
<text stroke="none" fill="white" font-size="16" x="817" y="728">
600.0
</text>
<path stroke="white" stroke-dasharray="1,2" d="M974 704l0 -637"/>
<text stroke="none" fill="white" font-size="16" x="949" y="728">
700.0
</text>
<text stroke="none" fill="white" font-size="16" x="614" y="752">
ns
</text>
<path stroke="white" stroke-dasharray="1,2" d="M50 704l924 0"/>
<text stroke="none" fill="white" font-size="16" x="8" y="712">
-2.5
</text>
<path stroke="white" stroke-dasharray="1,2" d="M50 655l924 0"/>
<text stroke="none" fill="white" font-size="16" x="8" y="663">
-2.0
</text>
<path stroke="white" stroke-dasharray="1,2" d="M50 606l924 0"/>
<text stroke="none" fill="white" font-size="16" x="8" y="614">
-1.5
</text>
<path stroke="white" stroke-dasharray="1,2" d="M50 557l924 0"/>
<text stroke="none" fill="white" font-size="16" x="8" y="565">
-1.0
</text>
<path stroke="white" stroke-dasharray="1,2" d="M50 508l924 0"/>
<text stroke="none" fill="white" font-size="16" x="8" y="516">
-0.5
</text>
<path stroke="white" d="M50 459l924 0"/>
<text stroke="none" fill="white" font-size="16" x="18" y="467">
0.0
</text>
<path stroke="white" stroke-dasharray="1,2" d="M50 410l924 0"/>
<text stroke="none" fill="white" font-size="16" x="18" y="418">
0.5
</text>
<path stroke="white" stroke-dasharray="1,2" d="M50 361l924 0"/>
<text stroke="none" fill="white" font-size="16" x="18" y="369">
1.0
</text>
<path stroke="white" stroke-dasharray="1,2" d="M50 312l924 0"/>
<text stroke="none" fill="white" font-size="16" x="18" y="320">
1.5
</text>
<path stroke="white" stroke-dasharray="1,2" d="M50 263l924 0"/>
<text stroke="none" fill="white" font-size="16" x="18" y="271">
2.0
</text>
<path stroke="white" stroke-dasharray="1,2" d="M50 214l924 0"/>
<text stroke="none" fill="white" font-size="16" x="18" y="222">
2.5
</text>
<path stroke="white" stroke-dasharray="1,2" d="M50 165l924 0"/>
<text stroke="none" fill="white" font-size="16" x="18" y="173">
3.0
</text>
<path stroke="white" stroke-dasharray="1,2" d="M50 116l924 0"/>
<text stroke="none" fill="white" font-size="16" x="18" y="124">
3.5
</text>
<path stroke="white" stroke-dasharray="1,2" d="M50 67l924 0"/>
<text stroke="none" fill="white" font-size="16" x="18" y="75">
4.0
</text>
<text stroke="none" fill="white" font-size="16" x="10" y="32">
     
</text>
<path stroke="red" d="M462 23l46 0"/>
<text stroke="none" fill="white" font-size="16" x="518" y="32">
x1.vsampled_p
</text>
<path stroke="red" d="M50 459l1 0 1 -7 0 -17 1 -16 0 -5 1 2M54 441l0 -42 1 -6 0 -14 1 -3 0 -2 1 -2 1 0 0 -1 59 0 0 -1 1 -10 0 -18 1 -4 0 -5 1 -2 1 -1 419 0M540 331l0 -1 14 0 0 -1M554 330l13 0M567 331l0 -1 7 0M574 358l0 -28M574 358l1 5M575 373l0 -10"/>
<path stroke="red" d="M575 373l1 1 49 0 1 -1 0 -16 1 -1 0 -1 6 0 0 -1M633 355l20 0M653 364l0 -9M653 364l1 2 5 0 0 -1M659 366l20 0M679 370l0 -4M679 370l1 1M680 373l0 -2 19 0M699 372l0 -1 26 0M725 372l0 -1 7 0 0 -3 1 0M733 369l0 -1M733 369l26 0"/>
<path stroke="red" d="M759 371l0 -2M759 370l19 0M778 371l0 -1 7 0 1 1 133 0M919 373l0 -7 1 -1 0 -16 1 -3 0 -8 1 -1 0 -4 1 -1 0 -2M923 331l1 0 0 -1 12 0M936 331l0 -1 14 0 0 -1M950 330l24 0"/>
<path stroke="blue" d="M50 23l46 0"/>
<text stroke="none" fill="white" font-size="16" x="106" y="32">
x1.vsampled_n
</text>
<path stroke="blue" d="M50 459l1 0 1 -7 0 -17 1 -15 0 -5 1 2M54 441l0 -42 1 -6 0 -14 1 -3 0 -2 1 -2 1 0 0 -1 59 0M117 379l0 -8M117 379l1 11M118 403l0 -13M118 403l1 3M119 410l0 -4M119 410l1 1 1 0M121 412l0 -1M121 412l425 0 0 -22 1 -4 0 -28 1 -2"/>
<path stroke="blue" d="M548 356l0 -7 1 -2 1 0 0 -1 4 0 0 -1M554 346l13 0M567 347l0 -1 26 0M593 347l0 -1 7 0M600 367l0 -21M600 367l1 2M601 375l0 -6M601 372l1 -2 0 -1 1 -1 16 0M619 369l0 -1 27 0M646 369l0 -1 26 0M672 369l0 -1 27 0M699 369l0 -1"/>
<path stroke="blue" d="M699 368l7 0M706 372l0 -4M706 372l1 0 0 -1 106 0M813 372l0 -1 18 0M831 372l0 -1 7 0 0 -1M838 371l81 0M919 378l0 -10M919 378l1 2M920 405l0 -25M920 405l1 5M921 414l0 -4M921 414l1 0 0 -1 1 0 0 -1 51 0"/>
<path stroke="#FFA500" d="M462 39l46 0"/>
<text stroke="none" fill="white" font-size="16" x="518" y="48">
x1.vsampled_p-x1.vsampled_n
</text>
<path stroke="#FFA500" d="M50 459l2 0 1 -1 1 0M54 459l0 -1M54 459l63 0 0 -9 1 -21 0 -32 1 -7 0 -8 2 -4 0 -1 419 0M540 378l0 -1 6 0M546 399l0 -22M546 399l1 4M547 431l0 -28M547 431l1 2M548 440l0 -7M548 440l1 2 1 0M550 443l0 -1M550 443l17 0 0 -1"/>
<path stroke="#FFA500" d="M567 443l7 0M574 471l0 -28M574 471l1 4M575 486l0 -11M575 486l1 0M576 487l0 -1M576 487l17 0 0 -1M593 487l7 0 0 -21 1 -2 0 -6M601 461l1 2M602 464l0 -1M602 464l1 1 22 0 1 -1 0 -16 1 -1 0 -1 6 0 0 -1M633 446l13 0 0 -1M646 446l7 0"/>
<path stroke="#FFA500" d="M653 454l0 -8M653 454l1 3 18 0 0 -1M672 457l7 0M679 461l0 -4M679 461l1 1M680 463l0 -1 26 0 0 -4 1 1 25 0 0 -3 1 1 26 0M759 459l0 -2M759 458l26 0 1 1M786 460l0 -1 27 0 0 -1M813 459l106 0M919 463l0 -16 1 -3 0 -40 1 -9"/>
<path stroke="#FFA500" d="M921 395l0 -12 1 0 0 -4 1 0 0 -2 13 0M936 378l0 -1 14 0 0 -1M950 377l24 0"/>
<path stroke="green" d="M50 39l46 0"/>
<text stroke="none" fill="white" font-size="16" x="106" y="48">
x1.sw_sample-2
</text>
<path stroke="green" d="M50 655l1 0 1 -10 0 -23 1 -21M53 620l0 -26M53 620l1 32M54 655l0 -3M54 655l63 0M117 662l0 -184 1 0M118 479l0 -1M118 479l421 0M539 656l0 -184M539 655l422 0M961 660l0 -182 1 0M962 479l0 -1M962 479l12 0"/>
<path stroke="#FFC0C5" d="M462 55l46 0"/>
<text stroke="none" fill="white" font-size="16" x="518" y="64">
x1.comp_out_p+2
</text>
<path stroke="#FFC0C5" d="M50 263l1 0 1 -10 0 -23 1 -20 0 -4M53 209l1 4M54 263l0 -50M54 263l488 0 0 -178M542 87l13 0M555 264l0 -181M555 263l13 0M568 265l0 -180M568 87l13 0 0 -10 1 173M582 263l0 -13M582 263l65 0 0 -178M647 87l14 0M661 264l0 -184"/>
<path stroke="#FFC0C5" d="M661 263l12 0 1 3 0 -181M674 87l13 0M687 263l0 -185M687 263l66 0 0 -178M753 87l13 0M766 263l0 -185M766 263l14 0 0 -177M780 87l13 0M793 263l0 -185M793 263l41 0 0 -177M834 87l11 0 0 -9 1 158M846 263l0 -27M846 263l91 0"/>
<path stroke="#FFC0C5" d="M937 263l1 -49 0 -129M938 87l13 0M951 264l0 -183M951 263l23 0"/>
<path stroke="#A52A2A" d="M50 55l46 0"/>
<text stroke="none" fill="white" font-size="16" x="106" y="64">
x1.comp_out_n-2
</text>
<path stroke="#A52A2A" d="M50 655l1 0 1 -10 0 -24 1 -20M53 602l0 -3M53 602l1 7M54 655l0 -46M54 654l1 1 539 0M594 656l0 -180M594 478l1 1 13 0M608 656l0 -187M608 655l13 0M621 658l0 -182M621 479l13 0M634 656l0 -187M634 655l66 0M700 656l0 -180M700 479l13 0"/>
<path stroke="#A52A2A" d="M713 479l0 -12 1 167M714 655l0 -21M714 655l14 0 0 -177M728 479l12 0M740 656l0 -186M740 655l67 0 1 -160 0 -17M808 479l11 0M819 655l0 -186M819 655l41 0 0 -177 1 0M861 479l0 -1M861 479l11 0M872 655l0 -186M872 655l15 0 1 -168"/>
<path stroke="#A52A2A" d="M888 487l0 -9M888 479l10 0M898 655l0 -186M898 655l16 0M914 656l0 -178M914 479l11 0M925 655l0 -186M925 655l49 0"/>
</svg>
