<?xml version="1.0" standalone="yes"?>
<!DOCTYPE svg PUBLIC "-//W3C//DTD SVG 1.1//EN"
 "http://www.w3.org/Graphics/SVG/1.1/DTD/svg11.dtd">
<svg xmlns="http://www.w3.org/2000/svg" version="1.1"
  width="100%" height="100%" viewBox="0 0 1024 768"
  style="fill: none; font-family: Helvetica;
 font: Helvetica;
">

<!-- Creator: NGspice -->

<rect x="0" y="0" width="1024" height="768" fill="black" stroke="none"/>
<text stroke="none" fill="white" font-size="16" x="358" y="752">
time
</text>
<text stroke="none" fill="white" font-size="16" x="10" y="16">
tran1: run1129_vin0.0927232
</text>
<path stroke="white" d="M50 704l0 -637"/>
<text stroke="none" fill="white" font-size="16" x="35" y="728">
0.0
</text>
<path stroke="white" stroke-dasharray="1,2" d="M182 704l0 -637"/>
<text stroke="none" fill="white" font-size="16" x="157" y="728">
100.0
</text>
<path stroke="white" stroke-dasharray="1,2" d="M314 704l0 -637"/>
<text stroke="none" fill="white" font-size="16" x="289" y="728">
200.0
</text>
<path stroke="white" stroke-dasharray="1,2" d="M446 704l0 -637"/>
<text stroke="none" fill="white" font-size="16" x="421" y="728">
300.0
</text>
<path stroke="white" stroke-dasharray="1,2" d="M578 704l0 -637"/>
<text stroke="none" fill="white" font-size="16" x="553" y="728">
400.0
</text>
<path stroke="white" stroke-dasharray="1,2" d="M710 704l0 -637"/>
<text stroke="none" fill="white" font-size="16" x="685" y="728">
500.0
</text>
<path stroke="white" stroke-dasharray="1,2" d="M842 704l0 -637"/>
<text stroke="none" fill="white" font-size="16" x="817" y="728">
600.0
</text>
<path stroke="white" stroke-dasharray="1,2" d="M974 704l0 -637"/>
<text stroke="none" fill="white" font-size="16" x="949" y="728">
700.0
</text>
<text stroke="none" fill="white" font-size="16" x="614" y="752">
ns
</text>
<path stroke="white" stroke-dasharray="1,2" d="M50 704l924 0"/>
<text stroke="none" fill="white" font-size="16" x="8" y="712">
-3.0
</text>
<path stroke="white" stroke-dasharray="1,2" d="M50 613l924 0"/>
<text stroke="none" fill="white" font-size="16" x="8" y="621">
-2.0
</text>
<path stroke="white" stroke-dasharray="1,2" d="M50 522l924 0"/>
<text stroke="none" fill="white" font-size="16" x="8" y="530">
-1.0
</text>
<path stroke="white" d="M50 431l924 0"/>
<text stroke="none" fill="white" font-size="16" x="18" y="439">
0.0
</text>
<path stroke="white" stroke-dasharray="1,2" d="M50 340l924 0"/>
<text stroke="none" fill="white" font-size="16" x="18" y="348">
1.0
</text>
<path stroke="white" stroke-dasharray="1,2" d="M50 249l924 0"/>
<text stroke="none" fill="white" font-size="16" x="18" y="257">
2.0
</text>
<path stroke="white" stroke-dasharray="1,2" d="M50 158l924 0"/>
<text stroke="none" fill="white" font-size="16" x="18" y="166">
3.0
</text>
<path stroke="white" stroke-dasharray="1,2" d="M50 67l924 0"/>
<text stroke="none" fill="white" font-size="16" x="18" y="75">
4.0
</text>
<text stroke="none" fill="white" font-size="16" x="10" y="32">
     
</text>
<path stroke="red" d="M462 23l46 0"/>
<text stroke="none" fill="white" font-size="16" x="518" y="32">
x1.vsampled_p
</text>
<path stroke="red" d="M50 431l1 0 1 -7 0 -15 1 -15 0 -4 1 1M54 415l0 -39 1 -5 0 -15 1 -2 0 -2 1 -2 2 0 1 -1 4 0M64 350l0 -1M64 350l4 0 1 -1 48 0 1 -3 0 -2 1 -2 0 -1 435 0 0 -1M554 341l26 0 0 -1M580 341l99 0M679 347l0 -6M679 347l1 1 0 -2 26 0"/>
<path stroke="red" d="M706 350l0 -4M706 349l6 0 0 -1 13 0M725 349l0 -1M725 349l13 0 0 -1 13 0M751 349l0 -1M751 349l1 0 0 -1M752 349l13 0 0 -1 13 0M778 349l0 -1M778 349l7 0 1 1 0 -1 18 0M804 350l0 -1 27 0M831 350l0 -1 26 0M857 350l0 -1 26 0M883 350l0 -1"/>
<path stroke="red" d="M883 349l27 0M910 350l0 -1 8 0 0 -8 1 -1 1 1 54 0"/>
<path stroke="blue" d="M50 23l46 0"/>
<text stroke="none" fill="white" font-size="16" x="106" y="32">
x1.vsampled_n
</text>
<path stroke="blue" d="M50 431l1 0 1 -7 0 -15 1 -14 0 -5 1 2M54 415l0 -39 1 -5 0 -15 1 -2 0 -2 1 -2 2 0 1 -1 4 0M64 350l0 -1M64 350l4 0 1 -1 48 0M117 350l0 -1M117 350l1 3M118 355l0 -2M118 355l1 1M119 357l0 -1M119 357l2 0 1 1 424 0 0 -24 1 -1"/>
<path stroke="blue" d="M547 333l0 -27 1 -4 0 -3 1 -1 0 -1 5 0 0 -1 12 0 1 1M567 298l0 -2M567 297l7 0M574 325l0 -28M574 325l1 8M575 339l0 -6M575 339l1 0 0 -1 2 0 0 -1 15 0M593 338l0 -1 7 0M600 353l0 -16M600 353l1 2M601 361l0 -6M601 360l1 -1 0 -1"/>
<path stroke="blue" d="M602 358l23 0 0 -9 1 -2 0 -7 7 0 0 -1M633 340l20 0M653 348l0 -8M653 348l1 2M654 352l0 -2M654 351l1 -1 76 0 0 -3 1 0M732 348l0 -1M732 348l27 0M759 350l0 -2M759 349l54 0M813 350l0 -1 17 0 1 1 0 -1 87 0M918 360l0 -11M918 360l1 1"/>
<path stroke="blue" d="M919 361l0 -3 43 0 0 -1 1 0M963 358l0 -1M963 358l11 0"/>
<path stroke="#FFA500" d="M462 39l46 0"/>
<text stroke="none" fill="white" font-size="16" x="518" y="48">
x1.vsampled_p-x1.vsampled_n
</text>
<path stroke="#FFA500" d="M50 431l67 0 0 -1 1 -6 0 -4 1 -3 0 -2 1 0 1 -1 425 0M546 438l0 -24M546 438l1 1M547 465l0 -26M547 465l1 5M548 472l0 -2M548 472l1 2M549 475l0 -1M549 475l5 0M554 476l0 -1 12 0M566 476l0 -1 1 0M567 476l0 -2M567 475l7 0 0 -28"/>
<path stroke="#FFA500" d="M574 447l1 -8 0 -6 1 0M576 434l0 -1M576 434l2 0M578 435l0 -1M578 435l15 0 0 -1M593 435l7 0 0 -16 1 -2 0 -6M601 412l1 1M602 414l0 -1M602 414l17 0M619 415l0 -1 6 0M625 423l0 -9M625 423l1 2M626 432l0 -7M626 432l27 0 0 -9"/>
<path stroke="#FFA500" d="M653 423l1 -2 0 -1M654 421l1 0M655 422l0 -1M655 422l24 0M679 427l0 -5M679 427l1 2 0 -2 26 0M706 430l0 -3M706 430l2 0 1 -1 16 0M725 430l0 -1 6 0M731 433l0 -4M731 433l1 0 0 -1 27 0 0 -3M759 430l26 0M785 431l0 -1M785 431l1 0"/>
<path stroke="#FFA500" d="M786 432l0 -1 27 0 0 -1M813 431l105 0 0 -19 1 -1M919 413l0 -3M919 413l1 1 16 0M936 415l0 -1 38 0"/>
<path stroke="green" d="M50 39l46 0"/>
<text stroke="none" fill="white" font-size="16" x="106" y="48">
x1.sw_sample-2
</text>
<path stroke="green" d="M50 613l1 0 1 -9 0 -21 1 -21M53 581l0 -25M53 581l1 29M54 613l0 -3M54 613l63 0M117 620l0 -172M117 449l422 0M539 614l0 -171M539 613l422 0M961 618l0 -170 1 1 12 0"/>
<path stroke="#FFC0C5" d="M462 55l46 0"/>
<text stroke="none" fill="white" font-size="16" x="518" y="64">
x1.comp_out_p+2
</text>
<path stroke="#FFC0C5" d="M50 249l1 0 1 -9 0 -22 1 -18 0 -4M53 198l1 5M54 249l0 -46M54 249l488 0 0 -166M542 85l13 0M555 249l0 -172M555 249l66 0M621 253l0 -170M621 85l13 0M634 250l0 -171M634 249l39 0M673 251l0 -2M673 251l1 -87 0 -81M674 85l13 0"/>
<path stroke="#FFC0C5" d="M687 249l0 -172M687 249l13 0 0 -166M700 85l13 0 0 -8 1 161M714 250l0 -12M714 249l13 0 0 -165M727 85l13 0M740 249l0 -173M740 249l40 0 0 -165M780 85l13 0M793 249l0 -166M793 249l41 0 0 -165M834 85l11 0 0 -2M845 85l1 150"/>
<path stroke="#FFC0C5" d="M846 249l0 -14M846 249l91 0 1 3 0 -168M938 85l13 0M951 249l0 -172M951 249l23 0"/>
<path stroke="#A52A2A" d="M50 55l46 0"/>
<text stroke="none" fill="white" font-size="16" x="106" y="64">
x1.comp_out_n-2
</text>
<path stroke="#A52A2A" d="M50 613l1 0 1 -9 0 -22 1 -19M53 564l0 -3M53 564l1 6M54 613l0 -43M54 613l514 0 0 -165M568 449l13 0 0 -9 1 145M582 613l0 -28M582 613l12 0M594 615l0 -168M594 448l1 1 13 0M608 613l0 -167M608 613l39 0M647 619l0 -172M647 449l14 0"/>
<path stroke="#A52A2A" d="M661 613l0 -174M661 613l92 0 0 -165 1 1 12 0M766 614l0 -170M766 613l41 0 0 -152 1 -13M808 449l0 -1M808 449l11 0M819 613l0 -169M819 613l41 0 0 -165 1 1 11 0M872 613l0 -174M872 613l15 0 0 -165M887 449l11 0M898 613l0 -174"/>
<path stroke="#A52A2A" d="M898 613l15 0 0 -165M913 449l12 0M925 613l0 -171M925 613l49 0"/>
</svg>
