<?xml version="1.0" standalone="yes"?>
<!DOCTYPE svg PUBLIC "-//W3C//DTD SVG 1.1//EN"
 "http://www.w3.org/Graphics/SVG/1.1/DTD/svg11.dtd">
<svg xmlns="http://www.w3.org/2000/svg" version="1.1"
  width="100%" height="100%" viewBox="0 0 1024 768"
  style="fill: none; font-family: Helvetica;
 font: Helvetica;
">

<!-- Creator: NGspice -->

<rect x="0" y="0" width="1024" height="768" fill="black" stroke="none"/>
<text stroke="none" fill="white" font-size="16" x="358" y="752">
time
</text>
<text stroke="none" fill="white" font-size="16" x="10" y="16">
tran1: run942_vin-0.071632
</text>
<path stroke="white" d="M50 704l0 -637"/>
<text stroke="none" fill="white" font-size="16" x="35" y="728">
0.0
</text>
<path stroke="white" stroke-dasharray="1,2" d="M182 704l0 -637"/>
<text stroke="none" fill="white" font-size="16" x="157" y="728">
100.0
</text>
<path stroke="white" stroke-dasharray="1,2" d="M314 704l0 -637"/>
<text stroke="none" fill="white" font-size="16" x="289" y="728">
200.0
</text>
<path stroke="white" stroke-dasharray="1,2" d="M446 704l0 -637"/>
<text stroke="none" fill="white" font-size="16" x="421" y="728">
300.0
</text>
<path stroke="white" stroke-dasharray="1,2" d="M578 704l0 -637"/>
<text stroke="none" fill="white" font-size="16" x="553" y="728">
400.0
</text>
<path stroke="white" stroke-dasharray="1,2" d="M710 704l0 -637"/>
<text stroke="none" fill="white" font-size="16" x="685" y="728">
500.0
</text>
<path stroke="white" stroke-dasharray="1,2" d="M842 704l0 -637"/>
<text stroke="none" fill="white" font-size="16" x="817" y="728">
600.0
</text>
<path stroke="white" stroke-dasharray="1,2" d="M974 704l0 -637"/>
<text stroke="none" fill="white" font-size="16" x="949" y="728">
700.0
</text>
<text stroke="none" fill="white" font-size="16" x="614" y="752">
ns
</text>
<path stroke="white" stroke-dasharray="1,2" d="M50 704l924 0"/>
<text stroke="none" fill="white" font-size="16" x="8" y="712">
-3.0
</text>
<path stroke="white" stroke-dasharray="1,2" d="M50 613l924 0"/>
<text stroke="none" fill="white" font-size="16" x="8" y="621">
-2.0
</text>
<path stroke="white" stroke-dasharray="1,2" d="M50 522l924 0"/>
<text stroke="none" fill="white" font-size="16" x="8" y="530">
-1.0
</text>
<path stroke="white" d="M50 431l924 0"/>
<text stroke="none" fill="white" font-size="16" x="18" y="439">
0.0
</text>
<path stroke="white" stroke-dasharray="1,2" d="M50 340l924 0"/>
<text stroke="none" fill="white" font-size="16" x="18" y="348">
1.0
</text>
<path stroke="white" stroke-dasharray="1,2" d="M50 249l924 0"/>
<text stroke="none" fill="white" font-size="16" x="18" y="257">
2.0
</text>
<path stroke="white" stroke-dasharray="1,2" d="M50 158l924 0"/>
<text stroke="none" fill="white" font-size="16" x="18" y="166">
3.0
</text>
<path stroke="white" stroke-dasharray="1,2" d="M50 67l924 0"/>
<text stroke="none" fill="white" font-size="16" x="18" y="75">
4.0
</text>
<text stroke="none" fill="white" font-size="16" x="10" y="32">
     
</text>
<path stroke="red" d="M462 23l46 0"/>
<text stroke="none" fill="white" font-size="16" x="518" y="32">
x1.vsampled_p
</text>
<path stroke="red" d="M50 431l1 0 1 -7 0 -15 1 -14 0 -5 1 2M54 415l0 -39 1 -5 0 -15 1 -2 0 -2 1 -2 2 0 1 -1 4 0M64 350l0 -1M64 350l4 0 1 -1 48 0M117 350l0 -1M117 350l1 2M118 353l0 -1M118 353l1 2 1 0 1 1 425 0 0 -21 1 -1 0 -29 1 -5 0 -2 1 -2 0 -1"/>
<path stroke="red" d="M549 295l5 0 0 -1 12 0 1 1M567 296l0 -1 7 0M574 323l0 -28M574 323l1 8M575 337l0 -6M575 337l1 0 1 -1 1 0 0 -1 15 0M593 336l0 -1 7 0M600 349l0 -14M600 349l1 3M601 359l0 -7M601 358l1 -1 0 -1 23 0 0 -7 1 -3 0 -8 27 0M653 348l0 -10"/>
<path stroke="red" d="M653 348l1 2 0 -1 1 -1 17 0M672 349l0 -1 27 0M699 349l0 -1 26 0M725 349l0 -1 26 0M751 349l0 -1 9 0M760 351l0 -3M760 350l1 0 0 -1 17 0M778 350l0 -1 26 0M804 350l0 -1 26 0 1 1 0 -1 87 0M918 357l0 -8M918 357l1 1M919 359l0 -3"/>
<path stroke="red" d="M919 356l55 0"/>
<path stroke="blue" d="M50 23l46 0"/>
<text stroke="none" fill="white" font-size="16" x="106" y="32">
x1.vsampled_n
</text>
<path stroke="blue" d="M50 431l1 0 1 -7 0 -15 1 -15 0 -4 1 1M54 415l0 -39 1 -5 0 -15 1 -2 0 -2 1 -2 2 0 1 -1 4 0M64 350l0 -1M64 350l4 0 1 -1 48 0 1 -2 0 -2 1 -1 0 -1 435 0 0 -1M554 343l26 0 0 -1M580 343l26 0 0 -1 1 1 26 0 0 -1M633 343l26 0 0 -1"/>
<path stroke="blue" d="M659 343l20 0M679 350l0 -7M679 350l1 0 0 -2 26 0M706 351l0 -3M706 351l2 0 0 -1 17 0M725 351l0 -1 6 0 0 -2 1 -1M732 348l0 -1M732 348l19 0M751 349l0 -1 27 0M778 349l0 -1 7 0M785 349l0 -1M785 349l27 0M812 350l0 -1 19 0M831 350l0 -1"/>
<path stroke="blue" d="M831 349l26 0M857 350l0 -1 26 0M883 350l0 -1 27 0M910 350l0 -1 8 0 0 -5 1 -1 0 -1 1 0M920 343l0 -1M920 343l3 0 0 -1M923 343l27 0 0 -1M950 343l24 0"/>
<path stroke="#FFA500" d="M462 39l46 0"/>
<text stroke="none" fill="white" font-size="16" x="518" y="48">
x1.vsampled_p-x1.vsampled_n
</text>
<path stroke="#FFA500" d="M50 431l67 0M117 432l0 -1M117 432l1 4M118 439l0 -3M118 439l1 3M119 443l0 -1M119 443l1 1 426 0 0 -20 1 -2 0 -29 1 -5 0 -2 1 -2 1 -1 4 0 0 -1M554 383l13 0M567 384l0 -1 7 0M574 412l0 -29M574 412l1 7M575 425l0 -6M575 425l1 1"/>
<path stroke="#FFA500" d="M576 426l0 -1 1 -1 3 0 0 -1M580 424l13 0 0 -1M593 424l7 0M600 437l0 -13M600 437l1 3M601 447l0 -7M601 447l1 -2 1 -1 22 0 0 -6 1 -4 0 -8 27 0M653 436l0 -10M653 436l1 2 0 -1 1 0 0 -1 17 0M672 437l0 -1 7 0 0 -6 1 -1M680 431l0 -2"/>
<path stroke="#FFA500" d="M680 431l26 0 0 -3 1 0M707 429l0 -1M707 429l24 0M731 432l0 -3M731 432l1 0 0 -1 28 0M760 433l0 -2M760 432l25 0 0 -1 1 0M786 432l0 -1M786 432l26 0 0 -1 106 0M918 444l0 -13M918 444l1 2M919 447l0 -2 1 0 0 -1 54 0"/>
<path stroke="green" d="M50 39l46 0"/>
<text stroke="none" fill="white" font-size="16" x="106" y="48">
x1.sw_sample-2
</text>
<path stroke="green" d="M50 613l1 0 1 -9 0 -21 1 -21M53 582l0 -26M53 582l1 28M54 613l0 -3M54 613l63 0M117 620l0 -172M117 449l422 0M539 614l0 -171M539 613l422 0M961 618l0 -170 1 1 12 0"/>
<path stroke="#FFC0C5" d="M462 55l46 0"/>
<text stroke="none" fill="white" font-size="16" x="518" y="64">
x1.comp_out_p+2
</text>
<path stroke="#FFC0C5" d="M50 249l1 0 1 -9 0 -22 1 -18 0 -4M53 198l1 5M54 249l0 -46M54 249l514 0M568 250l0 -166M568 85l13 0 0 -8 1 150M582 249l0 -22M582 249l12 0 0 -165M594 85l14 0M608 249l0 -167M608 249l39 0 0 -165M647 85l14 0M661 249l0 -171"/>
<path stroke="#FFC0C5" d="M661 249l66 0 0 -165M727 85l13 0M740 250l0 -173M740 249l14 0 0 -165 1 1 11 0M766 250l0 -173M766 249l94 0 0 -164 1 -1M861 85l0 -1M861 85l11 0M872 249l0 -174M872 249l14 0 1 -157 0 -8M887 85l11 0M898 250l0 -172M898 249l15 0"/>
<path stroke="#FFC0C5" d="M913 249l0 -165M913 85l12 0M925 250l0 -169M925 249l49 0"/>
<path stroke="#A52A2A" d="M50 55l46 0"/>
<text stroke="none" fill="white" font-size="16" x="106" y="64">
x1.comp_out_n-2
</text>
<path stroke="#A52A2A" d="M50 613l1 0 1 -9 0 -22 1 -19M53 564l0 -3M53 564l1 6M54 613l0 -43M54 613l488 0M542 615l0 -168M542 449l13 0M555 614l0 -173M555 613l13 0M568 614l0 -1 53 0M621 615l0 -168M621 449l13 0M634 613l0 -171M634 613l40 0 0 -166M674 449l13 0"/>
<path stroke="#A52A2A" d="M687 614l0 -174M687 613l13 0 0 -149 1 -15 0 -1M701 449l12 0 0 -8 1 156M714 613l0 -16M714 613l66 0 0 -165M780 449l13 0M793 613l0 -167M793 613l13 0 1 -157 0 -8M807 449l12 0M819 613l0 -174M819 613l15 0 0 -165M834 449l11 0"/>
<path stroke="#A52A2A" d="M845 449l0 -2M845 449l1 153M846 613l0 -11M846 613l91 0 1 4 0 -170M938 449l13 0M951 613l0 -174M951 613l23 0"/>
</svg>
