<?xml version="1.0" standalone="yes"?>
<!DOCTYPE svg PUBLIC "-//W3C//DTD SVG 1.1//EN"
 "http://www.w3.org/Graphics/SVG/1.1/DTD/svg11.dtd">
<svg xmlns="http://www.w3.org/2000/svg" version="1.1"
  width="100%" height="100%" viewBox="0 0 1024 768"
  style="fill: none; font-family: Helvetica;
 font: Helvetica;
">

<!-- Creator: NGspice -->

<rect x="0" y="0" width="1024" height="768" fill="black" stroke="none"/>
<text stroke="none" fill="white" font-size="16" x="358" y="752">
time
</text>
<text stroke="none" fill="white" font-size="16" x="10" y="16">
tran1: run943_vin-0.0707531
</text>
<path stroke="white" d="M50 704l0 -637"/>
<text stroke="none" fill="white" font-size="16" x="35" y="728">
0.0
</text>
<path stroke="white" stroke-dasharray="1,2" d="M182 704l0 -637"/>
<text stroke="none" fill="white" font-size="16" x="157" y="728">
100.0
</text>
<path stroke="white" stroke-dasharray="1,2" d="M314 704l0 -637"/>
<text stroke="none" fill="white" font-size="16" x="289" y="728">
200.0
</text>
<path stroke="white" stroke-dasharray="1,2" d="M446 704l0 -637"/>
<text stroke="none" fill="white" font-size="16" x="421" y="728">
300.0
</text>
<path stroke="white" stroke-dasharray="1,2" d="M578 704l0 -637"/>
<text stroke="none" fill="white" font-size="16" x="553" y="728">
400.0
</text>
<path stroke="white" stroke-dasharray="1,2" d="M710 704l0 -637"/>
<text stroke="none" fill="white" font-size="16" x="685" y="728">
500.0
</text>
<path stroke="white" stroke-dasharray="1,2" d="M842 704l0 -637"/>
<text stroke="none" fill="white" font-size="16" x="817" y="728">
600.0
</text>
<path stroke="white" stroke-dasharray="1,2" d="M974 704l0 -637"/>
<text stroke="none" fill="white" font-size="16" x="949" y="728">
700.0
</text>
<text stroke="none" fill="white" font-size="16" x="614" y="752">
ns
</text>
<path stroke="white" stroke-dasharray="1,2" d="M50 704l924 0"/>
<text stroke="none" fill="white" font-size="16" x="8" y="712">
-2.5
</text>
<path stroke="white" stroke-dasharray="1,2" d="M50 655l924 0"/>
<text stroke="none" fill="white" font-size="16" x="8" y="663">
-2.0
</text>
<path stroke="white" stroke-dasharray="1,2" d="M50 606l924 0"/>
<text stroke="none" fill="white" font-size="16" x="8" y="614">
-1.5
</text>
<path stroke="white" stroke-dasharray="1,2" d="M50 557l924 0"/>
<text stroke="none" fill="white" font-size="16" x="8" y="565">
-1.0
</text>
<path stroke="white" stroke-dasharray="1,2" d="M50 508l924 0"/>
<text stroke="none" fill="white" font-size="16" x="8" y="516">
-0.5
</text>
<path stroke="white" d="M50 459l924 0"/>
<text stroke="none" fill="white" font-size="16" x="18" y="467">
0.0
</text>
<path stroke="white" stroke-dasharray="1,2" d="M50 410l924 0"/>
<text stroke="none" fill="white" font-size="16" x="18" y="418">
0.5
</text>
<path stroke="white" stroke-dasharray="1,2" d="M50 361l924 0"/>
<text stroke="none" fill="white" font-size="16" x="18" y="369">
1.0
</text>
<path stroke="white" stroke-dasharray="1,2" d="M50 312l924 0"/>
<text stroke="none" fill="white" font-size="16" x="18" y="320">
1.5
</text>
<path stroke="white" stroke-dasharray="1,2" d="M50 263l924 0"/>
<text stroke="none" fill="white" font-size="16" x="18" y="271">
2.0
</text>
<path stroke="white" stroke-dasharray="1,2" d="M50 214l924 0"/>
<text stroke="none" fill="white" font-size="16" x="18" y="222">
2.5
</text>
<path stroke="white" stroke-dasharray="1,2" d="M50 165l924 0"/>
<text stroke="none" fill="white" font-size="16" x="18" y="173">
3.0
</text>
<path stroke="white" stroke-dasharray="1,2" d="M50 116l924 0"/>
<text stroke="none" fill="white" font-size="16" x="18" y="124">
3.5
</text>
<path stroke="white" stroke-dasharray="1,2" d="M50 67l924 0"/>
<text stroke="none" fill="white" font-size="16" x="18" y="75">
4.0
</text>
<text stroke="none" fill="white" font-size="16" x="10" y="32">
     
</text>
<path stroke="red" d="M462 23l46 0"/>
<text stroke="none" fill="white" font-size="16" x="518" y="32">
x1.vsampled_p
</text>
<path stroke="red" d="M50 459l1 0 1 -7 0 -17 1 -15 0 -5 1 1M54 442l0 -42 1 -6 0 -16 1 -2 0 -3 1 -1 1 0 0 -1 59 0M117 372l0 -1M117 372l1 2M118 375l0 -1M118 375l1 2 1 1 426 0 0 -30 1 -3 0 -19 1 -6 0 -6 2 -2 4 0 0 -1M554 312l13 0M567 314l0 -2 7 0"/>
<path stroke="red" d="M574 345l0 -33M574 345l1 8M575 358l0 -5M575 358l1 0 0 -1 1 0 0 -1 16 0M593 357l0 -1 7 0M600 371l0 -15M600 371l1 3M601 382l0 -8M601 380l1 -1 0 -1 23 0 0 -10 1 -1 0 -8 1 0 0 -1 1 0M628 359l0 -1M628 359l5 0 0 -1M633 359l20 0"/>
<path stroke="red" d="M653 369l0 -10M653 369l1 2 1 -1 4 0 0 -1M659 370l27 0 0 -1M686 370l20 0 1 1M707 374l0 -3M707 373l1 0 0 -1 17 0M725 373l0 -1 6 0 0 -3 1 0M732 370l0 -1M732 370l53 0M785 371l0 -1M785 371l27 0M812 372l0 -1 26 0 0 -1M838 371l79 0"/>
<path stroke="red" d="M917 372l0 -1M917 372l1 0M918 380l0 -8M918 379l1 -1 55 0"/>
<path stroke="blue" d="M50 23l46 0"/>
<text stroke="none" fill="white" font-size="16" x="106" y="32">
x1.vsampled_n
</text>
<path stroke="blue" d="M50 459l1 0 1 -7 0 -17 1 -15 0 -5 1 1M54 442l0 -42 1 -6 0 -16 1 -2 0 -3 1 -1 1 0 0 -1 59 0 1 -3 0 -2 1 -1 0 -1 421 0M540 365l0 -1 27 0M567 365l0 -1 26 0M593 365l0 -1 26 0M619 365l0 -1 27 0M646 365l0 -1 26 0M672 365l0 -1"/>
<path stroke="blue" d="M672 364l7 0M679 370l0 -6M679 370l1 1M680 372l0 -2 6 0 0 -1M686 370l26 0 0 -1M712 370l26 0 0 -1 1 0M739 370l0 -1M739 370l20 0M759 372l0 -2M759 371l158 0 1 -1 0 -7 1 0M919 364l0 -1M919 364l17 0M936 365l0 -1 38 0"/>
<path stroke="#FFA500" d="M462 39l46 0"/>
<text stroke="none" fill="white" font-size="16" x="518" y="48">
x1.vsampled_p-x1.vsampled_n
</text>
<path stroke="#FFA500" d="M50 459l67 0M117 460l0 -1M117 460l1 4M118 468l0 -4M118 468l1 3M119 472l0 -1M119 472l1 0 1 1 425 0 0 -30 1 -4 0 -18 1 -6 0 -6 1 -1 0 -1 5 0 0 -1M554 407l13 0M567 408l0 -1 7 0M574 440l0 -33M574 440l1 8M575 453l0 -5M575 453l1 0"/>
<path stroke="#FFA500" d="M576 453l0 -1 1 0 0 -1 23 0M600 466l0 -15M600 466l1 3M601 477l0 -8M601 475l1 -1 0 -1 23 0 0 -10 1 -1 0 -8 1 0 0 -1 1 0 1 1 4 0 0 -1M633 454l13 0 0 -1M646 454l7 0M653 464l0 -11M653 464l1 2 0 -1 18 0 0 -1M672 465l7 0 0 -7"/>
<path stroke="#FFA500" d="M679 458l1 -1M680 459l0 -2M680 459l26 0 1 1M707 463l0 -3M707 462l24 0 0 -3 1 -1M732 459l0 -1M732 459l27 0 0 -2M759 458l26 0M785 459l0 -1M785 459l27 0M812 460l0 -1 26 0 0 -1M838 459l79 0M917 460l0 -1M917 460l1 1M918 476l0 -15"/>
<path stroke="#FFA500" d="M918 475l1 -1 0 -1 55 0"/>
<path stroke="green" d="M50 39l46 0"/>
<text stroke="none" fill="white" font-size="16" x="106" y="48">
x1.sw_sample-2
</text>
<path stroke="green" d="M50 655l1 0 1 -10 0 -23 1 -21M53 621l0 -27M53 621l1 31M54 655l0 -3M54 655l63 0M117 662l0 -184 1 1 421 0M539 656l0 -184M539 655l422 0M961 660l0 -182 1 0M962 479l0 -1 1 1 11 0"/>
<path stroke="#FFC0C5" d="M462 55l46 0"/>
<text stroke="none" fill="white" font-size="16" x="518" y="64">
x1.comp_out_p+2
</text>
<path stroke="#FFC0C5" d="M50 263l1 0 1 -10 0 -23 1 -20 0 -4M53 209l1 4M54 263l0 -50M54 263l514 0M568 264l0 -179M568 87l13 0 0 -10 1 171M582 263l0 -15M582 263l12 0M594 264l0 -179 1 1M595 87l0 -1M595 87l13 0M608 263l0 -180M608 263l39 0M647 265l0 -180"/>
<path stroke="#FFC0C5" d="M647 87l14 0M661 264l0 -185M661 263l40 0 0 -178M701 87l12 0 0 -8 1 154M714 263l0 -30M714 263l66 0 0 -178M780 87l13 0M793 264l0 -182M793 263l14 0 0 -178 1 1M808 87l0 -1M808 87l11 0M819 264l0 -184M819 263l41 0 0 -177M860 87l12 0"/>
<path stroke="#FFC0C5" d="M872 264l0 -182M872 263l14 0 0 -178 1 1M887 87l0 -1M887 87l11 0M898 264l0 -182M898 263l14 0 1 -166 0 -12M913 87l12 0M925 264l0 -182M925 263l49 0"/>
<path stroke="#A52A2A" d="M50 55l46 0"/>
<text stroke="none" fill="white" font-size="16" x="106" y="64">
x1.comp_out_n-2
</text>
<path stroke="#A52A2A" d="M50 655l1 0 1 -10 0 -24 1 -20M53 602l0 -3M53 602l1 7M54 655l0 -46M54 655l488 0M542 657l0 -181M542 479l13 0M555 656l0 -181M555 655l13 0M568 656l0 -1 26 0M594 656l0 -1 27 0M621 657l0 -181M621 479l13 0M634 655l0 -184M634 655l39 0"/>
<path stroke="#A52A2A" d="M673 655l1 -94 0 -85M674 479l13 0M687 655l0 -186M687 655l40 0 0 -178M727 479l13 0M740 656l0 -187M740 655l13 0 0 -159 1 -18M754 479l0 -1M754 479l12 0M766 656l0 -184M766 656l1 -1 67 0 0 -177 1 1 10 0 0 -11 1 163M846 655l0 -24"/>
<path stroke="#A52A2A" d="M846 655l91 0 1 1 0 -180M938 479l13 0M951 655l0 -188M951 655l23 0"/>
</svg>
