<?xml version="1.0" standalone="yes"?>
<!DOCTYPE svg PUBLIC "-//W3C//DTD SVG 1.1//EN"
 "http://www.w3.org/Graphics/SVG/1.1/DTD/svg11.dtd">
<svg xmlns="http://www.w3.org/2000/svg" version="1.1"
  width="100%" height="100%" viewBox="0 0 1024 768"
  style="fill: none; font-family: Helvetica;
 font: Helvetica;
">

<!-- Creator: NGspice -->

<rect x="0" y="0" width="1024" height="768" fill="black" stroke="none"/>
<text stroke="none" fill="white" font-size="16" x="358" y="752">
time
</text>
<text stroke="none" fill="white" font-size="16" x="10" y="16">
tran1: run1600_vin0.506687
</text>
<path stroke="white" d="M50 704l0 -637"/>
<text stroke="none" fill="white" font-size="16" x="35" y="728">
0.0
</text>
<path stroke="white" stroke-dasharray="1,2" d="M182 704l0 -637"/>
<text stroke="none" fill="white" font-size="16" x="157" y="728">
100.0
</text>
<path stroke="white" stroke-dasharray="1,2" d="M314 704l0 -637"/>
<text stroke="none" fill="white" font-size="16" x="289" y="728">
200.0
</text>
<path stroke="white" stroke-dasharray="1,2" d="M446 704l0 -637"/>
<text stroke="none" fill="white" font-size="16" x="421" y="728">
300.0
</text>
<path stroke="white" stroke-dasharray="1,2" d="M578 704l0 -637"/>
<text stroke="none" fill="white" font-size="16" x="553" y="728">
400.0
</text>
<path stroke="white" stroke-dasharray="1,2" d="M710 704l0 -637"/>
<text stroke="none" fill="white" font-size="16" x="685" y="728">
500.0
</text>
<path stroke="white" stroke-dasharray="1,2" d="M842 704l0 -637"/>
<text stroke="none" fill="white" font-size="16" x="817" y="728">
600.0
</text>
<path stroke="white" stroke-dasharray="1,2" d="M974 704l0 -637"/>
<text stroke="none" fill="white" font-size="16" x="949" y="728">
700.0
</text>
<text stroke="none" fill="white" font-size="16" x="614" y="752">
ns
</text>
<path stroke="white" stroke-dasharray="1,2" d="M50 704l924 0"/>
<text stroke="none" fill="white" font-size="16" x="8" y="712">
-3.0
</text>
<path stroke="white" stroke-dasharray="1,2" d="M50 613l924 0"/>
<text stroke="none" fill="white" font-size="16" x="8" y="621">
-2.0
</text>
<path stroke="white" stroke-dasharray="1,2" d="M50 522l924 0"/>
<text stroke="none" fill="white" font-size="16" x="8" y="530">
-1.0
</text>
<path stroke="white" d="M50 431l924 0"/>
<text stroke="none" fill="white" font-size="16" x="18" y="439">
0.0
</text>
<path stroke="white" stroke-dasharray="1,2" d="M50 340l924 0"/>
<text stroke="none" fill="white" font-size="16" x="18" y="348">
1.0
</text>
<path stroke="white" stroke-dasharray="1,2" d="M50 249l924 0"/>
<text stroke="none" fill="white" font-size="16" x="18" y="257">
2.0
</text>
<path stroke="white" stroke-dasharray="1,2" d="M50 158l924 0"/>
<text stroke="none" fill="white" font-size="16" x="18" y="166">
3.0
</text>
<path stroke="white" stroke-dasharray="1,2" d="M50 67l924 0"/>
<text stroke="none" fill="white" font-size="16" x="18" y="75">
4.0
</text>
<text stroke="none" fill="white" font-size="16" x="10" y="32">
     
</text>
<path stroke="red" d="M462 23l46 0"/>
<text stroke="none" fill="white" font-size="16" x="518" y="32">
x1.vsampled_p
</text>
<path stroke="red" d="M50 431l1 0 1 -7 0 -15 1 -15 0 -4 1 1M54 414l0 -39 1 -4 0 -14 1 -2 0 -3 2 -2 1 0 1 -1 3 0 1 1 4 0 1 -1 48 0 0 -1 1 -10 0 -21 1 -4 0 -6 1 -2 1 -1 0 -1 419 0M540 304l0 -1 26 0 1 1 0 -1 7 0M574 322l0 -19M574 322l1 7M575 342l0 -13"/>
<path stroke="red" d="M575 342l1 1M576 344l0 -1M576 344l17 0M593 345l0 -1 26 0M619 345l0 -1 27 0M646 345l0 -1 33 0M679 349l0 -5M679 349l1 1M680 351l0 -2 19 0M699 350l0 -1 26 0M725 350l0 -1 26 0M751 350l0 -1 27 0M778 350l0 -1 26 0M804 350l0 -1"/>
<path stroke="red" d="M804 349l27 0M831 350l0 -1 26 0M857 350l0 -1 26 0M883 350l0 -1 27 0M910 350l0 -1 8 0 0 -19 1 -2 0 -11 1 -3 0 -6 1 -2 0 -1 1 0 0 -1 1 0 0 -1 13 0M936 305l0 -2 38 0"/>
<path stroke="blue" d="M50 23l46 0"/>
<text stroke="none" fill="white" font-size="16" x="106" y="32">
x1.vsampled_n
</text>
<path stroke="blue" d="M50 431l1 0 1 -7 0 -15 1 -14 0 -5 1 2M54 415l0 -40 1 -4 0 -14 1 -2 0 -3 2 -2 1 0 1 -1 3 0 1 1 4 0 1 -1 48 0M117 359l0 -10M117 359l1 13M118 386l0 -14M118 386l1 3M119 393l0 -4M119 393l1 1 1 0M121 395l0 -1M121 395l419 0M540 396l0 -1"/>
<path stroke="blue" d="M540 395l6 0 0 -21 1 -3 0 -27 1 -2 0 -5 1 -1 0 -1 1 -1 4 0 0 -1M554 334l13 0M567 335l0 -1 26 0M593 335l0 -1 7 0M600 353l0 -19M600 353l1 3M601 361l0 -5M601 359l1 -2 0 -2 1 0 1 -1 15 0M619 355l0 -1M619 355l1 0 0 -1 5 0 0 -12"/>
<path stroke="blue" d="M625 342l1 -1 0 -5 2 0 1 1 4 0 0 -1M633 337l13 0 0 -1M646 337l7 0M653 347l0 -10M653 347l1 2 0 -1 1 -1 51 0M706 351l0 -4M706 350l1 0 0 -1 18 0M725 350l0 -1 8 0 0 -3M733 347l18 0M751 348l0 -1 8 0M759 350l0 -3M759 349l1 0"/>
<path stroke="blue" d="M760 349l0 -1 18 0M778 349l0 -1 7 0M785 349l0 -1M785 349l1 1 0 -1 27 0M813 350l0 -1 17 0 1 1 0 -1 87 0M918 379l0 -30M918 379l1 2M919 394l0 -13M919 394l1 3 1 -1 1 0 0 -1 14 0M936 396l0 -1 38 0"/>
<path stroke="#FFA500" d="M462 39l46 0"/>
<text stroke="none" fill="white" font-size="16" x="518" y="48">
x1.vsampled_p-x1.vsampled_n
</text>
<path stroke="#FFA500" d="M50 431l2 0 1 -1 1 0M54 431l0 -1M54 431l63 0 0 -11 1 -22 0 -35 1 -8 0 -10 1 -3 1 -1 0 -1 1 -1 418 0M540 340l0 -1 6 0M546 361l0 -22M546 361l1 2M547 391l0 -28M547 391l1 2M548 397l0 -4M548 397l1 1M549 400l0 -2M549 400l18 0"/>
<path stroke="#FFA500" d="M567 401l0 -1 7 0M574 419l0 -19M574 419l1 7M575 439l0 -13M575 439l1 1M576 441l0 -1M576 441l24 0 0 -19 1 -3 0 -5M601 416l1 2M602 420l0 -2M602 420l1 1 16 0 0 -1 1 0M620 421l0 -1M620 421l5 0M625 433l0 -12M625 433l1 1M626 440l0 -6"/>
<path stroke="#FFA500" d="M626 440l1 0 0 -1 2 0 1 -1 3 0M633 439l0 -1M633 439l13 0 0 -1 7 0M653 439l0 -11 1 -2M654 427l0 -1M654 427l1 1 24 0M679 433l0 -5M679 433l1 1M680 435l0 -2 6 0M686 434l0 -1 20 0 0 -4M706 430l1 0M707 431l0 -1M707 431l26 0"/>
<path stroke="#FFA500" d="M733 435l0 -4M733 434l1 -1 25 0 0 -3M759 432l26 0 0 -1 1 0 0 -1M786 431l27 0 0 -1M813 431l25 0M838 432l0 -1 80 0 0 -49 1 -4 0 -24 1 -6 0 -6 1 -1 0 -1 1 0 0 -1 14 0M936 340l0 -1 14 0 0 -1M950 339l24 0"/>
<path stroke="green" d="M50 39l46 0"/>
<text stroke="none" fill="white" font-size="16" x="106" y="48">
x1.sw_sample-2
</text>
<path stroke="green" d="M50 613l1 0 1 -9 0 -21 1 -21M53 580l0 -24M53 580l1 30M54 613l0 -3M54 613l63 0M117 620l0 -172M117 449l422 0M539 614l0 -171M539 613l422 0M961 618l0 -170 1 1 12 0"/>
<path stroke="#FFC0C5" d="M462 55l46 0"/>
<text stroke="none" fill="white" font-size="16" x="518" y="64">
x1.comp_out_p+2
</text>
<path stroke="#FFC0C5" d="M50 249l1 0 1 -9 0 -22 1 -18 0 -4M53 198l1 5M54 249l0 -46M54 249l487 0 1 1 0 -167M542 85l13 0M555 250l0 -168M555 249l13 0M568 250l0 -167M568 85l13 0 0 -8 1 162M582 250l0 -11M582 249l39 0M621 250l0 -166M621 85l13 0M634 250l0 -172"/>
<path stroke="#FFC0C5" d="M634 250l1 -1 38 0 1 6 0 -172M674 85l13 0M687 250l0 -170M687 249l41 0 0 -157 1 -8M729 85l0 -1M729 85l11 0M740 249l0 -173M740 249l94 0 0 -165M834 85l11 0 0 -10 1 142M846 249l0 -32M846 249l91 0 0 -19 1 -122 0 -25M938 85l13 0"/>
<path stroke="#FFC0C5" d="M951 249l0 -172M951 249l23 0"/>
<path stroke="#A52A2A" d="M50 55l46 0"/>
<text stroke="none" fill="white" font-size="16" x="106" y="64">
x1.comp_out_n-2
</text>
<path stroke="#A52A2A" d="M50 613l1 0 1 -9 0 -22 1 -19M53 564l0 -3M53 564l1 6M54 614l0 -44M54 612l1 1 539 0M594 614l0 -167M594 448l1 1 13 0M608 613l0 -172M608 613l39 0M647 620l0 -173M647 449l14 0M661 614l0 -170M661 613l39 0 0 -165M700 449l13 0"/>
<path stroke="#A52A2A" d="M713 449l0 -7 1 132M714 613l0 -39M714 613l39 0 0 -165M753 449l13 0M766 614l0 -174M766 614l1 -1 13 0 0 -165M780 449l13 0M793 613l0 -174M793 613l14 0 0 -164 1 -1M808 449l0 -1M808 449l11 0M819 613l0 -171M819 613l41 0 0 -164"/>
<path stroke="#A52A2A" d="M860 449l12 0M872 613l0 -174M872 613l14 0 0 -150 1 -14 0 -1M887 449l11 0M898 613l0 -174M898 613l15 0 0 -165M913 449l12 0M925 614l0 -173M925 613l49 0"/>
</svg>
