<?xml version="1.0" standalone="yes"?>
<!DOCTYPE svg PUBLIC "-//W3C//DTD SVG 1.1//EN"
 "http://www.w3.org/Graphics/SVG/1.1/DTD/svg11.dtd">
<svg xmlns="http://www.w3.org/2000/svg" version="1.1"
  width="100%" height="100%" viewBox="0 0 1024 768"
  style="fill: none; font-family: Helvetica;
 font: Helvetica;
">

<!-- Creator: NGspice -->

<rect x="0" y="0" width="1024" height="768" fill="black" stroke="none"/>
<text stroke="none" fill="white" font-size="16" x="358" y="752">
time
</text>
<text stroke="none" fill="white" font-size="16" x="10" y="16">
tran1: run1602_vin0.508445
</text>
<path stroke="white" d="M50 704l0 -637"/>
<text stroke="none" fill="white" font-size="16" x="35" y="728">
0.0
</text>
<path stroke="white" stroke-dasharray="1,2" d="M182 704l0 -637"/>
<text stroke="none" fill="white" font-size="16" x="157" y="728">
100.0
</text>
<path stroke="white" stroke-dasharray="1,2" d="M314 704l0 -637"/>
<text stroke="none" fill="white" font-size="16" x="289" y="728">
200.0
</text>
<path stroke="white" stroke-dasharray="1,2" d="M446 704l0 -637"/>
<text stroke="none" fill="white" font-size="16" x="421" y="728">
300.0
</text>
<path stroke="white" stroke-dasharray="1,2" d="M578 704l0 -637"/>
<text stroke="none" fill="white" font-size="16" x="553" y="728">
400.0
</text>
<path stroke="white" stroke-dasharray="1,2" d="M710 704l0 -637"/>
<text stroke="none" fill="white" font-size="16" x="685" y="728">
500.0
</text>
<path stroke="white" stroke-dasharray="1,2" d="M842 704l0 -637"/>
<text stroke="none" fill="white" font-size="16" x="817" y="728">
600.0
</text>
<path stroke="white" stroke-dasharray="1,2" d="M974 704l0 -637"/>
<text stroke="none" fill="white" font-size="16" x="949" y="728">
700.0
</text>
<text stroke="none" fill="white" font-size="16" x="614" y="752">
ns
</text>
<path stroke="white" stroke-dasharray="1,2" d="M50 704l924 0"/>
<text stroke="none" fill="white" font-size="16" x="8" y="712">
-3.0
</text>
<path stroke="white" stroke-dasharray="1,2" d="M50 613l924 0"/>
<text stroke="none" fill="white" font-size="16" x="8" y="621">
-2.0
</text>
<path stroke="white" stroke-dasharray="1,2" d="M50 522l924 0"/>
<text stroke="none" fill="white" font-size="16" x="8" y="530">
-1.0
</text>
<path stroke="white" d="M50 431l924 0"/>
<text stroke="none" fill="white" font-size="16" x="18" y="439">
0.0
</text>
<path stroke="white" stroke-dasharray="1,2" d="M50 340l924 0"/>
<text stroke="none" fill="white" font-size="16" x="18" y="348">
1.0
</text>
<path stroke="white" stroke-dasharray="1,2" d="M50 249l924 0"/>
<text stroke="none" fill="white" font-size="16" x="18" y="257">
2.0
</text>
<path stroke="white" stroke-dasharray="1,2" d="M50 158l924 0"/>
<text stroke="none" fill="white" font-size="16" x="18" y="166">
3.0
</text>
<path stroke="white" stroke-dasharray="1,2" d="M50 67l924 0"/>
<text stroke="none" fill="white" font-size="16" x="18" y="75">
4.0
</text>
<text stroke="none" fill="white" font-size="16" x="10" y="32">
     
</text>
<path stroke="red" d="M462 23l46 0"/>
<text stroke="none" fill="white" font-size="16" x="518" y="32">
x1.vsampled_p
</text>
<path stroke="red" d="M50 431l1 0 1 -7 0 -15 1 -15 0 -4 1 1M54 414l0 -39 1 -4 0 -14 1 -2 0 -3 2 -2 1 0 1 -1 3 0 1 1 4 0 1 -1 48 0 0 -1 1 -10 0 -21 1 -4 0 -6 1 -2 1 -1 0 -1 419 0M540 304l0 -1 27 0M567 304l0 -1 7 0M574 326l0 -23M574 326l1 9M575 343l0 -8"/>
<path stroke="red" d="M575 343l1 1 103 0M679 349l0 -5M679 349l1 0M680 350l0 -1 133 0M813 350l0 -1 17 0 1 1 0 -1 86 0M917 350l0 -3 1 -6 0 -20 1 -2 0 -6 1 -3 0 -3 1 -2 0 -1 1 0 0 -1 14 0M936 304l0 -1 38 0"/>
<path stroke="blue" d="M50 23l46 0"/>
<text stroke="none" fill="white" font-size="16" x="106" y="32">
x1.vsampled_n
</text>
<path stroke="blue" d="M50 431l1 0 1 -7 0 -15 1 -14 0 -5 1 2M54 415l0 -40 1 -4 0 -14 1 -2 0 -3 2 -2 1 0 1 -1 3 0 1 1 4 0 1 -1 48 0M117 359l0 -10M117 359l1 13M118 386l0 -14M118 386l1 3M119 393l0 -4M119 393l2 2 419 0M540 396l0 -1 1 0M541 396l0 -1"/>
<path stroke="blue" d="M541 396l5 0 0 -29 1 -5 0 -20 1 -1 0 -4 1 -1 0 -1 1 0 0 -1 4 0 0 -1M554 334l13 0M567 335l0 -1 26 0M593 335l0 -1 7 0M600 353l0 -19M600 353l1 3M601 361l0 -5M601 360l1 -3 0 -2 4 0 0 -1M606 355l14 0 0 -1M620 355l5 0 0 -1 1 -6"/>
<path stroke="blue" d="M626 348l0 -12 2 0M628 337l0 -1M628 337l5 0 0 -1M633 337l20 0M653 347l0 -10M653 347l1 2M654 350l0 -1 1 -1 0 -1 51 0M706 351l0 -4M706 351l1 -1 5 0 0 -1 13 0M725 350l0 -1M725 350l7 0 0 -4 1 0M733 347l0 -1M733 347l18 0M751 348l0 -1"/>
<path stroke="blue" d="M751 347l8 0M759 350l0 -3M759 349l6 0 0 -1M765 349l13 0 0 -1M778 349l8 0M786 350l0 -1 18 0M804 350l0 -1 27 0M831 350l0 -1 26 0M857 350l0 -1 26 0M883 350l0 -1 27 0M910 350l0 -1 7 0M917 350l0 -1M917 350l1 4M918 389l0 -35"/>
<path stroke="blue" d="M918 389l1 3M919 397l0 -5M919 397l1 1 0 -1 1 -1 2 0 0 -1 13 0M936 396l0 -1M936 396l14 0 0 -1 24 0"/>
<path stroke="#FFA500" d="M462 39l46 0"/>
<text stroke="none" fill="white" font-size="16" x="518" y="48">
x1.vsampled_p-x1.vsampled_n
</text>
<path stroke="#FFA500" d="M50 431l2 0 1 -1 1 0M54 431l0 -1M54 431l63 0 0 -11 1 -22 0 -35 1 -8 0 -10 1 -3 1 -2 0 -1 3 0 1 -1 414 0M539 339l0 -1M539 339l1 0 0 -1M540 339l6 0M546 368l0 -30M546 368l1 4M547 392l0 -20M547 392l1 2M548 397l0 -3M548 397l1 1"/>
<path stroke="#FFA500" d="M549 399l0 -1M549 399l1 1 17 0M567 401l0 -2M567 400l7 0M574 423l0 -23M574 423l1 8M575 440l0 -9M575 440l1 0M576 441l0 -1M576 441l17 0 0 -1M593 441l7 0 0 -19 1 -3 0 -5M601 415l1 3M602 420l0 -2M602 420l23 0M625 421l0 -1"/>
<path stroke="#FFA500" d="M625 421l1 6M626 439l0 -12M626 439l2 0 0 -1 25 0 0 -10 1 -2 0 -1M654 426l1 1M655 428l0 -1M655 428l24 0M679 433l0 -5M679 433l1 0M680 434l0 -1 26 0 0 -4 1 1 1 0M708 431l0 -1M708 431l17 0 0 -1M725 431l7 0M732 434l0 -3M732 434l1 0"/>
<path stroke="#FFA500" d="M733 434l0 -1 26 0 0 -3M759 431l6 0M765 432l0 -1M765 432l1 0 0 -1 12 0M778 432l0 -1 8 0 0 -1M786 431l27 0M813 432l0 -1 104 0M917 432l0 -4 1 -9 0 -55 1 -6 0 -11 1 -3 0 -3 1 -1 0 -1 2 0 0 -1M923 339l13 0M936 340l0 -1 14 0"/>
<path stroke="#FFA500" d="M950 339l0 -1M950 339l12 0 0 -1 12 0"/>
<path stroke="green" d="M50 39l46 0"/>
<text stroke="none" fill="white" font-size="16" x="106" y="48">
x1.sw_sample-2
</text>
<path stroke="green" d="M50 613l1 0 1 -9 0 -21 1 -21M53 580l0 -24M53 580l1 30M54 613l0 -3M54 613l63 0M117 620l0 -172M117 449l422 0M539 614l0 -171M539 613l422 0M961 618l0 -170 1 1 12 0"/>
<path stroke="#FFC0C5" d="M462 55l46 0"/>
<text stroke="none" fill="white" font-size="16" x="518" y="64">
x1.comp_out_p+2
</text>
<path stroke="#FFC0C5" d="M50 249l1 0 1 -9 0 -22 1 -18 0 -4M53 198l1 5M54 249l0 -46M54 249l487 0 1 2 0 -168M542 85l13 0M555 250l0 -167M555 249l13 0 0 -165M568 85l13 0 0 -4 1 46M582 250l0 -123M582 249l39 0M621 250l0 -166M621 85l13 0M634 249l0 -172"/>
<path stroke="#FFC0C5" d="M634 249l39 0 1 -5 0 -161M674 85l13 0M687 249l0 -171M687 249l41 0 0 -165M728 85l12 0M740 249l0 -172M740 249l67 0 0 -164 1 -1M808 85l0 -1M808 85l11 0M819 249l0 -168M819 249l41 0 0 -165 1 1 11 0M872 249l0 -174M872 249l14 0"/>
<path stroke="#FFC0C5" d="M886 249l0 -157 1 -8M887 85l0 -1M887 85l11 0M898 249l0 -174M898 249l14 0 1 -157 0 -8M913 85l12 0M925 249l0 -171M925 249l12 0 1 -19 0 -147M938 85l13 0M951 249l0 -172M951 249l23 0"/>
<path stroke="#A52A2A" d="M50 55l46 0"/>
<text stroke="none" fill="white" font-size="16" x="106" y="64">
x1.comp_out_n-2
</text>
<path stroke="#A52A2A" d="M50 613l1 0 1 -9 0 -22 1 -19M53 564l0 -3M53 564l1 6M54 614l0 -44M54 612l1 1 539 0M594 614l0 -167M594 449l14 0M608 613l0 -172M608 613l39 0M647 614l0 -167M647 449l14 0M661 613l0 -167M661 613l39 0 0 -165M700 449l13 0 0 -9"/>
<path stroke="#A52A2A" d="M713 440l1 145M714 613l0 -28M714 613l39 0 0 -165M753 449l13 0M766 613l0 -172M766 613l14 0 0 -165 1 1 12 0M793 613l0 -167M793 613l41 0 0 -164 11 0 0 -2 1 155M846 613l0 -11M846 613l128 0"/>
</svg>
