<?xml version="1.0" standalone="yes"?>
<!DOCTYPE svg PUBLIC "-//W3C//DTD SVG 1.1//EN"
 "http://www.w3.org/Graphics/SVG/1.1/DTD/svg11.dtd">
<svg xmlns="http://www.w3.org/2000/svg" version="1.1"
  width="100%" height="100%" viewBox="0 0 1024 768"
  style="fill: none; font-family: Helvetica;
 font: Helvetica;
">

<!-- Creator: NGspice -->

<rect x="0" y="0" width="1024" height="768" fill="black" stroke="none"/>
<text stroke="none" fill="white" font-size="16" x="358" y="752">
time
</text>
<text stroke="none" fill="white" font-size="16" x="10" y="16">
tran1: run1085_vin0.0540514
</text>
<path stroke="white" d="M50 704l0 -637"/>
<text stroke="none" fill="white" font-size="16" x="35" y="728">
0.0
</text>
<path stroke="white" stroke-dasharray="1,2" d="M182 704l0 -637"/>
<text stroke="none" fill="white" font-size="16" x="157" y="728">
100.0
</text>
<path stroke="white" stroke-dasharray="1,2" d="M314 704l0 -637"/>
<text stroke="none" fill="white" font-size="16" x="289" y="728">
200.0
</text>
<path stroke="white" stroke-dasharray="1,2" d="M446 704l0 -637"/>
<text stroke="none" fill="white" font-size="16" x="421" y="728">
300.0
</text>
<path stroke="white" stroke-dasharray="1,2" d="M578 704l0 -637"/>
<text stroke="none" fill="white" font-size="16" x="553" y="728">
400.0
</text>
<path stroke="white" stroke-dasharray="1,2" d="M710 704l0 -637"/>
<text stroke="none" fill="white" font-size="16" x="685" y="728">
500.0
</text>
<path stroke="white" stroke-dasharray="1,2" d="M842 704l0 -637"/>
<text stroke="none" fill="white" font-size="16" x="817" y="728">
600.0
</text>
<path stroke="white" stroke-dasharray="1,2" d="M974 704l0 -637"/>
<text stroke="none" fill="white" font-size="16" x="949" y="728">
700.0
</text>
<text stroke="none" fill="white" font-size="16" x="614" y="752">
ns
</text>
<path stroke="white" stroke-dasharray="1,2" d="M50 704l924 0"/>
<text stroke="none" fill="white" font-size="16" x="8" y="712">
-3.0
</text>
<path stroke="white" stroke-dasharray="1,2" d="M50 613l924 0"/>
<text stroke="none" fill="white" font-size="16" x="8" y="621">
-2.0
</text>
<path stroke="white" stroke-dasharray="1,2" d="M50 522l924 0"/>
<text stroke="none" fill="white" font-size="16" x="8" y="530">
-1.0
</text>
<path stroke="white" d="M50 431l924 0"/>
<text stroke="none" fill="white" font-size="16" x="18" y="439">
0.0
</text>
<path stroke="white" stroke-dasharray="1,2" d="M50 340l924 0"/>
<text stroke="none" fill="white" font-size="16" x="18" y="348">
1.0
</text>
<path stroke="white" stroke-dasharray="1,2" d="M50 249l924 0"/>
<text stroke="none" fill="white" font-size="16" x="18" y="257">
2.0
</text>
<path stroke="white" stroke-dasharray="1,2" d="M50 158l924 0"/>
<text stroke="none" fill="white" font-size="16" x="18" y="166">
3.0
</text>
<path stroke="white" stroke-dasharray="1,2" d="M50 67l924 0"/>
<text stroke="none" fill="white" font-size="16" x="18" y="75">
4.0
</text>
<text stroke="none" fill="white" font-size="16" x="10" y="32">
     
</text>
<path stroke="red" d="M462 23l46 0"/>
<text stroke="none" fill="white" font-size="16" x="518" y="32">
x1.vsampled_p
</text>
<path stroke="red" d="M50 431l1 0 1 -7 0 -15 1 -15 0 -4 1 1M54 415l0 -39 1 -5 0 -15 1 -2 0 -3 1 -1 2 0 1 -1 4 0M64 350l0 -1M64 350l4 0 1 -1 48 0 1 -2 0 -1 2 -2 420 0M540 345l0 -1 27 0M567 345l0 -1 26 0M593 345l0 -1 26 0M619 345l0 -1M619 345l1 0"/>
<path stroke="red" d="M620 345l0 -1 26 0M646 345l0 -1 26 0M672 345l0 -1 7 0M679 348l0 -4M679 348l1 1M680 351l0 -2M680 350l6 0 0 -1 12 0 1 1 0 -1M699 350l13 0 0 -1 13 0M725 350l0 -1M725 350l7 0 0 -4 1 1 18 0M751 348l0 -1M751 348l1 0 0 -1 7 0M759 350l0 -3"/>
<path stroke="red" d="M759 349l6 0 0 -1 13 0M778 349l0 -1M778 349l8 0M786 350l0 -1 18 0M804 350l0 -1 27 0M831 350l0 -1 26 0M857 350l0 -1 26 0M883 350l0 -1 27 0M910 350l0 -1 8 0M918 350l0 -6 18 0M936 345l0 -1 38 0"/>
<path stroke="blue" d="M50 23l46 0"/>
<text stroke="none" fill="white" font-size="16" x="106" y="32">
x1.vsampled_n
</text>
<path stroke="blue" d="M50 431l1 0 1 -7 0 -15 1 -14 0 -5 1 1M54 415l0 -39 1 -5 0 -15 1 -2 0 -3 1 -1 2 0 1 -1 4 0M64 350l0 -1M64 350l4 0 1 -1 48 0M117 350l0 -1M117 350l1 1M118 352l0 -1M118 352l1 1M119 354l0 -1M119 354l421 0M540 355l0 -1 6 0 0 -24"/>
<path stroke="blue" d="M546 330l1 -1 0 -24 1 -6 0 -2 1 -2 0 -1 1 0 0 -1 4 0 0 -1M554 293l13 0M567 295l0 -2 7 0M574 322l0 -29M574 322l1 8M575 335l0 -5M575 335l1 1 0 -1 1 -1 3 0 0 -1M580 334l20 0M600 348l0 -14M600 348l1 4M601 358l0 -6M601 357l1 -1"/>
<path stroke="blue" d="M602 356l0 -1 1 -1 16 0M619 355l0 -1 6 0 0 -6 1 -3 0 -8 1 -1 19 0M646 337l0 -1 7 0M653 346l0 -10M653 346l1 2 0 -1 5 0 0 -1 1 0M660 347l0 -1M660 347l12 0 0 -1M672 347l14 0 0 -1M686 347l12 0 0 -1M698 347l1 0 0 -1M699 347l7 0"/>
<path stroke="blue" d="M706 350l0 -3M706 350l1 0 0 -1 106 0M813 350l0 -1 17 0 1 1 0 -1 87 0M918 356l0 -7M918 356l1 -1 0 -1 17 0M936 355l0 -1 38 0"/>
<path stroke="#FFA500" d="M462 39l46 0"/>
<text stroke="none" fill="white" font-size="16" x="518" y="48">
x1.vsampled_p-x1.vsampled_n
</text>
<path stroke="#FFA500" d="M50 431l67 0 0 -1 1 -3 0 -2 1 -2 0 -1 1 -1 426 0M546 445l0 -24M546 445l1 2M547 471l0 -24M547 471l1 5M548 479l0 -3M548 479l1 1M549 481l0 -1M549 481l1 1 4 0M554 483l0 -1M554 483l12 0 1 -1M567 483l0 -2M567 482l7 0 0 -29"/>
<path stroke="#FFA500" d="M574 453l1 -7 0 -6 1 0 1 1 1 0M578 442l0 -1M578 442l15 0 0 -1M593 442l7 0 0 -15 1 -4 0 -5 1 1M602 421l0 -2M602 421l23 0M625 427l0 -6M625 427l1 4M626 439l0 -8M626 439l27 0 0 -10 1 -1 0 -1M654 428l1 1 24 0M679 432l0 -3"/>
<path stroke="#FFA500" d="M679 432l1 1M680 436l0 -3M680 434l26 0 0 -4M706 431l26 0 0 -3 1 0M733 429l0 -1M733 429l26 0M759 432l0 -3M759 431l1 0 0 -1 26 0M786 432l0 -2M786 431l27 0 0 -1M813 431l105 0M918 432l0 -13 1 0M919 421l0 -2M919 421l55 0"/>
<path stroke="green" d="M50 39l46 0"/>
<text stroke="none" fill="white" font-size="16" x="106" y="48">
x1.sw_sample-2
</text>
<path stroke="green" d="M50 613l1 0 1 -9 0 -21 1 -21M53 582l0 -26M53 582l1 28M54 613l0 -3M54 613l63 0M117 620l0 -172M117 449l422 0M539 614l0 -171M539 613l422 0M961 618l0 -170 1 1 12 0"/>
<path stroke="#FFC0C5" d="M462 55l46 0"/>
<text stroke="none" fill="white" font-size="16" x="518" y="64">
x1.comp_out_p+2
</text>
<path stroke="#FFC0C5" d="M50 249l1 0 1 -9 0 -22 1 -18 0 -4M53 198l1 5M54 249l0 -46M54 249l488 0M542 255l0 -172M542 85l13 0M555 249l0 -172M555 249l66 0M621 250l0 -167M621 85l13 0M634 249l0 -167M634 249l40 0 0 -165M674 85l13 0M687 249l0 -172M687 249l66 0"/>
<path stroke="#FFC0C5" d="M753 249l0 -165M753 85l13 0M766 249l0 -171M766 249l14 0 0 -165M780 85l13 0M793 249l0 -166M793 249l41 0 0 -165M834 85l11 0 0 -2M845 85l1 150M846 249l0 -14M846 249l92 0 0 -166M938 85l13 0M951 249l0 -174M951 249l23 0"/>
<path stroke="#A52A2A" d="M50 55l46 0"/>
<text stroke="none" fill="white" font-size="16" x="106" y="64">
x1.comp_out_n-2
</text>
<path stroke="#A52A2A" d="M50 613l1 0 1 -9 0 -22 1 -19M53 564l0 -3M53 564l1 6M54 613l0 -43M54 613l514 0 0 -166M568 449l13 0 0 -9 1 146M582 613l0 -27M582 613l12 0M594 615l0 -168M594 449l14 0M608 614l0 -172M608 613l39 0M647 614l0 -167M647 449l14 0"/>
<path stroke="#A52A2A" d="M661 613l0 -172M661 613l39 0 0 -166M700 449l13 0 0 -10 1 149M714 613l0 -25M714 613l14 0 0 -165M728 449l12 0M740 614l0 -173M740 613l67 0 0 -158 1 -7M808 449l0 -1M808 449l11 0M819 613l0 -169M819 613l41 0 0 -164 1 -1M861 449l0 -1"/>
<path stroke="#A52A2A" d="M861 449l11 0M872 613l0 -174M872 613l14 0 1 -158 0 -7M887 449l11 0M898 613l0 -174M898 613l15 0 0 -165M913 449l12 0M925 613l0 -171M925 613l49 0"/>
</svg>
