<?xml version="1.0" standalone="yes"?>
<!DOCTYPE svg PUBLIC "-//W3C//DTD SVG 1.1//EN"
 "http://www.w3.org/Graphics/SVG/1.1/DTD/svg11.dtd">
<svg xmlns="http://www.w3.org/2000/svg" version="1.1"
  width="100%" height="100%" viewBox="0 0 1024 768"
  style="fill: none; font-family: Helvetica;
 font: Helvetica;
">

<!-- Creator: NGspice -->

<rect x="0" y="0" width="1024" height="768" fill="black" stroke="none"/>
<text stroke="none" fill="white" font-size="16" x="358" y="752">
time
</text>
<text stroke="none" fill="white" font-size="16" x="10" y="16">
tran1: run1082_vin0.0514147
</text>
<path stroke="white" d="M50 704l0 -637"/>
<text stroke="none" fill="white" font-size="16" x="35" y="728">
0.0
</text>
<path stroke="white" stroke-dasharray="1,2" d="M182 704l0 -637"/>
<text stroke="none" fill="white" font-size="16" x="157" y="728">
100.0
</text>
<path stroke="white" stroke-dasharray="1,2" d="M314 704l0 -637"/>
<text stroke="none" fill="white" font-size="16" x="289" y="728">
200.0
</text>
<path stroke="white" stroke-dasharray="1,2" d="M446 704l0 -637"/>
<text stroke="none" fill="white" font-size="16" x="421" y="728">
300.0
</text>
<path stroke="white" stroke-dasharray="1,2" d="M578 704l0 -637"/>
<text stroke="none" fill="white" font-size="16" x="553" y="728">
400.0
</text>
<path stroke="white" stroke-dasharray="1,2" d="M710 704l0 -637"/>
<text stroke="none" fill="white" font-size="16" x="685" y="728">
500.0
</text>
<path stroke="white" stroke-dasharray="1,2" d="M842 704l0 -637"/>
<text stroke="none" fill="white" font-size="16" x="817" y="728">
600.0
</text>
<path stroke="white" stroke-dasharray="1,2" d="M974 704l0 -637"/>
<text stroke="none" fill="white" font-size="16" x="949" y="728">
700.0
</text>
<text stroke="none" fill="white" font-size="16" x="614" y="752">
ns
</text>
<path stroke="white" stroke-dasharray="1,2" d="M50 704l924 0"/>
<text stroke="none" fill="white" font-size="16" x="8" y="712">
-3.0
</text>
<path stroke="white" stroke-dasharray="1,2" d="M50 613l924 0"/>
<text stroke="none" fill="white" font-size="16" x="8" y="621">
-2.0
</text>
<path stroke="white" stroke-dasharray="1,2" d="M50 522l924 0"/>
<text stroke="none" fill="white" font-size="16" x="8" y="530">
-1.0
</text>
<path stroke="white" d="M50 431l924 0"/>
<text stroke="none" fill="white" font-size="16" x="18" y="439">
0.0
</text>
<path stroke="white" stroke-dasharray="1,2" d="M50 340l924 0"/>
<text stroke="none" fill="white" font-size="16" x="18" y="348">
1.0
</text>
<path stroke="white" stroke-dasharray="1,2" d="M50 249l924 0"/>
<text stroke="none" fill="white" font-size="16" x="18" y="257">
2.0
</text>
<path stroke="white" stroke-dasharray="1,2" d="M50 158l924 0"/>
<text stroke="none" fill="white" font-size="16" x="18" y="166">
3.0
</text>
<path stroke="white" stroke-dasharray="1,2" d="M50 67l924 0"/>
<text stroke="none" fill="white" font-size="16" x="18" y="75">
4.0
</text>
<text stroke="none" fill="white" font-size="16" x="10" y="32">
     
</text>
<path stroke="red" d="M462 23l46 0"/>
<text stroke="none" fill="white" font-size="16" x="518" y="32">
x1.vsampled_p
</text>
<path stroke="red" d="M50 431l1 0 1 -7 0 -15 1 -15 0 -4 1 1M54 415l0 -39 1 -5 0 -15 1 -2 0 -3 1 -1 2 0 1 -1 4 0M64 350l0 -1M64 350l4 0 1 -1 48 0 1 -2 0 -1 1 -1 1 0 1 -1 418 0M539 345l0 -1M539 345l15 0 0 -1M554 345l26 0 0 -1M580 345l26 0 0 -1"/>
<path stroke="red" d="M606 344l1 0M607 345l0 -1M607 345l26 0 0 -1M633 345l26 0 0 -1M659 345l20 0M679 349l0 -4M679 349l1 1M680 352l0 -2 52 0 0 -3 2 0M734 348l0 -1M734 348l4 0 0 -1 13 0M751 348l0 -1M751 348l1 0 0 -1M752 348l7 0M759 350l0 -2M759 349l53 0"/>
<path stroke="red" d="M812 350l0 -1M812 350l1 -1 104 0 1 1 0 -6 1 0M919 345l0 -1M919 345l4 0 0 -1M923 345l27 0 0 -1M950 345l12 0 0 -1 12 0"/>
<path stroke="blue" d="M50 23l46 0"/>
<text stroke="none" fill="white" font-size="16" x="106" y="32">
x1.vsampled_n
</text>
<path stroke="blue" d="M50 431l1 0 1 -7 0 -15 1 -14 0 -5 1 1M54 415l0 -39 1 -5 0 -15 1 -2 0 -3 1 -1 2 0 1 -1 4 0M64 350l0 -1M64 350l4 0 1 -1 48 0M117 350l0 -1M117 350l1 1M118 352l0 -1M118 352l2 2 426 0 0 -25 1 -2 0 -20 1 -7 0 -5 1 -1 0 -1 5 0"/>
<path stroke="blue" d="M554 293l0 -1M554 293l13 0M567 294l0 -1 6 0 1 -1M574 320l0 -28M574 320l1 7M575 335l0 -8M575 335l1 1 0 -1 1 -1 3 0 0 -1 13 0M593 334l0 -1M593 334l7 0M600 353l0 -20M600 353l1 4 0 -2 1 0 0 -1 23 0 0 -1 1 -4 0 -13 20 0M646 337l0 -1"/>
<path stroke="blue" d="M646 336l7 0M653 346l0 -10M653 346l1 2 0 -1 1 0 0 -1 17 0M672 347l0 -1 26 0 1 1 0 -1 7 0M706 350l0 -4M706 349l81 0M787 350l0 -1M787 350l4 0 0 -1 13 0M804 350l0 -1 1 0M805 350l0 -1M805 350l13 0 0 -1 12 0 1 1 0 -1M831 350l7 0"/>
<path stroke="blue" d="M838 350l0 -1 19 0M857 350l0 -1 26 0M883 350l0 -1 27 0M910 350l0 -1 7 0M917 350l0 -1M917 350l1 -1M918 356l0 -7M918 355l1 -1 55 0"/>
<path stroke="#FFA500" d="M462 39l46 0"/>
<text stroke="none" fill="white" font-size="16" x="518" y="48">
x1.vsampled_p-x1.vsampled_n
</text>
<path stroke="#FFA500" d="M50 431l67 0 0 -1 1 -3 0 -2 1 -2 0 -1 427 0M546 447l0 -25M546 447l1 2M547 468l0 -19M547 468l1 8M548 481l0 -5M548 481l2 2 17 0 0 -1M567 483l7 0 0 -27 1 -7 0 -8 1 -1M576 441l0 -1M576 441l1 0M577 442l0 -1M577 442l23 0 0 -20"/>
<path stroke="#FFA500" d="M600 422l1 -3M601 421l0 -3M601 421l1 0M602 422l0 -1M602 422l23 0 1 5M626 439l0 -12M626 439l1 1 6 0 0 -1M633 440l13 0 0 -1M646 440l7 0 0 -10 1 -2M654 429l0 -1M654 429l25 0M679 434l0 -5M679 434l1 1M680 436l0 -1 1 0 0 -1"/>
<path stroke="#FFA500" d="M681 434l5 0M686 435l0 -1 13 0M699 435l0 -1 7 0 0 -3 1 1 25 0 0 -3 1 0M733 430l0 -1M733 430l26 0M759 432l0 -2M759 431l28 0 0 -1 25 0M812 431l0 -1M812 431l105 0 0 -1 1 1 0 -12M918 420l1 1M919 422l0 -1M919 422l55 0"/>
<path stroke="green" d="M50 39l46 0"/>
<text stroke="none" fill="white" font-size="16" x="106" y="48">
x1.sw_sample-2
</text>
<path stroke="green" d="M50 613l1 0 1 -9 0 -21 1 -21M53 582l0 -26M53 582l1 28M54 613l0 -3M54 613l63 0M117 620l0 -172M117 449l422 0M539 614l0 -171M539 613l422 0M961 618l0 -170 1 1 12 0"/>
<path stroke="#FFC0C5" d="M462 55l46 0"/>
<text stroke="none" fill="white" font-size="16" x="518" y="64">
x1.comp_out_p+2
</text>
<path stroke="#FFC0C5" d="M50 249l1 0 1 -9 0 -22 1 -18 0 -4M53 198l1 5M54 249l0 -46M54 249l488 0M542 250l0 -166M542 85l13 0M555 250l0 -172M555 249l66 0M621 250l0 -167M621 85l13 0M634 249l0 -172M634 249l39 0 1 3 0 -169M674 85l13 0M687 249l0 -173"/>
<path stroke="#FFC0C5" d="M687 249l66 0 0 -165M753 85l13 0M766 250l0 -174M766 249l41 0 0 -165M807 85l12 0M819 250l0 -174M819 249l14 0 1 -157 0 -8M834 85l11 0 0 -9 1 151M846 249l0 -22M846 249l14 0 0 -165M860 85l12 0M872 249l0 -173M872 249l14 0"/>
<path stroke="#FFC0C5" d="M886 249l0 -157 1 -8M887 85l0 -1M887 85l11 0M898 249l0 -173M898 249l15 0 0 -165M913 85l12 0M925 250l0 -173M925 249l13 0M938 253l0 -169M938 85l13 0M951 250l0 -172M951 249l23 0"/>
<path stroke="#A52A2A" d="M50 55l46 0"/>
<text stroke="none" fill="white" font-size="16" x="106" y="64">
x1.comp_out_n-2
</text>
<path stroke="#A52A2A" d="M50 613l1 0 1 -9 0 -22 1 -19M53 564l0 -3M53 564l1 6M54 613l0 -43M54 613l514 0M568 614l0 -167M568 449l13 0 0 -8 1 156M582 613l0 -16M582 613l12 0 0 -166M594 448l1 1 13 0M608 613l0 -170M608 613l39 0 0 -166M647 449l14 0"/>
<path stroke="#A52A2A" d="M661 613l0 -172M661 613l39 0 0 -166M700 449l13 0 0 -8 1 151M714 613l0 -21M714 613l13 0 0 -153 1 -11 12 0M740 613l0 -172M740 613l41 0 0 -165M781 449l12 0M793 613l0 -168M793 613l181 0"/>
</svg>
