<?xml version="1.0" standalone="yes"?>
<!DOCTYPE svg PUBLIC "-//W3C//DTD SVG 1.1//EN"
 "http://www.w3.org/Graphics/SVG/1.1/DTD/svg11.dtd">
<svg xmlns="http://www.w3.org/2000/svg" version="1.1"
  width="100%" height="100%" viewBox="0 0 1024 768"
  style="fill: none; font-family: Helvetica;
 font: Helvetica;
">

<!-- Creator: NGspice -->

<rect x="0" y="0" width="1024" height="768" fill="black" stroke="none"/>
<text stroke="none" fill="white" font-size="16" x="358" y="752">
time
</text>
<text stroke="none" fill="white" font-size="16" x="10" y="16">
tran1: run29_vin0.442207
</text>
<path stroke="white" d="M50 704l0 -637"/>
<text stroke="none" fill="white" font-size="16" x="35" y="728">
0.0
</text>
<path stroke="white" stroke-dasharray="1,2" d="M182 704l0 -637"/>
<text stroke="none" fill="white" font-size="16" x="157" y="728">
100.0
</text>
<path stroke="white" stroke-dasharray="1,2" d="M314 704l0 -637"/>
<text stroke="none" fill="white" font-size="16" x="289" y="728">
200.0
</text>
<path stroke="white" stroke-dasharray="1,2" d="M446 704l0 -637"/>
<text stroke="none" fill="white" font-size="16" x="421" y="728">
300.0
</text>
<path stroke="white" stroke-dasharray="1,2" d="M578 704l0 -637"/>
<text stroke="none" fill="white" font-size="16" x="553" y="728">
400.0
</text>
<path stroke="white" stroke-dasharray="1,2" d="M710 704l0 -637"/>
<text stroke="none" fill="white" font-size="16" x="685" y="728">
500.0
</text>
<path stroke="white" stroke-dasharray="1,2" d="M842 704l0 -637"/>
<text stroke="none" fill="white" font-size="16" x="817" y="728">
600.0
</text>
<path stroke="white" stroke-dasharray="1,2" d="M974 704l0 -637"/>
<text stroke="none" fill="white" font-size="16" x="949" y="728">
700.0
</text>
<text stroke="none" fill="white" font-size="16" x="614" y="752">
ns
</text>
<path stroke="white" stroke-dasharray="1,2" d="M50 704l924 0"/>
<text stroke="none" fill="white" font-size="16" x="8" y="712">
-2.5
</text>
<path stroke="white" stroke-dasharray="1,2" d="M50 655l924 0"/>
<text stroke="none" fill="white" font-size="16" x="8" y="663">
-2.0
</text>
<path stroke="white" stroke-dasharray="1,2" d="M50 606l924 0"/>
<text stroke="none" fill="white" font-size="16" x="8" y="614">
-1.5
</text>
<path stroke="white" stroke-dasharray="1,2" d="M50 557l924 0"/>
<text stroke="none" fill="white" font-size="16" x="8" y="565">
-1.0
</text>
<path stroke="white" stroke-dasharray="1,2" d="M50 508l924 0"/>
<text stroke="none" fill="white" font-size="16" x="8" y="516">
-0.5
</text>
<path stroke="white" d="M50 459l924 0"/>
<text stroke="none" fill="white" font-size="16" x="18" y="467">
0.0
</text>
<path stroke="white" stroke-dasharray="1,2" d="M50 410l924 0"/>
<text stroke="none" fill="white" font-size="16" x="18" y="418">
0.5
</text>
<path stroke="white" stroke-dasharray="1,2" d="M50 361l924 0"/>
<text stroke="none" fill="white" font-size="16" x="18" y="369">
1.0
</text>
<path stroke="white" stroke-dasharray="1,2" d="M50 312l924 0"/>
<text stroke="none" fill="white" font-size="16" x="18" y="320">
1.5
</text>
<path stroke="white" stroke-dasharray="1,2" d="M50 263l924 0"/>
<text stroke="none" fill="white" font-size="16" x="18" y="271">
2.0
</text>
<path stroke="white" stroke-dasharray="1,2" d="M50 214l924 0"/>
<text stroke="none" fill="white" font-size="16" x="18" y="222">
2.5
</text>
<path stroke="white" stroke-dasharray="1,2" d="M50 165l924 0"/>
<text stroke="none" fill="white" font-size="16" x="18" y="173">
3.0
</text>
<path stroke="white" stroke-dasharray="1,2" d="M50 116l924 0"/>
<text stroke="none" fill="white" font-size="16" x="18" y="124">
3.5
</text>
<path stroke="white" stroke-dasharray="1,2" d="M50 67l924 0"/>
<text stroke="none" fill="white" font-size="16" x="18" y="75">
4.0
</text>
<text stroke="none" fill="white" font-size="16" x="10" y="32">
     
</text>
<path stroke="red" d="M462 23l46 0"/>
<text stroke="none" fill="white" font-size="16" x="518" y="32">
x1.vsampled_p
</text>
<path stroke="red" d="M50 459l1 0 1 -7 0 -17 1 -16 0 -5 1 2M54 441l0 -43 1 -5 0 -14 1 -3 0 -2 1 -2 1 0 0 -1 59 0 0 -1 1 -10 0 -20 1 -4 0 -5 1 -2 1 -1 2 0 1 -1 415 0M539 328l0 -1M539 328l1 0M540 329l0 -1 14 0 0 -1M554 328l13 0M567 329l0 -1 7 0"/>
<path stroke="red" d="M574 356l0 -28M574 356l1 5M575 370l0 -9M575 370l1 1M576 372l0 -1M576 372l4 0 0 -1M580 372l46 0 0 -15 1 -1 0 -3 6 0 0 -1 13 0M646 353l0 -1M646 353l7 0M653 361l0 -9M653 361l1 3 5 0 0 -1 13 0M672 364l0 -1M672 364l7 0M679 369l0 -6"/>
<path stroke="red" d="M679 369l1 1M680 371l0 -2 26 0M706 372l0 -3M706 372l25 0 1 -2 0 -1 19 0M751 370l0 -1M751 370l1 0 0 -1 7 0M759 372l0 -3M759 371l54 0M813 372l0 -1 25 0 1 -1M839 371l0 -1M839 371l79 0M918 372l0 -19 1 -4 0 -9 1 -4 0 -3 1 -2"/>
<path stroke="red" d="M921 331l0 -2 1 0 0 -1 1 0 0 -1M923 328l13 0M936 329l0 -1 14 0 0 -1M950 328l12 0 0 -1 12 0"/>
<path stroke="blue" d="M50 23l46 0"/>
<text stroke="none" fill="white" font-size="16" x="106" y="32">
x1.vsampled_n
</text>
<path stroke="blue" d="M50 459l1 0 1 -7 0 -17 1 -15 0 -5 1 2M54 441l0 -43 1 -5 0 -14 1 -3 0 -2 1 -2 1 0 0 -1 59 0M117 380l0 -9M117 380l1 11M118 405l0 -14M118 405l1 3M119 412l0 -4M119 412l1 1 1 0M121 414l0 -1M121 414l419 0M540 415l0 -1 6 0 0 -31"/>
<path stroke="blue" d="M546 383l1 -5 0 -21 1 -1 0 -5 1 -2 1 0 0 -1 4 0 0 -1M554 348l12 0 1 1 0 -1 26 0M593 349l0 -1 7 0M600 370l0 -22M600 370l1 3M601 377l0 -4 1 -1 0 -1 1 -1 16 0M619 371l0 -1 27 0M646 371l0 -1 26 0M672 371l0 -1 27 0M699 371l0 -1"/>
<path stroke="blue" d="M699 370l26 0M725 371l0 -1 26 0M751 371l0 -1M751 371l1 0 0 -1 26 0M778 371l0 -1 7 0M785 371l0 -1M785 371l1 0M786 372l0 -1 132 0M918 398l0 -28M918 398l1 6M919 415l0 -11M919 415l1 1 1 -1 1 0 0 -1 52 0"/>
<path stroke="#FFA500" d="M462 39l46 0"/>
<text stroke="none" fill="white" font-size="16" x="518" y="48">
x1.vsampled_p-x1.vsampled_n
</text>
<path stroke="#FFA500" d="M50 459l2 0 1 -1 1 0M54 459l0 -1M54 459l63 0 0 -10 1 -22 0 -33 1 -7 0 -9 2 -4 0 -1 1 0 1 -1 416 0M539 373l0 -1M539 373l1 -1M540 373l0 -1M540 373l6 0M546 403l0 -30M546 403l1 6M547 430l0 -21M547 430l1 1M548 436l0 -5M548 436l2 2"/>
<path stroke="#FFA500" d="M550 438l4 0M554 439l0 -1 12 0 1 1 0 -1 7 0M574 466l0 -28M574 466l1 5M575 481l0 -10M575 481l1 1 4 0M580 483l0 -1M580 483l1 0 0 -1 12 0M593 483l0 -1 7 0 0 -21 1 -4 0 -3M601 457l1 2M602 460l0 -1M602 460l4 0M606 461l0 -1"/>
<path stroke="#FFA500" d="M606 461l1 0 0 -1 19 0 0 -14 1 -1 0 -3 1 0 0 -1 18 0M646 442l0 -1 7 0M653 450l0 -9M653 450l1 2M654 453l0 -1M654 453l1 -1 24 0M679 458l0 -6M679 458l1 1 0 -1 26 0M706 461l0 -3M706 461l1 0 0 -1 5 0M712 461l0 -1 19 0 1 -1"/>
<path stroke="#FFA500" d="M732 459l0 -2M732 458l27 0M759 460l0 -2M759 459l26 0 1 -1M786 459l0 -1M786 459l27 0M813 460l0 -1 25 0 1 -1M839 459l0 -1M839 459l79 0M918 461l0 -47 1 -10 0 -21 1 -4 0 -3 1 -2 0 -1 2 0 0 -1 13 0M936 374l0 -2M936 373l14 0"/>
<path stroke="#FFA500" d="M950 373l0 -1 24 0"/>
<path stroke="green" d="M50 39l46 0"/>
<text stroke="none" fill="white" font-size="16" x="106" y="48">
x1.sw_sample-2
</text>
<path stroke="green" d="M50 655l1 0 1 -10 0 -23 1 -21M53 620l0 -26M53 620l1 32M54 655l0 -3M54 655l63 0M117 662l0 -184 1 0M118 479l0 -1M118 479l421 0M539 656l0 -184M539 655l422 0M961 660l0 -182 1 0M962 479l0 -1M962 479l12 0"/>
<path stroke="#FFC0C5" d="M462 55l46 0"/>
<text stroke="none" fill="white" font-size="16" x="518" y="64">
x1.comp_out_p+2
</text>
<path stroke="#FFC0C5" d="M50 263l1 0 1 -10 0 -23 1 -20 0 -4M53 209l1 4M54 263l0 -50M54 263l487 0 1 2 0 -180M542 87l13 0M555 263l0 -185M555 263l13 0 0 -178M568 87l13 0 0 -10 1 172M582 263l0 -14M582 263l65 0M647 264l0 -179M647 87l14 0M661 264l0 -185"/>
<path stroke="#FFC0C5" d="M661 263l12 0M673 271l0 -8M673 271l1 -142 0 -44M674 87l13 0M687 263l0 -185M687 263l13 0 0 -178 1 1M701 87l0 -1M701 87l12 0 1 -9M714 264l0 -186M714 263l39 0 0 -177 1 0M754 87l0 -1M754 87l12 0M766 264l0 -181M766 263l41 0"/>
<path stroke="#FFC0C5" d="M807 263l0 -177 1 0M808 87l0 -1M808 87l11 0M819 264l0 -185M819 263l41 0 0 -177M860 87l12 0M872 264l0 -187M872 263l14 0 0 -177 1 0M887 87l0 -1M887 87l11 0M898 264l0 -187M898 263l15 0 0 -177M913 87l12 0M925 264l0 -184"/>
<path stroke="#FFC0C5" d="M925 263l12 0 1 -43 0 -135M938 87l13 0M951 264l0 -183M951 263l23 0"/>
<path stroke="#A52A2A" d="M50 55l46 0"/>
<text stroke="none" fill="white" font-size="16" x="106" y="64">
x1.comp_out_n-2
</text>
<path stroke="#A52A2A" d="M50 655l1 0 1 -10 0 -24 1 -20M53 602l0 -3M53 602l1 7M54 655l0 -46M54 654l1 1 487 0M542 656l0 -1 52 0 0 -178M594 478l1 1 13 0M608 656l0 -187M608 655l13 0 1 -166 0 -11M622 479l12 0M634 655l0 -186M634 655l13 0M647 656l0 -1"/>
<path stroke="#A52A2A" d="M647 655l80 0 0 -177 1 1 12 0M740 655l0 -185M740 655l40 0 0 -177M780 479l13 0M793 655l0 -188M793 655l41 0 0 -177 1 1 10 0M845 642l0 -173M845 642l1 13 128 0"/>
</svg>
