<?xml version="1.0" standalone="yes"?>
<!DOCTYPE svg PUBLIC "-//W3C//DTD SVG 1.1//EN"
 "http://www.w3.org/Graphics/SVG/1.1/DTD/svg11.dtd">
<svg xmlns="http://www.w3.org/2000/svg" version="1.1"
  width="100%" height="100%" viewBox="0 0 1024 768"
  style="fill: none; font-family: Helvetica;
 font: Helvetica;
">

<!-- Creator: NGspice -->

<rect x="0" y="0" width="1024" height="768" fill="black" stroke="none"/>
<text stroke="none" fill="white" font-size="16" x="358" y="752">
time
</text>
<text stroke="none" fill="white" font-size="16" x="10" y="16">
tran1: run1870_vin0.743992
</text>
<path stroke="white" d="M50 704l0 -637"/>
<text stroke="none" fill="white" font-size="16" x="35" y="728">
0.0
</text>
<path stroke="white" stroke-dasharray="1,2" d="M182 704l0 -637"/>
<text stroke="none" fill="white" font-size="16" x="157" y="728">
100.0
</text>
<path stroke="white" stroke-dasharray="1,2" d="M314 704l0 -637"/>
<text stroke="none" fill="white" font-size="16" x="289" y="728">
200.0
</text>
<path stroke="white" stroke-dasharray="1,2" d="M446 704l0 -637"/>
<text stroke="none" fill="white" font-size="16" x="421" y="728">
300.0
</text>
<path stroke="white" stroke-dasharray="1,2" d="M578 704l0 -637"/>
<text stroke="none" fill="white" font-size="16" x="553" y="728">
400.0
</text>
<path stroke="white" stroke-dasharray="1,2" d="M710 704l0 -637"/>
<text stroke="none" fill="white" font-size="16" x="685" y="728">
500.0
</text>
<path stroke="white" stroke-dasharray="1,2" d="M842 704l0 -637"/>
<text stroke="none" fill="white" font-size="16" x="817" y="728">
600.0
</text>
<path stroke="white" stroke-dasharray="1,2" d="M974 704l0 -637"/>
<text stroke="none" fill="white" font-size="16" x="949" y="728">
700.0
</text>
<text stroke="none" fill="white" font-size="16" x="614" y="752">
ns
</text>
<path stroke="white" stroke-dasharray="1,2" d="M50 704l924 0"/>
<text stroke="none" fill="white" font-size="16" x="8" y="712">
-3.0
</text>
<path stroke="white" stroke-dasharray="1,2" d="M50 613l924 0"/>
<text stroke="none" fill="white" font-size="16" x="8" y="621">
-2.0
</text>
<path stroke="white" stroke-dasharray="1,2" d="M50 522l924 0"/>
<text stroke="none" fill="white" font-size="16" x="8" y="530">
-1.0
</text>
<path stroke="white" d="M50 431l924 0"/>
<text stroke="none" fill="white" font-size="16" x="18" y="439">
0.0
</text>
<path stroke="white" stroke-dasharray="1,2" d="M50 340l924 0"/>
<text stroke="none" fill="white" font-size="16" x="18" y="348">
1.0
</text>
<path stroke="white" stroke-dasharray="1,2" d="M50 249l924 0"/>
<text stroke="none" fill="white" font-size="16" x="18" y="257">
2.0
</text>
<path stroke="white" stroke-dasharray="1,2" d="M50 158l924 0"/>
<text stroke="none" fill="white" font-size="16" x="18" y="166">
3.0
</text>
<path stroke="white" stroke-dasharray="1,2" d="M50 67l924 0"/>
<text stroke="none" fill="white" font-size="16" x="18" y="75">
4.0
</text>
<text stroke="none" fill="white" font-size="16" x="10" y="32">
     
</text>
<path stroke="red" d="M462 23l46 0"/>
<text stroke="none" fill="white" font-size="16" x="518" y="32">
x1.vsampled_p
</text>
<path stroke="red" d="M50 431l1 0 1 -7 0 -16 1 -14 0 -5 1 2M54 414l0 -38 1 -4 0 -14 1 -3 0 -2 1 -2 0 -1 2 0 1 -1 3 0 1 1 5 0 0 -1 48 0 0 -1 1 -11 0 -35 1 -5 0 -9 1 -3 0 -2 1 -1 2 0 1 -1 415 0M539 282l0 -1M539 282l1 0M540 283l0 -1 14 0 0 -1M554 282l13 0"/>
<path stroke="red" d="M567 283l0 -1 6 0 0 -1 1 5M574 310l0 -24M574 310l1 10 1 2M576 323l0 -1M576 323l4 0 0 -1 13 0M593 323l0 -1M593 323l7 0M600 336l0 -14M600 336l1 4M601 344l0 -4M601 344l1 -1 77 0M679 348l0 -5M679 348l1 1 0 -1 79 0M759 350l0 -2"/>
<path stroke="red" d="M759 349l19 0M778 350l0 -1 26 0M804 350l0 -1 27 0M831 350l0 -1 86 0M917 350l0 -1M917 350l1 0 0 -51 1 -3 0 -7 1 -2 0 -3 1 -1 0 -1 2 0 0 -1M923 282l13 0M936 283l0 -1 14 0 0 -1M950 282l11 0 0 -1 13 0"/>
<path stroke="blue" d="M50 23l46 0"/>
<text stroke="none" fill="white" font-size="16" x="106" y="32">
x1.vsampled_n
</text>
<path stroke="blue" d="M50 431l1 0 1 -7 0 -15 1 -14 0 -5 1 2M54 414l0 -38 1 -4 0 -14 1 -3 0 -2 1 -2 0 -1 2 0 1 -1 3 0 1 1 4 0 1 -1 48 0M117 368l0 -19M117 368l1 16M118 405l0 -21M118 405l1 3M119 413l0 -5M119 413l1 1M120 416l0 -2M120 416l2 0M122 417l0 -1"/>
<path stroke="blue" d="M122 417l424 0 0 -27 1 -2 0 -19 1 -7 0 -4 2 -2 4 0 0 -1M554 356l13 0 0 -1M567 356l13 0 0 -1M580 356l13 0 0 -1M593 356l13 0 0 -1 1 0M607 356l0 -1M607 356l13 0 0 -1M620 356l5 0 0 -6 1 -5 0 -8 2 0M628 338l0 -1M628 338l5 0"/>
<path stroke="blue" d="M633 338l0 -1M633 338l20 0M653 348l0 -10M653 348l1 2M654 351l0 -1 1 -1 0 -1 51 0M706 352l0 -4M706 352l1 -1 5 0 0 -1 13 0M725 351l0 -1M725 351l6 0 0 -4 1 0M732 348l0 -1M732 348l19 0M751 349l0 -1M751 349l1 -1 26 0M778 349l0 -1"/>
<path stroke="blue" d="M778 348l7 0M785 350l0 -2M785 350l1 0 0 -1 26 0M812 350l0 -1 19 0M831 350l0 -1 26 0M857 350l0 -1 26 0M883 350l0 -1M883 350l1 -1 26 0M910 350l0 -1 8 0M918 423l0 -74M918 423l1 0 0 -2 1 -1 0 -2 1 -1 53 0"/>
<path stroke="#FFA500" d="M462 39l46 0"/>
<text stroke="none" fill="white" font-size="16" x="518" y="48">
x1.vsampled_p-x1.vsampled_n
</text>
<path stroke="#FFA500" d="M50 431l2 0 0 -1 2 0M54 431l0 -1M54 431l63 0 0 -20 1 -28 0 -55 1 -8 0 -14 1 -4 0 -3 1 -2 1 -1 418 0M540 297l0 -1 6 0M546 322l0 -26M546 322l1 3M547 343l0 -18M547 343l1 7M548 355l0 -5M548 355l2 2 17 0M567 358l0 -1 6 0"/>
<path stroke="#FFA500" d="M573 357l1 4M574 385l0 -24M574 385l1 10 1 3 24 0M600 412l0 -14M600 412l1 3M601 419l0 -4M601 419l1 0 0 -1 17 0M619 419l0 -1 1 0M620 419l0 -1 5 0M625 424l0 -6M625 424l1 5M626 437l0 -8M626 437l2 0 0 -1 5 0M633 437l0 -1"/>
<path stroke="#FFA500" d="M633 436l20 0 0 -10 1 -2 0 -1M654 424l1 1M655 426l0 -1M655 426l24 0M679 431l0 -5M679 431l1 1 0 -1 26 0 0 -4 1 1M707 429l0 -1M707 429l18 0 0 -1M725 429l6 0M731 433l0 -4M731 433l1 -1 0 -1 27 0M759 433l0 -2M759 432l26 0"/>
<path stroke="#FFA500" d="M785 432l0 -1 6 0M791 432l0 -1 13 0M804 432l0 -1 8 0 0 -1M812 431l105 0M917 432l0 -1M917 432l1 -1 0 -123 1 -3 0 -6 1 -1 0 -1 1 -1 2 0 0 -1M923 296l13 0M936 297l0 -1 14 0 0 -1M950 296l24 0"/>
<path stroke="green" d="M50 39l46 0"/>
<text stroke="none" fill="white" font-size="16" x="106" y="48">
x1.sw_sample-2
</text>
<path stroke="green" d="M50 613l1 0 1 -9 0 -21 1 -21M53 579l0 -23M53 579l1 31M54 613l0 -3M54 613l63 0M117 620l0 -172M117 449l422 0M539 614l0 -171M539 613l422 0M961 618l0 -170 1 1 12 0"/>
<path stroke="#FFC0C5" d="M462 55l46 0"/>
<text stroke="none" fill="white" font-size="16" x="518" y="64">
x1.comp_out_p+2
</text>
<path stroke="#FFC0C5" d="M50 249l1 0 1 -9 0 -22 1 -18 0 -4M53 198l1 5M54 249l0 -46M54 249l488 0M542 256l0 -173M542 85l13 0M555 250l0 -171M555 249l13 0M568 252l0 -168M568 85l13 0 0 -8 1 160M582 249l0 -12M582 249l12 0M594 252l0 -168M594 85l14 0"/>
<path stroke="#FFC0C5" d="M608 250l0 -173M608 249l13 0M621 251l0 -168M621 85l13 0M634 249l0 -171M634 249l39 0M673 252l0 -3M673 252l1 -98 0 -70M674 85l13 0M687 250l0 -173M687 249l40 0 0 -165M727 85l13 0M740 249l0 -172M740 249l13 0 0 -144 1 -20"/>
<path stroke="#FFC0C5" d="M754 85l0 -1M754 85l12 0M766 250l0 -173M766 250l1 -1 93 0 0 -165M860 85l12 0M872 249l0 -174M872 249l14 0 0 -151 1 -13 0 -1M887 85l11 0M898 249l0 -174M898 249l15 0 0 -165M913 85l12 0M925 249l0 -172M925 249l12 0 1 -43"/>
<path stroke="#FFC0C5" d="M938 206l0 -122M938 85l13 0M951 250l0 -173M951 249l23 0"/>
<path stroke="#A52A2A" d="M50 55l46 0"/>
<text stroke="none" fill="white" font-size="16" x="106" y="64">
x1.comp_out_n-2
</text>
<path stroke="#A52A2A" d="M50 613l1 0 1 -9 0 -22 1 -19M53 564l0 -3M53 564l1 6M54 614l0 -44M54 608l1 4M55 613l0 -1M55 613l592 0M647 614l0 -167M647 449l14 0M661 614l0 -172M661 613l39 0 1 -146 0 -19M701 449l12 0 0 -8 1 156M714 613l0 -16M714 613l66 0"/>
<path stroke="#A52A2A" d="M780 613l0 -165M780 449l13 0M793 613l0 -167M793 613l14 0 0 -165M807 449l12 0M819 613l0 -174M819 613l15 0 0 -165M834 449l11 0 0 -2M845 448l1 154M846 613l0 -11M846 613l128 0"/>
</svg>
