<?xml version="1.0" standalone="yes"?>
<!DOCTYPE svg PUBLIC "-//W3C//DTD SVG 1.1//EN"
 "http://www.w3.org/Graphics/SVG/1.1/DTD/svg11.dtd">
<svg xmlns="http://www.w3.org/2000/svg" version="1.1"
  width="100%" height="100%" viewBox="0 0 1024 768"
  style="fill: none; font-family: Helvetica;
 font: Helvetica;
">

<!-- Creator: NGspice -->

<rect x="0" y="0" width="1024" height="768" fill="black" stroke="none"/>
<text stroke="none" fill="white" font-size="16" x="358" y="752">
time
</text>
<text stroke="none" fill="white" font-size="16" x="10" y="16">
tran1: run567_vin-0.401221
</text>
<path stroke="white" d="M50 704l0 -637"/>
<text stroke="none" fill="white" font-size="16" x="35" y="728">
0.0
</text>
<path stroke="white" stroke-dasharray="1,2" d="M182 704l0 -637"/>
<text stroke="none" fill="white" font-size="16" x="157" y="728">
100.0
</text>
<path stroke="white" stroke-dasharray="1,2" d="M314 704l0 -637"/>
<text stroke="none" fill="white" font-size="16" x="289" y="728">
200.0
</text>
<path stroke="white" stroke-dasharray="1,2" d="M446 704l0 -637"/>
<text stroke="none" fill="white" font-size="16" x="421" y="728">
300.0
</text>
<path stroke="white" stroke-dasharray="1,2" d="M578 704l0 -637"/>
<text stroke="none" fill="white" font-size="16" x="553" y="728">
400.0
</text>
<path stroke="white" stroke-dasharray="1,2" d="M710 704l0 -637"/>
<text stroke="none" fill="white" font-size="16" x="685" y="728">
500.0
</text>
<path stroke="white" stroke-dasharray="1,2" d="M842 704l0 -637"/>
<text stroke="none" fill="white" font-size="16" x="817" y="728">
600.0
</text>
<path stroke="white" stroke-dasharray="1,2" d="M974 704l0 -637"/>
<text stroke="none" fill="white" font-size="16" x="949" y="728">
700.0
</text>
<text stroke="none" fill="white" font-size="16" x="614" y="752">
ns
</text>
<path stroke="white" stroke-dasharray="1,2" d="M50 704l924 0"/>
<text stroke="none" fill="white" font-size="16" x="8" y="712">
-3.0
</text>
<path stroke="white" stroke-dasharray="1,2" d="M50 613l924 0"/>
<text stroke="none" fill="white" font-size="16" x="8" y="621">
-2.0
</text>
<path stroke="white" stroke-dasharray="1,2" d="M50 522l924 0"/>
<text stroke="none" fill="white" font-size="16" x="8" y="530">
-1.0
</text>
<path stroke="white" d="M50 431l924 0"/>
<text stroke="none" fill="white" font-size="16" x="18" y="439">
0.0
</text>
<path stroke="white" stroke-dasharray="1,2" d="M50 340l924 0"/>
<text stroke="none" fill="white" font-size="16" x="18" y="348">
1.0
</text>
<path stroke="white" stroke-dasharray="1,2" d="M50 249l924 0"/>
<text stroke="none" fill="white" font-size="16" x="18" y="257">
2.0
</text>
<path stroke="white" stroke-dasharray="1,2" d="M50 158l924 0"/>
<text stroke="none" fill="white" font-size="16" x="18" y="166">
3.0
</text>
<path stroke="white" stroke-dasharray="1,2" d="M50 67l924 0"/>
<text stroke="none" fill="white" font-size="16" x="18" y="75">
4.0
</text>
<text stroke="none" fill="white" font-size="16" x="10" y="32">
     
</text>
<path stroke="red" d="M462 23l46 0"/>
<text stroke="none" fill="white" font-size="16" x="518" y="32">
x1.vsampled_p
</text>
<path stroke="red" d="M50 431l1 0 1 -7 0 -15 1 -14 0 -5 1 2M54 415l0 -40 1 -5 0 -13 1 -3 0 -2 2 -2 1 0 1 -1 4 0M64 350l0 -1M64 350l4 0 1 -1 48 0M117 356l0 -7M117 356l1 10M118 378l0 -12M118 378l1 3M119 382l0 -1M119 382l1 2M120 385l0 -1M120 385l1 0"/>
<path stroke="red" d="M121 385l1 1 424 0 0 -30 1 -4 0 -20 1 -2 0 -3 1 -1 0 -1 5 0 0 -1 12 0 1 1M567 326l0 -2M567 325l13 0 0 -1 13 0M593 326l0 -2M593 325l7 0M600 346l0 -21M600 346l1 3M601 351l0 -3 1 -1 0 -2 77 0M679 351l0 -6M679 351l1 0M680 353l0 -2"/>
<path stroke="red" d="M680 351l1 -1 51 0 0 -4M732 347l1 1 26 0M759 350l0 -2M759 349l54 0M813 350l0 -1 17 0 1 1 0 -1 86 0M917 351l0 -2 1 5M918 373l0 -19M918 373l1 6M919 387l0 -8M919 387l1 0 1 -1 53 0"/>
<path stroke="blue" d="M50 23l46 0"/>
<text stroke="none" fill="white" font-size="16" x="106" y="32">
x1.vsampled_n
</text>
<path stroke="blue" d="M50 431l1 0 1 -7 0 -15 1 -15 0 -4 1 1M54 415l0 -40 1 -5 0 -13 1 -3 0 -2 2 -2 1 0 1 -1 4 0M64 350l0 -1M64 350l4 0 1 -1 48 0 0 -1 1 -9 0 -16 1 -4 0 -2 1 -2 0 -1 1 -1 419 0M540 314l0 -1 14 0 0 -1M554 313l13 0M567 314l0 -1"/>
<path stroke="blue" d="M567 313l7 0M574 337l0 -24M574 337l1 4M575 352l0 -11M575 352l1 1M576 354l0 -1M576 354l4 0 0 -1M580 354l45 0 0 -1 1 -6 0 -9 1 -1 0 -1 6 0 0 -1M633 336l20 0M653 345l0 -9M653 345l1 1M654 347l0 -1 52 0M706 349l0 -3M706 349l6 0"/>
<path stroke="blue" d="M712 349l0 -1M712 349l26 0 0 -1 1 0M739 349l0 -1M739 349l26 0 0 -1M765 349l20 0 1 1 0 -1 18 0M804 350l0 -1 27 0M831 350l0 -1 26 0M857 350l0 -1 26 0M883 350l0 -1 27 0M910 350l0 -1 7 0 0 -3 1 0 0 -11 1 -4 0 -7 1 -3 0 -5 1 -2"/>
<path stroke="blue" d="M921 314l1 0 0 -1 1 0 0 -1M923 313l13 0M936 314l0 -1 14 0 0 -1M950 313l24 0"/>
<path stroke="#FFA500" d="M462 39l46 0"/>
<text stroke="none" fill="white" font-size="16" x="518" y="48">
x1.vsampled_p-x1.vsampled_n
</text>
<path stroke="#FFA500" d="M50 431l2 0 1 1 1 0 0 -1 63 0M117 439l0 -8M117 439l1 19M118 486l0 -28M118 486l1 6M119 497l0 -5M119 497l1 3M120 502l0 -2M120 502l1 1M121 504l0 -1M121 504l419 0 0 -1M540 504l6 0 0 -29 1 -5 0 -20 1 -2 0 -2 1 -2 0 -1 5 0"/>
<path stroke="#FFA500" d="M554 443l0 -1M554 443l13 0 0 -1M567 443l7 0 0 -24 1 -4 0 -12 1 -1 4 0 0 -1M580 402l13 0M593 403l0 -1 7 0M600 423l0 -21M600 423l1 3M601 428l0 -3 1 -1 0 -1 1 -1 22 0M625 423l0 -1M625 423l1 6M626 438l0 -9M626 438l1 1M627 440l0 -1"/>
<path stroke="#FFA500" d="M627 440l26 0 0 -9 1 -1 0 -1M654 430l25 0M679 436l0 -6M679 436l1 0M680 438l0 -2 1 -1 25 0 0 -3 19 0M725 433l0 -1 7 0 0 -3M732 430l27 0M759 433l0 -3M759 432l1 0 1 -1 17 0M778 432l0 -1 8 0 0 -1M786 431l27 0M813 432l0 -1"/>
<path stroke="#FFA500" d="M813 431l25 0 0 -1M838 431l79 0M917 434l0 -3M917 434l1 6M918 470l0 -30M918 470l1 9M919 494l0 -15M919 494l1 4M920 502l0 -4M920 502l1 1 1 0M922 504l0 -1M922 504l14 0 0 -1M936 504l38 0"/>
<path stroke="green" d="M50 39l46 0"/>
<text stroke="none" fill="white" font-size="16" x="106" y="48">
x1.sw_sample-2
</text>
<path stroke="green" d="M50 613l1 0 1 -9 0 -21 1 -21M53 580l0 -24M53 580l1 30M54 613l0 -3M54 613l63 0M117 620l0 -172M117 449l422 0M539 614l0 -171M539 613l422 0M961 618l0 -170 1 1 12 0"/>
<path stroke="#FFC0C5" d="M462 55l46 0"/>
<text stroke="none" fill="white" font-size="16" x="518" y="64">
x1.comp_out_p+2
</text>
<path stroke="#FFC0C5" d="M50 249l1 0 1 -9 0 -22 1 -18 0 -4M53 198l1 5M54 249l0 -46M54 248l1 1 539 0M594 250l0 -166M594 85l14 0M608 250l0 -174M608 249l13 0M621 251l0 -167M621 85l13 0M634 249l0 -172M634 249l40 0 0 -166M674 85l13 0M687 249l0 -173"/>
<path stroke="#FFC0C5" d="M687 249l66 0 0 -165M753 85l13 0M766 249l0 -167M766 249l41 0 0 -164 12 0M819 250l0 -171M819 249l41 0 0 -164 12 0M872 249l0 -173M872 249l14 0 0 -157 1 -8M887 85l0 -1M887 85l11 0M898 249l0 -173M898 249l14 0 1 -157 0 -8"/>
<path stroke="#FFC0C5" d="M913 85l12 0M925 250l0 -170M925 249l49 0"/>
<path stroke="#A52A2A" d="M50 55l46 0"/>
<text stroke="none" fill="white" font-size="16" x="106" y="64">
x1.comp_out_n-2
</text>
<path stroke="#A52A2A" d="M50 613l1 0 1 -9 0 -22 1 -19M53 564l0 -3M53 564l1 6M54 613l0 -43M54 613l488 0M542 614l0 -166M542 449l13 0M555 614l0 -172M555 613l13 0M568 614l0 -167M568 449l13 0 0 -9 1 165M582 613l0 -8M582 613l12 0M594 614l0 -1 27 0"/>
<path stroke="#A52A2A" d="M621 614l0 -1 26 0 0 -166M647 449l14 0M661 613l0 -173M661 613l39 0 0 -166M700 449l13 0 0 -9 1 165M714 614l0 -9M714 613l13 0 0 -165M727 449l13 0M740 613l0 -171M740 613l40 0 0 -165M780 449l13 0M793 613l0 -174M793 613l41 0"/>
<path stroke="#A52A2A" d="M834 613l0 -165M834 449l11 0 0 -10 1 153M846 613l0 -21M846 613l91 0 1 -50 0 -115M938 449l13 0M951 614l0 -171M951 613l23 0"/>
</svg>
