<?xml version="1.0" standalone="yes"?>
<!DOCTYPE svg PUBLIC "-//W3C//DTD SVG 1.1//EN"
 "http://www.w3.org/Graphics/SVG/1.1/DTD/svg11.dtd">
<svg xmlns="http://www.w3.org/2000/svg" version="1.1"
  width="100%" height="100%" viewBox="0 0 1024 768"
  style="fill: none; font-family: Helvetica;
 font: Helvetica;
">

<!-- Creator: NGspice -->

<rect x="0" y="0" width="1024" height="768" fill="black" stroke="none"/>
<text stroke="none" fill="white" font-size="16" x="358" y="752">
time
</text>
<text stroke="none" fill="white" font-size="16" x="10" y="16">
tran1: run1524_vin0.439891
</text>
<path stroke="white" d="M50 704l0 -637"/>
<text stroke="none" fill="white" font-size="16" x="35" y="728">
0.0
</text>
<path stroke="white" stroke-dasharray="1,2" d="M182 704l0 -637"/>
<text stroke="none" fill="white" font-size="16" x="157" y="728">
100.0
</text>
<path stroke="white" stroke-dasharray="1,2" d="M314 704l0 -637"/>
<text stroke="none" fill="white" font-size="16" x="289" y="728">
200.0
</text>
<path stroke="white" stroke-dasharray="1,2" d="M446 704l0 -637"/>
<text stroke="none" fill="white" font-size="16" x="421" y="728">
300.0
</text>
<path stroke="white" stroke-dasharray="1,2" d="M578 704l0 -637"/>
<text stroke="none" fill="white" font-size="16" x="553" y="728">
400.0
</text>
<path stroke="white" stroke-dasharray="1,2" d="M710 704l0 -637"/>
<text stroke="none" fill="white" font-size="16" x="685" y="728">
500.0
</text>
<path stroke="white" stroke-dasharray="1,2" d="M842 704l0 -637"/>
<text stroke="none" fill="white" font-size="16" x="817" y="728">
600.0
</text>
<path stroke="white" stroke-dasharray="1,2" d="M974 704l0 -637"/>
<text stroke="none" fill="white" font-size="16" x="949" y="728">
700.0
</text>
<text stroke="none" fill="white" font-size="16" x="614" y="752">
ns
</text>
<path stroke="white" stroke-dasharray="1,2" d="M50 704l924 0"/>
<text stroke="none" fill="white" font-size="16" x="8" y="712">
-3.0
</text>
<path stroke="white" stroke-dasharray="1,2" d="M50 613l924 0"/>
<text stroke="none" fill="white" font-size="16" x="8" y="621">
-2.0
</text>
<path stroke="white" stroke-dasharray="1,2" d="M50 522l924 0"/>
<text stroke="none" fill="white" font-size="16" x="8" y="530">
-1.0
</text>
<path stroke="white" d="M50 431l924 0"/>
<text stroke="none" fill="white" font-size="16" x="18" y="439">
0.0
</text>
<path stroke="white" stroke-dasharray="1,2" d="M50 340l924 0"/>
<text stroke="none" fill="white" font-size="16" x="18" y="348">
1.0
</text>
<path stroke="white" stroke-dasharray="1,2" d="M50 249l924 0"/>
<text stroke="none" fill="white" font-size="16" x="18" y="257">
2.0
</text>
<path stroke="white" stroke-dasharray="1,2" d="M50 158l924 0"/>
<text stroke="none" fill="white" font-size="16" x="18" y="166">
3.0
</text>
<path stroke="white" stroke-dasharray="1,2" d="M50 67l924 0"/>
<text stroke="none" fill="white" font-size="16" x="18" y="75">
4.0
</text>
<text stroke="none" fill="white" font-size="16" x="10" y="32">
     
</text>
<path stroke="red" d="M462 23l46 0"/>
<text stroke="none" fill="white" font-size="16" x="518" y="32">
x1.vsampled_p
</text>
<path stroke="red" d="M50 431l1 0 1 -7 0 -15 1 -15 0 -4 1 1M54 414l0 -39 1 -5 0 -13 1 -3 0 -2 2 -2 1 0 1 -1 4 0M64 350l0 -1M64 350l4 0 1 -1 48 0 0 -1 1 -9 0 -18 1 -4 0 -5 2 -2 0 -1 419 0M540 310l0 -1 26 0 1 1 0 -1 7 0M574 331l0 -22M574 331l1 6"/>
<path stroke="red" d="M575 349l0 -12M575 349l1 1 17 0M593 351l0 -1 33 0 0 -13 1 -1 0 -3 1 0 0 -1 18 0M646 333l0 -1 7 0M653 340l0 -8M653 340l1 2M654 343l0 -1M654 343l5 0 0 -1 13 0M672 343l0 -1M672 343l7 0M679 348l0 -6M679 348l1 1 0 -1 6 0 0 -1"/>
<path stroke="red" d="M686 348l20 0M706 351l0 -3M706 351l1 0 0 -1 24 0 0 -3 1 0M732 348l0 -1M732 348l27 0M759 350l0 -2M759 349l19 0M778 350l0 -1 26 0M804 350l0 -1 27 0M831 350l0 -1 26 0M857 350l0 -1 26 0M883 350l0 -1 27 0M910 350l0 -1 8 0M918 351l0 -13"/>
<path stroke="red" d="M918 338l1 -1 0 -11 1 -6 0 -3 1 -3 0 -3 1 0 0 -1 1 0 0 -1 13 0M936 311l0 -2 38 0"/>
<path stroke="blue" d="M50 23l46 0"/>
<text stroke="none" fill="white" font-size="16" x="106" y="32">
x1.vsampled_n
</text>
<path stroke="blue" d="M50 431l1 0 1 -7 0 -15 1 -14 0 -5 1 2M54 415l0 -40 1 -5 0 -13 1 -3 0 -2 2 -2 1 0 1 -1 4 0M64 350l0 -1M64 350l4 0 1 -1 48 0M117 357l0 -8M117 357l1 11M118 381l0 -13M118 381l1 3M119 387l0 -3M119 387l2 2 425 0 0 -28 1 -4 0 -20"/>
<path stroke="blue" d="M547 337l1 -2 0 -4 1 -1 0 -1 1 -1 4 0 0 -1M554 328l13 0M567 329l0 -1 13 0 0 -1M580 328l13 0M593 329l0 -1 7 0M600 348l0 -20M600 348l1 3M601 354l0 -3 1 -1 0 -1 1 0 0 -1 16 0M619 349l0 -1M619 349l1 0 0 -1 26 0M646 349l0 -1"/>
<path stroke="blue" d="M646 348l26 0M672 349l0 -1 26 0 1 1 0 -1 26 0M725 349l0 -1 26 0M751 349l0 -1M751 349l1 0 0 -1 26 0M778 349l0 -1 7 0M785 350l0 -2M785 350l1 0 0 -1 26 0M812 350l0 -1M812 350l1 0 0 -1 17 0 1 1 0 -1 87 0M918 365l0 -18M918 365l1 2"/>
<path stroke="blue" d="M919 385l0 -18M919 385l1 5M920 391l0 -1M920 391l1 0 0 -1 1 0 0 -1 52 0"/>
<path stroke="#FFA500" d="M462 39l46 0"/>
<text stroke="none" fill="white" font-size="16" x="518" y="48">
x1.vsampled_p-x1.vsampled_n
</text>
<path stroke="#FFA500" d="M50 431l2 0 1 -1 1 0M54 431l0 -1M54 431l63 0 0 -9 1 -20 0 -31 1 -6 0 -9 2 -4 1 -1 418 0M540 352l0 -1 6 0M546 379l0 -28M546 379l1 5M547 404l0 -20M547 404l1 1M548 409l0 -4M548 409l1 2M549 412l0 -1M549 412l5 0M554 413l0 -1"/>
<path stroke="#FFA500" d="M554 412l13 0M567 413l0 -1 7 0M574 434l0 -22M574 434l1 6M575 452l0 -12M575 452l1 1 4 0M580 454l0 -1 13 0 0 -1M593 453l7 0 0 -20 1 -3 0 -3M601 430l1 1M602 432l0 -1M602 432l1 1 23 0 0 -14 1 -1 0 -2 1 -1 25 0M653 423l0 -8"/>
<path stroke="#FFA500" d="M653 423l1 2M654 426l0 -1 25 0M679 430l0 -5M679 430l1 1M680 432l0 -2 26 0M706 433l0 -3M706 433l25 0 0 -3 1 0M732 431l0 -1M732 431l19 0 0 -1 1 0M752 431l0 -1M752 431l7 0M759 433l0 -2M759 432l26 0 0 -1 1 -1M786 431l0 -1"/>
<path stroke="#FFA500" d="M786 431l26 0 0 -1 1 1 25 0M838 432l0 -1 80 0M918 434l0 -30 1 -3 0 -30 1 -10 0 -4 1 -3 0 -2 1 0 1 -1 13 0M936 352l0 -1 38 0"/>
<path stroke="green" d="M50 39l46 0"/>
<text stroke="none" fill="white" font-size="16" x="106" y="48">
x1.sw_sample-2
</text>
<path stroke="green" d="M50 613l1 0 1 -9 0 -21 1 -21M53 580l0 -24M53 580l1 30M54 613l0 -3M54 613l63 0M117 620l0 -172M117 449l422 0M539 614l0 -171M539 613l422 0M961 618l0 -170 1 1 12 0"/>
<path stroke="#FFC0C5" d="M462 55l46 0"/>
<text stroke="none" fill="white" font-size="16" x="518" y="64">
x1.comp_out_p+2
</text>
<path stroke="#FFC0C5" d="M50 249l1 0 1 -9 0 -22 1 -18 0 -4M53 198l1 5M54 249l0 -46M54 249l488 0M542 252l0 -169M542 85l13 0M555 249l0 -172M555 249l13 0 0 -166M568 85l13 0 0 -8 1 159M582 249l0 -13M582 249l65 0 0 -165M647 85l14 0M661 250l0 -171"/>
<path stroke="#FFC0C5" d="M661 249l12 0M673 251l0 -2M673 251l1 -103 0 -65M674 85l13 0M687 250l0 -173M687 249l13 0 0 -134 1 -29 0 -2M701 85l12 0 0 -8 1 161M714 250l0 -12M714 249l39 0 0 -164 1 -1M754 85l0 -1M754 85l12 0M766 250l0 -170M766 249l67 0"/>
<path stroke="#FFC0C5" d="M833 249l1 -157 0 -8M834 85l11 0 0 -10 1 143M846 249l0 -31M846 249l91 0 1 -58 0 -107M938 85l13 0M951 250l0 -170M951 249l23 0"/>
<path stroke="#A52A2A" d="M50 55l46 0"/>
<text stroke="none" fill="white" font-size="16" x="106" y="64">
x1.comp_out_n-2
</text>
<path stroke="#A52A2A" d="M50 613l1 0 1 -9 0 -22 1 -19M53 564l0 -3M53 564l1 6M54 613l0 -43M54 612l1 1 539 0M594 615l0 -168M594 449l14 0M608 613l0 -173M608 613l13 0 0 -139 1 -24 0 -2M622 449l12 0M634 613l0 -173M634 613l93 0 0 -165M727 449l13 0"/>
<path stroke="#A52A2A" d="M740 614l0 -174M740 613l40 0 0 -165M780 449l13 0M793 613l0 -174M793 613l14 0 0 -165 1 1 11 0M819 613l0 -171M819 613l41 0 0 -164 12 0M872 613l0 -174M872 613l14 0 0 -158 1 -7M887 449l0 -1M887 449l11 0M898 613l0 -174M898 613l15 0"/>
<path stroke="#A52A2A" d="M913 613l0 -165M913 449l12 0M925 613l0 -171M925 613l49 0"/>
</svg>
