<?xml version="1.0" standalone="yes"?>
<!DOCTYPE svg PUBLIC "-//W3C//DTD SVG 1.1//EN"
 "http://www.w3.org/Graphics/SVG/1.1/DTD/svg11.dtd">
<svg xmlns="http://www.w3.org/2000/svg" version="1.1"
  width="100%" height="100%" viewBox="0 0 1024 768"
  style="fill: none; font-family: Helvetica;
 font: Helvetica;
">

<!-- Creator: NGspice -->

<rect x="0" y="0" width="1024" height="768" fill="black" stroke="none"/>
<text stroke="none" fill="white" font-size="16" x="358" y="752">
time
</text>
<text stroke="none" fill="white" font-size="16" x="10" y="16">
tran1: run1264_vin0.211375
</text>
<path stroke="white" d="M50 704l0 -637"/>
<text stroke="none" fill="white" font-size="16" x="35" y="728">
0.0
</text>
<path stroke="white" stroke-dasharray="1,2" d="M182 704l0 -637"/>
<text stroke="none" fill="white" font-size="16" x="157" y="728">
100.0
</text>
<path stroke="white" stroke-dasharray="1,2" d="M314 704l0 -637"/>
<text stroke="none" fill="white" font-size="16" x="289" y="728">
200.0
</text>
<path stroke="white" stroke-dasharray="1,2" d="M446 704l0 -637"/>
<text stroke="none" fill="white" font-size="16" x="421" y="728">
300.0
</text>
<path stroke="white" stroke-dasharray="1,2" d="M578 704l0 -637"/>
<text stroke="none" fill="white" font-size="16" x="553" y="728">
400.0
</text>
<path stroke="white" stroke-dasharray="1,2" d="M710 704l0 -637"/>
<text stroke="none" fill="white" font-size="16" x="685" y="728">
500.0
</text>
<path stroke="white" stroke-dasharray="1,2" d="M842 704l0 -637"/>
<text stroke="none" fill="white" font-size="16" x="817" y="728">
600.0
</text>
<path stroke="white" stroke-dasharray="1,2" d="M974 704l0 -637"/>
<text stroke="none" fill="white" font-size="16" x="949" y="728">
700.0
</text>
<text stroke="none" fill="white" font-size="16" x="614" y="752">
ns
</text>
<path stroke="white" stroke-dasharray="1,2" d="M50 704l924 0"/>
<text stroke="none" fill="white" font-size="16" x="8" y="712">
-3.0
</text>
<path stroke="white" stroke-dasharray="1,2" d="M50 613l924 0"/>
<text stroke="none" fill="white" font-size="16" x="8" y="621">
-2.0
</text>
<path stroke="white" stroke-dasharray="1,2" d="M50 522l924 0"/>
<text stroke="none" fill="white" font-size="16" x="8" y="530">
-1.0
</text>
<path stroke="white" d="M50 431l924 0"/>
<text stroke="none" fill="white" font-size="16" x="18" y="439">
0.0
</text>
<path stroke="white" stroke-dasharray="1,2" d="M50 340l924 0"/>
<text stroke="none" fill="white" font-size="16" x="18" y="348">
1.0
</text>
<path stroke="white" stroke-dasharray="1,2" d="M50 249l924 0"/>
<text stroke="none" fill="white" font-size="16" x="18" y="257">
2.0
</text>
<path stroke="white" stroke-dasharray="1,2" d="M50 158l924 0"/>
<text stroke="none" fill="white" font-size="16" x="18" y="166">
3.0
</text>
<path stroke="white" stroke-dasharray="1,2" d="M50 67l924 0"/>
<text stroke="none" fill="white" font-size="16" x="18" y="75">
4.0
</text>
<text stroke="none" fill="white" font-size="16" x="10" y="32">
     
</text>
<path stroke="red" d="M462 23l46 0"/>
<text stroke="none" fill="white" font-size="16" x="518" y="32">
x1.vsampled_p
</text>
<path stroke="red" d="M50 431l1 0 1 -7 0 -15 1 -15 0 -4 1 1M54 415l0 -39 1 -5 0 -14 1 -3 0 -2 1 -2 2 0 1 -1 4 0M64 350l0 -1M64 350l4 0 1 -1 48 0 1 -6 0 -8 1 -3 1 -1 0 -1 420 0M540 331l0 -1 27 0M567 331l0 -1 26 0M593 331l0 -1 7 0M600 349l0 -19"/>
<path stroke="red" d="M600 349l1 2M601 353l0 -2M601 352l1 0 0 -1 4 0 0 -1 13 0M619 351l0 -1M619 351l1 0 0 -1M620 351l6 0 0 -15 1 -2 0 -1 1 -1 1 1 4 0 0 -1M633 333l20 0M653 342l0 -9M653 342l1 2 1 -1 24 0M679 348l0 -5M679 348l1 1M680 350l0 -2 79 0"/>
<path stroke="red" d="M759 350l0 -2M759 350l1 -1 18 0M778 350l0 -1 26 0M804 350l0 -1 27 0M831 350l0 -1 26 0M857 350l0 -1 26 0M883 350l0 -1 27 0M910 350l0 -1 7 0 1 -1 0 -15 1 -1 0 -2 17 0M936 331l0 -1 38 0"/>
<path stroke="blue" d="M50 23l46 0"/>
<text stroke="none" fill="white" font-size="16" x="106" y="32">
x1.vsampled_n
</text>
<path stroke="blue" d="M50 431l1 0 1 -7 0 -15 1 -14 0 -5 1 2M54 415l0 -39 1 -5 0 -14 1 -3 0 -2 1 -2 2 0 1 -1 4 0M64 350l0 -1M64 350l4 0 1 -1 48 0M117 352l0 -3M117 352l1 6M118 364l0 -6M118 364l1 3 1 1 419 0M539 369l0 -1M539 369l1 0 1 -1M541 369l0 -1"/>
<path stroke="blue" d="M541 369l5 0 0 -21 1 -3 0 -26 1 -5 0 -3 1 -2 0 -1 1 0 1 -1 15 0 1 1M567 309l0 -2 7 0M574 338l0 -31M574 338l1 4M575 350l0 -8M575 350l1 0 0 -1 1 0 0 -1 16 0M593 349l0 -1 53 0M646 349l0 -1 60 0M706 351l0 -3M706 351l1 0M707 352l0 -1"/>
<path stroke="blue" d="M707 351l5 0 0 -1M712 351l19 0 0 -4 1 0M732 348l0 -1M732 348l19 0M751 349l0 -1M751 349l1 0 0 -1 26 0M778 349l0 -1 7 0M785 349l0 -1M785 349l1 1 0 -1 26 0M812 350l0 -1M812 350l1 0 0 -1 17 0 1 1 0 -1 86 0M917 350l0 -1 1 0"/>
<path stroke="blue" d="M918 372l0 -23M918 372l1 -1 0 -2 4 0 0 -1 13 0M936 369l0 -1 1 0M937 369l0 -1M937 369l13 0 0 -1 24 0"/>
<path stroke="#FFA500" d="M462 39l46 0"/>
<text stroke="none" fill="white" font-size="16" x="518" y="48">
x1.vsampled_p-x1.vsampled_n
</text>
<path stroke="#FFA500" d="M50 431l67 0 0 -3 1 -12 0 -15 1 -5 1 -2 0 -1 426 0M546 413l0 -20M546 413l1 3M547 442l0 -26M547 442l1 5M548 451l0 -4M548 451l1 1M549 453l0 -1M549 453l1 1 17 0 0 -1M567 454l7 0 0 -31 1 -3 0 -9 1 0M576 412l0 -1M576 412l1 0"/>
<path stroke="#FFA500" d="M577 413l0 -1M577 413l23 0M600 432l0 -19M600 432l1 2M601 436l0 -2M601 435l1 0 0 -1 1 0 1 -1 2 0M606 434l0 -1M606 434l1 -1 12 0M619 434l0 -1M619 434l1 -1 6 0 0 -14 1 -2 0 -1 1 -1 1 0 1 1 3 0 0 -1M633 416l13 0 0 -1M646 416l7 0"/>
<path stroke="#FFA500" d="M653 425l0 -9M653 425l1 2 1 -1 24 0M679 431l0 -5M679 431l1 0M680 433l0 -2 26 0 0 -3 1 0 0 -1M707 428l24 0M731 432l0 -4M731 432l1 0 0 -1 27 0M759 433l0 -2M759 432l26 0 0 -1 27 0 0 -1 1 1 25 0M838 432l0 -1 79 0 0 -1M917 431l1 -1"/>
<path stroke="#FFA500" d="M918 430l0 -38 1 -1M919 392l0 -1M919 392l2 0M921 393l0 -1M921 393l2 0 0 -1M923 393l27 0 0 -1M950 393l24 0"/>
<path stroke="green" d="M50 39l46 0"/>
<text stroke="none" fill="white" font-size="16" x="106" y="48">
x1.sw_sample-2
</text>
<path stroke="green" d="M50 613l1 0 1 -9 0 -21 1 -21M53 581l0 -25M53 581l1 29M54 613l0 -3M54 613l63 0M117 620l0 -172M117 449l422 0M539 614l0 -168M539 613l422 0M961 618l0 -170 1 1 12 0"/>
<path stroke="#FFC0C5" d="M462 55l46 0"/>
<text stroke="none" fill="white" font-size="16" x="518" y="64">
x1.comp_out_p+2
</text>
<path stroke="#FFC0C5" d="M50 249l1 0 1 -9 0 -22 1 -18 0 -4M53 198l1 5M54 249l0 -46M54 249l488 0 0 -165M542 85l13 0M555 250l0 -167M555 249l39 0 0 -165M594 85l14 0M608 249l0 -171M608 249l39 0M647 250l0 -166M647 85l14 0M661 250l0 -173M661 249l12 0"/>
<path stroke="#FFC0C5" d="M673 249l1 -49 0 -116M674 85l13 0M687 249l0 -173M687 249l40 0 0 -165M727 85l13 0M740 250l0 -173M740 249l13 0 0 -159 1 -6M754 85l0 -1M754 85l12 0M766 250l0 -171M766 250l1 -1 67 0 0 -165M834 85l11 0 0 -9 1 139M846 249l0 -34"/>
<path stroke="#FFC0C5" d="M846 249l91 0 1 -60 0 -105M938 85l13 0M951 250l0 -167M951 249l23 0"/>
<path stroke="#A52A2A" d="M50 55l46 0"/>
<text stroke="none" fill="white" font-size="16" x="106" y="64">
x1.comp_out_n-2
</text>
<path stroke="#A52A2A" d="M50 613l1 0 1 -9 0 -22 1 -19M53 564l0 -3M53 564l1 6M54 613l0 -43M54 613l514 0 0 -165M568 449l13 0 0 -9 1 161M582 613l0 -12M582 613l39 0M621 615l0 -167M621 449l13 0M634 613l0 -173M634 613l13 0M647 614l0 -1 54 0 0 -165"/>
<path stroke="#A52A2A" d="M701 449l12 0 0 -8 1 153M714 613l0 -19M714 613l66 0 0 -165M780 449l13 0M793 614l0 -169M793 613l14 0 0 -165 1 1 11 0M819 614l0 -171M819 613l41 0 0 -165M860 449l12 0M872 614l0 -169M872 613l14 0 0 -158 1 -7M887 449l0 -1"/>
<path stroke="#A52A2A" d="M887 449l11 0M898 614l0 -169M898 613l14 0 1 -158 0 -7M913 449l12 0M925 613l0 -173M925 613l49 0"/>
</svg>
