<?xml version="1.0" standalone="yes"?>
<!DOCTYPE svg PUBLIC "-//W3C//DTD SVG 1.1//EN"
 "http://www.w3.org/Graphics/SVG/1.1/DTD/svg11.dtd">
<svg xmlns="http://www.w3.org/2000/svg" version="1.1"
  width="100%" height="100%" viewBox="0 0 1024 768"
  style="fill: none; font-family: Helvetica;
 font: Helvetica;
">

<!-- Creator: NGspice -->

<rect x="0" y="0" width="1024" height="768" fill="black" stroke="none"/>
<text stroke="none" fill="white" font-size="16" x="358" y="752">
time
</text>
<text stroke="none" fill="white" font-size="16" x="10" y="16">
tran1: run1270_vin0.216649
</text>
<path stroke="white" d="M50 704l0 -637"/>
<text stroke="none" fill="white" font-size="16" x="35" y="728">
0.0
</text>
<path stroke="white" stroke-dasharray="1,2" d="M182 704l0 -637"/>
<text stroke="none" fill="white" font-size="16" x="157" y="728">
100.0
</text>
<path stroke="white" stroke-dasharray="1,2" d="M314 704l0 -637"/>
<text stroke="none" fill="white" font-size="16" x="289" y="728">
200.0
</text>
<path stroke="white" stroke-dasharray="1,2" d="M446 704l0 -637"/>
<text stroke="none" fill="white" font-size="16" x="421" y="728">
300.0
</text>
<path stroke="white" stroke-dasharray="1,2" d="M578 704l0 -637"/>
<text stroke="none" fill="white" font-size="16" x="553" y="728">
400.0
</text>
<path stroke="white" stroke-dasharray="1,2" d="M710 704l0 -637"/>
<text stroke="none" fill="white" font-size="16" x="685" y="728">
500.0
</text>
<path stroke="white" stroke-dasharray="1,2" d="M842 704l0 -637"/>
<text stroke="none" fill="white" font-size="16" x="817" y="728">
600.0
</text>
<path stroke="white" stroke-dasharray="1,2" d="M974 704l0 -637"/>
<text stroke="none" fill="white" font-size="16" x="949" y="728">
700.0
</text>
<text stroke="none" fill="white" font-size="16" x="614" y="752">
ns
</text>
<path stroke="white" stroke-dasharray="1,2" d="M50 704l924 0"/>
<text stroke="none" fill="white" font-size="16" x="8" y="712">
-3.0
</text>
<path stroke="white" stroke-dasharray="1,2" d="M50 613l924 0"/>
<text stroke="none" fill="white" font-size="16" x="8" y="621">
-2.0
</text>
<path stroke="white" stroke-dasharray="1,2" d="M50 522l924 0"/>
<text stroke="none" fill="white" font-size="16" x="8" y="530">
-1.0
</text>
<path stroke="white" d="M50 431l924 0"/>
<text stroke="none" fill="white" font-size="16" x="18" y="439">
0.0
</text>
<path stroke="white" stroke-dasharray="1,2" d="M50 340l924 0"/>
<text stroke="none" fill="white" font-size="16" x="18" y="348">
1.0
</text>
<path stroke="white" stroke-dasharray="1,2" d="M50 249l924 0"/>
<text stroke="none" fill="white" font-size="16" x="18" y="257">
2.0
</text>
<path stroke="white" stroke-dasharray="1,2" d="M50 158l924 0"/>
<text stroke="none" fill="white" font-size="16" x="18" y="166">
3.0
</text>
<path stroke="white" stroke-dasharray="1,2" d="M50 67l924 0"/>
<text stroke="none" fill="white" font-size="16" x="18" y="75">
4.0
</text>
<text stroke="none" fill="white" font-size="16" x="10" y="32">
     
</text>
<path stroke="red" d="M462 23l46 0"/>
<text stroke="none" fill="white" font-size="16" x="518" y="32">
x1.vsampled_p
</text>
<path stroke="red" d="M50 431l1 0 1 -7 0 -15 1 -15 0 -4 1 1M54 415l0 -39 1 -5 0 -14 1 -3 0 -2 1 -2 2 0 1 -1 4 0M64 350l0 -1M64 350l4 0 1 -1 48 0 1 -6 0 -9 2 -4 1 0 1 -1 417 0M539 330l0 -1M539 330l15 0 0 -1M554 330l12 0 0 -1M566 330l14 0 0 -1"/>
<path stroke="red" d="M580 330l20 0M600 346l0 -17M600 346l1 3M601 353l0 -4M601 352l2 -2 23 0 0 -14 1 -1 0 -3 19 0M646 333l0 -1 7 0M653 341l0 -9M653 341l1 2M654 344l0 -1 1 0 1 -1 16 0M672 343l0 -1 7 0M679 348l0 -6M679 348l1 1 0 -1 6 0 0 -1 12 0"/>
<path stroke="red" d="M698 347l1 1 0 -1M699 348l7 0M706 351l0 -4M706 351l1 0 0 -1 24 0 0 -3 1 0M732 348l0 -1M732 348l27 0M759 350l0 -2M759 349l54 0M813 350l0 -1 17 0 1 1 0 -1 87 0M918 351l0 -10 1 -2 0 -8 1 -1 0 -1 1 0 1 1 1 0 0 -1 1 1 26 0 0 -1"/>
<path stroke="red" d="M950 330l11 0 0 -1 13 0"/>
<path stroke="blue" d="M50 23l46 0"/>
<text stroke="none" fill="white" font-size="16" x="106" y="32">
x1.vsampled_n
</text>
<path stroke="blue" d="M50 431l1 0 1 -7 0 -15 1 -14 0 -5 1 2M54 415l0 -39 1 -5 0 -14 1 -3 0 -2 1 -2 2 0 1 -1 4 0M64 350l0 -1M64 350l4 0 1 -1 48 0M117 352l0 -3M117 352l1 6M118 365l0 -7M118 365l1 2 2 2 425 0 0 -24 1 -3 0 -24 1 -4 0 -4 1 -1 0 -1"/>
<path stroke="blue" d="M549 308l5 0 0 -1M554 308l13 0M567 309l0 -1 7 0M574 339l0 -31M574 339l1 4M575 351l0 -8M575 351l2 -2 3 0 0 -1 13 0M593 349l0 -1M593 349l13 0 0 -1 1 0M607 349l0 -1M607 349l12 0 0 -1M619 349l1 0 0 -1M620 349l13 0 0 -1 13 0"/>
<path stroke="blue" d="M646 349l0 -1M646 349l13 0 0 -1 1 0M660 349l0 -1 1 1 8 0 0 -1 3 0M672 349l0 -1 1 1 13 0 0 -1M686 349l12 0 0 -1M698 349l1 0 0 -1M699 349l13 0 0 -1M712 349l13 0 0 -1M725 349l13 0 0 -1 1 0M739 349l0 -1M739 349l12 0 0 -1M751 349l1 0"/>
<path stroke="blue" d="M752 349l0 -1M752 349l13 0 0 -1M765 349l13 0 0 -1M778 349l7 0 1 1 0 -1 18 0M804 350l0 -1 27 0M831 350l0 -1 26 0M857 350l0 -1 26 0M883 350l0 -1 27 0M910 350l0 -1 8 0M918 362l0 -14M918 362l1 2M919 372l0 -8M919 372l1 -1 0 -2"/>
<path stroke="blue" d="M920 369l54 0"/>
<path stroke="#FFA500" d="M462 39l46 0"/>
<text stroke="none" fill="white" font-size="16" x="518" y="48">
x1.vsampled_p-x1.vsampled_n
</text>
<path stroke="#FFA500" d="M50 431l67 0 0 -3 1 -12 0 -16 1 -5 1 -2 0 -1 426 0M546 416l0 -24M546 416l1 3M547 442l0 -23M547 442l1 5M548 450l0 -3M548 450l1 2 1 1 17 0 0 -1M567 453l7 0 0 -31 1 -4 0 -8 1 0M576 411l0 -1M576 411l1 0M577 412l0 -1M577 412l16 0"/>
<path stroke="#FFA500" d="M593 413l0 -1 7 0M600 428l0 -16M600 428l1 3M601 435l0 -4M601 434l1 0 0 -1 2 0 1 -1 1 0M606 433l0 -1M606 433l1 0 0 -1 12 0M619 433l0 -1M619 433l1 -1M620 433l0 -1 6 0M626 433l0 -14 1 -2 0 -3 2 0M629 415l0 -1M629 415l4 0"/>
<path stroke="#FFA500" d="M633 415l0 -1M633 415l13 0 0 -1M646 415l7 0M653 424l0 -9M653 424l1 2 1 -1 24 0M679 430l0 -5M679 430l1 1M680 432l0 -2 26 0M706 433l0 -3M706 433l2 0 1 -1 3 0M712 433l0 -1 13 0M725 433l0 -1 6 0M731 433l0 -3 1 0 0 -1M732 430l27 0"/>
<path stroke="#FFA500" d="M759 432l0 -2M759 432l19 0 0 -1M778 432l7 0 0 -1 1 -1M786 431l0 -1M786 431l27 0M813 432l0 -1 105 0M918 433l0 -23 1 -3 0 -17 1 0M920 391l0 -1M920 391l2 0M922 392l0 -1M922 392l1 0 0 -1M923 392l27 0 0 -1M950 392l24 0"/>
<path stroke="green" d="M50 39l46 0"/>
<text stroke="none" fill="white" font-size="16" x="106" y="48">
x1.sw_sample-2
</text>
<path stroke="green" d="M50 613l1 0 1 -9 0 -21 1 -21M53 581l0 -25M53 581l1 29M54 613l0 -3M54 613l63 0M117 620l0 -172M117 449l422 0M539 614l0 -171M539 613l422 0M961 618l0 -170 1 1 12 0"/>
<path stroke="#FFC0C5" d="M462 55l46 0"/>
<text stroke="none" fill="white" font-size="16" x="518" y="64">
x1.comp_out_p+2
</text>
<path stroke="#FFC0C5" d="M50 249l1 0 1 -9 0 -22 1 -18 0 -4M53 198l1 5M54 249l0 -46M54 249l488 0M542 251l0 -168M542 85l13 0M555 250l0 -167M555 249l39 0 0 -165M594 85l14 0M608 250l0 -173M608 249l39 0 0 -166M647 85l14 0M661 249l0 -171M661 249l12 0"/>
<path stroke="#FFC0C5" d="M673 250l0 -1M673 250l1 -94 0 -73M674 85l13 0M687 249l0 -172M687 249l13 0 0 -160 1 -5M701 85l0 -1M701 85l12 0 0 -8 1 162M714 250l0 -11M714 249l39 0 0 -163 1 -2M754 85l0 -1M754 85l12 0M766 250l0 -170M766 249l41 0 0 -164"/>
<path stroke="#FFC0C5" d="M807 85l12 0M819 249l0 -170M819 249l41 0 0 -164 12 0M872 249l0 -173M872 249l14 0 0 -157 1 -8M887 85l0 -1M887 85l11 0M898 249l0 -173M898 249l15 0 0 -165M913 85l12 0M925 250l0 -173M925 249l12 0 1 -62 0 -103M938 85l13 0"/>
<path stroke="#FFC0C5" d="M951 250l0 -167M951 249l23 0"/>
<path stroke="#A52A2A" d="M50 55l46 0"/>
<text stroke="none" fill="white" font-size="16" x="106" y="64">
x1.comp_out_n-2
</text>
<path stroke="#A52A2A" d="M50 613l1 0 1 -9 0 -22 1 -19M53 564l0 -3M53 564l1 6M54 613l0 -43M54 613l514 0M568 615l0 -168M568 449l13 0 0 -9 1 161M582 613l0 -12M582 613l39 0 0 -153 1 -12M622 449l0 -1M622 449l12 0M634 613l0 -173M634 613l93 0 0 -165"/>
<path stroke="#A52A2A" d="M727 449l13 0M740 613l0 -174M740 613l40 0 0 -165M780 449l13 0M793 613l0 -172M793 613l41 0 0 -165M834 449l11 0M845 450l0 -3M845 450l1 153M846 613l0 -10M846 613l128 0"/>
</svg>
