<?xml version="1.0" standalone="yes"?>
<!DOCTYPE svg PUBLIC "-//W3C//DTD SVG 1.1//EN"
 "http://www.w3.org/Graphics/SVG/1.1/DTD/svg11.dtd">
<svg xmlns="http://www.w3.org/2000/svg" version="1.1"
  width="100%" height="100%" viewBox="0 0 1024 768"
  style="fill: none; font-family: Helvetica;
 font: Helvetica;
">

<!-- Creator: NGspice -->

<rect x="0" y="0" width="1024" height="768" fill="black" stroke="none"/>
<text stroke="none" fill="white" font-size="16" x="358" y="752">
time
</text>
<text stroke="none" fill="white" font-size="16" x="10" y="16">
tran1: run528_vin-0.435499
</text>
<path stroke="white" d="M50 704l0 -637"/>
<text stroke="none" fill="white" font-size="16" x="35" y="728">
0.0
</text>
<path stroke="white" stroke-dasharray="1,2" d="M182 704l0 -637"/>
<text stroke="none" fill="white" font-size="16" x="157" y="728">
100.0
</text>
<path stroke="white" stroke-dasharray="1,2" d="M314 704l0 -637"/>
<text stroke="none" fill="white" font-size="16" x="289" y="728">
200.0
</text>
<path stroke="white" stroke-dasharray="1,2" d="M446 704l0 -637"/>
<text stroke="none" fill="white" font-size="16" x="421" y="728">
300.0
</text>
<path stroke="white" stroke-dasharray="1,2" d="M578 704l0 -637"/>
<text stroke="none" fill="white" font-size="16" x="553" y="728">
400.0
</text>
<path stroke="white" stroke-dasharray="1,2" d="M710 704l0 -637"/>
<text stroke="none" fill="white" font-size="16" x="685" y="728">
500.0
</text>
<path stroke="white" stroke-dasharray="1,2" d="M842 704l0 -637"/>
<text stroke="none" fill="white" font-size="16" x="817" y="728">
600.0
</text>
<path stroke="white" stroke-dasharray="1,2" d="M974 704l0 -637"/>
<text stroke="none" fill="white" font-size="16" x="949" y="728">
700.0
</text>
<text stroke="none" fill="white" font-size="16" x="614" y="752">
ns
</text>
<path stroke="white" stroke-dasharray="1,2" d="M50 704l924 0"/>
<text stroke="none" fill="white" font-size="16" x="8" y="712">
-3.0
</text>
<path stroke="white" stroke-dasharray="1,2" d="M50 613l924 0"/>
<text stroke="none" fill="white" font-size="16" x="8" y="621">
-2.0
</text>
<path stroke="white" stroke-dasharray="1,2" d="M50 522l924 0"/>
<text stroke="none" fill="white" font-size="16" x="8" y="530">
-1.0
</text>
<path stroke="white" d="M50 431l924 0"/>
<text stroke="none" fill="white" font-size="16" x="18" y="439">
0.0
</text>
<path stroke="white" stroke-dasharray="1,2" d="M50 340l924 0"/>
<text stroke="none" fill="white" font-size="16" x="18" y="348">
1.0
</text>
<path stroke="white" stroke-dasharray="1,2" d="M50 249l924 0"/>
<text stroke="none" fill="white" font-size="16" x="18" y="257">
2.0
</text>
<path stroke="white" stroke-dasharray="1,2" d="M50 158l924 0"/>
<text stroke="none" fill="white" font-size="16" x="18" y="166">
3.0
</text>
<path stroke="white" stroke-dasharray="1,2" d="M50 67l924 0"/>
<text stroke="none" fill="white" font-size="16" x="18" y="75">
4.0
</text>
<text stroke="none" fill="white" font-size="16" x="10" y="32">
     
</text>
<path stroke="red" d="M462 23l46 0"/>
<text stroke="none" fill="white" font-size="16" x="518" y="32">
x1.vsampled_p
</text>
<path stroke="red" d="M50 431l1 0 1 -7 0 -15 1 -14 0 -5 1 2M54 415l0 -40 1 -5 0 -13 1 -3 0 -2 2 -2 1 0 1 -1 4 0M64 350l0 -1M64 350l4 0 1 -1 48 0M117 357l0 -8M117 357l1 11M118 380l0 -12M118 380l1 3M119 386l0 -3M119 386l3 3 424 0 0 -23 1 -4 0 -24"/>
<path stroke="red" d="M547 338l1 -2 0 -6 2 -2 4 0 0 -1 12 0M566 328l0 -1M566 328l1 0M567 329l0 -1 13 0 0 -1 1 0M581 328l0 -1M581 328l12 0M593 329l0 -2M593 328l7 0M600 348l0 -20M600 348l1 3M601 354l0 -3 1 -1 0 -1 1 -1 156 0M759 351l0 -3M759 350l1 -1"/>
<path stroke="red" d="M760 349l18 0M778 350l0 -1 26 0M804 350l0 -1 27 0M831 350l0 -1 86 0M917 350l0 -1M917 350l1 0M918 375l0 -28M918 375l1 4M919 390l0 -11M919 390l1 1 0 -1 1 0 0 -1 53 0"/>
<path stroke="blue" d="M50 23l46 0"/>
<text stroke="none" fill="white" font-size="16" x="106" y="32">
x1.vsampled_n
</text>
<path stroke="blue" d="M50 431l1 0 1 -7 0 -15 1 -15 0 -4 1 1M54 414l0 -39 1 -5 0 -13 1 -3 0 -2 2 -2 1 0 1 -1 4 0M64 350l0 -1M64 350l4 0 1 -1 48 0 0 -1 1 -9 0 -18 1 -4 0 -4 1 -2 1 -1 2 0 1 -1 415 0M539 310l0 -1M539 310l1 0M540 311l0 -1 14 0 0 -1"/>
<path stroke="blue" d="M554 310l13 0M567 311l0 -1 7 0M574 332l0 -22M574 332l1 5M575 349l0 -12M575 349l1 1M576 351l0 -1M576 351l4 0 0 -1M580 351l13 0 0 -1M593 351l13 0 0 -1 1 1 19 0 0 -15 1 -1 0 -2 6 0 0 -1M633 333l20 0M653 340l0 -7M653 340l1 2"/>
<path stroke="blue" d="M654 344l0 -2M654 343l25 0M679 348l0 -5M679 348l1 0M680 349l0 -1 37 0M717 351l0 -3M717 351l14 0 0 -2 1 -1 19 0M751 349l0 -1M751 349l1 -1 26 0M778 349l0 -1 7 0M785 349l0 -1M785 349l28 0M813 350l0 -1 18 0M831 350l0 -1 26 0"/>
<path stroke="blue" d="M857 350l0 -1 26 0M883 350l0 -1 27 0M910 350l0 -1 8 0M918 351l0 -18 1 -3 0 -10 1 -3 0 -3 1 -2 0 -1 1 0 0 -1 1 0 0 -1M923 310l13 0M936 311l0 -1 14 0 0 -1M950 310l12 0 0 -1 12 0"/>
<path stroke="#FFA500" d="M462 39l46 0"/>
<text stroke="none" fill="white" font-size="16" x="518" y="48">
x1.vsampled_p-x1.vsampled_n
</text>
<path stroke="#FFA500" d="M50 431l2 0 1 1 1 0 0 -1 63 0M117 440l0 -9M117 440l1 20M118 490l0 -30M118 490l1 7M119 505l0 -8M119 505l2 4M121 510l0 -1M121 510l419 0 0 -1M540 510l6 0 0 -23 1 -4 0 -24 1 -2 0 -5 1 -2 1 -1 17 0M567 450l0 -1 7 0 0 -22"/>
<path stroke="#FFA500" d="M574 427l1 -5 0 -12 1 -1 0 -1 17 0M593 409l0 -1 7 0M600 428l0 -20M600 428l1 3M601 435l0 -4M601 432l1 -2 0 -1 1 0 0 -1 16 0M619 429l0 -1 7 0M626 443l0 -15M626 443l1 1M627 446l0 -2M627 446l19 0M646 447l0 -1 7 0 0 -7 1 -2"/>
<path stroke="#FFA500" d="M654 437l0 -2M654 436l25 0 0 -5 1 0 0 -1M680 431l37 0 0 -3 8 0M725 429l0 -1 6 0M731 430l0 -2M731 430l1 1 27 0M759 433l0 -2M759 432l26 0 0 -1 28 0 0 -1M813 431l26 0 0 -1M839 431l78 0 1 1M918 473l0 -44M918 473l1 6M919 501l0 -22"/>
<path stroke="#FFA500" d="M919 501l1 4M920 507l0 -2M920 507l1 1M921 509l0 -1M921 509l1 0M922 510l0 -1M922 510l14 0 0 -1M936 510l14 0M950 511l0 -1 24 0"/>
<path stroke="green" d="M50 39l46 0"/>
<text stroke="none" fill="white" font-size="16" x="106" y="48">
x1.sw_sample-2
</text>
<path stroke="green" d="M50 613l1 0 1 -9 0 -21 1 -21M53 580l0 -24M53 580l1 30M54 613l0 -3M54 613l63 0M117 620l0 -172M117 449l422 0M539 614l0 -171M539 613l422 0M961 618l0 -170 1 1 12 0"/>
<path stroke="#FFC0C5" d="M462 55l46 0"/>
<text stroke="none" fill="white" font-size="16" x="518" y="64">
x1.comp_out_p+2
</text>
<path stroke="#FFC0C5" d="M50 249l1 0 1 -9 0 -22 1 -18 0 -4M53 198l1 5M54 249l0 -46M54 248l1 1 539 0M594 250l0 -166M594 85l14 0M608 250l0 -172M608 249l13 0 0 -165M621 85l13 0M634 250l0 -173M634 250l1 -1 76 0M711 252l0 -169M711 85l2 0 0 -2 1 -3"/>
<path stroke="#FFC0C5" d="M714 249l0 -169M714 249l13 0 0 -165M727 85l13 0M740 250l0 -173M740 249l13 0 0 -161 1 -4M754 85l0 -1M754 85l12 0M766 250l0 -171M766 250l1 -1 93 0 0 -164 12 0M872 249l0 -168M872 249l14 0 0 -164 1 -1M887 85l0 -1M887 85l11 0"/>
<path stroke="#FFC0C5" d="M898 249l0 -174M898 249l14 0 1 -150 0 -15M913 85l12 0M925 250l0 -172M925 249l49 0"/>
<path stroke="#A52A2A" d="M50 55l46 0"/>
<text stroke="none" fill="white" font-size="16" x="106" y="64">
x1.comp_out_n-2
</text>
<path stroke="#A52A2A" d="M50 613l1 0 1 -9 0 -22 1 -19M53 564l0 -3M53 564l1 6M54 613l0 -43M54 613l488 0 0 -165M542 449l13 0M555 613l0 -172M555 613l13 0M568 615l0 -168M568 449l13 0 0 -9 1 163M582 613l0 -10M582 613l65 0M647 614l0 -166M647 449l14 0"/>
<path stroke="#A52A2A" d="M661 613l0 -171M661 613l12 0 1 -43 0 -122M674 449l13 0M687 613l0 -172M687 613l93 0 0 -165M780 449l13 0M793 613l0 -174M793 613l14 0 0 -164 12 0M819 614l0 -171M819 613l15 0 1 -158 0 -7M835 449l10 0 0 -7 1 134M846 613l0 -37"/>
<path stroke="#A52A2A" d="M846 613l91 0 1 -60 0 -105M938 449l13 0M951 613l0 -169M951 613l23 0"/>
</svg>
