<?xml version="1.0" standalone="yes"?>
<!DOCTYPE svg PUBLIC "-//W3C//DTD SVG 1.1//EN"
 "http://www.w3.org/Graphics/SVG/1.1/DTD/svg11.dtd">
<svg xmlns="http://www.w3.org/2000/svg" version="1.1"
  width="100%" height="100%" viewBox="0 0 1024 768"
  style="fill: none; font-family: Helvetica;
 font: Helvetica;
">

<!-- Creator: NGspice -->

<rect x="0" y="0" width="1024" height="768" fill="black" stroke="none"/>
<text stroke="none" fill="white" font-size="16" x="358" y="752">
time
</text>
<text stroke="none" fill="white" font-size="16" x="10" y="16">
tran1: run529_vin-0.43462
</text>
<path stroke="white" d="M50 704l0 -637"/>
<text stroke="none" fill="white" font-size="16" x="35" y="728">
0.0
</text>
<path stroke="white" stroke-dasharray="1,2" d="M182 704l0 -637"/>
<text stroke="none" fill="white" font-size="16" x="157" y="728">
100.0
</text>
<path stroke="white" stroke-dasharray="1,2" d="M314 704l0 -637"/>
<text stroke="none" fill="white" font-size="16" x="289" y="728">
200.0
</text>
<path stroke="white" stroke-dasharray="1,2" d="M446 704l0 -637"/>
<text stroke="none" fill="white" font-size="16" x="421" y="728">
300.0
</text>
<path stroke="white" stroke-dasharray="1,2" d="M578 704l0 -637"/>
<text stroke="none" fill="white" font-size="16" x="553" y="728">
400.0
</text>
<path stroke="white" stroke-dasharray="1,2" d="M710 704l0 -637"/>
<text stroke="none" fill="white" font-size="16" x="685" y="728">
500.0
</text>
<path stroke="white" stroke-dasharray="1,2" d="M842 704l0 -637"/>
<text stroke="none" fill="white" font-size="16" x="817" y="728">
600.0
</text>
<path stroke="white" stroke-dasharray="1,2" d="M974 704l0 -637"/>
<text stroke="none" fill="white" font-size="16" x="949" y="728">
700.0
</text>
<text stroke="none" fill="white" font-size="16" x="614" y="752">
ns
</text>
<path stroke="white" stroke-dasharray="1,2" d="M50 704l924 0"/>
<text stroke="none" fill="white" font-size="16" x="8" y="712">
-3.0
</text>
<path stroke="white" stroke-dasharray="1,2" d="M50 613l924 0"/>
<text stroke="none" fill="white" font-size="16" x="8" y="621">
-2.0
</text>
<path stroke="white" stroke-dasharray="1,2" d="M50 522l924 0"/>
<text stroke="none" fill="white" font-size="16" x="8" y="530">
-1.0
</text>
<path stroke="white" d="M50 431l924 0"/>
<text stroke="none" fill="white" font-size="16" x="18" y="439">
0.0
</text>
<path stroke="white" stroke-dasharray="1,2" d="M50 340l924 0"/>
<text stroke="none" fill="white" font-size="16" x="18" y="348">
1.0
</text>
<path stroke="white" stroke-dasharray="1,2" d="M50 249l924 0"/>
<text stroke="none" fill="white" font-size="16" x="18" y="257">
2.0
</text>
<path stroke="white" stroke-dasharray="1,2" d="M50 158l924 0"/>
<text stroke="none" fill="white" font-size="16" x="18" y="166">
3.0
</text>
<path stroke="white" stroke-dasharray="1,2" d="M50 67l924 0"/>
<text stroke="none" fill="white" font-size="16" x="18" y="75">
4.0
</text>
<text stroke="none" fill="white" font-size="16" x="10" y="32">
     
</text>
<path stroke="red" d="M462 23l46 0"/>
<text stroke="none" fill="white" font-size="16" x="518" y="32">
x1.vsampled_p
</text>
<path stroke="red" d="M50 431l1 0 1 -7 0 -15 1 -14 0 -5 1 2M54 415l0 -40 1 -5 0 -13 1 -3 0 -2 2 -2 1 0 1 -1 4 0M64 350l0 -1M64 350l4 0 1 -1 48 0M117 357l0 -8M117 357l1 11M118 380l0 -12M118 380l1 3M119 386l0 -3M119 386l3 3 424 0 0 -23 1 -3 0 -25"/>
<path stroke="red" d="M547 338l1 -2 0 -6 1 -1 0 -1 5 0 0 -1 12 0 1 1M567 329l0 -1 13 0 0 -1 13 0M593 328l0 -1M593 328l7 0M600 345l0 -17M600 345l1 2M601 354l0 -7M601 353l1 -2 0 -2 1 -1 103 0M706 352l0 -4M706 352l1 0 0 -1 1 0 1 -1 16 0M725 351l0 -1"/>
<path stroke="red" d="M725 350l6 0 0 -3 1 0M732 348l0 -1M732 348l19 0M751 349l0 -1 27 0M778 349l0 -1 7 0M785 349l0 -1M785 349l1 0M786 350l0 -1 26 0M812 350l0 -1 19 0M831 350l0 -1 26 0M857 350l0 -1 26 0M883 350l0 -1 27 0M910 350l0 -1 7 0 1 2M918 379l0 -28"/>
<path stroke="red" d="M918 379l1 5M919 390l0 -6M919 390l1 0 1 -1 53 0"/>
<path stroke="blue" d="M50 23l46 0"/>
<text stroke="none" fill="white" font-size="16" x="106" y="32">
x1.vsampled_n
</text>
<path stroke="blue" d="M50 431l1 0 1 -7 0 -15 1 -15 0 -4 1 1M54 414l0 -39 1 -5 0 -13 1 -3 0 -2 2 -2 1 0 1 -1 4 0M64 350l0 -1M64 350l4 0 1 -1 48 0 0 -1 1 -9 0 -18 1 -4 0 -4 1 -2 1 -1 419 0M540 311l0 -1 14 0 0 -1M554 310l13 0M567 311l0 -1 7 0M574 337l0 -27"/>
<path stroke="blue" d="M574 337l1 4M575 349l0 -8M575 349l1 1M576 351l0 -1M576 351l4 0 0 -1M580 351l46 0 0 -15 1 -1 0 -2 6 0 0 -1M633 333l20 0M653 340l0 -7M653 340l1 2M654 344l0 -2M654 343l25 0M679 348l0 -5M679 348l1 1 0 -1 79 0M759 350l0 -2M759 350l1 0"/>
<path stroke="blue" d="M760 350l0 -1 18 0M778 350l0 -1 26 0M804 350l0 -1 26 0 1 1 0 -1 86 0M917 350l0 -2 1 -3 0 -15 1 -4 0 -7 1 -3 0 -2 1 -2 0 -1 1 0 0 -1 1 0 0 -1M923 310l13 0M936 311l0 -1 14 0 0 -1M950 310l12 0 0 -1 1 0M963 310l0 -1M963 310l11 0"/>
<path stroke="#FFA500" d="M462 39l46 0"/>
<text stroke="none" fill="white" font-size="16" x="518" y="48">
x1.vsampled_p-x1.vsampled_n
</text>
<path stroke="#FFA500" d="M50 431l2 0 1 1 1 0 0 -1 63 0M117 440l0 -9M117 440l1 20M118 490l0 -30M118 490l1 7M119 505l0 -8M119 505l2 4 1 1 418 0 0 -1M540 510l6 0 0 -23 1 -3 0 -25 1 -2 0 -5 1 -2 0 -1 5 0 0 -1M554 449l13 0 0 -1M567 449l7 0 0 -27"/>
<path stroke="#FFA500" d="M574 422l1 -4 0 -9 1 0 0 -1 4 0 0 -1M580 408l13 0M593 409l0 -1 7 0M600 425l0 -17M600 425l1 3M601 434l0 -6M601 433l1 -1 0 -3 1 -1 23 0M626 443l0 -15M626 443l1 1M627 446l0 -2M627 446l26 0 0 -7 1 -2 0 -2M654 436l25 0 0 -5"/>
<path stroke="#FFA500" d="M679 431l1 -1M680 431l0 -1M680 431l26 0M706 434l0 -3M706 434l1 1 0 -1 1 -1 17 0M725 434l0 -1 6 0 0 -3 1 0M732 431l0 -1M732 431l27 0 0 -2 1 1 25 0M785 431l0 -1M785 431l2 0 1 -1 16 0M804 431l0 -1 8 0M812 431l0 -1M812 431l105 0"/>
<path stroke="#FFA500" d="M917 431l0 -1M917 431l1 7M918 480l0 -42M918 480l1 9M919 502l0 -13M919 502l1 4M920 507l0 -1M920 507l1 2 1 0M922 510l0 -1M922 510l14 0 0 -1M936 510l38 0"/>
<path stroke="green" d="M50 39l46 0"/>
<text stroke="none" fill="white" font-size="16" x="106" y="48">
x1.sw_sample-2
</text>
<path stroke="green" d="M50 613l1 0 1 -9 0 -21 1 -21M53 580l0 -24M53 580l1 30M54 613l0 -3M54 613l63 0M117 620l0 -172M117 449l422 0M539 614l0 -171M539 613l422 0M961 618l0 -170 1 1 12 0"/>
<path stroke="#FFC0C5" d="M462 55l46 0"/>
<text stroke="none" fill="white" font-size="16" x="518" y="64">
x1.comp_out_p+2
</text>
<path stroke="#FFC0C5" d="M50 249l1 0 1 -9 0 -22 1 -18 0 -4M53 198l1 5M54 249l0 -46M54 248l1 1 539 0M594 252l0 -168M594 85l14 0M608 250l0 -172M608 249l13 0 0 -165M621 85l13 0M634 250l0 -173M634 250l1 -1 65 0 1 -143 0 -22M701 85l12 0 0 -8 1 151"/>
<path stroke="#FFC0C5" d="M714 249l0 -21M714 249l66 0M780 250l0 -166M780 85l13 0M793 249l0 -167M793 249l13 0 1 -156 0 -9M807 85l12 0M819 249l0 -174M819 249l15 0 0 -165M834 85l11 0 0 -2 1 151M846 249l0 -15M846 249l128 0"/>
<path stroke="#A52A2A" d="M50 55l46 0"/>
<text stroke="none" fill="white" font-size="16" x="106" y="64">
x1.comp_out_n-2
</text>
<path stroke="#A52A2A" d="M50 613l1 0 1 -9 0 -22 1 -19M53 564l0 -3M53 564l1 6M54 613l0 -43M54 613l488 0 0 -165M542 449l13 0M555 613l0 -172M555 613l13 0 0 -166M568 449l13 0 0 -8 1 158M582 613l0 -14M582 613l65 0M647 614l0 -167M647 449l14 0M661 613l0 -171"/>
<path stroke="#A52A2A" d="M661 613l12 0M673 619l0 -6M673 619l1 -137 0 -35M674 449l13 0M687 614l0 -174M687 613l40 0 0 -165M727 449l13 0M740 613l0 -171M740 613l13 0 1 -144 0 -21M754 449l12 0M766 614l0 -174M766 613l94 0 0 -165 1 1 11 0M872 613l0 -174"/>
<path stroke="#A52A2A" d="M872 613l14 0 0 -158 1 -7M887 449l0 -1M887 449l11 0M898 613l0 -174M898 613l14 0 1 -158 0 -7M913 449l12 0M925 613l0 -171M925 613l12 0 1 -52 0 -113M938 449l13 0M951 613l0 -169M951 613l23 0"/>
</svg>
