<?xml version="1.0" standalone="yes"?>
<!DOCTYPE svg PUBLIC "-//W3C//DTD SVG 1.1//EN"
 "http://www.w3.org/Graphics/SVG/1.1/DTD/svg11.dtd">
<svg xmlns="http://www.w3.org/2000/svg" version="1.1"
  width="100%" height="100%" viewBox="0 0 1024 768"
  style="fill: none; font-family: Helvetica;
 font: Helvetica;
">

<!-- Creator: NGspice -->

<rect x="0" y="0" width="1024" height="768" fill="black" stroke="none"/>
<text stroke="none" fill="white" font-size="16" x="358" y="752">
time
</text>
<text stroke="none" fill="white" font-size="16" x="10" y="16">
tran1: run1943_vin0.808152
</text>
<path stroke="white" d="M50 704l0 -637"/>
<text stroke="none" fill="white" font-size="16" x="35" y="728">
0.0
</text>
<path stroke="white" stroke-dasharray="1,2" d="M182 704l0 -637"/>
<text stroke="none" fill="white" font-size="16" x="157" y="728">
100.0
</text>
<path stroke="white" stroke-dasharray="1,2" d="M314 704l0 -637"/>
<text stroke="none" fill="white" font-size="16" x="289" y="728">
200.0
</text>
<path stroke="white" stroke-dasharray="1,2" d="M446 704l0 -637"/>
<text stroke="none" fill="white" font-size="16" x="421" y="728">
300.0
</text>
<path stroke="white" stroke-dasharray="1,2" d="M578 704l0 -637"/>
<text stroke="none" fill="white" font-size="16" x="553" y="728">
400.0
</text>
<path stroke="white" stroke-dasharray="1,2" d="M710 704l0 -637"/>
<text stroke="none" fill="white" font-size="16" x="685" y="728">
500.0
</text>
<path stroke="white" stroke-dasharray="1,2" d="M842 704l0 -637"/>
<text stroke="none" fill="white" font-size="16" x="817" y="728">
600.0
</text>
<path stroke="white" stroke-dasharray="1,2" d="M974 704l0 -637"/>
<text stroke="none" fill="white" font-size="16" x="949" y="728">
700.0
</text>
<text stroke="none" fill="white" font-size="16" x="614" y="752">
ns
</text>
<path stroke="white" stroke-dasharray="1,2" d="M50 704l924 0"/>
<text stroke="none" fill="white" font-size="16" x="8" y="712">
-2.5
</text>
<path stroke="white" stroke-dasharray="1,2" d="M50 655l924 0"/>
<text stroke="none" fill="white" font-size="16" x="8" y="663">
-2.0
</text>
<path stroke="white" stroke-dasharray="1,2" d="M50 606l924 0"/>
<text stroke="none" fill="white" font-size="16" x="8" y="614">
-1.5
</text>
<path stroke="white" stroke-dasharray="1,2" d="M50 557l924 0"/>
<text stroke="none" fill="white" font-size="16" x="8" y="565">
-1.0
</text>
<path stroke="white" stroke-dasharray="1,2" d="M50 508l924 0"/>
<text stroke="none" fill="white" font-size="16" x="8" y="516">
-0.5
</text>
<path stroke="white" d="M50 459l924 0"/>
<text stroke="none" fill="white" font-size="16" x="18" y="467">
0.0
</text>
<path stroke="white" stroke-dasharray="1,2" d="M50 410l924 0"/>
<text stroke="none" fill="white" font-size="16" x="18" y="418">
0.5
</text>
<path stroke="white" stroke-dasharray="1,2" d="M50 361l924 0"/>
<text stroke="none" fill="white" font-size="16" x="18" y="369">
1.0
</text>
<path stroke="white" stroke-dasharray="1,2" d="M50 312l924 0"/>
<text stroke="none" fill="white" font-size="16" x="18" y="320">
1.5
</text>
<path stroke="white" stroke-dasharray="1,2" d="M50 263l924 0"/>
<text stroke="none" fill="white" font-size="16" x="18" y="271">
2.0
</text>
<path stroke="white" stroke-dasharray="1,2" d="M50 214l924 0"/>
<text stroke="none" fill="white" font-size="16" x="18" y="222">
2.5
</text>
<path stroke="white" stroke-dasharray="1,2" d="M50 165l924 0"/>
<text stroke="none" fill="white" font-size="16" x="18" y="173">
3.0
</text>
<path stroke="white" stroke-dasharray="1,2" d="M50 116l924 0"/>
<text stroke="none" fill="white" font-size="16" x="18" y="124">
3.5
</text>
<path stroke="white" stroke-dasharray="1,2" d="M50 67l924 0"/>
<text stroke="none" fill="white" font-size="16" x="18" y="75">
4.0
</text>
<text stroke="none" fill="white" font-size="16" x="10" y="32">
     
</text>
<path stroke="red" d="M462 23l46 0"/>
<text stroke="none" fill="white" font-size="16" x="518" y="32">
x1.vsampled_p
</text>
<path stroke="red" d="M50 459l1 0 1 -7 0 -17 1 -16 0 -5 1 2M54 441l0 -42 1 -5 0 -14 1 -3 0 -3 1 -1 0 -1 1 -1 59 0 0 -2 1 -12 0 -38 1 -6 0 -12 1 -3 0 -3 1 -1 0 -1 1 -1 418 0M540 293l0 -1 14 0 0 -1M554 292l13 0M567 294l0 -2 7 0M574 317l0 -25M574 317l1 7"/>
<path stroke="red" d="M575 334l0 -10M575 334l1 2 17 0M593 337l0 -1 7 0M600 351l0 -15M600 351l1 4M601 359l0 -4M601 359l1 -1 51 0M653 367l0 -9M653 367l1 2 52 0M706 372l0 -3M706 372l25 0 1 -1 0 -2 19 0M751 370l0 -1M751 370l1 0 0 -1 7 0M759 371l0 -2"/>
<path stroke="red" d="M759 371l6 0 0 -1M765 371l26 0 0 -1M791 371l127 0 0 -55 1 -4 0 -13 1 -2 0 -3 1 -1 1 0 0 -1 1 0 0 -1M923 292l13 0M936 294l0 -2 14 0 0 -1M950 292l24 0"/>
<path stroke="blue" d="M50 23l46 0"/>
<text stroke="none" fill="white" font-size="16" x="106" y="32">
x1.vsampled_n
</text>
<path stroke="blue" d="M50 459l1 0 1 -7 0 -17 1 -15 0 -5 1 2M54 441l0 -42 1 -5 0 -14 1 -3 0 -3 1 -1 0 -1 1 -1 59 0M117 395l0 -24M117 395l1 18M118 436l0 -23M118 436l1 3M119 445l0 -6M119 445l1 2M120 448l0 -1M120 448l2 2 424 0 0 -28 1 -3 0 -26 1 -5"/>
<path stroke="blue" d="M548 388l1 -3 1 -1 17 0M567 385l0 -1 58 0 0 -14 1 -2 0 -4 2 0M628 365l0 -1M628 365l5 0 0 -1M633 365l13 0M646 366l0 -1 13 0 0 -1M659 365l13 0M672 366l0 -1 7 0M679 372l0 -7M679 372l1 1M680 374l0 -4 18 0 1 1 0 -1 26 0M725 371l0 -1"/>
<path stroke="blue" d="M725 370l26 0M751 371l0 -1M751 371l1 0 0 -1 26 0M778 371l0 -1 8 0M786 372l0 -2M786 371l18 0M804 372l0 -1 27 0M831 372l0 -1 7 0 0 -1M838 371l6 0 0 -1M844 371l26 0 0 -1 1 1 26 0 0 -1M897 371l21 0M918 463l0 -92M918 462l1 0"/>
<path stroke="blue" d="M919 462l0 -6 1 -2 0 -2 1 -1 1 0 0 -1 52 0"/>
<path stroke="#FFA500" d="M462 39l46 0"/>
<text stroke="none" fill="white" font-size="16" x="518" y="48">
x1.vsampled_p-x1.vsampled_n
</text>
<path stroke="#FFA500" d="M50 459l2 0 0 -1 2 0M54 459l0 -1M54 459l63 0 0 -25 1 -31 0 -60 1 -10 0 -18 1 -5 0 -4 1 -2 0 -2 1 -1 418 0M540 302l0 -1 6 0M546 329l0 -28M546 329l1 3M547 358l0 -26M547 358l1 5 1 3 1 1 4 0 0 -1M554 367l13 0M567 368l0 -1"/>
<path stroke="#FFA500" d="M567 367l7 0M574 392l0 -25M574 392l1 7M575 408l0 -9M575 408l1 3 17 0M593 412l0 -1 7 0M600 425l0 -14M600 425l1 5M601 434l0 -4M601 434l1 -1 23 0M625 447l0 -14M625 447l1 2M626 453l0 -4M626 453l2 0 0 -1 25 0M653 461l0 -9"/>
<path stroke="#FFA500" d="M653 461l1 2 25 0 0 -7 1 -1M680 457l0 -3M680 457l1 1 18 0 0 -1M699 458l7 0M706 461l0 -3M706 461l1 0 0 -1 24 0 1 -1 0 -2M732 458l27 0M759 460l0 -2M759 459l27 0 0 -1M786 459l18 0 0 -1M804 459l34 0M838 460l0 -1 80 0 0 -146"/>
<path stroke="#FFA500" d="M918 313l1 -3 0 -7 1 -1 0 -1 3 0 0 -1M923 301l13 0M936 302l0 -1 14 0 0 -1M950 301l24 0"/>
<path stroke="green" d="M50 39l46 0"/>
<text stroke="none" fill="white" font-size="16" x="106" y="48">
x1.sw_sample-2
</text>
<path stroke="green" d="M50 655l1 0 1 -10 0 -23 1 -21M53 618l0 -24M53 618l1 34M54 655l0 -3M54 655l63 0M117 662l0 -184 1 0M118 479l0 -1M118 479l421 0M539 656l0 -184M539 655l422 0M961 660l0 -182 1 0M962 479l0 -1M962 479l12 0"/>
<path stroke="#FFC0C5" d="M462 55l46 0"/>
<text stroke="none" fill="white" font-size="16" x="518" y="64">
x1.comp_out_p+2
</text>
<path stroke="#FFC0C5" d="M50 263l1 0 1 -10 0 -23 1 -20 0 -4M53 208l1 5M54 263l0 -50M54 263l488 0 0 -178M542 87l13 0M555 264l0 -181M555 263l13 0 0 -178M568 87l13 0 0 -4 1 81M582 264l0 -100M582 263l12 0M594 264l0 -179M594 86l1 1 13 0M608 263l0 -185"/>
<path stroke="#FFC0C5" d="M608 263l13 0 0 -178M621 87l13 0M634 264l0 -187M634 263l13 0M647 264l0 -179M647 87l14 0M661 263l0 -180M661 263l39 0M700 264l0 -179M700 86l1 1 12 0 1 -10M714 264l0 -187M714 263l39 0 0 -177 1 1 12 0M766 264l0 -185M766 263l41 0"/>
<path stroke="#FFC0C5" d="M807 263l0 -177M807 87l12 0M819 264l0 -184M819 263l15 0 0 -177 1 1 10 0 0 -6 1 77M846 264l0 -106M846 263l91 0M937 264l0 -1M937 264l1 -93 0 -86M938 87l13 0M951 263l0 -185M951 263l23 0"/>
<path stroke="#A52A2A" d="M50 55l46 0"/>
<text stroke="none" fill="white" font-size="16" x="106" y="64">
x1.comp_out_n-2
</text>
<path stroke="#A52A2A" d="M50 655l1 0 1 -10 0 -24 1 -20M53 602l0 -4M53 602l1 7M54 656l0 -47M54 652l1 3 592 0M647 656l0 -1 26 0M673 656l0 -1M673 656l1 -71 0 -108M674 479l13 0M687 655l0 -185M687 655l40 0 0 -177 1 0M728 479l0 -1M728 479l12 0M740 656l0 -187"/>
<path stroke="#A52A2A" d="M740 655l40 0 0 -177 1 0M781 479l0 -1M781 479l12 0M793 655l0 -187M793 655l66 0 1 -170 0 -7M860 479l12 0M872 655l0 -188M872 655l14 0 0 -177 1 0M887 479l0 -1M887 479l11 0M898 655l0 -188M898 655l15 0 0 -177M913 479l12 0"/>
<path stroke="#A52A2A" d="M925 656l0 -182M925 655l49 0"/>
</svg>
