<?xml version="1.0" standalone="yes"?>
<!DOCTYPE svg PUBLIC "-//W3C//DTD SVG 1.1//EN"
 "http://www.w3.org/Graphics/SVG/1.1/DTD/svg11.dtd">
<svg xmlns="http://www.w3.org/2000/svg" version="1.1"
  width="100%" height="100%" viewBox="0 0 1024 768"
  style="fill: none; font-family: Helvetica;
 font: Helvetica;
">

<!-- Creator: NGspice -->

<rect x="0" y="0" width="1024" height="768" fill="black" stroke="none"/>
<text stroke="none" fill="white" font-size="16" x="358" y="752">
time
</text>
<text stroke="none" fill="white" font-size="16" x="10" y="16">
tran1: run625_vin-0.350245
</text>
<path stroke="white" d="M50 704l0 -637"/>
<text stroke="none" fill="white" font-size="16" x="35" y="728">
0.0
</text>
<path stroke="white" stroke-dasharray="1,2" d="M182 704l0 -637"/>
<text stroke="none" fill="white" font-size="16" x="157" y="728">
100.0
</text>
<path stroke="white" stroke-dasharray="1,2" d="M314 704l0 -637"/>
<text stroke="none" fill="white" font-size="16" x="289" y="728">
200.0
</text>
<path stroke="white" stroke-dasharray="1,2" d="M446 704l0 -637"/>
<text stroke="none" fill="white" font-size="16" x="421" y="728">
300.0
</text>
<path stroke="white" stroke-dasharray="1,2" d="M578 704l0 -637"/>
<text stroke="none" fill="white" font-size="16" x="553" y="728">
400.0
</text>
<path stroke="white" stroke-dasharray="1,2" d="M710 704l0 -637"/>
<text stroke="none" fill="white" font-size="16" x="685" y="728">
500.0
</text>
<path stroke="white" stroke-dasharray="1,2" d="M842 704l0 -637"/>
<text stroke="none" fill="white" font-size="16" x="817" y="728">
600.0
</text>
<path stroke="white" stroke-dasharray="1,2" d="M974 704l0 -637"/>
<text stroke="none" fill="white" font-size="16" x="949" y="728">
700.0
</text>
<text stroke="none" fill="white" font-size="16" x="614" y="752">
ns
</text>
<path stroke="white" stroke-dasharray="1,2" d="M50 704l924 0"/>
<text stroke="none" fill="white" font-size="16" x="8" y="712">
-3.0
</text>
<path stroke="white" stroke-dasharray="1,2" d="M50 613l924 0"/>
<text stroke="none" fill="white" font-size="16" x="8" y="621">
-2.0
</text>
<path stroke="white" stroke-dasharray="1,2" d="M50 522l924 0"/>
<text stroke="none" fill="white" font-size="16" x="8" y="530">
-1.0
</text>
<path stroke="white" d="M50 431l924 0"/>
<text stroke="none" fill="white" font-size="16" x="18" y="439">
0.0
</text>
<path stroke="white" stroke-dasharray="1,2" d="M50 340l924 0"/>
<text stroke="none" fill="white" font-size="16" x="18" y="348">
1.0
</text>
<path stroke="white" stroke-dasharray="1,2" d="M50 249l924 0"/>
<text stroke="none" fill="white" font-size="16" x="18" y="257">
2.0
</text>
<path stroke="white" stroke-dasharray="1,2" d="M50 158l924 0"/>
<text stroke="none" fill="white" font-size="16" x="18" y="166">
3.0
</text>
<path stroke="white" stroke-dasharray="1,2" d="M50 67l924 0"/>
<text stroke="none" fill="white" font-size="16" x="18" y="75">
4.0
</text>
<text stroke="none" fill="white" font-size="16" x="10" y="32">
     
</text>
<path stroke="red" d="M462 23l46 0"/>
<text stroke="none" fill="white" font-size="16" x="518" y="32">
x1.vsampled_p
</text>
<path stroke="red" d="M50 431l1 0 1 -7 0 -15 1 -14 0 -5 1 2M54 415l0 -40 1 -5 0 -13 1 -3 0 -2 2 -2 1 0 1 -1 4 0M64 350l0 -1M64 350l4 0 1 -1 48 0M117 355l0 -6M117 355l1 9M118 374l0 -10M118 374l1 3M119 379l0 -2M119 379l2 2 425 0 0 -23 1 -4 0 -24"/>
<path stroke="red" d="M547 330l1 -3 0 -3 1 -2 0 -1 1 -1 4 0 0 -1M554 320l13 0M567 321l0 -1 13 0 0 -1M580 320l13 0M593 321l0 -1 7 0M600 340l0 -20M600 340l1 2M601 347l0 -5M601 344l1 -1 0 -2 1 0 0 -1 16 0M619 341l0 -1 27 0M646 341l0 -1 7 0M653 350l0 -10"/>
<path stroke="red" d="M653 350l1 2M654 353l0 -1 1 -1 1 0 0 -1 16 0M672 351l0 -1 26 0 1 1 0 -1 26 0M725 351l0 -1 6 0 0 -3 1 0M732 348l0 -1M732 348l19 0M751 349l0 -1M751 349l1 0 0 -1 26 0M778 349l0 -1 7 0M785 349l0 -1M785 349l1 1 0 -1 26 0M812 350l0 -1"/>
<path stroke="red" d="M812 350l1 -1 18 0M831 350l0 -1 26 0M857 350l0 -1 26 0M883 350l0 -1 27 0M910 350l0 -1 8 0M918 362l0 -14M918 362l1 1M919 376l0 -13M919 376l1 5M920 383l0 -2M920 383l1 -1 1 0 0 -1 52 0"/>
<path stroke="blue" d="M50 23l46 0"/>
<text stroke="none" fill="white" font-size="16" x="106" y="32">
x1.vsampled_n
</text>
<path stroke="blue" d="M50 431l1 0 1 -7 0 -15 1 -15 0 -4 1 1M54 415l0 -40 1 -5 0 -13 1 -3 0 -2 2 -2 1 0 1 -1 4 0M64 350l0 -1M64 350l4 0 1 -1 48 0 0 -1 1 -8 0 -14 1 -4 0 -2 3 -3 417 0M539 318l0 -1M539 318l1 0 0 -1M540 318l14 0 0 -1 12 0 1 1 7 0"/>
<path stroke="blue" d="M574 342l0 -25M574 342l1 3M575 357l0 -12M575 357l1 1 17 0M593 359l0 -1 26 0M619 359l0 -1 6 0 0 -7 1 -2 0 -7 1 -1 6 0 0 -1 13 0M646 341l0 -1M646 341l13 0 0 -1 13 0M672 341l0 -1 1 1 6 0M679 345l0 -4M679 345l1 1M680 347l0 -1"/>
<path stroke="blue" d="M680 346l6 0 0 -1M686 346l12 0 0 -1M698 346l8 0M706 349l0 -3M706 349l1 -1 52 0M759 350l0 -2M759 350l1 0 0 -1 18 0M778 350l0 -1 26 0M804 350l0 -1 26 0 1 1 0 -1 87 0M918 350l0 -7 1 -1 0 -5 1 -5 0 -5 1 -4 0 -3 1 0 0 -2 1 0"/>
<path stroke="blue" d="M923 318l0 -1M923 318l1 0 0 -1 12 0M936 318l0 -1M936 318l14 0 0 -1 24 0"/>
<path stroke="#FFA500" d="M462 39l46 0"/>
<text stroke="none" fill="white" font-size="16" x="518" y="48">
x1.vsampled_p-x1.vsampled_n
</text>
<path stroke="#FFA500" d="M50 431l67 0M117 437l0 -6M117 437l1 18M118 479l0 -24M118 479l1 7M119 490l0 -4M119 490l2 4 1 1 418 0 0 -1M540 495l1 -1M541 495l0 -1M541 495l5 0 0 -23 1 -4 0 -24 1 -3 0 -4 1 -2 0 -1 1 0 0 -1 17 0M567 434l0 -1 7 0M574 434l0 -25"/>
<path stroke="#FFA500" d="M574 409l1 -3 0 -12 2 -2M577 393l0 -1M577 393l3 0 0 -1 13 0M593 394l0 -2M593 393l7 0M600 412l0 -20M600 412l1 3M601 419l0 -4M601 416l1 0 0 -2 1 -1 22 0M625 421l0 -8M625 421l1 1M626 430l0 -8M626 430l1 0M627 431l0 -1M627 431l26 0"/>
<path stroke="#FFA500" d="M653 440l0 -9M653 440l1 2M654 443l0 -1M654 443l1 -1 0 -1 24 0 0 -5 1 -1M680 436l0 -2M680 436l26 0 0 -3 19 0M725 434l0 -1 6 0 0 -3 1 0M732 431l0 -1M732 431l27 0 0 -2 1 1 25 0M785 431l0 -1M785 431l2 0 0 -1 17 0M804 431l0 -1"/>
<path stroke="#FFA500" d="M804 430l8 0M812 431l0 -1M812 431l106 0M918 450l0 -20M918 450l1 2M919 470l0 -18M919 470l1 10M920 487l0 -7M920 487l1 3M921 493l0 -3M921 493l1 0M922 494l0 -1M922 494l1 0M923 495l0 -1M923 495l13 0 0 -1M936 495l38 0"/>
<path stroke="green" d="M50 39l46 0"/>
<text stroke="none" fill="white" font-size="16" x="106" y="48">
x1.sw_sample-2
</text>
<path stroke="green" d="M50 613l1 0 1 -9 0 -21 1 -21M53 580l0 -24M53 580l1 30M54 613l0 -3M54 613l63 0M117 620l0 -172M117 449l422 0M539 614l0 -171M539 613l422 0M961 618l0 -170 1 1 12 0"/>
<path stroke="#FFC0C5" d="M462 55l46 0"/>
<text stroke="none" fill="white" font-size="16" x="518" y="64">
x1.comp_out_p+2
</text>
<path stroke="#FFC0C5" d="M50 249l1 0 1 -9 0 -22 1 -18 0 -4M53 198l1 5M54 249l0 -46M54 248l1 1 539 0M594 255l0 -172M594 85l14 0M608 250l0 -168M608 249l13 0M621 250l0 -166M621 85l13 0M634 250l0 -171M634 250l1 -1 12 0M647 251l0 -167M647 85l14 0"/>
<path stroke="#FFC0C5" d="M661 250l0 -169M661 249l119 0 0 -165M780 85l13 0M793 249l0 -167M793 249l14 0 0 -164 12 0M819 249l0 -174M819 249l15 0 0 -165M834 85l11 0 0 -2 1 151M846 249l0 -15M846 249l128 0"/>
<path stroke="#A52A2A" d="M50 55l46 0"/>
<text stroke="none" fill="white" font-size="16" x="106" y="64">
x1.comp_out_n-2
</text>
<path stroke="#A52A2A" d="M50 613l1 0 1 -9 0 -22 1 -19M53 564l0 -3M53 564l1 6M54 613l0 -43M54 613l488 0M542 620l0 -173M542 449l13 0M555 613l0 -172M555 613l13 0 0 -166M568 449l13 0 0 -9 1 162M582 613l0 -11M582 613l65 0M647 614l0 -1 26 0 0 -12"/>
<path stroke="#A52A2A" d="M673 601l1 -133 0 -20M674 449l13 0M687 613l0 -171M687 613l13 0M700 615l0 -168M700 449l13 0 0 -8 1 155M714 613l0 -17M714 613l13 0 0 -165M727 449l13 0M740 614l0 -171M740 613l13 0 1 -146 0 -19M754 449l12 0M766 614l0 -174"/>
<path stroke="#A52A2A" d="M766 613l94 0 0 -165M860 449l12 0M872 613l0 -174M872 613l14 0 1 -146 0 -19M887 449l11 0M898 613l0 -174M898 613l15 0 0 -165M913 449l12 0M925 614l0 -167M925 613l12 0 1 -51 0 -114M938 449l13 0M951 614l0 -171M951 613l23 0"/>
</svg>
