<?xml version="1.0" standalone="yes"?>
<!DOCTYPE svg PUBLIC "-//W3C//DTD SVG 1.1//EN"
 "http://www.w3.org/Graphics/SVG/1.1/DTD/svg11.dtd">
<svg xmlns="http://www.w3.org/2000/svg" version="1.1"
  width="100%" height="100%" viewBox="0 0 1024 768"
  style="fill: none; font-family: Helvetica;
 font: Helvetica;
">

<!-- Creator: NGspice -->

<rect x="0" y="0" width="1024" height="768" fill="black" stroke="none"/>
<text stroke="none" fill="white" font-size="16" x="358" y="752">
time
</text>
<text stroke="none" fill="white" font-size="16" x="10" y="16">
tran1: run22_vin-0.880225
</text>
<path stroke="white" d="M50 704l0 -637"/>
<text stroke="none" fill="white" font-size="16" x="35" y="728">
0.0
</text>
<path stroke="white" stroke-dasharray="1,2" d="M182 704l0 -637"/>
<text stroke="none" fill="white" font-size="16" x="157" y="728">
100.0
</text>
<path stroke="white" stroke-dasharray="1,2" d="M314 704l0 -637"/>
<text stroke="none" fill="white" font-size="16" x="289" y="728">
200.0
</text>
<path stroke="white" stroke-dasharray="1,2" d="M446 704l0 -637"/>
<text stroke="none" fill="white" font-size="16" x="421" y="728">
300.0
</text>
<path stroke="white" stroke-dasharray="1,2" d="M578 704l0 -637"/>
<text stroke="none" fill="white" font-size="16" x="553" y="728">
400.0
</text>
<path stroke="white" stroke-dasharray="1,2" d="M710 704l0 -637"/>
<text stroke="none" fill="white" font-size="16" x="685" y="728">
500.0
</text>
<path stroke="white" stroke-dasharray="1,2" d="M842 704l0 -637"/>
<text stroke="none" fill="white" font-size="16" x="817" y="728">
600.0
</text>
<path stroke="white" stroke-dasharray="1,2" d="M974 704l0 -637"/>
<text stroke="none" fill="white" font-size="16" x="949" y="728">
700.0
</text>
<text stroke="none" fill="white" font-size="16" x="614" y="752">
ns
</text>
<path stroke="white" stroke-dasharray="1,2" d="M50 704l924 0"/>
<text stroke="none" fill="white" font-size="16" x="8" y="712">
-2.5
</text>
<path stroke="white" stroke-dasharray="1,2" d="M50 655l924 0"/>
<text stroke="none" fill="white" font-size="16" x="8" y="663">
-2.0
</text>
<path stroke="white" stroke-dasharray="1,2" d="M50 606l924 0"/>
<text stroke="none" fill="white" font-size="16" x="8" y="614">
-1.5
</text>
<path stroke="white" stroke-dasharray="1,2" d="M50 557l924 0"/>
<text stroke="none" fill="white" font-size="16" x="8" y="565">
-1.0
</text>
<path stroke="white" stroke-dasharray="1,2" d="M50 508l924 0"/>
<text stroke="none" fill="white" font-size="16" x="8" y="516">
-0.5
</text>
<path stroke="white" d="M50 459l924 0"/>
<text stroke="none" fill="white" font-size="16" x="18" y="467">
0.0
</text>
<path stroke="white" stroke-dasharray="1,2" d="M50 410l924 0"/>
<text stroke="none" fill="white" font-size="16" x="18" y="418">
0.5
</text>
<path stroke="white" stroke-dasharray="1,2" d="M50 361l924 0"/>
<text stroke="none" fill="white" font-size="16" x="18" y="369">
1.0
</text>
<path stroke="white" stroke-dasharray="1,2" d="M50 312l924 0"/>
<text stroke="none" fill="white" font-size="16" x="18" y="320">
1.5
</text>
<path stroke="white" stroke-dasharray="1,2" d="M50 263l924 0"/>
<text stroke="none" fill="white" font-size="16" x="18" y="271">
2.0
</text>
<path stroke="white" stroke-dasharray="1,2" d="M50 214l924 0"/>
<text stroke="none" fill="white" font-size="16" x="18" y="222">
2.5
</text>
<path stroke="white" stroke-dasharray="1,2" d="M50 165l924 0"/>
<text stroke="none" fill="white" font-size="16" x="18" y="173">
3.0
</text>
<path stroke="white" stroke-dasharray="1,2" d="M50 116l924 0"/>
<text stroke="none" fill="white" font-size="16" x="18" y="124">
3.5
</text>
<path stroke="white" stroke-dasharray="1,2" d="M50 67l924 0"/>
<text stroke="none" fill="white" font-size="16" x="18" y="75">
4.0
</text>
<text stroke="none" fill="white" font-size="16" x="10" y="32">
     
</text>
<path stroke="red" d="M462 23l46 0"/>
<text stroke="none" fill="white" font-size="16" x="518" y="32">
x1.vsampled_p
</text>
<path stroke="red" d="M50 459l1 0 1 -7 0 -17 1 -15 0 -5 1 2M54 441l0 -42 1 -4 0 -15 1 -3 0 -3 1 -1 0 -1 1 -1 59 0M117 399l0 -28M117 399l1 19M118 442l0 -24M118 442l1 3M119 453l0 -8M119 453l1 1M120 455l0 -1M120 455l2 2 424 0M546 458l0 -23 1 -3"/>
<path stroke="red" d="M547 432l0 -25 1 -8 0 -5 1 -2 1 0 0 -1 17 0M567 392l0 -1 58 0 0 -14 1 -1 0 -5 1 0 1 1 5 0 0 -1M633 372l98 0 0 -4 1 -1M732 369l0 -2M732 369l1 0 1 1 4 0 0 -1 13 0M751 370l0 -1M751 370l1 0 0 -1M752 370l7 0M759 373l0 -4M759 371l158 0"/>
<path stroke="red" d="M917 376l0 -5M917 376l1 5M918 482l0 -101M918 470l1 -2 0 -6 1 -2 0 -1 1 -1 0 -1 53 0"/>
<path stroke="blue" d="M50 23l46 0"/>
<text stroke="none" fill="white" font-size="16" x="106" y="32">
x1.vsampled_n
</text>
<path stroke="blue" d="M50 459l1 0 1 -7 0 -17 1 -16 0 -5 1 2M54 441l0 -42 1 -4 0 -15 1 -3 0 -3 1 -1 0 -1 1 -1 59 0 0 -2 1 -13 0 -40 1 -8 0 -16 1 -2 0 -3 2 -2 418 0M540 286l0 -1 14 0 0 -1M554 285l13 0M567 286l0 -1 7 0M574 308l0 -23M574 308l1 6"/>
<path stroke="blue" d="M575 324l0 -10M575 324l1 5 4 0 0 -1M580 329l13 0M593 330l0 -1 7 0M600 346l0 -17M600 346l1 5M601 352l0 -1M601 352l1 -1 17 0M619 352l0 -1 34 0M653 359l0 -8M653 359l1 2M654 362l0 -1M654 362l25 0M679 367l0 -5M679 367l1 1 0 -1"/>
<path stroke="blue" d="M680 367l18 0 1 1 0 -1 7 0M706 371l0 -4M706 371l1 -1 78 0 1 1 26 0M812 372l0 -1 105 0 0 -7 1 -12 0 -53 1 -3 0 -6 1 -2 0 -1 1 -1 0 -1 2 0 0 -1M923 285l13 0M936 287l0 -2 14 0 0 -1M950 285l12 0 0 -1 1 0 1 1 10 0"/>
<path stroke="#FFA500" d="M462 39l46 0"/>
<text stroke="none" fill="white" font-size="16" x="518" y="48">
x1.vsampled_p-x1.vsampled_n
</text>
<path stroke="#FFA500" d="M50 459l2 0M52 460l0 -1M52 460l2 0 0 -1 63 0M117 488l0 -29M117 488l1 33M118 585l0 -64M118 585l1 11M119 620l0 -24M119 620l1 4M120 627l0 -3M120 627l1 2 1 1M122 631l0 -1M122 631l3 0 1 1 413 0 0 -1 1 0 0 -1M540 631l6 0M546 632l0 -23"/>
<path stroke="#FFA500" d="M546 609l1 -3 0 -25 1 -8 0 -5 1 -2 1 0 0 -1 4 0M554 566l0 -1 13 0 0 -1M567 565l7 0 0 -23 1 -6 0 -10 1 -4 0 -1 4 0M580 522l0 -1 13 0 0 -1M593 521l7 0 0 -17 1 -5 0 -1 1 1 23 0 0 -14 1 -1 0 -5 1 0 1 1 25 0 0 -8 1 -2 0 -1"/>
<path stroke="#FFA500" d="M654 469l25 0 0 -5 1 -1 0 -1M680 463l1 0M681 464l0 -1M681 464l1 0 1 -1 3 0M686 464l0 -1M686 464l12 0 0 -1M698 464l1 0 0 -1 1 0M700 464l0 -1 6 0M706 464l0 -4 1 1 24 0 0 -4 1 -1M732 458l0 -2M732 458l19 0M751 459l0 -1 8 0"/>
<path stroke="#FFA500" d="M759 462l0 -4M759 460l26 0 1 -1 26 0 0 -1M812 459l105 0M917 471l0 -13M917 471l1 17M918 630l0 -142M918 630l1 0M919 631l0 -1M919 631l4 0M923 632l0 -1M923 632l1 -1 12 0 0 -1M936 631l14 0M950 632l0 -1 12 0M962 632l0 -1M962 632l12 0"/>
<path stroke="green" d="M50 39l46 0"/>
<text stroke="none" fill="white" font-size="16" x="106" y="48">
x1.sw_sample-2
</text>
<path stroke="green" d="M50 655l1 0 1 -10 0 -23 1 -21M53 618l0 -24M53 618l1 34M54 655l0 -3M54 655l63 0M117 662l0 -184 1 0M118 479l0 -1M118 479l421 0M539 656l0 -184M539 655l422 0M961 660l0 -182 1 0M962 479l0 -1M962 479l12 0"/>
<path stroke="#FFC0C5" d="M462 55l46 0"/>
<text stroke="none" fill="white" font-size="16" x="518" y="64">
x1.comp_out_p+2
</text>
<path stroke="#FFC0C5" d="M50 263l1 0 1 -10 0 -23 1 -20 0 -4M53 208l1 5M54 264l0 -51M54 261l1 2 698 0 0 -177 1 0M754 87l0 -1M754 87l12 0M766 264l0 -185M766 264l1 -1 66 0 1 1 0 -178M834 87l11 0 0 -10 1 165M846 263l0 -21M846 263l128 0"/>
<path stroke="#A52A2A" d="M50 55l46 0"/>
<text stroke="none" fill="white" font-size="16" x="106" y="64">
x1.comp_out_n-2
</text>
<path stroke="#A52A2A" d="M50 655l1 0 1 -10 0 -24 1 -20M53 602l0 -4M53 602l1 7M54 655l0 -46M54 655l487 0 1 1 0 -180M542 479l13 0M555 656l0 -186M555 655l13 0 0 -178M568 479l13 0 0 -8 1 176M582 656l0 -9M582 655l12 0 0 -178M594 478l1 1 13 0M608 655l0 -186"/>
<path stroke="#A52A2A" d="M608 655l13 0M621 660l0 -184M621 479l13 0M634 655l0 -185M634 655l13 0M647 657l0 -181M647 479l14 0M661 655l0 -185M661 655l12 0M673 658l0 -3M673 658l1 -116 0 -66M674 479l13 0M687 655l0 -185M687 655l13 0M700 659l0 -183"/>
<path stroke="#A52A2A" d="M700 479l13 0 0 -10 1 177M714 656l0 -10M714 655l13 0M727 656l0 -179M727 479l13 0M740 655l0 -186M740 655l40 0 0 -177M780 479l13 0M793 655l0 -179M793 655l14 0 0 -177 1 0M808 479l0 -1M808 479l11 0M819 655l0 -187M819 655l41 0"/>
<path stroke="#A52A2A" d="M860 655l0 -177 1 0M861 479l0 -1M861 479l11 0M872 655l0 -179M872 655l14 0 0 -170 1 -7M887 479l0 -1M887 479l11 0M898 655l0 -179M898 655l14 0 1 -170 0 -7M913 479l12 0M925 656l0 -183M925 655l12 0M937 656l0 -1M937 656l1 -105"/>
<path stroke="#A52A2A" d="M938 551l0 -75M938 479l13 0M951 656l0 -187M951 655l23 0"/>
</svg>
