<?xml version="1.0" standalone="yes"?>
<!DOCTYPE svg PUBLIC "-//W3C//DTD SVG 1.1//EN"
 "http://www.w3.org/Graphics/SVG/1.1/DTD/svg11.dtd">
<svg xmlns="http://www.w3.org/2000/svg" version="1.1"
  width="100%" height="100%" viewBox="0 0 1024 768"
  style="fill: none; font-family: Helvetica;
 font: Helvetica;
">

<!-- Creator: NGspice -->

<rect x="0" y="0" width="1024" height="768" fill="black" stroke="none"/>
<text stroke="none" fill="white" font-size="16" x="358" y="752">
time
</text>
<text stroke="none" fill="white" font-size="16" x="10" y="16">
tran1: run21_vin-0.881104
</text>
<path stroke="white" d="M50 704l0 -637"/>
<text stroke="none" fill="white" font-size="16" x="35" y="728">
0.0
</text>
<path stroke="white" stroke-dasharray="1,2" d="M182 704l0 -637"/>
<text stroke="none" fill="white" font-size="16" x="157" y="728">
100.0
</text>
<path stroke="white" stroke-dasharray="1,2" d="M314 704l0 -637"/>
<text stroke="none" fill="white" font-size="16" x="289" y="728">
200.0
</text>
<path stroke="white" stroke-dasharray="1,2" d="M446 704l0 -637"/>
<text stroke="none" fill="white" font-size="16" x="421" y="728">
300.0
</text>
<path stroke="white" stroke-dasharray="1,2" d="M578 704l0 -637"/>
<text stroke="none" fill="white" font-size="16" x="553" y="728">
400.0
</text>
<path stroke="white" stroke-dasharray="1,2" d="M710 704l0 -637"/>
<text stroke="none" fill="white" font-size="16" x="685" y="728">
500.0
</text>
<path stroke="white" stroke-dasharray="1,2" d="M842 704l0 -637"/>
<text stroke="none" fill="white" font-size="16" x="817" y="728">
600.0
</text>
<path stroke="white" stroke-dasharray="1,2" d="M974 704l0 -637"/>
<text stroke="none" fill="white" font-size="16" x="949" y="728">
700.0
</text>
<text stroke="none" fill="white" font-size="16" x="614" y="752">
ns
</text>
<path stroke="white" stroke-dasharray="1,2" d="M50 704l924 0"/>
<text stroke="none" fill="white" font-size="16" x="8" y="712">
-2.5
</text>
<path stroke="white" stroke-dasharray="1,2" d="M50 655l924 0"/>
<text stroke="none" fill="white" font-size="16" x="8" y="663">
-2.0
</text>
<path stroke="white" stroke-dasharray="1,2" d="M50 606l924 0"/>
<text stroke="none" fill="white" font-size="16" x="8" y="614">
-1.5
</text>
<path stroke="white" stroke-dasharray="1,2" d="M50 557l924 0"/>
<text stroke="none" fill="white" font-size="16" x="8" y="565">
-1.0
</text>
<path stroke="white" stroke-dasharray="1,2" d="M50 508l924 0"/>
<text stroke="none" fill="white" font-size="16" x="8" y="516">
-0.5
</text>
<path stroke="white" d="M50 459l924 0"/>
<text stroke="none" fill="white" font-size="16" x="18" y="467">
0.0
</text>
<path stroke="white" stroke-dasharray="1,2" d="M50 410l924 0"/>
<text stroke="none" fill="white" font-size="16" x="18" y="418">
0.5
</text>
<path stroke="white" stroke-dasharray="1,2" d="M50 361l924 0"/>
<text stroke="none" fill="white" font-size="16" x="18" y="369">
1.0
</text>
<path stroke="white" stroke-dasharray="1,2" d="M50 312l924 0"/>
<text stroke="none" fill="white" font-size="16" x="18" y="320">
1.5
</text>
<path stroke="white" stroke-dasharray="1,2" d="M50 263l924 0"/>
<text stroke="none" fill="white" font-size="16" x="18" y="271">
2.0
</text>
<path stroke="white" stroke-dasharray="1,2" d="M50 214l924 0"/>
<text stroke="none" fill="white" font-size="16" x="18" y="222">
2.5
</text>
<path stroke="white" stroke-dasharray="1,2" d="M50 165l924 0"/>
<text stroke="none" fill="white" font-size="16" x="18" y="173">
3.0
</text>
<path stroke="white" stroke-dasharray="1,2" d="M50 116l924 0"/>
<text stroke="none" fill="white" font-size="16" x="18" y="124">
3.5
</text>
<path stroke="white" stroke-dasharray="1,2" d="M50 67l924 0"/>
<text stroke="none" fill="white" font-size="16" x="18" y="75">
4.0
</text>
<text stroke="none" fill="white" font-size="16" x="10" y="32">
     
</text>
<path stroke="red" d="M462 23l46 0"/>
<text stroke="none" fill="white" font-size="16" x="518" y="32">
x1.vsampled_p
</text>
<path stroke="red" d="M50 459l1 0 1 -7 0 -17 1 -15 0 -5 1 2M54 441l0 -42 1 -4 0 -15 1 -3 0 -3 1 -1 0 -1 1 -1 59 0M117 399l0 -28M117 399l1 19M118 442l0 -24M118 442l1 3M119 453l0 -8M119 453l1 2M120 456l0 -1M120 456l1 0 1 1 418 0M540 458l0 -1 6 0"/>
<path stroke="red" d="M546 458l0 -24 1 -2 0 -27 1 -7 0 -4 1 -2 1 0 0 -1 17 0M567 392l0 -1 26 0M593 392l0 -1 32 0 0 -13 1 -1 0 -6 1 0 1 1 18 0M646 373l0 -1 79 0M725 373l0 -1 6 0 1 -3 0 -2M732 369l1 1 5 0 0 -1 1 0M739 370l0 -1M739 370l12 0 0 -1"/>
<path stroke="red" d="M751 370l1 0 0 -1M752 370l7 0M759 373l0 -3M759 371l19 0M778 372l0 -1 26 0M804 372l0 -1 27 0M831 372l0 -1 26 0M857 372l0 -1 26 0M883 372l0 -1 27 0M910 372l0 -1 8 0M918 482l0 -111M918 476l1 -2 0 -10 1 -2 0 -3 1 -1 1 0 0 -1"/>
<path stroke="red" d="M922 457l14 0M936 458l0 -1 38 0"/>
<path stroke="blue" d="M50 23l46 0"/>
<text stroke="none" fill="white" font-size="16" x="106" y="32">
x1.vsampled_n
</text>
<path stroke="blue" d="M50 459l1 0 1 -7 0 -17 1 -16 0 -5 1 2M54 441l0 -42 1 -4 0 -15 1 -3 0 -3 1 -1 0 -1 1 -1 59 0 0 -2 1 -13 0 -40 1 -8 0 -16 1 -2 0 -3 2 -2 2 0 0 -1 415 0M539 285l0 -1M539 285l1 0M540 286l0 -1 14 0 0 -1M554 285l13 0M567 286l0 -1"/>
<path stroke="blue" d="M567 285l7 0M574 314l0 -29M574 314l1 10 1 4M576 329l0 -1M576 329l4 0 0 -1M580 329l13 0M593 330l0 -1 7 0M600 345l0 -16M600 345l1 5M601 352l0 -2M601 351l5 0 0 -1 1 0M607 351l0 -1M607 351l26 0 0 -1M633 351l20 0M653 360l0 -9"/>
<path stroke="blue" d="M653 360l1 2 25 0M679 368l0 -6M679 368l1 0 0 -1 19 0M699 368l0 -1 7 0M706 371l0 -4M706 370l79 0M785 371l0 -1M785 371l28 0M813 372l0 -1 105 0M918 372l0 -65 1 -4 0 -11 1 -2 0 -3 1 -1 0 -1 2 0 0 -1M923 285l13 0M936 286l0 -1"/>
<path stroke="blue" d="M936 285l14 0 0 -1M950 285l12 0 0 -1 12 0"/>
<path stroke="#FFA500" d="M462 39l46 0"/>
<text stroke="none" fill="white" font-size="16" x="518" y="48">
x1.vsampled_p-x1.vsampled_n
</text>
<path stroke="#FFA500" d="M50 459l2 0M52 460l0 -1M52 460l2 0 0 -1 63 0M117 488l0 -29M117 488l1 33M118 585l0 -64M118 585l1 11M119 620l0 -24M119 620l1 4M120 627l0 -3M120 627l2 4 1 0 1 1 415 0 0 -1 1 1 0 -1 6 0M546 632l0 -24 1 -2 0 -27 1 -7 0 -4"/>
<path stroke="#FFA500" d="M548 568l1 -2 1 0 1 -1 3 0M554 566l0 -1M554 566l12 0 1 -1 0 -1M567 565l6 0 1 1 0 -30 1 -10 1 -4 0 -1 4 0M580 522l0 -1M580 522l1 0 0 -1 12 0M593 522l0 -1 7 0 0 -16 1 -5 0 -2M601 499l5 0M606 500l0 -1M606 500l1 0 0 -1 18 0"/>
<path stroke="#FFA500" d="M625 499l0 -13 1 -1 0 -6 1 0 1 1 18 0M646 481l0 -1 7 0 0 -9 1 -2 18 0M672 470l0 -1 7 0 0 -6 1 0M680 464l0 -1M680 464l26 0 0 -4M706 461l25 0 1 -3 0 -2M732 458l1 0M733 459l0 -1M733 459l5 0 0 -1 1 0M739 459l0 -1M739 459l13 0"/>
<path stroke="#FFA500" d="M752 459l0 -1M752 459l7 0M759 462l0 -4M759 460l26 0 0 -1 19 0M804 460l0 -1 9 0 0 -1M813 459l44 0M857 460l0 -1 26 0M883 460l0 -1 27 0M910 460l0 -1 8 0M918 629l0 -171M918 629l1 0M919 631l0 -2M919 631l4 0M923 632l0 -1M923 632l13 0"/>
<path stroke="#FFA500" d="M936 632l0 -2M936 631l14 0M950 632l0 -1M950 632l24 0"/>
<path stroke="green" d="M50 39l46 0"/>
<text stroke="none" fill="white" font-size="16" x="106" y="48">
x1.sw_sample-2
</text>
<path stroke="green" d="M50 655l1 0 1 -10 0 -23 1 -21M53 618l0 -24M53 618l1 34M54 655l0 -3M54 655l63 0M117 662l0 -184 1 0M118 479l0 -1M118 479l421 0M539 656l0 -184M539 655l422 0M961 660l0 -182 1 0M962 479l0 -1M962 479l12 0"/>
<path stroke="#FFC0C5" d="M462 55l46 0"/>
<text stroke="none" fill="white" font-size="16" x="518" y="64">
x1.comp_out_p+2
</text>
<path stroke="#FFC0C5" d="M50 263l1 0 1 -10 0 -23 1 -20 0 -4M53 208l1 5M54 264l0 -51M54 261l1 2 698 0 0 -175 1 -2M754 87l0 -1M754 87l12 0M766 263l0 -180M766 263l68 0 0 -177M834 87l11 0 0 -3 1 163M846 263l0 -16M846 263l128 0"/>
<path stroke="#A52A2A" d="M50 55l46 0"/>
<text stroke="none" fill="white" font-size="16" x="106" y="64">
x1.comp_out_n-2
</text>
<path stroke="#A52A2A" d="M50 655l1 0 1 -10 0 -24 1 -20M53 602l0 -4M53 602l1 7M54 655l0 -46M54 655l487 0 1 1 0 -180M542 479l13 0M555 656l0 -186M555 655l13 0 0 -178M568 479l13 0M581 614l0 -141M581 614l1 40M582 655l0 -1M582 655l12 0M594 656l0 -179"/>
<path stroke="#A52A2A" d="M594 478l1 1 13 0M608 655l0 -184M608 655l13 0M621 656l0 -179M621 479l13 0M634 655l0 -185M634 655l13 0M647 660l0 -184M647 479l14 0M661 655l0 -186M661 655l12 0M673 663l0 -8M673 663l1 -154 0 -33M674 479l13 0M687 655l0 -185"/>
<path stroke="#A52A2A" d="M687 655l13 0M700 661l0 -185M700 479l13 0 0 -10 1 177M714 656l0 -10M714 655l13 0 0 -177M727 479l13 0M740 656l0 -185M740 655l40 0 0 -177M780 479l13 0M793 655l0 -188M793 655l14 0 0 -177 1 0M808 479l0 -1M808 479l11 0M819 655l0 -181"/>
<path stroke="#A52A2A" d="M819 655l41 0 0 -177M860 479l12 0M872 655l0 -188M872 655l14 0 0 -162 1 -15M887 479l0 -1M887 479l11 0M898 655l0 -188M898 655l15 0 0 -177M913 479l12 0M925 656l0 -183M925 655l12 0M937 656l0 -1M937 656l1 -111 0 -69M938 479l13 0"/>
<path stroke="#A52A2A" d="M951 656l0 -187M951 655l23 0"/>
</svg>
