<?xml version="1.0" standalone="yes"?>
<!DOCTYPE svg PUBLIC "-//W3C//DTD SVG 1.1//EN"
 "http://www.w3.org/Graphics/SVG/1.1/DTD/svg11.dtd">
<svg xmlns="http://www.w3.org/2000/svg" version="1.1"
  width="100%" height="100%" viewBox="0 0 1024 768"
  style="fill: none; font-family: Helvetica;
 font: Helvetica;
">

<!-- Creator: NGspice -->

<rect x="0" y="0" width="1024" height="768" fill="black" stroke="none"/>
<text stroke="none" fill="white" font-size="16" x="358" y="752">
time
</text>
<text stroke="none" fill="white" font-size="16" x="10" y="16">
tran1: run23_vin-0.879346
</text>
<path stroke="white" d="M50 704l0 -637"/>
<text stroke="none" fill="white" font-size="16" x="35" y="728">
0.0
</text>
<path stroke="white" stroke-dasharray="1,2" d="M182 704l0 -637"/>
<text stroke="none" fill="white" font-size="16" x="157" y="728">
100.0
</text>
<path stroke="white" stroke-dasharray="1,2" d="M314 704l0 -637"/>
<text stroke="none" fill="white" font-size="16" x="289" y="728">
200.0
</text>
<path stroke="white" stroke-dasharray="1,2" d="M446 704l0 -637"/>
<text stroke="none" fill="white" font-size="16" x="421" y="728">
300.0
</text>
<path stroke="white" stroke-dasharray="1,2" d="M578 704l0 -637"/>
<text stroke="none" fill="white" font-size="16" x="553" y="728">
400.0
</text>
<path stroke="white" stroke-dasharray="1,2" d="M710 704l0 -637"/>
<text stroke="none" fill="white" font-size="16" x="685" y="728">
500.0
</text>
<path stroke="white" stroke-dasharray="1,2" d="M842 704l0 -637"/>
<text stroke="none" fill="white" font-size="16" x="817" y="728">
600.0
</text>
<path stroke="white" stroke-dasharray="1,2" d="M974 704l0 -637"/>
<text stroke="none" fill="white" font-size="16" x="949" y="728">
700.0
</text>
<text stroke="none" fill="white" font-size="16" x="614" y="752">
ns
</text>
<path stroke="white" stroke-dasharray="1,2" d="M50 704l924 0"/>
<text stroke="none" fill="white" font-size="16" x="8" y="712">
-3.0
</text>
<path stroke="white" stroke-dasharray="1,2" d="M50 613l924 0"/>
<text stroke="none" fill="white" font-size="16" x="8" y="621">
-2.0
</text>
<path stroke="white" stroke-dasharray="1,2" d="M50 522l924 0"/>
<text stroke="none" fill="white" font-size="16" x="8" y="530">
-1.0
</text>
<path stroke="white" d="M50 431l924 0"/>
<text stroke="none" fill="white" font-size="16" x="18" y="439">
0.0
</text>
<path stroke="white" stroke-dasharray="1,2" d="M50 340l924 0"/>
<text stroke="none" fill="white" font-size="16" x="18" y="348">
1.0
</text>
<path stroke="white" stroke-dasharray="1,2" d="M50 249l924 0"/>
<text stroke="none" fill="white" font-size="16" x="18" y="257">
2.0
</text>
<path stroke="white" stroke-dasharray="1,2" d="M50 158l924 0"/>
<text stroke="none" fill="white" font-size="16" x="18" y="166">
3.0
</text>
<path stroke="white" stroke-dasharray="1,2" d="M50 67l924 0"/>
<text stroke="none" fill="white" font-size="16" x="18" y="75">
4.0
</text>
<text stroke="none" fill="white" font-size="16" x="10" y="32">
     
</text>
<path stroke="red" d="M462 23l46 0"/>
<text stroke="none" fill="white" font-size="16" x="518" y="32">
x1.vsampled_p
</text>
<path stroke="red" d="M50 431l1 0 1 -7 0 -15 1 -14 0 -4 1 1M54 414l0 -38 1 -5 0 -13 1 -3 0 -3 1 -1 0 -1 2 0 1 -1 4 0 1 1 2 0 0 -1 50 0M117 375l0 -26M117 375l1 18M118 415l0 -22M118 415l1 3M119 425l0 -7M119 425l1 2M120 428l0 -1M120 428l1 0 1 1"/>
<path stroke="red" d="M122 429l424 0M546 430l0 -21 1 -2 0 -29 1 -6 1 -2 0 -1 1 -1 75 0 0 -17 1 -2 1 0M627 350l0 -1M627 350l19 0M646 351l0 -1 26 0M672 351l0 -1 27 0M699 351l0 -1 26 0M725 351l0 -1 7 0 0 -4M732 348l6 0 0 -1M738 348l21 0M759 351l0 -3"/>
<path stroke="red" d="M759 350l1 -1 18 0M778 350l0 -1 26 0M804 350l0 -1 9 0M813 350l0 -1 17 0 1 1 0 -1 7 0 0 -1M838 349l19 0M857 350l0 -1 26 0M883 350l0 -1 27 0M910 350l0 -1 8 0M918 452l0 -103M918 451l1 -1 0 -13 1 -2 0 -3 1 -1 0 -1 1 0 0 -1 52 0"/>
<path stroke="blue" d="M50 23l46 0"/>
<text stroke="none" fill="white" font-size="16" x="106" y="32">
x1.vsampled_n
</text>
<path stroke="blue" d="M50 431l1 0 1 -7 0 -16 1 -14 0 -5 1 2M54 414l0 -38 1 -5 0 -13 1 -3 0 -3 1 -1 0 -1 2 0 1 -1 3 0 1 1 5 0 0 -1 48 0 0 -2 1 -11 0 -38 1 -7 0 -15 1 -2 0 -2 1 -2 1 0 0 -1 418 0M540 270l0 -1M540 270l1 -1M541 270l0 -1 26 0M567 271l0 -2"/>
<path stroke="blue" d="M567 269l7 0M574 298l0 -29M574 298l1 9 1 3 17 0M593 311l0 -1 7 0M600 324l0 -14M600 324l1 4M601 332l0 -4M601 331l5 0 0 -1 1 0M607 331l0 -1M607 331l26 0 0 -1M633 331l20 0M653 340l0 -9M653 340l1 1 25 0M679 346l0 -5M679 346l1 0"/>
<path stroke="blue" d="M680 347l0 -1 26 0M706 349l0 -3M706 349l6 0 0 -1M712 349l13 0 0 -1M725 349l13 0 0 -1 1 0M739 349l0 -1M739 349l12 0 0 -1M751 349l14 0 0 -1M765 349l13 0 0 -1M778 349l8 0M786 350l0 -1 132 0 0 -51 1 -3 0 -17 1 -2 0 -3 1 -2"/>
<path stroke="blue" d="M921 271l0 -1 2 0 0 -1 13 0M936 271l0 -2 1 1 0 -1 37 0"/>
<path stroke="#FFA500" d="M462 39l46 0"/>
<text stroke="none" fill="white" font-size="16" x="518" y="48">
x1.vsampled_p-x1.vsampled_n
</text>
<path stroke="#FFA500" d="M50 431l2 0M52 432l0 -1M52 432l2 0 0 -1 63 0M117 458l0 -27M117 458l1 30M118 548l0 -60M118 548l1 10M119 580l0 -22M119 580l1 4M120 587l0 -3M120 587l1 2 1 1M122 591l0 -1M122 591l418 0 0 -1M540 591l6 0 0 -20 1 -3 0 -29 1 -5"/>
<path stroke="#FFA500" d="M548 534l1 -3 0 -1 2 0 0 -1 3 0M554 530l0 -1M554 530l13 0 0 -2M567 529l6 0 1 1 0 -29 1 -9 1 -3 0 -1 1 1 16 0 0 -1M593 489l7 0 0 -14 1 -4 0 -4M601 468l24 0 0 -17 1 -1 0 -1 1 1 19 0M646 451l0 -1 7 0 0 -8 1 -2 18 0M672 441l0 -1"/>
<path stroke="#FFA500" d="M672 440l7 0 0 -5 1 0 0 -1M680 435l26 0 0 -3 19 0M725 433l0 -1 7 0 0 -4M732 430l19 0M751 431l0 -1 8 0M759 433l0 -3M759 432l6 0 0 -1M765 432l13 0 0 -1M778 432l8 0 0 -1 27 0M813 432l0 -1 25 0 0 -1 1 1 79 0M918 584l0 -153"/>
<path stroke="#FFA500" d="M918 584l1 2M919 590l0 -4M919 590l1 0M920 591l0 -1M920 591l16 0 0 -1M936 591l38 0"/>
<path stroke="green" d="M50 39l46 0"/>
<text stroke="none" fill="white" font-size="16" x="106" y="48">
x1.sw_sample-2
</text>
<path stroke="green" d="M50 613l1 0 1 -9 0 -21 1 -21M53 578l0 -22M53 578l1 32M54 613l0 -3M54 613l63 0M117 620l0 -172M117 449l422 0M539 614l0 -171M539 613l422 0M961 618l0 -170 1 1 12 0"/>
<path stroke="#FFC0C5" d="M462 55l46 0"/>
<text stroke="none" fill="white" font-size="16" x="518" y="64">
x1.comp_out_p+2
</text>
<path stroke="#FFC0C5" d="M50 249l1 0 1 -9 0 -22 1 -18 0 -4M53 198l1 5M54 250l0 -47M54 247l1 2 698 0 0 -165 1 1 12 0M766 249l0 -167M766 249l41 0 0 -164 12 0M819 250l0 -172M819 249l41 0 0 -164 12 0M872 249l0 -173M872 249l14 0 1 -148 0 -17M887 85l11 0"/>
<path stroke="#FFC0C5" d="M898 249l0 -173M898 249l15 0 0 -165M913 85l12 0M925 250l0 -172M925 249l49 0"/>
<path stroke="#A52A2A" d="M50 55l46 0"/>
<text stroke="none" fill="white" font-size="16" x="106" y="64">
x1.comp_out_n-2
</text>
<path stroke="#A52A2A" d="M50 613l1 0 1 -9 0 -22 1 -19M53 564l0 -3M53 564l1 6M54 613l0 -43M54 613l487 0 1 1 0 -167M542 449l13 0M555 614l0 -173M555 613l13 0 0 -165M568 449l13 0 0 -6 1 97M582 614l0 -74M582 613l12 0M594 614l0 -167M594 449l14 0M608 613l0 -173"/>
<path stroke="#A52A2A" d="M608 613l13 0 0 -165M621 449l13 0M634 613l0 -172M634 613l13 0 0 -165M647 449l14 0M661 613l0 -172M661 613l12 0M673 615l0 -2M673 615l1 -105 0 -63M674 449l13 0M687 613l0 -173M687 613l13 0 0 -166M700 449l13 0 0 -9 1 165"/>
<path stroke="#A52A2A" d="M714 614l0 -9M714 613l13 0 0 -165M727 449l13 0M740 613l0 -167M740 613l40 0 0 -165 1 1 12 0M793 613l0 -174M793 613l41 0 0 -164 11 0 0 -10 1 153M846 613l0 -21M846 613l91 0M937 614l0 -1M937 614l1 -93 0 -74M938 449l13 0"/>
<path stroke="#A52A2A" d="M951 613l0 -173M951 613l23 0"/>
</svg>
