<?xml version="1.0" standalone="yes"?>
<!DOCTYPE svg PUBLIC "-//W3C//DTD SVG 1.1//EN"
 "http://www.w3.org/Graphics/SVG/1.1/DTD/svg11.dtd">
<svg xmlns="http://www.w3.org/2000/svg" version="1.1"
  width="100%" height="100%" viewBox="0 0 1024 768"
  style="fill: none; font-family: Helvetica;
 font: Helvetica;
">

<!-- Creator: NGspice -->

<rect x="0" y="0" width="1024" height="768" fill="black" stroke="none"/>
<text stroke="none" fill="white" font-size="16" x="358" y="752">
time
</text>
<text stroke="none" fill="white" font-size="16" x="10" y="16">
tran1: run903_vin-0.105909
</text>
<path stroke="white" d="M50 704l0 -637"/>
<text stroke="none" fill="white" font-size="16" x="35" y="728">
0.0
</text>
<path stroke="white" stroke-dasharray="1,2" d="M182 704l0 -637"/>
<text stroke="none" fill="white" font-size="16" x="157" y="728">
100.0
</text>
<path stroke="white" stroke-dasharray="1,2" d="M314 704l0 -637"/>
<text stroke="none" fill="white" font-size="16" x="289" y="728">
200.0
</text>
<path stroke="white" stroke-dasharray="1,2" d="M446 704l0 -637"/>
<text stroke="none" fill="white" font-size="16" x="421" y="728">
300.0
</text>
<path stroke="white" stroke-dasharray="1,2" d="M578 704l0 -637"/>
<text stroke="none" fill="white" font-size="16" x="553" y="728">
400.0
</text>
<path stroke="white" stroke-dasharray="1,2" d="M710 704l0 -637"/>
<text stroke="none" fill="white" font-size="16" x="685" y="728">
500.0
</text>
<path stroke="white" stroke-dasharray="1,2" d="M842 704l0 -637"/>
<text stroke="none" fill="white" font-size="16" x="817" y="728">
600.0
</text>
<path stroke="white" stroke-dasharray="1,2" d="M974 704l0 -637"/>
<text stroke="none" fill="white" font-size="16" x="949" y="728">
700.0
</text>
<text stroke="none" fill="white" font-size="16" x="614" y="752">
ns
</text>
<path stroke="white" stroke-dasharray="1,2" d="M50 704l924 0"/>
<text stroke="none" fill="white" font-size="16" x="8" y="712">
-3.0
</text>
<path stroke="white" stroke-dasharray="1,2" d="M50 613l924 0"/>
<text stroke="none" fill="white" font-size="16" x="8" y="621">
-2.0
</text>
<path stroke="white" stroke-dasharray="1,2" d="M50 522l924 0"/>
<text stroke="none" fill="white" font-size="16" x="8" y="530">
-1.0
</text>
<path stroke="white" d="M50 431l924 0"/>
<text stroke="none" fill="white" font-size="16" x="18" y="439">
0.0
</text>
<path stroke="white" stroke-dasharray="1,2" d="M50 340l924 0"/>
<text stroke="none" fill="white" font-size="16" x="18" y="348">
1.0
</text>
<path stroke="white" stroke-dasharray="1,2" d="M50 249l924 0"/>
<text stroke="none" fill="white" font-size="16" x="18" y="257">
2.0
</text>
<path stroke="white" stroke-dasharray="1,2" d="M50 158l924 0"/>
<text stroke="none" fill="white" font-size="16" x="18" y="166">
3.0
</text>
<path stroke="white" stroke-dasharray="1,2" d="M50 67l924 0"/>
<text stroke="none" fill="white" font-size="16" x="18" y="75">
4.0
</text>
<text stroke="none" fill="white" font-size="16" x="10" y="32">
     
</text>
<path stroke="red" d="M462 23l46 0"/>
<text stroke="none" fill="white" font-size="16" x="518" y="32">
x1.vsampled_p
</text>
<path stroke="red" d="M50 431l1 0 1 -7 0 -15 1 -14 0 -5 1 2M54 415l0 -39 1 -5 0 -15 1 -2 0 -2 1 -2 2 0 1 -1 4 0M64 350l0 -1M64 350l4 0 1 -1 48 0M117 350l0 -1M117 350l1 3M118 355l0 -2M118 355l1 2M119 358l0 -1M119 358l1 0 1 1 425 0 0 -23 1 -1 0 -23"/>
<path stroke="red" d="M547 312l1 -7 0 -5 2 -2 4 0 0 -1 1 1 11 0 0 -1M566 298l1 0M567 299l0 -1 7 0M574 325l0 -27M574 325l1 8M575 340l0 -7M575 340l1 1 0 -1 1 -1 3 0 0 -1 13 0M593 339l0 -1M593 339l7 0M600 356l0 -17M600 356l1 3M601 362l0 -3M601 361l1 -1"/>
<path stroke="red" d="M602 360l0 -1 23 0 0 -11 1 -1 0 -6 20 0M646 342l0 -1 26 0M672 342l0 -1 7 0M679 347l0 -6M679 347l1 1M680 349l0 -3 19 0M699 347l0 -1 7 0M706 350l0 -4M706 349l6 0 0 -1M712 349l26 0 0 -1M738 349l27 0 0 -1M765 349l21 0M786 350l0 -1"/>
<path stroke="red" d="M786 349l18 0M804 350l0 -1 26 0 1 1 0 -1 86 0M917 350l0 -1M917 350l1 0M918 360l0 -11M918 360l1 0 1 -1 54 0"/>
<path stroke="blue" d="M50 23l46 0"/>
<text stroke="none" fill="white" font-size="16" x="106" y="32">
x1.vsampled_n
</text>
<path stroke="blue" d="M50 431l1 0 1 -7 0 -15 1 -15 0 -4 1 1M54 415l0 -39 1 -5 0 -15 1 -2 0 -2 1 -2 2 0 1 -1 4 0M64 350l0 -1M64 350l4 0 1 -1 48 0 1 -3 0 -3 1 -2 0 -1 2 0 1 -1 417 0M539 340l0 -1M539 340l15 0 0 -1M554 340l26 0 0 -1M580 340l26 0"/>
<path stroke="blue" d="M606 340l0 -1 1 0M607 340l0 -1M607 340l26 0 0 -1M633 340l20 0M653 350l0 -10M653 350l1 1 1 -1 76 0 0 -1 1 -2 1 1 5 0 0 -1M738 348l21 0M759 350l0 -2M759 349l53 0 1 1 0 -1 18 0M831 350l0 -1 26 0M857 350l0 -1 26 0M883 350l0 -1"/>
<path stroke="blue" d="M883 349l27 0M910 350l0 -1 8 0M918 350l0 -8 1 -1 0 -1 4 0 0 -1M923 340l27 0 0 -1M950 340l12 0 0 -1 12 0"/>
<path stroke="#FFA500" d="M462 39l46 0"/>
<text stroke="none" fill="white" font-size="16" x="518" y="48">
x1.vsampled_p-x1.vsampled_n
</text>
<path stroke="#FFA500" d="M50 431l67 0M117 432l0 -1M117 432l1 6M118 443l0 -5M118 443l1 4M119 449l0 -2M119 449l1 1 426 0 0 -23 1 -1 0 -23 1 -6 0 -6 2 -2 17 0M567 390l0 -1 7 0M574 417l0 -28M574 417l1 8M575 432l0 -7M575 432l1 0 0 -1 1 0 0 -1 23 0"/>
<path stroke="#FFA500" d="M600 448l0 -18M600 448l1 2M601 454l0 -4M601 453l1 -2 1 -1 22 0 0 -10 1 -2 0 -6 20 0M646 433l0 -1 7 0 0 -10 1 -1 1 1 24 0M679 428l0 -6M679 428l1 1M680 430l0 -3 26 0M706 431l0 -4M706 430l25 0M731 431l0 -1M731 431l1 1M732 433l0 -1"/>
<path stroke="#FFA500" d="M732 432l27 0 0 -2M759 431l27 0M786 432l0 -1 53 0 0 -1M839 431l78 0M917 432l0 -1M917 432l1 -1M918 449l0 -19M918 449l1 1M919 451l0 -1M919 451l1 0 0 -1 54 0"/>
<path stroke="green" d="M50 39l46 0"/>
<text stroke="none" fill="white" font-size="16" x="106" y="48">
x1.sw_sample-2
</text>
<path stroke="green" d="M50 613l1 0 1 -9 0 -21 1 -21M53 581l0 -25M53 581l1 29M54 613l0 -3M54 613l63 0M117 620l0 -172M117 449l422 0M539 614l0 -171M539 613l422 0M961 618l0 -170 1 1 12 0"/>
<path stroke="#FFC0C5" d="M462 55l46 0"/>
<text stroke="none" fill="white" font-size="16" x="518" y="64">
x1.comp_out_p+2
</text>
<path stroke="#FFC0C5" d="M50 249l1 0 1 -9 0 -22 1 -18 0 -4M53 198l1 5M54 249l0 -46M54 249l514 0M568 250l0 -166M568 85l13 0 0 -3 1 74M582 250l0 -94M582 249l12 0M594 252l0 -169 1 2 13 0M608 249l0 -172M608 249l65 0M673 251l0 -2M673 251l1 -92 0 -76"/>
<path stroke="#FFC0C5" d="M674 85l13 0M687 249l0 -171M687 249l13 0 0 -166M700 85l13 0 1 -8M714 250l0 -173M714 249l13 0 0 -165 1 1 12 0M740 250l0 -173M740 249l40 0 0 -165 1 1 12 0M793 250l0 -174M793 249l67 0 0 -165M860 85l12 0M872 250l0 -169M872 249l14 0"/>
<path stroke="#FFC0C5" d="M886 249l0 -157 1 -8M887 85l0 -1M887 85l11 0M898 250l0 -169M898 249l14 0 1 -157 0 -8M913 85l12 0M925 250l0 -170M925 249l49 0"/>
<path stroke="#A52A2A" d="M50 55l46 0"/>
<text stroke="none" fill="white" font-size="16" x="106" y="64">
x1.comp_out_n-2
</text>
<path stroke="#A52A2A" d="M50 613l1 0 1 -9 0 -22 1 -19M53 564l0 -3M53 564l1 6M54 613l0 -43M54 613l488 0M542 616l0 -169M542 449l13 0M555 613l0 -172M555 613l66 0M621 614l0 -167M621 449l13 0M634 613l0 -172M634 613l13 0M647 616l0 -169M647 449l14 0"/>
<path stroke="#A52A2A" d="M661 613l0 -173M661 613l92 0 0 -165M753 449l13 0M766 613l0 -174M766 613l41 0 0 -165M807 449l12 0M819 613l0 -172M819 613l15 0 0 -164 11 0 0 -10 1 152M846 613l0 -22M846 613l91 0 1 5 0 -171M938 449l13 0M951 614l0 -173M951 613l23 0"/>
</svg>
