<?xml version="1.0" standalone="yes"?>
<!DOCTYPE svg PUBLIC "-//W3C//DTD SVG 1.1//EN"
 "http://www.w3.org/Graphics/SVG/1.1/DTD/svg11.dtd">
<svg xmlns="http://www.w3.org/2000/svg" version="1.1"
  width="100%" height="100%" viewBox="0 0 1024 768"
  style="fill: none; font-family: Helvetica;
 font: Helvetica;
">

<!-- Creator: NGspice -->

<rect x="0" y="0" width="1024" height="768" fill="black" stroke="none"/>
<text stroke="none" fill="white" font-size="16" x="358" y="752">
time
</text>
<text stroke="none" fill="white" font-size="16" x="10" y="16">
tran1: run896_vin-0.112062
</text>
<path stroke="white" d="M50 704l0 -637"/>
<text stroke="none" fill="white" font-size="16" x="35" y="728">
0.0
</text>
<path stroke="white" stroke-dasharray="1,2" d="M182 704l0 -637"/>
<text stroke="none" fill="white" font-size="16" x="157" y="728">
100.0
</text>
<path stroke="white" stroke-dasharray="1,2" d="M314 704l0 -637"/>
<text stroke="none" fill="white" font-size="16" x="289" y="728">
200.0
</text>
<path stroke="white" stroke-dasharray="1,2" d="M446 704l0 -637"/>
<text stroke="none" fill="white" font-size="16" x="421" y="728">
300.0
</text>
<path stroke="white" stroke-dasharray="1,2" d="M578 704l0 -637"/>
<text stroke="none" fill="white" font-size="16" x="553" y="728">
400.0
</text>
<path stroke="white" stroke-dasharray="1,2" d="M710 704l0 -637"/>
<text stroke="none" fill="white" font-size="16" x="685" y="728">
500.0
</text>
<path stroke="white" stroke-dasharray="1,2" d="M842 704l0 -637"/>
<text stroke="none" fill="white" font-size="16" x="817" y="728">
600.0
</text>
<path stroke="white" stroke-dasharray="1,2" d="M974 704l0 -637"/>
<text stroke="none" fill="white" font-size="16" x="949" y="728">
700.0
</text>
<text stroke="none" fill="white" font-size="16" x="614" y="752">
ns
</text>
<path stroke="white" stroke-dasharray="1,2" d="M50 704l924 0"/>
<text stroke="none" fill="white" font-size="16" x="8" y="712">
-3.0
</text>
<path stroke="white" stroke-dasharray="1,2" d="M50 613l924 0"/>
<text stroke="none" fill="white" font-size="16" x="8" y="621">
-2.0
</text>
<path stroke="white" stroke-dasharray="1,2" d="M50 522l924 0"/>
<text stroke="none" fill="white" font-size="16" x="8" y="530">
-1.0
</text>
<path stroke="white" d="M50 431l924 0"/>
<text stroke="none" fill="white" font-size="16" x="18" y="439">
0.0
</text>
<path stroke="white" stroke-dasharray="1,2" d="M50 340l924 0"/>
<text stroke="none" fill="white" font-size="16" x="18" y="348">
1.0
</text>
<path stroke="white" stroke-dasharray="1,2" d="M50 249l924 0"/>
<text stroke="none" fill="white" font-size="16" x="18" y="257">
2.0
</text>
<path stroke="white" stroke-dasharray="1,2" d="M50 158l924 0"/>
<text stroke="none" fill="white" font-size="16" x="18" y="166">
3.0
</text>
<path stroke="white" stroke-dasharray="1,2" d="M50 67l924 0"/>
<text stroke="none" fill="white" font-size="16" x="18" y="75">
4.0
</text>
<text stroke="none" fill="white" font-size="16" x="10" y="32">
     
</text>
<path stroke="red" d="M462 23l46 0"/>
<text stroke="none" fill="white" font-size="16" x="518" y="32">
x1.vsampled_p
</text>
<path stroke="red" d="M50 431l1 0 1 -7 0 -15 1 -14 0 -5 1 2M54 415l0 -39 1 -5 0 -15 1 -2 0 -2 1 -2 2 0 1 -1 4 0M64 350l0 -1M64 350l4 0 1 -1 48 0M117 350l0 -1M117 350l1 3M118 356l0 -3M118 356l1 1M119 358l0 -1M119 358l1 1 420 0M540 360l0 -1 6 0"/>
<path stroke="red" d="M546 359l0 -22 1 -1 0 -26 1 -6 0 -2 1 -2 0 -1 1 0 0 -1 4 0 0 -1M554 298l12 0 1 1M567 300l0 -2 7 0M574 327l0 -29M574 327l1 8M575 340l0 -5M575 340l1 1 0 -1 1 0 0 -1 16 0M593 340l0 -1 7 0M600 354l0 -15M600 354l1 2M601 363l0 -7"/>
<path stroke="red" d="M601 362l1 -1 0 -1 2 0 1 -1 14 0M619 360l0 -1M619 360l1 0 0 -1 5 0M625 360l0 -9 1 -2 0 -7 1 -1 1 0 1 1 4 0 0 -1M633 342l26 0 0 -1M659 342l20 0M679 347l0 -6M679 347l1 1M680 349l0 -2 6 0 0 -1M686 347l20 0M706 350l0 -3M706 350l1 -1"/>
<path stroke="red" d="M707 349l18 0M725 350l0 -1 26 0M751 350l0 -1M751 350l1 -1 26 0M778 350l0 -1 26 0M804 350l0 -1 27 0M831 350l0 -1 26 0M857 350l0 -1 26 0M883 350l0 -1 27 0M910 350l0 -1 8 0M918 359l0 -10M918 359l1 1M919 361l0 -1 2 0 0 -1 15 0"/>
<path stroke="red" d="M936 360l0 -1 38 0"/>
<path stroke="blue" d="M50 23l46 0"/>
<text stroke="none" fill="white" font-size="16" x="106" y="32">
x1.vsampled_n
</text>
<path stroke="blue" d="M50 431l1 0 1 -7 0 -15 1 -15 0 -4 1 1M54 415l0 -39 1 -5 0 -15 1 -2 0 -2 1 -2 2 0 1 -1 4 0M64 350l0 -1M64 350l4 0 1 -1 48 0 1 -3 0 -3 1 -2 0 -1 1 -1 420 0M540 340l0 -1 27 0M567 340l0 -1 26 0M593 340l0 -1 26 0M619 340l0 -1"/>
<path stroke="blue" d="M619 339l27 0M646 340l0 -1 7 0M653 348l0 -9M653 348l1 2M654 351l0 -1 1 0 0 -1 17 0M672 350l0 -1 27 0M699 350l0 -1 26 0M725 350l0 -1 8 0 0 -3M733 347l26 0M759 349l0 -2M759 348l19 0M778 349l0 -1 7 0M785 349l0 -1M785 349l1 0"/>
<path stroke="blue" d="M786 350l0 -1 27 0M813 350l0 -1 18 0M831 350l0 -1 87 0M918 350l0 -8 1 0 0 -3 17 0M936 340l0 -1 38 0"/>
<path stroke="#FFA500" d="M462 39l46 0"/>
<text stroke="none" fill="white" font-size="16" x="518" y="48">
x1.vsampled_p-x1.vsampled_n
</text>
<path stroke="#FFA500" d="M50 431l67 0M117 433l0 -2M117 433l1 6M118 444l0 -5M118 444l1 4M119 450l0 -2M119 450l1 1 426 0 0 -22 1 -1 0 -27 1 -5 0 -2 1 -2 0 -1 1 -1 17 0M567 391l0 -1 7 0M574 418l0 -28M574 418l1 8M575 432l0 -6M575 432l1 1 0 -1 1 0"/>
<path stroke="#FFA500" d="M577 432l0 -1 23 0M600 446l0 -15M600 446l1 2M601 455l0 -7M601 454l1 -1 0 -1 1 -1 3 0M606 452l0 -1M606 452l1 0 0 -1 18 0 0 -8 1 -2 0 -8 7 0M633 434l0 -1 13 0M646 434l0 -1 7 0 0 -8 1 -3 1 1 17 0M672 424l0 -1 7 0M679 429l0 -6"/>
<path stroke="#FFA500" d="M679 429l1 1M680 431l0 -2 1 -1 25 0M706 432l0 -4M706 432l1 -1 26 0M733 434l0 -3M733 434l1 -1 25 0 0 -2M759 432l26 0 0 -1 28 0 0 -1M813 431l25 0M838 432l0 -1 80 0M918 448l0 -18M918 448l1 1M919 452l0 -3M919 452l2 0 0 -1"/>
<path stroke="#FFA500" d="M921 451l2 0M923 452l0 -1 27 0M950 452l0 -1 24 0"/>
<path stroke="green" d="M50 39l46 0"/>
<text stroke="none" fill="white" font-size="16" x="106" y="48">
x1.sw_sample-2
</text>
<path stroke="green" d="M50 613l1 0 1 -9 0 -21 1 -21M53 581l0 -25M53 581l1 29M54 613l0 -3M54 613l63 0M117 620l0 -172M117 449l422 0M539 614l0 -171M539 613l422 0M961 618l0 -170 1 1 12 0"/>
<path stroke="#FFC0C5" d="M462 55l46 0"/>
<text stroke="none" fill="white" font-size="16" x="518" y="64">
x1.comp_out_p+2
</text>
<path stroke="#FFC0C5" d="M50 249l1 0 1 -9 0 -22 1 -18 0 -4M53 198l1 5M54 249l0 -46M54 249l514 0M568 250l0 -166M568 85l13 0 0 -8 1 155M582 249l0 -17M582 249l12 0 0 -164 1 -1M595 85l0 -1M595 85l13 0M608 249l0 -170M608 249l65 0 0 -40 1 -106 0 -19"/>
<path stroke="#FFC0C5" d="M674 85l13 0M687 250l0 -172M687 249l13 0M700 250l0 -167M700 85l13 0 0 -7 1 147M714 249l0 -24M714 249l14 0 1 -154 0 -10 11 0M740 249l0 -173M740 249l94 0 0 -165M834 85l11 0 0 -10 1 143M846 249l0 -31M846 249l128 0"/>
<path stroke="#A52A2A" d="M50 55l46 0"/>
<text stroke="none" fill="white" font-size="16" x="106" y="64">
x1.comp_out_n-2
</text>
<path stroke="#A52A2A" d="M50 613l1 0 1 -9 0 -22 1 -19M53 564l0 -3M53 564l1 6M54 613l0 -43M54 613l488 0 0 -166M542 449l13 0M555 613l0 -173M555 613l13 0M568 614l0 -1 53 0M621 617l0 -170M621 449l13 0M634 613l0 -173M634 613l13 0M647 616l0 -169M647 449l14 0"/>
<path stroke="#A52A2A" d="M661 613l0 -174M661 613l92 0M753 614l0 -166M753 449l13 0M766 613l0 -171M766 613l14 0 0 -165M780 449l13 0M793 613l0 -168M793 613l14 0 0 -165 1 1 11 0M819 614l0 -171M819 613l41 0 0 -165M860 449l12 0M872 613l0 -166M872 613l14 0"/>
<path stroke="#A52A2A" d="M886 613l0 -164 1 -1M887 449l0 -1M887 449l11 0M898 613l0 -172M898 613l15 0 0 -165M913 449l12 0M925 613l0 -172M925 613l12 0M937 614l0 -1M937 614l1 -75 0 -91M938 449l13 0M951 613l0 -172M951 613l23 0"/>
</svg>
