<?xml version="1.0" standalone="yes"?>
<!DOCTYPE svg PUBLIC "-//W3C//DTD SVG 1.1//EN"
 "http://www.w3.org/Graphics/SVG/1.1/DTD/svg11.dtd">
<svg xmlns="http://www.w3.org/2000/svg" version="1.1"
  width="100%" height="100%" viewBox="0 0 1024 768"
  style="fill: none; font-family: Helvetica;
 font: Helvetica;
">

<!-- Creator: NGspice -->

<rect x="0" y="0" width="1024" height="768" fill="black" stroke="none"/>
<text stroke="none" fill="white" font-size="16" x="358" y="752">
time
</text>
<text stroke="none" fill="white" font-size="16" x="10" y="16">
tran1: run1068_vin0.03911
</text>
<path stroke="white" d="M50 704l0 -637"/>
<text stroke="none" fill="white" font-size="16" x="35" y="728">
0.0
</text>
<path stroke="white" stroke-dasharray="1,2" d="M182 704l0 -637"/>
<text stroke="none" fill="white" font-size="16" x="157" y="728">
100.0
</text>
<path stroke="white" stroke-dasharray="1,2" d="M314 704l0 -637"/>
<text stroke="none" fill="white" font-size="16" x="289" y="728">
200.0
</text>
<path stroke="white" stroke-dasharray="1,2" d="M446 704l0 -637"/>
<text stroke="none" fill="white" font-size="16" x="421" y="728">
300.0
</text>
<path stroke="white" stroke-dasharray="1,2" d="M578 704l0 -637"/>
<text stroke="none" fill="white" font-size="16" x="553" y="728">
400.0
</text>
<path stroke="white" stroke-dasharray="1,2" d="M710 704l0 -637"/>
<text stroke="none" fill="white" font-size="16" x="685" y="728">
500.0
</text>
<path stroke="white" stroke-dasharray="1,2" d="M842 704l0 -637"/>
<text stroke="none" fill="white" font-size="16" x="817" y="728">
600.0
</text>
<path stroke="white" stroke-dasharray="1,2" d="M974 704l0 -637"/>
<text stroke="none" fill="white" font-size="16" x="949" y="728">
700.0
</text>
<text stroke="none" fill="white" font-size="16" x="614" y="752">
ns
</text>
<path stroke="white" stroke-dasharray="1,2" d="M50 704l924 0"/>
<text stroke="none" fill="white" font-size="16" x="8" y="712">
-3.0
</text>
<path stroke="white" stroke-dasharray="1,2" d="M50 613l924 0"/>
<text stroke="none" fill="white" font-size="16" x="8" y="621">
-2.0
</text>
<path stroke="white" stroke-dasharray="1,2" d="M50 522l924 0"/>
<text stroke="none" fill="white" font-size="16" x="8" y="530">
-1.0
</text>
<path stroke="white" d="M50 431l924 0"/>
<text stroke="none" fill="white" font-size="16" x="18" y="439">
0.0
</text>
<path stroke="white" stroke-dasharray="1,2" d="M50 340l924 0"/>
<text stroke="none" fill="white" font-size="16" x="18" y="348">
1.0
</text>
<path stroke="white" stroke-dasharray="1,2" d="M50 249l924 0"/>
<text stroke="none" fill="white" font-size="16" x="18" y="257">
2.0
</text>
<path stroke="white" stroke-dasharray="1,2" d="M50 158l924 0"/>
<text stroke="none" fill="white" font-size="16" x="18" y="166">
3.0
</text>
<path stroke="white" stroke-dasharray="1,2" d="M50 67l924 0"/>
<text stroke="none" fill="white" font-size="16" x="18" y="75">
4.0
</text>
<text stroke="none" fill="white" font-size="16" x="10" y="32">
     
</text>
<path stroke="red" d="M462 23l46 0"/>
<text stroke="none" fill="white" font-size="16" x="518" y="32">
x1.vsampled_p
</text>
<path stroke="red" d="M50 431l1 0 1 -7 0 -15 1 -15 0 -4 1 1M54 415l0 -39 1 -5 0 -15 1 -2 0 -3 1 -1 2 0 1 -1 4 0M64 350l0 -1M64 350l4 0 1 -1 48 0 1 -1 0 -1 1 -1 435 0 0 -1M554 346l26 0 0 -1M580 346l26 0 0 -1M606 346l27 0 0 -1M633 346l26 0 0 -1"/>
<path stroke="red" d="M659 346l27 0 0 -1M686 346l20 0M706 349l0 -3M706 349l1 0 0 -1 18 0M725 349l0 -1 26 0M751 349l0 -1 27 0M778 349l0 -1 7 0M785 349l0 -1M785 349l1 0M786 350l0 -1 26 0M812 350l0 -1M812 350l1 0 0 -1 18 0M831 350l0 -1 26 0M857 350l0 -1"/>
<path stroke="red" d="M857 349l26 0M883 350l0 -1 27 0M910 350l0 -1 8 0 0 -4 1 0M919 346l0 -1M919 346l4 0 0 -1M923 346l27 0 0 -1M950 346l12 0 0 -1 1 0M963 346l0 -1M963 346l11 0"/>
<path stroke="blue" d="M50 23l46 0"/>
<text stroke="none" fill="white" font-size="16" x="106" y="32">
x1.vsampled_n
</text>
<path stroke="blue" d="M50 431l1 0 1 -7 0 -15 1 -14 0 -5 1 1M54 415l0 -39 1 -5 0 -15 1 -2 0 -3 1 -1 2 0 1 -1 4 0M64 350l0 -1M64 350l4 0 1 -1 48 0M117 350l0 -1M117 350l3 3 426 0 0 -12 1 -7 0 -31 1 -5 0 -3 1 -1 0 -1 1 -1 4 0 0 -1 12 0 1 1M567 293l0 -1"/>
<path stroke="blue" d="M567 292l7 0M574 317l0 -26M574 317l1 6M575 334l0 -11M575 334l1 0 1 -1 3 0 0 -1 13 0M593 333l0 -1 7 0M600 348l0 -16M600 348l1 4M601 356l0 -4M601 356l1 -1 0 -2 23 0 0 -1 1 -4 0 -12 1 -1 19 0M646 336l0 -1 7 0M653 345l0 -10"/>
<path stroke="blue" d="M653 345l1 1M654 347l0 -1 1 0 0 -1 17 0M672 346l0 -1 7 0M679 349l0 -4M679 349l1 1M680 352l0 -2M680 351l1 -1 18 0M699 351l0 -1 26 0M725 351l0 -1 6 0 0 -2 1 -1M732 348l0 -1M732 348l27 0M759 351l0 -3M759 349l19 0M778 350l0 -1"/>
<path stroke="blue" d="M778 349l26 0M804 350l0 -1 26 0 1 1 0 -1 87 0M918 354l0 -5M918 354l1 -1 55 0"/>
<path stroke="#FFA500" d="M462 39l46 0"/>
<text stroke="none" fill="white" font-size="16" x="518" y="48">
x1.vsampled_p-x1.vsampled_n
</text>
<path stroke="#FFA500" d="M50 431l67 0 1 -3 0 -2 1 -1 0 -1 427 0M546 436l0 -12M546 436l1 6M547 474l0 -32M547 474l1 5M548 482l0 -3M548 482l1 1M549 484l0 -1M549 484l1 1 4 0M554 486l0 -1 13 0 0 -1M567 485l7 0 0 -25 1 -6 0 -12 2 2 3 0M580 445l0 -1"/>
<path stroke="#FFA500" d="M580 444l13 0M593 445l0 -1 7 0 0 -15 1 -4 0 -5M601 421l1 1M602 424l0 -2M602 424l23 0M625 425l0 -1M625 425l1 4M626 441l0 -12M626 441l1 1 19 0 0 -1M646 442l7 0 0 -10 1 -1 0 -1M654 431l1 0 1 1 23 0 0 -4 1 -1 0 -3M680 426l19 0"/>
<path stroke="#FFA500" d="M699 427l0 -1 7 0M706 430l0 -4M706 430l1 -1 24 0M731 432l0 -3M731 432l1 0 0 -1 27 0 0 -2M759 430l26 0M785 431l0 -1M785 431l53 0M838 432l0 -1 80 0 0 -9 1 1M919 424l0 -1M919 424l55 0"/>
<path stroke="green" d="M50 39l46 0"/>
<text stroke="none" fill="white" font-size="16" x="106" y="48">
x1.sw_sample-2
</text>
<path stroke="green" d="M50 613l1 0 1 -9 0 -21 1 -21M53 582l0 -26M53 582l1 28M54 613l0 -3M54 613l63 0M117 620l0 -172M117 449l422 0M539 614l0 -171M539 613l422 0M961 618l0 -170 1 1 12 0"/>
<path stroke="#FFC0C5" d="M462 55l46 0"/>
<text stroke="none" fill="white" font-size="16" x="518" y="64">
x1.comp_out_p+2
</text>
<path stroke="#FFC0C5" d="M50 249l1 0 1 -9 0 -22 1 -18 0 -4M53 198l1 5M54 249l0 -46M54 249l488 0M542 255l0 -172M542 85l13 0M555 250l0 -171M555 249l66 0M621 255l0 -172M621 85l13 0M634 249l0 -171M634 249l66 0M700 254l0 -171M700 85l13 0 0 -8 1 156"/>
<path stroke="#FFC0C5" d="M714 249l0 -16M714 249l13 0 0 -165M727 85l13 0M740 249l0 -171M740 249l40 0 0 -165M780 85l13 0M793 249l0 -174M793 249l14 0 0 -164 12 0M819 249l0 -171M819 249l15 0 0 -165M834 85l11 0 0 -10 1 142M846 249l0 -32M846 249l92 0"/>
<path stroke="#FFC0C5" d="M938 255l0 -172M938 85l13 0M951 250l0 -171M951 249l23 0"/>
<path stroke="#A52A2A" d="M50 55l46 0"/>
<text stroke="none" fill="white" font-size="16" x="106" y="64">
x1.comp_out_n-2
</text>
<path stroke="#A52A2A" d="M50 613l1 0 1 -9 0 -22 1 -19M53 564l0 -3M53 564l1 6M54 613l0 -43M54 613l514 0M568 615l0 -168M568 449l13 0 0 -2 1 37M582 614l0 -130M582 613l12 0M594 615l0 -168M594 449l14 0M608 614l0 -174M608 613l39 0 0 -166M647 449l14 0"/>
<path stroke="#A52A2A" d="M661 613l0 -173M661 613l13 0M674 614l0 -167M674 449l13 0M687 613l0 -173M687 613l66 0 0 -147 1 -17 0 -1M754 449l12 0M766 613l0 -173M766 613l94 0 0 -165M860 449l12 0M872 613l0 -168M872 613l14 0 0 -164 1 -1M887 449l0 -1"/>
<path stroke="#A52A2A" d="M887 449l11 0M898 613l0 -168M898 613l15 0 0 -165M913 449l12 0M925 614l0 -172M925 613l49 0"/>
</svg>
