<?xml version="1.0" standalone="yes"?>
<!DOCTYPE svg PUBLIC "-//W3C//DTD SVG 1.1//EN"
 "http://www.w3.org/Graphics/SVG/1.1/DTD/svg11.dtd">
<svg xmlns="http://www.w3.org/2000/svg" version="1.1"
  width="100%" height="100%" viewBox="0 0 1024 768"
  style="fill: none; font-family: Helvetica;
 font: Helvetica;
">

<!-- Creator: NGspice -->

<rect x="0" y="0" width="1024" height="768" fill="black" stroke="none"/>
<text stroke="none" fill="white" font-size="16" x="358" y="752">
time
</text>
<text stroke="none" fill="white" font-size="16" x="10" y="16">
tran1: run1064_vin0.0355944
</text>
<path stroke="white" d="M50 704l0 -637"/>
<text stroke="none" fill="white" font-size="16" x="35" y="728">
0.0
</text>
<path stroke="white" stroke-dasharray="1,2" d="M182 704l0 -637"/>
<text stroke="none" fill="white" font-size="16" x="157" y="728">
100.0
</text>
<path stroke="white" stroke-dasharray="1,2" d="M314 704l0 -637"/>
<text stroke="none" fill="white" font-size="16" x="289" y="728">
200.0
</text>
<path stroke="white" stroke-dasharray="1,2" d="M446 704l0 -637"/>
<text stroke="none" fill="white" font-size="16" x="421" y="728">
300.0
</text>
<path stroke="white" stroke-dasharray="1,2" d="M578 704l0 -637"/>
<text stroke="none" fill="white" font-size="16" x="553" y="728">
400.0
</text>
<path stroke="white" stroke-dasharray="1,2" d="M710 704l0 -637"/>
<text stroke="none" fill="white" font-size="16" x="685" y="728">
500.0
</text>
<path stroke="white" stroke-dasharray="1,2" d="M842 704l0 -637"/>
<text stroke="none" fill="white" font-size="16" x="817" y="728">
600.0
</text>
<path stroke="white" stroke-dasharray="1,2" d="M974 704l0 -637"/>
<text stroke="none" fill="white" font-size="16" x="949" y="728">
700.0
</text>
<text stroke="none" fill="white" font-size="16" x="614" y="752">
ns
</text>
<path stroke="white" stroke-dasharray="1,2" d="M50 704l924 0"/>
<text stroke="none" fill="white" font-size="16" x="8" y="712">
-3.0
</text>
<path stroke="white" stroke-dasharray="1,2" d="M50 613l924 0"/>
<text stroke="none" fill="white" font-size="16" x="8" y="621">
-2.0
</text>
<path stroke="white" stroke-dasharray="1,2" d="M50 522l924 0"/>
<text stroke="none" fill="white" font-size="16" x="8" y="530">
-1.0
</text>
<path stroke="white" d="M50 431l924 0"/>
<text stroke="none" fill="white" font-size="16" x="18" y="439">
0.0
</text>
<path stroke="white" stroke-dasharray="1,2" d="M50 340l924 0"/>
<text stroke="none" fill="white" font-size="16" x="18" y="348">
1.0
</text>
<path stroke="white" stroke-dasharray="1,2" d="M50 249l924 0"/>
<text stroke="none" fill="white" font-size="16" x="18" y="257">
2.0
</text>
<path stroke="white" stroke-dasharray="1,2" d="M50 158l924 0"/>
<text stroke="none" fill="white" font-size="16" x="18" y="166">
3.0
</text>
<path stroke="white" stroke-dasharray="1,2" d="M50 67l924 0"/>
<text stroke="none" fill="white" font-size="16" x="18" y="75">
4.0
</text>
<text stroke="none" fill="white" font-size="16" x="10" y="32">
     
</text>
<path stroke="red" d="M462 23l46 0"/>
<text stroke="none" fill="white" font-size="16" x="518" y="32">
x1.vsampled_p
</text>
<path stroke="red" d="M50 431l1 0 1 -7 0 -15 1 -15 0 -4 1 1M54 415l0 -39 1 -5 0 -15 1 -2 0 -3 1 -1 2 0 1 -1 4 0M64 350l0 -1M64 350l4 0 1 -1 48 0 1 -1 0 -1 1 -1 421 0M540 347l0 -1 27 0M567 347l0 -1 139 0M706 350l0 -4M706 349l6 0 0 -1M712 349l26 0"/>
<path stroke="red" d="M738 349l0 -1 1 1 26 0 0 -1M765 349l21 0M786 350l0 -1 18 0M804 350l0 -1 27 0M831 350l0 -1 26 0M857 350l0 -1 26 0M883 350l0 -1 27 0M910 350l0 -1 8 0 0 -3 56 0"/>
<path stroke="blue" d="M50 23l46 0"/>
<text stroke="none" fill="white" font-size="16" x="106" y="32">
x1.vsampled_n
</text>
<path stroke="blue" d="M50 431l1 0 1 -7 0 -15 1 -14 0 -5 1 1M54 415l0 -39 1 -5 0 -15 1 -2 0 -3 1 -1 2 0 1 -1 4 0M64 350l0 -1M64 350l4 0 1 -1 48 0M117 350l0 -1M117 350l1 0M118 351l0 -1M118 351l1 1 420 0M539 353l0 -1M539 353l1 0 0 -1 1 0M541 353l0 -1"/>
<path stroke="blue" d="M541 353l5 0 1 -6 0 -38 1 -7 0 -8 1 -1 0 -1 1 0 1 -1 3 0 0 -1M554 291l12 0 1 1M567 293l0 -2 6 0 1 6M574 326l0 -29M574 326l1 8 1 0 0 -1 1 0 1 -1 15 0M593 333l0 -1 7 0M600 348l0 -16M600 348l1 3M601 356l0 -5M601 355l1 -1 0 -1"/>
<path stroke="blue" d="M602 353l4 0 0 -1 13 0M619 353l0 -1M619 353l1 0 0 -1M620 353l5 0 0 -1 1 0 0 -17 1 0 0 -1 1 0 1 1 4 0 0 -1M633 335l20 0M653 343l0 -8M653 343l1 2M654 346l0 -1M654 346l1 -1 24 0M679 350l0 -5M679 350l1 0M680 352l0 -2 52 0 0 -3"/>
<path stroke="blue" d="M732 347l1 1 26 0M759 350l0 -2M759 349l54 0M813 350l0 -1 17 0 1 1 0 -1 87 0M918 354l0 -5M918 354l1 -1 4 0 0 -1 13 0M936 353l0 -1 1 0M937 353l0 -1M937 353l13 0 0 -1 24 0"/>
<path stroke="#FFA500" d="M462 39l46 0"/>
<text stroke="none" fill="white" font-size="16" x="518" y="48">
x1.vsampled_p-x1.vsampled_n
</text>
<path stroke="#FFA500" d="M50 431l67 0 1 -3 0 -1 1 -1 0 -1 421 0 0 -1M540 425l6 0 0 -1 1 6M547 468l0 -38M547 468l1 8M548 483l0 -7M548 483l1 1M549 485l0 -1M549 485l1 0 1 1 16 0 0 -2M567 486l6 0 1 -6 0 -29 1 -8 1 0M576 444l0 -1M576 444l1 1 23 0"/>
<path stroke="#FFA500" d="M600 445l0 -16 1 -3 0 -5M601 422l1 1M602 424l0 -1M602 424l1 0 1 1 2 0 0 -1 1 0M607 425l0 -1M607 425l12 0 0 -1 1 0M620 425l0 -1M620 425l6 0M626 442l0 -17M626 442l1 0M627 443l0 -1M627 443l1 0 1 -1 4 0M633 443l0 -1 13 0"/>
<path stroke="#FFA500" d="M646 443l0 -1 7 0M653 443l0 -9 1 -2 0 -1 1 1 24 0 0 -5 1 0 0 -2M680 427l26 0M706 431l0 -4M706 430l26 0M732 433l0 -3M732 432l27 0 0 -3M759 430l1 1 26 0M786 432l0 -1 27 0 0 -1M813 431l25 0M838 432l0 -1 80 0 0 -8 1 0M919 424l0 -1"/>
<path stroke="#FFA500" d="M919 424l1 0M920 425l0 -1M920 425l3 0 0 -1M923 425l13 0 0 -1M936 425l14 0 0 -1M950 425l24 0"/>
<path stroke="green" d="M50 39l46 0"/>
<text stroke="none" fill="white" font-size="16" x="106" y="48">
x1.sw_sample-2
</text>
<path stroke="green" d="M50 613l1 0 1 -9 0 -21 1 -21M53 582l0 -26M53 582l1 28M54 613l0 -3M54 613l63 0M117 620l0 -172M117 449l422 0M539 614l0 -170M539 613l422 0M961 618l0 -170 1 1 12 0"/>
<path stroke="#FFC0C5" d="M462 55l46 0"/>
<text stroke="none" fill="white" font-size="16" x="518" y="64">
x1.comp_out_p+2
</text>
<path stroke="#FFC0C5" d="M50 249l1 0 1 -9 0 -22 1 -18 0 -4M53 198l1 5M54 249l0 -46M54 249l488 0M542 254l0 -171M542 85l13 0M555 250l0 -172M555 249l66 0M621 254l0 -171M621 85l13 0M634 250l0 -173M634 250l1 -1 65 0 0 -166M700 85l13 0 1 -8M714 250l0 -173"/>
<path stroke="#FFC0C5" d="M714 249l13 0 0 -165M727 85l13 0M740 249l0 -171M740 249l40 0 0 -165M780 85l13 0M793 249l0 -173M793 249l41 0 0 -165M834 85l11 0 0 -10 1 142M846 249l0 -32M846 249l92 0M938 255l0 -172M938 85l13 0M951 250l0 -172M951 249l23 0"/>
<path stroke="#A52A2A" d="M50 55l46 0"/>
<text stroke="none" fill="white" font-size="16" x="106" y="64">
x1.comp_out_n-2
</text>
<path stroke="#A52A2A" d="M50 613l1 0 1 -9 0 -22 1 -19M53 564l0 -3M53 564l1 6M54 613l0 -43M54 613l514 0M568 620l0 -173M568 449l13 0 0 -8 1 151M582 613l0 -21M582 613l12 0M594 614l0 -167M594 449l14 0M608 613l0 -172M608 613l39 0 0 -166M647 449l14 0"/>
<path stroke="#A52A2A" d="M661 614l0 -174M661 613l13 0M674 616l0 -169M674 449l13 0M687 613l0 -172M687 613l66 0 0 -165M753 449l13 0M766 613l0 -166M766 613l41 0 0 -165 1 1 11 0M819 614l0 -171M819 613l41 0 0 -165M860 449l12 0M872 613l0 -168M872 613l14 0"/>
<path stroke="#A52A2A" d="M886 613l0 -164 1 -1M887 449l0 -1M887 449l11 0M898 613l0 -168M898 613l15 0 0 -165M913 449l12 0M925 613l0 -172M925 613l49 0"/>
</svg>
