<?xml version="1.0" standalone="yes"?>
<!DOCTYPE svg PUBLIC "-//W3C//DTD SVG 1.1//EN"
 "http://www.w3.org/Graphics/SVG/1.1/DTD/svg11.dtd">
<svg xmlns="http://www.w3.org/2000/svg" version="1.1"
  width="100%" height="100%" viewBox="0 0 1024 768"
  style="fill: none; font-family: Helvetica;
 font: Helvetica;
">

<!-- Creator: NGspice -->

<rect x="0" y="0" width="1024" height="768" fill="black" stroke="none"/>
<text stroke="none" fill="white" font-size="16" x="358" y="752">
time
</text>
<text stroke="none" fill="white" font-size="16" x="10" y="16">
tran1: run1067_vin0.0382311
</text>
<path stroke="white" d="M50 704l0 -637"/>
<text stroke="none" fill="white" font-size="16" x="35" y="728">
0.0
</text>
<path stroke="white" stroke-dasharray="1,2" d="M182 704l0 -637"/>
<text stroke="none" fill="white" font-size="16" x="157" y="728">
100.0
</text>
<path stroke="white" stroke-dasharray="1,2" d="M314 704l0 -637"/>
<text stroke="none" fill="white" font-size="16" x="289" y="728">
200.0
</text>
<path stroke="white" stroke-dasharray="1,2" d="M446 704l0 -637"/>
<text stroke="none" fill="white" font-size="16" x="421" y="728">
300.0
</text>
<path stroke="white" stroke-dasharray="1,2" d="M578 704l0 -637"/>
<text stroke="none" fill="white" font-size="16" x="553" y="728">
400.0
</text>
<path stroke="white" stroke-dasharray="1,2" d="M710 704l0 -637"/>
<text stroke="none" fill="white" font-size="16" x="685" y="728">
500.0
</text>
<path stroke="white" stroke-dasharray="1,2" d="M842 704l0 -637"/>
<text stroke="none" fill="white" font-size="16" x="817" y="728">
600.0
</text>
<path stroke="white" stroke-dasharray="1,2" d="M974 704l0 -637"/>
<text stroke="none" fill="white" font-size="16" x="949" y="728">
700.0
</text>
<text stroke="none" fill="white" font-size="16" x="614" y="752">
ns
</text>
<path stroke="white" stroke-dasharray="1,2" d="M50 704l924 0"/>
<text stroke="none" fill="white" font-size="16" x="8" y="712">
-2.5
</text>
<path stroke="white" stroke-dasharray="1,2" d="M50 655l924 0"/>
<text stroke="none" fill="white" font-size="16" x="8" y="663">
-2.0
</text>
<path stroke="white" stroke-dasharray="1,2" d="M50 606l924 0"/>
<text stroke="none" fill="white" font-size="16" x="8" y="614">
-1.5
</text>
<path stroke="white" stroke-dasharray="1,2" d="M50 557l924 0"/>
<text stroke="none" fill="white" font-size="16" x="8" y="565">
-1.0
</text>
<path stroke="white" stroke-dasharray="1,2" d="M50 508l924 0"/>
<text stroke="none" fill="white" font-size="16" x="8" y="516">
-0.5
</text>
<path stroke="white" d="M50 459l924 0"/>
<text stroke="none" fill="white" font-size="16" x="18" y="467">
0.0
</text>
<path stroke="white" stroke-dasharray="1,2" d="M50 410l924 0"/>
<text stroke="none" fill="white" font-size="16" x="18" y="418">
0.5
</text>
<path stroke="white" stroke-dasharray="1,2" d="M50 361l924 0"/>
<text stroke="none" fill="white" font-size="16" x="18" y="369">
1.0
</text>
<path stroke="white" stroke-dasharray="1,2" d="M50 312l924 0"/>
<text stroke="none" fill="white" font-size="16" x="18" y="320">
1.5
</text>
<path stroke="white" stroke-dasharray="1,2" d="M50 263l924 0"/>
<text stroke="none" fill="white" font-size="16" x="18" y="271">
2.0
</text>
<path stroke="white" stroke-dasharray="1,2" d="M50 214l924 0"/>
<text stroke="none" fill="white" font-size="16" x="18" y="222">
2.5
</text>
<path stroke="white" stroke-dasharray="1,2" d="M50 165l924 0"/>
<text stroke="none" fill="white" font-size="16" x="18" y="173">
3.0
</text>
<path stroke="white" stroke-dasharray="1,2" d="M50 116l924 0"/>
<text stroke="none" fill="white" font-size="16" x="18" y="124">
3.5
</text>
<path stroke="white" stroke-dasharray="1,2" d="M50 67l924 0"/>
<text stroke="none" fill="white" font-size="16" x="18" y="75">
4.0
</text>
<text stroke="none" fill="white" font-size="16" x="10" y="32">
     
</text>
<path stroke="red" d="M462 23l46 0"/>
<text stroke="none" fill="white" font-size="16" x="518" y="32">
x1.vsampled_p
</text>
<path stroke="red" d="M50 459l1 0 1 -7 0 -17 1 -15 0 -5 1 1M54 442l0 -42 1 -6 0 -16 1 -2 0 -3 1 -1 1 0 0 -1 59 0 1 -2 0 -1 1 0 0 -1 421 0M540 368l0 -1 27 0M567 368l0 -1 26 0M593 368l0 -1 26 0M619 368l0 -1 27 0M646 368l0 -1 26 0M672 368l0 -1 27 0"/>
<path stroke="red" d="M699 368l0 -1 7 0M706 371l0 -4M706 371l1 0 0 -1 78 0M785 371l0 -1M785 371l27 0M812 372l0 -1 26 0 0 -1M838 371l80 0M918 372l0 -5 18 0M936 368l0 -1 38 0"/>
<path stroke="blue" d="M50 23l46 0"/>
<text stroke="none" fill="white" font-size="16" x="106" y="32">
x1.vsampled_n
</text>
<path stroke="blue" d="M50 459l1 0 1 -7 0 -17 1 -15 0 -5 1 1M54 442l0 -42 1 -6 0 -16 1 -2 0 -3 1 -1 1 0 0 -1 59 0 1 1M118 373l0 -1M118 373l1 1 2 0M121 375l0 -1M121 375l425 0 0 -20 1 -2 0 -31 1 -6 0 -3 1 -2 0 -1 1 -1 4 0 0 -1M554 309l13 0M567 311l0 -2"/>
<path stroke="blue" d="M567 309l7 0M574 340l0 -31M574 340l1 8M575 354l0 -6M575 354l1 1 0 -1 1 -1 3 0 0 -1M580 353l13 0M593 354l0 -1 7 0M600 370l0 -17M600 370l1 3M601 379l0 -6M601 378l1 -1 0 -2 23 0 0 -8 1 -3 0 -8 1 0 0 -1 2 0 1 1 3 0 0 -1 13 0"/>
<path stroke="blue" d="M646 356l0 -1M646 356l7 0M653 367l0 -12M653 367l1 1 0 -1 5 0 0 -1 13 0M672 367l0 -1M672 367l7 0M679 371l0 -5M679 371l1 1M680 374l0 -2 51 0 0 -3 1 0 1 1 5 0 0 -1 1 0M739 370l0 -1M739 370l20 0M759 372l0 -2M759 372l1 -1 158 0"/>
<path stroke="blue" d="M918 376l0 -5M918 376l1 -1 43 0 0 -1 1 0M963 375l0 -1M963 375l11 0"/>
<path stroke="#FFA500" d="M462 39l46 0"/>
<text stroke="none" fill="white" font-size="16" x="518" y="48">
x1.vsampled_p-x1.vsampled_n
</text>
<path stroke="#FFA500" d="M50 459l67 0 0 -1 1 -2 0 -2 1 -1 0 -1 421 0 0 -1M540 452l6 0M546 471l0 -20M546 471l1 2M547 504l0 -31M547 504l1 6M548 513l0 -3M548 513l1 2M549 516l0 -1M549 516l1 1 4 0M554 518l0 -1M554 518l12 0 1 -1M567 518l0 -2M567 517l7 0"/>
<path stroke="#FFA500" d="M574 517l0 -31 1 -8 0 -6 1 0 1 1 3 0M580 474l0 -1M580 474l13 0 0 -1 7 0 0 -16 1 -4 0 -5 1 2M602 451l0 -1M602 451l1 0 1 1 2 0 0 -1 1 0M607 452l0 -1M607 452l12 0 0 -1 1 0M620 452l0 -1M620 452l5 0M625 459l0 -7M625 459l1 3"/>
<path stroke="#FFA500" d="M626 470l0 -8M626 470l1 1 19 0 0 -1M646 471l7 0 0 -11 1 -2M654 459l0 -1M654 459l1 0M655 460l0 -1M655 460l24 0 0 -5 1 -1 0 -2M680 454l26 0M706 458l0 -4M706 458l1 0 0 -1 24 0M731 460l0 -3M731 460l2 0 0 -1 26 0 0 -2 1 1"/>
<path stroke="#FFA500" d="M760 458l25 0M785 459l0 -1M785 459l27 0M812 460l0 -1 26 0 0 -1M838 459l80 0M918 460l0 -10 1 0M919 451l0 -1M919 451l1 0 1 1 2 0 0 -1M923 452l13 0 0 -1M936 452l14 0 0 -1M950 452l24 0"/>
<path stroke="green" d="M50 39l46 0"/>
<text stroke="none" fill="white" font-size="16" x="106" y="48">
x1.sw_sample-2
</text>
<path stroke="green" d="M50 655l1 0 1 -10 0 -23 1 -21M53 621l0 -27M53 621l1 31M54 655l0 -3M54 655l63 0M117 662l0 -184 1 1 421 0M539 656l0 -184M539 655l422 0M961 660l0 -182 1 0M962 479l0 -1 1 1 11 0"/>
<path stroke="#FFC0C5" d="M462 55l46 0"/>
<text stroke="none" fill="white" font-size="16" x="518" y="64">
x1.comp_out_p+2
</text>
<path stroke="#FFC0C5" d="M50 263l1 0 1 -10 0 -23 1 -20 0 -4M53 209l1 4M54 263l0 -50M54 263l488 0 0 -178M542 87l13 0M555 263l0 -186M555 263l66 0M621 268l0 -183M621 87l13 0M634 263l0 -185M634 263l66 0M700 269l0 -184M700 87l13 0 0 -10 1 173M714 263l0 -13"/>
<path stroke="#FFC0C5" d="M714 263l13 0 0 -178M727 87l13 0M740 264l0 -186M740 263l40 0 0 -177M780 87l13 0M793 264l0 -182M793 263l14 0 0 -177 1 1 11 0M819 264l0 -184M819 263l41 0 0 -177M860 87l12 0M872 263l0 -179M872 263l14 0 0 -177 1 0M887 87l0 -1"/>
<path stroke="#FFC0C5" d="M887 87l11 0M898 263l0 -179M898 263l15 0 0 -177M913 87l12 0M925 264l0 -184M925 263l13 0M938 269l0 -184M938 87l13 0M951 264l0 -184M951 263l23 0"/>
<path stroke="#A52A2A" d="M50 55l46 0"/>
<text stroke="none" fill="white" font-size="16" x="106" y="64">
x1.comp_out_n-2
</text>
<path stroke="#A52A2A" d="M50 655l1 0 1 -10 0 -24 1 -20M53 602l0 -3M53 602l1 7M54 655l0 -46M54 655l514 0M568 656l0 -179M568 479l13 0 0 -10 1 175M582 655l0 -11M582 655l12 0M594 657l0 -181M594 478l1 1 13 0M608 655l0 -185M608 655l39 0 0 -178M647 479l14 0"/>
<path stroke="#A52A2A" d="M661 655l0 -186M661 655l13 0 0 -178M674 479l13 0M687 655l0 -186M687 655l66 0M753 658l0 -179 1 -2M754 479l0 -2M754 479l12 0M766 655l0 -186M766 655l68 0 0 -177M834 479l11 0 0 -12 1 165M846 655l0 -23M846 655l128 0"/>
</svg>
