<?xml version="1.0" standalone="yes"?>
<!DOCTYPE svg PUBLIC "-//W3C//DTD SVG 1.1//EN"
 "http://www.w3.org/Graphics/SVG/1.1/DTD/svg11.dtd">
<svg xmlns="http://www.w3.org/2000/svg" version="1.1"
  width="100%" height="100%" viewBox="0 0 1024 768"
  style="fill: none; font-family: Helvetica;
 font: Helvetica;
">

<!-- Creator: NGspice -->

<rect x="0" y="0" width="1024" height="768" fill="black" stroke="none"/>
<text stroke="none" fill="white" font-size="16" x="358" y="752">
time
</text>
<text stroke="none" fill="white" font-size="16" x="10" y="16">
tran1: run159_vin-0.366055
</text>
<path stroke="white" d="M50 704l0 -637"/>
<text stroke="none" fill="white" font-size="16" x="35" y="728">
0.0
</text>
<path stroke="white" stroke-dasharray="1,2" d="M182 704l0 -637"/>
<text stroke="none" fill="white" font-size="16" x="157" y="728">
100.0
</text>
<path stroke="white" stroke-dasharray="1,2" d="M314 704l0 -637"/>
<text stroke="none" fill="white" font-size="16" x="289" y="728">
200.0
</text>
<path stroke="white" stroke-dasharray="1,2" d="M446 704l0 -637"/>
<text stroke="none" fill="white" font-size="16" x="421" y="728">
300.0
</text>
<path stroke="white" stroke-dasharray="1,2" d="M578 704l0 -637"/>
<text stroke="none" fill="white" font-size="16" x="553" y="728">
400.0
</text>
<path stroke="white" stroke-dasharray="1,2" d="M710 704l0 -637"/>
<text stroke="none" fill="white" font-size="16" x="685" y="728">
500.0
</text>
<path stroke="white" stroke-dasharray="1,2" d="M842 704l0 -637"/>
<text stroke="none" fill="white" font-size="16" x="817" y="728">
600.0
</text>
<path stroke="white" stroke-dasharray="1,2" d="M974 704l0 -637"/>
<text stroke="none" fill="white" font-size="16" x="949" y="728">
700.0
</text>
<text stroke="none" fill="white" font-size="16" x="614" y="752">
ns
</text>
<path stroke="white" stroke-dasharray="1,2" d="M50 704l924 0"/>
<text stroke="none" fill="white" font-size="16" x="8" y="712">
-3.0
</text>
<path stroke="white" stroke-dasharray="1,2" d="M50 613l924 0"/>
<text stroke="none" fill="white" font-size="16" x="8" y="621">
-2.0
</text>
<path stroke="white" stroke-dasharray="1,2" d="M50 522l924 0"/>
<text stroke="none" fill="white" font-size="16" x="8" y="530">
-1.0
</text>
<path stroke="white" d="M50 431l924 0"/>
<text stroke="none" fill="white" font-size="16" x="18" y="439">
0.0
</text>
<path stroke="white" stroke-dasharray="1,2" d="M50 340l924 0"/>
<text stroke="none" fill="white" font-size="16" x="18" y="348">
1.0
</text>
<path stroke="white" stroke-dasharray="1,2" d="M50 249l924 0"/>
<text stroke="none" fill="white" font-size="16" x="18" y="257">
2.0
</text>
<path stroke="white" stroke-dasharray="1,2" d="M50 158l924 0"/>
<text stroke="none" fill="white" font-size="16" x="18" y="166">
3.0
</text>
<path stroke="white" stroke-dasharray="1,2" d="M50 67l924 0"/>
<text stroke="none" fill="white" font-size="16" x="18" y="75">
4.0
</text>
<text stroke="none" fill="white" font-size="16" x="10" y="32">
     
</text>
<path stroke="red" d="M462 23l46 0"/>
<text stroke="none" fill="white" font-size="16" x="518" y="32">
x1.vsampled_p
</text>
<path stroke="red" d="M50 431l1 0 1 -7 0 -15 1 -14 0 -5 1 2M54 415l0 -40 1 -5 0 -13 1 -3 0 -2 2 -2 1 0 1 -1 4 0M64 350l0 -1M64 350l4 0 1 -1 48 0M117 355l0 -6M117 355l1 10M118 375l0 -10M118 375l1 3M119 380l0 -2M119 380l1 1M120 382l0 -1M120 382l419 0"/>
<path stroke="red" d="M539 383l0 -1M539 383l1 0 1 -1M541 383l0 -1M541 383l5 0 0 -31 1 -5 0 -19 1 -3 0 -2 1 -1 1 0 0 -1 16 0 1 1 0 -1 26 0M593 322l0 -1 7 0M600 344l0 -23M600 344l1 3M601 348l0 -4 1 -1 0 -1 4 0 0 -1 1 0M607 342l0 -1M607 342l26 0"/>
<path stroke="red" d="M633 342l0 -1M633 342l26 0 0 -1M659 342l20 0M679 348l0 -6M679 348l1 1M680 350l0 -3 26 0M706 351l0 -4M706 351l1 -1 0 -1 18 0M725 350l0 -1 7 0 0 -2 1 -1M733 347l0 -1M733 347l18 0M751 348l0 -1 8 0M759 350l0 -3M759 349l1 0 0 -1"/>
<path stroke="red" d="M760 348l18 0M778 349l0 -1 7 0M785 349l0 -1M785 349l1 0M786 350l0 -1 26 0M812 350l0 -1M812 350l1 0 0 -1 17 0 1 1 0 -1 87 0M918 357l0 -13M918 357l1 2M919 379l0 -20M919 379l1 4M920 384l0 -1M920 384l1 0 0 -1 29 0 0 -1M950 383l11 0"/>
<path stroke="red" d="M961 383l0 -1 13 0"/>
<path stroke="blue" d="M50 23l46 0"/>
<text stroke="none" fill="white" font-size="16" x="106" y="32">
x1.vsampled_n
</text>
<path stroke="blue" d="M50 431l1 0 1 -7 0 -15 1 -15 0 -4 1 1M54 415l0 -40 1 -5 0 -13 1 -3 0 -2 2 -2 1 0 1 -1 4 0M64 350l0 -1M64 350l4 0 1 -1 48 0 0 -1 1 -8 0 -15 1 -4 0 -2 1 -2 1 -1 419 0M540 317l0 -1 27 0M567 317l0 -1 7 0M574 341l0 -25M574 341l1 4"/>
<path stroke="blue" d="M575 356l0 -11M575 356l1 1 49 0 0 -4 1 -4 0 -8 1 -1 0 -1 19 0M646 340l0 -1 7 0M653 347l0 -8M653 347l1 2M654 350l0 -1M654 350l1 -1 17 0M672 350l0 -1 27 0M699 350l0 -1 26 0M725 350l0 -1 26 0M751 350l0 -1 27 0M778 350l0 -1"/>
<path stroke="blue" d="M778 349l26 0M804 350l0 -1 27 0M831 350l0 -1 26 0M857 350l0 -1 26 0M883 350l0 -1 27 0M910 350l0 -1 8 0M918 350l0 -2 1 0 0 -17 1 -4 0 -3 1 -3 0 -3 1 0 0 -1 1 0 0 -1 13 0M936 317l0 -1 38 0"/>
<path stroke="#FFA500" d="M462 39l46 0"/>
<text stroke="none" fill="white" font-size="16" x="518" y="48">
x1.vsampled_p-x1.vsampled_n
</text>
<path stroke="#FFA500" d="M50 431l3 0M53 432l0 -1 64 0M117 438l0 -7M117 438l1 18M118 481l0 -25M118 481l1 7M119 492l0 -4M119 492l1 3M120 496l0 -1M120 496l1 1 1 0 1 1 416 0 0 -1 1 0M540 498l0 -1 6 0M546 498l0 -31 1 -5 0 -19 1 -3 0 -2 1 -1 1 0 0 -1"/>
<path stroke="#FFA500" d="M550 436l17 0M567 437l0 -1 7 0 0 -24 1 -4 0 -11 1 -1 0 -1 17 0M593 396l0 -1 7 0M600 418l0 -23M600 418l1 3M601 422l0 -4 1 -1 0 -1 23 0M625 420l0 -4M625 420l1 3M626 432l0 -9M626 432l2 2 25 0 0 -9 1 -2 1 0M655 424l0 -1"/>
<path stroke="#FFA500" d="M655 424l1 0 1 -1 15 0M672 424l0 -1M672 424l1 0 0 -1M673 424l1 0 0 -1 5 0M679 430l0 -7M679 430l1 1M680 432l0 -3 6 0 0 -1M686 429l20 0M706 433l0 -4M706 432l1 0 0 -1 25 0 0 -2 1 -1M733 429l0 -1M733 429l26 0M759 432l0 -3"/>
<path stroke="#FFA500" d="M759 430l26 0 1 1M786 432l0 -1 26 0M812 432l0 -1M812 432l1 0 0 -1 25 0 0 -1M838 431l80 0M918 440l0 -13M918 440l1 2M919 479l0 -37M919 479l1 8M920 491l0 -4M920 491l1 3M921 496l0 -2M921 496l1 0M922 497l0 -1M922 497l1 0"/>
<path stroke="#FFA500" d="M923 498l0 -1 1 0M924 498l0 -1M924 498l12 0 0 -1 14 0M950 498l0 -1M950 498l24 0"/>
<path stroke="green" d="M50 39l46 0"/>
<text stroke="none" fill="white" font-size="16" x="106" y="48">
x1.sw_sample-2
</text>
<path stroke="green" d="M50 613l1 0 1 -9 0 -21 1 -21M53 580l0 -24M53 580l1 30M54 613l0 -3M54 613l63 0M117 620l0 -172M117 449l422 0M539 614l0 -171M539 613l422 0M961 618l0 -170 1 1 12 0"/>
<path stroke="#FFC0C5" d="M462 55l46 0"/>
<text stroke="none" fill="white" font-size="16" x="518" y="64">
x1.comp_out_p+2
</text>
<path stroke="#FFC0C5" d="M50 249l1 0 1 -9 0 -22 1 -18 0 -4M53 198l1 5M54 249l0 -46M54 248l1 1 539 0 0 -166M594 85l14 0M608 250l0 -168M608 249l13 0M621 250l0 -167M621 85l13 0M634 250l0 -173M634 249l39 0M673 250l0 -62 1 -89 0 -15M674 85l13 0M687 249l0 -172"/>
<path stroke="#FFC0C5" d="M687 249l13 0 0 -165M700 85l13 0 0 -6 1 116M714 250l0 -55M714 249l39 0 0 -165M753 85l13 0M766 250l0 -173M766 250l1 -1 13 0 0 -165M780 85l13 0M793 249l0 -174M793 249l14 0 0 -165 1 1 11 0M819 249l0 -172M819 249l41 0 0 -164"/>
<path stroke="#FFC0C5" d="M860 85l12 0M872 249l0 -173M872 249l14 0 0 -157 1 -8M887 85l0 -1M887 85l11 0M898 249l0 -173M898 249l15 0 0 -165M913 85l12 0M925 250l0 -173M925 249l49 0"/>
<path stroke="#A52A2A" d="M50 55l46 0"/>
<text stroke="none" fill="white" font-size="16" x="106" y="64">
x1.comp_out_n-2
</text>
<path stroke="#A52A2A" d="M50 613l1 0 1 -9 0 -22 1 -19M53 564l0 -3M53 564l1 6M54 613l0 -43M54 613l488 0M542 620l0 -173M542 449l13 0M555 613l0 -168M555 613l13 0 0 -166M568 449l13 0 0 -8 1 158M582 613l0 -14M582 613l65 0M647 615l0 -168M647 449l14 0"/>
<path stroke="#A52A2A" d="M661 613l0 -174M661 613l12 0 1 1 0 -1 54 0 0 -158 1 -7M729 449l0 -1M729 449l11 0M740 613l0 -174M740 613l94 0 0 -165M834 449l11 0 0 -10 1 153M846 613l0 -21M846 613l91 0 1 -53 0 -112M938 449l13 0M951 613l0 -173M951 613l23 0"/>
</svg>
