<?xml version="1.0" standalone="yes"?>
<!DOCTYPE svg PUBLIC "-//W3C//DTD SVG 1.1//EN"
 "http://www.w3.org/Graphics/SVG/1.1/DTD/svg11.dtd">
<svg xmlns="http://www.w3.org/2000/svg" version="1.1"
  width="100%" height="100%" viewBox="0 0 1024 768"
  style="fill: none; font-family: Helvetica;
 font: Helvetica;
">

<!-- Creator: NGspice -->

<rect x="0" y="0" width="1024" height="768" fill="black" stroke="none"/>
<text stroke="none" fill="white" font-size="16" x="358" y="752">
time
</text>
<text stroke="none" fill="white" font-size="16" x="10" y="16">
tran1: run158_vin0.898987
</text>
<path stroke="white" d="M50 704l0 -637"/>
<text stroke="none" fill="white" font-size="16" x="35" y="728">
0.0
</text>
<path stroke="white" stroke-dasharray="1,2" d="M182 704l0 -637"/>
<text stroke="none" fill="white" font-size="16" x="157" y="728">
100.0
</text>
<path stroke="white" stroke-dasharray="1,2" d="M314 704l0 -637"/>
<text stroke="none" fill="white" font-size="16" x="289" y="728">
200.0
</text>
<path stroke="white" stroke-dasharray="1,2" d="M446 704l0 -637"/>
<text stroke="none" fill="white" font-size="16" x="421" y="728">
300.0
</text>
<path stroke="white" stroke-dasharray="1,2" d="M578 704l0 -637"/>
<text stroke="none" fill="white" font-size="16" x="553" y="728">
400.0
</text>
<path stroke="white" stroke-dasharray="1,2" d="M710 704l0 -637"/>
<text stroke="none" fill="white" font-size="16" x="685" y="728">
500.0
</text>
<path stroke="white" stroke-dasharray="1,2" d="M842 704l0 -637"/>
<text stroke="none" fill="white" font-size="16" x="817" y="728">
600.0
</text>
<path stroke="white" stroke-dasharray="1,2" d="M974 704l0 -637"/>
<text stroke="none" fill="white" font-size="16" x="949" y="728">
700.0
</text>
<text stroke="none" fill="white" font-size="16" x="614" y="752">
ns
</text>
<path stroke="white" stroke-dasharray="1,2" d="M50 704l924 0"/>
<text stroke="none" fill="white" font-size="16" x="8" y="712">
-3.0
</text>
<path stroke="white" stroke-dasharray="1,2" d="M50 613l924 0"/>
<text stroke="none" fill="white" font-size="16" x="8" y="621">
-2.0
</text>
<path stroke="white" stroke-dasharray="1,2" d="M50 522l924 0"/>
<text stroke="none" fill="white" font-size="16" x="8" y="530">
-1.0
</text>
<path stroke="white" d="M50 431l924 0"/>
<text stroke="none" fill="white" font-size="16" x="18" y="439">
0.0
</text>
<path stroke="white" stroke-dasharray="1,2" d="M50 340l924 0"/>
<text stroke="none" fill="white" font-size="16" x="18" y="348">
1.0
</text>
<path stroke="white" stroke-dasharray="1,2" d="M50 249l924 0"/>
<text stroke="none" fill="white" font-size="16" x="18" y="257">
2.0
</text>
<path stroke="white" stroke-dasharray="1,2" d="M50 158l924 0"/>
<text stroke="none" fill="white" font-size="16" x="18" y="166">
3.0
</text>
<path stroke="white" stroke-dasharray="1,2" d="M50 67l924 0"/>
<text stroke="none" fill="white" font-size="16" x="18" y="75">
4.0
</text>
<text stroke="none" fill="white" font-size="16" x="10" y="32">
     
</text>
<path stroke="red" d="M462 23l46 0"/>
<text stroke="none" fill="white" font-size="16" x="518" y="32">
x1.vsampled_p
</text>
<path stroke="red" d="M50 431l1 0 1 -7 0 -16 1 -14 0 -5 1 2M54 414l0 -38 1 -5 0 -13 1 -3 0 -3 1 -1 0 -1 2 0 1 -1 3 0 1 1 4 0 1 -1 48 0 0 -2 1 -12 0 -37 1 -8 0 -15 1 -3 0 -2 3 -3 416 0M539 268l0 -1M539 268l1 0M540 269l0 -1 14 0 0 -1 12 0 1 1M567 269l0 -1"/>
<path stroke="red" d="M567 268l7 0M574 289l0 -22M574 289l1 5M575 303l0 -9M575 303l1 5M576 309l0 -1M576 309l4 0 0 -1 13 0M593 310l0 -2M593 309l7 0M600 323l0 -14M600 323l1 5M601 330l0 -2M601 330l1 -1 17 0M619 330l0 -1 34 0M653 337l0 -8M653 337l1 2"/>
<path stroke="red" d="M654 340l0 -1 18 0M672 340l0 -1 7 0M679 344l0 -5M679 344l1 1 0 -1 19 0M699 345l0 -1 7 0M706 347l0 -3M706 347l52 0 1 1M759 349l0 -1 26 0M785 349l0 -1M785 349l133 0 0 -61 1 -2 0 -12 1 -2 0 -2 1 -1 0 -1 2 0 0 -1 13 0M936 269l0 -2"/>
<path stroke="red" d="M936 268l14 0 0 -1 24 0"/>
<path stroke="blue" d="M50 23l46 0"/>
<text stroke="none" fill="white" font-size="16" x="106" y="32">
x1.vsampled_n
</text>
<path stroke="blue" d="M50 431l1 0 1 -7 0 -15 1 -14 0 -4 1 1M54 414l0 -38 1 -5 0 -13 1 -3 0 -3 1 -1 0 -1 2 0 1 -1 4 0 1 1 1 0 1 -1 50 0M117 376l0 -27M117 376l1 18M118 416l0 -22M118 416l1 4M119 427l0 -7M119 427l1 1M120 429l0 -1M120 429l1 1 1 0"/>
<path stroke="blue" d="M122 431l0 -1M122 431l424 0 0 -28 1 -5 0 -19 1 -5 1 -3 0 -1 76 0 0 -13 1 -1 0 -5 1 0 1 1 5 0 0 -1M633 352l98 0 0 -4 1 0M732 350l0 -2M732 350l6 0 0 -1 1 0M739 350l0 -1M739 350l12 0 0 -1M751 350l1 0 0 -1M752 350l13 0 0 -1"/>
<path stroke="blue" d="M765 350l13 0 0 -1M778 350l13 0 0 -1M791 350l13 0 0 -1 1 1 13 0 0 -1M818 350l13 0 0 -1M831 350l7 0 0 -1 19 0M857 350l0 -1 26 0M883 350l0 -1M883 350l1 -1 26 0M910 350l0 -1 8 0M918 458l0 -109M918 451l1 -2 0 -12 1 -2 0 -1"/>
<path stroke="blue" d="M920 434l1 -1 0 -1 1 0 0 -1 52 0"/>
<path stroke="#FFA500" d="M462 39l46 0"/>
<text stroke="none" fill="white" font-size="16" x="518" y="48">
x1.vsampled_p-x1.vsampled_n
</text>
<path stroke="#FFA500" d="M50 431l2 0 0 -1 2 0M54 431l0 -1M54 431l63 0 0 -28 1 -31 0 -60 1 -11 0 -22 1 -4 0 -3 1 -2 1 -1 0 -1 2 0 0 -1 415 0M539 268l0 -1M539 268l1 0 0 -1M540 268l6 0M546 296l0 -29M546 296l1 5M547 320l0 -19M547 320l1 5 1 2M549 328l0 -1"/>
<path stroke="#FFA500" d="M549 328l1 1 4 0 0 -1M554 329l13 0M567 330l0 -1 7 0M574 351l0 -22M574 351l1 5M575 365l0 -9M575 365l1 4M576 370l0 -1M576 370l4 0 0 -1M580 370l13 0M593 371l0 -1 7 0M600 384l0 -14M600 384l1 5M601 391l0 -2M601 391l1 -1 17 0"/>
<path stroke="#FFA500" d="M619 391l0 -1 6 0M625 403l0 -13M625 403l1 1M626 409l0 -5M626 409l1 0 1 -1 25 0M653 417l0 -9M653 417l1 2 0 -1 18 0M672 419l0 -1 7 0M679 423l0 -5M679 423l1 1 0 -1 19 0M699 424l0 -1 7 0M706 426l0 -3M706 426l25 0M731 430l0 -4"/>
<path stroke="#FFA500" d="M731 430l1 0 0 -2 26 0M758 429l0 -1M758 429l1 0M759 430l0 -1 6 0M765 430l0 -1 13 0M778 430l0 -1 7 0M785 430l0 -1M785 430l27 0M812 431l0 -1 6 0M818 431l0 -1 13 0M831 431l0 -1 7 0M838 431l0 -1M838 431l19 0 0 -1M857 431l26 0"/>
<path stroke="#FFA500" d="M883 431l0 -1M883 431l27 0 0 -1M910 431l8 0 0 -162 1 0 0 -1 4 0 0 -1 13 0M936 269l0 -2M936 268l14 0 0 -1 12 0M962 268l0 -1 12 0"/>
<path stroke="green" d="M50 39l46 0"/>
<text stroke="none" fill="white" font-size="16" x="106" y="48">
x1.sw_sample-2
</text>
<path stroke="green" d="M50 613l1 0 1 -9 0 -21 1 -21M53 578l0 -22M53 578l1 32M54 613l0 -3M54 613l63 0M117 620l0 -172M117 449l422 0M539 614l0 -171M539 613l422 0M961 618l0 -170 1 1 12 0"/>
<path stroke="#FFC0C5" d="M462 55l46 0"/>
<text stroke="none" fill="white" font-size="16" x="518" y="64">
x1.comp_out_p+2
</text>
<path stroke="#FFC0C5" d="M50 249l1 0 1 -9 0 -22 1 -18 0 -4M53 198l1 5M54 249l0 -46M54 249l487 0 1 1 0 -167M542 85l13 0M555 249l0 -172M555 249l13 0 0 -165M568 85l13 0M581 86l0 -9 1 135M582 249l0 -37M582 249l12 0 0 -165M594 85l14 0M608 249l0 -174"/>
<path stroke="#FFC0C5" d="M608 249l13 0M621 250l0 -167M621 85l13 0M634 249l0 -172M634 249l13 0 0 -165M647 85l14 0M661 250l0 -170M661 249l12 0M673 250l0 -102 1 -56 0 -9M674 85l13 0M687 250l0 -173M687 249l13 0M700 251l0 -168M700 85l13 0 0 -7 1 124"/>
<path stroke="#FFC0C5" d="M714 250l0 -48M714 249l12 0M726 253l0 -132 1 -33 0 -5M727 85l13 0M740 249l0 -171M740 249l13 0M753 251l0 -168M753 85l13 0M766 249l0 -172M766 249l13 0 1 1 0 -166M780 85l13 0M793 249l0 -172M793 249l13 0 1 -141 0 -24M807 85l12 0"/>
<path stroke="#FFC0C5" d="M819 249l0 -174M819 249l14 0 0 -148 1 -17M834 85l0 -1M834 85l11 0 0 -9 1 132M846 250l0 -42M846 249l14 0 0 -165M860 85l12 0M872 250l0 -174M872 249l14 0 0 -165 1 0M887 85l0 -1M887 85l11 0M898 250l0 -174M898 249l15 0 0 -165"/>
<path stroke="#FFC0C5" d="M913 85l12 0M925 250l0 -173M925 249l12 0M937 255l0 -6M937 255l1 -137 0 -35M938 85l13 0M951 249l0 -172M951 249l23 0"/>
<path stroke="#A52A2A" d="M50 55l46 0"/>
<text stroke="none" fill="white" font-size="16" x="106" y="64">
x1.comp_out_n-2
</text>
<path stroke="#A52A2A" d="M50 613l1 0 1 -9 0 -22 1 -19M53 564l0 -3M53 564l1 6M54 614l0 -44M54 612l1 1 919 0"/>
</svg>
