<?xml version="1.0" standalone="yes"?>
<!DOCTYPE svg PUBLIC "-//W3C//DTD SVG 1.1//EN"
 "http://www.w3.org/Graphics/SVG/1.1/DTD/svg11.dtd">
<svg xmlns="http://www.w3.org/2000/svg" version="1.1"
  width="100%" height="100%" viewBox="0 0 1024 768"
  style="fill: none; font-family: Helvetica;
 font: Helvetica;
">

<!-- Creator: NGspice -->

<rect x="0" y="0" width="1024" height="768" fill="black" stroke="none"/>
<text stroke="none" fill="white" font-size="16" x="358" y="752">
time
</text>
<text stroke="none" fill="white" font-size="16" x="10" y="16">
tran1: run1696_vin0.591062
</text>
<path stroke="white" d="M50 704l0 -637"/>
<text stroke="none" fill="white" font-size="16" x="35" y="728">
0.0
</text>
<path stroke="white" stroke-dasharray="1,2" d="M182 704l0 -637"/>
<text stroke="none" fill="white" font-size="16" x="157" y="728">
100.0
</text>
<path stroke="white" stroke-dasharray="1,2" d="M314 704l0 -637"/>
<text stroke="none" fill="white" font-size="16" x="289" y="728">
200.0
</text>
<path stroke="white" stroke-dasharray="1,2" d="M446 704l0 -637"/>
<text stroke="none" fill="white" font-size="16" x="421" y="728">
300.0
</text>
<path stroke="white" stroke-dasharray="1,2" d="M578 704l0 -637"/>
<text stroke="none" fill="white" font-size="16" x="553" y="728">
400.0
</text>
<path stroke="white" stroke-dasharray="1,2" d="M710 704l0 -637"/>
<text stroke="none" fill="white" font-size="16" x="685" y="728">
500.0
</text>
<path stroke="white" stroke-dasharray="1,2" d="M842 704l0 -637"/>
<text stroke="none" fill="white" font-size="16" x="817" y="728">
600.0
</text>
<path stroke="white" stroke-dasharray="1,2" d="M974 704l0 -637"/>
<text stroke="none" fill="white" font-size="16" x="949" y="728">
700.0
</text>
<text stroke="none" fill="white" font-size="16" x="614" y="752">
ns
</text>
<path stroke="white" stroke-dasharray="1,2" d="M50 704l924 0"/>
<text stroke="none" fill="white" font-size="16" x="8" y="712">
-3.0
</text>
<path stroke="white" stroke-dasharray="1,2" d="M50 613l924 0"/>
<text stroke="none" fill="white" font-size="16" x="8" y="621">
-2.0
</text>
<path stroke="white" stroke-dasharray="1,2" d="M50 522l924 0"/>
<text stroke="none" fill="white" font-size="16" x="8" y="530">
-1.0
</text>
<path stroke="white" d="M50 431l924 0"/>
<text stroke="none" fill="white" font-size="16" x="18" y="439">
0.0
</text>
<path stroke="white" stroke-dasharray="1,2" d="M50 340l924 0"/>
<text stroke="none" fill="white" font-size="16" x="18" y="348">
1.0
</text>
<path stroke="white" stroke-dasharray="1,2" d="M50 249l924 0"/>
<text stroke="none" fill="white" font-size="16" x="18" y="257">
2.0
</text>
<path stroke="white" stroke-dasharray="1,2" d="M50 158l924 0"/>
<text stroke="none" fill="white" font-size="16" x="18" y="166">
3.0
</text>
<path stroke="white" stroke-dasharray="1,2" d="M50 67l924 0"/>
<text stroke="none" fill="white" font-size="16" x="18" y="75">
4.0
</text>
<text stroke="none" fill="white" font-size="16" x="10" y="32">
     
</text>
<path stroke="red" d="M462 23l46 0"/>
<text stroke="none" fill="white" font-size="16" x="518" y="32">
x1.vsampled_p
</text>
<path stroke="red" d="M50 431l1 0 1 -7 0 -15 1 -15 0 -4 1 1M54 414l0 -37 1 -4 0 -17 1 -2 0 -3 1 -1 2 0 1 -1 4 0M64 350l0 -1M64 350l4 0 1 -1 48 0 0 -1 1 -10 0 -23 1 -6 0 -7 1 -3 0 -2 1 -1 1 0 0 -1 417 0M539 296l0 -1M539 296l1 0M540 297l0 -1 14 0"/>
<path stroke="red" d="M554 296l0 -1 12 0 1 1M567 297l0 -1 7 0M574 315l0 -19M574 315l1 7M575 332l0 -10M575 332l1 4M576 337l0 -1M576 337l4 0 0 -1 13 0M593 337l0 -1M593 337l7 0M600 351l0 -14M600 351l1 3M601 358l0 -4M601 357l24 0 0 -8 1 -1 0 -7 1 -1"/>
<path stroke="red" d="M627 340l0 -1 26 0M653 346l0 -7M653 346l1 2M654 350l0 -2M654 350l1 -1 17 0M672 350l0 -1 27 0M699 350l0 -1 26 0M725 350l0 -1 26 0M751 350l0 -1 27 0M778 350l0 -1 26 0M804 350l0 -1 27 0M831 350l0 -1 26 0M857 350l0 -1 26 0M883 350l0 -1"/>
<path stroke="red" d="M883 349l27 0M910 350l0 -1 8 0M918 350l0 -18 1 -4 0 -21 1 -3 0 -4 1 -2 0 -1 1 0 0 -1 1 0 0 -1 1 0M924 296l0 -1 12 0M936 297l0 -2M936 296l14 0 0 -1 24 0"/>
<path stroke="blue" d="M50 23l46 0"/>
<text stroke="none" fill="white" font-size="16" x="106" y="32">
x1.vsampled_n
</text>
<path stroke="blue" d="M50 431l1 0 1 -7 0 -15 1 -14 0 -5 1 2M54 414l0 -37 1 -4 0 -17 1 -2 0 -3 1 -1 2 0 1 -1 4 0M64 350l0 -1M64 350l4 0 1 -1 48 0M117 362l0 -13M117 362l1 14M118 391l0 -15M118 391l1 3M119 399l0 -5M119 399l1 1M120 402l0 -2M120 402l1 0"/>
<path stroke="blue" d="M121 402l1 1 424 0 0 -28 1 -3 0 -20 1 -4 0 -4 2 -2 4 0 0 -1M554 342l26 0 0 -1M580 342l26 0 0 -1 1 0M607 342l0 -1M607 342l26 0 0 -1M633 342l26 0 0 -1M659 342l20 0M679 348l0 -6M679 348l1 1M680 350l0 -3 26 0M706 351l0 -4M706 351l1 0"/>
<path stroke="blue" d="M707 351l0 -2 18 0M725 350l0 -1 8 0 0 -3 1 0M734 347l0 -1M734 347l17 0M751 348l0 -1 8 0M759 350l0 -3M759 349l1 0 0 -1 18 0M778 349l0 -1 7 0 1 1M786 350l0 -1 27 0M813 350l0 -1 17 0 1 1 0 -1 87 0M918 389l0 -47M918 389l1 7"/>
<path stroke="blue" d="M919 406l0 -10M919 406l1 0 0 -1 1 -1 0 -1 53 0"/>
<path stroke="#FFA500" d="M462 39l46 0"/>
<text stroke="none" fill="white" font-size="16" x="518" y="48">
x1.vsampled_p-x1.vsampled_n
</text>
<path stroke="#FFA500" d="M50 431l2 0 1 -1 1 0M54 431l0 -1M54 431l63 0 0 -14 1 -24 0 -38 1 -9 0 -12 1 -4 0 -4 2 -2 1 0 1 -1 415 0M539 324l0 -1M539 324l1 0 0 -1M540 324l6 0M546 351l0 -28M546 351l1 4M547 375l0 -20M547 375l1 3M548 382l0 -4M548 382l1 2"/>
<path stroke="#FFA500" d="M549 384l1 1 17 0M567 386l0 -2M567 385l7 0M574 404l0 -19M574 404l1 8M575 421l0 -9M575 421l1 4M576 426l0 -1M576 426l17 0 0 -1M593 426l7 0M600 440l0 -14M600 440l1 3M601 447l0 -4M601 447l1 -1 4 0M606 447l0 -1M606 447l1 -1"/>
<path stroke="#FFA500" d="M607 446l18 0 0 -8 1 -1 0 -7 2 -2 25 0M653 435l0 -7M653 435l1 2M654 439l0 -2M654 439l1 0 0 -1 4 0M659 439l0 -1M659 439l13 0 0 -1 7 0M679 439l0 -7 1 -1M680 433l0 -3M680 433l6 0M686 434l0 -1 20 0 0 -4 1 1M707 431l0 -1"/>
<path stroke="#FFA500" d="M707 431l26 0M733 435l0 -4M733 434l1 0 0 -1 25 0 0 -3M759 432l26 0 1 -1 0 -1M786 431l27 0 0 -1M813 431l25 0M838 432l0 -1 80 0M918 435l0 -62 1 -9 0 -31 1 -3 0 -4 1 -1 0 -1 2 0 0 -1 1 0M924 324l0 -1 12 0M936 325l0 -2M936 324l14 0"/>
<path stroke="#FFA500" d="M950 324l0 -1 12 0M962 324l0 -1 12 0"/>
<path stroke="green" d="M50 39l46 0"/>
<text stroke="none" fill="white" font-size="16" x="106" y="48">
x1.sw_sample-2
</text>
<path stroke="green" d="M50 613l1 0 1 -9 0 -21 1 -21M53 580l0 -24M53 580l1 30M54 613l0 -3M54 613l63 0M117 620l0 -172M117 449l422 0M539 614l0 -171M539 613l422 0M961 618l0 -170 1 1 12 0"/>
<path stroke="#FFC0C5" d="M462 55l46 0"/>
<text stroke="none" fill="white" font-size="16" x="518" y="64">
x1.comp_out_p+2
</text>
<path stroke="#FFC0C5" d="M50 249l1 0 1 -9 0 -22 1 -18 0 -4M53 198l1 5M54 250l0 -47M54 248l1 1 486 0 1 1 0 -166M542 85l13 0M555 250l0 -174M555 249l13 0M568 251l0 -167M568 85l13 0 0 -8 1 159M582 249l0 -13M582 249l12 0M594 255l0 -172M594 84l1 1"/>
<path stroke="#FFC0C5" d="M595 85l13 0M608 250l0 -173M608 249l39 0M647 251l0 -168M647 85l14 0M661 249l0 -173M661 249l67 0 0 -151 1 -14M729 85l0 -1M729 85l11 0M740 249l0 -173M740 249l94 0 0 -165M834 85l11 0 0 -10 1 143M846 249l0 -31M846 249l91 0"/>
<path stroke="#FFC0C5" d="M937 252l0 -3M937 252l1 -137 0 -32M938 85l13 0M951 249l0 -172M951 249l23 0"/>
<path stroke="#A52A2A" d="M50 55l46 0"/>
<text stroke="none" fill="white" font-size="16" x="106" y="64">
x1.comp_out_n-2
</text>
<path stroke="#A52A2A" d="M50 613l1 0 1 -9 0 -22 1 -19M53 564l0 -3M53 564l1 6M54 614l0 -80 1 75M55 613l0 -4M55 613l566 0M621 615l0 -168M621 449l13 0M634 614l0 -173M634 613l39 0M673 615l0 -2M673 615l1 -114 0 -54M674 449l13 0M687 613l0 -172M687 613l13 0"/>
<path stroke="#A52A2A" d="M700 613l0 -165M700 449l13 0 0 -7 1 136M714 613l0 -35M714 613l39 0 0 -165M753 449l13 0M766 614l0 -174M766 614l1 -1 13 0 0 -165M780 449l13 0M793 613l0 -174M793 613l14 0 0 -164 1 -1M808 449l0 -1M808 449l11 0M819 613l0 -171"/>
<path stroke="#A52A2A" d="M819 613l41 0 0 -164 12 0M872 613l0 -174M872 613l14 0 1 -152 0 -13M887 449l11 0M898 613l0 -174M898 613l15 0 0 -165M913 449l12 0M925 613l0 -167M925 613l49 0"/>
</svg>
