<?xml version="1.0" standalone="yes"?>
<!DOCTYPE svg PUBLIC "-//W3C//DTD SVG 1.1//EN"
 "http://www.w3.org/Graphics/SVG/1.1/DTD/svg11.dtd">
<svg xmlns="http://www.w3.org/2000/svg" version="1.1"
  width="100%" height="100%" viewBox="0 0 1024 768"
  style="fill: none; font-family: Helvetica;
 font: Helvetica;
">

<!-- Creator: NGspice -->

<rect x="0" y="0" width="1024" height="768" fill="black" stroke="none"/>
<text stroke="none" fill="white" font-size="16" x="358" y="752">
time
</text>
<text stroke="none" fill="white" font-size="16" x="10" y="16">
tran1: run1590_vin0.497898
</text>
<path stroke="white" d="M50 704l0 -637"/>
<text stroke="none" fill="white" font-size="16" x="35" y="728">
0.0
</text>
<path stroke="white" stroke-dasharray="1,2" d="M182 704l0 -637"/>
<text stroke="none" fill="white" font-size="16" x="157" y="728">
100.0
</text>
<path stroke="white" stroke-dasharray="1,2" d="M314 704l0 -637"/>
<text stroke="none" fill="white" font-size="16" x="289" y="728">
200.0
</text>
<path stroke="white" stroke-dasharray="1,2" d="M446 704l0 -637"/>
<text stroke="none" fill="white" font-size="16" x="421" y="728">
300.0
</text>
<path stroke="white" stroke-dasharray="1,2" d="M578 704l0 -637"/>
<text stroke="none" fill="white" font-size="16" x="553" y="728">
400.0
</text>
<path stroke="white" stroke-dasharray="1,2" d="M710 704l0 -637"/>
<text stroke="none" fill="white" font-size="16" x="685" y="728">
500.0
</text>
<path stroke="white" stroke-dasharray="1,2" d="M842 704l0 -637"/>
<text stroke="none" fill="white" font-size="16" x="817" y="728">
600.0
</text>
<path stroke="white" stroke-dasharray="1,2" d="M974 704l0 -637"/>
<text stroke="none" fill="white" font-size="16" x="949" y="728">
700.0
</text>
<text stroke="none" fill="white" font-size="16" x="614" y="752">
ns
</text>
<path stroke="white" stroke-dasharray="1,2" d="M50 704l924 0"/>
<text stroke="none" fill="white" font-size="16" x="8" y="712">
-3.0
</text>
<path stroke="white" stroke-dasharray="1,2" d="M50 613l924 0"/>
<text stroke="none" fill="white" font-size="16" x="8" y="621">
-2.0
</text>
<path stroke="white" stroke-dasharray="1,2" d="M50 522l924 0"/>
<text stroke="none" fill="white" font-size="16" x="8" y="530">
-1.0
</text>
<path stroke="white" d="M50 431l924 0"/>
<text stroke="none" fill="white" font-size="16" x="18" y="439">
0.0
</text>
<path stroke="white" stroke-dasharray="1,2" d="M50 340l924 0"/>
<text stroke="none" fill="white" font-size="16" x="18" y="348">
1.0
</text>
<path stroke="white" stroke-dasharray="1,2" d="M50 249l924 0"/>
<text stroke="none" fill="white" font-size="16" x="18" y="257">
2.0
</text>
<path stroke="white" stroke-dasharray="1,2" d="M50 158l924 0"/>
<text stroke="none" fill="white" font-size="16" x="18" y="166">
3.0
</text>
<path stroke="white" stroke-dasharray="1,2" d="M50 67l924 0"/>
<text stroke="none" fill="white" font-size="16" x="18" y="75">
4.0
</text>
<text stroke="none" fill="white" font-size="16" x="10" y="32">
     
</text>
<path stroke="red" d="M462 23l46 0"/>
<text stroke="none" fill="white" font-size="16" x="518" y="32">
x1.vsampled_p
</text>
<path stroke="red" d="M50 431l1 0 1 -7 0 -15 1 -15 0 -4 1 1M54 414l0 -39 1 -4 0 -14 1 -2 0 -3 2 -2 1 0 1 -1 3 0 1 1 4 0 1 -1 48 0 0 -1 1 -10 0 -20 1 -5 0 -6 2 -2 0 -1 419 0M540 305l0 -1 27 0M567 305l0 -1 7 0M574 327l0 -23M574 327l1 9M575 344l0 -8"/>
<path stroke="red" d="M575 344l1 0M576 345l0 -1M576 345l103 0M679 349l0 -4M679 349l1 0M680 351l0 -2M680 350l52 0 0 -3M732 348l27 0M759 350l0 -2M759 349l54 0M813 350l0 -1 17 0 1 1 0 -1 87 0M918 350l0 -20 1 -2 0 -9 1 -3 0 -6 1 -3 0 -1 1 -1 1 0"/>
<path stroke="red" d="M923 305l0 -1 13 0M936 305l0 -1 38 0"/>
<path stroke="blue" d="M50 23l46 0"/>
<text stroke="none" fill="white" font-size="16" x="106" y="32">
x1.vsampled_n
</text>
<path stroke="blue" d="M50 431l1 0 1 -7 0 -15 1 -14 0 -5 1 2M54 415l0 -40 1 -4 0 -14 1 -2 0 -3 2 -2 1 0 1 -1 3 0 1 1 4 0 1 -1 48 0M117 359l0 -10M117 359l1 12M118 385l0 -14M118 385l1 3M119 392l0 -4M119 392l2 2 418 0M539 395l0 -1M539 395l2 0 0 -1"/>
<path stroke="blue" d="M541 395l5 0 0 -23 1 -3 0 -27 1 -1 0 -5 1 -1 0 -1 1 0 0 -1 17 0M567 334l0 -1 26 0M593 334l0 -1 7 0M600 353l0 -20M600 353l1 4M601 360l0 -3M601 358l1 -2 0 -1 1 -1 3 0 0 -1M606 354l19 0 0 -7 1 -4 0 -8 2 0 1 1 4 0 0 -1M633 336l13 0"/>
<path stroke="blue" d="M646 337l0 -1 7 0M653 347l0 -11M653 347l1 1 0 -1 1 0 0 -1 51 0M706 350l0 -4M706 350l1 0 0 -1 5 0 0 -1M712 349l13 0 0 -1M725 349l13 0 0 -1 1 0M739 349l0 -1M739 349l12 0 0 -1M751 349l1 0 0 -1M752 349l13 0 0 -1M765 349l13 0"/>
<path stroke="blue" d="M778 349l0 -1M778 349l7 0M785 350l0 -1M785 350l1 0 0 -1 18 0M804 350l0 -1 27 0M831 350l0 -1 26 0M857 350l0 -1 26 0M883 350l0 -1 27 0M910 350l0 -1 8 0M918 378l0 -30M918 378l1 2M919 392l0 -12M919 392l1 3M920 397l0 -2M920 396l1 0"/>
<path stroke="blue" d="M921 396l0 -1 2 0 0 -1M923 395l13 0 0 -1M936 395l14 0 0 -1M950 395l11 0 0 -1 13 0"/>
<path stroke="#FFA500" d="M462 39l46 0"/>
<text stroke="none" fill="white" font-size="16" x="518" y="48">
x1.vsampled_p-x1.vsampled_n
</text>
<path stroke="#FFA500" d="M50 431l2 0 1 -1 1 0M54 431l0 -1M54 431l63 0 0 -11 1 -22 0 -34 1 -8 0 -9 1 -3 1 -2 0 -1 2 0 0 -1 416 0M539 341l0 -1M539 341l1 0 0 -1M540 341l6 0M546 364l0 -24M546 364l1 2M547 393l0 -27M547 393l1 1M548 399l0 -5M548 399l1 1"/>
<path stroke="#FFA500" d="M549 401l0 -1M549 401l1 0M550 402l0 -1M550 402l17 0 0 -1M567 402l7 0M574 425l0 -23M574 425l1 9M575 441l0 -7M575 441l1 1M576 443l0 -1M576 443l17 0 0 -1M593 443l7 0 0 -20 1 -4 0 -3M601 418l1 2M602 421l0 -1M602 421l1 1"/>
<path stroke="#FFA500" d="M603 422l22 0M625 429l0 -7M625 429l1 4M626 441l0 -8M626 441l1 0 1 -1 25 0 0 -11 1 -2M654 428l0 -1M654 428l1 1M655 430l0 -1M655 430l24 0M679 433l0 -3M679 433l1 1M680 436l0 -2M680 435l26 0 0 -4 1 1 5 0M712 433l0 -1 20 0"/>
<path stroke="#FFA500" d="M732 432l0 -2 27 0M759 432l0 -2M759 432l1 0 0 -1 5 0M765 432l0 -1M765 432l1 0 0 -1 12 0M778 432l0 -1 7 0 0 -1 1 0M786 431l0 -1M786 431l27 0M813 432l0 -1 105 0M918 433l0 -50 1 -4 0 -21 1 -6 0 -8 1 -1 0 -1 1 0 0 -1 1 0"/>
<path stroke="#FFA500" d="M923 341l0 -1 13 0M936 342l0 -2M936 341l14 0 0 -1 24 0"/>
<path stroke="green" d="M50 39l46 0"/>
<text stroke="none" fill="white" font-size="16" x="106" y="48">
x1.sw_sample-2
</text>
<path stroke="green" d="M50 613l1 0 1 -9 0 -21 1 -21M53 580l0 -24M53 580l1 30M54 613l0 -3M54 613l63 0M117 620l0 -172M117 449l422 0M539 614l0 -171M539 613l422 0M961 618l0 -170 1 1 12 0"/>
<path stroke="#FFC0C5" d="M462 55l46 0"/>
<text stroke="none" fill="white" font-size="16" x="518" y="64">
x1.comp_out_p+2
</text>
<path stroke="#FFC0C5" d="M50 249l1 0 1 -9 0 -22 1 -18 0 -4M53 198l1 5M54 249l0 -46M54 249l488 0M542 250l0 -166M542 85l13 0M555 249l0 -172M555 249l13 0 0 -165M568 85l13 0 0 -8 1 154M582 249l0 -18M582 249l39 0M621 251l0 -168M621 85l13 0M634 249l0 -173"/>
<path stroke="#FFC0C5" d="M634 249l40 0 0 -166M674 85l13 0M687 249l0 -172M687 249l66 0 0 -164 1 -1M754 85l0 -1M754 85l12 0M766 250l0 -170M766 249l41 0 0 -147 1 -17 0 -1M808 85l11 0M819 249l0 -168M819 249l41 0 0 -165 1 1 11 0M872 249l0 -174M872 249l14 0"/>
<path stroke="#FFC0C5" d="M886 249l0 -157 1 -8M887 85l0 -1M887 85l11 0M898 249l0 -174M898 249l15 0 0 -165M913 85l12 0M925 249l0 -172M925 249l12 0 1 -44 0 -121M938 85l13 0M951 249l0 -172M951 249l23 0"/>
<path stroke="#A52A2A" d="M50 55l46 0"/>
<text stroke="none" fill="white" font-size="16" x="106" y="64">
x1.comp_out_n-2
</text>
<path stroke="#A52A2A" d="M50 613l1 0 1 -9 0 -22 1 -19M53 564l0 -3M53 564l1 6M54 614l0 -44M54 612l1 1 539 0M594 614l0 -167M594 449l14 0M608 613l0 -173M608 613l13 0M621 614l0 -1 26 0 0 -166M647 449l14 0M661 613l0 -173M661 613l39 0 0 -165M700 449l13 0"/>
<path stroke="#A52A2A" d="M713 449l0 -9 1 165M714 613l0 -8M714 613l13 0 0 -165M727 449l13 0M740 613l0 -167M740 613l40 0 0 -165M780 449l13 0M793 613l0 -167M793 613l41 0 0 -164 11 0 0 -2M845 448l1 154M846 613l0 -11M846 613l128 0"/>
</svg>
