<?xml version="1.0" standalone="yes"?>
<!DOCTYPE svg PUBLIC "-//W3C//DTD SVG 1.1//EN"
 "http://www.w3.org/Graphics/SVG/1.1/DTD/svg11.dtd">
<svg xmlns="http://www.w3.org/2000/svg" version="1.1"
  width="100%" height="100%" viewBox="0 0 1024 768"
  style="fill: none; font-family: Helvetica;
 font: Helvetica;
">

<!-- Creator: NGspice -->

<rect x="0" y="0" width="1024" height="768" fill="black" stroke="none"/>
<text stroke="none" fill="white" font-size="16" x="358" y="752">
time
</text>
<text stroke="none" fill="white" font-size="16" x="10" y="16">
tran1: run1787_vin0.671043
</text>
<path stroke="white" d="M50 704l0 -637"/>
<text stroke="none" fill="white" font-size="16" x="35" y="728">
0.0
</text>
<path stroke="white" stroke-dasharray="1,2" d="M182 704l0 -637"/>
<text stroke="none" fill="white" font-size="16" x="157" y="728">
100.0
</text>
<path stroke="white" stroke-dasharray="1,2" d="M314 704l0 -637"/>
<text stroke="none" fill="white" font-size="16" x="289" y="728">
200.0
</text>
<path stroke="white" stroke-dasharray="1,2" d="M446 704l0 -637"/>
<text stroke="none" fill="white" font-size="16" x="421" y="728">
300.0
</text>
<path stroke="white" stroke-dasharray="1,2" d="M578 704l0 -637"/>
<text stroke="none" fill="white" font-size="16" x="553" y="728">
400.0
</text>
<path stroke="white" stroke-dasharray="1,2" d="M710 704l0 -637"/>
<text stroke="none" fill="white" font-size="16" x="685" y="728">
500.0
</text>
<path stroke="white" stroke-dasharray="1,2" d="M842 704l0 -637"/>
<text stroke="none" fill="white" font-size="16" x="817" y="728">
600.0
</text>
<path stroke="white" stroke-dasharray="1,2" d="M974 704l0 -637"/>
<text stroke="none" fill="white" font-size="16" x="949" y="728">
700.0
</text>
<text stroke="none" fill="white" font-size="16" x="614" y="752">
ns
</text>
<path stroke="white" stroke-dasharray="1,2" d="M50 704l924 0"/>
<text stroke="none" fill="white" font-size="16" x="8" y="712">
-3.0
</text>
<path stroke="white" stroke-dasharray="1,2" d="M50 613l924 0"/>
<text stroke="none" fill="white" font-size="16" x="8" y="621">
-2.0
</text>
<path stroke="white" stroke-dasharray="1,2" d="M50 522l924 0"/>
<text stroke="none" fill="white" font-size="16" x="8" y="530">
-1.0
</text>
<path stroke="white" d="M50 431l924 0"/>
<text stroke="none" fill="white" font-size="16" x="18" y="439">
0.0
</text>
<path stroke="white" stroke-dasharray="1,2" d="M50 340l924 0"/>
<text stroke="none" fill="white" font-size="16" x="18" y="348">
1.0
</text>
<path stroke="white" stroke-dasharray="1,2" d="M50 249l924 0"/>
<text stroke="none" fill="white" font-size="16" x="18" y="257">
2.0
</text>
<path stroke="white" stroke-dasharray="1,2" d="M50 158l924 0"/>
<text stroke="none" fill="white" font-size="16" x="18" y="166">
3.0
</text>
<path stroke="white" stroke-dasharray="1,2" d="M50 67l924 0"/>
<text stroke="none" fill="white" font-size="16" x="18" y="75">
4.0
</text>
<text stroke="none" fill="white" font-size="16" x="10" y="32">
     
</text>
<path stroke="red" d="M462 23l46 0"/>
<text stroke="none" fill="white" font-size="16" x="518" y="32">
x1.vsampled_p
</text>
<path stroke="red" d="M50 431l1 0 1 -7 0 -15 1 -15 0 -5 1 2M54 414l0 -37 1 -4 0 -17 1 -2 0 -2 1 -2 2 0 1 -1 4 0M64 350l0 -1M64 350l4 0 1 -1 48 0 0 -1 1 -11 0 -32 1 -4 0 -8 2 -4 1 -1 418 0M540 289l0 -1 26 0 1 1M567 290l0 -2 7 0M574 308l0 -20M574 308l1 7"/>
<path stroke="red" d="M575 324l0 -9M575 324l1 5 17 0M593 330l0 -1 7 0M600 343l0 -14M600 343l1 3M601 351l0 -5M601 350l5 0 0 -1M606 350l20 0 0 -7 1 -1 0 -9 1 0 0 -1 5 0 0 -1M633 332l20 0M653 341l0 -9M653 341l1 1 25 0M679 346l0 -4M679 346l1 1M680 348l0 -1"/>
<path stroke="red" d="M680 347l26 0M706 350l0 -3M706 350l6 0 0 -1M712 350l20 0 0 -3 19 0M751 348l0 -1M751 348l1 -1 7 0M759 349l0 -2M759 349l6 0 0 -1M765 349l21 0M786 350l0 -1 18 0M804 350l0 -1 27 0M831 350l0 -1 26 0M857 350l0 -1 26 0M883 350l0 -1"/>
<path stroke="red" d="M883 349l27 0M910 350l0 -1 8 0M918 350l0 -35 1 -5 0 -13 1 -2 0 -4 1 -1 0 -1 2 0 0 -1 13 0M936 290l0 -2 38 0"/>
<path stroke="blue" d="M50 23l46 0"/>
<text stroke="none" fill="white" font-size="16" x="106" y="32">
x1.vsampled_n
</text>
<path stroke="blue" d="M50 431l1 0 1 -7 0 -15 1 -14 0 -5 1 2M54 414l0 -37 1 -4 0 -17 1 -2 0 -2 1 -2 2 0 1 -1 4 0M64 350l0 -1M64 350l4 0 1 -1 48 0M117 365l0 -16M117 365l1 15M118 400l0 -20M118 400l1 3M119 407l0 -4M119 407l2 2M121 410l0 -1M121 410l419 0"/>
<path stroke="blue" d="M540 411l0 -1 6 0 0 -21 1 -3 0 -25 1 -7 0 -3 2 -2 17 0M567 350l0 -1 245 0M812 350l0 -1M812 350l1 0 0 -1 17 0 1 1 0 -1 8 0 0 -1M839 349l79 0M918 407l0 -60M918 407l1 5M919 415l0 -3M919 414l1 0 0 -2 1 -1 1 0 0 -1 52 0"/>
<path stroke="#FFA500" d="M462 39l46 0"/>
<text stroke="none" fill="white" font-size="16" x="518" y="48">
x1.vsampled_p-x1.vsampled_n
</text>
<path stroke="#FFA500" d="M50 431l2 0 0 -1 2 0M54 431l0 -1M54 431l63 0 0 -17 1 -26 0 -52 1 -7 0 -12 1 -4 1 -2 0 -1 1 -1 418 0M540 310l0 -1 6 0M546 331l0 -22M546 331l1 2M547 358l0 -25M547 358l1 7M548 368l0 -3M548 368l2 2 16 0 1 1 0 -1 7 0M574 390l0 -20"/>
<path stroke="#FFA500" d="M574 390l1 7M575 406l0 -9M575 406l1 5 17 0M593 412l0 -1 7 0M600 425l0 -14M600 425l1 3M601 433l0 -5M601 432l18 0 0 -1M619 432l7 0 0 -7 1 -1 0 -9 1 0 0 -1 18 0 0 -1M646 414l7 0M653 423l0 -9M653 423l1 1 25 0M679 428l0 -4"/>
<path stroke="#FFA500" d="M679 428l1 1M680 430l0 -1 26 0M706 432l0 -3M706 432l19 0 0 -1M725 432l7 0 0 -3 27 0M759 431l0 -2M759 431l27 0M786 432l0 -1 26 0 0 -1 1 0M813 431l0 -1M813 431l26 0M839 432l0 -1M839 432l1 0 0 -1 78 0M918 432l0 -92 1 -10"/>
<path stroke="#FFA500" d="M919 330l0 -16 1 -2 0 -2 1 0 0 -1 15 0M936 310l0 -1 38 0"/>
<path stroke="green" d="M50 39l46 0"/>
<text stroke="none" fill="white" font-size="16" x="106" y="48">
x1.sw_sample-2
</text>
<path stroke="green" d="M50 613l1 0 1 -9 0 -21 1 -21M53 579l0 -23M53 579l1 31M54 613l0 -3M54 613l63 0M117 620l0 -172M117 449l422 0M539 614l0 -171M539 613l422 0M961 618l0 -170 1 1 12 0"/>
<path stroke="#FFC0C5" d="M462 55l46 0"/>
<text stroke="none" fill="white" font-size="16" x="518" y="64">
x1.comp_out_p+2
</text>
<path stroke="#FFC0C5" d="M50 249l1 0 1 -9 0 -22 1 -18 0 -4M53 198l1 5M54 249l0 -46M54 248l1 1 486 0 1 2 0 -167M542 85l13 0M555 249l0 -172M555 249l13 0M568 253l0 -169M568 85l13 0 0 -8 1 154M582 249l0 -18M582 249l12 0M594 253l0 -170M594 84l1 1"/>
<path stroke="#FFC0C5" d="M595 85l13 0M608 249l0 -166M608 249l39 0M647 250l0 -166M647 85l14 0M661 249l0 -172M661 249l12 0M673 251l0 -2M673 251l1 -108 0 -60M674 85l13 0M687 250l0 -171M687 249l13 0M700 250l0 -166M700 85l13 0 0 -2 1 151M714 249l0 -15"/>
<path stroke="#FFC0C5" d="M714 249l39 0 0 -165M753 85l13 0M766 249l0 -166M766 249l14 0 0 -164 1 -1M781 85l0 -1M781 85l12 0M793 249l0 -174M793 249l42 0 0 -165 1 1 9 0 0 -7 1 141M846 249l0 -30M846 249l91 0 1 -44 0 -121M938 85l13 0M951 250l0 -171"/>
<path stroke="#FFC0C5" d="M951 249l23 0"/>
<path stroke="#A52A2A" d="M50 55l46 0"/>
<text stroke="none" fill="white" font-size="16" x="106" y="64">
x1.comp_out_n-2
</text>
<path stroke="#A52A2A" d="M50 613l1 0 1 -9 0 -22 1 -19M53 564l0 -3M53 564l1 6M54 614l0 -51M54 589l1 23M55 613l0 -1M55 613l487 0M542 614l0 -1 80 0 0 -165M622 449l12 0M634 613l0 -173M634 613l13 0M647 614l0 -1 80 0 1 -158 0 -7M728 449l12 0M740 613l0 -171"/>
<path stroke="#A52A2A" d="M740 613l67 0 0 -164 12 0M819 613l0 -172M819 613l40 0 1 -158 0 -7M860 449l12 0M872 613l0 -174M872 613l14 0 0 -164 1 -1M887 449l0 -1M887 449l11 0M898 613l0 -174M898 613l15 0 0 -165M913 449l12 0M925 613l0 -173M925 613l49 0"/>
</svg>
