<?xml version="1.0" standalone="yes"?>
<!DOCTYPE svg PUBLIC "-//W3C//DTD SVG 1.1//EN"
 "http://www.w3.org/Graphics/SVG/1.1/DTD/svg11.dtd">
<svg xmlns="http://www.w3.org/2000/svg" version="1.1"
  width="100%" height="100%" viewBox="0 0 1024 768"
  style="fill: none; font-family: Helvetica;
 font: Helvetica;
">

<!-- Creator: NGspice -->

<rect x="0" y="0" width="1024" height="768" fill="black" stroke="none"/>
<text stroke="none" fill="white" font-size="16" x="358" y="752">
time
</text>
<text stroke="none" fill="white" font-size="16" x="10" y="16">
tran1: run1642_vin0.543601
</text>
<path stroke="white" d="M50 704l0 -637"/>
<text stroke="none" fill="white" font-size="16" x="35" y="728">
0.0
</text>
<path stroke="white" stroke-dasharray="1,2" d="M182 704l0 -637"/>
<text stroke="none" fill="white" font-size="16" x="157" y="728">
100.0
</text>
<path stroke="white" stroke-dasharray="1,2" d="M314 704l0 -637"/>
<text stroke="none" fill="white" font-size="16" x="289" y="728">
200.0
</text>
<path stroke="white" stroke-dasharray="1,2" d="M446 704l0 -637"/>
<text stroke="none" fill="white" font-size="16" x="421" y="728">
300.0
</text>
<path stroke="white" stroke-dasharray="1,2" d="M578 704l0 -637"/>
<text stroke="none" fill="white" font-size="16" x="553" y="728">
400.0
</text>
<path stroke="white" stroke-dasharray="1,2" d="M710 704l0 -637"/>
<text stroke="none" fill="white" font-size="16" x="685" y="728">
500.0
</text>
<path stroke="white" stroke-dasharray="1,2" d="M842 704l0 -637"/>
<text stroke="none" fill="white" font-size="16" x="817" y="728">
600.0
</text>
<path stroke="white" stroke-dasharray="1,2" d="M974 704l0 -637"/>
<text stroke="none" fill="white" font-size="16" x="949" y="728">
700.0
</text>
<text stroke="none" fill="white" font-size="16" x="614" y="752">
ns
</text>
<path stroke="white" stroke-dasharray="1,2" d="M50 704l924 0"/>
<text stroke="none" fill="white" font-size="16" x="8" y="712">
-3.0
</text>
<path stroke="white" stroke-dasharray="1,2" d="M50 613l924 0"/>
<text stroke="none" fill="white" font-size="16" x="8" y="621">
-2.0
</text>
<path stroke="white" stroke-dasharray="1,2" d="M50 522l924 0"/>
<text stroke="none" fill="white" font-size="16" x="8" y="530">
-1.0
</text>
<path stroke="white" d="M50 431l924 0"/>
<text stroke="none" fill="white" font-size="16" x="18" y="439">
0.0
</text>
<path stroke="white" stroke-dasharray="1,2" d="M50 340l924 0"/>
<text stroke="none" fill="white" font-size="16" x="18" y="348">
1.0
</text>
<path stroke="white" stroke-dasharray="1,2" d="M50 249l924 0"/>
<text stroke="none" fill="white" font-size="16" x="18" y="257">
2.0
</text>
<path stroke="white" stroke-dasharray="1,2" d="M50 158l924 0"/>
<text stroke="none" fill="white" font-size="16" x="18" y="166">
3.0
</text>
<path stroke="white" stroke-dasharray="1,2" d="M50 67l924 0"/>
<text stroke="none" fill="white" font-size="16" x="18" y="75">
4.0
</text>
<text stroke="none" fill="white" font-size="16" x="10" y="32">
     
</text>
<path stroke="red" d="M462 23l46 0"/>
<text stroke="none" fill="white" font-size="16" x="518" y="32">
x1.vsampled_p
</text>
<path stroke="red" d="M50 431l1 0 1 -7 0 -15 1 -15 0 -4 1 1M54 414l0 -37 1 -3 0 -17 1 -3 0 -2 2 -2 1 0 1 -1 4 0M64 350l0 -1M64 350l4 0 1 -1 48 0 0 -1 1 -10 0 -21 1 -5 0 -7 1 -2 0 -2 1 -1 419 0M540 301l0 -1 14 0 0 -1M554 300l13 0M567 301l0 -1"/>
<path stroke="red" d="M567 300l7 0M574 323l0 -23M574 323l1 8M575 339l0 -8M575 339l1 1M576 341l0 -1M576 341l4 0 0 -1M580 341l26 0 0 -1 1 1 26 0 0 -1M633 341l26 0 0 -1M659 341l20 0M679 346l0 -5M679 346l1 1 0 -1 26 0M706 349l0 -3M706 349l1 0 0 -1"/>
<path stroke="red" d="M707 348l18 0M725 349l0 -1 26 0M751 349l0 -1M751 349l1 0 0 -1 26 0M778 349l0 -1 7 0M785 349l0 -1M785 349l1 0M786 350l0 -1 26 0M812 350l0 -1M812 350l1 -1 17 0 1 1 0 -1 86 0M917 350l0 -5 1 -6 0 -21 1 -2 0 -9 1 -3 0 -2 1 -1"/>
<path stroke="red" d="M921 301l1 0 0 -1 1 0 0 -1M923 300l13 0M936 301l0 -1 14 0 0 -1M950 300l24 0"/>
<path stroke="blue" d="M50 23l46 0"/>
<text stroke="none" fill="white" font-size="16" x="106" y="32">
x1.vsampled_n
</text>
<path stroke="blue" d="M50 431l1 0 1 -7 0 -15 1 -14 0 -5 1 2M54 415l0 -38 1 -3 0 -17 1 -3 0 -2 2 -2 1 0 1 -1 4 0M64 350l0 -1M64 350l4 0 1 -1 48 0M117 360l0 -11M117 360l1 13M118 387l0 -14M118 387l1 4M119 395l0 -4M119 395l1 1M120 397l0 -1M120 397l1 1"/>
<path stroke="blue" d="M121 398l1 0 1 1 418 0 0 -1M541 399l5 0 0 -22 1 -2 0 -25 1 -4 0 -6 2 -2 1 0 0 -1 15 0 1 1 0 -1 26 0M593 338l0 -1 7 0M600 357l0 -20M600 357l1 2M601 364l0 -5M601 362l1 -2 0 -2 23 0 0 -12 1 -1 0 -6 1 0 1 1 5 0 0 -1M633 340l13 0"/>
<path stroke="blue" d="M646 341l0 -1 7 0M653 352l0 -12M653 352l1 1 0 -2 1 0 0 -1 17 0M672 351l0 -1 27 0M699 351l0 -1 26 0M725 351l0 -1 7 0 0 -3M732 348l27 0M759 351l0 -3M759 349l19 0M778 350l0 -1 26 0M804 350l0 -1 27 0M831 350l0 -1 26 0M857 350l0 -1"/>
<path stroke="blue" d="M857 349l26 0M883 350l0 -1 27 0M910 350l0 -1 7 0M917 353l0 -4M917 353l1 5M918 392l0 -34M918 392l1 3M919 401l0 -6M919 401l2 -2 41 0 0 -1M962 399l12 0"/>
<path stroke="#FFA500" d="M462 39l46 0"/>
<text stroke="none" fill="white" font-size="16" x="518" y="48">
x1.vsampled_p-x1.vsampled_n
</text>
<path stroke="#FFA500" d="M50 431l2 0 1 -1 1 0M54 431l0 -1M54 431l63 0 0 -12 1 -23 0 -36 1 -8 0 -11 1 -3 0 -3 1 -2 1 0 0 -1 418 0M540 333l0 -1 6 0M546 353l0 -21M546 353l1 3M547 381l0 -25M547 381l1 4M548 391l0 -6M548 391l2 2 1 0M551 394l0 -1M551 394l3 0"/>
<path stroke="#FFA500" d="M554 394l0 -1 12 0 1 1 0 -1M567 394l7 0M574 416l0 -22M574 416l1 9M575 433l0 -8M575 433l1 1 4 0M580 435l0 -1 20 0 0 -19 1 -3 0 -4M601 409l1 3M602 414l0 -2M602 414l23 0M625 425l0 -11M625 425l1 2M626 433l0 -6M626 433l1 0"/>
<path stroke="#FFA500" d="M627 433l1 -1 25 0 0 -12 1 -1M654 421l0 -2M654 421l1 0M655 422l0 -1M655 422l4 0 0 -1M659 422l13 0 0 -1M672 422l7 0M679 427l0 -5M679 427l1 0M680 428l0 -1 19 0 0 -1M699 427l7 0M706 430l0 -3M706 430l1 -1 24 0 1 1M732 433l0 -3"/>
<path stroke="#FFA500" d="M732 432l1 0 1 -1 4 0M738 432l0 -1M738 432l1 0 0 -1 12 0M751 432l0 -1 1 0M752 432l0 -1 7 0M759 432l0 -3M759 430l26 0 1 1 26 0M812 432l0 -1 105 0M917 432l0 -10 1 -11 0 -55 1 -5 0 -13 1 -3 0 -1 1 -1 1 0 0 -1 14 0M936 333l0 -1"/>
<path stroke="#FFA500" d="M936 332l38 0"/>
<path stroke="green" d="M50 39l46 0"/>
<text stroke="none" fill="white" font-size="16" x="106" y="48">
x1.sw_sample-2
</text>
<path stroke="green" d="M50 613l1 0 1 -9 0 -21 1 -21M53 580l0 -24M53 580l1 30M54 613l0 -3M54 613l63 0M117 620l0 -172M117 449l422 0M539 614l0 -171M539 613l422 0M961 618l0 -170 1 1 12 0"/>
<path stroke="#FFC0C5" d="M462 55l46 0"/>
<text stroke="none" fill="white" font-size="16" x="518" y="64">
x1.comp_out_p+2
</text>
<path stroke="#FFC0C5" d="M50 249l1 0 1 -9 0 -22 1 -18 0 -4M53 198l1 5M54 251l0 -48M54 248l1 0M55 249l0 -1M55 249l487 0 0 -165M542 85l13 0M555 250l0 -167M555 249l13 0M568 251l0 -167M568 85l13 0 0 -7 1 138M582 249l0 -33M582 249l39 0M621 253l0 -170"/>
<path stroke="#FFC0C5" d="M621 85l13 0M634 249l0 -172M634 249l39 0 0 -34 1 -111 0 -20M674 85l13 0M687 249l0 -171M687 249l13 0M700 254l0 -171M700 85l13 0 0 -8 1 162M714 250l0 -11M714 249l13 0 0 -165M727 85l13 0M740 250l0 -173M740 249l40 0 0 -165"/>
<path stroke="#FFC0C5" d="M780 85l13 0M793 249l0 -174M793 249l14 0 0 -165 1 1 11 0M819 249l0 -168M819 249l41 0 0 -165M860 85l12 0M872 249l0 -174M872 249l14 0 0 -157 1 -8M887 85l0 -1M887 85l11 0M898 249l0 -174M898 249l14 0 1 -157 0 -8M913 85l12 0"/>
<path stroke="#FFC0C5" d="M925 249l0 -172M925 249l12 0 1 -16 0 -150M938 85l13 0M951 250l0 -171M951 249l23 0"/>
<path stroke="#A52A2A" d="M50 55l46 0"/>
<text stroke="none" fill="white" font-size="16" x="106" y="64">
x1.comp_out_n-2
</text>
<path stroke="#A52A2A" d="M50 613l1 0 1 -9 0 -22 1 -19M53 564l0 -3M53 564l1 6M54 614l0 -104 1 97M55 613l0 -6M55 613l513 0M568 614l0 -1 26 0M594 619l0 -172M594 449l14 0M608 614l0 -171M608 613l39 0 0 -166M647 449l14 0M661 614l0 -173M661 613l92 0"/>
<path stroke="#A52A2A" d="M753 613l0 -165 1 0M754 449l0 -1M754 449l12 0M766 613l0 -172M766 613l68 0 0 -164 11 0 0 -2M845 448l1 154M846 613l0 -11M846 613l128 0"/>
</svg>
