<?xml version="1.0" standalone="yes"?>
<!DOCTYPE svg PUBLIC "-//W3C//DTD SVG 1.1//EN"
 "http://www.w3.org/Graphics/SVG/1.1/DTD/svg11.dtd">
<svg xmlns="http://www.w3.org/2000/svg" version="1.1"
  width="100%" height="100%" viewBox="0 0 1024 768"
  style="fill: none; font-family: Helvetica;
 font: Helvetica;
">

<!-- Creator: NGspice -->

<rect x="0" y="0" width="1024" height="768" fill="black" stroke="none"/>
<text stroke="none" fill="white" font-size="16" x="358" y="752">
time
</text>
<text stroke="none" fill="white" font-size="16" x="10" y="16">
tran1: run1641_vin0.542723
</text>
<path stroke="white" d="M50 704l0 -637"/>
<text stroke="none" fill="white" font-size="16" x="35" y="728">
0.0
</text>
<path stroke="white" stroke-dasharray="1,2" d="M182 704l0 -637"/>
<text stroke="none" fill="white" font-size="16" x="157" y="728">
100.0
</text>
<path stroke="white" stroke-dasharray="1,2" d="M314 704l0 -637"/>
<text stroke="none" fill="white" font-size="16" x="289" y="728">
200.0
</text>
<path stroke="white" stroke-dasharray="1,2" d="M446 704l0 -637"/>
<text stroke="none" fill="white" font-size="16" x="421" y="728">
300.0
</text>
<path stroke="white" stroke-dasharray="1,2" d="M578 704l0 -637"/>
<text stroke="none" fill="white" font-size="16" x="553" y="728">
400.0
</text>
<path stroke="white" stroke-dasharray="1,2" d="M710 704l0 -637"/>
<text stroke="none" fill="white" font-size="16" x="685" y="728">
500.0
</text>
<path stroke="white" stroke-dasharray="1,2" d="M842 704l0 -637"/>
<text stroke="none" fill="white" font-size="16" x="817" y="728">
600.0
</text>
<path stroke="white" stroke-dasharray="1,2" d="M974 704l0 -637"/>
<text stroke="none" fill="white" font-size="16" x="949" y="728">
700.0
</text>
<text stroke="none" fill="white" font-size="16" x="614" y="752">
ns
</text>
<path stroke="white" stroke-dasharray="1,2" d="M50 704l924 0"/>
<text stroke="none" fill="white" font-size="16" x="8" y="712">
-2.5
</text>
<path stroke="white" stroke-dasharray="1,2" d="M50 655l924 0"/>
<text stroke="none" fill="white" font-size="16" x="8" y="663">
-2.0
</text>
<path stroke="white" stroke-dasharray="1,2" d="M50 606l924 0"/>
<text stroke="none" fill="white" font-size="16" x="8" y="614">
-1.5
</text>
<path stroke="white" stroke-dasharray="1,2" d="M50 557l924 0"/>
<text stroke="none" fill="white" font-size="16" x="8" y="565">
-1.0
</text>
<path stroke="white" stroke-dasharray="1,2" d="M50 508l924 0"/>
<text stroke="none" fill="white" font-size="16" x="8" y="516">
-0.5
</text>
<path stroke="white" d="M50 459l924 0"/>
<text stroke="none" fill="white" font-size="16" x="18" y="467">
0.0
</text>
<path stroke="white" stroke-dasharray="1,2" d="M50 410l924 0"/>
<text stroke="none" fill="white" font-size="16" x="18" y="418">
0.5
</text>
<path stroke="white" stroke-dasharray="1,2" d="M50 361l924 0"/>
<text stroke="none" fill="white" font-size="16" x="18" y="369">
1.0
</text>
<path stroke="white" stroke-dasharray="1,2" d="M50 312l924 0"/>
<text stroke="none" fill="white" font-size="16" x="18" y="320">
1.5
</text>
<path stroke="white" stroke-dasharray="1,2" d="M50 263l924 0"/>
<text stroke="none" fill="white" font-size="16" x="18" y="271">
2.0
</text>
<path stroke="white" stroke-dasharray="1,2" d="M50 214l924 0"/>
<text stroke="none" fill="white" font-size="16" x="18" y="222">
2.5
</text>
<path stroke="white" stroke-dasharray="1,2" d="M50 165l924 0"/>
<text stroke="none" fill="white" font-size="16" x="18" y="173">
3.0
</text>
<path stroke="white" stroke-dasharray="1,2" d="M50 116l924 0"/>
<text stroke="none" fill="white" font-size="16" x="18" y="124">
3.5
</text>
<path stroke="white" stroke-dasharray="1,2" d="M50 67l924 0"/>
<text stroke="none" fill="white" font-size="16" x="18" y="75">
4.0
</text>
<text stroke="none" fill="white" font-size="16" x="10" y="32">
     
</text>
<path stroke="red" d="M462 23l46 0"/>
<text stroke="none" fill="white" font-size="16" x="518" y="32">
x1.vsampled_p
</text>
<path stroke="red" d="M50 459l1 0 1 -7 0 -17 1 -16 0 -5 1 2M54 441l0 -40 1 -4 0 -18 1 -3 0 -2 1 -2 1 0 0 -1 59 0 0 -1 1 -11 0 -23 1 -5 0 -7 1 -3 0 -2 1 -1 419 0M540 319l0 -1 14 0 0 -1M554 318l13 0M567 319l0 -1 7 0M574 345l0 -27M574 345l1 9 1 7"/>
<path stroke="red" d="M576 362l0 -1M576 362l103 0M679 366l0 -4M679 366l1 1M680 369l0 -2 18 0 1 1 0 -1 6 0 1 1M706 371l0 -3M706 370l19 0M725 371l0 -1 61 0M786 371l0 -1M786 371l132 0 0 -22 1 -2 0 -12 1 -3 0 -6 1 -3 0 -3 1 0 0 -1 1 0 0 -1 13 0M936 319l0 -1"/>
<path stroke="red" d="M936 318l14 0 0 -1M950 318l24 0"/>
<path stroke="blue" d="M50 23l46 0"/>
<text stroke="none" fill="white" font-size="16" x="106" y="32">
x1.vsampled_n
</text>
<path stroke="blue" d="M50 459l1 0 1 -7 0 -17 1 -15 0 -5 1 2M54 441l0 -40 1 -4 0 -18 1 -3 0 -2 1 -2 1 0 0 -1 59 0M117 383l0 -12M117 383l1 14M118 412l0 -15M118 412l1 3M119 420l0 -5M119 420l1 2M120 423l0 -1M120 423l1 0 1 1 424 0 0 -28 1 -3 0 -23"/>
<path stroke="blue" d="M547 370l1 -4 0 -6 1 0 0 -1 1 0 0 -1 4 0 0 -1M554 358l13 0M567 359l0 -1 26 0M593 359l0 -1 7 0M600 379l0 -21M600 379l1 3M601 387l0 -5M601 385l1 -2 0 -3 23 0 0 -12 1 -1 0 -7 1 0 1 1 5 0 0 -1M633 361l20 0M653 372l0 -11M653 372l1 2"/>
<path stroke="blue" d="M654 375l0 -1 1 -1 0 -1 77 0 0 -4M732 369l19 0M751 370l0 -1M751 370l1 0 0 -1 7 0M759 372l0 -3M759 371l55 0M814 372l0 -1 17 0M831 372l0 -1 7 0 0 -1M838 371l80 0M918 404l0 -33M918 404l1 4M919 421l0 -13M919 421l1 3M920 426l0 -2"/>
<path stroke="blue" d="M920 426l1 0 0 -1 1 0 0 -1 52 0"/>
<path stroke="#FFA500" d="M462 39l46 0"/>
<text stroke="none" fill="white" font-size="16" x="518" y="48">
x1.vsampled_p-x1.vsampled_n
</text>
<path stroke="#FFA500" d="M50 459l2 0 1 -1 1 0M54 459l0 -1M54 459l63 0 0 -13 1 -25 0 -38 1 -9 0 -12 1 -3 0 -4 2 -2 424 0M546 381l0 -28M546 381l1 3M547 407l0 -23M547 407l1 4M548 417l0 -6M548 417l1 0M549 418l0 -1M549 418l1 0M550 419l0 -1M550 419l17 0"/>
<path stroke="#FFA500" d="M567 420l0 -2M567 419l7 0M574 445l0 -26M574 445l1 10 1 7M576 463l0 -1M576 463l17 0 0 -1M593 463l7 0 0 -21 1 -3 0 -5M601 436l1 2M602 441l0 -3M602 441l23 0M625 453l0 -12M625 453l1 1M626 461l0 -7M626 461l1 0 1 -1 25 0 0 -11"/>
<path stroke="#FFA500" d="M653 449l1 -2 0 -1M654 447l1 1M655 449l0 -1M655 449l24 0M679 453l0 -4M679 453l1 1M680 456l0 -2M680 455l19 0 0 -1M699 455l7 0M706 458l0 -3M706 457l26 0M732 461l0 -4M732 460l27 0 0 -3M759 458l27 0M786 459l0 -1M786 459l28 0"/>
<path stroke="#FFA500" d="M814 459l0 -1M814 459l24 0M838 460l0 -1 80 0 0 -56 1 -5 0 -25 1 -6 0 -9 1 -2 0 -2 1 0 0 -1 1 0 0 -1M923 353l13 0M936 354l0 -1 14 0 0 -1M950 353l24 0"/>
<path stroke="green" d="M50 39l46 0"/>
<text stroke="none" fill="white" font-size="16" x="106" y="48">
x1.sw_sample-2
</text>
<path stroke="green" d="M50 655l1 0 1 -10 0 -23 1 -21M53 619l0 -25M53 619l1 33M54 655l0 -3M54 655l63 0M117 662l0 -184 1 0M118 479l0 -1M118 479l421 0M539 656l0 -184M539 655l422 0M961 660l0 -182 1 0M962 479l0 -1M962 479l12 0"/>
<path stroke="#FFC0C5" d="M462 55l46 0"/>
<text stroke="none" fill="white" font-size="16" x="518" y="64">
x1.comp_out_p+2
</text>
<path stroke="#FFC0C5" d="M50 263l1 0 1 -10 0 -23 1 -20 0 -4M53 209l1 4M54 265l0 -52M54 262l1 0M55 263l0 -1M55 263l486 0 1 1 0 -179M542 87l13 0M555 264l0 -180M555 263l13 0M568 266l0 -181M568 87l13 0 0 -8 1 144M582 264l0 -41M582 263l39 0M621 270l0 -185"/>
<path stroke="#FFC0C5" d="M621 87l13 0M634 264l0 -187M634 263l39 0M673 265l0 -2M673 265l1 -103 0 -77M674 87l13 0M687 263l0 -185M687 263l13 0M700 266l0 -181M700 87l13 0 0 -10 1 174M714 264l0 -13M714 263l13 0M727 264l0 -178M727 87l13 0M740 264l0 -187"/>
<path stroke="#FFC0C5" d="M740 263l40 0 0 -178M780 86l1 1 12 0M793 263l0 -185M793 263l40 0 1 -162 0 -15M834 87l11 0 0 -9 1 159M846 263l0 -26M846 263l41 0 0 -177 1 0M888 87l0 -1M888 87l10 0M898 263l0 -185M898 263l39 0M937 269l0 -6M937 269l1 -149"/>
<path stroke="#FFC0C5" d="M938 120l0 -35M938 87l13 0M951 264l0 -184M951 263l23 0"/>
<path stroke="#A52A2A" d="M50 55l46 0"/>
<text stroke="none" fill="white" font-size="16" x="106" y="64">
x1.comp_out_n-2
</text>
<path stroke="#A52A2A" d="M50 655l1 0 1 -10 0 -24 1 -20M53 602l0 -3M53 602l1 7M54 656l0 -112 1 105M55 655l0 -6M55 655l539 0M594 657l0 -181M594 477l1 1M595 479l0 -1M595 479l13 0M608 655l0 -180M608 655l39 0M647 659l0 -183M647 479l14 0M661 655l0 -187"/>
<path stroke="#A52A2A" d="M661 655l92 0 0 -177 1 0M754 479l0 -1M754 479l12 0M766 655l0 -184M766 655l42 0 1 -164 0 -13M809 479l10 0M819 655l0 -186M819 655l41 0 0 -177 1 0M861 479l0 -1M861 479l11 0M872 655l0 -187M872 655l41 0 0 -177 1 1 11 0M925 655l0 -185"/>
<path stroke="#A52A2A" d="M925 655l49 0"/>
</svg>
