<?xml version="1.0" standalone="yes"?>
<!DOCTYPE svg PUBLIC "-//W3C//DTD SVG 1.1//EN"
 "http://www.w3.org/Graphics/SVG/1.1/DTD/svg11.dtd">
<svg xmlns="http://www.w3.org/2000/svg" version="1.1"
  width="100%" height="100%" viewBox="0 0 1024 768"
  style="fill: none; font-family: Helvetica;
 font: Helvetica;
">

<!-- Creator: NGspice -->

<rect x="0" y="0" width="1024" height="768" fill="black" stroke="none"/>
<text stroke="none" fill="white" font-size="16" x="358" y="752">
time
</text>
<text stroke="none" fill="white" font-size="16" x="10" y="16">
tran1: run1644_vin0.545359
</text>
<path stroke="white" d="M50 704l0 -637"/>
<text stroke="none" fill="white" font-size="16" x="35" y="728">
0.0
</text>
<path stroke="white" stroke-dasharray="1,2" d="M182 704l0 -637"/>
<text stroke="none" fill="white" font-size="16" x="157" y="728">
100.0
</text>
<path stroke="white" stroke-dasharray="1,2" d="M314 704l0 -637"/>
<text stroke="none" fill="white" font-size="16" x="289" y="728">
200.0
</text>
<path stroke="white" stroke-dasharray="1,2" d="M446 704l0 -637"/>
<text stroke="none" fill="white" font-size="16" x="421" y="728">
300.0
</text>
<path stroke="white" stroke-dasharray="1,2" d="M578 704l0 -637"/>
<text stroke="none" fill="white" font-size="16" x="553" y="728">
400.0
</text>
<path stroke="white" stroke-dasharray="1,2" d="M710 704l0 -637"/>
<text stroke="none" fill="white" font-size="16" x="685" y="728">
500.0
</text>
<path stroke="white" stroke-dasharray="1,2" d="M842 704l0 -637"/>
<text stroke="none" fill="white" font-size="16" x="817" y="728">
600.0
</text>
<path stroke="white" stroke-dasharray="1,2" d="M974 704l0 -637"/>
<text stroke="none" fill="white" font-size="16" x="949" y="728">
700.0
</text>
<text stroke="none" fill="white" font-size="16" x="614" y="752">
ns
</text>
<path stroke="white" stroke-dasharray="1,2" d="M50 704l924 0"/>
<text stroke="none" fill="white" font-size="16" x="8" y="712">
-3.0
</text>
<path stroke="white" stroke-dasharray="1,2" d="M50 613l924 0"/>
<text stroke="none" fill="white" font-size="16" x="8" y="621">
-2.0
</text>
<path stroke="white" stroke-dasharray="1,2" d="M50 522l924 0"/>
<text stroke="none" fill="white" font-size="16" x="8" y="530">
-1.0
</text>
<path stroke="white" d="M50 431l924 0"/>
<text stroke="none" fill="white" font-size="16" x="18" y="439">
0.0
</text>
<path stroke="white" stroke-dasharray="1,2" d="M50 340l924 0"/>
<text stroke="none" fill="white" font-size="16" x="18" y="348">
1.0
</text>
<path stroke="white" stroke-dasharray="1,2" d="M50 249l924 0"/>
<text stroke="none" fill="white" font-size="16" x="18" y="257">
2.0
</text>
<path stroke="white" stroke-dasharray="1,2" d="M50 158l924 0"/>
<text stroke="none" fill="white" font-size="16" x="18" y="166">
3.0
</text>
<path stroke="white" stroke-dasharray="1,2" d="M50 67l924 0"/>
<text stroke="none" fill="white" font-size="16" x="18" y="75">
4.0
</text>
<text stroke="none" fill="white" font-size="16" x="10" y="32">
     
</text>
<path stroke="red" d="M462 23l46 0"/>
<text stroke="none" fill="white" font-size="16" x="518" y="32">
x1.vsampled_p
</text>
<path stroke="red" d="M50 431l1 0 1 -7 0 -15 1 -15 0 -4 1 1M54 414l0 -37 1 -3 0 -17 1 -3 0 -2 2 -2 1 0 1 -1 4 0M64 350l0 -1M64 350l4 0 1 -1 48 0 0 -1 1 -10 0 -21 1 -5 0 -7 1 -2 0 -2 1 -1 3 0 0 -1 415 0M539 300l0 -1M539 300l1 0M540 301l0 -1 14 0"/>
<path stroke="red" d="M554 300l0 -1M554 300l13 0M567 301l0 -1 7 0M574 323l0 -23M574 323l1 9M575 339l0 -7M575 339l1 1M576 341l0 -1M576 341l4 0 0 -1M580 341l26 0 0 -1 1 0M607 341l0 -1M607 341l26 0 0 -1M633 341l26 0 0 -1M659 341l20 0M679 345l0 -4"/>
<path stroke="red" d="M679 345l1 1M680 347l0 -1 6 0 0 -1M686 346l20 0M706 349l0 -3M706 349l1 -1 18 0M725 349l0 -1 26 0M751 349l0 -1 27 0M778 349l0 -1 7 0M785 349l0 -1M785 349l27 0M812 350l0 -1 19 0M831 350l0 -1 26 0M857 350l0 -1 26 0M883 350l0 -1"/>
<path stroke="red" d="M883 349l27 0M910 350l0 -1 8 0 0 -23 1 -2 0 -12 1 -3 0 -2 1 -3 0 -3 1 0 0 -1 1 0 0 -1M923 300l13 0M936 301l0 -1 14 0 0 -1M950 300l12 0 0 -1 12 0"/>
<path stroke="blue" d="M50 23l46 0"/>
<text stroke="none" fill="white" font-size="16" x="106" y="32">
x1.vsampled_n
</text>
<path stroke="blue" d="M50 431l1 0 1 -7 0 -15 1 -14 0 -5 1 2M54 415l0 -38 1 -3 0 -17 1 -3 0 -2 2 -2 1 0 1 -1 4 0M64 350l0 -1M64 350l4 0 1 -1 48 0M117 360l0 -11M117 360l1 14M118 387l0 -13M118 387l1 4M119 395l0 -4M119 395l1 1M120 398l0 -2M120 398l2 0"/>
<path stroke="blue" d="M122 399l0 -1M122 399l424 0 0 -23 1 -3 0 -25 1 -4 0 -4 1 -1 0 -1 5 0 0 -1 12 0 1 1 13 0 0 -1 2 0M582 338l0 -1M582 338l11 0 0 -1M593 338l7 0M600 357l0 -19M600 357l1 3M601 364l0 -4M601 363l1 -3 0 -2 23 0 0 -6 1 -4 0 -9 1 0"/>
<path stroke="blue" d="M627 339l1 1 18 0M646 341l0 -1 7 0M653 351l0 -11M653 351l1 2 0 -1 1 -1 0 -1 17 0M672 351l0 -1 26 0 1 1 0 -1 26 0M725 351l0 -1 6 0 1 -2 0 -1M732 348l19 0M751 349l0 -1 8 0M759 351l0 -3M759 350l1 0 0 -1 18 0M778 350l0 -1 26 0"/>
<path stroke="blue" d="M804 350l0 -1 26 0 1 1 0 -1 87 0M918 384l0 -35M918 384l1 2M919 399l0 -13M919 399l1 2 1 -1 0 -1 53 0"/>
<path stroke="#FFA500" d="M462 39l46 0"/>
<text stroke="none" fill="white" font-size="16" x="518" y="48">
x1.vsampled_p-x1.vsampled_n
</text>
<path stroke="#FFA500" d="M50 431l2 0 1 -1 1 0M54 431l0 -1M54 431l63 0 0 -12 1 -24 0 -35 1 -8 0 -11 1 -4 0 -3 2 -2 418 0M540 333l0 -1 6 0M546 355l0 -23M546 355l1 3M547 383l0 -25M547 383l1 4M548 391l0 -4M548 391l1 1M549 393l0 -1M549 393l18 0M567 394l0 -1"/>
<path stroke="#FFA500" d="M567 393l7 0M574 417l0 -24M574 417l1 8M575 433l0 -8M575 433l1 1 24 0 0 -20 1 -2 0 -5M601 409l1 2M602 413l0 -2M602 413l1 1 3 0 0 -1 1 0M607 414l0 -1M607 414l18 0M625 420l0 -6M625 420l1 4M626 433l0 -9M626 433l1 0 0 -1"/>
<path stroke="#FFA500" d="M627 432l2 0 1 -1 3 0M633 432l0 -1 1 0M634 432l0 -1 12 0M646 432l0 -1 7 0M653 432l0 -11 1 -2M654 420l0 -1M654 420l1 1 24 0M679 426l0 -5M679 426l1 0M680 428l0 -2 26 0M706 430l0 -4M706 429l25 0 1 2M732 433l0 -2 27 0 0 -3"/>
<path stroke="#FFA500" d="M759 430l26 0M785 431l0 -1M785 431l19 0 0 -1M804 431l34 0M838 432l0 -1M838 432l1 0 0 -1 79 0 0 -58 1 -4 0 -25 1 -4 0 -3 1 -3 0 -1 1 0 0 -1 14 0M936 333l0 -1 14 0 0 -1M950 332l24 0"/>
<path stroke="green" d="M50 39l46 0"/>
<text stroke="none" fill="white" font-size="16" x="106" y="48">
x1.sw_sample-2
</text>
<path stroke="green" d="M50 613l1 0 1 -9 0 -21 1 -21M53 580l0 -24M53 580l1 30M54 613l0 -3M54 613l63 0M117 620l0 -172M117 449l422 0M539 614l0 -171M539 613l422 0M961 618l0 -170 1 1 12 0"/>
<path stroke="#FFC0C5" d="M462 55l46 0"/>
<text stroke="none" fill="white" font-size="16" x="518" y="64">
x1.comp_out_p+2
</text>
<path stroke="#FFC0C5" d="M50 249l1 0 1 -9 0 -22 1 -18 0 -4M53 198l1 5M54 251l0 -48M54 248l1 0M55 249l0 -1M55 249l486 0 1 1 0 -167M542 85l13 0M555 250l0 -173M555 249l13 0M568 250l0 -167M568 85l13 0 0 -7 1 143M582 249l0 -28M582 249l39 0M621 252l0 -168"/>
<path stroke="#FFC0C5" d="M621 85l13 0M634 249l0 -172M634 249l39 0M673 253l0 -4M673 253l1 -108 0 -61M674 85l13 0M687 249l0 -171M687 249l13 0M700 254l0 -171M700 85l13 0 0 -8 1 155M714 249l0 -17M714 249l13 0 0 -165M727 85l13 0M740 250l0 -172M740 249l40 0"/>
<path stroke="#FFC0C5" d="M780 249l0 -165M780 85l13 0M793 249l0 -172M793 249l14 0 0 -165M807 85l12 0M819 249l0 -166M819 249l15 0 0 -164 11 0 0 -10 1 142M846 249l0 -32M846 249l91 0M937 255l0 -6M937 255l1 -139 0 -33M938 85l13 0M951 250l0 -171M951 249l23 0"/>
<path stroke="#A52A2A" d="M50 55l46 0"/>
<text stroke="none" fill="white" font-size="16" x="106" y="64">
x1.comp_out_n-2
</text>
<path stroke="#A52A2A" d="M50 613l1 0 1 -9 0 -22 1 -19M53 564l0 -3M53 564l1 6M54 614l0 -103 1 96M55 613l0 -6M55 613l539 0M594 616l0 -169M594 448l1 1 13 0M608 613l0 -173M608 613l39 0 0 -166M647 449l14 0M661 613l0 -167M661 613l92 0 0 -146 1 -18"/>
<path stroke="#A52A2A" d="M754 449l0 -1M754 449l12 0M766 613l0 -173M766 613l94 0 0 -164 12 0M872 613l0 -174M872 613l14 0 0 -155 1 -9 11 0M898 613l0 -174M898 613l15 0M913 614l0 -166M913 449l12 0M925 613l0 -173M925 613l49 0"/>
</svg>
