<?xml version="1.0" standalone="yes"?>
<!DOCTYPE svg PUBLIC "-//W3C//DTD SVG 1.1//EN"
 "http://www.w3.org/Graphics/SVG/1.1/DTD/svg11.dtd">
<svg xmlns="http://www.w3.org/2000/svg" version="1.1"
  width="100%" height="100%" viewBox="0 0 1024 768"
  style="fill: none; font-family: Helvetica;
 font: Helvetica;
">

<!-- Creator: NGspice -->

<rect x="0" y="0" width="1024" height="768" fill="black" stroke="none"/>
<text stroke="none" fill="white" font-size="16" x="358" y="752">
time
</text>
<text stroke="none" fill="white" font-size="16" x="10" y="16">
tran1: run696_vin-0.287843
</text>
<path stroke="white" d="M50 704l0 -637"/>
<text stroke="none" fill="white" font-size="16" x="35" y="728">
0.0
</text>
<path stroke="white" stroke-dasharray="1,2" d="M182 704l0 -637"/>
<text stroke="none" fill="white" font-size="16" x="157" y="728">
100.0
</text>
<path stroke="white" stroke-dasharray="1,2" d="M314 704l0 -637"/>
<text stroke="none" fill="white" font-size="16" x="289" y="728">
200.0
</text>
<path stroke="white" stroke-dasharray="1,2" d="M446 704l0 -637"/>
<text stroke="none" fill="white" font-size="16" x="421" y="728">
300.0
</text>
<path stroke="white" stroke-dasharray="1,2" d="M578 704l0 -637"/>
<text stroke="none" fill="white" font-size="16" x="553" y="728">
400.0
</text>
<path stroke="white" stroke-dasharray="1,2" d="M710 704l0 -637"/>
<text stroke="none" fill="white" font-size="16" x="685" y="728">
500.0
</text>
<path stroke="white" stroke-dasharray="1,2" d="M842 704l0 -637"/>
<text stroke="none" fill="white" font-size="16" x="817" y="728">
600.0
</text>
<path stroke="white" stroke-dasharray="1,2" d="M974 704l0 -637"/>
<text stroke="none" fill="white" font-size="16" x="949" y="728">
700.0
</text>
<text stroke="none" fill="white" font-size="16" x="614" y="752">
ns
</text>
<path stroke="white" stroke-dasharray="1,2" d="M50 704l924 0"/>
<text stroke="none" fill="white" font-size="16" x="8" y="712">
-3.0
</text>
<path stroke="white" stroke-dasharray="1,2" d="M50 613l924 0"/>
<text stroke="none" fill="white" font-size="16" x="8" y="621">
-2.0
</text>
<path stroke="white" stroke-dasharray="1,2" d="M50 522l924 0"/>
<text stroke="none" fill="white" font-size="16" x="8" y="530">
-1.0
</text>
<path stroke="white" d="M50 431l924 0"/>
<text stroke="none" fill="white" font-size="16" x="18" y="439">
0.0
</text>
<path stroke="white" stroke-dasharray="1,2" d="M50 340l924 0"/>
<text stroke="none" fill="white" font-size="16" x="18" y="348">
1.0
</text>
<path stroke="white" stroke-dasharray="1,2" d="M50 249l924 0"/>
<text stroke="none" fill="white" font-size="16" x="18" y="257">
2.0
</text>
<path stroke="white" stroke-dasharray="1,2" d="M50 158l924 0"/>
<text stroke="none" fill="white" font-size="16" x="18" y="166">
3.0
</text>
<path stroke="white" stroke-dasharray="1,2" d="M50 67l924 0"/>
<text stroke="none" fill="white" font-size="16" x="18" y="75">
4.0
</text>
<text stroke="none" fill="white" font-size="16" x="10" y="32">
     
</text>
<path stroke="red" d="M462 23l46 0"/>
<text stroke="none" fill="white" font-size="16" x="518" y="32">
x1.vsampled_p
</text>
<path stroke="red" d="M50 431l1 0 1 -7 0 -15 1 -14 0 -5 1 2M54 415l0 -40 1 -5 0 -13 1 -3 0 -2 2 -2 1 0 1 -1 4 0M64 350l0 -1M64 350l4 0 1 -1 48 0M117 353l0 -4M117 353l1 8M118 370l0 -9M118 370l1 3 1 1M120 375l0 -1M120 375l420 0M540 376l0 -1 6 0"/>
<path stroke="red" d="M546 376l0 -25 1 -3 0 -22 1 -4 0 -4 1 -2 0 -1 1 0 0 -1 16 0 1 1 0 -1 7 0M574 344l0 -30M574 344l1 3M575 357l0 -10M575 357l1 0 0 -1 1 0 0 -1 48 0 0 -6 1 -4 0 -8 20 0M646 338l0 -1 7 0M653 347l0 -10M653 347l1 2 0 -1 1 0 0 -1"/>
<path stroke="red" d="M655 347l17 0M672 348l0 -1 26 0 1 1 0 -1 7 0M706 351l0 -4M706 351l1 -1 25 0 0 -4M732 348l6 0 0 -1M738 348l21 0M759 350l0 -2M759 349l53 0M812 350l0 -1M812 350l1 0 0 -1 18 0M831 350l0 -1 26 0M857 350l0 -1 26 0M883 350l0 -1"/>
<path stroke="red" d="M883 350l1 -1 26 0M910 350l0 -1 8 0M918 377l0 -28M918 377l1 1M919 379l0 -2 1 -1 2 0 0 -1 14 0M936 376l0 -1 38 0"/>
<path stroke="blue" d="M50 23l46 0"/>
<text stroke="none" fill="white" font-size="16" x="106" y="32">
x1.vsampled_n
</text>
<path stroke="blue" d="M50 431l1 0 1 -7 0 -15 1 -15 0 -4 1 1M54 415l0 -40 1 -5 0 -13 1 -3 0 -2 2 -2 1 0 1 -1 4 0M64 350l0 -1M64 350l4 0 1 -1 48 0 0 -1 1 -7 0 -11 1 -4 1 -2 1 -1 419 0M540 324l0 -1 27 0M567 324l0 -1 26 0M593 324l0 -1 7 0M600 341l0 -18"/>
<path stroke="blue" d="M600 341l1 4M601 347l0 -2 1 0 0 -1 4 0 0 -1 1 0M607 344l0 -1M607 344l26 0 0 -1M633 344l13 0 0 -1M646 344l13 0 0 -1 1 1 12 0 0 -1M672 344l7 0M679 349l0 -5M679 349l1 1 0 -1 106 0M786 350l0 -1 18 0M804 350l0 -1 27 0M831 350l0 -1"/>
<path stroke="blue" d="M831 349l87 0M918 350l0 -21 1 -2 0 -4 17 0M936 324l0 -1 38 0"/>
<path stroke="#FFA500" d="M462 39l46 0"/>
<text stroke="none" fill="white" font-size="16" x="518" y="48">
x1.vsampled_p-x1.vsampled_n
</text>
<path stroke="#FFA500" d="M50 431l67 0M117 436l0 -5M117 436l1 15M118 471l0 -20M118 471l1 6 1 4M120 482l0 -1M120 482l1 1 425 0 0 -24 1 -3 0 -22 1 -5 0 -3 1 -2 0 -1 1 -1 24 0M574 452l0 -30M574 452l1 3M575 465l0 -10M575 465l1 0 0 -1 1 0 0 -1 16 0"/>
<path stroke="#FFA500" d="M593 463l0 -1M593 463l7 0 0 -18 1 -4 0 -2M601 441l1 0M602 442l0 -1M602 442l4 0M606 443l0 -1M606 443l1 0 0 -1 12 0M619 443l0 -1M619 443l1 0 0 -1 5 0 0 -5 1 -4 0 -8 1 -1 1 0 1 1 4 0 0 -1M633 425l13 0 0 -1M646 425l7 0M653 434l0 -10"/>
<path stroke="#FFA500" d="M653 434l1 2 1 -1 24 0 0 -6 1 -1M680 429l0 -1M680 429l1 1 25 0M706 433l0 -3M706 433l1 0 0 -1 25 0 0 -3M732 430l27 0M759 433l0 -3M759 431l27 0 0 -1M786 431l26 0M812 432l0 -1M812 432l1 0 0 -1 25 0M838 432l0 -1M838 432l1 0"/>
<path stroke="#FFA500" d="M839 432l0 -1 79 0M918 479l0 -49M918 479l1 3M919 486l0 -4M919 485l1 0 0 -1 1 0 0 -1 2 0M923 484l0 -1 27 0M950 484l0 -1 24 0"/>
<path stroke="green" d="M50 39l46 0"/>
<text stroke="none" fill="white" font-size="16" x="106" y="48">
x1.sw_sample-2
</text>
<path stroke="green" d="M50 613l1 0 1 -9 0 -21 1 -21M53 581l0 -25M53 581l1 29M54 613l0 -3M54 613l63 0M117 620l0 -172M117 449l422 0M539 614l0 -171M539 613l422 0M961 618l0 -170 1 1 12 0"/>
<path stroke="#FFC0C5" d="M462 55l46 0"/>
<text stroke="none" fill="white" font-size="16" x="518" y="64">
x1.comp_out_p+2
</text>
<path stroke="#FFC0C5" d="M50 249l1 0 1 -9 0 -22 1 -18 0 -4M53 198l1 5M54 249l0 -46M54 248l1 1 513 0M568 251l0 -168M568 85l13 0 0 -9 1 161M582 249l0 -12M582 249l65 0 0 -166M647 85l14 0M661 249l0 -167M661 249l39 0 0 -165M700 85l13 0 0 -8 1 159"/>
<path stroke="#FFC0C5" d="M714 249l0 -13M714 249l39 0 0 -165M753 85l13 0M766 250l0 -174M766 249l41 0 0 -164 12 0M819 249l0 -166M819 249l15 0 0 -164 11 0 0 -10 1 144M846 249l0 -30M846 249l128 0"/>
<path stroke="#A52A2A" d="M50 55l46 0"/>
<text stroke="none" fill="white" font-size="16" x="106" y="64">
x1.comp_out_n-2
</text>
<path stroke="#A52A2A" d="M50 613l1 0 1 -9 0 -22 1 -19M53 564l0 -3M53 564l1 6M54 613l0 -43M54 613l487 0 1 2 0 -168M542 449l13 0M555 613l0 -172M555 613l39 0 0 -166M594 449l14 0M608 613l0 -171M608 613l13 0M621 614l0 -167M621 449l13 0M634 613l0 -166"/>
<path stroke="#A52A2A" d="M634 613l39 0M673 614l0 -1M673 614l1 -67 0 -99M674 449l13 0M687 613l0 -172M687 613l40 0 0 -165M727 449l13 0M740 614l0 -174M740 613l40 0 0 -164 13 0M793 613l0 -174M793 613l66 0 1 -158 0 -7M860 449l12 0M872 613l0 -168"/>
<path stroke="#A52A2A" d="M872 613l14 0 0 -164 12 0M898 613l0 -168M898 613l15 0 0 -165M913 449l12 0M925 613l0 -172M925 613l12 0M937 614l0 -1M937 614l1 -81 0 -86M938 449l13 0M951 614l0 -166M951 613l23 0"/>
</svg>
