<?xml version="1.0" standalone="yes"?>
<!DOCTYPE svg PUBLIC "-//W3C//DTD SVG 1.1//EN"
 "http://www.w3.org/Graphics/SVG/1.1/DTD/svg11.dtd">
<svg xmlns="http://www.w3.org/2000/svg" version="1.1"
  width="100%" height="100%" viewBox="0 0 1024 768"
  style="fill: none; font-family: Helvetica;
 font: Helvetica;
">

<!-- Creator: NGspice -->

<rect x="0" y="0" width="1024" height="768" fill="black" stroke="none"/>
<text stroke="none" fill="white" font-size="16" x="358" y="752">
time
</text>
<text stroke="none" fill="white" font-size="16" x="10" y="16">
tran1: run701_vin-0.283448
</text>
<path stroke="white" d="M50 704l0 -637"/>
<text stroke="none" fill="white" font-size="16" x="35" y="728">
0.0
</text>
<path stroke="white" stroke-dasharray="1,2" d="M182 704l0 -637"/>
<text stroke="none" fill="white" font-size="16" x="157" y="728">
100.0
</text>
<path stroke="white" stroke-dasharray="1,2" d="M314 704l0 -637"/>
<text stroke="none" fill="white" font-size="16" x="289" y="728">
200.0
</text>
<path stroke="white" stroke-dasharray="1,2" d="M446 704l0 -637"/>
<text stroke="none" fill="white" font-size="16" x="421" y="728">
300.0
</text>
<path stroke="white" stroke-dasharray="1,2" d="M578 704l0 -637"/>
<text stroke="none" fill="white" font-size="16" x="553" y="728">
400.0
</text>
<path stroke="white" stroke-dasharray="1,2" d="M710 704l0 -637"/>
<text stroke="none" fill="white" font-size="16" x="685" y="728">
500.0
</text>
<path stroke="white" stroke-dasharray="1,2" d="M842 704l0 -637"/>
<text stroke="none" fill="white" font-size="16" x="817" y="728">
600.0
</text>
<path stroke="white" stroke-dasharray="1,2" d="M974 704l0 -637"/>
<text stroke="none" fill="white" font-size="16" x="949" y="728">
700.0
</text>
<text stroke="none" fill="white" font-size="16" x="614" y="752">
ns
</text>
<path stroke="white" stroke-dasharray="1,2" d="M50 704l924 0"/>
<text stroke="none" fill="white" font-size="16" x="8" y="712">
-2.5
</text>
<path stroke="white" stroke-dasharray="1,2" d="M50 655l924 0"/>
<text stroke="none" fill="white" font-size="16" x="8" y="663">
-2.0
</text>
<path stroke="white" stroke-dasharray="1,2" d="M50 606l924 0"/>
<text stroke="none" fill="white" font-size="16" x="8" y="614">
-1.5
</text>
<path stroke="white" stroke-dasharray="1,2" d="M50 557l924 0"/>
<text stroke="none" fill="white" font-size="16" x="8" y="565">
-1.0
</text>
<path stroke="white" stroke-dasharray="1,2" d="M50 508l924 0"/>
<text stroke="none" fill="white" font-size="16" x="8" y="516">
-0.5
</text>
<path stroke="white" d="M50 459l924 0"/>
<text stroke="none" fill="white" font-size="16" x="18" y="467">
0.0
</text>
<path stroke="white" stroke-dasharray="1,2" d="M50 410l924 0"/>
<text stroke="none" fill="white" font-size="16" x="18" y="418">
0.5
</text>
<path stroke="white" stroke-dasharray="1,2" d="M50 361l924 0"/>
<text stroke="none" fill="white" font-size="16" x="18" y="369">
1.0
</text>
<path stroke="white" stroke-dasharray="1,2" d="M50 312l924 0"/>
<text stroke="none" fill="white" font-size="16" x="18" y="320">
1.5
</text>
<path stroke="white" stroke-dasharray="1,2" d="M50 263l924 0"/>
<text stroke="none" fill="white" font-size="16" x="18" y="271">
2.0
</text>
<path stroke="white" stroke-dasharray="1,2" d="M50 214l924 0"/>
<text stroke="none" fill="white" font-size="16" x="18" y="222">
2.5
</text>
<path stroke="white" stroke-dasharray="1,2" d="M50 165l924 0"/>
<text stroke="none" fill="white" font-size="16" x="18" y="173">
3.0
</text>
<path stroke="white" stroke-dasharray="1,2" d="M50 116l924 0"/>
<text stroke="none" fill="white" font-size="16" x="18" y="124">
3.5
</text>
<path stroke="white" stroke-dasharray="1,2" d="M50 67l924 0"/>
<text stroke="none" fill="white" font-size="16" x="18" y="75">
4.0
</text>
<text stroke="none" fill="white" font-size="16" x="10" y="32">
     
</text>
<path stroke="red" d="M462 23l46 0"/>
<text stroke="none" fill="white" font-size="16" x="518" y="32">
x1.vsampled_p
</text>
<path stroke="red" d="M50 459l1 0 1 -7 0 -17 1 -15 0 -5 1 2M54 441l0 -42 1 -5 0 -14 1 -3 0 -3 1 -2 1 0 0 -1 59 0M117 375l0 -4M117 375l1 8M118 393l0 -10M118 393l1 3 1 1M120 398l0 -1M120 398l2 0M122 399l0 -1M122 399l424 0 0 -22 1 -5 0 -26 1 -5"/>
<path stroke="red" d="M548 341l0 -4 1 -2 0 -1 1 -1 4 0 0 -1M554 333l13 0M567 334l0 -1 7 0M574 366l0 -33M574 366l1 3M575 378l0 -9M575 378l1 1 0 -1 1 -1 3 0 0 -1M580 377l45 0 0 -9 1 -3 0 -7 1 -1 2 0 1 1 3 0 0 -1 13 0M646 358l0 -1M646 358l7 0M653 368l0 -11"/>
<path stroke="red" d="M653 368l1 2 0 -1 5 0 0 -1 13 0M672 369l0 -1 1 0M673 369l0 -1M673 369l13 0 0 -1 12 0 1 1 0 -1M699 369l7 0M706 372l0 -4M706 372l1 0 0 -1 18 0M725 372l0 -1 7 0 0 -2 1 -1M733 369l0 -1M733 369l26 0M759 372l0 -3M759 370l19 0"/>
<path stroke="red" d="M778 371l0 -1 7 0M785 371l0 -1M785 371l1 1 0 -1 131 0M917 372l0 -1M917 372l1 4M918 403l0 -27M918 403l1 0 0 -3 1 -1 42 0 0 -1M962 399l12 0"/>
<path stroke="blue" d="M50 23l46 0"/>
<text stroke="none" fill="white" font-size="16" x="106" y="32">
x1.vsampled_n
</text>
<path stroke="blue" d="M50 459l1 0 1 -7 0 -17 1 -15 0 -5 1 1M54 441l0 -42 1 -5 0 -14 1 -3 0 -3 1 -2 1 0 0 -1 59 0 0 -1 1 -8 0 -12 1 -3 1 -2 0 -1 1 -1 419 0M540 344l0 -1 26 0 1 1 0 -1 26 0M593 344l0 -1 7 0M600 362l0 -19M600 362l1 4M601 369l0 -3"/>
<path stroke="blue" d="M601 367l1 0 0 -1 1 0 1 -1 15 0M619 366l0 -1 27 0M646 366l0 -1 26 0M672 366l0 -1 7 0M679 371l0 -6M679 371l1 1M680 373l0 -2 133 0M813 372l0 -1 25 0 0 -1M838 371l79 0M917 372l0 -8 1 -3 0 -15 1 -2 0 -1 17 0M936 344l0 -1 38 0"/>
<path stroke="#FFA500" d="M462 39l46 0"/>
<text stroke="none" fill="white" font-size="16" x="518" y="48">
x1.vsampled_p-x1.vsampled_n
</text>
<path stroke="#FFA500" d="M50 459l67 0M117 464l0 -5M117 464l1 16M118 501l0 -21M118 501l1 7 1 4M120 513l0 -1M120 513l1 1 2 0 1 1 415 0 0 -1 1 0M540 515l0 -1 6 0 0 -22 1 -4 0 -27 1 -5 0 -3 1 -3 0 -1 2 0 0 -1 15 0 1 1 0 -1 7 0M574 481l0 -33M574 481l1 4"/>
<path stroke="#FFA500" d="M575 494l0 -9M575 494l1 1 0 -1 1 -1 1 0 0 -1 2 0M580 493l0 -1M580 493l1 0 0 -1 12 0M593 493l0 -1 7 0M600 493l0 -20 1 -3 0 -3M601 469l1 0M602 470l0 -1M602 470l4 0M606 471l0 -1M606 471l1 0 0 -1 12 0M619 471l0 -1M619 471l1 0"/>
<path stroke="#FFA500" d="M620 471l0 -1 5 0 0 -8 1 -4 0 -7 20 0M646 452l0 -1 7 0M653 461l0 -10M653 461l1 2M654 464l0 -1 1 -1 24 0 0 -5 1 -2M680 456l0 -1M680 456l1 1 25 0M706 461l0 -4M706 461l1 -1 0 -1 18 0M725 460l0 -1 7 0 0 -2 1 -1M733 457l0 -1"/>
<path stroke="#FFA500" d="M733 457l26 0M759 460l0 -3M759 458l19 0M778 459l0 -1 7 0M785 460l0 -2M785 460l1 0 0 -1 27 0 0 -1M813 459l104 0M917 467l0 -9M917 467l1 8M918 517l0 -42M918 517l1 0 0 -1 1 -1 1 0 1 -1 1 0M923 515l0 -1M923 515l13 0 0 -1"/>
<path stroke="#FFA500" d="M936 514l14 0M950 515l0 -1M950 515l12 0 0 -1M962 515l12 0"/>
<path stroke="green" d="M50 39l46 0"/>
<text stroke="none" fill="white" font-size="16" x="106" y="48">
x1.sw_sample-2
</text>
<path stroke="green" d="M50 655l1 0 1 -10 0 -23 1 -21M53 620l0 -26M53 620l1 32M54 655l0 -3M54 655l63 0M117 662l0 -184 1 0M118 479l0 -1M118 479l421 0M539 656l0 -184M539 655l422 0M961 660l0 -182 1 0M962 479l0 -1 1 1 11 0"/>
<path stroke="#FFC0C5" d="M462 55l46 0"/>
<text stroke="none" fill="white" font-size="16" x="518" y="64">
x1.comp_out_p+2
</text>
<path stroke="#FFC0C5" d="M50 263l1 0 1 -10 0 -23 1 -20 0 -4M53 209l1 4M54 264l0 -51M54 262l1 1 513 0 0 -178M568 87l13 0 0 -10 1 174M582 264l0 -13M582 263l65 0M647 264l0 -179M647 87l14 0M661 264l0 -181M661 263l39 0M700 264l0 -179M700 86l1 1 12 0"/>
<path stroke="#FFC0C5" d="M713 87l0 -10 1 142M714 264l0 -45M714 263l39 0 0 -178M753 87l13 0M766 263l0 -185M766 263l14 0 0 -177M780 87l13 0M793 263l0 -185M793 263l41 0 0 -177M834 87l11 0M845 88l0 -4M845 88l1 160M846 263l0 -15M846 263l128 0"/>
<path stroke="#A52A2A" d="M50 55l46 0"/>
<text stroke="none" fill="white" font-size="16" x="106" y="64">
x1.comp_out_n-2
</text>
<path stroke="#A52A2A" d="M50 655l1 0 1 -10 0 -24 1 -20M53 602l0 -3M53 602l1 7M54 655l0 -46M54 654l1 1 487 0 0 -178M542 479l13 0M555 655l0 -186M555 655l39 0 0 -178M594 478l1 1 13 0M608 655l0 -185M608 655l13 0 0 -179M621 479l13 0M634 656l0 -186"/>
<path stroke="#A52A2A" d="M634 656l1 -1 38 0 1 -11 0 -167M674 479l13 0M687 655l0 -185M687 655l41 0 0 -177M728 479l12 0M740 655l0 -186M740 655l67 0 0 -162 1 -15M808 479l0 -1M808 479l11 0M819 655l0 -183M819 655l41 0 0 -177 1 1 11 0M872 655l0 -187"/>
<path stroke="#A52A2A" d="M872 655l14 0 0 -170 1 -7M887 479l0 -1M887 479l11 0M898 655l0 -187M898 655l14 0 1 -170 0 -7M913 479l12 0M925 655l0 -186M925 655l12 0M937 656l0 -1M937 656l1 -67 0 -112M938 479l13 0M951 656l0 -179M951 655l23 0"/>
</svg>
