<?xml version="1.0" standalone="yes"?>
<!DOCTYPE svg PUBLIC "-//W3C//DTD SVG 1.1//EN"
 "http://www.w3.org/Graphics/SVG/1.1/DTD/svg11.dtd">
<svg xmlns="http://www.w3.org/2000/svg" version="1.1"
  width="100%" height="100%" viewBox="0 0 1024 768"
  style="fill: none; font-family: Helvetica;
 font: Helvetica;
">

<!-- Creator: NGspice -->

<rect x="0" y="0" width="1024" height="768" fill="black" stroke="none"/>
<text stroke="none" fill="white" font-size="16" x="358" y="752">
time
</text>
<text stroke="none" fill="white" font-size="16" x="10" y="16">
tran1: run697_vin-0.286964
</text>
<path stroke="white" d="M50 704l0 -637"/>
<text stroke="none" fill="white" font-size="16" x="35" y="728">
0.0
</text>
<path stroke="white" stroke-dasharray="1,2" d="M182 704l0 -637"/>
<text stroke="none" fill="white" font-size="16" x="157" y="728">
100.0
</text>
<path stroke="white" stroke-dasharray="1,2" d="M314 704l0 -637"/>
<text stroke="none" fill="white" font-size="16" x="289" y="728">
200.0
</text>
<path stroke="white" stroke-dasharray="1,2" d="M446 704l0 -637"/>
<text stroke="none" fill="white" font-size="16" x="421" y="728">
300.0
</text>
<path stroke="white" stroke-dasharray="1,2" d="M578 704l0 -637"/>
<text stroke="none" fill="white" font-size="16" x="553" y="728">
400.0
</text>
<path stroke="white" stroke-dasharray="1,2" d="M710 704l0 -637"/>
<text stroke="none" fill="white" font-size="16" x="685" y="728">
500.0
</text>
<path stroke="white" stroke-dasharray="1,2" d="M842 704l0 -637"/>
<text stroke="none" fill="white" font-size="16" x="817" y="728">
600.0
</text>
<path stroke="white" stroke-dasharray="1,2" d="M974 704l0 -637"/>
<text stroke="none" fill="white" font-size="16" x="949" y="728">
700.0
</text>
<text stroke="none" fill="white" font-size="16" x="614" y="752">
ns
</text>
<path stroke="white" stroke-dasharray="1,2" d="M50 704l924 0"/>
<text stroke="none" fill="white" font-size="16" x="8" y="712">
-3.0
</text>
<path stroke="white" stroke-dasharray="1,2" d="M50 613l924 0"/>
<text stroke="none" fill="white" font-size="16" x="8" y="621">
-2.0
</text>
<path stroke="white" stroke-dasharray="1,2" d="M50 522l924 0"/>
<text stroke="none" fill="white" font-size="16" x="8" y="530">
-1.0
</text>
<path stroke="white" d="M50 431l924 0"/>
<text stroke="none" fill="white" font-size="16" x="18" y="439">
0.0
</text>
<path stroke="white" stroke-dasharray="1,2" d="M50 340l924 0"/>
<text stroke="none" fill="white" font-size="16" x="18" y="348">
1.0
</text>
<path stroke="white" stroke-dasharray="1,2" d="M50 249l924 0"/>
<text stroke="none" fill="white" font-size="16" x="18" y="257">
2.0
</text>
<path stroke="white" stroke-dasharray="1,2" d="M50 158l924 0"/>
<text stroke="none" fill="white" font-size="16" x="18" y="166">
3.0
</text>
<path stroke="white" stroke-dasharray="1,2" d="M50 67l924 0"/>
<text stroke="none" fill="white" font-size="16" x="18" y="75">
4.0
</text>
<text stroke="none" fill="white" font-size="16" x="10" y="32">
     
</text>
<path stroke="red" d="M462 23l46 0"/>
<text stroke="none" fill="white" font-size="16" x="518" y="32">
x1.vsampled_p
</text>
<path stroke="red" d="M50 431l1 0 1 -7 0 -15 1 -14 0 -5 1 2M54 415l0 -40 1 -5 0 -13 1 -3 0 -2 2 -2 1 0 1 -1 4 0M64 350l0 -1M64 350l4 0 1 -1 48 0M117 353l0 -4M117 353l1 8M118 370l0 -9M118 370l2 4M120 375l0 -1M120 375l420 0M540 376l0 -1 6 0M546 376l0 -22"/>
<path stroke="red" d="M546 354l1 -3 0 -25 1 -5 0 -3 1 -2 0 -1 1 -1 4 0 0 -1M554 314l13 0M567 315l0 -1 7 0M574 341l0 -27M574 341l1 3M575 356l0 -12M575 356l1 1 0 -1 1 -1 48 0 0 -8 1 -3 0 -7 20 0M646 338l0 -1 7 0M653 346l0 -9M653 346l1 2M654 349l0 -1"/>
<path stroke="red" d="M654 348l1 0 0 -1 17 0M672 348l0 -1 27 0M699 348l0 -1 7 0M706 351l0 -4M706 351l1 -1 25 0 0 -4M732 347l1 1 5 0 0 -1 1 0M739 348l0 -1M739 348l20 0M759 350l0 -2M759 349l54 0M813 350l0 -1 18 0M831 350l0 -1 26 0M857 350l0 -1"/>
<path stroke="red" d="M857 349l26 0M883 350l0 -1 27 0M910 350l0 -1 7 0M917 350l0 -1M917 350l1 4M918 380l0 -26M918 380l1 -1 0 -3 1 0 1 -1 15 0M936 376l0 -1 38 0"/>
<path stroke="blue" d="M50 23l46 0"/>
<text stroke="none" fill="white" font-size="16" x="106" y="32">
x1.vsampled_n
</text>
<path stroke="blue" d="M50 431l1 0 1 -7 0 -15 1 -15 0 -4 1 1M54 415l0 -40 1 -5 0 -13 1 -3 0 -2 2 -2 1 0 1 -1 4 0M64 350l0 -1M64 350l4 0 1 -1 48 0 0 -1 1 -7 0 -11 1 -4 1 -1 0 -1 1 -1 419 0M540 324l0 -1 27 0M567 324l0 -1 26 0M593 324l0 -1 7 0M600 338l0 -15"/>
<path stroke="blue" d="M600 338l1 3M601 347l0 -6M601 345l1 0 0 -1 4 0 0 -1 1 0M607 344l0 -1M607 344l26 0 0 -1M633 344l26 0 0 -1M659 344l20 0M679 348l0 -4M679 348l1 1M680 351l0 -2 106 0M786 350l0 -1 18 0M804 350l0 -1 26 0 1 1 0 -1 86 0M917 350l0 -3"/>
<path stroke="blue" d="M917 347l1 -6 0 -16 1 -1 0 -1 17 0M936 324l0 -1 38 0"/>
<path stroke="#FFA500" d="M462 39l46 0"/>
<text stroke="none" fill="white" font-size="16" x="518" y="48">
x1.vsampled_p-x1.vsampled_n
</text>
<path stroke="#FFA500" d="M50 431l67 0M117 436l0 -5M117 436l1 15M118 471l0 -20M118 471l1 6 1 3M120 482l0 -2M120 482l1 1 425 0 0 -22 1 -2 0 -25 1 -5 0 -3 1 -2 0 -1 1 -1 24 0M574 448l0 -26M574 448l1 4M575 464l0 -12M575 464l1 1 0 -1 1 -1 16 0 0 -1"/>
<path stroke="#FFA500" d="M593 463l7 0 0 -15 1 -3 0 -6M601 440l1 1M602 442l0 -1M602 442l23 0 0 -8 1 -3 0 -7 20 0M646 425l0 -1 7 0M653 434l0 -10M653 434l1 2 0 -1 25 0 0 -5 1 -1 0 -1M680 429l2 0M682 430l0 -1M682 430l4 0 0 -1M686 430l13 0 0 -1M699 430l7 0"/>
<path stroke="#FFA500" d="M706 433l0 -4M706 433l1 0 0 -1 25 0 0 -3M732 430l27 0M759 432l0 -2M759 431l27 0 0 -1 18 0M804 431l0 -1 8 0M812 431l0 -1M812 431l1 0M813 432l0 -1 104 0M917 435l0 -5M917 435l1 9M918 485l0 -41M918 485l1 1 0 -2 1 0 1 -1"/>
<path stroke="#FFA500" d="M921 483l15 0 0 -1M936 483l38 0"/>
<path stroke="green" d="M50 39l46 0"/>
<text stroke="none" fill="white" font-size="16" x="106" y="48">
x1.sw_sample-2
</text>
<path stroke="green" d="M50 613l1 0 1 -9 0 -21 1 -21M53 581l0 -25M53 581l1 29M54 613l0 -3M54 613l63 0M117 620l0 -172M117 449l422 0M539 614l0 -171M539 613l422 0M961 618l0 -170 1 1 12 0"/>
<path stroke="#FFC0C5" d="M462 55l46 0"/>
<text stroke="none" fill="white" font-size="16" x="518" y="64">
x1.comp_out_p+2
</text>
<path stroke="#FFC0C5" d="M50 249l1 0 1 -9 0 -22 1 -18 0 -4M53 198l1 5M54 249l0 -46M54 248l1 1 513 0M568 251l0 -168M568 85l13 0 0 -9 1 161M582 249l0 -12M582 249l65 0M647 251l0 -168M647 85l14 0M661 249l0 -167M661 249l39 0 0 -165M700 85l13 0 0 -7"/>
<path stroke="#FFC0C5" d="M713 78l1 147M714 249l0 -24M714 249l39 0 0 -165M753 85l13 0M766 250l0 -174M766 249l41 0 0 -165M807 85l12 0M819 249l0 -173M819 249l15 0 0 -165M834 85l11 0M845 86l0 -3M845 86l1 149M846 249l0 -14M846 249l128 0"/>
<path stroke="#A52A2A" d="M50 55l46 0"/>
<text stroke="none" fill="white" font-size="16" x="106" y="64">
x1.comp_out_n-2
</text>
<path stroke="#A52A2A" d="M50 613l1 0 1 -9 0 -22 1 -19M53 564l0 -3M53 564l1 6M54 613l0 -43M54 613l487 0 1 1 0 -167M542 449l13 0M555 613l0 -173M555 613l39 0 0 -166M594 449l14 0M608 613l0 -172M608 613l13 0M621 614l0 -166M621 449l13 0M634 614l0 -171"/>
<path stroke="#A52A2A" d="M634 614l1 -1 38 0M673 614l0 -1M673 614l1 -74 0 -92M674 449l13 0M687 613l0 -172M687 613l40 0 0 -152 1 -12 12 0M740 613l0 -173M740 613l40 0 0 -157 1 -8M781 449l0 -1M781 449l12 0M793 613l0 -169M793 613l67 0 0 -165 1 1"/>
<path stroke="#A52A2A" d="M861 449l11 0M872 613l0 -174M872 613l14 0 0 -158 1 -7M887 449l0 -1M887 449l11 0M898 613l0 -174M898 613l14 0 1 -158 0 -7M913 449l12 0M925 613l0 -172M925 613l12 0 1 -11 0 -155M938 449l13 0M951 614l0 -166M951 613l23 0"/>
</svg>
