<?xml version="1.0" standalone="yes"?>
<!DOCTYPE svg PUBLIC "-//W3C//DTD SVG 1.1//EN"
 "http://www.w3.org/Graphics/SVG/1.1/DTD/svg11.dtd">
<svg xmlns="http://www.w3.org/2000/svg" version="1.1"
  width="100%" height="100%" viewBox="0 0 1024 768"
  style="fill: none; font-family: Helvetica;
 font: Helvetica;
">

<!-- Creator: NGspice -->

<rect x="0" y="0" width="1024" height="768" fill="black" stroke="none"/>
<text stroke="none" fill="white" font-size="16" x="358" y="752">
time
</text>
<text stroke="none" fill="white" font-size="16" x="10" y="16">
tran1: run1735_vin0.62534
</text>
<path stroke="white" d="M50 704l0 -637"/>
<text stroke="none" fill="white" font-size="16" x="35" y="728">
0.0
</text>
<path stroke="white" stroke-dasharray="1,2" d="M182 704l0 -637"/>
<text stroke="none" fill="white" font-size="16" x="157" y="728">
100.0
</text>
<path stroke="white" stroke-dasharray="1,2" d="M314 704l0 -637"/>
<text stroke="none" fill="white" font-size="16" x="289" y="728">
200.0
</text>
<path stroke="white" stroke-dasharray="1,2" d="M446 704l0 -637"/>
<text stroke="none" fill="white" font-size="16" x="421" y="728">
300.0
</text>
<path stroke="white" stroke-dasharray="1,2" d="M578 704l0 -637"/>
<text stroke="none" fill="white" font-size="16" x="553" y="728">
400.0
</text>
<path stroke="white" stroke-dasharray="1,2" d="M710 704l0 -637"/>
<text stroke="none" fill="white" font-size="16" x="685" y="728">
500.0
</text>
<path stroke="white" stroke-dasharray="1,2" d="M842 704l0 -637"/>
<text stroke="none" fill="white" font-size="16" x="817" y="728">
600.0
</text>
<path stroke="white" stroke-dasharray="1,2" d="M974 704l0 -637"/>
<text stroke="none" fill="white" font-size="16" x="949" y="728">
700.0
</text>
<text stroke="none" fill="white" font-size="16" x="614" y="752">
ns
</text>
<path stroke="white" stroke-dasharray="1,2" d="M50 704l924 0"/>
<text stroke="none" fill="white" font-size="16" x="8" y="712">
-3.0
</text>
<path stroke="white" stroke-dasharray="1,2" d="M50 613l924 0"/>
<text stroke="none" fill="white" font-size="16" x="8" y="621">
-2.0
</text>
<path stroke="white" stroke-dasharray="1,2" d="M50 522l924 0"/>
<text stroke="none" fill="white" font-size="16" x="8" y="530">
-1.0
</text>
<path stroke="white" d="M50 431l924 0"/>
<text stroke="none" fill="white" font-size="16" x="18" y="439">
0.0
</text>
<path stroke="white" stroke-dasharray="1,2" d="M50 340l924 0"/>
<text stroke="none" fill="white" font-size="16" x="18" y="348">
1.0
</text>
<path stroke="white" stroke-dasharray="1,2" d="M50 249l924 0"/>
<text stroke="none" fill="white" font-size="16" x="18" y="257">
2.0
</text>
<path stroke="white" stroke-dasharray="1,2" d="M50 158l924 0"/>
<text stroke="none" fill="white" font-size="16" x="18" y="166">
3.0
</text>
<path stroke="white" stroke-dasharray="1,2" d="M50 67l924 0"/>
<text stroke="none" fill="white" font-size="16" x="18" y="75">
4.0
</text>
<text stroke="none" fill="white" font-size="16" x="10" y="32">
     
</text>
<path stroke="red" d="M462 23l46 0"/>
<text stroke="none" fill="white" font-size="16" x="518" y="32">
x1.vsampled_p
</text>
<path stroke="red" d="M50 431l1 0 1 -7 0 -15 1 -15 0 -4 1 1M54 414l0 -37 1 -4 0 -14 1 -3 0 -3 1 -2 0 -1 2 0 1 -1 3 0 1 1 4 0 1 -1 48 0 0 -1 1 -10 0 -31 1 -4 0 -3 1 -4 0 -2 2 -2 417 0M539 293l0 -1M539 293l1 -1M540 293l0 -1M540 293l14 0 0 -1 12 0"/>
<path stroke="red" d="M566 292l1 1M567 294l0 -1 7 0M574 314l0 -22M574 314l1 7M575 331l0 -10M575 331l1 2 1 1 0 -1 16 0M593 334l0 -1 7 0M600 345l0 -12M600 345l1 2M601 355l0 -8M601 355l1 -1 23 0 0 -9 1 -1 0 -6 1 -1 0 -1 26 0M653 345l0 -9M653 345l1 1"/>
<path stroke="red" d="M654 347l0 -1 52 0M706 349l0 -3M706 349l6 0 0 -1M712 349l26 0 0 -1M738 349l27 0 0 -1M765 349l21 0M786 350l0 -1 18 0M804 350l0 -1 27 0M831 350l0 -1 86 0M917 350l0 -1M917 350l1 -1 0 -32 1 -5 0 -13 1 -2 0 -2 1 -1 0 -1 2 0 0 -1"/>
<path stroke="red" d="M923 292l13 0M936 294l0 -2M936 293l14 0 0 -1 24 0"/>
<path stroke="blue" d="M50 23l46 0"/>
<text stroke="none" fill="white" font-size="16" x="106" y="32">
x1.vsampled_n
</text>
<path stroke="blue" d="M50 431l1 0 1 -7 0 -15 1 -14 0 -5 1 2M54 414l0 -37 1 -4 0 -14 1 -3 0 -3 1 -2 0 -1 2 0 1 -1 3 0 1 1 4 0 0 -1 49 0M117 363l0 -14M117 363l1 15M118 397l0 -19M118 397l1 2M119 401l0 -2M119 401l1 2M120 405l0 -2M120 405l1 0M121 406l0 -1"/>
<path stroke="blue" d="M121 406l425 0 0 -31 1 -4 0 -15 1 -4 0 -5 2 -2 4 0 0 -1M554 345l26 0 0 -1M580 345l26 0 0 -1M606 345l27 0 0 -1M633 345l26 0 0 -1M659 345l20 0M679 351l0 -6M679 351l1 1M680 353l0 -3 52 0 0 -4M732 347l1 1 5 0 0 -1M738 348l21 0"/>
<path stroke="blue" d="M759 351l0 -3M759 349l53 0M812 350l0 -1 19 0M831 350l0 -1 26 0M857 350l0 -1 26 0M883 350l0 -1M883 350l1 -1 26 0M910 350l0 -1 8 0M918 406l0 -59M918 406l1 2M919 409l0 -1M919 409l1 -1 0 -1 1 0 0 -1 53 0"/>
<path stroke="#FFA500" d="M462 39l46 0"/>
<text stroke="none" fill="white" font-size="16" x="518" y="48">
x1.vsampled_p-x1.vsampled_n
</text>
<path stroke="#FFA500" d="M50 431l2 0 0 -1 2 0M54 431l0 -1M54 431l63 0 0 -15 1 -25 0 -49 1 -7 0 -6 1 -5 0 -3 1 -2 0 -1 1 0 1 -1 417 0M540 318l0 -1 1 1 0 -1 5 0M546 348l0 -31M546 348l1 5M547 367l0 -14M547 367l1 5M548 377l0 -5M548 377l1 1 1 0M550 379l0 -1"/>
<path stroke="#FFA500" d="M550 379l4 0 0 -1M554 379l13 0M567 380l0 -2M567 379l7 0M574 400l0 -22M574 400l1 8M575 417l0 -9M575 417l1 2 1 1 3 0 0 -1M580 420l13 0 0 -1M593 420l7 0M600 432l0 -13M600 432l1 2M601 441l0 -7M601 441l1 -1 23 0 0 -9 1 -1"/>
<path stroke="#FFA500" d="M626 430l0 -6 1 -1 0 -1 26 0M653 431l0 -9M653 431l1 1M654 433l0 -1 25 0 0 -6 1 -1M680 427l0 -3M680 427l26 0M706 430l0 -3M706 430l26 0M732 434l0 -4M732 432l27 0 0 -3M759 430l1 0M760 431l0 -1M760 431l26 0M786 432l0 -1"/>
<path stroke="#FFA500" d="M786 431l26 0 0 -1M812 431l28 0 0 -1 1 0M841 431l0 -1M841 431l77 0 0 -89 1 -7 0 -14 1 -1 0 -1 1 -1 2 0 0 -1 13 0M936 319l0 -2 38 0"/>
<path stroke="green" d="M50 39l46 0"/>
<text stroke="none" fill="white" font-size="16" x="106" y="48">
x1.sw_sample-2
</text>
<path stroke="green" d="M50 613l1 0 1 -9 0 -21 1 -21M53 579l0 -23M53 579l1 31M54 613l0 -3M54 613l63 0M117 620l0 -172M117 449l422 0M539 614l0 -171M539 613l422 0M961 618l0 -170 1 1 12 0"/>
<path stroke="#FFC0C5" d="M462 55l46 0"/>
<text stroke="none" fill="white" font-size="16" x="518" y="64">
x1.comp_out_p+2
</text>
<path stroke="#FFC0C5" d="M50 249l1 0 1 -9 0 -22 1 -18 0 -4M53 198l1 5M54 250l0 -47M54 248l1 1 486 0 1 -11 0 -155M542 85l13 0M555 250l0 -168M555 249l13 0M568 250l0 -166M568 85l13 0 0 -8 1 161M582 250l0 -12M582 249l12 0 0 -165 1 1 13 0M608 250l0 -173"/>
<path stroke="#FFC0C5" d="M608 249l39 0 0 -166M647 85l14 0M661 249l0 -171M661 249l39 0 0 -166M700 85l13 0 1 -8M714 250l0 -173M714 249l13 0 0 -165M727 85l13 0M740 250l0 -173M740 249l40 0 0 -164 1 -1M781 85l0 -1M781 85l12 0M793 249l0 -174M793 249l67 0"/>
<path stroke="#FFC0C5" d="M860 249l0 -165M860 85l12 0M872 249l0 -174M872 249l14 0 0 -164 1 -1M887 85l0 -1M887 85l11 0M898 249l0 -174M898 249l14 0 1 -147 0 -18M913 85l12 0M925 249l0 -172M925 249l12 0 1 -15 0 -151M938 85l13 0M951 249l0 -171M951 249l23 0"/>
<path stroke="#A52A2A" d="M50 55l46 0"/>
<text stroke="none" fill="white" font-size="16" x="106" y="64">
x1.comp_out_n-2
</text>
<path stroke="#A52A2A" d="M50 613l1 0 1 -9 0 -22 1 -19M53 564l0 -3M53 564l1 6M54 614l0 -62M54 554l1 56M55 613l0 -3M55 613l513 0M568 614l0 -1 53 0M621 614l0 -167M621 449l13 0M634 613l0 -173M634 613l39 0 1 2 0 -168M674 449l13 0M687 614l0 -174M687 613l66 0"/>
<path stroke="#A52A2A" d="M753 614l0 -166M753 449l13 0M766 613l0 -174M766 613l41 0 0 -164 12 0M819 613l0 -172M819 613l17 0 0 -165M836 449l9 0 0 -7 1 142M846 613l0 -29M846 613l128 0"/>
</svg>
