<?xml version="1.0" standalone="yes"?>
<!DOCTYPE svg PUBLIC "-//W3C//DTD SVG 1.1//EN"
 "http://www.w3.org/Graphics/SVG/1.1/DTD/svg11.dtd">
<svg xmlns="http://www.w3.org/2000/svg" version="1.1"
  width="100%" height="100%" viewBox="0 0 1024 768"
  style="fill: none; font-family: Helvetica;
 font: Helvetica;
">

<!-- Creator: NGspice -->

<rect x="0" y="0" width="1024" height="768" fill="black" stroke="none"/>
<text stroke="none" fill="white" font-size="16" x="358" y="752">
time
</text>
<text stroke="none" fill="white" font-size="16" x="10" y="16">
tran1: run1729_vin0.620066
</text>
<path stroke="white" d="M50 704l0 -637"/>
<text stroke="none" fill="white" font-size="16" x="35" y="728">
0.0
</text>
<path stroke="white" stroke-dasharray="1,2" d="M182 704l0 -637"/>
<text stroke="none" fill="white" font-size="16" x="157" y="728">
100.0
</text>
<path stroke="white" stroke-dasharray="1,2" d="M314 704l0 -637"/>
<text stroke="none" fill="white" font-size="16" x="289" y="728">
200.0
</text>
<path stroke="white" stroke-dasharray="1,2" d="M446 704l0 -637"/>
<text stroke="none" fill="white" font-size="16" x="421" y="728">
300.0
</text>
<path stroke="white" stroke-dasharray="1,2" d="M578 704l0 -637"/>
<text stroke="none" fill="white" font-size="16" x="553" y="728">
400.0
</text>
<path stroke="white" stroke-dasharray="1,2" d="M710 704l0 -637"/>
<text stroke="none" fill="white" font-size="16" x="685" y="728">
500.0
</text>
<path stroke="white" stroke-dasharray="1,2" d="M842 704l0 -637"/>
<text stroke="none" fill="white" font-size="16" x="817" y="728">
600.0
</text>
<path stroke="white" stroke-dasharray="1,2" d="M974 704l0 -637"/>
<text stroke="none" fill="white" font-size="16" x="949" y="728">
700.0
</text>
<text stroke="none" fill="white" font-size="16" x="614" y="752">
ns
</text>
<path stroke="white" stroke-dasharray="1,2" d="M50 704l924 0"/>
<text stroke="none" fill="white" font-size="16" x="8" y="712">
-3.0
</text>
<path stroke="white" stroke-dasharray="1,2" d="M50 613l924 0"/>
<text stroke="none" fill="white" font-size="16" x="8" y="621">
-2.0
</text>
<path stroke="white" stroke-dasharray="1,2" d="M50 522l924 0"/>
<text stroke="none" fill="white" font-size="16" x="8" y="530">
-1.0
</text>
<path stroke="white" d="M50 431l924 0"/>
<text stroke="none" fill="white" font-size="16" x="18" y="439">
0.0
</text>
<path stroke="white" stroke-dasharray="1,2" d="M50 340l924 0"/>
<text stroke="none" fill="white" font-size="16" x="18" y="348">
1.0
</text>
<path stroke="white" stroke-dasharray="1,2" d="M50 249l924 0"/>
<text stroke="none" fill="white" font-size="16" x="18" y="257">
2.0
</text>
<path stroke="white" stroke-dasharray="1,2" d="M50 158l924 0"/>
<text stroke="none" fill="white" font-size="16" x="18" y="166">
3.0
</text>
<path stroke="white" stroke-dasharray="1,2" d="M50 67l924 0"/>
<text stroke="none" fill="white" font-size="16" x="18" y="75">
4.0
</text>
<text stroke="none" fill="white" font-size="16" x="10" y="32">
     
</text>
<path stroke="red" d="M462 23l46 0"/>
<text stroke="none" fill="white" font-size="16" x="518" y="32">
x1.vsampled_p
</text>
<path stroke="red" d="M50 431l1 0 1 -7 0 -15 1 -15 0 -4 1 1M54 414l0 -37 1 -4 0 -14 1 -3 0 -3 1 -2 0 -1 2 0 1 -1 3 0 1 1 4 0 1 -1 48 0 0 -1 1 -11 0 -29 1 -5 0 -3 1 -3 0 -2 1 -1 0 -1 419 0M540 294l0 -1 14 0 0 -1M554 293l13 0M567 294l0 -1 7 0M574 317l0 -24"/>
<path stroke="red" d="M574 317l1 7M575 332l0 -8M575 332l1 2 24 0M600 346l0 -12M600 346l1 2M601 355l0 -7M601 355l1 0 0 -1 23 0 1 -5 0 -11 1 0 0 -1 1 0 0 -1 18 0M646 337l0 -1 7 0M653 345l0 -9M653 345l1 1M654 347l0 -1M654 347l5 0 0 -1M659 347l27 0"/>
<path stroke="red" d="M686 347l0 -1M686 347l20 0M706 350l0 -3M706 349l214 0 0 -8 1 -3 0 -27 1 -1 0 -11 1 -1 0 -4M923 295l1 -1 0 -1 12 0M936 294l0 -1 14 0 0 -1M950 293l24 0"/>
<path stroke="blue" d="M50 23l46 0"/>
<text stroke="none" fill="white" font-size="16" x="106" y="32">
x1.vsampled_n
</text>
<path stroke="blue" d="M50 431l1 0 1 -7 0 -15 1 -14 0 -5 1 2M54 414l0 -37 1 -4 0 -14 1 -3 0 -3 1 -2 0 -1 2 0 1 -1 3 0 1 1 4 0 1 -1 48 0M117 363l0 -14M117 363l1 14M118 396l0 -19M118 396l1 3M119 401l0 -2M119 401l1 2M120 404l0 -1M120 404l1 1 2 0"/>
<path stroke="blue" d="M123 405l1 1 417 0 0 -1M541 406l5 0 0 -22 1 -3 0 -23 1 -6 0 -5 1 -2 1 0 1 -1 16 0M567 345l0 -1 26 0M593 345l0 -1 26 0M619 345l0 -1 27 0M646 345l0 -1 26 0M672 345l0 -1 7 0M679 351l0 -7M679 351l1 1M680 353l0 -3 1 0 1 -1 16 0"/>
<path stroke="blue" d="M698 349l1 1 0 -1 26 0M725 350l0 -1 7 0 0 -3 1 0M733 347l0 -1M733 347l18 0M751 348l0 -1 8 0M759 350l0 -3M759 349l6 0 0 -1 13 0M778 349l0 -1M778 349l7 0M785 350l0 -1M785 350l1 0 0 -1 18 0M804 350l0 -1 11 0M815 350l0 -1M815 350l1 0"/>
<path stroke="blue" d="M816 350l0 -1 14 0 1 1 0 -1 26 0M857 350l0 -1 26 0M883 350l0 -1 27 0M910 350l0 -1 10 0M920 350l0 -5 1 3M921 407l0 -59M921 407l1 1M922 409l0 -1 1 0 0 -2 39 0 0 -1 1 0M963 406l0 -1M963 406l11 0"/>
<path stroke="#FFA500" d="M462 39l46 0"/>
<text stroke="none" fill="white" font-size="16" x="518" y="48">
x1.vsampled_p-x1.vsampled_n
</text>
<path stroke="#FFA500" d="M50 431l2 0 0 -1 2 0M54 431l0 -1M54 431l63 0 0 -15 1 -25 0 -49 1 -6 0 -6 1 -5 0 -3 1 -2 0 -1 1 0 1 -1 417 0M540 319l0 -1 1 1 0 -1 5 0M546 340l0 -22M546 340l1 3M547 366l0 -23M547 366l1 6M548 377l0 -5M548 377l1 2 1 0M550 380l0 -1"/>
<path stroke="#FFA500" d="M550 380l4 0 0 -1M554 380l13 0M567 381l0 -2M567 380l7 0M574 403l0 -23M574 403l1 8M575 419l0 -8M575 419l1 2 1 0 1 -1 2 0M580 421l0 -1 13 0M593 421l0 -1 7 0M600 432l0 -12M600 432l1 3M601 442l0 -7M601 442l1 -1 23 0 0 -1"/>
<path stroke="#FFA500" d="M625 440l1 -4 0 -11 1 -1 0 -1 26 0M653 432l0 -9M653 432l1 1M654 434l0 -1 25 0 0 -6 1 -1M680 428l0 -3M680 428l26 0M706 431l0 -3M706 431l26 0M732 435l0 -4M732 434l1 0 0 -1 26 0 0 -3M759 432l19 0 0 -1M778 432l7 0 0 -1 1 -1"/>
<path stroke="#FFA500" d="M786 431l0 -1M786 431l29 0 0 -1M815 431l105 0 0 -4 1 -6 0 -87 1 -1 0 -11 1 -1 0 -2 1 0 1 -1 11 0M936 320l0 -2 38 0"/>
<path stroke="green" d="M50 39l46 0"/>
<text stroke="none" fill="white" font-size="16" x="106" y="48">
x1.sw_sample-2
</text>
<path stroke="green" d="M50 613l1 0 1 -9 0 -21 1 -21M53 579l0 -23M53 579l1 31M54 613l0 -3M54 613l63 0M117 620l0 -172M117 449l422 0M539 614l0 -171M539 613l422 0M961 618l0 -170 1 1 12 0"/>
<path stroke="#FFC0C5" d="M462 55l46 0"/>
<text stroke="none" fill="white" font-size="16" x="518" y="64">
x1.comp_out_p+2
</text>
<path stroke="#FFC0C5" d="M50 249l1 0 1 -9 0 -22 1 -18 0 -4M53 198l1 5M54 250l0 -47M54 248l1 1 486 0 1 6 0 -172M542 85l13 0M555 249l0 -167M555 249l13 0M568 256l0 -173M568 85l13 0 0 -7 1 136M582 249l0 -35M582 249l12 0M594 251l0 -167M594 85l14 0"/>
<path stroke="#FFC0C5" d="M608 250l0 -172M608 249l39 0M647 250l0 -166M647 85l14 0M661 249l0 -166M661 249l39 0M700 251l0 -168M700 85l13 0 0 -9 1 134M714 250l0 -40M714 249l14 0 0 -165M728 85l12 0M740 250l0 -172M740 249l93 0 1 -153 0 -11 11 0 0 -7"/>
<path stroke="#FFC0C5" d="M845 78l1 146M846 249l0 -25M846 249l91 0M937 250l0 -1M937 250l1 -48 0 -118M938 85l13 0M951 250l0 -170M951 249l23 0"/>
<path stroke="#A52A2A" d="M50 55l46 0"/>
<text stroke="none" fill="white" font-size="16" x="106" y="64">
x1.comp_out_n-2
</text>
<path stroke="#A52A2A" d="M50 613l1 0 1 -9 0 -22 1 -19M53 564l0 -3M53 564l1 6M54 614l0 -63 1 59M55 613l0 -3M55 613l566 0 0 -166M621 449l13 0M634 613l0 -172M634 613l13 0M647 614l0 -1 26 0 1 3 0 -169M674 449l13 0M687 613l0 -172M687 613l66 0 0 -165"/>
<path stroke="#A52A2A" d="M753 449l13 0M766 613l0 -173M766 613l14 0 0 -165M780 449l13 0M793 613l0 -173M793 613l16 0 1 -151 0 -14M810 449l9 0M819 613l0 -171M819 613l44 0M863 614l0 -166 1 1 8 0M872 613l0 -170M872 613l16 0 1 -158 0 -7M889 449l9 0"/>
<path stroke="#A52A2A" d="M898 613l0 -171M898 613l17 0 0 -165M915 449l10 0M925 614l0 -166M925 613l13 0M938 614l0 -1 36 0"/>
</svg>
