<?xml version="1.0" standalone="yes"?>
<!DOCTYPE svg PUBLIC "-//W3C//DTD SVG 1.1//EN"
 "http://www.w3.org/Graphics/SVG/1.1/DTD/svg11.dtd">
<svg xmlns="http://www.w3.org/2000/svg" version="1.1"
  width="100%" height="100%" viewBox="0 0 1024 768"
  style="fill: none; font-family: Helvetica;
 font: Helvetica;
">

<!-- Creator: NGspice -->

<rect x="0" y="0" width="1024" height="768" fill="black" stroke="none"/>
<text stroke="none" fill="white" font-size="16" x="358" y="752">
time
</text>
<text stroke="none" fill="white" font-size="16" x="10" y="16">
tran1: run447_vin-0.50669
</text>
<path stroke="white" d="M50 704l0 -637"/>
<text stroke="none" fill="white" font-size="16" x="35" y="728">
0.0
</text>
<path stroke="white" stroke-dasharray="1,2" d="M182 704l0 -637"/>
<text stroke="none" fill="white" font-size="16" x="157" y="728">
100.0
</text>
<path stroke="white" stroke-dasharray="1,2" d="M314 704l0 -637"/>
<text stroke="none" fill="white" font-size="16" x="289" y="728">
200.0
</text>
<path stroke="white" stroke-dasharray="1,2" d="M446 704l0 -637"/>
<text stroke="none" fill="white" font-size="16" x="421" y="728">
300.0
</text>
<path stroke="white" stroke-dasharray="1,2" d="M578 704l0 -637"/>
<text stroke="none" fill="white" font-size="16" x="553" y="728">
400.0
</text>
<path stroke="white" stroke-dasharray="1,2" d="M710 704l0 -637"/>
<text stroke="none" fill="white" font-size="16" x="685" y="728">
500.0
</text>
<path stroke="white" stroke-dasharray="1,2" d="M842 704l0 -637"/>
<text stroke="none" fill="white" font-size="16" x="817" y="728">
600.0
</text>
<path stroke="white" stroke-dasharray="1,2" d="M974 704l0 -637"/>
<text stroke="none" fill="white" font-size="16" x="949" y="728">
700.0
</text>
<text stroke="none" fill="white" font-size="16" x="614" y="752">
ns
</text>
<path stroke="white" stroke-dasharray="1,2" d="M50 704l924 0"/>
<text stroke="none" fill="white" font-size="16" x="8" y="712">
-3.0
</text>
<path stroke="white" stroke-dasharray="1,2" d="M50 613l924 0"/>
<text stroke="none" fill="white" font-size="16" x="8" y="621">
-2.0
</text>
<path stroke="white" stroke-dasharray="1,2" d="M50 522l924 0"/>
<text stroke="none" fill="white" font-size="16" x="8" y="530">
-1.0
</text>
<path stroke="white" d="M50 431l924 0"/>
<text stroke="none" fill="white" font-size="16" x="18" y="439">
0.0
</text>
<path stroke="white" stroke-dasharray="1,2" d="M50 340l924 0"/>
<text stroke="none" fill="white" font-size="16" x="18" y="348">
1.0
</text>
<path stroke="white" stroke-dasharray="1,2" d="M50 249l924 0"/>
<text stroke="none" fill="white" font-size="16" x="18" y="257">
2.0
</text>
<path stroke="white" stroke-dasharray="1,2" d="M50 158l924 0"/>
<text stroke="none" fill="white" font-size="16" x="18" y="166">
3.0
</text>
<path stroke="white" stroke-dasharray="1,2" d="M50 67l924 0"/>
<text stroke="none" fill="white" font-size="16" x="18" y="75">
4.0
</text>
<text stroke="none" fill="white" font-size="16" x="10" y="32">
     
</text>
<path stroke="red" d="M462 23l46 0"/>
<text stroke="none" fill="white" font-size="16" x="518" y="32">
x1.vsampled_p
</text>
<path stroke="red" d="M50 431l1 0 1 -7 0 -15 1 -14 0 -5 1 2M54 415l0 -40 1 -4 0 -14 1 -2 0 -3 2 -2 1 0 1 -1 3 0 1 1 4 0 1 -1 48 0M117 359l0 -10M117 359l1 13M118 386l0 -14M118 386l1 3M119 393l0 -4M119 393l1 1 1 0M121 395l0 -1M121 395l419 0M540 396l0 -1"/>
<path stroke="red" d="M540 395l6 0 0 -22 1 -3 0 -26 1 -2 0 -5 1 -1 0 -1 1 -1 4 0 0 -1M554 334l13 0M567 335l0 -1 26 0M593 335l0 -1 7 0M600 353l0 -19M600 353l1 3M601 361l0 -5M601 359l1 -2 0 -2 1 0 1 -1 15 0M619 355l0 -1M619 355l1 0 0 -1 5 0M625 355l0 -3"/>
<path stroke="red" d="M625 352l1 -6 0 -10 2 0 1 1 4 0 0 -1M633 337l13 0 0 -1M646 337l7 0M653 347l0 -11M653 347l1 2 0 -1 1 -1 51 0M706 351l0 -4M706 350l1 0 0 -1 18 0M725 350l0 -1 8 0 0 -3M733 347l18 0M751 348l0 -1 8 0M759 350l0 -3M759 349l1 0"/>
<path stroke="red" d="M760 349l0 -1 18 0M778 349l0 -1 7 0M785 349l0 -1M785 349l1 1 0 -1 27 0M813 350l0 -1 17 0 1 1 0 -1 87 0M918 375l0 -26M918 375l1 2M919 392l0 -15M919 392l1 3M920 397l0 -2M920 397l1 0 0 -1 1 0 1 -1 13 0M936 396l0 -1 38 0"/>
<path stroke="blue" d="M50 23l46 0"/>
<text stroke="none" fill="white" font-size="16" x="106" y="32">
x1.vsampled_n
</text>
<path stroke="blue" d="M50 431l1 0 1 -7 0 -15 1 -15 0 -4 1 1M54 414l0 -39 1 -4 0 -14 1 -2 0 -3 2 -2 1 0 1 -1 3 0 1 1 4 0 1 -1 48 0 0 -1 1 -10 0 -21 1 -4 0 -6 1 -2 1 -1 0 -1 419 0M540 304l0 -1 26 0 1 1 0 -1 7 0M574 326l0 -23M574 326l1 9M575 343l0 -8"/>
<path stroke="blue" d="M575 343l1 1 17 0M593 345l0 -1 26 0M619 345l0 -1 27 0M646 345l0 -1 33 0M679 349l0 -5M679 349l1 0M680 351l0 -2 19 0M699 350l0 -1 26 0M725 350l0 -1 26 0M751 350l0 -1 27 0M778 350l0 -1 26 0M804 350l0 -1 27 0M831 350l0 -1 26 0"/>
<path stroke="blue" d="M857 350l0 -1 26 0M883 350l0 -1 27 0M910 350l0 -1 8 0 0 -16 1 -2 0 -12 1 -2 0 -6 1 -3 0 -3 1 0 0 -1 1 0 0 -1 13 0M936 305l0 -2 38 0"/>
<path stroke="#FFA500" d="M462 39l46 0"/>
<text stroke="none" fill="white" font-size="16" x="518" y="48">
x1.vsampled_p-x1.vsampled_n
</text>
<path stroke="#FFA500" d="M50 431l2 0 1 1 1 0 0 -1 63 0M117 442l0 -11M117 442l1 22M118 499l0 -35M118 499l1 8M119 517l0 -10M119 517l1 3 1 1M121 522l0 -1M121 522l1 1 418 0 0 -1M540 523l6 0 0 -22 1 -3 0 -26 1 -2 0 -6 1 0 0 -1 1 -1 17 0 0 -1M567 462l7 0"/>
<path stroke="#FFA500" d="M574 462l0 -23 1 -9 0 -8 1 -1 24 0M600 440l0 -19M600 440l1 3M601 448l0 -5M601 446l1 -2 0 -2 1 -1 16 0M619 442l0 -1M619 442l1 0 0 -1 5 0 0 -2 1 -6 0 -11 1 0M627 423l0 -1M627 423l2 0 1 1 3 0 0 -1 13 0M646 424l0 -1M646 424l7 0"/>
<path stroke="#FFA500" d="M653 434l0 -11M653 434l1 2 0 -1 1 -1 24 0 0 -5 1 0 0 -2M680 429l6 0 0 -1M686 429l20 0M706 433l0 -4M706 432l1 0 0 -1 26 0 0 -4M733 429l26 0M759 432l0 -3M759 430l26 0M785 431l0 -1M785 431l1 0M786 432l0 -1 27 0M813 432l0 -1"/>
<path stroke="#FFA500" d="M813 431l25 0 0 -1M838 431l80 0M918 473l0 -42M918 473l1 4M919 503l0 -26M919 503l1 6M920 518l0 -9M920 518l1 2M921 522l0 -2M921 522l1 0M922 523l0 -1M922 523l14 0 0 -1M936 523l14 0M950 524l0 -1 24 0"/>
<path stroke="green" d="M50 39l46 0"/>
<text stroke="none" fill="white" font-size="16" x="106" y="48">
x1.sw_sample-2
</text>
<path stroke="green" d="M50 613l1 0 1 -9 0 -21 1 -21M53 580l0 -24M53 580l1 30M54 613l0 -3M54 613l63 0M117 620l0 -172M117 449l422 0M539 614l0 -171M539 613l422 0M961 618l0 -170 1 1 12 0"/>
<path stroke="#FFC0C5" d="M462 55l46 0"/>
<text stroke="none" fill="white" font-size="16" x="518" y="64">
x1.comp_out_p+2
</text>
<path stroke="#FFC0C5" d="M50 249l1 0 1 -9 0 -22 1 -18 0 -4M53 198l1 5M54 250l0 -47M54 248l1 1 539 0M594 250l0 -166M594 85l14 0M608 249l0 -172M608 249l39 0M647 255l0 -172M647 85l14 0M661 250l0 -170M661 249l39 0 0 -165M700 85l13 0 0 -6 1 117M714 250l0 -54"/>
<path stroke="#FFC0C5" d="M714 249l39 0 0 -165M753 85l13 0M766 250l0 -173M766 250l1 -1 13 0 0 -165M780 85l13 0M793 249l0 -174M793 249l14 0 0 -164 1 -1M808 85l0 -1M808 85l11 0M819 250l0 -171M819 249l41 0 0 -164 12 0M872 249l0 -174M872 249l14 0"/>
<path stroke="#FFC0C5" d="M886 249l0 -148 1 -16 0 -1M887 85l11 0M898 249l0 -174M898 249l15 0 0 -165M913 85l12 0M925 250l0 -173M925 249l49 0"/>
<path stroke="#A52A2A" d="M50 55l46 0"/>
<text stroke="none" fill="white" font-size="16" x="106" y="64">
x1.comp_out_n-2
</text>
<path stroke="#A52A2A" d="M50 613l1 0 1 -9 0 -22 1 -19M53 564l0 -3M53 564l1 6M54 613l0 -43M54 613l487 0 1 1 0 -167M542 449l13 0M555 614l0 -168M555 613l13 0M568 614l0 -167M568 449l13 0 0 -9 1 165M582 613l0 -8M582 613l12 0M594 614l0 -1 27 0M621 614l0 -167"/>
<path stroke="#A52A2A" d="M621 449l13 0M634 614l0 -172M634 614l1 -1 38 0 1 6 0 -172M674 449l13 0M687 613l0 -172M687 613l41 0 0 -158 1 -7M729 449l0 -1M729 449l11 0M740 613l0 -173M740 613l94 0 0 -165M834 449l11 0 0 -10 1 150M846 613l0 -24M846 613l91 0"/>
<path stroke="#A52A2A" d="M937 613l0 -26 1 -120 0 -19M938 449l13 0M951 613l0 -173M951 613l23 0"/>
</svg>
