<?xml version="1.0" standalone="yes"?>
<!DOCTYPE svg PUBLIC "-//W3C//DTD SVG 1.1//EN"
 "http://www.w3.org/Graphics/SVG/1.1/DTD/svg11.dtd">
<svg xmlns="http://www.w3.org/2000/svg" version="1.1"
  width="100%" height="100%" viewBox="0 0 1024 768"
  style="fill: none; font-family: Helvetica;
 font: Helvetica;
">

<!-- Creator: NGspice -->

<rect x="0" y="0" width="1024" height="768" fill="black" stroke="none"/>
<text stroke="none" fill="white" font-size="16" x="358" y="752">
time
</text>
<text stroke="none" fill="white" font-size="16" x="10" y="16">
tran1: run31_vin-0.872314
</text>
<path stroke="white" d="M50 704l0 -637"/>
<text stroke="none" fill="white" font-size="16" x="35" y="728">
0.0
</text>
<path stroke="white" stroke-dasharray="1,2" d="M182 704l0 -637"/>
<text stroke="none" fill="white" font-size="16" x="157" y="728">
100.0
</text>
<path stroke="white" stroke-dasharray="1,2" d="M314 704l0 -637"/>
<text stroke="none" fill="white" font-size="16" x="289" y="728">
200.0
</text>
<path stroke="white" stroke-dasharray="1,2" d="M446 704l0 -637"/>
<text stroke="none" fill="white" font-size="16" x="421" y="728">
300.0
</text>
<path stroke="white" stroke-dasharray="1,2" d="M578 704l0 -637"/>
<text stroke="none" fill="white" font-size="16" x="553" y="728">
400.0
</text>
<path stroke="white" stroke-dasharray="1,2" d="M710 704l0 -637"/>
<text stroke="none" fill="white" font-size="16" x="685" y="728">
500.0
</text>
<path stroke="white" stroke-dasharray="1,2" d="M842 704l0 -637"/>
<text stroke="none" fill="white" font-size="16" x="817" y="728">
600.0
</text>
<path stroke="white" stroke-dasharray="1,2" d="M974 704l0 -637"/>
<text stroke="none" fill="white" font-size="16" x="949" y="728">
700.0
</text>
<text stroke="none" fill="white" font-size="16" x="614" y="752">
ns
</text>
<path stroke="white" stroke-dasharray="1,2" d="M50 704l924 0"/>
<text stroke="none" fill="white" font-size="16" x="8" y="712">
-3.0
</text>
<path stroke="white" stroke-dasharray="1,2" d="M50 613l924 0"/>
<text stroke="none" fill="white" font-size="16" x="8" y="621">
-2.0
</text>
<path stroke="white" stroke-dasharray="1,2" d="M50 522l924 0"/>
<text stroke="none" fill="white" font-size="16" x="8" y="530">
-1.0
</text>
<path stroke="white" d="M50 431l924 0"/>
<text stroke="none" fill="white" font-size="16" x="18" y="439">
0.0
</text>
<path stroke="white" stroke-dasharray="1,2" d="M50 340l924 0"/>
<text stroke="none" fill="white" font-size="16" x="18" y="348">
1.0
</text>
<path stroke="white" stroke-dasharray="1,2" d="M50 249l924 0"/>
<text stroke="none" fill="white" font-size="16" x="18" y="257">
2.0
</text>
<path stroke="white" stroke-dasharray="1,2" d="M50 158l924 0"/>
<text stroke="none" fill="white" font-size="16" x="18" y="166">
3.0
</text>
<path stroke="white" stroke-dasharray="1,2" d="M50 67l924 0"/>
<text stroke="none" fill="white" font-size="16" x="18" y="75">
4.0
</text>
<text stroke="none" fill="white" font-size="16" x="10" y="32">
     
</text>
<path stroke="red" d="M462 23l46 0"/>
<text stroke="none" fill="white" font-size="16" x="518" y="32">
x1.vsampled_p
</text>
<path stroke="red" d="M50 431l1 0 1 -7 0 -15 1 -14 0 -4 1 1M54 414l0 -38 1 -5 0 -13 1 -3 0 -3 1 -1 0 -1 2 0 1 -1 4 0 1 1 2 0 0 -1 50 0M117 374l0 -25M117 374l1 18M118 415l0 -23M118 415l1 3M119 425l0 -7M119 425l1 1M120 427l0 -1M120 427l1 1 418 0"/>
<path stroke="red" d="M539 429l0 -1M539 429l2 0 0 -1M541 429l5 0 0 -27 1 -4 0 -18 1 -7 0 -3 1 -2 1 0 0 -1 17 0M567 368l0 -1 26 0M593 368l0 -1 26 0M619 368l0 -1 6 0 0 -4 1 -6 0 -9 1 0M627 349l0 -1M627 349l19 0M646 350l0 -1 26 0M672 350l0 -1 26 0"/>
<path stroke="red" d="M698 349l1 1 0 -1 26 0M725 350l0 -1 8 0 0 -4M733 347l18 0M751 348l0 -1 8 0M759 350l0 -3M759 349l1 0 1 -1 17 0M778 349l0 -1 7 0M785 350l0 -2M785 350l1 0 0 -1 18 0M804 350l0 -1 9 0M813 350l0 -1 17 0 1 1 0 -1 7 0 0 -1M838 349l19 0"/>
<path stroke="red" d="M857 350l0 -1 26 0M883 350l0 -1 27 0M910 350l0 -1 8 0M918 451l0 -102M918 448l1 -2 0 -11 1 -2 0 -2 1 -1 0 -1 29 0 0 -1M950 429l11 0 0 -1 13 0"/>
<path stroke="blue" d="M50 23l46 0"/>
<text stroke="none" fill="white" font-size="16" x="106" y="32">
x1.vsampled_n
</text>
<path stroke="blue" d="M50 431l1 0 1 -7 0 -16 1 -14 0 -5 1 2M54 414l0 -38 1 -5 0 -13 1 -3 0 -3 1 -1 0 -1 2 0 1 -1 3 0 1 1 4 0 1 -1 48 0 0 -1 1 -12 0 -38 1 -7 0 -14 1 -3 0 -2 2 -2 418 0M540 271l0 -1 14 0 0 -1M554 270l13 0M567 272l0 -2 7 0M574 292l0 -22"/>
<path stroke="blue" d="M574 292l1 6M575 307l0 -9M575 307l1 4 4 0 0 -1M580 311l13 0M593 312l0 -1 7 0M600 325l0 -14M600 325l1 4M601 332l0 -3M601 332l1 0 0 -1 17 0M619 332l0 -1 27 0M646 332l0 -1 7 0M653 341l0 -10M653 341l1 1 5 0 0 -1 13 0M672 342l0 -1"/>
<path stroke="blue" d="M672 342l7 0M679 347l0 -5M679 347l1 1 0 -1 6 0 0 -1M686 347l20 0M706 350l0 -3M706 350l1 -1 211 0 0 -55 1 -3 0 -14 1 -2 0 -3 1 -1 1 0 0 -1 1 0 0 -1M923 270l13 0M936 272l0 -2 14 0 0 -1M950 270l24 0"/>
<path stroke="#FFA500" d="M462 39l46 0"/>
<text stroke="none" fill="white" font-size="16" x="518" y="48">
x1.vsampled_p-x1.vsampled_n
</text>
<path stroke="#FFA500" d="M50 431l2 0M52 432l0 -1M52 432l2 0 0 -1 63 0M117 458l0 -27M117 458l1 30M118 547l0 -59M118 547l1 10M119 579l0 -22M119 579l1 4M120 586l0 -3M120 586l1 2 2 2 416 0 0 -1 1 1 0 -1 6 0M546 590l0 -27 1 -4 0 -18 1 -7 0 -3 1 -2"/>
<path stroke="#FFA500" d="M549 529l1 0 0 -1 4 0M554 529l0 -1 13 0 0 -1M567 528l7 0 0 -22 1 -6 0 -9 1 -3 0 -1 4 0M580 488l0 -1 20 0 0 -14 1 -4 0 -3 1 1 23 0 0 -5 1 -5 0 -9 1 0 1 1 25 0 0 -10 1 0 0 -1M654 439l25 0 0 -5 1 -1M680 434l0 -1M680 434l26 0"/>
<path stroke="#FFA500" d="M706 434l0 -3 27 0 0 -4M733 429l26 0M759 432l0 -3M759 430l19 0M778 431l0 -1 7 0M785 432l0 -2M785 432l1 -1 27 0M813 432l0 -1 25 0 0 -1 1 1 79 0M918 585l0 -154M918 585l1 1M919 589l0 -3M919 589l4 0M923 590l0 -1M923 590l13 0"/>
<path stroke="#FFA500" d="M936 590l0 -2M936 589l14 0M950 590l0 -1M950 590l24 0"/>
<path stroke="green" d="M50 39l46 0"/>
<text stroke="none" fill="white" font-size="16" x="106" y="48">
x1.sw_sample-2
</text>
<path stroke="green" d="M50 613l1 0 1 -9 0 -21 1 -21M53 578l0 -22M53 578l1 32M54 613l0 -3M54 613l63 0M117 620l0 -172M117 449l422 0M539 614l0 -171M539 613l422 0M961 618l0 -170 1 1 12 0"/>
<path stroke="#FFC0C5" d="M462 55l46 0"/>
<text stroke="none" fill="white" font-size="16" x="518" y="64">
x1.comp_out_p+2
</text>
<path stroke="#FFC0C5" d="M50 249l1 0 1 -9 0 -22 1 -18 0 -4M53 198l1 5M54 250l0 -47M54 247l1 2 698 0 0 -165M753 85l13 0M766 250l0 -173M766 250l1 -1 13 0 0 -165M780 85l13 0M793 249l0 -173M793 249l14 0 0 -148 1 -16 0 -1M808 85l11 0M819 250l0 -172"/>
<path stroke="#FFC0C5" d="M819 249l41 0 0 -164 12 0M872 249l0 -173M872 249l14 0 1 -148 0 -17M887 85l11 0M898 249l0 -173M898 249l15 0 0 -165M913 85l12 0M925 250l0 -174M925 249l49 0"/>
<path stroke="#A52A2A" d="M50 55l46 0"/>
<text stroke="none" fill="white" font-size="16" x="106" y="64">
x1.comp_out_n-2
</text>
<path stroke="#A52A2A" d="M50 613l1 0 1 -9 0 -22 1 -19M53 564l0 -3M53 564l1 6M54 613l0 -43M54 613l487 0 1 1 0 -167M542 449l13 0M555 613l0 -171M555 613l13 0M568 614l0 -167M568 449l13 0 0 -6 1 119M582 614l0 -52M582 613l12 0 0 -165M594 449l14 0"/>
<path stroke="#A52A2A" d="M608 614l0 -173M608 613l13 0 0 -166M621 449l13 0M634 613l0 -172M634 613l13 0M647 614l0 -166M647 449l14 0M661 613l0 -171M661 613l12 0M673 616l0 -3M673 616l1 -118 0 -51M674 449l13 0M687 613l0 -172M687 613l13 0 0 -165M700 449l13 0"/>
<path stroke="#A52A2A" d="M713 449l0 -4 1 156M714 613l0 -12M714 613l14 0 0 -164 12 0M740 613l0 -174M740 613l94 0 0 -164 11 0 0 -10 1 153M846 613l0 -21M846 613l91 0M937 614l0 -1M937 614l1 -89 0 -78M938 449l13 0M951 613l0 -173M951 613l23 0"/>
</svg>
