<?xml version="1.0" standalone="yes"?>
<!DOCTYPE svg PUBLIC "-//W3C//DTD SVG 1.1//EN"
 "http://www.w3.org/Graphics/SVG/1.1/DTD/svg11.dtd">
<svg xmlns="http://www.w3.org/2000/svg" version="1.1"
  width="100%" height="100%" viewBox="0 0 1024 768"
  style="fill: none; font-family: Helvetica;
 font: Helvetica;
">

<!-- Creator: NGspice -->

<rect x="0" y="0" width="1024" height="768" fill="black" stroke="none"/>
<text stroke="none" fill="white" font-size="16" x="358" y="752">
time
</text>
<text stroke="none" fill="white" font-size="16" x="10" y="16">
tran1: run28_vin-0.874951
</text>
<path stroke="white" d="M50 704l0 -637"/>
<text stroke="none" fill="white" font-size="16" x="35" y="728">
0.0
</text>
<path stroke="white" stroke-dasharray="1,2" d="M182 704l0 -637"/>
<text stroke="none" fill="white" font-size="16" x="157" y="728">
100.0
</text>
<path stroke="white" stroke-dasharray="1,2" d="M314 704l0 -637"/>
<text stroke="none" fill="white" font-size="16" x="289" y="728">
200.0
</text>
<path stroke="white" stroke-dasharray="1,2" d="M446 704l0 -637"/>
<text stroke="none" fill="white" font-size="16" x="421" y="728">
300.0
</text>
<path stroke="white" stroke-dasharray="1,2" d="M578 704l0 -637"/>
<text stroke="none" fill="white" font-size="16" x="553" y="728">
400.0
</text>
<path stroke="white" stroke-dasharray="1,2" d="M710 704l0 -637"/>
<text stroke="none" fill="white" font-size="16" x="685" y="728">
500.0
</text>
<path stroke="white" stroke-dasharray="1,2" d="M842 704l0 -637"/>
<text stroke="none" fill="white" font-size="16" x="817" y="728">
600.0
</text>
<path stroke="white" stroke-dasharray="1,2" d="M974 704l0 -637"/>
<text stroke="none" fill="white" font-size="16" x="949" y="728">
700.0
</text>
<text stroke="none" fill="white" font-size="16" x="614" y="752">
ns
</text>
<path stroke="white" stroke-dasharray="1,2" d="M50 704l924 0"/>
<text stroke="none" fill="white" font-size="16" x="8" y="712">
-3.0
</text>
<path stroke="white" stroke-dasharray="1,2" d="M50 613l924 0"/>
<text stroke="none" fill="white" font-size="16" x="8" y="621">
-2.0
</text>
<path stroke="white" stroke-dasharray="1,2" d="M50 522l924 0"/>
<text stroke="none" fill="white" font-size="16" x="8" y="530">
-1.0
</text>
<path stroke="white" d="M50 431l924 0"/>
<text stroke="none" fill="white" font-size="16" x="18" y="439">
0.0
</text>
<path stroke="white" stroke-dasharray="1,2" d="M50 340l924 0"/>
<text stroke="none" fill="white" font-size="16" x="18" y="348">
1.0
</text>
<path stroke="white" stroke-dasharray="1,2" d="M50 249l924 0"/>
<text stroke="none" fill="white" font-size="16" x="18" y="257">
2.0
</text>
<path stroke="white" stroke-dasharray="1,2" d="M50 158l924 0"/>
<text stroke="none" fill="white" font-size="16" x="18" y="166">
3.0
</text>
<path stroke="white" stroke-dasharray="1,2" d="M50 67l924 0"/>
<text stroke="none" fill="white" font-size="16" x="18" y="75">
4.0
</text>
<text stroke="none" fill="white" font-size="16" x="10" y="32">
     
</text>
<path stroke="red" d="M462 23l46 0"/>
<text stroke="none" fill="white" font-size="16" x="518" y="32">
x1.vsampled_p
</text>
<path stroke="red" d="M50 431l1 0 1 -7 0 -15 1 -14 0 -4 1 1M54 414l0 -38 1 -5 0 -13 1 -3 0 -3 1 -1 0 -1 2 0 1 -1 4 0 1 1 2 0 0 -1 50 0M117 375l0 -26M117 375l1 18M118 415l0 -22M118 415l1 3M119 425l0 -7M119 425l1 1M120 427l0 -1M120 427l1 1 1 0"/>
<path stroke="red" d="M122 429l0 -1M122 429l424 0 0 -24 1 -3 0 -22 1 -7 0 -3 1 -2 5 0 0 -1 12 0 1 1 0 -1M567 368l13 0 0 -1 13 0M593 368l0 -1M593 368l13 0 0 -1 13 0M619 368l0 -1M619 368l1 0 0 -1M620 368l5 0 0 -13 1 -2 0 -5 1 1 1 0 1 1 4 0 0 -1"/>
<path stroke="red" d="M633 350l13 0 0 -1M646 350l13 0 0 -1M659 350l13 0 0 -1M672 350l14 0 0 -1M686 350l13 0 0 -1M699 350l13 0 0 -1M712 350l13 0 0 -1M725 350l7 0 0 -5M732 346l1 0M733 347l0 -1M733 347l18 0M751 348l0 -1M751 348l1 0 0 -1 7 0M759 351l0 -4"/>
<path stroke="red" d="M759 349l6 0 0 -1M765 349l21 0M786 350l0 -1 18 0M804 350l0 -1 26 0 1 1 0 -1 8 0 0 -1M839 349l18 0M857 350l0 -1 26 0M883 350l0 -1 27 0M910 350l0 -1 8 0M918 451l0 -102M918 448l1 -2 0 -11 1 -1 0 -3 1 -1 0 -1 53 0"/>
<path stroke="blue" d="M50 23l46 0"/>
<text stroke="none" fill="white" font-size="16" x="106" y="32">
x1.vsampled_n
</text>
<path stroke="blue" d="M50 431l1 0 1 -7 0 -16 1 -14 0 -5 1 2M54 414l0 -38 1 -5 0 -13 1 -3 0 -3 1 -1 0 -1 2 0 1 -1 3 0 1 1 4 0 1 -1 48 0 0 -2 1 -11 0 -38 1 -7 0 -14 1 -3 0 -2 2 -2 2 0 1 -1 414 0M539 270l0 -1M539 270l1 0M540 271l0 -1 14 0 0 -1"/>
<path stroke="blue" d="M554 270l13 0M567 271l0 -1 7 0M574 293l0 -23M574 293l1 7M575 309l0 -9M575 309l1 2 4 0 0 -1M580 311l13 0M593 312l0 -1 7 0M600 325l0 -15M600 325l1 4M601 332l0 -3M601 332l1 -1 17 0M619 332l0 -1 27 0M646 332l0 -1 7 0M653 338l0 -7"/>
<path stroke="blue" d="M653 338l1 2M654 342l0 -2M654 341l18 0M672 342l0 -1 7 0M679 346l0 -5M679 346l1 1 0 -1 18 0 1 1 0 -1 7 0M706 349l0 -3M706 349l106 0M812 350l0 -1M812 350l1 -1 18 0M831 350l0 -1 26 0M857 350l0 -1 26 0M883 350l0 -1 27 0M910 350l0 -1"/>
<path stroke="blue" d="M910 349l8 0 0 -55 1 -3 0 -14 1 -2 0 -3 1 -1 0 -1 2 0 0 -1M923 270l13 0M936 271l0 -1 14 0 0 -1M950 270l12 0 0 -1 12 0"/>
<path stroke="#FFA500" d="M462 39l46 0"/>
<text stroke="none" fill="white" font-size="16" x="518" y="48">
x1.vsampled_p-x1.vsampled_n
</text>
<path stroke="#FFA500" d="M50 431l2 0M52 432l0 -1M52 432l2 0 0 -1 63 0M117 458l0 -27M117 458l1 30M118 547l0 -59M118 547l1 11M119 579l0 -21M119 579l1 4M120 586l0 -3M120 586l1 2 1 1M122 590l0 -1M122 590l418 0 0 -1M540 590l6 0 0 -24 1 -3 0 -22 1 -7"/>
<path stroke="#FFA500" d="M548 534l0 -3 2 -2 17 0 0 -1M567 529l7 0 0 -24 1 -6 0 -9 1 -2 17 0 0 -1M593 488l7 0 0 -15 1 -4 0 -3M601 467l5 0M606 468l0 -1M606 468l1 0 0 -1 18 0 0 -12 1 -2 0 -5 1 1 2 0 1 1 3 0 0 -1M633 450l13 0 0 -1M646 450l7 0 0 -8"/>
<path stroke="#FFA500" d="M653 442l1 -2 0 -1 18 0M672 440l0 -1 7 0 0 -4 1 -1 0 -1M680 434l19 0M699 435l0 -1 7 0 0 -3 1 1 25 0 0 -5M732 428l1 0M733 429l0 -1M733 429l18 0M751 430l0 -1M751 430l1 -1 7 0M759 433l0 -4M759 431l27 0M786 432l0 -1 18 0"/>
<path stroke="#FFA500" d="M804 432l0 -1 34 0 1 -1M839 431l0 -1M839 431l79 0M918 586l0 -155M918 586l1 1M919 590l0 -3M919 590l4 0M923 591l0 -1 13 0 0 -1M936 590l14 0M950 591l0 -1 24 0"/>
<path stroke="green" d="M50 39l46 0"/>
<text stroke="none" fill="white" font-size="16" x="106" y="48">
x1.sw_sample-2
</text>
<path stroke="green" d="M50 613l1 0 1 -9 0 -21 1 -21M53 578l0 -22M53 578l1 32M54 613l0 -3M54 613l63 0M117 620l0 -172M117 449l422 0M539 614l0 -171M539 613l422 0M961 618l0 -170 1 1 12 0"/>
<path stroke="#FFC0C5" d="M462 55l46 0"/>
<text stroke="none" fill="white" font-size="16" x="518" y="64">
x1.comp_out_p+2
</text>
<path stroke="#FFC0C5" d="M50 249l1 0 1 -9 0 -22 1 -18 0 -4M53 198l1 5M54 250l0 -47M54 247l1 2 698 0M753 250l0 -166M753 85l13 0M766 250l0 -168M766 249l14 0 0 -164 1 -1M781 85l0 -1M781 85l12 0M793 250l0 -174M793 249l66 0 1 -157 0 -8M860 85l12 0"/>
<path stroke="#FFC0C5" d="M872 249l0 -174M872 249l14 0 0 -157 1 -8M887 85l0 -1M887 85l11 0M898 249l0 -174M898 249l15 0 0 -165M913 85l12 0M925 250l0 -171M925 249l49 0"/>
<path stroke="#A52A2A" d="M50 55l46 0"/>
<text stroke="none" fill="white" font-size="16" x="106" y="64">
x1.comp_out_n-2
</text>
<path stroke="#A52A2A" d="M50 613l1 0 1 -9 0 -22 1 -19M53 564l0 -3M53 564l1 6M54 613l0 -43M54 613l487 0 1 1 0 -167M542 449l13 0M555 614l0 -172M555 613l13 0 0 -165M568 449l13 0 0 -6 1 112M582 614l0 -59M582 613l12 0M594 614l0 -167M594 449l14 0"/>
<path stroke="#A52A2A" d="M608 613l0 -173M608 613l13 0M621 614l0 -167M621 449l13 0M634 613l0 -172M634 613l13 0M647 614l0 -167M647 449l14 0M661 614l0 -174M661 613l12 0M673 616l0 -3M673 616l1 -114 0 -55M674 449l13 0M687 613l0 -173M687 613l13 0"/>
<path stroke="#A52A2A" d="M700 613l0 -165M700 449l13 0 0 -2M713 448l1 154M714 613l0 -11M714 613l14 0 0 -165M728 449l12 0M740 613l0 -171M740 613l67 0 0 -164 12 0M819 614l0 -171M819 613l15 0 0 -164 11 0 0 -5 1 72M846 614l0 -98M846 613l91 0M937 614l0 -1"/>
<path stroke="#A52A2A" d="M937 614l1 -91 0 -76M938 449l13 0M951 613l0 -173M951 613l23 0"/>
</svg>
