<?xml version="1.0" standalone="yes"?>
<!DOCTYPE svg PUBLIC "-//W3C//DTD SVG 1.1//EN"
 "http://www.w3.org/Graphics/SVG/1.1/DTD/svg11.dtd">
<svg xmlns="http://www.w3.org/2000/svg" version="1.1"
  width="100%" height="100%" viewBox="0 0 1024 768"
  style="fill: none; font-family: Helvetica;
 font: Helvetica;
">

<!-- Creator: NGspice -->

<rect x="0" y="0" width="1024" height="768" fill="black" stroke="none"/>
<text stroke="none" fill="white" font-size="16" x="358" y="752">
time
</text>
<text stroke="none" fill="white" font-size="16" x="10" y="16">
tran1: run1957_vin0.820457
</text>
<path stroke="white" d="M50 704l0 -637"/>
<text stroke="none" fill="white" font-size="16" x="35" y="728">
0.0
</text>
<path stroke="white" stroke-dasharray="1,2" d="M182 704l0 -637"/>
<text stroke="none" fill="white" font-size="16" x="157" y="728">
100.0
</text>
<path stroke="white" stroke-dasharray="1,2" d="M314 704l0 -637"/>
<text stroke="none" fill="white" font-size="16" x="289" y="728">
200.0
</text>
<path stroke="white" stroke-dasharray="1,2" d="M446 704l0 -637"/>
<text stroke="none" fill="white" font-size="16" x="421" y="728">
300.0
</text>
<path stroke="white" stroke-dasharray="1,2" d="M578 704l0 -637"/>
<text stroke="none" fill="white" font-size="16" x="553" y="728">
400.0
</text>
<path stroke="white" stroke-dasharray="1,2" d="M710 704l0 -637"/>
<text stroke="none" fill="white" font-size="16" x="685" y="728">
500.0
</text>
<path stroke="white" stroke-dasharray="1,2" d="M842 704l0 -637"/>
<text stroke="none" fill="white" font-size="16" x="817" y="728">
600.0
</text>
<path stroke="white" stroke-dasharray="1,2" d="M974 704l0 -637"/>
<text stroke="none" fill="white" font-size="16" x="949" y="728">
700.0
</text>
<text stroke="none" fill="white" font-size="16" x="614" y="752">
ns
</text>
<path stroke="white" stroke-dasharray="1,2" d="M50 704l924 0"/>
<text stroke="none" fill="white" font-size="16" x="8" y="712">
-3.0
</text>
<path stroke="white" stroke-dasharray="1,2" d="M50 613l924 0"/>
<text stroke="none" fill="white" font-size="16" x="8" y="621">
-2.0
</text>
<path stroke="white" stroke-dasharray="1,2" d="M50 522l924 0"/>
<text stroke="none" fill="white" font-size="16" x="8" y="530">
-1.0
</text>
<path stroke="white" d="M50 431l924 0"/>
<text stroke="none" fill="white" font-size="16" x="18" y="439">
0.0
</text>
<path stroke="white" stroke-dasharray="1,2" d="M50 340l924 0"/>
<text stroke="none" fill="white" font-size="16" x="18" y="348">
1.0
</text>
<path stroke="white" stroke-dasharray="1,2" d="M50 249l924 0"/>
<text stroke="none" fill="white" font-size="16" x="18" y="257">
2.0
</text>
<path stroke="white" stroke-dasharray="1,2" d="M50 158l924 0"/>
<text stroke="none" fill="white" font-size="16" x="18" y="166">
3.0
</text>
<path stroke="white" stroke-dasharray="1,2" d="M50 67l924 0"/>
<text stroke="none" fill="white" font-size="16" x="18" y="75">
4.0
</text>
<text stroke="none" fill="white" font-size="16" x="10" y="32">
     
</text>
<path stroke="red" d="M462 23l46 0"/>
<text stroke="none" fill="white" font-size="16" x="518" y="32">
x1.vsampled_p
</text>
<path stroke="red" d="M50 431l1 0 1 -7 0 -16 1 -14 0 -5 1 2M54 414l0 -39 1 -4 0 -13 1 -3 0 -3 1 -1 0 -1 2 0 1 -1 3 0 1 1 4 0 1 -1 48 0 0 -1 1 -12 0 -35 1 -7 0 -10 1 -3 0 -4 1 -2 2 0 1 -1 415 0M539 275l0 -1M539 275l1 0M540 276l0 -1 14 0 0 -1M554 275l13 0"/>
<path stroke="red" d="M567 276l0 -1 7 0M574 299l0 -24M574 299l1 7M575 314l0 -8M575 314l1 2 4 0 0 -1M580 316l13 0M593 317l0 -2M593 316l7 0M600 332l0 -17M600 332l1 5 1 -1 17 0M619 337l0 -1 34 0M653 344l0 -8M653 344l1 2M654 347l0 -1 18 0M672 347l0 -1"/>
<path stroke="red" d="M672 346l27 0M699 347l0 -1 7 0M706 349l0 -3M706 349l106 0M812 350l0 -1 106 0 0 -12 1 -7 0 -42 1 -3 0 -5 1 -2 0 -2 1 0 0 -1 1 0 0 -1M923 275l13 0M936 276l0 -1 14 0 0 -1M950 275l12 0 0 -1 12 0"/>
<path stroke="blue" d="M50 23l46 0"/>
<text stroke="none" fill="white" font-size="16" x="106" y="32">
x1.vsampled_n
</text>
<path stroke="blue" d="M50 431l1 0 1 -7 0 -15 1 -14 0 -5 1 2M54 414l0 -39 1 -4 0 -13 1 -3 0 -3 1 -1 0 -1 2 0 1 -1 3 0 1 1 3 0 1 -1 49 0M117 372l0 -23M117 372l1 17M118 410l0 -21M118 410l1 3M119 419l0 -6M119 419l1 1M120 423l0 -3M120 423l2 0M122 424l0 -1"/>
<path stroke="blue" d="M122 424l424 0 0 -25 1 -2 0 -22 1 -7 0 -3 1 -2 5 0 0 -1 12 0 1 1 0 -1M567 363l13 0 0 -1M580 363l13 0 0 -1M593 363l13 0 0 -1 1 0M607 363l0 -1M607 363l12 0 0 -1M619 363l1 0 0 -1M620 363l5 0 0 -15 1 -1 0 -3 2 0M628 345l0 -1"/>
<path stroke="blue" d="M628 345l5 0 0 -1M633 345l26 0 0 -1M659 345l20 0M679 352l0 -7M679 352l1 1M680 354l0 -4 52 0 0 -4 1 1M733 348l0 -1M733 348l5 0 0 -1 1 0M739 348l0 -1M739 348l12 0 0 -1M751 348l1 0 0 -1M752 348l7 0M759 351l0 -3M759 349l28 0"/>
<path stroke="blue" d="M787 350l0 -1M787 350l2 0 0 -1 15 0M804 350l0 -1 26 0 1 1 0 -1 26 0M857 350l0 -1 26 0M883 350l0 -1 27 0M910 350l0 -1 8 0M918 354l0 -5M918 354l1 4M919 436l0 -78M919 433l1 -2 0 -3 1 -1 0 -2 1 0 0 -1 52 0"/>
<path stroke="#FFA500" d="M462 39l46 0"/>
<text stroke="none" fill="white" font-size="16" x="518" y="48">
x1.vsampled_p-x1.vsampled_n
</text>
<path stroke="#FFA500" d="M50 431l2 0 0 -1 2 0M54 431l0 -1M54 431l63 0 0 -24 1 -29 0 -56 1 -10 0 -16 1 -5 0 -6 1 -2 1 0 0 -1 418 0M540 283l0 -1 6 0M546 306l0 -24M546 306l1 3M547 331l0 -22M547 331l1 7M548 341l0 -3M548 341l2 2 17 0M567 344l0 -1"/>
<path stroke="#FFA500" d="M567 343l7 0M574 367l0 -24M574 367l1 8M575 383l0 -8M575 383l1 1 17 0M593 385l0 -1 7 0M600 401l0 -17M600 401l1 4 1 0 1 -1 1 1 2 0 0 -1 13 0M619 405l0 -1 1 0M620 405l0 -1M620 405l5 0M625 419l0 -14M625 419l1 1M626 424l0 -4"/>
<path stroke="#FFA500" d="M626 423l2 0 1 -1 4 0M633 423l0 -1 20 0M653 430l0 -8M653 430l1 2M654 433l0 -1M654 433l18 0 0 -1M672 433l7 0 0 -8 1 0M680 427l0 -3M680 427l6 0M686 428l0 -1 13 0M699 428l0 -1 7 0M706 431l0 -4M706 430l26 0M732 434l0 -4"/>
<path stroke="#FFA500" d="M732 433l1 0 0 -1 26 0 0 -3M759 431l28 0 0 -1 1 0 0 -1M788 430l24 0M812 431l0 -1M812 431l19 0 0 -1M831 431l7 0M838 432l0 -1 80 0 0 -17 1 -11 0 -117 1 -1 0 -2 1 0 0 -1 2 0 0 -1M923 282l13 0M936 283l0 -1 14 0 0 -1M950 282l24 0"/>
<path stroke="green" d="M50 39l46 0"/>
<text stroke="none" fill="white" font-size="16" x="106" y="48">
x1.sw_sample-2
</text>
<path stroke="green" d="M50 613l1 0 1 -9 0 -21 1 -21M53 579l0 -23M53 579l1 31M54 613l0 -3M54 613l63 0M117 620l0 -172M117 449l422 0M539 614l0 -171M539 613l422 0M961 618l0 -170 1 1 12 0"/>
<path stroke="#FFC0C5" d="M462 55l46 0"/>
<text stroke="none" fill="white" font-size="16" x="518" y="64">
x1.comp_out_p+2
</text>
<path stroke="#FFC0C5" d="M50 249l1 0 1 -9 0 -22 1 -18 0 -4M53 198l1 5M54 249l0 -46M54 249l488 0M542 250l0 -166M542 85l13 0M555 250l0 -173M555 249l13 0 0 -165M568 85l13 0 0 -3 1 75M582 250l0 -93M582 249l12 0M594 251l0 -168M594 85l14 0M608 250l0 -171"/>
<path stroke="#FFC0C5" d="M608 249l13 0M621 250l0 -167M621 85l13 0M634 250l0 -173M634 249l13 0 0 -166M647 85l14 0M661 249l0 -172M661 249l39 0 0 -165M700 85l13 0 0 -7 1 147M714 249l0 -24M714 249l13 0 0 -151 1 -13 0 -1M728 85l12 0M740 249l0 -172"/>
<path stroke="#FFC0C5" d="M740 249l66 0 1 -155 0 -10M807 85l12 0M819 250l0 -174M819 249l14 0 1 -154 0 -10 11 0 0 -7 1 147M846 249l0 -24M846 249l14 0 0 -164 12 0M872 249l0 -171M872 249l15 0 0 -165M887 85l11 0M898 249l0 -171M898 249l15 0 0 -165"/>
<path stroke="#FFC0C5" d="M913 84l1 0M914 85l0 -1M914 85l11 0M925 250l0 -173M925 249l12 0M937 250l0 -1M937 250l1 -90 0 -77M938 85l13 0M951 249l0 -172M951 249l23 0"/>
<path stroke="#A52A2A" d="M50 55l46 0"/>
<text stroke="none" fill="white" font-size="16" x="106" y="64">
x1.comp_out_n-2
</text>
<path stroke="#A52A2A" d="M50 613l1 0 1 -9 0 -22 1 -19M53 564l0 -3M53 564l1 6M54 614l0 -44M54 610l1 3 487 0M542 614l0 -1 132 0M674 616l0 -169M674 449l13 0M687 613l0 -173M687 613l66 0 0 -165M753 449l13 0M766 613l0 -174M766 613l16 0 0 -164 11 0"/>
<path stroke="#A52A2A" d="M793 613l0 -166M793 613l181 0"/>
</svg>
