<?xml version="1.0" standalone="yes"?>
<!DOCTYPE svg PUBLIC "-//W3C//DTD SVG 1.1//EN"
 "http://www.w3.org/Graphics/SVG/1.1/DTD/svg11.dtd">
<svg xmlns="http://www.w3.org/2000/svg" version="1.1"
  width="100%" height="100%" viewBox="0 0 1024 768"
  style="fill: none; font-family: Helvetica;
 font: Helvetica;
">

<!-- Creator: NGspice -->

<rect x="0" y="0" width="1024" height="768" fill="black" stroke="none"/>
<text stroke="none" fill="white" font-size="16" x="358" y="752">
time
</text>
<text stroke="none" fill="white" font-size="16" x="10" y="16">
tran1: run1404_vin0.334422
</text>
<path stroke="white" d="M50 704l0 -637"/>
<text stroke="none" fill="white" font-size="16" x="35" y="728">
0.0
</text>
<path stroke="white" stroke-dasharray="1,2" d="M182 704l0 -637"/>
<text stroke="none" fill="white" font-size="16" x="157" y="728">
100.0
</text>
<path stroke="white" stroke-dasharray="1,2" d="M314 704l0 -637"/>
<text stroke="none" fill="white" font-size="16" x="289" y="728">
200.0
</text>
<path stroke="white" stroke-dasharray="1,2" d="M446 704l0 -637"/>
<text stroke="none" fill="white" font-size="16" x="421" y="728">
300.0
</text>
<path stroke="white" stroke-dasharray="1,2" d="M578 704l0 -637"/>
<text stroke="none" fill="white" font-size="16" x="553" y="728">
400.0
</text>
<path stroke="white" stroke-dasharray="1,2" d="M710 704l0 -637"/>
<text stroke="none" fill="white" font-size="16" x="685" y="728">
500.0
</text>
<path stroke="white" stroke-dasharray="1,2" d="M842 704l0 -637"/>
<text stroke="none" fill="white" font-size="16" x="817" y="728">
600.0
</text>
<path stroke="white" stroke-dasharray="1,2" d="M974 704l0 -637"/>
<text stroke="none" fill="white" font-size="16" x="949" y="728">
700.0
</text>
<text stroke="none" fill="white" font-size="16" x="614" y="752">
ns
</text>
<path stroke="white" stroke-dasharray="1,2" d="M50 704l924 0"/>
<text stroke="none" fill="white" font-size="16" x="8" y="712">
-3.0
</text>
<path stroke="white" stroke-dasharray="1,2" d="M50 613l924 0"/>
<text stroke="none" fill="white" font-size="16" x="8" y="621">
-2.0
</text>
<path stroke="white" stroke-dasharray="1,2" d="M50 522l924 0"/>
<text stroke="none" fill="white" font-size="16" x="8" y="530">
-1.0
</text>
<path stroke="white" d="M50 431l924 0"/>
<text stroke="none" fill="white" font-size="16" x="18" y="439">
0.0
</text>
<path stroke="white" stroke-dasharray="1,2" d="M50 340l924 0"/>
<text stroke="none" fill="white" font-size="16" x="18" y="348">
1.0
</text>
<path stroke="white" stroke-dasharray="1,2" d="M50 249l924 0"/>
<text stroke="none" fill="white" font-size="16" x="18" y="257">
2.0
</text>
<path stroke="white" stroke-dasharray="1,2" d="M50 158l924 0"/>
<text stroke="none" fill="white" font-size="16" x="18" y="166">
3.0
</text>
<path stroke="white" stroke-dasharray="1,2" d="M50 67l924 0"/>
<text stroke="none" fill="white" font-size="16" x="18" y="75">
4.0
</text>
<text stroke="none" fill="white" font-size="16" x="10" y="32">
     
</text>
<path stroke="red" d="M462 23l46 0"/>
<text stroke="none" fill="white" font-size="16" x="518" y="32">
x1.vsampled_p
</text>
<path stroke="red" d="M50 431l1 0 1 -7 0 -15 1 -15 0 -4 1 1M54 415l0 -40 1 -4 0 -14 1 -3 0 -2 2 -2 1 0 1 -1 4 0M64 350l0 -1M64 350l4 0 1 -1 48 0 0 -1 1 -8 0 -13 1 -4 0 -2 2 -2 419 0M540 320l0 -1 14 0 0 -1M554 319l13 0M567 320l0 -1 7 0M574 341l0 -22"/>
<path stroke="red" d="M574 341l1 3M575 357l0 -13M575 357l1 2M576 360l0 -1M576 360l49 0 0 -9 1 -1 0 -7 1 0 0 -1 52 0M679 347l0 -5M679 347l1 0M680 348l0 -1 26 0M706 350l0 -3M706 350l6 0 0 -1M712 350l13 0 0 -1M725 350l7 0 0 -3 19 0M751 348l0 -1"/>
<path stroke="red" d="M751 348l1 0 0 -1 7 0M759 350l0 -3M759 349l6 0 0 -1M765 349l21 0M786 350l0 -1 18 0M804 350l0 -1 27 0M831 350l0 -1 26 0M857 350l0 -1 26 0M883 350l0 -1 27 0M910 350l0 -1 8 0M918 350l0 -5 1 -1 0 -9 1 -5 0 -4 1 -3 0 -2 1 0 0 -1"/>
<path stroke="red" d="M922 320l1 0 0 -1 13 0M936 320l0 -1 14 0 0 -1M950 319l24 0"/>
<path stroke="blue" d="M50 23l46 0"/>
<text stroke="none" fill="white" font-size="16" x="106" y="32">
x1.vsampled_n
</text>
<path stroke="blue" d="M50 431l1 0 1 -7 0 -15 1 -14 0 -5 1 2M54 415l0 -40 1 -4 0 -14 1 -3 0 -2 2 -2 1 0 1 -1 4 0M64 350l0 -1M64 350l4 0 1 -1 48 0M117 354l0 -5M117 354l1 9M118 373l0 -10M118 373l1 3M119 378l0 -2M119 378l1 1 3 0M123 380l0 -1M123 380l418 0"/>
<path stroke="blue" d="M541 380l0 -1M541 380l5 0 0 -20 1 -3 0 -27 1 -3 0 -6 2 -2 1 0 1 -1 14 0 1 1 0 -1 26 0M593 320l0 -2 7 0M600 339l0 -21M600 339l1 3M601 345l0 -4 1 0 0 -2 4 0 0 -1 1 0M607 339l0 -1M607 339l26 0 0 -1M633 339l20 0M653 349l0 -10"/>
<path stroke="blue" d="M653 349l1 2 0 -1 1 0 0 -1 157 0M812 350l0 -1M812 350l1 0 0 -1 17 0 1 1 0 -1 87 0M918 360l0 -14M918 360l1 3M919 378l0 -15M919 378l1 3 1 0 0 -1 41 0 0 -1 1 0M963 380l0 -1M963 380l11 0"/>
<path stroke="#FFA500" d="M462 39l46 0"/>
<text stroke="none" fill="white" font-size="16" x="518" y="48">
x1.vsampled_p-x1.vsampled_n
</text>
<path stroke="#FFA500" d="M50 431l67 0 0 -6 1 -17 0 -23 1 -7 0 -3 1 -3 2 -2 418 0M540 371l0 -1 6 0M546 390l0 -20M546 390l1 3M547 420l0 -27M547 420l1 3M548 429l0 -6M548 429l2 2 1 0 1 1 14 0 1 -1M567 432l0 -1M567 432l7 0M574 453l0 -21M574 453l1 4"/>
<path stroke="#FFA500" d="M575 470l0 -13M575 470l1 1M576 472l0 -1M576 472l4 0M580 473l0 -1 13 0 0 -1M593 472l7 0 0 -20 1 -3 0 -3M601 449l1 1M602 451l0 -1M602 451l1 1 16 0 0 -1M619 452l6 0 0 -9 1 -1 0 -6 1 -1 0 -1 26 0 0 -10 1 -2M654 423l0 -1"/>
<path stroke="#FFA500" d="M654 423l1 0M655 424l0 -1M655 424l24 0M679 429l0 -5M679 429l1 0M680 430l0 -1 26 0M706 432l0 -3M706 432l1 0 0 -1 1 1 17 0 0 -1M725 432l7 0 0 -3 27 0M759 432l0 -3M759 431l19 0 0 -1M778 431l8 0M786 432l0 -1 26 0 1 -1M813 431l0 -1"/>
<path stroke="#FFA500" d="M813 431l25 0M838 432l0 -1 80 0M918 434l0 -19 1 -3 0 -24 1 -8 0 -4 1 -3 0 -1 1 0 0 -1 1 0 0 -1 13 0M936 371l0 -1 38 0"/>
<path stroke="green" d="M50 39l46 0"/>
<text stroke="none" fill="white" font-size="16" x="106" y="48">
x1.sw_sample-2
</text>
<path stroke="green" d="M50 613l1 0 1 -9 0 -21 1 -21M53 581l0 -25M53 581l1 29M54 613l0 -3M54 613l63 0M117 620l0 -172M117 449l422 0M539 614l0 -171M539 613l422 0M961 618l0 -170 1 1 12 0"/>
<path stroke="#FFC0C5" d="M462 55l46 0"/>
<text stroke="none" fill="white" font-size="16" x="518" y="64">
x1.comp_out_p+2
</text>
<path stroke="#FFC0C5" d="M50 249l1 0 1 -9 0 -22 1 -18 0 -4M53 198l1 5M54 249l0 -46M54 249l487 0 1 1 0 -166M542 85l13 0M555 250l0 -168M555 249l13 0M568 250l0 -167M568 85l13 0 0 -9 1 162M582 249l0 -11M582 249l91 0M673 251l0 -2M673 251l1 -104 0 -64"/>
<path stroke="#FFC0C5" d="M674 85l13 0M687 250l0 -171M687 249l13 0 0 -165M700 85l13 0 0 -9 1 136M714 250l0 -38M714 249l39 0 0 -165M753 85l13 0M766 250l0 -170M766 249l14 0 0 -165M780 85l13 0M793 249l0 -172M793 249l41 0 0 -165M834 85l11 0 0 -10"/>
<path stroke="#FFC0C5" d="M845 75l1 143M846 249l0 -31M846 249l91 0 1 -46 0 -119M938 85l13 0M951 250l0 -170M951 249l23 0"/>
<path stroke="#A52A2A" d="M50 55l46 0"/>
<text stroke="none" fill="white" font-size="16" x="106" y="64">
x1.comp_out_n-2
</text>
<path stroke="#A52A2A" d="M50 613l1 0 1 -9 0 -22 1 -19M53 564l0 -3M53 564l1 6M54 613l0 -43M54 613l540 0M594 617l0 -170M594 449l14 0M608 614l0 -168M608 613l13 0M621 614l0 -166M621 449l13 0M634 613l0 -166M634 613l13 0M647 615l0 -168M647 449l14 0"/>
<path stroke="#A52A2A" d="M661 613l0 -174M661 613l66 0 1 -158 0 -7M728 449l12 0M740 613l0 -172M740 613l67 0 0 -164 12 0M819 613l0 -171M819 613l41 0 0 -164 12 0M872 613l0 -174M872 613l14 0 0 -158 1 -7M887 449l0 -1M887 449l11 0M898 613l0 -174M898 613l15 0"/>
<path stroke="#A52A2A" d="M913 613l0 -165M913 449l12 0M925 614l0 -173M925 613l49 0"/>
</svg>
