<?xml version="1.0" standalone="yes"?>
<!DOCTYPE svg PUBLIC "-//W3C//DTD SVG 1.1//EN"
 "http://www.w3.org/Graphics/SVG/1.1/DTD/svg11.dtd">
<svg xmlns="http://www.w3.org/2000/svg" version="1.1"
  width="100%" height="100%" viewBox="0 0 1024 768"
  style="fill: none; font-family: Helvetica;
 font: Helvetica;
">

<!-- Creator: NGspice -->

<rect x="0" y="0" width="1024" height="768" fill="black" stroke="none"/>
<text stroke="none" fill="white" font-size="16" x="358" y="752">
time
</text>
<text stroke="none" fill="white" font-size="16" x="10" y="16">
tran1: run1403_vin0.333543
</text>
<path stroke="white" d="M50 704l0 -637"/>
<text stroke="none" fill="white" font-size="16" x="35" y="728">
0.0
</text>
<path stroke="white" stroke-dasharray="1,2" d="M182 704l0 -637"/>
<text stroke="none" fill="white" font-size="16" x="157" y="728">
100.0
</text>
<path stroke="white" stroke-dasharray="1,2" d="M314 704l0 -637"/>
<text stroke="none" fill="white" font-size="16" x="289" y="728">
200.0
</text>
<path stroke="white" stroke-dasharray="1,2" d="M446 704l0 -637"/>
<text stroke="none" fill="white" font-size="16" x="421" y="728">
300.0
</text>
<path stroke="white" stroke-dasharray="1,2" d="M578 704l0 -637"/>
<text stroke="none" fill="white" font-size="16" x="553" y="728">
400.0
</text>
<path stroke="white" stroke-dasharray="1,2" d="M710 704l0 -637"/>
<text stroke="none" fill="white" font-size="16" x="685" y="728">
500.0
</text>
<path stroke="white" stroke-dasharray="1,2" d="M842 704l0 -637"/>
<text stroke="none" fill="white" font-size="16" x="817" y="728">
600.0
</text>
<path stroke="white" stroke-dasharray="1,2" d="M974 704l0 -637"/>
<text stroke="none" fill="white" font-size="16" x="949" y="728">
700.0
</text>
<text stroke="none" fill="white" font-size="16" x="614" y="752">
ns
</text>
<path stroke="white" stroke-dasharray="1,2" d="M50 704l924 0"/>
<text stroke="none" fill="white" font-size="16" x="8" y="712">
-3.0
</text>
<path stroke="white" stroke-dasharray="1,2" d="M50 613l924 0"/>
<text stroke="none" fill="white" font-size="16" x="8" y="621">
-2.0
</text>
<path stroke="white" stroke-dasharray="1,2" d="M50 522l924 0"/>
<text stroke="none" fill="white" font-size="16" x="8" y="530">
-1.0
</text>
<path stroke="white" d="M50 431l924 0"/>
<text stroke="none" fill="white" font-size="16" x="18" y="439">
0.0
</text>
<path stroke="white" stroke-dasharray="1,2" d="M50 340l924 0"/>
<text stroke="none" fill="white" font-size="16" x="18" y="348">
1.0
</text>
<path stroke="white" stroke-dasharray="1,2" d="M50 249l924 0"/>
<text stroke="none" fill="white" font-size="16" x="18" y="257">
2.0
</text>
<path stroke="white" stroke-dasharray="1,2" d="M50 158l924 0"/>
<text stroke="none" fill="white" font-size="16" x="18" y="166">
3.0
</text>
<path stroke="white" stroke-dasharray="1,2" d="M50 67l924 0"/>
<text stroke="none" fill="white" font-size="16" x="18" y="75">
4.0
</text>
<text stroke="none" fill="white" font-size="16" x="10" y="32">
     
</text>
<path stroke="red" d="M462 23l46 0"/>
<text stroke="none" fill="white" font-size="16" x="518" y="32">
x1.vsampled_p
</text>
<path stroke="red" d="M50 431l1 0 1 -7 0 -15 1 -15 0 -4 1 1M54 415l0 -40 1 -4 0 -14 1 -3 0 -2 2 -2 1 0 1 -1 4 0M64 350l0 -1M64 350l4 0 1 -1 48 0 0 -1 1 -8 0 -13 1 -4 0 -2 2 -2 419 0M540 320l0 -1 14 0 0 -1M554 319l13 0M567 320l0 -1 26 0M593 320l0 -1"/>
<path stroke="red" d="M593 319l7 0M600 334l0 -15M600 334l1 4M601 342l0 -4M601 342l1 -1 0 -1 2 0 0 -1 15 0M619 340l0 -1M619 340l1 0 0 -1 26 0M646 340l0 -1 7 0M653 348l0 -9M653 348l1 2M654 351l0 -1M654 351l1 -1 4 0 0 -1M659 350l27 0 0 -1M686 350l26 0"/>
<path stroke="red" d="M712 350l0 -1M712 350l20 0 0 -3 19 0M751 348l0 -1M751 348l1 0 0 -1 7 0M759 350l0 -3M759 349l27 0M786 350l0 -1 18 0M804 350l0 -1 27 0M831 350l0 -1 87 0M918 350l0 -23 1 -3 0 -5 1 -1 1 1 15 0M936 320l0 -1 38 0"/>
<path stroke="blue" d="M50 23l46 0"/>
<text stroke="none" fill="white" font-size="16" x="106" y="32">
x1.vsampled_n
</text>
<path stroke="blue" d="M50 431l1 0 1 -7 0 -15 1 -14 0 -5 1 2M54 415l0 -40 1 -4 0 -14 1 -3 0 -2 2 -2 1 0 1 -1 4 0M64 350l0 -1M64 350l4 0 1 -1 48 0M117 354l0 -5M117 354l1 9M118 373l0 -10M118 373l1 3M119 378l0 -2M119 378l1 1 419 0M539 380l0 -1M539 380l1 0"/>
<path stroke="blue" d="M540 380l1 -1M541 380l0 -1M541 380l5 0 0 -35 1 -5 0 -13 1 -3 0 -3 1 -1 0 -1 1 0 1 -1 15 0 1 1 0 -1 7 0M574 345l0 -27M574 345l1 4M575 361l0 -12M575 361l1 0 1 -1 0 -1 48 0 0 -11 1 -1 0 -6 20 0M646 342l0 -1 26 0M672 342l0 -1"/>
<path stroke="blue" d="M672 341l7 0M679 348l0 -7M679 348l1 0M680 349l0 -2 1 0 0 -1 17 0 1 1 0 -1 7 0M706 350l0 -4M706 350l1 0 0 -1 105 0M812 350l0 -1M812 350l1 0 0 -1 18 0M831 350l0 -1 26 0M857 350l0 -1 26 0M883 350l0 -1M883 350l1 -1 26 0M910 350l0 -1"/>
<path stroke="blue" d="M910 349l8 0M918 381l0 -33M918 381l1 4 0 -3 1 -1 0 -1 30 0 0 -1M950 380l11 0 1 -1 12 0"/>
<path stroke="#FFA500" d="M462 39l46 0"/>
<text stroke="none" fill="white" font-size="16" x="518" y="48">
x1.vsampled_p-x1.vsampled_n
</text>
<path stroke="#FFA500" d="M50 431l67 0 0 -6 1 -17 0 -23 1 -7 0 -3 1 -3 2 -2 418 0M540 371l0 -1 1 1 0 -1 5 0M546 405l0 -35M546 405l1 5M547 423l0 -13M547 423l1 3M548 429l0 -3M548 429l1 1M549 431l0 -1M549 431l1 0 1 1 16 0 0 -1M567 432l7 0 0 -27"/>
<path stroke="#FFA500" d="M574 405l1 -4 0 -12 1 0 1 1M577 391l0 -1M577 391l3 0 0 -1M580 391l13 0M593 392l0 -1 7 0M600 406l0 -15M600 406l1 4M601 414l0 -4M601 414l1 -1 0 -1 1 -1 16 0M619 412l0 -1 6 0M625 422l0 -11M625 422l1 2M626 429l0 -5M626 429l27 0"/>
<path stroke="#FFA500" d="M653 437l0 -8M653 437l1 3M654 441l0 -1 1 0 1 -1 3 0M659 440l0 -1 20 0 0 -6 1 -1M680 434l0 -2M680 434l26 0 0 -4 1 1M707 432l0 -1M707 432l25 0 0 -3 20 0M752 430l0 -1 7 0M759 432l0 -3M759 431l27 0M786 432l0 -1 26 0 0 -1"/>
<path stroke="#FFA500" d="M812 430l1 0M813 431l0 -1M813 431l25 0 0 -1M838 431l80 0M918 433l0 -56 1 -7 0 -3M919 368l2 2 15 0M936 371l0 -1 38 0"/>
<path stroke="green" d="M50 39l46 0"/>
<text stroke="none" fill="white" font-size="16" x="106" y="48">
x1.sw_sample-2
</text>
<path stroke="green" d="M50 613l1 0 1 -9 0 -21 1 -21M53 581l0 -25M53 581l1 29M54 613l0 -3M54 613l63 0M117 620l0 -172M117 449l422 0M539 614l0 -171M539 613l422 0M961 618l0 -170 1 1 12 0"/>
<path stroke="#FFC0C5" d="M462 55l46 0"/>
<text stroke="none" fill="white" font-size="16" x="518" y="64">
x1.comp_out_p+2
</text>
<path stroke="#FFC0C5" d="M50 249l1 0 1 -9 0 -22 1 -18 0 -4M53 198l1 5M54 249l0 -46M54 249l487 0 1 1 0 -166M542 85l13 0M555 249l0 -167M555 249l39 0M594 250l0 -166M594 85l14 0M608 250l0 -169M608 249l13 0M621 250l0 -166M621 85l13 0M634 249l0 -167"/>
<path stroke="#FFC0C5" d="M634 249l13 0 0 -165M647 85l14 0M661 249l0 -173M661 249l92 0 0 -165M753 85l13 0M766 249l0 -169M766 249l14 0 0 -164 1 -1M781 85l0 -1M781 85l12 0M793 250l0 -174M793 249l66 0 1 -157 0 -8M860 85l12 0M872 249l0 -167M872 249l14 0"/>
<path stroke="#FFC0C5" d="M886 249l0 -164 12 0M898 249l0 -167M898 249l15 0 0 -165M913 85l12 0M925 250l0 -167M925 249l12 0 1 -45 0 -120M938 85l13 0M951 250l0 -170M951 249l23 0"/>
<path stroke="#A52A2A" d="M50 55l46 0"/>
<text stroke="none" fill="white" font-size="16" x="106" y="64">
x1.comp_out_n-2
</text>
<path stroke="#A52A2A" d="M50 613l1 0 1 -9 0 -22 1 -19M53 564l0 -3M53 564l1 6M54 613l0 -43M54 613l514 0M568 614l0 -167M568 449l13 0 0 -9 1 163M582 613l0 -10M582 613l12 0M594 614l0 -1 27 0M621 614l0 -1 52 0M673 614l0 -96 1 -62 0 -9M674 449l13 0"/>
<path stroke="#A52A2A" d="M687 613l0 -173M687 613l13 0M700 617l0 -170M700 449l13 0 0 -4 1 36M714 613l0 -132M714 613l13 0 1 -157 0 -8M728 449l12 0M740 613l0 -172M740 613l67 0 0 -164 12 0M819 613l0 -166M819 613l15 0 0 -165M834 449l11 0 0 -10 1 154"/>
<path stroke="#A52A2A" d="M846 613l0 -20M846 613l128 0"/>
</svg>
