<?xml version="1.0" standalone="yes"?>
<!DOCTYPE svg PUBLIC "-//W3C//DTD SVG 1.1//EN"
 "http://www.w3.org/Graphics/SVG/1.1/DTD/svg11.dtd">
<svg xmlns="http://www.w3.org/2000/svg" version="1.1"
  width="100%" height="100%" viewBox="0 0 1024 768"
  style="fill: none; font-family: Helvetica;
 font: Helvetica;
">

<!-- Creator: NGspice -->

<rect x="0" y="0" width="1024" height="768" fill="black" stroke="none"/>
<text stroke="none" fill="white" font-size="16" x="358" y="752">
time
</text>
<text stroke="none" fill="white" font-size="16" x="10" y="16">
tran1: run1004_vin-0.0171399
</text>
<path stroke="white" d="M50 704l0 -637"/>
<text stroke="none" fill="white" font-size="16" x="35" y="728">
0.0
</text>
<path stroke="white" stroke-dasharray="1,2" d="M182 704l0 -637"/>
<text stroke="none" fill="white" font-size="16" x="157" y="728">
100.0
</text>
<path stroke="white" stroke-dasharray="1,2" d="M314 704l0 -637"/>
<text stroke="none" fill="white" font-size="16" x="289" y="728">
200.0
</text>
<path stroke="white" stroke-dasharray="1,2" d="M446 704l0 -637"/>
<text stroke="none" fill="white" font-size="16" x="421" y="728">
300.0
</text>
<path stroke="white" stroke-dasharray="1,2" d="M578 704l0 -637"/>
<text stroke="none" fill="white" font-size="16" x="553" y="728">
400.0
</text>
<path stroke="white" stroke-dasharray="1,2" d="M710 704l0 -637"/>
<text stroke="none" fill="white" font-size="16" x="685" y="728">
500.0
</text>
<path stroke="white" stroke-dasharray="1,2" d="M842 704l0 -637"/>
<text stroke="none" fill="white" font-size="16" x="817" y="728">
600.0
</text>
<path stroke="white" stroke-dasharray="1,2" d="M974 704l0 -637"/>
<text stroke="none" fill="white" font-size="16" x="949" y="728">
700.0
</text>
<text stroke="none" fill="white" font-size="16" x="614" y="752">
ns
</text>
<path stroke="white" stroke-dasharray="1,2" d="M50 704l924 0"/>
<text stroke="none" fill="white" font-size="16" x="8" y="712">
-3.0
</text>
<path stroke="white" stroke-dasharray="1,2" d="M50 613l924 0"/>
<text stroke="none" fill="white" font-size="16" x="8" y="621">
-2.0
</text>
<path stroke="white" stroke-dasharray="1,2" d="M50 522l924 0"/>
<text stroke="none" fill="white" font-size="16" x="8" y="530">
-1.0
</text>
<path stroke="white" d="M50 431l924 0"/>
<text stroke="none" fill="white" font-size="16" x="18" y="439">
0.0
</text>
<path stroke="white" stroke-dasharray="1,2" d="M50 340l924 0"/>
<text stroke="none" fill="white" font-size="16" x="18" y="348">
1.0
</text>
<path stroke="white" stroke-dasharray="1,2" d="M50 249l924 0"/>
<text stroke="none" fill="white" font-size="16" x="18" y="257">
2.0
</text>
<path stroke="white" stroke-dasharray="1,2" d="M50 158l924 0"/>
<text stroke="none" fill="white" font-size="16" x="18" y="166">
3.0
</text>
<path stroke="white" stroke-dasharray="1,2" d="M50 67l924 0"/>
<text stroke="none" fill="white" font-size="16" x="18" y="75">
4.0
</text>
<text stroke="none" fill="white" font-size="16" x="10" y="32">
     
</text>
<path stroke="red" d="M462 23l46 0"/>
<text stroke="none" fill="white" font-size="16" x="518" y="32">
x1.vsampled_p
</text>
<path stroke="red" d="M50 431l1 0 1 -7 0 -15 1 -14 0 -5 1 1M54 415l0 -39 1 -5 0 -15 1 -3 0 -2 1 -1 2 0 1 -1 3 0 1 1 4 0 1 -1 48 0 1 1 1 0M119 351l0 -1M119 351l428 0 0 -44 1 -8 0 -4 1 -2 0 -2 1 0 0 -1 4 0 0 -1 12 0 1 1M567 291l0 -1 7 0M574 319l0 -29"/>
<path stroke="red" d="M574 319l1 7M575 332l0 -6M575 332l1 0 1 -1 3 0 0 -1 13 0M593 331l0 -1 7 0M600 346l0 -16M600 346l1 3M601 354l0 -5M601 353l1 -1 0 -1 24 0 0 -16 1 -1 0 -1 19 0M646 334l0 -1 7 0M653 344l0 -11M653 344l1 0M654 345l0 -1 1 0 0 -1"/>
<path stroke="red" d="M655 343l17 0M672 344l0 -1 7 0M679 349l0 -6M679 349l1 1 0 -1 1 -1 18 0M699 349l0 -1 26 0M725 349l0 -1 26 0M751 349l0 -1 27 0M778 349l0 -1 7 0M785 350l0 -2M785 350l1 0 0 -1 26 0M812 350l0 -1M812 350l1 0 0 -1 18 0M831 350l0 -1"/>
<path stroke="red" d="M831 349l26 0M857 350l0 -1 26 0M883 350l0 -1 27 0M910 350l0 -1 7 0 0 -1M917 349l1 1M918 352l0 -2M918 351l56 0"/>
<path stroke="blue" d="M50 23l46 0"/>
<text stroke="none" fill="white" font-size="16" x="106" y="32">
x1.vsampled_n
</text>
<path stroke="blue" d="M50 431l1 0 1 -7 0 -15 1 -15 0 -4 1 1M54 415l0 -39 1 -5 0 -15 1 -3 0 -2 1 -1 2 0 1 -1 3 0 1 1 4 0 1 -1 49 0 0 -1 436 0 0 -1M554 348l26 0 0 -1M580 348l53 0 0 -1M633 348l73 0M706 351l0 -3M706 351l1 0 0 -1 18 0M725 351l0 -1"/>
<path stroke="blue" d="M725 350l6 0 0 -2 1 -1M732 348l0 -1M732 348l27 0M759 350l0 -2M759 349l19 0M778 350l0 -1 26 0M804 350l0 -1 26 0 1 1 0 -1 86 0M917 350l0 -1M917 350l1 0 0 -3M918 348l44 0 0 -1 1 0M963 348l0 -1M963 348l11 0"/>
<path stroke="#FFA500" d="M462 39l46 0"/>
<text stroke="none" fill="white" font-size="16" x="518" y="48">
x1.vsampled_p-x1.vsampled_n
</text>
<path stroke="#FFA500" d="M50 431l67 0 1 1M118 433l0 -1M118 433l1 1 428 0 0 -44 1 -7 0 -5 1 -2 0 -2 1 0 0 -1 4 0 0 -1M554 373l13 0M567 374l0 -1 7 0M574 402l0 -29M574 402l1 7M575 415l0 -6M575 415l2 0 0 -1 3 0 0 -1M580 414l13 0 0 -1M593 414l7 0"/>
<path stroke="#FFA500" d="M600 429l0 -16M600 429l1 3M601 437l0 -5M601 436l2 -2 23 0 0 -16 1 -1 0 -1 19 0M646 417l0 -1 7 0M653 427l0 -11M653 427l1 1 0 -1 2 0 0 -1 16 0M672 427l0 -1M672 427l1 0 0 -1 6 0M679 432l0 -6M679 432l1 1M680 434l0 -2 26 0"/>
<path stroke="#FFA500" d="M706 432l0 -4 1 0M707 429l0 -1M707 429l24 0M731 432l0 -3M731 432l1 0 0 -1 27 0 0 -2M759 430l26 0M785 431l0 -1M785 431l28 0M813 432l0 -1 25 0M838 432l0 -1M838 432l1 0 0 -1 78 0 0 -1 1 1M918 435l0 -4M918 435l1 -1 55 0"/>
<path stroke="green" d="M50 39l46 0"/>
<text stroke="none" fill="white" font-size="16" x="106" y="48">
x1.sw_sample-2
</text>
<path stroke="green" d="M50 613l1 0 1 -9 0 -21 1 -21M53 582l0 -26M53 582l1 28M54 613l0 -3M54 613l63 0M117 620l0 -172M117 449l422 0M539 614l0 -171M539 613l422 0M961 618l0 -170 1 1 12 0"/>
<path stroke="#FFC0C5" d="M462 55l46 0"/>
<text stroke="none" fill="white" font-size="16" x="518" y="64">
x1.comp_out_p+2
</text>
<path stroke="#FFC0C5" d="M50 249l1 0 1 -9 0 -22 1 -18 0 -4M53 198l1 5M54 249l0 -46M54 249l514 0M568 250l0 -167M568 85l13 0 0 -8 1 153M582 249l0 -19M582 249l12 0M594 250l0 -167M594 85l14 0M608 249l0 -172M608 249l39 0 0 -165M647 85l14 0M661 250l0 -168"/>
<path stroke="#FFC0C5" d="M661 249l12 0M673 250l0 -1M673 250l1 -64 0 -102M674 85l13 0M687 250l0 -171M687 249l40 0 0 -165M727 85l13 0M740 249l0 -171M740 249l40 0 0 -165M780 85l13 0M793 249l0 -174M793 249l14 0 0 -165M807 85l12 0M819 249l0 -171"/>
<path stroke="#FFC0C5" d="M819 249l15 0 0 -164 11 0 0 -10 1 142M846 249l0 -32M846 249l128 0"/>
<path stroke="#A52A2A" d="M50 55l46 0"/>
<text stroke="none" fill="white" font-size="16" x="106" y="64">
x1.comp_out_n-2
</text>
<path stroke="#A52A2A" d="M50 613l1 0 1 -9 0 -22 1 -19M53 564l0 -3M53 564l1 6M54 613l0 -43M54 613l488 0 0 -165M542 449l13 0M555 613l0 -171M555 613l66 0 0 -166M621 449l13 0M634 613l0 -172M634 613l40 0M674 614l0 -1 26 0 0 -149 1 -16M701 449l0 -1"/>
<path stroke="#A52A2A" d="M701 449l12 0 0 -9 1 161M714 613l0 -12M714 613l39 0 0 -147 1 -17 0 -1M754 449l12 0M766 613l0 -173M766 613l94 0 0 -165M860 449l12 0M872 613l0 -166M872 613l14 0 0 -157 1 -8M887 449l0 -1M887 449l11 0M898 613l0 -166M898 613l14 0"/>
<path stroke="#A52A2A" d="M912 613l1 -157 0 -8M913 449l12 0M925 613l0 -171M925 613l13 0 0 -165M938 449l13 0M951 613l0 -174M951 613l23 0"/>
</svg>
