<?xml version="1.0" standalone="yes"?>
<!DOCTYPE svg PUBLIC "-//W3C//DTD SVG 1.1//EN"
 "http://www.w3.org/Graphics/SVG/1.1/DTD/svg11.dtd">
<svg xmlns="http://www.w3.org/2000/svg" version="1.1"
  width="100%" height="100%" viewBox="0 0 1024 768"
  style="fill: none; font-family: Helvetica;
 font: Helvetica;
">

<!-- Creator: NGspice -->

<rect x="0" y="0" width="1024" height="768" fill="black" stroke="none"/>
<text stroke="none" fill="white" font-size="16" x="358" y="752">
time
</text>
<text stroke="none" fill="white" font-size="16" x="10" y="16">
tran1: run1001_vin-0.0197766
</text>
<path stroke="white" d="M50 704l0 -637"/>
<text stroke="none" fill="white" font-size="16" x="35" y="728">
0.0
</text>
<path stroke="white" stroke-dasharray="1,2" d="M182 704l0 -637"/>
<text stroke="none" fill="white" font-size="16" x="157" y="728">
100.0
</text>
<path stroke="white" stroke-dasharray="1,2" d="M314 704l0 -637"/>
<text stroke="none" fill="white" font-size="16" x="289" y="728">
200.0
</text>
<path stroke="white" stroke-dasharray="1,2" d="M446 704l0 -637"/>
<text stroke="none" fill="white" font-size="16" x="421" y="728">
300.0
</text>
<path stroke="white" stroke-dasharray="1,2" d="M578 704l0 -637"/>
<text stroke="none" fill="white" font-size="16" x="553" y="728">
400.0
</text>
<path stroke="white" stroke-dasharray="1,2" d="M710 704l0 -637"/>
<text stroke="none" fill="white" font-size="16" x="685" y="728">
500.0
</text>
<path stroke="white" stroke-dasharray="1,2" d="M842 704l0 -637"/>
<text stroke="none" fill="white" font-size="16" x="817" y="728">
600.0
</text>
<path stroke="white" stroke-dasharray="1,2" d="M974 704l0 -637"/>
<text stroke="none" fill="white" font-size="16" x="949" y="728">
700.0
</text>
<text stroke="none" fill="white" font-size="16" x="614" y="752">
ns
</text>
<path stroke="white" stroke-dasharray="1,2" d="M50 704l924 0"/>
<text stroke="none" fill="white" font-size="16" x="8" y="712">
-2.5
</text>
<path stroke="white" stroke-dasharray="1,2" d="M50 655l924 0"/>
<text stroke="none" fill="white" font-size="16" x="8" y="663">
-2.0
</text>
<path stroke="white" stroke-dasharray="1,2" d="M50 606l924 0"/>
<text stroke="none" fill="white" font-size="16" x="8" y="614">
-1.5
</text>
<path stroke="white" stroke-dasharray="1,2" d="M50 557l924 0"/>
<text stroke="none" fill="white" font-size="16" x="8" y="565">
-1.0
</text>
<path stroke="white" stroke-dasharray="1,2" d="M50 508l924 0"/>
<text stroke="none" fill="white" font-size="16" x="8" y="516">
-0.5
</text>
<path stroke="white" d="M50 459l924 0"/>
<text stroke="none" fill="white" font-size="16" x="18" y="467">
0.0
</text>
<path stroke="white" stroke-dasharray="1,2" d="M50 410l924 0"/>
<text stroke="none" fill="white" font-size="16" x="18" y="418">
0.5
</text>
<path stroke="white" stroke-dasharray="1,2" d="M50 361l924 0"/>
<text stroke="none" fill="white" font-size="16" x="18" y="369">
1.0
</text>
<path stroke="white" stroke-dasharray="1,2" d="M50 312l924 0"/>
<text stroke="none" fill="white" font-size="16" x="18" y="320">
1.5
</text>
<path stroke="white" stroke-dasharray="1,2" d="M50 263l924 0"/>
<text stroke="none" fill="white" font-size="16" x="18" y="271">
2.0
</text>
<path stroke="white" stroke-dasharray="1,2" d="M50 214l924 0"/>
<text stroke="none" fill="white" font-size="16" x="18" y="222">
2.5
</text>
<path stroke="white" stroke-dasharray="1,2" d="M50 165l924 0"/>
<text stroke="none" fill="white" font-size="16" x="18" y="173">
3.0
</text>
<path stroke="white" stroke-dasharray="1,2" d="M50 116l924 0"/>
<text stroke="none" fill="white" font-size="16" x="18" y="124">
3.5
</text>
<path stroke="white" stroke-dasharray="1,2" d="M50 67l924 0"/>
<text stroke="none" fill="white" font-size="16" x="18" y="75">
4.0
</text>
<text stroke="none" fill="white" font-size="16" x="10" y="32">
     
</text>
<path stroke="red" d="M462 23l46 0"/>
<text stroke="none" fill="white" font-size="16" x="518" y="32">
x1.vsampled_p
</text>
<path stroke="red" d="M50 459l1 0 1 -7 0 -17 1 -15 0 -5 1 1M54 442l0 -42 1 -6 0 -16 1 -2 0 -3 1 -1 1 0 0 -1 59 0 1 1 1 0M119 373l0 -1M119 373l428 0 0 -46 1 -8 0 -8 1 -2 0 -1 1 0 1 -1 3 0 0 -1M554 307l13 0M567 309l0 -2 7 0M574 339l0 -32M574 339l1 8"/>
<path stroke="red" d="M575 353l0 -6M575 353l1 0 1 -1 0 -1 16 0M593 352l0 -1 7 0M600 368l0 -17M600 368l1 4M601 377l0 -5M601 375l1 -1 0 -1 24 0 0 -18 1 -1 0 -1 1 0M628 354l0 -1M628 354l5 0 0 -1M633 354l20 0M653 364l0 -10M653 364l1 2 0 -1 5 0 0 -1"/>
<path stroke="red" d="M659 365l20 0M679 371l0 -6M679 371l1 1 0 -2 19 0M699 371l0 -1 26 0M725 371l0 -1 26 0M751 371l0 -1 27 0M778 371l0 -1 7 0M785 371l0 -1M785 371l1 1 0 -1 132 0M918 374l0 -4M918 374l1 0 0 -1 55 0"/>
<path stroke="blue" d="M50 23l46 0"/>
<text stroke="none" fill="white" font-size="16" x="106" y="32">
x1.vsampled_n
</text>
<path stroke="blue" d="M50 459l1 0 1 -7 0 -17 1 -15 0 -5 1 1M54 442l0 -42 1 -6 0 -16 1 -2 0 -3 1 -1 1 0 0 -1 59 0 2 -2 421 0M540 370l0 -1 27 0M567 370l0 -1 26 0M593 370l0 -1 53 0M646 370l0 -1 60 0M706 373l0 -4M706 373l1 0 0 -1 24 0 1 -2 0 -2"/>
<path stroke="blue" d="M732 369l19 0M751 370l0 -1M751 370l1 0 0 -1 7 0M759 372l0 -3M759 371l54 0M813 372l0 -1 18 0M831 372l0 -1 7 0 0 -1 1 1 79 0M918 372l0 -3 56 0"/>
<path stroke="#FFA500" d="M462 39l46 0"/>
<text stroke="none" fill="white" font-size="16" x="518" y="48">
x1.vsampled_p-x1.vsampled_n
</text>
<path stroke="#FFA500" d="M50 459l67 0 1 2M118 462l0 -1M118 462l1 0M119 463l0 -1M119 463l428 0 0 -46 1 -8 0 -8 1 -2 0 -1 1 -1 4 0 0 -1M554 397l13 0M567 398l0 -1 7 0M574 429l0 -32M574 429l1 8M575 443l0 -6M575 443l1 0 1 -1 0 -1 23 0M600 458l0 -17"/>
<path stroke="#FFA500" d="M600 458l1 4M601 467l0 -5M601 465l1 -1 0 -1 24 0 0 -18 1 -1 0 -1 1 0 1 1 4 0 0 -1M633 444l13 0 0 -1M646 444l7 0M653 454l0 -10M653 454l1 2 0 -1 18 0 0 -1M672 455l7 0M679 461l0 -7M679 461l1 1 0 -2 26 0 0 -3 1 -1M707 457l0 -1"/>
<path stroke="#FFA500" d="M707 457l24 0M731 458l0 -1M731 458l1 1M732 461l0 -2M732 460l27 0 0 -3M759 458l26 0M785 460l0 -2M785 460l1 0 0 -1 27 0 0 -1M813 459l105 0M918 464l0 -6M918 464l1 0 0 -1 55 0"/>
<path stroke="green" d="M50 39l46 0"/>
<text stroke="none" fill="white" font-size="16" x="106" y="48">
x1.sw_sample-2
</text>
<path stroke="green" d="M50 655l1 0 1 -10 0 -23 1 -21M53 621l0 -27M53 621l1 31M54 655l0 -3M54 655l63 0M117 662l0 -184 1 1 421 0M539 656l0 -183M539 655l422 0M961 660l0 -182 1 0M962 479l0 -1 1 1 11 0"/>
<path stroke="#FFC0C5" d="M462 55l46 0"/>
<text stroke="none" fill="white" font-size="16" x="518" y="64">
x1.comp_out_p+2
</text>
<path stroke="#FFC0C5" d="M50 263l1 0 1 -10 0 -23 1 -20 0 -4M53 209l1 4M54 263l0 -50M54 263l514 0M568 264l0 -179M568 87l13 0 0 -10 1 171M582 263l0 -15M582 263l12 0M594 264l0 -179M594 86l1 1 13 0M608 264l0 -182M608 263l39 0 0 -178M647 87l14 0"/>
<path stroke="#FFC0C5" d="M661 264l0 -181M661 263l12 0M673 264l0 -1M673 264l1 -47 0 -132M674 87l13 0M687 263l0 -185M687 263l40 0 0 -177 1 1 12 0M740 264l0 -187M740 263l40 0 0 -177M780 87l13 0M793 263l0 -179M793 263l41 0 0 -177M834 87l11 0 0 -3"/>
<path stroke="#FFC0C5" d="M845 87l1 161M846 263l0 -15M846 263l128 0"/>
<path stroke="#A52A2A" d="M50 55l46 0"/>
<text stroke="none" fill="white" font-size="16" x="106" y="64">
x1.comp_out_n-2
</text>
<path stroke="#A52A2A" d="M50 655l1 0 1 -10 0 -24 1 -20M53 602l0 -3M53 602l1 7M54 655l0 -46M54 655l488 0M542 659l0 -182M542 479l13 0M555 655l0 -185M555 655l66 0 0 -178M621 479l13 0M634 655l0 -185M634 655l66 0 0 -178 1 1M701 479l0 -1M701 479l12 0"/>
<path stroke="#A52A2A" d="M713 479l0 -10 1 177M714 656l0 -10M714 655l39 0 0 -178 1 1M754 479l0 -1M754 479l12 0M766 656l0 -183M766 655l41 0 0 -163 1 -14M808 479l0 -1M808 479l11 0M819 655l0 -182M819 655l41 0 0 -177 1 1 11 0M872 655l0 -187M872 655l14 0"/>
<path stroke="#A52A2A" d="M886 655l1 -166 0 -11M887 479l11 0M898 655l0 -187M898 655l15 0 0 -177M913 479l12 0M925 656l0 -182M925 655l13 0M938 659l0 -182M938 479l13 0M951 655l0 -185M951 655l23 0"/>
</svg>
