<?xml version="1.0" standalone="yes"?>
<!DOCTYPE svg PUBLIC "-//W3C//DTD SVG 1.1//EN"
 "http://www.w3.org/Graphics/SVG/1.1/DTD/svg11.dtd">
<svg xmlns="http://www.w3.org/2000/svg" version="1.1"
  width="100%" height="100%" viewBox="0 0 1024 768"
  style="fill: none; font-family: Helvetica;
 font: Helvetica;
">

<!-- Creator: NGspice -->

<rect x="0" y="0" width="1024" height="768" fill="black" stroke="none"/>
<text stroke="none" fill="white" font-size="16" x="358" y="752">
time
</text>
<text stroke="none" fill="white" font-size="16" x="10" y="16">
tran1: run55_vin-0.851221
</text>
<path stroke="white" d="M50 704l0 -637"/>
<text stroke="none" fill="white" font-size="16" x="35" y="728">
0.0
</text>
<path stroke="white" stroke-dasharray="1,2" d="M182 704l0 -637"/>
<text stroke="none" fill="white" font-size="16" x="157" y="728">
100.0
</text>
<path stroke="white" stroke-dasharray="1,2" d="M314 704l0 -637"/>
<text stroke="none" fill="white" font-size="16" x="289" y="728">
200.0
</text>
<path stroke="white" stroke-dasharray="1,2" d="M446 704l0 -637"/>
<text stroke="none" fill="white" font-size="16" x="421" y="728">
300.0
</text>
<path stroke="white" stroke-dasharray="1,2" d="M578 704l0 -637"/>
<text stroke="none" fill="white" font-size="16" x="553" y="728">
400.0
</text>
<path stroke="white" stroke-dasharray="1,2" d="M710 704l0 -637"/>
<text stroke="none" fill="white" font-size="16" x="685" y="728">
500.0
</text>
<path stroke="white" stroke-dasharray="1,2" d="M842 704l0 -637"/>
<text stroke="none" fill="white" font-size="16" x="817" y="728">
600.0
</text>
<path stroke="white" stroke-dasharray="1,2" d="M974 704l0 -637"/>
<text stroke="none" fill="white" font-size="16" x="949" y="728">
700.0
</text>
<text stroke="none" fill="white" font-size="16" x="614" y="752">
ns
</text>
<path stroke="white" stroke-dasharray="1,2" d="M50 704l924 0"/>
<text stroke="none" fill="white" font-size="16" x="8" y="712">
-3.0
</text>
<path stroke="white" stroke-dasharray="1,2" d="M50 613l924 0"/>
<text stroke="none" fill="white" font-size="16" x="8" y="621">
-2.0
</text>
<path stroke="white" stroke-dasharray="1,2" d="M50 522l924 0"/>
<text stroke="none" fill="white" font-size="16" x="8" y="530">
-1.0
</text>
<path stroke="white" d="M50 431l924 0"/>
<text stroke="none" fill="white" font-size="16" x="18" y="439">
0.0
</text>
<path stroke="white" stroke-dasharray="1,2" d="M50 340l924 0"/>
<text stroke="none" fill="white" font-size="16" x="18" y="348">
1.0
</text>
<path stroke="white" stroke-dasharray="1,2" d="M50 249l924 0"/>
<text stroke="none" fill="white" font-size="16" x="18" y="257">
2.0
</text>
<path stroke="white" stroke-dasharray="1,2" d="M50 158l924 0"/>
<text stroke="none" fill="white" font-size="16" x="18" y="166">
3.0
</text>
<path stroke="white" stroke-dasharray="1,2" d="M50 67l924 0"/>
<text stroke="none" fill="white" font-size="16" x="18" y="75">
4.0
</text>
<text stroke="none" fill="white" font-size="16" x="10" y="32">
     
</text>
<path stroke="red" d="M462 23l46 0"/>
<text stroke="none" fill="white" font-size="16" x="518" y="32">
x1.vsampled_p
</text>
<path stroke="red" d="M50 431l1 0 1 -7 0 -15 1 -14 0 -4 1 1M54 414l0 -38 1 -5 0 -13 1 -3 0 -3 1 -1 0 -1 2 0 1 -1 3 0 1 1 3 0 0 -1 50 0M117 373l0 -24M117 373l1 18M118 413l0 -22M118 413l1 3M119 422l0 -6M119 422l1 1M120 425l0 -2M120 425l1 1 2 0"/>
<path stroke="red" d="M123 426l1 1 417 0 0 -1M541 427l5 0 0 -22 1 -3 0 -26 1 -6 1 -3 0 -1 1 0 1 -1 16 0M567 366l0 -1 26 0M593 366l0 -1 26 0M619 366l0 -1 6 0 0 -12 1 -2 0 -5 1 0M627 347l0 -1M627 347l2 0 1 1 3 0 0 -1 13 0M646 348l0 -1M646 348l13 0"/>
<path stroke="red" d="M659 348l0 -1 13 0M672 348l0 -1 1 0M673 348l0 -1M673 348l13 0 0 -1 12 0 1 1 0 -1M699 348l7 0M706 352l0 -5M706 352l1 0 0 -2 18 0M725 351l0 -1 7 0 0 -4M732 347l1 1 5 0 0 -1M738 348l21 0M759 351l0 -3M759 349l19 0M778 350l0 -1"/>
<path stroke="red" d="M778 349l26 0M804 350l0 -1 9 0M813 350l0 -1 17 0 1 1 0 -1 26 0M857 350l0 -1 26 0M883 350l0 -1 27 0M910 350l0 -1 8 0M918 442l0 -93M918 442l1 1 0 -9 1 -2 0 -3 1 -1 0 -1 41 0 0 -1M962 427l12 0"/>
<path stroke="blue" d="M50 23l46 0"/>
<text stroke="none" fill="white" font-size="16" x="106" y="32">
x1.vsampled_n
</text>
<path stroke="blue" d="M50 431l1 0 1 -7 0 -16 1 -14 0 -5 1 2M54 414l0 -38 1 -5 0 -13 1 -3 0 -3 1 -1 0 -1 2 0 1 -1 3 0 1 1 4 0 1 -1 48 0 0 -1 1 -12 0 -37 1 -7 0 -11 1 -3 0 -4 2 -2 418 0M540 273l0 -1 14 0 0 -1M554 272l13 0M567 273l0 -1 7 0M574 294l0 -22"/>
<path stroke="blue" d="M574 294l1 6M575 310l0 -10M575 310l1 3 4 0 0 -1M580 313l13 0M593 314l0 -1 7 0M600 327l0 -14M600 327l1 4M601 334l0 -3M601 334l1 -1 17 0M619 334l0 -1 27 0M646 334l0 -1 6 0M652 334l0 -1M652 334l1 2M653 344l0 -8M653 344l1 0"/>
<path stroke="blue" d="M654 344l1 -1 17 0M672 344l0 -1 7 0M679 348l0 -5M679 348l1 1M680 350l0 -1 6 0 0 -1M686 349l12 0 0 -1M698 349l14 0 0 -1M712 349l13 0 0 -1M725 349l13 0 0 -1 1 0M739 349l0 -1M739 349l12 0 0 -1M751 349l14 0 0 -1M765 349l13 0"/>
<path stroke="blue" d="M778 349l0 -1M778 349l8 0M786 350l0 -1 132 0 0 -44 1 -3 0 -21 1 -2 0 -4 1 -1 0 -1 1 0 0 -1 1 0 0 -1M923 272l13 0M936 274l0 -2 14 0 0 -1M950 272l24 0"/>
<path stroke="#FFA500" d="M462 39l46 0"/>
<text stroke="none" fill="white" font-size="16" x="518" y="48">
x1.vsampled_p-x1.vsampled_n
</text>
<path stroke="#FFA500" d="M50 431l2 0M52 432l0 -1M52 432l2 0 0 -1 63 0M117 457l0 -26M117 457l1 29M118 545l0 -59M118 545l1 10M119 571l0 -16M119 571l1 5M120 582l0 -6M120 582l1 2 2 2 417 0 0 -1M540 586l1 0 0 -1M541 586l5 0 0 -22 1 -3 0 -26 1 -6"/>
<path stroke="#FFA500" d="M548 529l1 -3 0 -1 1 0 1 -1 3 0M554 525l0 -1M554 525l1 0 0 -1 11 0M566 525l0 -1 1 0 0 -1M567 524l7 0M574 525l0 -23 1 -6 0 -9 1 -3 0 -1 4 0M580 484l0 -1M580 484l13 0 0 -1 7 0 0 -14 1 -4 0 -3 1 1 23 0 0 -13 1 -1 0 -5 1 0"/>
<path stroke="#FFA500" d="M627 445l0 -1M627 445l19 0M646 446l0 -1 6 0 0 -1 1 -1 0 -8 26 0 0 -5 1 -1M680 430l0 -1M680 430l26 0M706 434l0 -4M706 434l1 0 0 -1 1 -1M708 433l0 -1M708 433l1 -1 16 0M725 433l0 -1 7 0 0 -4M732 430l19 0M751 431l0 -1 8 0"/>
<path stroke="#FFA500" d="M759 433l0 -3M759 432l6 0 0 -1M765 432l13 0 0 -1M778 432l8 0 0 -1 27 0M813 432l0 -1 25 0 0 -1M838 431l80 0M918 568l0 -137M918 568l1 4M919 584l0 -12M919 584l1 1 1 0M921 586l0 -1M921 586l15 0 0 -2M936 586l38 0"/>
<path stroke="green" d="M50 39l46 0"/>
<text stroke="none" fill="white" font-size="16" x="106" y="48">
x1.sw_sample-2
</text>
<path stroke="green" d="M50 613l1 0 1 -9 0 -21 1 -21M53 578l0 -22M53 578l1 32M54 613l0 -3M54 613l63 0M117 620l0 -172M117 449l422 0M539 614l0 -171M539 613l422 0M961 618l0 -170 1 1 12 0"/>
<path stroke="#FFC0C5" d="M462 55l46 0"/>
<text stroke="none" fill="white" font-size="16" x="518" y="64">
x1.comp_out_p+2
</text>
<path stroke="#FFC0C5" d="M50 249l1 0 1 -9 0 -22 1 -18 0 -4M53 198l1 5M54 250l0 -47M54 247l1 2 645 0 0 -165 1 1 12 0 1 -8M714 250l0 -173M714 249l39 0 0 -165 1 1 12 0M766 249l0 -167M766 249l41 0 0 -145 1 -19 0 -1M808 85l11 0M819 250l0 -172M819 249l41 0"/>
<path stroke="#FFC0C5" d="M860 249l0 -165M860 85l12 0M872 249l0 -173M872 249l14 0 1 -148 0 -17M887 85l11 0M898 249l0 -173M898 249l15 0 0 -165M913 85l12 0M925 250l0 -170M925 249l49 0"/>
<path stroke="#A52A2A" d="M50 55l46 0"/>
<text stroke="none" fill="white" font-size="16" x="106" y="64">
x1.comp_out_n-2
</text>
<path stroke="#A52A2A" d="M50 613l1 0 1 -9 0 -22 1 -19M53 564l0 -3M53 564l1 6M54 613l0 -43M54 613l488 0 0 -165M542 449l13 0M555 614l0 -167M555 613l13 0 0 -165M568 449l13 0 0 -1 1 35M582 614l0 -131M582 613l12 0M594 614l0 -167M594 449l14 0M608 614l0 -168"/>
<path stroke="#A52A2A" d="M608 613l13 0M621 614l0 -167M621 449l13 0M634 613l0 -173M634 613l13 0M647 615l0 -168M647 449l14 0M661 613l0 -171M661 613l12 0M673 614l0 -1M673 614l1 -59 0 -108M674 449l13 0M687 613l0 -171M687 613l40 0 0 -165 1 1 12 0"/>
<path stroke="#A52A2A" d="M740 614l0 -170M740 613l40 0M780 614l0 -166M780 449l13 0M793 613l0 -174M793 613l41 0 0 -164 11 0 0 -10 1 153M846 613l0 -21M846 613l91 0M937 614l0 -1M937 614l1 -62 0 -104M938 449l13 0M951 613l0 -173M951 613l23 0"/>
</svg>
