<?xml version="1.0" standalone="yes"?>
<!DOCTYPE svg PUBLIC "-//W3C//DTD SVG 1.1//EN"
 "http://www.w3.org/Graphics/SVG/1.1/DTD/svg11.dtd">
<svg xmlns="http://www.w3.org/2000/svg" version="1.1"
  width="100%" height="100%" viewBox="0 0 1024 768"
  style="fill: none; font-family: Helvetica;
 font: Helvetica;
">

<!-- Creator: NGspice -->

<rect x="0" y="0" width="1024" height="768" fill="black" stroke="none"/>
<text stroke="none" fill="white" font-size="16" x="358" y="752">
time
</text>
<text stroke="none" fill="white" font-size="16" x="10" y="16">
tran1: run65_vin0.482823
</text>
<path stroke="white" d="M50 704l0 -637"/>
<text stroke="none" fill="white" font-size="16" x="35" y="728">
0.0
</text>
<path stroke="white" stroke-dasharray="1,2" d="M182 704l0 -637"/>
<text stroke="none" fill="white" font-size="16" x="157" y="728">
100.0
</text>
<path stroke="white" stroke-dasharray="1,2" d="M314 704l0 -637"/>
<text stroke="none" fill="white" font-size="16" x="289" y="728">
200.0
</text>
<path stroke="white" stroke-dasharray="1,2" d="M446 704l0 -637"/>
<text stroke="none" fill="white" font-size="16" x="421" y="728">
300.0
</text>
<path stroke="white" stroke-dasharray="1,2" d="M578 704l0 -637"/>
<text stroke="none" fill="white" font-size="16" x="553" y="728">
400.0
</text>
<path stroke="white" stroke-dasharray="1,2" d="M710 704l0 -637"/>
<text stroke="none" fill="white" font-size="16" x="685" y="728">
500.0
</text>
<path stroke="white" stroke-dasharray="1,2" d="M842 704l0 -637"/>
<text stroke="none" fill="white" font-size="16" x="817" y="728">
600.0
</text>
<path stroke="white" stroke-dasharray="1,2" d="M974 704l0 -637"/>
<text stroke="none" fill="white" font-size="16" x="949" y="728">
700.0
</text>
<text stroke="none" fill="white" font-size="16" x="614" y="752">
ns
</text>
<path stroke="white" stroke-dasharray="1,2" d="M50 704l924 0"/>
<text stroke="none" fill="white" font-size="16" x="8" y="712">
-2.5
</text>
<path stroke="white" stroke-dasharray="1,2" d="M50 655l924 0"/>
<text stroke="none" fill="white" font-size="16" x="8" y="663">
-2.0
</text>
<path stroke="white" stroke-dasharray="1,2" d="M50 606l924 0"/>
<text stroke="none" fill="white" font-size="16" x="8" y="614">
-1.5
</text>
<path stroke="white" stroke-dasharray="1,2" d="M50 557l924 0"/>
<text stroke="none" fill="white" font-size="16" x="8" y="565">
-1.0
</text>
<path stroke="white" stroke-dasharray="1,2" d="M50 508l924 0"/>
<text stroke="none" fill="white" font-size="16" x="8" y="516">
-0.5
</text>
<path stroke="white" d="M50 459l924 0"/>
<text stroke="none" fill="white" font-size="16" x="18" y="467">
0.0
</text>
<path stroke="white" stroke-dasharray="1,2" d="M50 410l924 0"/>
<text stroke="none" fill="white" font-size="16" x="18" y="418">
0.5
</text>
<path stroke="white" stroke-dasharray="1,2" d="M50 361l924 0"/>
<text stroke="none" fill="white" font-size="16" x="18" y="369">
1.0
</text>
<path stroke="white" stroke-dasharray="1,2" d="M50 312l924 0"/>
<text stroke="none" fill="white" font-size="16" x="18" y="320">
1.5
</text>
<path stroke="white" stroke-dasharray="1,2" d="M50 263l924 0"/>
<text stroke="none" fill="white" font-size="16" x="18" y="271">
2.0
</text>
<path stroke="white" stroke-dasharray="1,2" d="M50 214l924 0"/>
<text stroke="none" fill="white" font-size="16" x="18" y="222">
2.5
</text>
<path stroke="white" stroke-dasharray="1,2" d="M50 165l924 0"/>
<text stroke="none" fill="white" font-size="16" x="18" y="173">
3.0
</text>
<path stroke="white" stroke-dasharray="1,2" d="M50 116l924 0"/>
<text stroke="none" fill="white" font-size="16" x="18" y="124">
3.5
</text>
<path stroke="white" stroke-dasharray="1,2" d="M50 67l924 0"/>
<text stroke="none" fill="white" font-size="16" x="18" y="75">
4.0
</text>
<text stroke="none" fill="white" font-size="16" x="10" y="32">
     
</text>
<path stroke="red" d="M462 23l46 0"/>
<text stroke="none" fill="white" font-size="16" x="518" y="32">
x1.vsampled_p
</text>
<path stroke="red" d="M50 459l1 0 1 -7 0 -17 1 -16 0 -5 1 2M54 441l0 -42 1 -5 0 -15 1 -2 0 -3 1 -2 1 0 0 -1 59 0 0 -1 1 -11 0 -21 1 -5 0 -6 2 -2 0 -1 3 0 1 -1 414 0M539 324l0 -1M539 324l1 0M540 325l0 -1 14 0 0 -1M554 324l13 0M567 325l0 -1 7 0"/>
<path stroke="red" d="M574 344l0 -20M574 344l1 8M575 366l0 -14M575 366l1 1M576 368l0 -1M576 368l4 0 0 -1M580 368l53 0 0 -1M633 368l73 0M706 371l0 -3M706 371l6 0 0 -1 13 0M725 371l0 -1M725 371l13 0 0 -1 13 0M751 371l0 -1M751 371l1 0 0 -1M752 371l13 0"/>
<path stroke="red" d="M765 371l0 -1 13 0M778 371l0 -1M778 371l10 0M788 372l0 -1 16 0M804 372l0 -1 27 0M831 372l0 -1 87 0 0 -10 1 -1 0 -15 1 -3 0 -10 1 -3 0 -3 1 0 0 -1 1 0 0 -1 13 0M936 325l0 -1 14 0 0 -1M950 324l12 0 0 -1 12 0"/>
<path stroke="blue" d="M50 23l46 0"/>
<text stroke="none" fill="white" font-size="16" x="106" y="32">
x1.vsampled_n
</text>
<path stroke="blue" d="M50 459l1 0 1 -7 0 -17 1 -15 0 -5 1 2M54 441l0 -42 1 -5 0 -15 1 -2 0 -3 1 -2 1 0 0 -1 59 0M117 381l0 -10M117 381l1 13M118 408l0 -14M118 408l1 3M119 415l0 -4M119 415l1 2 1 0M121 418l0 -1M121 418l419 0M540 419l0 -1 6 0M546 419l0 -24"/>
<path stroke="blue" d="M546 395l1 -3 0 -28 1 -3 0 -6 1 -1 0 -1 1 0 1 -1 3 0 0 -1M554 352l13 0M567 353l0 -1 26 0M593 353l0 -1 7 0M600 371l0 -19M600 371l1 4M601 381l0 -6M601 378l1 -2 0 -1 1 -1 16 0M619 375l0 -1M619 375l1 0 0 -1 5 0 1 -1 0 -19 2 0"/>
<path stroke="blue" d="M628 355l0 -1M628 355l5 0 0 -1M633 355l13 0M646 356l0 -1 7 0M653 367l0 -12M653 367l1 1M654 369l0 -2 1 0 0 -1 17 0M672 367l0 -1 7 0M679 372l0 -6M679 372l1 1M680 375l0 -3 6 0 0 -1 12 0 1 1 0 -1M699 372l13 0 0 -1 13 0M725 372l0 -1"/>
<path stroke="blue" d="M725 372l7 0 0 -4M732 369l19 0M751 370l0 -1 8 0M759 372l0 -3M759 371l2 0 0 -1 17 0M778 371l0 -1 26 0M804 371l0 -1 8 0M812 372l0 -2M812 371l106 0M918 378l0 -7M918 378l1 5M919 409l0 -26M919 409l1 4M920 420l0 -7M920 420l1 0"/>
<path stroke="blue" d="M921 420l0 -1 2 0 0 -1 51 0"/>
<path stroke="#FFA500" d="M462 39l46 0"/>
<text stroke="none" fill="white" font-size="16" x="518" y="48">
x1.vsampled_p-x1.vsampled_n
</text>
<path stroke="#FFA500" d="M50 459l2 0 1 -1 1 0M54 459l0 -1M54 459l63 0 0 -11 1 -23 0 -36 1 -8 0 -10 1 -3 1 -2 0 -1 2 0 0 -1 416 0M539 365l0 -1M539 365l1 0 0 -1M540 365l6 0M546 388l0 -24M546 388l1 3M547 419l0 -28M547 419l1 2M548 428l0 -7M548 428l1 1"/>
<path stroke="#FFA500" d="M549 430l0 -1M549 430l2 0M551 431l0 -1M551 431l3 0 0 -1 1 0M555 431l0 -1 2 0M557 431l0 -1M557 431l9 0 0 -1M566 431l1 0 0 -1M567 431l7 0M574 451l0 -20M574 451l1 8M575 473l0 -14M575 473l1 1M576 475l0 -1M576 475l1 0 1 -1"/>
<path stroke="#FFA500" d="M578 474l2 0M580 475l0 -1M580 475l13 0 0 -1 7 0 0 -19 1 -4 0 -5M601 449l1 2M602 452l0 -1M602 452l1 0M603 453l0 -1M603 453l3 0 0 -1 1 0M607 453l0 -1M607 453l12 0 0 -1 1 0M620 453l0 -1M620 453l6 0M626 473l0 -20M626 473l1 0"/>
<path stroke="#FFA500" d="M627 473l1 -1 18 0 0 -1M646 472l7 0 0 -12 1 -2M654 460l0 -2M654 460l1 0M655 461l0 -1M655 461l24 0 0 -6 1 -1M680 455l0 -3M680 455l26 0M706 459l0 -4M706 458l26 0M732 462l0 -4M732 461l1 0 0 -1 5 0M738 461l0 -1 21 0 0 -3"/>
<path stroke="#FFA500" d="M759 459l29 0M788 460l0 -1M788 460l24 0 0 -1 106 0M918 460l0 -18 1 -6 0 -41 1 -6 0 -19 1 -2 0 -2 1 0 0 -1 1 0 0 -1M923 365l1 0 0 -1 12 0M936 366l0 -2M936 365l14 0 0 -1 24 0"/>
<path stroke="green" d="M50 39l46 0"/>
<text stroke="none" fill="white" font-size="16" x="106" y="48">
x1.sw_sample-2
</text>
<path stroke="green" d="M50 655l1 0 1 -10 0 -23 1 -21M53 619l0 -25M53 619l1 33M54 655l0 -3M54 655l63 0M117 662l0 -184 1 0M118 479l0 -1M118 479l421 0M539 656l0 -184M539 655l422 0M961 660l0 -182 1 0M962 479l0 -1M962 479l12 0"/>
<path stroke="#FFC0C5" d="M462 55l46 0"/>
<text stroke="none" fill="white" font-size="16" x="518" y="64">
x1.comp_out_p+2
</text>
<path stroke="#FFC0C5" d="M50 263l1 0 1 -10 0 -23 1 -20 0 -4M53 209l1 4M54 263l0 -50M54 263l488 0 0 -178M542 87l13 0M555 263l0 -186M555 263l13 0M568 265l0 -180M568 87l13 0 0 -10 1 174M582 264l0 -13M582 263l39 0M621 268l0 -183M621 87l13 0M634 264l0 -182"/>
<path stroke="#FFC0C5" d="M634 263l66 0 0 -178M700 87l13 0 0 -8 1 151M714 263l0 -33M714 263l13 0 0 -162 1 -15M728 87l0 -1M728 87l12 0M740 263l0 -185M740 263l42 0 0 -177 1 0M783 87l0 -1M783 87l10 0M793 264l0 -183M793 263l67 0 1 -162 0 -15M861 87l11 0"/>
<path stroke="#FFC0C5" d="M872 263l0 -179M872 263l41 0 0 -162 1 -15M914 87l0 -1M914 87l11 0M925 263l0 -185M925 263l12 0M937 270l0 -7M937 270l1 -149 0 -36M938 87l13 0M951 264l0 -184M951 263l23 0"/>
<path stroke="#A52A2A" d="M50 55l46 0"/>
<text stroke="none" fill="white" font-size="16" x="106" y="64">
x1.comp_out_n-2
</text>
<path stroke="#A52A2A" d="M50 655l1 0 1 -10 0 -24 1 -20M53 602l0 -3M53 602l1 7M54 656l0 -47M54 654l1 1 513 0M568 656l0 -1 26 0 0 -178M594 478l1 1 13 0M608 655l0 -186M608 655l39 0M647 656l0 -179M647 479l14 0M661 656l0 -184M661 655l13 0 0 -178"/>
<path stroke="#A52A2A" d="M674 479l13 0M687 655l0 -186M687 655l66 0 0 -178M753 479l13 0M766 655l0 -187M766 655l41 0 0 -177M807 479l12 0M819 655l0 -187M819 655l14 0 1 -170 0 -7M834 479l11 0 0 -12 1 169M846 655l0 -19M846 655l40 0 1 -164 0 -13M887 479l11 0"/>
<path stroke="#A52A2A" d="M898 655l0 -188M898 655l76 0"/>
</svg>
