<?xml version="1.0" standalone="yes"?>
<!DOCTYPE svg PUBLIC "-//W3C//DTD SVG 1.1//EN"
 "http://www.w3.org/Graphics/SVG/1.1/DTD/svg11.dtd">
<svg xmlns="http://www.w3.org/2000/svg" version="1.1"
  width="100%" height="100%" viewBox="0 0 1024 768"
  style="fill: none; font-family: Helvetica;
 font: Helvetica;
">

<!-- Creator: NGspice -->

<rect x="0" y="0" width="1024" height="768" fill="black" stroke="none"/>
<text stroke="none" fill="white" font-size="16" x="358" y="752">
time
</text>
<text stroke="none" fill="white" font-size="16" x="10" y="16">
tran1: run236_vin-0.176932
</text>
<path stroke="white" d="M50 704l0 -637"/>
<text stroke="none" fill="white" font-size="16" x="35" y="728">
0.0
</text>
<path stroke="white" stroke-dasharray="1,2" d="M182 704l0 -637"/>
<text stroke="none" fill="white" font-size="16" x="157" y="728">
100.0
</text>
<path stroke="white" stroke-dasharray="1,2" d="M314 704l0 -637"/>
<text stroke="none" fill="white" font-size="16" x="289" y="728">
200.0
</text>
<path stroke="white" stroke-dasharray="1,2" d="M446 704l0 -637"/>
<text stroke="none" fill="white" font-size="16" x="421" y="728">
300.0
</text>
<path stroke="white" stroke-dasharray="1,2" d="M578 704l0 -637"/>
<text stroke="none" fill="white" font-size="16" x="553" y="728">
400.0
</text>
<path stroke="white" stroke-dasharray="1,2" d="M710 704l0 -637"/>
<text stroke="none" fill="white" font-size="16" x="685" y="728">
500.0
</text>
<path stroke="white" stroke-dasharray="1,2" d="M842 704l0 -637"/>
<text stroke="none" fill="white" font-size="16" x="817" y="728">
600.0
</text>
<path stroke="white" stroke-dasharray="1,2" d="M974 704l0 -637"/>
<text stroke="none" fill="white" font-size="16" x="949" y="728">
700.0
</text>
<text stroke="none" fill="white" font-size="16" x="614" y="752">
ns
</text>
<path stroke="white" stroke-dasharray="1,2" d="M50 704l924 0"/>
<text stroke="none" fill="white" font-size="16" x="8" y="712">
-3.0
</text>
<path stroke="white" stroke-dasharray="1,2" d="M50 613l924 0"/>
<text stroke="none" fill="white" font-size="16" x="8" y="621">
-2.0
</text>
<path stroke="white" stroke-dasharray="1,2" d="M50 522l924 0"/>
<text stroke="none" fill="white" font-size="16" x="8" y="530">
-1.0
</text>
<path stroke="white" d="M50 431l924 0"/>
<text stroke="none" fill="white" font-size="16" x="18" y="439">
0.0
</text>
<path stroke="white" stroke-dasharray="1,2" d="M50 340l924 0"/>
<text stroke="none" fill="white" font-size="16" x="18" y="348">
1.0
</text>
<path stroke="white" stroke-dasharray="1,2" d="M50 249l924 0"/>
<text stroke="none" fill="white" font-size="16" x="18" y="257">
2.0
</text>
<path stroke="white" stroke-dasharray="1,2" d="M50 158l924 0"/>
<text stroke="none" fill="white" font-size="16" x="18" y="166">
3.0
</text>
<path stroke="white" stroke-dasharray="1,2" d="M50 67l924 0"/>
<text stroke="none" fill="white" font-size="16" x="18" y="75">
4.0
</text>
<text stroke="none" fill="white" font-size="16" x="10" y="32">
     
</text>
<path stroke="red" d="M462 23l46 0"/>
<text stroke="none" fill="white" font-size="16" x="518" y="32">
x1.vsampled_p
</text>
<path stroke="red" d="M50 431l1 0 1 -7 0 -15 1 -14 0 -5 1 2M54 415l0 -39 1 -5 0 -14 1 -3 0 -2 1 -2 2 0 1 -1 4 0M64 350l0 -1M64 350l4 0 1 -1 48 0M117 351l0 -2M117 351l1 5M118 362l0 -6M118 362l1 2 1 1 420 0M540 366l0 -1 6 0 0 -26 1 -2 0 -25 1 -4"/>
<path stroke="red" d="M548 308l1 -2 0 -1 1 0 0 -1 4 0 0 -1M554 304l13 0M567 306l0 -2 7 0M574 332l0 -28M574 332l1 6M575 347l0 -9M575 347l1 0 0 -1 1 0 1 -1 101 0M679 349l0 -4M679 349l1 1M680 353l0 -3 52 0 0 -3M732 348l27 0M759 350l0 -2M759 349l54 0"/>
<path stroke="red" d="M813 350l0 -1 17 0 1 1 0 -1 86 0M917 350l0 -1M917 350l1 0M918 365l0 -18M918 365l1 2M919 368l0 -1 1 -1 0 -1 16 0M936 366l0 -1 38 0"/>
<path stroke="blue" d="M50 23l46 0"/>
<text stroke="none" fill="white" font-size="16" x="106" y="32">
x1.vsampled_n
</text>
<path stroke="blue" d="M50 431l1 0 1 -7 0 -15 1 -15 0 -4 1 1M54 415l0 -39 1 -5 0 -14 1 -3 0 -2 1 -2 2 0 1 -1 4 0M64 350l0 -1M64 350l4 0 1 -1 48 0 1 -5 0 -7 1 -2 1 -1 0 -1 420 0M540 334l0 -1 27 0M567 334l0 -1 26 0M593 334l0 -1 7 0M600 350l0 -17"/>
<path stroke="blue" d="M600 350l1 4M601 356l0 -2M601 355l1 0 0 -1 23 0 0 -9 1 -1 0 -8 7 0 0 -1M633 336l20 0M653 345l0 -9M653 345l1 2 1 -1 51 0M706 349l0 -3M706 349l6 0 0 -1 1 0M713 349l0 -1M713 349l12 0 0 -1M725 349l13 0 0 -1 2 0M740 349l0 -1"/>
<path stroke="blue" d="M740 349l11 0 0 -1M751 349l1 0 0 -1M752 349l13 0 0 -1 1 0M766 349l0 -1M766 349l12 0 0 -1M778 349l8 0M786 350l0 -1 18 0M804 350l0 -1 27 0M831 350l0 -1 26 0M857 350l0 -1 26 0M883 350l0 -1 27 0M910 350l0 -1 8 0 0 -9 1 -2 0 -4"/>
<path stroke="blue" d="M919 334l1 -1 16 0M936 334l0 -1 38 0"/>
<path stroke="#FFA500" d="M462 39l46 0"/>
<text stroke="none" fill="white" font-size="16" x="518" y="48">
x1.vsampled_p-x1.vsampled_n
</text>
<path stroke="#FFA500" d="M50 431l67 0M117 434l0 -3M117 434l1 9M118 456l0 -13M118 456l1 4 1 2M120 463l0 -1M120 463l426 0 0 -26 1 -3 0 -24 1 -4 1 -2 0 -1 1 -1 17 0M567 403l0 -1 7 0M574 429l0 -27M574 429l1 6M575 445l0 -10M575 445l1 0 0 -1 1 -1"/>
<path stroke="#FFA500" d="M577 443l16 0 0 -1M593 443l7 0 0 -17 1 -4 0 -2M601 421l1 0M602 422l0 -1M602 422l17 0M619 423l0 -1 6 0M625 431l0 -9M625 431l1 1M626 440l0 -8M626 440l27 0 0 -9 1 -2 1 1 24 0M679 434l0 -4M679 434l1 1M680 437l0 -2 26 0 0 -3"/>
<path stroke="#FFA500" d="M706 432l6 0M712 433l0 -1M712 433l13 0 0 -1 7 0 0 -3M732 430l27 0M759 433l0 -3M759 432l26 0 0 -1 1 0 0 -1M786 431l27 0M813 432l0 -1 104 0M917 432l0 -1M917 432l1 0M918 456l0 -24M918 456l1 4M919 464l0 -4M919 464l1 0 1 -1"/>
<path stroke="#FFA500" d="M921 463l53 0"/>
<path stroke="green" d="M50 39l46 0"/>
<text stroke="none" fill="white" font-size="16" x="106" y="48">
x1.sw_sample-2
</text>
<path stroke="green" d="M50 613l1 0 1 -9 0 -21 1 -21M53 581l0 -25M53 581l1 29M54 613l0 -3M54 613l63 0M117 620l0 -172M117 449l422 0M539 614l0 -171M539 613l422 0M961 618l0 -170 1 1 12 0"/>
<path stroke="#FFC0C5" d="M462 55l46 0"/>
<text stroke="none" fill="white" font-size="16" x="518" y="64">
x1.comp_out_p+2
</text>
<path stroke="#FFC0C5" d="M50 249l1 0 1 -9 0 -22 1 -18 0 -4M53 198l1 5M54 249l0 -46M54 249l514 0M568 250l0 -166M568 85l13 0M581 107l0 -25M581 107l1 133M582 250l0 -10M582 249l39 0 0 -166M621 85l13 0M634 249l0 -172M634 249l40 0 0 -166M674 85l13 0"/>
<path stroke="#FFC0C5" d="M687 249l0 -173M687 249l66 0 0 -165M753 85l13 0M766 250l0 -170M766 249l41 0 0 -157 1 -8M808 85l0 -1M808 85l11 0M819 249l0 -166M819 249l41 0 0 -165 1 1 11 0M872 249l0 -174M872 249l14 0 1 -148 0 -17M887 85l11 0M898 249l0 -174"/>
<path stroke="#FFC0C5" d="M898 249l15 0 0 -165M913 85l12 0M925 250l0 -170M925 249l49 0"/>
<path stroke="#A52A2A" d="M50 55l46 0"/>
<text stroke="none" fill="white" font-size="16" x="106" y="64">
x1.comp_out_n-2
</text>
<path stroke="#A52A2A" d="M50 613l1 0 1 -9 0 -22 1 -19M53 564l0 -3M53 564l1 6M54 613l0 -43M54 613l488 0 0 -165M542 449l13 0M555 613l0 -166M555 613l39 0M594 614l0 -167M594 449l14 0M608 613l0 -173M608 613l39 0 0 -166M647 449l14 0M661 614l0 -173"/>
<path stroke="#A52A2A" d="M661 613l39 0 0 -165M700 449l13 0 0 -9 1 165M714 613l0 -8M714 613l13 0 0 -165M727 449l13 0M740 613l0 -174M740 613l40 0 0 -165M780 449l13 0M793 613l0 -168M793 613l41 0 0 -164 11 0 0 -4 1 156M846 613l0 -12M846 613l91 0"/>
<path stroke="#A52A2A" d="M937 615l0 -2M937 615l1 -116 0 -52M938 449l13 0M951 614l0 -166M951 613l23 0"/>
</svg>
