<?xml version="1.0" standalone="yes"?>
<!DOCTYPE svg PUBLIC "-//W3C//DTD SVG 1.1//EN"
 "http://www.w3.org/Graphics/SVG/1.1/DTD/svg11.dtd">
<svg xmlns="http://www.w3.org/2000/svg" version="1.1"
  width="100%" height="100%" viewBox="0 0 1024 768"
  style="fill: none; font-family: Helvetica;
 font: Helvetica;
">

<!-- Creator: NGspice -->

<rect x="0" y="0" width="1024" height="768" fill="black" stroke="none"/>
<text stroke="none" fill="white" font-size="16" x="358" y="752">
time
</text>
<text stroke="none" fill="white" font-size="16" x="10" y="16">
tran1: run1370_vin0.304539
</text>
<path stroke="white" d="M50 704l0 -637"/>
<text stroke="none" fill="white" font-size="16" x="35" y="728">
0.0
</text>
<path stroke="white" stroke-dasharray="1,2" d="M182 704l0 -637"/>
<text stroke="none" fill="white" font-size="16" x="157" y="728">
100.0
</text>
<path stroke="white" stroke-dasharray="1,2" d="M314 704l0 -637"/>
<text stroke="none" fill="white" font-size="16" x="289" y="728">
200.0
</text>
<path stroke="white" stroke-dasharray="1,2" d="M446 704l0 -637"/>
<text stroke="none" fill="white" font-size="16" x="421" y="728">
300.0
</text>
<path stroke="white" stroke-dasharray="1,2" d="M578 704l0 -637"/>
<text stroke="none" fill="white" font-size="16" x="553" y="728">
400.0
</text>
<path stroke="white" stroke-dasharray="1,2" d="M710 704l0 -637"/>
<text stroke="none" fill="white" font-size="16" x="685" y="728">
500.0
</text>
<path stroke="white" stroke-dasharray="1,2" d="M842 704l0 -637"/>
<text stroke="none" fill="white" font-size="16" x="817" y="728">
600.0
</text>
<path stroke="white" stroke-dasharray="1,2" d="M974 704l0 -637"/>
<text stroke="none" fill="white" font-size="16" x="949" y="728">
700.0
</text>
<text stroke="none" fill="white" font-size="16" x="614" y="752">
ns
</text>
<path stroke="white" stroke-dasharray="1,2" d="M50 704l924 0"/>
<text stroke="none" fill="white" font-size="16" x="8" y="712">
-3.0
</text>
<path stroke="white" stroke-dasharray="1,2" d="M50 613l924 0"/>
<text stroke="none" fill="white" font-size="16" x="8" y="621">
-2.0
</text>
<path stroke="white" stroke-dasharray="1,2" d="M50 522l924 0"/>
<text stroke="none" fill="white" font-size="16" x="8" y="530">
-1.0
</text>
<path stroke="white" d="M50 431l924 0"/>
<text stroke="none" fill="white" font-size="16" x="18" y="439">
0.0
</text>
<path stroke="white" stroke-dasharray="1,2" d="M50 340l924 0"/>
<text stroke="none" fill="white" font-size="16" x="18" y="348">
1.0
</text>
<path stroke="white" stroke-dasharray="1,2" d="M50 249l924 0"/>
<text stroke="none" fill="white" font-size="16" x="18" y="257">
2.0
</text>
<path stroke="white" stroke-dasharray="1,2" d="M50 158l924 0"/>
<text stroke="none" fill="white" font-size="16" x="18" y="166">
3.0
</text>
<path stroke="white" stroke-dasharray="1,2" d="M50 67l924 0"/>
<text stroke="none" fill="white" font-size="16" x="18" y="75">
4.0
</text>
<text stroke="none" fill="white" font-size="16" x="10" y="32">
     
</text>
<path stroke="red" d="M462 23l46 0"/>
<text stroke="none" fill="white" font-size="16" x="518" y="32">
x1.vsampled_p
</text>
<path stroke="red" d="M50 431l1 0 1 -7 0 -15 1 -15 0 -4 1 1M54 415l0 -40 1 -4 0 -14 1 -2 0 -3 2 -2 1 0 1 -1 3 0 1 1 4 0 1 -1 48 0 0 -1 1 -7 0 -12 1 -4 1 -2 0 -1 1 0 1 -1 417 0M539 322l0 -1M539 322l15 0 0 -1M554 322l13 0M567 323l0 -1 13 0 0 -1"/>
<path stroke="red" d="M580 322l13 0M593 323l0 -1 7 0M600 336l0 -15M600 336l1 3M601 345l0 -6M601 344l1 0 0 -1 1 -1 76 0M679 347l0 -5M679 347l1 0M680 349l0 -2M680 348l1 -1 18 0M699 348l0 -1 7 0M706 350l0 -3M706 350l1 1 0 -1 25 0 0 -3 2 0 1 1 3 0"/>
<path stroke="red" d="M738 348l0 -1 13 0M751 348l0 -1M751 348l1 0 0 -1M752 348l7 0M759 350l0 -3M759 349l27 0M786 350l0 -1M786 350l1 -1 17 0M804 350l0 -1 26 0 1 1 0 -1 86 0M917 350l0 -9 1 -2 0 -16 1 -1 0 -1 1 0 1 1 2 0 0 -1 1 1 12 0M936 323l0 -1"/>
<path stroke="red" d="M936 322l14 0 0 -1M950 322l11 0 0 -1 13 0"/>
<path stroke="blue" d="M50 23l46 0"/>
<text stroke="none" fill="white" font-size="16" x="106" y="32">
x1.vsampled_n
</text>
<path stroke="blue" d="M50 431l1 0 1 -7 0 -15 1 -14 0 -5 1 2M54 415l0 -40 1 -4 0 -14 1 -2 0 -3 2 -2 1 0 1 -1 3 0 1 1 4 0 1 -1 48 0M117 354l0 -5M117 354l1 8M118 371l0 -9M118 371l1 3 1 1M120 376l0 -1M120 376l1 1 425 0 0 -23 1 -3 0 -24 1 -4 0 -4"/>
<path stroke="blue" d="M548 319l1 -2 1 -1 4 0 0 -1M554 316l13 0M567 317l0 -1 7 0M574 344l0 -28M574 344l1 4M575 358l0 -10M575 358l1 0 1 -1 3 0 0 -1 13 0M593 357l0 -1M593 357l13 0 0 -1 13 0M619 357l0 -1M619 357l1 0 0 -1M620 357l5 0 0 -11 1 -1 0 -6"/>
<path stroke="blue" d="M626 339l1 0 0 -1 1 0M628 339l0 -1M628 339l5 0 0 -1M633 339l20 0M653 348l0 -9M653 348l1 1M654 351l0 -2M654 350l1 -1 157 0M812 350l0 -1M812 350l1 -1 18 0M831 350l0 -1 26 0M857 350l0 -1 26 0M883 350l0 -1 27 0M910 350l0 -1"/>
<path stroke="blue" d="M910 349l7 0M917 355l0 -6M917 355l1 6M918 381l0 -20M918 381l1 -1 0 -2 1 -1 54 0"/>
<path stroke="#FFA500" d="M462 39l46 0"/>
<text stroke="none" fill="white" font-size="16" x="518" y="48">
x1.vsampled_p-x1.vsampled_n
</text>
<path stroke="#FFA500" d="M50 431l67 0 0 -5 1 -16 0 -21 1 -7 1 -3 0 -2 1 -1 425 0M546 399l0 -23M546 399l1 3M547 426l0 -24M547 426l1 4M548 433l0 -3M548 433l1 2M549 436l0 -1M549 436l1 1 24 0 0 -28 1 -4 0 -11 1 0M576 395l0 -1M576 395l1 1 16 0M593 397l0 -1"/>
<path stroke="#FFA500" d="M593 396l7 0M600 411l0 -15M600 411l1 2M601 420l0 -7M601 419l1 -1 0 -1 4 0 0 -1 1 0M607 417l0 -1M607 417l12 0 0 -1 1 0M620 417l0 -1M620 417l5 0M625 427l0 -10M625 427l1 2M626 434l0 -5M626 434l1 1 1 0 1 -1 4 0M633 435l0 -1"/>
<path stroke="#FFA500" d="M633 434l20 0M653 435l0 -10 1 -1 0 -2M654 423l1 1 24 0M679 429l0 -5M679 429l1 0M680 431l0 -2M680 430l1 -1 25 0M706 433l0 -4M706 433l1 0 0 -1 25 0 0 -3 1 0M733 430l0 -1M733 430l18 0 0 -1M751 430l8 0M759 432l0 -2M759 431l27 0"/>
<path stroke="#FFA500" d="M786 432l0 -1M786 432l18 0 0 -1M804 432l8 0 0 -1 105 0M917 432l0 -14 1 -9 0 -36 1 0M919 374l0 -1M919 374l2 2 2 0 0 -1M923 376l27 0 0 -1M950 376l24 0"/>
<path stroke="green" d="M50 39l46 0"/>
<text stroke="none" fill="white" font-size="16" x="106" y="48">
x1.sw_sample-2
</text>
<path stroke="green" d="M50 613l1 0 1 -9 0 -21 1 -21M53 581l0 -25M53 581l1 29M54 613l0 -3M54 613l63 0M117 620l0 -172M117 449l422 0M539 614l0 -171M539 613l422 0M961 618l0 -170 1 1 12 0"/>
<path stroke="#FFC0C5" d="M462 55l46 0"/>
<text stroke="none" fill="white" font-size="16" x="518" y="64">
x1.comp_out_p+2
</text>
<path stroke="#FFC0C5" d="M50 249l1 0 1 -9 0 -22 1 -18 0 -4M53 198l1 5M54 249l0 -46M54 248l1 1 486 0 1 1 0 -166M542 85l13 0M555 249l0 -172M555 249l39 0 0 -165M594 85l14 0M608 249l0 -171M608 249l13 0 0 -166M621 85l13 0M634 250l0 -168M634 250l1 -1"/>
<path stroke="#FFC0C5" d="M635 249l38 0 0 -20 1 -122 0 -23M674 85l13 0M687 249l0 -171M687 249l13 0 0 -165M700 85l13 0 0 -5 1 68M714 250l0 -102M714 249l39 0M753 250l0 -166M753 85l13 0M766 250l0 -174M766 249l14 0 0 -152 1 -12 12 0M793 249l0 -169"/>
<path stroke="#FFC0C5" d="M793 249l67 0 0 -164 12 0M872 249l0 -173M872 249l14 0 0 -157 1 -8M887 85l0 -1M887 85l11 0M898 249l0 -173M898 249l14 0 1 -157 0 -8M913 85l12 0M925 250l0 -173M925 249l12 0 1 -44 0 -121M938 85l13 0M951 250l0 -166M951 249l23 0"/>
<path stroke="#A52A2A" d="M50 55l46 0"/>
<text stroke="none" fill="white" font-size="16" x="106" y="64">
x1.comp_out_n-2
</text>
<path stroke="#A52A2A" d="M50 613l1 0 1 -9 0 -22 1 -19M53 564l0 -3M53 564l1 6M54 614l0 -44M54 612l1 1 513 0 0 -165M568 449l13 0 0 -8 1 159M582 613l0 -13M582 613l65 0M647 616l0 -169M647 449l14 0M661 613l0 -167M661 613l66 0 1 -148 0 -17M728 449l12 0"/>
<path stroke="#A52A2A" d="M740 613l0 -171M740 613l67 0 0 -165M807 449l12 0M819 613l0 -174M819 613l15 0 0 -165M834 449l11 0M845 451l0 -4M845 451l1 152M846 613l0 -10M846 613l128 0"/>
</svg>
