<?xml version="1.0" standalone="yes"?>
<!DOCTYPE svg PUBLIC "-//W3C//DTD SVG 1.1//EN"
 "http://www.w3.org/Graphics/SVG/1.1/DTD/svg11.dtd">
<svg xmlns="http://www.w3.org/2000/svg" version="1.1"
  width="100%" height="100%" viewBox="0 0 1024 768"
  style="fill: none; font-family: Helvetica;
 font: Helvetica;
">

<!-- Creator: NGspice -->

<rect x="0" y="0" width="1024" height="768" fill="black" stroke="none"/>
<text stroke="none" fill="white" font-size="16" x="358" y="752">
time
</text>
<text stroke="none" fill="white" font-size="16" x="10" y="16">
tran1: run1372_vin0.306297
</text>
<path stroke="white" d="M50 704l0 -637"/>
<text stroke="none" fill="white" font-size="16" x="35" y="728">
0.0
</text>
<path stroke="white" stroke-dasharray="1,2" d="M182 704l0 -637"/>
<text stroke="none" fill="white" font-size="16" x="157" y="728">
100.0
</text>
<path stroke="white" stroke-dasharray="1,2" d="M314 704l0 -637"/>
<text stroke="none" fill="white" font-size="16" x="289" y="728">
200.0
</text>
<path stroke="white" stroke-dasharray="1,2" d="M446 704l0 -637"/>
<text stroke="none" fill="white" font-size="16" x="421" y="728">
300.0
</text>
<path stroke="white" stroke-dasharray="1,2" d="M578 704l0 -637"/>
<text stroke="none" fill="white" font-size="16" x="553" y="728">
400.0
</text>
<path stroke="white" stroke-dasharray="1,2" d="M710 704l0 -637"/>
<text stroke="none" fill="white" font-size="16" x="685" y="728">
500.0
</text>
<path stroke="white" stroke-dasharray="1,2" d="M842 704l0 -637"/>
<text stroke="none" fill="white" font-size="16" x="817" y="728">
600.0
</text>
<path stroke="white" stroke-dasharray="1,2" d="M974 704l0 -637"/>
<text stroke="none" fill="white" font-size="16" x="949" y="728">
700.0
</text>
<text stroke="none" fill="white" font-size="16" x="614" y="752">
ns
</text>
<path stroke="white" stroke-dasharray="1,2" d="M50 704l924 0"/>
<text stroke="none" fill="white" font-size="16" x="8" y="712">
-3.0
</text>
<path stroke="white" stroke-dasharray="1,2" d="M50 613l924 0"/>
<text stroke="none" fill="white" font-size="16" x="8" y="621">
-2.0
</text>
<path stroke="white" stroke-dasharray="1,2" d="M50 522l924 0"/>
<text stroke="none" fill="white" font-size="16" x="8" y="530">
-1.0
</text>
<path stroke="white" d="M50 431l924 0"/>
<text stroke="none" fill="white" font-size="16" x="18" y="439">
0.0
</text>
<path stroke="white" stroke-dasharray="1,2" d="M50 340l924 0"/>
<text stroke="none" fill="white" font-size="16" x="18" y="348">
1.0
</text>
<path stroke="white" stroke-dasharray="1,2" d="M50 249l924 0"/>
<text stroke="none" fill="white" font-size="16" x="18" y="257">
2.0
</text>
<path stroke="white" stroke-dasharray="1,2" d="M50 158l924 0"/>
<text stroke="none" fill="white" font-size="16" x="18" y="166">
3.0
</text>
<path stroke="white" stroke-dasharray="1,2" d="M50 67l924 0"/>
<text stroke="none" fill="white" font-size="16" x="18" y="75">
4.0
</text>
<text stroke="none" fill="white" font-size="16" x="10" y="32">
     
</text>
<path stroke="red" d="M462 23l46 0"/>
<text stroke="none" fill="white" font-size="16" x="518" y="32">
x1.vsampled_p
</text>
<path stroke="red" d="M50 431l1 0 1 -7 0 -15 1 -15 0 -4 1 1M54 415l0 -40 1 -4 0 -14 1 -2 0 -3 2 -2 1 0 1 -1 3 0 1 1 4 0 1 -1 48 0 0 -1 1 -7 0 -12 1 -4 0 -2 1 -1 1 0 0 -1 418 0M539 322l0 -1M539 322l1 0 0 -1M540 322l14 0 0 -1 12 0 1 1 0 -1M567 322l13 0"/>
<path stroke="red" d="M580 322l0 -1 13 0M593 322l0 -1M593 322l7 0M600 336l0 -15M600 336l1 3M601 345l0 -6M601 344l1 0 0 -2 77 0M679 347l0 -5M679 347l1 1M680 349l0 -2 26 0M706 350l0 -3M706 350l6 0 0 -1M712 350l13 0 0 -1M725 350l7 0 0 -3 19 0M751 348l0 -1"/>
<path stroke="red" d="M751 348l1 0 0 -1 7 0M759 350l0 -3M759 349l6 0 0 -1M765 349l21 0M786 350l0 -1 18 0M804 350l0 -1 27 0M831 350l0 -1 26 0M857 350l0 -1 26 0M883 350l0 -1 27 0M910 350l0 -1 8 0 0 -20 1 -2 0 -6 4 0M923 322l0 -1 13 0M936 322l0 -1"/>
<path stroke="red" d="M936 322l14 0 0 -1 24 0"/>
<path stroke="blue" d="M50 23l46 0"/>
<text stroke="none" fill="white" font-size="16" x="106" y="32">
x1.vsampled_n
</text>
<path stroke="blue" d="M50 431l1 0 1 -7 0 -15 1 -14 0 -5 1 2M54 415l0 -40 1 -4 0 -14 1 -2 0 -3 2 -2 1 0 1 -1 3 0 1 1 4 0 1 -1 48 0M117 354l0 -5M117 354l1 8M118 371l0 -9M118 371l1 3M119 376l0 -2M119 376l1 0 1 1 425 0 0 -20 1 -3 0 -27 1 -4 0 -3"/>
<path stroke="blue" d="M548 320l1 -2 0 -1 1 -1 4 0 0 -1M554 316l13 0M567 317l0 -1 7 0M574 344l0 -28M574 344l1 4M575 359l0 -11M575 359l1 0 0 -1 1 -1 3 0 0 -1M580 357l45 0 0 -8 1 -4 0 -6 7 0 0 -1M633 339l20 0M653 348l0 -9M653 348l1 2M654 351l0 -1"/>
<path stroke="blue" d="M654 350l1 -1 157 0 1 1 0 -1 17 0 1 1 0 -1 87 0M918 379l0 -30M918 379l1 1M919 381l0 -1 1 -2 1 -1 53 0"/>
<path stroke="#FFA500" d="M462 39l46 0"/>
<text stroke="none" fill="white" font-size="16" x="518" y="48">
x1.vsampled_p-x1.vsampled_n
</text>
<path stroke="#FFA500" d="M50 431l67 0 0 -5 1 -16 0 -21 1 -7 0 -3 1 -2 2 -2 418 0M540 376l0 -1 1 1 0 -1 5 0M546 395l0 -20M546 395l1 3M547 426l0 -28M547 426l1 4M548 433l0 -3M548 433l1 2M549 436l0 -1M549 436l1 0 1 1 15 0 1 -1M567 437l0 -1M567 437l7 0"/>
<path stroke="#FFA500" d="M574 437l0 -29 1 -3 0 -11 1 0 1 1M577 396l0 -1M577 396l3 0 0 -1M580 396l20 0M600 411l0 -15M600 411l1 3M601 419l0 -5M601 419l1 -1 0 -1 1 0 0 -1 22 0M625 424l0 -8M625 424l1 3M626 434l0 -7M626 434l27 0 0 -9 1 -2 0 -1M654 423l1 1"/>
<path stroke="#FFA500" d="M655 424l24 0M679 429l0 -5M679 429l1 1M680 431l0 -2 26 0M706 432l0 -3M706 432l19 0 0 -1M725 432l7 0 0 -3 27 0M759 431l0 -2M759 431l19 0 0 -1M778 431l8 0M786 432l0 -1 27 0 0 -1M813 431l25 0M838 432l0 -1M838 432l1 0 0 -1"/>
<path stroke="#FFA500" d="M839 431l79 0 0 -50 1 -3 0 -6M919 373l2 2 15 0M936 376l0 -1 38 0"/>
<path stroke="green" d="M50 39l46 0"/>
<text stroke="none" fill="white" font-size="16" x="106" y="48">
x1.sw_sample-2
</text>
<path stroke="green" d="M50 613l1 0 1 -9 0 -21 1 -21M53 581l0 -25M53 581l1 29M54 613l0 -3M54 613l63 0M117 620l0 -172M117 449l422 0M539 614l0 -171M539 613l422 0M961 618l0 -170 1 1 12 0"/>
<path stroke="#FFC0C5" d="M462 55l46 0"/>
<text stroke="none" fill="white" font-size="16" x="518" y="64">
x1.comp_out_p+2
</text>
<path stroke="#FFC0C5" d="M50 249l1 0 1 -9 0 -22 1 -18 0 -4M53 198l1 5M54 249l0 -46M54 248l1 1 487 0M542 251l0 -168M542 85l13 0M555 249l0 -171M555 249l39 0 0 -165M594 85l14 0M608 249l0 -171M608 249l13 0M621 252l0 -169M621 85l13 0M634 250l0 -168"/>
<path stroke="#FFC0C5" d="M634 250l1 -1 38 0M673 251l0 -2M673 251l1 -105 0 -63M674 85l13 0M687 250l0 -171M687 249l13 0 0 -165M700 85l13 0 0 -9 1 139M714 249l0 -34M714 249l39 0 0 -165M753 85l13 0M766 250l0 -169M766 249l14 0 0 -165M780 85l13 0"/>
<path stroke="#FFC0C5" d="M793 250l0 -174M793 249l41 0 0 -164 11 0 0 -9 1 138M846 249l0 -35M846 249l91 0 1 -44 0 -121M938 85l13 0M951 250l0 -166M951 249l23 0"/>
<path stroke="#A52A2A" d="M50 55l46 0"/>
<text stroke="none" fill="white" font-size="16" x="106" y="64">
x1.comp_out_n-2
</text>
<path stroke="#A52A2A" d="M50 613l1 0 1 -9 0 -22 1 -19M53 564l0 -3M53 564l1 6M54 614l0 -44M54 612l1 1 513 0M568 614l0 -166M568 449l13 0 0 -8 1 159M582 613l0 -13M582 613l65 0M647 617l0 -170M647 449l14 0M661 613l0 -174M661 613l67 0 0 -164 12 0"/>
<path stroke="#A52A2A" d="M740 613l0 -172M740 613l67 0 0 -164 12 0M819 613l0 -170M819 613l41 0 0 -164 12 0M872 614l0 -169M872 613l14 0 0 -158 1 -7M887 449l0 -1M887 449l11 0M898 614l0 -169M898 613l15 0 0 -165M913 449l12 0M925 613l0 -173M925 613l49 0"/>
</svg>
