<?xml version="1.0" standalone="yes"?>
<!DOCTYPE svg PUBLIC "-//W3C//DTD SVG 1.1//EN"
 "http://www.w3.org/Graphics/SVG/1.1/DTD/svg11.dtd">
<svg xmlns="http://www.w3.org/2000/svg" version="1.1"
  width="100%" height="100%" viewBox="0 0 1024 768"
  style="fill: none; font-family: Helvetica;
 font: Helvetica;
">

<!-- Creator: NGspice -->

<rect x="0" y="0" width="1024" height="768" fill="black" stroke="none"/>
<text stroke="none" fill="white" font-size="16" x="358" y="752">
time
</text>
<text stroke="none" fill="white" font-size="16" x="10" y="16">
tran1: run239_vin-0.689502
</text>
<path stroke="white" d="M50 704l0 -637"/>
<text stroke="none" fill="white" font-size="16" x="35" y="728">
0.0
</text>
<path stroke="white" stroke-dasharray="1,2" d="M182 704l0 -637"/>
<text stroke="none" fill="white" font-size="16" x="157" y="728">
100.0
</text>
<path stroke="white" stroke-dasharray="1,2" d="M314 704l0 -637"/>
<text stroke="none" fill="white" font-size="16" x="289" y="728">
200.0
</text>
<path stroke="white" stroke-dasharray="1,2" d="M446 704l0 -637"/>
<text stroke="none" fill="white" font-size="16" x="421" y="728">
300.0
</text>
<path stroke="white" stroke-dasharray="1,2" d="M578 704l0 -637"/>
<text stroke="none" fill="white" font-size="16" x="553" y="728">
400.0
</text>
<path stroke="white" stroke-dasharray="1,2" d="M710 704l0 -637"/>
<text stroke="none" fill="white" font-size="16" x="685" y="728">
500.0
</text>
<path stroke="white" stroke-dasharray="1,2" d="M842 704l0 -637"/>
<text stroke="none" fill="white" font-size="16" x="817" y="728">
600.0
</text>
<path stroke="white" stroke-dasharray="1,2" d="M974 704l0 -637"/>
<text stroke="none" fill="white" font-size="16" x="949" y="728">
700.0
</text>
<text stroke="none" fill="white" font-size="16" x="614" y="752">
ns
</text>
<path stroke="white" stroke-dasharray="1,2" d="M50 704l924 0"/>
<text stroke="none" fill="white" font-size="16" x="8" y="712">
-3.0
</text>
<path stroke="white" stroke-dasharray="1,2" d="M50 613l924 0"/>
<text stroke="none" fill="white" font-size="16" x="8" y="621">
-2.0
</text>
<path stroke="white" stroke-dasharray="1,2" d="M50 522l924 0"/>
<text stroke="none" fill="white" font-size="16" x="8" y="530">
-1.0
</text>
<path stroke="white" d="M50 431l924 0"/>
<text stroke="none" fill="white" font-size="16" x="18" y="439">
0.0
</text>
<path stroke="white" stroke-dasharray="1,2" d="M50 340l924 0"/>
<text stroke="none" fill="white" font-size="16" x="18" y="348">
1.0
</text>
<path stroke="white" stroke-dasharray="1,2" d="M50 249l924 0"/>
<text stroke="none" fill="white" font-size="16" x="18" y="257">
2.0
</text>
<path stroke="white" stroke-dasharray="1,2" d="M50 158l924 0"/>
<text stroke="none" fill="white" font-size="16" x="18" y="166">
3.0
</text>
<path stroke="white" stroke-dasharray="1,2" d="M50 67l924 0"/>
<text stroke="none" fill="white" font-size="16" x="18" y="75">
4.0
</text>
<text stroke="none" fill="white" font-size="16" x="10" y="32">
     
</text>
<path stroke="red" d="M462 23l46 0"/>
<text stroke="none" fill="white" font-size="16" x="518" y="32">
x1.vsampled_p
</text>
<path stroke="red" d="M50 431l1 0 1 -7 0 -15 1 -14 0 -5 1 2M54 414l0 -38 1 -4 0 -14 1 -3 0 -2 1 -2 0 -1 2 0 1 -1 3 0 1 1 4 0 1 -1 48 0M117 366l0 -17M117 366l1 15M118 401l0 -20M118 401l1 3M119 409l0 -5M119 409l3 3 424 0 0 -22 1 -2 0 -28 1 -5 1 -2"/>
<path stroke="red" d="M549 353l0 -2 5 0 0 -1M554 351l26 0 0 -1M580 351l26 0 0 -1 1 1 19 0 0 -18 1 -1 1 0 1 1 4 0 0 -1M633 333l13 0M646 334l0 -1 7 0M653 344l0 -11M653 344l1 1M654 346l0 -2 1 -1 17 0M672 344l0 -1 7 0M679 350l0 -7M679 350l1 1M680 352l0 -4"/>
<path stroke="red" d="M680 348l19 0M699 349l0 -1 26 0M725 349l0 -1 26 0M751 349l0 -1 8 0M759 351l0 -3M759 350l1 0 0 -1 18 0M778 350l0 -1 26 0M804 350l0 -1 26 0 1 1 0 -1 26 0M857 350l0 -1 26 0M883 350l0 -1 27 0M910 350l0 -1 8 0M918 408l0 -59M918 408l1 3"/>
<path stroke="red" d="M919 417l0 -6M919 416l1 0 0 -2 1 -1 0 -1 53 0"/>
<path stroke="blue" d="M50 23l46 0"/>
<text stroke="none" fill="white" font-size="16" x="106" y="32">
x1.vsampled_n
</text>
<path stroke="blue" d="M50 431l1 0 1 -7 0 -15 1 -15 0 -5 1 2M54 414l0 -38 1 -4 0 -14 1 -3 0 -2 1 -2 0 -1 2 0 1 -1 3 0 1 1 5 0 0 -1 48 0 0 -1 1 -11 0 -33 1 -4 0 -8 1 -3 1 -1 0 -1 1 0 1 -1 416 0M539 287l0 -1M539 287l1 0M540 288l0 -1 14 0 0 -1 1 0"/>
<path stroke="blue" d="M555 287l0 -1M555 287l11 0 0 -1M566 287l1 0M567 288l0 -1 7 0M574 313l0 -26M574 313l1 9 1 5M576 328l0 -1M576 328l4 0 0 -1 13 0M593 328l0 -1M593 328l7 0M600 344l0 -17M600 344l1 3M601 349l0 -2M601 348l105 0M706 351l0 -3M706 351l1 0"/>
<path stroke="blue" d="M707 351l0 -1 18 0M725 351l0 -1 6 0 0 -1 1 -1 19 0M751 349l0 -1 27 0M778 349l0 -1 7 0M785 349l0 -1M785 349l27 0M812 350l0 -1 19 0M831 350l0 -1 26 0M857 350l0 -1 26 0M883 350l0 -1 27 0M910 350l0 -1 8 0 0 -33 1 -3 0 -16 1 -2"/>
<path stroke="blue" d="M920 295l0 -5 1 -1 0 -1 1 0 0 -1 1 0 0 -1M923 287l13 0M936 288l0 -2M936 287l14 0 0 -1 1 0M951 287l0 -1M951 287l10 0 0 -1 13 0"/>
<path stroke="#FFA500" d="M462 39l46 0"/>
<text stroke="none" fill="white" font-size="16" x="518" y="48">
x1.vsampled_p-x1.vsampled_n
</text>
<path stroke="#FFA500" d="M50 431l2 0M52 432l0 -1M52 432l2 0 0 -1 63 0M117 449l0 -18M117 449l1 26M118 528l0 -53M118 528l1 7M119 548l0 -13M119 548l2 6M121 555l0 -1M121 555l1 1 424 0 0 -22 1 -2 0 -27 1 -6 1 -2 0 -1 1 -1 17 0 0 -1M567 495l7 0 0 -26"/>
<path stroke="#FFA500" d="M574 469l1 -9 1 -5 0 -1 24 0 0 -16 1 -3 0 -2 1 0M602 434l0 -1M602 434l24 0 0 -18 1 -1 1 0 1 1 4 0 0 -1M633 416l13 0M646 417l0 -1 7 0M653 427l0 -11M653 427l1 2 0 -2 1 -1 24 0M679 433l0 -7M679 433l1 1M680 435l0 -4 26 0"/>
<path stroke="#FFA500" d="M706 431l0 -3 1 0M707 429l0 -1M707 429l5 0 0 -1M712 429l19 0M731 430l0 -1M731 430l1 1 27 0M759 434l0 -3M759 433l1 -1 25 0 0 -1 19 0M804 432l0 -1 34 0 0 -1M838 431l80 0M918 523l0 -92M918 523l1 6M919 550l0 -21M919 550l1 2"/>
<path stroke="#FFA500" d="M920 555l0 -3M920 555l1 0M921 556l0 -1M921 556l2 0M923 557l0 -1 13 0 0 -1M936 556l14 0M950 557l0 -1 12 0M962 557l0 -1M962 557l2 0 0 -1 10 0"/>
<path stroke="green" d="M50 39l46 0"/>
<text stroke="none" fill="white" font-size="16" x="106" y="48">
x1.sw_sample-2
</text>
<path stroke="green" d="M50 613l1 0 1 -9 0 -21 1 -21M53 579l0 -23M53 579l1 31M54 613l0 -3M54 613l63 0M117 620l0 -172M117 449l422 0M539 614l0 -171M539 613l422 0M961 618l0 -170 1 1 12 0"/>
<path stroke="#FFC0C5" d="M462 55l46 0"/>
<text stroke="none" fill="white" font-size="16" x="518" y="64">
x1.comp_out_p+2
</text>
<path stroke="#FFC0C5" d="M50 249l1 0 1 -9 0 -22 1 -18 0 -4M53 198l1 5M54 250l0 -47M54 240l1 8M55 249l0 -1M55 249l592 0 0 -165M647 85l14 0M661 249l0 -171M661 249l12 0M673 254l0 -5M673 254l1 -126 0 -45M674 85l13 0M687 249l0 -172M687 249l40 0M727 250l0 -166"/>
<path stroke="#FFC0C5" d="M727 85l13 0M740 249l0 -172M740 249l13 0 0 -143 1 -21 0 -1M754 85l12 0M766 250l0 -173M766 249l94 0 0 -165 1 1 11 0M872 249l0 -173M872 249l14 0 1 -147 0 -18M887 85l11 0M898 249l0 -173M898 249l15 0 0 -165M913 85l12 0M925 250l0 -174"/>
<path stroke="#FFC0C5" d="M925 249l49 0"/>
<path stroke="#A52A2A" d="M50 55l46 0"/>
<text stroke="none" fill="white" font-size="16" x="106" y="64">
x1.comp_out_n-2
</text>
<path stroke="#A52A2A" d="M50 613l1 0 1 -9 0 -22 1 -19M53 564l0 -3M53 564l1 6M54 613l0 -43M54 612l1 1 486 0 1 2 0 -168M542 449l13 0M555 613l0 -171M555 613l13 0 0 -166M568 449l13 0 0 -9 1 164M582 613l0 -9M582 613l12 0 0 -165M594 449l14 0M608 613l0 -171"/>
<path stroke="#A52A2A" d="M608 613l13 0 0 -165M621 449l13 0M634 614l0 -174M634 614l1 -1 65 0 1 -92 0 -73M701 449l12 0 0 -8 1 155M714 613l0 -17M714 613l66 0 0 -165M780 449l13 0M793 613l0 -172M793 613l13 0 1 -157 0 -8M807 449l12 0M819 613l0 -167"/>
<path stroke="#A52A2A" d="M819 613l15 0 0 -164 11 0 0 -10 1 153M846 613l0 -21M846 613l91 0 1 -56 0 -109M938 449l13 0M951 613l0 -172M951 613l23 0"/>
</svg>
