<?xml version="1.0" standalone="yes"?>
<!DOCTYPE svg PUBLIC "-//W3C//DTD SVG 1.1//EN"
 "http://www.w3.org/Graphics/SVG/1.1/DTD/svg11.dtd">
<svg xmlns="http://www.w3.org/2000/svg" version="1.1"
  width="100%" height="100%" viewBox="0 0 1024 768"
  style="fill: none; font-family: Helvetica;
 font: Helvetica;
">

<!-- Creator: NGspice -->

<rect x="0" y="0" width="1024" height="768" fill="black" stroke="none"/>
<text stroke="none" fill="white" font-size="16" x="358" y="752">
time
</text>
<text stroke="none" fill="white" font-size="16" x="10" y="16">
tran1: run1920_vin0.787937
</text>
<path stroke="white" d="M50 704l0 -637"/>
<text stroke="none" fill="white" font-size="16" x="35" y="728">
0.0
</text>
<path stroke="white" stroke-dasharray="1,2" d="M182 704l0 -637"/>
<text stroke="none" fill="white" font-size="16" x="157" y="728">
100.0
</text>
<path stroke="white" stroke-dasharray="1,2" d="M314 704l0 -637"/>
<text stroke="none" fill="white" font-size="16" x="289" y="728">
200.0
</text>
<path stroke="white" stroke-dasharray="1,2" d="M446 704l0 -637"/>
<text stroke="none" fill="white" font-size="16" x="421" y="728">
300.0
</text>
<path stroke="white" stroke-dasharray="1,2" d="M578 704l0 -637"/>
<text stroke="none" fill="white" font-size="16" x="553" y="728">
400.0
</text>
<path stroke="white" stroke-dasharray="1,2" d="M710 704l0 -637"/>
<text stroke="none" fill="white" font-size="16" x="685" y="728">
500.0
</text>
<path stroke="white" stroke-dasharray="1,2" d="M842 704l0 -637"/>
<text stroke="none" fill="white" font-size="16" x="817" y="728">
600.0
</text>
<path stroke="white" stroke-dasharray="1,2" d="M974 704l0 -637"/>
<text stroke="none" fill="white" font-size="16" x="949" y="728">
700.0
</text>
<text stroke="none" fill="white" font-size="16" x="614" y="752">
ns
</text>
<path stroke="white" stroke-dasharray="1,2" d="M50 704l924 0"/>
<text stroke="none" fill="white" font-size="16" x="8" y="712">
-3.0
</text>
<path stroke="white" stroke-dasharray="1,2" d="M50 613l924 0"/>
<text stroke="none" fill="white" font-size="16" x="8" y="621">
-2.0
</text>
<path stroke="white" stroke-dasharray="1,2" d="M50 522l924 0"/>
<text stroke="none" fill="white" font-size="16" x="8" y="530">
-1.0
</text>
<path stroke="white" d="M50 431l924 0"/>
<text stroke="none" fill="white" font-size="16" x="18" y="439">
0.0
</text>
<path stroke="white" stroke-dasharray="1,2" d="M50 340l924 0"/>
<text stroke="none" fill="white" font-size="16" x="18" y="348">
1.0
</text>
<path stroke="white" stroke-dasharray="1,2" d="M50 249l924 0"/>
<text stroke="none" fill="white" font-size="16" x="18" y="257">
2.0
</text>
<path stroke="white" stroke-dasharray="1,2" d="M50 158l924 0"/>
<text stroke="none" fill="white" font-size="16" x="18" y="166">
3.0
</text>
<path stroke="white" stroke-dasharray="1,2" d="M50 67l924 0"/>
<text stroke="none" fill="white" font-size="16" x="18" y="75">
4.0
</text>
<text stroke="none" fill="white" font-size="16" x="10" y="32">
     
</text>
<path stroke="red" d="M462 23l46 0"/>
<text stroke="none" fill="white" font-size="16" x="518" y="32">
x1.vsampled_p
</text>
<path stroke="red" d="M50 431l1 0 1 -7 0 -16 1 -14 0 -5 1 2M54 414l0 -38 1 -5 0 -13 1 -3 0 -3 1 -1 0 -1 2 0 1 -1 3 0 1 1 4 0 1 -1 48 0 0 -1 1 -12 0 -34 1 -6 0 -10 1 -3 0 -2 1 -2 0 -1 2 0 0 -1 416 0M539 278l0 -1M539 278l1 0M540 279l0 -1 14 0 0 -1"/>
<path stroke="red" d="M554 278l13 0M567 279l0 -1 7 0M574 301l0 -23M574 301l1 7M575 317l0 -9M575 317l1 2 4 0 0 -1 13 0M593 319l0 -1M593 319l7 0M600 333l0 -14M600 333l1 3M601 340l0 -4M601 340l1 -1 51 0M653 347l0 -8M653 347l1 2M654 350l0 -1 264 0"/>
<path stroke="red" d="M918 349l0 -39 1 -4 0 -20 1 -3 0 -2 1 -1 0 -2 2 0 0 -1M923 278l13 0M936 279l0 -1 14 0 0 -1M950 278l11 0 0 -1 13 0"/>
<path stroke="blue" d="M50 23l46 0"/>
<text stroke="none" fill="white" font-size="16" x="106" y="32">
x1.vsampled_n
</text>
<path stroke="blue" d="M50 431l1 0 1 -7 0 -15 1 -14 0 -5 1 2M54 414l0 -38 1 -5 0 -13 1 -3 0 -3 1 -1 0 -1 2 0 1 -1 3 0 1 1 3 0 1 -1 49 0M117 370l0 -21M117 370l1 17M118 408l0 -21M118 408l1 3M119 416l0 -5M119 416l1 2M120 419l0 -1M120 419l2 2 424 0"/>
<path stroke="blue" d="M546 421l0 -22 1 -3 0 -25 1 -6 1 -3 0 -2 5 0 0 -1M554 360l13 0 0 -1M567 360l13 0 0 -1M580 360l13 0 0 -1M593 360l13 0 0 -1 1 1 13 0 0 -1M620 360l5 0 0 -14 1 -1 0 -4 2 0M628 342l0 -1M628 342l5 0 0 -1M633 342l26 0 0 -1M659 342l20 0"/>
<path stroke="blue" d="M679 349l0 -7M679 349l1 1M680 351l0 -4 26 0M706 351l0 -4M706 351l1 -1 0 -1 18 0M725 350l0 -1 7 0 0 -3 1 -1M733 347l0 -2M733 347l18 0M751 348l0 -1 8 0M759 350l0 -3M759 349l1 0 0 -1 18 0M778 349l0 -1 7 0M785 349l0 -1M785 349l1 1"/>
<path stroke="blue" d="M786 350l0 -1 18 0M804 350l0 -1 9 0M813 350l0 -1 17 0 1 1 0 -1 26 0M857 350l0 -1 26 0M883 350l0 -1 27 0M910 350l0 -1 8 0M918 427l0 -78M918 427l1 3M919 431l0 -5 1 -1 0 -2 1 0 0 -2 53 0"/>
<path stroke="#FFA500" d="M462 39l46 0"/>
<text stroke="none" fill="white" font-size="16" x="518" y="48">
x1.vsampled_p-x1.vsampled_n
</text>
<path stroke="#FFA500" d="M50 431l2 0 0 -1 2 0M54 431l0 -1M54 431l63 0 0 -23 1 -28 0 -55 1 -9 0 -15 1 -5 0 -3 1 -3 0 -1 1 -1 418 0M540 289l0 -1 6 0M546 310l0 -22M546 310l1 2M547 337l0 -25M547 337l1 7 1 3M549 348l0 -1M549 348l1 1 17 0M567 350l0 -1"/>
<path stroke="#FFA500" d="M567 349l7 0M574 372l0 -23M574 372l1 7M575 388l0 -9M575 388l1 2 17 0M593 391l0 -1 7 0M600 404l0 -14M600 404l1 4M601 411l0 -3M601 411l1 0 0 -1 17 0M619 411l0 -1 1 0M620 411l0 -1 5 0M625 424l0 -14M625 424l1 1M626 429l0 -4"/>
<path stroke="#FFA500" d="M626 429l2 0 0 -1 5 0M633 429l0 -1 20 0M653 436l0 -8M653 436l1 2M654 439l0 -1M654 439l1 -1 4 0M659 439l0 -1M659 439l1 -1 12 0M672 439l0 -1 7 0M679 439l0 -8 1 -1M680 433l0 -3M680 433l6 0M686 434l0 -1 20 0 0 -4M706 430l1 0"/>
<path stroke="#FFA500" d="M707 431l0 -1M707 431l25 0M732 434l0 -3M732 434l1 1 0 -2 26 0 0 -3M759 432l26 0 0 -1 1 -1M786 431l0 -1M786 431l27 0 0 -1M813 431l25 0M838 432l0 -1 80 0 0 -117 1 -7 0 -17 1 0 0 -1 1 -1 2 0 0 -1M923 288l13 0M936 289l0 -1"/>
<path stroke="#FFA500" d="M936 288l14 0 0 -1M950 288l24 0"/>
<path stroke="green" d="M50 39l46 0"/>
<text stroke="none" fill="white" font-size="16" x="106" y="48">
x1.sw_sample-2
</text>
<path stroke="green" d="M50 613l1 0 1 -9 0 -21 1 -21M53 579l0 -23M53 579l1 31M54 613l0 -3M54 613l63 0M117 620l0 -172M117 449l422 0M539 614l0 -171M539 613l422 0M961 618l0 -170 1 1 12 0"/>
<path stroke="#FFC0C5" d="M462 55l46 0"/>
<text stroke="none" fill="white" font-size="16" x="518" y="64">
x1.comp_out_p+2
</text>
<path stroke="#FFC0C5" d="M50 249l1 0 1 -9 0 -22 1 -18 0 -4M53 198l1 5M54 249l0 -46M54 249l487 0 1 1 0 -166M542 85l13 0M555 249l0 -171M555 249l13 0 0 -165M568 85l13 0 0 -8 1 162M582 250l0 -11M582 249l12 0 0 -166M594 85l14 0M608 249l0 -172M608 249l13 0"/>
<path stroke="#FFC0C5" d="M621 251l0 -167M621 85l13 0M634 249l0 -172M634 249l13 0M647 251l0 -168M647 85l14 0M661 250l0 -174M661 249l67 0 0 -165 1 1 11 0M740 249l0 -173M740 249l94 0 0 -165M834 85l11 0 0 -10 1 143M846 249l0 -31M846 249l91 0 1 -48"/>
<path stroke="#FFC0C5" d="M938 201l0 -117M938 85l13 0M951 249l0 -171M951 249l23 0"/>
<path stroke="#A52A2A" d="M50 55l46 0"/>
<text stroke="none" fill="white" font-size="16" x="106" y="64">
x1.comp_out_n-2
</text>
<path stroke="#A52A2A" d="M50 613l1 0 1 -9 0 -22 1 -19M53 564l0 -3M53 564l1 6M54 613l0 -43M54 611l1 2 566 0M621 614l0 -1 52 0M673 616l0 -3M673 616l1 -119 0 -50M674 449l13 0M687 613l0 -172M687 613l13 0 0 -165M700 449l13 0 0 -7 1 138M714 613l0 -33"/>
<path stroke="#A52A2A" d="M714 613l39 0 0 -165M753 449l13 0M766 614l0 -174M766 614l1 -1 13 0 0 -165M780 449l13 0M793 613l0 -174M793 613l14 0 0 -164 1 -1M808 449l0 -1M808 449l11 0M819 613l0 -171M819 613l41 0 0 -165 1 1 11 0M872 613l0 -174M872 613l14 0"/>
<path stroke="#A52A2A" d="M886 613l1 -148 0 -17M887 449l11 0M898 613l0 -174M898 613l15 0 0 -165M913 449l12 0M925 613l0 -171M925 613l49 0"/>
</svg>
