<?xml version="1.0" standalone="yes"?>
<!DOCTYPE svg PUBLIC "-//W3C//DTD SVG 1.1//EN"
 "http://www.w3.org/Graphics/SVG/1.1/DTD/svg11.dtd">
<svg xmlns="http://www.w3.org/2000/svg" version="1.1"
  width="100%" height="100%" viewBox="0 0 1024 768"
  style="fill: none; font-family: Helvetica;
 font: Helvetica;
">

<!-- Creator: NGspice -->

<rect x="0" y="0" width="1024" height="768" fill="black" stroke="none"/>
<text stroke="none" fill="white" font-size="16" x="358" y="752">
time
</text>
<text stroke="none" fill="white" font-size="16" x="10" y="16">
tran1: run89_vin-0.821338
</text>
<path stroke="white" d="M50 704l0 -637"/>
<text stroke="none" fill="white" font-size="16" x="35" y="728">
0.0
</text>
<path stroke="white" stroke-dasharray="1,2" d="M182 704l0 -637"/>
<text stroke="none" fill="white" font-size="16" x="157" y="728">
100.0
</text>
<path stroke="white" stroke-dasharray="1,2" d="M314 704l0 -637"/>
<text stroke="none" fill="white" font-size="16" x="289" y="728">
200.0
</text>
<path stroke="white" stroke-dasharray="1,2" d="M446 704l0 -637"/>
<text stroke="none" fill="white" font-size="16" x="421" y="728">
300.0
</text>
<path stroke="white" stroke-dasharray="1,2" d="M578 704l0 -637"/>
<text stroke="none" fill="white" font-size="16" x="553" y="728">
400.0
</text>
<path stroke="white" stroke-dasharray="1,2" d="M710 704l0 -637"/>
<text stroke="none" fill="white" font-size="16" x="685" y="728">
500.0
</text>
<path stroke="white" stroke-dasharray="1,2" d="M842 704l0 -637"/>
<text stroke="none" fill="white" font-size="16" x="817" y="728">
600.0
</text>
<path stroke="white" stroke-dasharray="1,2" d="M974 704l0 -637"/>
<text stroke="none" fill="white" font-size="16" x="949" y="728">
700.0
</text>
<text stroke="none" fill="white" font-size="16" x="614" y="752">
ns
</text>
<path stroke="white" stroke-dasharray="1,2" d="M50 704l924 0"/>
<text stroke="none" fill="white" font-size="16" x="8" y="712">
-3.0
</text>
<path stroke="white" stroke-dasharray="1,2" d="M50 613l924 0"/>
<text stroke="none" fill="white" font-size="16" x="8" y="621">
-2.0
</text>
<path stroke="white" stroke-dasharray="1,2" d="M50 522l924 0"/>
<text stroke="none" fill="white" font-size="16" x="8" y="530">
-1.0
</text>
<path stroke="white" d="M50 431l924 0"/>
<text stroke="none" fill="white" font-size="16" x="18" y="439">
0.0
</text>
<path stroke="white" stroke-dasharray="1,2" d="M50 340l924 0"/>
<text stroke="none" fill="white" font-size="16" x="18" y="348">
1.0
</text>
<path stroke="white" stroke-dasharray="1,2" d="M50 249l924 0"/>
<text stroke="none" fill="white" font-size="16" x="18" y="257">
2.0
</text>
<path stroke="white" stroke-dasharray="1,2" d="M50 158l924 0"/>
<text stroke="none" fill="white" font-size="16" x="18" y="166">
3.0
</text>
<path stroke="white" stroke-dasharray="1,2" d="M50 67l924 0"/>
<text stroke="none" fill="white" font-size="16" x="18" y="75">
4.0
</text>
<text stroke="none" fill="white" font-size="16" x="10" y="32">
     
</text>
<path stroke="red" d="M462 23l46 0"/>
<text stroke="none" fill="white" font-size="16" x="518" y="32">
x1.vsampled_p
</text>
<path stroke="red" d="M50 431l1 0 1 -7 0 -15 1 -14 0 -5 1 2M54 414l0 -39 1 -4 0 -13 1 -3 0 -3 1 -1 0 -1 2 0 1 -1 3 0 1 1 3 0 1 -1 49 0M117 372l0 -23M117 372l1 17M118 410l0 -21M118 410l1 3M119 419l0 -6M119 419l1 2M120 423l0 -2M120 423l1 0 1 1"/>
<path stroke="red" d="M122 424l424 0 0 -27 1 -3 0 -20 1 -6 0 -3 1 -2 5 0 0 -1M554 363l26 0 0 -1M580 363l26 0 0 -1M606 363l19 0 0 -13 1 -1 0 -5 2 0M628 345l0 -1M628 345l5 0 0 -1M633 345l26 0 0 -1M659 345l20 0M679 347l0 -2M679 347l1 3M680 354l0 -4"/>
<path stroke="red" d="M680 350l52 0 0 -4M732 347l1 0M733 348l0 -1M733 348l5 0 0 -1 1 0M739 348l0 -1M739 348l20 0M759 351l0 -3M759 349l53 0M812 350l0 -1M812 350l1 0 0 -1 18 0M831 350l0 -1 26 0M857 350l0 -1 26 0M883 350l0 -1M883 350l1 -1 26 0M910 350l0 -1"/>
<path stroke="red" d="M910 349l8 0M918 436l0 -87M918 436l1 -1 0 -7 1 -1 0 -1 1 -1 0 -1 53 0"/>
<path stroke="blue" d="M50 23l46 0"/>
<text stroke="none" fill="white" font-size="16" x="106" y="32">
x1.vsampled_n
</text>
<path stroke="blue" d="M50 431l1 0 1 -7 0 -16 1 -14 0 -5 1 2M54 414l0 -39 1 -4 0 -13 1 -3 0 -3 1 -1 0 -1 2 0 1 -1 3 0 1 1 4 0 1 -1 48 0 0 -1 1 -12 0 -35 1 -7 0 -10 1 -3 0 -4 1 -2 1 0 1 -1 416 0M539 275l0 -1M539 275l1 0M540 276l0 -1 14 0 0 -1"/>
<path stroke="blue" d="M554 274l1 1 11 0 0 -1 1 1M567 276l0 -1 7 0M574 297l0 -22M574 297l1 6M575 313l0 -10M575 313l1 2 1 1 3 0 0 -1 13 0M593 316l0 -1M593 316l7 0M600 330l0 -15M600 330l1 3M601 337l0 -4M601 337l1 -1 51 0M653 344l0 -8M653 344l1 2"/>
<path stroke="blue" d="M654 347l0 -1 52 0M706 349l0 -3M706 349l80 0M786 350l0 -1 18 0M804 350l0 -1 27 0M831 350l0 -1 87 0M918 350l0 -56 1 -3 0 -11 1 -2 0 -1 1 -1 0 -1 2 0 0 -1 1 0M924 275l0 -1M924 275l12 0M936 276l0 -2M936 275l14 0 0 -1 1 1 10 0"/>
<path stroke="blue" d="M961 275l0 -1 13 0"/>
<path stroke="#FFA500" d="M462 39l46 0"/>
<text stroke="none" fill="white" font-size="16" x="518" y="48">
x1.vsampled_p-x1.vsampled_n
</text>
<path stroke="#FFA500" d="M50 431l2 0M52 432l0 -1M52 432l2 0 0 -1 63 0M117 455l0 -24M117 455l1 29M118 541l0 -57M118 541l1 9M119 566l0 -16M119 566l1 5M120 577l0 -6M120 577l1 2 1 1 418 0 0 -1M540 580l6 0 0 -27 1 -3 0 -20 1 -6 0 -3 2 -2 17 0 0 -1"/>
<path stroke="#FFA500" d="M567 519l7 0 0 -23 1 -6 0 -9 1 -3 17 0 0 -1M593 478l7 0 0 -14 1 -4 0 -3 1 0M602 458l0 -1M602 458l17 0 0 -1M619 458l6 0 0 -13 1 -1 0 -5 2 0M628 440l0 -1M628 440l25 0 0 -8 1 -2 0 -1 1 1 4 0 0 -1M659 430l20 0M679 432l0 -3"/>
<path stroke="#FFA500" d="M679 432l1 3M680 438l0 -3 26 0 0 -3 26 0 0 -4M732 429l1 1 26 0M759 433l0 -3M759 431l27 0 0 -1M786 431l5 0 0 -1M791 431l13 0 0 -1M804 431l8 0M812 432l0 -1M812 432l1 0 0 -1 105 0M918 573l0 -143M918 573l1 2M919 579l0 -4"/>
<path stroke="#FFA500" d="M919 579l1 1 3 0M923 581l0 -1 13 0 0 -1M936 580l14 0M950 581l0 -1 12 0 1 1 1 0 0 -1 10 0"/>
<path stroke="green" d="M50 39l46 0"/>
<text stroke="none" fill="white" font-size="16" x="106" y="48">
x1.sw_sample-2
</text>
<path stroke="green" d="M50 613l1 0 1 -9 0 -21 1 -21M53 579l0 -23M53 579l1 31M54 613l0 -3M54 613l63 0M117 620l0 -172M117 449l422 0M539 614l0 -171M539 613l422 0M961 618l0 -170 1 1 12 0"/>
<path stroke="#FFC0C5" d="M462 55l46 0"/>
<text stroke="none" fill="white" font-size="16" x="518" y="64">
x1.comp_out_p+2
</text>
<path stroke="#FFC0C5" d="M50 249l1 0 1 -9 0 -22 1 -18 0 -4M53 198l1 5M54 250l0 -47M54 246l1 3 619 0M674 253l0 -170M674 85l13 0M687 250l0 -173M687 249l66 0 0 -165M753 85l13 0M766 250l0 -174M766 249l41 0 0 -164 12 0M819 249l0 -174M819 249l15 0"/>
<path stroke="#FFC0C5" d="M834 249l0 -165M834 85l11 0 0 -2 1 151M846 249l0 -15M846 249l128 0"/>
<path stroke="#A52A2A" d="M50 55l46 0"/>
<text stroke="none" fill="white" font-size="16" x="106" y="64">
x1.comp_out_n-2
</text>
<path stroke="#A52A2A" d="M50 613l1 0 1 -9 0 -22 1 -19M53 564l0 -3M53 564l1 6M54 613l0 -43M54 613l488 0M542 615l0 -168M542 449l13 0M555 614l0 -173M555 613l13 0 0 -165M568 449l13 0 0 -3 1 85M582 614l0 -83M582 613l12 0 0 -165M594 449l14 0M608 613l0 -171"/>
<path stroke="#A52A2A" d="M608 613l13 0M621 614l0 -166M621 449l13 0M634 614l0 -168M634 614l1 -1 12 0M647 616l0 -169M647 449l14 0M661 614l0 -172M661 613l39 0 0 -166M700 449l13 0 0 -9 1 163M714 613l0 -10M714 613l13 0 0 -164 1 -1M728 449l0 -1M728 449l12 0"/>
<path stroke="#A52A2A" d="M740 613l0 -173M740 613l40 0 0 -157 1 -8M781 449l0 -1M781 449l12 0M793 613l0 -172M793 613l67 0 0 -165M860 449l12 0M872 613l0 -174M872 613l14 0 0 -151 1 -14M887 449l0 -1M887 449l11 0M898 613l0 -174M898 613l15 0 0 -165"/>
<path stroke="#A52A2A" d="M913 449l12 0M925 613l0 -170M925 613l12 0M937 614l0 -1M937 614l1 -102 0 -65M938 449l13 0M951 613l0 -172M951 613l23 0"/>
</svg>
