<?xml version="1.0" standalone="yes"?>
<!DOCTYPE svg PUBLIC "-//W3C//DTD SVG 1.1//EN"
 "http://www.w3.org/Graphics/SVG/1.1/DTD/svg11.dtd">
<svg xmlns="http://www.w3.org/2000/svg" version="1.1"
  width="100%" height="100%" viewBox="0 0 1024 768"
  style="fill: none; font-family: Helvetica;
 font: Helvetica;
">

<!-- Creator: NGspice -->

<rect x="0" y="0" width="1024" height="768" fill="black" stroke="none"/>
<text stroke="none" fill="white" font-size="16" x="358" y="752">
time
</text>
<text stroke="none" fill="white" font-size="16" x="10" y="16">
tran1: run95_vin-0.816065
</text>
<path stroke="white" d="M50 704l0 -637"/>
<text stroke="none" fill="white" font-size="16" x="35" y="728">
0.0
</text>
<path stroke="white" stroke-dasharray="1,2" d="M182 704l0 -637"/>
<text stroke="none" fill="white" font-size="16" x="157" y="728">
100.0
</text>
<path stroke="white" stroke-dasharray="1,2" d="M314 704l0 -637"/>
<text stroke="none" fill="white" font-size="16" x="289" y="728">
200.0
</text>
<path stroke="white" stroke-dasharray="1,2" d="M446 704l0 -637"/>
<text stroke="none" fill="white" font-size="16" x="421" y="728">
300.0
</text>
<path stroke="white" stroke-dasharray="1,2" d="M578 704l0 -637"/>
<text stroke="none" fill="white" font-size="16" x="553" y="728">
400.0
</text>
<path stroke="white" stroke-dasharray="1,2" d="M710 704l0 -637"/>
<text stroke="none" fill="white" font-size="16" x="685" y="728">
500.0
</text>
<path stroke="white" stroke-dasharray="1,2" d="M842 704l0 -637"/>
<text stroke="none" fill="white" font-size="16" x="817" y="728">
600.0
</text>
<path stroke="white" stroke-dasharray="1,2" d="M974 704l0 -637"/>
<text stroke="none" fill="white" font-size="16" x="949" y="728">
700.0
</text>
<text stroke="none" fill="white" font-size="16" x="614" y="752">
ns
</text>
<path stroke="white" stroke-dasharray="1,2" d="M50 704l924 0"/>
<text stroke="none" fill="white" font-size="16" x="8" y="712">
-3.0
</text>
<path stroke="white" stroke-dasharray="1,2" d="M50 613l924 0"/>
<text stroke="none" fill="white" font-size="16" x="8" y="621">
-2.0
</text>
<path stroke="white" stroke-dasharray="1,2" d="M50 522l924 0"/>
<text stroke="none" fill="white" font-size="16" x="8" y="530">
-1.0
</text>
<path stroke="white" d="M50 431l924 0"/>
<text stroke="none" fill="white" font-size="16" x="18" y="439">
0.0
</text>
<path stroke="white" stroke-dasharray="1,2" d="M50 340l924 0"/>
<text stroke="none" fill="white" font-size="16" x="18" y="348">
1.0
</text>
<path stroke="white" stroke-dasharray="1,2" d="M50 249l924 0"/>
<text stroke="none" fill="white" font-size="16" x="18" y="257">
2.0
</text>
<path stroke="white" stroke-dasharray="1,2" d="M50 158l924 0"/>
<text stroke="none" fill="white" font-size="16" x="18" y="166">
3.0
</text>
<path stroke="white" stroke-dasharray="1,2" d="M50 67l924 0"/>
<text stroke="none" fill="white" font-size="16" x="18" y="75">
4.0
</text>
<text stroke="none" fill="white" font-size="16" x="10" y="32">
     
</text>
<path stroke="red" d="M462 23l46 0"/>
<text stroke="none" fill="white" font-size="16" x="518" y="32">
x1.vsampled_p
</text>
<path stroke="red" d="M50 431l1 0 1 -7 0 -15 1 -14 0 -5 1 2M54 414l0 -39 1 -4 0 -13 1 -3 0 -3 1 -1 0 -1 2 0 1 -1 3 0 1 1 3 0 1 -1 49 0M117 372l0 -23M117 372l1 17M118 410l0 -21M118 410l1 3M119 418l0 -5M119 418l1 2M120 421l0 -1M120 421l1 1M121 423l0 -1"/>
<path stroke="red" d="M121 423l419 0M540 424l0 -1M540 424l1 -1 5 0M546 424l0 -27 1 -5 0 -19 1 -6 0 -3 2 -2 17 0M567 363l0 -1 58 0 0 -12 1 -2 0 -5 1 0M627 344l0 -1M627 344l19 0M646 345l0 -1 26 0M672 345l0 -1 7 0M679 351l0 -7M679 351l1 1M680 353l0 -3"/>
<path stroke="red" d="M680 350l1 0 0 -1 17 0 1 1 0 -1 26 0M725 350l0 -1 7 0 0 -1 1 -2M733 347l0 -2M733 347l18 0M751 348l0 -1M751 348l1 0 0 -1 7 0M759 350l0 -3M759 349l1 0 0 -1 18 0M778 349l0 -1 7 0M785 349l0 -1M785 349l1 1 0 -1 18 0M804 350l0 -1"/>
<path stroke="red" d="M804 349l9 0M813 350l0 -1 17 0 1 1 0 -1 26 0M857 350l0 -1 26 0M883 350l0 -1 27 0M910 350l0 -1 8 0M918 428l0 -79M918 428l1 5M919 436l0 -6 1 -1 0 -3 1 -1 0 -1 2 0 0 -1 13 0M936 424l0 -1 38 0"/>
<path stroke="blue" d="M50 23l46 0"/>
<text stroke="none" fill="white" font-size="16" x="106" y="32">
x1.vsampled_n
</text>
<path stroke="blue" d="M50 431l1 0 1 -7 0 -16 1 -14 0 -5 1 2M54 414l0 -39 1 -4 0 -13 1 -3 0 -3 1 -1 0 -1 2 0 1 -1 3 0 1 1 4 0 1 -1 48 0 0 -1 1 -12 0 -35 1 -6 0 -11 1 -3 0 -2 1 -2 0 -1 1 -1 418 0M540 276l0 -1 27 0M567 277l0 -2 6 0M573 283l0 -8"/>
<path stroke="blue" d="M573 283l1 3M574 303l0 -17M574 303l1 9M575 316l0 -4M575 316l18 0M593 317l0 -1 7 0M600 330l0 -14M600 330l1 4M601 337l0 -3M601 337l1 0 0 -1 17 0M619 337l0 -1M619 337l1 0 0 -1 26 0M646 337l0 -1 7 0M653 346l0 -10M653 346l1 1"/>
<path stroke="blue" d="M654 347l5 0 0 -1M659 347l27 0 0 -1M686 347l20 0M706 350l0 -3M706 349l212 0 0 -37 1 -4 0 -23 1 -3 0 -4 1 -1 0 -1 1 0 0 -1 14 0M936 277l0 -2 38 0"/>
<path stroke="#FFA500" d="M462 39l46 0"/>
<text stroke="none" fill="white" font-size="16" x="518" y="48">
x1.vsampled_p-x1.vsampled_n
</text>
<path stroke="#FFA500" d="M50 431l2 0M52 432l0 -1M52 432l2 0 0 -1 63 0M117 455l0 -24M117 455l1 29M118 540l0 -56M118 540l1 9M119 565l0 -16M119 565l1 5M120 574l0 -4M120 574l1 2M121 578l0 -2M121 578l1 1 2 0 1 1 414 0 0 -1 7 0 0 -27 1 -4 0 -19 1 -7"/>
<path stroke="#FFA500" d="M548 522l0 -2 2 -2 17 0 0 -1M567 518l6 0 0 -8 1 -3 0 -17 1 -9 0 -4 18 0 0 -1M593 477l7 0 0 -14 1 -4 0 -3 1 0M602 457l0 -1M602 457l17 0 0 -1M619 457l6 0 0 -13 1 -1 0 -5 2 0M628 439l0 -1M628 439l25 0 0 -9 1 -1 0 -1 1 1"/>
<path stroke="#FFA500" d="M655 429l4 0 0 -1M659 429l20 0M679 436l0 -8M679 436l1 0M680 438l0 -4 26 0 0 -3 26 0 0 -1 1 -2M733 429l0 -2M733 429l26 0M759 432l0 -3M759 430l26 0M785 431l0 -1M785 431l1 1 0 -1 27 0M813 432l0 -1 25 0 0 -1M838 431l80 0"/>
<path stroke="#FFA500" d="M918 547l0 -116M918 547l1 9M919 576l0 -20M919 576l1 1M920 579l0 -2M920 579l3 0M923 580l0 -1 13 0 0 -1M936 579l14 0M950 580l0 -1 12 0M962 580l0 -1M962 580l12 0"/>
<path stroke="green" d="M50 39l46 0"/>
<text stroke="none" fill="white" font-size="16" x="106" y="48">
x1.sw_sample-2
</text>
<path stroke="green" d="M50 613l1 0 1 -9 0 -21 1 -21M53 579l0 -23M53 579l1 31M54 613l0 -3M54 613l63 0M117 620l0 -172M117 449l422 0M539 614l0 -171M539 613l422 0M961 618l0 -170 1 1 12 0"/>
<path stroke="#FFC0C5" d="M462 55l46 0"/>
<text stroke="none" fill="white" font-size="16" x="518" y="64">
x1.comp_out_p+2
</text>
<path stroke="#FFC0C5" d="M50 249l1 0 1 -9 0 -22 1 -18 0 -4M53 198l1 5M54 250l0 -47M54 246l1 3 618 0 1 2 0 -168M674 85l13 0M687 249l0 -172M687 249l66 0 0 -165M753 85l13 0M766 250l0 -173M766 250l1 -1 13 0 0 -165M780 85l13 0M793 250l0 -174M793 249l14 0"/>
<path stroke="#FFC0C5" d="M807 249l0 -148 1 -16 0 -1M808 85l11 0M819 250l0 -172M819 249l41 0 0 -164 12 0M872 250l0 -174M872 249l14 0 1 -151 0 -14M887 85l11 0M898 250l0 -174M898 249l15 0 0 -165M913 85l12 0M925 250l0 -171M925 249l49 0"/>
<path stroke="#A52A2A" d="M50 55l46 0"/>
<text stroke="none" fill="white" font-size="16" x="106" y="64">
x1.comp_out_n-2
</text>
<path stroke="#A52A2A" d="M50 613l1 0 1 -9 0 -22 1 -19M53 564l0 -3M53 564l1 6M54 613l0 -43M54 613l487 0 1 1 0 -167M542 449l13 0M555 613l0 -171M555 613l13 0M568 615l0 -168M568 449l13 0 0 -8 1 159M582 613l0 -13M582 613l12 0M594 615l0 -168M594 449l14 0"/>
<path stroke="#A52A2A" d="M608 613l0 -171M608 613l13 0 0 -165M621 449l13 0M634 614l0 -167M634 614l1 -1 12 0M647 614l0 -167M647 449l14 0M661 614l0 -170M661 613l39 0 0 -166M700 449l13 0 0 -4 1 156M714 613l0 -12M714 613l14 0 0 -164 12 0M740 613l0 -174"/>
<path stroke="#A52A2A" d="M740 613l94 0 0 -165M834 449l11 0 0 -10 1 153M846 613l0 -21M846 613l91 0 1 -47 0 -118M938 449l13 0M951 613l0 -172M951 613l23 0"/>
</svg>
