<?xml version="1.0" standalone="yes"?>
<!DOCTYPE svg PUBLIC "-//W3C//DTD SVG 1.1//EN"
 "http://www.w3.org/Graphics/SVG/1.1/DTD/svg11.dtd">
<svg xmlns="http://www.w3.org/2000/svg" version="1.1"
  width="100%" height="100%" viewBox="0 0 1024 768"
  style="fill: none; font-family: Helvetica;
 font: Helvetica;
">

<!-- Creator: NGspice -->

<rect x="0" y="0" width="1024" height="768" fill="black" stroke="none"/>
<text stroke="none" fill="white" font-size="16" x="358" y="752">
time
</text>
<text stroke="none" fill="white" font-size="16" x="10" y="16">
tran1: run1889_vin0.760691
</text>
<path stroke="white" d="M50 704l0 -637"/>
<text stroke="none" fill="white" font-size="16" x="35" y="728">
0.0
</text>
<path stroke="white" stroke-dasharray="1,2" d="M182 704l0 -637"/>
<text stroke="none" fill="white" font-size="16" x="157" y="728">
100.0
</text>
<path stroke="white" stroke-dasharray="1,2" d="M314 704l0 -637"/>
<text stroke="none" fill="white" font-size="16" x="289" y="728">
200.0
</text>
<path stroke="white" stroke-dasharray="1,2" d="M446 704l0 -637"/>
<text stroke="none" fill="white" font-size="16" x="421" y="728">
300.0
</text>
<path stroke="white" stroke-dasharray="1,2" d="M578 704l0 -637"/>
<text stroke="none" fill="white" font-size="16" x="553" y="728">
400.0
</text>
<path stroke="white" stroke-dasharray="1,2" d="M710 704l0 -637"/>
<text stroke="none" fill="white" font-size="16" x="685" y="728">
500.0
</text>
<path stroke="white" stroke-dasharray="1,2" d="M842 704l0 -637"/>
<text stroke="none" fill="white" font-size="16" x="817" y="728">
600.0
</text>
<path stroke="white" stroke-dasharray="1,2" d="M974 704l0 -637"/>
<text stroke="none" fill="white" font-size="16" x="949" y="728">
700.0
</text>
<text stroke="none" fill="white" font-size="16" x="614" y="752">
ns
</text>
<path stroke="white" stroke-dasharray="1,2" d="M50 704l924 0"/>
<text stroke="none" fill="white" font-size="16" x="8" y="712">
-3.0
</text>
<path stroke="white" stroke-dasharray="1,2" d="M50 613l924 0"/>
<text stroke="none" fill="white" font-size="16" x="8" y="621">
-2.0
</text>
<path stroke="white" stroke-dasharray="1,2" d="M50 522l924 0"/>
<text stroke="none" fill="white" font-size="16" x="8" y="530">
-1.0
</text>
<path stroke="white" d="M50 431l924 0"/>
<text stroke="none" fill="white" font-size="16" x="18" y="439">
0.0
</text>
<path stroke="white" stroke-dasharray="1,2" d="M50 340l924 0"/>
<text stroke="none" fill="white" font-size="16" x="18" y="348">
1.0
</text>
<path stroke="white" stroke-dasharray="1,2" d="M50 249l924 0"/>
<text stroke="none" fill="white" font-size="16" x="18" y="257">
2.0
</text>
<path stroke="white" stroke-dasharray="1,2" d="M50 158l924 0"/>
<text stroke="none" fill="white" font-size="16" x="18" y="166">
3.0
</text>
<path stroke="white" stroke-dasharray="1,2" d="M50 67l924 0"/>
<text stroke="none" fill="white" font-size="16" x="18" y="75">
4.0
</text>
<text stroke="none" fill="white" font-size="16" x="10" y="32">
     
</text>
<path stroke="red" d="M462 23l46 0"/>
<text stroke="none" fill="white" font-size="16" x="518" y="32">
x1.vsampled_p
</text>
<path stroke="red" d="M50 431l1 0 1 -7 0 -16 1 -14 0 -5 1 2M54 414l0 -38 1 -5 0 -13 1 -3 0 -2 1 -2 0 -1 2 0 1 -1 3 0 1 1 5 0 0 -1 48 0 0 -1 1 -12 0 -34 1 -6 0 -9 1 -3 0 -2 2 -2 418 0M540 281l0 -1 27 0M567 282l0 -2 7 0M574 303l0 -23M574 303l1 7"/>
<path stroke="red" d="M575 319l0 -9M575 319l1 2 17 0M593 322l0 -1 7 0M600 334l0 -13M600 334l1 4M601 343l0 -5M601 342l1 0 1 -1 1 1 2 0 0 -1 13 0M619 342l0 -1M619 342l1 0 0 -1M620 342l5 0 0 -1 1 1 7 0 0 -1 13 0M646 342l0 -1M646 342l13 0 0 -1 13 0"/>
<path stroke="red" d="M672 342l0 -1M672 342l7 0M679 346l0 -5M679 346l1 0M680 348l0 -2M680 347l6 0 0 -1M686 347l20 0M706 350l0 -3M706 349l108 0M814 350l0 -1 16 0 1 1 0 -1 88 0M919 350l0 -35 1 -2 0 -22 1 -2 0 -5 1 -1 0 -2 1 0 0 -1 13 0M936 282l0 -2"/>
<path stroke="red" d="M936 280l38 0"/>
<path stroke="blue" d="M50 23l46 0"/>
<text stroke="none" fill="white" font-size="16" x="106" y="32">
x1.vsampled_n
</text>
<path stroke="blue" d="M50 431l1 0 1 -7 0 -15 1 -14 0 -5 1 2M54 414l0 -38 1 -5 0 -13 1 -3 0 -2 1 -2 0 -1 2 0 1 -1 3 0 1 1 3 0 1 -1 49 0M117 369l0 -20M117 369l1 16M118 406l0 -21M118 406l1 3M119 414l0 -5M119 414l1 2M120 417l0 -1M120 417l1 1 419 0"/>
<path stroke="blue" d="M540 419l0 -1 6 0 0 -21 1 -2 0 -23 1 -7 0 -5 1 -2 1 0 0 -1 17 0M567 358l0 -1 58 0 0 -13 1 -1 0 -5 1 0M627 339l0 -1M627 339l19 0M646 340l0 -1 7 0M653 350l0 -11M653 350l1 2 0 -1 1 -1 0 -1 17 0M672 350l0 -1 26 0 1 1 0 -1 26 0"/>
<path stroke="blue" d="M725 350l0 -1 8 0 0 -4M733 347l18 0M751 348l0 -1 8 0M759 350l0 -3M759 349l6 0 0 -1 13 0M778 349l0 -1M778 349l8 0M786 350l0 -1 18 0M804 350l0 -1 27 0M831 350l0 -1 26 0M857 350l0 -1 26 0M883 350l0 -1 27 0M910 350l0 -1 9 0"/>
<path stroke="blue" d="M919 413l0 -64M919 413l1 4M920 425l0 -8M920 424l1 -1 0 -2 1 0 0 -2 2 0 0 -1 12 0M936 419l0 -1 38 0"/>
<path stroke="#FFA500" d="M462 39l46 0"/>
<text stroke="none" fill="white" font-size="16" x="518" y="48">
x1.vsampled_p-x1.vsampled_n
</text>
<path stroke="#FFA500" d="M50 431l2 0 0 -1 2 0M54 431l0 -1M54 431l63 0 0 -21 1 -28 0 -56 1 -8 0 -14 1 -4 0 -4 2 -2 0 -1 418 0M540 294l0 -1 6 0M546 314l0 -21M546 314l1 2M547 339l0 -23M547 339l1 8M548 351l0 -4M548 351l1 2 1 1 17 0M567 355l0 -1"/>
<path stroke="#FFA500" d="M567 354l7 0M574 377l0 -23M574 377l1 6M575 393l0 -10M575 393l1 2 24 0M600 408l0 -13M600 408l1 4M601 416l0 -4M601 416l1 0 0 -1 17 0M619 416l0 -1 1 0M620 416l0 -1 5 0M625 428l0 -13M625 428l1 1M626 434l0 -5M626 434l2 0"/>
<path stroke="#FFA500" d="M628 434l0 -1 25 0 0 -11 1 -1 0 -1M654 421l1 1M655 423l0 -1M655 423l24 0M679 427l0 -4M679 427l1 1M680 429l0 -1 26 0M706 431l0 -3M706 431l19 0 0 -1M725 431l8 0M733 435l0 -4M733 433l26 0 0 -3M759 432l19 0 0 -1M778 432l7 0"/>
<path stroke="#FFA500" d="M785 432l1 -1 0 -1M786 431l28 0M814 432l0 -1 105 0M919 432l0 -98 1 -7 0 -29 1 -2 0 -2 1 0 0 -1 1 0 0 -1M923 293l13 0M936 294l0 -1 14 0 0 -1M950 293l24 0"/>
<path stroke="green" d="M50 39l46 0"/>
<text stroke="none" fill="white" font-size="16" x="106" y="48">
x1.sw_sample-2
</text>
<path stroke="green" d="M50 613l1 0 1 -9 0 -21 1 -21M53 579l0 -23M53 579l1 31M54 613l0 -3M54 613l63 0M117 620l0 -172M117 449l422 0M539 614l0 -171M539 613l422 0M961 618l0 -170 1 1 12 0"/>
<path stroke="#FFC0C5" d="M462 55l46 0"/>
<text stroke="none" fill="white" font-size="16" x="518" y="64">
x1.comp_out_p+2
</text>
<path stroke="#FFC0C5" d="M50 249l1 0 1 -9 0 -22 1 -18 0 -4M53 198l1 5M54 249l0 -46M54 249l487 0 1 1 0 -166M542 85l13 0M555 249l0 -173M555 249l13 0 0 -165M568 85l13 0 0 -8 1 161M582 250l0 -12M582 249l12 0 0 -166M594 85l14 0M608 250l0 -173M608 249l13 0"/>
<path stroke="#FFC0C5" d="M621 249l0 -165M621 85l13 0M634 249l0 -172M634 249l39 0M673 250l0 -90 1 -68 0 -8M674 85l13 0M687 249l0 -172M687 249l13 0 0 -165M700 85l13 0 0 -9 1 134M714 250l0 -40M714 249l14 0 0 -165 1 1 11 0M740 250l0 -172M740 249l68 0"/>
<path stroke="#FFC0C5" d="M808 249l0 -145 1 -19 0 -1M809 85l10 0M819 249l0 -174M819 249l42 0 0 -164 1 -1M862 85l0 -1M862 85l10 0M872 249l0 -166M872 249l42 0 0 -165 1 1 10 0M925 249l0 -172M925 249l12 0 1 -53 0 -112M938 85l13 0M951 250l0 -173M951 249l23 0"/>
<path stroke="#A52A2A" d="M50 55l46 0"/>
<text stroke="none" fill="white" font-size="16" x="106" y="64">
x1.comp_out_n-2
</text>
<path stroke="#A52A2A" d="M50 613l1 0 1 -9 0 -22 1 -19M53 564l0 -3M53 564l1 6M54 613l0 -43M54 611l1 2 592 0M647 617l0 -170M647 449l14 0M661 613l0 -174M661 613l92 0 0 -165M753 449l13 0M766 613l0 -173M766 613l14 0 0 -165M780 449l13 0M793 613l0 -173"/>
<path stroke="#A52A2A" d="M793 613l40 0 1 1 0 -166M834 449l11 0 0 -9 1 158M846 613l0 -15M846 613l41 0 0 -165M887 449l11 0M898 613l0 -173M898 613l76 0"/>
</svg>
