<?xml version="1.0" standalone="yes"?>
<!DOCTYPE svg PUBLIC "-//W3C//DTD SVG 1.1//EN"
 "http://www.w3.org/Graphics/SVG/1.1/DTD/svg11.dtd">
<svg xmlns="http://www.w3.org/2000/svg" version="1.1"
  width="100%" height="100%" viewBox="0 0 1024 768"
  style="fill: none; font-family: Helvetica;
 font: Helvetica;
">

<!-- Creator: NGspice -->

<rect x="0" y="0" width="1024" height="768" fill="black" stroke="none"/>
<text stroke="none" fill="white" font-size="16" x="358" y="752">
time
</text>
<text stroke="none" fill="white" font-size="16" x="10" y="16">
tran1: run1894_vin0.765086
</text>
<path stroke="white" d="M50 704l0 -637"/>
<text stroke="none" fill="white" font-size="16" x="35" y="728">
0.0
</text>
<path stroke="white" stroke-dasharray="1,2" d="M182 704l0 -637"/>
<text stroke="none" fill="white" font-size="16" x="157" y="728">
100.0
</text>
<path stroke="white" stroke-dasharray="1,2" d="M314 704l0 -637"/>
<text stroke="none" fill="white" font-size="16" x="289" y="728">
200.0
</text>
<path stroke="white" stroke-dasharray="1,2" d="M446 704l0 -637"/>
<text stroke="none" fill="white" font-size="16" x="421" y="728">
300.0
</text>
<path stroke="white" stroke-dasharray="1,2" d="M578 704l0 -637"/>
<text stroke="none" fill="white" font-size="16" x="553" y="728">
400.0
</text>
<path stroke="white" stroke-dasharray="1,2" d="M710 704l0 -637"/>
<text stroke="none" fill="white" font-size="16" x="685" y="728">
500.0
</text>
<path stroke="white" stroke-dasharray="1,2" d="M842 704l0 -637"/>
<text stroke="none" fill="white" font-size="16" x="817" y="728">
600.0
</text>
<path stroke="white" stroke-dasharray="1,2" d="M974 704l0 -637"/>
<text stroke="none" fill="white" font-size="16" x="949" y="728">
700.0
</text>
<text stroke="none" fill="white" font-size="16" x="614" y="752">
ns
</text>
<path stroke="white" stroke-dasharray="1,2" d="M50 704l924 0"/>
<text stroke="none" fill="white" font-size="16" x="8" y="712">
-3.0
</text>
<path stroke="white" stroke-dasharray="1,2" d="M50 613l924 0"/>
<text stroke="none" fill="white" font-size="16" x="8" y="621">
-2.0
</text>
<path stroke="white" stroke-dasharray="1,2" d="M50 522l924 0"/>
<text stroke="none" fill="white" font-size="16" x="8" y="530">
-1.0
</text>
<path stroke="white" d="M50 431l924 0"/>
<text stroke="none" fill="white" font-size="16" x="18" y="439">
0.0
</text>
<path stroke="white" stroke-dasharray="1,2" d="M50 340l924 0"/>
<text stroke="none" fill="white" font-size="16" x="18" y="348">
1.0
</text>
<path stroke="white" stroke-dasharray="1,2" d="M50 249l924 0"/>
<text stroke="none" fill="white" font-size="16" x="18" y="257">
2.0
</text>
<path stroke="white" stroke-dasharray="1,2" d="M50 158l924 0"/>
<text stroke="none" fill="white" font-size="16" x="18" y="166">
3.0
</text>
<path stroke="white" stroke-dasharray="1,2" d="M50 67l924 0"/>
<text stroke="none" fill="white" font-size="16" x="18" y="75">
4.0
</text>
<text stroke="none" fill="white" font-size="16" x="10" y="32">
     
</text>
<path stroke="red" d="M462 23l46 0"/>
<text stroke="none" fill="white" font-size="16" x="518" y="32">
x1.vsampled_p
</text>
<path stroke="red" d="M50 431l1 0 1 -7 0 -16 1 -14 0 -5 1 2M54 414l0 -38 1 -5 0 -13 1 -3 0 -2 1 -2 0 -1 2 0 1 -1 3 0 1 1 5 0 0 -1 48 0 0 -1 1 -12 0 -35 1 -5 0 -9 1 -3 0 -2 1 -1 0 -1 3 0 1 -1 414 0M539 280l0 -1M539 280l1 0M540 281l0 -1 14 0 0 -1"/>
<path stroke="red" d="M554 280l13 0M567 281l0 -1 7 0M574 306l0 -26M574 306l1 9 1 5M576 321l0 -1M576 321l4 0 0 -1M580 321l20 0M600 333l0 -12M600 333l1 3M601 342l0 -6M601 342l1 -1 77 0M679 345l0 -4M679 345l1 1M680 347l0 -1 26 0M706 349l0 -3M706 349l80 0"/>
<path stroke="red" d="M786 350l0 -1M786 350l1 -1 17 0M804 350l0 -1 27 0M831 350l0 -1 87 0M918 350l0 -51 1 -3 0 -8 1 -2 0 -4 1 -1 0 -1 2 0 0 -1M923 280l13 0M936 281l0 -1 14 0 0 -1M950 280l12 0 0 -1 12 0"/>
<path stroke="blue" d="M50 23l46 0"/>
<text stroke="none" fill="white" font-size="16" x="106" y="32">
x1.vsampled_n
</text>
<path stroke="blue" d="M50 431l1 0 1 -7 0 -15 1 -14 0 -5 1 2M54 414l0 -38 1 -5 0 -13 1 -3 0 -2 1 -2 0 -1 2 0 1 -1 3 0 1 1 3 0 1 -1 49 0M117 369l0 -20M117 369l1 17M118 407l0 -21M118 407l1 3M119 415l0 -5M119 415l1 1M120 417l0 -1M120 417l2 2 424 0"/>
<path stroke="blue" d="M546 419l0 -24 1 -3 0 -21 1 -7 0 -4 1 -2 5 0 0 -1 12 0 1 1 0 -1M567 358l13 0 0 -1 13 0M593 358l0 -1M593 358l13 0 0 -1 13 0M619 358l0 -1M619 358l1 0 0 -1M620 358l5 0 0 -14 1 -1 0 -4 2 0 1 1 4 0 0 -1M633 340l20 0M653 351l0 -11"/>
<path stroke="blue" d="M653 351l1 1M654 353l0 -2 1 -1 76 0 1 -1 0 -3M732 347l1 1 5 0 0 -1 1 0M739 348l0 -1M739 348l20 0M759 351l0 -3M759 349l53 0M812 350l0 -1 19 0M831 350l0 -1 26 0M857 350l0 -1 26 0M883 350l0 -1M883 350l1 -1 26 0M910 350l0 -1"/>
<path stroke="blue" d="M910 349l8 0M918 425l0 -76M918 425l1 0 0 -1 1 -2 0 -2 1 0 0 -1 53 0"/>
<path stroke="#FFA500" d="M462 39l46 0"/>
<text stroke="none" fill="white" font-size="16" x="518" y="48">
x1.vsampled_p-x1.vsampled_n
</text>
<path stroke="#FFA500" d="M50 431l2 0 0 -1 2 0M54 431l0 -1M54 431l63 0 0 -21 1 -28 0 -56 1 -9 0 -14 1 -4 0 -3 1 -2 0 -1 1 -1 418 0M540 293l0 -1 6 0M546 316l0 -24M546 316l1 3M547 340l0 -21M547 340l1 7M548 351l0 -4M548 351l2 2 17 0M567 354l0 -1"/>
<path stroke="#FFA500" d="M567 353l7 0M574 380l0 -27M574 380l1 8 1 6 17 0M593 395l0 -1 7 0M600 407l0 -13M600 407l1 2M601 416l0 -7M601 415l5 0 0 -1 1 0M607 415l0 -1M607 415l12 0 0 -1 1 0M620 415l0 -1M620 415l5 0M625 428l0 -13M625 428l1 1M626 434l0 -5"/>
<path stroke="#FFA500" d="M626 434l1 -1 1 0 1 -1 4 0M633 433l0 -1 20 0 0 -11 1 -1M654 421l0 -2M654 421l1 1 24 0M679 426l0 -4M679 426l1 1M680 428l0 -1 26 0M706 430l0 -3M706 430l25 0 1 1M732 434l0 -3M732 432l27 0 0 -3M759 431l27 0M786 432l0 -1"/>
<path stroke="#FFA500" d="M786 432l1 -1 4 0M791 432l0 -1 13 0M804 432l0 -1M804 432l1 -1 7 0 0 -1M812 431l106 0M918 432l0 -128 1 -2 0 -7 1 -1 0 -1 1 0 0 -1 2 0 0 -1M923 292l13 0M936 293l0 -1 14 0 0 -1M950 292l24 0"/>
<path stroke="green" d="M50 39l46 0"/>
<text stroke="none" fill="white" font-size="16" x="106" y="48">
x1.sw_sample-2
</text>
<path stroke="green" d="M50 613l1 0 1 -9 0 -21 1 -21M53 579l0 -23M53 579l1 31M54 613l0 -3M54 613l63 0M117 620l0 -172M117 449l422 0M539 614l0 -171M539 613l422 0M961 618l0 -170 1 1 12 0"/>
<path stroke="#FFC0C5" d="M462 55l46 0"/>
<text stroke="none" fill="white" font-size="16" x="518" y="64">
x1.comp_out_p+2
</text>
<path stroke="#FFC0C5" d="M50 249l1 0 1 -9 0 -22 1 -18 0 -4M53 198l1 5M54 249l0 -46M54 249l487 0 1 1 0 -167M542 85l13 0M555 250l0 -173M555 249l13 0M568 250l0 -166M568 85l13 0 0 -8 1 161M582 250l0 -12M582 249l12 0M594 253l0 -170M594 85l14 0M608 250l0 -168"/>
<path stroke="#FFC0C5" d="M608 249l13 0 0 -165M621 85l13 0M634 249l0 -172M634 249l39 0M673 251l0 -2M673 251l1 -92 0 -76M674 85l13 0M687 249l0 -171M687 249l13 0 0 -165M700 85l13 0 0 -9 1 160M714 249l0 -13M714 249l13 0 0 -165 1 1 12 0M740 249l0 -172"/>
<path stroke="#FFC0C5" d="M740 249l40 0 0 -150 1 -15M781 85l0 -1M781 85l12 0M793 249l0 -172M793 249l67 0 0 -165M860 85l12 0M872 249l0 -174M872 249l14 0 0 -148 1 -16 0 -1M887 85l11 0M898 249l0 -174M898 249l15 0 0 -165M913 85l12 0M925 249l0 -172"/>
<path stroke="#FFC0C5" d="M925 249l12 0M937 250l0 -1M937 250l1 -80 0 -86M938 85l13 0M951 249l0 -171M951 249l23 0"/>
<path stroke="#A52A2A" d="M50 55l46 0"/>
<text stroke="none" fill="white" font-size="16" x="106" y="64">
x1.comp_out_n-2
</text>
<path stroke="#A52A2A" d="M50 613l1 0 1 -9 0 -22 1 -19M53 564l0 -3M53 564l1 6M54 613l0 -43M54 611l1 2 592 0M647 615l0 -168M647 449l14 0M661 613l0 -174M661 613l92 0 0 -165M753 449l13 0M766 613l0 -173M766 613l41 0 0 -165M807 449l12 0M819 613l0 -174"/>
<path stroke="#A52A2A" d="M819 613l15 0 0 -165M834 449l11 0M845 592l0 -150M845 592l1 21 128 0"/>
</svg>
