<?xml version="1.0" standalone="yes"?>
<!DOCTYPE svg PUBLIC "-//W3C//DTD SVG 1.1//EN"
 "http://www.w3.org/Graphics/SVG/1.1/DTD/svg11.dtd">
<svg xmlns="http://www.w3.org/2000/svg" version="1.1"
  width="100%" height="100%" viewBox="0 0 1024 768"
  style="fill: none; font-family: Helvetica;
 font: Helvetica;
">

<!-- Creator: NGspice -->

<rect x="0" y="0" width="1024" height="768" fill="black" stroke="none"/>
<text stroke="none" fill="white" font-size="16" x="358" y="752">
time
</text>
<text stroke="none" fill="white" font-size="16" x="10" y="16">
tran1: run1215_vin0.168309
</text>
<path stroke="white" d="M50 704l0 -637"/>
<text stroke="none" fill="white" font-size="16" x="35" y="728">
0.0
</text>
<path stroke="white" stroke-dasharray="1,2" d="M182 704l0 -637"/>
<text stroke="none" fill="white" font-size="16" x="157" y="728">
100.0
</text>
<path stroke="white" stroke-dasharray="1,2" d="M314 704l0 -637"/>
<text stroke="none" fill="white" font-size="16" x="289" y="728">
200.0
</text>
<path stroke="white" stroke-dasharray="1,2" d="M446 704l0 -637"/>
<text stroke="none" fill="white" font-size="16" x="421" y="728">
300.0
</text>
<path stroke="white" stroke-dasharray="1,2" d="M578 704l0 -637"/>
<text stroke="none" fill="white" font-size="16" x="553" y="728">
400.0
</text>
<path stroke="white" stroke-dasharray="1,2" d="M710 704l0 -637"/>
<text stroke="none" fill="white" font-size="16" x="685" y="728">
500.0
</text>
<path stroke="white" stroke-dasharray="1,2" d="M842 704l0 -637"/>
<text stroke="none" fill="white" font-size="16" x="817" y="728">
600.0
</text>
<path stroke="white" stroke-dasharray="1,2" d="M974 704l0 -637"/>
<text stroke="none" fill="white" font-size="16" x="949" y="728">
700.0
</text>
<text stroke="none" fill="white" font-size="16" x="614" y="752">
ns
</text>
<path stroke="white" stroke-dasharray="1,2" d="M50 704l924 0"/>
<text stroke="none" fill="white" font-size="16" x="8" y="712">
-2.5
</text>
<path stroke="white" stroke-dasharray="1,2" d="M50 655l924 0"/>
<text stroke="none" fill="white" font-size="16" x="8" y="663">
-2.0
</text>
<path stroke="white" stroke-dasharray="1,2" d="M50 606l924 0"/>
<text stroke="none" fill="white" font-size="16" x="8" y="614">
-1.5
</text>
<path stroke="white" stroke-dasharray="1,2" d="M50 557l924 0"/>
<text stroke="none" fill="white" font-size="16" x="8" y="565">
-1.0
</text>
<path stroke="white" stroke-dasharray="1,2" d="M50 508l924 0"/>
<text stroke="none" fill="white" font-size="16" x="8" y="516">
-0.5
</text>
<path stroke="white" d="M50 459l924 0"/>
<text stroke="none" fill="white" font-size="16" x="18" y="467">
0.0
</text>
<path stroke="white" stroke-dasharray="1,2" d="M50 410l924 0"/>
<text stroke="none" fill="white" font-size="16" x="18" y="418">
0.5
</text>
<path stroke="white" stroke-dasharray="1,2" d="M50 361l924 0"/>
<text stroke="none" fill="white" font-size="16" x="18" y="369">
1.0
</text>
<path stroke="white" stroke-dasharray="1,2" d="M50 312l924 0"/>
<text stroke="none" fill="white" font-size="16" x="18" y="320">
1.5
</text>
<path stroke="white" stroke-dasharray="1,2" d="M50 263l924 0"/>
<text stroke="none" fill="white" font-size="16" x="18" y="271">
2.0
</text>
<path stroke="white" stroke-dasharray="1,2" d="M50 214l924 0"/>
<text stroke="none" fill="white" font-size="16" x="18" y="222">
2.5
</text>
<path stroke="white" stroke-dasharray="1,2" d="M50 165l924 0"/>
<text stroke="none" fill="white" font-size="16" x="18" y="173">
3.0
</text>
<path stroke="white" stroke-dasharray="1,2" d="M50 116l924 0"/>
<text stroke="none" fill="white" font-size="16" x="18" y="124">
3.5
</text>
<path stroke="white" stroke-dasharray="1,2" d="M50 67l924 0"/>
<text stroke="none" fill="white" font-size="16" x="18" y="75">
4.0
</text>
<text stroke="none" fill="white" font-size="16" x="10" y="32">
     
</text>
<path stroke="red" d="M462 23l46 0"/>
<text stroke="none" fill="white" font-size="16" x="518" y="32">
x1.vsampled_p
</text>
<path stroke="red" d="M50 459l1 0 1 -7 0 -17 1 -15 0 -5 1 1M54 442l0 -42 1 -6 0 -15 1 -3 0 -2 1 -2 1 0 0 -1 59 0 0 -1 1 -5 0 -7 1 -2 2 -2 418 0M539 355l0 -1M539 355l15 0 0 -1 12 0 1 1 13 0 0 -1 13 0M593 355l0 -1M593 355l7 0M600 368l0 -13M600 368l1 3"/>
<path stroke="red" d="M601 380l0 -9M601 379l1 -1 0 -1 4 0 0 -1 2 0M608 377l0 -1M608 377l1 0 0 -1 10 0M619 377l0 -1M619 377l1 0 0 -1M620 377l5 0 0 -7 1 -3 0 -9 1 -1 19 0M646 358l0 -1 7 0M653 367l0 -10M653 367l1 2M654 370l0 -1 1 0 0 -1 17 0M672 369l0 -1"/>
<path stroke="red" d="M672 368l27 0M699 369l0 -1 7 0M706 372l0 -4M706 372l1 0 0 -1 26 0 0 -3 1 0M734 369l0 -1M734 369l4 0 0 -1 1 1 20 0M759 371l0 -2M759 370l26 0 1 1 27 0M813 372l0 -1 25 0 0 -1 1 1 79 0M918 372l0 -7 1 -2 0 -8 1 -1 2 0M922 355l0 -1"/>
<path stroke="red" d="M922 355l1 0 0 -1 13 0M936 355l0 -1M936 355l14 0 0 -1 24 0"/>
<path stroke="blue" d="M50 23l46 0"/>
<text stroke="none" fill="white" font-size="16" x="106" y="32">
x1.vsampled_n
</text>
<path stroke="blue" d="M50 459l1 0 1 -7 0 -17 1 -15 0 -5 1 2M54 442l0 -42 1 -6 0 -15 1 -3 0 -2 1 -2 1 0 0 -1 59 0M117 373l0 -2M117 373l1 5M118 384l0 -6M118 384l1 2 1 1 420 0M540 388l0 -1M540 388l1 -1 5 0 0 -20 1 -3 0 -29 1 -6 0 -4 1 -2 0 -1 5 0"/>
<path stroke="blue" d="M554 322l0 -1 12 0 1 1M567 323l0 -1 6 0 1 -1M574 355l0 -34M574 355l1 5M575 368l0 -8M575 368l1 0 0 -1 1 -1 3 0 0 -1 13 0M593 366l0 -1M593 366l13 0 0 -1 13 0M619 366l0 -1M619 366l1 0 0 -1M620 366l5 0 0 -1 1 1 7 0 0 -1 13 0"/>
<path stroke="blue" d="M646 366l0 -1M646 366l13 0 0 -1 13 0M672 366l0 -1 1 1 6 0M679 372l0 -6M679 372l1 0M680 374l0 -3 238 0M918 384l0 -16M918 384l1 2M919 390l0 -4M919 389l1 -1 2 0 0 -1 14 0M936 388l0 -1 38 0"/>
<path stroke="#FFA500" d="M462 39l46 0"/>
<text stroke="none" fill="white" font-size="16" x="518" y="48">
x1.vsampled_p-x1.vsampled_n
</text>
<path stroke="#FFA500" d="M50 459l67 0 0 -3 1 -10 0 -13 1 -4 1 -2 1 -1 425 0M546 447l0 -21M546 447l1 3M547 479l0 -29M547 479l1 6M548 488l0 -3M548 488l1 2M549 491l0 -1M549 491l1 1 17 0 0 -1M567 492l7 0 0 -33 1 -5 0 -8 1 0M576 447l0 -1M576 447l1 0"/>
<path stroke="#FFA500" d="M577 448l0 -1M577 448l23 0M600 461l0 -13M600 461l1 3M601 473l0 -9M601 473l1 -1 0 -1 1 -1 22 0 0 -7 1 -2 0 -10 20 0 0 -1M646 451l7 0M653 461l0 -10M653 461l1 2 0 -1 25 0 0 -6 1 -1M680 456l0 -2M680 456l26 0M706 460l0 -4"/>
<path stroke="#FFA500" d="M706 460l1 0 0 -1 26 0 0 -3 1 0M734 457l0 -1M734 457l25 0M759 459l0 -2M759 458l26 0 1 1 27 0M813 460l0 -1 25 0 0 -1 1 1 79 0M918 461l0 -21 1 -4 0 -11 1 0 1 1 15 0M936 427l0 -1 38 0"/>
<path stroke="green" d="M50 39l46 0"/>
<text stroke="none" fill="white" font-size="16" x="106" y="48">
x1.sw_sample-2
</text>
<path stroke="green" d="M50 655l1 0 1 -10 0 -23 1 -21M53 621l0 -27M53 621l1 31M54 655l0 -3M54 655l63 0M117 662l0 -184 1 0M118 479l0 -1M118 479l421 0M539 656l0 -184M539 655l422 0M961 660l0 -182 1 0M962 479l0 -1 1 1 11 0"/>
<path stroke="#FFC0C5" d="M462 55l46 0"/>
<text stroke="none" fill="white" font-size="16" x="518" y="64">
x1.comp_out_p+2
</text>
<path stroke="#FFC0C5" d="M50 263l1 0 1 -10 0 -23 1 -20 0 -4M53 209l1 4M54 263l0 -50M54 263l488 0 0 -178M542 87l13 0M555 264l0 -179M555 263l39 0M594 264l0 -179M594 86l1 1 13 0M608 263l0 -185M608 263l39 0 0 -178M647 87l14 0M661 264l0 -182M661 263l39 0"/>
<path stroke="#FFC0C5" d="M700 264l0 -179M700 87l13 0 0 -7 1 111M714 264l0 -73M714 263l39 0 0 -178M753 87l13 0M766 264l0 -185M766 264l1 -1 13 0 0 -178M780 87l13 0M793 264l0 -182M793 263l14 0 0 -177 1 0M808 87l0 -1M808 87l11 0M819 264l0 -184M819 263l41 0"/>
<path stroke="#FFC0C5" d="M860 263l0 -177M860 87l12 0M872 264l0 -182M872 263l14 0 0 -159 1 -18M887 87l0 -1M887 87l11 0M898 264l0 -182M898 263l15 0 0 -177M913 87l12 0M925 263l0 -186M925 263l12 0M937 264l0 -1M937 264l1 -94 0 -85M938 87l13 0M951 264l0 -179"/>
<path stroke="#FFC0C5" d="M951 263l23 0"/>
<path stroke="#A52A2A" d="M50 55l46 0"/>
<text stroke="none" fill="white" font-size="16" x="106" y="64">
x1.comp_out_n-2
</text>
<path stroke="#A52A2A" d="M50 655l1 0 1 -10 0 -24 1 -20M53 602l0 -3M53 602l1 7M54 655l0 -46M54 655l514 0M568 657l0 -181M568 479l13 0 0 -10 1 177M582 656l0 -10M582 655l39 0M621 657l0 -181M621 479l13 0M634 656l0 -179M634 656l1 -1 38 0 1 4 0 -183"/>
<path stroke="#A52A2A" d="M674 479l13 0M687 655l0 -185M687 655l41 0 1 -167 0 -10M729 479l11 0M740 655l0 -187M740 655l94 0 0 -177 1 0M835 479l0 -1M835 479l10 0 0 -12 1 166M846 655l0 -22M846 655l128 0"/>
</svg>
