<?xml version="1.0" standalone="yes"?>
<!DOCTYPE svg PUBLIC "-//W3C//DTD SVG 1.1//EN"
 "http://www.w3.org/Graphics/SVG/1.1/DTD/svg11.dtd">
<svg xmlns="http://www.w3.org/2000/svg" version="1.1"
  width="100%" height="100%" viewBox="0 0 1024 768"
  style="fill: none; font-family: Helvetica;
 font: Helvetica;
">

<!-- Creator: NGspice -->

<rect x="0" y="0" width="1024" height="768" fill="black" stroke="none"/>
<text stroke="none" fill="white" font-size="16" x="358" y="752">
time
</text>
<text stroke="none" fill="white" font-size="16" x="10" y="16">
tran1: run1209_vin0.163036
</text>
<path stroke="white" d="M50 704l0 -637"/>
<text stroke="none" fill="white" font-size="16" x="35" y="728">
0.0
</text>
<path stroke="white" stroke-dasharray="1,2" d="M182 704l0 -637"/>
<text stroke="none" fill="white" font-size="16" x="157" y="728">
100.0
</text>
<path stroke="white" stroke-dasharray="1,2" d="M314 704l0 -637"/>
<text stroke="none" fill="white" font-size="16" x="289" y="728">
200.0
</text>
<path stroke="white" stroke-dasharray="1,2" d="M446 704l0 -637"/>
<text stroke="none" fill="white" font-size="16" x="421" y="728">
300.0
</text>
<path stroke="white" stroke-dasharray="1,2" d="M578 704l0 -637"/>
<text stroke="none" fill="white" font-size="16" x="553" y="728">
400.0
</text>
<path stroke="white" stroke-dasharray="1,2" d="M710 704l0 -637"/>
<text stroke="none" fill="white" font-size="16" x="685" y="728">
500.0
</text>
<path stroke="white" stroke-dasharray="1,2" d="M842 704l0 -637"/>
<text stroke="none" fill="white" font-size="16" x="817" y="728">
600.0
</text>
<path stroke="white" stroke-dasharray="1,2" d="M974 704l0 -637"/>
<text stroke="none" fill="white" font-size="16" x="949" y="728">
700.0
</text>
<text stroke="none" fill="white" font-size="16" x="614" y="752">
ns
</text>
<path stroke="white" stroke-dasharray="1,2" d="M50 704l924 0"/>
<text stroke="none" fill="white" font-size="16" x="8" y="712">
-3.0
</text>
<path stroke="white" stroke-dasharray="1,2" d="M50 613l924 0"/>
<text stroke="none" fill="white" font-size="16" x="8" y="621">
-2.0
</text>
<path stroke="white" stroke-dasharray="1,2" d="M50 522l924 0"/>
<text stroke="none" fill="white" font-size="16" x="8" y="530">
-1.0
</text>
<path stroke="white" d="M50 431l924 0"/>
<text stroke="none" fill="white" font-size="16" x="18" y="439">
0.0
</text>
<path stroke="white" stroke-dasharray="1,2" d="M50 340l924 0"/>
<text stroke="none" fill="white" font-size="16" x="18" y="348">
1.0
</text>
<path stroke="white" stroke-dasharray="1,2" d="M50 249l924 0"/>
<text stroke="none" fill="white" font-size="16" x="18" y="257">
2.0
</text>
<path stroke="white" stroke-dasharray="1,2" d="M50 158l924 0"/>
<text stroke="none" fill="white" font-size="16" x="18" y="166">
3.0
</text>
<path stroke="white" stroke-dasharray="1,2" d="M50 67l924 0"/>
<text stroke="none" fill="white" font-size="16" x="18" y="75">
4.0
</text>
<text stroke="none" fill="white" font-size="16" x="10" y="32">
     
</text>
<path stroke="red" d="M462 23l46 0"/>
<text stroke="none" fill="white" font-size="16" x="518" y="32">
x1.vsampled_p
</text>
<path stroke="red" d="M50 431l1 0 1 -7 0 -15 1 -15 0 -4 1 1M54 415l0 -39 1 -5 0 -14 1 -3 0 -2 1 -2 2 0 1 -1 4 0M64 350l0 -1M64 350l4 0 1 -1 48 0 1 -5 0 -6 1 -2 2 -2 418 0 1 1 0 -1M540 335l14 0 0 -1 12 0 1 1 0 -1M567 335l13 0 0 -1 13 0M593 335l0 -1"/>
<path stroke="red" d="M593 335l7 0M600 350l0 -16M600 350l1 4M601 358l0 -4M601 357l1 -1 0 -1 23 0 0 -7 1 -2 0 -8 1 -1 19 0M646 338l0 -1 7 0M653 345l0 -8M653 345l1 3M654 349l0 -1 1 0 0 -1 17 0M672 348l0 -1 27 0M699 348l0 -1 7 0M706 351l0 -4M706 351l1 -1"/>
<path stroke="red" d="M707 350l24 0 1 -1 0 -2 1 0M733 348l0 -1M733 348l5 0 0 -1 1 0M739 348l0 -1M739 348l12 0 0 -1M751 348l8 0M759 350l0 -2M759 349l53 0M812 350l0 -1 19 0M831 350l0 -1 26 0M857 350l0 -1 26 0M883 350l0 -1 27 0M910 350l0 -1 8 0"/>
<path stroke="red" d="M918 350l0 -4 1 0 0 -10 1 -1 0 -1 2 0 1 1 0 -1 13 0M936 335l0 -1M936 335l14 0 0 -1 24 0"/>
<path stroke="blue" d="M50 23l46 0"/>
<text stroke="none" fill="white" font-size="16" x="106" y="32">
x1.vsampled_n
</text>
<path stroke="blue" d="M50 431l1 0 1 -7 0 -15 1 -14 0 -5 1 2M54 415l0 -39 1 -5 0 -14 1 -3 0 -2 1 -2 2 0 1 -1 4 0M64 350l0 -1M64 350l4 0 1 -1 48 0M117 351l0 -2M117 351l1 5M118 361l0 -5M118 361l1 2 1 0M120 364l0 -1M120 364l426 0 0 -28 1 -2 0 -23"/>
<path stroke="blue" d="M547 311l1 -4 0 -2 1 -1 0 -1 5 0 0 -1M554 303l13 0M567 304l0 -1 7 0M574 332l0 -29M574 332l1 6M575 346l0 -8M575 346l1 0 0 -1 1 -1 3 0 0 -1M580 344l26 0 0 -1 1 0M607 344l0 -1M607 344l26 0 0 -1M633 344l26 0 0 -1M659 344l20 0"/>
<path stroke="blue" d="M679 350l0 -6M679 350l1 1 0 -2 106 0M786 350l0 -1 18 0M804 350l0 -1 26 0 1 1 0 -1 87 0M918 357l0 -11M918 357l1 1M919 367l0 -9M919 367l1 -1 0 -2 54 0"/>
<path stroke="#FFA500" d="M462 39l46 0"/>
<text stroke="none" fill="white" font-size="16" x="518" y="48">
x1.vsampled_p-x1.vsampled_n
</text>
<path stroke="#FFA500" d="M50 431l67 0 0 -2 1 -9 0 -12 1 -4 1 -1 0 -1 1 0 1 -1 418 0M540 402l0 -1 1 1 0 -1 5 0M546 429l0 -28M546 429l1 2M547 454l0 -23M547 454l1 4M548 460l0 -2M548 460l1 2 1 0 1 1 15 0 1 -1M567 463l0 -1M567 463l7 0 0 -29 1 -6"/>
<path stroke="#FFA500" d="M575 428l0 -8 1 0M576 421l0 -1M576 421l1 0 1 1 15 0 0 -1M593 422l7 0M600 437l0 -15M600 437l1 4M601 445l0 -4M601 444l2 -2 22 0 0 -7 1 -2 0 -8 1 0 0 -1 26 0M653 433l0 -9M653 433l1 2M654 436l0 -1 18 0 0 -1M672 435l7 0 0 -7"/>
<path stroke="#FFA500" d="M679 428l1 -1M680 429l0 -2M680 429l19 0M699 430l0 -1 7 0M706 433l0 -4M706 433l1 -1 24 0 1 -1 0 -2M732 430l27 0M759 432l0 -2M759 431l27 0 0 -1 26 0M812 431l0 -1M812 431l106 0M918 433l0 -12 1 -2 0 -18 1 -1M920 401l0 -1"/>
<path stroke="#FFA500" d="M920 401l16 0M936 402l0 -1 38 0"/>
<path stroke="green" d="M50 39l46 0"/>
<text stroke="none" fill="white" font-size="16" x="106" y="48">
x1.sw_sample-2
</text>
<path stroke="green" d="M50 613l1 0 1 -9 0 -21 1 -21M53 581l0 -25M53 581l1 29M54 613l0 -3M54 613l63 0M117 620l0 -172M117 449l422 0M539 614l0 -171M539 613l422 0M961 618l0 -170 1 1 12 0"/>
<path stroke="#FFC0C5" d="M462 55l46 0"/>
<text stroke="none" fill="white" font-size="16" x="518" y="64">
x1.comp_out_p+2
</text>
<path stroke="#FFC0C5" d="M50 249l1 0 1 -9 0 -22 1 -18 0 -4M53 198l1 5M54 249l0 -46M54 249l487 0 1 1 0 -167M542 85l13 0M555 249l0 -172M555 249l39 0 0 -166M594 85l14 0M608 250l0 -173M608 249l39 0 0 -165M647 85l14 0M661 249l0 -167M661 249l39 0"/>
<path stroke="#FFC0C5" d="M700 249l0 -165M700 85l13 0 0 -7 1 147M714 249l0 -24M714 249l39 0 0 -165M753 85l13 0M766 250l0 -174M766 249l41 0 0 -165M807 85l12 0M819 249l0 -173M819 249l14 0 1 -157 0 -8M834 85l11 0 0 -2M845 85l1 150M846 249l0 -14"/>
<path stroke="#FFC0C5" d="M846 249l91 0M937 250l0 -1M937 250l1 -100 0 -67M938 85l13 0M951 250l0 -166M951 249l23 0"/>
<path stroke="#A52A2A" d="M50 55l46 0"/>
<text stroke="none" fill="white" font-size="16" x="106" y="64">
x1.comp_out_n-2
</text>
<path stroke="#A52A2A" d="M50 613l1 0 1 -9 0 -22 1 -19M53 564l0 -3M53 564l1 6M54 613l0 -43M54 613l514 0M568 615l0 -168M568 449l13 0 0 -8 1 158M582 613l0 -14M582 613l39 0M621 614l0 -167M621 449l13 0M634 613l0 -173M634 613l39 0M673 614l0 -1M673 614l1 -78"/>
<path stroke="#A52A2A" d="M674 536l0 -88M674 449l13 0M687 613l0 -172M687 613l40 0 0 -165 1 1 12 0M740 613l0 -173M740 613l40 0 0 -157 1 -8M781 449l0 -1M781 449l12 0M793 613l0 -170M793 613l67 0 0 -165 1 1 11 0M872 613l0 -174M872 613l14 0 1 -152"/>
<path stroke="#A52A2A" d="M887 461l0 -13M887 449l11 0M898 613l0 -174M898 613l15 0 0 -165M913 449l12 0M925 614l0 -173M925 613l49 0"/>
</svg>
