<?xml version="1.0" standalone="yes"?>
<!DOCTYPE svg PUBLIC "-//W3C//DTD SVG 1.1//EN"
 "http://www.w3.org/Graphics/SVG/1.1/DTD/svg11.dtd">
<svg xmlns="http://www.w3.org/2000/svg" version="1.1"
  width="100%" height="100%" viewBox="0 0 1024 768"
  style="fill: none; font-family: Helvetica;
 font: Helvetica;
">

<!-- Creator: NGspice -->

<rect x="0" y="0" width="1024" height="768" fill="black" stroke="none"/>
<text stroke="none" fill="white" font-size="16" x="358" y="752">
time
</text>
<text stroke="none" fill="white" font-size="16" x="10" y="16">
tran1: run516_vin-0.446046
</text>
<path stroke="white" d="M50 704l0 -637"/>
<text stroke="none" fill="white" font-size="16" x="35" y="728">
0.0
</text>
<path stroke="white" stroke-dasharray="1,2" d="M182 704l0 -637"/>
<text stroke="none" fill="white" font-size="16" x="157" y="728">
100.0
</text>
<path stroke="white" stroke-dasharray="1,2" d="M314 704l0 -637"/>
<text stroke="none" fill="white" font-size="16" x="289" y="728">
200.0
</text>
<path stroke="white" stroke-dasharray="1,2" d="M446 704l0 -637"/>
<text stroke="none" fill="white" font-size="16" x="421" y="728">
300.0
</text>
<path stroke="white" stroke-dasharray="1,2" d="M578 704l0 -637"/>
<text stroke="none" fill="white" font-size="16" x="553" y="728">
400.0
</text>
<path stroke="white" stroke-dasharray="1,2" d="M710 704l0 -637"/>
<text stroke="none" fill="white" font-size="16" x="685" y="728">
500.0
</text>
<path stroke="white" stroke-dasharray="1,2" d="M842 704l0 -637"/>
<text stroke="none" fill="white" font-size="16" x="817" y="728">
600.0
</text>
<path stroke="white" stroke-dasharray="1,2" d="M974 704l0 -637"/>
<text stroke="none" fill="white" font-size="16" x="949" y="728">
700.0
</text>
<text stroke="none" fill="white" font-size="16" x="614" y="752">
ns
</text>
<path stroke="white" stroke-dasharray="1,2" d="M50 704l924 0"/>
<text stroke="none" fill="white" font-size="16" x="8" y="712">
-3.0
</text>
<path stroke="white" stroke-dasharray="1,2" d="M50 613l924 0"/>
<text stroke="none" fill="white" font-size="16" x="8" y="621">
-2.0
</text>
<path stroke="white" stroke-dasharray="1,2" d="M50 522l924 0"/>
<text stroke="none" fill="white" font-size="16" x="8" y="530">
-1.0
</text>
<path stroke="white" d="M50 431l924 0"/>
<text stroke="none" fill="white" font-size="16" x="18" y="439">
0.0
</text>
<path stroke="white" stroke-dasharray="1,2" d="M50 340l924 0"/>
<text stroke="none" fill="white" font-size="16" x="18" y="348">
1.0
</text>
<path stroke="white" stroke-dasharray="1,2" d="M50 249l924 0"/>
<text stroke="none" fill="white" font-size="16" x="18" y="257">
2.0
</text>
<path stroke="white" stroke-dasharray="1,2" d="M50 158l924 0"/>
<text stroke="none" fill="white" font-size="16" x="18" y="166">
3.0
</text>
<path stroke="white" stroke-dasharray="1,2" d="M50 67l924 0"/>
<text stroke="none" fill="white" font-size="16" x="18" y="75">
4.0
</text>
<text stroke="none" fill="white" font-size="16" x="10" y="32">
     
</text>
<path stroke="red" d="M462 23l46 0"/>
<text stroke="none" fill="white" font-size="16" x="518" y="32">
x1.vsampled_p
</text>
<path stroke="red" d="M50 431l1 0 1 -7 0 -15 1 -14 0 -5 1 2M54 415l0 -40 1 -5 0 -13 1 -3 0 -2 2 -2 1 0 1 -1 4 0M64 350l0 -1M64 350l4 0 1 -1 48 0M117 357l0 -8M117 357l1 11M118 381l0 -13M118 381l1 3M119 387l0 -3M119 387l3 3 424 0 0 -20 1 -3 0 -28"/>
<path stroke="red" d="M547 339l1 -2 0 -5 1 -1 0 -1 1 -1 4 0 0 -1 12 0 1 1M567 330l0 -1 13 0 0 -1 13 0M593 329l0 -1M593 329l7 0M600 350l0 -21M600 350l1 3M601 355l0 -2 1 -2 0 -2 210 0M812 350l0 -1M812 350l1 0 0 -1 18 0M831 350l0 -1 86 0 1 1M918 376l0 -28"/>
<path stroke="red" d="M918 376l1 4M919 391l0 -11M919 391l1 1 0 -1 1 0 0 -1 53 0"/>
<path stroke="blue" d="M50 23l46 0"/>
<text stroke="none" fill="white" font-size="16" x="106" y="32">
x1.vsampled_n
</text>
<path stroke="blue" d="M50 431l1 0 1 -7 0 -15 1 -15 0 -4 1 1M54 414l0 -39 1 -5 0 -13 1 -3 0 -2 2 -2 1 0 1 -1 4 0M64 350l0 -1M64 350l4 0 1 -1 48 0 0 -1 1 -9 0 -18 1 -4 0 -5 1 -2 1 -1 419 0M540 310l0 -1 14 0 0 -1M554 309l13 0M567 310l0 -1 7 0M574 331l0 -22"/>
<path stroke="blue" d="M574 331l1 6M575 348l0 -11M575 348l1 1M576 350l0 -1M576 350l4 0 0 -1M580 350l26 0 0 -1M606 350l20 0 0 -10 1 0 0 -7 1 -1 5 0 0 -1M633 332l20 0M653 340l0 -8M653 340l1 2M654 343l0 -1 25 0M679 347l0 -5M679 347l1 1 0 -1 26 0"/>
<path stroke="blue" d="M706 350l0 -3M706 350l6 0 0 -1M712 350l20 0 0 -3 19 0M751 348l0 -1M751 348l1 -1 7 0M759 350l0 -3M759 349l6 0 0 -1M765 349l20 0 1 1 0 -1 18 0M804 350l0 -1 27 0M831 350l0 -1 26 0M857 350l0 -1 26 0M883 350l0 -1 27 0M910 350l0 -1"/>
<path stroke="blue" d="M910 349l8 0M918 350l0 -18 1 -3 0 -8 1 -4 0 -3 1 -2 0 -2 1 0 0 -1 1 0 0 -1M923 309l13 0M936 310l0 -1 14 0 0 -1M950 309l12 0 0 -1 2 0M964 309l0 -1M964 309l10 0"/>
<path stroke="#FFA500" d="M462 39l46 0"/>
<text stroke="none" fill="white" font-size="16" x="518" y="48">
x1.vsampled_p-x1.vsampled_n
</text>
<path stroke="#FFA500" d="M50 431l2 0 1 1 1 0 0 -1 63 0M117 440l0 -9M117 440l1 21M118 491l0 -30M118 491l1 7M119 507l0 -9M119 507l2 4 1 1 418 0 0 -1M540 512l6 0 0 -20 1 -2 0 -29 1 -1 0 -6 1 -1 0 -1 1 -1 17 0 0 -1M567 451l7 0 0 -22 1 -6 0 -12 1 -1"/>
<path stroke="#FFA500" d="M576 410l17 0M593 411l0 -1 7 0M600 431l0 -21M600 431l1 3M601 436l0 -2 1 -1 0 -2 1 -1 23 0M626 440l0 -10M626 440l1 0M627 447l0 -7M627 447l1 1 25 0 0 -8 1 -2 0 -1M654 438l25 0 0 -5 1 -1M680 433l0 -2M680 433l26 0 0 -3 26 0"/>
<path stroke="#FFA500" d="M732 433l0 -3M732 433l27 0 0 -3M759 431l26 0 1 -1M786 431l0 -1M786 431l26 0M812 432l0 -1M812 432l1 0 0 -1 26 0 0 -1M839 431l78 0 1 1M918 476l0 -46M918 476l1 6M919 501l0 -19M919 501l1 5M920 509l0 -3M920 509l1 1M921 511l0 -1"/>
<path stroke="#FFA500" d="M921 511l1 0M922 512l0 -1M922 512l14 0 0 -1M936 512l38 0"/>
<path stroke="green" d="M50 39l46 0"/>
<text stroke="none" fill="white" font-size="16" x="106" y="48">
x1.sw_sample-2
</text>
<path stroke="green" d="M50 613l1 0 1 -9 0 -21 1 -21M53 580l0 -24M53 580l1 30M54 613l0 -3M54 613l63 0M117 620l0 -172M117 449l422 0M539 614l0 -171M539 613l422 0M961 618l0 -170 1 1 12 0"/>
<path stroke="#FFC0C5" d="M462 55l46 0"/>
<text stroke="none" fill="white" font-size="16" x="518" y="64">
x1.comp_out_p+2
</text>
<path stroke="#FFC0C5" d="M50 249l1 0 1 -9 0 -22 1 -18 0 -4M53 198l1 5M54 249l0 -46M54 248l1 1 539 0M594 250l0 -166M594 85l14 0M608 250l0 -168M608 249l14 0 0 -165 1 1 11 0M634 249l0 -172M634 249l93 0 1 -156 0 -9M728 85l12 0M740 249l0 -171M740 249l67 0"/>
<path stroke="#FFC0C5" d="M807 249l0 -164 12 0M819 249l0 -171M819 249l41 0 0 -164 12 0M872 249l0 -174M872 249l14 0 0 -165 1 1 11 0M898 249l0 -174M898 249l14 0 1 -151 0 -14M913 85l12 0M925 250l0 -170M925 249l49 0"/>
<path stroke="#A52A2A" d="M50 55l46 0"/>
<text stroke="none" fill="white" font-size="16" x="106" y="64">
x1.comp_out_n-2
</text>
<path stroke="#A52A2A" d="M50 613l1 0 1 -9 0 -22 1 -19M53 564l0 -3M53 564l1 6M54 613l0 -43M54 613l488 0 0 -165M542 449l13 0M555 613l0 -172M555 613l13 0 0 -166M568 449l13 0 0 -8 1 157M582 613l0 -15M582 613l12 0M594 614l0 -1 53 0M647 614l0 -166"/>
<path stroke="#A52A2A" d="M647 449l14 0M661 613l0 -172M661 613l12 0M673 614l0 -1M673 614l1 -109 0 -58M674 449l13 0M687 613l0 -171M687 613l13 0 0 -165M700 449l13 0 0 -2M713 448l1 154M714 613l0 -11M714 613l39 0 0 -165M753 449l13 0M766 613l0 -173"/>
<path stroke="#A52A2A" d="M766 613l14 0 0 -165M780 449l13 0M793 613l0 -174M793 613l41 0 1 -158 0 -7M835 449l10 0 0 -8 1 159M846 613l0 -13M846 613l91 0 1 -57 0 -108M938 449l13 0M951 613l0 -169M951 613l23 0"/>
</svg>
