<?xml version="1.0" standalone="yes"?>
<!DOCTYPE svg PUBLIC "-//W3C//DTD SVG 1.1//EN"
 "http://www.w3.org/Graphics/SVG/1.1/DTD/svg11.dtd">
<svg xmlns="http://www.w3.org/2000/svg" version="1.1"
  width="100%" height="100%" viewBox="0 0 1024 768"
  style="fill: none; font-family: Helvetica;
 font: Helvetica;
">

<!-- Creator: NGspice -->

<rect x="0" y="0" width="1024" height="768" fill="black" stroke="none"/>
<text stroke="none" fill="white" font-size="16" x="358" y="752">
time
</text>
<text stroke="none" fill="white" font-size="16" x="10" y="16">
tran1: run1278_vin0.22368
</text>
<path stroke="white" d="M50 704l0 -637"/>
<text stroke="none" fill="white" font-size="16" x="35" y="728">
0.0
</text>
<path stroke="white" stroke-dasharray="1,2" d="M182 704l0 -637"/>
<text stroke="none" fill="white" font-size="16" x="157" y="728">
100.0
</text>
<path stroke="white" stroke-dasharray="1,2" d="M314 704l0 -637"/>
<text stroke="none" fill="white" font-size="16" x="289" y="728">
200.0
</text>
<path stroke="white" stroke-dasharray="1,2" d="M446 704l0 -637"/>
<text stroke="none" fill="white" font-size="16" x="421" y="728">
300.0
</text>
<path stroke="white" stroke-dasharray="1,2" d="M578 704l0 -637"/>
<text stroke="none" fill="white" font-size="16" x="553" y="728">
400.0
</text>
<path stroke="white" stroke-dasharray="1,2" d="M710 704l0 -637"/>
<text stroke="none" fill="white" font-size="16" x="685" y="728">
500.0
</text>
<path stroke="white" stroke-dasharray="1,2" d="M842 704l0 -637"/>
<text stroke="none" fill="white" font-size="16" x="817" y="728">
600.0
</text>
<path stroke="white" stroke-dasharray="1,2" d="M974 704l0 -637"/>
<text stroke="none" fill="white" font-size="16" x="949" y="728">
700.0
</text>
<text stroke="none" fill="white" font-size="16" x="614" y="752">
ns
</text>
<path stroke="white" stroke-dasharray="1,2" d="M50 704l924 0"/>
<text stroke="none" fill="white" font-size="16" x="8" y="712">
-3.0
</text>
<path stroke="white" stroke-dasharray="1,2" d="M50 613l924 0"/>
<text stroke="none" fill="white" font-size="16" x="8" y="621">
-2.0
</text>
<path stroke="white" stroke-dasharray="1,2" d="M50 522l924 0"/>
<text stroke="none" fill="white" font-size="16" x="8" y="530">
-1.0
</text>
<path stroke="white" d="M50 431l924 0"/>
<text stroke="none" fill="white" font-size="16" x="18" y="439">
0.0
</text>
<path stroke="white" stroke-dasharray="1,2" d="M50 340l924 0"/>
<text stroke="none" fill="white" font-size="16" x="18" y="348">
1.0
</text>
<path stroke="white" stroke-dasharray="1,2" d="M50 249l924 0"/>
<text stroke="none" fill="white" font-size="16" x="18" y="257">
2.0
</text>
<path stroke="white" stroke-dasharray="1,2" d="M50 158l924 0"/>
<text stroke="none" fill="white" font-size="16" x="18" y="166">
3.0
</text>
<path stroke="white" stroke-dasharray="1,2" d="M50 67l924 0"/>
<text stroke="none" fill="white" font-size="16" x="18" y="75">
4.0
</text>
<text stroke="none" fill="white" font-size="16" x="10" y="32">
     
</text>
<path stroke="red" d="M462 23l46 0"/>
<text stroke="none" fill="white" font-size="16" x="518" y="32">
x1.vsampled_p
</text>
<path stroke="red" d="M50 431l1 0 1 -7 0 -15 1 -15 0 -4 1 1M54 415l0 -39 1 -5 0 -14 1 -3 0 -2 1 -2 2 0 1 -1 4 0M64 350l0 -1M64 350l4 0 1 -1 48 0 1 -7 0 -8 1 -3 1 -1 0 -1 420 0M540 330l0 -1 14 0 0 -1M554 329l13 0M567 330l0 -1 26 0M593 330l0 -1"/>
<path stroke="red" d="M593 329l7 0M600 342l0 -13M600 342l1 3M601 352l0 -7M601 352l1 -1 0 -1 1 0 0 -1 16 0M619 350l0 -1M619 350l1 0 0 -1 7 0 0 -15 1 -1 0 -2 2 0M630 332l0 -1M630 332l3 0 0 -1 13 0M646 332l0 -1M646 332l7 0M653 340l0 -8M653 340l1 2"/>
<path stroke="red" d="M654 343l0 -1M654 343l1 -1 4 0 0 -1M659 342l20 0M679 347l0 -5M679 347l1 1M680 349l0 -2 26 0M706 350l0 -3M706 350l1 0 1 -1 17 0M725 350l0 -1 7 0 1 -2 0 -1M733 347l18 0M751 348l0 -1 8 0M759 349l0 -2M759 349l1 0 1 -1 17 0M778 349l0 -1"/>
<path stroke="red" d="M778 348l8 0M786 350l0 -2M786 349l26 0M812 350l0 -1M812 350l1 0 0 -1 17 0 1 1 0 -1 86 0M917 350l0 -5 1 -2 0 -11 1 -2 0 -1 17 0M936 330l0 -1 38 0"/>
<path stroke="blue" d="M50 23l46 0"/>
<text stroke="none" fill="white" font-size="16" x="106" y="32">
x1.vsampled_n
</text>
<path stroke="blue" d="M50 431l1 0 1 -7 0 -15 1 -14 0 -5 1 2M54 415l0 -39 1 -5 0 -14 1 -3 0 -2 1 -2 2 0 1 -1 4 0M64 350l0 -1M64 350l4 0 1 -1 48 0M117 352l0 -3M117 352l1 6M118 365l0 -7M118 365l1 3 1 1 419 0M539 370l0 -1M539 370l2 0 0 -1M541 370l5 0"/>
<path stroke="blue" d="M546 370l0 -27 1 -3 0 -20 1 -6 0 -3 1 -1 0 -1 1 0 1 -1 15 0 1 1M567 310l0 -2 7 0M574 337l0 -29M574 337l1 4M575 351l0 -10M575 351l1 0 1 -1 0 -1 16 0M593 350l0 -1 26 0M619 350l0 -1 27 0M646 350l0 -1 26 0M672 350l0 -1 27 0"/>
<path stroke="blue" d="M699 350l0 -1 26 0M725 350l0 -1 26 0M751 350l0 -1M751 350l1 0 0 -1 26 0M778 350l0 -1 26 0M804 350l0 -1 27 0M831 350l0 -1 26 0M857 350l0 -1 26 0M883 350l0 -1 27 0M910 350l0 -1 7 0M917 351l0 -2M917 351l1 5M918 373l0 -17M918 373l1 -1"/>
<path stroke="blue" d="M919 372l0 -2 4 0 0 -1M923 370l27 0 0 -1M950 370l12 0 0 -1 12 0"/>
<path stroke="#FFA500" d="M462 39l46 0"/>
<text stroke="none" fill="white" font-size="16" x="518" y="48">
x1.vsampled_p-x1.vsampled_n
</text>
<path stroke="#FFA500" d="M50 431l67 0 0 -4 1 -12 0 -15 1 -6 1 -2 0 -1 1 0 1 -1 418 0M540 391l0 -1 1 0M541 391l0 -1 5 0M546 417l0 -27M546 417l1 3M547 440l0 -20M547 440l1 6M548 449l0 -3M548 449l1 1M549 451l0 -1M549 451l1 0 1 1 15 0 1 -1M567 452l0 -1"/>
<path stroke="#FFA500" d="M567 452l7 0 0 -29 1 -4 0 -10 1 0M576 410l0 -1M576 410l1 0M577 411l0 -1M577 411l23 0M600 424l0 -13M600 424l1 2M601 434l0 -8M601 434l1 -1 0 -1 1 -1 24 0 0 -15 1 -2 0 -1 18 0M646 414l0 -1 7 0M653 422l0 -9M653 422l1 2M654 425l0 -1"/>
<path stroke="#FFA500" d="M654 425l1 -1 4 0 0 -1M659 424l13 0 0 -1M672 424l7 0M679 429l0 -5M679 429l1 1M680 431l0 -2 26 0M706 432l0 -3M706 432l1 0 0 -1 25 0 0 -1 1 -1 0 -1M733 429l26 0M759 431l0 -2M759 430l27 0M786 431l0 -1M786 431l26 0M812 432l0 -1"/>
<path stroke="#FFA500" d="M812 431l105 0M917 432l0 -8 1 -6 0 -29 1 0 1 1 16 0M936 391l0 -1 38 0"/>
<path stroke="green" d="M50 39l46 0"/>
<text stroke="none" fill="white" font-size="16" x="106" y="48">
x1.sw_sample-2
</text>
<path stroke="green" d="M50 613l1 0 1 -9 0 -21 1 -21M53 581l0 -25M53 581l1 29M54 613l0 -3M54 613l63 0M117 620l0 -172M117 449l422 0M539 614l0 -171M539 613l422 0M961 618l0 -170 1 1 12 0"/>
<path stroke="#FFC0C5" d="M462 55l46 0"/>
<text stroke="none" fill="white" font-size="16" x="518" y="64">
x1.comp_out_p+2
</text>
<path stroke="#FFC0C5" d="M50 249l1 0 1 -9 0 -22 1 -18 0 -4M53 198l1 5M54 249l0 -46M54 249l488 0 0 -165M542 85l13 0M555 249l0 -171M555 249l39 0M594 250l0 -167M594 85l14 0M608 249l0 -170M608 249l39 0M647 250l0 -166M647 85l14 0M661 249l0 -172M661 249l12 0"/>
<path stroke="#FFC0C5" d="M673 252l0 -3M673 252l1 -106 0 -63M674 85l13 0M687 249l0 -171M687 249l13 0 0 -165M700 85l13 0 0 -6 1 154M714 249l0 -16M714 249l39 0 0 -165M753 85l13 0M766 249l0 -172M766 249l14 0 0 -165M780 85l13 0M793 249l0 -173M793 249l14 0"/>
<path stroke="#FFC0C5" d="M807 249l0 -165 1 1 11 0M819 249l0 -170M819 249l41 0 0 -164 12 0M872 249l0 -173M872 249l14 0 0 -157 1 -8M887 85l0 -1M887 85l11 0M898 249l0 -173M898 249l14 0 1 -157 0 -8M913 85l12 0M925 249l0 -173M925 249l12 0M937 251l0 -2"/>
<path stroke="#FFC0C5" d="M937 251l1 -102 0 -66M938 85l13 0M951 250l0 -167M951 249l23 0"/>
<path stroke="#A52A2A" d="M50 55l46 0"/>
<text stroke="none" fill="white" font-size="16" x="106" y="64">
x1.comp_out_n-2
</text>
<path stroke="#A52A2A" d="M50 613l1 0 1 -9 0 -22 1 -19M53 564l0 -3M53 564l1 6M54 613l0 -43M54 613l514 0 0 -166M568 449l13 0 0 -8 1 157M582 613l0 -15M582 613l40 0 1 -158 0 -7M623 449l11 0M634 613l0 -173M634 613l13 0M647 614l0 -1 81 0 0 -158 1 -7"/>
<path stroke="#A52A2A" d="M729 449l0 -1M729 449l11 0M740 613l0 -174M740 613l94 0 0 -165M834 449l11 0M845 450l0 -3M845 450l1 153M846 613l0 -10M846 613l128 0"/>
</svg>
