<?xml version="1.0" standalone="yes"?>
<!DOCTYPE svg PUBLIC "-//W3C//DTD SVG 1.1//EN"
 "http://www.w3.org/Graphics/SVG/1.1/DTD/svg11.dtd">
<svg xmlns="http://www.w3.org/2000/svg" version="1.1"
  width="100%" height="100%" viewBox="0 0 1024 768"
  style="fill: none; font-family: Helvetica;
 font: Helvetica;
">

<!-- Creator: NGspice -->

<rect x="0" y="0" width="1024" height="768" fill="black" stroke="none"/>
<text stroke="none" fill="white" font-size="16" x="358" y="752">
time
</text>
<text stroke="none" fill="white" font-size="16" x="10" y="16">
tran1: run1272_vin0.218407
</text>
<path stroke="white" d="M50 704l0 -637"/>
<text stroke="none" fill="white" font-size="16" x="35" y="728">
0.0
</text>
<path stroke="white" stroke-dasharray="1,2" d="M182 704l0 -637"/>
<text stroke="none" fill="white" font-size="16" x="157" y="728">
100.0
</text>
<path stroke="white" stroke-dasharray="1,2" d="M314 704l0 -637"/>
<text stroke="none" fill="white" font-size="16" x="289" y="728">
200.0
</text>
<path stroke="white" stroke-dasharray="1,2" d="M446 704l0 -637"/>
<text stroke="none" fill="white" font-size="16" x="421" y="728">
300.0
</text>
<path stroke="white" stroke-dasharray="1,2" d="M578 704l0 -637"/>
<text stroke="none" fill="white" font-size="16" x="553" y="728">
400.0
</text>
<path stroke="white" stroke-dasharray="1,2" d="M710 704l0 -637"/>
<text stroke="none" fill="white" font-size="16" x="685" y="728">
500.0
</text>
<path stroke="white" stroke-dasharray="1,2" d="M842 704l0 -637"/>
<text stroke="none" fill="white" font-size="16" x="817" y="728">
600.0
</text>
<path stroke="white" stroke-dasharray="1,2" d="M974 704l0 -637"/>
<text stroke="none" fill="white" font-size="16" x="949" y="728">
700.0
</text>
<text stroke="none" fill="white" font-size="16" x="614" y="752">
ns
</text>
<path stroke="white" stroke-dasharray="1,2" d="M50 704l924 0"/>
<text stroke="none" fill="white" font-size="16" x="8" y="712">
-3.0
</text>
<path stroke="white" stroke-dasharray="1,2" d="M50 613l924 0"/>
<text stroke="none" fill="white" font-size="16" x="8" y="621">
-2.0
</text>
<path stroke="white" stroke-dasharray="1,2" d="M50 522l924 0"/>
<text stroke="none" fill="white" font-size="16" x="8" y="530">
-1.0
</text>
<path stroke="white" d="M50 431l924 0"/>
<text stroke="none" fill="white" font-size="16" x="18" y="439">
0.0
</text>
<path stroke="white" stroke-dasharray="1,2" d="M50 340l924 0"/>
<text stroke="none" fill="white" font-size="16" x="18" y="348">
1.0
</text>
<path stroke="white" stroke-dasharray="1,2" d="M50 249l924 0"/>
<text stroke="none" fill="white" font-size="16" x="18" y="257">
2.0
</text>
<path stroke="white" stroke-dasharray="1,2" d="M50 158l924 0"/>
<text stroke="none" fill="white" font-size="16" x="18" y="166">
3.0
</text>
<path stroke="white" stroke-dasharray="1,2" d="M50 67l924 0"/>
<text stroke="none" fill="white" font-size="16" x="18" y="75">
4.0
</text>
<text stroke="none" fill="white" font-size="16" x="10" y="32">
     
</text>
<path stroke="red" d="M462 23l46 0"/>
<text stroke="none" fill="white" font-size="16" x="518" y="32">
x1.vsampled_p
</text>
<path stroke="red" d="M50 431l1 0 1 -7 0 -15 1 -15 0 -4 1 1M54 415l0 -39 1 -5 0 -14 1 -3 0 -2 1 -2 2 0 1 -1 4 0M64 350l0 -1M64 350l4 0 1 -1 48 0 1 -6 0 -9 1 -3 2 -2 418 0 1 1 0 -1M540 330l1 0 0 -1M541 330l5 0 0 -1M546 330l8 0 0 -1 12 0 1 1 0 -1"/>
<path stroke="red" d="M567 330l13 0 0 -1 13 0M593 330l0 -1M593 330l7 0M600 343l0 -14M600 343l1 3M601 353l0 -7M601 353l1 -1 0 -2 24 0 0 -10 1 -1 0 -7 19 0M646 333l0 -1 7 0M653 340l0 -8M653 340l1 2M654 344l0 -2M654 343l1 0 1 -1 16 0M672 343l0 -1"/>
<path stroke="red" d="M672 342l7 0M679 348l0 -6M679 348l1 1 0 -1 1 0 0 -1 18 0M699 348l0 -1 7 0M706 351l0 -4M706 351l1 -1 25 0 0 -3 1 0M733 348l0 -1M733 348l5 0 0 -1M738 348l21 0M759 350l0 -2M759 349l53 0M812 350l0 -1M812 350l1 0 0 -1 18 0M831 350l0 -1"/>
<path stroke="red" d="M831 349l26 0M857 350l0 -1 26 0M883 350l0 -1 27 0M910 350l0 -1 7 0M917 350l0 -1M917 350l1 0 0 -16 1 -2 0 -3 3 0M922 330l0 -1M922 330l1 0 0 -1 13 0M936 330l0 -1M936 330l14 0 0 -1 24 0"/>
<path stroke="blue" d="M50 23l46 0"/>
<text stroke="none" fill="white" font-size="16" x="106" y="32">
x1.vsampled_n
</text>
<path stroke="blue" d="M50 431l1 0 1 -7 0 -15 1 -14 0 -5 1 2M54 415l0 -39 1 -5 0 -14 1 -3 0 -2 1 -2 2 0 1 -1 4 0M64 350l0 -1M64 350l4 0 1 -1 48 0M117 352l0 -3M117 352l1 6M118 365l0 -7M118 365l1 2 1 1M120 369l0 -1M120 369l426 0 0 -24 1 -3 0 -24"/>
<path stroke="blue" d="M547 318l1 -4 0 -3 1 -2 0 -1 5 0 0 -1M554 308l13 0M567 309l0 -1 7 0M574 338l0 -30M574 338l1 4M575 351l0 -9M575 351l1 0 0 -1 1 -1 3 0 0 -1M580 349l26 0 0 -1M606 349l27 0 0 -1M633 349l26 0 0 -1M659 349l27 0 0 -1M686 349l26 0"/>
<path stroke="blue" d="M712 349l0 -1M712 349l26 0 0 -1M738 349l27 0 0 -1M765 349l21 0M786 350l0 -1 18 0M804 350l0 -1 26 0 1 1 0 -1 86 0M917 350l0 -1 1 0M918 370l0 -22M918 370l1 3 0 -3 1 -1 54 0"/>
<path stroke="#FFA500" d="M462 39l46 0"/>
<text stroke="none" fill="white" font-size="16" x="518" y="48">
x1.vsampled_p-x1.vsampled_n
</text>
<path stroke="#FFA500" d="M50 431l67 0 0 -3 1 -12 0 -16 1 -5 1 -2 0 -1 1 0 1 -1 418 0M540 392l0 -1 1 0M541 392l0 -1 5 0M546 416l0 -25M546 416l1 3M547 442l0 -23M547 442l1 5M548 450l0 -3M548 450l1 1M549 452l0 -1M549 452l1 0 1 1 15 0 1 -1M567 453l0 -1"/>
<path stroke="#FFA500" d="M567 453l7 0 0 -30 1 -4 0 -9 1 0 1 1M577 412l0 -1M577 412l16 0 0 -1M593 412l7 0M600 426l0 -14M600 426l1 2M601 435l0 -7M601 435l1 -1 0 -1 1 -1 23 0 0 -10 1 0 0 -8 19 0M646 415l0 -1 7 0M653 422l0 -8M653 422l1 2M654 426l0 -2"/>
<path stroke="#FFA500" d="M654 425l5 0 0 -1M659 425l13 0 0 -1M672 425l7 0M679 430l0 -6M679 430l1 1 0 -1 19 0 0 -1M699 430l7 0M706 433l0 -3M706 433l1 0 0 -1 25 0 0 -3 1 1 26 0M759 432l0 -2M759 431l27 0 0 -1M786 431l52 0M838 432l0 -1 79 0 0 -1"/>
<path stroke="#FFA500" d="M917 431l1 1 0 -37 1 -5 0 -1M919 390l1 1 16 0M936 392l0 -1 38 0"/>
<path stroke="green" d="M50 39l46 0"/>
<text stroke="none" fill="white" font-size="16" x="106" y="48">
x1.sw_sample-2
</text>
<path stroke="green" d="M50 613l1 0 1 -9 0 -21 1 -21M53 581l0 -25M53 581l1 29M54 613l0 -3M54 613l63 0M117 620l0 -172M117 449l422 0M539 614l0 -171M539 613l422 0M961 618l0 -170 1 1 12 0"/>
<path stroke="#FFC0C5" d="M462 55l46 0"/>
<text stroke="none" fill="white" font-size="16" x="518" y="64">
x1.comp_out_p+2
</text>
<path stroke="#FFC0C5" d="M50 249l1 0 1 -9 0 -22 1 -18 0 -4M53 198l1 5M54 249l0 -46M54 249l488 0 0 -165M542 85l13 0M555 250l0 -167M555 249l39 0M594 250l0 -166M594 85l14 0M608 249l0 -173M608 249l39 0 0 -166M647 85l14 0M661 250l0 -169M661 249l12 0"/>
<path stroke="#FFC0C5" d="M673 249l0 -28 1 -116 0 -21M674 85l13 0M687 250l0 -172M687 249l13 0 0 -165M700 85l13 0 0 -8 1 159M714 249l0 -13M714 249l39 0 0 -165M753 85l13 0M766 250l0 -174M766 249l41 0 0 -165M807 85l12 0M819 249l0 -171M819 249l15 0"/>
<path stroke="#FFC0C5" d="M834 249l0 -165M834 85l11 0 0 -9 1 139M846 249l0 -34M846 249l91 0 1 -63 0 -102M938 85l13 0M951 249l0 -171M951 249l23 0"/>
<path stroke="#A52A2A" d="M50 55l46 0"/>
<text stroke="none" fill="white" font-size="16" x="106" y="64">
x1.comp_out_n-2
</text>
<path stroke="#A52A2A" d="M50 613l1 0 1 -9 0 -22 1 -19M53 564l0 -3M53 564l1 6M54 613l0 -43M54 613l514 0 0 -166M568 449l13 0 0 -9 1 161M582 613l0 -12M582 613l12 0M594 614l0 -1 28 0 0 -165M622 449l12 0M634 613l0 -173M634 613l93 0 0 -164 1 -1M728 449l0 -1"/>
<path stroke="#A52A2A" d="M728 449l12 0M740 614l0 -174M740 613l40 0 0 -165 1 1 12 0M793 613l0 -174M793 613l67 0 0 -164 12 0M872 614l0 -169M872 613l14 0 0 -158 1 -7M887 449l0 -1M887 449l11 0M898 614l0 -169M898 613l14 0 1 -158 0 -7M913 449l12 0"/>
<path stroke="#A52A2A" d="M925 613l0 -172M925 613l49 0"/>
</svg>
