<?xml version="1.0" standalone="yes"?>
<!DOCTYPE svg PUBLIC "-//W3C//DTD SVG 1.1//EN"
 "http://www.w3.org/Graphics/SVG/1.1/DTD/svg11.dtd">
<svg xmlns="http://www.w3.org/2000/svg" version="1.1"
  width="100%" height="100%" viewBox="0 0 1024 768"
  style="fill: none; font-family: Helvetica;
 font: Helvetica;
">

<!-- Creator: NGspice -->

<rect x="0" y="0" width="1024" height="768" fill="black" stroke="none"/>
<text stroke="none" fill="white" font-size="16" x="358" y="752">
time
</text>
<text stroke="none" fill="white" font-size="16" x="10" y="16">
tran1: run135_vin-0.877804
</text>
<path stroke="white" d="M50 704l0 -637"/>
<text stroke="none" fill="white" font-size="16" x="35" y="728">
0.0
</text>
<path stroke="white" stroke-dasharray="1,2" d="M182 704l0 -637"/>
<text stroke="none" fill="white" font-size="16" x="157" y="728">
100.0
</text>
<path stroke="white" stroke-dasharray="1,2" d="M314 704l0 -637"/>
<text stroke="none" fill="white" font-size="16" x="289" y="728">
200.0
</text>
<path stroke="white" stroke-dasharray="1,2" d="M446 704l0 -637"/>
<text stroke="none" fill="white" font-size="16" x="421" y="728">
300.0
</text>
<path stroke="white" stroke-dasharray="1,2" d="M578 704l0 -637"/>
<text stroke="none" fill="white" font-size="16" x="553" y="728">
400.0
</text>
<path stroke="white" stroke-dasharray="1,2" d="M710 704l0 -637"/>
<text stroke="none" fill="white" font-size="16" x="685" y="728">
500.0
</text>
<path stroke="white" stroke-dasharray="1,2" d="M842 704l0 -637"/>
<text stroke="none" fill="white" font-size="16" x="817" y="728">
600.0
</text>
<path stroke="white" stroke-dasharray="1,2" d="M974 704l0 -637"/>
<text stroke="none" fill="white" font-size="16" x="949" y="728">
700.0
</text>
<text stroke="none" fill="white" font-size="16" x="614" y="752">
ns
</text>
<path stroke="white" stroke-dasharray="1,2" d="M50 704l924 0"/>
<text stroke="none" fill="white" font-size="16" x="8" y="712">
-3.0
</text>
<path stroke="white" stroke-dasharray="1,2" d="M50 613l924 0"/>
<text stroke="none" fill="white" font-size="16" x="8" y="621">
-2.0
</text>
<path stroke="white" stroke-dasharray="1,2" d="M50 522l924 0"/>
<text stroke="none" fill="white" font-size="16" x="8" y="530">
-1.0
</text>
<path stroke="white" d="M50 431l924 0"/>
<text stroke="none" fill="white" font-size="16" x="18" y="439">
0.0
</text>
<path stroke="white" stroke-dasharray="1,2" d="M50 340l924 0"/>
<text stroke="none" fill="white" font-size="16" x="18" y="348">
1.0
</text>
<path stroke="white" stroke-dasharray="1,2" d="M50 249l924 0"/>
<text stroke="none" fill="white" font-size="16" x="18" y="257">
2.0
</text>
<path stroke="white" stroke-dasharray="1,2" d="M50 158l924 0"/>
<text stroke="none" fill="white" font-size="16" x="18" y="166">
3.0
</text>
<path stroke="white" stroke-dasharray="1,2" d="M50 67l924 0"/>
<text stroke="none" fill="white" font-size="16" x="18" y="75">
4.0
</text>
<text stroke="none" fill="white" font-size="16" x="10" y="32">
     
</text>
<path stroke="red" d="M462 23l46 0"/>
<text stroke="none" fill="white" font-size="16" x="518" y="32">
x1.vsampled_p
</text>
<path stroke="red" d="M50 431l1 0 1 -7 0 -15 1 -14 0 -4 1 1M54 414l0 -38 1 -5 0 -13 1 -3 0 -3 1 -1 0 -1 2 0 1 -1 4 0 1 1 2 0 0 -1 50 0M117 375l0 -26M117 375l1 18M118 415l0 -22M118 415l1 3M119 425l0 -7M119 425l1 2M120 428l0 -1M120 428l1 0 1 1"/>
<path stroke="red" d="M122 429l424 0 0 -24 1 -3 0 -21 1 -7 0 -4 2 -2 75 0 0 -13 1 -1 0 -5 1 0 1 1 104 0 0 -4M732 348l6 0 0 -1 1 0M739 348l0 -1M739 348l20 0M759 351l0 -3M759 349l53 0M812 350l0 -1 19 0M831 350l0 -1 26 0M857 350l0 -1 26 0M883 350l0 -1"/>
<path stroke="red" d="M883 350l1 -1 26 0M910 350l0 -1 8 0M918 452l0 -103M918 442l1 -2 0 -6 1 -1 0 -3 1 0 0 -1 53 0"/>
<path stroke="blue" d="M50 23l46 0"/>
<text stroke="none" fill="white" font-size="16" x="106" y="32">
x1.vsampled_n
</text>
<path stroke="blue" d="M50 431l1 0 1 -7 0 -16 1 -14 0 -5 1 2M54 414l0 -38 1 -5 0 -13 1 -3 0 -3 1 -1 0 -1 2 0 1 -1 3 0 1 1 4 0 1 -1 48 0 0 -2 1 -11 0 -38 1 -7 0 -15 1 -2 0 -2 3 -3 416 0M539 270l0 -1M539 270l1 0M540 271l0 -2M540 270l14 0 0 -1 12 0"/>
<path stroke="blue" d="M566 269l1 1M567 271l0 -1 7 0M574 298l0 -28M574 298l1 9 1 3M576 311l0 -1M576 311l1 0 1 -1 15 0M593 311l0 -1 7 0M600 324l0 -14M600 324l1 4M601 332l0 -4M601 332l1 -1 51 0M653 338l0 -7M653 338l1 3 25 0M679 346l0 -5M679 346l1 1"/>
<path stroke="blue" d="M680 347l0 -1 26 0M706 349l0 -3M706 349l80 0M786 350l0 -1 18 0M804 350l0 -1 27 0M831 350l0 -1 86 0 1 1 0 -65 1 -4 0 -6 1 -2 0 -2 1 -1 2 0 0 -1 13 0M936 271l0 -2M936 270l14 0 0 -1 24 0"/>
<path stroke="#FFA500" d="M462 39l46 0"/>
<text stroke="none" fill="white" font-size="16" x="518" y="48">
x1.vsampled_p-x1.vsampled_n
</text>
<path stroke="#FFA500" d="M50 431l2 0M52 432l0 -1M52 432l2 0 0 -1 63 0M117 458l0 -27M117 458l1 30M118 548l0 -60M118 548l1 10M119 580l0 -22M119 580l1 4M120 587l0 -3M120 587l1 2 2 2 416 0 0 -1 1 1 0 -1 6 0M546 591l0 -24 1 -3 0 -22 1 -6 0 -4 1 -2"/>
<path stroke="#FFA500" d="M549 530l1 0 0 -1 4 0M554 530l0 -1 13 0 0 -1M567 529l7 0 0 -28 1 -9 1 -3 0 -1 4 0M580 489l0 -1 20 0M600 489l0 -15 1 -4 0 -3 1 1 23 0 0 -13 1 -1 0 -5 1 0M627 450l0 -1M627 450l26 0 0 -7 1 -3 0 -1M654 440l25 0 0 -5 1 -1"/>
<path stroke="#FFA500" d="M680 435l0 -1M680 435l26 0 0 -3 26 0 0 -4M732 430l27 0M759 433l0 -3M759 431l19 0M778 432l0 -1 8 0 0 -1M786 431l5 0 0 -1M791 431l21 0M812 432l0 -1 45 0M857 432l0 -1 26 0M883 432l0 -1 27 0M910 432l0 -1 8 0M918 589l0 -159"/>
<path stroke="#FFA500" d="M918 589l1 0M919 590l0 -1M919 590l4 0M923 591l0 -1M923 591l13 0 0 -2M936 590l14 0M950 591l0 -1M950 591l24 0"/>
<path stroke="green" d="M50 39l46 0"/>
<text stroke="none" fill="white" font-size="16" x="106" y="48">
x1.sw_sample-2
</text>
<path stroke="green" d="M50 613l1 0 1 -9 0 -21 1 -21M53 578l0 -22M53 578l1 32M54 613l0 -3M54 613l63 0M117 620l0 -172M117 449l422 0M539 614l0 -171M539 613l422 0M961 618l0 -170 1 1 12 0"/>
<path stroke="#FFC0C5" d="M462 55l46 0"/>
<text stroke="none" fill="white" font-size="16" x="518" y="64">
x1.comp_out_p+2
</text>
<path stroke="#FFC0C5" d="M50 249l1 0 1 -9 0 -22 1 -18 0 -4M53 198l1 5M54 250l0 -47M54 247l1 2 698 0 0 -165M753 85l13 0M766 250l0 -169M766 249l41 0 0 -165M807 85l12 0M819 249l0 -173M819 249l15 0 0 -165M834 85l11 0 0 -8 1 153M846 249l0 -19M846 249l128 0"/>
<path stroke="#A52A2A" d="M50 55l46 0"/>
<text stroke="none" fill="white" font-size="16" x="106" y="64">
x1.comp_out_n-2
</text>
<path stroke="#A52A2A" d="M50 613l1 0 1 -9 0 -22 1 -19M53 564l0 -3M53 564l1 6M54 613l0 -43M54 613l487 0 1 1 0 -167M542 449l13 0M555 614l0 -172M555 613l13 0 0 -165M568 449l13 0 0 -6 1 106M582 614l0 -65M582 613l12 0M594 615l0 -168M594 449l14 0"/>
<path stroke="#A52A2A" d="M608 613l0 -173M608 613l13 0M621 614l0 -167M621 449l13 0M634 613l0 -172M634 613l13 0 0 -166M647 449l14 0M661 613l0 -172M661 613l12 0M673 615l0 -2M673 615l1 -102 0 -66M674 449l13 0M687 613l0 -172M687 613l13 0 0 -166M700 449l13 0"/>
<path stroke="#A52A2A" d="M713 449l0 -9 1 164M714 613l0 -9M714 613l13 0 0 -165M727 449l13 0M740 613l0 -173M740 613l40 0 0 -157 1 -8M781 449l0 -1M781 449l12 0M793 613l0 -174M793 613l67 0 0 -165M860 449l12 0M872 613l0 -174M872 613l14 0 0 -164 12 0"/>
<path stroke="#A52A2A" d="M898 613l0 -174M898 613l15 0 0 -164 12 0M925 614l0 -171M925 613l12 0M937 615l0 -2M937 615l1 -120 0 -48M938 449l13 0M951 613l0 -173M951 613l23 0"/>
</svg>
