<?xml version="1.0" standalone="yes"?>
<!DOCTYPE svg PUBLIC "-//W3C//DTD SVG 1.1//EN"
 "http://www.w3.org/Graphics/SVG/1.1/DTD/svg11.dtd">
<svg xmlns="http://www.w3.org/2000/svg" version="1.1"
  width="100%" height="100%" viewBox="0 0 1024 768"
  style="fill: none; font-family: Helvetica;
 font: Helvetica;
">

<!-- Creator: NGspice -->

<rect x="0" y="0" width="1024" height="768" fill="black" stroke="none"/>
<text stroke="none" fill="white" font-size="16" x="358" y="752">
time
</text>
<text stroke="none" fill="white" font-size="16" x="10" y="16">
tran1: run1463_vin0.386277
</text>
<path stroke="white" d="M50 704l0 -637"/>
<text stroke="none" fill="white" font-size="16" x="35" y="728">
0.0
</text>
<path stroke="white" stroke-dasharray="1,2" d="M182 704l0 -637"/>
<text stroke="none" fill="white" font-size="16" x="157" y="728">
100.0
</text>
<path stroke="white" stroke-dasharray="1,2" d="M314 704l0 -637"/>
<text stroke="none" fill="white" font-size="16" x="289" y="728">
200.0
</text>
<path stroke="white" stroke-dasharray="1,2" d="M446 704l0 -637"/>
<text stroke="none" fill="white" font-size="16" x="421" y="728">
300.0
</text>
<path stroke="white" stroke-dasharray="1,2" d="M578 704l0 -637"/>
<text stroke="none" fill="white" font-size="16" x="553" y="728">
400.0
</text>
<path stroke="white" stroke-dasharray="1,2" d="M710 704l0 -637"/>
<text stroke="none" fill="white" font-size="16" x="685" y="728">
500.0
</text>
<path stroke="white" stroke-dasharray="1,2" d="M842 704l0 -637"/>
<text stroke="none" fill="white" font-size="16" x="817" y="728">
600.0
</text>
<path stroke="white" stroke-dasharray="1,2" d="M974 704l0 -637"/>
<text stroke="none" fill="white" font-size="16" x="949" y="728">
700.0
</text>
<text stroke="none" fill="white" font-size="16" x="614" y="752">
ns
</text>
<path stroke="white" stroke-dasharray="1,2" d="M50 704l924 0"/>
<text stroke="none" fill="white" font-size="16" x="8" y="712">
-3.0
</text>
<path stroke="white" stroke-dasharray="1,2" d="M50 613l924 0"/>
<text stroke="none" fill="white" font-size="16" x="8" y="621">
-2.0
</text>
<path stroke="white" stroke-dasharray="1,2" d="M50 522l924 0"/>
<text stroke="none" fill="white" font-size="16" x="8" y="530">
-1.0
</text>
<path stroke="white" d="M50 431l924 0"/>
<text stroke="none" fill="white" font-size="16" x="18" y="439">
0.0
</text>
<path stroke="white" stroke-dasharray="1,2" d="M50 340l924 0"/>
<text stroke="none" fill="white" font-size="16" x="18" y="348">
1.0
</text>
<path stroke="white" stroke-dasharray="1,2" d="M50 249l924 0"/>
<text stroke="none" fill="white" font-size="16" x="18" y="257">
2.0
</text>
<path stroke="white" stroke-dasharray="1,2" d="M50 158l924 0"/>
<text stroke="none" fill="white" font-size="16" x="18" y="166">
3.0
</text>
<path stroke="white" stroke-dasharray="1,2" d="M50 67l924 0"/>
<text stroke="none" fill="white" font-size="16" x="18" y="75">
4.0
</text>
<text stroke="none" fill="white" font-size="16" x="10" y="32">
     
</text>
<path stroke="red" d="M462 23l46 0"/>
<text stroke="none" fill="white" font-size="16" x="518" y="32">
x1.vsampled_p
</text>
<path stroke="red" d="M50 431l1 0 1 -7 0 -15 1 -15 0 -4 1 1M54 415l0 -40 1 -5 0 -13 1 -3 0 -2 2 -2 1 0 1 -1 4 0M64 350l0 -1M64 350l4 0 1 -1 48 0 0 -1 1 -8 0 -16 1 -4 0 -2 1 -2 0 -1 1 -1 419 0M540 315l0 -1 26 0 1 1 0 -1 7 0M574 336l0 -22M574 336l1 4"/>
<path stroke="red" d="M575 354l0 -14M575 354l1 1 49 0 0 -4 1 -4 0 -9 1 0 0 -1 19 0M646 338l0 -1 7 0M653 346l0 -9M653 346l1 2 1 0 0 -1 17 0M672 348l0 -1 26 0 1 1 0 -1 7 0M706 351l0 -4M706 351l1 0 0 -1 25 0 0 -3M732 348l27 0M759 350l0 -2M759 349l53 0"/>
<path stroke="red" d="M812 350l0 -1 19 0M831 350l0 -1 87 0M918 350l0 -6 1 -1 0 -15 1 -5 0 -3 1 -2 0 -2 1 0 0 -1 1 0 0 -1 13 0M936 315l0 -1 38 0"/>
<path stroke="blue" d="M50 23l46 0"/>
<text stroke="none" fill="white" font-size="16" x="106" y="32">
x1.vsampled_n
</text>
<path stroke="blue" d="M50 431l1 0 1 -7 0 -15 1 -14 0 -5 1 2M54 415l0 -40 1 -5 0 -13 1 -3 0 -2 2 -2 1 0 1 -1 4 0M64 350l0 -1M64 350l4 0 1 -1 48 0M117 356l0 -7M117 356l1 10M118 377l0 -11M118 377l1 3M119 381l0 -1M119 381l1 2 1 1 419 0M540 385l0 -1"/>
<path stroke="blue" d="M540 384l6 0M546 385l0 -23 1 -3 0 -26 1 -2 0 -5 1 -1 0 -1 1 -1 4 0 0 -1M554 323l13 0M567 324l0 -1 26 0M593 324l0 -1 7 0M600 347l0 -24M600 347l1 2M601 350l0 -4 1 -1 0 -1 4 0 0 -1 13 0M619 344l0 -1M619 344l14 0 0 -1 13 0"/>
<path stroke="blue" d="M646 344l0 -1M646 344l13 0 0 -1 13 0M672 344l0 -1M672 344l7 0M679 350l0 -7M679 350l1 1M680 352l0 -3 6 0 0 -1M686 349l26 0 0 -1M712 349l26 0 0 -1 1 1 26 0 0 -1M765 349l21 0M786 350l0 -1 18 0M804 350l0 -1 27 0M831 350l0 -1"/>
<path stroke="blue" d="M831 349l26 0M857 350l0 -1 26 0M883 350l0 -1M883 350l1 -1 26 0M910 350l0 -1 8 0M918 362l0 -17M918 362l1 2M919 383l0 -19M919 383l1 3 1 0 0 -1 2 0 0 -1 13 0M936 385l0 -1 38 0"/>
<path stroke="#FFA500" d="M462 39l46 0"/>
<text stroke="none" fill="white" font-size="16" x="518" y="48">
x1.vsampled_p-x1.vsampled_n
</text>
<path stroke="#FFA500" d="M50 431l2 0 1 -1 1 1 63 0 0 -7 1 -19 0 -27 1 -6 0 -5 1 -3 0 -1 2 -2 424 0M546 383l0 -22M546 383l1 3M547 412l0 -26M547 412l1 2M548 419l0 -5M548 419l1 1M549 421l0 -1M549 421l1 1 17 0 0 -1M567 422l7 0M574 444l0 -22M574 444l1 4"/>
<path stroke="#FFA500" d="M575 462l0 -14M575 462l1 1 17 0 0 -1M593 463l7 0 0 -24 1 -1M601 440l0 -4M601 440l1 1M602 442l0 -1M602 442l4 0M606 443l0 -1M606 443l13 0 0 -1M619 443l1 0 0 -1 5 0 0 -4 1 -3 0 -9 1 0 0 -1 19 0 0 -1M646 425l7 0M653 433l0 -8"/>
<path stroke="#FFA500" d="M653 433l1 2 25 0 0 -6 1 -2M680 429l0 -2M680 429l1 0M681 430l0 -1M681 430l25 0M706 433l0 -3M706 433l1 0 0 -1 25 0 0 -3M732 430l27 0M759 432l0 -2M759 431l27 0 0 -1M786 431l26 0M812 432l0 -1 27 0 0 -1M839 431l79 0M918 434l0 -21"/>
<path stroke="#FFA500" d="M918 413l1 -4 0 -34 1 -7 0 -3 1 -2 0 -1 1 0 0 -1 14 0M936 362l0 -1 14 0 0 -1M950 361l24 0"/>
<path stroke="green" d="M50 39l46 0"/>
<text stroke="none" fill="white" font-size="16" x="106" y="48">
x1.sw_sample-2
</text>
<path stroke="green" d="M50 613l1 0 1 -9 0 -21 1 -21M53 580l0 -24M53 580l1 30M54 613l0 -3M54 613l63 0M117 620l0 -172M117 449l422 0M539 614l0 -171M539 613l422 0M961 618l0 -170 1 1 12 0"/>
<path stroke="#FFC0C5" d="M462 55l46 0"/>
<text stroke="none" fill="white" font-size="16" x="518" y="64">
x1.comp_out_p+2
</text>
<path stroke="#FFC0C5" d="M50 249l1 0 1 -9 0 -22 1 -18 0 -4M53 198l1 5M54 249l0 -46M54 249l487 0 1 1 0 -167M542 85l13 0M555 249l0 -171M555 249l13 0 0 -166M568 85l13 0 0 -9 1 160M582 249l0 -13M582 249l65 0 0 -165M647 85l14 0M661 249l0 -167M661 249l39 0"/>
<path stroke="#FFC0C5" d="M700 251l0 -167 1 1 12 0 1 -8M714 250l0 -173M714 249l39 0 0 -165M753 85l13 0M766 249l0 -166M766 249l41 0 0 -165M807 85l12 0M819 250l0 -171M819 249l41 0 0 -165M860 85l12 0M872 249l0 -173M872 249l14 0 0 -164 1 -1M887 85l0 -1"/>
<path stroke="#FFC0C5" d="M887 85l11 0M898 249l0 -173M898 249l15 0 0 -165M913 85l12 0M925 250l0 -166M925 249l12 0 1 -43 0 -122M938 85l13 0M951 249l0 -172M951 249l23 0"/>
<path stroke="#A52A2A" d="M50 55l46 0"/>
<text stroke="none" fill="white" font-size="16" x="106" y="64">
x1.comp_out_n-2
</text>
<path stroke="#A52A2A" d="M50 613l1 0 1 -9 0 -22 1 -19M53 564l0 -3M53 564l1 6M54 613l0 -43M54 612l1 1 539 0 0 -166M594 449l14 0M608 613l0 -171M608 613l13 0 0 -165M621 449l13 0M634 613l0 -173M634 613l39 0M673 614l0 -1M673 614l1 -63 0 -103M674 449l13 0"/>
<path stroke="#A52A2A" d="M687 613l0 -172M687 613l40 0 0 -165 1 1 12 0M740 613l0 -172M740 613l40 0 0 -164 13 0M793 613l0 -174M793 613l41 0 0 -158 1 -7M835 449l0 -1M835 449l10 0 0 -10 1 156M846 613l0 -18M846 613l128 0"/>
</svg>
