<?xml version="1.0" standalone="yes"?>
<!DOCTYPE svg PUBLIC "-//W3C//DTD SVG 1.1//EN"
 "http://www.w3.org/Graphics/SVG/1.1/DTD/svg11.dtd">
<svg xmlns="http://www.w3.org/2000/svg" version="1.1"
  width="100%" height="100%" viewBox="0 0 1024 768"
  style="fill: none; font-family: Helvetica;
 font: Helvetica;
">

<!-- Creator: NGspice -->

<rect x="0" y="0" width="1024" height="768" fill="black" stroke="none"/>
<text stroke="none" fill="white" font-size="16" x="358" y="752">
time
</text>
<text stroke="none" fill="white" font-size="16" x="10" y="16">
tran1: run1461_vin0.38452
</text>
<path stroke="white" d="M50 704l0 -637"/>
<text stroke="none" fill="white" font-size="16" x="35" y="728">
0.0
</text>
<path stroke="white" stroke-dasharray="1,2" d="M182 704l0 -637"/>
<text stroke="none" fill="white" font-size="16" x="157" y="728">
100.0
</text>
<path stroke="white" stroke-dasharray="1,2" d="M314 704l0 -637"/>
<text stroke="none" fill="white" font-size="16" x="289" y="728">
200.0
</text>
<path stroke="white" stroke-dasharray="1,2" d="M446 704l0 -637"/>
<text stroke="none" fill="white" font-size="16" x="421" y="728">
300.0
</text>
<path stroke="white" stroke-dasharray="1,2" d="M578 704l0 -637"/>
<text stroke="none" fill="white" font-size="16" x="553" y="728">
400.0
</text>
<path stroke="white" stroke-dasharray="1,2" d="M710 704l0 -637"/>
<text stroke="none" fill="white" font-size="16" x="685" y="728">
500.0
</text>
<path stroke="white" stroke-dasharray="1,2" d="M842 704l0 -637"/>
<text stroke="none" fill="white" font-size="16" x="817" y="728">
600.0
</text>
<path stroke="white" stroke-dasharray="1,2" d="M974 704l0 -637"/>
<text stroke="none" fill="white" font-size="16" x="949" y="728">
700.0
</text>
<text stroke="none" fill="white" font-size="16" x="614" y="752">
ns
</text>
<path stroke="white" stroke-dasharray="1,2" d="M50 704l924 0"/>
<text stroke="none" fill="white" font-size="16" x="8" y="712">
-2.5
</text>
<path stroke="white" stroke-dasharray="1,2" d="M50 655l924 0"/>
<text stroke="none" fill="white" font-size="16" x="8" y="663">
-2.0
</text>
<path stroke="white" stroke-dasharray="1,2" d="M50 606l924 0"/>
<text stroke="none" fill="white" font-size="16" x="8" y="614">
-1.5
</text>
<path stroke="white" stroke-dasharray="1,2" d="M50 557l924 0"/>
<text stroke="none" fill="white" font-size="16" x="8" y="565">
-1.0
</text>
<path stroke="white" stroke-dasharray="1,2" d="M50 508l924 0"/>
<text stroke="none" fill="white" font-size="16" x="8" y="516">
-0.5
</text>
<path stroke="white" d="M50 459l924 0"/>
<text stroke="none" fill="white" font-size="16" x="18" y="467">
0.0
</text>
<path stroke="white" stroke-dasharray="1,2" d="M50 410l924 0"/>
<text stroke="none" fill="white" font-size="16" x="18" y="418">
0.5
</text>
<path stroke="white" stroke-dasharray="1,2" d="M50 361l924 0"/>
<text stroke="none" fill="white" font-size="16" x="18" y="369">
1.0
</text>
<path stroke="white" stroke-dasharray="1,2" d="M50 312l924 0"/>
<text stroke="none" fill="white" font-size="16" x="18" y="320">
1.5
</text>
<path stroke="white" stroke-dasharray="1,2" d="M50 263l924 0"/>
<text stroke="none" fill="white" font-size="16" x="18" y="271">
2.0
</text>
<path stroke="white" stroke-dasharray="1,2" d="M50 214l924 0"/>
<text stroke="none" fill="white" font-size="16" x="18" y="222">
2.5
</text>
<path stroke="white" stroke-dasharray="1,2" d="M50 165l924 0"/>
<text stroke="none" fill="white" font-size="16" x="18" y="173">
3.0
</text>
<path stroke="white" stroke-dasharray="1,2" d="M50 116l924 0"/>
<text stroke="none" fill="white" font-size="16" x="18" y="124">
3.5
</text>
<path stroke="white" stroke-dasharray="1,2" d="M50 67l924 0"/>
<text stroke="none" fill="white" font-size="16" x="18" y="75">
4.0
</text>
<text stroke="none" fill="white" font-size="16" x="10" y="32">
     
</text>
<path stroke="red" d="M462 23l46 0"/>
<text stroke="none" fill="white" font-size="16" x="518" y="32">
x1.vsampled_p
</text>
<path stroke="red" d="M50 459l1 0 1 -7 0 -17 1 -16 0 -4 1 1M54 441l0 -42 1 -5 0 -15 1 -3 0 -2 1 -2 1 0 0 -1 59 0 0 -1 1 -9 0 -17 1 -4 0 -3 1 -2 0 -1 1 0 1 -1 418 0M540 334l0 -1M540 334l1 -1 25 0 1 1 0 -1 7 0M574 358l0 -25M574 358l1 4M575 375l0 -13"/>
<path stroke="red" d="M575 375l1 1M576 377l0 -1M576 377l17 0M593 378l0 -1 26 0M619 378l0 -1M619 378l1 0 0 -1 5 0 0 -4 1 -4 0 -9 1 -1 0 -1 19 0M646 359l0 -1 7 0M653 367l0 -9M653 367l1 2M654 370l0 -1 18 0M672 370l0 -1 27 0M699 370l0 -1 7 0M706 372l0 -3"/>
<path stroke="red" d="M706 372l1 1 0 -1 25 0 0 -3 1 0M733 370l0 -1M733 370l5 0 0 -1 13 0M751 370l0 -1M751 370l1 0 0 -1M752 370l7 0M759 372l0 -3M759 371l54 0M813 372l0 -1 18 0M831 372l0 -1 26 0M857 372l0 -1 26 0M883 372l0 -1 27 0M910 372l0 -1"/>
<path stroke="red" d="M910 371l7 0M917 372l0 -10 1 -2 0 -12 1 -6 0 -4 1 -2 0 -1 1 -1 2 0 0 -1 13 0M936 335l0 -2 38 0"/>
<path stroke="blue" d="M50 23l46 0"/>
<text stroke="none" fill="white" font-size="16" x="106" y="32">
x1.vsampled_n
</text>
<path stroke="blue" d="M50 459l1 0 1 -7 0 -17 1 -15 0 -5 1 2M54 441l0 -42 1 -5 0 -15 1 -3 0 -2 1 -2 1 0 0 -1 59 0M117 378l0 -7M117 378l1 10M118 401l0 -13M118 401l1 3M119 405l0 -1M119 405l1 2M120 408l0 -1M120 408l419 0M539 409l0 -1M539 409l2 0"/>
<path stroke="blue" d="M541 409l0 -1M541 409l5 0 0 -22 1 -3 0 -31 1 -1 0 -6 1 -2 0 -1 5 0 0 -1M554 343l12 0 0 -1M566 343l1 0M567 344l0 -1 13 0 0 -1M580 343l13 0M593 344l0 -1 7 0M600 365l0 -22M600 365l1 2M601 371l0 -4M601 368l1 -1 0 -2 4 0 0 -1"/>
<path stroke="blue" d="M606 364l1 0M607 365l0 -1M607 365l26 0 0 -1M633 365l26 0 0 -1M659 365l20 0M679 371l0 -6M679 371l1 0M680 373l0 -2 1 -1 18 0M699 371l0 -1 26 0M725 371l0 -1 26 0M751 371l0 -1 27 0M778 371l0 -1 7 0M785 372l0 -2M785 372l1 0"/>
<path stroke="blue" d="M786 372l0 -1 21 0M807 395l0 -24M807 395l1 4M808 415l0 -16M808 415l1 1M809 417l0 -1 1 0 0 -1 27 0 0 -1 20 0M857 415l0 -1 26 0M883 415l0 -1M883 415l1 0 0 -1 26 0M910 415l0 -1 6 0 1 1 0 -13M917 410l1 1M918 418l0 -7M918 418l1 2"/>
<path stroke="blue" d="M919 420l0 -2 1 -4 0 -2 1 -2 1 0 0 -1 40 0 0 -1 12 0"/>
<path stroke="#FFA500" d="M462 39l46 0"/>
<text stroke="none" fill="white" font-size="16" x="518" y="48">
x1.vsampled_p-x1.vsampled_n
</text>
<path stroke="#FFA500" d="M50 459l2 0 1 -1 1 0M54 459l0 -1M54 459l63 0 0 -8 1 -20 0 -29 1 -7 0 -4 1 -3 0 -2 2 -2 424 0M546 406l0 -22M546 406l1 3M547 439l0 -30M547 439l1 2M548 446l0 -5M548 446l1 2M549 449l0 -1M549 449l1 1 17 0 0 -1M567 450l7 0"/>
<path stroke="#FFA500" d="M574 474l0 -24M574 474l1 4M575 491l0 -13M575 491l1 2M576 494l0 -1M576 494l17 0 0 -1M593 494l7 0 0 -22 1 -2 0 -5M601 469l1 1M602 471l0 -1M602 471l1 0M603 472l0 -1M603 472l16 0 0 -1M619 472l6 0 0 -5 1 -4 0 -9 1 0 0 -1"/>
<path stroke="#FFA500" d="M627 453l6 0 0 -1M633 453l13 0 0 -1M646 453l7 0M653 461l0 -9M653 461l1 2M654 464l0 -1M654 464l1 0 0 -1 4 0M659 464l0 -1M659 464l13 0 0 -1 7 0M679 464l0 -6 1 -1 0 -2M680 457l1 1 25 0M706 461l0 -3M706 461l26 0 0 -3 27 0"/>
<path stroke="#FFA500" d="M759 461l0 -3M759 460l26 0 0 -2 1 0M786 459l0 -1M786 459l21 0 0 -24 1 -4 0 -16 1 -1 0 -1M809 414l1 0M810 415l0 -1M810 415l3 0M813 416l0 -1 18 0M831 416l0 -1 6 0M837 416l0 -1M837 416l80 0M917 426l0 -15 1 -3 0 -20 1 -7"/>
<path stroke="#FFA500" d="M919 381l0 -1 1 1M920 382l0 -1M920 382l1 1 1 0M922 384l0 -1M922 384l1 0 0 -1M923 384l13 0M936 385l0 -1 14 0 0 -1M950 384l24 0"/>
<path stroke="green" d="M50 39l46 0"/>
<text stroke="none" fill="white" font-size="16" x="106" y="48">
x1.sw_sample-2
</text>
<path stroke="green" d="M50 655l1 0 1 -10 0 -23 1 -21M53 620l0 -26M53 620l1 32M54 655l0 -3M54 655l63 0M117 662l0 -184 1 0M118 479l0 -1M118 479l421 0M539 656l0 -184M539 655l422 0M961 660l0 -182 1 0M962 479l0 -1M962 479l12 0"/>
<path stroke="#FFC0C5" d="M462 55l46 0"/>
<text stroke="none" fill="white" font-size="16" x="518" y="64">
x1.comp_out_p+2
</text>
<path stroke="#FFC0C5" d="M50 263l1 0 1 -10 0 -23 1 -20 0 -4M53 209l1 4M54 263l0 -50M54 263l488 0 0 -178M542 87l13 0M555 263l0 -185M555 263l13 0 0 -178M568 87l13 0 0 -10 1 172M582 263l0 -14M582 263l65 0M647 265l0 -180M647 87l14 0M661 263l0 -180"/>
<path stroke="#FFC0C5" d="M661 263l39 0 0 -174 1 -4M701 87l0 -2M701 87l12 0 0 -10 1 174M714 264l0 -13M714 263l39 0M753 264l0 -178 1 0M754 87l0 -1M754 87l12 0M766 263l0 -185M766 263l44 0M810 267l0 -175 1 -7M811 87l0 -2M811 87l8 0M819 264l0 -178"/>
<path stroke="#FFC0C5" d="M819 263l13 0 0 -178 1 1M833 87l0 -1M833 87l12 0 0 -1 1 1M846 264l0 -177M846 263l13 0 0 -178M859 87l13 0M872 264l0 -178M872 263l13 0 0 -178M885 87l13 0M898 264l0 -178M898 263l13 0 0 -50 1 -110 0 -18M912 87l13 0M925 264l0 -179"/>
<path stroke="#FFC0C5" d="M925 263l12 0M937 264l0 -1M937 264l1 -54 0 -125M938 87l13 0M951 263l0 -185M951 263l23 0"/>
<path stroke="#A52A2A" d="M50 55l46 0"/>
<text stroke="none" fill="white" font-size="16" x="106" y="64">
x1.comp_out_n-2
</text>
<path stroke="#A52A2A" d="M50 655l1 0 1 -10 0 -24 1 -20M53 602l0 -3M53 602l1 7M54 655l0 -46M54 654l1 1 539 0 0 -178M594 478l1 1 13 0M608 655l0 -184M608 655l13 0M621 657l0 -181M621 479l13 0M634 655l0 -186M634 655l39 0M673 656l0 -1M673 656l1 -67"/>
<path stroke="#A52A2A" d="M674 589l0 -112M674 479l13 0M687 655l0 -186M687 655l40 0 0 -177M727 479l13 0M740 656l0 -184M740 655l40 0 0 -177M780 479l13 0M793 655l0 -186M793 655l14 0 1 -159 0 -18M808 479l2 0M810 656l0 -186M810 655l128 0M938 656l0 -1"/>
<path stroke="#A52A2A" d="M938 655l36 0"/>
</svg>
