<?xml version="1.0" standalone="yes"?>
<!DOCTYPE svg PUBLIC "-//W3C//DTD SVG 1.1//EN"
 "http://www.w3.org/Graphics/SVG/1.1/DTD/svg11.dtd">
<svg xmlns="http://www.w3.org/2000/svg" version="1.1"
  width="100%" height="100%" viewBox="0 0 1024 768"
  style="fill: none; font-family: Helvetica;
 font: Helvetica;
">

<!-- Creator: NGspice -->

<rect x="0" y="0" width="1024" height="768" fill="black" stroke="none"/>
<text stroke="none" fill="white" font-size="16" x="358" y="752">
time
</text>
<text stroke="none" fill="white" font-size="16" x="10" y="16">
tran1: run754_vin-0.236866
</text>
<path stroke="white" d="M50 704l0 -637"/>
<text stroke="none" fill="white" font-size="16" x="35" y="728">
0.0
</text>
<path stroke="white" stroke-dasharray="1,2" d="M182 704l0 -637"/>
<text stroke="none" fill="white" font-size="16" x="157" y="728">
100.0
</text>
<path stroke="white" stroke-dasharray="1,2" d="M314 704l0 -637"/>
<text stroke="none" fill="white" font-size="16" x="289" y="728">
200.0
</text>
<path stroke="white" stroke-dasharray="1,2" d="M446 704l0 -637"/>
<text stroke="none" fill="white" font-size="16" x="421" y="728">
300.0
</text>
<path stroke="white" stroke-dasharray="1,2" d="M578 704l0 -637"/>
<text stroke="none" fill="white" font-size="16" x="553" y="728">
400.0
</text>
<path stroke="white" stroke-dasharray="1,2" d="M710 704l0 -637"/>
<text stroke="none" fill="white" font-size="16" x="685" y="728">
500.0
</text>
<path stroke="white" stroke-dasharray="1,2" d="M842 704l0 -637"/>
<text stroke="none" fill="white" font-size="16" x="817" y="728">
600.0
</text>
<path stroke="white" stroke-dasharray="1,2" d="M974 704l0 -637"/>
<text stroke="none" fill="white" font-size="16" x="949" y="728">
700.0
</text>
<text stroke="none" fill="white" font-size="16" x="614" y="752">
ns
</text>
<path stroke="white" stroke-dasharray="1,2" d="M50 704l924 0"/>
<text stroke="none" fill="white" font-size="16" x="8" y="712">
-3.0
</text>
<path stroke="white" stroke-dasharray="1,2" d="M50 613l924 0"/>
<text stroke="none" fill="white" font-size="16" x="8" y="621">
-2.0
</text>
<path stroke="white" stroke-dasharray="1,2" d="M50 522l924 0"/>
<text stroke="none" fill="white" font-size="16" x="8" y="530">
-1.0
</text>
<path stroke="white" d="M50 431l924 0"/>
<text stroke="none" fill="white" font-size="16" x="18" y="439">
0.0
</text>
<path stroke="white" stroke-dasharray="1,2" d="M50 340l924 0"/>
<text stroke="none" fill="white" font-size="16" x="18" y="348">
1.0
</text>
<path stroke="white" stroke-dasharray="1,2" d="M50 249l924 0"/>
<text stroke="none" fill="white" font-size="16" x="18" y="257">
2.0
</text>
<path stroke="white" stroke-dasharray="1,2" d="M50 158l924 0"/>
<text stroke="none" fill="white" font-size="16" x="18" y="166">
3.0
</text>
<path stroke="white" stroke-dasharray="1,2" d="M50 67l924 0"/>
<text stroke="none" fill="white" font-size="16" x="18" y="75">
4.0
</text>
<text stroke="none" fill="white" font-size="16" x="10" y="32">
     
</text>
<path stroke="red" d="M462 23l46 0"/>
<text stroke="none" fill="white" font-size="16" x="518" y="32">
x1.vsampled_p
</text>
<path stroke="red" d="M50 431l1 0 1 -7 0 -15 1 -14 0 -5 1 2M54 415l0 -39 1 -5 0 -14 1 -3 0 -2 1 -2 2 0 1 -1 4 0M64 350l0 -1M64 350l4 0 1 -1 48 0M117 352l0 -3M117 352l1 7M118 366l0 -7M118 366l1 3 1 1 1 0 1 1 424 0 0 -20 1 -4 0 -26 1 -5 0 -3 1 -2"/>
<path stroke="red" d="M549 311l0 -1 5 0 0 -1 12 0 1 1M567 311l0 -1 7 0M574 339l0 -29M574 339l1 4M575 352l0 -9M575 352l1 0 2 -2 15 0M593 351l0 -1 26 0M619 351l0 -1M619 351l1 0 0 -1 5 0 0 -2 1 -5 0 -10 1 -1 1 0 1 1 4 0 0 -1 13 0M646 333l0 -1M646 333l7 0"/>
<path stroke="red" d="M653 342l0 -10M653 342l1 2M654 345l0 -1 1 -1 4 0 0 -1M659 343l20 0M679 348l0 -5M679 348l1 1M680 350l0 -2 26 0M706 352l0 -4M706 352l1 -1 0 -1 18 0M725 351l0 -1 6 0 0 -3 1 0M732 348l0 -1M732 348l19 0M751 349l0 -1 8 0M759 351l0 -3"/>
<path stroke="red" d="M759 350l1 0 0 -1 18 0M778 350l0 -1 26 0M804 350l0 -1 26 0 1 1 0 -1 26 0M857 350l0 -1 26 0M883 350l0 -1 27 0M910 350l0 -1 8 0M918 351l0 -2M918 351l1 1M919 374l0 -22M919 374l1 0 0 -2 1 -1 53 0"/>
<path stroke="blue" d="M50 23l46 0"/>
<text stroke="none" fill="white" font-size="16" x="106" y="32">
x1.vsampled_n
</text>
<path stroke="blue" d="M50 431l1 0 1 -7 0 -15 1 -15 0 -4 1 1M54 415l0 -39 1 -5 0 -14 1 -3 0 -2 1 -2 2 0 1 -1 4 0M64 350l0 -1M64 350l4 0 1 -1 48 0 1 -7 0 -9 1 -3 1 -1 0 -1 434 0 0 -1M554 328l13 0M567 329l0 -1 13 0 0 -1M580 328l13 0M593 329l0 -1"/>
<path stroke="blue" d="M593 328l7 0M600 344l0 -16M600 344l1 3M601 351l0 -4M601 351l1 -1 0 -1 1 -1 16 0M619 349l0 -1 27 0M646 349l0 -1 26 0M672 349l0 -1 27 0M699 349l0 -1 26 0M725 349l0 -1 26 0M751 349l0 -1 27 0M778 349l0 -1 7 0M785 349l0 -1M785 349l27 0"/>
<path stroke="blue" d="M812 350l0 -1 106 0 0 -1 1 -2 0 -15 1 -2 0 -2 1 0M921 328l0 -1M921 328l2 0 0 -1M923 328l13 0M936 329l0 -1 14 0 0 -1M950 328l12 0 0 -1 1 0M963 328l0 -1M963 328l11 0"/>
<path stroke="#FFA500" d="M462 39l46 0"/>
<text stroke="none" fill="white" font-size="16" x="518" y="48">
x1.vsampled_p-x1.vsampled_n
</text>
<path stroke="#FFA500" d="M50 431l67 0M117 435l0 -4M117 435l1 13M118 464l0 -16M118 464l1 6 1 2M120 473l0 -1M120 473l1 1 425 0 0 -20 1 -4 0 -26 1 -5 0 -3 1 -2 0 -1 18 0 0 -1M567 413l7 0M574 442l0 -29M574 442l1 4M575 456l0 -10M575 456l2 -2 16 0"/>
<path stroke="#FFA500" d="M593 454l0 -1M593 454l7 0 0 -17 1 -3 0 -4M601 431l1 0M602 433l0 -2M602 433l23 0 0 -2 1 -6 0 -9 1 -1 19 0M646 416l0 -1 7 0M653 424l0 -9M653 424l1 2M654 427l0 -1 5 0 0 -1M659 426l13 0 0 -1M672 426l7 0M679 431l0 -6M679 431l1 1"/>
<path stroke="#FFA500" d="M680 433l0 -2 26 0M706 434l0 -3M706 434l1 0 0 -1 24 0 0 -3 1 0M732 431l0 -1M732 431l27 0M759 434l0 -3M759 433l1 -1 25 0 0 -1 1 1 26 0 0 -1 106 0M918 434l0 -3M918 434l1 4M919 475l0 -37M919 475l1 1 0 -1 1 0 0 -1 15 0 0 -1"/>
<path stroke="#FFA500" d="M936 474l38 0"/>
<path stroke="green" d="M50 39l46 0"/>
<text stroke="none" fill="white" font-size="16" x="106" y="48">
x1.sw_sample-2
</text>
<path stroke="green" d="M50 613l1 0 1 -9 0 -21 1 -21M53 581l0 -25M53 581l1 29M54 613l0 -3M54 613l63 0M117 620l0 -172M117 449l422 0M539 614l0 -171M539 613l422 0M961 618l0 -170 1 1 12 0"/>
<path stroke="#FFC0C5" d="M462 55l46 0"/>
<text stroke="none" fill="white" font-size="16" x="518" y="64">
x1.comp_out_p+2
</text>
<path stroke="#FFC0C5" d="M50 249l1 0 1 -9 0 -22 1 -18 0 -4M53 198l1 5M54 249l0 -46M54 249l514 0M568 250l0 -166M568 85l13 0 0 -8 1 159M582 249l0 -13M582 249l65 0M647 250l0 -166M647 85l14 0M661 250l0 -171M661 249l12 0M673 252l0 -3M673 252l1 -115"/>
<path stroke="#FFC0C5" d="M674 137l0 -54M674 85l13 0M687 250l0 -166M687 249l13 0 0 -147 1 -17 0 -1M701 85l12 0 0 -8 1 154M714 249l0 -18M714 249l39 0 1 -147 0 -18M754 85l12 0M766 250l0 -173M766 249l94 0 0 -165M860 85l12 0M872 249l0 -174M872 249l14 0"/>
<path stroke="#FFC0C5" d="M886 249l0 -157 1 -8M887 85l0 -1M887 85l11 0M898 249l0 -174M898 249l15 0 0 -165M913 85l12 0M925 250l0 -166M925 249l49 0"/>
<path stroke="#A52A2A" d="M50 55l46 0"/>
<text stroke="none" fill="white" font-size="16" x="106" y="64">
x1.comp_out_n-2
</text>
<path stroke="#A52A2A" d="M50 613l1 0 1 -9 0 -22 1 -19M53 564l0 -3M53 564l1 6M54 613l0 -43M54 613l488 0 0 -165M542 449l13 0M555 613l0 -173M555 613l39 0 0 -166M594 449l14 0M608 613l0 -172M608 613l13 0 0 -165 1 1 12 0M634 613l0 -173M634 613l13 0"/>
<path stroke="#A52A2A" d="M647 614l0 -1 80 0 0 -165M727 449l13 0M740 613l0 -167M740 613l39 0 1 -140 0 -25M780 449l13 0M793 613l0 -167M793 613l14 0 0 -164 12 0M819 613l0 -174M819 613l15 0 0 -164 11 0 0 -2M845 449l1 153M846 613l0 -11M846 613l91 0"/>
<path stroke="#A52A2A" d="M937 614l0 -1M937 614l1 -99 0 -68M938 449l13 0M951 614l0 -166M951 613l23 0"/>
</svg>
