<?xml version="1.0" standalone="yes"?>
<!DOCTYPE svg PUBLIC "-//W3C//DTD SVG 1.1//EN"
 "http://www.w3.org/Graphics/SVG/1.1/DTD/svg11.dtd">
<svg xmlns="http://www.w3.org/2000/svg" version="1.1"
  width="100%" height="100%" viewBox="0 0 1024 768"
  style="fill: none; font-family: Helvetica;
 font: Helvetica;
">

<!-- Creator: NGspice -->

<rect x="0" y="0" width="1024" height="768" fill="black" stroke="none"/>
<text stroke="none" fill="white" font-size="16" x="358" y="752">
time
</text>
<text stroke="none" fill="white" font-size="16" x="10" y="16">
tran1: run690_vin-0.293116
</text>
<path stroke="white" d="M50 704l0 -637"/>
<text stroke="none" fill="white" font-size="16" x="35" y="728">
0.0
</text>
<path stroke="white" stroke-dasharray="1,2" d="M182 704l0 -637"/>
<text stroke="none" fill="white" font-size="16" x="157" y="728">
100.0
</text>
<path stroke="white" stroke-dasharray="1,2" d="M314 704l0 -637"/>
<text stroke="none" fill="white" font-size="16" x="289" y="728">
200.0
</text>
<path stroke="white" stroke-dasharray="1,2" d="M446 704l0 -637"/>
<text stroke="none" fill="white" font-size="16" x="421" y="728">
300.0
</text>
<path stroke="white" stroke-dasharray="1,2" d="M578 704l0 -637"/>
<text stroke="none" fill="white" font-size="16" x="553" y="728">
400.0
</text>
<path stroke="white" stroke-dasharray="1,2" d="M710 704l0 -637"/>
<text stroke="none" fill="white" font-size="16" x="685" y="728">
500.0
</text>
<path stroke="white" stroke-dasharray="1,2" d="M842 704l0 -637"/>
<text stroke="none" fill="white" font-size="16" x="817" y="728">
600.0
</text>
<path stroke="white" stroke-dasharray="1,2" d="M974 704l0 -637"/>
<text stroke="none" fill="white" font-size="16" x="949" y="728">
700.0
</text>
<text stroke="none" fill="white" font-size="16" x="614" y="752">
ns
</text>
<path stroke="white" stroke-dasharray="1,2" d="M50 704l924 0"/>
<text stroke="none" fill="white" font-size="16" x="8" y="712">
-3.0
</text>
<path stroke="white" stroke-dasharray="1,2" d="M50 613l924 0"/>
<text stroke="none" fill="white" font-size="16" x="8" y="621">
-2.0
</text>
<path stroke="white" stroke-dasharray="1,2" d="M50 522l924 0"/>
<text stroke="none" fill="white" font-size="16" x="8" y="530">
-1.0
</text>
<path stroke="white" d="M50 431l924 0"/>
<text stroke="none" fill="white" font-size="16" x="18" y="439">
0.0
</text>
<path stroke="white" stroke-dasharray="1,2" d="M50 340l924 0"/>
<text stroke="none" fill="white" font-size="16" x="18" y="348">
1.0
</text>
<path stroke="white" stroke-dasharray="1,2" d="M50 249l924 0"/>
<text stroke="none" fill="white" font-size="16" x="18" y="257">
2.0
</text>
<path stroke="white" stroke-dasharray="1,2" d="M50 158l924 0"/>
<text stroke="none" fill="white" font-size="16" x="18" y="166">
3.0
</text>
<path stroke="white" stroke-dasharray="1,2" d="M50 67l924 0"/>
<text stroke="none" fill="white" font-size="16" x="18" y="75">
4.0
</text>
<text stroke="none" fill="white" font-size="16" x="10" y="32">
     
</text>
<path stroke="red" d="M462 23l46 0"/>
<text stroke="none" fill="white" font-size="16" x="518" y="32">
x1.vsampled_p
</text>
<path stroke="red" d="M50 431l1 0 1 -7 0 -15 1 -14 0 -5 1 2M54 415l0 -40 1 -4 0 -14 1 -2 0 -3 2 -2 1 0 1 -1 3 0 1 1 4 0 1 -1 48 0M117 353l0 -4M117 353l1 8M118 370l0 -9M118 370l1 3 1 2 1 1 425 0 0 -25 1 -3 0 -22 1 -4 0 -3 1 -3 1 -1 4 0 0 -1M554 315l13 0"/>
<path stroke="red" d="M567 316l0 -1 7 0M574 344l0 -29M574 344l1 4M575 357l0 -9M575 357l1 0 1 -1 3 0 0 -1 13 0M593 356l0 -1M593 356l13 0 0 -1 13 0M619 356l0 -1M619 356l1 0 0 -1M620 356l5 0 0 -8 1 -3 0 -7 1 0 0 -1 1 0M628 338l0 -1M628 338l5 0 0 -1"/>
<path stroke="red" d="M633 338l20 0M653 347l0 -10M653 347l1 2M654 350l0 -1 1 -1 51 0M706 351l0 -3M706 351l1 1 0 -2 18 0M725 351l0 -1 6 0 0 -2 1 -1M732 348l0 -1M732 348l19 0M751 349l0 -1 27 0M778 349l0 -1 7 0M785 349l0 -1M785 349l27 0M812 350l0 -1"/>
<path stroke="red" d="M812 349l19 0M831 350l0 -1 26 0M857 350l0 -1 26 0M883 350l0 -1 27 0M910 350l0 -1 8 0 1 1M919 380l0 -30M919 380l1 0 0 -3 1 -1 53 0"/>
<path stroke="blue" d="M50 23l46 0"/>
<text stroke="none" fill="white" font-size="16" x="106" y="32">
x1.vsampled_n
</text>
<path stroke="blue" d="M50 431l1 0 1 -7 0 -15 1 -15 0 -4 1 1M54 415l0 -40 1 -4 0 -14 1 -2 0 -3 2 -2 1 0 1 -1 3 0 1 1 4 0 1 -1 48 0 0 -1 1 -7 0 -11 1 -4 1 -2 0 -1 2 0 0 -1 417 0M539 323l0 -1M539 323l15 0 0 -1M554 323l13 0M567 324l0 -1 13 0 0 -1"/>
<path stroke="blue" d="M580 323l13 0M593 324l0 -1 7 0M600 339l0 -16M600 339l1 3M601 346l0 -4M601 345l1 0 0 -1 1 -1 16 0M619 344l0 -1 27 0M646 344l0 -1 33 0M679 348l0 -5M679 348l1 0M680 350l0 -2 19 0M699 349l0 -1 26 0M725 349l0 -1 26 0M751 349l0 -1"/>
<path stroke="blue" d="M751 348l10 0M761 350l0 -2M761 350l3 0 0 -1 14 0M778 350l0 -1 26 0M804 350l0 -1 26 0 1 1 0 -1 87 0M918 350l0 -1M918 350l1 -1 0 -24 1 -1 0 -2 2 0M922 323l0 -1M922 323l1 0 0 -1M923 323l13 0M936 324l0 -1 14 0 0 -1M950 323l12 0"/>
<path stroke="blue" d="M962 323l0 -1 12 0"/>
<path stroke="#FFA500" d="M462 39l46 0"/>
<text stroke="none" fill="white" font-size="16" x="518" y="48">
x1.vsampled_p-x1.vsampled_n
</text>
<path stroke="#FFA500" d="M50 431l67 0M117 436l0 -5M117 436l1 15M118 471l0 -20M118 471l1 7 1 3M120 483l0 -2M120 483l1 1 425 0 0 -24 1 -4 0 -21 1 -5 0 -3 1 -2 0 -1 1 -1 24 0M574 452l0 -29M574 452l1 4M575 466l0 -10M575 466l1 0 0 -1 1 -1 16 0 0 -1"/>
<path stroke="#FFA500" d="M593 464l7 0 0 -16 1 -3 0 -5M601 441l1 1M602 443l0 -1M602 443l4 0M606 444l0 -1M606 444l1 0 0 -1 12 0M619 444l0 -1M619 444l1 0 0 -1 5 0 0 -8 1 -3 0 -6 1 -1 2 0 1 1 3 0 0 -1M633 426l13 0 0 -1M646 426l7 0M653 435l0 -10"/>
<path stroke="#FFA500" d="M653 435l1 2 1 -1 24 0 0 -5 1 -1 0 -1M680 430l1 0M681 431l0 -1M681 431l25 0M706 434l0 -3M706 434l1 0 0 -1 24 0 0 -2 1 -1M732 431l0 -1M732 431l29 0 0 -2M761 430l24 0M785 431l0 -1M785 431l1 -1 26 0M812 431l0 -1M812 431l106 0"/>
<path stroke="#FFA500" d="M918 431l0 -1 1 2M919 486l0 -54M919 486l1 1 0 -2 2 0 0 -1 1 0M923 485l0 -1 13 0 0 -1M936 484l14 0M950 485l0 -1 24 0"/>
<path stroke="green" d="M50 39l46 0"/>
<text stroke="none" fill="white" font-size="16" x="106" y="48">
x1.sw_sample-2
</text>
<path stroke="green" d="M50 613l1 0 1 -9 0 -21 1 -21M53 581l0 -25M53 581l1 29M54 613l0 -3M54 613l63 0M117 620l0 -172M117 449l422 0M539 614l0 -171M539 613l422 0M961 618l0 -170 1 1 12 0"/>
<path stroke="#FFC0C5" d="M462 55l46 0"/>
<text stroke="none" fill="white" font-size="16" x="518" y="64">
x1.comp_out_p+2
</text>
<path stroke="#FFC0C5" d="M50 249l1 0 1 -9 0 -22 1 -18 0 -4M53 198l1 5M54 250l0 -47M54 248l1 1 513 0M568 250l0 -166M568 85l13 0 0 -8 1 159M582 249l0 -13M582 249l65 0M647 251l0 -168M647 85l14 0M661 250l0 -172M661 249l39 0 0 -143 1 -21 0 -1M701 85l12 0"/>
<path stroke="#FFC0C5" d="M713 85l0 -8 1 154M714 249l0 -18M714 249l65 0 1 -147 0 -18M780 85l13 0M793 250l0 -172M793 249l14 0 0 -165M807 85l12 0M819 249l0 -172M819 249l14 0 1 -152 0 -13M834 85l11 0 0 -10 1 150M846 249l0 -24M846 249l40 0 1 -150"/>
<path stroke="#FFC0C5" d="M887 99l0 -15M887 85l11 0M898 249l0 -174M898 249l76 0"/>
<path stroke="#A52A2A" d="M50 55l46 0"/>
<text stroke="none" fill="white" font-size="16" x="106" y="64">
x1.comp_out_n-2
</text>
<path stroke="#A52A2A" d="M50 613l1 0 1 -9 0 -22 1 -19M53 564l0 -3M53 564l1 6M54 613l0 -43M54 612l1 1 487 0 0 -166M542 449l13 0M555 613l0 -173M555 613l13 0M568 614l0 -1 26 0M594 614l0 -167M594 449l14 0M608 613l0 -173M608 613l13 0M621 616l0 -169"/>
<path stroke="#A52A2A" d="M621 449l13 0M634 613l0 -172M634 613l39 0M673 618l0 -5M673 618l1 -128 0 -43M674 449l13 0M687 613l0 -171M687 613l40 0 0 -165M727 449l13 0M740 613l0 -167M740 613l15 0 0 -165M755 449l11 0M766 613l0 -173M766 613l94 0 1 -152"/>
<path stroke="#A52A2A" d="M861 461l0 -13M861 449l11 0M872 613l0 -166M872 613l41 0 0 -152 1 -13M914 449l0 -1M914 449l11 0M925 613l0 -173M925 613l12 0M937 614l0 -1M937 614l1 -61 0 -105M938 449l13 0M951 613l0 -173M951 613l23 0"/>
</svg>
