<?xml version="1.0" standalone="yes"?>
<!DOCTYPE svg PUBLIC "-//W3C//DTD SVG 1.1//EN"
 "http://www.w3.org/Graphics/SVG/1.1/DTD/svg11.dtd">
<svg xmlns="http://www.w3.org/2000/svg" version="1.1"
  width="100%" height="100%" viewBox="0 0 1024 768"
  style="fill: none; font-family: Helvetica;
 font: Helvetica;
">

<!-- Creator: NGspice -->

<rect x="0" y="0" width="1024" height="768" fill="black" stroke="none"/>
<text stroke="none" fill="white" font-size="16" x="358" y="752">
time
</text>
<text stroke="none" fill="white" font-size="16" x="10" y="16">
tran1: run689_vin-0.293995
</text>
<path stroke="white" d="M50 704l0 -637"/>
<text stroke="none" fill="white" font-size="16" x="35" y="728">
0.0
</text>
<path stroke="white" stroke-dasharray="1,2" d="M182 704l0 -637"/>
<text stroke="none" fill="white" font-size="16" x="157" y="728">
100.0
</text>
<path stroke="white" stroke-dasharray="1,2" d="M314 704l0 -637"/>
<text stroke="none" fill="white" font-size="16" x="289" y="728">
200.0
</text>
<path stroke="white" stroke-dasharray="1,2" d="M446 704l0 -637"/>
<text stroke="none" fill="white" font-size="16" x="421" y="728">
300.0
</text>
<path stroke="white" stroke-dasharray="1,2" d="M578 704l0 -637"/>
<text stroke="none" fill="white" font-size="16" x="553" y="728">
400.0
</text>
<path stroke="white" stroke-dasharray="1,2" d="M710 704l0 -637"/>
<text stroke="none" fill="white" font-size="16" x="685" y="728">
500.0
</text>
<path stroke="white" stroke-dasharray="1,2" d="M842 704l0 -637"/>
<text stroke="none" fill="white" font-size="16" x="817" y="728">
600.0
</text>
<path stroke="white" stroke-dasharray="1,2" d="M974 704l0 -637"/>
<text stroke="none" fill="white" font-size="16" x="949" y="728">
700.0
</text>
<text stroke="none" fill="white" font-size="16" x="614" y="752">
ns
</text>
<path stroke="white" stroke-dasharray="1,2" d="M50 704l924 0"/>
<text stroke="none" fill="white" font-size="16" x="8" y="712">
-2.5
</text>
<path stroke="white" stroke-dasharray="1,2" d="M50 655l924 0"/>
<text stroke="none" fill="white" font-size="16" x="8" y="663">
-2.0
</text>
<path stroke="white" stroke-dasharray="1,2" d="M50 606l924 0"/>
<text stroke="none" fill="white" font-size="16" x="8" y="614">
-1.5
</text>
<path stroke="white" stroke-dasharray="1,2" d="M50 557l924 0"/>
<text stroke="none" fill="white" font-size="16" x="8" y="565">
-1.0
</text>
<path stroke="white" stroke-dasharray="1,2" d="M50 508l924 0"/>
<text stroke="none" fill="white" font-size="16" x="8" y="516">
-0.5
</text>
<path stroke="white" d="M50 459l924 0"/>
<text stroke="none" fill="white" font-size="16" x="18" y="467">
0.0
</text>
<path stroke="white" stroke-dasharray="1,2" d="M50 410l924 0"/>
<text stroke="none" fill="white" font-size="16" x="18" y="418">
0.5
</text>
<path stroke="white" stroke-dasharray="1,2" d="M50 361l924 0"/>
<text stroke="none" fill="white" font-size="16" x="18" y="369">
1.0
</text>
<path stroke="white" stroke-dasharray="1,2" d="M50 312l924 0"/>
<text stroke="none" fill="white" font-size="16" x="18" y="320">
1.5
</text>
<path stroke="white" stroke-dasharray="1,2" d="M50 263l924 0"/>
<text stroke="none" fill="white" font-size="16" x="18" y="271">
2.0
</text>
<path stroke="white" stroke-dasharray="1,2" d="M50 214l924 0"/>
<text stroke="none" fill="white" font-size="16" x="18" y="222">
2.5
</text>
<path stroke="white" stroke-dasharray="1,2" d="M50 165l924 0"/>
<text stroke="none" fill="white" font-size="16" x="18" y="173">
3.0
</text>
<path stroke="white" stroke-dasharray="1,2" d="M50 116l924 0"/>
<text stroke="none" fill="white" font-size="16" x="18" y="124">
3.5
</text>
<path stroke="white" stroke-dasharray="1,2" d="M50 67l924 0"/>
<text stroke="none" fill="white" font-size="16" x="18" y="75">
4.0
</text>
<text stroke="none" fill="white" font-size="16" x="10" y="32">
     
</text>
<path stroke="red" d="M462 23l46 0"/>
<text stroke="none" fill="white" font-size="16" x="518" y="32">
x1.vsampled_p
</text>
<path stroke="red" d="M50 459l1 0 1 -7 0 -17 1 -15 0 -5 1 2M54 441l0 -42 1 -5 0 -14 1 -3 0 -3 1 -2 1 0 0 -1 59 0M117 376l0 -5M117 376l1 8M118 393l0 -9M118 393l1 4 1 1M120 399l0 -1M120 399l2 0M122 400l0 -1M122 400l424 0 0 -25 1 -3 0 -28 1 -5 0 -2"/>
<path stroke="red" d="M548 337l1 -2 1 -1 4 0 0 -1M554 334l13 0M567 335l0 -1 7 0M574 365l0 -31M574 365l1 4M575 380l0 -11M575 380l1 0 0 -1 1 0 0 -1 48 0 0 -10 1 -2 0 -7 1 0 0 -1 1 0 1 1 4 0 0 -1 13 0M646 359l0 -1M646 359l7 0M653 368l0 -10M653 368l1 3"/>
<path stroke="red" d="M654 371l1 -1 4 0 0 -1 13 0M672 370l0 -1 1 0M673 370l0 -1M673 370l13 0 0 -1 12 0 1 1 0 -1M699 370l7 0M706 373l0 -3M706 373l1 1 0 -2 18 0M725 373l0 -1 6 0 0 -3 1 0M732 370l0 -1M732 370l27 0M759 373l0 -3M759 373l1 -1 0 -1"/>
<path stroke="red" d="M760 371l18 0M778 372l0 -1 26 0M804 372l0 -1 27 0M831 372l0 -1 7 0 0 -1M838 371l79 0M917 374l0 -3M917 374l1 5M918 404l0 -25M918 404l1 -1 0 -2 1 -1 54 0"/>
<path stroke="blue" d="M50 23l46 0"/>
<text stroke="none" fill="white" font-size="16" x="106" y="32">
x1.vsampled_n
</text>
<path stroke="blue" d="M50 459l1 0 1 -7 0 -17 1 -15 0 -5 1 1M54 441l0 -42 1 -5 0 -14 1 -3 0 -3 1 -2 1 0 0 -1 59 0 0 -1 1 -8 0 -12 1 -4 1 -2 0 -1 1 -1 419 0M540 343l0 -1 27 0M567 343l0 -1 26 0M593 343l0 -1 7 0M600 361l0 -19M600 361l1 4M601 367l0 -2"/>
<path stroke="blue" d="M601 366l1 0 0 -1 1 0 0 -1 16 0M619 365l0 -1 27 0M646 365l0 -1 26 0M672 365l0 -1 7 0M679 369l0 -5M679 369l1 1M680 372l0 -2 105 0M785 371l0 -1M785 371l1 0 0 -1 18 0M804 371l0 -1 8 0M812 371l0 -1M812 371l105 0 0 -6 1 -5 0 -16"/>
<path stroke="blue" d="M918 344l1 -1 0 -1 17 0M936 343l0 -1 38 0"/>
<path stroke="#FFA500" d="M462 39l46 0"/>
<text stroke="none" fill="white" font-size="16" x="518" y="48">
x1.vsampled_p-x1.vsampled_n
</text>
<path stroke="#FFA500" d="M50 459l67 0M117 464l0 -5M117 464l1 17M118 503l0 -22M118 503l1 7 1 4M120 515l0 -1M120 515l1 1 1 0 1 1 416 0 0 -1 1 0M540 517l0 -1 6 0M546 517l0 -25 1 -4 0 -27 1 -5 0 -3 2 -2 4 0 0 -1M554 451l13 0 0 -1M567 451l7 0M574 482l0 -31"/>
<path stroke="#FFA500" d="M574 482l1 3M575 497l0 -12M575 497l1 0 0 -1 1 -1 2 0 0 -1 1 0M580 495l0 -1M580 495l13 0 0 -1 7 0 0 -18 1 -4 0 -3M601 471l1 0M602 472l0 -1M602 472l4 0M606 473l0 -1M606 473l13 0 0 -1M619 473l1 0 0 -1 5 0 0 -9 1 -2 0 -8"/>
<path stroke="#FFA500" d="M626 453l20 0M646 454l0 -1 7 0M653 463l0 -10M653 463l1 2M654 466l0 -1 1 0 0 -1 17 0M672 465l0 -1 7 0 0 -5 1 0 0 -2M680 458l1 1 25 0M706 462l0 -3M706 462l1 1 0 -1 18 0 0 -1M725 462l6 0 0 -4 1 0M732 459l0 -1M732 459l27 0"/>
<path stroke="#FFA500" d="M759 462l0 -3M759 462l1 -1 1 0 1 -1 3 0M765 461l0 -1 1 0M766 461l0 -1 12 0M778 461l0 -1 7 0 0 -1M785 460l27 0 0 -1 18 0 1 1 0 -1 86 0M917 468l0 -9M917 468l1 9M918 519l0 -42M918 519l1 0 0 -1 1 0 0 -1 2 0 0 -1 1 0M923 517l0 -1"/>
<path stroke="#FFA500" d="M923 517l13 0 0 -1 14 0M950 517l0 -1M950 517l24 0"/>
<path stroke="green" d="M50 39l46 0"/>
<text stroke="none" fill="white" font-size="16" x="106" y="48">
x1.sw_sample-2
</text>
<path stroke="green" d="M50 655l1 0 1 -10 0 -23 1 -21M53 620l0 -26M53 620l1 32M54 655l0 -3M54 655l63 0M117 662l0 -184 1 0M118 479l0 -1M118 479l421 0M539 656l0 -184M539 655l422 0M961 660l0 -182 1 0M962 479l0 -1 1 1 11 0"/>
<path stroke="#FFC0C5" d="M462 55l46 0"/>
<text stroke="none" fill="white" font-size="16" x="518" y="64">
x1.comp_out_p+2
</text>
<path stroke="#FFC0C5" d="M50 263l1 0 1 -10 0 -23 1 -20 0 -4M53 209l1 4M54 264l0 -51M54 262l1 1 513 0 0 -178M568 87l13 0 0 -10 1 171M582 263l0 -15M582 263l65 0M647 265l0 -180M647 87l14 0M661 264l0 -185M661 263l39 0 1 -157 0 -20M701 87l12 0 0 -9"/>
<path stroke="#FFC0C5" d="M713 78l1 162M714 263l0 -23M714 263l39 0 1 -166 0 -11M754 87l12 0M766 263l0 -186M766 263l208 0"/>
<path stroke="#A52A2A" d="M50 55l46 0"/>
<text stroke="none" fill="white" font-size="16" x="106" y="64">
x1.comp_out_n-2
</text>
<path stroke="#A52A2A" d="M50 655l1 0 1 -10 0 -24 1 -20M53 602l0 -3M53 602l1 7M54 655l0 -46M54 654l1 1 487 0 0 -178M542 479l13 0M555 656l0 -187M555 655l13 0M568 656l0 -1 26 0M594 658l0 -182M594 478l1 1 13 0M608 655l0 -186M608 655l13 0M621 658l0 -182"/>
<path stroke="#A52A2A" d="M621 479l13 0M634 655l0 -185M634 655l39 0M673 660l0 -5M673 660l1 -136 0 -48M674 479l13 0M687 655l0 -186M687 655l40 0 0 -177M727 479l13 0M740 656l0 -184M740 655l40 0 0 -177M780 479l13 0M793 655l0 -179M793 655l13 0 1 -168"/>
<path stroke="#A52A2A" d="M807 487l0 -9M807 479l12 0M819 655l0 -187M819 655l14 0 1 -170 0 -7M834 479l11 0 0 -11 1 169M846 655l0 -18M846 655l14 0 0 -177 1 1 11 0M872 655l0 -187M872 655l14 0 0 -170 1 -7M887 479l0 -1M887 479l11 0M898 655l0 -187"/>
<path stroke="#A52A2A" d="M898 655l15 0 0 -177M913 479l12 0M925 656l0 -178M925 655l12 0M937 656l0 -1M937 656l1 -69 0 -110M938 479l13 0M951 655l0 -186M951 655l23 0"/>
</svg>
