<?xml version="1.0" standalone="yes"?>
<!DOCTYPE svg PUBLIC "-//W3C//DTD SVG 1.1//EN"
 "http://www.w3.org/Graphics/SVG/1.1/DTD/svg11.dtd">
<svg xmlns="http://www.w3.org/2000/svg" version="1.1"
  width="100%" height="100%" viewBox="0 0 1024 768"
  style="fill: none; font-family: Helvetica;
 font: Helvetica;
">

<!-- Creator: NGspice -->

<rect x="0" y="0" width="1024" height="768" fill="black" stroke="none"/>
<text stroke="none" fill="white" font-size="16" x="358" y="752">
time
</text>
<text stroke="none" fill="white" font-size="16" x="10" y="16">
tran1: run1469_vin0.391551
</text>
<path stroke="white" d="M50 704l0 -637"/>
<text stroke="none" fill="white" font-size="16" x="35" y="728">
0.0
</text>
<path stroke="white" stroke-dasharray="1,2" d="M182 704l0 -637"/>
<text stroke="none" fill="white" font-size="16" x="157" y="728">
100.0
</text>
<path stroke="white" stroke-dasharray="1,2" d="M314 704l0 -637"/>
<text stroke="none" fill="white" font-size="16" x="289" y="728">
200.0
</text>
<path stroke="white" stroke-dasharray="1,2" d="M446 704l0 -637"/>
<text stroke="none" fill="white" font-size="16" x="421" y="728">
300.0
</text>
<path stroke="white" stroke-dasharray="1,2" d="M578 704l0 -637"/>
<text stroke="none" fill="white" font-size="16" x="553" y="728">
400.0
</text>
<path stroke="white" stroke-dasharray="1,2" d="M710 704l0 -637"/>
<text stroke="none" fill="white" font-size="16" x="685" y="728">
500.0
</text>
<path stroke="white" stroke-dasharray="1,2" d="M842 704l0 -637"/>
<text stroke="none" fill="white" font-size="16" x="817" y="728">
600.0
</text>
<path stroke="white" stroke-dasharray="1,2" d="M974 704l0 -637"/>
<text stroke="none" fill="white" font-size="16" x="949" y="728">
700.0
</text>
<text stroke="none" fill="white" font-size="16" x="614" y="752">
ns
</text>
<path stroke="white" stroke-dasharray="1,2" d="M50 704l924 0"/>
<text stroke="none" fill="white" font-size="16" x="8" y="712">
-3.0
</text>
<path stroke="white" stroke-dasharray="1,2" d="M50 613l924 0"/>
<text stroke="none" fill="white" font-size="16" x="8" y="621">
-2.0
</text>
<path stroke="white" stroke-dasharray="1,2" d="M50 522l924 0"/>
<text stroke="none" fill="white" font-size="16" x="8" y="530">
-1.0
</text>
<path stroke="white" d="M50 431l924 0"/>
<text stroke="none" fill="white" font-size="16" x="18" y="439">
0.0
</text>
<path stroke="white" stroke-dasharray="1,2" d="M50 340l924 0"/>
<text stroke="none" fill="white" font-size="16" x="18" y="348">
1.0
</text>
<path stroke="white" stroke-dasharray="1,2" d="M50 249l924 0"/>
<text stroke="none" fill="white" font-size="16" x="18" y="257">
2.0
</text>
<path stroke="white" stroke-dasharray="1,2" d="M50 158l924 0"/>
<text stroke="none" fill="white" font-size="16" x="18" y="166">
3.0
</text>
<path stroke="white" stroke-dasharray="1,2" d="M50 67l924 0"/>
<text stroke="none" fill="white" font-size="16" x="18" y="75">
4.0
</text>
<text stroke="none" fill="white" font-size="16" x="10" y="32">
     
</text>
<path stroke="red" d="M462 23l46 0"/>
<text stroke="none" fill="white" font-size="16" x="518" y="32">
x1.vsampled_p
</text>
<path stroke="red" d="M50 431l1 0 1 -7 0 -15 1 -15 0 -4 1 1M54 415l0 -40 1 -5 0 -13 1 -3 0 -2 2 -2 1 0 1 -1 4 0M64 350l0 -1M64 350l4 0 1 -1 48 0 0 -1 1 -9 0 -15 1 -4 0 -2 1 -2 0 -1 1 -1 2 0 0 -1 416 0M539 314l0 -1M539 314l1 0M540 315l0 -1 14 0"/>
<path stroke="red" d="M554 314l0 -1M554 314l13 0M567 315l0 -1 7 0M574 336l0 -22M574 336l1 4M575 353l0 -13M575 353l1 1M576 355l0 -1M576 355l4 0 0 -1M580 355l13 0 0 -1M593 355l13 0 0 -1 1 1 13 0 0 -1M620 355l5 0 0 -3 1 -4 0 -10 1 0 0 -1 6 0 0 -1"/>
<path stroke="red" d="M633 337l20 0M653 344l0 -7M653 344l1 2M654 348l0 -2M654 347l52 0M706 350l0 -3M706 350l1 0 0 -1 18 0M725 350l0 -1 7 0 1 -1 0 -1 18 0M751 348l0 -1 8 0M759 349l0 -2M759 349l6 0 0 -1 13 0M778 349l0 -1M778 349l8 0M786 350l0 -1"/>
<path stroke="red" d="M786 349l132 0M918 351l0 -4 1 0 0 -14 1 -3 0 -8 1 -3 0 -3 1 0 0 -1 1 0 0 -1 13 0M936 315l0 -1 14 0 0 -1M950 314l12 0 0 -1 12 0"/>
<path stroke="blue" d="M50 23l46 0"/>
<text stroke="none" fill="white" font-size="16" x="106" y="32">
x1.vsampled_n
</text>
<path stroke="blue" d="M50 431l1 0 1 -7 0 -15 1 -14 0 -5 1 2M54 415l0 -40 1 -5 0 -13 1 -3 0 -2 2 -2 1 0 1 -1 4 0M64 350l0 -1M64 350l4 0 1 -1 48 0M117 356l0 -7M117 356l1 10M118 377l0 -11M118 377l1 3M119 382l0 -2M119 382l1 1M120 384l0 -1M120 384l1 0"/>
<path stroke="blue" d="M121 384l1 1 424 0 0 -26 1 -3 0 -23 1 -1 0 -5 1 -2 0 -1 5 0 0 -1 12 0M566 324l0 -1M566 324l1 0M567 325l0 -1 13 0 0 -1 1 0M581 324l0 -1M581 324l12 0M593 325l0 -2M593 324l7 0M600 343l0 -19M600 343l1 2M601 350l0 -5M601 348l1 -1"/>
<path stroke="blue" d="M602 347l0 -2 1 -1 16 0M619 345l0 -1 27 0M646 345l0 -1 33 0M679 350l0 -6M679 350l1 0M680 352l0 -2 1 -1 44 0M725 350l0 -1 79 0M804 350l0 -1 9 0M813 350l0 -1M813 350l1 -1 16 0 1 1 0 -1 26 0M857 350l0 -1 26 0M883 350l0 -1"/>
<path stroke="blue" d="M883 349l27 0M910 350l0 -1 8 0M918 354l0 -7M918 354l1 2M919 377l0 -21M919 377l1 4M920 387l0 -6M920 387l1 -1 1 0 0 -1 52 0"/>
<path stroke="#FFA500" d="M462 39l46 0"/>
<text stroke="none" fill="white" font-size="16" x="518" y="48">
x1.vsampled_p-x1.vsampled_n
</text>
<path stroke="#FFA500" d="M50 431l2 0 1 -1 1 1 63 0 0 -8 1 -18 0 -28 1 -6 0 -4 1 -3 0 -2 2 -2 424 0M546 386l0 -26M546 386l1 3M547 412l0 -23M547 412l1 1M548 418l0 -5M548 418l1 2M549 421l0 -1M549 421l18 0 0 -1M567 421l7 0M574 444l0 -23M574 444l1 4"/>
<path stroke="#FFA500" d="M575 460l0 -12M575 460l1 1M576 462l0 -1M576 462l17 0 0 -1M593 462l7 0 0 -19 1 -3 0 -5M601 438l1 1M602 441l0 -2M602 441l2 0M604 442l0 -1M604 442l15 0 0 -1M619 442l1 0 0 -1M620 442l5 0 0 -3 1 -4 0 -10 1 0 0 -1 19 0 0 -1"/>
<path stroke="#FFA500" d="M646 424l7 0M653 431l0 -7M653 431l1 2M654 435l0 -2M654 434l25 0 0 -6 1 0 0 -2M680 428l1 1 25 0M706 432l0 -3M706 432l1 0 0 -1 25 0 1 -1 0 -2M733 429l26 0M759 431l0 -2M759 430l27 0M786 431l0 -1M786 431l27 0 0 -1M813 431l105 0"/>
<path stroke="#FFA500" d="M918 434l0 -9 1 -3 0 -36 1 -6 0 -14 1 -2 0 -2 1 0 0 -1 1 -1 13 0M936 361l0 -1 14 0 0 -1M950 360l24 0"/>
<path stroke="green" d="M50 39l46 0"/>
<text stroke="none" fill="white" font-size="16" x="106" y="48">
x1.sw_sample-2
</text>
<path stroke="green" d="M50 613l1 0 1 -9 0 -21 1 -21M53 580l0 -24M53 580l1 30M54 613l0 -3M54 613l63 0M117 620l0 -172M117 449l422 0M539 614l0 -171M539 613l422 0M961 618l0 -170 1 1 12 0"/>
<path stroke="#FFC0C5" d="M462 55l46 0"/>
<text stroke="none" fill="white" font-size="16" x="518" y="64">
x1.comp_out_p+2
</text>
<path stroke="#FFC0C5" d="M50 249l1 0 1 -9 0 -22 1 -18 0 -4M53 198l1 5M54 249l0 -46M54 249l488 0 0 -165M542 85l13 0M555 250l0 -169M555 249l13 0 0 -166M568 85l13 0 0 -9 1 161M582 249l0 -12M582 249l65 0M647 255l0 -172M647 85l14 0M661 249l0 -167"/>
<path stroke="#FFC0C5" d="M661 249l39 0 0 -165M700 85l13 0 0 -9 1 133M714 250l0 -41M714 249l39 0 0 -165M753 85l13 0M766 249l0 -172M766 249l14 0M780 250l0 -166M780 85l13 0M793 249l0 -171M793 249l40 0 1 -36 0 -129M834 85l11 0 0 -7 1 146M846 249l0 -25"/>
<path stroke="#FFC0C5" d="M846 249l14 0 0 -151 1 -14M861 85l0 -1M861 85l11 0M872 249l0 -171M872 249l15 0 0 -165M887 85l11 0M898 249l0 -172M898 249l39 0 1 -44 0 -121M938 85l13 0M951 249l0 -172M951 249l23 0"/>
<path stroke="#A52A2A" d="M50 55l46 0"/>
<text stroke="none" fill="white" font-size="16" x="106" y="64">
x1.comp_out_n-2
</text>
<path stroke="#A52A2A" d="M50 613l1 0 1 -9 0 -22 1 -19M53 564l0 -3M53 564l1 6M54 613l0 -43M54 612l1 1 539 0 0 -166M594 449l14 0M608 613l0 -172M608 613l13 0 0 -166M621 449l13 0M634 614l0 -174M634 613l39 0 1 2 0 -168M674 449l13 0M687 613l0 -171"/>
<path stroke="#A52A2A" d="M687 613l41 0 0 -164 12 0M740 614l0 -173M740 613l67 0 0 -156 1 -8 11 0M819 613l0 -172M819 613l94 0 0 -165 1 1 11 0M925 614l0 -169M925 613l49 0"/>
</svg>
