<?xml version="1.0" standalone="yes"?>
<!DOCTYPE svg PUBLIC "-//W3C//DTD SVG 1.1//EN"
 "http://www.w3.org/Graphics/SVG/1.1/DTD/svg11.dtd">
<svg xmlns="http://www.w3.org/2000/svg" version="1.1"
  width="100%" height="100%" viewBox="0 0 1024 768"
  style="fill: none; font-family: Helvetica;
 font: Helvetica;
">

<!-- Creator: NGspice -->

<rect x="0" y="0" width="1024" height="768" fill="black" stroke="none"/>
<text stroke="none" fill="white" font-size="16" x="358" y="752">
time
</text>
<text stroke="none" fill="white" font-size="16" x="10" y="16">
tran1: run1467_vin0.389793
</text>
<path stroke="white" d="M50 704l0 -637"/>
<text stroke="none" fill="white" font-size="16" x="35" y="728">
0.0
</text>
<path stroke="white" stroke-dasharray="1,2" d="M182 704l0 -637"/>
<text stroke="none" fill="white" font-size="16" x="157" y="728">
100.0
</text>
<path stroke="white" stroke-dasharray="1,2" d="M314 704l0 -637"/>
<text stroke="none" fill="white" font-size="16" x="289" y="728">
200.0
</text>
<path stroke="white" stroke-dasharray="1,2" d="M446 704l0 -637"/>
<text stroke="none" fill="white" font-size="16" x="421" y="728">
300.0
</text>
<path stroke="white" stroke-dasharray="1,2" d="M578 704l0 -637"/>
<text stroke="none" fill="white" font-size="16" x="553" y="728">
400.0
</text>
<path stroke="white" stroke-dasharray="1,2" d="M710 704l0 -637"/>
<text stroke="none" fill="white" font-size="16" x="685" y="728">
500.0
</text>
<path stroke="white" stroke-dasharray="1,2" d="M842 704l0 -637"/>
<text stroke="none" fill="white" font-size="16" x="817" y="728">
600.0
</text>
<path stroke="white" stroke-dasharray="1,2" d="M974 704l0 -637"/>
<text stroke="none" fill="white" font-size="16" x="949" y="728">
700.0
</text>
<text stroke="none" fill="white" font-size="16" x="614" y="752">
ns
</text>
<path stroke="white" stroke-dasharray="1,2" d="M50 704l924 0"/>
<text stroke="none" fill="white" font-size="16" x="8" y="712">
-3.0
</text>
<path stroke="white" stroke-dasharray="1,2" d="M50 613l924 0"/>
<text stroke="none" fill="white" font-size="16" x="8" y="621">
-2.0
</text>
<path stroke="white" stroke-dasharray="1,2" d="M50 522l924 0"/>
<text stroke="none" fill="white" font-size="16" x="8" y="530">
-1.0
</text>
<path stroke="white" d="M50 431l924 0"/>
<text stroke="none" fill="white" font-size="16" x="18" y="439">
0.0
</text>
<path stroke="white" stroke-dasharray="1,2" d="M50 340l924 0"/>
<text stroke="none" fill="white" font-size="16" x="18" y="348">
1.0
</text>
<path stroke="white" stroke-dasharray="1,2" d="M50 249l924 0"/>
<text stroke="none" fill="white" font-size="16" x="18" y="257">
2.0
</text>
<path stroke="white" stroke-dasharray="1,2" d="M50 158l924 0"/>
<text stroke="none" fill="white" font-size="16" x="18" y="166">
3.0
</text>
<path stroke="white" stroke-dasharray="1,2" d="M50 67l924 0"/>
<text stroke="none" fill="white" font-size="16" x="18" y="75">
4.0
</text>
<text stroke="none" fill="white" font-size="16" x="10" y="32">
     
</text>
<path stroke="red" d="M462 23l46 0"/>
<text stroke="none" fill="white" font-size="16" x="518" y="32">
x1.vsampled_p
</text>
<path stroke="red" d="M50 431l1 0 1 -7 0 -15 1 -15 0 -4 1 1M54 415l0 -40 1 -5 0 -13 1 -3 0 -2 2 -2 1 0 1 -1 4 0M64 350l0 -1M64 350l4 0 1 -1 48 0 0 -1 1 -9 0 -15 1 -4 0 -2 1 -2 0 -1 1 -1 419 0M540 315l0 -1 14 0 0 -1M554 314l13 0M567 315l0 -1 7 0"/>
<path stroke="red" d="M574 338l0 -24M574 338l1 4M575 353l0 -11M575 353l1 1M576 355l0 -1M576 355l49 0 0 -6 1 -3 0 -8 1 0 0 -1 26 0M653 346l0 -9M653 346l1 1M654 348l0 -1 52 0M706 350l0 -3M706 350l6 0 0 -1M712 350l20 0 0 -3 19 0M751 348l0 -1M751 348l1 0"/>
<path stroke="red" d="M752 348l0 -1 7 0M759 350l0 -3M759 349l6 0 0 -1M765 349l21 0M786 350l0 -1 18 0M804 350l0 -1 27 0M831 350l0 -1 87 0M918 351l0 -8 1 -3 0 -10 1 -5 0 -6 1 -2 0 -2 1 0 0 -1 14 0M936 315l0 -1 14 0 0 -1M950 314l24 0"/>
<path stroke="blue" d="M50 23l46 0"/>
<text stroke="none" fill="white" font-size="16" x="106" y="32">
x1.vsampled_n
</text>
<path stroke="blue" d="M50 431l1 0 1 -7 0 -15 1 -14 0 -5 1 2M54 415l0 -40 1 -5 0 -13 1 -3 0 -2 2 -2 1 0 1 -1 4 0M64 350l0 -1M64 350l4 0 1 -1 48 0M117 356l0 -7M117 356l1 10M118 377l0 -11M118 377l1 3M119 382l0 -2M119 382l1 1M120 384l0 -1M120 384l2 0"/>
<path stroke="blue" d="M122 384l1 1 423 0 0 -30 1 -5 0 -18 1 -2 0 -5 1 -1 2 0 1 -1 14 0 1 1M567 325l0 -2 26 0M593 325l0 -2M593 324l1 0 0 -1 6 0M600 343l0 -20M600 343l1 2M601 350l0 -5M601 348l1 -2 0 -2 31 0 0 -1M633 344l46 0M679 350l0 -6M679 350l1 1"/>
<path stroke="blue" d="M680 352l0 -3 132 0M812 350l0 -1 19 0M831 350l0 -1 26 0M857 350l0 -1 26 0M883 350l0 -1M883 350l1 -1 26 0M910 350l0 -1 8 0M918 364l0 -18M918 364l1 3M919 381l0 -14M919 381l1 4M920 386l0 -1M920 386l1 0 0 -1 41 0 0 -1M962 385l12 0"/>
<path stroke="#FFA500" d="M462 39l46 0"/>
<text stroke="none" fill="white" font-size="16" x="518" y="48">
x1.vsampled_p-x1.vsampled_n
</text>
<path stroke="#FFA500" d="M50 431l2 0 1 -1 1 1 63 0 0 -7 1 -19 0 -27 1 -7 0 -4 1 -3 0 -2 2 -2 418 0M540 361l0 -1 6 0M546 390l0 -30M546 390l1 5M547 413l0 -18M547 413l1 2M548 420l0 -5M548 420l1 1 5 0M554 422l0 -1 12 0 1 1 0 -1 7 0M574 446l0 -25"/>
<path stroke="#FFA500" d="M574 446l1 4M575 460l0 -10M575 460l1 1M576 462l0 -1M576 462l4 0M580 463l0 -1 13 0 0 -1M593 462l7 0 0 -19 1 -3 0 -4M601 438l1 1M602 441l0 -2M602 441l1 1 22 0 0 -6 1 -3 0 -7 1 -1 0 -1 26 0M653 433l0 -9M653 433l1 1M654 435l0 -1"/>
<path stroke="#FFA500" d="M654 435l1 -1 24 0 0 -6 1 -1M680 429l0 -3M680 429l26 0M706 432l0 -3M706 432l26 0 0 -3 27 0M759 432l0 -3M759 431l27 0M786 432l0 -1 26 0 0 -1M812 431l26 0 1 -1M839 431l0 -1M839 431l79 0M918 436l0 -26 1 -6 0 -24 1 -9 0 -7"/>
<path stroke="#FFA500" d="M920 364l1 -2 0 -1 2 0 0 -1 13 0M936 361l0 -1 38 0"/>
<path stroke="green" d="M50 39l46 0"/>
<text stroke="none" fill="white" font-size="16" x="106" y="48">
x1.sw_sample-2
</text>
<path stroke="green" d="M50 613l1 0 1 -9 0 -21 1 -21M53 580l0 -24M53 580l1 30M54 613l0 -3M54 613l63 0M117 620l0 -172M117 449l422 0M539 614l0 -171M539 613l422 0M961 618l0 -170 1 1 12 0"/>
<path stroke="#FFC0C5" d="M462 55l46 0"/>
<text stroke="none" fill="white" font-size="16" x="518" y="64">
x1.comp_out_p+2
</text>
<path stroke="#FFC0C5" d="M50 249l1 0 1 -9 0 -22 1 -18 0 -4M53 198l1 5M54 249l0 -46M54 249l488 0 0 -165M542 85l13 0M555 250l0 -171M555 249l13 0 0 -165M568 85l13 0 0 -9 1 161M582 249l0 -12M582 249l65 0M647 250l0 -166M647 85l14 0M661 249l0 -167"/>
<path stroke="#FFC0C5" d="M661 249l39 0 0 -165M700 85l13 0 0 -2M713 84l1 150M714 249l0 -15M714 249l39 0 0 -165M753 85l13 0M766 249l0 -166M766 249l14 0 0 -156 1 -9M781 85l0 -1M781 85l12 0M793 249l0 -174M793 249l67 0 0 -164 12 0M872 249l0 -173"/>
<path stroke="#FFC0C5" d="M872 249l14 0 0 -164 1 -1M887 85l0 -1M887 85l11 0M898 249l0 -173M898 249l15 0 0 -165M913 85l12 0M925 250l0 -166M925 249l12 0M937 250l0 -1M937 250l1 -74 0 -92M938 85l13 0M951 249l0 -172M951 249l23 0"/>
<path stroke="#A52A2A" d="M50 55l46 0"/>
<text stroke="none" fill="white" font-size="16" x="106" y="64">
x1.comp_out_n-2
</text>
<path stroke="#A52A2A" d="M50 613l1 0 1 -9 0 -22 1 -19M53 564l0 -3M53 564l1 6M54 613l0 -43M54 612l1 1 539 0 0 -166M594 449l14 0M608 613l0 -172M608 613l13 0 0 -165M621 449l13 0M634 614l0 -172M634 614l1 -1 12 0M647 614l0 -1 26 0M673 614l0 -1M673 614l1 -115"/>
<path stroke="#A52A2A" d="M674 499l0 -52M674 449l13 0M687 613l0 -172M687 613l40 0 1 -157 0 -8M728 449l12 0M740 613l0 -172M740 613l67 0 0 -165M807 449l12 0M819 613l0 -172M819 613l15 0 0 -164 11 0 0 -10 1 154M846 613l0 -20M846 613l92 0M938 614l0 -1"/>
<path stroke="#A52A2A" d="M938 613l36 0"/>
</svg>
