<?xml version="1.0" standalone="yes"?>
<!DOCTYPE svg PUBLIC "-//W3C//DTD SVG 1.1//EN"
 "http://www.w3.org/Graphics/SVG/1.1/DTD/svg11.dtd">
<svg xmlns="http://www.w3.org/2000/svg" version="1.1"
  width="100%" height="100%" viewBox="0 0 1024 768"
  style="fill: none; font-family: Helvetica;
 font: Helvetica;
">

<!-- Creator: NGspice -->

<rect x="0" y="0" width="1024" height="768" fill="black" stroke="none"/>
<text stroke="none" fill="white" font-size="16" x="358" y="752">
time
</text>
<text stroke="none" fill="white" font-size="16" x="10" y="16">
tran1: run1464_vin0.387156
</text>
<path stroke="white" d="M50 704l0 -637"/>
<text stroke="none" fill="white" font-size="16" x="35" y="728">
0.0
</text>
<path stroke="white" stroke-dasharray="1,2" d="M182 704l0 -637"/>
<text stroke="none" fill="white" font-size="16" x="157" y="728">
100.0
</text>
<path stroke="white" stroke-dasharray="1,2" d="M314 704l0 -637"/>
<text stroke="none" fill="white" font-size="16" x="289" y="728">
200.0
</text>
<path stroke="white" stroke-dasharray="1,2" d="M446 704l0 -637"/>
<text stroke="none" fill="white" font-size="16" x="421" y="728">
300.0
</text>
<path stroke="white" stroke-dasharray="1,2" d="M578 704l0 -637"/>
<text stroke="none" fill="white" font-size="16" x="553" y="728">
400.0
</text>
<path stroke="white" stroke-dasharray="1,2" d="M710 704l0 -637"/>
<text stroke="none" fill="white" font-size="16" x="685" y="728">
500.0
</text>
<path stroke="white" stroke-dasharray="1,2" d="M842 704l0 -637"/>
<text stroke="none" fill="white" font-size="16" x="817" y="728">
600.0
</text>
<path stroke="white" stroke-dasharray="1,2" d="M974 704l0 -637"/>
<text stroke="none" fill="white" font-size="16" x="949" y="728">
700.0
</text>
<text stroke="none" fill="white" font-size="16" x="614" y="752">
ns
</text>
<path stroke="white" stroke-dasharray="1,2" d="M50 704l924 0"/>
<text stroke="none" fill="white" font-size="16" x="8" y="712">
-3.0
</text>
<path stroke="white" stroke-dasharray="1,2" d="M50 613l924 0"/>
<text stroke="none" fill="white" font-size="16" x="8" y="621">
-2.0
</text>
<path stroke="white" stroke-dasharray="1,2" d="M50 522l924 0"/>
<text stroke="none" fill="white" font-size="16" x="8" y="530">
-1.0
</text>
<path stroke="white" d="M50 431l924 0"/>
<text stroke="none" fill="white" font-size="16" x="18" y="439">
0.0
</text>
<path stroke="white" stroke-dasharray="1,2" d="M50 340l924 0"/>
<text stroke="none" fill="white" font-size="16" x="18" y="348">
1.0
</text>
<path stroke="white" stroke-dasharray="1,2" d="M50 249l924 0"/>
<text stroke="none" fill="white" font-size="16" x="18" y="257">
2.0
</text>
<path stroke="white" stroke-dasharray="1,2" d="M50 158l924 0"/>
<text stroke="none" fill="white" font-size="16" x="18" y="166">
3.0
</text>
<path stroke="white" stroke-dasharray="1,2" d="M50 67l924 0"/>
<text stroke="none" fill="white" font-size="16" x="18" y="75">
4.0
</text>
<text stroke="none" fill="white" font-size="16" x="10" y="32">
     
</text>
<path stroke="red" d="M462 23l46 0"/>
<text stroke="none" fill="white" font-size="16" x="518" y="32">
x1.vsampled_p
</text>
<path stroke="red" d="M50 431l1 0 1 -7 0 -15 1 -15 0 -4 1 1M54 415l0 -40 1 -5 0 -13 1 -3 0 -2 2 -2 1 0 1 -1 4 0M64 350l0 -1M64 350l4 0 1 -1 48 0 0 -1 1 -8 0 -16 1 -4 0 -2 1 -2 0 -1 1 -1 419 0M540 315l0 -1 27 0M567 315l0 -1 7 0M574 339l0 -25M574 339l1 3"/>
<path stroke="red" d="M575 354l0 -12M575 354l1 1 49 0 0 -6 1 -3 0 -7 1 -1 0 -1 19 0M646 338l0 -1 7 0M653 346l0 -9M653 346l1 2 1 -1 17 0M672 348l0 -1 27 0M699 348l0 -1 7 0M706 350l0 -3M706 350l1 1 0 -1 25 0 0 -3 1 1 5 0 0 -1M738 348l21 0M759 350l0 -2"/>
<path stroke="red" d="M759 349l53 0M812 350l0 -1 19 0M831 350l0 -1 26 0M857 350l0 -1 26 0M883 350l0 -1 27 0M910 350l0 -1 8 0M918 350l0 -6 1 -1 0 -13 1 -4 0 -6 1 -3 0 -1 1 0 0 -1 1 0 0 -1 13 0M936 315l0 -1 38 0"/>
<path stroke="blue" d="M50 23l46 0"/>
<text stroke="none" fill="white" font-size="16" x="106" y="32">
x1.vsampled_n
</text>
<path stroke="blue" d="M50 431l1 0 1 -7 0 -15 1 -14 0 -5 1 2M54 415l0 -40 1 -5 0 -13 1 -3 0 -2 2 -2 1 0 1 -1 4 0M64 350l0 -1M64 350l4 0 1 -1 48 0M117 356l0 -7M117 356l1 10M118 377l0 -11M118 377l1 3M119 381l0 -1M119 381l1 2M120 384l0 -1M120 384l420 0"/>
<path stroke="blue" d="M540 385l0 -1M540 385l1 -1 5 0M546 385l0 -22 1 -3 0 -27 1 -1 0 -5 1 -2 0 -1 1 0 1 -1 3 0 0 -1M554 323l13 0M567 324l0 -1 26 0M593 324l0 -1 7 0M600 343l0 -20M600 343l1 2M601 350l0 -5M601 348l1 -2 0 -2 4 0 0 -1 1 0M607 344l0 -1"/>
<path stroke="blue" d="M607 344l26 0 0 -1M633 344l26 0 0 -1M659 344l20 0M679 350l0 -6M679 350l1 1M680 352l0 -3 106 0M786 350l0 -1 18 0M804 350l0 -1 26 0 1 1 0 -1 87 0M918 361l0 -16M918 361l1 2M919 381l0 -18M919 381l1 4M920 386l0 -1M920 386l1 -1"/>
<path stroke="blue" d="M921 385l2 0 0 -1 13 0M936 385l0 -1 38 0"/>
<path stroke="#FFA500" d="M462 39l46 0"/>
<text stroke="none" fill="white" font-size="16" x="518" y="48">
x1.vsampled_p-x1.vsampled_n
</text>
<path stroke="#FFA500" d="M50 431l2 0 1 -1 1 1 63 0 0 -7 1 -19 0 -27 1 -7 0 -4 1 -3 0 -2 1 -1 425 0M546 383l0 -23M546 383l1 2M547 412l0 -27M547 412l1 1M548 418l0 -5M548 418l1 2M549 421l0 -1M549 421l1 1 17 0 0 -1M567 422l7 0M574 447l0 -25M574 447l1 3"/>
<path stroke="#FFA500" d="M575 462l0 -12M575 462l1 0M576 463l0 -1M576 463l17 0 0 -1M593 463l7 0 0 -20 1 -2 0 -5M601 438l1 2M602 442l0 -2M602 442l4 0M606 443l0 -1M606 443l1 0 0 -1 18 0 0 -6 1 -2 0 -8 1 -1 6 0 0 -1M633 425l1 0 0 -1 12 0M646 425l0 -1"/>
<path stroke="#FFA500" d="M646 425l7 0M653 433l0 -9M653 433l1 2 25 0 0 -7 1 -1M680 429l0 -2M680 429l1 0M681 430l0 -1M681 430l18 0 0 -1M699 430l7 0M706 433l0 -3M706 433l1 0 0 -1 25 0 0 -3M732 430l27 0M759 432l0 -2M759 431l27 0 0 -1 1 0M787 431l0 -1"/>
<path stroke="#FFA500" d="M787 431l17 0 0 -1M804 431l34 0M838 432l0 -1 80 0M918 433l0 -19 1 -3 0 -31 1 -8 0 -7 1 -2 0 -1 1 0 0 -1 1 0 0 -1M923 361l13 0M936 362l0 -1 14 0 0 -1M950 361l24 0"/>
<path stroke="green" d="M50 39l46 0"/>
<text stroke="none" fill="white" font-size="16" x="106" y="48">
x1.sw_sample-2
</text>
<path stroke="green" d="M50 613l1 0 1 -9 0 -21 1 -21M53 580l0 -24M53 580l1 30M54 613l0 -3M54 613l63 0M117 620l0 -172M117 449l422 0M539 614l0 -171M539 613l422 0M961 618l0 -170 1 1 12 0"/>
<path stroke="#FFC0C5" d="M462 55l46 0"/>
<text stroke="none" fill="white" font-size="16" x="518" y="64">
x1.comp_out_p+2
</text>
<path stroke="#FFC0C5" d="M50 249l1 0 1 -9 0 -22 1 -18 0 -4M53 198l1 5M54 249l0 -46M54 249l487 0 1 1 0 -166M542 85l13 0M555 249l0 -172M555 249l13 0 0 -166M568 85l13 0 0 -9 1 161M582 249l0 -12M582 249l65 0 0 -166M647 85l14 0M661 249l0 -167M661 249l39 0"/>
<path stroke="#FFC0C5" d="M700 249l0 -165M700 85l13 0 0 -8 1 158M714 249l0 -14M714 249l39 0 0 -165M753 85l13 0M766 250l0 -174M766 249l41 0 0 -165M807 85l12 0M819 249l0 -166M819 249l15 0 0 -165M834 85l11 0 0 -10 1 143M846 249l0 -31M846 249l91 0"/>
<path stroke="#FFC0C5" d="M937 249l1 -45 0 -120M938 85l13 0M951 249l0 -172M951 249l23 0"/>
<path stroke="#A52A2A" d="M50 55l46 0"/>
<text stroke="none" fill="white" font-size="16" x="106" y="64">
x1.comp_out_n-2
</text>
<path stroke="#A52A2A" d="M50 613l1 0 1 -9 0 -22 1 -19M53 564l0 -3M53 564l1 6M54 613l0 -43M54 612l1 1 539 0 0 -166M594 449l14 0M608 613l0 -172M608 613l13 0M621 621l0 -174M621 449l13 0M634 613l0 -166M634 613l39 0M673 614l0 -1M673 614l1 -71 0 -95"/>
<path stroke="#A52A2A" d="M674 449l13 0M687 613l0 -171M687 613l40 0 0 -151 1 -13 0 -1M728 449l12 0M740 613l0 -173M740 613l40 0 0 -165 1 1 12 0M793 613l0 -174M793 613l67 0 0 -164 12 0M872 613l0 -174M872 613l14 0 0 -149 1 -16M887 449l0 -1M887 449l11 0"/>
<path stroke="#A52A2A" d="M898 613l0 -172M898 613l15 0 0 -165M913 449l12 0M925 614l0 -173M925 613l49 0"/>
</svg>
