<?xml version="1.0" standalone="yes"?>
<!DOCTYPE svg PUBLIC "-//W3C//DTD SVG 1.1//EN"
 "http://www.w3.org/Graphics/SVG/1.1/DTD/svg11.dtd">
<svg xmlns="http://www.w3.org/2000/svg" version="1.1"
  width="100%" height="100%" viewBox="0 0 1024 768"
  style="fill: none; font-family: Helvetica;
 font: Helvetica;
">

<!-- Creator: NGspice -->

<rect x="0" y="0" width="1024" height="768" fill="black" stroke="none"/>
<text stroke="none" fill="white" font-size="16" x="358" y="752">
time
</text>
<text stroke="none" fill="white" font-size="16" x="10" y="16">
tran1: run1931_vin0.797605
</text>
<path stroke="white" d="M50 704l0 -637"/>
<text stroke="none" fill="white" font-size="16" x="35" y="728">
0.0
</text>
<path stroke="white" stroke-dasharray="1,2" d="M182 704l0 -637"/>
<text stroke="none" fill="white" font-size="16" x="157" y="728">
100.0
</text>
<path stroke="white" stroke-dasharray="1,2" d="M314 704l0 -637"/>
<text stroke="none" fill="white" font-size="16" x="289" y="728">
200.0
</text>
<path stroke="white" stroke-dasharray="1,2" d="M446 704l0 -637"/>
<text stroke="none" fill="white" font-size="16" x="421" y="728">
300.0
</text>
<path stroke="white" stroke-dasharray="1,2" d="M578 704l0 -637"/>
<text stroke="none" fill="white" font-size="16" x="553" y="728">
400.0
</text>
<path stroke="white" stroke-dasharray="1,2" d="M710 704l0 -637"/>
<text stroke="none" fill="white" font-size="16" x="685" y="728">
500.0
</text>
<path stroke="white" stroke-dasharray="1,2" d="M842 704l0 -637"/>
<text stroke="none" fill="white" font-size="16" x="817" y="728">
600.0
</text>
<path stroke="white" stroke-dasharray="1,2" d="M974 704l0 -637"/>
<text stroke="none" fill="white" font-size="16" x="949" y="728">
700.0
</text>
<text stroke="none" fill="white" font-size="16" x="614" y="752">
ns
</text>
<path stroke="white" stroke-dasharray="1,2" d="M50 704l924 0"/>
<text stroke="none" fill="white" font-size="16" x="8" y="712">
-3.0
</text>
<path stroke="white" stroke-dasharray="1,2" d="M50 613l924 0"/>
<text stroke="none" fill="white" font-size="16" x="8" y="621">
-2.0
</text>
<path stroke="white" stroke-dasharray="1,2" d="M50 522l924 0"/>
<text stroke="none" fill="white" font-size="16" x="8" y="530">
-1.0
</text>
<path stroke="white" d="M50 431l924 0"/>
<text stroke="none" fill="white" font-size="16" x="18" y="439">
0.0
</text>
<path stroke="white" stroke-dasharray="1,2" d="M50 340l924 0"/>
<text stroke="none" fill="white" font-size="16" x="18" y="348">
1.0
</text>
<path stroke="white" stroke-dasharray="1,2" d="M50 249l924 0"/>
<text stroke="none" fill="white" font-size="16" x="18" y="257">
2.0
</text>
<path stroke="white" stroke-dasharray="1,2" d="M50 158l924 0"/>
<text stroke="none" fill="white" font-size="16" x="18" y="166">
3.0
</text>
<path stroke="white" stroke-dasharray="1,2" d="M50 67l924 0"/>
<text stroke="none" fill="white" font-size="16" x="18" y="75">
4.0
</text>
<text stroke="none" fill="white" font-size="16" x="10" y="32">
     
</text>
<path stroke="red" d="M462 23l46 0"/>
<text stroke="none" fill="white" font-size="16" x="518" y="32">
x1.vsampled_p
</text>
<path stroke="red" d="M50 431l1 0 1 -7 0 -16 1 -14 0 -5 1 2M54 414l0 -38 1 -5 0 -13 1 -3 0 -3 1 -1 0 -1 2 0 1 -1 3 0 1 1 4 0 1 -1 48 0 0 -1 1 -12 0 -34 1 -6 0 -11 1 -3 0 -2 1 -2 0 -1 419 0M540 278l0 -1 14 0 0 -1M554 277l13 0M567 278l0 -1 7 0"/>
<path stroke="red" d="M574 301l0 -24M574 301l1 8M575 316l0 -7M575 316l1 2 4 0 0 -1M580 318l13 0M593 319l0 -1 7 0M600 332l0 -14M600 332l1 4M601 339l0 -3M601 339l1 -1 17 0M619 339l0 -1 27 0M646 339l0 -1 7 0M653 347l0 -9M653 347l1 1M654 349l0 -1"/>
<path stroke="red" d="M654 349l1 -1 17 0M672 349l0 -1 27 0M699 349l0 -1 26 0M725 349l0 -1 26 0M751 349l0 -1 27 0M778 349l0 -1 7 0M785 349l0 -1M785 349l27 0 1 1 0 -1 18 0M831 350l0 -1 26 0M857 350l0 -1 26 0M883 350l0 -1 27 0M910 350l0 -1 8 0 0 -52"/>
<path stroke="red" d="M918 297l1 -3 0 -11 1 -2 0 -2 1 -1 0 -1 2 0 0 -1M923 277l13 0M936 278l0 -1 14 0 0 -1M950 277l12 0 0 -1 2 0M964 277l0 -1M964 277l10 0"/>
<path stroke="blue" d="M50 23l46 0"/>
<text stroke="none" fill="white" font-size="16" x="106" y="32">
x1.vsampled_n
</text>
<path stroke="blue" d="M50 431l1 0 1 -7 0 -15 1 -14 0 -5 1 2M54 414l0 -38 1 -5 0 -13 1 -3 0 -3 1 -1 0 -1 2 0 1 -1 3 0 1 1 3 0 1 -1 49 0M117 371l0 -22M117 371l1 17M118 408l0 -20M118 408l1 4M119 417l0 -5M119 417l1 2M120 420l0 -1M120 420l1 1 1 0"/>
<path stroke="blue" d="M122 421l1 1 423 0 0 -18 1 -3 0 -26 1 -7 0 -5 2 -2 1 0 1 -1 14 0 1 1 0 -1 26 0M593 361l0 -1 26 0M619 361l0 -1M619 361l1 0 0 -1 5 0M625 361l0 -13 1 -1 0 -5 2 0 1 1 4 0 0 -1M633 343l26 0 0 -1M659 343l20 0M679 351l0 -8M679 351l1 0"/>
<path stroke="blue" d="M680 351l0 -3 6 0 0 -1M686 348l20 0M706 352l0 -4M706 352l1 0 0 -2 18 0M725 351l0 -1 6 0 1 -2 0 -2M732 348l19 0M751 349l0 -1 8 0M759 351l0 -3M759 350l1 0 0 -1 18 0M778 350l0 -1 26 0M804 350l0 -1 26 0 1 1 0 -1 7 0 0 -1M838 349l80 0"/>
<path stroke="blue" d="M918 432l0 -83M918 432l1 0 0 -6 1 -1 0 -1 1 -1 0 -1 53 0"/>
<path stroke="#FFA500" d="M462 39l46 0"/>
<text stroke="none" fill="white" font-size="16" x="518" y="48">
x1.vsampled_p-x1.vsampled_n
</text>
<path stroke="#FFA500" d="M50 431l2 0 0 -1 2 0M54 431l0 -1M54 431l63 0 0 -23 1 -29 0 -55 1 -9 0 -16 1 -4 0 -4 1 -2 0 -2 1 0 1 -1 417 0M540 287l0 -1 6 0M546 304l0 -18M546 304l1 3M547 332l0 -25M547 332l1 8M548 344l0 -4M548 344l1 2 1 1 17 0M567 349l0 -2"/>
<path stroke="#FFA500" d="M567 347l7 0M574 372l0 -25M574 372l1 7M575 387l0 -8M575 387l1 1 17 0M593 389l0 -1 7 0M600 403l0 -15M600 403l1 4M601 410l0 -3M601 409l5 0 0 -1 1 0M607 409l0 -1M607 409l18 0M625 421l0 -12M625 421l1 2M626 428l0 -5M626 428l1 0"/>
<path stroke="#FFA500" d="M627 428l0 -1 19 0 0 -1M646 427l7 0M653 435l0 -9M653 435l1 2 18 0 0 -1M672 437l7 0 0 -8 1 -1M680 431l0 -3M680 431l1 1 18 0 0 -1M699 432l7 0 0 -5 1 0M707 429l0 -2M707 429l24 0 1 2M732 433l0 -2 27 0 0 -3M759 429l1 1 25 0"/>
<path stroke="#FFA500" d="M785 431l0 -1M785 431l19 0 0 -1M804 431l34 0M838 432l0 -1M838 432l1 -1 79 0 0 -135 1 -3 0 -5 2 -2 15 0M936 287l0 -1 38 0"/>
<path stroke="green" d="M50 39l46 0"/>
<text stroke="none" fill="white" font-size="16" x="106" y="48">
x1.sw_sample-2
</text>
<path stroke="green" d="M50 613l1 0 1 -9 0 -21 1 -21M53 579l0 -23M53 579l1 31M54 613l0 -3M54 613l63 0M117 620l0 -172M117 449l422 0M539 614l0 -171M539 613l422 0M961 618l0 -170 1 1 12 0"/>
<path stroke="#FFC0C5" d="M462 55l46 0"/>
<text stroke="none" fill="white" font-size="16" x="518" y="64">
x1.comp_out_p+2
</text>
<path stroke="#FFC0C5" d="M50 249l1 0 1 -9 0 -22 1 -18 0 -4M53 198l1 5M54 249l0 -46M54 249l488 0 0 -165M542 85l13 0M555 250l0 -173M555 249l13 0 0 -165M568 85l13 0 0 -8 1 162M582 250l0 -11M582 249l12 0M594 255l0 -172M594 85l14 0M608 250l0 -167"/>
<path stroke="#FFC0C5" d="M608 249l13 0 0 -166M621 85l13 0M634 249l0 -172M634 249l13 0M647 250l0 -167M647 85l14 0M661 249l0 -171M661 249l66 0 0 -165M727 85l13 0M740 249l0 -173M740 249l40 0 0 -165M780 85l13 0M793 249l0 -174M793 249l14 0 0 -164"/>
<path stroke="#FFC0C5" d="M807 85l12 0M819 250l0 -171M819 249l15 0 0 -165M834 85l11 0 0 -5 1 73M846 250l0 -97M846 249l91 0 1 -47 0 -118M938 85l13 0M951 249l0 -172M951 249l23 0"/>
<path stroke="#A52A2A" d="M50 55l46 0"/>
<text stroke="none" fill="white" font-size="16" x="106" y="64">
x1.comp_out_n-2
</text>
<path stroke="#A52A2A" d="M50 613l1 0 1 -9 0 -22 1 -19M53 564l0 -3M53 564l1 6M54 613l0 -43M54 612l1 1 618 0M673 616l0 -3M673 616l1 -121 0 -48M674 449l13 0M687 613l0 -172M687 613l13 0 0 -164 1 -1M701 449l0 -1M701 449l12 0 0 -9 1 163M714 613l0 -10"/>
<path stroke="#A52A2A" d="M714 613l39 0 0 -147 1 -17 0 -1M754 449l12 0M766 613l0 -171M766 613l93 0 1 -158 0 -7M860 449l12 0M872 613l0 -174M872 613l14 0 0 -164 1 -1M887 449l0 -1M887 449l11 0M898 613l0 -174M898 613l15 0 0 -165M913 449l12 0M925 614l0 -170"/>
<path stroke="#A52A2A" d="M925 613l49 0"/>
</svg>
