<?xml version="1.0" standalone="yes"?>
<!DOCTYPE svg PUBLIC "-//W3C//DTD SVG 1.1//EN"
 "http://www.w3.org/Graphics/SVG/1.1/DTD/svg11.dtd">
<svg xmlns="http://www.w3.org/2000/svg" version="1.1"
  width="100%" height="100%" viewBox="0 0 1024 768"
  style="fill: none; font-family: Helvetica;
 font: Helvetica;
">

<!-- Creator: NGspice -->

<rect x="0" y="0" width="1024" height="768" fill="black" stroke="none"/>
<text stroke="none" fill="white" font-size="16" x="358" y="752">
time
</text>
<text stroke="none" fill="white" font-size="16" x="10" y="16">
tran1: run994_vin-0.025929
</text>
<path stroke="white" d="M50 704l0 -637"/>
<text stroke="none" fill="white" font-size="16" x="35" y="728">
0.0
</text>
<path stroke="white" stroke-dasharray="1,2" d="M182 704l0 -637"/>
<text stroke="none" fill="white" font-size="16" x="157" y="728">
100.0
</text>
<path stroke="white" stroke-dasharray="1,2" d="M314 704l0 -637"/>
<text stroke="none" fill="white" font-size="16" x="289" y="728">
200.0
</text>
<path stroke="white" stroke-dasharray="1,2" d="M446 704l0 -637"/>
<text stroke="none" fill="white" font-size="16" x="421" y="728">
300.0
</text>
<path stroke="white" stroke-dasharray="1,2" d="M578 704l0 -637"/>
<text stroke="none" fill="white" font-size="16" x="553" y="728">
400.0
</text>
<path stroke="white" stroke-dasharray="1,2" d="M710 704l0 -637"/>
<text stroke="none" fill="white" font-size="16" x="685" y="728">
500.0
</text>
<path stroke="white" stroke-dasharray="1,2" d="M842 704l0 -637"/>
<text stroke="none" fill="white" font-size="16" x="817" y="728">
600.0
</text>
<path stroke="white" stroke-dasharray="1,2" d="M974 704l0 -637"/>
<text stroke="none" fill="white" font-size="16" x="949" y="728">
700.0
</text>
<text stroke="none" fill="white" font-size="16" x="614" y="752">
ns
</text>
<path stroke="white" stroke-dasharray="1,2" d="M50 704l924 0"/>
<text stroke="none" fill="white" font-size="16" x="8" y="712">
-3.0
</text>
<path stroke="white" stroke-dasharray="1,2" d="M50 613l924 0"/>
<text stroke="none" fill="white" font-size="16" x="8" y="621">
-2.0
</text>
<path stroke="white" stroke-dasharray="1,2" d="M50 522l924 0"/>
<text stroke="none" fill="white" font-size="16" x="8" y="530">
-1.0
</text>
<path stroke="white" d="M50 431l924 0"/>
<text stroke="none" fill="white" font-size="16" x="18" y="439">
0.0
</text>
<path stroke="white" stroke-dasharray="1,2" d="M50 340l924 0"/>
<text stroke="none" fill="white" font-size="16" x="18" y="348">
1.0
</text>
<path stroke="white" stroke-dasharray="1,2" d="M50 249l924 0"/>
<text stroke="none" fill="white" font-size="16" x="18" y="257">
2.0
</text>
<path stroke="white" stroke-dasharray="1,2" d="M50 158l924 0"/>
<text stroke="none" fill="white" font-size="16" x="18" y="166">
3.0
</text>
<path stroke="white" stroke-dasharray="1,2" d="M50 67l924 0"/>
<text stroke="none" fill="white" font-size="16" x="18" y="75">
4.0
</text>
<text stroke="none" fill="white" font-size="16" x="10" y="32">
     
</text>
<path stroke="red" d="M462 23l46 0"/>
<text stroke="none" fill="white" font-size="16" x="518" y="32">
x1.vsampled_p
</text>
<path stroke="red" d="M50 431l1 0 1 -7 0 -15 1 -14 0 -5 1 1M54 415l0 -39 1 -5 0 -15 1 -3 0 -2 1 -1 2 0 1 -1 4 0M64 350l0 -1M64 350l4 0 1 -1 48 0 1 1M118 351l0 -1M118 351l421 0M539 352l0 -1M539 352l7 0 1 -2 0 -42 1 -7 0 -7 1 -2 0 -1 2 0 0 -1 15 0"/>
<path stroke="red" d="M566 290l1 1M567 292l0 -2 7 0M574 320l0 -30M574 320l1 8M575 333l0 -5M575 333l1 0 0 -1 1 0 1 -1 15 0M593 332l0 -1 7 0M600 348l0 -17M600 348l1 3M601 355l0 -4M601 354l1 -1 0 -1 4 0 0 -1M606 352l19 0 0 -2 1 -5 0 -11 7 0 0 -1"/>
<path stroke="red" d="M633 334l20 0M653 345l0 -11M653 345l1 0M654 346l0 -1 1 -1 24 0M679 350l0 -6M679 350l1 1 0 -2 133 0M813 350l0 -1 17 0 1 1 0 -1 87 0M918 353l0 -4M918 352l5 0 0 -1M923 352l27 0 0 -1M950 352l12 0 0 -1 12 0"/>
<path stroke="blue" d="M50 23l46 0"/>
<text stroke="none" fill="white" font-size="16" x="106" y="32">
x1.vsampled_n
</text>
<path stroke="blue" d="M50 431l1 0 1 -7 0 -15 1 -15 0 -4 1 1M54 415l0 -39 1 -5 0 -15 1 -3 0 -2 1 -1 2 0 1 -1 4 0M64 350l0 -1M64 350l4 0 1 -1 48 0 2 -2 587 0M706 351l0 -4M706 350l6 0 0 -1 13 0M725 350l0 -1M725 350l7 0 0 -1 1 -1 0 -2M733 347l18 0"/>
<path stroke="blue" d="M751 348l0 -1 8 0M759 350l0 -3M759 349l6 0 0 -1 1 0M766 349l0 -1 12 0M778 349l0 -1M778 349l8 0M786 350l0 -1 18 0M804 350l0 -1 27 0M831 350l0 -1 26 0M857 350l0 -1 26 0M883 350l0 -1 27 0M910 350l0 -1 8 0 0 -2 56 0"/>
<path stroke="#FFA500" d="M462 39l46 0"/>
<text stroke="none" fill="white" font-size="16" x="518" y="48">
x1.vsampled_p-x1.vsampled_n
</text>
<path stroke="#FFA500" d="M50 431l67 0 1 2M118 434l0 -1M118 434l2 2 426 0 1 -2 0 -42 1 -7 0 -7 1 -2 0 -1 2 0 1 -1 14 0 1 1M567 376l0 -2 7 0M574 404l0 -30M574 404l1 8M575 417l0 -5M575 417l1 0 0 -1 1 0 1 -1 15 0M593 416l0 -1 7 0M600 432l0 -17M600 432l1 3"/>
<path stroke="#FFA500" d="M601 439l0 -4M601 438l1 -1 0 -1 23 0 0 -2 1 -5 0 -11 27 0M653 429l0 -11M653 429l1 1 0 -1 1 -1 24 0M679 434l0 -6M679 434l1 1 0 -2 26 0 0 -3 1 0M707 431l0 -1M707 431l25 0 1 2M733 434l0 -1 26 0 0 -3M759 431l1 0M760 432l0 -1"/>
<path stroke="#FFA500" d="M760 432l26 0 0 -2M786 431l27 0M813 432l0 -1 105 0M918 437l0 -6M918 437l1 -1 55 0"/>
<path stroke="green" d="M50 39l46 0"/>
<text stroke="none" fill="white" font-size="16" x="106" y="48">
x1.sw_sample-2
</text>
<path stroke="green" d="M50 613l1 0 1 -9 0 -21 1 -21M53 582l0 -26M53 582l1 28M54 613l0 -3M54 613l63 0M117 620l0 -172M117 449l422 0M539 614l0 -171M539 613l422 0M961 618l0 -170 1 1 12 0"/>
<path stroke="#FFC0C5" d="M462 55l46 0"/>
<text stroke="none" fill="white" font-size="16" x="518" y="64">
x1.comp_out_p+2
</text>
<path stroke="#FFC0C5" d="M50 249l1 0 1 -9 0 -22 1 -18 0 -4M53 198l1 5M54 249l0 -46M54 249l514 0M568 254l0 -171M568 85l13 0 0 -8 1 160M582 249l0 -12M582 249l12 0M594 251l0 -168M594 85l14 0M608 250l0 -171M608 249l39 0M647 250l0 -166M647 85l14 0"/>
<path stroke="#FFC0C5" d="M661 249l0 -172M661 249l12 0 1 2 0 -167M674 85l13 0M687 249l0 -171M687 249l41 0 0 -165M728 85l12 0M740 250l0 -173M740 249l67 0 0 -157 1 -8M808 85l0 -1M808 85l11 0M819 249l0 -169M819 249l41 0 0 -165 1 1 11 0M872 249l0 -174"/>
<path stroke="#FFC0C5" d="M872 249l14 0 1 -157 0 -8M887 85l11 0M898 249l0 -174M898 249l15 0 0 -165M913 85l12 0M925 249l0 -173M925 249l49 0"/>
<path stroke="#A52A2A" d="M50 55l46 0"/>
<text stroke="none" fill="white" font-size="16" x="106" y="64">
x1.comp_out_n-2
</text>
<path stroke="#A52A2A" d="M50 613l1 0 1 -9 0 -22 1 -19M53 564l0 -3M53 564l1 6M54 613l0 -43M54 613l488 0M542 614l0 -167M542 449l13 0M555 614l0 -166M555 613l39 0M594 614l0 -1 27 0 0 -165M621 449l13 0M634 613l0 -171M634 613l13 0M647 614l0 -1 53 0"/>
<path stroke="#A52A2A" d="M700 614l0 -166M700 449l13 0 0 -9 1 145M714 613l0 -28M714 613l39 0 0 -165M753 449l13 0M766 613l0 -172M766 613l14 0 0 -165M780 449l13 0M793 613l0 -166M793 613l41 0 0 -165M834 449l11 0 0 -2M845 449l1 153M846 613l0 -11"/>
<path stroke="#A52A2A" d="M846 613l92 0M938 614l0 -167M938 449l13 0M951 613l0 -173M951 613l23 0"/>
</svg>
