<?xml version="1.0" standalone="yes"?>
<!DOCTYPE svg PUBLIC "-//W3C//DTD SVG 1.1//EN"
 "http://www.w3.org/Graphics/SVG/1.1/DTD/svg11.dtd">
<svg xmlns="http://www.w3.org/2000/svg" version="1.1"
  width="100%" height="100%" viewBox="0 0 1024 768"
  style="fill: none; font-family: Helvetica;
 font: Helvetica;
">

<!-- Creator: NGspice -->

<rect x="0" y="0" width="1024" height="768" fill="black" stroke="none"/>
<text stroke="none" fill="white" font-size="16" x="358" y="752">
time
</text>
<text stroke="none" fill="white" font-size="16" x="10" y="16">
tran1: run993_vin-0.0268079
</text>
<path stroke="white" d="M50 704l0 -637"/>
<text stroke="none" fill="white" font-size="16" x="35" y="728">
0.0
</text>
<path stroke="white" stroke-dasharray="1,2" d="M182 704l0 -637"/>
<text stroke="none" fill="white" font-size="16" x="157" y="728">
100.0
</text>
<path stroke="white" stroke-dasharray="1,2" d="M314 704l0 -637"/>
<text stroke="none" fill="white" font-size="16" x="289" y="728">
200.0
</text>
<path stroke="white" stroke-dasharray="1,2" d="M446 704l0 -637"/>
<text stroke="none" fill="white" font-size="16" x="421" y="728">
300.0
</text>
<path stroke="white" stroke-dasharray="1,2" d="M578 704l0 -637"/>
<text stroke="none" fill="white" font-size="16" x="553" y="728">
400.0
</text>
<path stroke="white" stroke-dasharray="1,2" d="M710 704l0 -637"/>
<text stroke="none" fill="white" font-size="16" x="685" y="728">
500.0
</text>
<path stroke="white" stroke-dasharray="1,2" d="M842 704l0 -637"/>
<text stroke="none" fill="white" font-size="16" x="817" y="728">
600.0
</text>
<path stroke="white" stroke-dasharray="1,2" d="M974 704l0 -637"/>
<text stroke="none" fill="white" font-size="16" x="949" y="728">
700.0
</text>
<text stroke="none" fill="white" font-size="16" x="614" y="752">
ns
</text>
<path stroke="white" stroke-dasharray="1,2" d="M50 704l924 0"/>
<text stroke="none" fill="white" font-size="16" x="8" y="712">
-3.0
</text>
<path stroke="white" stroke-dasharray="1,2" d="M50 613l924 0"/>
<text stroke="none" fill="white" font-size="16" x="8" y="621">
-2.0
</text>
<path stroke="white" stroke-dasharray="1,2" d="M50 522l924 0"/>
<text stroke="none" fill="white" font-size="16" x="8" y="530">
-1.0
</text>
<path stroke="white" d="M50 431l924 0"/>
<text stroke="none" fill="white" font-size="16" x="18" y="439">
0.0
</text>
<path stroke="white" stroke-dasharray="1,2" d="M50 340l924 0"/>
<text stroke="none" fill="white" font-size="16" x="18" y="348">
1.0
</text>
<path stroke="white" stroke-dasharray="1,2" d="M50 249l924 0"/>
<text stroke="none" fill="white" font-size="16" x="18" y="257">
2.0
</text>
<path stroke="white" stroke-dasharray="1,2" d="M50 158l924 0"/>
<text stroke="none" fill="white" font-size="16" x="18" y="166">
3.0
</text>
<path stroke="white" stroke-dasharray="1,2" d="M50 67l924 0"/>
<text stroke="none" fill="white" font-size="16" x="18" y="75">
4.0
</text>
<text stroke="none" fill="white" font-size="16" x="10" y="32">
     
</text>
<path stroke="red" d="M462 23l46 0"/>
<text stroke="none" fill="white" font-size="16" x="518" y="32">
x1.vsampled_p
</text>
<path stroke="red" d="M50 431l1 0 1 -7 0 -15 1 -14 0 -5 1 1M54 415l0 -39 1 -5 0 -15 1 -3 0 -2 1 -1 2 0 1 -1 4 0M64 350l0 -1M64 350l4 0 1 -1 48 0 1 1M118 351l0 -1M118 351l2 0 1 1 426 0 0 -44 1 -8 0 -6 1 -2 0 -1 5 0 0 -1 12 0 1 1M567 292l0 -1 6 0"/>
<path stroke="red" d="M573 291l1 7M574 320l0 -22M574 320l1 7M575 333l0 -6M575 333l1 0 0 -1 2 0 0 -1 15 0M593 332l0 -1 7 0M600 348l0 -17M600 348l1 3M601 355l0 -4M601 354l1 -1 0 -1 23 0 0 -2 1 -5 0 -10 1 -1 6 0 0 -1M633 334l13 0M646 335l0 -1 7 0"/>
<path stroke="red" d="M653 343l0 -9M653 343l1 2M654 346l0 -1 1 0 0 -1 17 0M672 345l0 -1 7 0M679 349l0 -5M679 349l1 0M680 351l0 -2M680 350l1 -1 18 0M699 350l0 -1 26 0M725 350l0 -1 26 0M751 350l0 -1 27 0M778 350l0 -1 26 0M804 350l0 -1 27 0M831 350l0 -1"/>
<path stroke="red" d="M831 349l26 0M857 350l0 -1 26 0M883 350l0 -1 27 0M910 350l0 -1 8 0M918 352l0 -3M918 352l1 0M919 353l0 -1 43 0 0 -1 1 0M963 352l0 -1M963 352l11 0"/>
<path stroke="blue" d="M50 23l46 0"/>
<text stroke="none" fill="white" font-size="16" x="106" y="32">
x1.vsampled_n
</text>
<path stroke="blue" d="M50 431l1 0 1 -7 0 -15 1 -15 0 -4 1 1M54 415l0 -39 1 -5 0 -15 1 -3 0 -2 1 -1 2 0 1 -1 4 0M64 350l0 -1M64 350l4 0 1 -1 48 0 2 -2 587 0M706 350l0 -3M706 350l1 0 0 -1 18 0M725 350l0 -1 8 0 0 -3M733 347l18 0M751 348l0 -1 8 0"/>
<path stroke="blue" d="M759 350l0 -3M759 349l1 0 1 -1 17 0M778 349l0 -1 7 0M785 349l0 -1M785 349l1 0M786 350l0 -1 26 0M812 350l0 -1M812 350l1 0 0 -1 17 0 1 1 0 -1 87 0M918 350l0 -3 56 0"/>
<path stroke="#FFA500" d="M462 39l46 0"/>
<text stroke="none" fill="white" font-size="16" x="518" y="48">
x1.vsampled_p-x1.vsampled_n
</text>
<path stroke="#FFA500" d="M50 431l67 0 1 2M118 434l0 -1M118 434l1 1M119 436l0 -1M119 436l428 0 0 -44 1 -8 0 -6 1 -2 1 -1 4 0 0 -1M554 375l13 0M567 376l0 -2M567 375l6 0M573 376l0 -1M573 376l1 6M574 404l0 -22M574 404l1 7M575 417l0 -6M575 417l1 0"/>
<path stroke="#FFA500" d="M576 417l0 -1 3 0 0 -1 1 0M580 416l0 -1 13 0M593 416l0 -1 7 0M600 432l0 -17M600 432l1 3M601 439l0 -4M601 438l1 -1 0 -1 23 0 0 -2 1 -5 0 -10 1 -1 26 0M653 427l0 -9M653 427l1 2M654 430l0 -1 1 0 0 -1 24 0M679 433l0 -5M679 433l1 0"/>
<path stroke="#FFA500" d="M680 435l0 -2M680 434l1 -1 25 0 0 -3 1 0M707 431l0 -1M707 431l26 0M733 434l0 -3M733 433l26 0 0 -2M759 432l26 0 0 -1 27 0 0 -1 1 1 105 0M918 436l0 -6M918 436l1 0M919 437l0 -1 55 0"/>
<path stroke="green" d="M50 39l46 0"/>
<text stroke="none" fill="white" font-size="16" x="106" y="48">
x1.sw_sample-2
</text>
<path stroke="green" d="M50 613l1 0 1 -9 0 -21 1 -21M53 582l0 -26M53 582l1 28M54 613l0 -3M54 613l63 0M117 620l0 -172M117 449l422 0M539 614l0 -171M539 613l422 0M961 618l0 -170 1 1 12 0"/>
<path stroke="#FFC0C5" d="M462 55l46 0"/>
<text stroke="none" fill="white" font-size="16" x="518" y="64">
x1.comp_out_p+2
</text>
<path stroke="#FFC0C5" d="M50 249l1 0 1 -9 0 -22 1 -18 0 -4M53 198l1 5M54 249l0 -46M54 249l514 0M568 253l0 -169M568 85l13 0 0 -8 1 160M582 249l0 -12M582 249l12 0M594 250l0 -167M594 85l14 0M608 249l0 -172M608 249l39 0M647 250l0 -166M647 85l14 0"/>
<path stroke="#FFC0C5" d="M661 250l0 -173M661 249l12 0 1 2 0 -168M674 85l13 0M687 249l0 -171M687 249l41 0 0 -164 1 -1M729 85l0 -1M729 85l11 0M740 249l0 -173M740 249l94 0 0 -165M834 85l11 0M845 86l0 -3M845 86l1 149M846 249l0 -14M846 249l128 0"/>
<path stroke="#A52A2A" d="M50 55l46 0"/>
<text stroke="none" fill="white" font-size="16" x="106" y="64">
x1.comp_out_n-2
</text>
<path stroke="#A52A2A" d="M50 613l1 0 1 -9 0 -22 1 -19M53 564l0 -3M53 564l1 6M54 613l0 -43M54 613l488 0M542 614l0 -167M542 449l13 0M555 613l0 -171M555 613l66 0M621 614l0 -167M621 449l13 0M634 613l0 -172M634 613l13 0M647 614l0 -1 53 0 0 -166M700 449l13 0"/>
<path stroke="#A52A2A" d="M713 449l0 -6 1 158M714 613l0 -12M714 613l39 0 0 -166M753 449l13 0M766 613l0 -173M766 613l14 0 0 -165M780 449l13 0M793 613l0 -174M793 613l14 0 0 -165 1 1 11 0M819 613l0 -169M819 613l41 0 0 -165 1 1 11 0M872 613l0 -174"/>
<path stroke="#A52A2A" d="M872 613l15 0 0 -165M887 449l11 0M898 613l0 -174M898 613l15 0 0 -165M913 449l12 0M925 613l0 -172M925 613l13 0M938 615l0 -168M938 449l13 0M951 613l0 -172M951 613l23 0"/>
</svg>
