<?xml version="1.0" standalone="yes"?>
<!DOCTYPE svg PUBLIC "-//W3C//DTD SVG 1.1//EN"
 "http://www.w3.org/Graphics/SVG/1.1/DTD/svg11.dtd">
<svg xmlns="http://www.w3.org/2000/svg" version="1.1"
  width="100%" height="100%" viewBox="0 0 1024 768"
  style="fill: none; font-family: Helvetica;
 font: Helvetica;
">

<!-- Creator: NGspice -->

<rect x="0" y="0" width="1024" height="768" fill="black" stroke="none"/>
<text stroke="none" fill="white" font-size="16" x="358" y="752">
time
</text>
<text stroke="none" fill="white" font-size="16" x="10" y="16">
tran1: run999_vin-0.0215345
</text>
<path stroke="white" d="M50 704l0 -637"/>
<text stroke="none" fill="white" font-size="16" x="35" y="728">
0.0
</text>
<path stroke="white" stroke-dasharray="1,2" d="M182 704l0 -637"/>
<text stroke="none" fill="white" font-size="16" x="157" y="728">
100.0
</text>
<path stroke="white" stroke-dasharray="1,2" d="M314 704l0 -637"/>
<text stroke="none" fill="white" font-size="16" x="289" y="728">
200.0
</text>
<path stroke="white" stroke-dasharray="1,2" d="M446 704l0 -637"/>
<text stroke="none" fill="white" font-size="16" x="421" y="728">
300.0
</text>
<path stroke="white" stroke-dasharray="1,2" d="M578 704l0 -637"/>
<text stroke="none" fill="white" font-size="16" x="553" y="728">
400.0
</text>
<path stroke="white" stroke-dasharray="1,2" d="M710 704l0 -637"/>
<text stroke="none" fill="white" font-size="16" x="685" y="728">
500.0
</text>
<path stroke="white" stroke-dasharray="1,2" d="M842 704l0 -637"/>
<text stroke="none" fill="white" font-size="16" x="817" y="728">
600.0
</text>
<path stroke="white" stroke-dasharray="1,2" d="M974 704l0 -637"/>
<text stroke="none" fill="white" font-size="16" x="949" y="728">
700.0
</text>
<text stroke="none" fill="white" font-size="16" x="614" y="752">
ns
</text>
<path stroke="white" stroke-dasharray="1,2" d="M50 704l924 0"/>
<text stroke="none" fill="white" font-size="16" x="8" y="712">
-3.0
</text>
<path stroke="white" stroke-dasharray="1,2" d="M50 613l924 0"/>
<text stroke="none" fill="white" font-size="16" x="8" y="621">
-2.0
</text>
<path stroke="white" stroke-dasharray="1,2" d="M50 522l924 0"/>
<text stroke="none" fill="white" font-size="16" x="8" y="530">
-1.0
</text>
<path stroke="white" d="M50 431l924 0"/>
<text stroke="none" fill="white" font-size="16" x="18" y="439">
0.0
</text>
<path stroke="white" stroke-dasharray="1,2" d="M50 340l924 0"/>
<text stroke="none" fill="white" font-size="16" x="18" y="348">
1.0
</text>
<path stroke="white" stroke-dasharray="1,2" d="M50 249l924 0"/>
<text stroke="none" fill="white" font-size="16" x="18" y="257">
2.0
</text>
<path stroke="white" stroke-dasharray="1,2" d="M50 158l924 0"/>
<text stroke="none" fill="white" font-size="16" x="18" y="166">
3.0
</text>
<path stroke="white" stroke-dasharray="1,2" d="M50 67l924 0"/>
<text stroke="none" fill="white" font-size="16" x="18" y="75">
4.0
</text>
<text stroke="none" fill="white" font-size="16" x="10" y="32">
     
</text>
<path stroke="red" d="M462 23l46 0"/>
<text stroke="none" fill="white" font-size="16" x="518" y="32">
x1.vsampled_p
</text>
<path stroke="red" d="M50 431l1 0 1 -7 0 -15 1 -14 0 -5 1 1M54 415l0 -39 1 -5 0 -15 1 -3 0 -2 1 -1 2 0 1 -1 4 0M64 350l0 -1M64 350l4 0 1 -1 48 0 2 2 421 0M540 352l0 -1 6 0M546 352l0 -24 1 -1 0 -27 1 -5 0 -2 1 -1 0 -1 1 -1 4 0 0 -1M554 290l13 0"/>
<path stroke="red" d="M567 292l0 -2 7 0M574 321l0 -31M574 321l1 8M575 333l0 -4M575 333l1 0 0 -1 1 -1 3 0 0 -1M580 331l13 0M593 332l0 -1 7 0M600 347l0 -16M600 347l1 3M601 355l0 -5M601 354l1 -1 0 -1 1 -1 16 0M619 352l0 -1M619 352l1 -1 6 0 0 -17"/>
<path stroke="red" d="M626 334l1 0 0 -1 19 0M646 334l0 -1 7 0M653 342l0 -9M653 342l1 2M654 345l0 -1M654 345l1 -1 4 0 0 -1M659 344l20 0M679 349l0 -6M679 349l1 1M680 351l0 -2 6 0 0 -1M686 349l100 0M786 350l0 -1 18 0M804 350l0 -1 26 0 1 1 0 -1 86 0"/>
<path stroke="red" d="M917 350l0 -1M917 350l1 1M918 352l0 -1M918 352l1 -1 17 0M936 352l0 -1 38 0"/>
<path stroke="blue" d="M50 23l46 0"/>
<text stroke="none" fill="white" font-size="16" x="106" y="32">
x1.vsampled_n
</text>
<path stroke="blue" d="M50 431l1 0 1 -7 0 -15 1 -15 0 -4 1 1M54 415l0 -39 1 -5 0 -15 1 -3 0 -2 1 -1 2 0 1 -1 4 0M64 350l0 -1M64 350l4 0 1 -1 48 0 2 -2 421 0M540 348l0 -1 27 0M567 348l0 -1 26 0M593 348l0 -1 26 0M619 348l0 -1 27 0M646 348l0 -1"/>
<path stroke="blue" d="M646 347l26 0M672 348l0 -1 26 0 1 1 0 -1 7 0M706 351l0 -4M706 351l1 0 0 -1 25 0 0 -3 1 1 5 0 0 -1M738 348l21 0M759 350l0 -2M759 349l54 0M813 350l0 -1 18 0M831 350l0 -1 26 0M857 350l0 -1 26 0M883 350l0 -1 27 0M910 350l0 -1"/>
<path stroke="blue" d="M910 349l8 0 0 -2 18 0M936 348l0 -1 38 0"/>
<path stroke="#FFA500" d="M462 39l46 0"/>
<text stroke="none" fill="white" font-size="16" x="518" y="48">
x1.vsampled_p-x1.vsampled_n
</text>
<path stroke="#FFA500" d="M50 431l67 0 1 2M118 434l0 -1M118 434l1 0M119 435l0 -1M119 435l427 0 0 -23 1 -1 0 -27 1 -5 0 -2 1 -2 1 -1 4 0 0 -1M554 374l13 0M567 375l0 -2M567 374l7 0M574 405l0 -31M574 405l1 7M575 416l0 -4M575 416l1 0 1 -1 3 0 0 -1"/>
<path stroke="#FFA500" d="M580 414l13 0M593 415l0 -1M593 415l7 0M600 431l0 -17M600 431l1 3M601 438l0 -4M601 438l1 -1 0 -2 24 0 0 -17 1 -1 26 0M653 426l0 -9M653 426l1 2M654 429l0 -1 1 0 0 -1 24 0M679 432l0 -5M679 432l1 1M680 434l0 -1 1 -1 25 0"/>
<path stroke="#FFA500" d="M706 432l0 -3 1 0M707 430l0 -1M707 430l25 0M732 433l0 -3M732 432l27 0 0 -2M759 431l27 0M786 432l0 -1 52 0 0 -1M838 431l79 0M917 433l0 -2M917 433l1 0M918 436l0 -3M918 435l56 0"/>
<path stroke="green" d="M50 39l46 0"/>
<text stroke="none" fill="white" font-size="16" x="106" y="48">
x1.sw_sample-2
</text>
<path stroke="green" d="M50 613l1 0 1 -9 0 -21 1 -21M53 582l0 -26M53 582l1 28M54 613l0 -3M54 613l63 0M117 620l0 -172M117 449l422 0M539 614l0 -171M539 613l422 0M961 618l0 -170 1 1 12 0"/>
<path stroke="#FFC0C5" d="M462 55l46 0"/>
<text stroke="none" fill="white" font-size="16" x="518" y="64">
x1.comp_out_p+2
</text>
<path stroke="#FFC0C5" d="M50 249l1 0 1 -9 0 -22 1 -18 0 -4M53 198l1 5M54 249l0 -46M54 249l514 0M568 250l0 -166M568 85l13 0 0 -8 1 159M582 249l0 -13M582 249l12 0M594 250l0 -166M594 85l14 0M608 250l0 -171M608 249l39 0 0 -165M647 85l14 0M661 249l0 -172"/>
<path stroke="#FFC0C5" d="M661 249l12 0 1 2 0 -167M674 85l13 0M687 249l0 -166M687 249l40 0 0 -165 1 1 12 0M740 250l0 -173M740 249l40 0 0 -156 1 -9M781 85l0 -1M781 85l12 0M793 250l0 -174M793 249l67 0 0 -165M860 85l12 0M872 250l0 -169M872 249l14 0"/>
<path stroke="#FFC0C5" d="M886 249l0 -157 1 -8M887 85l0 -1M887 85l11 0M898 250l0 -169M898 249l14 0 1 -157 0 -8M913 85l12 0M925 250l0 -173M925 249l49 0"/>
<path stroke="#A52A2A" d="M50 55l46 0"/>
<text stroke="none" fill="white" font-size="16" x="106" y="64">
x1.comp_out_n-2
</text>
<path stroke="#A52A2A" d="M50 613l1 0 1 -9 0 -22 1 -19M53 564l0 -3M53 564l1 6M54 613l0 -43M54 613l488 0 0 -165M542 449l13 0M555 613l0 -173M555 613l13 0M568 614l0 -1 26 0M594 614l0 -1 27 0M621 616l0 -168M621 449l13 0M634 613l0 -173M634 613l40 0"/>
<path stroke="#A52A2A" d="M674 614l0 -1 26 0 0 -165M700 449l13 0 0 -9 1 163M714 613l0 -10M714 613l39 0 0 -165M753 449l13 0M766 613l0 -174M766 613l41 0 0 -165M807 449l12 0M819 613l0 -172M819 613l15 0 0 -165M834 449l11 0 0 -10 1 152M846 613l0 -22"/>
<path stroke="#A52A2A" d="M846 613l92 0 0 -165M938 449l13 0M951 613l0 -167M951 613l23 0"/>
</svg>
