<?xml version="1.0" standalone="yes"?>
<!DOCTYPE svg PUBLIC "-//W3C//DTD SVG 1.1//EN"
 "http://www.w3.org/Graphics/SVG/1.1/DTD/svg11.dtd">
<svg xmlns="http://www.w3.org/2000/svg" version="1.1"
  width="100%" height="100%" viewBox="0 0 1024 768"
  style="fill: none; font-family: Helvetica;
 font: Helvetica;
">

<!-- Creator: NGspice -->

<rect x="0" y="0" width="1024" height="768" fill="black" stroke="none"/>
<text stroke="none" fill="white" font-size="16" x="358" y="752">
time
</text>
<text stroke="none" fill="white" font-size="16" x="10" y="16">
tran1: run829_vin-0.170948
</text>
<path stroke="white" d="M50 704l0 -637"/>
<text stroke="none" fill="white" font-size="16" x="35" y="728">
0.0
</text>
<path stroke="white" stroke-dasharray="1,2" d="M182 704l0 -637"/>
<text stroke="none" fill="white" font-size="16" x="157" y="728">
100.0
</text>
<path stroke="white" stroke-dasharray="1,2" d="M314 704l0 -637"/>
<text stroke="none" fill="white" font-size="16" x="289" y="728">
200.0
</text>
<path stroke="white" stroke-dasharray="1,2" d="M446 704l0 -637"/>
<text stroke="none" fill="white" font-size="16" x="421" y="728">
300.0
</text>
<path stroke="white" stroke-dasharray="1,2" d="M578 704l0 -637"/>
<text stroke="none" fill="white" font-size="16" x="553" y="728">
400.0
</text>
<path stroke="white" stroke-dasharray="1,2" d="M710 704l0 -637"/>
<text stroke="none" fill="white" font-size="16" x="685" y="728">
500.0
</text>
<path stroke="white" stroke-dasharray="1,2" d="M842 704l0 -637"/>
<text stroke="none" fill="white" font-size="16" x="817" y="728">
600.0
</text>
<path stroke="white" stroke-dasharray="1,2" d="M974 704l0 -637"/>
<text stroke="none" fill="white" font-size="16" x="949" y="728">
700.0
</text>
<text stroke="none" fill="white" font-size="16" x="614" y="752">
ns
</text>
<path stroke="white" stroke-dasharray="1,2" d="M50 704l924 0"/>
<text stroke="none" fill="white" font-size="16" x="8" y="712">
-2.5
</text>
<path stroke="white" stroke-dasharray="1,2" d="M50 655l924 0"/>
<text stroke="none" fill="white" font-size="16" x="8" y="663">
-2.0
</text>
<path stroke="white" stroke-dasharray="1,2" d="M50 606l924 0"/>
<text stroke="none" fill="white" font-size="16" x="8" y="614">
-1.5
</text>
<path stroke="white" stroke-dasharray="1,2" d="M50 557l924 0"/>
<text stroke="none" fill="white" font-size="16" x="8" y="565">
-1.0
</text>
<path stroke="white" stroke-dasharray="1,2" d="M50 508l924 0"/>
<text stroke="none" fill="white" font-size="16" x="8" y="516">
-0.5
</text>
<path stroke="white" d="M50 459l924 0"/>
<text stroke="none" fill="white" font-size="16" x="18" y="467">
0.0
</text>
<path stroke="white" stroke-dasharray="1,2" d="M50 410l924 0"/>
<text stroke="none" fill="white" font-size="16" x="18" y="418">
0.5
</text>
<path stroke="white" stroke-dasharray="1,2" d="M50 361l924 0"/>
<text stroke="none" fill="white" font-size="16" x="18" y="369">
1.0
</text>
<path stroke="white" stroke-dasharray="1,2" d="M50 312l924 0"/>
<text stroke="none" fill="white" font-size="16" x="18" y="320">
1.5
</text>
<path stroke="white" stroke-dasharray="1,2" d="M50 263l924 0"/>
<text stroke="none" fill="white" font-size="16" x="18" y="271">
2.0
</text>
<path stroke="white" stroke-dasharray="1,2" d="M50 214l924 0"/>
<text stroke="none" fill="white" font-size="16" x="18" y="222">
2.5
</text>
<path stroke="white" stroke-dasharray="1,2" d="M50 165l924 0"/>
<text stroke="none" fill="white" font-size="16" x="18" y="173">
3.0
</text>
<path stroke="white" stroke-dasharray="1,2" d="M50 116l924 0"/>
<text stroke="none" fill="white" font-size="16" x="18" y="124">
3.5
</text>
<path stroke="white" stroke-dasharray="1,2" d="M50 67l924 0"/>
<text stroke="none" fill="white" font-size="16" x="18" y="75">
4.0
</text>
<text stroke="none" fill="white" font-size="16" x="10" y="32">
     
</text>
<path stroke="red" d="M462 23l46 0"/>
<text stroke="none" fill="white" font-size="16" x="518" y="32">
x1.vsampled_p
</text>
<path stroke="red" d="M50 459l1 0 1 -7 0 -17 1 -15 0 -5 1 2M54 442l0 -42 1 -6 0 -15 1 -3 0 -2 1 -2 1 0 0 -1 59 0M117 373l0 -2M117 373l1 5M118 384l0 -6M118 384l1 2 1 1 2 0M122 388l0 -1M122 388l424 0 0 -25 1 -3 0 -22 1 -7 0 -7 2 -2 4 0 0 -1M554 322l13 0"/>
<path stroke="red" d="M567 323l0 -1 7 0M574 353l0 -31M574 353l1 5M575 368l0 -10M575 368l1 0 0 -1 1 -1 3 0 0 -1M580 366l26 0 0 -1 1 0M607 366l0 -1M607 366l26 0 0 -1M633 366l26 0 0 -1M659 366l20 0M679 370l0 -4M679 370l1 1M680 374l0 -3M680 372l1 -1"/>
<path stroke="red" d="M681 371l18 0M699 372l0 -1 26 0M725 372l0 -1 7 0 0 -3 1 0M733 369l0 -1M733 369l26 0M759 372l0 -3M759 370l19 0M778 371l0 -1 7 0M785 371l0 -1M785 371l1 0M786 372l0 -1 131 0 1 -2M918 390l0 -21M918 390l1 1 0 -2 1 -1 42 0 0 -1"/>
<path stroke="red" d="M962 387l1 0M963 388l0 -1M963 388l11 0"/>
<path stroke="blue" d="M50 23l46 0"/>
<text stroke="none" fill="white" font-size="16" x="106" y="32">
x1.vsampled_n
</text>
<path stroke="blue" d="M50 459l1 0 1 -7 0 -17 1 -15 0 -5 1 1M54 442l0 -42 1 -6 0 -15 1 -3 0 -2 1 -2 1 0 0 -1 59 0 0 -1 1 -5 0 -7 1 -2 1 -1 0 -1 420 0M540 355l0 -1 27 0M567 355l0 -1 26 0M593 355l0 -1 7 0M600 372l0 -18M600 372l1 4M601 379l0 -3"/>
<path stroke="blue" d="M601 378l2 -2 16 0M619 377l0 -1M619 377l1 0 0 -1 5 0 0 -7 1 -2 0 -9 1 -1 19 0M646 358l0 -1 7 0M653 367l0 -10M653 367l1 2 1 -1 51 0M706 372l0 -4M706 371l107 0M813 372l0 -1 25 0 0 -1M838 371l79 0M917 372l0 -1 1 -3 0 -9 1 -1"/>
<path stroke="blue" d="M919 358l0 -4 17 0M936 355l0 -1 38 0"/>
<path stroke="#FFA500" d="M462 39l46 0"/>
<text stroke="none" fill="white" font-size="16" x="518" y="48">
x1.vsampled_p-x1.vsampled_n
</text>
<path stroke="#FFA500" d="M50 459l67 0M117 462l0 -3M117 462l1 10M118 485l0 -13M118 485l1 4 1 2M120 492l0 -1M120 492l4 0 1 1 414 0 0 -1 1 0M540 493l0 -1 6 0M546 493l0 -26 1 -3 0 -22 1 -7 0 -6 2 -2 1 0 1 -1 14 0 1 1M567 428l0 -2 7 0M574 458l0 -32"/>
<path stroke="#FFA500" d="M574 458l1 5M575 473l0 -10M575 473l3 -3 2 0M580 471l0 -1 13 0M593 471l0 -1 7 0M600 471l0 -19 1 -4 0 -3M601 447l1 0M602 448l0 -1M602 448l17 0M619 449l0 -1 1 0M620 449l0 -1 5 0M625 456l0 -8M625 456l1 2M626 467l0 -9M626 467l1 1"/>
<path stroke="#FFA500" d="M627 468l26 0 0 -10 1 -2 0 -1M654 456l1 0M655 457l0 -1M655 457l24 0M679 461l0 -4M679 461l1 1M680 465l0 -3M680 463l1 -1 25 0 0 -4M706 459l19 0M725 460l0 -1 7 0 0 -3 1 0M733 457l0 -1M733 457l26 0M759 460l0 -3M759 458l26 0"/>
<path stroke="#FFA500" d="M785 459l0 -1M785 459l1 1 0 -1 27 0 0 -1M813 459l104 0 0 -1M917 459l1 1M918 490l0 -30M918 490l1 2M919 494l0 -2M919 493l2 0 0 -1 2 0M923 493l0 -1M923 493l1 0 0 -1 26 0M950 493l0 -1 12 0 1 1 11 0"/>
<path stroke="green" d="M50 39l46 0"/>
<text stroke="none" fill="white" font-size="16" x="106" y="48">
x1.sw_sample-2
</text>
<path stroke="green" d="M50 655l1 0 1 -10 0 -23 1 -21M53 621l0 -27M53 621l1 31M54 655l0 -3M54 655l63 0M117 662l0 -184 1 0M118 479l0 -1M118 479l421 0M539 656l0 -184M539 655l422 0M961 660l0 -182 1 0M962 479l0 -1 1 1 11 0"/>
<path stroke="#FFC0C5" d="M462 55l46 0"/>
<text stroke="none" fill="white" font-size="16" x="518" y="64">
x1.comp_out_p+2
</text>
<path stroke="#FFC0C5" d="M50 263l1 0 1 -10 0 -23 1 -20 0 -4M53 209l1 4M54 263l0 -50M54 263l514 0M568 265l0 -180M568 87l13 0 0 -8 1 174M582 264l0 -11M582 263l39 0M621 264l0 -179M621 87l13 0M634 264l0 -181M634 263l39 0 1 1 0 -179M674 87l13 0M687 263l0 -185"/>
<path stroke="#FFC0C5" d="M687 263l66 0 0 -178M753 87l13 0M766 263l0 -185M766 263l14 0 0 -177M780 87l13 0M793 263l0 -179M793 263l41 0 0 -177M834 87l11 0 0 -3M845 87l1 161M846 263l0 -15M846 263l128 0"/>
<path stroke="#A52A2A" d="M50 55l46 0"/>
<text stroke="none" fill="white" font-size="16" x="106" y="64">
x1.comp_out_n-2
</text>
<path stroke="#A52A2A" d="M50 655l1 0 1 -10 0 -24 1 -20M53 602l0 -3M53 602l1 7M54 655l0 -46M54 655l487 0 1 1 0 -180M542 479l13 0M555 656l0 -179M555 655l13 0M568 656l0 -1 26 0M594 658l0 -182M594 478l1 1 13 0M608 656l0 -185M608 655l13 0M621 656l0 -1"/>
<path stroke="#A52A2A" d="M621 655l26 0M647 656l0 -180M647 479l14 0M661 655l0 -186M661 655l39 0M700 657l0 -181M700 479l13 0 0 -11 1 160M714 655l0 -27M714 655l14 0 0 -177M728 479l12 0M740 656l0 -186M740 655l67 0 0 -168 1 -10M808 479l0 -2M808 479l11 0"/>
<path stroke="#A52A2A" d="M819 655l0 -182M819 655l41 0 0 -177M860 479l12 0M872 655l0 -187M872 655l14 0 0 -170 1 -7M887 479l0 -1M887 479l11 0M898 655l0 -187M898 655l14 0 1 -170 0 -7M913 479l12 0M925 655l0 -186M925 655l12 0M937 656l0 -1M937 656l1 -91"/>
<path stroke="#A52A2A" d="M938 565l0 -89M938 479l13 0M951 656l0 -179M951 655l23 0"/>
</svg>
