<?xml version="1.0" standalone="yes"?>
<!DOCTYPE svg PUBLIC "-//W3C//DTD SVG 1.1//EN"
 "http://www.w3.org/Graphics/SVG/1.1/DTD/svg11.dtd">
<svg xmlns="http://www.w3.org/2000/svg" version="1.1"
  width="100%" height="100%" viewBox="0 0 1024 768"
  style="fill: none; font-family: Helvetica;
 font: Helvetica;
">

<!-- Creator: NGspice -->

<rect x="0" y="0" width="1024" height="768" fill="black" stroke="none"/>
<text stroke="none" fill="white" font-size="16" x="358" y="752">
time
</text>
<text stroke="none" fill="white" font-size="16" x="10" y="16">
tran1: run1111_vin0.0769029
</text>
<path stroke="white" d="M50 704l0 -637"/>
<text stroke="none" fill="white" font-size="16" x="35" y="728">
0.0
</text>
<path stroke="white" stroke-dasharray="1,2" d="M182 704l0 -637"/>
<text stroke="none" fill="white" font-size="16" x="157" y="728">
100.0
</text>
<path stroke="white" stroke-dasharray="1,2" d="M314 704l0 -637"/>
<text stroke="none" fill="white" font-size="16" x="289" y="728">
200.0
</text>
<path stroke="white" stroke-dasharray="1,2" d="M446 704l0 -637"/>
<text stroke="none" fill="white" font-size="16" x="421" y="728">
300.0
</text>
<path stroke="white" stroke-dasharray="1,2" d="M578 704l0 -637"/>
<text stroke="none" fill="white" font-size="16" x="553" y="728">
400.0
</text>
<path stroke="white" stroke-dasharray="1,2" d="M710 704l0 -637"/>
<text stroke="none" fill="white" font-size="16" x="685" y="728">
500.0
</text>
<path stroke="white" stroke-dasharray="1,2" d="M842 704l0 -637"/>
<text stroke="none" fill="white" font-size="16" x="817" y="728">
600.0
</text>
<path stroke="white" stroke-dasharray="1,2" d="M974 704l0 -637"/>
<text stroke="none" fill="white" font-size="16" x="949" y="728">
700.0
</text>
<text stroke="none" fill="white" font-size="16" x="614" y="752">
ns
</text>
<path stroke="white" stroke-dasharray="1,2" d="M50 704l924 0"/>
<text stroke="none" fill="white" font-size="16" x="8" y="712">
-2.5
</text>
<path stroke="white" stroke-dasharray="1,2" d="M50 655l924 0"/>
<text stroke="none" fill="white" font-size="16" x="8" y="663">
-2.0
</text>
<path stroke="white" stroke-dasharray="1,2" d="M50 606l924 0"/>
<text stroke="none" fill="white" font-size="16" x="8" y="614">
-1.5
</text>
<path stroke="white" stroke-dasharray="1,2" d="M50 557l924 0"/>
<text stroke="none" fill="white" font-size="16" x="8" y="565">
-1.0
</text>
<path stroke="white" stroke-dasharray="1,2" d="M50 508l924 0"/>
<text stroke="none" fill="white" font-size="16" x="8" y="516">
-0.5
</text>
<path stroke="white" d="M50 459l924 0"/>
<text stroke="none" fill="white" font-size="16" x="18" y="467">
0.0
</text>
<path stroke="white" stroke-dasharray="1,2" d="M50 410l924 0"/>
<text stroke="none" fill="white" font-size="16" x="18" y="418">
0.5
</text>
<path stroke="white" stroke-dasharray="1,2" d="M50 361l924 0"/>
<text stroke="none" fill="white" font-size="16" x="18" y="369">
1.0
</text>
<path stroke="white" stroke-dasharray="1,2" d="M50 312l924 0"/>
<text stroke="none" fill="white" font-size="16" x="18" y="320">
1.5
</text>
<path stroke="white" stroke-dasharray="1,2" d="M50 263l924 0"/>
<text stroke="none" fill="white" font-size="16" x="18" y="271">
2.0
</text>
<path stroke="white" stroke-dasharray="1,2" d="M50 214l924 0"/>
<text stroke="none" fill="white" font-size="16" x="18" y="222">
2.5
</text>
<path stroke="white" stroke-dasharray="1,2" d="M50 165l924 0"/>
<text stroke="none" fill="white" font-size="16" x="18" y="173">
3.0
</text>
<path stroke="white" stroke-dasharray="1,2" d="M50 116l924 0"/>
<text stroke="none" fill="white" font-size="16" x="18" y="124">
3.5
</text>
<path stroke="white" stroke-dasharray="1,2" d="M50 67l924 0"/>
<text stroke="none" fill="white" font-size="16" x="18" y="75">
4.0
</text>
<text stroke="none" fill="white" font-size="16" x="10" y="32">
     
</text>
<path stroke="red" d="M462 23l46 0"/>
<text stroke="none" fill="white" font-size="16" x="518" y="32">
x1.vsampled_p
</text>
<path stroke="red" d="M50 459l1 0 1 -7 0 -17 1 -15 0 -5 1 1M54 442l0 -42 1 -6 0 -16 1 -2 0 -3 1 -1 1 0 0 -1 59 0 1 -3 0 -2 1 -1 0 -1 1 0 1 -1 418 0 1 1 0 -1M540 364l1 -1M541 364l0 -1M541 364l5 0 0 -1M546 364l8 0 0 -1 12 0 1 1 0 -1M567 364l13 0"/>
<path stroke="red" d="M580 364l0 -1 13 0M593 364l0 -1M593 364l13 0 0 -1 13 0M619 364l0 -1M619 364l1 0 0 -1M620 364l13 0 0 -1 13 0M646 364l0 -1M646 364l13 0 0 -1 13 0M672 364l0 -1M672 364l7 0M679 370l0 -7M679 370l1 1 0 -2 26 0M706 373l0 -4M706 373l1 -1"/>
<path stroke="red" d="M707 372l24 0 1 -1 0 -3M732 369l19 0M751 370l0 -1M751 370l1 -1 7 0M759 372l0 -3M759 371l54 0M813 372l0 -1 25 0 0 -1M838 371l79 0M917 372l0 -1M917 372l1 0 0 -10 1 1 1 0M920 364l0 -1M920 364l3 0 0 -1 13 0M936 364l0 -1M936 364l14 0"/>
<path stroke="red" d="M950 364l0 -1 24 0"/>
<path stroke="blue" d="M50 23l46 0"/>
<text stroke="none" fill="white" font-size="16" x="106" y="32">
x1.vsampled_n
</text>
<path stroke="blue" d="M50 459l1 0 1 -7 0 -17 1 -15 0 -5 1 1M54 442l0 -42 1 -6 0 -16 1 -2 0 -3 1 -1 1 0 0 -1 59 0M117 372l0 -1M117 372l1 2M118 376l0 -2M118 376l1 1M119 378l0 -1M119 378l420 0M539 379l0 -1M539 379l1 0 0 -1 1 0M541 379l0 -1M541 379l5 0"/>
<path stroke="blue" d="M546 379l0 -26 1 -1 0 -23 1 -7 0 -5 1 -2 0 -1 1 -1 4 0 0 -1 12 0 1 1M567 314l0 -1 7 0M574 341l0 -29M574 341l1 8M575 358l0 -9M575 358l1 1 0 -1 1 -1 3 0 0 -1 13 0M593 357l0 -1M593 357l7 0M600 374l0 -17M600 374l1 3M601 382l0 -5"/>
<path stroke="blue" d="M601 381l1 -1 0 -1 4 0 0 -1 13 0M619 379l0 -1M619 379l1 0 0 -1M620 379l5 0 0 -11 1 -1 0 -8 20 0M646 360l0 -1 7 0M653 369l0 -10M653 369l1 2M654 372l0 -1 1 0 0 -1 17 0M672 371l0 -1 27 0M699 371l0 -1 26 0M725 371l0 -1 26 0"/>
<path stroke="blue" d="M751 371l0 -1M751 371l1 -1 26 0M778 371l0 -1 8 0M786 372l0 -2M786 371l132 0M918 382l0 -12M918 380l1 -1 4 0 0 -1 13 0M936 379l0 -1 1 0M937 379l0 -1M937 379l13 0 0 -1 24 0"/>
<path stroke="#FFA500" d="M462 39l46 0"/>
<text stroke="none" fill="white" font-size="16" x="518" y="48">
x1.vsampled_p-x1.vsampled_n
</text>
<path stroke="#FFA500" d="M50 459l67 0 0 -1 1 -5 0 -4 1 -3 0 -1 1 -1 426 0M546 469l0 -25M546 469l1 1M547 494l0 -24M547 494l1 7M548 506l0 -5M548 506l1 2M549 509l0 -1M549 509l1 0M550 510l0 -1M550 510l17 0 0 -1M567 510l7 0 0 -29 1 -7 0 -9 1 -1M576 465l0 -1"/>
<path stroke="#FFA500" d="M576 465l1 0M577 466l0 -1M577 466l23 0 0 -18 1 -2 0 -6M601 441l1 1M602 444l0 -2M602 444l23 0M625 455l0 -11M625 455l1 1M626 463l0 -7M626 463l1 0M627 464l0 -1M627 464l1 -1 25 0 0 -10 1 -2 1 1 24 0M679 458l0 -6M679 458l1 1"/>
<path stroke="#FFA500" d="M680 460l0 -2 26 0M706 461l0 -3M706 461l1 0 1 -1 17 0M725 461l0 -1 7 0 0 -3M732 458l27 0M759 461l0 -3M759 460l1 0 0 -1 26 0 0 -1M786 459l27 0M813 460l0 -1 25 0 0 -1M838 459l79 0M917 460l0 -1M917 460l1 0 0 -20M918 441l1 1"/>
<path stroke="#FFA500" d="M919 444l0 -2M919 444l55 0"/>
<path stroke="green" d="M50 39l46 0"/>
<text stroke="none" fill="white" font-size="16" x="106" y="48">
x1.sw_sample-2
</text>
<path stroke="green" d="M50 655l1 0 1 -10 0 -23 1 -21M53 621l0 -27M53 621l1 31M54 655l0 -3M54 655l63 0M117 662l0 -184 1 1 421 0M539 656l0 -184M539 655l422 0M961 660l0 -182 1 0M962 479l0 -1 1 1 11 0"/>
<path stroke="#FFC0C5" d="M462 55l46 0"/>
<text stroke="none" fill="white" font-size="16" x="518" y="64">
x1.comp_out_p+2
</text>
<path stroke="#FFC0C5" d="M50 263l1 0 1 -10 0 -23 1 -20 0 -4M53 209l1 4M54 263l0 -50M54 263l488 0 0 -178M542 87l13 0M555 264l0 -180M555 263l66 0M621 266l0 -181M621 87l13 0M634 263l0 -185M634 263l39 0 0 -3 1 -135 0 -40M674 87l13 0M687 263l0 -185"/>
<path stroke="#FFC0C5" d="M687 263l13 0 0 -177 1 0M701 87l0 -1M701 87l12 0 1 -10M714 264l0 -187M714 263l39 0 0 -178M753 87l13 0M766 263l0 -179M766 263l41 0 0 -177 1 0M808 87l0 -1M808 87l11 0M819 264l0 -184M819 263l41 0 0 -177M860 87l12 0M872 263l0 -181"/>
<path stroke="#FFC0C5" d="M872 263l14 0 0 -168 1 -9M887 87l0 -1M887 87l11 0M898 263l0 -181M898 263l14 0 1 -168 0 -9M913 87l12 0M925 264l0 -185M925 263l12 0M937 264l0 -1M937 264l1 -63 0 -116M938 87l13 0M951 264l0 -186M951 263l23 0"/>
<path stroke="#A52A2A" d="M50 55l46 0"/>
<text stroke="none" fill="white" font-size="16" x="106" y="64">
x1.comp_out_n-2
</text>
<path stroke="#A52A2A" d="M50 655l1 0 1 -10 0 -24 1 -20M53 602l0 -3M53 602l1 7M54 655l0 -46M54 655l514 0M568 661l0 -185M568 479l13 0 0 -10 1 174M582 655l0 -12M582 655l12 0M594 661l0 -185M594 478l1 0M595 479l0 -1M595 479l13 0M608 656l0 -182M608 655l39 0"/>
<path stroke="#A52A2A" d="M647 657l0 -181M647 479l14 0M661 656l0 -187M661 655l66 0 0 -177 1 0M728 479l0 -1M728 479l12 0M740 655l0 -185M740 655l40 0 0 -177 1 0M781 479l0 -1M781 479l12 0M793 655l0 -187M793 655l41 0 0 -177M834 479l11 0 0 -12 1 165"/>
<path stroke="#A52A2A" d="M846 655l0 -23M846 655l128 0"/>
</svg>
