<?xml version="1.0" standalone="yes"?>
<!DOCTYPE svg PUBLIC "-//W3C//DTD SVG 1.1//EN"
 "http://www.w3.org/Graphics/SVG/1.1/DTD/svg11.dtd">
<svg xmlns="http://www.w3.org/2000/svg" version="1.1"
  width="100%" height="100%" viewBox="0 0 1024 768"
  style="fill: none; font-family: Helvetica;
 font: Helvetica;
">

<!-- Creator: NGspice -->

<rect x="0" y="0" width="1024" height="768" fill="black" stroke="none"/>
<text stroke="none" fill="white" font-size="16" x="358" y="752">
time
</text>
<text stroke="none" fill="white" font-size="16" x="10" y="16">
tran1: run87_vin0.887013
</text>
<path stroke="white" d="M50 704l0 -637"/>
<text stroke="none" fill="white" font-size="16" x="35" y="728">
0.0
</text>
<path stroke="white" stroke-dasharray="1,2" d="M182 704l0 -637"/>
<text stroke="none" fill="white" font-size="16" x="157" y="728">
100.0
</text>
<path stroke="white" stroke-dasharray="1,2" d="M314 704l0 -637"/>
<text stroke="none" fill="white" font-size="16" x="289" y="728">
200.0
</text>
<path stroke="white" stroke-dasharray="1,2" d="M446 704l0 -637"/>
<text stroke="none" fill="white" font-size="16" x="421" y="728">
300.0
</text>
<path stroke="white" stroke-dasharray="1,2" d="M578 704l0 -637"/>
<text stroke="none" fill="white" font-size="16" x="553" y="728">
400.0
</text>
<path stroke="white" stroke-dasharray="1,2" d="M710 704l0 -637"/>
<text stroke="none" fill="white" font-size="16" x="685" y="728">
500.0
</text>
<path stroke="white" stroke-dasharray="1,2" d="M842 704l0 -637"/>
<text stroke="none" fill="white" font-size="16" x="817" y="728">
600.0
</text>
<path stroke="white" stroke-dasharray="1,2" d="M974 704l0 -637"/>
<text stroke="none" fill="white" font-size="16" x="949" y="728">
700.0
</text>
<text stroke="none" fill="white" font-size="16" x="614" y="752">
ns
</text>
<path stroke="white" stroke-dasharray="1,2" d="M50 704l924 0"/>
<text stroke="none" fill="white" font-size="16" x="8" y="712">
-2.5
</text>
<path stroke="white" stroke-dasharray="1,2" d="M50 655l924 0"/>
<text stroke="none" fill="white" font-size="16" x="8" y="663">
-2.0
</text>
<path stroke="white" stroke-dasharray="1,2" d="M50 606l924 0"/>
<text stroke="none" fill="white" font-size="16" x="8" y="614">
-1.5
</text>
<path stroke="white" stroke-dasharray="1,2" d="M50 557l924 0"/>
<text stroke="none" fill="white" font-size="16" x="8" y="565">
-1.0
</text>
<path stroke="white" stroke-dasharray="1,2" d="M50 508l924 0"/>
<text stroke="none" fill="white" font-size="16" x="8" y="516">
-0.5
</text>
<path stroke="white" d="M50 459l924 0"/>
<text stroke="none" fill="white" font-size="16" x="18" y="467">
0.0
</text>
<path stroke="white" stroke-dasharray="1,2" d="M50 410l924 0"/>
<text stroke="none" fill="white" font-size="16" x="18" y="418">
0.5
</text>
<path stroke="white" stroke-dasharray="1,2" d="M50 361l924 0"/>
<text stroke="none" fill="white" font-size="16" x="18" y="369">
1.0
</text>
<path stroke="white" stroke-dasharray="1,2" d="M50 312l924 0"/>
<text stroke="none" fill="white" font-size="16" x="18" y="320">
1.5
</text>
<path stroke="white" stroke-dasharray="1,2" d="M50 263l924 0"/>
<text stroke="none" fill="white" font-size="16" x="18" y="271">
2.0
</text>
<path stroke="white" stroke-dasharray="1,2" d="M50 214l924 0"/>
<text stroke="none" fill="white" font-size="16" x="18" y="222">
2.5
</text>
<path stroke="white" stroke-dasharray="1,2" d="M50 165l924 0"/>
<text stroke="none" fill="white" font-size="16" x="18" y="173">
3.0
</text>
<path stroke="white" stroke-dasharray="1,2" d="M50 116l924 0"/>
<text stroke="none" fill="white" font-size="16" x="18" y="124">
3.5
</text>
<path stroke="white" stroke-dasharray="1,2" d="M50 67l924 0"/>
<text stroke="none" fill="white" font-size="16" x="18" y="75">
4.0
</text>
<text stroke="none" fill="white" font-size="16" x="10" y="32">
     
</text>
<path stroke="red" d="M462 23l46 0"/>
<text stroke="none" fill="white" font-size="16" x="518" y="32">
x1.vsampled_p
</text>
<path stroke="red" d="M50 459l1 0 1 -7 0 -17 1 -16 0 -5 1 2M54 441l0 -42 1 -4 0 -15 1 -3 0 -3 1 -1 0 -1 1 -1 59 0 0 -2 1 -13 0 -40 1 -8 0 -16 1 -3 0 -2 1 -2 1 0 0 -1 418 0M540 285l0 -1 27 0M567 286l0 -2 7 0M574 310l0 -26M574 310l1 8M575 327l0 -9"/>
<path stroke="red" d="M575 327l1 1 17 0M593 329l0 -1 7 0M600 341l0 -13M600 341l1 3M601 351l0 -7M601 351l1 0 0 -1 17 0M619 351l0 -1 27 0M646 351l0 -1 7 0M653 358l0 -8M653 358l1 2M654 362l0 -2M654 361l18 0M672 362l0 -1 7 0M679 367l0 -6M679 367l1 1"/>
<path stroke="red" d="M680 368l0 -1 26 0M706 370l0 -3M706 370l1 0 0 -1 18 0M725 370l0 -1 26 0M751 370l0 -1M751 370l1 0 0 -1 7 0M759 372l0 -3M759 371l161 0 0 -59 1 -3 0 -18 1 0 0 -4 1 -1 0 -2M923 285l1 0 0 -1 12 0M936 286l0 -2 38 0"/>
<path stroke="blue" d="M50 23l46 0"/>
<text stroke="none" fill="white" font-size="16" x="106" y="32">
x1.vsampled_n
</text>
<path stroke="blue" d="M50 459l1 0 1 -7 0 -17 1 -15 0 -5 1 2M54 441l0 -42 1 -4 0 -15 1 -3 0 -3 1 -1 0 -1 1 -1 59 0M117 399l0 -28M117 399l1 19M118 442l0 -24M118 442l1 4M119 454l0 -8M119 454l1 1M120 456l0 -1M120 456l1 1 1 0 1 1 423 0 0 -22 1 -2"/>
<path stroke="blue" d="M547 434l0 -30 1 -6 1 -4 0 -1 1 -1 75 0 0 -13 1 -2 0 -6 1 0M627 372l0 -1M627 372l2 0M629 373l0 -1M629 373l4 0 0 -1 1 0M634 373l0 -1M634 373l4 0 1 -1 7 0M646 373l0 -1M646 373l13 0 0 -1 1 0M660 373l0 -1M660 373l12 0 0 -1"/>
<path stroke="blue" d="M672 372l1 0M673 373l0 -1M673 373l13 0 0 -1M686 373l12 0 0 -1M698 373l1 0 0 -1M699 373l13 0 0 -1M712 373l13 0 0 -1M725 373l6 0 0 -5 1 0M732 370l0 -2M732 370l19 0M751 371l0 -1 27 0M778 371l0 -1 7 0 1 1M786 372l0 -1 29 0"/>
<path stroke="blue" d="M815 372l0 -1 16 0M831 372l0 -1 7 0 0 -1M838 371l82 0M920 484l0 -113M920 481l1 -2 0 -14 1 -1 0 -4 1 0 0 -2 51 0"/>
<path stroke="#FFA500" d="M462 39l46 0"/>
<text stroke="none" fill="white" font-size="16" x="518" y="48">
x1.vsampled_p-x1.vsampled_n
</text>
<path stroke="#FFA500" d="M50 459l2 0 0 -1 2 0M54 459l0 -1M54 459l63 0 0 -30 1 -32 0 -64 1 -12 0 -24 1 -4 0 -3 2 -4 1 -1 416 0M539 286l0 -1 1 0M540 286l0 -1 1 1 0 -1 5 0M546 307l0 -22M546 307l1 2M547 339l0 -30M547 339l1 7 1 3M549 351l0 -2M549 351l18 0"/>
<path stroke="#FFA500" d="M567 353l0 -2 7 0M574 377l0 -26M574 377l1 8M575 394l0 -9M575 394l1 2 1 0 1 -1 15 0M593 396l0 -1 7 0M600 409l0 -14M600 409l1 2M601 419l0 -8M601 419l1 -1 0 -1 17 0M619 418l0 -1 6 0M625 430l0 -13M625 430l1 2M626 438l0 -6"/>
<path stroke="#FFA500" d="M626 438l1 0 0 -1 19 0 0 -1M646 437l7 0M653 444l0 -7M653 444l1 3M654 448l0 -1M654 448l18 0 0 -1M672 448l7 0M679 453l0 -5M679 453l1 1 0 -1 26 0M706 456l0 -3M706 456l25 0M731 460l0 -4M731 460l1 0 0 -2 27 0M759 460l0 -2"/>
<path stroke="#FFA500" d="M759 460l19 0 0 -1M778 460l7 0 1 -1 0 -1M786 459l29 0 0 -1M815 459l16 0 0 -1M831 459l7 0M838 460l0 -1 82 0 0 -169 1 -1 0 -3 2 0 0 -1 13 0M936 287l0 -2 38 0"/>
<path stroke="green" d="M50 39l46 0"/>
<text stroke="none" fill="white" font-size="16" x="106" y="48">
x1.sw_sample-2
</text>
<path stroke="green" d="M50 655l1 0 1 -10 0 -23 1 -21M53 618l0 -24M53 618l1 34M54 655l0 -3M54 655l63 0M117 662l0 -184 1 0M118 479l0 -1M118 479l421 0M539 656l0 -184M539 655l422 0M961 660l0 -182 1 0M962 479l0 -1M962 479l12 0"/>
<path stroke="#FFC0C5" d="M462 55l46 0"/>
<text stroke="none" fill="white" font-size="16" x="518" y="64">
x1.comp_out_p+2
</text>
<path stroke="#FFC0C5" d="M50 263l1 0 1 -10 0 -23 1 -20 0 -4M53 208l1 5M54 263l0 -50M54 263l487 0 1 1 0 -179M542 87l13 0M555 264l0 -186M555 263l13 0 0 -178M568 87l13 0 0 -9 1 175M582 264l0 -11M582 263l12 0M594 264l0 -179M594 86l1 1 13 0M608 264l0 -184"/>
<path stroke="#FFC0C5" d="M608 263l13 0M621 264l0 -179M621 87l13 0M634 263l0 -185M634 263l13 0 0 -178M647 87l14 0M661 264l0 -187M661 263l12 0M673 264l0 -1M673 264l1 -75 0 -104M674 87l13 0M687 264l0 -183M687 263l13 0 0 -178M700 87l13 0 0 -8 1 138"/>
<path stroke="#FFC0C5" d="M714 264l0 -47M714 263l13 0 0 -178M727 87l13 0M740 263l0 -185M740 263l13 0 0 -178M753 86l1 1 12 0M766 263l0 -185M766 263l67 0 1 -165 0 -12M834 87l11 0 0 -5 1 165M846 263l0 -16M846 263l43 0 0 -177 1 1 8 0M898 263l0 -180"/>
<path stroke="#FFC0C5" d="M898 263l39 0M937 264l0 -1M937 264l1 -93 0 -86M938 87l13 0M951 264l0 -187M951 263l23 0"/>
<path stroke="#A52A2A" d="M50 55l46 0"/>
<text stroke="none" fill="white" font-size="16" x="106" y="64">
x1.comp_out_n-2
</text>
<path stroke="#A52A2A" d="M50 655l1 0 1 -10 0 -24 1 -20M53 602l0 -4M53 602l1 7M54 656l0 -47M54 653l1 2 566 0M621 656l0 -1 53 0M674 656l0 -1 106 0 0 -177M780 479l13 0M793 655l0 -188M793 655l16 0 0 -163 1 -14M810 479l0 -1M810 479l9 0M819 655l0 -181"/>
<path stroke="#A52A2A" d="M819 655l43 0 0 -177M862 479l10 0M872 655l0 -188M872 655l43 0 0 -177M915 479l10 0M925 656l0 -179M925 655l49 0"/>
</svg>
