<?xml version="1.0" standalone="yes"?>
<!DOCTYPE svg PUBLIC "-//W3C//DTD SVG 1.1//EN"
 "http://www.w3.org/Graphics/SVG/1.1/DTD/svg11.dtd">
<svg xmlns="http://www.w3.org/2000/svg" version="1.1"
  width="100%" height="100%" viewBox="0 0 1024 768"
  style="fill: none; font-family: Helvetica;
 font: Helvetica;
">

<!-- Creator: NGspice -->

<rect x="0" y="0" width="1024" height="768" fill="black" stroke="none"/>
<text stroke="none" fill="white" font-size="16" x="358" y="752">
time
</text>
<text stroke="none" fill="white" font-size="16" x="10" y="16">
tran1: run86_vin-0.534887
</text>
<path stroke="white" d="M50 704l0 -637"/>
<text stroke="none" fill="white" font-size="16" x="35" y="728">
0.0
</text>
<path stroke="white" stroke-dasharray="1,2" d="M182 704l0 -637"/>
<text stroke="none" fill="white" font-size="16" x="157" y="728">
100.0
</text>
<path stroke="white" stroke-dasharray="1,2" d="M314 704l0 -637"/>
<text stroke="none" fill="white" font-size="16" x="289" y="728">
200.0
</text>
<path stroke="white" stroke-dasharray="1,2" d="M446 704l0 -637"/>
<text stroke="none" fill="white" font-size="16" x="421" y="728">
300.0
</text>
<path stroke="white" stroke-dasharray="1,2" d="M578 704l0 -637"/>
<text stroke="none" fill="white" font-size="16" x="553" y="728">
400.0
</text>
<path stroke="white" stroke-dasharray="1,2" d="M710 704l0 -637"/>
<text stroke="none" fill="white" font-size="16" x="685" y="728">
500.0
</text>
<path stroke="white" stroke-dasharray="1,2" d="M842 704l0 -637"/>
<text stroke="none" fill="white" font-size="16" x="817" y="728">
600.0
</text>
<path stroke="white" stroke-dasharray="1,2" d="M974 704l0 -637"/>
<text stroke="none" fill="white" font-size="16" x="949" y="728">
700.0
</text>
<text stroke="none" fill="white" font-size="16" x="614" y="752">
ns
</text>
<path stroke="white" stroke-dasharray="1,2" d="M50 704l924 0"/>
<text stroke="none" fill="white" font-size="16" x="8" y="712">
-3.0
</text>
<path stroke="white" stroke-dasharray="1,2" d="M50 613l924 0"/>
<text stroke="none" fill="white" font-size="16" x="8" y="621">
-2.0
</text>
<path stroke="white" stroke-dasharray="1,2" d="M50 522l924 0"/>
<text stroke="none" fill="white" font-size="16" x="8" y="530">
-1.0
</text>
<path stroke="white" d="M50 431l924 0"/>
<text stroke="none" fill="white" font-size="16" x="18" y="439">
0.0
</text>
<path stroke="white" stroke-dasharray="1,2" d="M50 340l924 0"/>
<text stroke="none" fill="white" font-size="16" x="18" y="348">
1.0
</text>
<path stroke="white" stroke-dasharray="1,2" d="M50 249l924 0"/>
<text stroke="none" fill="white" font-size="16" x="18" y="257">
2.0
</text>
<path stroke="white" stroke-dasharray="1,2" d="M50 158l924 0"/>
<text stroke="none" fill="white" font-size="16" x="18" y="166">
3.0
</text>
<path stroke="white" stroke-dasharray="1,2" d="M50 67l924 0"/>
<text stroke="none" fill="white" font-size="16" x="18" y="75">
4.0
</text>
<text stroke="none" fill="white" font-size="16" x="10" y="32">
     
</text>
<path stroke="red" d="M462 23l46 0"/>
<text stroke="none" fill="white" font-size="16" x="518" y="32">
x1.vsampled_p
</text>
<path stroke="red" d="M50 431l1 0 1 -7 0 -15 1 -14 0 -5 1 2M54 415l0 -40 1 -4 0 -14 1 -2 0 -3 2 -2 1 0 1 -1 3 0 1 1 4 0 1 -1 48 0M117 360l0 -11M117 360l1 13M118 387l0 -14M118 387l1 3M119 394l0 -4M119 394l1 2M120 397l0 -1M120 397l1 0 1 1 424 0"/>
<path stroke="red" d="M546 398l0 -32 1 -7 0 -15 1 -2 0 -3 1 -1 0 -1 5 0 0 -1M554 337l12 0 0 -1M566 337l14 0 0 -1M580 337l20 0M600 359l0 -23M600 359l1 2M601 363l0 -2M601 362l1 -3 0 -2 23 0 0 -13 1 -1 0 -5 1 0M627 339l0 -1M627 339l19 0M646 340l0 -1"/>
<path stroke="red" d="M646 339l7 0M653 349l0 -10M653 349l1 2M654 352l0 -1 2 -2 16 0M672 350l0 -1 26 0 1 1 0 -1 26 0M725 350l0 -1 7 0 0 -1 1 -2M733 347l0 -1M733 347l18 0M751 348l0 -1M751 348l1 -1 7 0M759 350l0 -3M759 349l1 0 0 -1 18 0M778 349l0 -1"/>
<path stroke="red" d="M778 348l7 0M785 350l0 -2M785 350l1 0 0 -1 27 0M813 350l0 -1 17 0 1 1 0 -1 87 0M918 385l0 -36M918 385l1 1M919 399l0 -13M919 399l1 1 1 -1 0 -1 53 0"/>
<path stroke="blue" d="M50 23l46 0"/>
<text stroke="none" fill="white" font-size="16" x="106" y="32">
x1.vsampled_n
</text>
<path stroke="blue" d="M50 431l1 0 1 -7 0 -15 1 -15 0 -4 1 1M54 414l0 -39 1 -4 0 -14 1 -2 0 -3 2 -2 1 0 1 -1 3 0 1 1 4 0 1 -1 48 0 0 -1 1 -10 0 -21 1 -5 0 -6 1 -2 0 -2 1 -1 1 0 1 -1 416 0M539 301l0 -1M539 301l1 0M540 302l0 -1 14 0 0 -1M554 301l13 0"/>
<path stroke="blue" d="M567 302l0 -1 6 0 1 3M574 322l0 -18M574 322l1 7M575 341l0 -12M575 341l1 0M576 342l0 -1M576 342l4 0 0 -1 13 0M593 342l0 -1M593 342l13 0 0 -1 1 0M607 342l0 -1M607 342l12 0 0 -1M619 342l14 0 0 -1 1 0M634 342l0 -1 12 0M646 342l0 -1"/>
<path stroke="blue" d="M646 342l13 0 0 -1 1 0M660 342l0 -1M660 342l12 0 0 -1M672 342l7 0M679 346l0 -4M679 346l1 1M680 348l0 -1 6 0 0 -1M686 347l20 0M706 350l0 -3M706 350l1 -1 18 0M725 350l0 -1 26 0M751 350l0 -1 27 0M778 350l0 -1 26 0M804 350l0 -1"/>
<path stroke="blue" d="M804 349l27 0M831 350l0 -1 26 0M857 350l0 -1 26 0M883 350l0 -1 27 0M910 350l0 -1 8 0 0 -24 1 -2 0 -11 1 -3 0 -3 1 -2 0 -2 1 0 0 -1 1 0 0 -1M923 301l13 0M936 302l0 -1 14 0 0 -1M950 301l12 0 0 -1 12 0"/>
<path stroke="#FFA500" d="M462 39l46 0"/>
<text stroke="none" fill="white" font-size="16" x="518" y="48">
x1.vsampled_p-x1.vsampled_n
</text>
<path stroke="#FFA500" d="M50 431l2 0 1 1 1 0 0 -1 63 0M117 443l0 -12M117 443l1 23M118 501l0 -35M118 501l1 8M119 520l0 -11M119 520l1 3M120 526l0 -3M120 526l2 2 424 0 0 -32 1 -6 0 -16 1 -2 0 -3 1 0 0 -2 18 0M567 468l0 -2M567 467l6 0 1 -3 0 -18"/>
<path stroke="#FFA500" d="M574 446l1 -8 0 -11 1 -1 24 0M600 448l0 -22M600 448l1 3M601 453l0 -2 1 -2 0 -2 1 -1 3 0M606 447l0 -1M606 447l1 0 0 -1 12 0M619 447l0 -1M619 447l1 0 0 -1 5 0 0 -12 1 -2 0 -4 2 0 1 1 4 0 0 -1M633 429l20 0M653 438l0 -9"/>
<path stroke="#FFA500" d="M653 438l1 2M654 441l0 -1 1 0 0 -1 24 0 0 -5 1 -1M680 434l0 -2M680 434l26 0 0 -4M706 431l26 0 0 -1 1 -2M733 429l0 -2M733 429l26 0M759 432l0 -3M759 430l26 0M785 431l0 -1M785 431l1 1 0 -1 27 0M813 432l0 -1 25 0 0 -1 1 1"/>
<path stroke="#FFA500" d="M839 431l79 0M918 491l0 -60M918 491l1 3M919 519l0 -25M919 519l1 3M920 525l0 -3M920 525l1 1M921 527l0 -1M921 527l1 0M922 528l0 -1M922 528l1 0M923 529l0 -1 13 0 0 -1M936 528l14 0M950 529l0 -1 24 0"/>
<path stroke="green" d="M50 39l46 0"/>
<text stroke="none" fill="white" font-size="16" x="106" y="48">
x1.sw_sample-2
</text>
<path stroke="green" d="M50 613l1 0 1 -9 0 -21 1 -21M53 580l0 -24M53 580l1 30M54 613l0 -3M54 613l63 0M117 620l0 -172M117 449l422 0M539 614l0 -171M539 613l422 0M961 618l0 -170 1 1 12 0"/>
<path stroke="#FFC0C5" d="M462 55l46 0"/>
<text stroke="none" fill="white" font-size="16" x="518" y="64">
x1.comp_out_p+2
</text>
<path stroke="#FFC0C5" d="M50 249l1 0 1 -9 0 -22 1 -18 0 -4M53 198l1 5M54 250l0 -47M54 248l1 1 539 0M594 251l0 -168M594 84l1 1 13 0M608 250l0 -173M608 249l39 0M647 253l0 -170M647 85l14 0M661 249l0 -173M661 249l92 0 0 -165M753 85l13 0M766 250l0 -173"/>
<path stroke="#FFC0C5" d="M766 250l1 -1 13 0 0 -165M780 85l13 0M793 250l0 -174M793 249l14 0 0 -165 1 0M808 85l0 -1M808 85l11 0M819 250l0 -172M819 249l41 0 0 -164 12 0M872 250l0 -174M872 249l14 0 1 -151 0 -14M887 85l11 0M898 250l0 -174M898 249l15 0"/>
<path stroke="#FFC0C5" d="M913 249l0 -165M913 85l12 0M925 250l0 -168M925 249l49 0"/>
<path stroke="#A52A2A" d="M50 55l46 0"/>
<text stroke="none" fill="white" font-size="16" x="106" y="64">
x1.comp_out_n-2
</text>
<path stroke="#A52A2A" d="M50 613l1 0 1 -9 0 -22 1 -19M53 564l0 -3M53 564l1 6M54 613l0 -43M54 613l488 0 0 -165M542 449l13 0M555 614l0 -167M555 613l13 0M568 615l0 -168M568 449l13 0 0 -9 1 163M582 613l0 -10M582 613l39 0M621 615l0 -168M621 449l13 0"/>
<path stroke="#A52A2A" d="M634 613l0 -173M634 613l39 0 0 -49 1 -102 0 -14M674 449l13 0M687 613l0 -172M687 613l13 0M700 614l0 -167M700 449l13 0 0 -4 1 156M714 613l0 -12M714 613l14 0 0 -164 12 0M740 613l0 -173M740 613l94 0 0 -164 11 0 0 -10 1 154"/>
<path stroke="#A52A2A" d="M846 613l0 -20M846 613l91 0M937 619l0 -6M937 619l1 -145 0 -27M938 449l13 0M951 614l0 -168M951 613l23 0"/>
</svg>
