<?xml version="1.0" standalone="yes"?>
<!DOCTYPE svg PUBLIC "-//W3C//DTD SVG 1.1//EN"
 "http://www.w3.org/Graphics/SVG/1.1/DTD/svg11.dtd">
<svg xmlns="http://www.w3.org/2000/svg" version="1.1"
  width="100%" height="100%" viewBox="0 0 1024 768"
  style="fill: none; font-family: Helvetica;
 font: Helvetica;
">

<!-- Creator: NGspice -->

<rect x="0" y="0" width="1024" height="768" fill="black" stroke="none"/>
<text stroke="none" fill="white" font-size="16" x="358" y="752">
time
</text>
<text stroke="none" fill="white" font-size="16" x="10" y="16">
tran1: run1165_vin0.010985
</text>
<path stroke="white" d="M50 704l0 -637"/>
<text stroke="none" fill="white" font-size="16" x="35" y="728">
0.0
</text>
<path stroke="white" stroke-dasharray="1,2" d="M182 704l0 -637"/>
<text stroke="none" fill="white" font-size="16" x="157" y="728">
100.0
</text>
<path stroke="white" stroke-dasharray="1,2" d="M314 704l0 -637"/>
<text stroke="none" fill="white" font-size="16" x="289" y="728">
200.0
</text>
<path stroke="white" stroke-dasharray="1,2" d="M446 704l0 -637"/>
<text stroke="none" fill="white" font-size="16" x="421" y="728">
300.0
</text>
<path stroke="white" stroke-dasharray="1,2" d="M578 704l0 -637"/>
<text stroke="none" fill="white" font-size="16" x="553" y="728">
400.0
</text>
<path stroke="white" stroke-dasharray="1,2" d="M710 704l0 -637"/>
<text stroke="none" fill="white" font-size="16" x="685" y="728">
500.0
</text>
<path stroke="white" stroke-dasharray="1,2" d="M842 704l0 -637"/>
<text stroke="none" fill="white" font-size="16" x="817" y="728">
600.0
</text>
<path stroke="white" stroke-dasharray="1,2" d="M974 704l0 -637"/>
<text stroke="none" fill="white" font-size="16" x="949" y="728">
700.0
</text>
<text stroke="none" fill="white" font-size="16" x="614" y="752">
ns
</text>
<path stroke="white" stroke-dasharray="1,2" d="M50 704l924 0"/>
<text stroke="none" fill="white" font-size="16" x="8" y="712">
-3.0
</text>
<path stroke="white" stroke-dasharray="1,2" d="M50 613l924 0"/>
<text stroke="none" fill="white" font-size="16" x="8" y="621">
-2.0
</text>
<path stroke="white" stroke-dasharray="1,2" d="M50 522l924 0"/>
<text stroke="none" fill="white" font-size="16" x="8" y="530">
-1.0
</text>
<path stroke="white" d="M50 431l924 0"/>
<text stroke="none" fill="white" font-size="16" x="18" y="439">
0.0
</text>
<path stroke="white" stroke-dasharray="1,2" d="M50 340l924 0"/>
<text stroke="none" fill="white" font-size="16" x="18" y="348">
1.0
</text>
<path stroke="white" stroke-dasharray="1,2" d="M50 249l924 0"/>
<text stroke="none" fill="white" font-size="16" x="18" y="257">
2.0
</text>
<path stroke="white" stroke-dasharray="1,2" d="M50 158l924 0"/>
<text stroke="none" fill="white" font-size="16" x="18" y="166">
3.0
</text>
<path stroke="white" stroke-dasharray="1,2" d="M50 67l924 0"/>
<text stroke="none" fill="white" font-size="16" x="18" y="75">
4.0
</text>
<text stroke="none" fill="white" font-size="16" x="10" y="32">
     
</text>
<path stroke="red" d="M462 23l46 0"/>
<text stroke="none" fill="white" font-size="16" x="518" y="32">
x1.vsampled_p
</text>
<path stroke="red" d="M50 431l1 0 1 -7 0 -15 1 -14 0 -5 1 1M54 415l0 -39 1 -5 0 -15 1 -3 0 -2 1 -1 2 0 1 -1 4 0M64 350l0 -1M64 350l4 0 1 -1 49 0 0 -1 422 0M540 349l0 -1 27 0M567 349l0 -1 26 0M593 349l0 -1 26 0M619 349l0 -1 27 0M646 349l0 -1 26 0"/>
<path stroke="red" d="M672 349l0 -1 27 0M699 349l0 -1 26 0M725 349l0 -1 26 0M751 349l0 -1 27 0M778 349l0 -1 7 0M785 349l0 -1M785 349l1 0M786 350l0 -1 26 0M812 350l0 -1M812 350l1 0 0 -1 18 0M831 350l0 -1 26 0M857 350l0 -1 26 0M883 350l0 -1 27 0"/>
<path stroke="red" d="M910 350l0 -1 7 0 0 -1 19 0M936 349l0 -1 38 0"/>
<path stroke="blue" d="M50 23l46 0"/>
<text stroke="none" fill="white" font-size="16" x="106" y="32">
x1.vsampled_n
</text>
<path stroke="blue" d="M50 431l1 0 1 -7 0 -15 1 -14 0 -5 1 1M54 415l0 -39 1 -5 0 -15 1 -3 0 -2 1 -1 2 0 1 -1 4 0M64 350l0 -1M64 350l4 0 1 -1 48 0 1 1 422 0M540 351l0 -1 7 0M547 351l0 -39 1 -8 0 -7 1 -4 0 -3 1 0 1 -1 3 0 0 -1M554 289l13 0M567 291l0 -2"/>
<path stroke="blue" d="M567 289l6 0M573 290l0 -1M573 290l1 7M574 319l0 -22M574 319l1 7M575 332l0 -6M575 332l1 0 0 -1 1 -1 3 0 0 -1M580 330l13 0M593 331l0 -1 7 0M600 347l0 -17M600 347l1 3M601 354l0 -4M601 352l2 -2 16 0M619 351l0 -1M619 351l1 -1"/>
<path stroke="blue" d="M620 350l6 0 0 -15 1 -2 0 -1 19 0M646 333l0 -1 7 0M653 344l0 -12M653 344l1 0 0 -1 5 0 0 -1M659 343l20 0M679 348l0 -5M679 348l1 1M680 350l0 -2 26 0M706 351l0 -3M706 351l1 0 0 -1 18 0M725 351l0 -1 6 0 0 -1 1 -1 0 -1M732 348l27 0"/>
<path stroke="blue" d="M759 351l0 -3M759 349l19 0M778 350l0 -1 26 0M804 350l0 -1 26 0 1 1 0 -1 86 0M917 351l0 -2M917 351l1 0 0 -1 18 0M936 351l0 -1 38 0"/>
<path stroke="#FFA500" d="M462 39l46 0"/>
<text stroke="none" fill="white" font-size="16" x="518" y="48">
x1.vsampled_p-x1.vsampled_n
</text>
<path stroke="#FFA500" d="M50 431l67 0 2 -2 428 0M547 467l0 -38M547 467l1 8M548 483l0 -8M548 483l1 3M549 489l0 -3M549 489l1 1 4 0M554 491l0 -1 13 0 0 -1M567 490l6 0 0 -1 1 -6 0 -23 1 -7 0 -5 1 0 1 1 3 0M580 450l0 -1 13 0M593 450l0 -1 7 0 0 -17"/>
<path stroke="#FFA500" d="M600 432l1 -3 0 -4M601 427l1 1M602 429l0 -1M602 429l24 0M626 445l0 -16M626 445l1 1M627 447l0 -1M627 447l19 0 0 -1M646 447l7 0 0 -12 1 0M654 436l0 -1M654 436l1 0M655 437l0 -1M655 437l24 0 0 -6 1 -1M680 431l0 -2M680 431l1 0"/>
<path stroke="#FFA500" d="M681 432l0 -1M681 432l25 0 0 -4 1 0M707 429l0 -1M707 429l24 0M731 431l0 -2M731 431l1 1 0 -1 27 0 0 -2M759 430l26 0M785 431l0 -1M785 431l53 0M838 432l0 -1 79 0 0 -3 1 -1M918 429l0 -2M918 429l56 0"/>
<path stroke="green" d="M50 39l46 0"/>
<text stroke="none" fill="white" font-size="16" x="106" y="48">
x1.sw_sample-2
</text>
<path stroke="green" d="M50 613l1 0 1 -9 0 -21 1 -21M53 582l0 -26M53 582l1 28M54 613l0 -3M54 613l63 0M117 620l0 -172M117 449l422 0M539 614l0 -171M539 613l422 0M961 618l0 -170 1 1 12 0"/>
<path stroke="#FFC0C5" d="M462 55l46 0"/>
<text stroke="none" fill="white" font-size="16" x="518" y="64">
x1.comp_out_p+2
</text>
<path stroke="#FFC0C5" d="M50 249l1 0 1 -9 0 -22 1 -18 0 -4M53 198l1 5M54 249l0 -46M54 249l488 0 0 -165 1 0M543 85l0 -1M543 85l12 0M555 249l0 -171M555 249l66 0 0 -164 1 -1M622 85l0 -1M622 85l12 0M634 249l0 -172M634 249l93 0 0 -165M727 85l13 0"/>
<path stroke="#FFC0C5" d="M740 249l0 -171M740 249l40 0 0 -165M780 85l13 0M793 249l0 -174M793 249l14 0 0 -164 12 0M819 249l0 -171M819 249l15 0 0 -165M834 85l11 0 0 -10 1 142M846 249l0 -32M846 249l92 0 0 -165M938 85l13 0M951 249l0 -167M951 249l23 0"/>
<path stroke="#A52A2A" d="M50 55l46 0"/>
<text stroke="none" fill="white" font-size="16" x="106" y="64">
x1.comp_out_n-2
</text>
<path stroke="#A52A2A" d="M50 613l1 0 1 -9 0 -22 1 -19M53 564l0 -3M53 564l1 6M54 613l0 -43M54 613l514 0M568 620l0 -173M568 449l13 0 0 -8 1 158M582 613l0 -14M582 613l12 0 0 -166M594 449l14 0M608 613l0 -173M608 613l39 0M647 614l0 -167M647 449l14 0"/>
<path stroke="#A52A2A" d="M661 614l0 -171M661 613l12 0M673 615l0 -2M673 615l1 -122 0 -46M674 449l13 0M687 614l0 -171M687 613l13 0 0 -156 1 -9M701 449l0 -1M701 449l12 0 0 -9 1 161M714 613l0 -12M714 613l39 0 0 -147 1 -17 0 -1M754 449l12 0M766 613l0 -173"/>
<path stroke="#A52A2A" d="M766 613l94 0 0 -165M860 449l12 0M872 613l0 -166M872 613l14 0 0 -158 1 -7M887 449l0 -1M887 449l11 0M898 613l0 -166M898 613l14 0 1 -158 0 -7M913 449l12 0M925 614l0 -172M925 613l49 0"/>
</svg>
