<?xml version="1.0" standalone="yes"?>
<!DOCTYPE svg PUBLIC "-//W3C//DTD SVG 1.1//EN"
 "http://www.w3.org/Graphics/SVG/1.1/DTD/svg11.dtd">
<svg xmlns="http://www.w3.org/2000/svg" version="1.1"
  width="100%" height="100%" viewBox="0 0 1024 768"
  style="fill: none; font-family: Helvetica;
 font: Helvetica;
">

<!-- Creator: NGspice -->

<rect x="0" y="0" width="1024" height="768" fill="black" stroke="none"/>
<text stroke="none" fill="white" font-size="16" x="358" y="752">
time
</text>
<text stroke="none" fill="white" font-size="16" x="10" y="16">
tran1: run1982_vin0.842429
</text>
<path stroke="white" d="M50 704l0 -637"/>
<text stroke="none" fill="white" font-size="16" x="35" y="728">
0.0
</text>
<path stroke="white" stroke-dasharray="1,2" d="M182 704l0 -637"/>
<text stroke="none" fill="white" font-size="16" x="157" y="728">
100.0
</text>
<path stroke="white" stroke-dasharray="1,2" d="M314 704l0 -637"/>
<text stroke="none" fill="white" font-size="16" x="289" y="728">
200.0
</text>
<path stroke="white" stroke-dasharray="1,2" d="M446 704l0 -637"/>
<text stroke="none" fill="white" font-size="16" x="421" y="728">
300.0
</text>
<path stroke="white" stroke-dasharray="1,2" d="M578 704l0 -637"/>
<text stroke="none" fill="white" font-size="16" x="553" y="728">
400.0
</text>
<path stroke="white" stroke-dasharray="1,2" d="M710 704l0 -637"/>
<text stroke="none" fill="white" font-size="16" x="685" y="728">
500.0
</text>
<path stroke="white" stroke-dasharray="1,2" d="M842 704l0 -637"/>
<text stroke="none" fill="white" font-size="16" x="817" y="728">
600.0
</text>
<path stroke="white" stroke-dasharray="1,2" d="M974 704l0 -637"/>
<text stroke="none" fill="white" font-size="16" x="949" y="728">
700.0
</text>
<text stroke="none" fill="white" font-size="16" x="614" y="752">
ns
</text>
<path stroke="white" stroke-dasharray="1,2" d="M50 704l924 0"/>
<text stroke="none" fill="white" font-size="16" x="8" y="712">
-3.0
</text>
<path stroke="white" stroke-dasharray="1,2" d="M50 613l924 0"/>
<text stroke="none" fill="white" font-size="16" x="8" y="621">
-2.0
</text>
<path stroke="white" stroke-dasharray="1,2" d="M50 522l924 0"/>
<text stroke="none" fill="white" font-size="16" x="8" y="530">
-1.0
</text>
<path stroke="white" d="M50 431l924 0"/>
<text stroke="none" fill="white" font-size="16" x="18" y="439">
0.0
</text>
<path stroke="white" stroke-dasharray="1,2" d="M50 340l924 0"/>
<text stroke="none" fill="white" font-size="16" x="18" y="348">
1.0
</text>
<path stroke="white" stroke-dasharray="1,2" d="M50 249l924 0"/>
<text stroke="none" fill="white" font-size="16" x="18" y="257">
2.0
</text>
<path stroke="white" stroke-dasharray="1,2" d="M50 158l924 0"/>
<text stroke="none" fill="white" font-size="16" x="18" y="166">
3.0
</text>
<path stroke="white" stroke-dasharray="1,2" d="M50 67l924 0"/>
<text stroke="none" fill="white" font-size="16" x="18" y="75">
4.0
</text>
<text stroke="none" fill="white" font-size="16" x="10" y="32">
     
</text>
<path stroke="red" d="M462 23l46 0"/>
<text stroke="none" fill="white" font-size="16" x="518" y="32">
x1.vsampled_p
</text>
<path stroke="red" d="M50 431l1 0 1 -7 0 -16 1 -14 0 -5 1 2M54 414l0 -39 1 -4 0 -13 1 -3 0 -3 1 -1 0 -1 2 0 1 -1 3 0 1 1 4 0 1 -1 48 0 0 -1 1 -12 0 -37 1 -6 0 -11 1 -3 0 -4 2 -2 1 0 1 -1 415 0M539 273l0 -1M539 273l1 0M540 274l0 -1 14 0 0 -1M554 273l13 0"/>
<path stroke="red" d="M567 274l0 -1 7 0M574 296l0 -23M574 296l1 6M575 311l0 -9M575 311l1 3 4 0 0 -1M580 314l13 0M593 315l0 -2M593 314l7 0M600 328l0 -14M600 328l1 4M601 335l0 -3M601 335l1 -1 17 0M619 335l0 -1 27 0M646 335l0 -1 7 0M653 342l0 -8"/>
<path stroke="red" d="M653 342l1 2M654 345l0 -1 18 0M672 345l0 -1 7 0M679 347l0 -3M679 347l1 1M680 350l0 -2M680 349l19 0M699 350l0 -1 26 0M725 350l0 -1 7 0 1 -1 0 -1 26 0M759 349l0 -2M759 348l19 0M778 349l0 -1 7 0M785 349l0 -1M785 349l27 0 1 1"/>
<path stroke="red" d="M813 350l0 -1 18 0M831 350l0 -1 87 0M918 350l0 -60 1 -2 0 -10 1 -2 0 -1 1 -1 0 -1 2 0 0 -1M923 273l13 0M936 274l0 -1 14 0 0 -1M950 273l12 0 0 -1 12 0"/>
<path stroke="blue" d="M50 23l46 0"/>
<text stroke="none" fill="white" font-size="16" x="106" y="32">
x1.vsampled_n
</text>
<path stroke="blue" d="M50 431l1 0 1 -7 0 -15 1 -14 0 -4 1 1M54 414l0 -39 1 -4 0 -13 1 -3 0 -3 1 -1 0 -1 2 0 1 -1 3 0 1 1 3 0 0 -1 50 0M117 373l0 -24M117 373l1 17M118 412l0 -22M118 412l1 3M119 421l0 -6M119 421l1 1M120 424l0 -2M120 424l1 1 1 0"/>
<path stroke="blue" d="M122 426l0 -1M122 426l424 0 0 -22 1 -3 0 -26 1 -6 1 -3 0 -1 5 0 0 -1 12 0 1 1 0 -1M567 365l13 0 0 -1M580 365l13 0 0 -1M593 365l13 0 0 -1 1 0M607 365l0 -1M607 365l12 0 0 -1M619 365l1 0 0 -1M620 365l5 0 0 -15 1 -1 0 -3 2 0"/>
<path stroke="blue" d="M628 347l0 -1M628 347l5 0 0 -1M633 347l26 0 0 -1M659 347l27 0 0 -1M686 347l20 0M706 351l0 -4M706 350l1 0 0 -1 18 0M725 350l0 -1 26 0M751 350l0 -1M751 350l1 0 0 -1 26 0M778 350l0 -1 26 0M804 350l0 -1 27 0M831 350l0 -1 26 0"/>
<path stroke="blue" d="M857 350l0 -1 26 0M883 350l0 -1M883 350l1 -1 26 0M910 350l0 -1 8 0M918 442l0 -93M918 439l1 -2 0 -7 1 -1 0 -1 1 -1 0 -1 53 0"/>
<path stroke="#FFA500" d="M462 39l46 0"/>
<text stroke="none" fill="white" font-size="16" x="518" y="48">
x1.vsampled_p-x1.vsampled_n
</text>
<path stroke="#FFA500" d="M50 431l2 0 0 -1 2 0M54 431l0 -1M54 431l63 0 0 -25 1 -30 0 -58 1 -10 0 -16 1 -5 0 -6 1 -2 1 0 0 -1 418 0M540 279l0 -1 6 0M546 300l0 -22M546 300l1 3M547 328l0 -25M547 328l1 6 1 3M549 339l0 -2M549 339l18 0M567 340l0 -1"/>
<path stroke="#FFA500" d="M567 339l7 0M574 362l0 -23M574 362l1 6M575 377l0 -9M575 377l1 3 17 0M593 381l0 -1 7 0M600 394l0 -14M600 394l1 5M601 402l0 -3M601 401l1 0 1 -1 1 1 2 0 0 -1 13 0M619 401l0 -1 1 0M620 401l0 -1M620 401l5 0M625 415l0 -14"/>
<path stroke="#FFA500" d="M625 415l1 1M626 420l0 -4M626 419l2 0 1 -1 4 0M633 419l0 -1 13 0M646 419l0 -1 7 0M653 426l0 -8M653 426l1 2M654 429l0 -1M654 429l18 0 0 -1M672 429l7 0M679 431l0 -3M679 431l1 1M680 435l0 -3M680 434l19 0 0 -1M699 434l7 0"/>
<path stroke="#FFA500" d="M706 434l0 -5M706 430l1 1 25 0 1 -1 0 -2M733 429l26 0M759 431l0 -2M759 430l26 0M785 431l0 -1M785 431l28 0M813 432l0 -1 105 0M918 432l0 -149 1 -2 0 -2 1 -1 3 0 0 -1M923 278l13 0M936 279l0 -1 14 0 0 -1M950 278l24 0"/>
<path stroke="green" d="M50 39l46 0"/>
<text stroke="none" fill="white" font-size="16" x="106" y="48">
x1.sw_sample-2
</text>
<path stroke="green" d="M50 613l1 0 1 -9 0 -21 1 -21M53 579l0 -23M53 579l1 31M54 613l0 -3M54 613l63 0M117 620l0 -172M117 449l422 0M539 614l0 -171M539 613l422 0M961 618l0 -170 1 1 12 0"/>
<path stroke="#FFC0C5" d="M462 55l46 0"/>
<text stroke="none" fill="white" font-size="16" x="518" y="64">
x1.comp_out_p+2
</text>
<path stroke="#FFC0C5" d="M50 249l1 0 1 -9 0 -22 1 -18 0 -4M53 198l1 5M54 249l0 -46M54 249l488 0M542 250l0 -166M542 85l13 0M555 250l0 -170M555 249l13 0M568 250l0 -167M568 85l13 0 0 -2 1 54M582 250l0 -113M582 249l12 0 0 -165M594 85l14 0M608 250l0 -173"/>
<path stroke="#FFC0C5" d="M608 249l13 0 0 -165M621 85l13 0M634 249l0 -172M634 249l13 0M647 250l0 -166M647 85l14 0M661 249l0 -166M661 249l12 0 1 3 0 -169M674 85l13 0M687 249l0 -172M687 249l66 0 0 -165M753 85l13 0M766 249l0 -173M766 249l14 0 0 -165"/>
<path stroke="#FFC0C5" d="M780 85l13 0M793 249l0 -174M793 249l14 0 0 -165M807 85l12 0M819 249l0 -168M819 249l41 0 0 -165M860 85l12 0M872 249l0 -174M872 249l14 0 0 -151 1 -14M887 85l0 -1M887 85l11 0M898 249l0 -174M898 249l15 0 0 -165M913 85l12 0"/>
<path stroke="#FFC0C5" d="M925 250l0 -173M925 249l12 0 1 -39 0 -126M938 85l13 0M951 249l0 -171M951 249l23 0"/>
<path stroke="#A52A2A" d="M50 55l46 0"/>
<text stroke="none" fill="white" font-size="16" x="106" y="64">
x1.comp_out_n-2
</text>
<path stroke="#A52A2A" d="M50 613l1 0 1 -9 0 -22 1 -19M53 564l0 -3M53 564l1 6M54 614l0 -44M54 611l1 2 487 0M542 614l0 -1 158 0M700 614l0 -167M700 449l13 0 0 -10 1 154M714 613l0 -20M714 613l14 0 0 -158 1 -7M729 449l0 -1M729 449l11 0M740 613l0 -174"/>
<path stroke="#A52A2A" d="M740 613l94 0 0 -165M834 449l11 0 0 -2M845 448l1 154M846 613l0 -11M846 613l128 0"/>
</svg>
