<?xml version="1.0" standalone="yes"?>
<!DOCTYPE svg PUBLIC "-//W3C//DTD SVG 1.1//EN"
 "http://www.w3.org/Graphics/SVG/1.1/DTD/svg11.dtd">
<svg xmlns="http://www.w3.org/2000/svg" version="1.1"
  width="100%" height="100%" viewBox="0 0 1024 768"
  style="fill: none; font-family: Helvetica;
 font: Helvetica;
">

<!-- Creator: NGspice -->

<rect x="0" y="0" width="1024" height="768" fill="black" stroke="none"/>
<text stroke="none" fill="white" font-size="16" x="358" y="752">
time
</text>
<text stroke="none" fill="white" font-size="16" x="10" y="16">
tran1: run1425_vin0.352879
</text>
<path stroke="white" d="M50 704l0 -637"/>
<text stroke="none" fill="white" font-size="16" x="35" y="728">
0.0
</text>
<path stroke="white" stroke-dasharray="1,2" d="M182 704l0 -637"/>
<text stroke="none" fill="white" font-size="16" x="157" y="728">
100.0
</text>
<path stroke="white" stroke-dasharray="1,2" d="M314 704l0 -637"/>
<text stroke="none" fill="white" font-size="16" x="289" y="728">
200.0
</text>
<path stroke="white" stroke-dasharray="1,2" d="M446 704l0 -637"/>
<text stroke="none" fill="white" font-size="16" x="421" y="728">
300.0
</text>
<path stroke="white" stroke-dasharray="1,2" d="M578 704l0 -637"/>
<text stroke="none" fill="white" font-size="16" x="553" y="728">
400.0
</text>
<path stroke="white" stroke-dasharray="1,2" d="M710 704l0 -637"/>
<text stroke="none" fill="white" font-size="16" x="685" y="728">
500.0
</text>
<path stroke="white" stroke-dasharray="1,2" d="M842 704l0 -637"/>
<text stroke="none" fill="white" font-size="16" x="817" y="728">
600.0
</text>
<path stroke="white" stroke-dasharray="1,2" d="M974 704l0 -637"/>
<text stroke="none" fill="white" font-size="16" x="949" y="728">
700.0
</text>
<text stroke="none" fill="white" font-size="16" x="614" y="752">
ns
</text>
<path stroke="white" stroke-dasharray="1,2" d="M50 704l924 0"/>
<text stroke="none" fill="white" font-size="16" x="8" y="712">
-3.0
</text>
<path stroke="white" stroke-dasharray="1,2" d="M50 613l924 0"/>
<text stroke="none" fill="white" font-size="16" x="8" y="621">
-2.0
</text>
<path stroke="white" stroke-dasharray="1,2" d="M50 522l924 0"/>
<text stroke="none" fill="white" font-size="16" x="8" y="530">
-1.0
</text>
<path stroke="white" d="M50 431l924 0"/>
<text stroke="none" fill="white" font-size="16" x="18" y="439">
0.0
</text>
<path stroke="white" stroke-dasharray="1,2" d="M50 340l924 0"/>
<text stroke="none" fill="white" font-size="16" x="18" y="348">
1.0
</text>
<path stroke="white" stroke-dasharray="1,2" d="M50 249l924 0"/>
<text stroke="none" fill="white" font-size="16" x="18" y="257">
2.0
</text>
<path stroke="white" stroke-dasharray="1,2" d="M50 158l924 0"/>
<text stroke="none" fill="white" font-size="16" x="18" y="166">
3.0
</text>
<path stroke="white" stroke-dasharray="1,2" d="M50 67l924 0"/>
<text stroke="none" fill="white" font-size="16" x="18" y="75">
4.0
</text>
<text stroke="none" fill="white" font-size="16" x="10" y="32">
     
</text>
<path stroke="red" d="M462 23l46 0"/>
<text stroke="none" fill="white" font-size="16" x="518" y="32">
x1.vsampled_p
</text>
<path stroke="red" d="M50 431l1 0 1 -7 0 -15 1 -15 0 -4 1 1M54 415l0 -40 1 -5 0 -13 1 -3 0 -2 2 -2 1 0 1 -1 4 0M64 350l0 -1M64 350l4 0 1 -1 48 0 0 -1 1 -8 0 -14 1 -4 0 -2 1 -2 1 0 0 -1 419 0M540 318l0 -1 26 0 1 1 0 -1 7 0M574 339l0 -22M574 339l1 4"/>
<path stroke="red" d="M575 357l0 -14M575 357l1 1 49 0 0 -8 1 -1 0 -7 1 -1 0 -1 19 0M646 341l0 -1 7 0M653 348l0 -8M653 348l1 2M654 351l0 -1M654 351l1 -1 17 0M672 351l0 -1 26 0 1 1 0 -1 26 0M725 351l0 -1 6 0 0 -2 20 0M751 349l0 -1 27 0M778 349l0 -1"/>
<path stroke="red" d="M778 348l7 0M785 349l0 -1M785 349l27 0M812 350l0 -1 19 0M831 350l0 -1 26 0M857 350l0 -1 26 0M883 350l0 -1 27 0M910 350l0 -1 8 0M918 351l0 -2M918 351l1 0 0 -15 1 -2 0 -8 1 -3 0 -3 1 0 0 -2 1 0 0 -1 13 0M936 318l0 -1 38 0"/>
<path stroke="blue" d="M50 23l46 0"/>
<text stroke="none" fill="white" font-size="16" x="106" y="32">
x1.vsampled_n
</text>
<path stroke="blue" d="M50 431l1 0 1 -7 0 -15 1 -14 0 -5 1 2M54 415l0 -40 1 -5 0 -13 1 -3 0 -2 2 -2 1 0 1 -1 4 0M64 350l0 -1M64 350l4 0 1 -1 48 0M117 355l0 -6M117 355l1 9M118 374l0 -10M118 374l1 3M119 379l0 -2M119 379l2 2 419 0M540 382l0 -1 6 0"/>
<path stroke="blue" d="M546 381l0 -23 1 -3 0 -24 1 -3 0 -5 1 -2 1 0 0 -1 4 0 0 -1M554 320l13 0M567 321l0 -1 13 0 0 -1M580 320l13 0M593 321l0 -1 7 0M600 341l0 -21M600 341l1 2M601 347l0 -4 1 -1 0 -1 4 0 0 -1 13 0M619 341l0 -1M619 341l14 0 0 -1"/>
<path stroke="blue" d="M633 340l13 0M646 341l0 -1M646 341l13 0 0 -1 13 0M672 341l0 -1M672 341l7 0M679 347l0 -7M679 347l1 1M680 349l0 -3 6 0 0 -1M686 346l20 0M706 350l0 -4M706 349l1 0 0 -1 18 0M725 349l0 -1 26 0M751 349l0 -1 9 0M760 351l0 -3M760 350l1 0"/>
<path stroke="blue" d="M761 350l0 -1 17 0M778 350l0 -1 26 0M804 350l0 -1 26 0 1 1 0 -1 87 0M918 352l0 -10M918 352l1 1M919 373l0 -20M919 373l1 4M920 383l0 -6M920 383l1 0 0 -1 2 0 0 -1 13 0M936 382l0 -1 38 0"/>
<path stroke="#FFA500" d="M462 39l46 0"/>
<text stroke="none" fill="white" font-size="16" x="518" y="48">
x1.vsampled_p-x1.vsampled_n
</text>
<path stroke="#FFA500" d="M50 431l67 0 0 -6 1 -18 0 -24 1 -7 0 -4 1 -3 1 -1 0 -1 425 0M546 390l0 -23M546 390l1 3M547 418l0 -25M547 418l1 2M548 426l0 -6M548 426l2 2 24 0M574 450l0 -22M574 450l1 4M575 468l0 -14M575 468l1 1 17 0 0 -1M593 469l7 0"/>
<path stroke="#FFA500" d="M600 469l0 -20 1 -3 0 -4M601 446l1 1M602 448l0 -1M602 448l1 0 1 1 15 0 0 -1M619 449l1 0 0 -1M620 449l5 0 0 -8 1 -2 0 -7 1 0 0 -1 26 0M653 439l0 -8M653 439l1 2M654 442l0 -1 25 0 0 -6 1 -2M680 435l0 -2M680 435l1 1 24 0"/>
<path stroke="#FFA500" d="M705 436l1 -1 0 -3M706 433l25 0 0 -3 1 0M732 431l0 -1M732 431l28 0 0 -3M760 430l25 0M785 431l0 -1M785 431l1 0 0 -1 26 0M812 431l0 -1M812 431l106 0M918 439l0 -9M918 431l1 -2 0 -36 1 -5 0 -14 1 -3 0 -2 1 0 0 -1 1 0 0 -1"/>
<path stroke="#FFA500" d="M923 367l13 0M936 368l0 -1 14 0 0 -1M950 367l24 0"/>
<path stroke="green" d="M50 39l46 0"/>
<text stroke="none" fill="white" font-size="16" x="106" y="48">
x1.sw_sample-2
</text>
<path stroke="green" d="M50 613l1 0 1 -9 0 -21 1 -21M53 580l0 -24M53 580l1 30M54 613l0 -3M54 613l63 0M117 620l0 -172M117 449l422 0M539 614l0 -171M539 613l422 0M961 618l0 -170 1 1 12 0"/>
<path stroke="#FFC0C5" d="M462 55l46 0"/>
<text stroke="none" fill="white" font-size="16" x="518" y="64">
x1.comp_out_p+2
</text>
<path stroke="#FFC0C5" d="M50 249l1 0 1 -9 0 -22 1 -18 0 -4M53 198l1 5M54 249l0 -46M54 249l488 0M542 253l0 -170M542 85l13 0M555 249l0 -172M555 249l13 0M568 250l0 -166M568 85l13 0 0 -8 1 158M582 249l0 -14M582 249l65 0M647 254l0 -171M647 85l14 0"/>
<path stroke="#FFC0C5" d="M661 249l0 -171M661 249l118 0 1 -145 0 -20M780 85l13 0M793 250l0 -168M793 249l13 0 1 -156 0 -9M807 85l12 0M819 250l0 -174M819 249l14 0 1 -157 0 -8M834 85l11 0 0 -7 1 146M846 249l0 -25M846 249l91 0 1 -45 0 -120M938 85l13 0"/>
<path stroke="#FFC0C5" d="M951 249l0 -172M951 249l23 0"/>
<path stroke="#A52A2A" d="M50 55l46 0"/>
<text stroke="none" fill="white" font-size="16" x="106" y="64">
x1.comp_out_n-2
</text>
<path stroke="#A52A2A" d="M50 613l1 0 1 -9 0 -22 1 -19M53 564l0 -3M53 564l1 6M54 613l0 -43M54 613l514 0M568 614l0 -1 26 0M594 620l0 -173M594 449l14 0M608 613l0 -171M608 613l13 0M621 614l0 -167M621 449l13 0M634 613l0 -173M634 613l39 0M673 617l0 -4"/>
<path stroke="#A52A2A" d="M673 617l1 -125 0 -45M674 449l13 0M687 613l0 -171M687 613l13 0M700 616l0 -169M700 449l13 0 0 -8 1 156M714 613l0 -16M714 613l13 0 0 -165M727 449l13 0M740 614l0 -170M740 613l14 0 0 -157 1 -8M755 449l0 -1M755 449l11 0M766 613l0 -173"/>
<path stroke="#A52A2A" d="M766 613l94 0 0 -164 12 0M872 613l0 -173M872 613l14 0 1 -156 0 -9M887 449l11 0M898 613l0 -173M898 613l15 0 0 -165M913 449l12 0M925 614l0 -174M925 613l49 0"/>
</svg>
