<?xml version="1.0" standalone="yes"?>
<!DOCTYPE svg PUBLIC "-//W3C//DTD SVG 1.1//EN"
 "http://www.w3.org/Graphics/SVG/1.1/DTD/svg11.dtd">
<svg xmlns="http://www.w3.org/2000/svg" version="1.1"
  width="100%" height="100%" viewBox="0 0 1024 768"
  style="fill: none; font-family: Helvetica;
 font: Helvetica;
">

<!-- Creator: NGspice -->

<rect x="0" y="0" width="1024" height="768" fill="black" stroke="none"/>
<text stroke="none" fill="white" font-size="16" x="358" y="752">
time
</text>
<text stroke="none" fill="white" font-size="16" x="10" y="16">
tran1: run1430_vin0.357274
</text>
<path stroke="white" d="M50 704l0 -637"/>
<text stroke="none" fill="white" font-size="16" x="35" y="728">
0.0
</text>
<path stroke="white" stroke-dasharray="1,2" d="M182 704l0 -637"/>
<text stroke="none" fill="white" font-size="16" x="157" y="728">
100.0
</text>
<path stroke="white" stroke-dasharray="1,2" d="M314 704l0 -637"/>
<text stroke="none" fill="white" font-size="16" x="289" y="728">
200.0
</text>
<path stroke="white" stroke-dasharray="1,2" d="M446 704l0 -637"/>
<text stroke="none" fill="white" font-size="16" x="421" y="728">
300.0
</text>
<path stroke="white" stroke-dasharray="1,2" d="M578 704l0 -637"/>
<text stroke="none" fill="white" font-size="16" x="553" y="728">
400.0
</text>
<path stroke="white" stroke-dasharray="1,2" d="M710 704l0 -637"/>
<text stroke="none" fill="white" font-size="16" x="685" y="728">
500.0
</text>
<path stroke="white" stroke-dasharray="1,2" d="M842 704l0 -637"/>
<text stroke="none" fill="white" font-size="16" x="817" y="728">
600.0
</text>
<path stroke="white" stroke-dasharray="1,2" d="M974 704l0 -637"/>
<text stroke="none" fill="white" font-size="16" x="949" y="728">
700.0
</text>
<text stroke="none" fill="white" font-size="16" x="614" y="752">
ns
</text>
<path stroke="white" stroke-dasharray="1,2" d="M50 704l924 0"/>
<text stroke="none" fill="white" font-size="16" x="8" y="712">
-3.0
</text>
<path stroke="white" stroke-dasharray="1,2" d="M50 613l924 0"/>
<text stroke="none" fill="white" font-size="16" x="8" y="621">
-2.0
</text>
<path stroke="white" stroke-dasharray="1,2" d="M50 522l924 0"/>
<text stroke="none" fill="white" font-size="16" x="8" y="530">
-1.0
</text>
<path stroke="white" d="M50 431l924 0"/>
<text stroke="none" fill="white" font-size="16" x="18" y="439">
0.0
</text>
<path stroke="white" stroke-dasharray="1,2" d="M50 340l924 0"/>
<text stroke="none" fill="white" font-size="16" x="18" y="348">
1.0
</text>
<path stroke="white" stroke-dasharray="1,2" d="M50 249l924 0"/>
<text stroke="none" fill="white" font-size="16" x="18" y="257">
2.0
</text>
<path stroke="white" stroke-dasharray="1,2" d="M50 158l924 0"/>
<text stroke="none" fill="white" font-size="16" x="18" y="166">
3.0
</text>
<path stroke="white" stroke-dasharray="1,2" d="M50 67l924 0"/>
<text stroke="none" fill="white" font-size="16" x="18" y="75">
4.0
</text>
<text stroke="none" fill="white" font-size="16" x="10" y="32">
     
</text>
<path stroke="red" d="M462 23l46 0"/>
<text stroke="none" fill="white" font-size="16" x="518" y="32">
x1.vsampled_p
</text>
<path stroke="red" d="M50 431l1 0 1 -7 0 -15 1 -15 0 -4 1 1M54 415l0 -40 1 -5 0 -13 1 -3 0 -2 2 -2 1 0 1 -1 4 0M64 350l0 -1M64 350l4 0 1 -1 48 0 0 -1 1 -8 0 -14 1 -4 0 -2 1 -2 1 -1 419 0M540 318l0 -1 14 0 0 -1M554 317l13 0M567 318l0 -1 7 0M574 340l0 -23"/>
<path stroke="red" d="M574 340l1 4M575 355l0 -11M575 355l1 2M576 358l0 -1M576 358l49 0 0 -10 1 -1 0 -6 1 0 0 -1 6 0 0 -1M633 340l20 0M653 348l0 -8M653 348l1 2M654 351l0 -1 77 0 1 -1 0 -2M732 348l27 0M759 350l0 -2M759 349l54 0M813 350l0 -1 17 0"/>
<path stroke="red" d="M830 349l1 1 0 -1 86 0M917 351l0 -2M917 350l1 0 0 -11 1 -2 0 -11 1 -3 0 -2 1 -2 0 -1 1 0 0 -1 1 0 0 -1M923 317l13 0M936 318l0 -1 14 0 0 -1M950 317l24 0"/>
<path stroke="blue" d="M50 23l46 0"/>
<text stroke="none" fill="white" font-size="16" x="106" y="32">
x1.vsampled_n
</text>
<path stroke="blue" d="M50 431l1 0 1 -7 0 -15 1 -14 0 -5 1 2M54 415l0 -40 1 -5 0 -13 1 -3 0 -2 2 -2 1 0 1 -1 4 0M64 350l0 -1M64 350l4 0 1 -1 48 0M117 355l0 -6M117 355l1 9M118 375l0 -11M118 375l1 3M119 379l0 -1M119 379l1 2 2 0 1 1 423 0 0 -19"/>
<path stroke="blue" d="M546 363l1 -4 0 -28 1 -3 0 -5 2 -2 4 0 0 -1 12 0 1 1M567 322l0 -2M567 321l13 0 0 -1 13 0M593 322l0 -2M593 321l7 0M600 341l0 -20M600 341l1 3M601 347l0 -3 1 -1 0 -1 1 -1 76 0M679 348l0 -7M679 348l1 1 0 -3 26 0M706 350l0 -4"/>
<path stroke="blue" d="M706 350l1 -1 5 0 0 -1M712 349l13 0 0 -1M725 349l13 0 0 -1 1 0M739 349l0 -1M739 349l12 0 0 -1M751 349l14 0 0 -1M765 349l13 0 0 -1M778 349l8 0M786 350l0 -1 18 0M804 350l0 -1 27 0M831 350l0 -1 26 0M857 350l0 -1 26 0M883 350l0 -1"/>
<path stroke="blue" d="M883 349l27 0M910 350l0 -1 7 0 0 -7M917 344l1 3M918 369l0 -22M918 369l1 2M919 383l0 -12M919 383l1 0 1 -1 53 0"/>
<path stroke="#FFA500" d="M462 39l46 0"/>
<text stroke="none" fill="white" font-size="16" x="518" y="48">
x1.vsampled_p-x1.vsampled_n
</text>
<path stroke="#FFA500" d="M50 431l3 0 0 -1M53 431l64 0 0 -7 1 -17 0 -25 1 -7 0 -4 1 -3 2 -2 418 0M540 367l0 -1 6 0M546 385l0 -19M546 385l1 4M547 417l0 -28M547 417l1 3M548 425l0 -5M548 425l2 2 4 0M554 428l0 -1 20 0M574 450l0 -23M574 450l1 4M575 466l0 -12"/>
<path stroke="#FFA500" d="M575 466l1 1M576 468l0 -1M576 468l4 0M580 469l0 -1 13 0 0 -1M593 468l7 0 0 -20 1 -3 0 -3M601 445l1 0M602 447l0 -2M602 447l1 0M603 448l0 -1M603 448l16 0 0 -1M619 448l6 0 0 -10 1 -1 0 -6 1 0 0 -1 26 0M653 438l0 -8M653 438l1 2"/>
<path stroke="#FFA500" d="M654 441l0 -1 25 0 0 -7 1 -1M680 435l0 -3M680 435l26 0 0 -4 1 1 5 0M712 433l0 -1 19 0 1 -1 0 -1 27 0M759 432l0 -2M759 432l1 -1M760 432l0 -1M760 432l18 0 0 -1M778 432l7 0 1 -1 0 -1M786 431l27 0M813 432l0 -1 104 0M917 439l0 -8"/>
<path stroke="#FFA500" d="M917 437l1 -3 0 -33 1 -3 0 -24 1 -3 0 -2 1 -2 1 0 0 -1 14 0M936 367l0 -1 38 0"/>
<path stroke="green" d="M50 39l46 0"/>
<text stroke="none" fill="white" font-size="16" x="106" y="48">
x1.sw_sample-2
</text>
<path stroke="green" d="M50 613l1 0 1 -9 0 -21 1 -21M53 580l0 -24M53 580l1 30M54 613l0 -3M54 613l63 0M117 620l0 -172M117 449l422 0M539 614l0 -172M539 613l422 0M961 618l0 -170 1 1 12 0"/>
<path stroke="#FFC0C5" d="M462 55l46 0"/>
<text stroke="none" fill="white" font-size="16" x="518" y="64">
x1.comp_out_p+2
</text>
<path stroke="#FFC0C5" d="M50 249l1 0 1 -9 0 -22 1 -18 0 -4M53 198l1 5M54 249l0 -46M54 249l487 0 1 2 0 -168M542 85l13 0M555 250l0 -170M555 249l13 0 0 -165M568 85l13 0 0 -8 1 158M582 249l0 -14M582 249l65 0M647 250l0 -166M647 85l14 0M661 250l0 -169"/>
<path stroke="#FFC0C5" d="M661 249l92 0M753 250l0 -166 1 1 12 0M766 250l0 -170M766 249l41 0 0 -164 1 -1M808 85l0 -1M808 85l11 0M819 249l0 -167M819 249l41 0 0 -165 1 1 11 0M872 249l0 -174M872 249l14 0 0 -157 1 -8M887 85l0 -1M887 85l11 0M898 249l0 -174"/>
<path stroke="#FFC0C5" d="M898 249l14 0 1 -157 0 -8M913 85l12 0M925 250l0 -167M925 249l12 0 1 -44 0 -121M938 85l13 0M951 250l0 -168M951 249l23 0"/>
<path stroke="#A52A2A" d="M50 55l46 0"/>
<text stroke="none" fill="white" font-size="16" x="106" y="64">
x1.comp_out_n-2
</text>
<path stroke="#A52A2A" d="M50 613l1 0 1 -9 0 -22 1 -19M53 564l0 -3M53 564l1 6M54 613l0 -43M54 613l540 0M594 620l0 -173M594 449l14 0M608 614l0 -167M608 613l13 0M621 614l0 -167M621 449l13 0M634 613l0 -173M634 613l13 0M647 614l0 -1 26 0M673 615l0 -2"/>
<path stroke="#A52A2A" d="M673 615l1 -104 0 -64M674 449l13 0M687 613l0 -173M687 613l13 0 0 -165M700 449l13 0 0 -9 1 165M714 613l0 -8M714 613l13 0 0 -165M727 449l13 0M740 613l0 -168M740 613l40 0 0 -165M780 449l13 0M793 613l0 -167M793 613l41 0"/>
<path stroke="#A52A2A" d="M834 613l0 -165M834 449l11 0 0 -2 1 155M846 613l0 -11M846 613l128 0"/>
</svg>
