<?xml version="1.0" standalone="yes"?>
<!DOCTYPE svg PUBLIC "-//W3C//DTD SVG 1.1//EN"
 "http://www.w3.org/Graphics/SVG/1.1/DTD/svg11.dtd">
<svg xmlns="http://www.w3.org/2000/svg" version="1.1"
  width="100%" height="100%" viewBox="0 0 1024 768"
  style="fill: none; font-family: Helvetica;
 font: Helvetica;
">

<!-- Creator: NGspice -->

<rect x="0" y="0" width="1024" height="768" fill="black" stroke="none"/>
<text stroke="none" fill="white" font-size="16" x="358" y="752">
time
</text>
<text stroke="none" fill="white" font-size="16" x="10" y="16">
tran1: run450_vin-0.504053
</text>
<path stroke="white" d="M50 704l0 -637"/>
<text stroke="none" fill="white" font-size="16" x="35" y="728">
0.0
</text>
<path stroke="white" stroke-dasharray="1,2" d="M182 704l0 -637"/>
<text stroke="none" fill="white" font-size="16" x="157" y="728">
100.0
</text>
<path stroke="white" stroke-dasharray="1,2" d="M314 704l0 -637"/>
<text stroke="none" fill="white" font-size="16" x="289" y="728">
200.0
</text>
<path stroke="white" stroke-dasharray="1,2" d="M446 704l0 -637"/>
<text stroke="none" fill="white" font-size="16" x="421" y="728">
300.0
</text>
<path stroke="white" stroke-dasharray="1,2" d="M578 704l0 -637"/>
<text stroke="none" fill="white" font-size="16" x="553" y="728">
400.0
</text>
<path stroke="white" stroke-dasharray="1,2" d="M710 704l0 -637"/>
<text stroke="none" fill="white" font-size="16" x="685" y="728">
500.0
</text>
<path stroke="white" stroke-dasharray="1,2" d="M842 704l0 -637"/>
<text stroke="none" fill="white" font-size="16" x="817" y="728">
600.0
</text>
<path stroke="white" stroke-dasharray="1,2" d="M974 704l0 -637"/>
<text stroke="none" fill="white" font-size="16" x="949" y="728">
700.0
</text>
<text stroke="none" fill="white" font-size="16" x="614" y="752">
ns
</text>
<path stroke="white" stroke-dasharray="1,2" d="M50 704l924 0"/>
<text stroke="none" fill="white" font-size="16" x="8" y="712">
-3.0
</text>
<path stroke="white" stroke-dasharray="1,2" d="M50 613l924 0"/>
<text stroke="none" fill="white" font-size="16" x="8" y="621">
-2.0
</text>
<path stroke="white" stroke-dasharray="1,2" d="M50 522l924 0"/>
<text stroke="none" fill="white" font-size="16" x="8" y="530">
-1.0
</text>
<path stroke="white" d="M50 431l924 0"/>
<text stroke="none" fill="white" font-size="16" x="18" y="439">
0.0
</text>
<path stroke="white" stroke-dasharray="1,2" d="M50 340l924 0"/>
<text stroke="none" fill="white" font-size="16" x="18" y="348">
1.0
</text>
<path stroke="white" stroke-dasharray="1,2" d="M50 249l924 0"/>
<text stroke="none" fill="white" font-size="16" x="18" y="257">
2.0
</text>
<path stroke="white" stroke-dasharray="1,2" d="M50 158l924 0"/>
<text stroke="none" fill="white" font-size="16" x="18" y="166">
3.0
</text>
<path stroke="white" stroke-dasharray="1,2" d="M50 67l924 0"/>
<text stroke="none" fill="white" font-size="16" x="18" y="75">
4.0
</text>
<text stroke="none" fill="white" font-size="16" x="10" y="32">
     
</text>
<path stroke="red" d="M462 23l46 0"/>
<text stroke="none" fill="white" font-size="16" x="518" y="32">
x1.vsampled_p
</text>
<path stroke="red" d="M50 431l1 0 1 -7 0 -15 1 -14 0 -5 1 2M54 415l0 -40 1 -4 0 -14 1 -2 0 -3 2 -2 1 0 1 -1 3 0 1 1 4 0 1 -1 48 0M117 359l0 -10M117 359l1 12M118 385l0 -14M118 385l1 4M119 392l0 -3M119 392l2 2M121 395l0 -1M121 395l425 0M546 396l0 -23"/>
<path stroke="red" d="M546 373l1 -4 0 -26 1 -2 0 -4 1 -1 0 -2 5 0 0 -1M554 334l13 0M567 335l0 -1 13 0 0 -1M580 334l13 0M593 335l0 -1 7 0M600 352l0 -18M600 352l1 4M601 360l0 -4M601 359l1 -2 0 -2 1 -1 16 0M619 355l0 -1 6 0 0 -11 1 -1 0 -7 1 0M627 336l0 -1"/>
<path stroke="red" d="M627 336l19 0M646 337l0 -1 7 0M653 347l0 -11M653 347l1 2 0 -1 1 -1 4 0 0 -1 1 0M660 347l0 -1M660 347l12 0 0 -1M672 347l14 0 0 -1M686 347l12 0 0 -1M698 347l8 0M706 351l0 -4M706 350l1 0 0 -1 18 0M725 350l0 -1 26 0M751 350l0 -1"/>
<path stroke="red" d="M751 349l27 0M778 350l0 -1 26 0M804 350l0 -1 27 0M831 350l0 -1 26 0M857 350l0 -1 26 0M883 350l0 -1 27 0M910 350l0 -1 9 0 1 6M920 389l0 -34M920 389l1 3M921 397l0 -5M921 397l1 0 0 -1 1 0 0 -1 51 0"/>
<path stroke="blue" d="M50 23l46 0"/>
<text stroke="none" fill="white" font-size="16" x="106" y="32">
x1.vsampled_n
</text>
<path stroke="blue" d="M50 431l1 0 1 -7 0 -15 1 -15 0 -4 1 1M54 414l0 -39 1 -4 0 -14 1 -2 0 -3 2 -2 1 0 1 -1 3 0 1 1 4 0 1 -1 48 0 0 -1 1 -10 0 -20 1 -5 0 -6 1 -2 2 -2 417 0M539 304l0 -1M539 304l1 -1M540 304l0 -1M540 304l14 0 0 -1 12 0 1 1M567 305l0 -1"/>
<path stroke="blue" d="M567 304l6 0 1 -1M574 326l0 -23M574 326l1 9M575 343l0 -8M575 343l1 1 17 0M593 345l0 -1 26 0M619 345l0 -1 27 0M646 345l0 -1 26 0M672 345l0 -1 7 0M679 349l0 -5M679 349l1 1M680 351l0 -1 1 -1 17 0 1 1 0 -1 26 0M725 350l0 -1"/>
<path stroke="blue" d="M725 349l7 0 0 -2 19 0M751 348l0 -1 8 0M759 349l0 -2M759 349l6 0 0 -1 13 0M778 349l0 -1M778 349l8 0M786 350l0 -1 28 0M814 350l0 -1 16 0 1 1 0 -1 88 0M919 350l0 -6 1 -4 0 -19 1 -2 0 -8 1 -1 0 -4 1 0 0 -2 2 0 0 -1 11 0M936 305l0 -2"/>
<path stroke="blue" d="M936 304l14 0 0 -1 24 0"/>
<path stroke="#FFA500" d="M462 39l46 0"/>
<text stroke="none" fill="white" font-size="16" x="518" y="48">
x1.vsampled_p-x1.vsampled_n
</text>
<path stroke="#FFA500" d="M50 431l2 0 1 1 1 0 0 -1 63 0M117 442l0 -11M117 442l1 22M118 499l0 -35M118 499l1 8M119 516l0 -9M119 516l1 3 1 2M121 522l0 -1M121 522l1 0 1 1 417 0 0 -1 1 0M541 523l0 -1M541 523l5 0 0 -23 1 -3 0 -26 1 -2 0 -5 1 0 0 -2"/>
<path stroke="#FFA500" d="M549 462l1 0 1 -1 16 0M567 462l0 -1 7 0 0 -22 1 -9 0 -8 1 -1 0 -1 17 0M593 421l0 -1 7 0M600 439l0 -19M600 439l1 3M601 447l0 -5M601 446l1 -2 0 -3 23 0 0 -11 1 -1 0 -7 1 0 1 1 25 0M653 434l0 -11M653 434l1 2 0 -1 1 -1 0 -1"/>
<path stroke="#FFA500" d="M655 433l24 0 0 -4 1 -1 0 -1M680 428l26 0M706 432l0 -4M706 432l1 -1 25 0M732 434l0 -3M732 433l27 0 0 -2M759 432l26 0 1 -1 28 0 0 -1M814 431l105 0M919 437l0 -7M919 437l1 9M920 499l0 -53M920 499l1 6M921 517l0 -12M921 517l1 1"/>
<path stroke="#FFA500" d="M922 521l0 -3M922 521l1 0M923 522l0 -1M923 522l1 0M924 523l0 -1M924 523l12 0 0 -2M936 523l38 0"/>
<path stroke="green" d="M50 39l46 0"/>
<text stroke="none" fill="white" font-size="16" x="106" y="48">
x1.sw_sample-2
</text>
<path stroke="green" d="M50 613l1 0 1 -9 0 -21 1 -21M53 580l0 -24M53 580l1 30M54 613l0 -3M54 613l63 0M117 620l0 -172M117 449l422 0M539 614l0 -173M539 613l422 0M961 618l0 -170 1 1 12 0"/>
<path stroke="#FFC0C5" d="M462 55l46 0"/>
<text stroke="none" fill="white" font-size="16" x="518" y="64">
x1.comp_out_p+2
</text>
<path stroke="#FFC0C5" d="M50 249l1 0 1 -9 0 -22 1 -18 0 -4M53 198l1 5M54 250l0 -47M54 248l1 1 539 0M594 251l0 -168M594 84l1 1 13 0M608 250l0 -171M608 249l39 0 0 -165M647 85l14 0M661 249l0 -166M661 249l39 0M700 250l0 -167M700 85l13 0 0 -10 1 146"/>
<path stroke="#FFC0C5" d="M714 249l0 -28M714 249l14 0 0 -165M728 85l12 0M740 250l0 -172M740 249l93 0 1 -153 0 -11 11 0 0 -9 1 153M846 249l0 -20M846 249l15 0 1 -148 0 -17M862 85l10 0M872 249l0 -172M872 249l16 0 0 -165M888 85l10 0M898 249l0 -172"/>
<path stroke="#FFC0C5" d="M898 249l16 0 0 -165 1 1 10 0M925 250l0 -174M925 249l49 0"/>
<path stroke="#A52A2A" d="M50 55l46 0"/>
<text stroke="none" fill="white" font-size="16" x="106" y="64">
x1.comp_out_n-2
</text>
<path stroke="#A52A2A" d="M50 613l1 0 1 -9 0 -22 1 -19M53 564l0 -3M53 564l1 6M54 613l0 -43M54 613l487 0 1 1 0 -167M542 449l13 0M555 613l0 -168M555 613l13 0 0 -166M568 449l13 0 0 -8 1 157M582 613l0 -15M582 613l12 0M594 614l0 -1 27 0M621 614l0 -167"/>
<path stroke="#A52A2A" d="M621 449l13 0M634 613l0 -167M634 613l39 0 1 2 0 -168M674 449l13 0M687 613l0 -172M687 613l66 0 0 -165M753 449l13 0M766 613l0 -172M766 613l14 0 0 -165M780 449l13 0M793 613l0 -172M793 613l15 0 0 -165 1 1 10 0M819 613l0 -174"/>
<path stroke="#A52A2A" d="M819 613l118 0 0 -4 1 -138 0 -24M938 449l13 0M951 613l0 -173M951 613l23 0"/>
</svg>
