<?xml version="1.0" standalone="yes"?>
<!DOCTYPE svg PUBLIC "-//W3C//DTD SVG 1.1//EN"
 "http://www.w3.org/Graphics/SVG/1.1/DTD/svg11.dtd">
<svg xmlns="http://www.w3.org/2000/svg" version="1.1"
  width="100%" height="100%" viewBox="0 0 1024 768"
  style="fill: none; font-family: Helvetica;
 font: Helvetica;
">

<!-- Creator: NGspice -->

<rect x="0" y="0" width="1024" height="768" fill="black" stroke="none"/>
<text stroke="none" fill="white" font-size="16" x="358" y="752">
time
</text>
<text stroke="none" fill="white" font-size="16" x="10" y="16">
tran1: run454_vin-0.500538
</text>
<path stroke="white" d="M50 704l0 -637"/>
<text stroke="none" fill="white" font-size="16" x="35" y="728">
0.0
</text>
<path stroke="white" stroke-dasharray="1,2" d="M182 704l0 -637"/>
<text stroke="none" fill="white" font-size="16" x="157" y="728">
100.0
</text>
<path stroke="white" stroke-dasharray="1,2" d="M314 704l0 -637"/>
<text stroke="none" fill="white" font-size="16" x="289" y="728">
200.0
</text>
<path stroke="white" stroke-dasharray="1,2" d="M446 704l0 -637"/>
<text stroke="none" fill="white" font-size="16" x="421" y="728">
300.0
</text>
<path stroke="white" stroke-dasharray="1,2" d="M578 704l0 -637"/>
<text stroke="none" fill="white" font-size="16" x="553" y="728">
400.0
</text>
<path stroke="white" stroke-dasharray="1,2" d="M710 704l0 -637"/>
<text stroke="none" fill="white" font-size="16" x="685" y="728">
500.0
</text>
<path stroke="white" stroke-dasharray="1,2" d="M842 704l0 -637"/>
<text stroke="none" fill="white" font-size="16" x="817" y="728">
600.0
</text>
<path stroke="white" stroke-dasharray="1,2" d="M974 704l0 -637"/>
<text stroke="none" fill="white" font-size="16" x="949" y="728">
700.0
</text>
<text stroke="none" fill="white" font-size="16" x="614" y="752">
ns
</text>
<path stroke="white" stroke-dasharray="1,2" d="M50 704l924 0"/>
<text stroke="none" fill="white" font-size="16" x="8" y="712">
-2.5
</text>
<path stroke="white" stroke-dasharray="1,2" d="M50 655l924 0"/>
<text stroke="none" fill="white" font-size="16" x="8" y="663">
-2.0
</text>
<path stroke="white" stroke-dasharray="1,2" d="M50 606l924 0"/>
<text stroke="none" fill="white" font-size="16" x="8" y="614">
-1.5
</text>
<path stroke="white" stroke-dasharray="1,2" d="M50 557l924 0"/>
<text stroke="none" fill="white" font-size="16" x="8" y="565">
-1.0
</text>
<path stroke="white" stroke-dasharray="1,2" d="M50 508l924 0"/>
<text stroke="none" fill="white" font-size="16" x="8" y="516">
-0.5
</text>
<path stroke="white" d="M50 459l924 0"/>
<text stroke="none" fill="white" font-size="16" x="18" y="467">
0.0
</text>
<path stroke="white" stroke-dasharray="1,2" d="M50 410l924 0"/>
<text stroke="none" fill="white" font-size="16" x="18" y="418">
0.5
</text>
<path stroke="white" stroke-dasharray="1,2" d="M50 361l924 0"/>
<text stroke="none" fill="white" font-size="16" x="18" y="369">
1.0
</text>
<path stroke="white" stroke-dasharray="1,2" d="M50 312l924 0"/>
<text stroke="none" fill="white" font-size="16" x="18" y="320">
1.5
</text>
<path stroke="white" stroke-dasharray="1,2" d="M50 263l924 0"/>
<text stroke="none" fill="white" font-size="16" x="18" y="271">
2.0
</text>
<path stroke="white" stroke-dasharray="1,2" d="M50 214l924 0"/>
<text stroke="none" fill="white" font-size="16" x="18" y="222">
2.5
</text>
<path stroke="white" stroke-dasharray="1,2" d="M50 165l924 0"/>
<text stroke="none" fill="white" font-size="16" x="18" y="173">
3.0
</text>
<path stroke="white" stroke-dasharray="1,2" d="M50 116l924 0"/>
<text stroke="none" fill="white" font-size="16" x="18" y="124">
3.5
</text>
<path stroke="white" stroke-dasharray="1,2" d="M50 67l924 0"/>
<text stroke="none" fill="white" font-size="16" x="18" y="75">
4.0
</text>
<text stroke="none" fill="white" font-size="16" x="10" y="32">
     
</text>
<path stroke="red" d="M462 23l46 0"/>
<text stroke="none" fill="white" font-size="16" x="518" y="32">
x1.vsampled_p
</text>
<path stroke="red" d="M50 459l1 0 1 -7 0 -17 1 -15 0 -5 1 2M54 441l0 -42 1 -5 0 -15 1 -2 0 -3 1 -2 1 0 0 -1 59 0M117 381l0 -10M117 381l1 14M118 410l0 -15M118 410l1 3M119 417l0 -4M119 417l3 3 424 0 0 -22 1 -3 0 -27 1 -4 0 -7 1 -1 0 -1 1 -1 4 0"/>
<path stroke="red" d="M554 354l0 -1M554 354l13 0M567 355l0 -1 13 0 0 -1M580 354l13 0M593 355l0 -1 7 0M600 374l0 -20M600 374l1 4M601 383l0 -5M601 379l1 -1 0 -1 1 -1 22 0 0 -4 1 -5 0 -11 2 0 1 1 4 0 0 -1M633 357l13 0M646 358l0 -1 7 0M653 369l0 -12"/>
<path stroke="red" d="M653 369l1 1 0 -1 1 0 0 -1 4 0 0 -1M659 368l27 0 0 -1M686 368l20 0M706 372l0 -4M706 372l1 -1 5 0 0 -1 13 0M725 371l0 -1M725 371l7 0 0 -1M732 371l6 0 0 -1 13 0M751 371l0 -1M751 371l1 0 0 -1M752 371l13 0 0 -1 13 0M778 371l0 -1"/>
<path stroke="red" d="M778 371l12 0M790 372l0 -2M790 371l14 0M804 372l0 -1 27 0M831 372l0 -1 7 0 0 -1M838 371l81 0M919 398l0 -28M919 398l1 3M920 418l0 -17M920 418l1 3M921 422l0 -1M921 422l1 0 0 -1 1 0 0 -1 51 0"/>
<path stroke="blue" d="M50 23l46 0"/>
<text stroke="none" fill="white" font-size="16" x="106" y="32">
x1.vsampled_n
</text>
<path stroke="blue" d="M50 459l1 0 1 -7 0 -17 1 -16 0 -5 1 2M54 441l0 -42 1 -5 0 -15 1 -2 0 -3 1 -2 1 0 0 -1 59 0 0 -1 1 -11 0 -22 1 -5 0 -6 1 -2 1 -1 0 -1 419 0M540 323l0 -1 27 0M567 323l0 -1 7 0M574 347l0 -25M574 347l1 9M575 365l0 -9M575 365l1 1"/>
<path stroke="blue" d="M576 366l103 0M679 371l0 -5M679 371l1 1M680 373l0 -1 6 0 0 -1 12 0 1 1 0 -1M699 372l13 0 0 -1 13 0M725 372l0 -1M725 372l7 0 0 -4M732 369l27 0M759 371l0 -2M759 371l6 0 0 -1 13 0M778 371l0 -1M778 371l13 0 0 -1 13 0M804 371l0 -1"/>
<path stroke="blue" d="M804 370l1 0M805 371l0 -1M805 371l114 0M919 372l0 -18 1 -2 0 -14 1 -4 0 -7 1 0 0 -3 1 0 0 -2 13 0M936 323l0 -1 14 0 0 -1M950 322l24 0"/>
<path stroke="#FFA500" d="M462 39l46 0"/>
<text stroke="none" fill="white" font-size="16" x="518" y="48">
x1.vsampled_p-x1.vsampled_n
</text>
<path stroke="#FFA500" d="M50 459l2 0 1 1 1 0 0 -1 63 0M117 471l0 -12M117 471l1 23M118 532l0 -38M118 532l1 8M119 550l0 -10M119 550l1 3 1 2M121 556l0 -1M121 556l1 1 418 0 0 -1M540 557l6 0 0 -22 1 -3 0 -27 1 -4 0 -7 1 -1 0 -1 1 -1 17 0M567 492l0 -2"/>
<path stroke="#FFA500" d="M567 491l7 0 0 -25 1 -9 0 -9 1 0 0 -1 24 0M600 467l0 -20M600 467l1 3M601 475l0 -5M601 472l1 -1 0 -1 1 -1 22 0 0 -4 1 -5 0 -11 2 0 1 1 4 0 0 -1M633 450l20 0M653 462l0 -12M653 462l1 1 0 -1 1 -1 24 0 0 -5 1 -1 0 -1M680 455l26 0"/>
<path stroke="#FFA500" d="M706 459l0 -4M706 459l1 0 0 -1 25 0M732 461l0 -3M732 461l1 -1 18 0M751 461l0 -1 8 0 0 -2M759 459l31 0M790 460l0 -1M790 460l22 0 0 -1 26 0 0 -1M838 459l81 0M919 503l0 -45M919 503l1 5M920 539l0 -31M920 539l1 7M921 553l0 -7"/>
<path stroke="#FFA500" d="M921 553l1 0M922 556l0 -3M922 556l1 0M923 557l0 -1M923 557l13 0 0 -1M936 557l38 0"/>
<path stroke="green" d="M50 39l46 0"/>
<text stroke="none" fill="white" font-size="16" x="106" y="48">
x1.sw_sample-2
</text>
<path stroke="green" d="M50 655l1 0 1 -10 0 -23 1 -21M53 619l0 -25M53 619l1 33M54 655l0 -3M54 655l63 0M117 662l0 -184 1 0M118 479l0 -1M118 479l421 0M539 656l0 -184M539 655l422 0M961 660l0 -182 1 0M962 479l0 -1M962 479l12 0"/>
<path stroke="#FFC0C5" d="M462 55l46 0"/>
<text stroke="none" fill="white" font-size="16" x="518" y="64">
x1.comp_out_p+2
</text>
<path stroke="#FFC0C5" d="M50 263l1 0 1 -10 0 -23 1 -20 0 -4M53 209l1 4M54 264l0 -51M54 262l1 1 539 0 0 -178 1 1M595 87l0 -1M595 87l13 0M608 264l0 -185M608 263l39 0 0 -178M647 87l14 0M661 264l0 -181M661 263l39 0 0 -178M700 87l13 0 0 -10 1 169"/>
<path stroke="#FFC0C5" d="M714 263l0 -17M714 263l13 0 0 -163 1 -14M728 87l0 -1M728 87l12 0M740 263l0 -185M740 263l44 0M784 265l0 -179M784 87l9 0M793 263l0 -185M793 263l68 0 1 -169 0 -8M862 87l10 0M872 263l0 -186M872 263l16 0 0 -177M888 87l10 0"/>
<path stroke="#FFC0C5" d="M898 263l0 -186M898 263l16 0 0 -169 1 -8M915 87l0 -1M915 87l10 0M925 264l0 -179M925 263l49 0"/>
<path stroke="#A52A2A" d="M50 55l46 0"/>
<text stroke="none" fill="white" font-size="16" x="106" y="64">
x1.comp_out_n-2
</text>
<path stroke="#A52A2A" d="M50 655l1 0 1 -10 0 -24 1 -20M53 602l0 -3M53 602l1 7M54 655l0 -46M54 655l487 0 1 2 0 -181M542 479l13 0M555 655l0 -186M555 655l13 0M568 656l0 -180M568 479l13 0 1 -9M582 656l0 -186M582 655l39 0M621 656l0 -180M621 479l13 0"/>
<path stroke="#A52A2A" d="M634 655l0 -186M634 655l39 0 1 3 0 -182M674 479l13 0M687 655l0 -186M687 655l66 0 0 -178M753 479l13 0M766 655l0 -184M766 655l41 0 0 -177M807 479l12 0M819 655l0 -187M819 655l14 0 1 -170 0 -7M834 479l11 0 0 -9 1 166M846 655l0 -19"/>
<path stroke="#A52A2A" d="M846 655l91 0 0 -13 1 -142 0 -23M938 479l13 0M951 655l0 -186M951 655l23 0"/>
</svg>
