<?xml version="1.0" standalone="yes"?>
<!DOCTYPE svg PUBLIC "-//W3C//DTD SVG 1.1//EN"
 "http://www.w3.org/Graphics/SVG/1.1/DTD/svg11.dtd">
<svg xmlns="http://www.w3.org/2000/svg" version="1.1"
  width="100%" height="100%" viewBox="0 0 1024 768"
  style="fill: none; font-family: Helvetica;
 font: Helvetica;
">

<!-- Creator: NGspice -->

<rect x="0" y="0" width="1024" height="768" fill="black" stroke="none"/>
<text stroke="none" fill="white" font-size="16" x="358" y="752">
time
</text>
<text stroke="none" fill="white" font-size="16" x="10" y="16">
tran1: run455_vin-0.499659
</text>
<path stroke="white" d="M50 704l0 -637"/>
<text stroke="none" fill="white" font-size="16" x="35" y="728">
0.0
</text>
<path stroke="white" stroke-dasharray="1,2" d="M182 704l0 -637"/>
<text stroke="none" fill="white" font-size="16" x="157" y="728">
100.0
</text>
<path stroke="white" stroke-dasharray="1,2" d="M314 704l0 -637"/>
<text stroke="none" fill="white" font-size="16" x="289" y="728">
200.0
</text>
<path stroke="white" stroke-dasharray="1,2" d="M446 704l0 -637"/>
<text stroke="none" fill="white" font-size="16" x="421" y="728">
300.0
</text>
<path stroke="white" stroke-dasharray="1,2" d="M578 704l0 -637"/>
<text stroke="none" fill="white" font-size="16" x="553" y="728">
400.0
</text>
<path stroke="white" stroke-dasharray="1,2" d="M710 704l0 -637"/>
<text stroke="none" fill="white" font-size="16" x="685" y="728">
500.0
</text>
<path stroke="white" stroke-dasharray="1,2" d="M842 704l0 -637"/>
<text stroke="none" fill="white" font-size="16" x="817" y="728">
600.0
</text>
<path stroke="white" stroke-dasharray="1,2" d="M974 704l0 -637"/>
<text stroke="none" fill="white" font-size="16" x="949" y="728">
700.0
</text>
<text stroke="none" fill="white" font-size="16" x="614" y="752">
ns
</text>
<path stroke="white" stroke-dasharray="1,2" d="M50 704l924 0"/>
<text stroke="none" fill="white" font-size="16" x="8" y="712">
-3.0
</text>
<path stroke="white" stroke-dasharray="1,2" d="M50 613l924 0"/>
<text stroke="none" fill="white" font-size="16" x="8" y="621">
-2.0
</text>
<path stroke="white" stroke-dasharray="1,2" d="M50 522l924 0"/>
<text stroke="none" fill="white" font-size="16" x="8" y="530">
-1.0
</text>
<path stroke="white" d="M50 431l924 0"/>
<text stroke="none" fill="white" font-size="16" x="18" y="439">
0.0
</text>
<path stroke="white" stroke-dasharray="1,2" d="M50 340l924 0"/>
<text stroke="none" fill="white" font-size="16" x="18" y="348">
1.0
</text>
<path stroke="white" stroke-dasharray="1,2" d="M50 249l924 0"/>
<text stroke="none" fill="white" font-size="16" x="18" y="257">
2.0
</text>
<path stroke="white" stroke-dasharray="1,2" d="M50 158l924 0"/>
<text stroke="none" fill="white" font-size="16" x="18" y="166">
3.0
</text>
<path stroke="white" stroke-dasharray="1,2" d="M50 67l924 0"/>
<text stroke="none" fill="white" font-size="16" x="18" y="75">
4.0
</text>
<text stroke="none" fill="white" font-size="16" x="10" y="32">
     
</text>
<path stroke="red" d="M462 23l46 0"/>
<text stroke="none" fill="white" font-size="16" x="518" y="32">
x1.vsampled_p
</text>
<path stroke="red" d="M50 431l1 0 1 -7 0 -15 1 -14 0 -5 1 2M54 415l0 -40 1 -4 0 -14 1 -2 0 -3 2 -2 1 0 1 -1 3 0 1 1 4 0 1 -1 48 0M117 359l0 -10M117 359l1 12M118 385l0 -14M118 385l1 3M119 392l0 -4M119 392l2 2 2 0M123 395l0 -1M123 395l418 0 0 -1"/>
<path stroke="red" d="M541 395l5 0 0 -23 1 -3 0 -26 1 -2 0 -5 1 -1 0 -1 2 0 0 -1 15 0 1 1 0 -1 26 0M593 334l0 -1 7 0M600 353l0 -20M600 353l1 4M601 360l0 -3M601 358l1 -2 0 -2 23 0 0 -1 1 -4 0 -14 2 0M628 336l0 -1M628 336l5 0 0 -1M633 336l13 0"/>
<path stroke="red" d="M646 337l0 -1 7 0M653 349l0 -13M653 349l1 -1 0 -1 1 0 0 -1 17 0M672 347l0 -1 27 0M699 347l0 -1 7 0M706 350l0 -4M706 350l1 -1 5 0 0 -1M712 349l26 0 0 -1M738 349l27 0 0 -1M765 349l21 0M786 350l0 -1 18 0M804 350l0 -1 26 0 1 1"/>
<path stroke="red" d="M831 350l0 -1 87 0M918 376l0 -27M918 376l1 2M919 391l0 -13M919 391l1 4M920 397l0 -2M920 397l1 -1 0 -1 41 0 0 -1M962 395l12 0"/>
<path stroke="blue" d="M50 23l46 0"/>
<text stroke="none" fill="white" font-size="16" x="106" y="32">
x1.vsampled_n
</text>
<path stroke="blue" d="M50 431l1 0 1 -7 0 -15 1 -15 0 -4 1 1M54 414l0 -39 1 -4 0 -14 1 -2 0 -3 2 -2 1 0 1 -1 3 0 1 1 4 0 1 -1 48 0 0 -1 1 -10 0 -20 1 -5 0 -6 2 -2 0 -1 419 0M540 305l0 -1 14 0 0 -1M554 304l13 0M567 305l0 -1 7 0M574 326l0 -22M574 326l1 8"/>
<path stroke="blue" d="M575 343l0 -9M575 343l1 1M576 345l0 -1M576 345l4 0 0 -1M580 345l53 0 0 -1M633 345l46 0M679 349l0 -4M679 349l1 1M680 351l0 -1 52 0 0 -3 1 1 5 0 0 -1 1 1 20 0M759 350l0 -2M759 349l53 0M812 350l0 -1M812 350l1 0 0 -1 18 0M831 350l0 -1"/>
<path stroke="blue" d="M831 349l26 0M857 350l0 -1 26 0M883 350l0 -1 27 0M910 350l0 -1 8 0M918 350l0 -18 1 -2 0 -10 1 -4 0 -6 1 -2 0 -2 1 0 0 -2 14 0M936 305l0 -1 14 0 0 -1M950 304l24 0"/>
<path stroke="#FFA500" d="M462 39l46 0"/>
<text stroke="none" fill="white" font-size="16" x="518" y="48">
x1.vsampled_p-x1.vsampled_n
</text>
<path stroke="#FFA500" d="M50 431l2 0 1 1 1 0 0 -1 63 0M117 442l0 -11M117 442l1 22M118 498l0 -34M118 498l1 8M119 516l0 -10M119 516l2 4M121 521l0 -1M121 521l1 1 418 0 0 -1M540 522l6 0 0 -23 1 -3 0 -26 1 -2 0 -5 1 -1 0 -1 4 0 0 -1 1 0M554 461l0 -1"/>
<path stroke="#FFA500" d="M554 461l12 0 1 -1M567 461l0 -1 1 0M568 461l0 -1 6 0M574 461l0 -22 1 -9 0 -9 1 -1 4 0 0 -1M580 420l20 0M600 439l0 -19M600 439l1 4M601 446l0 -3M601 444l1 -2 0 -2 23 0 0 -1 1 -4 0 -14 1 0 1 1 18 0M646 423l0 -1 7 0M653 435l0 -13"/>
<path stroke="#FFA500" d="M653 435l1 0 0 -2 1 0 0 -1 17 0M672 433l0 -1 7 0M679 433l0 -5 1 -1 0 -1M680 427l19 0M699 428l0 -1 7 0M706 431l0 -4M706 431l1 -1 25 0M732 433l0 -3M732 432l27 0 0 -2M759 431l27 0M786 432l0 -1M786 432l1 0 0 -1 17 0M804 432l0 -1"/>
<path stroke="#FFA500" d="M804 431l34 0 0 -1M838 431l80 0M918 474l0 -44M918 474l1 5M919 503l0 -24M919 503l1 7M920 517l0 -7M920 517l1 2M921 521l0 -2M921 521l2 0M923 522l0 -1M923 522l13 0 0 -1M936 522l38 0"/>
<path stroke="green" d="M50 39l46 0"/>
<text stroke="none" fill="white" font-size="16" x="106" y="48">
x1.sw_sample-2
</text>
<path stroke="green" d="M50 613l1 0 1 -9 0 -21 1 -21M53 580l0 -24M53 580l1 30M54 613l0 -3M54 613l63 0M117 620l0 -172M117 449l422 0M539 614l0 -171M539 613l422 0M961 618l0 -170 1 1 12 0"/>
<path stroke="#FFC0C5" d="M462 55l46 0"/>
<text stroke="none" fill="white" font-size="16" x="518" y="64">
x1.comp_out_p+2
</text>
<path stroke="#FFC0C5" d="M50 249l1 0 1 -9 0 -22 1 -18 0 -4M53 198l1 5M54 250l0 -47M54 248l1 1 539 0 0 -165 1 1 13 0M608 249l0 -173M608 249l39 0 0 -166M647 85l14 0M661 250l0 -171M661 249l39 0 0 -165M700 85l13 0 1 -8M714 250l0 -173M714 249l13 0"/>
<path stroke="#FFC0C5" d="M727 249l0 -148 1 -16 0 -1M728 85l12 0M740 249l0 -172M740 249l40 0 0 -165 1 0M781 85l0 -1M781 85l12 0M793 250l0 -174M793 249l67 0 0 -164 12 0M872 249l0 -174M872 249l14 0 0 -148 1 -16 0 -1M887 85l11 0M898 249l0 -174M898 249l15 0"/>
<path stroke="#FFC0C5" d="M913 249l0 -165M913 85l12 0M925 250l0 -171M925 249l49 0"/>
<path stroke="#A52A2A" d="M50 55l46 0"/>
<text stroke="none" fill="white" font-size="16" x="106" y="64">
x1.comp_out_n-2
</text>
<path stroke="#A52A2A" d="M50 613l1 0 1 -9 0 -22 1 -19M53 564l0 -3M53 564l1 6M54 613l0 -43M54 613l487 0 1 2 0 -168M542 449l13 0M555 613l0 -173M555 613l13 0M568 615l0 -168M568 449l13 0 1 -7M582 614l0 -172M582 613l39 0M621 614l0 -166M621 449l13 0"/>
<path stroke="#A52A2A" d="M634 613l0 -173M634 613l40 0M674 618l0 -171M674 449l13 0M687 613l0 -173M687 613l66 0 0 -165M753 449l13 0M766 613l0 -173M766 613l41 0 0 -165M807 449l12 0M819 613l0 -166M819 613l15 0 0 -164 11 0 0 -10 1 153M846 613l0 -21"/>
<path stroke="#A52A2A" d="M846 613l91 0 0 -19 1 -126 0 -21M938 449l13 0M951 613l0 -173M951 613l23 0"/>
</svg>
