<?xml version="1.0" standalone="yes"?>
<!DOCTYPE svg PUBLIC "-//W3C//DTD SVG 1.1//EN"
 "http://www.w3.org/Graphics/SVG/1.1/DTD/svg11.dtd">
<svg xmlns="http://www.w3.org/2000/svg" version="1.1"
  width="100%" height="100%" viewBox="0 0 1024 768"
  style="fill: none; font-family: Helvetica;
 font: Helvetica;
">

<!-- Creator: NGspice -->

<rect x="0" y="0" width="1024" height="768" fill="black" stroke="none"/>
<text stroke="none" fill="white" font-size="16" x="358" y="752">
time
</text>
<text stroke="none" fill="white" font-size="16" x="10" y="16">
tran1: run1834_vin0.712351
</text>
<path stroke="white" d="M50 704l0 -637"/>
<text stroke="none" fill="white" font-size="16" x="35" y="728">
0.0
</text>
<path stroke="white" stroke-dasharray="1,2" d="M182 704l0 -637"/>
<text stroke="none" fill="white" font-size="16" x="157" y="728">
100.0
</text>
<path stroke="white" stroke-dasharray="1,2" d="M314 704l0 -637"/>
<text stroke="none" fill="white" font-size="16" x="289" y="728">
200.0
</text>
<path stroke="white" stroke-dasharray="1,2" d="M446 704l0 -637"/>
<text stroke="none" fill="white" font-size="16" x="421" y="728">
300.0
</text>
<path stroke="white" stroke-dasharray="1,2" d="M578 704l0 -637"/>
<text stroke="none" fill="white" font-size="16" x="553" y="728">
400.0
</text>
<path stroke="white" stroke-dasharray="1,2" d="M710 704l0 -637"/>
<text stroke="none" fill="white" font-size="16" x="685" y="728">
500.0
</text>
<path stroke="white" stroke-dasharray="1,2" d="M842 704l0 -637"/>
<text stroke="none" fill="white" font-size="16" x="817" y="728">
600.0
</text>
<path stroke="white" stroke-dasharray="1,2" d="M974 704l0 -637"/>
<text stroke="none" fill="white" font-size="16" x="949" y="728">
700.0
</text>
<text stroke="none" fill="white" font-size="16" x="614" y="752">
ns
</text>
<path stroke="white" stroke-dasharray="1,2" d="M50 704l924 0"/>
<text stroke="none" fill="white" font-size="16" x="8" y="712">
-3.0
</text>
<path stroke="white" stroke-dasharray="1,2" d="M50 613l924 0"/>
<text stroke="none" fill="white" font-size="16" x="8" y="621">
-2.0
</text>
<path stroke="white" stroke-dasharray="1,2" d="M50 522l924 0"/>
<text stroke="none" fill="white" font-size="16" x="8" y="530">
-1.0
</text>
<path stroke="white" d="M50 431l924 0"/>
<text stroke="none" fill="white" font-size="16" x="18" y="439">
0.0
</text>
<path stroke="white" stroke-dasharray="1,2" d="M50 340l924 0"/>
<text stroke="none" fill="white" font-size="16" x="18" y="348">
1.0
</text>
<path stroke="white" stroke-dasharray="1,2" d="M50 249l924 0"/>
<text stroke="none" fill="white" font-size="16" x="18" y="257">
2.0
</text>
<path stroke="white" stroke-dasharray="1,2" d="M50 158l924 0"/>
<text stroke="none" fill="white" font-size="16" x="18" y="166">
3.0
</text>
<path stroke="white" stroke-dasharray="1,2" d="M50 67l924 0"/>
<text stroke="none" fill="white" font-size="16" x="18" y="75">
4.0
</text>
<text stroke="none" fill="white" font-size="16" x="10" y="32">
     
</text>
<path stroke="red" d="M462 23l46 0"/>
<text stroke="none" fill="white" font-size="16" x="518" y="32">
x1.vsampled_p
</text>
<path stroke="red" d="M50 431l1 0 1 -7 0 -15 1 -15 0 -5 1 2M54 414l0 -38 1 -4 0 -14 1 -3 0 -2 1 -2 0 -1 2 0 1 -1 3 0 1 1 5 0 0 -1 48 0 0 -1 1 -11 0 -33 1 -5 0 -9 2 -4 0 -1 1 0 0 -1 417 0M539 285l0 -1M539 285l1 0M540 286l0 -2M540 285l14 0 0 -1"/>
<path stroke="red" d="M554 284l12 0 1 1M567 286l0 -1 7 0M574 309l0 -24M574 309l1 7M575 324l0 -8M575 324l1 2 2 0 0 -1 15 0M593 326l0 -1 7 0M600 340l0 -15M600 340l1 3M601 347l0 -4M601 346l105 0M706 349l0 -3M706 349l1 0 0 -1 18 0M725 349l0 -1 26 0"/>
<path stroke="red" d="M751 349l0 -1M751 349l1 0 0 -1 26 0M778 349l0 -1 7 0M785 349l0 -1M785 349l28 0M813 350l0 -1 17 0 1 1 0 -1 86 0 1 1 0 -45 1 -2 0 -11 1 -2 0 -2 1 -1 0 -2 2 0 0 -1 13 0M936 286l0 -2M936 285l14 0 0 -1 24 0"/>
<path stroke="blue" d="M50 23l46 0"/>
<text stroke="none" fill="white" font-size="16" x="106" y="32">
x1.vsampled_n
</text>
<path stroke="blue" d="M50 431l1 0 1 -7 0 -15 1 -14 0 -5 1 2M54 414l0 -38 1 -4 0 -14 1 -3 0 -2 1 -2 0 -1 2 0 1 -1 3 0 1 1 4 0 1 -1 48 0M117 367l0 -18M117 367l1 16M118 403l0 -20M118 403l1 3M119 411l0 -5M119 411l3 3 424 0 0 -22 1 -2 0 -26 1 -6"/>
<path stroke="blue" d="M548 358l1 -3 0 -2 5 0 0 -1M554 353l26 0 0 -1M580 353l45 0 0 -1 1 -7 0 -11 1 0 1 1 5 0 0 -1M633 335l13 0M646 336l0 -1 7 0M653 346l0 -11M653 346l1 2 0 -2 1 0 0 -1 17 0M672 346l0 -1 7 0M679 351l0 -6M679 351l1 1M680 354l0 -3"/>
<path stroke="blue" d="M680 351l1 -1 18 0M699 351l0 -1 26 0M725 351l0 -1 7 0 0 -4M732 348l27 0M759 351l0 -3M759 350l1 -1 18 0M778 350l0 -1 26 0M804 350l0 -1 27 0M831 350l0 -1 26 0M857 350l0 -1 26 0M883 350l0 -1M883 350l1 -1 26 0M910 350l0 -1"/>
<path stroke="blue" d="M910 349l8 0M918 417l0 -68M918 417l1 1M919 419l0 -1 1 -1 0 -1 1 -1 0 -1 53 0"/>
<path stroke="#FFA500" d="M462 39l46 0"/>
<text stroke="none" fill="white" font-size="16" x="518" y="48">
x1.vsampled_p-x1.vsampled_n
</text>
<path stroke="#FFA500" d="M50 431l2 0 0 -1 2 0M54 431l0 -1M54 431l63 0 0 -19 1 -27 0 -53 1 -8 0 -13 1 -4 1 -3 0 -1 2 -2 416 0M539 302l0 -1M539 302l1 -1M540 302l0 -1M540 302l6 0M546 323l0 -21M546 323l1 3M547 352l0 -26M547 352l1 6 1 3M549 362l0 -1"/>
<path stroke="#FFA500" d="M549 362l1 1 4 0 0 -1M554 363l13 0M567 364l0 -1 7 0M574 387l0 -24M574 387l1 7M575 402l0 -8M575 402l1 2 17 0 0 -1M593 404l7 0M600 418l0 -14M600 418l1 3M601 425l0 -4M601 425l1 -1 23 0M625 425l0 -1M625 425l1 7M626 443l0 -11"/>
<path stroke="#FFA500" d="M626 443l1 0 1 -1 18 0 0 -1M646 442l7 0 0 -12 1 -1M654 431l0 -2M654 431l1 0M655 432l0 -1M655 432l24 0 0 -6 1 -1M680 426l0 -3M680 426l1 0M681 427l0 -1M681 427l18 0 0 -1M699 427l7 0M706 430l0 -3M706 430l1 -1 25 0M732 433l0 -4"/>
<path stroke="#FFA500" d="M732 432l1 0 0 -1 5 0M738 432l0 -1M738 432l1 0 0 -1 13 0M752 432l0 -1 7 0M759 432l0 -4M759 430l26 0M785 431l0 -1M785 431l28 0M813 432l0 -1 105 0 0 -112 1 -4 0 -10 1 -1 0 -1 1 -1 2 0 0 -1 13 0M936 303l0 -2M936 302l14 0"/>
<path stroke="#FFA500" d="M950 302l0 -1 24 0"/>
<path stroke="green" d="M50 39l46 0"/>
<text stroke="none" fill="white" font-size="16" x="106" y="48">
x1.sw_sample-2
</text>
<path stroke="green" d="M50 613l1 0 1 -9 0 -21 1 -21M53 579l0 -23M53 579l1 31M54 613l0 -3M54 613l63 0M117 620l0 -172M117 449l422 0M539 614l0 -172M539 613l422 0M961 618l0 -170 1 1 12 0"/>
<path stroke="#FFC0C5" d="M462 55l46 0"/>
<text stroke="none" fill="white" font-size="16" x="518" y="64">
x1.comp_out_p+2
</text>
<path stroke="#FFC0C5" d="M50 249l1 0 1 -9 0 -22 1 -18 0 -4M53 198l1 5M54 249l0 -46M54 248l1 1 487 0 0 -165M542 85l13 0M555 250l0 -170M555 249l13 0 0 -166M568 85l13 0 0 -8 1 150M582 249l0 -22M582 249l12 0M594 251l0 -168M594 85l14 0M608 250l0 -171"/>
<path stroke="#FFC0C5" d="M608 249l13 0M621 255l0 -172M621 85l13 0M634 249l0 -172M634 249l66 0M700 254l0 -171M700 85l13 0 0 -8 1 162M714 250l0 -11M714 249l13 0 0 -165M727 85l13 0M740 250l0 -173M740 249l40 0 0 -165M780 85l13 0M793 249l0 -174M793 249l14 0"/>
<path stroke="#FFC0C5" d="M807 249l0 -164 1 -1M808 85l0 -1M808 85l11 0M819 249l0 -168M819 249l41 0 0 -165M860 85l12 0M872 249l0 -174M872 249l14 0 0 -151 1 -13 0 -1M887 85l11 0M898 249l0 -174M898 249l15 0 0 -165M913 85l12 0M925 249l0 -172M925 249l12 0"/>
<path stroke="#FFC0C5" d="M937 250l0 -1M937 250l1 -79 0 -87M938 85l13 0M951 249l0 -172M951 249l23 0"/>
<path stroke="#A52A2A" d="M50 55l46 0"/>
<text stroke="none" fill="white" font-size="16" x="106" y="64">
x1.comp_out_n-2
</text>
<path stroke="#A52A2A" d="M50 613l1 0 1 -9 0 -22 1 -19M53 564l0 -3M53 564l1 6M54 614l0 -44M54 606l1 6M55 613l0 -1M55 613l592 0 0 -166M647 449l14 0M661 613l0 -173M661 613l13 0 0 -165M674 449l13 0M687 613l0 -173M687 613l66 0 0 -164 1 -1M754 449l0 -1"/>
<path stroke="#A52A2A" d="M754 449l12 0M766 613l0 -166M766 613l67 0 1 -158 0 -7M834 449l11 0 0 -2M845 448l1 154M846 613l0 -11M846 613l128 0"/>
</svg>
