<?xml version="1.0" standalone="yes"?>
<!DOCTYPE svg PUBLIC "-//W3C//DTD SVG 1.1//EN"
 "http://www.w3.org/Graphics/SVG/1.1/DTD/svg11.dtd">
<svg xmlns="http://www.w3.org/2000/svg" version="1.1"
  width="100%" height="100%" viewBox="0 0 1024 768"
  style="fill: none; font-family: Helvetica;
 font: Helvetica;
">

<!-- Creator: NGspice -->

<rect x="0" y="0" width="1024" height="768" fill="black" stroke="none"/>
<text stroke="none" fill="white" font-size="16" x="358" y="752">
time
</text>
<text stroke="none" fill="white" font-size="16" x="10" y="16">
tran1: run1836_vin0.714109
</text>
<path stroke="white" d="M50 704l0 -637"/>
<text stroke="none" fill="white" font-size="16" x="35" y="728">
0.0
</text>
<path stroke="white" stroke-dasharray="1,2" d="M182 704l0 -637"/>
<text stroke="none" fill="white" font-size="16" x="157" y="728">
100.0
</text>
<path stroke="white" stroke-dasharray="1,2" d="M314 704l0 -637"/>
<text stroke="none" fill="white" font-size="16" x="289" y="728">
200.0
</text>
<path stroke="white" stroke-dasharray="1,2" d="M446 704l0 -637"/>
<text stroke="none" fill="white" font-size="16" x="421" y="728">
300.0
</text>
<path stroke="white" stroke-dasharray="1,2" d="M578 704l0 -637"/>
<text stroke="none" fill="white" font-size="16" x="553" y="728">
400.0
</text>
<path stroke="white" stroke-dasharray="1,2" d="M710 704l0 -637"/>
<text stroke="none" fill="white" font-size="16" x="685" y="728">
500.0
</text>
<path stroke="white" stroke-dasharray="1,2" d="M842 704l0 -637"/>
<text stroke="none" fill="white" font-size="16" x="817" y="728">
600.0
</text>
<path stroke="white" stroke-dasharray="1,2" d="M974 704l0 -637"/>
<text stroke="none" fill="white" font-size="16" x="949" y="728">
700.0
</text>
<text stroke="none" fill="white" font-size="16" x="614" y="752">
ns
</text>
<path stroke="white" stroke-dasharray="1,2" d="M50 704l924 0"/>
<text stroke="none" fill="white" font-size="16" x="8" y="712">
-3.0
</text>
<path stroke="white" stroke-dasharray="1,2" d="M50 613l924 0"/>
<text stroke="none" fill="white" font-size="16" x="8" y="621">
-2.0
</text>
<path stroke="white" stroke-dasharray="1,2" d="M50 522l924 0"/>
<text stroke="none" fill="white" font-size="16" x="8" y="530">
-1.0
</text>
<path stroke="white" d="M50 431l924 0"/>
<text stroke="none" fill="white" font-size="16" x="18" y="439">
0.0
</text>
<path stroke="white" stroke-dasharray="1,2" d="M50 340l924 0"/>
<text stroke="none" fill="white" font-size="16" x="18" y="348">
1.0
</text>
<path stroke="white" stroke-dasharray="1,2" d="M50 249l924 0"/>
<text stroke="none" fill="white" font-size="16" x="18" y="257">
2.0
</text>
<path stroke="white" stroke-dasharray="1,2" d="M50 158l924 0"/>
<text stroke="none" fill="white" font-size="16" x="18" y="166">
3.0
</text>
<path stroke="white" stroke-dasharray="1,2" d="M50 67l924 0"/>
<text stroke="none" fill="white" font-size="16" x="18" y="75">
4.0
</text>
<text stroke="none" fill="white" font-size="16" x="10" y="32">
     
</text>
<path stroke="red" d="M462 23l46 0"/>
<text stroke="none" fill="white" font-size="16" x="518" y="32">
x1.vsampled_p
</text>
<path stroke="red" d="M50 431l1 0 1 -7 0 -15 1 -15 0 -5 1 2M54 414l0 -38 1 -4 0 -14 1 -3 0 -2 1 -2 0 -1 2 0 1 -1 3 0 1 1 5 0 0 -1 48 0 0 -1 1 -11 0 -34 1 -4 0 -9 2 -4 0 -1 1 -1 418 0M540 285l0 -1M540 285l1 -1M541 285l0 -1 25 0 1 1M567 286l0 -2"/>
<path stroke="red" d="M567 284l6 0 1 5M574 313l0 -24M574 313l1 9 1 3 17 0M593 326l0 -1 7 0M600 342l0 -17M600 342l1 3M601 347l0 -2M601 346l5 0 0 -1M606 346l27 0 0 -1M633 346l26 0 0 -1M659 346l27 0 0 -1M686 346l20 0M706 349l0 -3M706 349l1 0 0 -1"/>
<path stroke="red" d="M707 348l18 0M725 349l0 -1 26 0M751 349l0 -1 27 0M778 349l0 -1 7 0M785 349l0 -1M785 349l27 0M812 350l0 -1 106 0 0 -29 1 -2 0 -23 1 -2 0 -4 1 -2 0 -2 2 0 0 -1 13 0M936 286l0 -2M936 285l1 0 0 -1 37 0"/>
<path stroke="blue" d="M50 23l46 0"/>
<text stroke="none" fill="white" font-size="16" x="106" y="32">
x1.vsampled_n
</text>
<path stroke="blue" d="M50 431l1 0 1 -7 0 -15 1 -14 0 -5 1 2M54 414l0 -38 1 -4 0 -14 1 -3 0 -2 1 -2 0 -1 2 0 1 -1 3 0 1 1 4 0 1 -1 48 0M117 367l0 -18M117 367l1 16M118 403l0 -20M118 403l1 3M119 411l0 -5M119 411l2 2M121 414l0 -1M121 414l425 0 0 -24"/>
<path stroke="blue" d="M546 390l1 -2 0 -22 1 -7 0 -4 2 -2 75 0 0 -7 1 -5 0 -7 1 0M627 335l0 -1M627 335l6 0 0 -1M633 335l13 0M646 336l0 -1 7 0M653 346l0 -11M653 346l1 2 0 -2 1 0 0 -1 17 0M672 346l0 -1 7 0M679 351l0 -6M679 351l1 1M680 354l0 -3"/>
<path stroke="blue" d="M680 351l1 0 0 -1 17 0 1 1 0 -1 26 0M725 351l0 -1 6 0 0 -2 1 -1M732 348l0 -2M732 348l19 0M751 349l0 -1 8 0M759 351l0 -3M759 350l1 0 0 -1 18 0M778 350l0 -1 26 0M804 350l0 -1 26 0 1 1 0 -1 26 0M857 350l0 -1 26 0M883 350l0 -1"/>
<path stroke="blue" d="M883 349l27 0M910 350l0 -1 8 0M918 399l0 -50M918 399l1 4M919 419l0 -16M919 419l1 -1 0 -1 1 -1 0 -1 1 0 0 -1 52 0"/>
<path stroke="#FFA500" d="M462 39l46 0"/>
<text stroke="none" fill="white" font-size="16" x="518" y="48">
x1.vsampled_p-x1.vsampled_n
</text>
<path stroke="#FFA500" d="M50 431l2 0 0 -1 2 0M54 431l0 -1M54 431l63 0 0 -19 1 -27 0 -54 1 -7 0 -14 2 -6 0 -2 1 0 0 -1 418 0M540 302l0 -1 6 0M546 325l0 -24M546 325l1 3M547 350l0 -22M547 350l1 6M548 360l0 -4M548 360l1 2 1 0 1 1 3 0 0 -1 12 0 1 1"/>
<path stroke="#FFA500" d="M567 364l0 -2M567 363l6 0 0 -1 1 5M574 391l0 -24M574 391l1 9 1 3M576 404l0 -1M576 404l1 0 1 -1 15 0M593 404l0 -1 7 0M600 420l0 -17M600 420l1 3M601 425l0 -2M601 424l24 0M625 431l0 -7M625 431l1 4M626 443l0 -8M626 443l1 0"/>
<path stroke="#FFA500" d="M627 443l0 -1 19 0 0 -1M646 442l7 0 0 -11 1 -2M654 430l0 -1M654 430l1 1 4 0M659 432l0 -1 13 0M672 432l0 -1 7 0M679 432l0 -7 1 -1M680 426l0 -3M680 426l26 0M706 429l0 -3M706 429l25 0M731 431l0 -2M731 431l1 1M732 433l0 -2"/>
<path stroke="#FFA500" d="M732 431l27 0 0 -3M759 430l26 0M785 431l0 -1M785 431l19 0 0 -1M804 431l8 0 0 -1M812 431l26 0M838 432l0 -1 80 0 0 -78 1 -7 0 -39 1 -2 0 -2 1 -1 1 0 0 -1 14 0M936 303l0 -2 38 0"/>
<path stroke="green" d="M50 39l46 0"/>
<text stroke="none" fill="white" font-size="16" x="106" y="48">
x1.sw_sample-2
</text>
<path stroke="green" d="M50 613l1 0 1 -9 0 -21 1 -21M53 579l0 -23M53 579l1 31M54 613l0 -3M54 613l63 0M117 620l0 -172M117 449l422 0M539 614l0 -171M539 613l422 0M961 618l0 -170 1 1 12 0"/>
<path stroke="#FFC0C5" d="M462 55l46 0"/>
<text stroke="none" fill="white" font-size="16" x="518" y="64">
x1.comp_out_p+2
</text>
<path stroke="#FFC0C5" d="M50 249l1 0 1 -9 0 -22 1 -18 0 -4M53 198l1 5M54 249l0 -46M54 248l1 1 487 0 0 -165M542 85l13 0M555 249l0 -174M555 249l13 0M568 250l0 -167M568 85l13 0 0 -8 1 149M582 249l0 -23M582 249l12 0M594 252l0 -168M594 85l14 0M608 249l0 -171"/>
<path stroke="#FFC0C5" d="M608 249l13 0M621 253l0 -169M621 85l13 0M634 249l0 -172M634 249l66 0M700 250l0 -167M700 85l13 0 0 -8 1 154M714 249l0 -18M714 249l13 0 0 -165M727 85l13 0M740 250l0 -172M740 249l40 0 0 -165M780 85l13 0M793 249l0 -172M793 249l13 0"/>
<path stroke="#FFC0C5" d="M806 249l1 -156 0 -9M807 85l12 0M819 249l0 -167M819 249l15 0 0 -164 11 0 0 -10 1 143M846 249l0 -31M846 249l91 0M937 250l0 -1M937 250l1 -86 0 -81M938 85l13 0M951 249l0 -172M951 249l23 0"/>
<path stroke="#A52A2A" d="M50 55l46 0"/>
<text stroke="none" fill="white" font-size="16" x="106" y="64">
x1.comp_out_n-2
</text>
<path stroke="#A52A2A" d="M50 613l1 0 1 -9 0 -22 1 -19M53 564l0 -3M53 564l1 6M54 614l0 -44M54 606l1 6M55 613l0 -1M55 613l592 0 0 -165M647 449l14 0M661 613l0 -173M661 613l13 0 0 -165M674 449l13 0M687 613l0 -173M687 613l66 0 0 -144 1 -19 0 -2M754 449l12 0"/>
<path stroke="#A52A2A" d="M766 613l0 -173M766 613l94 0 0 -165M860 449l12 0M872 613l0 -174M872 613l14 0 1 -150 0 -15M887 449l11 0M898 613l0 -174M898 613l15 0 0 -165M913 449l12 0M925 613l0 -172M925 613l49 0"/>
</svg>
