<?xml version="1.0" standalone="yes"?>
<!DOCTYPE svg PUBLIC "-//W3C//DTD SVG 1.1//EN"
 "http://www.w3.org/Graphics/SVG/1.1/DTD/svg11.dtd">
<svg xmlns="http://www.w3.org/2000/svg" version="1.1"
  width="100%" height="100%" viewBox="0 0 1024 768"
  style="fill: none; font-family: Helvetica;
 font: Helvetica;
">

<!-- Creator: NGspice -->

<rect x="0" y="0" width="1024" height="768" fill="black" stroke="none"/>
<text stroke="none" fill="white" font-size="16" x="358" y="752">
time
</text>
<text stroke="none" fill="white" font-size="16" x="10" y="16">
tran1: run1832_vin0.710593
</text>
<path stroke="white" d="M50 704l0 -637"/>
<text stroke="none" fill="white" font-size="16" x="35" y="728">
0.0
</text>
<path stroke="white" stroke-dasharray="1,2" d="M182 704l0 -637"/>
<text stroke="none" fill="white" font-size="16" x="157" y="728">
100.0
</text>
<path stroke="white" stroke-dasharray="1,2" d="M314 704l0 -637"/>
<text stroke="none" fill="white" font-size="16" x="289" y="728">
200.0
</text>
<path stroke="white" stroke-dasharray="1,2" d="M446 704l0 -637"/>
<text stroke="none" fill="white" font-size="16" x="421" y="728">
300.0
</text>
<path stroke="white" stroke-dasharray="1,2" d="M578 704l0 -637"/>
<text stroke="none" fill="white" font-size="16" x="553" y="728">
400.0
</text>
<path stroke="white" stroke-dasharray="1,2" d="M710 704l0 -637"/>
<text stroke="none" fill="white" font-size="16" x="685" y="728">
500.0
</text>
<path stroke="white" stroke-dasharray="1,2" d="M842 704l0 -637"/>
<text stroke="none" fill="white" font-size="16" x="817" y="728">
600.0
</text>
<path stroke="white" stroke-dasharray="1,2" d="M974 704l0 -637"/>
<text stroke="none" fill="white" font-size="16" x="949" y="728">
700.0
</text>
<text stroke="none" fill="white" font-size="16" x="614" y="752">
ns
</text>
<path stroke="white" stroke-dasharray="1,2" d="M50 704l924 0"/>
<text stroke="none" fill="white" font-size="16" x="8" y="712">
-3.0
</text>
<path stroke="white" stroke-dasharray="1,2" d="M50 613l924 0"/>
<text stroke="none" fill="white" font-size="16" x="8" y="621">
-2.0
</text>
<path stroke="white" stroke-dasharray="1,2" d="M50 522l924 0"/>
<text stroke="none" fill="white" font-size="16" x="8" y="530">
-1.0
</text>
<path stroke="white" d="M50 431l924 0"/>
<text stroke="none" fill="white" font-size="16" x="18" y="439">
0.0
</text>
<path stroke="white" stroke-dasharray="1,2" d="M50 340l924 0"/>
<text stroke="none" fill="white" font-size="16" x="18" y="348">
1.0
</text>
<path stroke="white" stroke-dasharray="1,2" d="M50 249l924 0"/>
<text stroke="none" fill="white" font-size="16" x="18" y="257">
2.0
</text>
<path stroke="white" stroke-dasharray="1,2" d="M50 158l924 0"/>
<text stroke="none" fill="white" font-size="16" x="18" y="166">
3.0
</text>
<path stroke="white" stroke-dasharray="1,2" d="M50 67l924 0"/>
<text stroke="none" fill="white" font-size="16" x="18" y="75">
4.0
</text>
<text stroke="none" fill="white" font-size="16" x="10" y="32">
     
</text>
<path stroke="red" d="M462 23l46 0"/>
<text stroke="none" fill="white" font-size="16" x="518" y="32">
x1.vsampled_p
</text>
<path stroke="red" d="M50 431l1 0 1 -7 0 -15 1 -15 0 -5 1 2M54 414l0 -38 1 -4 0 -14 1 -3 0 -2 1 -2 0 -1 2 0 1 -1 3 0 1 1 5 0 0 -1 48 0 0 -1 1 -11 0 -33 1 -5 0 -9 2 -4 0 -1 2 0 1 -1 415 0M539 285l0 -1M539 285l1 0M540 286l0 -1 14 0 0 -1M554 285l13 0"/>
<path stroke="red" d="M567 286l0 -1 7 0M574 307l0 -22M574 307l1 7M575 323l0 -9M575 323l1 3 4 0 0 -1M580 326l13 0 0 -1M593 326l7 0M600 339l0 -14M600 339l1 3M601 347l0 -5M601 347l1 -1 104 0M706 349l0 -3M706 349l6 0 0 -1M712 349l26 0 0 -1 1 0M739 349l0 -1"/>
<path stroke="red" d="M739 349l12 0 0 -1M751 349l14 0 0 -1M765 349l13 0 0 -1M778 349l8 0M786 350l0 -1 132 0 0 -30 1 -3 0 -21 1 -2 0 -4 1 -2 0 -1 1 0 0 -1 1 0 0 -1M923 285l13 0M936 286l0 -1 14 0 0 -1M950 285l12 0 0 -1 12 0"/>
<path stroke="blue" d="M50 23l46 0"/>
<text stroke="none" fill="white" font-size="16" x="106" y="32">
x1.vsampled_n
</text>
<path stroke="blue" d="M50 431l1 0 1 -7 0 -15 1 -14 0 -5 1 2M54 414l0 -38 1 -4 0 -14 1 -3 0 -2 1 -2 0 -1 2 0 1 -1 3 0 1 1 4 0 1 -1 48 0M117 367l0 -18M117 367l1 16M118 403l0 -20M118 403l1 3M119 410l0 -4M119 410l1 2 2 2 424 0 0 -20 1 -3 0 -29 1 -6"/>
<path stroke="blue" d="M548 356l1 -2 0 -1 5 0 0 -1 1 0M555 353l0 -1M555 353l11 0 0 -1M566 353l1 0 0 -1M567 353l13 0 0 -1M580 353l13 0 0 -1M593 353l13 0 0 -1 1 0M607 353l0 -1M607 353l12 0 0 -1M619 353l1 0 0 -1M620 353l5 0 0 -1 1 -4 0 -14 2 0M628 335l0 -1"/>
<path stroke="blue" d="M628 335l5 0 0 -1M633 335l13 0M646 336l0 -1 7 0M653 345l0 -10M653 345l1 2M654 348l0 -2 1 0 0 -1 24 0M679 351l0 -6M679 351l1 1M680 353l0 -2 1 -1 51 0 0 -4M732 347l1 1 5 0 0 -1M738 348l21 0M759 351l0 -3M759 349l19 0M778 350l0 -1"/>
<path stroke="blue" d="M778 349l26 0M804 350l0 -1 9 0M813 350l0 -1 17 0 1 1 0 -1 26 0M857 350l0 -1 26 0M883 350l0 -1 27 0M910 350l0 -1 8 0M918 404l0 -55M918 404l1 4M919 419l0 -11M919 418l1 0 0 -2 1 -1 0 -1 53 0"/>
<path stroke="#FFA500" d="M462 39l46 0"/>
<text stroke="none" fill="white" font-size="16" x="518" y="48">
x1.vsampled_p-x1.vsampled_n
</text>
<path stroke="#FFA500" d="M50 431l2 0 0 -1 2 0M54 431l0 -1M54 431l63 0 0 -19 1 -27 0 -53 1 -8 0 -13 1 -4 1 -3 0 -1 1 -1 418 0M540 303l0 -1 6 0M546 322l0 -20M546 322l1 2M547 354l0 -30M547 354l1 6 1 2M549 363l0 -1M549 363l18 0M567 364l0 -1 7 0"/>
<path stroke="#FFA500" d="M574 385l0 -22M574 385l1 7M575 402l0 -10M575 402l1 2 24 0M600 418l0 -14M600 418l1 2M601 425l0 -5M601 425l1 0 0 -1 18 0M620 425l0 -1 5 0M625 425l0 -1M625 425l1 4M626 443l0 -14M626 443l2 0 0 -1 5 0M633 443l0 -1 20 0 0 -10"/>
<path stroke="#FFA500" d="M653 432l1 -2M654 431l0 -2M654 431l1 0M655 432l0 -1M655 432l24 0 0 -6 1 -1M680 426l0 -2M680 426l1 1 25 0M706 430l0 -3M706 430l19 0 0 -1M725 430l7 0M732 433l0 -3M732 432l27 0 0 -3M759 430l2 0M761 431l0 -1M761 431l5 0"/>
<path stroke="#FFA500" d="M766 431l0 -1M766 431l12 0 0 -1M778 431l35 0 0 -1M813 431l25 0M838 432l0 -1 80 0 0 -85 1 -7 0 -31 1 -2 0 -2 1 -1 0 -1 2 0 0 -1M923 302l13 0M936 303l0 -1 14 0 0 -1M950 302l24 0"/>
<path stroke="green" d="M50 39l46 0"/>
<text stroke="none" fill="white" font-size="16" x="106" y="48">
x1.sw_sample-2
</text>
<path stroke="green" d="M50 613l1 0 1 -9 0 -21 1 -21M53 579l0 -23M53 579l1 31M54 613l0 -3M54 613l63 0M117 620l0 -172M117 449l422 0M539 614l0 -171M539 613l422 0M961 618l0 -170 1 1 12 0"/>
<path stroke="#FFC0C5" d="M462 55l46 0"/>
<text stroke="none" fill="white" font-size="16" x="518" y="64">
x1.comp_out_p+2
</text>
<path stroke="#FFC0C5" d="M50 249l1 0 1 -9 0 -22 1 -18 0 -4M53 198l1 5M54 249l0 -46M54 248l1 1 486 0 1 1 0 -166M542 85l13 0M555 250l0 -172M555 249l13 0M568 250l0 -166M568 85l13 0 0 -8 1 151M582 249l0 -21M582 249l12 0 0 -165M594 85l14 0M608 250l0 -171"/>
<path stroke="#FFC0C5" d="M608 249l13 0M621 254l0 -171M621 85l13 0M634 249l0 -173M634 249l66 0 0 -166M700 85l13 0 0 -8 1 162M714 250l0 -11M714 249l13 0 0 -165M727 85l13 0M740 250l0 -171M740 249l40 0 0 -165M780 85l13 0M793 249l0 -174M793 249l41 0"/>
<path stroke="#FFC0C5" d="M834 249l0 -165M834 85l11 0 0 -10 1 143M846 249l0 -31M846 249l91 0M937 250l0 -1M937 250l1 -85 0 -82M938 85l13 0M951 249l0 -172M951 249l23 0"/>
<path stroke="#A52A2A" d="M50 55l46 0"/>
<text stroke="none" fill="white" font-size="16" x="106" y="64">
x1.comp_out_n-2
</text>
<path stroke="#A52A2A" d="M50 613l1 0 1 -9 0 -22 1 -19M53 564l0 -3M53 564l1 6M54 614l0 -44M54 606l1 6M55 613l0 -1M55 613l487 0M542 614l0 -1 105 0M647 619l0 -172M647 449l14 0M661 613l0 -172M661 613l13 0M674 616l0 -169M674 449l13 0M687 613l0 -173"/>
<path stroke="#A52A2A" d="M687 613l66 0 0 -165M753 449l13 0M766 613l0 -167M766 613l41 0 0 -165 1 1 11 0M819 613l0 -171M819 613l41 0 0 -165M860 449l12 0M872 613l0 -174M872 613l14 0 1 -150 0 -15M887 449l11 0M898 613l0 -174M898 613l15 0 0 -165M913 449l12 0"/>
<path stroke="#A52A2A" d="M925 613l0 -168M925 613l49 0"/>
</svg>
