<?xml version="1.0" standalone="yes"?>
<!DOCTYPE svg PUBLIC "-//W3C//DTD SVG 1.1//EN"
 "http://www.w3.org/Graphics/SVG/1.1/DTD/svg11.dtd">
<svg xmlns="http://www.w3.org/2000/svg" version="1.1"
  width="100%" height="100%" viewBox="0 0 1024 768"
  style="fill: none; font-family: Helvetica;
 font: Helvetica;
">

<!-- Creator: NGspice -->

<rect x="0" y="0" width="1024" height="768" fill="black" stroke="none"/>
<text stroke="none" fill="white" font-size="16" x="358" y="752">
time
</text>
<text stroke="none" fill="white" font-size="16" x="10" y="16">
tran1: run487_vin-0.471534
</text>
<path stroke="white" d="M50 704l0 -637"/>
<text stroke="none" fill="white" font-size="16" x="35" y="728">
0.0
</text>
<path stroke="white" stroke-dasharray="1,2" d="M182 704l0 -637"/>
<text stroke="none" fill="white" font-size="16" x="157" y="728">
100.0
</text>
<path stroke="white" stroke-dasharray="1,2" d="M314 704l0 -637"/>
<text stroke="none" fill="white" font-size="16" x="289" y="728">
200.0
</text>
<path stroke="white" stroke-dasharray="1,2" d="M446 704l0 -637"/>
<text stroke="none" fill="white" font-size="16" x="421" y="728">
300.0
</text>
<path stroke="white" stroke-dasharray="1,2" d="M578 704l0 -637"/>
<text stroke="none" fill="white" font-size="16" x="553" y="728">
400.0
</text>
<path stroke="white" stroke-dasharray="1,2" d="M710 704l0 -637"/>
<text stroke="none" fill="white" font-size="16" x="685" y="728">
500.0
</text>
<path stroke="white" stroke-dasharray="1,2" d="M842 704l0 -637"/>
<text stroke="none" fill="white" font-size="16" x="817" y="728">
600.0
</text>
<path stroke="white" stroke-dasharray="1,2" d="M974 704l0 -637"/>
<text stroke="none" fill="white" font-size="16" x="949" y="728">
700.0
</text>
<text stroke="none" fill="white" font-size="16" x="614" y="752">
ns
</text>
<path stroke="white" stroke-dasharray="1,2" d="M50 704l924 0"/>
<text stroke="none" fill="white" font-size="16" x="8" y="712">
-3.0
</text>
<path stroke="white" stroke-dasharray="1,2" d="M50 613l924 0"/>
<text stroke="none" fill="white" font-size="16" x="8" y="621">
-2.0
</text>
<path stroke="white" stroke-dasharray="1,2" d="M50 522l924 0"/>
<text stroke="none" fill="white" font-size="16" x="8" y="530">
-1.0
</text>
<path stroke="white" d="M50 431l924 0"/>
<text stroke="none" fill="white" font-size="16" x="18" y="439">
0.0
</text>
<path stroke="white" stroke-dasharray="1,2" d="M50 340l924 0"/>
<text stroke="none" fill="white" font-size="16" x="18" y="348">
1.0
</text>
<path stroke="white" stroke-dasharray="1,2" d="M50 249l924 0"/>
<text stroke="none" fill="white" font-size="16" x="18" y="257">
2.0
</text>
<path stroke="white" stroke-dasharray="1,2" d="M50 158l924 0"/>
<text stroke="none" fill="white" font-size="16" x="18" y="166">
3.0
</text>
<path stroke="white" stroke-dasharray="1,2" d="M50 67l924 0"/>
<text stroke="none" fill="white" font-size="16" x="18" y="75">
4.0
</text>
<text stroke="none" fill="white" font-size="16" x="10" y="32">
     
</text>
<path stroke="red" d="M462 23l46 0"/>
<text stroke="none" fill="white" font-size="16" x="518" y="32">
x1.vsampled_p
</text>
<path stroke="red" d="M50 431l1 0 1 -7 0 -15 1 -14 0 -5 1 2M54 415l0 -40 1 -4 0 -14 1 -3 0 -2 2 -2 1 0 1 -1 4 0M64 350l0 -1M64 350l4 0 1 -1 48 0M117 358l0 -9M117 358l1 12M118 383l0 -13M118 383l1 3M119 389l0 -3M119 389l1 2 1 0M121 392l0 -1M121 392l425 0"/>
<path stroke="red" d="M546 392l0 -21 1 -4 0 -27 1 -1 0 -5 1 -1 0 -1 1 -1 4 0 0 -1M554 331l13 0M567 332l0 -1 13 0 0 -1M580 331l13 0M593 332l0 -1 7 0M600 349l0 -18M600 349l1 3M601 357l0 -5M601 355l1 -2 0 -1 1 -1 16 0M619 352l0 -1M619 352l1 0 0 -1"/>
<path stroke="red" d="M620 351l5 0 1 -1 0 -17 1 -1M627 333l0 -1M627 333l19 0M646 334l0 -1 7 0M653 344l0 -11M653 344l1 2 0 -1 1 -1 4 0 0 -1M659 344l20 0M679 349l0 -5M679 349l1 1M680 352l0 -3 6 0 0 -1M686 349l26 0 0 -1M712 349l26 0 0 -1M738 349l27 0"/>
<path stroke="red" d="M765 349l0 -1M765 349l21 0M786 350l0 -1 18 0M804 350l0 -1 26 0 1 1 0 -1 86 0M917 350l0 -1M917 350l1 0M918 382l0 -32M918 382l1 4M919 394l0 -8M919 394l1 0 0 -1 1 0 0 -1 53 0"/>
<path stroke="blue" d="M50 23l46 0"/>
<text stroke="none" fill="white" font-size="16" x="106" y="32">
x1.vsampled_n
</text>
<path stroke="blue" d="M50 431l1 0 1 -7 0 -15 1 -15 0 -4 1 1M54 414l0 -39 1 -4 0 -14 1 -3 0 -2 2 -2 1 0 1 -1 4 0M64 350l0 -1M64 350l4 0 1 -1 48 0 0 -1 1 -9 0 -20 1 -4 0 -5 1 -2 2 -2 417 0M539 307l0 -1M539 307l1 -1M540 307l0 -1M540 307l14 0 0 -1"/>
<path stroke="blue" d="M554 306l12 0 1 1 0 -1M567 307l7 0M574 329l0 -22M574 329l1 9M575 346l0 -8M575 346l1 1 17 0M593 348l0 -1 26 0M619 348l0 -1 27 0M646 348l0 -1 26 0M672 348l0 -1 27 0M699 348l0 -1 7 0M706 351l0 -4M706 351l1 -1 24 0 1 -1 0 -2"/>
<path stroke="blue" d="M732 348l6 0 0 -1 1 1 20 0M759 350l0 -2M759 349l53 0M812 350l0 -1M812 350l1 0 0 -1 18 0M831 350l0 -1 26 0M857 350l0 -1 26 0M883 350l0 -1 27 0M910 350l0 -1 7 0 1 -1 0 -21 1 -2 0 -10 1 -3 0 -2 1 -2 0 -1 2 0 0 -1 13 0M936 308l0 -2"/>
<path stroke="blue" d="M936 307l14 0 0 -1 24 0"/>
<path stroke="#FFA500" d="M462 39l46 0"/>
<text stroke="none" fill="white" font-size="16" x="518" y="48">
x1.vsampled_p-x1.vsampled_n
</text>
<path stroke="#FFA500" d="M50 431l2 0 1 1 1 0 0 -1 63 0M117 441l0 -10M117 441l1 21M118 495l0 -33M118 495l1 7M119 511l0 -9M119 511l2 4M121 516l0 -1M121 516l1 0 1 1 417 0 0 -1M540 517l1 0 0 -1M541 517l5 0 0 -22 1 -3 0 -27 1 -2 0 -4 1 -1 0 -2 1 0"/>
<path stroke="#FFA500" d="M550 456l1 -1 3 0M554 456l0 -1 13 0M567 456l0 -1 7 0 0 -22 1 -9 0 -8 1 -1 4 0 0 -1M580 415l13 0 0 -1M593 415l7 0M600 433l0 -18M600 433l1 3M601 441l0 -5M601 439l1 -2 0 -1 1 -1 22 0 1 -1 0 -18 1 0 1 1 18 0M646 418l0 -1"/>
<path stroke="#FFA500" d="M646 417l7 0M653 428l0 -11M653 428l1 1M654 430l0 -2 1 0 0 -1 17 0M672 428l0 -1 7 0M679 433l0 -6M679 433l1 1M680 435l0 -2 1 0 0 -1 18 0M699 433l0 -1 7 0 0 -3 1 0M707 430l0 -1M707 430l24 0 1 1M732 433l0 -2M732 432l27 0"/>
<path stroke="#FFA500" d="M759 432l0 -2M759 431l27 0M786 432l0 -1M786 432l1 0 0 -1 17 0M804 432l0 -1 34 0 0 -1 1 1 78 0M917 432l0 -1M917 432l1 1M918 486l0 -53M918 486l1 6M919 510l0 -18M919 510l1 3M920 515l0 -2M920 515l1 1 2 0M923 517l0 -1M923 517l13 0"/>
<path stroke="#FFA500" d="M936 517l0 -1M936 517l38 0"/>
<path stroke="green" d="M50 39l46 0"/>
<text stroke="none" fill="white" font-size="16" x="106" y="48">
x1.sw_sample-2
</text>
<path stroke="green" d="M50 613l1 0 1 -9 0 -21 1 -21M53 580l0 -24M53 580l1 30M54 613l0 -3M54 613l63 0M117 620l0 -172M117 449l422 0M539 614l0 -171M539 613l422 0M961 618l0 -170 1 1 12 0"/>
<path stroke="#FFC0C5" d="M462 55l46 0"/>
<text stroke="none" fill="white" font-size="16" x="518" y="64">
x1.comp_out_p+2
</text>
<path stroke="#FFC0C5" d="M50 249l1 0 1 -9 0 -22 1 -18 0 -4M53 198l1 5M54 250l0 -47M54 248l1 1 539 0 0 -165M594 85l14 0M608 249l0 -172M608 249l39 0 0 -165M647 85l14 0M661 249l0 -172M661 249l12 0M673 250l0 -1M673 250l1 -59 0 -107M674 85l13 0M687 249l0 -171"/>
<path stroke="#FFC0C5" d="M687 249l40 0 0 -165 1 1 12 0M740 249l0 -172M740 249l40 0 0 -165 1 0M781 85l0 -1M781 85l12 0M793 250l0 -174M793 249l67 0 0 -164 12 0M872 249l0 -174M872 249l14 0 0 -157 1 -8M887 85l0 -1M887 85l11 0M898 249l0 -174M898 249l15 0"/>
<path stroke="#FFC0C5" d="M913 249l0 -165M913 85l12 0M925 250l0 -166M925 249l49 0"/>
<path stroke="#A52A2A" d="M50 55l46 0"/>
<text stroke="none" fill="white" font-size="16" x="106" y="64">
x1.comp_out_n-2
</text>
<path stroke="#A52A2A" d="M50 613l1 0 1 -9 0 -22 1 -19M53 564l0 -3M53 564l1 6M54 613l0 -43M54 613l487 0 1 1 0 -167M542 449l13 0M555 613l0 -172M555 613l13 0M568 615l0 -168M568 449l13 0 0 -9 1 162M582 613l0 -11M582 613l39 0 0 -165M621 449l13 0"/>
<path stroke="#A52A2A" d="M634 613l0 -172M634 613l66 0 0 -165M700 449l13 0 0 -9 1 162M714 613l0 -11M714 613l39 0 0 -165M753 449l13 0M766 613l0 -173M766 613l41 0 0 -165M807 449l12 0M819 613l0 -166M819 613l15 0 0 -164 11 0 0 -10 1 153M846 613l0 -21"/>
<path stroke="#A52A2A" d="M846 613l91 0M937 614l0 -1M937 614l1 -72 0 -94M938 449l13 0M951 614l0 -171M951 613l23 0"/>
</svg>
