<?xml version="1.0" standalone="yes"?>
<!DOCTYPE svg PUBLIC "-//W3C//DTD SVG 1.1//EN"
 "http://www.w3.org/Graphics/SVG/1.1/DTD/svg11.dtd">
<svg xmlns="http://www.w3.org/2000/svg" version="1.1"
  width="100%" height="100%" viewBox="0 0 1024 768"
  style="fill: none; font-family: Helvetica;
 font: Helvetica;
">

<!-- Creator: NGspice -->

<rect x="0" y="0" width="1024" height="768" fill="black" stroke="none"/>
<text stroke="none" fill="white" font-size="16" x="358" y="752">
time
</text>
<text stroke="none" fill="white" font-size="16" x="10" y="16">
tran1: run1896_vin0.766843
</text>
<path stroke="white" d="M50 704l0 -637"/>
<text stroke="none" fill="white" font-size="16" x="35" y="728">
0.0
</text>
<path stroke="white" stroke-dasharray="1,2" d="M182 704l0 -637"/>
<text stroke="none" fill="white" font-size="16" x="157" y="728">
100.0
</text>
<path stroke="white" stroke-dasharray="1,2" d="M314 704l0 -637"/>
<text stroke="none" fill="white" font-size="16" x="289" y="728">
200.0
</text>
<path stroke="white" stroke-dasharray="1,2" d="M446 704l0 -637"/>
<text stroke="none" fill="white" font-size="16" x="421" y="728">
300.0
</text>
<path stroke="white" stroke-dasharray="1,2" d="M578 704l0 -637"/>
<text stroke="none" fill="white" font-size="16" x="553" y="728">
400.0
</text>
<path stroke="white" stroke-dasharray="1,2" d="M710 704l0 -637"/>
<text stroke="none" fill="white" font-size="16" x="685" y="728">
500.0
</text>
<path stroke="white" stroke-dasharray="1,2" d="M842 704l0 -637"/>
<text stroke="none" fill="white" font-size="16" x="817" y="728">
600.0
</text>
<path stroke="white" stroke-dasharray="1,2" d="M974 704l0 -637"/>
<text stroke="none" fill="white" font-size="16" x="949" y="728">
700.0
</text>
<text stroke="none" fill="white" font-size="16" x="614" y="752">
ns
</text>
<path stroke="white" stroke-dasharray="1,2" d="M50 704l924 0"/>
<text stroke="none" fill="white" font-size="16" x="8" y="712">
-3.0
</text>
<path stroke="white" stroke-dasharray="1,2" d="M50 613l924 0"/>
<text stroke="none" fill="white" font-size="16" x="8" y="621">
-2.0
</text>
<path stroke="white" stroke-dasharray="1,2" d="M50 522l924 0"/>
<text stroke="none" fill="white" font-size="16" x="8" y="530">
-1.0
</text>
<path stroke="white" d="M50 431l924 0"/>
<text stroke="none" fill="white" font-size="16" x="18" y="439">
0.0
</text>
<path stroke="white" stroke-dasharray="1,2" d="M50 340l924 0"/>
<text stroke="none" fill="white" font-size="16" x="18" y="348">
1.0
</text>
<path stroke="white" stroke-dasharray="1,2" d="M50 249l924 0"/>
<text stroke="none" fill="white" font-size="16" x="18" y="257">
2.0
</text>
<path stroke="white" stroke-dasharray="1,2" d="M50 158l924 0"/>
<text stroke="none" fill="white" font-size="16" x="18" y="166">
3.0
</text>
<path stroke="white" stroke-dasharray="1,2" d="M50 67l924 0"/>
<text stroke="none" fill="white" font-size="16" x="18" y="75">
4.0
</text>
<text stroke="none" fill="white" font-size="16" x="10" y="32">
     
</text>
<path stroke="red" d="M462 23l46 0"/>
<text stroke="none" fill="white" font-size="16" x="518" y="32">
x1.vsampled_p
</text>
<path stroke="red" d="M50 431l1 0 1 -7 0 -16 1 -14 0 -5 1 2M54 414l0 -38 1 -5 0 -13 1 -3 0 -2 1 -2 0 -1 2 0 1 -1 3 0 1 1 5 0 0 -1 48 0 0 -1 1 -12 0 -35 1 -5 0 -9 1 -3 0 -2 1 -1 0 -1 1 0 1 -1 416 0M539 280l0 -1M539 280l1 0M540 281l0 -1 14 0 0 -1"/>
<path stroke="red" d="M554 279l12 0 1 1M567 281l0 -1 7 0M574 304l0 -24M574 304l1 7M575 319l0 -8M575 319l1 2 4 0 0 -1 13 0M593 321l0 -1M593 321l7 0M600 334l0 -14M600 334l1 4M601 342l0 -4M601 342l1 -1 77 0M679 345l0 -4M679 345l1 1M680 347l0 -1"/>
<path stroke="red" d="M680 346l26 0M706 349l0 -3M706 349l6 0 0 -1M712 349l13 0 0 -1M725 349l13 0 0 -1 1 0M739 349l0 -1M739 349l12 0 0 -1M751 349l14 0 0 -1M765 349l13 0 0 -1M778 349l7 0 1 1 0 -1 132 0 0 -39 1 -2 0 -17 1 -3 0 -5 1 -2 1 0 0 -1 1 0"/>
<path stroke="red" d="M923 280l0 -1 1 0M924 280l0 -1 12 0M936 281l0 -2M936 280l14 0 0 -1 24 0"/>
<path stroke="blue" d="M50 23l46 0"/>
<text stroke="none" fill="white" font-size="16" x="106" y="32">
x1.vsampled_n
</text>
<path stroke="blue" d="M50 431l1 0 1 -7 0 -15 1 -14 0 -5 1 2M54 414l0 -38 1 -5 0 -13 1 -3 0 -2 1 -2 0 -1 2 0 1 -1 3 0 1 1 3 0 1 -1 49 0M117 369l0 -20M117 369l1 17M118 407l0 -21M118 407l1 3M119 415l0 -5M119 415l1 1M120 417l0 -1M120 417l2 2 424 0"/>
<path stroke="blue" d="M546 419l0 -22 1 -3 0 -24 1 -7 1 -3 0 -2 5 0 0 -1M554 358l26 0 0 -1M580 358l45 0 0 -10 1 -3 0 -6 1 0 1 1 5 0 0 -1M633 340l20 0M653 350l0 -10M653 350l1 1M654 353l0 -2 1 0 0 -1 77 0 0 -4M732 347l1 0M733 348l0 -1M733 348l5 0"/>
<path stroke="blue" d="M738 348l0 -1M738 348l21 0M759 351l0 -3M759 349l19 0M778 350l0 -1 26 0M804 350l0 -1 9 0M813 350l0 -1 17 0 1 1 0 -1 26 0M857 350l0 -1 26 0M883 350l0 -1 27 0M910 350l0 -1 8 0M918 421l0 -72M918 421l1 2M919 426l0 -3M919 425l1 -1"/>
<path stroke="blue" d="M920 424l0 -3 1 -1 1 0 0 -1 52 0"/>
<path stroke="#FFA500" d="M462 39l46 0"/>
<text stroke="none" fill="white" font-size="16" x="518" y="48">
x1.vsampled_p-x1.vsampled_n
</text>
<path stroke="#FFA500" d="M50 431l2 0 0 -1 2 0M54 431l0 -1M54 431l63 0 0 -22 1 -27 0 -57 1 -8 0 -14 1 -4 0 -4 1 -1 0 -2 2 0 1 -1 415 0M539 292l0 -1M539 292l1 0 0 -1M540 292l6 0M546 314l0 -23M546 314l1 2M547 341l0 -25M547 341l1 7 1 3M549 352l0 -1"/>
<path stroke="#FFA500" d="M549 352l1 1 17 0M567 354l0 -1 7 0M574 377l0 -24M574 377l1 7M575 392l0 -8M575 392l1 2 24 0M600 408l0 -14M600 408l1 3M601 415l0 -4M601 415l1 0 0 -1 23 0M625 424l0 -10M625 424l1 3M626 433l0 -6M626 433l1 0 1 -1 25 0 0 -10"/>
<path stroke="#FFA500" d="M653 422l1 -1 0 -2M654 420l1 1M655 422l0 -1M655 422l24 0M679 426l0 -4M679 426l1 1M680 428l0 -1 26 0M706 430l0 -3M706 430l19 0 0 -1M725 430l7 0M732 434l0 -4M732 432l27 0 0 -3M759 430l6 0M765 431l0 -1 13 0M778 431l0 -1"/>
<path stroke="#FFA500" d="M778 430l7 0M785 431l0 -1M785 431l28 0 0 -1M813 431l25 0M838 432l0 -1 80 0 0 -111 1 -4 0 -19 1 -1 0 -3 1 -1 2 0 0 -1 1 0M924 292l0 -1M924 292l12 0M936 293l0 -2M936 292l14 0 0 -1 1 0M951 292l0 -1M951 292l11 0 0 -1 12 0"/>
<path stroke="green" d="M50 39l46 0"/>
<text stroke="none" fill="white" font-size="16" x="106" y="48">
x1.sw_sample-2
</text>
<path stroke="green" d="M50 613l1 0 1 -9 0 -21 1 -21M53 579l0 -23M53 579l1 31M54 613l0 -3M54 613l63 0M117 620l0 -172M117 449l422 0M539 614l0 -171M539 613l422 0M961 618l0 -170 1 1 12 0"/>
<path stroke="#FFC0C5" d="M462 55l46 0"/>
<text stroke="none" fill="white" font-size="16" x="518" y="64">
x1.comp_out_p+2
</text>
<path stroke="#FFC0C5" d="M50 249l1 0 1 -9 0 -22 1 -18 0 -4M53 198l1 5M54 249l0 -46M54 249l487 0 1 1 0 -167M542 85l13 0M555 250l0 -173M555 249l13 0 0 -166M568 85l13 0 0 -8 1 161M582 250l0 -12M582 249l12 0M594 255l0 -172M594 85l14 0M608 250l0 -168"/>
<path stroke="#FFC0C5" d="M608 249l13 0M621 253l0 -169M621 85l13 0M634 250l0 -173M634 249l39 0M673 251l0 -2M673 251l1 -100 0 -68M674 85l13 0M687 249l0 -172M687 249l13 0 0 -166M700 85l13 0 0 -8 1 162M714 250l0 -11M714 249l13 0M727 250l0 -166M727 85l13 0"/>
<path stroke="#FFC0C5" d="M740 250l0 -170M740 249l40 0 0 -165M780 85l13 0M793 249l0 -174M793 249l41 0 0 -165M834 85l11 0 0 -10 1 142M846 249l0 -32M846 249l91 0 1 -57 0 -108M938 85l13 0M951 250l0 -173M951 249l23 0"/>
<path stroke="#A52A2A" d="M50 55l46 0"/>
<text stroke="none" fill="white" font-size="16" x="106" y="64">
x1.comp_out_n-2
</text>
<path stroke="#A52A2A" d="M50 613l1 0 1 -9 0 -22 1 -19M53 564l0 -3M53 564l1 6M54 613l0 -43M54 611l1 2 592 0M647 614l0 -167M647 449l14 0M661 613l0 -167M661 613l92 0 0 -165M753 449l13 0M766 613l0 -167M766 613l41 0 0 -150 1 -14 0 -1M808 449l11 0"/>
<path stroke="#A52A2A" d="M819 613l0 -171M819 613l41 0 0 -165 1 1 11 0M872 613l0 -174M872 613l14 0 0 -155 1 -9 11 0M898 613l0 -174M898 613l15 0 0 -165M913 449l12 0M925 614l0 -170M925 613l49 0"/>
</svg>
