<?xml version="1.0" standalone="yes"?>
<!DOCTYPE svg PUBLIC "-//W3C//DTD SVG 1.1//EN"
 "http://www.w3.org/Graphics/SVG/1.1/DTD/svg11.dtd">
<svg xmlns="http://www.w3.org/2000/svg" version="1.1"
  width="100%" height="100%" viewBox="0 0 1024 768"
  style="fill: none; font-family: Helvetica;
 font: Helvetica;
">

<!-- Creator: NGspice -->

<rect x="0" y="0" width="1024" height="768" fill="black" stroke="none"/>
<text stroke="none" fill="white" font-size="16" x="358" y="752">
time
</text>
<text stroke="none" fill="white" font-size="16" x="10" y="16">
tran1: run1901_vin0.771238
</text>
<path stroke="white" d="M50 704l0 -637"/>
<text stroke="none" fill="white" font-size="16" x="35" y="728">
0.0
</text>
<path stroke="white" stroke-dasharray="1,2" d="M182 704l0 -637"/>
<text stroke="none" fill="white" font-size="16" x="157" y="728">
100.0
</text>
<path stroke="white" stroke-dasharray="1,2" d="M314 704l0 -637"/>
<text stroke="none" fill="white" font-size="16" x="289" y="728">
200.0
</text>
<path stroke="white" stroke-dasharray="1,2" d="M446 704l0 -637"/>
<text stroke="none" fill="white" font-size="16" x="421" y="728">
300.0
</text>
<path stroke="white" stroke-dasharray="1,2" d="M578 704l0 -637"/>
<text stroke="none" fill="white" font-size="16" x="553" y="728">
400.0
</text>
<path stroke="white" stroke-dasharray="1,2" d="M710 704l0 -637"/>
<text stroke="none" fill="white" font-size="16" x="685" y="728">
500.0
</text>
<path stroke="white" stroke-dasharray="1,2" d="M842 704l0 -637"/>
<text stroke="none" fill="white" font-size="16" x="817" y="728">
600.0
</text>
<path stroke="white" stroke-dasharray="1,2" d="M974 704l0 -637"/>
<text stroke="none" fill="white" font-size="16" x="949" y="728">
700.0
</text>
<text stroke="none" fill="white" font-size="16" x="614" y="752">
ns
</text>
<path stroke="white" stroke-dasharray="1,2" d="M50 704l924 0"/>
<text stroke="none" fill="white" font-size="16" x="8" y="712">
-2.5
</text>
<path stroke="white" stroke-dasharray="1,2" d="M50 655l924 0"/>
<text stroke="none" fill="white" font-size="16" x="8" y="663">
-2.0
</text>
<path stroke="white" stroke-dasharray="1,2" d="M50 606l924 0"/>
<text stroke="none" fill="white" font-size="16" x="8" y="614">
-1.5
</text>
<path stroke="white" stroke-dasharray="1,2" d="M50 557l924 0"/>
<text stroke="none" fill="white" font-size="16" x="8" y="565">
-1.0
</text>
<path stroke="white" stroke-dasharray="1,2" d="M50 508l924 0"/>
<text stroke="none" fill="white" font-size="16" x="8" y="516">
-0.5
</text>
<path stroke="white" d="M50 459l924 0"/>
<text stroke="none" fill="white" font-size="16" x="18" y="467">
0.0
</text>
<path stroke="white" stroke-dasharray="1,2" d="M50 410l924 0"/>
<text stroke="none" fill="white" font-size="16" x="18" y="418">
0.5
</text>
<path stroke="white" stroke-dasharray="1,2" d="M50 361l924 0"/>
<text stroke="none" fill="white" font-size="16" x="18" y="369">
1.0
</text>
<path stroke="white" stroke-dasharray="1,2" d="M50 312l924 0"/>
<text stroke="none" fill="white" font-size="16" x="18" y="320">
1.5
</text>
<path stroke="white" stroke-dasharray="1,2" d="M50 263l924 0"/>
<text stroke="none" fill="white" font-size="16" x="18" y="271">
2.0
</text>
<path stroke="white" stroke-dasharray="1,2" d="M50 214l924 0"/>
<text stroke="none" fill="white" font-size="16" x="18" y="222">
2.5
</text>
<path stroke="white" stroke-dasharray="1,2" d="M50 165l924 0"/>
<text stroke="none" fill="white" font-size="16" x="18" y="173">
3.0
</text>
<path stroke="white" stroke-dasharray="1,2" d="M50 116l924 0"/>
<text stroke="none" fill="white" font-size="16" x="18" y="124">
3.5
</text>
<path stroke="white" stroke-dasharray="1,2" d="M50 67l924 0"/>
<text stroke="none" fill="white" font-size="16" x="18" y="75">
4.0
</text>
<text stroke="none" fill="white" font-size="16" x="10" y="32">
     
</text>
<path stroke="red" d="M462 23l46 0"/>
<text stroke="none" fill="white" font-size="16" x="518" y="32">
x1.vsampled_p
</text>
<path stroke="red" d="M50 459l1 0 1 -7 0 -17 1 -16 0 -5 1 2M54 441l0 -42 1 -5 0 -14 1 -3 0 -3 1 -1 0 -1 1 -1 59 0 0 -2 1 -12 0 -38 1 -6 0 -10 1 -3 0 -2 1 -1 0 -1 1 0 1 -1 416 0M539 296l0 -1M539 296l1 0M540 297l0 -2M540 296l14 0 0 -1 12 0 1 1"/>
<path stroke="red" d="M567 297l0 -1 7 0M574 321l0 -25M574 321l1 7M575 338l0 -10M575 338l1 2 4 0 0 -1 13 0M593 340l0 -1M593 340l7 0M600 353l0 -13M600 353l1 3M601 363l0 -7M601 362l5 0 0 -1 13 0M619 362l0 -1M619 362l14 0 0 -1 13 0M646 362l0 -1M646 362l13 0"/>
<path stroke="red" d="M659 362l0 -1 13 0M672 362l0 -1M672 362l7 0M679 367l0 -5M679 367l1 1 0 -1 26 0M706 370l0 -3M706 370l79 0M785 371l0 -1M785 371l6 0 0 -1 13 0M804 371l0 -1 1 0M805 371l0 -1M805 371l7 0 0 -1M812 371l106 0 0 -2 1 -1 0 -54 1 -3"/>
<path stroke="red" d="M920 311l0 -8 1 -2 0 -4 1 0 0 -1 1 0 0 -1 13 0M936 297l0 -2M936 296l14 0 0 -1 24 0"/>
<path stroke="blue" d="M50 23l46 0"/>
<text stroke="none" fill="white" font-size="16" x="106" y="32">
x1.vsampled_n
</text>
<path stroke="blue" d="M50 459l1 0 1 -7 0 -17 1 -15 0 -5 1 2M54 441l0 -42 1 -5 0 -14 1 -3 0 -3 1 -1 0 -1 1 -1 59 0M117 393l0 -22M117 393l1 18M118 433l0 -22M118 433l1 4M119 442l0 -5M119 442l1 2M120 445l0 -1M120 445l1 0M121 446l0 -1M121 446l418 0"/>
<path stroke="blue" d="M539 446l1 1 1 -1M541 447l0 -1M541 447l5 0 0 -20 1 -2 0 -30 1 -8 0 -4 2 -2 1 0 1 -1 14 0 1 1 0 -1 26 0M593 381l0 -1 26 0M619 381l0 -1M619 381l1 0 0 -1 5 0 0 -15 1 -1 0 -4 1 0M627 361l0 -1M627 361l19 0M646 362l0 -1 7 0M653 373l0 -12"/>
<path stroke="blue" d="M653 373l1 2 0 -1 1 -1 0 -1 17 0M672 373l0 -1 27 0M699 373l0 -1 26 0M725 373l0 -1 6 0 0 -4 1 0M732 370l0 -2M732 370l33 0 0 -1M765 370l5 0M770 373l0 -3M770 371l8 0M778 372l0 -1 26 0M804 372l0 -1 27 0M831 372l0 -1 7 0 0 -1"/>
<path stroke="blue" d="M838 371l80 0M918 373l0 -2M918 373l1 2M919 454l0 -79M919 454l1 0 0 -3 1 -1 0 -2 1 -1 2 0 0 -1 12 0M936 447l0 -1M936 447l14 0 0 -1 24 0"/>
<path stroke="#FFA500" d="M462 39l46 0"/>
<text stroke="none" fill="white" font-size="16" x="518" y="48">
x1.vsampled_p-x1.vsampled_n
</text>
<path stroke="#FFA500" d="M50 459l2 0 0 -1 2 0M54 459l0 -1M54 459l63 0 0 -23 1 -31 0 -60 1 -9 0 -16 1 -4 0 -4 1 -2 0 -1 1 -1 418 0M540 309l0 -1 6 0M546 328l0 -21M546 328l1 2M547 360l0 -30M547 360l1 7M548 371l0 -4M548 371l1 2 1 1 17 0M567 375l0 -1"/>
<path stroke="#FFA500" d="M567 374l7 0M574 399l0 -25M574 399l1 7M575 416l0 -10M575 416l1 2 17 0M593 419l0 -1 7 0M600 432l0 -14M600 432l1 3M601 441l0 -6M601 441l1 0 0 -1 23 0M625 456l0 -16M625 456l1 1M626 461l0 -4M626 460l2 0 0 -1 5 0M633 460l0 -1"/>
<path stroke="#FFA500" d="M633 459l20 0 0 -12 1 -1M654 447l0 -2M654 447l1 1 17 0M672 449l0 -1M672 449l1 -1 6 0M679 453l0 -5M679 453l1 1M680 455l0 -1 26 0M706 457l0 -3M706 457l19 0 0 -1M725 457l6 0M731 461l0 -4M731 461l1 -1 0 -1 38 0 0 -3M770 457l1 0"/>
<path stroke="#FFA500" d="M771 458l0 -1M771 458l7 0 0 -1M778 458l7 0M785 459l0 -1M785 459l1 0 0 -1 26 0M812 459l0 -1M812 459l19 0 0 -1M831 459l7 0M838 460l0 -1 80 0 0 -4 1 -3 0 -133 1 -3 0 -5 1 -1 0 -1 1 0 0 -1 14 0M936 309l0 -1 38 0"/>
<path stroke="green" d="M50 39l46 0"/>
<text stroke="none" fill="white" font-size="16" x="106" y="48">
x1.sw_sample-2
</text>
<path stroke="green" d="M50 655l1 0 1 -10 0 -23 1 -21M53 618l0 -24M53 618l1 34M54 655l0 -3M54 655l63 0M117 662l0 -184 1 0M118 479l0 -1M118 479l421 0M539 656l0 -184M539 655l422 0M961 660l0 -182 1 0M962 479l0 -1M962 479l12 0"/>
<path stroke="#FFC0C5" d="M462 55l46 0"/>
<text stroke="none" fill="white" font-size="16" x="518" y="64">
x1.comp_out_p+2
</text>
<path stroke="#FFC0C5" d="M50 263l1 0 1 -10 0 -23 1 -20 0 -4M53 208l1 5M54 263l0 -50M54 263l487 0 1 1 0 -179M542 87l13 0M555 263l0 -186M555 263l13 0 0 -178M568 87l13 0 0 -10 1 175M582 264l0 -12M582 263l12 0M594 264l0 -179M594 86l1 1 13 0M608 264l0 -180"/>
<path stroke="#FFC0C5" d="M608 263l13 0M621 269l0 -184M621 87l13 0M634 263l0 -186M634 263l39 0M673 265l0 -2M673 265l1 -100 0 -80M674 87l13 0M687 264l0 -185M687 263l13 0M700 266l0 -181M700 87l13 0 0 -8 1 147M714 264l0 -38M714 263l13 0 0 -177M727 87l13 0"/>
<path stroke="#FFC0C5" d="M740 263l0 -179M740 263l24 0M764 264l0 -179M764 87l2 0M766 263l0 -180M766 263l14 0 0 -177M780 87l13 0M793 264l0 -181M793 263l14 0 0 -177M807 87l12 0M819 263l0 -179M819 263l14 0 1 -169 0 -9M834 87l11 0 0 -3M845 87l1 161"/>
<path stroke="#FFC0C5" d="M846 263l0 -15M846 263l41 0 0 -177M887 87l11 0M898 263l0 -179M898 263l39 0 1 -58 0 -120M938 87l13 0M951 264l0 -184M951 263l23 0"/>
<path stroke="#A52A2A" d="M50 55l46 0"/>
<text stroke="none" fill="white" font-size="16" x="106" y="64">
x1.comp_out_n-2
</text>
<path stroke="#A52A2A" d="M50 655l1 0 1 -10 0 -24 1 -20M53 602l0 -4M53 602l1 7M54 656l0 -47M54 653l1 2 539 0M594 656l0 -1 53 0M647 661l0 -185M647 479l14 0M661 656l0 -184M661 655l200 0 0 -177M861 479l11 0M872 655l0 -186M872 655l41 0 1 -164 0 -13"/>
<path stroke="#A52A2A" d="M914 479l10 0 1 -1M925 655l0 -182M925 655l13 0M938 656l0 -1 36 0"/>
</svg>
