<?xml version="1.0" standalone="yes"?>
<!DOCTYPE svg PUBLIC "-//W3C//DTD SVG 1.1//EN"
 "http://www.w3.org/Graphics/SVG/1.1/DTD/svg11.dtd">
<svg xmlns="http://www.w3.org/2000/svg" version="1.1"
  width="100%" height="100%" viewBox="0 0 1024 768"
  style="fill: none; font-family: Helvetica;
 font: Helvetica;
">

<!-- Creator: NGspice -->

<rect x="0" y="0" width="1024" height="768" fill="black" stroke="none"/>
<text stroke="none" fill="white" font-size="16" x="358" y="752">
time
</text>
<text stroke="none" fill="white" font-size="16" x="10" y="16">
tran1: run1899_vin0.76948
</text>
<path stroke="white" d="M50 704l0 -637"/>
<text stroke="none" fill="white" font-size="16" x="35" y="728">
0.0
</text>
<path stroke="white" stroke-dasharray="1,2" d="M182 704l0 -637"/>
<text stroke="none" fill="white" font-size="16" x="157" y="728">
100.0
</text>
<path stroke="white" stroke-dasharray="1,2" d="M314 704l0 -637"/>
<text stroke="none" fill="white" font-size="16" x="289" y="728">
200.0
</text>
<path stroke="white" stroke-dasharray="1,2" d="M446 704l0 -637"/>
<text stroke="none" fill="white" font-size="16" x="421" y="728">
300.0
</text>
<path stroke="white" stroke-dasharray="1,2" d="M578 704l0 -637"/>
<text stroke="none" fill="white" font-size="16" x="553" y="728">
400.0
</text>
<path stroke="white" stroke-dasharray="1,2" d="M710 704l0 -637"/>
<text stroke="none" fill="white" font-size="16" x="685" y="728">
500.0
</text>
<path stroke="white" stroke-dasharray="1,2" d="M842 704l0 -637"/>
<text stroke="none" fill="white" font-size="16" x="817" y="728">
600.0
</text>
<path stroke="white" stroke-dasharray="1,2" d="M974 704l0 -637"/>
<text stroke="none" fill="white" font-size="16" x="949" y="728">
700.0
</text>
<text stroke="none" fill="white" font-size="16" x="614" y="752">
ns
</text>
<path stroke="white" stroke-dasharray="1,2" d="M50 704l924 0"/>
<text stroke="none" fill="white" font-size="16" x="8" y="712">
-3.0
</text>
<path stroke="white" stroke-dasharray="1,2" d="M50 613l924 0"/>
<text stroke="none" fill="white" font-size="16" x="8" y="621">
-2.0
</text>
<path stroke="white" stroke-dasharray="1,2" d="M50 522l924 0"/>
<text stroke="none" fill="white" font-size="16" x="8" y="530">
-1.0
</text>
<path stroke="white" d="M50 431l924 0"/>
<text stroke="none" fill="white" font-size="16" x="18" y="439">
0.0
</text>
<path stroke="white" stroke-dasharray="1,2" d="M50 340l924 0"/>
<text stroke="none" fill="white" font-size="16" x="18" y="348">
1.0
</text>
<path stroke="white" stroke-dasharray="1,2" d="M50 249l924 0"/>
<text stroke="none" fill="white" font-size="16" x="18" y="257">
2.0
</text>
<path stroke="white" stroke-dasharray="1,2" d="M50 158l924 0"/>
<text stroke="none" fill="white" font-size="16" x="18" y="166">
3.0
</text>
<path stroke="white" stroke-dasharray="1,2" d="M50 67l924 0"/>
<text stroke="none" fill="white" font-size="16" x="18" y="75">
4.0
</text>
<text stroke="none" fill="white" font-size="16" x="10" y="32">
     
</text>
<path stroke="red" d="M462 23l46 0"/>
<text stroke="none" fill="white" font-size="16" x="518" y="32">
x1.vsampled_p
</text>
<path stroke="red" d="M50 431l1 0 1 -7 0 -16 1 -14 0 -5 1 2M54 414l0 -38 1 -5 0 -13 1 -3 0 -3 1 -1 0 -1 2 0 1 -1 3 0 1 1 5 0 0 -1 48 0 0 -1 1 -12 0 -35 1 -5 0 -10 1 -2 0 -2 1 -2 1 -1 418 0M540 280l0 -1 27 0M567 281l0 -2 7 0M574 303l0 -24M574 303l1 7"/>
<path stroke="red" d="M575 318l0 -8M575 318l1 2 17 0M593 321l0 -1 7 0M600 332l0 -12M600 332l1 2M601 342l0 -8M601 341l5 0 0 -1 1 0M607 341l0 -1M607 341l26 0 0 -1M633 341l26 0 0 -1M659 341l20 0M679 345l0 -4M679 345l1 1M680 347l0 -1 26 0M706 349l0 -3"/>
<path stroke="red" d="M706 349l1 0 0 -1 18 0M725 349l0 -1 26 0M751 349l0 -1 27 0M778 349l0 -1 7 0M785 349l0 -1M785 349l27 0M812 350l0 -1M812 350l1 0 0 -1 18 0M831 350l0 -1 87 0M918 350l0 -52 1 -2 0 -10 1 -2 0 -2 1 -1 0 -1 2 0 0 -1 13 0M936 281l0 -2"/>
<path stroke="red" d="M936 279l38 0"/>
<path stroke="blue" d="M50 23l46 0"/>
<text stroke="none" fill="white" font-size="16" x="106" y="32">
x1.vsampled_n
</text>
<path stroke="blue" d="M50 431l1 0 1 -7 0 -15 1 -14 0 -5 1 2M54 414l0 -38 1 -5 0 -13 1 -3 0 -3 1 -1 0 -1 2 0 1 -1 3 0 1 1 3 0 1 -1 49 0M117 369l0 -20M117 369l1 17M118 407l0 -21M118 407l1 3M119 415l0 -5M119 415l1 2M120 418l0 -1M120 418l1 0M121 419l0 -1"/>
<path stroke="blue" d="M121 419l425 0 0 -21 1 -2 0 -23 1 -7 0 -5 1 -2 1 -1 75 0 0 -15 1 -1 0 -3 1 0 1 1 18 0M646 341l0 -1 7 0M653 351l0 -11M653 351l1 2 0 -1 1 -1 0 -1 17 0M672 351l0 -1 27 0M699 351l0 -1 26 0M725 351l0 -1 6 0 0 -4 1 0M732 348l0 -2"/>
<path stroke="blue" d="M732 348l19 0M751 349l0 -1 8 0M759 351l0 -3M759 349l19 0M778 350l0 -1 26 0M804 350l0 -1 26 0 1 1 0 -1 26 0M857 350l0 -1 26 0M883 350l0 -1M883 350l1 -1 26 0M910 350l0 -1 8 0M918 426l0 -77M918 426l1 0 0 -3 1 -1 0 -1 1 -1"/>
<path stroke="blue" d="M921 420l1 0 0 -1 52 0"/>
<path stroke="#FFA500" d="M462 39l46 0"/>
<text stroke="none" fill="white" font-size="16" x="518" y="48">
x1.vsampled_p-x1.vsampled_n
</text>
<path stroke="#FFA500" d="M50 431l2 0 0 -1 2 0M54 431l0 -1M54 431l63 0 0 -22 1 -28 0 -56 1 -8 0 -15 1 -4 0 -3 1 -2 0 -1 1 -1 418 0M540 292l0 -1 6 0M546 312l0 -21M546 312l1 2M547 337l0 -23M547 337l1 7M548 349l0 -5M548 349l1 2 1 1 1 0 1 1 2 0 0 -1"/>
<path stroke="#FFA500" d="M554 352l13 0M567 354l0 -2M567 353l7 0M574 376l0 -23M574 376l1 7M575 391l0 -8M575 391l1 2 1 1 0 -1 16 0M593 394l0 -1 7 0M600 405l0 -12M600 405l1 2M601 415l0 -8M601 415l1 -1 23 0M625 429l0 -15M625 429l1 1M626 433l0 -3"/>
<path stroke="#FFA500" d="M626 433l1 0 0 -1 19 0 0 -1M646 432l7 0 0 -11 1 -2M654 420l0 -1M654 420l1 1 17 0M672 422l0 -1M672 422l1 0 0 -1 6 0M679 426l0 -5M679 426l1 0M680 428l0 -2M680 427l18 0 1 -1M699 427l0 -1M699 427l7 0M706 430l0 -4M706 430l1 -1"/>
<path stroke="#FFA500" d="M707 429l24 0M731 433l0 -4M731 433l1 0 0 -2 27 0 0 -3M759 430l26 0M785 431l0 -1M785 431l19 0 0 -1M804 431l35 0 0 -1M839 431l18 0 0 -1M857 431l26 0 0 -1M883 431l27 0 0 -1M910 431l8 0 0 -128 1 -2 0 -7 1 -1 0 -1 1 0 0 -1"/>
<path stroke="#FFA500" d="M921 291l15 0M936 292l0 -1 38 0"/>
<path stroke="green" d="M50 39l46 0"/>
<text stroke="none" fill="white" font-size="16" x="106" y="48">
x1.sw_sample-2
</text>
<path stroke="green" d="M50 613l1 0 1 -9 0 -21 1 -21M53 579l0 -23M53 579l1 31M54 613l0 -3M54 613l63 0M117 620l0 -172M117 449l422 0M539 614l0 -171M539 613l422 0M961 618l0 -170 1 1 12 0"/>
<path stroke="#FFC0C5" d="M462 55l46 0"/>
<text stroke="none" fill="white" font-size="16" x="518" y="64">
x1.comp_out_p+2
</text>
<path stroke="#FFC0C5" d="M50 249l1 0 1 -9 0 -22 1 -18 0 -4M53 198l1 5M54 249l0 -46M54 249l487 0 1 1 0 -167M542 85l13 0M555 249l0 -172M555 249l13 0 0 -166M568 85l13 0 0 -8 1 161M582 250l0 -12M582 249l12 0M594 251l0 -167M594 85l14 0M608 250l0 -167"/>
<path stroke="#FFC0C5" d="M608 249l13 0M621 252l0 -168M621 85l13 0M634 249l0 -172M634 249l39 0M673 252l0 -3M673 252l1 -103 0 -65M674 85l13 0M687 249l0 -171M687 249l13 0M700 254l0 -171M700 85l13 0 0 -8 1 158M714 249l0 -14M714 249l13 0 0 -165M727 85l13 0"/>
<path stroke="#FFC0C5" d="M740 250l0 -174M740 249l40 0 0 -165M780 85l13 0M793 249l0 -174M793 249l14 0 0 -164 12 0M819 250l0 -171M819 249l41 0 0 -165M860 85l12 0M872 249l0 -174M872 249l14 0 0 -164 12 0M898 249l0 -174M898 249l15 0 0 -165M913 85l12 0"/>
<path stroke="#FFC0C5" d="M925 249l0 -172M925 249l12 0M937 250l0 -1M937 250l1 -80 0 -86M938 85l13 0M951 249l0 -172M951 249l23 0"/>
<path stroke="#A52A2A" d="M50 55l46 0"/>
<text stroke="none" fill="white" font-size="16" x="106" y="64">
x1.comp_out_n-2
</text>
<path stroke="#A52A2A" d="M50 613l1 0 1 -9 0 -22 1 -19M53 564l0 -3M53 564l1 6M54 613l0 -43M54 611l1 2 539 0M594 614l0 -1 53 0 0 -165M647 449l14 0M661 613l0 -174M661 613l92 0 0 -147 1 -17 0 -1M754 449l12 0M766 613l0 -171M766 613l68 0 1 -158 0 -7"/>
<path stroke="#A52A2A" d="M835 449l10 0M845 451l0 -5M845 451l1 152M846 613l0 -10M846 613l128 0"/>
</svg>
