<?xml version="1.0" standalone="yes"?>
<!DOCTYPE svg PUBLIC "-//W3C//DTD SVG 1.1//EN"
 "http://www.w3.org/Graphics/SVG/1.1/DTD/svg11.dtd">
<svg xmlns="http://www.w3.org/2000/svg" version="1.1"
  width="100%" height="100%" viewBox="0 0 1024 768"
  style="fill: none; font-family: Helvetica;
 font: Helvetica;
">

<!-- Creator: NGspice -->

<rect x="0" y="0" width="1024" height="768" fill="black" stroke="none"/>
<text stroke="none" fill="white" font-size="16" x="358" y="752">
time
</text>
<text stroke="none" fill="white" font-size="16" x="10" y="16">
tran1: run848_vin-0.154249
</text>
<path stroke="white" d="M50 704l0 -637"/>
<text stroke="none" fill="white" font-size="16" x="35" y="728">
0.0
</text>
<path stroke="white" stroke-dasharray="1,2" d="M182 704l0 -637"/>
<text stroke="none" fill="white" font-size="16" x="157" y="728">
100.0
</text>
<path stroke="white" stroke-dasharray="1,2" d="M314 704l0 -637"/>
<text stroke="none" fill="white" font-size="16" x="289" y="728">
200.0
</text>
<path stroke="white" stroke-dasharray="1,2" d="M446 704l0 -637"/>
<text stroke="none" fill="white" font-size="16" x="421" y="728">
300.0
</text>
<path stroke="white" stroke-dasharray="1,2" d="M578 704l0 -637"/>
<text stroke="none" fill="white" font-size="16" x="553" y="728">
400.0
</text>
<path stroke="white" stroke-dasharray="1,2" d="M710 704l0 -637"/>
<text stroke="none" fill="white" font-size="16" x="685" y="728">
500.0
</text>
<path stroke="white" stroke-dasharray="1,2" d="M842 704l0 -637"/>
<text stroke="none" fill="white" font-size="16" x="817" y="728">
600.0
</text>
<path stroke="white" stroke-dasharray="1,2" d="M974 704l0 -637"/>
<text stroke="none" fill="white" font-size="16" x="949" y="728">
700.0
</text>
<text stroke="none" fill="white" font-size="16" x="614" y="752">
ns
</text>
<path stroke="white" stroke-dasharray="1,2" d="M50 704l924 0"/>
<text stroke="none" fill="white" font-size="16" x="8" y="712">
-3.0
</text>
<path stroke="white" stroke-dasharray="1,2" d="M50 613l924 0"/>
<text stroke="none" fill="white" font-size="16" x="8" y="621">
-2.0
</text>
<path stroke="white" stroke-dasharray="1,2" d="M50 522l924 0"/>
<text stroke="none" fill="white" font-size="16" x="8" y="530">
-1.0
</text>
<path stroke="white" d="M50 431l924 0"/>
<text stroke="none" fill="white" font-size="16" x="18" y="439">
0.0
</text>
<path stroke="white" stroke-dasharray="1,2" d="M50 340l924 0"/>
<text stroke="none" fill="white" font-size="16" x="18" y="348">
1.0
</text>
<path stroke="white" stroke-dasharray="1,2" d="M50 249l924 0"/>
<text stroke="none" fill="white" font-size="16" x="18" y="257">
2.0
</text>
<path stroke="white" stroke-dasharray="1,2" d="M50 158l924 0"/>
<text stroke="none" fill="white" font-size="16" x="18" y="166">
3.0
</text>
<path stroke="white" stroke-dasharray="1,2" d="M50 67l924 0"/>
<text stroke="none" fill="white" font-size="16" x="18" y="75">
4.0
</text>
<text stroke="none" fill="white" font-size="16" x="10" y="32">
     
</text>
<path stroke="red" d="M462 23l46 0"/>
<text stroke="none" fill="white" font-size="16" x="518" y="32">
x1.vsampled_p
</text>
<path stroke="red" d="M50 431l1 0 1 -7 0 -15 1 -14 0 -5 1 2M54 415l0 -39 1 -5 0 -14 1 -3 0 -2 1 -2 2 0 1 -1 4 0M64 350l0 -1M64 350l4 0 1 -1 48 0M117 351l0 -2M117 351l1 4M118 360l0 -5M118 360l1 2 1 1 420 0M540 364l0 -1 6 0 0 -20 1 -3 0 -23 1 -6"/>
<path stroke="red" d="M548 311l0 -5 1 -2 0 -1 1 0 0 -1 4 0 0 -1M554 302l13 0M567 304l0 -2 6 0 1 1M574 330l0 -27M574 330l1 8M575 345l0 -7M575 345l1 0 0 -1 1 0 0 -1 3 0 0 -1M580 343l53 0 0 -1M633 343l46 0M679 349l0 -6M679 349l1 1 0 -2 26 0 1 1"/>
<path stroke="red" d="M707 352l0 -3M707 351l5 0 0 -1 1 0M713 351l0 -1M713 351l12 0 0 -1M725 351l6 0 0 -4 1 0M732 348l0 -1M732 348l19 0M751 349l0 -1M751 349l1 0 0 -1 26 0M778 349l0 -1 7 0 1 1M786 350l0 -1 26 0M812 350l0 -1M812 350l1 0 0 -1 18 0"/>
<path stroke="red" d="M831 350l0 -1 26 0M857 350l0 -1 26 0M883 350l0 -1 27 0M910 350l0 -1 8 0M918 360l0 -14M918 360l1 1M919 366l0 -5M919 365l1 -1 0 -1 16 0M936 364l0 -1 38 0"/>
<path stroke="blue" d="M50 23l46 0"/>
<text stroke="none" fill="white" font-size="16" x="106" y="32">
x1.vsampled_n
</text>
<path stroke="blue" d="M50 431l1 0 1 -7 0 -15 1 -15 0 -4 1 1M54 415l0 -39 1 -5 0 -14 1 -3 0 -2 1 -2 2 0 1 -1 4 0M64 350l0 -1M64 350l4 0 1 -1 48 0 1 -5 0 -6 1 -2 1 0 0 -1 420 0M540 336l0 -1 27 0M567 336l0 -1 26 0M593 336l0 -1 7 0M600 351l0 -16"/>
<path stroke="blue" d="M600 351l1 4M601 359l0 -4M601 358l1 -1 0 -1 23 0 0 -8 1 -2 0 -8 7 0 0 -1M633 338l20 0M653 346l0 -8M653 346l1 1M654 349l0 -2M654 349l1 0 0 -1 104 0M759 350l0 -2M759 350l1 -1 18 0M778 350l0 -1 26 0M804 350l0 -1 27 0M831 350l0 -1"/>
<path stroke="blue" d="M831 349l87 0M918 350l0 -4 1 -1 0 -9 1 -1 16 0M936 336l0 -1 38 0"/>
<path stroke="#FFA500" d="M462 39l46 0"/>
<text stroke="none" fill="white" font-size="16" x="518" y="48">
x1.vsampled_p-x1.vsampled_n
</text>
<path stroke="#FFA500" d="M50 431l67 0M117 433l0 -2M117 433l1 9M118 453l0 -11M118 453l1 4 1 1M120 459l0 -1M120 459l426 0 0 -20 1 -3 0 -23 1 -6 0 -5 1 -2 0 -1 1 -1 4 0 0 -1M554 398l13 0M567 399l0 -2M567 398l6 0 1 1M574 426l0 -27M574 426l1 8M575 441l0 -7"/>
<path stroke="#FFA500" d="M575 441l2 -2 16 0 0 -1M593 439l7 0 0 -16 1 -4 0 -4M601 416l1 1M602 418l0 -1M602 418l17 0M619 419l0 -1 6 0M625 426l0 -8M625 426l1 2M626 436l0 -8M626 436l27 0 0 -8 1 -1 0 -2 1 0M655 426l0 -1M655 426l24 0M679 432l0 -6"/>
<path stroke="#FFA500" d="M679 432l1 1 0 -2 27 0M707 435l0 -4M707 434l2 0 0 -1 3 0M712 434l0 -1 13 0M725 434l0 -1 6 0M731 434l0 -4 1 0M732 431l0 -1M732 431l27 0 0 -2M759 430l26 0 1 1 26 0M812 432l0 -1M812 432l1 -1 25 0M838 432l0 -1 80 0M918 445l0 -15"/>
<path stroke="#FFA500" d="M918 445l1 2M919 460l0 -13M919 460l1 0 0 -1 16 0 0 -1M936 459l38 0"/>
<path stroke="green" d="M50 39l46 0"/>
<text stroke="none" fill="white" font-size="16" x="106" y="48">
x1.sw_sample-2
</text>
<path stroke="green" d="M50 613l1 0 1 -9 0 -21 1 -21M53 581l0 -25M53 581l1 29M54 613l0 -3M54 613l63 0M117 620l0 -172M117 449l422 0M539 614l0 -174M539 613l422 0M961 618l0 -170 1 1 12 0"/>
<path stroke="#FFC0C5" d="M462 55l46 0"/>
<text stroke="none" fill="white" font-size="16" x="518" y="64">
x1.comp_out_p+2
</text>
<path stroke="#FFC0C5" d="M50 249l1 0 1 -9 0 -22 1 -18 0 -4M53 198l1 5M54 249l0 -46M54 249l514 0M568 251l0 -168M568 85l13 0 0 -8 1 156M582 249l0 -16M582 249l39 0M621 251l0 -168M621 85l13 0M634 249l0 -171M634 249l39 0M673 256l0 -7M673 256l1 -136"/>
<path stroke="#FFC0C5" d="M674 120l0 -37M674 85l13 0M687 249l0 -173M687 249l14 0 0 -156 1 -9M702 85l0 -1M702 85l11 0 0 -7 1 146M714 249l0 -25M714 249l66 0 0 -165M780 85l13 0M793 249l0 -174M793 249l14 0 0 -164 12 0M819 249l0 -171M819 249l15 0"/>
<path stroke="#FFC0C5" d="M834 249l0 -165M834 85l11 0 0 -10 1 143M846 249l0 -31M846 249l128 0"/>
<path stroke="#A52A2A" d="M50 55l46 0"/>
<text stroke="none" fill="white" font-size="16" x="106" y="64">
x1.comp_out_n-2
</text>
<path stroke="#A52A2A" d="M50 613l1 0 1 -9 0 -22 1 -19M53 564l0 -3M53 564l1 6M54 613l0 -43M54 613l487 0 1 1 0 -167M542 449l13 0M555 613l0 -172M555 613l39 0 0 -166M594 449l14 0M608 613l0 -167M608 613l39 0M647 614l0 -167M647 449l14 0M661 613l0 -171"/>
<path stroke="#A52A2A" d="M661 613l66 0M727 614l0 -166M727 449l13 0M740 613l0 -173M740 613l13 0 0 -140 1 -23 0 -2M754 449l12 0M766 613l0 -172M766 613l94 0 0 -165M860 449l12 0M872 614l0 -169M872 613l14 0 0 -164 1 -1M887 449l0 -1M887 449l11 0M898 614l0 -169"/>
<path stroke="#A52A2A" d="M898 613l15 0 0 -165M913 449l12 0M925 613l0 -171M925 613l12 0 1 -57 0 -108M938 449l13 0M951 613l0 -173M951 613l23 0"/>
</svg>
