<?xml version="1.0" standalone="yes"?>
<!DOCTYPE svg PUBLIC "-//W3C//DTD SVG 1.1//EN"
 "http://www.w3.org/Graphics/SVG/1.1/DTD/svg11.dtd">
<svg xmlns="http://www.w3.org/2000/svg" version="1.1"
  width="100%" height="100%" viewBox="0 0 1024 768"
  style="fill: none; font-family: Helvetica;
 font: Helvetica;
">

<!-- Creator: NGspice -->

<rect x="0" y="0" width="1024" height="768" fill="black" stroke="none"/>
<text stroke="none" fill="white" font-size="16" x="358" y="752">
time
</text>
<text stroke="none" fill="white" font-size="16" x="10" y="16">
tran1: run1800_vin0.682468
</text>
<path stroke="white" d="M50 704l0 -637"/>
<text stroke="none" fill="white" font-size="16" x="35" y="728">
0.0
</text>
<path stroke="white" stroke-dasharray="1,2" d="M182 704l0 -637"/>
<text stroke="none" fill="white" font-size="16" x="157" y="728">
100.0
</text>
<path stroke="white" stroke-dasharray="1,2" d="M314 704l0 -637"/>
<text stroke="none" fill="white" font-size="16" x="289" y="728">
200.0
</text>
<path stroke="white" stroke-dasharray="1,2" d="M446 704l0 -637"/>
<text stroke="none" fill="white" font-size="16" x="421" y="728">
300.0
</text>
<path stroke="white" stroke-dasharray="1,2" d="M578 704l0 -637"/>
<text stroke="none" fill="white" font-size="16" x="553" y="728">
400.0
</text>
<path stroke="white" stroke-dasharray="1,2" d="M710 704l0 -637"/>
<text stroke="none" fill="white" font-size="16" x="685" y="728">
500.0
</text>
<path stroke="white" stroke-dasharray="1,2" d="M842 704l0 -637"/>
<text stroke="none" fill="white" font-size="16" x="817" y="728">
600.0
</text>
<path stroke="white" stroke-dasharray="1,2" d="M974 704l0 -637"/>
<text stroke="none" fill="white" font-size="16" x="949" y="728">
700.0
</text>
<text stroke="none" fill="white" font-size="16" x="614" y="752">
ns
</text>
<path stroke="white" stroke-dasharray="1,2" d="M50 704l924 0"/>
<text stroke="none" fill="white" font-size="16" x="8" y="712">
-3.0
</text>
<path stroke="white" stroke-dasharray="1,2" d="M50 613l924 0"/>
<text stroke="none" fill="white" font-size="16" x="8" y="621">
-2.0
</text>
<path stroke="white" stroke-dasharray="1,2" d="M50 522l924 0"/>
<text stroke="none" fill="white" font-size="16" x="8" y="530">
-1.0
</text>
<path stroke="white" d="M50 431l924 0"/>
<text stroke="none" fill="white" font-size="16" x="18" y="439">
0.0
</text>
<path stroke="white" stroke-dasharray="1,2" d="M50 340l924 0"/>
<text stroke="none" fill="white" font-size="16" x="18" y="348">
1.0
</text>
<path stroke="white" stroke-dasharray="1,2" d="M50 249l924 0"/>
<text stroke="none" fill="white" font-size="16" x="18" y="257">
2.0
</text>
<path stroke="white" stroke-dasharray="1,2" d="M50 158l924 0"/>
<text stroke="none" fill="white" font-size="16" x="18" y="166">
3.0
</text>
<path stroke="white" stroke-dasharray="1,2" d="M50 67l924 0"/>
<text stroke="none" fill="white" font-size="16" x="18" y="75">
4.0
</text>
<text stroke="none" fill="white" font-size="16" x="10" y="32">
     
</text>
<path stroke="red" d="M462 23l46 0"/>
<text stroke="none" fill="white" font-size="16" x="518" y="32">
x1.vsampled_p
</text>
<path stroke="red" d="M50 431l1 0 1 -7 0 -15 1 -15 0 -5 1 2M54 414l0 -37 1 -5 0 -13 1 -4 0 -2 1 -2 0 -1 2 0 1 -1 3 0 1 1 4 0 1 -1 48 0 0 -1 1 -11 0 -32 1 -5 0 -8 2 -4 1 -1 418 0M540 288l0 -1 26 0 1 1M567 289l0 -2 7 0M574 306l0 -19M574 306l1 7"/>
<path stroke="red" d="M575 322l0 -9M575 322l1 5M576 328l0 -1M576 328l17 0M593 329l0 -1 7 0M600 340l0 -12M600 340l1 2M601 350l0 -8M601 349l5 0 0 -1 1 0M607 349l0 -1M607 349l26 0 0 -1M633 349l13 0 0 -1M646 349l13 0 0 -1M659 349l13 0 0 -1M672 349l14 0"/>
<path stroke="red" d="M686 349l0 -1M686 349l12 0 0 -1M698 349l14 0 0 -1M712 349l26 0 0 -1 1 0M739 349l0 -1M739 349l26 0 0 -1M765 349l20 0 1 1 0 -1 18 0M804 350l0 -1 27 0M831 350l0 -1 26 0M857 350l0 -1 26 0M883 350l0 -1 27 0M910 350l0 -1 8 0 0 -31"/>
<path stroke="red" d="M918 318l1 -3 0 -15 1 -3 0 -5 1 -2 0 -2 2 0 0 -1 13 0M936 289l0 -2 38 0"/>
<path stroke="blue" d="M50 23l46 0"/>
<text stroke="none" fill="white" font-size="16" x="106" y="32">
x1.vsampled_n
</text>
<path stroke="blue" d="M50 431l1 0 1 -7 0 -15 1 -14 0 -5 1 2M54 414l0 -37 1 -5 0 -13 1 -4 0 -2 1 -2 0 -1 2 0 1 -1 3 0 1 1 4 0 0 -1 49 0M117 366l0 -17M117 366l1 15M118 401l0 -20M118 401l1 2M119 408l0 -5M119 408l2 2M121 411l0 -1M121 411l419 0M540 412l0 -1"/>
<path stroke="blue" d="M540 411l6 0 0 -21 1 -2 0 -24 1 -7 0 -4 1 -1 0 -1 1 -1 17 0M567 351l0 -1 59 0 0 -16 1 -1 0 -2 1 0M628 332l0 -1M628 332l18 0M646 333l0 -1 7 0M653 344l0 -12M653 344l1 1 0 -2 1 0 0 -1 17 0M672 343l0 -1 7 0M679 350l0 -8M679 350l1 1"/>
<path stroke="blue" d="M680 351l0 -3 2 0 1 -1 15 0 1 1 0 -1 7 0M706 351l0 -4M706 351l1 1 0 -2 25 0 0 -4M732 348l27 0M759 351l0 -3M759 349l19 0M778 350l0 -1 26 0M804 350l0 -1 9 0M813 350l0 -1 17 0 1 1 0 -1 26 0M857 350l0 -1 26 0M883 350l0 -1 27 0"/>
<path stroke="blue" d="M910 350l0 -1 8 0M918 404l0 -55M918 404l1 5M919 416l0 -7M919 416l1 -1 0 -1 1 -1 0 -1 1 0 0 -1 14 0M936 412l0 -1 38 0"/>
<path stroke="#FFA500" d="M462 39l46 0"/>
<text stroke="none" fill="white" font-size="16" x="518" y="48">
x1.vsampled_p-x1.vsampled_n
</text>
<path stroke="#FFA500" d="M50 431l2 0 0 -1 2 0M54 431l0 -1M54 431l63 0 0 -18 1 -26 0 -52 1 -7 0 -13 2 -6 0 -1 1 -1 418 0M540 308l0 -1 6 0M546 328l0 -21M546 328l1 3M547 354l0 -23M547 354l1 8M548 365l0 -3M548 365l1 2M549 368l0 -1M549 368l18 0M567 369l0 -1"/>
<path stroke="#FFA500" d="M567 368l7 0M574 387l0 -19M574 387l1 7M575 403l0 -9M575 403l1 5M576 409l0 -1M576 409l24 0M600 421l0 -12M600 421l1 2M601 431l0 -8M601 430l18 0 0 -1 1 0M620 430l0 -1M620 430l6 0M626 446l0 -16M626 446l1 1M627 449l0 -2M627 448l2 0"/>
<path stroke="#FFA500" d="M629 448l1 -1 3 0M633 448l0 -1 13 0M646 448l0 -1 7 0M653 448l0 -12 1 -1M654 436l0 -2M654 436l1 1 24 0 0 -7 1 -1M680 432l0 -3M680 432l26 0 0 -4 1 0M707 429l0 -1M707 429l1 1 17 0 0 -1M725 430l7 0M732 433l0 -3M732 432l27 0"/>
<path stroke="#FFA500" d="M759 432l0 -3M759 430l2 0M761 431l0 -1M761 431l17 0 0 -1M778 431l7 0 0 -1M785 431l1 0M786 432l0 -1 27 0 0 -1M813 431l25 0M838 432l0 -1 80 0 0 -86 1 -9 0 -21 1 -3 0 -3 1 -1 0 -1 15 0M936 308l0 -1 14 0 0 -1M950 307l24 0"/>
<path stroke="green" d="M50 39l46 0"/>
<text stroke="none" fill="white" font-size="16" x="106" y="48">
x1.sw_sample-2
</text>
<path stroke="green" d="M50 613l1 0 1 -9 0 -21 1 -21M53 579l0 -23M53 579l1 31M54 613l0 -3M54 613l63 0M117 620l0 -172M117 449l422 0M539 614l0 -171M539 613l422 0M961 618l0 -170 1 1 12 0"/>
<path stroke="#FFC0C5" d="M462 55l46 0"/>
<text stroke="none" fill="white" font-size="16" x="518" y="64">
x1.comp_out_p+2
</text>
<path stroke="#FFC0C5" d="M50 249l1 0 1 -9 0 -22 1 -18 0 -4M53 198l1 5M54 249l0 -46M54 248l1 1 487 0 0 -165M542 85l13 0M555 249l0 -171M555 249l13 0 0 -165M568 85l13 0 0 -8 1 158M582 249l0 -14M582 249l12 0M594 250l0 -167M594 85l14 0M608 250l0 -173"/>
<path stroke="#FFC0C5" d="M608 249l13 0 1 -146 0 -19M622 85l12 0M634 249l0 -172M634 249l93 0 0 -165M727 85l13 0M740 250l0 -171M740 249l40 0 0 -165M780 85l13 0M793 249l0 -174M793 249l41 0 0 -165M834 85l11 0 0 -10 1 143M846 249l0 -31M846 249l91 0"/>
<path stroke="#FFC0C5" d="M937 249l1 -52 0 -113M938 85l13 0M951 250l0 -170M951 249l23 0"/>
<path stroke="#A52A2A" d="M50 55l46 0"/>
<text stroke="none" fill="white" font-size="16" x="106" y="64">
x1.comp_out_n-2
</text>
<path stroke="#A52A2A" d="M50 613l1 0 1 -9 0 -22 1 -19M53 564l0 -3M53 564l1 6M54 614l0 -48M54 598l1 14M55 613l0 -1M55 613l592 0 0 -166M647 449l14 0M661 613l0 -172M661 613l12 0M673 617l0 -4M673 617l1 -123 0 -47M674 449l13 0M687 613l0 -172M687 613l13 0"/>
<path stroke="#A52A2A" d="M700 613l0 -163 1 -2M701 449l0 -1M701 449l12 0 1 -9M714 614l0 -174M714 613l39 0 0 -165M753 449l13 0M766 613l0 -167M766 613l41 0 0 -150 1 -14 0 -1M808 449l11 0M819 613l0 -171M819 613l41 0 0 -165 1 1 11 0M872 613l0 -174"/>
<path stroke="#A52A2A" d="M872 613l14 0 0 -155 1 -9 11 0M898 613l0 -174M898 613l15 0 0 -165M913 449l12 0M925 613l0 -172M925 613l49 0"/>
</svg>
