<?xml version="1.0" standalone="yes"?>
<!DOCTYPE svg PUBLIC "-//W3C//DTD SVG 1.1//EN"
 "http://www.w3.org/Graphics/SVG/1.1/DTD/svg11.dtd">
<svg xmlns="http://www.w3.org/2000/svg" version="1.1"
  width="100%" height="100%" viewBox="0 0 1024 768"
  style="fill: none; font-family: Helvetica;
 font: Helvetica;
">

<!-- Creator: NGspice -->

<rect x="0" y="0" width="1024" height="768" fill="black" stroke="none"/>
<text stroke="none" fill="white" font-size="16" x="358" y="752">
time
</text>
<text stroke="none" fill="white" font-size="16" x="10" y="16">
tran1: run148_vin-0.769483
</text>
<path stroke="white" d="M50 704l0 -637"/>
<text stroke="none" fill="white" font-size="16" x="35" y="728">
0.0
</text>
<path stroke="white" stroke-dasharray="1,2" d="M182 704l0 -637"/>
<text stroke="none" fill="white" font-size="16" x="157" y="728">
100.0
</text>
<path stroke="white" stroke-dasharray="1,2" d="M314 704l0 -637"/>
<text stroke="none" fill="white" font-size="16" x="289" y="728">
200.0
</text>
<path stroke="white" stroke-dasharray="1,2" d="M446 704l0 -637"/>
<text stroke="none" fill="white" font-size="16" x="421" y="728">
300.0
</text>
<path stroke="white" stroke-dasharray="1,2" d="M578 704l0 -637"/>
<text stroke="none" fill="white" font-size="16" x="553" y="728">
400.0
</text>
<path stroke="white" stroke-dasharray="1,2" d="M710 704l0 -637"/>
<text stroke="none" fill="white" font-size="16" x="685" y="728">
500.0
</text>
<path stroke="white" stroke-dasharray="1,2" d="M842 704l0 -637"/>
<text stroke="none" fill="white" font-size="16" x="817" y="728">
600.0
</text>
<path stroke="white" stroke-dasharray="1,2" d="M974 704l0 -637"/>
<text stroke="none" fill="white" font-size="16" x="949" y="728">
700.0
</text>
<text stroke="none" fill="white" font-size="16" x="614" y="752">
ns
</text>
<path stroke="white" stroke-dasharray="1,2" d="M50 704l924 0"/>
<text stroke="none" fill="white" font-size="16" x="8" y="712">
-3.0
</text>
<path stroke="white" stroke-dasharray="1,2" d="M50 613l924 0"/>
<text stroke="none" fill="white" font-size="16" x="8" y="621">
-2.0
</text>
<path stroke="white" stroke-dasharray="1,2" d="M50 522l924 0"/>
<text stroke="none" fill="white" font-size="16" x="8" y="530">
-1.0
</text>
<path stroke="white" d="M50 431l924 0"/>
<text stroke="none" fill="white" font-size="16" x="18" y="439">
0.0
</text>
<path stroke="white" stroke-dasharray="1,2" d="M50 340l924 0"/>
<text stroke="none" fill="white" font-size="16" x="18" y="348">
1.0
</text>
<path stroke="white" stroke-dasharray="1,2" d="M50 249l924 0"/>
<text stroke="none" fill="white" font-size="16" x="18" y="257">
2.0
</text>
<path stroke="white" stroke-dasharray="1,2" d="M50 158l924 0"/>
<text stroke="none" fill="white" font-size="16" x="18" y="166">
3.0
</text>
<path stroke="white" stroke-dasharray="1,2" d="M50 67l924 0"/>
<text stroke="none" fill="white" font-size="16" x="18" y="75">
4.0
</text>
<text stroke="none" fill="white" font-size="16" x="10" y="32">
     
</text>
<path stroke="red" d="M462 23l46 0"/>
<text stroke="none" fill="white" font-size="16" x="518" y="32">
x1.vsampled_p
</text>
<path stroke="red" d="M50 431l1 0 1 -7 0 -15 1 -14 0 -5 1 2M54 414l0 -38 1 -5 0 -13 1 -3 0 -3 1 -1 0 -1 2 0 1 -1 3 0 1 1 3 0 1 -1 49 0M117 369l0 -20M117 369l1 17M118 407l0 -21M118 407l1 3M119 415l0 -5M119 415l1 2M120 418l0 -1M120 418l1 0M121 419l0 -1"/>
<path stroke="red" d="M121 419l425 0M546 420l0 -25 1 -3 0 -23 1 -6 1 -3 0 -1 1 -1 75 0 0 -13 1 -1 0 -5 1 0 1 1 18 0M646 341l0 -1 7 0M653 352l0 -12M653 352l1 1 0 -1 1 -1 0 -1 17 0M672 351l0 -1 27 0M699 351l0 -1 26 0M725 351l0 -1 6 0 0 -3 1 -1"/>
<path stroke="red" d="M732 348l0 -2M732 348l19 0M751 349l0 -1 8 0M759 351l0 -3M759 350l1 0 0 -1 18 0M778 350l0 -1 26 0M804 350l0 -1 26 0 1 1 0 -1 26 0M857 350l0 -1 26 0M883 350l0 -1M883 350l1 -1 26 0M910 350l0 -1 8 0M918 426l0 -77M918 426l1 0"/>
<path stroke="red" d="M919 426l0 -3 1 -1 0 -2 2 0 0 -1 52 0"/>
<path stroke="blue" d="M50 23l46 0"/>
<text stroke="none" fill="white" font-size="16" x="106" y="32">
x1.vsampled_n
</text>
<path stroke="blue" d="M50 431l1 0 1 -7 0 -16 1 -14 0 -5 1 2M54 414l0 -38 1 -5 0 -13 1 -3 0 -2 1 -2 0 -1 2 0 1 -1 3 0 1 1 5 0 0 -1 48 0 0 -1 1 -12 0 -35 1 -5 0 -10 1 -2 0 -2 1 -2 1 -1 418 0M540 280l0 -1 27 0M567 281l0 -2 6 0M573 287l0 -8M573 287l1 3"/>
<path stroke="blue" d="M574 306l0 -16M574 306l1 10 1 4 17 0M593 321l0 -1 7 0M600 334l0 -14M600 334l1 4M601 342l0 -4M601 341l5 0 0 -1 1 0M607 341l0 -1M607 341l26 0 0 -1M633 341l26 0 0 -1M659 341l20 0M679 347l0 -6M679 347l1 0 0 -1 26 0M706 349l0 -3"/>
<path stroke="blue" d="M706 349l1 -1 18 0M725 349l0 -1 26 0M751 349l0 -1M751 349l1 0 0 -1 26 0M778 349l0 -1 7 0M785 349l0 -1M785 349l27 0M812 350l0 -1M812 350l1 0 0 -1 18 0M831 350l0 -1 86 0M917 350l0 -1M917 350l1 -1 0 -53 1 -2 0 -8 1 -2 0 -3"/>
<path stroke="blue" d="M920 281l1 -1 2 0 0 -1 13 0M936 281l0 -2 38 0"/>
<path stroke="#FFA500" d="M462 39l46 0"/>
<text stroke="none" fill="white" font-size="16" x="518" y="48">
x1.vsampled_p-x1.vsampled_n
</text>
<path stroke="#FFA500" d="M50 431l2 0M52 432l0 -1M52 432l2 0 0 -1 63 0M117 453l0 -22M117 453l1 28M118 537l0 -56M118 537l1 8M119 560l0 -15M119 560l1 4M120 567l0 -3M120 567l1 2M121 570l0 -1M121 570l1 1 418 0 0 -1M540 571l6 0 0 -24 1 -3 0 -24 1 -5"/>
<path stroke="#FFA500" d="M548 515l1 -4 0 -1 2 0 1 -1 2 0M554 510l0 -1M554 510l13 0 0 -2M567 509l6 0M573 510l0 -8 1 -3 0 -17 1 -9 1 -4 0 -1 1 1 16 0 0 -1M593 469l7 0 0 -14 1 -4 0 -4M601 448l24 0 0 -12 1 -2 0 -5 1 0M627 430l0 -1M627 430l19 0M646 431l0 -1"/>
<path stroke="#FFA500" d="M646 430l7 0M653 442l0 -12M653 442l1 1 0 -1 1 -1 17 0 0 -1 1 0M673 441l0 -1M673 441l6 0 0 -6 1 -1M680 435l0 -1M680 435l18 0 1 1 0 -1 7 0 0 -3M706 433l25 0 0 -4 1 0M732 431l0 -2M732 431l27 0M759 434l0 -3M759 433l1 -1"/>
<path stroke="#FFA500" d="M760 432l25 0 0 -1 19 0M804 432l0 -1 35 0M839 432l0 -1 18 0M857 432l0 -1 26 0M883 432l0 -1 27 0M910 432l0 -1 8 0M918 561l0 -130M918 561l1 2M919 568l0 -5M919 568l1 1M920 570l0 -1M920 570l1 0M921 571l0 -1M921 571l15 0"/>
<path stroke="#FFA500" d="M936 571l0 -1M936 571l38 0"/>
<path stroke="green" d="M50 39l46 0"/>
<text stroke="none" fill="white" font-size="16" x="106" y="48">
x1.sw_sample-2
</text>
<path stroke="green" d="M50 613l1 0 1 -9 0 -21 1 -21M53 579l0 -23M53 579l1 31M54 613l0 -3M54 613l63 0M117 620l0 -172M117 449l422 0M539 614l0 -171M539 613l422 0M961 618l0 -170 1 1 12 0"/>
<path stroke="#FFC0C5" d="M462 55l46 0"/>
<text stroke="none" fill="white" font-size="16" x="518" y="64">
x1.comp_out_p+2
</text>
<path stroke="#FFC0C5" d="M50 249l1 0 1 -9 0 -22 1 -18 0 -4M53 198l1 5M54 249l0 -46M54 247l1 2 592 0 0 -165M647 85l14 0M661 249l0 -174M661 249l92 0 0 -142 1 -22 0 -1M754 85l12 0M766 250l0 -172M766 249l68 0 1 -145 0 -20M835 85l10 0M845 87l0 -4"/>
<path stroke="#FFC0C5" d="M845 87l1 148M846 249l0 -14M846 249l128 0"/>
<path stroke="#A52A2A" d="M50 55l46 0"/>
<text stroke="none" fill="white" font-size="16" x="106" y="64">
x1.comp_out_n-2
</text>
<path stroke="#A52A2A" d="M50 613l1 0 1 -9 0 -22 1 -19M53 564l0 -3M53 564l1 6M54 613l0 -43M54 613l487 0 1 1 0 -167M542 449l13 0M555 613l0 -173M555 613l13 0 0 -166M568 449l13 0 0 -9 1 165M582 613l0 -8M582 613l12 0M594 615l0 -168M594 449l14 0M608 614l0 -167"/>
<path stroke="#A52A2A" d="M608 613l13 0M621 616l0 -169M621 449l13 0M634 613l0 -172M634 613l39 0M673 616l0 -3M673 616l1 -117 0 -52M674 449l13 0M687 613l0 -171M687 613l13 0M700 619l0 -172M700 449l13 0 0 -9 1 162M714 613l0 -11M714 613l13 0 0 -165"/>
<path stroke="#A52A2A" d="M727 449l13 0M740 613l0 -173M740 613l40 0 0 -165M780 449l13 0M793 613l0 -174M793 613l14 0 0 -164 12 0M819 614l0 -171M819 613l41 0 0 -164 12 0M872 613l0 -174M872 613l14 0 0 -164 12 0M898 613l0 -174M898 613l14 0 1 -155"/>
<path stroke="#A52A2A" d="M913 458l0 -9 12 0M925 613l0 -173M925 613l12 0M937 614l0 -1M937 614l1 -91 0 -76M938 449l13 0M951 613l0 -172M951 613l23 0"/>
</svg>
