<?xml version="1.0" standalone="yes"?>
<!DOCTYPE svg PUBLIC "-//W3C//DTD SVG 1.1//EN"
 "http://www.w3.org/Graphics/SVG/1.1/DTD/svg11.dtd">
<svg xmlns="http://www.w3.org/2000/svg" version="1.1"
  width="100%" height="100%" viewBox="0 0 1024 768"
  style="fill: none; font-family: Helvetica;
 font: Helvetica;
">

<!-- Creator: NGspice -->

<rect x="0" y="0" width="1024" height="768" fill="black" stroke="none"/>
<text stroke="none" fill="white" font-size="16" x="358" y="752">
time
</text>
<text stroke="none" fill="white" font-size="16" x="10" y="16">
tran1: run150_vin-0.767725
</text>
<path stroke="white" d="M50 704l0 -637"/>
<text stroke="none" fill="white" font-size="16" x="35" y="728">
0.0
</text>
<path stroke="white" stroke-dasharray="1,2" d="M182 704l0 -637"/>
<text stroke="none" fill="white" font-size="16" x="157" y="728">
100.0
</text>
<path stroke="white" stroke-dasharray="1,2" d="M314 704l0 -637"/>
<text stroke="none" fill="white" font-size="16" x="289" y="728">
200.0
</text>
<path stroke="white" stroke-dasharray="1,2" d="M446 704l0 -637"/>
<text stroke="none" fill="white" font-size="16" x="421" y="728">
300.0
</text>
<path stroke="white" stroke-dasharray="1,2" d="M578 704l0 -637"/>
<text stroke="none" fill="white" font-size="16" x="553" y="728">
400.0
</text>
<path stroke="white" stroke-dasharray="1,2" d="M710 704l0 -637"/>
<text stroke="none" fill="white" font-size="16" x="685" y="728">
500.0
</text>
<path stroke="white" stroke-dasharray="1,2" d="M842 704l0 -637"/>
<text stroke="none" fill="white" font-size="16" x="817" y="728">
600.0
</text>
<path stroke="white" stroke-dasharray="1,2" d="M974 704l0 -637"/>
<text stroke="none" fill="white" font-size="16" x="949" y="728">
700.0
</text>
<text stroke="none" fill="white" font-size="16" x="614" y="752">
ns
</text>
<path stroke="white" stroke-dasharray="1,2" d="M50 704l924 0"/>
<text stroke="none" fill="white" font-size="16" x="8" y="712">
-2.5
</text>
<path stroke="white" stroke-dasharray="1,2" d="M50 655l924 0"/>
<text stroke="none" fill="white" font-size="16" x="8" y="663">
-2.0
</text>
<path stroke="white" stroke-dasharray="1,2" d="M50 606l924 0"/>
<text stroke="none" fill="white" font-size="16" x="8" y="614">
-1.5
</text>
<path stroke="white" stroke-dasharray="1,2" d="M50 557l924 0"/>
<text stroke="none" fill="white" font-size="16" x="8" y="565">
-1.0
</text>
<path stroke="white" stroke-dasharray="1,2" d="M50 508l924 0"/>
<text stroke="none" fill="white" font-size="16" x="8" y="516">
-0.5
</text>
<path stroke="white" d="M50 459l924 0"/>
<text stroke="none" fill="white" font-size="16" x="18" y="467">
0.0
</text>
<path stroke="white" stroke-dasharray="1,2" d="M50 410l924 0"/>
<text stroke="none" fill="white" font-size="16" x="18" y="418">
0.5
</text>
<path stroke="white" stroke-dasharray="1,2" d="M50 361l924 0"/>
<text stroke="none" fill="white" font-size="16" x="18" y="369">
1.0
</text>
<path stroke="white" stroke-dasharray="1,2" d="M50 312l924 0"/>
<text stroke="none" fill="white" font-size="16" x="18" y="320">
1.5
</text>
<path stroke="white" stroke-dasharray="1,2" d="M50 263l924 0"/>
<text stroke="none" fill="white" font-size="16" x="18" y="271">
2.0
</text>
<path stroke="white" stroke-dasharray="1,2" d="M50 214l924 0"/>
<text stroke="none" fill="white" font-size="16" x="18" y="222">
2.5
</text>
<path stroke="white" stroke-dasharray="1,2" d="M50 165l924 0"/>
<text stroke="none" fill="white" font-size="16" x="18" y="173">
3.0
</text>
<path stroke="white" stroke-dasharray="1,2" d="M50 116l924 0"/>
<text stroke="none" fill="white" font-size="16" x="18" y="124">
3.5
</text>
<path stroke="white" stroke-dasharray="1,2" d="M50 67l924 0"/>
<text stroke="none" fill="white" font-size="16" x="18" y="75">
4.0
</text>
<text stroke="none" fill="white" font-size="16" x="10" y="32">
     
</text>
<path stroke="red" d="M462 23l46 0"/>
<text stroke="none" fill="white" font-size="16" x="518" y="32">
x1.vsampled_p
</text>
<path stroke="red" d="M50 459l1 0 1 -7 0 -17 1 -15 0 -5 1 2M54 441l0 -42 1 -5 0 -14 1 -3 0 -3 1 -1 0 -1 1 -1 59 0M117 393l0 -22M117 393l1 17M118 433l0 -23M118 433l1 3M119 442l0 -6M119 442l1 1M120 444l0 -1M120 444l1 1M121 446l0 -1M121 446l425 0"/>
<path stroke="red" d="M546 446l0 -22 1 -3 0 -27 1 -7 0 -4 1 -2 1 0 0 -1 17 0M567 381l0 -1 58 0 0 -11 1 -2 0 -7 2 0M628 361l0 -1M628 361l5 0 0 -1M633 361l13 0M646 362l0 -1 7 0M653 373l0 -12M653 373l1 2 0 -2 1 -1 76 0 0 -1 1 -2 0 -1M732 369l2 0"/>
<path stroke="red" d="M734 369l1 1 3 0 0 -1 13 0M751 370l0 -1M751 370l1 0 0 -1M752 370l7 0M759 373l0 -4M759 371l54 0M813 372l0 -1M813 372l1 0 0 -1 17 0M831 372l0 -1 7 0 0 -1M838 371l80 0M918 373l0 -2M918 373l1 1M919 453l0 -79M919 453l1 0 0 -3"/>
<path stroke="red" d="M920 450l1 -1 0 -2 1 0 0 -1 52 0"/>
<path stroke="blue" d="M50 23l46 0"/>
<text stroke="none" fill="white" font-size="16" x="106" y="32">
x1.vsampled_n
</text>
<path stroke="blue" d="M50 459l1 0 1 -7 0 -17 1 -16 0 -5 1 2M54 441l0 -42 1 -5 0 -14 1 -3 0 -3 1 -1 0 -1 1 -1 59 0 0 -2 1 -12 0 -38 1 -6 0 -9 1 -3 0 -3 1 -1 0 -1 419 0M540 297l0 -1 14 0 0 -1M554 296l13 0M567 297l0 -1 6 0 1 4M574 326l0 -26M574 326l1 10"/>
<path stroke="blue" d="M575 336l1 4 4 0 0 -1M580 340l13 0M593 341l0 -1 7 0M600 355l0 -15M600 355l1 4M601 363l0 -4M601 362l78 0M679 366l0 -4M679 366l1 1M680 369l0 -2 18 0 1 1 0 -1 7 0M706 371l0 -4M706 370l79 0M785 371l0 -1M785 371l133 0 0 -2 1 -3"/>
<path stroke="blue" d="M919 366l0 -52 1 -3 0 -8 1 -2 0 -3 1 -1 0 -1 1 0 0 -1M923 296l13 0M936 298l0 -2 14 0 0 -1M950 296l12 0 0 -1 1 0M963 296l0 -1M963 296l11 0"/>
<path stroke="#FFA500" d="M462 39l46 0"/>
<text stroke="none" fill="white" font-size="16" x="518" y="48">
x1.vsampled_p-x1.vsampled_n
</text>
<path stroke="#FFA500" d="M50 459l2 0M52 460l0 -1M52 460l2 0 0 -1 63 0M117 482l0 -23M117 482l1 30M118 573l0 -61M118 573l1 9M119 597l0 -15M119 597l1 5M120 605l0 -3M120 605l1 2M121 608l0 -1M121 608l1 1 418 0 0 -1M540 609l6 0M546 610l0 -23 1 -3"/>
<path stroke="#FFA500" d="M547 584l0 -27 1 -7 0 -4 1 -2 1 0 0 -1 4 0M554 544l0 -1 13 0 0 -1M567 543l6 0 1 -4 0 -26 1 -10 1 -4 24 0 0 -15 1 -4 0 -4M601 477l24 0 0 -10 1 -3 0 -7 1 0 1 1 25 0M653 470l0 -12M653 470l1 2 0 -2 1 -1 24 0 0 -5 1 0 0 -2"/>
<path stroke="#FFA500" d="M680 463l18 0 1 1 0 -1 6 0 1 1 0 -4M706 461l25 0 0 -1 1 -2 0 -2M732 458l19 0M751 459l0 -1 8 0M759 462l0 -4M759 460l26 0 0 -1 28 0M813 460l0 -1M813 460l1 0 0 -1 17 0M831 460l0 -1 7 0 0 -1M838 459l80 0M918 463l0 -4M918 463l1 4"/>
<path stroke="#FFA500" d="M919 599l0 -132M919 599l1 2M920 607l0 -6M920 607l1 0M921 609l0 -2M921 609l2 0M923 610l0 -1 13 0 0 -1M936 609l14 0M950 610l0 -1 12 0 1 1 1 -1 10 0"/>
<path stroke="green" d="M50 39l46 0"/>
<text stroke="none" fill="white" font-size="16" x="106" y="48">
x1.sw_sample-2
</text>
<path stroke="green" d="M50 655l1 0 1 -10 0 -23 1 -21M53 618l0 -24M53 618l1 34M54 655l0 -3M54 655l63 0M117 662l0 -184 1 0M118 479l0 -1M118 479l421 0M539 656l0 -184M539 655l422 0M961 660l0 -182 1 0M962 479l0 -1M962 479l12 0"/>
<path stroke="#FFC0C5" d="M462 55l46 0"/>
<text stroke="none" fill="white" font-size="16" x="518" y="64">
x1.comp_out_p+2
</text>
<path stroke="#FFC0C5" d="M50 263l1 0 1 -10 0 -23 1 -20 0 -4M53 208l1 5M54 264l0 -51M54 261l1 2 592 0M647 264l0 -179M647 87l14 0M661 263l0 -185M661 263l92 0 0 -177 1 0M754 87l0 -1M754 87l12 0M766 264l0 -185M766 264l1 -1 41 0 0 -177M808 87l11 0"/>
<path stroke="#FFC0C5" d="M819 263l0 -186M819 263l42 0 0 -177M861 87l11 0M872 263l0 -186M872 263l41 0 0 -138 1 -36 0 -3M914 87l11 0M925 264l0 -184M925 263l49 0"/>
<path stroke="#A52A2A" d="M50 55l46 0"/>
<text stroke="none" fill="white" font-size="16" x="106" y="64">
x1.comp_out_n-2
</text>
<path stroke="#A52A2A" d="M50 655l1 0 1 -10 0 -24 1 -20M53 602l0 -4M53 602l1 7M54 655l0 -46M54 655l487 0 1 1 0 -180M542 479l13 0M555 656l0 -187M555 655l13 0M568 656l0 -179M568 479l13 0 0 -10 1 177M582 656l0 -10M582 655l12 0M594 656l0 -179M594 479l14 0"/>
<path stroke="#A52A2A" d="M608 656l0 -181M608 655l13 0M621 658l0 -182M621 479l13 0M634 656l0 -187M634 655l13 0M647 656l0 -1 26 0M673 659l0 -4M673 659l1 -131 0 -52M674 479l13 0M687 655l0 -185M687 655l13 0M700 659l0 -183M700 479l13 0 0 -10 1 177"/>
<path stroke="#A52A2A" d="M714 656l0 -10M714 655l13 0 0 -177M727 479l13 0M740 655l0 -186M740 655l40 0 0 -177M780 479l13 0M793 655l0 -185M793 655l40 0 1 -165 0 -12M834 479l11 0 0 -3M845 479l1 165M846 655l0 -11M846 655l40 0 1 -165 0 -12M887 479l11 0"/>
<path stroke="#A52A2A" d="M898 655l0 -179M898 655l39 0 1 -70 0 -108M938 479l13 0M951 655l0 -186M951 655l23 0"/>
</svg>
