<?xml version="1.0" standalone="yes"?>
<!DOCTYPE svg PUBLIC "-//W3C//DTD SVG 1.1//EN"
 "http://www.w3.org/Graphics/SVG/1.1/DTD/svg11.dtd">
<svg xmlns="http://www.w3.org/2000/svg" version="1.1"
  width="100%" height="100%" viewBox="0 0 1024 768"
  style="fill: none; font-family: Helvetica;
 font: Helvetica;
">

<!-- Creator: NGspice -->

<rect x="0" y="0" width="1024" height="768" fill="black" stroke="none"/>
<text stroke="none" fill="white" font-size="16" x="358" y="752">
time
</text>
<text stroke="none" fill="white" font-size="16" x="10" y="16">
tran1: run145_vin-0.772119
</text>
<path stroke="white" d="M50 704l0 -637"/>
<text stroke="none" fill="white" font-size="16" x="35" y="728">
0.0
</text>
<path stroke="white" stroke-dasharray="1,2" d="M182 704l0 -637"/>
<text stroke="none" fill="white" font-size="16" x="157" y="728">
100.0
</text>
<path stroke="white" stroke-dasharray="1,2" d="M314 704l0 -637"/>
<text stroke="none" fill="white" font-size="16" x="289" y="728">
200.0
</text>
<path stroke="white" stroke-dasharray="1,2" d="M446 704l0 -637"/>
<text stroke="none" fill="white" font-size="16" x="421" y="728">
300.0
</text>
<path stroke="white" stroke-dasharray="1,2" d="M578 704l0 -637"/>
<text stroke="none" fill="white" font-size="16" x="553" y="728">
400.0
</text>
<path stroke="white" stroke-dasharray="1,2" d="M710 704l0 -637"/>
<text stroke="none" fill="white" font-size="16" x="685" y="728">
500.0
</text>
<path stroke="white" stroke-dasharray="1,2" d="M842 704l0 -637"/>
<text stroke="none" fill="white" font-size="16" x="817" y="728">
600.0
</text>
<path stroke="white" stroke-dasharray="1,2" d="M974 704l0 -637"/>
<text stroke="none" fill="white" font-size="16" x="949" y="728">
700.0
</text>
<text stroke="none" fill="white" font-size="16" x="614" y="752">
ns
</text>
<path stroke="white" stroke-dasharray="1,2" d="M50 704l924 0"/>
<text stroke="none" fill="white" font-size="16" x="8" y="712">
-3.0
</text>
<path stroke="white" stroke-dasharray="1,2" d="M50 613l924 0"/>
<text stroke="none" fill="white" font-size="16" x="8" y="621">
-2.0
</text>
<path stroke="white" stroke-dasharray="1,2" d="M50 522l924 0"/>
<text stroke="none" fill="white" font-size="16" x="8" y="530">
-1.0
</text>
<path stroke="white" d="M50 431l924 0"/>
<text stroke="none" fill="white" font-size="16" x="18" y="439">
0.0
</text>
<path stroke="white" stroke-dasharray="1,2" d="M50 340l924 0"/>
<text stroke="none" fill="white" font-size="16" x="18" y="348">
1.0
</text>
<path stroke="white" stroke-dasharray="1,2" d="M50 249l924 0"/>
<text stroke="none" fill="white" font-size="16" x="18" y="257">
2.0
</text>
<path stroke="white" stroke-dasharray="1,2" d="M50 158l924 0"/>
<text stroke="none" fill="white" font-size="16" x="18" y="166">
3.0
</text>
<path stroke="white" stroke-dasharray="1,2" d="M50 67l924 0"/>
<text stroke="none" fill="white" font-size="16" x="18" y="75">
4.0
</text>
<text stroke="none" fill="white" font-size="16" x="10" y="32">
     
</text>
<path stroke="red" d="M462 23l46 0"/>
<text stroke="none" fill="white" font-size="16" x="518" y="32">
x1.vsampled_p
</text>
<path stroke="red" d="M50 431l1 0 1 -7 0 -15 1 -14 0 -5 1 2M54 414l0 -38 1 -5 0 -13 1 -3 0 -3 1 -1 0 -1 2 0 1 -1 3 0 1 1 3 0 1 -1 49 0M117 369l0 -20M117 369l1 17M118 407l0 -21M118 407l1 3M119 415l0 -5M119 415l1 2M120 418l0 -1M120 418l1 0M121 419l0 -1"/>
<path stroke="red" d="M121 419l419 0M540 420l0 -1M540 420l1 -1 5 0M546 420l0 -19 1 -3 0 -28 1 -7 1 -3 0 -1 1 -1 17 0M567 359l0 -1 58 0 0 -16 1 -1 0 -2 1 1 19 0M646 341l0 -1 7 0M653 351l0 -11M653 351l1 1M654 353l0 -1M654 353l1 -2 4 0 0 -1 13 0"/>
<path stroke="red" d="M672 351l0 -1 1 0M673 351l0 -1M673 351l13 0 0 -1 12 0 1 1 0 -1M699 351l13 0 0 -1 13 0M725 351l0 -1M725 351l6 0 0 -4 1 0M732 348l0 -2M732 348l19 0M751 349l0 -1M751 349l1 -1 26 0M778 349l0 -1 7 0M785 349l0 -1M785 349l1 1 0 -1"/>
<path stroke="red" d="M786 349l26 0M812 350l0 -1M812 350l1 0 0 -1 18 0M831 350l0 -1 26 0M857 350l0 -1 26 0M883 350l0 -1M883 350l1 -1 26 0M910 350l0 -1 8 0M918 426l0 -77M918 426l1 0 0 -2 1 -1 0 -2 1 0 0 -1 2 0 0 -1 13 0M936 420l0 -1 38 0"/>
<path stroke="blue" d="M50 23l46 0"/>
<text stroke="none" fill="white" font-size="16" x="106" y="32">
x1.vsampled_n
</text>
<path stroke="blue" d="M50 431l1 0 1 -7 0 -16 1 -14 0 -5 1 2M54 414l0 -38 1 -5 0 -13 1 -3 0 -3 1 -1 0 -1 2 0 1 -1 3 0 1 1 5 0 0 -1 48 0 0 -1 1 -12 0 -35 1 -5 0 -10 1 -2 0 -3 2 -2 418 0M540 280l0 -1 27 0M567 281l0 -2 6 0M573 284l0 -5M573 284l1 4"/>
<path stroke="blue" d="M574 308l0 -20M574 308l1 9 1 3 17 0M593 321l0 -1 7 0M600 334l0 -14M600 334l1 4M601 341l0 -3M601 341l1 0 0 -1 17 0M619 341l0 -1M619 341l1 0 0 -1 26 0M646 341l0 -1 26 0M672 341l0 -1 7 0M679 345l0 -5M679 345l1 0M680 347l0 -2"/>
<path stroke="blue" d="M680 346l6 0 0 -1 12 0 1 1 7 0M706 349l0 -3M706 348l53 0M759 350l0 -2M759 349l19 0M778 350l0 -1 26 0M804 350l0 -1 27 0M831 350l0 -1 87 0M918 350l0 -49 1 -3 0 -10 1 -2 0 -4 1 -1 0 -1 1 0 0 -1 14 0M936 281l0 -2 38 0"/>
<path stroke="#FFA500" d="M462 39l46 0"/>
<text stroke="none" fill="white" font-size="16" x="518" y="48">
x1.vsampled_p-x1.vsampled_n
</text>
<path stroke="#FFA500" d="M50 431l2 0M52 432l0 -1M52 432l2 0 0 -1 63 0M117 453l0 -22M117 453l1 28M118 537l0 -56M118 537l1 9M119 560l0 -14M119 560l1 4M120 567l0 -3M120 567l1 2M121 570l0 -1M121 570l1 1 3 0M125 572l0 -1M125 572l414 0 0 -1 7 0 0 -19"/>
<path stroke="#FFA500" d="M546 552l1 -2 0 -29 1 -6 1 -3 0 -1 1 -1 17 0 0 -1M567 510l6 0 0 -5 1 -4 0 -20 1 -9 1 -3 24 0 0 -14 1 -4 0 -3 1 0M602 449l0 -1M602 449l23 0 0 -17 1 -1 0 -1 1 0 1 1 25 0M653 441l0 -10M653 441l1 2M654 444l0 -1 1 -1 0 -1"/>
<path stroke="#FFA500" d="M655 441l24 0 0 -4 1 -1 0 -1M680 436l26 0 0 -3 19 0M725 434l0 -1 6 0 0 -3 1 -1M732 431l0 -2M732 431l27 0 0 -2M759 430l26 0M785 431l0 -1M785 431l6 0 0 -1M791 431l13 0 0 -1M804 431l8 0M812 432l0 -1M812 432l1 0 0 -1 105 0"/>
<path stroke="#FFA500" d="M918 556l0 -126M918 556l1 3M919 568l0 -9M919 568l1 1M920 570l0 -1M920 570l1 1 2 0M923 572l0 -1M923 572l1 -1 12 0 0 -1M936 571l14 0M950 572l0 -1 12 0M962 572l0 -1M962 572l12 0"/>
<path stroke="green" d="M50 39l46 0"/>
<text stroke="none" fill="white" font-size="16" x="106" y="48">
x1.sw_sample-2
</text>
<path stroke="green" d="M50 613l1 0 1 -9 0 -21 1 -21M53 579l0 -23M53 579l1 31M54 613l0 -3M54 613l63 0M117 620l0 -172M117 449l422 0M539 614l0 -171M539 613l422 0M961 618l0 -170 1 1 12 0"/>
<path stroke="#FFC0C5" d="M462 55l46 0"/>
<text stroke="none" fill="white" font-size="16" x="518" y="64">
x1.comp_out_p+2
</text>
<path stroke="#FFC0C5" d="M50 249l1 0 1 -9 0 -22 1 -18 0 -4M53 198l1 5M54 249l0 -46M54 247l1 2 592 0M647 252l0 -168M647 85l14 0M661 249l0 -172M661 249l119 0 0 -165M780 85l13 0M793 249l0 -167M793 249l14 0 0 -164 12 0M819 249l0 -174M819 249l15 0"/>
<path stroke="#FFC0C5" d="M834 249l0 -165M834 85l11 0 0 -2M845 84l1 151M846 249l0 -14M846 249l128 0"/>
<path stroke="#A52A2A" d="M50 55l46 0"/>
<text stroke="none" fill="white" font-size="16" x="106" y="64">
x1.comp_out_n-2
</text>
<path stroke="#A52A2A" d="M50 613l1 0 1 -9 0 -22 1 -19M53 564l0 -3M53 564l1 6M54 613l0 -43M54 613l487 0 1 1 0 -167M542 449l13 0M555 613l0 -173M555 613l13 0 0 -165M568 449l13 0 0 -9 1 165M582 613l0 -8M582 613l12 0M594 616l0 -169M594 449l14 0M608 614l0 -167"/>
<path stroke="#A52A2A" d="M608 613l13 0M621 616l0 -169M621 449l13 0M634 613l0 -166M634 613l39 0M673 614l0 -1M673 614l1 -84 0 -83M674 449l13 0M687 613l0 -171M687 613l13 0M700 616l0 -169M700 449l13 0M713 599l0 -158M713 599l1 14 13 0 0 -165M727 449l13 0"/>
<path stroke="#A52A2A" d="M740 613l0 -171M740 613l13 0 0 -143 1 -20 0 -2M754 449l12 0M766 614l0 -174M766 613l94 0 0 -165M860 449l12 0M872 613l0 -174M872 613l14 0 0 -151 1 -13 0 -1M887 449l11 0M898 613l0 -174M898 613l15 0 0 -165M913 449l12 0M925 613l0 -173"/>
<path stroke="#A52A2A" d="M925 613l12 0 1 -52 0 -113M938 449l13 0M951 614l0 -167M951 613l23 0"/>
</svg>
