<?xml version="1.0" standalone="yes"?>
<!DOCTYPE svg PUBLIC "-//W3C//DTD SVG 1.1//EN"
 "http://www.w3.org/Graphics/SVG/1.1/DTD/svg11.dtd">
<svg xmlns="http://www.w3.org/2000/svg" version="1.1"
  width="100%" height="100%" viewBox="0 0 1024 768"
  style="fill: none; font-family: Helvetica;
 font: Helvetica;
">

<!-- Creator: NGspice -->

<rect x="0" y="0" width="1024" height="768" fill="black" stroke="none"/>
<text stroke="none" fill="white" font-size="16" x="358" y="752">
time
</text>
<text stroke="none" fill="white" font-size="16" x="10" y="16">
tran1: run149_vin-0.768604
</text>
<path stroke="white" d="M50 704l0 -637"/>
<text stroke="none" fill="white" font-size="16" x="35" y="728">
0.0
</text>
<path stroke="white" stroke-dasharray="1,2" d="M182 704l0 -637"/>
<text stroke="none" fill="white" font-size="16" x="157" y="728">
100.0
</text>
<path stroke="white" stroke-dasharray="1,2" d="M314 704l0 -637"/>
<text stroke="none" fill="white" font-size="16" x="289" y="728">
200.0
</text>
<path stroke="white" stroke-dasharray="1,2" d="M446 704l0 -637"/>
<text stroke="none" fill="white" font-size="16" x="421" y="728">
300.0
</text>
<path stroke="white" stroke-dasharray="1,2" d="M578 704l0 -637"/>
<text stroke="none" fill="white" font-size="16" x="553" y="728">
400.0
</text>
<path stroke="white" stroke-dasharray="1,2" d="M710 704l0 -637"/>
<text stroke="none" fill="white" font-size="16" x="685" y="728">
500.0
</text>
<path stroke="white" stroke-dasharray="1,2" d="M842 704l0 -637"/>
<text stroke="none" fill="white" font-size="16" x="817" y="728">
600.0
</text>
<path stroke="white" stroke-dasharray="1,2" d="M974 704l0 -637"/>
<text stroke="none" fill="white" font-size="16" x="949" y="728">
700.0
</text>
<text stroke="none" fill="white" font-size="16" x="614" y="752">
ns
</text>
<path stroke="white" stroke-dasharray="1,2" d="M50 704l924 0"/>
<text stroke="none" fill="white" font-size="16" x="8" y="712">
-3.0
</text>
<path stroke="white" stroke-dasharray="1,2" d="M50 613l924 0"/>
<text stroke="none" fill="white" font-size="16" x="8" y="621">
-2.0
</text>
<path stroke="white" stroke-dasharray="1,2" d="M50 522l924 0"/>
<text stroke="none" fill="white" font-size="16" x="8" y="530">
-1.0
</text>
<path stroke="white" d="M50 431l924 0"/>
<text stroke="none" fill="white" font-size="16" x="18" y="439">
0.0
</text>
<path stroke="white" stroke-dasharray="1,2" d="M50 340l924 0"/>
<text stroke="none" fill="white" font-size="16" x="18" y="348">
1.0
</text>
<path stroke="white" stroke-dasharray="1,2" d="M50 249l924 0"/>
<text stroke="none" fill="white" font-size="16" x="18" y="257">
2.0
</text>
<path stroke="white" stroke-dasharray="1,2" d="M50 158l924 0"/>
<text stroke="none" fill="white" font-size="16" x="18" y="166">
3.0
</text>
<path stroke="white" stroke-dasharray="1,2" d="M50 67l924 0"/>
<text stroke="none" fill="white" font-size="16" x="18" y="75">
4.0
</text>
<text stroke="none" fill="white" font-size="16" x="10" y="32">
     
</text>
<path stroke="red" d="M462 23l46 0"/>
<text stroke="none" fill="white" font-size="16" x="518" y="32">
x1.vsampled_p
</text>
<path stroke="red" d="M50 431l1 0 1 -7 0 -15 1 -14 0 -5 1 2M54 414l0 -38 1 -5 0 -13 1 -3 0 -2 1 -2 0 -1 2 0 1 -1 3 0 1 1 3 0 1 -1 49 0M117 369l0 -20M117 369l1 17M118 407l0 -21M118 407l1 3M119 415l0 -5M119 415l1 1M120 418l0 -2M120 418l1 0M121 419l0 -1"/>
<path stroke="red" d="M121 419l425 0 0 -22 1 -3 0 -20 1 -8 0 -5 1 -2 1 -1 75 0 0 -14 1 -1 0 -4 1 0 1 1 5 0 0 -1M633 340l13 0M646 341l0 -1 7 0M653 351l0 -11M653 351l1 2 0 -1 1 -1 0 -1 17 0M672 351l0 -1 27 0M699 351l0 -1 26 0M725 351l0 -1 6 0 0 -4"/>
<path stroke="red" d="M731 346l1 0M732 348l0 -2M732 348l27 0M759 351l0 -3M759 350l1 -1 18 0M778 350l0 -1 26 0M804 350l0 -1 27 0M831 350l0 -1 26 0M857 350l0 -1 26 0M883 350l0 -1M883 350l1 -1 26 0M910 350l0 -1 8 0M918 425l0 -76M918 425l1 1 0 -2"/>
<path stroke="red" d="M919 424l1 -1 0 -2 1 -1 1 0 0 -1 52 0"/>
<path stroke="blue" d="M50 23l46 0"/>
<text stroke="none" fill="white" font-size="16" x="106" y="32">
x1.vsampled_n
</text>
<path stroke="blue" d="M50 431l1 0 1 -7 0 -16 1 -14 0 -5 1 2M54 414l0 -38 1 -5 0 -13 1 -3 0 -2 1 -2 0 -1 2 0 1 -1 3 0 1 1 5 0 0 -1 48 0 0 -1 1 -12 0 -35 1 -5 0 -9 1 -3 0 -2 1 -1 0 -1 1 -1 417 0M539 280l0 -1M539 280l1 -1M540 280l0 -1M540 280l14 0"/>
<path stroke="blue" d="M554 280l0 -1 12 0 1 1M567 281l0 -1 7 0M574 302l0 -23M574 302l1 6M575 318l0 -10M575 318l1 2 1 1 0 -1 16 0M593 321l0 -1 7 0M600 334l0 -14M600 334l1 4M601 342l0 -4M601 342l1 -1 4 0 0 -1 1 1 26 0 0 -1M633 341l26 0 0 -1M659 341l20 0"/>
<path stroke="blue" d="M679 346l0 -5M679 346l1 0M680 347l0 -1 26 0M706 349l0 -3M706 349l1 0 0 -1 18 0M725 349l0 -1 26 0M751 349l0 -1M751 349l1 0 0 -1 26 0M778 349l0 -1 7 0M785 349l0 -1M785 349l28 0M813 350l0 -1 18 0M831 350l0 -1 87 0M918 350l0 -50"/>
<path stroke="blue" d="M918 300l1 -3 0 -10 1 -2 0 -3 1 -1 0 -1 2 0 0 -1 13 0M936 281l0 -2M936 280l14 0 0 -1 24 0"/>
<path stroke="#FFA500" d="M462 39l46 0"/>
<text stroke="none" fill="white" font-size="16" x="518" y="48">
x1.vsampled_p-x1.vsampled_n
</text>
<path stroke="#FFA500" d="M50 431l2 0M52 432l0 -1M52 432l2 0 0 -1 63 0M117 453l0 -22M117 453l1 28M118 537l0 -56M118 537l1 8M119 559l0 -14M119 559l1 5M120 567l0 -3M120 567l1 2M121 570l0 -1M121 570l1 0 1 1 417 0 0 -1M540 571l1 0 0 -1M541 571l5 0"/>
<path stroke="#FFA500" d="M546 571l0 -23 1 -2 0 -21 1 -7 0 -5 1 -2 2 -2 3 0M554 510l0 -1 13 0 0 -1M567 509l7 0 0 -22 1 -6 0 -10 1 -2 1 -1 3 0M580 469l0 -1M580 469l13 0 0 -1 7 0M600 469l0 -14 1 -4 0 -4 1 1 23 0 0 -14 1 -1 0 -4 1 0M627 430l0 -1"/>
<path stroke="#FFA500" d="M627 430l19 0M646 431l0 -1 7 0M653 442l0 -12M653 442l1 1 0 -1 1 -1 0 -1 4 0M659 441l0 -1 13 0M672 441l0 -1 7 0 0 -4 1 -1 0 -1M680 435l19 0M699 436l0 -1 7 0 0 -3 1 1 24 0 0 -4 1 0M732 430l0 -1M732 430l1 0M733 431l0 -1"/>
<path stroke="#FFA500" d="M733 431l5 0 0 -1 1 0M739 431l0 -1M739 431l13 0 0 -1M752 431l7 0M759 434l0 -3M759 432l26 0 0 -1 28 0 0 -1M813 431l105 0M918 557l0 -127M918 557l1 2M919 568l0 -9M919 568l1 1M920 570l0 -1M920 570l2 0M922 571l0 -1M922 571l14 0"/>
<path stroke="#FFA500" d="M936 571l0 -2M936 571l38 0"/>
<path stroke="green" d="M50 39l46 0"/>
<text stroke="none" fill="white" font-size="16" x="106" y="48">
x1.sw_sample-2
</text>
<path stroke="green" d="M50 613l1 0 1 -9 0 -21 1 -21M53 579l0 -23M53 579l1 31M54 613l0 -3M54 613l63 0M117 620l0 -172M117 449l422 0M539 614l0 -171M539 613l422 0M961 618l0 -170 1 1 12 0"/>
<path stroke="#FFC0C5" d="M462 55l46 0"/>
<text stroke="none" fill="white" font-size="16" x="518" y="64">
x1.comp_out_p+2
</text>
<path stroke="#FFC0C5" d="M50 249l1 0 1 -9 0 -22 1 -18 0 -4M53 198l1 5M54 249l0 -46M54 247l1 2 592 0 0 -166M647 85l14 0M661 249l0 -174M661 249l92 0 0 -164 1 -1M754 85l0 -1M754 85l12 0M766 249l0 -166M766 249l68 0 0 -165M834 85l11 0 0 -2M845 84l1 151"/>
<path stroke="#FFC0C5" d="M846 249l0 -14M846 249l128 0"/>
<path stroke="#A52A2A" d="M50 55l46 0"/>
<text stroke="none" fill="white" font-size="16" x="106" y="64">
x1.comp_out_n-2
</text>
<path stroke="#A52A2A" d="M50 613l1 0 1 -9 0 -22 1 -19M53 564l0 -3M53 564l1 6M54 613l0 -43M54 613l487 0 1 1 0 -167M542 449l13 0M555 613l0 -173M555 613l13 0M568 614l0 -167M568 449l13 0 0 -9 1 165M582 613l0 -8M582 613l12 0M594 618l0 -171M594 449l14 0"/>
<path stroke="#A52A2A" d="M608 614l0 -167M608 613l13 0M621 616l0 -169M621 449l13 0M634 613l0 -172M634 613l39 0M673 615l0 -2M673 615l1 -97 0 -71M674 449l13 0M687 613l0 -172M687 613l13 0M700 618l0 -171M700 449l13 0 0 -9 1 165M714 613l0 -8M714 613l13 0"/>
<path stroke="#A52A2A" d="M727 613l0 -165M727 449l13 0M740 613l0 -173M740 613l40 0 0 -165M780 449l13 0M793 613l0 -174M793 613l14 0 0 -165 1 1 11 0M819 613l0 -168M819 613l41 0 0 -165M860 449l12 0M872 613l0 -174M872 613l14 0 0 -151 1 -13 0 -1M887 449l11 0"/>
<path stroke="#A52A2A" d="M898 613l0 -174M898 613l15 0 0 -165M913 449l12 0M925 613l0 -173M925 613l12 0M937 614l0 -1M937 614l1 -91 0 -76M938 449l13 0M951 613l0 -173M951 613l23 0"/>
</svg>
