<?xml version="1.0" standalone="yes"?>
<!DOCTYPE svg PUBLIC "-//W3C//DTD SVG 1.1//EN"
 "http://www.w3.org/Graphics/SVG/1.1/DTD/svg11.dtd">
<svg xmlns="http://www.w3.org/2000/svg" version="1.1"
  width="100%" height="100%" viewBox="0 0 1024 768"
  style="fill: none; font-family: Helvetica;
 font: Helvetica;
">

<!-- Creator: NGspice -->

<rect x="0" y="0" width="1024" height="768" fill="black" stroke="none"/>
<text stroke="none" fill="white" font-size="16" x="358" y="752">
time
</text>
<text stroke="none" fill="white" font-size="16" x="10" y="16">
tran1: run376_vin-0.569092
</text>
<path stroke="white" d="M50 704l0 -637"/>
<text stroke="none" fill="white" font-size="16" x="35" y="728">
0.0
</text>
<path stroke="white" stroke-dasharray="1,2" d="M182 704l0 -637"/>
<text stroke="none" fill="white" font-size="16" x="157" y="728">
100.0
</text>
<path stroke="white" stroke-dasharray="1,2" d="M314 704l0 -637"/>
<text stroke="none" fill="white" font-size="16" x="289" y="728">
200.0
</text>
<path stroke="white" stroke-dasharray="1,2" d="M446 704l0 -637"/>
<text stroke="none" fill="white" font-size="16" x="421" y="728">
300.0
</text>
<path stroke="white" stroke-dasharray="1,2" d="M578 704l0 -637"/>
<text stroke="none" fill="white" font-size="16" x="553" y="728">
400.0
</text>
<path stroke="white" stroke-dasharray="1,2" d="M710 704l0 -637"/>
<text stroke="none" fill="white" font-size="16" x="685" y="728">
500.0
</text>
<path stroke="white" stroke-dasharray="1,2" d="M842 704l0 -637"/>
<text stroke="none" fill="white" font-size="16" x="817" y="728">
600.0
</text>
<path stroke="white" stroke-dasharray="1,2" d="M974 704l0 -637"/>
<text stroke="none" fill="white" font-size="16" x="949" y="728">
700.0
</text>
<text stroke="none" fill="white" font-size="16" x="614" y="752">
ns
</text>
<path stroke="white" stroke-dasharray="1,2" d="M50 704l924 0"/>
<text stroke="none" fill="white" font-size="16" x="8" y="712">
-3.0
</text>
<path stroke="white" stroke-dasharray="1,2" d="M50 613l924 0"/>
<text stroke="none" fill="white" font-size="16" x="8" y="621">
-2.0
</text>
<path stroke="white" stroke-dasharray="1,2" d="M50 522l924 0"/>
<text stroke="none" fill="white" font-size="16" x="8" y="530">
-1.0
</text>
<path stroke="white" d="M50 431l924 0"/>
<text stroke="none" fill="white" font-size="16" x="18" y="439">
0.0
</text>
<path stroke="white" stroke-dasharray="1,2" d="M50 340l924 0"/>
<text stroke="none" fill="white" font-size="16" x="18" y="348">
1.0
</text>
<path stroke="white" stroke-dasharray="1,2" d="M50 249l924 0"/>
<text stroke="none" fill="white" font-size="16" x="18" y="257">
2.0
</text>
<path stroke="white" stroke-dasharray="1,2" d="M50 158l924 0"/>
<text stroke="none" fill="white" font-size="16" x="18" y="166">
3.0
</text>
<path stroke="white" stroke-dasharray="1,2" d="M50 67l924 0"/>
<text stroke="none" fill="white" font-size="16" x="18" y="75">
4.0
</text>
<text stroke="none" fill="white" font-size="16" x="10" y="32">
     
</text>
<path stroke="red" d="M462 23l46 0"/>
<text stroke="none" fill="white" font-size="16" x="518" y="32">
x1.vsampled_p
</text>
<path stroke="red" d="M50 431l1 0 1 -7 0 -15 1 -14 0 -5 1 2M54 414l0 -37 1 -4 0 -17 1 -3 1 -2 0 -1 2 0 1 -1 4 0M64 350l0 -1M64 350l4 0 1 -1 48 0M117 361l0 -12M117 361l1 14M118 392l0 -17M118 392l1 3M119 397l0 -2M119 397l1 1M120 400l0 -2M120 400l1 0"/>
<path stroke="red" d="M121 400l1 1 424 0 0 -22 1 -3 0 -27 1 -4 0 -3 1 -1 0 -1 5 0 0 -1M554 340l13 0M567 341l0 -1 13 0 0 -1M580 340l26 0 0 -1 1 0M607 340l0 -1M607 340l26 0 0 -1M633 340l20 0M653 350l0 -10M653 350l1 2M654 353l0 -1 1 -1 0 -1 76 0"/>
<path stroke="red" d="M731 350l1 -2 0 -2M732 347l1 1 5 0 0 -1M738 348l21 0M759 351l0 -3M759 349l53 0M812 350l0 -1 19 0M831 350l0 -1 26 0M857 350l0 -1 26 0M883 350l0 -1M883 350l1 -1 26 0M910 350l0 -1 8 0M918 405l0 -56M918 405l1 2 0 -3 1 -1 0 -1"/>
<path stroke="red" d="M920 402l1 -1 53 0"/>
<path stroke="blue" d="M50 23l46 0"/>
<text stroke="none" fill="white" font-size="16" x="106" y="32">
x1.vsampled_n
</text>
<path stroke="blue" d="M50 431l1 0 1 -7 0 -15 1 -15 0 -4 1 1M54 414l0 -37 1 -4 0 -17 1 -3 1 -2 0 -1 2 0 1 -1 4 0M64 350l0 -1M64 350l4 0 1 -1 48 0 0 -1 1 -10 0 -28 1 -3 0 -3 1 -3 0 -2 1 -1 1 0 0 -1 417 0M539 298l0 -1M539 298l1 0M540 299l0 -1 14 0"/>
<path stroke="blue" d="M554 298l0 -1 12 0 1 1M567 299l0 -1 7 0M574 321l0 -23M574 321l1 8M575 337l0 -8M575 337l1 1M576 339l0 -1M576 339l2 0 0 -1 15 0M593 339l0 -1M593 339l1 0 0 -1 6 0M600 354l0 -16M600 354l1 3M601 360l0 -3M601 359l24 0 0 -8 1 -1"/>
<path stroke="blue" d="M626 350l0 -7 1 -1 0 -1 52 0M679 347l0 -6M679 347l1 0 0 -1 26 0M706 349l0 -3M706 349l6 0 0 -1M712 349l26 0 0 -1M738 349l27 0 0 -1M765 349l21 0M786 350l0 -1 18 0M804 350l0 -1 27 0M831 350l0 -1 86 0M917 350l0 -1M917 350l1 0"/>
<path stroke="blue" d="M918 350l0 -29 1 -3 0 -12 1 -3 0 -3 1 -1 0 -1 2 0 0 -1 13 0M936 299l0 -2M936 298l14 0 0 -1 24 0"/>
<path stroke="#FFA500" d="M462 39l46 0"/>
<text stroke="none" fill="white" font-size="16" x="518" y="48">
x1.vsampled_p-x1.vsampled_n
</text>
<path stroke="#FFA500" d="M50 431l2 0 1 1 1 0 0 -1 63 0M117 444l0 -13M117 444l1 24M118 513l0 -45M118 513l1 6M119 524l0 -5M119 524l1 4M120 532l0 -4M120 532l2 2 1 0 1 1 415 0 0 -1 1 0M540 535l0 -1 6 0M546 535l0 -23 1 -3 0 -27 1 -3 0 -3 1 -1 0 -1"/>
<path stroke="#FFA500" d="M549 474l1 -1 17 0M567 474l0 -2M567 473l7 0 0 -23 1 -9 0 -7 1 -2 17 0M593 433l0 -1 7 0M600 433l0 -16 1 -3 0 -3 1 1 4 0 0 -1 1 1 18 0M625 419l0 -7M625 419l1 2M626 428l0 -7M626 428l1 1M627 430l0 -1M627 430l26 0M653 440l0 -10"/>
<path stroke="#FFA500" d="M653 440l1 2M654 443l0 -1 1 -2 24 0 0 -6 1 0M680 435l0 -1M680 435l26 0 0 -3 25 0 1 -1 0 -2M732 430l27 0M759 433l0 -3M759 431l27 0 0 -1M786 431l26 0M812 432l0 -1 28 0M840 432l0 -1 77 0 1 -1M918 516l0 -86M918 516l1 4M919 529l0 -9"/>
<path stroke="#FFA500" d="M919 529l1 2M920 532l0 -1M920 532l1 1M921 534l0 -1M921 534l2 0M923 535l0 -1M923 535l1 0 0 -1 1 1 11 0 0 -2M936 534l14 0M950 535l0 -1M950 535l12 0 0 -1M962 535l12 0"/>
<path stroke="green" d="M50 39l46 0"/>
<text stroke="none" fill="white" font-size="16" x="106" y="48">
x1.sw_sample-2
</text>
<path stroke="green" d="M50 613l1 0 1 -9 0 -21 1 -21M53 580l0 -24M53 580l1 30M54 613l0 -3M54 613l63 0M117 620l0 -172M117 449l422 0M539 614l0 -171M539 613l422 0M961 618l0 -170 1 1 12 0"/>
<path stroke="#FFC0C5" d="M462 55l46 0"/>
<text stroke="none" fill="white" font-size="16" x="518" y="64">
x1.comp_out_p+2
</text>
<path stroke="#FFC0C5" d="M50 249l1 0 1 -9 0 -22 1 -18 0 -4M53 198l1 5M54 250l0 -76 1 70M55 249l0 -5M55 249l566 0 0 -165M621 85l13 0M634 249l0 -172M634 249l13 0 0 -165M647 85l14 0M661 249l0 -167M661 249l92 0 0 -165 1 1 12 0M766 249l0 -173M766 249l41 0"/>
<path stroke="#FFC0C5" d="M807 249l0 -165M807 85l12 0M819 249l0 -171M819 249l16 0 1 -147 0 -18M836 85l9 0 0 -4 1 35M846 250l0 -134M846 249l128 0"/>
<path stroke="#A52A2A" d="M50 55l46 0"/>
<text stroke="none" fill="white" font-size="16" x="106" y="64">
x1.comp_out_n-2
</text>
<path stroke="#A52A2A" d="M50 613l1 0 1 -9 0 -22 1 -19M53 564l0 -3M53 564l1 6M54 615l0 -45M54 612l1 1 486 0 1 1 0 -167M542 449l13 0M555 613l0 -173M555 613l13 0M568 614l0 -167M568 449l13 0 0 -3 1 89M582 614l0 -79M582 613l12 0M594 614l0 -167 1 2"/>
<path stroke="#A52A2A" d="M595 449l13 0M608 613l0 -172M608 613l65 0M673 615l0 -2M673 615l1 -104 0 -64M674 449l13 0M687 613l0 -173M687 613l13 0 0 -166M700 449l13 0 1 -9M714 614l0 -174M714 613l13 0 0 -165M727 449l13 0M740 614l0 -174M740 613l40 0"/>
<path stroke="#A52A2A" d="M780 613l0 -164 13 0M793 613l0 -174M793 613l67 0 0 -165M860 449l12 0M872 613l0 -174M872 613l14 0 0 -165 1 1 11 0M898 613l0 -174M898 613l15 0 0 -165M913 449l12 0M925 613l0 -173M925 613l12 0M937 614l0 -1M937 614l1 -93"/>
<path stroke="#A52A2A" d="M938 521l0 -74M938 449l13 0M951 614l0 -173M951 613l23 0"/>
</svg>
