<?xml version="1.0" standalone="yes"?>
<!DOCTYPE svg PUBLIC "-//W3C//DTD SVG 1.1//EN"
 "http://www.w3.org/Graphics/SVG/1.1/DTD/svg11.dtd">
<svg xmlns="http://www.w3.org/2000/svg" version="1.1"
  width="100%" height="100%" viewBox="0 0 1024 768"
  style="fill: none; font-family: Helvetica;
 font: Helvetica;
">

<!-- Creator: NGspice -->

<rect x="0" y="0" width="1024" height="768" fill="black" stroke="none"/>
<text stroke="none" fill="white" font-size="16" x="358" y="752">
time
</text>
<text stroke="none" fill="white" font-size="16" x="10" y="16">
tran1: run382_vin-0.563819
</text>
<path stroke="white" d="M50 704l0 -637"/>
<text stroke="none" fill="white" font-size="16" x="35" y="728">
0.0
</text>
<path stroke="white" stroke-dasharray="1,2" d="M182 704l0 -637"/>
<text stroke="none" fill="white" font-size="16" x="157" y="728">
100.0
</text>
<path stroke="white" stroke-dasharray="1,2" d="M314 704l0 -637"/>
<text stroke="none" fill="white" font-size="16" x="289" y="728">
200.0
</text>
<path stroke="white" stroke-dasharray="1,2" d="M446 704l0 -637"/>
<text stroke="none" fill="white" font-size="16" x="421" y="728">
300.0
</text>
<path stroke="white" stroke-dasharray="1,2" d="M578 704l0 -637"/>
<text stroke="none" fill="white" font-size="16" x="553" y="728">
400.0
</text>
<path stroke="white" stroke-dasharray="1,2" d="M710 704l0 -637"/>
<text stroke="none" fill="white" font-size="16" x="685" y="728">
500.0
</text>
<path stroke="white" stroke-dasharray="1,2" d="M842 704l0 -637"/>
<text stroke="none" fill="white" font-size="16" x="817" y="728">
600.0
</text>
<path stroke="white" stroke-dasharray="1,2" d="M974 704l0 -637"/>
<text stroke="none" fill="white" font-size="16" x="949" y="728">
700.0
</text>
<text stroke="none" fill="white" font-size="16" x="614" y="752">
ns
</text>
<path stroke="white" stroke-dasharray="1,2" d="M50 704l924 0"/>
<text stroke="none" fill="white" font-size="16" x="8" y="712">
-3.0
</text>
<path stroke="white" stroke-dasharray="1,2" d="M50 613l924 0"/>
<text stroke="none" fill="white" font-size="16" x="8" y="621">
-2.0
</text>
<path stroke="white" stroke-dasharray="1,2" d="M50 522l924 0"/>
<text stroke="none" fill="white" font-size="16" x="8" y="530">
-1.0
</text>
<path stroke="white" d="M50 431l924 0"/>
<text stroke="none" fill="white" font-size="16" x="18" y="439">
0.0
</text>
<path stroke="white" stroke-dasharray="1,2" d="M50 340l924 0"/>
<text stroke="none" fill="white" font-size="16" x="18" y="348">
1.0
</text>
<path stroke="white" stroke-dasharray="1,2" d="M50 249l924 0"/>
<text stroke="none" fill="white" font-size="16" x="18" y="257">
2.0
</text>
<path stroke="white" stroke-dasharray="1,2" d="M50 158l924 0"/>
<text stroke="none" fill="white" font-size="16" x="18" y="166">
3.0
</text>
<path stroke="white" stroke-dasharray="1,2" d="M50 67l924 0"/>
<text stroke="none" fill="white" font-size="16" x="18" y="75">
4.0
</text>
<text stroke="none" fill="white" font-size="16" x="10" y="32">
     
</text>
<path stroke="red" d="M462 23l46 0"/>
<text stroke="none" fill="white" font-size="16" x="518" y="32">
x1.vsampled_p
</text>
<path stroke="red" d="M50 431l1 0 1 -7 0 -15 1 -14 0 -5 1 2M54 415l0 -38 1 -4 0 -17 1 -3 1 -2 0 -1 2 0 1 -1 4 0M64 350l0 -1M64 350l4 0 1 -1 48 0M117 361l0 -12M117 361l1 13M118 389l0 -15M118 389l1 3M119 396l0 -4M119 396l1 2M120 399l0 -1M120 399l1 1"/>
<path stroke="red" d="M121 400l418 0M539 401l0 -1M539 401l1 0 1 -1M541 401l0 -1M541 401l5 0 0 -22 1 -3 0 -27 1 -4 0 -3 1 -1 0 -1 1 0 0 -1 17 0M567 340l0 -1 26 0M593 340l0 -1 26 0M619 340l0 -1 27 0M646 340l0 -1 7 0M653 350l0 -11M653 350l1 2 0 -1"/>
<path stroke="red" d="M654 351l2 -2 16 0M672 350l0 -1 26 0 1 1 0 -1 26 0M725 350l0 -1 7 0 0 -3 1 0M733 347l0 -1M733 347l18 0M751 348l0 -1 8 0M759 350l0 -3M759 349l6 0 0 -1 13 0M778 349l0 -1M778 349l7 0 1 1 0 -1 18 0M804 350l0 -1 10 0M814 350l0 -1"/>
<path stroke="red" d="M814 350l1 0 0 -1 15 0 1 1 0 -1 26 0M857 350l0 -1 26 0M883 350l0 -1 27 0M910 350l0 -1 9 0M919 350l0 -1M919 350l1 0M920 404l0 -58M920 404l1 2 0 -2 1 0 0 -3 14 0 0 -1M936 401l14 0 0 -1M950 401l11 0 0 -1 13 0"/>
<path stroke="blue" d="M50 23l46 0"/>
<text stroke="none" fill="white" font-size="16" x="106" y="32">
x1.vsampled_n
</text>
<path stroke="blue" d="M50 431l1 0 1 -7 0 -15 1 -15 0 -4 1 1M54 414l0 -37 1 -4 0 -17 1 -3 1 -2 0 -1 2 0 1 -1 4 0M64 350l0 -1M64 350l4 0 1 -1 48 0 0 -1 1 -10 0 -22 1 -5 0 -7 1 -3 0 -2 1 0 1 -1 418 0M540 299l0 -1 27 0M567 299l0 -1 7 0M574 321l0 -23"/>
<path stroke="blue" d="M574 321l1 8M575 337l0 -8M575 337l1 2 24 0M600 354l0 -15M600 354l1 3M601 360l0 -3M601 360l1 0 0 -1 17 0M619 360l0 -1 6 0 0 -5 1 -3 0 -8 1 0 0 -1 6 0 0 -1 13 0M646 342l0 -1M646 342l13 0 0 -1 13 0M672 342l0 -1M672 342l7 0"/>
<path stroke="blue" d="M679 347l0 -6M679 347l1 1 0 -1 6 0 0 -1M686 347l20 0M706 350l0 -3M706 350l1 -1 213 0 0 -28 1 -3 0 -12 1 0 0 -5 1 0 0 -3M923 299l1 0 0 -1 12 0M936 299l0 -1 38 0"/>
<path stroke="#FFA500" d="M462 39l46 0"/>
<text stroke="none" fill="white" font-size="16" x="518" y="48">
x1.vsampled_p-x1.vsampled_n
</text>
<path stroke="#FFA500" d="M50 431l2 0 1 1 1 0 0 -1 63 0M117 444l0 -13M117 444l1 24M118 504l0 -36M118 504l1 8M119 524l0 -12M119 524l1 4M120 531l0 -3M120 531l2 2 1 0 1 1 415 0 0 -1 1 0M540 534l0 -1 6 0 0 -22 1 -2 0 -27 1 -4 0 -3 1 -1 0 -1 1 0 0 -1"/>
<path stroke="#FFA500" d="M550 472l17 0M567 473l0 -2M567 472l7 0 0 -23 1 -8 0 -8 1 -1 0 -1 17 0M593 432l0 -1 7 0 0 -14 1 -3 0 -4 1 1 23 0M625 416l0 -5M625 416l1 3M626 427l0 -8M626 427l2 2 25 0M653 439l0 -10M653 439l1 2M654 442l0 -2 1 -1 24 0"/>
<path stroke="#FFA500" d="M679 439l0 -5 1 -1M680 434l0 -1M680 434l26 0 0 -3 26 0 0 -3 1 0M733 429l0 -1M733 429l26 0M759 432l0 -3M759 430l26 0M785 431l0 -1M785 431l1 1 0 -1 28 0M814 432l0 -1M814 432l1 0 0 -1 104 0M919 432l0 -1M919 432l1 0M920 514l0 -84"/>
<path stroke="#FFA500" d="M920 514l1 5M921 528l0 -9M921 528l1 1M922 532l0 -3M922 532l1 0M923 533l0 -1M923 533l2 0M925 534l0 -1M925 534l11 0 0 -2M936 533l14 0M950 534l0 -1M950 534l24 0"/>
<path stroke="green" d="M50 39l46 0"/>
<text stroke="none" fill="white" font-size="16" x="106" y="48">
x1.sw_sample-2
</text>
<path stroke="green" d="M50 613l1 0 1 -9 0 -21 1 -21M53 580l0 -24M53 580l1 30M54 613l0 -3M54 613l63 0M117 620l0 -172M117 449l422 0M539 614l0 -171M539 613l422 0M961 618l0 -170 1 1 12 0"/>
<path stroke="#FFC0C5" d="M462 55l46 0"/>
<text stroke="none" fill="white" font-size="16" x="518" y="64">
x1.comp_out_p+2
</text>
<path stroke="#FFC0C5" d="M50 249l1 0 1 -9 0 -22 1 -18 0 -4M53 198l1 5M54 250l0 -75 1 69M55 249l0 -5M55 249l566 0 0 -165M621 85l13 0M634 249l0 -172M634 249l13 0M647 250l0 -166M647 85l14 0M661 249l0 -174M661 249l92 0 0 -165M753 85l13 0M766 249l0 -172"/>
<path stroke="#FFC0C5" d="M766 249l14 0 0 -165M780 85l13 0M793 249l0 -173M793 249l16 0 0 -165M809 85l10 0M819 249l0 -172M819 249l41 0 0 -165 1 0M861 85l0 -1M861 85l11 0M872 249l0 -172M872 249l16 0 0 -165 1 1 9 0M898 249l0 -172M898 249l16 0 0 -146"/>
<path stroke="#FFC0C5" d="M914 103l1 -18 0 -1M915 85l10 0M925 250l0 -173M925 249l49 0"/>
<path stroke="#A52A2A" d="M50 55l46 0"/>
<text stroke="none" fill="white" font-size="16" x="106" y="64">
x1.comp_out_n-2
</text>
<path stroke="#A52A2A" d="M50 613l1 0 1 -9 0 -22 1 -19M53 564l0 -3M53 564l1 6M54 615l0 -45M54 612l1 1 486 0 1 1 0 -167M542 449l13 0M555 614l0 -167M555 613l13 0M568 614l0 -167M568 449l13 0 0 -8 1 159M582 613l0 -13M582 613l12 0 0 -166 1 1M595 449l0 -1"/>
<path stroke="#A52A2A" d="M595 449l13 0M608 613l0 -171M608 613l65 0 0 -66 1 -87 0 -12M674 449l13 0M687 613l0 -172M687 613l13 0 0 -165M700 449l13 0 0 -10 1 148M714 613l0 -26M714 613l14 0 0 -165M728 449l12 0M740 614l0 -172M740 613l94 0 0 -165M834 449l11 0"/>
<path stroke="#A52A2A" d="M845 449l0 -8 1 154M846 613l0 -18M846 613l91 0 0 -15 1 -129 0 -22M938 449l13 0M951 614l0 -167M951 613l23 0"/>
</svg>
