<?xml version="1.0" standalone="yes"?>
<!DOCTYPE svg PUBLIC "-//W3C//DTD SVG 1.1//EN"
 "http://www.w3.org/Graphics/SVG/1.1/DTD/svg11.dtd">
<svg xmlns="http://www.w3.org/2000/svg" version="1.1"
  width="100%" height="100%" viewBox="0 0 1024 768"
  style="fill: none; font-family: Helvetica;
 font: Helvetica;
">

<!-- Creator: NGspice -->

<rect x="0" y="0" width="1024" height="768" fill="black" stroke="none"/>
<text stroke="none" fill="white" font-size="16" x="358" y="752">
time
</text>
<text stroke="none" fill="white" font-size="16" x="10" y="16">
tran1: run379_vin-0.566456
</text>
<path stroke="white" d="M50 704l0 -637"/>
<text stroke="none" fill="white" font-size="16" x="35" y="728">
0.0
</text>
<path stroke="white" stroke-dasharray="1,2" d="M182 704l0 -637"/>
<text stroke="none" fill="white" font-size="16" x="157" y="728">
100.0
</text>
<path stroke="white" stroke-dasharray="1,2" d="M314 704l0 -637"/>
<text stroke="none" fill="white" font-size="16" x="289" y="728">
200.0
</text>
<path stroke="white" stroke-dasharray="1,2" d="M446 704l0 -637"/>
<text stroke="none" fill="white" font-size="16" x="421" y="728">
300.0
</text>
<path stroke="white" stroke-dasharray="1,2" d="M578 704l0 -637"/>
<text stroke="none" fill="white" font-size="16" x="553" y="728">
400.0
</text>
<path stroke="white" stroke-dasharray="1,2" d="M710 704l0 -637"/>
<text stroke="none" fill="white" font-size="16" x="685" y="728">
500.0
</text>
<path stroke="white" stroke-dasharray="1,2" d="M842 704l0 -637"/>
<text stroke="none" fill="white" font-size="16" x="817" y="728">
600.0
</text>
<path stroke="white" stroke-dasharray="1,2" d="M974 704l0 -637"/>
<text stroke="none" fill="white" font-size="16" x="949" y="728">
700.0
</text>
<text stroke="none" fill="white" font-size="16" x="614" y="752">
ns
</text>
<path stroke="white" stroke-dasharray="1,2" d="M50 704l924 0"/>
<text stroke="none" fill="white" font-size="16" x="8" y="712">
-3.0
</text>
<path stroke="white" stroke-dasharray="1,2" d="M50 613l924 0"/>
<text stroke="none" fill="white" font-size="16" x="8" y="621">
-2.0
</text>
<path stroke="white" stroke-dasharray="1,2" d="M50 522l924 0"/>
<text stroke="none" fill="white" font-size="16" x="8" y="530">
-1.0
</text>
<path stroke="white" d="M50 431l924 0"/>
<text stroke="none" fill="white" font-size="16" x="18" y="439">
0.0
</text>
<path stroke="white" stroke-dasharray="1,2" d="M50 340l924 0"/>
<text stroke="none" fill="white" font-size="16" x="18" y="348">
1.0
</text>
<path stroke="white" stroke-dasharray="1,2" d="M50 249l924 0"/>
<text stroke="none" fill="white" font-size="16" x="18" y="257">
2.0
</text>
<path stroke="white" stroke-dasharray="1,2" d="M50 158l924 0"/>
<text stroke="none" fill="white" font-size="16" x="18" y="166">
3.0
</text>
<path stroke="white" stroke-dasharray="1,2" d="M50 67l924 0"/>
<text stroke="none" fill="white" font-size="16" x="18" y="75">
4.0
</text>
<text stroke="none" fill="white" font-size="16" x="10" y="32">
     
</text>
<path stroke="red" d="M462 23l46 0"/>
<text stroke="none" fill="white" font-size="16" x="518" y="32">
x1.vsampled_p
</text>
<path stroke="red" d="M50 431l1 0 1 -7 0 -15 1 -14 0 -5 1 2M54 414l0 -37 1 -4 0 -17 1 -3 1 -2 0 -1 2 0 1 -1 4 0M64 350l0 -1M64 350l4 0 1 -1 48 0M117 361l0 -12M117 361l1 14M118 392l0 -17M118 392l1 3M119 397l0 -2M119 397l1 1M120 400l0 -2M120 400l2 0"/>
<path stroke="red" d="M122 401l0 -1M122 401l424 0 0 -25 1 -3 0 -23 1 -4 0 -4 1 -1 0 -1 5 0 0 -1 12 0 1 1 0 -1M567 340l13 0 0 -1 13 0M593 340l0 -1M593 340l13 0 0 -1 13 0M619 340l0 -1M619 340l1 0 0 -1M620 340l13 0 0 -1 13 0M646 340l0 -1M646 340l7 0"/>
<path stroke="red" d="M653 349l0 -10M653 349l1 2M654 353l0 -2 1 -1 4 0 0 -1M659 350l27 0 0 -1M686 350l26 0 0 -1M712 350l20 0 0 -4M732 347l19 0M751 348l0 -1M751 348l1 0 0 -1 7 0M759 350l0 -3M759 349l6 0 0 -1M765 349l21 0M786 350l0 -1M786 350l1 -1"/>
<path stroke="red" d="M787 349l17 0M804 350l0 -1 26 0 1 1 0 -1 87 0M918 387l0 -41M918 387l1 5M919 407l0 -15M919 406l1 -1 0 -2 1 -1 0 -1 53 0"/>
<path stroke="blue" d="M50 23l46 0"/>
<text stroke="none" fill="white" font-size="16" x="106" y="32">
x1.vsampled_n
</text>
<path stroke="blue" d="M50 431l1 0 1 -7 0 -15 1 -15 0 -4 1 1M54 414l0 -37 1 -4 0 -17 1 -3 1 -2 0 -1 2 0 1 -1 4 0M64 350l0 -1M64 350l4 0 1 -1 48 0 0 -1 1 -10 0 -27 1 -4 0 -3 1 -3 0 -2 1 -1 419 0M540 299l0 -1 14 0 0 -1M554 298l13 0M567 299l0 -1"/>
<path stroke="blue" d="M567 298l7 0M574 321l0 -23M574 321l1 8M575 337l0 -8M575 337l1 2 4 0 0 -1M580 339l20 0M600 355l0 -16M600 355l1 2M601 360l0 -3M601 360l1 -1 23 0 0 -8 1 -1 0 -7 1 -1 0 -1 19 0M646 342l0 -1 26 0M672 342l0 -1 7 0M679 346l0 -5"/>
<path stroke="blue" d="M679 346l1 0M680 348l0 -2 18 0 1 1 0 -1 7 0M706 349l0 -3M706 349l106 0M812 350l0 -1M812 350l1 0 0 -1 18 0M831 350l0 -1 26 0M857 350l0 -1 26 0M883 350l0 -1 27 0M910 350l0 -1 8 0 0 -20 1 -2 0 -15 1 -3 0 -6 1 -2 0 -2 1 0 0 -1"/>
<path stroke="blue" d="M922 298l1 0 0 -1M923 298l13 0M936 299l0 -1 14 0 0 -1M950 298l12 0 0 -1 1 0M963 298l0 -1M963 298l11 0"/>
<path stroke="#FFA500" d="M462 39l46 0"/>
<text stroke="none" fill="white" font-size="16" x="518" y="48">
x1.vsampled_p-x1.vsampled_n
</text>
<path stroke="#FFA500" d="M50 431l2 0 1 1 1 0 0 -1 63 0M117 444l0 -13M117 444l1 24M118 513l0 -45M118 513l1 6M119 524l0 -5M119 524l1 4M120 531l0 -3M120 531l1 2 1 0M122 534l0 -1M122 534l418 0 0 -1M540 534l6 0 0 -25 1 -2 0 -24 1 -4 0 -4 1 -1 0 -1"/>
<path stroke="#FFA500" d="M549 473l5 0 0 -1M554 473l12 0 1 -1M567 473l0 -1M567 473l7 0 0 -24 1 -8 0 -8 1 -1 24 0 0 -16 1 -3 0 -3M601 411l18 0M619 412l0 -1 6 0M625 419l0 -8M625 419l1 1M626 427l0 -7M626 427l1 1M627 429l0 -1M627 429l26 0M653 439l0 -10"/>
<path stroke="#FFA500" d="M653 439l1 2M654 442l0 -1 2 -2 3 0M659 440l0 -1 13 0M672 440l0 -1 7 0M679 440l0 -5 1 -1 0 -1M680 434l19 0M699 435l0 -1 7 0 0 -3 1 1 25 0 0 -4M732 429l1 0 1 1 4 0 0 -1 1 0M739 430l0 -1M739 430l20 0M759 432l0 -2M759 431l27 0"/>
<path stroke="#FFA500" d="M786 432l0 -1M786 432l1 0 0 -1 17 0M804 432l0 -1 34 0 0 -1 1 1 79 0M918 489l0 -58M918 489l1 7M919 525l0 -29M919 525l1 2M920 531l0 -4M920 531l1 1M921 533l0 -1M921 533l1 0M922 534l0 -1M922 534l14 0 0 -1M936 534l38 0"/>
<path stroke="green" d="M50 39l46 0"/>
<text stroke="none" fill="white" font-size="16" x="106" y="48">
x1.sw_sample-2
</text>
<path stroke="green" d="M50 613l1 0 1 -9 0 -21 1 -21M53 580l0 -24M53 580l1 30M54 613l0 -3M54 613l63 0M117 620l0 -172M117 449l422 0M539 614l0 -171M539 613l422 0M961 618l0 -170 1 1 12 0"/>
<path stroke="#FFC0C5" d="M462 55l46 0"/>
<text stroke="none" fill="white" font-size="16" x="518" y="64">
x1.comp_out_p+2
</text>
<path stroke="#FFC0C5" d="M50 249l1 0 1 -9 0 -22 1 -18 0 -4M53 198l1 5M54 250l0 -78 1 72M55 249l0 -5M55 249l566 0 0 -165M621 85l13 0M634 249l0 -167M634 249l13 0M647 253l0 -170M647 85l14 0M661 249l0 -170M661 249l92 0 0 -165M753 85l13 0M766 249l0 -171"/>
<path stroke="#FFC0C5" d="M766 249l14 0 0 -137 1 -26 0 -2M781 85l12 0M793 250l0 -174M793 249l67 0 0 -164 12 0M872 249l0 -173M872 249l14 0 0 -154 1 -10 11 0M898 249l0 -173M898 249l15 0 0 -165M913 85l12 0M925 250l0 -170M925 249l49 0"/>
<path stroke="#A52A2A" d="M50 55l46 0"/>
<text stroke="none" fill="white" font-size="16" x="106" y="64">
x1.comp_out_n-2
</text>
<path stroke="#A52A2A" d="M50 613l1 0 1 -9 0 -22 1 -19M53 564l0 -3M53 564l1 6M54 615l0 -45M54 612l1 1 487 0 0 -165M542 449l13 0M555 613l0 -171M555 613l13 0M568 614l0 -167M568 449l13 0 0 -8 1 158M582 613l0 -14M582 613l12 0M594 614l0 -167 1 2 13 0"/>
<path stroke="#A52A2A" d="M608 613l0 -173M608 613l65 0M673 615l0 -2M673 615l1 -101 0 -67M674 449l13 0M687 613l0 -173M687 613l13 0 0 -166M700 449l13 0 0 -5 1 66M714 614l0 -104M714 613l13 0 1 -148 0 -17M728 449l12 0M740 613l0 -172M740 613l67 0"/>
<path stroke="#A52A2A" d="M807 613l0 -165M807 449l12 0M819 613l0 -167M819 613l15 0 0 -164 11 0 0 -10 1 153M846 613l0 -21M846 613l91 0 0 -3 1 -139 0 -24M938 449l13 0M951 613l0 -173M951 613l23 0"/>
</svg>
