<?xml version="1.0" standalone="yes"?>
<!DOCTYPE svg PUBLIC "-//W3C//DTD SVG 1.1//EN"
 "http://www.w3.org/Graphics/SVG/1.1/DTD/svg11.dtd">
<svg xmlns="http://www.w3.org/2000/svg" version="1.1"
  width="100%" height="100%" viewBox="0 0 1024 768"
  style="fill: none; font-family: Helvetica;
 font: Helvetica;
">

<!-- Creator: NGspice -->

<rect x="0" y="0" width="1024" height="768" fill="black" stroke="none"/>
<text stroke="none" fill="white" font-size="16" x="358" y="752">
time
</text>
<text stroke="none" fill="white" font-size="16" x="10" y="16">
tran1: run380_vin-0.565577
</text>
<path stroke="white" d="M50 704l0 -637"/>
<text stroke="none" fill="white" font-size="16" x="35" y="728">
0.0
</text>
<path stroke="white" stroke-dasharray="1,2" d="M182 704l0 -637"/>
<text stroke="none" fill="white" font-size="16" x="157" y="728">
100.0
</text>
<path stroke="white" stroke-dasharray="1,2" d="M314 704l0 -637"/>
<text stroke="none" fill="white" font-size="16" x="289" y="728">
200.0
</text>
<path stroke="white" stroke-dasharray="1,2" d="M446 704l0 -637"/>
<text stroke="none" fill="white" font-size="16" x="421" y="728">
300.0
</text>
<path stroke="white" stroke-dasharray="1,2" d="M578 704l0 -637"/>
<text stroke="none" fill="white" font-size="16" x="553" y="728">
400.0
</text>
<path stroke="white" stroke-dasharray="1,2" d="M710 704l0 -637"/>
<text stroke="none" fill="white" font-size="16" x="685" y="728">
500.0
</text>
<path stroke="white" stroke-dasharray="1,2" d="M842 704l0 -637"/>
<text stroke="none" fill="white" font-size="16" x="817" y="728">
600.0
</text>
<path stroke="white" stroke-dasharray="1,2" d="M974 704l0 -637"/>
<text stroke="none" fill="white" font-size="16" x="949" y="728">
700.0
</text>
<text stroke="none" fill="white" font-size="16" x="614" y="752">
ns
</text>
<path stroke="white" stroke-dasharray="1,2" d="M50 704l924 0"/>
<text stroke="none" fill="white" font-size="16" x="8" y="712">
-3.0
</text>
<path stroke="white" stroke-dasharray="1,2" d="M50 613l924 0"/>
<text stroke="none" fill="white" font-size="16" x="8" y="621">
-2.0
</text>
<path stroke="white" stroke-dasharray="1,2" d="M50 522l924 0"/>
<text stroke="none" fill="white" font-size="16" x="8" y="530">
-1.0
</text>
<path stroke="white" d="M50 431l924 0"/>
<text stroke="none" fill="white" font-size="16" x="18" y="439">
0.0
</text>
<path stroke="white" stroke-dasharray="1,2" d="M50 340l924 0"/>
<text stroke="none" fill="white" font-size="16" x="18" y="348">
1.0
</text>
<path stroke="white" stroke-dasharray="1,2" d="M50 249l924 0"/>
<text stroke="none" fill="white" font-size="16" x="18" y="257">
2.0
</text>
<path stroke="white" stroke-dasharray="1,2" d="M50 158l924 0"/>
<text stroke="none" fill="white" font-size="16" x="18" y="166">
3.0
</text>
<path stroke="white" stroke-dasharray="1,2" d="M50 67l924 0"/>
<text stroke="none" fill="white" font-size="16" x="18" y="75">
4.0
</text>
<text stroke="none" fill="white" font-size="16" x="10" y="32">
     
</text>
<path stroke="red" d="M462 23l46 0"/>
<text stroke="none" fill="white" font-size="16" x="518" y="32">
x1.vsampled_p
</text>
<path stroke="red" d="M50 431l1 0 1 -7 0 -15 1 -14 0 -5 1 2M54 414l0 -37 1 -4 0 -17 1 -3 1 -2 0 -1 2 0 1 -1 4 0M64 350l0 -1M64 350l4 0 1 -1 48 0M117 361l0 -12M117 361l1 14M118 392l0 -17M118 392l1 2M119 397l0 -3M119 397l1 1M120 399l0 -1M120 399l1 1"/>
<path stroke="red" d="M121 400l1 0 1 1 418 0 0 -1M541 401l5 0 0 -21 1 -2 0 -28 1 -3 0 -4 1 -1 0 -2 2 0 0 -1 15 0 1 1 0 -1 26 0M593 340l0 -1 26 0M619 340l0 -1M619 340l1 0 0 -1 26 0M646 340l0 -1 7 0M653 349l0 -10M653 349l1 2M654 352l0 -1M654 352l1 -2"/>
<path stroke="red" d="M655 350l4 0 0 -1M659 350l27 0 0 -1M686 350l26 0 0 -1M712 350l20 0 0 -4 1 0M733 347l0 -1M733 347l18 0M751 348l0 -1M751 348l1 0 0 -1 7 0M759 350l0 -3M759 349l6 0 0 -1M765 349l21 0M786 350l0 -1 18 0M804 350l0 -1 27 0M831 350l0 -1"/>
<path stroke="red" d="M831 349l26 0M857 350l0 -1 26 0M883 350l0 -1M883 350l1 -1 26 0M910 350l0 -1 8 0M918 399l0 -53M918 399l1 5M919 407l0 -3M919 405l1 -1 0 -1 1 -1 0 -1 41 0 0 -1M962 401l12 0"/>
<path stroke="blue" d="M50 23l46 0"/>
<text stroke="none" fill="white" font-size="16" x="106" y="32">
x1.vsampled_n
</text>
<path stroke="blue" d="M50 431l1 0 1 -7 0 -15 1 -15 0 -4 1 1M54 414l0 -37 1 -4 0 -17 1 -3 1 -2 0 -1 2 0 1 -1 4 0M64 350l0 -1M64 350l4 0 1 -1 48 0 0 -1 1 -10 0 -27 1 -4 0 -3 1 -3 0 -2 1 -1 419 0M540 299l0 -1 14 0 0 -1M554 298l13 0M567 299l0 -1"/>
<path stroke="blue" d="M567 298l7 0M574 321l0 -23M574 321l1 8M575 337l0 -8M575 337l1 2 4 0 0 -1M580 339l20 0M600 351l0 -12M600 351l1 3M601 360l0 -6M601 360l1 -1 23 0 0 -9 1 -1 0 -6 2 -2 18 0M646 342l0 -1 26 0M672 342l0 -1 7 0M679 346l0 -5M679 346l1 1"/>
<path stroke="blue" d="M680 348l0 -2 18 0 1 1 0 -1 7 0M706 350l0 -4M706 349l106 0M812 350l0 -1M812 350l1 -1 18 0M831 350l0 -1 87 0M918 350l0 -26 1 -3 0 -11 1 -3 0 -4 1 -2 0 -2 1 0 0 -1 1 0 0 -1M923 298l13 0M936 299l0 -1 14 0 0 -1M950 298l24 0"/>
<path stroke="#FFA500" d="M462 39l46 0"/>
<text stroke="none" fill="white" font-size="16" x="518" y="48">
x1.vsampled_p-x1.vsampled_n
</text>
<path stroke="#FFA500" d="M50 431l2 0 1 1 1 0 0 -1 63 0M117 444l0 -13M117 444l1 24M118 513l0 -45M118 513l1 6M119 524l0 -5M119 524l1 4M120 531l0 -3M120 531l1 2 1 0M122 534l0 -1M122 534l418 0 0 -1M540 534l6 0 0 -21 1 -2 0 -28 1 -3 0 -4 1 -1 0 -2"/>
<path stroke="#FFA500" d="M549 473l2 0 0 -1 3 0M554 473l0 -1M554 473l12 0 1 -1M567 473l0 -1 7 0M574 473l0 -23 1 -8 0 -9 1 -1 4 0 0 -1M580 432l20 0 0 -13 1 -3 0 -6M601 411l18 0M619 412l0 -1 6 0M625 421l0 -10M625 421l1 1M626 428l0 -6M626 428l1 0"/>
<path stroke="#FFA500" d="M627 429l0 -1M627 429l26 0M653 439l0 -10M653 439l1 2M654 442l0 -1 2 -2 16 0M672 440l0 -1 7 0 0 -5 1 -1M680 434l0 -1M680 434l26 0 0 -3 1 0M707 432l0 -1M707 432l25 0 0 -4 1 0M733 429l0 -1M733 429l18 0M751 430l0 -1 8 0"/>
<path stroke="#FFA500" d="M759 432l0 -3M759 431l27 0M786 432l0 -1 53 0 1 1 0 -1 78 0M918 507l0 -76M918 507l1 7M919 527l0 -13M919 527l1 2M920 530l0 -1M920 530l1 2M921 533l0 -1M921 533l2 0M923 534l0 -1M923 534l13 0 0 -1M936 534l38 0"/>
<path stroke="green" d="M50 39l46 0"/>
<text stroke="none" fill="white" font-size="16" x="106" y="48">
x1.sw_sample-2
</text>
<path stroke="green" d="M50 613l1 0 1 -9 0 -21 1 -21M53 580l0 -24M53 580l1 30M54 613l0 -3M54 613l63 0M117 620l0 -172M117 449l422 0M539 614l0 -171M539 613l422 0M961 618l0 -170 1 1 12 0"/>
<path stroke="#FFC0C5" d="M462 55l46 0"/>
<text stroke="none" fill="white" font-size="16" x="518" y="64">
x1.comp_out_p+2
</text>
<path stroke="#FFC0C5" d="M50 249l1 0 1 -9 0 -22 1 -18 0 -4M53 198l1 5M54 250l0 -79 1 73M55 249l0 -5M55 249l566 0 0 -166M621 85l13 0M634 250l0 -173M634 249l13 0M647 254l0 -171M647 85l14 0M661 249l0 -172M661 249l92 0 0 -165M753 85l13 0M766 250l0 -168"/>
<path stroke="#FFC0C5" d="M766 249l14 0 0 -165 1 0M781 85l0 -1M781 85l12 0M793 250l0 -174M793 249l42 0 0 -157 1 -8M836 85l0 -1M836 85l9 0 0 -4 1 32M846 250l0 -137M846 249l128 0"/>
<path stroke="#A52A2A" d="M50 55l46 0"/>
<text stroke="none" fill="white" font-size="16" x="106" y="64">
x1.comp_out_n-2
</text>
<path stroke="#A52A2A" d="M50 613l1 0 1 -9 0 -22 1 -19M53 564l0 -3M53 564l1 6M54 615l0 -45M54 612l1 1 487 0 0 -165M542 449l13 0M555 614l0 -167M555 613l13 0 0 -165M568 449l13 0 0 -8 1 158M582 613l0 -14M582 613l12 0 0 -166 1 2 13 0M608 614l0 -173"/>
<path stroke="#A52A2A" d="M608 613l65 0 0 -8 1 -135 0 -23M674 449l13 0M687 613l0 -173M687 613l13 0M700 615l0 -168M700 449l13 0 0 -2 1 155M714 613l0 -11M714 613l14 0 0 -164 12 0M740 613l0 -171M740 613l67 0 0 -165M807 449l12 0M819 614l0 -171M819 613l41 0"/>
<path stroke="#A52A2A" d="M860 613l0 -165M860 449l12 0M872 613l0 -174M872 613l14 0 0 -165 1 1 11 0M898 613l0 -174M898 613l15 0 0 -165M913 449l12 0M925 613l0 -173M925 613l12 0M937 614l0 -1M937 614l1 -93 0 -74M938 449l13 0M951 614l0 -167M951 613l23 0"/>
</svg>
