<?xml version="1.0" standalone="yes"?>
<!DOCTYPE svg PUBLIC "-//W3C//DTD SVG 1.1//EN"
 "http://www.w3.org/Graphics/SVG/1.1/DTD/svg11.dtd">
<svg xmlns="http://www.w3.org/2000/svg" version="1.1"
  width="100%" height="100%" viewBox="0 0 1024 768"
  style="fill: none; font-family: Helvetica;
 font: Helvetica;
">

<!-- Creator: NGspice -->

<rect x="0" y="0" width="1024" height="768" fill="black" stroke="none"/>
<text stroke="none" fill="white" font-size="16" x="358" y="752">
time
</text>
<text stroke="none" fill="white" font-size="16" x="10" y="16">
tran1: run619_vin-0.355518
</text>
<path stroke="white" d="M50 704l0 -637"/>
<text stroke="none" fill="white" font-size="16" x="35" y="728">
0.0
</text>
<path stroke="white" stroke-dasharray="1,2" d="M182 704l0 -637"/>
<text stroke="none" fill="white" font-size="16" x="157" y="728">
100.0
</text>
<path stroke="white" stroke-dasharray="1,2" d="M314 704l0 -637"/>
<text stroke="none" fill="white" font-size="16" x="289" y="728">
200.0
</text>
<path stroke="white" stroke-dasharray="1,2" d="M446 704l0 -637"/>
<text stroke="none" fill="white" font-size="16" x="421" y="728">
300.0
</text>
<path stroke="white" stroke-dasharray="1,2" d="M578 704l0 -637"/>
<text stroke="none" fill="white" font-size="16" x="553" y="728">
400.0
</text>
<path stroke="white" stroke-dasharray="1,2" d="M710 704l0 -637"/>
<text stroke="none" fill="white" font-size="16" x="685" y="728">
500.0
</text>
<path stroke="white" stroke-dasharray="1,2" d="M842 704l0 -637"/>
<text stroke="none" fill="white" font-size="16" x="817" y="728">
600.0
</text>
<path stroke="white" stroke-dasharray="1,2" d="M974 704l0 -637"/>
<text stroke="none" fill="white" font-size="16" x="949" y="728">
700.0
</text>
<text stroke="none" fill="white" font-size="16" x="614" y="752">
ns
</text>
<path stroke="white" stroke-dasharray="1,2" d="M50 704l924 0"/>
<text stroke="none" fill="white" font-size="16" x="8" y="712">
-3.0
</text>
<path stroke="white" stroke-dasharray="1,2" d="M50 613l924 0"/>
<text stroke="none" fill="white" font-size="16" x="8" y="621">
-2.0
</text>
<path stroke="white" stroke-dasharray="1,2" d="M50 522l924 0"/>
<text stroke="none" fill="white" font-size="16" x="8" y="530">
-1.0
</text>
<path stroke="white" d="M50 431l924 0"/>
<text stroke="none" fill="white" font-size="16" x="18" y="439">
0.0
</text>
<path stroke="white" stroke-dasharray="1,2" d="M50 340l924 0"/>
<text stroke="none" fill="white" font-size="16" x="18" y="348">
1.0
</text>
<path stroke="white" stroke-dasharray="1,2" d="M50 249l924 0"/>
<text stroke="none" fill="white" font-size="16" x="18" y="257">
2.0
</text>
<path stroke="white" stroke-dasharray="1,2" d="M50 158l924 0"/>
<text stroke="none" fill="white" font-size="16" x="18" y="166">
3.0
</text>
<path stroke="white" stroke-dasharray="1,2" d="M50 67l924 0"/>
<text stroke="none" fill="white" font-size="16" x="18" y="75">
4.0
</text>
<text stroke="none" fill="white" font-size="16" x="10" y="32">
     
</text>
<path stroke="red" d="M462 23l46 0"/>
<text stroke="none" fill="white" font-size="16" x="518" y="32">
x1.vsampled_p
</text>
<path stroke="red" d="M50 431l1 0 1 -7 0 -15 1 -14 0 -5 1 2M54 415l0 -40 1 -5 0 -13 1 -3 0 -2 2 -2 1 0 1 -1 4 0M64 350l0 -1M64 350l4 0 1 -1 48 0M117 355l0 -6M117 355l1 9M118 375l0 -11M118 375l1 3M119 379l0 -1M119 379l2 2 418 0M539 382l0 -1M539 382l1 0"/>
<path stroke="red" d="M540 382l1 -1M541 382l0 -1M541 382l5 0 0 -27 1 -5 0 -22 1 -3 0 -2 1 -2 1 0 1 -1 15 0 1 1M567 322l0 -2 26 0M593 321l0 -1 7 0M600 338l0 -18M600 338l1 3M601 347l0 -6M601 344l1 -1 0 -2 4 0 0 -1 1 0M607 341l0 -1M607 341l26 0"/>
<path stroke="red" d="M633 341l0 -1M633 341l26 0 0 -1M659 341l20 0M679 346l0 -5M679 346l1 1M680 349l0 -2 1 -1 25 0M706 350l0 -4M706 349l1 0 1 -1 17 0M725 349l0 -1 26 0M751 349l0 -1M751 349l1 0 0 -1 26 0M778 349l0 -1 7 0M785 350l0 -2M785 350l1 0"/>
<path stroke="red" d="M786 350l0 -1 26 0M812 350l0 -1M812 350l1 0 0 -1 17 0 1 1 0 -1 87 0M918 357l0 -15M918 357l1 2M919 377l0 -18M919 377l1 5M920 383l0 -1M920 383l1 0 0 -1 29 0 0 -1M950 382l11 0 0 -1 13 0"/>
<path stroke="blue" d="M50 23l46 0"/>
<text stroke="none" fill="white" font-size="16" x="106" y="32">
x1.vsampled_n
</text>
<path stroke="blue" d="M50 431l1 0 1 -7 0 -15 1 -15 0 -4 1 1M54 415l0 -40 1 -5 0 -13 1 -3 0 -2 2 -2 1 0 1 -1 4 0M64 350l0 -1M64 350l4 0 1 -1 48 0 0 -1 1 -8 0 -14 1 -4 0 -2 1 -2 1 -1 419 0M540 318l0 -1 14 0 0 -1M554 317l13 0M567 318l0 -1 7 0M574 344l0 -27"/>
<path stroke="blue" d="M574 344l1 4M575 356l0 -8M575 356l1 1M576 358l0 -1M576 358l49 0 0 -8 1 -1 0 -8 1 0 0 -1 26 0M653 348l0 -8M653 348l1 2M654 351l0 -1M654 351l1 -1 17 0M672 351l0 -1 27 0M699 351l0 -1 26 0M725 351l0 -1 7 0 0 -3M732 348l27 0"/>
<path stroke="blue" d="M759 350l0 -2M759 349l19 0M778 350l0 -1 26 0M804 350l0 -1 27 0M831 350l0 -1 26 0M857 350l0 -1 26 0M883 350l0 -1 27 0M910 350l0 -1 8 0M918 352l0 -3 1 -1 0 -15 1 -4 0 -6 1 -3 0 -1 1 0 0 -1 1 0 0 -1 13 0M936 318l0 -1 38 0"/>
<path stroke="#FFA500" d="M462 39l46 0"/>
<text stroke="none" fill="white" font-size="16" x="518" y="48">
x1.vsampled_p-x1.vsampled_n
</text>
<path stroke="#FFA500" d="M50 431l3 0M53 432l0 -1 64 0M117 438l0 -7M117 438l1 17M118 480l0 -25M118 480l1 7M119 490l0 -3M119 490l1 3 1 2 1 0 1 1 417 0 0 -1M540 496l1 -1M541 496l0 -1M541 496l5 0 0 -27 1 -5 0 -22 1 -3 0 -2 1 -2 1 0 0 -1 17 0M567 435l0 -1"/>
<path stroke="#FFA500" d="M567 434l7 0 0 -27 1 -3 0 -9 1 -1 0 -1 1 0 1 1 2 0 0 -1 13 0M593 395l0 -2M593 394l7 0M600 411l0 -18M600 411l1 3M601 420l0 -6M601 417l1 -1 0 -1 1 -1 22 0M625 422l0 -8M625 422l1 1M626 430l0 -7M626 430l2 2 25 0 0 -8 1 -2"/>
<path stroke="#FFA500" d="M654 422l0 -1 1 1 4 0 0 -1M659 422l13 0 0 -1M672 422l7 0M679 427l0 -5M679 427l1 1M680 430l0 -3 26 0M706 431l0 -4M706 430l1 0 0 -1 25 0M732 432l0 -3M732 432l1 -1 18 0M751 432l0 -1M751 432l1 0 0 -1 7 0 0 -2M759 430l26 0"/>
<path stroke="#FFA500" d="M785 431l0 -1M785 431l27 0M812 432l0 -1M812 432l1 0 0 -1 25 0 0 -1M838 431l80 0M918 439l0 -17M918 439l1 3M919 475l0 -33M919 475l1 8M920 491l0 -8M920 491l1 2M921 494l0 -1M921 494l1 0M922 495l0 -1M922 495l1 0M923 496l0 -1"/>
<path stroke="#FFA500" d="M923 496l13 0 0 -1M936 496l38 0"/>
<path stroke="green" d="M50 39l46 0"/>
<text stroke="none" fill="white" font-size="16" x="106" y="48">
x1.sw_sample-2
</text>
<path stroke="green" d="M50 613l1 0 1 -9 0 -21 1 -21M53 580l0 -24M53 580l1 30M54 613l0 -3M54 613l63 0M117 620l0 -172M117 449l422 0M539 614l0 -171M539 613l422 0M961 618l0 -170 1 1 12 0"/>
<path stroke="#FFC0C5" d="M462 55l46 0"/>
<text stroke="none" fill="white" font-size="16" x="518" y="64">
x1.comp_out_p+2
</text>
<path stroke="#FFC0C5" d="M50 249l1 0 1 -9 0 -22 1 -18 0 -4M53 198l1 5M54 249l0 -46M54 248l1 1 539 0M594 250l0 -166M594 85l14 0M608 250l0 -167M608 249l13 0M621 252l0 -168M621 85l13 0M634 249l0 -172M634 249l39 0M673 254l0 -5M673 254l1 -127 0 -44"/>
<path stroke="#FFC0C5" d="M674 85l13 0M687 249l0 -171M687 249l13 0M700 254l0 -171M700 85l13 0 0 -9 1 162M714 249l0 -11M714 249l13 0 0 -165M727 85l13 0M740 250l0 -173M740 249l40 0 0 -165M780 85l13 0M793 249l0 -173M793 249l14 0 0 -165 1 1 11 0"/>
<path stroke="#FFC0C5" d="M819 250l0 -171M819 249l41 0 0 -164 12 0M872 249l0 -173M872 249l14 0 0 -157 1 -8M887 85l0 -1M887 85l11 0M898 249l0 -173M898 249l15 0 0 -165M913 85l12 0M925 250l0 -173M925 249l49 0"/>
<path stroke="#A52A2A" d="M50 55l46 0"/>
<text stroke="none" fill="white" font-size="16" x="106" y="64">
x1.comp_out_n-2
</text>
<path stroke="#A52A2A" d="M50 613l1 0 1 -9 0 -22 1 -19M53 564l0 -3M53 564l1 6M54 613l0 -43M54 613l487 0 1 1 0 -167M542 449l13 0M555 613l0 -172M555 613l13 0M568 618l0 -171M568 449l13 0 0 -9 1 162M582 613l0 -11M582 613l12 0M594 614l0 -1 53 0 0 -166"/>
<path stroke="#A52A2A" d="M647 449l14 0M661 613l0 -172M661 613l92 0 0 -165 1 1 12 0M766 614l0 -170M766 614l1 -1 67 0 0 -165M834 449l11 0 0 -10 1 153M846 613l0 -21M846 613l91 0 1 -53 0 -112M938 449l13 0M951 614l0 -168M951 613l23 0"/>
</svg>
