<?xml version="1.0" standalone="yes"?>
<!DOCTYPE svg PUBLIC "-//W3C//DTD SVG 1.1//EN"
 "http://www.w3.org/Graphics/SVG/1.1/DTD/svg11.dtd">
<svg xmlns="http://www.w3.org/2000/svg" version="1.1"
  width="100%" height="100%" viewBox="0 0 1024 768"
  style="fill: none; font-family: Helvetica;
 font: Helvetica;
">

<!-- Creator: NGspice -->

<rect x="0" y="0" width="1024" height="768" fill="black" stroke="none"/>
<text stroke="none" fill="white" font-size="16" x="358" y="752">
time
</text>
<text stroke="none" fill="white" font-size="16" x="10" y="16">
tran1: run621_vin-0.353761
</text>
<path stroke="white" d="M50 704l0 -637"/>
<text stroke="none" fill="white" font-size="16" x="35" y="728">
0.0
</text>
<path stroke="white" stroke-dasharray="1,2" d="M182 704l0 -637"/>
<text stroke="none" fill="white" font-size="16" x="157" y="728">
100.0
</text>
<path stroke="white" stroke-dasharray="1,2" d="M314 704l0 -637"/>
<text stroke="none" fill="white" font-size="16" x="289" y="728">
200.0
</text>
<path stroke="white" stroke-dasharray="1,2" d="M446 704l0 -637"/>
<text stroke="none" fill="white" font-size="16" x="421" y="728">
300.0
</text>
<path stroke="white" stroke-dasharray="1,2" d="M578 704l0 -637"/>
<text stroke="none" fill="white" font-size="16" x="553" y="728">
400.0
</text>
<path stroke="white" stroke-dasharray="1,2" d="M710 704l0 -637"/>
<text stroke="none" fill="white" font-size="16" x="685" y="728">
500.0
</text>
<path stroke="white" stroke-dasharray="1,2" d="M842 704l0 -637"/>
<text stroke="none" fill="white" font-size="16" x="817" y="728">
600.0
</text>
<path stroke="white" stroke-dasharray="1,2" d="M974 704l0 -637"/>
<text stroke="none" fill="white" font-size="16" x="949" y="728">
700.0
</text>
<text stroke="none" fill="white" font-size="16" x="614" y="752">
ns
</text>
<path stroke="white" stroke-dasharray="1,2" d="M50 704l924 0"/>
<text stroke="none" fill="white" font-size="16" x="8" y="712">
-2.5
</text>
<path stroke="white" stroke-dasharray="1,2" d="M50 655l924 0"/>
<text stroke="none" fill="white" font-size="16" x="8" y="663">
-2.0
</text>
<path stroke="white" stroke-dasharray="1,2" d="M50 606l924 0"/>
<text stroke="none" fill="white" font-size="16" x="8" y="614">
-1.5
</text>
<path stroke="white" stroke-dasharray="1,2" d="M50 557l924 0"/>
<text stroke="none" fill="white" font-size="16" x="8" y="565">
-1.0
</text>
<path stroke="white" stroke-dasharray="1,2" d="M50 508l924 0"/>
<text stroke="none" fill="white" font-size="16" x="8" y="516">
-0.5
</text>
<path stroke="white" d="M50 459l924 0"/>
<text stroke="none" fill="white" font-size="16" x="18" y="467">
0.0
</text>
<path stroke="white" stroke-dasharray="1,2" d="M50 410l924 0"/>
<text stroke="none" fill="white" font-size="16" x="18" y="418">
0.5
</text>
<path stroke="white" stroke-dasharray="1,2" d="M50 361l924 0"/>
<text stroke="none" fill="white" font-size="16" x="18" y="369">
1.0
</text>
<path stroke="white" stroke-dasharray="1,2" d="M50 312l924 0"/>
<text stroke="none" fill="white" font-size="16" x="18" y="320">
1.5
</text>
<path stroke="white" stroke-dasharray="1,2" d="M50 263l924 0"/>
<text stroke="none" fill="white" font-size="16" x="18" y="271">
2.0
</text>
<path stroke="white" stroke-dasharray="1,2" d="M50 214l924 0"/>
<text stroke="none" fill="white" font-size="16" x="18" y="222">
2.5
</text>
<path stroke="white" stroke-dasharray="1,2" d="M50 165l924 0"/>
<text stroke="none" fill="white" font-size="16" x="18" y="173">
3.0
</text>
<path stroke="white" stroke-dasharray="1,2" d="M50 116l924 0"/>
<text stroke="none" fill="white" font-size="16" x="18" y="124">
3.5
</text>
<path stroke="white" stroke-dasharray="1,2" d="M50 67l924 0"/>
<text stroke="none" fill="white" font-size="16" x="18" y="75">
4.0
</text>
<text stroke="none" fill="white" font-size="16" x="10" y="32">
     
</text>
<path stroke="red" d="M462 23l46 0"/>
<text stroke="none" fill="white" font-size="16" x="518" y="32">
x1.vsampled_p
</text>
<path stroke="red" d="M50 459l1 0 1 -7 0 -17 1 -15 0 -5 1 2M54 441l0 -42 1 -5 0 -15 1 -3 0 -2 1 -2 1 0 0 -1 59 0M117 377l0 -6M117 377l1 10M118 398l0 -11M118 398l1 3M119 403l0 -2M119 403l2 2 418 0M539 406l0 -1M539 406l1 0 1 -1M541 406l0 -1M541 406l5 0"/>
<path stroke="red" d="M546 406l0 -30 1 -5 0 -23 1 -3 0 -3 2 -2 4 0 0 -1M554 340l12 0 0 -1M566 340l1 0M567 341l0 -1 13 0 0 -1 1 1 12 0M593 341l0 -2M593 340l7 0M600 361l0 -21M600 361l1 3M601 368l0 -4M601 365l1 -1 0 -2 4 0 0 -1 1 0M607 362l0 -1"/>
<path stroke="red" d="M607 362l26 0 0 -1M633 362l26 0 0 -1M659 362l20 0M679 368l0 -6M679 368l1 0M680 370l0 -2 1 0 0 -1 18 0M699 368l0 -1 7 0M706 371l0 -4M706 371l1 -1 52 0M759 373l0 -3M759 372l1 0 0 -1 18 0M778 372l0 -1 26 0M804 372l0 -1 27 0"/>
<path stroke="red" d="M831 372l0 -1 7 0 0 -1M838 371l79 0M917 372l0 -5 1 -3M918 392l0 -29M918 392l1 2M919 407l0 -13M919 407l1 0 1 -1 41 0 0 -1 12 0"/>
<path stroke="blue" d="M50 23l46 0"/>
<text stroke="none" fill="white" font-size="16" x="106" y="32">
x1.vsampled_n
</text>
<path stroke="blue" d="M50 459l1 0 1 -7 0 -17 1 -16 0 -4 1 1M54 441l0 -42 1 -5 0 -15 1 -3 0 -2 1 -2 1 0 0 -1 59 0 0 -1 1 -9 0 -15 1 -4 0 -3 2 -2 0 -1 419 0M540 337l0 -1 1 0M541 337l0 -1 25 0 1 1 0 -1 6 0 1 5M574 366l0 -25M574 366l1 5M575 379l0 -8"/>
<path stroke="blue" d="M575 379l1 1 17 0M593 381l0 -1 26 0M619 381l0 -1M619 381l1 0 0 -1 5 0 0 -9 1 -1 0 -7 1 -1 0 -1 19 0M646 362l0 -1 7 0M653 370l0 -9M653 370l1 2M654 373l0 -1M654 373l1 -1 70 0M725 373l0 -1 6 0 1 -2 0 -1M732 370l53 0M785 371l0 -1"/>
<path stroke="blue" d="M785 371l1 0 0 -1 18 0M804 371l0 -1 8 0M812 371l0 -1M812 371l105 0M917 373l0 -2M917 373l1 0 0 -13 1 -1 0 -12 1 -4 0 -2 1 -3 1 0 0 -1 1 0 0 -1 13 0M936 337l0 -1 1 0M937 337l0 -1 37 0"/>
<path stroke="#FFA500" d="M462 39l46 0"/>
<text stroke="none" fill="white" font-size="16" x="518" y="48">
x1.vsampled_p-x1.vsampled_n
</text>
<path stroke="#FFA500" d="M50 459l2 0 1 1 1 -1 63 0M117 466l0 -7M117 466l1 19M118 511l0 -26M118 511l1 8M119 523l0 -4M119 523l1 3 1 1M121 528l0 -1M121 528l425 0 0 -30 1 -4 0 -23 1 -4 0 -2 1 -2 1 0 0 -1 17 0M567 463l0 -1 6 0M573 463l0 -1M573 463l1 -5"/>
<path stroke="#FFA500" d="M574 458l0 -26 1 -4 0 -8 1 -1 0 -1 17 0M593 419l0 -1 7 0M600 440l0 -22M600 440l1 3M601 447l0 -4M601 444l1 -1 0 -2 1 0 0 -1 16 0M619 441l0 -1 6 0M625 450l0 -10M625 450l1 1M626 458l0 -7M626 458l1 1 19 0M646 460l0 -1 7 0"/>
<path stroke="#FFA500" d="M653 460l0 -9 1 -2 0 -1 1 1 4 0 0 -1 13 0M672 449l0 -1M672 449l7 0M679 455l0 -7M679 455l1 0M680 457l0 -2 1 -1 25 0M706 458l0 -4M706 458l1 -1 24 0 1 2M732 460l0 -1 27 0M759 462l0 -3M759 461l2 0 1 -1 3 0M765 461l0 -1 1 0"/>
<path stroke="#FFA500" d="M766 461l0 -1M766 461l12 0 0 -1M778 461l1 0 0 -1 6 0M785 461l0 -2 1 1 26 0 0 -1 19 0M831 460l0 -1 86 0M917 460l0 -7 1 -3M918 491l0 -41M918 491l1 3M919 520l0 -26M919 520l1 3M920 525l0 -2M920 525l1 2 1 0M922 528l0 -1M922 528l1 0"/>
<path stroke="#FFA500" d="M923 529l0 -1 13 0 0 -1M936 528l14 0M950 529l0 -1 24 0"/>
<path stroke="green" d="M50 39l46 0"/>
<text stroke="none" fill="white" font-size="16" x="106" y="48">
x1.sw_sample-2
</text>
<path stroke="green" d="M50 655l1 0 1 -10 0 -23 1 -21M53 620l0 -26M53 620l1 32M54 655l0 -3M54 655l63 0M117 662l0 -184 1 0M118 479l0 -1M118 479l421 0M539 656l0 -184M539 655l422 0M961 660l0 -182 1 0M962 479l0 -1M962 479l12 0"/>
<path stroke="#FFC0C5" d="M462 55l46 0"/>
<text stroke="none" fill="white" font-size="16" x="518" y="64">
x1.comp_out_p+2
</text>
<path stroke="#FFC0C5" d="M50 263l1 0 1 -10 0 -23 1 -20 0 -4M53 209l1 4M54 263l0 -50M54 262l1 1 539 0M594 265l0 -180M594 86l1 1 13 0M608 264l0 -180M608 263l13 0M621 269l0 -184M621 87l13 0M634 264l0 -187M634 263l39 0M673 265l0 -2M673 265l1 -90"/>
<path stroke="#FFC0C5" d="M674 175l0 -90M674 87l13 0M687 264l0 -185M687 263l13 0M700 269l0 -184M700 87l13 0 0 -9 1 165M714 263l0 -20M714 263l13 0 0 -177M727 87l13 0M740 264l0 -183M740 263l13 0 1 -166 0 -11M754 87l12 0M766 263l0 -186M766 263l208 0"/>
<path stroke="#A52A2A" d="M50 55l46 0"/>
<text stroke="none" fill="white" font-size="16" x="106" y="64">
x1.comp_out_n-2
</text>
<path stroke="#A52A2A" d="M50 655l1 0 1 -10 0 -24 1 -20M53 602l0 -3M53 602l1 7M54 655l0 -46M54 655l488 0 0 -178M542 479l13 0M555 655l0 -186M555 655l13 0M568 662l0 -186M568 479l13 0 0 -10 1 174M582 655l0 -12M582 655l12 0M594 656l0 -1 53 0M647 660l0 -184"/>
<path stroke="#A52A2A" d="M647 479l14 0M661 656l0 -183M661 655l13 0M674 656l0 -1 106 0 0 -177M780 479l13 0M793 655l0 -185M793 655l14 0 0 -177M807 479l12 0M819 655l0 -187M819 655l14 0 1 -170 0 -7M834 479l11 0 0 -12 1 167M846 655l0 -21M846 655l14 0"/>
<path stroke="#A52A2A" d="M860 655l0 -177M860 479l12 0M872 655l0 -188M872 655l14 0 0 -170 1 -7M887 479l0 -1M887 479l11 0M898 655l0 -188M898 655l14 0 1 -170 0 -7M913 479l12 0M925 656l0 -180M925 655l12 0 1 -55 0 -123M938 479l13 0M951 655l0 -186"/>
<path stroke="#A52A2A" d="M951 655l23 0"/>
</svg>
