<?xml version="1.0" standalone="yes"?>
<!DOCTYPE svg PUBLIC "-//W3C//DTD SVG 1.1//EN"
 "http://www.w3.org/Graphics/SVG/1.1/DTD/svg11.dtd">
<svg xmlns="http://www.w3.org/2000/svg" version="1.1"
  width="100%" height="100%" viewBox="0 0 1024 768"
  style="fill: none; font-family: Helvetica;
 font: Helvetica;
">

<!-- Creator: NGspice -->

<rect x="0" y="0" width="1024" height="768" fill="black" stroke="none"/>
<text stroke="none" fill="white" font-size="16" x="358" y="752">
time
</text>
<text stroke="none" fill="white" font-size="16" x="10" y="16">
tran1: run1100_vin0.067235
</text>
<path stroke="white" d="M50 704l0 -637"/>
<text stroke="none" fill="white" font-size="16" x="35" y="728">
0.0
</text>
<path stroke="white" stroke-dasharray="1,2" d="M182 704l0 -637"/>
<text stroke="none" fill="white" font-size="16" x="157" y="728">
100.0
</text>
<path stroke="white" stroke-dasharray="1,2" d="M314 704l0 -637"/>
<text stroke="none" fill="white" font-size="16" x="289" y="728">
200.0
</text>
<path stroke="white" stroke-dasharray="1,2" d="M446 704l0 -637"/>
<text stroke="none" fill="white" font-size="16" x="421" y="728">
300.0
</text>
<path stroke="white" stroke-dasharray="1,2" d="M578 704l0 -637"/>
<text stroke="none" fill="white" font-size="16" x="553" y="728">
400.0
</text>
<path stroke="white" stroke-dasharray="1,2" d="M710 704l0 -637"/>
<text stroke="none" fill="white" font-size="16" x="685" y="728">
500.0
</text>
<path stroke="white" stroke-dasharray="1,2" d="M842 704l0 -637"/>
<text stroke="none" fill="white" font-size="16" x="817" y="728">
600.0
</text>
<path stroke="white" stroke-dasharray="1,2" d="M974 704l0 -637"/>
<text stroke="none" fill="white" font-size="16" x="949" y="728">
700.0
</text>
<text stroke="none" fill="white" font-size="16" x="614" y="752">
ns
</text>
<path stroke="white" stroke-dasharray="1,2" d="M50 704l924 0"/>
<text stroke="none" fill="white" font-size="16" x="8" y="712">
-3.0
</text>
<path stroke="white" stroke-dasharray="1,2" d="M50 613l924 0"/>
<text stroke="none" fill="white" font-size="16" x="8" y="621">
-2.0
</text>
<path stroke="white" stroke-dasharray="1,2" d="M50 522l924 0"/>
<text stroke="none" fill="white" font-size="16" x="8" y="530">
-1.0
</text>
<path stroke="white" d="M50 431l924 0"/>
<text stroke="none" fill="white" font-size="16" x="18" y="439">
0.0
</text>
<path stroke="white" stroke-dasharray="1,2" d="M50 340l924 0"/>
<text stroke="none" fill="white" font-size="16" x="18" y="348">
1.0
</text>
<path stroke="white" stroke-dasharray="1,2" d="M50 249l924 0"/>
<text stroke="none" fill="white" font-size="16" x="18" y="257">
2.0
</text>
<path stroke="white" stroke-dasharray="1,2" d="M50 158l924 0"/>
<text stroke="none" fill="white" font-size="16" x="18" y="166">
3.0
</text>
<path stroke="white" stroke-dasharray="1,2" d="M50 67l924 0"/>
<text stroke="none" fill="white" font-size="16" x="18" y="75">
4.0
</text>
<text stroke="none" fill="white" font-size="16" x="10" y="32">
     
</text>
<path stroke="red" d="M462 23l46 0"/>
<text stroke="none" fill="white" font-size="16" x="518" y="32">
x1.vsampled_p
</text>
<path stroke="red" d="M50 431l1 0 1 -7 0 -15 1 -15 0 -4 1 1M54 415l0 -39 1 -5 0 -15 1 -2 0 -2 1 -2 2 0 1 -1 4 0M64 350l0 -1M64 350l4 0 1 -1 48 0 1 -2 0 -2 1 -1 0 -1 421 0M540 344l0 -1 27 0M567 344l0 -1 26 0M593 344l0 -1 26 0M619 344l0 -1 27 0"/>
<path stroke="red" d="M646 344l0 -1 26 0M672 344l0 -1 7 0M679 348l0 -5M679 348l1 1M680 350l0 -1 1 -1 18 0M699 349l0 -1 26 0M725 349l0 -1 26 0M751 349l0 -1 27 0M778 349l0 -1 7 0M785 349l0 -1M785 349l1 0M786 350l0 -1 26 0M812 350l0 -1 19 0M831 350l0 -1"/>
<path stroke="red" d="M831 349l26 0M857 350l0 -1 26 0M883 350l0 -1 27 0M910 350l0 -1 7 0 0 -2 1 -2 0 -3M918 343l18 0M936 344l0 -1 38 0"/>
<path stroke="blue" d="M50 23l46 0"/>
<text stroke="none" fill="white" font-size="16" x="106" y="32">
x1.vsampled_n
</text>
<path stroke="blue" d="M50 431l1 0 1 -7 0 -15 1 -14 0 -5 1 2M54 415l0 -39 1 -5 0 -15 1 -2 0 -2 1 -2 2 0 1 -1 4 0M64 350l0 -1M64 350l4 0 1 -1 48 0M117 350l0 -1M117 350l1 2M118 353l0 -1M118 353l1 1M119 355l0 -1M119 355l421 0M540 356l0 -1 6 0M546 356l0 -29"/>
<path stroke="blue" d="M546 327l1 -3 0 -17 1 -6 0 -5 2 -2 4 0 0 -1M554 294l12 0 1 1M567 296l0 -2 6 0 1 5M574 328l0 -29M574 328l1 8M575 337l0 -1M575 337l1 0 0 -1 1 0 0 -1 16 0M593 336l0 -1 7 0M600 352l0 -17M600 352l1 3M601 359l0 -4M601 358l1 -1"/>
<path stroke="blue" d="M602 357l0 -1 1 0 0 -1 16 0M619 356l0 -1M619 356l1 0 0 -1 5 0 0 -6 1 -3 0 -8 1 0 0 -1 1 0 1 1 4 0 0 -1 13 0M646 338l0 -1M646 338l7 0M653 347l0 -9M653 347l1 2 0 -1 5 0 0 -1M659 348l47 0M706 351l0 -3M706 351l1 0 0 -1 18 0"/>
<path stroke="blue" d="M725 351l0 -1 6 0 0 -3 1 0M732 348l0 -1M732 348l27 0M759 351l0 -3M759 349l19 0M778 350l0 -1 26 0M804 350l0 -1 26 0 1 1 0 -1 86 0M917 351l0 -2M917 351l1 1M918 358l0 -6M918 356l1 0 1 -1 16 0M936 356l0 -1 38 0"/>
<path stroke="#FFA500" d="M462 39l46 0"/>
<text stroke="none" fill="white" font-size="16" x="518" y="48">
x1.vsampled_p-x1.vsampled_n
</text>
<path stroke="#FFA500" d="M50 431l67 0 0 -1 1 -4 0 -3 1 -2 0 -1 1 -1 426 0M546 447l0 -28M546 447l1 3M547 468l0 -18M547 468l1 5M548 478l0 -5M548 478l1 1M549 480l0 -1M549 480l5 0M554 481l0 -1 13 0 0 -1M567 480l6 0 1 -5 0 -28 1 -9 0 -1 2 2 23 0"/>
<path stroke="#FFA500" d="M600 439l0 -17 1 -3 0 -4M601 416l1 2 1 1 22 0M625 425l0 -6M625 425l1 4M626 436l0 -7M626 436l1 1 19 0 0 -1M646 437l7 0 0 -10 1 -2M654 426l0 -1M654 426l18 0M672 427l0 -1M672 427l1 0 0 -1 6 0M679 431l0 -5M679 431l1 1M680 434l0 -2"/>
<path stroke="#FFA500" d="M680 432l19 0 0 -1M699 432l7 0 0 -4 1 0M707 429l0 -1M707 429l24 0M731 432l0 -3M731 432l1 0 0 -1 27 0 0 -2M759 430l26 0 1 1 52 0M838 432l0 -1M838 432l1 -1 78 0 0 -4 1 -3 0 -8M918 418l1 0M919 419l0 -1M919 419l55 0"/>
<path stroke="green" d="M50 39l46 0"/>
<text stroke="none" fill="white" font-size="16" x="106" y="48">
x1.sw_sample-2
</text>
<path stroke="green" d="M50 613l1 0 1 -9 0 -21 1 -21M53 582l0 -26M53 582l1 28M54 613l0 -3M54 613l63 0M117 620l0 -172M117 449l422 0M539 614l0 -171M539 613l422 0M961 618l0 -170 1 1 12 0"/>
<path stroke="#FFC0C5" d="M462 55l46 0"/>
<text stroke="none" fill="white" font-size="16" x="518" y="64">
x1.comp_out_p+2
</text>
<path stroke="#FFC0C5" d="M50 249l1 0 1 -9 0 -22 1 -18 0 -4M53 198l1 5M54 249l0 -46M54 249l488 0M542 255l0 -172M542 85l13 0M555 249l0 -172M555 249l66 0M621 251l0 -168M621 85l13 0M634 250l0 -173M634 250l1 -1 38 0 1 5 0 -171M674 85l13 0M687 250l0 -170"/>
<path stroke="#FFC0C5" d="M687 249l40 0 0 -165M727 85l13 0M740 249l0 -171M740 249l40 0 0 -165M780 85l13 0M793 249l0 -174M793 249l14 0 0 -165M807 85l12 0M819 249l0 -171M819 249l15 0 0 -164 11 0 0 -9 1 140M846 249l0 -33M846 249l91 0 1 2 0 -168"/>
<path stroke="#FFC0C5" d="M938 85l13 0M951 250l0 -170M951 249l23 0"/>
<path stroke="#A52A2A" d="M50 55l46 0"/>
<text stroke="none" fill="white" font-size="16" x="106" y="64">
x1.comp_out_n-2
</text>
<path stroke="#A52A2A" d="M50 613l1 0 1 -9 0 -22 1 -19M53 564l0 -3M53 564l1 6M54 613l0 -43M54 613l514 0M568 614l0 -166M568 449l13 0 0 -9 1 160M582 613l0 -13M582 613l12 0M594 615l0 -168M594 449l14 0M608 613l0 -173M608 613l39 0M647 615l0 -168M647 449l14 0"/>
<path stroke="#A52A2A" d="M661 614l0 -172M661 613l39 0 0 -135 1 -28 0 -2M701 449l12 0 0 -9 1 161M714 613l0 -12M714 613l39 0 0 -147 1 -17 0 -1M754 449l12 0M766 613l0 -173M766 613l94 0 0 -164 12 0M872 614l0 -169M872 613l14 0 0 -158 1 -7M887 449l0 -1"/>
<path stroke="#A52A2A" d="M887 449l11 0M898 614l0 -169M898 613l14 0 1 -158 0 -7M913 449l12 0M925 614l0 -171M925 613l49 0"/>
</svg>
