<?xml version="1.0" standalone="yes"?>
<!DOCTYPE svg PUBLIC "-//W3C//DTD SVG 1.1//EN"
 "http://www.w3.org/Graphics/SVG/1.1/DTD/svg11.dtd">
<svg xmlns="http://www.w3.org/2000/svg" version="1.1"
  width="100%" height="100%" viewBox="0 0 1024 768"
  style="fill: none; font-family: Helvetica;
 font: Helvetica;
">

<!-- Creator: NGspice -->

<rect x="0" y="0" width="1024" height="768" fill="black" stroke="none"/>
<text stroke="none" fill="white" font-size="16" x="358" y="752">
time
</text>
<text stroke="none" fill="white" font-size="16" x="10" y="16">
tran1: run1015_vin-0.00747197
</text>
<path stroke="white" d="M50 704l0 -637"/>
<text stroke="none" fill="white" font-size="16" x="35" y="728">
0.0
</text>
<path stroke="white" stroke-dasharray="1,2" d="M182 704l0 -637"/>
<text stroke="none" fill="white" font-size="16" x="157" y="728">
100.0
</text>
<path stroke="white" stroke-dasharray="1,2" d="M314 704l0 -637"/>
<text stroke="none" fill="white" font-size="16" x="289" y="728">
200.0
</text>
<path stroke="white" stroke-dasharray="1,2" d="M446 704l0 -637"/>
<text stroke="none" fill="white" font-size="16" x="421" y="728">
300.0
</text>
<path stroke="white" stroke-dasharray="1,2" d="M578 704l0 -637"/>
<text stroke="none" fill="white" font-size="16" x="553" y="728">
400.0
</text>
<path stroke="white" stroke-dasharray="1,2" d="M710 704l0 -637"/>
<text stroke="none" fill="white" font-size="16" x="685" y="728">
500.0
</text>
<path stroke="white" stroke-dasharray="1,2" d="M842 704l0 -637"/>
<text stroke="none" fill="white" font-size="16" x="817" y="728">
600.0
</text>
<path stroke="white" stroke-dasharray="1,2" d="M974 704l0 -637"/>
<text stroke="none" fill="white" font-size="16" x="949" y="728">
700.0
</text>
<text stroke="none" fill="white" font-size="16" x="614" y="752">
ns
</text>
<path stroke="white" stroke-dasharray="1,2" d="M50 704l924 0"/>
<text stroke="none" fill="white" font-size="16" x="8" y="712">
-2.5
</text>
<path stroke="white" stroke-dasharray="1,2" d="M50 655l924 0"/>
<text stroke="none" fill="white" font-size="16" x="8" y="663">
-2.0
</text>
<path stroke="white" stroke-dasharray="1,2" d="M50 606l924 0"/>
<text stroke="none" fill="white" font-size="16" x="8" y="614">
-1.5
</text>
<path stroke="white" stroke-dasharray="1,2" d="M50 557l924 0"/>
<text stroke="none" fill="white" font-size="16" x="8" y="565">
-1.0
</text>
<path stroke="white" stroke-dasharray="1,2" d="M50 508l924 0"/>
<text stroke="none" fill="white" font-size="16" x="8" y="516">
-0.5
</text>
<path stroke="white" d="M50 459l924 0"/>
<text stroke="none" fill="white" font-size="16" x="18" y="467">
0.0
</text>
<path stroke="white" stroke-dasharray="1,2" d="M50 410l924 0"/>
<text stroke="none" fill="white" font-size="16" x="18" y="418">
0.5
</text>
<path stroke="white" stroke-dasharray="1,2" d="M50 361l924 0"/>
<text stroke="none" fill="white" font-size="16" x="18" y="369">
1.0
</text>
<path stroke="white" stroke-dasharray="1,2" d="M50 312l924 0"/>
<text stroke="none" fill="white" font-size="16" x="18" y="320">
1.5
</text>
<path stroke="white" stroke-dasharray="1,2" d="M50 263l924 0"/>
<text stroke="none" fill="white" font-size="16" x="18" y="271">
2.0
</text>
<path stroke="white" stroke-dasharray="1,2" d="M50 214l924 0"/>
<text stroke="none" fill="white" font-size="16" x="18" y="222">
2.5
</text>
<path stroke="white" stroke-dasharray="1,2" d="M50 165l924 0"/>
<text stroke="none" fill="white" font-size="16" x="18" y="173">
3.0
</text>
<path stroke="white" stroke-dasharray="1,2" d="M50 116l924 0"/>
<text stroke="none" fill="white" font-size="16" x="18" y="124">
3.5
</text>
<path stroke="white" stroke-dasharray="1,2" d="M50 67l924 0"/>
<text stroke="none" fill="white" font-size="16" x="18" y="75">
4.0
</text>
<text stroke="none" fill="white" font-size="16" x="10" y="32">
     
</text>
<path stroke="red" d="M462 23l46 0"/>
<text stroke="none" fill="white" font-size="16" x="518" y="32">
x1.vsampled_p
</text>
<path stroke="red" d="M50 459l1 0 1 -7 0 -17 1 -15 0 -5 1 1M54 442l0 -42 1 -6 0 -16 1 -2 0 -3 1 -1 1 0 0 -1 61 0 1 1 427 0 0 -34 1 -7 0 -16 1 -5 0 -2 2 -2 3 0 0 -1M554 306l13 0M567 308l0 -2 7 0M574 337l0 -31M574 337l1 8M575 352l0 -7M575 352l1 0"/>
<path stroke="red" d="M576 352l1 -1 0 -1 3 0 0 -1M580 350l13 0M593 351l0 -1 7 0M600 365l0 -15M600 365l1 3M601 376l0 -8M601 375l1 -1 0 -2 24 0 0 -17 1 -2 0 -1 3 0M630 353l0 -1M630 353l3 0 0 -1 13 0M646 353l0 -1M646 353l7 0M653 363l0 -10M653 363l1 2"/>
<path stroke="red" d="M654 365l0 -1 5 0 0 -1 13 0M672 364l0 -1M672 364l7 0M679 370l0 -7M679 370l1 1 0 -2 26 0M706 373l0 -4M706 373l1 -1 25 0 0 -4M732 369l19 0M751 370l0 -1M751 370l1 -1 7 0M759 372l0 -3M759 371l54 0M813 372l0 -1 25 0 0 -1M838 371l79 0"/>
<path stroke="red" d="M917 372l0 -1M917 372l45 0 0 -1 1 0M963 372l0 -1M963 372l11 0"/>
<path stroke="blue" d="M50 23l46 0"/>
<text stroke="none" fill="white" font-size="16" x="106" y="32">
x1.vsampled_n
</text>
<path stroke="blue" d="M50 459l1 0 1 -7 0 -17 1 -15 0 -5 1 1M54 442l0 -42 1 -6 0 -16 1 -2 0 -3 1 -1 1 0 0 -1 60 0 0 -1 422 0M540 371l0 -1 27 0M567 371l0 -1 26 0M593 371l0 -1 26 0M619 371l0 -1 27 0M646 371l0 -1 26 0M672 371l0 -1 27 0M699 371l0 -1"/>
<path stroke="blue" d="M699 370l26 0M725 371l0 -1 26 0M751 371l0 -1M751 371l1 -1 26 0M778 371l0 -1 7 0M785 371l0 -1M785 371l1 0M786 372l0 -1 131 0 1 -1 18 0M936 371l0 -1 38 0"/>
<path stroke="#FFA500" d="M462 39l46 0"/>
<text stroke="none" fill="white" font-size="16" x="518" y="48">
x1.vsampled_p-x1.vsampled_n
</text>
<path stroke="#FFA500" d="M50 459l67 0 1 1 429 0M547 461l0 -34 1 -7 0 -16 1 -5 0 -2 1 -1 0 -1 4 0 0 -1 12 0 1 1M567 396l0 -2M567 395l7 0M574 426l0 -31M574 426l1 8M575 440l0 -6M575 440l1 0 1 -1 3 0 0 -1 13 0M593 439l0 -1M593 439l7 0M600 454l0 -15"/>
<path stroke="#FFA500" d="M600 454l1 3M601 464l0 -7M601 463l1 -1 0 -1 1 0 0 -1 16 0M619 461l0 -1M619 461l1 -1 6 0 0 -17 1 -1 0 -1 19 0M646 442l0 -1 7 0M653 452l0 -11M653 452l1 1M654 454l0 -1 1 0 0 -1 24 0M679 458l0 -6M679 458l1 2 0 -2 26 0M706 462l0 -4"/>
<path stroke="#FFA500" d="M706 462l2 -2 17 0M725 461l0 -1 7 0 0 -3M732 458l27 0M759 461l0 -3M759 460l1 0 0 -1 25 0 1 -1M786 459l0 -1M786 459l27 0M813 460l0 -1 25 0 0 -1M838 459l79 0M917 460l0 -1M917 460l1 1 1 0 0 -1 17 0M936 461l0 -1 38 0"/>
<path stroke="green" d="M50 39l46 0"/>
<text stroke="none" fill="white" font-size="16" x="106" y="48">
x1.sw_sample-2
</text>
<path stroke="green" d="M50 655l1 0 1 -10 0 -23 1 -21M53 621l0 -27M53 621l1 31M54 655l0 -3M54 655l63 0M117 662l0 -184 1 1 421 0M539 656l0 -184M539 655l422 0M961 660l0 -182 1 0M962 479l0 -1 1 1 11 0"/>
<path stroke="#FFC0C5" d="M462 55l46 0"/>
<text stroke="none" fill="white" font-size="16" x="518" y="64">
x1.comp_out_p+2
</text>
<path stroke="#FFC0C5" d="M50 263l1 0 1 -10 0 -23 1 -20 0 -4M53 209l1 4M54 263l0 -50M54 263l514 0 0 -178M568 87l13 0 0 -9 1 165M582 263l0 -20M582 263l12 0 0 -178M594 86l1 1 13 0M608 264l0 -187M608 263l39 0 0 -178M647 87l14 0M661 263l0 -185M661 263l12 0"/>
<path stroke="#FFC0C5" d="M673 268l0 -5M673 268l1 -131 0 -52M674 87l13 0M687 263l0 -185M687 263l13 0M700 265l0 -179 1 -1M701 87l0 -2M701 87l12 0 1 -10M714 264l0 -187M714 263l39 0 0 -177 1 1 12 0M766 263l0 -179M766 263l41 0 0 -177 1 0M808 87l0 -1"/>
<path stroke="#FFC0C5" d="M808 87l11 0M819 264l0 -184M819 263l41 0 0 -177M860 87l12 0M872 263l0 -179M872 263l14 0 0 -168 1 -9M887 87l0 -1M887 87l11 0M898 263l0 -179M898 263l14 0 1 -168 0 -9M913 87l12 0M925 264l0 -187M925 263l49 0"/>
<path stroke="#A52A2A" d="M50 55l46 0"/>
<text stroke="none" fill="white" font-size="16" x="106" y="64">
x1.comp_out_n-2
</text>
<path stroke="#A52A2A" d="M50 655l1 0 1 -10 0 -24 1 -20M53 602l0 -3M53 602l1 7M54 655l0 -46M54 655l488 0 1 -160 0 -17M543 479l12 0M555 655l0 -186M555 655l66 0 1 -166 0 -11M622 479l12 0M634 655l0 -186M634 655l93 0 0 -177 1 1 12 0M740 655l0 -185"/>
<path stroke="#A52A2A" d="M740 655l40 0 0 -177M780 479l13 0M793 655l0 -187M793 655l41 0 0 -177 1 1 10 0 0 -11 1 164M846 655l0 -23M846 655l92 0 0 -163 1 -14M939 479l0 -1M939 479l12 0M951 655l0 -184M951 655l23 0"/>
</svg>
