<?xml version="1.0" standalone="yes"?>
<!DOCTYPE svg PUBLIC "-//W3C//DTD SVG 1.1//EN"
 "http://www.w3.org/Graphics/SVG/1.1/DTD/svg11.dtd">
<svg xmlns="http://www.w3.org/2000/svg" version="1.1"
  width="100%" height="100%" viewBox="0 0 1024 768"
  style="fill: none; font-family: Helvetica;
 font: Helvetica;
">

<!-- Creator: NGspice -->

<rect x="0" y="0" width="1024" height="768" fill="black" stroke="none"/>
<text stroke="none" fill="white" font-size="16" x="358" y="752">
time
</text>
<text stroke="none" fill="white" font-size="16" x="10" y="16">
tran1: run1012_vin-0.0101087
</text>
<path stroke="white" d="M50 704l0 -637"/>
<text stroke="none" fill="white" font-size="16" x="35" y="728">
0.0
</text>
<path stroke="white" stroke-dasharray="1,2" d="M182 704l0 -637"/>
<text stroke="none" fill="white" font-size="16" x="157" y="728">
100.0
</text>
<path stroke="white" stroke-dasharray="1,2" d="M314 704l0 -637"/>
<text stroke="none" fill="white" font-size="16" x="289" y="728">
200.0
</text>
<path stroke="white" stroke-dasharray="1,2" d="M446 704l0 -637"/>
<text stroke="none" fill="white" font-size="16" x="421" y="728">
300.0
</text>
<path stroke="white" stroke-dasharray="1,2" d="M578 704l0 -637"/>
<text stroke="none" fill="white" font-size="16" x="553" y="728">
400.0
</text>
<path stroke="white" stroke-dasharray="1,2" d="M710 704l0 -637"/>
<text stroke="none" fill="white" font-size="16" x="685" y="728">
500.0
</text>
<path stroke="white" stroke-dasharray="1,2" d="M842 704l0 -637"/>
<text stroke="none" fill="white" font-size="16" x="817" y="728">
600.0
</text>
<path stroke="white" stroke-dasharray="1,2" d="M974 704l0 -637"/>
<text stroke="none" fill="white" font-size="16" x="949" y="728">
700.0
</text>
<text stroke="none" fill="white" font-size="16" x="614" y="752">
ns
</text>
<path stroke="white" stroke-dasharray="1,2" d="M50 704l924 0"/>
<text stroke="none" fill="white" font-size="16" x="8" y="712">
-3.0
</text>
<path stroke="white" stroke-dasharray="1,2" d="M50 613l924 0"/>
<text stroke="none" fill="white" font-size="16" x="8" y="621">
-2.0
</text>
<path stroke="white" stroke-dasharray="1,2" d="M50 522l924 0"/>
<text stroke="none" fill="white" font-size="16" x="8" y="530">
-1.0
</text>
<path stroke="white" d="M50 431l924 0"/>
<text stroke="none" fill="white" font-size="16" x="18" y="439">
0.0
</text>
<path stroke="white" stroke-dasharray="1,2" d="M50 340l924 0"/>
<text stroke="none" fill="white" font-size="16" x="18" y="348">
1.0
</text>
<path stroke="white" stroke-dasharray="1,2" d="M50 249l924 0"/>
<text stroke="none" fill="white" font-size="16" x="18" y="257">
2.0
</text>
<path stroke="white" stroke-dasharray="1,2" d="M50 158l924 0"/>
<text stroke="none" fill="white" font-size="16" x="18" y="166">
3.0
</text>
<path stroke="white" stroke-dasharray="1,2" d="M50 67l924 0"/>
<text stroke="none" fill="white" font-size="16" x="18" y="75">
4.0
</text>
<text stroke="none" fill="white" font-size="16" x="10" y="32">
     
</text>
<path stroke="red" d="M462 23l46 0"/>
<text stroke="none" fill="white" font-size="16" x="518" y="32">
x1.vsampled_p
</text>
<path stroke="red" d="M50 431l1 0 1 -7 0 -15 1 -14 0 -5 1 1M54 415l0 -39 1 -5 0 -15 1 -3 0 -2 1 -1 2 0 1 -1 4 0M64 350l0 -1M64 350l4 0 1 -1 48 0 1 1 422 0M540 351l0 -1 7 0 0 -35 1 -6 0 -14 1 -2 0 -2 2 -2 3 0 0 -1M554 289l13 0M567 291l0 -2 7 0"/>
<path stroke="red" d="M574 319l0 -30M574 319l1 8M575 332l0 -5M575 332l1 0 1 -1 0 -1 3 0 0 -1M580 330l13 0M593 331l0 -1 7 0M600 347l0 -17M600 347l1 3M601 354l0 -4M601 352l2 -2 16 0M619 351l0 -1 7 0 0 -14 1 -1 0 -3 19 0M646 333l0 -1 7 0M653 341l0 -9"/>
<path stroke="red" d="M653 341l1 2M654 344l0 -1 5 0 0 -1 1 0M660 343l0 -1M660 343l12 0 0 -1M672 343l7 0M679 348l0 -5M679 348l1 1M680 350l0 -2 6 0 0 -1M686 348l20 0M706 351l0 -3M706 351l1 0 0 -1 18 0M725 351l0 -1 6 0 0 -1 1 -1 0 -1M732 348l27 0"/>
<path stroke="red" d="M759 350l0 -2M759 350l1 -1 18 0M778 350l0 -1 26 0M804 350l0 -1 27 0M831 350l0 -1 26 0M857 350l0 -1 26 0M883 350l0 -1 27 0M910 350l0 -1 7 0 1 1M918 351l0 -1 18 0M936 351l0 -1 38 0"/>
<path stroke="blue" d="M50 23l46 0"/>
<text stroke="none" fill="white" font-size="16" x="106" y="32">
x1.vsampled_n
</text>
<path stroke="blue" d="M50 431l1 0 1 -7 0 -15 1 -14 0 -5 1 1M54 415l0 -39 1 -5 0 -15 1 -3 0 -2 1 -1 2 0 1 -1 4 0M64 350l0 -1M64 350l4 0 1 -1 49 0 1 -1 421 0M540 349l0 -1 27 0M567 349l0 -1 26 0M593 349l0 -1 26 0M619 349l0 -1M619 349l1 0 0 -1 26 0"/>
<path stroke="blue" d="M646 349l0 -1 26 0M672 349l0 -1 26 0 1 1 0 -1 26 0M725 349l0 -1 26 0M751 349l0 -1M751 349l1 0 0 -1 26 0M778 349l0 -1 7 0M785 350l0 -2M785 350l1 0 0 -1 26 0M812 350l0 -1M812 350l1 -1 17 0 1 1 0 -1 86 0M917 350l0 -1 1 0 0 -1"/>
<path stroke="blue" d="M918 348l18 0M936 349l0 -1 38 0"/>
<path stroke="#FFA500" d="M462 39l46 0"/>
<text stroke="none" fill="white" font-size="16" x="518" y="48">
x1.vsampled_p-x1.vsampled_n
</text>
<path stroke="#FFA500" d="M50 431l67 0 2 2 428 0 0 -35 1 -7 0 -13 1 -3 0 -1 1 -1 0 -1 4 0 0 -1 12 0 1 1M567 373l0 -2M567 372l7 0M574 402l0 -30M574 402l1 7M575 414l0 -5M575 414l1 0 1 -1 1 0 1 -1 14 0M593 413l0 -1 7 0M600 429l0 -17M600 429l1 3"/>
<path stroke="#FFA500" d="M601 436l0 -4M601 435l1 -1 0 -1 24 0 0 -14 1 -1 0 -3 26 0M653 424l0 -9M653 424l1 2M654 427l0 -1 1 0 0 -1 24 0M679 431l0 -6M679 431l1 1 0 -1 1 -1 25 0M706 433l0 -3M706 433l1 1 0 -1 24 0 0 -2 1 -1 1 1 26 0M759 433l0 -2"/>
<path stroke="#FFA500" d="M759 432l26 0 0 -1 27 0 0 -1M812 431l26 0M838 432l0 -1 79 0 0 -1M917 431l1 1M918 434l0 -2M918 433l56 0"/>
<path stroke="green" d="M50 39l46 0"/>
<text stroke="none" fill="white" font-size="16" x="106" y="48">
x1.sw_sample-2
</text>
<path stroke="green" d="M50 613l1 0 1 -9 0 -21 1 -21M53 582l0 -26M53 582l1 28M54 613l0 -3M54 613l63 0M117 620l0 -172M117 449l422 0M539 614l0 -171M539 613l422 0M961 618l0 -170 1 1 12 0"/>
<path stroke="#FFC0C5" d="M462 55l46 0"/>
<text stroke="none" fill="white" font-size="16" x="518" y="64">
x1.comp_out_p+2
</text>
<path stroke="#FFC0C5" d="M50 249l1 0 1 -9 0 -22 1 -18 0 -4M53 198l1 5M54 249l0 -46M54 249l514 0M568 250l0 -166M568 85l13 0 0 -5 1 86M582 250l0 -84M582 249l12 0M594 250l0 -166M594 85l14 0M608 249l0 -172M608 249l39 0M647 251l0 -168M647 85l14 0"/>
<path stroke="#FFC0C5" d="M661 250l0 -171M661 249l12 0M673 252l0 -3M673 252l1 -115 0 -54M674 85l13 0M687 250l0 -173M687 249l13 0 0 -163 1 -2M701 85l0 -1M701 85l12 0 0 -8 1 161M714 249l0 -11M714 249l39 0 0 -164 1 -1M754 85l0 -1M754 85l12 0M766 250l0 -171"/>
<path stroke="#FFC0C5" d="M766 250l1 -1 67 0 0 -165M834 85l11 0 0 -10 1 142M846 249l0 -32M846 249l128 0"/>
<path stroke="#A52A2A" d="M50 55l46 0"/>
<text stroke="none" fill="white" font-size="16" x="106" y="64">
x1.comp_out_n-2
</text>
<path stroke="#A52A2A" d="M50 613l1 0 1 -9 0 -22 1 -19M53 564l0 -3M53 564l1 6M54 613l0 -43M54 613l488 0M542 614l0 -166 1 0M543 449l0 -1M543 449l12 0M555 613l0 -171M555 613l13 0M568 614l0 -1 53 0 0 -141 1 -23 0 -1M622 449l12 0M634 613l0 -173M634 613l93 0"/>
<path stroke="#A52A2A" d="M727 613l0 -165M727 449l13 0M740 614l0 -174M740 613l40 0 0 -165M780 449l13 0M793 613l0 -168M793 613l14 0 0 -165M807 449l12 0M819 614l0 -171M819 613l41 0 0 -165M860 449l12 0M872 613l0 -168M872 613l14 0 0 -158 1 -7M887 449l0 -1"/>
<path stroke="#A52A2A" d="M887 449l11 0M898 613l0 -168M898 613l14 0 1 -158 0 -7M913 449l12 0M925 613l0 -173M925 613l13 0 0 -165 1 1 12 0M951 614l0 -171M951 613l23 0"/>
</svg>
