<?xml version="1.0" standalone="yes"?>
<!DOCTYPE svg PUBLIC "-//W3C//DTD SVG 1.1//EN"
 "http://www.w3.org/Graphics/SVG/1.1/DTD/svg11.dtd">
<svg xmlns="http://www.w3.org/2000/svg" version="1.1"
  width="100%" height="100%" viewBox="0 0 1024 768"
  style="fill: none; font-family: Helvetica;
 font: Helvetica;
">

<!-- Creator: NGspice -->

<rect x="0" y="0" width="1024" height="768" fill="black" stroke="none"/>
<text stroke="none" fill="white" font-size="16" x="358" y="752">
time
</text>
<text stroke="none" fill="white" font-size="16" x="10" y="16">
tran1: run1014_vin-0.00835088
</text>
<path stroke="white" d="M50 704l0 -637"/>
<text stroke="none" fill="white" font-size="16" x="35" y="728">
0.0
</text>
<path stroke="white" stroke-dasharray="1,2" d="M182 704l0 -637"/>
<text stroke="none" fill="white" font-size="16" x="157" y="728">
100.0
</text>
<path stroke="white" stroke-dasharray="1,2" d="M314 704l0 -637"/>
<text stroke="none" fill="white" font-size="16" x="289" y="728">
200.0
</text>
<path stroke="white" stroke-dasharray="1,2" d="M446 704l0 -637"/>
<text stroke="none" fill="white" font-size="16" x="421" y="728">
300.0
</text>
<path stroke="white" stroke-dasharray="1,2" d="M578 704l0 -637"/>
<text stroke="none" fill="white" font-size="16" x="553" y="728">
400.0
</text>
<path stroke="white" stroke-dasharray="1,2" d="M710 704l0 -637"/>
<text stroke="none" fill="white" font-size="16" x="685" y="728">
500.0
</text>
<path stroke="white" stroke-dasharray="1,2" d="M842 704l0 -637"/>
<text stroke="none" fill="white" font-size="16" x="817" y="728">
600.0
</text>
<path stroke="white" stroke-dasharray="1,2" d="M974 704l0 -637"/>
<text stroke="none" fill="white" font-size="16" x="949" y="728">
700.0
</text>
<text stroke="none" fill="white" font-size="16" x="614" y="752">
ns
</text>
<path stroke="white" stroke-dasharray="1,2" d="M50 704l924 0"/>
<text stroke="none" fill="white" font-size="16" x="8" y="712">
-3.0
</text>
<path stroke="white" stroke-dasharray="1,2" d="M50 613l924 0"/>
<text stroke="none" fill="white" font-size="16" x="8" y="621">
-2.0
</text>
<path stroke="white" stroke-dasharray="1,2" d="M50 522l924 0"/>
<text stroke="none" fill="white" font-size="16" x="8" y="530">
-1.0
</text>
<path stroke="white" d="M50 431l924 0"/>
<text stroke="none" fill="white" font-size="16" x="18" y="439">
0.0
</text>
<path stroke="white" stroke-dasharray="1,2" d="M50 340l924 0"/>
<text stroke="none" fill="white" font-size="16" x="18" y="348">
1.0
</text>
<path stroke="white" stroke-dasharray="1,2" d="M50 249l924 0"/>
<text stroke="none" fill="white" font-size="16" x="18" y="257">
2.0
</text>
<path stroke="white" stroke-dasharray="1,2" d="M50 158l924 0"/>
<text stroke="none" fill="white" font-size="16" x="18" y="166">
3.0
</text>
<path stroke="white" stroke-dasharray="1,2" d="M50 67l924 0"/>
<text stroke="none" fill="white" font-size="16" x="18" y="75">
4.0
</text>
<text stroke="none" fill="white" font-size="16" x="10" y="32">
     
</text>
<path stroke="red" d="M462 23l46 0"/>
<text stroke="none" fill="white" font-size="16" x="518" y="32">
x1.vsampled_p
</text>
<path stroke="red" d="M50 431l1 0 1 -7 0 -15 1 -14 0 -5 1 1M54 415l0 -39 1 -5 0 -15 1 -3 0 -2 1 -1 2 0 1 -1 4 0M64 350l0 -1M64 350l4 0 1 -1 49 0M118 350l0 -1M118 350l429 0 0 -31 1 -7 0 -14 1 -5 0 -2 2 -2 3 0 0 -1M554 289l13 0M567 291l0 -2 7 0"/>
<path stroke="red" d="M574 319l0 -30M574 319l1 7M575 331l0 -5M575 331l2 0 0 -1 3 0 0 -1M580 330l20 0M600 344l0 -14M600 344l1 2M601 354l0 -8M601 353l1 -1 0 -1 1 -1 23 0 0 -14 1 -2 0 -2 19 0M646 333l0 -1 7 0M653 341l0 -9M653 341l1 2M654 344l0 -1"/>
<path stroke="red" d="M654 343l2 0 0 -1 16 0M672 343l0 -1 7 0M679 348l0 -6M679 348l1 1 0 -1 6 0 0 -1 12 0 1 1 0 -1M699 348l7 0M706 351l0 -3M706 351l1 0 0 -1 24 0 0 -3 1 0M732 348l0 -1M732 348l27 0M759 350l0 -2M759 349l54 0M813 350l0 -1 17 0 1 1"/>
<path stroke="red" d="M831 350l0 -1 87 0M918 351l0 -2M918 350l56 0"/>
<path stroke="blue" d="M50 23l46 0"/>
<text stroke="none" fill="white" font-size="16" x="106" y="32">
x1.vsampled_n
</text>
<path stroke="blue" d="M50 431l1 0 1 -7 0 -15 1 -14 0 -5 1 1M54 415l0 -39 1 -5 0 -15 1 -3 0 -2 1 -1 2 0 1 -1 4 0M64 350l0 -1M64 350l4 0 1 -1 49 0 1 -1 420 0M539 349l0 -1M539 349l2 0 0 -1M541 349l13 0 0 -1 12 0 1 1 0 -1M567 349l13 0 0 -1 13 0"/>
<path stroke="blue" d="M593 349l0 -1M593 349l13 0 0 -1 13 0M619 349l0 -1M619 349l1 0 0 -1M620 349l13 0 0 -1 13 0M646 349l0 -1M646 349l13 0 0 -1 13 0M672 349l0 -1 1 1 13 0 0 -1 12 0M698 349l0 -1M698 349l1 0 0 -1M699 349l13 0 0 -1 13 0M725 349l0 -1"/>
<path stroke="blue" d="M725 349l13 0 0 -1 2 0M740 349l0 -1 11 0M751 349l0 -1M751 349l1 0 0 -1M752 349l13 0 0 -1 13 0M778 349l0 -1M778 349l7 0M785 350l0 -1M785 350l1 0 0 -1 18 0M804 350l0 -1 27 0M831 350l0 -1 26 0M857 350l0 -1 26 0M883 350l0 -1"/>
<path stroke="blue" d="M883 349l27 0M910 350l0 -1 8 0 0 -1 1 0M919 349l0 -1M919 349l4 0 0 -1 13 0M936 349l0 -1 1 0M937 349l0 -1M937 349l13 0 0 -1 1 0M951 349l0 -1M951 349l10 0 0 -1 13 0"/>
<path stroke="#FFA500" d="M462 39l46 0"/>
<text stroke="none" fill="white" font-size="16" x="518" y="48">
x1.vsampled_p-x1.vsampled_n
</text>
<path stroke="#FFA500" d="M50 431l67 0 1 1 3 0M121 433l0 -1M121 433l419 0 0 -1M540 433l1 0 0 -1M541 433l6 0 0 -32 1 -6 0 -15 1 -4 0 -2 1 -1 0 -1 1 0 0 -1 15 0 1 1M567 373l0 -2 7 0M574 401l0 -30M574 401l1 8M575 414l0 -5M575 414l1 0 2 -2 15 0M593 413l0 -1"/>
<path stroke="#FFA500" d="M593 412l7 0M600 426l0 -14M600 426l1 3M601 436l0 -7M601 436l1 -2 0 -1 17 0 0 -1M619 433l1 0 0 -1M620 433l6 0 0 -15 1 -1 0 -2 1 -1 1 1 4 0 0 -1M633 415l13 0 0 -1M646 415l7 0M653 424l0 -9M653 424l1 2 0 -1 25 0M679 430l0 -5"/>
<path stroke="#FFA500" d="M679 430l1 1M680 432l0 -2 26 0M706 433l0 -3M706 433l19 0 0 -1M725 433l6 0 0 -3 1 -1M732 430l0 -1M732 430l27 0M759 433l0 -3M759 432l26 0 0 -1 1 -1M786 431l0 -1M786 431l27 0M813 432l0 -1 105 0M918 433l0 -2M918 433l18 0"/>
<path stroke="#FFA500" d="M936 433l0 -1 1 0M937 433l0 -1M937 433l37 0"/>
<path stroke="green" d="M50 39l46 0"/>
<text stroke="none" fill="white" font-size="16" x="106" y="48">
x1.sw_sample-2
</text>
<path stroke="green" d="M50 613l1 0 1 -9 0 -21 1 -21M53 582l0 -26M53 582l1 28M54 613l0 -3M54 613l63 0M117 620l0 -172M117 449l422 0M539 614l0 -171M539 613l422 0M961 618l0 -170 1 1 12 0"/>
<path stroke="#FFC0C5" d="M462 55l46 0"/>
<text stroke="none" fill="white" font-size="16" x="518" y="64">
x1.comp_out_p+2
</text>
<path stroke="#FFC0C5" d="M50 249l1 0 1 -9 0 -22 1 -18 0 -4M53 198l1 5M54 249l0 -46M54 249l514 0M568 254l0 -171M568 85l13 0 0 -8 1 154M582 249l0 -18M582 249l12 0 0 -165M594 85l14 0M608 250l0 -173M608 249l39 0M647 255l0 -172M647 85l14 0M661 249l0 -171"/>
<path stroke="#FFC0C5" d="M661 249l12 0M673 251l0 -2M673 251l1 -106 0 -62M674 85l13 0M687 249l0 -172M687 249l13 0 0 -159 1 -6M701 85l0 -1M701 85l12 0 0 -8 1 162M714 250l0 -11M714 249l39 0 0 -165 1 1 12 0M766 250l0 -170M766 249l41 0 0 -149 1 -15"/>
<path stroke="#FFC0C5" d="M808 85l0 -1M808 85l11 0M819 249l0 -169M819 249l41 0 0 -165 1 1 11 0M872 249l0 -174M872 249l14 0 1 -149 0 -16M887 85l11 0M898 249l0 -174M898 249l15 0 0 -165M913 85l12 0M925 250l0 -172M925 249l49 0"/>
<path stroke="#A52A2A" d="M50 55l46 0"/>
<text stroke="none" fill="white" font-size="16" x="106" y="64">
x1.comp_out_n-2
</text>
<path stroke="#A52A2A" d="M50 613l1 0 1 -9 0 -22 1 -19M53 564l0 -3M53 564l1 6M54 613l0 -43M54 613l488 0 0 -151 1 -13 0 -1M543 449l12 0M555 613l0 -172M555 613l66 0 0 -152 1 -13M622 449l0 -1M622 449l12 0M634 613l0 -173M634 613l93 0 0 -165M727 449l13 0"/>
<path stroke="#A52A2A" d="M740 613l0 -174M740 613l40 0 0 -165M780 449l13 0M793 613l0 -166M793 613l41 0 0 -164 11 0M845 450l0 -3M845 450l1 152M846 613l0 -11M846 613l92 0 0 -149 1 -15 0 -1M939 449l12 0M951 613l0 -171M951 613l23 0"/>
</svg>
