<?xml version="1.0" standalone="yes"?>
<!DOCTYPE svg PUBLIC "-//W3C//DTD SVG 1.1//EN"
 "http://www.w3.org/Graphics/SVG/1.1/DTD/svg11.dtd">
<svg xmlns="http://www.w3.org/2000/svg" version="1.1"
  width="100%" height="100%" viewBox="0 0 1024 768"
  style="fill: none; font-family: Helvetica;
 font: Helvetica;
">

<!-- Creator: NGspice -->

<rect x="0" y="0" width="1024" height="768" fill="black" stroke="none"/>
<text stroke="none" fill="white" font-size="16" x="358" y="752">
time
</text>
<text stroke="none" fill="white" font-size="16" x="10" y="16">
tran1: run1048_vin0.0215319
</text>
<path stroke="white" d="M50 704l0 -637"/>
<text stroke="none" fill="white" font-size="16" x="35" y="728">
0.0
</text>
<path stroke="white" stroke-dasharray="1,2" d="M182 704l0 -637"/>
<text stroke="none" fill="white" font-size="16" x="157" y="728">
100.0
</text>
<path stroke="white" stroke-dasharray="1,2" d="M314 704l0 -637"/>
<text stroke="none" fill="white" font-size="16" x="289" y="728">
200.0
</text>
<path stroke="white" stroke-dasharray="1,2" d="M446 704l0 -637"/>
<text stroke="none" fill="white" font-size="16" x="421" y="728">
300.0
</text>
<path stroke="white" stroke-dasharray="1,2" d="M578 704l0 -637"/>
<text stroke="none" fill="white" font-size="16" x="553" y="728">
400.0
</text>
<path stroke="white" stroke-dasharray="1,2" d="M710 704l0 -637"/>
<text stroke="none" fill="white" font-size="16" x="685" y="728">
500.0
</text>
<path stroke="white" stroke-dasharray="1,2" d="M842 704l0 -637"/>
<text stroke="none" fill="white" font-size="16" x="817" y="728">
600.0
</text>
<path stroke="white" stroke-dasharray="1,2" d="M974 704l0 -637"/>
<text stroke="none" fill="white" font-size="16" x="949" y="728">
700.0
</text>
<text stroke="none" fill="white" font-size="16" x="614" y="752">
ns
</text>
<path stroke="white" stroke-dasharray="1,2" d="M50 704l924 0"/>
<text stroke="none" fill="white" font-size="16" x="8" y="712">
-3.0
</text>
<path stroke="white" stroke-dasharray="1,2" d="M50 613l924 0"/>
<text stroke="none" fill="white" font-size="16" x="8" y="621">
-2.0
</text>
<path stroke="white" stroke-dasharray="1,2" d="M50 522l924 0"/>
<text stroke="none" fill="white" font-size="16" x="8" y="530">
-1.0
</text>
<path stroke="white" d="M50 431l924 0"/>
<text stroke="none" fill="white" font-size="16" x="18" y="439">
0.0
</text>
<path stroke="white" stroke-dasharray="1,2" d="M50 340l924 0"/>
<text stroke="none" fill="white" font-size="16" x="18" y="348">
1.0
</text>
<path stroke="white" stroke-dasharray="1,2" d="M50 249l924 0"/>
<text stroke="none" fill="white" font-size="16" x="18" y="257">
2.0
</text>
<path stroke="white" stroke-dasharray="1,2" d="M50 158l924 0"/>
<text stroke="none" fill="white" font-size="16" x="18" y="166">
3.0
</text>
<path stroke="white" stroke-dasharray="1,2" d="M50 67l924 0"/>
<text stroke="none" fill="white" font-size="16" x="18" y="75">
4.0
</text>
<text stroke="none" fill="white" font-size="16" x="10" y="32">
     
</text>
<path stroke="red" d="M462 23l46 0"/>
<text stroke="none" fill="white" font-size="16" x="518" y="32">
x1.vsampled_p
</text>
<path stroke="red" d="M50 431l1 0 1 -7 0 -15 1 -15 0 -4 1 1M54 415l0 -39 1 -5 0 -15 1 -3 0 -2 1 -1 2 0 1 -1 4 0M64 350l0 -1M64 350l4 0 1 -1 48 0 2 -2 421 0M540 348l0 -1 27 0M567 348l0 -1 26 0M593 348l0 -1 26 0M619 348l0 -1 27 0M646 348l0 -1 26 0"/>
<path stroke="red" d="M672 348l0 -1 26 0 1 1 0 -1 7 0M706 351l0 -4M706 351l1 0 0 -1 24 0 0 -1 1 -2M732 348l0 -1M732 348l6 0 0 -1M738 348l21 0M759 350l0 -2M759 349l53 0 1 1 0 -1 18 0M831 350l0 -1 26 0M857 350l0 -1 26 0M883 350l0 -1 27 0M910 350l0 -1"/>
<path stroke="red" d="M910 349l8 0 0 -2 18 0M936 348l0 -1 38 0"/>
<path stroke="blue" d="M50 23l46 0"/>
<text stroke="none" fill="white" font-size="16" x="106" y="32">
x1.vsampled_n
</text>
<path stroke="blue" d="M50 431l1 0 1 -7 0 -15 1 -14 0 -5 1 1M54 415l0 -39 1 -5 0 -15 1 -3 0 -2 1 -1 2 0 1 -1 4 0M64 350l0 -1M64 350l4 0 1 -1 48 0 2 2 421 0M540 352l0 -1 6 0 1 -1 0 -46 1 -7 0 -3 1 -2 0 -1 1 0 0 -1 4 0 0 -1M554 290l13 0M567 292l0 -2"/>
<path stroke="blue" d="M567 290l7 0M574 319l0 -29M574 319l1 7M575 333l0 -7M575 333l1 0 1 -1 0 -1 3 0 0 -1M580 331l13 0M593 332l0 -1 7 0M600 350l0 -19M600 350l1 3M601 355l0 -2 2 -2 16 0M619 352l0 -1M619 352l1 -1 6 0 0 -16 1 -1 0 -1 19 0M646 334l0 -1"/>
<path stroke="blue" d="M646 333l7 0M653 343l0 -10M653 343l1 1M654 345l0 -1 5 0 0 -1M659 344l20 0M679 348l0 -4M679 348l1 1M680 351l0 -2 106 0M786 350l0 -1 18 0M804 350l0 -1 26 0 1 1 0 -1 86 0M917 350l0 -1M917 350l1 1M918 352l0 -1 18 0M936 352l0 -1"/>
<path stroke="blue" d="M936 351l38 0"/>
<path stroke="#FFA500" d="M462 39l46 0"/>
<text stroke="none" fill="white" font-size="16" x="518" y="48">
x1.vsampled_p-x1.vsampled_n
</text>
<path stroke="#FFA500" d="M50 431l67 0 1 -2 0 -1 1 0 0 -1 427 0 1 1M547 474l0 -46M547 474l1 7M548 484l0 -3M548 484l1 2M549 487l0 -1M549 487l1 1 4 0M554 489l0 -1 13 0M567 489l0 -2M567 488l7 0 0 -29 1 -7 0 -6 1 0 1 1 3 0M580 448l0 -1M580 448l13 0"/>
<path stroke="#FFA500" d="M593 448l0 -1 7 0 0 -19 1 -3 0 -1M601 425l1 1M602 427l0 -1M602 427l24 0M626 444l0 -17M626 444l1 1 26 0 0 -10 1 -1 0 -1M654 434l1 0M655 435l0 -1M655 435l24 0 0 -5 1 -1 0 -1M680 429l1 0M681 430l0 -1M681 430l25 0M706 433l0 -3"/>
<path stroke="#FFA500" d="M706 433l1 0 0 -1 24 0 0 -1 1 -1 0 -1M732 430l27 0M759 432l0 -2M759 431l27 0 0 -1M786 431l52 0M838 432l0 -1 79 0 0 -2 1 0 0 -3M918 427l56 0"/>
<path stroke="green" d="M50 39l46 0"/>
<text stroke="none" fill="white" font-size="16" x="106" y="48">
x1.sw_sample-2
</text>
<path stroke="green" d="M50 613l1 0 1 -9 0 -21 1 -21M53 582l0 -26M53 582l1 28M54 613l0 -3M54 613l63 0M117 620l0 -172M117 449l422 0M539 614l0 -171M539 613l422 0M961 618l0 -170 1 1 12 0"/>
<path stroke="#FFC0C5" d="M462 55l46 0"/>
<text stroke="none" fill="white" font-size="16" x="518" y="64">
x1.comp_out_p+2
</text>
<path stroke="#FFC0C5" d="M50 249l1 0 1 -9 0 -22 1 -18 0 -4M53 198l1 5M54 249l0 -46M54 249l488 0 0 -165M542 85l13 0M555 249l0 -172M555 249l66 0M621 251l0 -167M621 85l13 0M634 249l0 -172M634 249l66 0 0 -165M700 85l13 0 0 -8 1 159M714 249l0 -13"/>
<path stroke="#FFC0C5" d="M714 249l39 0 0 -165M753 85l13 0M766 250l0 -174M766 249l41 0 0 -165M807 85l12 0M819 249l0 -171M819 249l15 0 0 -165M834 85l11 0 0 -10 1 142M846 249l0 -32M846 249l92 0 0 -165M938 85l13 0M951 250l0 -168M951 249l23 0"/>
<path stroke="#A52A2A" d="M50 55l46 0"/>
<text stroke="none" fill="white" font-size="16" x="106" y="64">
x1.comp_out_n-2
</text>
<path stroke="#A52A2A" d="M50 613l1 0 1 -9 0 -22 1 -19M53 564l0 -3M53 564l1 6M54 613l0 -43M54 613l514 0M568 614l0 -166M568 449l13 0 0 -9 1 163M582 613l0 -10M582 613l12 0M594 614l0 -167M594 449l14 0M608 614l0 -171M608 613l39 0 0 -165M647 449l14 0"/>
<path stroke="#A52A2A" d="M661 613l0 -173M661 613l12 0 1 2 0 -168M674 449l13 0M687 613l0 -171M687 613l40 0 0 -165 1 1 12 0M740 614l0 -174M740 613l40 0 0 -157 1 -8M781 449l0 -1M781 449l12 0M793 613l0 -174M793 613l67 0 0 -165M860 449l12 0M872 613l0 -168"/>
<path stroke="#A52A2A" d="M872 613l14 0 0 -158 1 -7M887 449l0 -1M887 449l11 0M898 613l0 -168M898 613l14 0 1 -158 0 -7M913 449l12 0M925 614l0 -174M925 613l49 0"/>
</svg>
