<?xml version="1.0" standalone="yes"?>
<!DOCTYPE svg PUBLIC "-//W3C//DTD SVG 1.1//EN"
 "http://www.w3.org/Graphics/SVG/1.1/DTD/svg11.dtd">
<svg xmlns="http://www.w3.org/2000/svg" version="1.1"
  width="100%" height="100%" viewBox="0 0 1024 768"
  style="fill: none; font-family: Helvetica;
 font: Helvetica;
">

<!-- Creator: NGspice -->

<rect x="0" y="0" width="1024" height="768" fill="black" stroke="none"/>
<text stroke="none" fill="white" font-size="16" x="358" y="752">
time
</text>
<text stroke="none" fill="white" font-size="16" x="10" y="16">
tran1: run111_vin0.0236043
</text>
<path stroke="white" d="M50 704l0 -637"/>
<text stroke="none" fill="white" font-size="16" x="35" y="728">
0.0
</text>
<path stroke="white" stroke-dasharray="1,2" d="M182 704l0 -637"/>
<text stroke="none" fill="white" font-size="16" x="157" y="728">
100.0
</text>
<path stroke="white" stroke-dasharray="1,2" d="M314 704l0 -637"/>
<text stroke="none" fill="white" font-size="16" x="289" y="728">
200.0
</text>
<path stroke="white" stroke-dasharray="1,2" d="M446 704l0 -637"/>
<text stroke="none" fill="white" font-size="16" x="421" y="728">
300.0
</text>
<path stroke="white" stroke-dasharray="1,2" d="M578 704l0 -637"/>
<text stroke="none" fill="white" font-size="16" x="553" y="728">
400.0
</text>
<path stroke="white" stroke-dasharray="1,2" d="M710 704l0 -637"/>
<text stroke="none" fill="white" font-size="16" x="685" y="728">
500.0
</text>
<path stroke="white" stroke-dasharray="1,2" d="M842 704l0 -637"/>
<text stroke="none" fill="white" font-size="16" x="817" y="728">
600.0
</text>
<path stroke="white" stroke-dasharray="1,2" d="M974 704l0 -637"/>
<text stroke="none" fill="white" font-size="16" x="949" y="728">
700.0
</text>
<text stroke="none" fill="white" font-size="16" x="614" y="752">
ns
</text>
<path stroke="white" stroke-dasharray="1,2" d="M50 704l924 0"/>
<text stroke="none" fill="white" font-size="16" x="8" y="712">
-3.0
</text>
<path stroke="white" stroke-dasharray="1,2" d="M50 613l924 0"/>
<text stroke="none" fill="white" font-size="16" x="8" y="621">
-2.0
</text>
<path stroke="white" stroke-dasharray="1,2" d="M50 522l924 0"/>
<text stroke="none" fill="white" font-size="16" x="8" y="530">
-1.0
</text>
<path stroke="white" d="M50 431l924 0"/>
<text stroke="none" fill="white" font-size="16" x="18" y="439">
0.0
</text>
<path stroke="white" stroke-dasharray="1,2" d="M50 340l924 0"/>
<text stroke="none" fill="white" font-size="16" x="18" y="348">
1.0
</text>
<path stroke="white" stroke-dasharray="1,2" d="M50 249l924 0"/>
<text stroke="none" fill="white" font-size="16" x="18" y="257">
2.0
</text>
<path stroke="white" stroke-dasharray="1,2" d="M50 158l924 0"/>
<text stroke="none" fill="white" font-size="16" x="18" y="166">
3.0
</text>
<path stroke="white" stroke-dasharray="1,2" d="M50 67l924 0"/>
<text stroke="none" fill="white" font-size="16" x="18" y="75">
4.0
</text>
<text stroke="none" fill="white" font-size="16" x="10" y="32">
     
</text>
<path stroke="red" d="M462 23l46 0"/>
<text stroke="none" fill="white" font-size="16" x="518" y="32">
x1.vsampled_p
</text>
<path stroke="red" d="M50 431l1 0 1 -7 0 -15 1 -15 0 -4 1 1M54 415l0 -39 1 -5 0 -15 1 -3 0 -2 1 -1 2 0 1 -1 4 0M64 350l0 -1M64 350l4 0 1 -1 48 0 2 -2 421 0M540 348l0 -1 27 0M567 348l0 -1 26 0M593 348l0 -1 26 0M619 348l0 -1 27 0M646 348l0 -1 26 0"/>
<path stroke="red" d="M672 348l0 -1 27 0M699 348l0 -1 7 0M706 351l0 -4M706 351l1 0 0 -1 25 0 0 -3 19 0M751 348l0 -1M751 348l1 0 0 -1 7 0M759 350l0 -3M759 349l27 0M786 350l0 -1M786 350l1 0 0 -1 17 0M804 350l0 -1 26 0 1 1 0 -1 86 0M917 350l0 -1"/>
<path stroke="red" d="M917 349l1 0 0 -2 18 0M936 348l0 -1 38 0"/>
<path stroke="blue" d="M50 23l46 0"/>
<text stroke="none" fill="white" font-size="16" x="106" y="32">
x1.vsampled_n
</text>
<path stroke="blue" d="M50 431l1 0 1 -7 0 -15 1 -14 0 -5 1 1M54 415l0 -39 1 -5 0 -15 1 -3 0 -2 1 -1 2 0 1 -1 4 0M64 350l0 -1M64 350l4 0 1 -1 48 0 1 1M118 351l0 -1M118 351l422 0M540 352l0 -1M540 352l1 -1 5 0 1 1 0 -47 1 -8 0 -3 1 -2 0 -1 1 0 0 -1"/>
<path stroke="blue" d="M550 290l4 0 0 -1M554 290l12 0 1 1M567 292l0 -2 7 0M574 319l0 -29M574 319l1 7M575 333l0 -7M575 333l1 0 1 -1 0 -1 16 0M593 332l0 -1 7 0M600 347l0 -16M600 347l1 3M601 355l0 -5M601 354l1 -1 0 -1 1 0 1 -1 15 0M619 352l0 -1"/>
<path stroke="blue" d="M619 352l1 0 0 -1 6 0 0 -16 1 -1 0 -1 1 0 1 1 4 0 0 -1 1 1 12 0 0 -1M646 334l7 0M653 344l0 -11M653 344l1 1 0 -1 5 0 0 -1M659 344l20 0M679 349l0 -5M679 349l1 1M680 351l0 -2 132 0M812 350l0 -1M812 350l1 0 0 -1 18 0M831 350l0 -1"/>
<path stroke="blue" d="M831 349l26 0M857 350l0 -1 26 0M883 350l0 -1 27 0M910 350l0 -1 7 0M917 350l0 -1M917 350l1 1M918 352l0 -1M918 352l1 0 0 -1 17 0M936 352l0 -1 38 0"/>
<path stroke="#FFA500" d="M462 39l46 0"/>
<text stroke="none" fill="white" font-size="16" x="518" y="48">
x1.vsampled_p-x1.vsampled_n
</text>
<path stroke="#FFA500" d="M50 431l67 0 1 -2 0 -1 1 -1 427 0 1 -1M547 473l0 -47M547 473l1 8M548 484l0 -3M548 484l1 2M549 487l0 -1M549 487l1 0M550 488l0 -1M550 488l4 0M554 489l0 -1 13 0 0 -1M567 488l7 0 0 -29 1 -7 0 -7 1 0 1 1M577 447l0 -1M577 447l23 0"/>
<path stroke="#FFA500" d="M600 447l0 -16 1 -3 0 -5M601 424l1 1M602 426l0 -1M602 426l1 1 23 0M626 443l0 -16M626 443l1 1M627 445l0 -1M627 445l19 0 0 -1M646 445l7 0 0 -11 1 -1M654 434l0 -1M654 434l18 0M672 435l0 -1 7 0 0 -5 1 -1M680 429l0 -2M680 429l26 0"/>
<path stroke="#FFA500" d="M706 433l0 -4M706 433l1 0 0 -1 25 0 0 -3 1 0M733 430l0 -1M733 430l26 0M759 432l0 -2M759 431l27 0M786 432l0 -1M786 432l2 0 1 -1 2 0M791 432l0 -1 1 0M792 432l0 -1M792 432l1 0 0 -1 11 0M804 432l0 -1 113 0M917 432l0 -3 1 0"/>
<path stroke="#FFA500" d="M918 429l0 -3 1 0M919 427l0 -1M919 427l55 0"/>
<path stroke="green" d="M50 39l46 0"/>
<text stroke="none" fill="white" font-size="16" x="106" y="48">
x1.sw_sample-2
</text>
<path stroke="green" d="M50 613l1 0 1 -9 0 -21 1 -21M53 582l0 -26M53 582l1 28M54 613l0 -3M54 613l63 0M117 620l0 -172M117 449l422 0M539 614l0 -173M539 613l422 0M961 618l0 -170 1 1 12 0"/>
<path stroke="#FFC0C5" d="M462 55l46 0"/>
<text stroke="none" fill="white" font-size="16" x="518" y="64">
x1.comp_out_p+2
</text>
<path stroke="#FFC0C5" d="M50 249l1 0 1 -9 0 -22 1 -18 0 -4M53 198l1 5M54 249l0 -46M54 249l488 0M542 250l0 -166M542 85l13 0M555 250l0 -170M555 249l66 0M621 251l0 -168M621 85l13 0M634 249l0 -171M634 249l66 0 0 -165M700 85l13 0 0 -4 1 33M714 250l0 -136"/>
<path stroke="#FFC0C5" d="M714 249l39 0 0 -165M753 85l13 0M766 249l0 -173M766 249l14 0M780 251l0 -2M780 251l1 -150 0 -17M781 85l12 0M793 249l0 -174M793 249l67 0 0 -164 12 0M872 249l0 -173M872 249l14 0 0 -157 1 -8M887 85l0 -1M887 85l11 0M898 249l0 -173"/>
<path stroke="#FFC0C5" d="M898 249l14 0 1 -157 0 -8M913 85l12 0M925 250l0 -172M925 249l13 0 0 -165M938 85l13 0M951 250l0 -172M951 249l23 0"/>
<path stroke="#A52A2A" d="M50 55l46 0"/>
<text stroke="none" fill="white" font-size="16" x="106" y="64">
x1.comp_out_n-2
</text>
<path stroke="#A52A2A" d="M50 613l1 0 1 -9 0 -22 1 -19M53 564l0 -3M53 564l1 6M54 613l0 -43M54 613l514 0 0 -166M568 449l13 0 0 -9 1 163M582 613l0 -10M582 613l12 0M594 614l0 -166M594 449l14 0M608 613l0 -171M608 613l39 0 0 -165M647 449l14 0M661 613l0 -173"/>
<path stroke="#A52A2A" d="M661 613l12 0 1 6 0 -172M674 449l13 0M687 613l0 -172M687 613l41 0 0 -165M728 449l12 0M740 613l0 -172M740 613l67 0 0 -165M807 449l12 0M819 613l0 -174M819 613l15 0 0 -165M834 449l11 0 0 -6 1 157M846 613l0 -13M846 613l128 0"/>
</svg>
