<?xml version="1.0" standalone="yes"?>
<!DOCTYPE svg PUBLIC "-//W3C//DTD SVG 1.1//EN"
 "http://www.w3.org/Graphics/SVG/1.1/DTD/svg11.dtd">
<svg xmlns="http://www.w3.org/2000/svg" version="1.1"
  width="100%" height="100%" viewBox="0 0 1024 768"
  style="fill: none; font-family: Helvetica;
 font: Helvetica;
">

<!-- Creator: NGspice -->

<rect x="0" y="0" width="1024" height="768" fill="black" stroke="none"/>
<text stroke="none" fill="white" font-size="16" x="358" y="752">
time
</text>
<text stroke="none" fill="white" font-size="16" x="10" y="16">
tran1: run1649_vin0.549754
</text>
<path stroke="white" d="M50 704l0 -637"/>
<text stroke="none" fill="white" font-size="16" x="35" y="728">
0.0
</text>
<path stroke="white" stroke-dasharray="1,2" d="M182 704l0 -637"/>
<text stroke="none" fill="white" font-size="16" x="157" y="728">
100.0
</text>
<path stroke="white" stroke-dasharray="1,2" d="M314 704l0 -637"/>
<text stroke="none" fill="white" font-size="16" x="289" y="728">
200.0
</text>
<path stroke="white" stroke-dasharray="1,2" d="M446 704l0 -637"/>
<text stroke="none" fill="white" font-size="16" x="421" y="728">
300.0
</text>
<path stroke="white" stroke-dasharray="1,2" d="M578 704l0 -637"/>
<text stroke="none" fill="white" font-size="16" x="553" y="728">
400.0
</text>
<path stroke="white" stroke-dasharray="1,2" d="M710 704l0 -637"/>
<text stroke="none" fill="white" font-size="16" x="685" y="728">
500.0
</text>
<path stroke="white" stroke-dasharray="1,2" d="M842 704l0 -637"/>
<text stroke="none" fill="white" font-size="16" x="817" y="728">
600.0
</text>
<path stroke="white" stroke-dasharray="1,2" d="M974 704l0 -637"/>
<text stroke="none" fill="white" font-size="16" x="949" y="728">
700.0
</text>
<text stroke="none" fill="white" font-size="16" x="614" y="752">
ns
</text>
<path stroke="white" stroke-dasharray="1,2" d="M50 704l924 0"/>
<text stroke="none" fill="white" font-size="16" x="8" y="712">
-3.0
</text>
<path stroke="white" stroke-dasharray="1,2" d="M50 613l924 0"/>
<text stroke="none" fill="white" font-size="16" x="8" y="621">
-2.0
</text>
<path stroke="white" stroke-dasharray="1,2" d="M50 522l924 0"/>
<text stroke="none" fill="white" font-size="16" x="8" y="530">
-1.0
</text>
<path stroke="white" d="M50 431l924 0"/>
<text stroke="none" fill="white" font-size="16" x="18" y="439">
0.0
</text>
<path stroke="white" stroke-dasharray="1,2" d="M50 340l924 0"/>
<text stroke="none" fill="white" font-size="16" x="18" y="348">
1.0
</text>
<path stroke="white" stroke-dasharray="1,2" d="M50 249l924 0"/>
<text stroke="none" fill="white" font-size="16" x="18" y="257">
2.0
</text>
<path stroke="white" stroke-dasharray="1,2" d="M50 158l924 0"/>
<text stroke="none" fill="white" font-size="16" x="18" y="166">
3.0
</text>
<path stroke="white" stroke-dasharray="1,2" d="M50 67l924 0"/>
<text stroke="none" fill="white" font-size="16" x="18" y="75">
4.0
</text>
<text stroke="none" fill="white" font-size="16" x="10" y="32">
     
</text>
<path stroke="red" d="M462 23l46 0"/>
<text stroke="none" fill="white" font-size="16" x="518" y="32">
x1.vsampled_p
</text>
<path stroke="red" d="M50 431l1 0 1 -7 0 -15 1 -15 0 -4 1 1M54 414l0 -37 1 -3 0 -17 1 -3 0 -2 1 -2 2 0 1 -1 4 0M64 350l0 -1M64 350l4 0 1 -1 48 0 0 -1 1 -10 0 -21 1 -5 0 -7 1 -3 0 -1 2 -2 418 0M540 300l0 -1 26 0 1 1M567 301l0 -2 7 0M574 320l0 -21"/>
<path stroke="red" d="M574 320l1 7M575 337l0 -10M575 337l1 2M576 340l0 -1M576 340l17 0M593 341l0 -1 26 0M619 341l0 -1 27 0M646 341l0 -1 7 0M653 348l0 -8M653 348l1 2M654 351l0 -1M654 351l1 -1 17 0M672 351l0 -1 26 0 1 1 0 -1 26 0M725 351l0 -1 6 0"/>
<path stroke="red" d="M731 350l0 -1 1 -1 19 0M751 349l0 -1 27 0M778 349l0 -1 7 0M785 349l0 -1M785 349l27 0M812 350l0 -1 107 0M919 350l0 -21 1 -3 0 -15 1 -3 0 -5 1 0 0 -2 1 0 0 -2M923 300l1 0 0 -1 12 0M936 301l0 -2 38 0"/>
<path stroke="blue" d="M50 23l46 0"/>
<text stroke="none" fill="white" font-size="16" x="106" y="32">
x1.vsampled_n
</text>
<path stroke="blue" d="M50 431l1 0 1 -7 0 -15 1 -14 0 -5 1 2M54 415l0 -38 1 -3 0 -17 1 -3 0 -2 1 -2 2 0 1 -1 4 0M64 350l0 -1M64 350l4 0 1 -1 48 0M117 361l0 -12M117 361l1 13M118 388l0 -14M118 388l1 3M119 395l0 -4M119 395l1 2M120 398l0 -1M120 398l1 1"/>
<path stroke="blue" d="M121 399l425 0 0 -21 1 -3 0 -24 1 -4 0 -6 1 -1 0 -1 1 -1 4 0 0 -1M554 338l13 0M567 339l0 -1 13 0 0 -1M580 338l13 0M593 339l0 -1 7 0M600 357l0 -19M600 357l1 3M601 365l0 -5M601 363l1 -2 0 -2 1 -1 16 0M619 359l0 -1M619 359l1 0"/>
<path stroke="blue" d="M620 359l0 -1 5 0 0 -14 1 -1 0 -4 1 1 1 0 1 1 4 0 0 -1 13 0M646 341l0 -1M646 341l13 0 0 -1 13 0M672 341l0 -1M672 341l7 0M679 348l0 -8M679 348l1 1 0 -3 6 0 0 -1M686 346l19 0 1 1M706 350l0 -3M706 349l1 0 0 -1 18 0M725 349l0 -1"/>
<path stroke="blue" d="M725 348l26 0M751 349l0 -1 19 0M770 351l0 -3M770 350l1 0 0 -1 7 0M778 350l0 -1 26 0M804 350l0 -1 26 0 1 1 0 -1 26 0M857 350l0 -1 26 0M883 350l0 -1 27 0M910 350l0 -1 9 0M919 381l0 -33M919 381l1 5M920 401l0 -15M920 401l1 1"/>
<path stroke="blue" d="M921 402l0 -1 1 0 0 -1 1 0 0 -1 51 0"/>
<path stroke="#FFA500" d="M462 39l46 0"/>
<text stroke="none" fill="white" font-size="16" x="518" y="48">
x1.vsampled_p-x1.vsampled_n
</text>
<path stroke="#FFA500" d="M50 431l2 0 1 -1 1 0M54 431l0 -1M54 431l63 0 0 -13 1 -23 0 -35 1 -8 0 -12 1 -3 0 -3 1 -2 1 0 0 -1 418 0M540 332l0 -1 6 0M546 352l0 -21M546 352l1 3M547 380l0 -25M547 380l1 4M548 389l0 -5M548 389l1 1M549 392l0 -2M549 392l5 0"/>
<path stroke="#FFA500" d="M554 393l0 -1 12 0 1 1 0 -1 7 0M574 413l0 -21M574 413l1 7M575 430l0 -10M575 430l1 2M576 433l0 -1M576 433l24 0 0 -19 1 -2 0 -5M601 408l1 2M602 413l0 -3M602 413l23 0M625 427l0 -14M625 427l1 1M626 432l0 -4M626 432l1 0 0 -1"/>
<path stroke="#FFA500" d="M627 431l19 0 0 -1M646 431l7 0M653 438l0 -7M653 438l1 2M654 441l0 -1M654 441l18 0 0 -1M672 441l7 0 0 -8 1 -1M680 435l0 -3M680 435l1 1 24 0 1 -1 0 -3 1 1 24 0 0 -1 1 -1 0 -1M732 431l38 0 0 -3M770 430l15 0M785 431l0 -1"/>
<path stroke="#FFA500" d="M785 431l1 0 0 -1 26 0M812 431l0 -1M812 431l107 0M919 433l0 -54 1 -8 0 -30 1 -4 0 -3 1 -1 0 -1 1 0 0 -1 13 0M936 332l0 -1 38 0"/>
<path stroke="green" d="M50 39l46 0"/>
<text stroke="none" fill="white" font-size="16" x="106" y="48">
x1.sw_sample-2
</text>
<path stroke="green" d="M50 613l1 0 1 -9 0 -21 1 -21M53 580l0 -24M53 580l1 30M54 613l0 -3M54 613l63 0M117 620l0 -172M117 449l422 0M539 614l0 -171M539 613l422 0M961 618l0 -170 1 1 12 0"/>
<path stroke="#FFC0C5" d="M462 55l46 0"/>
<text stroke="none" fill="white" font-size="16" x="518" y="64">
x1.comp_out_p+2
</text>
<path stroke="#FFC0C5" d="M50 249l1 0 1 -9 0 -22 1 -18 0 -4M53 198l1 5M54 251l0 -48M54 248l1 0M55 249l0 -1M55 249l486 0 1 1 0 -167M542 85l13 0M555 250l0 -168M555 249l13 0M568 253l0 -170M568 85l13 0 0 -8 1 149M582 249l0 -23M582 249l39 0M621 250l0 -167"/>
<path stroke="#FFC0C5" d="M621 85l13 0M634 250l0 -172M634 250l1 -1 12 0M647 254l0 -171M647 85l14 0M661 249l0 -172M661 249l119 0 0 -165M780 85l13 0M793 250l0 -168M793 249l13 0 1 -151 0 -14M807 85l12 0M819 250l0 -174M819 249l14 0 1 -157 0 -8M834 85l11 0"/>
<path stroke="#FFC0C5" d="M845 85l0 -7 1 146M846 249l0 -25M846 249l15 0 0 -165M861 85l11 0M872 249l0 -172M872 249l42 0 0 -165M914 85l11 0M925 249l0 -172M925 249l12 0M937 250l0 -1M937 250l1 -85 0 -82M938 85l13 0M951 250l0 -171M951 249l23 0"/>
<path stroke="#A52A2A" d="M50 55l46 0"/>
<text stroke="none" fill="white" font-size="16" x="106" y="64">
x1.comp_out_n-2
</text>
<path stroke="#A52A2A" d="M50 613l1 0 1 -9 0 -22 1 -19M53 564l0 -3M53 564l1 6M54 614l0 -100 1 93M55 613l0 -6M55 613l539 0M594 614l0 -167M594 448l1 1 13 0M608 613l0 -174M608 613l65 0M673 620l0 -7M673 620l1 -144 0 -29M674 449l13 0M687 613l0 -171"/>
<path stroke="#A52A2A" d="M687 613l13 0M700 615l0 -168M700 449l13 0 0 -8 1 156M714 613l0 -16M714 613l13 0 0 -165M727 449l13 0M740 614l0 -170M740 613l24 0 0 -165M764 449l2 0M766 614l0 -173M766 613l121 0 0 -165M887 449l11 0M898 613l0 -173M898 613l76 0"/>
</svg>
