<?xml version="1.0" standalone="yes"?>
<!DOCTYPE svg PUBLIC "-//W3C//DTD SVG 1.1//EN"
 "http://www.w3.org/Graphics/SVG/1.1/DTD/svg11.dtd">
<svg xmlns="http://www.w3.org/2000/svg" version="1.1"
  width="100%" height="100%" viewBox="0 0 1024 768"
  style="fill: none; font-family: Helvetica;
 font: Helvetica;
">

<!-- Creator: NGspice -->

<rect x="0" y="0" width="1024" height="768" fill="black" stroke="none"/>
<text stroke="none" fill="white" font-size="16" x="358" y="752">
time
</text>
<text stroke="none" fill="white" font-size="16" x="10" y="16">
tran1: run706_vin-0.279054
</text>
<path stroke="white" d="M50 704l0 -637"/>
<text stroke="none" fill="white" font-size="16" x="35" y="728">
0.0
</text>
<path stroke="white" stroke-dasharray="1,2" d="M182 704l0 -637"/>
<text stroke="none" fill="white" font-size="16" x="157" y="728">
100.0
</text>
<path stroke="white" stroke-dasharray="1,2" d="M314 704l0 -637"/>
<text stroke="none" fill="white" font-size="16" x="289" y="728">
200.0
</text>
<path stroke="white" stroke-dasharray="1,2" d="M446 704l0 -637"/>
<text stroke="none" fill="white" font-size="16" x="421" y="728">
300.0
</text>
<path stroke="white" stroke-dasharray="1,2" d="M578 704l0 -637"/>
<text stroke="none" fill="white" font-size="16" x="553" y="728">
400.0
</text>
<path stroke="white" stroke-dasharray="1,2" d="M710 704l0 -637"/>
<text stroke="none" fill="white" font-size="16" x="685" y="728">
500.0
</text>
<path stroke="white" stroke-dasharray="1,2" d="M842 704l0 -637"/>
<text stroke="none" fill="white" font-size="16" x="817" y="728">
600.0
</text>
<path stroke="white" stroke-dasharray="1,2" d="M974 704l0 -637"/>
<text stroke="none" fill="white" font-size="16" x="949" y="728">
700.0
</text>
<text stroke="none" fill="white" font-size="16" x="614" y="752">
ns
</text>
<path stroke="white" stroke-dasharray="1,2" d="M50 704l924 0"/>
<text stroke="none" fill="white" font-size="16" x="8" y="712">
-3.0
</text>
<path stroke="white" stroke-dasharray="1,2" d="M50 613l924 0"/>
<text stroke="none" fill="white" font-size="16" x="8" y="621">
-2.0
</text>
<path stroke="white" stroke-dasharray="1,2" d="M50 522l924 0"/>
<text stroke="none" fill="white" font-size="16" x="8" y="530">
-1.0
</text>
<path stroke="white" d="M50 431l924 0"/>
<text stroke="none" fill="white" font-size="16" x="18" y="439">
0.0
</text>
<path stroke="white" stroke-dasharray="1,2" d="M50 340l924 0"/>
<text stroke="none" fill="white" font-size="16" x="18" y="348">
1.0
</text>
<path stroke="white" stroke-dasharray="1,2" d="M50 249l924 0"/>
<text stroke="none" fill="white" font-size="16" x="18" y="257">
2.0
</text>
<path stroke="white" stroke-dasharray="1,2" d="M50 158l924 0"/>
<text stroke="none" fill="white" font-size="16" x="18" y="166">
3.0
</text>
<path stroke="white" stroke-dasharray="1,2" d="M50 67l924 0"/>
<text stroke="none" fill="white" font-size="16" x="18" y="75">
4.0
</text>
<text stroke="none" fill="white" font-size="16" x="10" y="32">
     
</text>
<path stroke="red" d="M462 23l46 0"/>
<text stroke="none" fill="white" font-size="16" x="518" y="32">
x1.vsampled_p
</text>
<path stroke="red" d="M50 431l1 0 1 -7 0 -15 1 -14 0 -5 1 2M54 415l0 -40 1 -5 0 -13 1 -3 0 -2 2 -2 1 0 1 -1 4 0M64 350l0 -1M64 350l4 0 1 -1 48 0M117 353l0 -4M117 353l1 8M118 369l0 -8M118 369l1 3 1 1M120 374l0 -1M120 374l419 0M539 375l0 -1M539 375l2 0"/>
<path stroke="red" d="M541 375l0 -1M541 375l5 0 0 -23 1 -3 0 -26 1 -5 0 -2 3 -3 15 0 1 1 0 -1 7 0M574 343l0 -30M574 343l1 3M575 356l0 -10M575 356l1 0 0 -1 1 0 1 -1 15 0M593 355l0 -1 26 0M619 355l0 -1 6 0 0 -6 1 -4 0 -7 1 -1 19 0M646 337l0 -1"/>
<path stroke="red" d="M646 336l7 0M653 345l0 -9M653 345l1 2M654 348l0 -1 5 0 0 -1 1 0M660 347l0 -1M660 347l12 0 0 -1M672 347l14 0 0 -1M686 347l12 0 0 -1M698 347l1 0 0 -1M699 347l7 0M706 350l0 -3M706 350l1 0 0 -1 18 0M725 350l0 -1 26 0M751 350l0 -1"/>
<path stroke="red" d="M751 349l27 0M778 350l0 -1 26 0M804 350l0 -1 27 0M831 350l0 -1 26 0M857 350l0 -1 26 0M883 350l0 -1 27 0M910 350l0 -1 9 0M919 379l0 -30M919 379l1 -1 0 -2 1 -1 41 0 0 -1 12 0"/>
<path stroke="blue" d="M50 23l46 0"/>
<text stroke="none" fill="white" font-size="16" x="106" y="32">
x1.vsampled_n
</text>
<path stroke="blue" d="M50 431l1 0 1 -7 0 -15 1 -15 0 -4 1 1M54 415l0 -40 1 -5 0 -13 1 -3 0 -2 2 -2 1 0 1 -1 4 0M64 350l0 -1M64 350l4 0 1 -1 48 0 0 -1 1 -7 0 -11 1 -3 1 -2 0 -1 420 0M540 325l0 -1 14 0 0 -1M554 324l13 0M567 325l0 -1 26 0M593 325l0 -1"/>
<path stroke="blue" d="M593 324l7 0M600 341l0 -17M600 341l1 3M601 347l0 -3M601 347l1 -1 0 -1 1 0 1 -1 15 0M619 345l0 -1 27 0M646 345l0 -1 26 0M672 345l0 -1 7 0M679 349l0 -5M679 349l1 1M680 351l0 -1 3 0 0 -1 15 0 1 1 0 -1 7 0M706 350l0 -1 19 0"/>
<path stroke="blue" d="M725 350l0 -1 7 0M732 350l0 -4M732 347l19 0M751 348l0 -1 8 0M759 349l0 -2M759 349l6 0 0 -1 13 0M778 349l0 -1M778 349l8 0M786 350l0 -1 27 0M813 350l0 -1M813 350l2 0 1 -1 14 0 1 1 0 -1 87 0M918 350l0 -1M918 350l1 0 0 -24"/>
<path stroke="blue" d="M919 326l1 -1 0 -1 3 0 0 -1M923 324l13 0M936 325l0 -1 38 0"/>
<path stroke="#FFA500" d="M462 39l46 0"/>
<text stroke="none" fill="white" font-size="16" x="518" y="48">
x1.vsampled_p-x1.vsampled_n
</text>
<path stroke="#FFA500" d="M50 431l67 0M117 436l0 -5M117 436l1 14M118 470l0 -20M118 470l1 6 1 3M120 481l0 -2M120 481l1 0 1 1 418 0 0 -1M540 482l1 0 0 -1M541 482l5 0 0 -23 1 -3 0 -26 1 -5 0 -2 3 -3 15 0 1 1 0 -1 7 0M574 450l0 -30M574 450l1 3M575 463l0 -10"/>
<path stroke="#FFA500" d="M575 463l1 0 0 -1 1 0 1 -1 2 0M580 462l0 -1 20 0 0 -17 1 -2 0 -4M601 439l1 0M602 440l0 -1M602 440l1 1 22 0 0 -6 1 -4 0 -8 27 0M653 432l0 -9M653 432l1 2M654 435l0 -1 1 0 0 -1 24 0 0 -4 1 -1 0 -2M680 428l26 0M706 432l0 -4"/>
<path stroke="#FFA500" d="M706 432l1 -1 25 0M732 434l0 -3M732 434l1 0 0 -1 26 0 0 -2 1 1 25 0 0 -1 1 0 0 -1M786 431l27 0 0 -1 1 0M814 431l0 -1M814 431l104 0 0 -1 1 0M919 484l0 -54M919 484l1 0 0 -1 1 0 0 -1 15 0 0 -1M936 482l38 0"/>
<path stroke="green" d="M50 39l46 0"/>
<text stroke="none" fill="white" font-size="16" x="106" y="48">
x1.sw_sample-2
</text>
<path stroke="green" d="M50 613l1 0 1 -9 0 -21 1 -21M53 581l0 -25M53 581l1 29M54 613l0 -3M54 613l63 0M117 620l0 -172M117 449l422 0M539 614l0 -171M539 613l422 0M961 618l0 -170 1 1 12 0"/>
<path stroke="#FFC0C5" d="M462 55l46 0"/>
<text stroke="none" fill="white" font-size="16" x="518" y="64">
x1.comp_out_p+2
</text>
<path stroke="#FFC0C5" d="M50 249l1 0 1 -9 0 -22 1 -18 0 -4M53 198l1 5M54 249l0 -46M54 248l1 1 513 0M568 250l0 -167M568 85l13 0 0 -9 1 162M582 250l0 -12M582 249l65 0M647 255l0 -172M647 85l14 0M661 249l0 -170M661 249l39 0M700 250l0 -167M700 85l13 0"/>
<path stroke="#FFC0C5" d="M713 85l0 -9 1 135M714 250l0 -39M714 249l14 0 0 -165M728 85l12 0M740 250l0 -173M740 249l93 0 1 -153 0 -11 11 0 0 -10 1 150M846 249l0 -24M846 249l128 0"/>
<path stroke="#A52A2A" d="M50 55l46 0"/>
<text stroke="none" fill="white" font-size="16" x="106" y="64">
x1.comp_out_n-2
</text>
<path stroke="#A52A2A" d="M50 613l1 0 1 -9 0 -22 1 -19M53 564l0 -3M53 564l1 6M54 613l0 -43M54 613l488 0 0 -165M542 449l13 0M555 613l0 -172M555 613l13 0M568 614l0 -1 26 0M594 614l0 -167M594 449l14 0M608 613l0 -171M608 613l13 0M621 614l0 -167M621 449l13 0"/>
<path stroke="#A52A2A" d="M634 614l0 -170M634 613l39 0 1 3 0 -169M674 449l13 0M687 613l0 -172M687 613l66 0 0 -165M753 449l13 0M766 613l0 -172M766 613l14 0 0 -165M780 449l13 0M793 613l0 -166M793 613l15 0 0 -165M808 449l11 0M819 613l0 -166M819 613l41 0"/>
<path stroke="#A52A2A" d="M860 613l1 -62 0 -103M861 449l11 0M872 613l0 -166M872 613l15 0 0 -165M887 449l11 0M898 613l0 -166M898 613l15 0 0 -152 1 -13M914 449l0 -1M914 449l11 0M925 613l0 -173M925 613l12 0M937 614l0 -1M937 614l1 -64 0 -102M938 449l13 0"/>
<path stroke="#A52A2A" d="M951 614l0 -166M951 613l23 0"/>
</svg>
