<?xml version="1.0" standalone="yes"?>
<!DOCTYPE svg PUBLIC "-//W3C//DTD SVG 1.1//EN"
 "http://www.w3.org/Graphics/SVG/1.1/DTD/svg11.dtd">
<svg xmlns="http://www.w3.org/2000/svg" version="1.1"
  width="100%" height="100%" viewBox="0 0 1024 768"
  style="fill: none; font-family: Helvetica;
 font: Helvetica;
">

<!-- Creator: NGspice -->

<rect x="0" y="0" width="1024" height="768" fill="black" stroke="none"/>
<text stroke="none" fill="white" font-size="16" x="358" y="752">
time
</text>
<text stroke="none" fill="white" font-size="16" x="10" y="16">
tran1: run423_vin-0.527784
</text>
<path stroke="white" d="M50 704l0 -637"/>
<text stroke="none" fill="white" font-size="16" x="35" y="728">
0.0
</text>
<path stroke="white" stroke-dasharray="1,2" d="M182 704l0 -637"/>
<text stroke="none" fill="white" font-size="16" x="157" y="728">
100.0
</text>
<path stroke="white" stroke-dasharray="1,2" d="M314 704l0 -637"/>
<text stroke="none" fill="white" font-size="16" x="289" y="728">
200.0
</text>
<path stroke="white" stroke-dasharray="1,2" d="M446 704l0 -637"/>
<text stroke="none" fill="white" font-size="16" x="421" y="728">
300.0
</text>
<path stroke="white" stroke-dasharray="1,2" d="M578 704l0 -637"/>
<text stroke="none" fill="white" font-size="16" x="553" y="728">
400.0
</text>
<path stroke="white" stroke-dasharray="1,2" d="M710 704l0 -637"/>
<text stroke="none" fill="white" font-size="16" x="685" y="728">
500.0
</text>
<path stroke="white" stroke-dasharray="1,2" d="M842 704l0 -637"/>
<text stroke="none" fill="white" font-size="16" x="817" y="728">
600.0
</text>
<path stroke="white" stroke-dasharray="1,2" d="M974 704l0 -637"/>
<text stroke="none" fill="white" font-size="16" x="949" y="728">
700.0
</text>
<text stroke="none" fill="white" font-size="16" x="614" y="752">
ns
</text>
<path stroke="white" stroke-dasharray="1,2" d="M50 704l924 0"/>
<text stroke="none" fill="white" font-size="16" x="8" y="712">
-3.0
</text>
<path stroke="white" stroke-dasharray="1,2" d="M50 613l924 0"/>
<text stroke="none" fill="white" font-size="16" x="8" y="621">
-2.0
</text>
<path stroke="white" stroke-dasharray="1,2" d="M50 522l924 0"/>
<text stroke="none" fill="white" font-size="16" x="8" y="530">
-1.0
</text>
<path stroke="white" d="M50 431l924 0"/>
<text stroke="none" fill="white" font-size="16" x="18" y="439">
0.0
</text>
<path stroke="white" stroke-dasharray="1,2" d="M50 340l924 0"/>
<text stroke="none" fill="white" font-size="16" x="18" y="348">
1.0
</text>
<path stroke="white" stroke-dasharray="1,2" d="M50 249l924 0"/>
<text stroke="none" fill="white" font-size="16" x="18" y="257">
2.0
</text>
<path stroke="white" stroke-dasharray="1,2" d="M50 158l924 0"/>
<text stroke="none" fill="white" font-size="16" x="18" y="166">
3.0
</text>
<path stroke="white" stroke-dasharray="1,2" d="M50 67l924 0"/>
<text stroke="none" fill="white" font-size="16" x="18" y="75">
4.0
</text>
<text stroke="none" fill="white" font-size="16" x="10" y="32">
     
</text>
<path stroke="red" d="M462 23l46 0"/>
<text stroke="none" fill="white" font-size="16" x="518" y="32">
x1.vsampled_p
</text>
<path stroke="red" d="M50 431l1 0 1 -7 0 -15 1 -14 0 -5 1 2M54 415l0 -40 1 -4 0 -14 1 -2 0 -3 2 -2 1 0 1 -1 3 0 1 1 4 0 1 -1 48 0M117 360l0 -11M117 360l1 13M118 386l0 -13M118 386l1 3M119 394l0 -5M119 394l1 1M120 396l0 -1M120 396l1 1 425 0M546 398l0 -24"/>
<path stroke="red" d="M546 374l1 -4 0 -22 1 -4 0 -5 1 -1 0 -1 1 -1 4 0 0 -1M554 336l13 0M567 337l0 -1 13 0 0 -1M580 336l13 0M593 337l0 -1 7 0M600 354l0 -18M600 354l1 3M601 363l0 -6M601 361l1 -2 0 -2 1 0 0 -1 16 0M619 357l0 -1M619 357l1 0 0 -1"/>
<path stroke="red" d="M620 356l5 0 0 -12 1 -2 0 -5 1 0M627 338l0 -1M627 338l2 0M629 339l0 -1M629 339l4 0 0 -1 13 0M646 339l0 -1M646 339l7 0M653 348l0 -9M653 348l1 2M654 351l0 -1 1 0 0 -1 4 0 0 -1M659 349l27 0 0 -1M686 349l26 0 0 -1M712 349l26 0"/>
<path stroke="red" d="M738 349l0 -1M738 349l27 0 0 -1M765 349l21 0M786 350l0 -1 18 0M804 350l0 -1 26 0 1 1 0 -1 87 0M918 385l0 -36M918 385l1 1M919 399l0 -13M919 399l1 0 1 -1 1 0 0 -1 52 0"/>
<path stroke="blue" d="M50 23l46 0"/>
<text stroke="none" fill="white" font-size="16" x="106" y="32">
x1.vsampled_n
</text>
<path stroke="blue" d="M50 431l1 0 1 -7 0 -15 1 -15 0 -4 1 1M54 414l0 -39 1 -4 0 -14 1 -2 0 -3 2 -2 1 0 1 -1 3 0 1 1 4 0 1 -1 48 0 0 -1 1 -10 0 -21 1 -4 0 -7 1 -2 0 -2 1 0 1 -1 418 0M540 302l0 -1 26 0 1 1M567 303l0 -2 7 0M574 324l0 -23M574 324l1 8"/>
<path stroke="blue" d="M575 339l0 -7M575 339l1 2M576 342l0 -1M576 342l17 0M593 343l0 -1 26 0M619 343l0 -1 27 0M646 343l0 -1 26 0M672 343l0 -1 7 0M679 347l0 -5M679 347l1 1M680 349l0 -2 19 0M699 348l0 -1 7 0M706 351l0 -4M706 351l1 -1 25 0 0 -3"/>
<path stroke="blue" d="M732 347l1 1 5 0 0 -1 1 1 20 0M759 350l0 -2M759 349l53 0 1 1 0 -1 18 0M831 350l0 -1 26 0M857 350l0 -1 26 0M883 350l0 -1 27 0M910 350l0 -1 8 0 0 -24 1 -1 0 -11 1 -4 0 -3 1 -2 0 -1 1 0 0 -1 1 0 0 -1 13 0M936 303l0 -2 38 0"/>
<path stroke="#FFA500" d="M462 39l46 0"/>
<text stroke="none" fill="white" font-size="16" x="518" y="48">
x1.vsampled_p-x1.vsampled_n
</text>
<path stroke="#FFA500" d="M50 431l2 0 1 1 1 0 0 -1 63 0M117 443l0 -12M117 443l1 22M118 500l0 -35M118 500l1 8M119 519l0 -11M119 519l1 3M120 525l0 -3M120 525l2 2 418 0 0 -1M540 527l6 0 0 -24 1 -4 0 -21 1 -4 0 -6 1 0 0 -2 5 0 0 -1M554 466l12 0 1 -1"/>
<path stroke="#FFA500" d="M567 466l0 -1M567 466l7 0 0 -23 1 -8 0 -7 1 -2 0 -1 24 0M600 442l0 -17M600 442l1 3M601 451l0 -6M601 449l1 -2 0 -1 1 -1 22 0 0 -13 1 -1 0 -5 1 0M627 427l0 -1M627 427l19 0M646 428l0 -1 7 0M653 437l0 -10M653 437l1 2M654 440l0 -1"/>
<path stroke="#FFA500" d="M654 439l1 -1 1 0 0 -1 3 0M659 438l0 -1M659 438l13 0 0 -1 1 0M673 438l0 -1 6 0M679 438l0 -5 1 -1 0 -1M680 432l19 0M699 433l0 -1 7 0 0 -3 1 0M707 430l0 -1M707 430l25 0M732 433l0 -3M732 432l27 0 0 -2M759 431l27 0M786 432l0 -1"/>
<path stroke="#FFA500" d="M786 432l1 0 0 -1 17 0M804 432l0 -1 34 0 0 -1M838 431l80 0M918 490l0 -59M918 490l1 3M919 517l0 -24M919 517l1 4M920 524l0 -3M920 524l1 1M921 526l0 -1M921 526l1 0M922 527l0 -1M922 527l14 0 0 -1M936 527l38 0"/>
<path stroke="green" d="M50 39l46 0"/>
<text stroke="none" fill="white" font-size="16" x="106" y="48">
x1.sw_sample-2
</text>
<path stroke="green" d="M50 613l1 0 1 -9 0 -21 1 -21M53 580l0 -24M53 580l1 30M54 613l0 -3M54 613l63 0M117 620l0 -172M117 449l422 0M539 614l0 -171M539 613l422 0M961 618l0 -170 1 1 12 0"/>
<path stroke="#FFC0C5" d="M462 55l46 0"/>
<text stroke="none" fill="white" font-size="16" x="518" y="64">
x1.comp_out_p+2
</text>
<path stroke="#FFC0C5" d="M50 249l1 0 1 -9 0 -22 1 -18 0 -4M53 198l1 5M54 250l0 -47M54 248l1 1 539 0M594 250l0 -167M594 85l14 0M608 250l0 -172M608 249l39 0M647 252l0 -168M647 85l14 0M661 250l0 -170M661 249l66 0 0 -149 1 -15 0 -1M728 85l12 0M740 249l0 -172"/>
<path stroke="#FFC0C5" d="M740 249l40 0 0 -165 1 0M781 85l0 -1M781 85l12 0M793 250l0 -174M793 249l67 0 0 -164 12 0M872 249l0 -174M872 249l14 0 0 -154 1 -10 11 0M898 249l0 -174M898 249l15 0 0 -164 12 0M925 250l0 -174M925 249l49 0"/>
<path stroke="#A52A2A" d="M50 55l46 0"/>
<text stroke="none" fill="white" font-size="16" x="106" y="64">
x1.comp_out_n-2
</text>
<path stroke="#A52A2A" d="M50 613l1 0 1 -9 0 -22 1 -19M53 564l0 -3M53 564l1 6M54 613l0 -43M54 613l487 0 1 2 0 -168M542 449l13 0M555 614l0 -167M555 613l13 0 0 -165M568 449l13 0 0 -9 1 162M582 613l0 -11M582 613l39 0M621 615l0 -168M621 449l13 0"/>
<path stroke="#A52A2A" d="M634 613l0 -172M634 613l39 0 0 -66 1 -88 0 -11M674 449l13 0M687 613l0 -171M687 613l13 0 0 -165M700 449l13 0 0 -9 1 162M714 613l0 -11M714 613l39 0 0 -165M753 449l13 0M766 613l0 -174M766 613l41 0 0 -165M807 449l12 0M819 613l0 -166"/>
<path stroke="#A52A2A" d="M819 613l15 0 0 -164 11 0 0 -10 1 152M846 613l0 -22M846 613l91 0M937 619l0 -6M937 619l1 -144 0 -28M938 449l13 0M951 614l0 -168M951 613l23 0"/>
</svg>
