<?xml version="1.0" standalone="yes"?>
<!DOCTYPE svg PUBLIC "-//W3C//DTD SVG 1.1//EN"
 "http://www.w3.org/Graphics/SVG/1.1/DTD/svg11.dtd">
<svg xmlns="http://www.w3.org/2000/svg" version="1.1"
  width="100%" height="100%" viewBox="0 0 1024 768"
  style="fill: none; font-family: Helvetica;
 font: Helvetica;
">

<!-- Creator: NGspice -->

<rect x="0" y="0" width="1024" height="768" fill="black" stroke="none"/>
<text stroke="none" fill="white" font-size="16" x="358" y="752">
time
</text>
<text stroke="none" fill="white" font-size="16" x="10" y="16">
tran1: run420_vin-0.53042
</text>
<path stroke="white" d="M50 704l0 -637"/>
<text stroke="none" fill="white" font-size="16" x="35" y="728">
0.0
</text>
<path stroke="white" stroke-dasharray="1,2" d="M182 704l0 -637"/>
<text stroke="none" fill="white" font-size="16" x="157" y="728">
100.0
</text>
<path stroke="white" stroke-dasharray="1,2" d="M314 704l0 -637"/>
<text stroke="none" fill="white" font-size="16" x="289" y="728">
200.0
</text>
<path stroke="white" stroke-dasharray="1,2" d="M446 704l0 -637"/>
<text stroke="none" fill="white" font-size="16" x="421" y="728">
300.0
</text>
<path stroke="white" stroke-dasharray="1,2" d="M578 704l0 -637"/>
<text stroke="none" fill="white" font-size="16" x="553" y="728">
400.0
</text>
<path stroke="white" stroke-dasharray="1,2" d="M710 704l0 -637"/>
<text stroke="none" fill="white" font-size="16" x="685" y="728">
500.0
</text>
<path stroke="white" stroke-dasharray="1,2" d="M842 704l0 -637"/>
<text stroke="none" fill="white" font-size="16" x="817" y="728">
600.0
</text>
<path stroke="white" stroke-dasharray="1,2" d="M974 704l0 -637"/>
<text stroke="none" fill="white" font-size="16" x="949" y="728">
700.0
</text>
<text stroke="none" fill="white" font-size="16" x="614" y="752">
ns
</text>
<path stroke="white" stroke-dasharray="1,2" d="M50 704l924 0"/>
<text stroke="none" fill="white" font-size="16" x="8" y="712">
-2.5
</text>
<path stroke="white" stroke-dasharray="1,2" d="M50 655l924 0"/>
<text stroke="none" fill="white" font-size="16" x="8" y="663">
-2.0
</text>
<path stroke="white" stroke-dasharray="1,2" d="M50 606l924 0"/>
<text stroke="none" fill="white" font-size="16" x="8" y="614">
-1.5
</text>
<path stroke="white" stroke-dasharray="1,2" d="M50 557l924 0"/>
<text stroke="none" fill="white" font-size="16" x="8" y="565">
-1.0
</text>
<path stroke="white" stroke-dasharray="1,2" d="M50 508l924 0"/>
<text stroke="none" fill="white" font-size="16" x="8" y="516">
-0.5
</text>
<path stroke="white" d="M50 459l924 0"/>
<text stroke="none" fill="white" font-size="16" x="18" y="467">
0.0
</text>
<path stroke="white" stroke-dasharray="1,2" d="M50 410l924 0"/>
<text stroke="none" fill="white" font-size="16" x="18" y="418">
0.5
</text>
<path stroke="white" stroke-dasharray="1,2" d="M50 361l924 0"/>
<text stroke="none" fill="white" font-size="16" x="18" y="369">
1.0
</text>
<path stroke="white" stroke-dasharray="1,2" d="M50 312l924 0"/>
<text stroke="none" fill="white" font-size="16" x="18" y="320">
1.5
</text>
<path stroke="white" stroke-dasharray="1,2" d="M50 263l924 0"/>
<text stroke="none" fill="white" font-size="16" x="18" y="271">
2.0
</text>
<path stroke="white" stroke-dasharray="1,2" d="M50 214l924 0"/>
<text stroke="none" fill="white" font-size="16" x="18" y="222">
2.5
</text>
<path stroke="white" stroke-dasharray="1,2" d="M50 165l924 0"/>
<text stroke="none" fill="white" font-size="16" x="18" y="173">
3.0
</text>
<path stroke="white" stroke-dasharray="1,2" d="M50 116l924 0"/>
<text stroke="none" fill="white" font-size="16" x="18" y="124">
3.5
</text>
<path stroke="white" stroke-dasharray="1,2" d="M50 67l924 0"/>
<text stroke="none" fill="white" font-size="16" x="18" y="75">
4.0
</text>
<text stroke="none" fill="white" font-size="16" x="10" y="32">
     
</text>
<path stroke="red" d="M462 23l46 0"/>
<text stroke="none" fill="white" font-size="16" x="518" y="32">
x1.vsampled_p
</text>
<path stroke="red" d="M50 459l1 0 1 -7 0 -17 1 -15 0 -5 1 2M54 441l0 -42 1 -5 0 -15 1 -2 0 -3 1 -2 1 0 0 -1 59 0M117 382l0 -11M117 382l1 14M118 411l0 -15M118 411l1 3M119 419l0 -5M119 419l1 2M120 422l0 -1M120 422l1 0 1 1 424 0 0 -28 1 -3 0 -25"/>
<path stroke="red" d="M547 367l1 -3 0 -5 1 0 0 -1 1 0 0 -1 4 0 0 -1M554 357l13 0M567 358l0 -1 13 0 0 -1M580 357l13 0M593 358l0 -1 7 0M600 379l0 -22M600 379l1 2M601 386l0 -5M601 384l1 -3 0 -2 23 0 0 -8 1 -4 0 -8 2 0 1 1 4 0 0 -1M633 360l20 0M653 370l0 -10"/>
<path stroke="red" d="M653 370l1 2M654 373l0 -1 1 -1 4 0 0 -1M659 371l27 0 0 -1M686 371l26 0 0 -1M712 371l26 0 0 -1 1 1 26 0 0 -1M765 371l26 0 0 -1M791 371l21 0M812 372l0 -1 106 0M918 412l0 -42M918 412l1 2M919 424l0 -10M919 424l1 1 0 -1 1 0 0 -1"/>
<path stroke="red" d="M921 423l53 0"/>
<path stroke="blue" d="M50 23l46 0"/>
<text stroke="none" fill="white" font-size="16" x="106" y="32">
x1.vsampled_n
</text>
<path stroke="blue" d="M50 459l1 0 1 -7 0 -17 1 -16 0 -5 1 2M54 441l0 -42 1 -5 0 -15 1 -2 0 -3 1 -2 1 0 0 -1 59 0 0 -1 1 -11 0 -23 1 -5 0 -7 1 -2 0 -2 1 0 1 -1 418 0M540 320l0 -1 27 0M567 320l0 -1 7 0M574 343l0 -24M574 343l1 9M575 362l0 -10M575 362l1 1"/>
<path stroke="blue" d="M576 363l17 0M593 364l0 -1 26 0M619 364l0 -1 27 0M646 364l0 -1 26 0M672 364l0 -1 7 0M679 369l0 -6M679 369l1 1 0 -1 6 0 0 -1M686 369l20 0M706 372l0 -3M706 372l1 0 0 -1 18 0M725 372l0 -1 7 0 0 -3 1 0M733 369l0 -1M733 369l26 0"/>
<path stroke="blue" d="M759 371l0 -2M759 370l19 0M778 371l0 -1 8 0M786 372l0 -2M786 371l54 0 0 -1M840 371l4 0 0 -1M844 371l26 0 0 -1M870 371l27 0 0 -1M897 371l21 0M918 372l0 -30 1 -2 0 -8 1 -3 0 -6 1 -2 0 -1 2 0 0 -1 13 0M936 321l0 -2 38 0"/>
<path stroke="#FFA500" d="M462 39l46 0"/>
<text stroke="none" fill="white" font-size="16" x="518" y="48">
x1.vsampled_p-x1.vsampled_n
</text>
<path stroke="#FFA500" d="M50 459l2 0 1 1 1 0 0 -1 63 0M117 472l0 -13M117 472l1 24M118 534l0 -38M118 534l1 8M119 554l0 -12M119 554l1 3M120 560l0 -3M120 560l1 2 1 0M122 563l0 -1M122 563l418 0 0 -1M540 563l6 0 0 -28 1 -3 0 -26 1 -2 0 -5 1 0 0 -1"/>
<path stroke="#FFA500" d="M549 498l1 -1 4 0 0 -1M554 497l13 0 0 -1M567 497l7 0 0 -24 1 -9 0 -10 1 -1 24 0M600 475l0 -22M600 475l1 2M601 481l0 -4M601 479l1 -2 0 -2 23 0 0 -8 1 -4 0 -9 1 0M627 455l0 -1M627 455l2 0M629 456l0 -1M629 456l4 0 0 -1"/>
<path stroke="#FFA500" d="M633 456l20 0M653 466l0 -11M653 466l1 2M654 469l0 -1 1 -1 1 0 1 -1M657 467l0 -1M657 467l2 0 0 -1M659 467l13 0 0 -1 1 0M673 467l0 -1M673 467l6 0 0 -6 1 -1M680 461l0 -1M680 461l26 0 0 -3 26 0M732 461l0 -3M732 461l27 0"/>
<path stroke="#FFA500" d="M759 461l0 -3M759 459l27 0 0 -1M786 459l26 0M812 460l0 -1 28 0M840 460l0 -1 78 0M918 529l0 -71M918 529l1 4M919 551l0 -18M919 551l1 4M920 560l0 -5M920 560l1 1M921 562l0 -1M921 562l1 0 1 1 13 0 0 -1M936 563l38 0"/>
<path stroke="green" d="M50 39l46 0"/>
<text stroke="none" fill="white" font-size="16" x="106" y="48">
x1.sw_sample-2
</text>
<path stroke="green" d="M50 655l1 0 1 -10 0 -23 1 -21M53 619l0 -25M53 619l1 33M54 655l0 -3M54 655l63 0M117 662l0 -184 1 0M118 479l0 -1M118 479l421 0M539 656l0 -184M539 655l422 0M961 660l0 -182 1 0M962 479l0 -1M962 479l12 0"/>
<path stroke="#FFC0C5" d="M462 55l46 0"/>
<text stroke="none" fill="white" font-size="16" x="518" y="64">
x1.comp_out_p+2
</text>
<path stroke="#FFC0C5" d="M50 263l1 0 1 -10 0 -23 1 -20 0 -4M53 209l1 4M54 264l0 -51M54 262l1 1 539 0M594 268l0 -183M594 86l1 1 13 0M608 264l0 -186M608 263l39 0M647 265l0 -180M647 87l14 0M661 264l0 -181M661 263l67 0 0 -177M728 87l12 0M740 263l0 -184"/>
<path stroke="#FFC0C5" d="M740 263l67 0 0 -178M807 87l12 0M819 263l0 -184M819 263l16 0 0 -177 1 0M836 87l0 -1M836 87l9 0M845 92l0 -9M845 92l1 157M846 263l0 -14M846 263l128 0"/>
<path stroke="#A52A2A" d="M50 55l46 0"/>
<text stroke="none" fill="white" font-size="16" x="106" y="64">
x1.comp_out_n-2
</text>
<path stroke="#A52A2A" d="M50 655l1 0 1 -10 0 -24 1 -20M53 602l0 -3M53 602l1 7M54 655l0 -46M54 655l488 0 0 -178M542 479l13 0M555 656l0 -180M555 655l13 0M568 657l0 -181M568 479l13 0M581 628l0 -160M581 628l1 26M582 655l0 -1M582 655l39 0M621 657l0 -181"/>
<path stroke="#A52A2A" d="M621 479l13 0M634 656l0 -181M634 656l1 -1 38 0M673 657l0 -2M673 657l1 -128 0 -53M674 479l13 0M687 655l0 -184M687 655l13 0 0 -178M700 478l1 1 12 0 0 -3M713 478l1 165M714 655l0 -12M714 655l39 0 0 -178M753 479l13 0M766 655l0 -179"/>
<path stroke="#A52A2A" d="M766 655l14 0 0 -177 1 1 12 0M793 655l0 -188M793 655l67 0 0 -178M860 479l12 0M872 656l0 -187M872 655l14 0 0 -177 1 0M887 479l0 -1M887 479l11 0M898 655l0 -187M898 655l15 0 0 -177M913 479l12 0M925 655l0 -186M925 655l12 0"/>
<path stroke="#A52A2A" d="M937 655l1 -20 0 -158M938 479l13 0M951 656l0 -181M951 655l23 0"/>
</svg>
