<?xml version="1.0" standalone="yes"?>
<!DOCTYPE svg PUBLIC "-//W3C//DTD SVG 1.1//EN"
 "http://www.w3.org/Graphics/SVG/1.1/DTD/svg11.dtd">
<svg xmlns="http://www.w3.org/2000/svg" version="1.1"
  width="100%" height="100%" viewBox="0 0 1024 768"
  style="fill: none; font-family: Helvetica;
 font: Helvetica;
">

<!-- Creator: NGspice -->

<rect x="0" y="0" width="1024" height="768" fill="black" stroke="none"/>
<text stroke="none" fill="white" font-size="16" x="358" y="752">
time
</text>
<text stroke="none" fill="white" font-size="16" x="10" y="16">
tran1: run422_vin-0.528663
</text>
<path stroke="white" d="M50 704l0 -637"/>
<text stroke="none" fill="white" font-size="16" x="35" y="728">
0.0
</text>
<path stroke="white" stroke-dasharray="1,2" d="M182 704l0 -637"/>
<text stroke="none" fill="white" font-size="16" x="157" y="728">
100.0
</text>
<path stroke="white" stroke-dasharray="1,2" d="M314 704l0 -637"/>
<text stroke="none" fill="white" font-size="16" x="289" y="728">
200.0
</text>
<path stroke="white" stroke-dasharray="1,2" d="M446 704l0 -637"/>
<text stroke="none" fill="white" font-size="16" x="421" y="728">
300.0
</text>
<path stroke="white" stroke-dasharray="1,2" d="M578 704l0 -637"/>
<text stroke="none" fill="white" font-size="16" x="553" y="728">
400.0
</text>
<path stroke="white" stroke-dasharray="1,2" d="M710 704l0 -637"/>
<text stroke="none" fill="white" font-size="16" x="685" y="728">
500.0
</text>
<path stroke="white" stroke-dasharray="1,2" d="M842 704l0 -637"/>
<text stroke="none" fill="white" font-size="16" x="817" y="728">
600.0
</text>
<path stroke="white" stroke-dasharray="1,2" d="M974 704l0 -637"/>
<text stroke="none" fill="white" font-size="16" x="949" y="728">
700.0
</text>
<text stroke="none" fill="white" font-size="16" x="614" y="752">
ns
</text>
<path stroke="white" stroke-dasharray="1,2" d="M50 704l924 0"/>
<text stroke="none" fill="white" font-size="16" x="8" y="712">
-2.5
</text>
<path stroke="white" stroke-dasharray="1,2" d="M50 655l924 0"/>
<text stroke="none" fill="white" font-size="16" x="8" y="663">
-2.0
</text>
<path stroke="white" stroke-dasharray="1,2" d="M50 606l924 0"/>
<text stroke="none" fill="white" font-size="16" x="8" y="614">
-1.5
</text>
<path stroke="white" stroke-dasharray="1,2" d="M50 557l924 0"/>
<text stroke="none" fill="white" font-size="16" x="8" y="565">
-1.0
</text>
<path stroke="white" stroke-dasharray="1,2" d="M50 508l924 0"/>
<text stroke="none" fill="white" font-size="16" x="8" y="516">
-0.5
</text>
<path stroke="white" d="M50 459l924 0"/>
<text stroke="none" fill="white" font-size="16" x="18" y="467">
0.0
</text>
<path stroke="white" stroke-dasharray="1,2" d="M50 410l924 0"/>
<text stroke="none" fill="white" font-size="16" x="18" y="418">
0.5
</text>
<path stroke="white" stroke-dasharray="1,2" d="M50 361l924 0"/>
<text stroke="none" fill="white" font-size="16" x="18" y="369">
1.0
</text>
<path stroke="white" stroke-dasharray="1,2" d="M50 312l924 0"/>
<text stroke="none" fill="white" font-size="16" x="18" y="320">
1.5
</text>
<path stroke="white" stroke-dasharray="1,2" d="M50 263l924 0"/>
<text stroke="none" fill="white" font-size="16" x="18" y="271">
2.0
</text>
<path stroke="white" stroke-dasharray="1,2" d="M50 214l924 0"/>
<text stroke="none" fill="white" font-size="16" x="18" y="222">
2.5
</text>
<path stroke="white" stroke-dasharray="1,2" d="M50 165l924 0"/>
<text stroke="none" fill="white" font-size="16" x="18" y="173">
3.0
</text>
<path stroke="white" stroke-dasharray="1,2" d="M50 116l924 0"/>
<text stroke="none" fill="white" font-size="16" x="18" y="124">
3.5
</text>
<path stroke="white" stroke-dasharray="1,2" d="M50 67l924 0"/>
<text stroke="none" fill="white" font-size="16" x="18" y="75">
4.0
</text>
<text stroke="none" fill="white" font-size="16" x="10" y="32">
     
</text>
<path stroke="red" d="M462 23l46 0"/>
<text stroke="none" fill="white" font-size="16" x="518" y="32">
x1.vsampled_p
</text>
<path stroke="red" d="M50 459l1 0 1 -7 0 -17 1 -15 0 -5 1 2M54 441l0 -42 1 -5 0 -15 1 -2 0 -3 1 -2 1 0 0 -1 59 0M117 382l0 -11M117 382l1 14M118 411l0 -15M118 411l1 3M119 419l0 -5M119 419l1 1M120 422l0 -2M120 422l2 0 1 1 423 0 0 -31 1 -5 0 -20"/>
<path stroke="red" d="M547 367l1 -3 0 -5 1 0 0 -2 5 0 0 -1M554 357l13 0M567 358l0 -1 13 0 0 -1M580 357l20 0M600 379l0 -22M600 379l1 3M601 385l0 -3M601 383l1 -2 0 -1 1 -1 22 0 0 -12 1 -1 0 -8 1 0M627 359l0 -1M627 359l1 0 1 1 4 0 0 -1 13 0M646 360l0 -1"/>
<path stroke="red" d="M646 360l7 0M653 370l0 -11M653 370l1 3 0 -1 1 -1 1 0 0 -1 2 0M658 371l0 -1M658 371l1 0 0 -1 13 0M672 371l0 -1 1 0M673 371l0 -1M673 371l13 0 0 -1 12 0 1 1 0 -1M699 371l13 0 0 -1 13 0M725 371l0 -1M725 371l13 0 0 -1 13 0M751 371l0 -1"/>
<path stroke="red" d="M751 371l1 0 0 -1M752 371l13 0 0 -1 13 0M778 371l0 -1M778 371l12 0M790 372l0 -2M790 371l14 0M804 372l0 -1 27 0M831 372l0 -1 7 0 0 -1M838 371l81 0M919 411l0 -40M919 411l1 1M920 424l0 -12M920 424l1 1 0 -1 1 0 0 -1 52 0"/>
<path stroke="blue" d="M50 23l46 0"/>
<text stroke="none" fill="white" font-size="16" x="106" y="32">
x1.vsampled_n
</text>
<path stroke="blue" d="M50 459l1 0 1 -7 0 -17 1 -16 0 -5 1 2M54 441l0 -42 1 -5 0 -15 1 -2 0 -3 1 -2 1 0 0 -1 59 0 0 -1 1 -11 0 -22 1 -6 0 -7 1 -2 0 -1 2 -2 418 0M540 320l0 -1 26 0 1 1M567 321l0 -2 7 0M574 342l0 -23M574 342l1 8M575 362l0 -12M575 362l1 1"/>
<path stroke="blue" d="M576 363l17 0M593 364l0 -1 26 0M619 364l0 -1 27 0M646 364l0 -1 26 0M672 364l0 -1 7 0M679 369l0 -6M679 369l1 1 0 -1 26 0M706 372l0 -3M706 372l6 0 0 -1 13 0M725 372l0 -1M725 372l7 0 0 -4M732 369l27 0M759 371l0 -2M759 371l6 0"/>
<path stroke="blue" d="M765 371l0 -1 13 0M778 371l0 -1M778 371l13 0 0 -1 13 0M804 371l0 -1 1 0M805 371l0 -1M805 371l114 0 0 -28 1 -2 0 -10 1 -3 0 -5 1 0 0 -2 1 0 0 -2 13 0M936 321l0 -2 38 0"/>
<path stroke="#FFA500" d="M462 39l46 0"/>
<text stroke="none" fill="white" font-size="16" x="518" y="48">
x1.vsampled_p-x1.vsampled_n
</text>
<path stroke="#FFA500" d="M50 459l2 0 1 1 1 0 0 -1 63 0M117 472l0 -13M117 472l1 24M118 533l0 -37M118 533l1 9M119 554l0 -12M119 554l1 3M120 560l0 -3M120 560l2 2 1 0 1 1 415 0 0 -1 1 0M540 563l0 -1 6 0M546 563l0 -32 1 -4 0 -21 1 -2 0 -5 1 -1 0 -1"/>
<path stroke="#FFA500" d="M549 497l2 0 0 -1 3 0M554 497l0 -1 13 0M567 497l0 -1 6 0 1 1 0 -23 1 -9 0 -11 1 -1 0 -1 17 0M593 453l0 -1 7 0M600 475l0 -23M600 475l1 2M601 481l0 -4M601 479l1 -2 0 -2 1 0 0 -1 3 0M606 475l0 -1M606 475l1 0 0 -1 12 0M619 475l0 -1"/>
<path stroke="#FFA500" d="M619 475l1 0 0 -1 5 0 0 -11 1 -2 0 -7 1 0 1 1 18 0M646 456l0 -1 7 0M653 466l0 -11M653 466l1 2M654 469l0 -1 1 -1 0 -1 17 0M672 467l0 -1 7 0 0 -6 1 -1M680 461l0 -2M680 461l26 0 0 -4 1 1 25 0M732 461l0 -3M732 461l1 0 0 -1"/>
<path stroke="#FFA500" d="M733 460l18 0M751 461l0 -1M751 461l1 -1 7 0 0 -2M759 459l31 0M790 460l0 -1M790 460l22 0 0 -1 26 0 0 -1M838 459l81 0M919 527l0 -68M919 527l1 3M920 552l0 -22M920 552l1 4M921 560l0 -4M921 560l1 0M922 562l0 -2M922 562l1 0"/>
<path stroke="#FFA500" d="M923 563l0 -1 2 0M925 563l0 -1M925 563l11 0 0 -2M936 562l14 0M950 563l0 -1M950 563l24 0"/>
<path stroke="green" d="M50 39l46 0"/>
<text stroke="none" fill="white" font-size="16" x="106" y="48">
x1.sw_sample-2
</text>
<path stroke="green" d="M50 655l1 0 1 -10 0 -23 1 -21M53 619l0 -25M53 619l1 33M54 655l0 -3M54 655l63 0M117 662l0 -184 1 0M118 479l0 -1M118 479l421 0M539 656l0 -184M539 655l422 0M961 660l0 -182 1 0M962 479l0 -1M962 479l12 0"/>
<path stroke="#FFC0C5" d="M462 55l46 0"/>
<text stroke="none" fill="white" font-size="16" x="518" y="64">
x1.comp_out_p+2
</text>
<path stroke="#FFC0C5" d="M50 263l1 0 1 -10 0 -23 1 -20 0 -4M53 209l1 4M54 264l0 -51M54 262l1 1 539 0M594 269l0 -184M594 86l1 1 13 0M608 263l0 -183M608 263l39 0M647 266l0 -181M647 87l14 0M661 264l0 -185M661 263l66 0 0 -161 1 -16M728 87l0 -1M728 87l12 0"/>
<path stroke="#FFC0C5" d="M740 263l0 -185M740 263l44 0M784 264l0 -178 1 0M785 87l0 -1M785 87l8 0M793 264l0 -184M793 263l67 0 0 -159 1 -18M861 87l0 -1M861 87l11 0M872 263l0 -186M872 263l102 0"/>
<path stroke="#A52A2A" d="M50 55l46 0"/>
<text stroke="none" fill="white" font-size="16" x="106" y="64">
x1.comp_out_n-2
</text>
<path stroke="#A52A2A" d="M50 655l1 0 1 -10 0 -24 1 -20M53 602l0 -3M53 602l1 7M54 655l0 -46M54 655l487 0 1 2 0 -181M542 479l13 0M555 656l0 -179M555 655l13 0M568 657l0 -181M568 479l13 0 0 -10 1 175M582 655l0 -11M582 655l39 0 0 -178M621 479l13 0"/>
<path stroke="#A52A2A" d="M634 656l0 -181M634 656l1 -1 38 0 0 -29 1 -130 0 -19M674 479l13 0M687 655l0 -184M687 655l13 0 0 -178M700 478l1 1 12 0 0 -9 1 165M714 655l0 -20M714 655l39 0 0 -178M753 479l13 0M766 655l0 -187M766 655l41 0 0 -177M807 479l12 0"/>
<path stroke="#A52A2A" d="M819 655l0 -187M819 655l14 0 1 -170 0 -7M834 479l11 0 0 -9 1 166M846 655l0 -19M846 655l41 0 0 -177 1 0M888 479l0 -1M888 479l10 0M898 655l0 -185M898 655l15 0 1 1 0 -178M914 479l11 0M925 655l0 -185M925 655l12 0 1 -25 0 -153"/>
<path stroke="#A52A2A" d="M938 479l13 0M951 656l0 -181M951 655l23 0"/>
</svg>
