<?xml version="1.0" standalone="yes"?>
<!DOCTYPE svg PUBLIC "-//W3C//DTD SVG 1.1//EN"
 "http://www.w3.org/Graphics/SVG/1.1/DTD/svg11.dtd">
<svg xmlns="http://www.w3.org/2000/svg" version="1.1"
  width="100%" height="100%" viewBox="0 0 1024 768"
  style="fill: none; font-family: Helvetica;
 font: Helvetica;
">

<!-- Creator: NGspice -->

<rect x="0" y="0" width="1024" height="768" fill="black" stroke="none"/>
<text stroke="none" fill="white" font-size="16" x="358" y="752">
time
</text>
<text stroke="none" fill="white" font-size="16" x="10" y="16">
tran1: run1813_vin0.693894
</text>
<path stroke="white" d="M50 704l0 -637"/>
<text stroke="none" fill="white" font-size="16" x="35" y="728">
0.0
</text>
<path stroke="white" stroke-dasharray="1,2" d="M182 704l0 -637"/>
<text stroke="none" fill="white" font-size="16" x="157" y="728">
100.0
</text>
<path stroke="white" stroke-dasharray="1,2" d="M314 704l0 -637"/>
<text stroke="none" fill="white" font-size="16" x="289" y="728">
200.0
</text>
<path stroke="white" stroke-dasharray="1,2" d="M446 704l0 -637"/>
<text stroke="none" fill="white" font-size="16" x="421" y="728">
300.0
</text>
<path stroke="white" stroke-dasharray="1,2" d="M578 704l0 -637"/>
<text stroke="none" fill="white" font-size="16" x="553" y="728">
400.0
</text>
<path stroke="white" stroke-dasharray="1,2" d="M710 704l0 -637"/>
<text stroke="none" fill="white" font-size="16" x="685" y="728">
500.0
</text>
<path stroke="white" stroke-dasharray="1,2" d="M842 704l0 -637"/>
<text stroke="none" fill="white" font-size="16" x="817" y="728">
600.0
</text>
<path stroke="white" stroke-dasharray="1,2" d="M974 704l0 -637"/>
<text stroke="none" fill="white" font-size="16" x="949" y="728">
700.0
</text>
<text stroke="none" fill="white" font-size="16" x="614" y="752">
ns
</text>
<path stroke="white" stroke-dasharray="1,2" d="M50 704l924 0"/>
<text stroke="none" fill="white" font-size="16" x="8" y="712">
-2.5
</text>
<path stroke="white" stroke-dasharray="1,2" d="M50 655l924 0"/>
<text stroke="none" fill="white" font-size="16" x="8" y="663">
-2.0
</text>
<path stroke="white" stroke-dasharray="1,2" d="M50 606l924 0"/>
<text stroke="none" fill="white" font-size="16" x="8" y="614">
-1.5
</text>
<path stroke="white" stroke-dasharray="1,2" d="M50 557l924 0"/>
<text stroke="none" fill="white" font-size="16" x="8" y="565">
-1.0
</text>
<path stroke="white" stroke-dasharray="1,2" d="M50 508l924 0"/>
<text stroke="none" fill="white" font-size="16" x="8" y="516">
-0.5
</text>
<path stroke="white" d="M50 459l924 0"/>
<text stroke="none" fill="white" font-size="16" x="18" y="467">
0.0
</text>
<path stroke="white" stroke-dasharray="1,2" d="M50 410l924 0"/>
<text stroke="none" fill="white" font-size="16" x="18" y="418">
0.5
</text>
<path stroke="white" stroke-dasharray="1,2" d="M50 361l924 0"/>
<text stroke="none" fill="white" font-size="16" x="18" y="369">
1.0
</text>
<path stroke="white" stroke-dasharray="1,2" d="M50 312l924 0"/>
<text stroke="none" fill="white" font-size="16" x="18" y="320">
1.5
</text>
<path stroke="white" stroke-dasharray="1,2" d="M50 263l924 0"/>
<text stroke="none" fill="white" font-size="16" x="18" y="271">
2.0
</text>
<path stroke="white" stroke-dasharray="1,2" d="M50 214l924 0"/>
<text stroke="none" fill="white" font-size="16" x="18" y="222">
2.5
</text>
<path stroke="white" stroke-dasharray="1,2" d="M50 165l924 0"/>
<text stroke="none" fill="white" font-size="16" x="18" y="173">
3.0
</text>
<path stroke="white" stroke-dasharray="1,2" d="M50 116l924 0"/>
<text stroke="none" fill="white" font-size="16" x="18" y="124">
3.5
</text>
<path stroke="white" stroke-dasharray="1,2" d="M50 67l924 0"/>
<text stroke="none" fill="white" font-size="16" x="18" y="75">
4.0
</text>
<text stroke="none" fill="white" font-size="16" x="10" y="32">
     
</text>
<path stroke="red" d="M462 23l46 0"/>
<text stroke="none" fill="white" font-size="16" x="518" y="32">
x1.vsampled_p
</text>
<path stroke="red" d="M50 459l1 0 1 -7 0 -17 1 -16 0 -5 1 2M54 441l0 -41 1 -5 0 -14 1 -4 0 -2 1 -2 0 -1 1 -1 59 0 0 -2 1 -11 0 -35 1 -5 0 -9 1 -3 1 -2 1 -1 418 0M540 304l0 -1 14 0 0 -1M554 303l13 0M567 305l0 -2 7 0M574 326l0 -23M574 326l1 7M575 343l0 -10"/>
<path stroke="red" d="M575 343l1 4 17 0M593 348l0 -1 7 0M600 362l0 -15M600 362l1 3M601 370l0 -5M601 370l1 -1 104 0M706 372l0 -3M706 372l26 0 0 -3 19 0M751 370l0 -1M751 370l1 0 0 -1 7 0M759 372l0 -3M759 371l160 0 0 -40 1 -3 0 -16 1 -2 0 -4 1 0"/>
<path stroke="red" d="M922 306l0 -2 1 0 0 -1 13 0M936 305l0 -2 14 0 0 -1M950 303l24 0"/>
<path stroke="blue" d="M50 23l46 0"/>
<text stroke="none" fill="white" font-size="16" x="106" y="32">
x1.vsampled_n
</text>
<path stroke="blue" d="M50 459l1 0 1 -7 0 -17 1 -15 0 -5 1 2M54 441l0 -41 1 -5 0 -14 1 -4 0 -2 1 -2 0 -1 1 -1 59 0M117 389l0 -18M117 389l1 17M118 427l0 -21M118 427l1 3M119 435l0 -5M119 435l1 2 2 2 424 0 0 -24 1 -2 0 -26 1 -8 0 -3 1 -2 1 -1 76 0"/>
<path stroke="blue" d="M626 373l0 -20 1 -1M627 353l0 -1M627 353l1 0 1 1 4 0 0 -1M633 354l13 0M646 355l0 -1 7 0M653 366l0 -12M653 366l1 1M654 368l0 -2 1 -1 4 0 0 -1M659 365l20 0M679 372l0 -7M679 372l1 1M680 374l0 -4 19 0M699 371l0 -1 26 0M725 371l0 -1"/>
<path stroke="blue" d="M725 370l26 0M751 371l0 -1M751 371l1 0 0 -1 26 0M778 371l0 -1 8 0M786 372l0 -2M786 371l28 0M814 372l0 -1 17 0M831 372l0 -1 7 0 0 -1M838 371l81 0M919 439l0 -68M919 439l1 2M920 444l0 -3M920 443l1 -1 0 -2 1 0 0 -1 52 0"/>
<path stroke="#FFA500" d="M462 39l46 0"/>
<text stroke="none" fill="white" font-size="16" x="518" y="48">
x1.vsampled_p-x1.vsampled_n
</text>
<path stroke="#FFA500" d="M50 459l2 0 0 -1 2 0M54 459l0 -1M54 459l63 0 0 -20 1 -28 0 -57 1 -8 0 -14 1 -4 1 -2 0 -2 1 0 1 -1 417 0M540 324l0 -1 6 0M546 347l0 -24M546 347l1 2M547 376l0 -27M547 376l1 7M548 387l0 -4M548 387l2 2 17 0M567 390l0 -1"/>
<path stroke="#FFA500" d="M567 389l7 0M574 412l0 -23M574 412l1 7M575 430l0 -11M575 430l1 3 17 0M593 434l0 -1 7 0M600 448l0 -15M600 448l1 3M601 456l0 -5M601 456l1 0 0 -1 24 0M626 475l0 -20M626 475l1 1 0 -1 2 0 1 -1 3 0M633 475l0 -1 13 0M646 475l0 -1"/>
<path stroke="#FFA500" d="M646 474l7 0M653 475l0 -13 1 -1M654 462l0 -2M654 462l1 1 4 0M659 464l0 -1 13 0M672 464l0 -1 7 0M679 464l0 -8 1 -1M680 458l0 -4M680 458l26 0M706 461l0 -3M706 461l19 0 0 -1M725 461l7 0 0 -3 27 0M759 460l0 -2M759 460l19 0"/>
<path stroke="#FFA500" d="M778 460l0 -1M778 460l8 0 0 -2M786 459l28 0 0 -1M814 459l17 0 0 -1M831 459l7 0M838 460l0 -1 81 0 0 -108 1 -6 0 -17 1 -2 0 -2 2 0 0 -1 13 0M936 325l0 -2 38 0"/>
<path stroke="green" d="M50 39l46 0"/>
<text stroke="none" fill="white" font-size="16" x="106" y="48">
x1.sw_sample-2
</text>
<path stroke="green" d="M50 655l1 0 1 -10 0 -23 1 -21M53 619l0 -25M53 619l1 33M54 655l0 -3M54 655l63 0M117 662l0 -184 1 0M118 479l0 -1M118 479l421 0M539 656l0 -184M539 655l422 0M961 660l0 -182 1 0M962 479l0 -1M962 479l12 0"/>
<path stroke="#FFC0C5" d="M462 55l46 0"/>
<text stroke="none" fill="white" font-size="16" x="518" y="64">
x1.comp_out_p+2
</text>
<path stroke="#FFC0C5" d="M50 263l1 0 1 -10 0 -23 1 -20 0 -4M53 208l1 5M54 263l0 -50M54 262l1 1 487 0M542 270l0 -185M542 87l13 0M555 263l0 -184M555 263l13 0M568 264l0 -179M568 87l13 0 0 -8 1 139M582 264l0 -46M582 263l12 0 0 -178 1 1M595 87l0 -1"/>
<path stroke="#FFC0C5" d="M595 87l13 0M608 264l0 -185M608 263l13 0 0 -178M621 87l13 0M634 263l0 -185M634 263l66 0 0 -177 1 -1M701 87l0 -2M701 87l12 0 0 -10 1 174M714 264l0 -13M714 263l39 0M753 264l0 -178 1 -1M754 87l0 -2M754 87l12 0M766 263l0 -185"/>
<path stroke="#FFC0C5" d="M766 263l67 0 1 -161 0 -16M834 87l11 0 0 -9 1 159M846 263l0 -26M846 263l15 0 0 -169 1 -8M862 87l0 -1M862 87l10 0M872 263l0 -185M872 263l16 0 0 -177M888 87l10 0M898 263l0 -185M898 263l16 0 0 -177 1 1 10 0M925 263l0 -186"/>
<path stroke="#FFC0C5" d="M925 263l12 0 1 -53 0 -125M938 87l13 0M951 263l0 -185M951 263l23 0"/>
<path stroke="#A52A2A" d="M50 55l46 0"/>
<text stroke="none" fill="white" font-size="16" x="106" y="64">
x1.comp_out_n-2
</text>
<path stroke="#A52A2A" d="M50 655l1 0 1 -10 0 -24 1 -20M53 602l0 -3M53 602l1 7M54 656l0 -48M54 646l1 8M55 655l0 -1M55 655l592 0 0 -178M647 479l14 0M661 656l0 -186M661 655l12 0M673 656l0 -1M673 656l1 -52 0 -127M674 479l13 0M687 655l0 -186M687 655l40 0"/>
<path stroke="#A52A2A" d="M727 657l0 -179M727 479l13 0M740 655l0 -186M740 655l40 0 0 -177M780 479l13 0M793 655l0 -186M793 655l15 0M808 656l0 -178M808 479l11 0M819 655l0 -186M819 655l155 0"/>
</svg>
