<?xml version="1.0" standalone="yes"?>
<!DOCTYPE svg PUBLIC "-//W3C//DTD SVG 1.1//EN"
 "http://www.w3.org/Graphics/SVG/1.1/DTD/svg11.dtd">
<svg xmlns="http://www.w3.org/2000/svg" version="1.1"
  width="100%" height="100%" viewBox="0 0 1024 768"
  style="fill: none; font-family: Helvetica;
 font: Helvetica;
">

<!-- Creator: NGspice -->

<rect x="0" y="0" width="1024" height="768" fill="black" stroke="none"/>
<text stroke="none" fill="white" font-size="16" x="358" y="752">
time
</text>
<text stroke="none" fill="white" font-size="16" x="10" y="16">
tran1: run1811_vin0.692136
</text>
<path stroke="white" d="M50 704l0 -637"/>
<text stroke="none" fill="white" font-size="16" x="35" y="728">
0.0
</text>
<path stroke="white" stroke-dasharray="1,2" d="M182 704l0 -637"/>
<text stroke="none" fill="white" font-size="16" x="157" y="728">
100.0
</text>
<path stroke="white" stroke-dasharray="1,2" d="M314 704l0 -637"/>
<text stroke="none" fill="white" font-size="16" x="289" y="728">
200.0
</text>
<path stroke="white" stroke-dasharray="1,2" d="M446 704l0 -637"/>
<text stroke="none" fill="white" font-size="16" x="421" y="728">
300.0
</text>
<path stroke="white" stroke-dasharray="1,2" d="M578 704l0 -637"/>
<text stroke="none" fill="white" font-size="16" x="553" y="728">
400.0
</text>
<path stroke="white" stroke-dasharray="1,2" d="M710 704l0 -637"/>
<text stroke="none" fill="white" font-size="16" x="685" y="728">
500.0
</text>
<path stroke="white" stroke-dasharray="1,2" d="M842 704l0 -637"/>
<text stroke="none" fill="white" font-size="16" x="817" y="728">
600.0
</text>
<path stroke="white" stroke-dasharray="1,2" d="M974 704l0 -637"/>
<text stroke="none" fill="white" font-size="16" x="949" y="728">
700.0
</text>
<text stroke="none" fill="white" font-size="16" x="614" y="752">
ns
</text>
<path stroke="white" stroke-dasharray="1,2" d="M50 704l924 0"/>
<text stroke="none" fill="white" font-size="16" x="8" y="712">
-3.0
</text>
<path stroke="white" stroke-dasharray="1,2" d="M50 613l924 0"/>
<text stroke="none" fill="white" font-size="16" x="8" y="621">
-2.0
</text>
<path stroke="white" stroke-dasharray="1,2" d="M50 522l924 0"/>
<text stroke="none" fill="white" font-size="16" x="8" y="530">
-1.0
</text>
<path stroke="white" d="M50 431l924 0"/>
<text stroke="none" fill="white" font-size="16" x="18" y="439">
0.0
</text>
<path stroke="white" stroke-dasharray="1,2" d="M50 340l924 0"/>
<text stroke="none" fill="white" font-size="16" x="18" y="348">
1.0
</text>
<path stroke="white" stroke-dasharray="1,2" d="M50 249l924 0"/>
<text stroke="none" fill="white" font-size="16" x="18" y="257">
2.0
</text>
<path stroke="white" stroke-dasharray="1,2" d="M50 158l924 0"/>
<text stroke="none" fill="white" font-size="16" x="18" y="166">
3.0
</text>
<path stroke="white" stroke-dasharray="1,2" d="M50 67l924 0"/>
<text stroke="none" fill="white" font-size="16" x="18" y="75">
4.0
</text>
<text stroke="none" fill="white" font-size="16" x="10" y="32">
     
</text>
<path stroke="red" d="M462 23l46 0"/>
<text stroke="none" fill="white" font-size="16" x="518" y="32">
x1.vsampled_p
</text>
<path stroke="red" d="M50 431l1 0 1 -7 0 -15 1 -15 0 -5 1 2M54 414l0 -38 1 -4 0 -14 1 -3 0 -2 1 -2 0 -1 2 0 1 -1 3 0 1 1 5 0 0 -1 48 0 0 -1 1 -11 0 -33 1 -4 0 -8 1 -3 1 -1 0 -1 1 -1 418 0M540 287l0 -1M540 287l1 0 0 -1 25 0 1 1M567 288l0 -2 7 0"/>
<path stroke="red" d="M574 309l0 -23M574 309l1 7M575 325l0 -9M575 325l1 2 17 0M593 328l0 -1 7 0M600 343l0 -16M600 343l1 3M601 349l0 -3M601 348l32 0 0 -1M633 348l26 0 0 -1M659 348l47 0M706 351l0 -3M706 351l1 0 0 -1 18 0M725 351l0 -1 6 0 0 -2 28 0"/>
<path stroke="red" d="M759 350l0 -2M759 349l19 0M778 350l0 -1 26 0M804 350l0 -1 27 0M831 350l0 -1 87 0M918 350l0 -36 1 -3 0 -15 1 -2 0 -4 1 -2 0 -1 2 0 0 -1 13 0M936 288l0 -2M936 287l1 0 0 -1 37 0"/>
<path stroke="blue" d="M50 23l46 0"/>
<text stroke="none" fill="white" font-size="16" x="106" y="32">
x1.vsampled_n
</text>
<path stroke="blue" d="M50 431l1 0 1 -7 0 -15 1 -14 0 -5 1 2M54 414l0 -38 1 -4 0 -14 1 -3 0 -2 1 -2 0 -1 2 0 1 -1 3 0 1 1 4 0 1 -1 48 0M117 366l0 -17M117 366l1 15M118 401l0 -20M118 401l1 3M119 409l0 -5M119 409l2 2M121 412l0 -1M121 412l425 0 0 -24"/>
<path stroke="blue" d="M546 388l1 -3 0 -22 1 -7 0 -3 2 -2 76 0 0 -19 1 0 1 1 5 0 0 -1M633 333l13 0M646 334l0 -1 7 0M653 345l0 -12M653 345l1 1 0 -2 1 0 0 -1 17 0M672 344l0 -1 7 0M679 350l0 -7M679 350l1 0M680 352l0 -3 1 0 0 -1 17 0 1 1 0 -1 26 0"/>
<path stroke="blue" d="M725 349l0 -1 26 0M751 349l0 -1M751 349l1 0 0 -1 26 0M778 349l0 -1 7 0M785 350l0 -2M785 350l1 0 0 -1 27 0M813 350l0 -1 17 0 1 1 0 -1 26 0M857 350l0 -1 26 0M883 350l0 -1M883 350l1 -1 26 0M910 350l0 -1 8 0M918 410l0 -62M918 410l1 3"/>
<path stroke="blue" d="M919 417l0 -4M919 417l1 -1 0 -2 1 -1 1 0 0 -1 52 0"/>
<path stroke="#FFA500" d="M462 39l46 0"/>
<text stroke="none" fill="white" font-size="16" x="518" y="48">
x1.vsampled_p-x1.vsampled_n
</text>
<path stroke="#FFA500" d="M50 431l2 0 0 -1 2 0M54 431l0 -1M54 431l63 0 0 -18 1 -27 0 -52 1 -7 0 -13 1 -4 1 -3 0 -1 1 0 1 -1 417 0M540 306l0 -1 6 0M546 330l0 -25M546 330l1 2M547 354l0 -22M547 354l1 7M548 364l0 -3M548 364l1 2 1 0 1 1 3 0 0 -1 12 0"/>
<path stroke="#FFA500" d="M566 366l1 1M567 368l0 -2M567 367l7 0M574 389l0 -22M574 389l1 7M575 405l0 -9M575 405l1 2 1 1 0 -1 16 0M593 408l0 -1 7 0M600 423l0 -16M600 423l1 4M601 429l0 -2M601 428l25 0M626 446l0 -18M626 446l1 1 0 -1 19 0 0 -1M646 446l7 0"/>
<path stroke="#FFA500" d="M653 446l0 -12 1 -1M654 434l0 -1M654 434l1 1 4 0M659 436l0 -1 13 0M672 436l0 -1 7 0 0 -6 1 -1M680 430l0 -3M680 430l26 0M706 433l0 -3M706 433l25 0 0 -3 1 0M732 431l0 -1M732 431l19 0 0 -1M751 431l8 0M759 433l0 -2M759 432l26 0"/>
<path stroke="#FFA500" d="M785 432l0 -2 1 1 27 0 0 -1M813 431l26 0 0 -1M839 431l79 0M918 433l0 -98 1 -6 0 -18 1 -2 0 -2 1 -1 1 0 0 -1 14 0M936 306l0 -1 38 0"/>
<path stroke="green" d="M50 39l46 0"/>
<text stroke="none" fill="white" font-size="16" x="106" y="48">
x1.sw_sample-2
</text>
<path stroke="green" d="M50 613l1 0 1 -9 0 -21 1 -21M53 579l0 -23M53 579l1 31M54 613l0 -3M54 613l63 0M117 620l0 -172M117 449l422 0M539 614l0 -171M539 613l422 0M961 618l0 -170 1 1 12 0"/>
<path stroke="#FFC0C5" d="M462 55l46 0"/>
<text stroke="none" fill="white" font-size="16" x="518" y="64">
x1.comp_out_p+2
</text>
<path stroke="#FFC0C5" d="M50 249l1 0 1 -9 0 -22 1 -18 0 -4M53 198l1 5M54 249l0 -46M54 248l1 1 486 0 1 2 0 -167M542 85l13 0M555 249l0 -171M555 249l13 0M568 255l0 -172M568 85l13 0 0 -8 1 159M582 249l0 -13M582 249l12 0 0 -165M594 85l14 0M608 250l0 -172"/>
<path stroke="#FFC0C5" d="M608 249l13 0M621 252l0 -168M621 85l13 0M634 249l0 -172M634 249l66 0 0 -161 1 -4M701 85l0 -1M701 85l12 0 0 -8 1 158M714 249l0 -14M714 249l39 0 0 -142 1 -22 0 -1M754 85l12 0M766 249l0 -172M766 249l94 0 0 -165M860 85l12 0"/>
<path stroke="#FFC0C5" d="M872 249l0 -174M872 249l14 0 0 -164 12 0M898 249l0 -174M898 249l15 0 0 -165M913 85l12 0M925 249l0 -172M925 249l12 0 1 -49 0 -116M938 85l13 0M951 249l0 -172M951 249l23 0"/>
<path stroke="#A52A2A" d="M50 55l46 0"/>
<text stroke="none" fill="white" font-size="16" x="106" y="64">
x1.comp_out_n-2
</text>
<path stroke="#A52A2A" d="M50 613l1 0 1 -9 0 -22 1 -19M53 564l0 -3M53 564l1 6M54 614l0 -45M54 605l1 7M55 613l0 -1M55 613l592 0 0 -166M647 449l14 0M661 614l0 -168M661 613l12 0M673 614l0 -1M673 614l1 -61 0 -105M674 449l13 0M687 613l0 -172M687 613l40 0"/>
<path stroke="#A52A2A" d="M727 613l0 -165M727 449l13 0M740 613l0 -173M740 613l40 0 0 -165M780 449l13 0M793 613l0 -174M793 613l14 0 0 -165 1 1 11 0M819 613l0 -172M819 613l16 0 0 -165M835 449l10 0M845 451l0 -5M845 451l1 152M846 613l0 -10M846 613l128 0"/>
</svg>
