<?xml version="1.0" standalone="yes"?>
<!DOCTYPE svg PUBLIC "-//W3C//DTD SVG 1.1//EN"
 "http://www.w3.org/Graphics/SVG/1.1/DTD/svg11.dtd">
<svg xmlns="http://www.w3.org/2000/svg" version="1.1"
  width="100%" height="100%" viewBox="0 0 1024 768"
  style="fill: none; font-family: Helvetica;
 font: Helvetica;
">

<!-- Creator: NGspice -->

<rect x="0" y="0" width="1024" height="768" fill="black" stroke="none"/>
<text stroke="none" fill="white" font-size="16" x="358" y="752">
time
</text>
<text stroke="none" fill="white" font-size="16" x="10" y="16">
tran1: run1332_vin0.271141
</text>
<path stroke="white" d="M50 704l0 -637"/>
<text stroke="none" fill="white" font-size="16" x="35" y="728">
0.0
</text>
<path stroke="white" stroke-dasharray="1,2" d="M182 704l0 -637"/>
<text stroke="none" fill="white" font-size="16" x="157" y="728">
100.0
</text>
<path stroke="white" stroke-dasharray="1,2" d="M314 704l0 -637"/>
<text stroke="none" fill="white" font-size="16" x="289" y="728">
200.0
</text>
<path stroke="white" stroke-dasharray="1,2" d="M446 704l0 -637"/>
<text stroke="none" fill="white" font-size="16" x="421" y="728">
300.0
</text>
<path stroke="white" stroke-dasharray="1,2" d="M578 704l0 -637"/>
<text stroke="none" fill="white" font-size="16" x="553" y="728">
400.0
</text>
<path stroke="white" stroke-dasharray="1,2" d="M710 704l0 -637"/>
<text stroke="none" fill="white" font-size="16" x="685" y="728">
500.0
</text>
<path stroke="white" stroke-dasharray="1,2" d="M842 704l0 -637"/>
<text stroke="none" fill="white" font-size="16" x="817" y="728">
600.0
</text>
<path stroke="white" stroke-dasharray="1,2" d="M974 704l0 -637"/>
<text stroke="none" fill="white" font-size="16" x="949" y="728">
700.0
</text>
<text stroke="none" fill="white" font-size="16" x="614" y="752">
ns
</text>
<path stroke="white" stroke-dasharray="1,2" d="M50 704l924 0"/>
<text stroke="none" fill="white" font-size="16" x="8" y="712">
-3.0
</text>
<path stroke="white" stroke-dasharray="1,2" d="M50 613l924 0"/>
<text stroke="none" fill="white" font-size="16" x="8" y="621">
-2.0
</text>
<path stroke="white" stroke-dasharray="1,2" d="M50 522l924 0"/>
<text stroke="none" fill="white" font-size="16" x="8" y="530">
-1.0
</text>
<path stroke="white" d="M50 431l924 0"/>
<text stroke="none" fill="white" font-size="16" x="18" y="439">
0.0
</text>
<path stroke="white" stroke-dasharray="1,2" d="M50 340l924 0"/>
<text stroke="none" fill="white" font-size="16" x="18" y="348">
1.0
</text>
<path stroke="white" stroke-dasharray="1,2" d="M50 249l924 0"/>
<text stroke="none" fill="white" font-size="16" x="18" y="257">
2.0
</text>
<path stroke="white" stroke-dasharray="1,2" d="M50 158l924 0"/>
<text stroke="none" fill="white" font-size="16" x="18" y="166">
3.0
</text>
<path stroke="white" stroke-dasharray="1,2" d="M50 67l924 0"/>
<text stroke="none" fill="white" font-size="16" x="18" y="75">
4.0
</text>
<text stroke="none" fill="white" font-size="16" x="10" y="32">
     
</text>
<path stroke="red" d="M462 23l46 0"/>
<text stroke="none" fill="white" font-size="16" x="518" y="32">
x1.vsampled_p
</text>
<path stroke="red" d="M50 431l1 0 1 -7 0 -15 1 -15 0 -4 1 1M54 415l0 -40 1 -5 0 -13 1 -3 0 -2 2 -2 1 0 1 -1 4 0M64 350l0 -1M64 350l4 0 1 -1 48 0 0 -1 1 -7 0 -10 1 -3 1 -2 0 -1 2 0 0 -1 417 0M539 325l0 -1M539 325l15 0 0 -1M554 325l13 0M567 326l0 -1"/>
<path stroke="red" d="M567 325l13 0 0 -1M580 325l20 0M600 340l0 -16M600 340l1 3M601 348l0 -5M601 347l2 -2 76 0M679 349l0 -4M679 349l1 1M680 352l0 -2M680 351l1 -1 44 0M725 351l0 -1 6 0 0 -1 1 -1 0 -1M732 348l27 0M759 350l0 -2M759 349l19 0M778 350l0 -1"/>
<path stroke="red" d="M778 349l26 0M804 350l0 -1 27 0M831 350l0 -1 26 0M857 350l0 -1 26 0M883 350l0 -1 27 0M910 350l0 -1 8 0M918 350l0 -18 1 -2 0 -5 1 -1 1 0M921 325l0 -1M921 325l2 0 0 -1M923 325l13 0M936 326l0 -1 14 0 0 -1M950 325l12 0 0 -1"/>
<path stroke="red" d="M962 324l12 0"/>
<path stroke="blue" d="M50 23l46 0"/>
<text stroke="none" fill="white" font-size="16" x="106" y="32">
x1.vsampled_n
</text>
<path stroke="blue" d="M50 431l1 0 1 -7 0 -15 1 -14 0 -5 1 2M54 415l0 -40 1 -5 0 -13 1 -3 0 -2 2 -2 1 0 1 -1 4 0M64 350l0 -1M64 350l4 0 1 -1 48 0M117 353l0 -4M117 353l1 7M118 369l0 -9M118 369l2 4 1 1 425 0 0 -27 1 -4 0 -22 1 -4 0 -2 2 -2 4 0"/>
<path stroke="blue" d="M554 313l0 -1M554 313l13 0M567 314l0 -1 7 0M574 343l0 -30M574 343l1 3M575 355l0 -9M575 355l1 0 0 -1 4 0 0 -1 13 0M593 354l0 -1M593 354l13 0 0 -1 13 0M619 354l0 -1M619 354l1 0 0 -1M620 354l5 0 0 -1 1 -5 0 -12 1 0 0 -1 1 0"/>
<path stroke="blue" d="M628 336l0 -1M628 336l5 0 0 -1M633 336l20 0M653 346l0 -10M653 346l1 1M654 348l0 -1 1 -1 51 0M706 350l0 -4M706 349l1 0 0 -1 18 0M725 349l0 -1 26 0M751 349l0 -1M751 349l1 0 0 -1 26 0M778 349l0 -1 7 0M785 350l0 -2M785 350l1 0"/>
<path stroke="blue" d="M786 350l0 -1 27 0M813 350l0 -1 17 0 1 1 0 -1 87 0M918 374l0 -26M918 374l1 2M919 378l0 -2 1 -1 0 -1 54 0"/>
<path stroke="#FFA500" d="M462 39l46 0"/>
<text stroke="none" fill="white" font-size="16" x="518" y="48">
x1.vsampled_p-x1.vsampled_n
</text>
<path stroke="#FFA500" d="M50 431l67 0 0 -5 1 -14 0 -19 1 -6 1 -3 0 -1 1 -1 425 0M546 409l0 -27M546 409l1 3M547 434l0 -22M547 434l1 4M548 441l0 -3M548 441l2 2 17 0 0 -1M567 443l7 0 0 -30 1 -3 0 -10 1 0M576 401l0 -1M576 401l1 1 16 0M593 403l0 -1"/>
<path stroke="#FFA500" d="M593 402l7 0M600 418l0 -16M600 418l1 3M601 426l0 -5M601 424l1 0 0 -1 4 0 0 -1M606 423l13 0 0 -1 1 0M620 423l0 -1M620 423l5 0 1 5M626 440l0 -12M626 440l1 0M627 441l0 -1M627 441l2 0 1 -1 3 0M633 441l0 -1 13 0M646 441l0 -1"/>
<path stroke="#FFA500" d="M646 440l7 0M653 441l0 -11 1 -1M654 430l0 -1M654 430l25 0M679 434l0 -4M679 434l1 1M680 437l0 -2M680 436l1 0 0 -1 5 0M686 436l0 -1 20 0 0 -3 1 1 24 0 0 -1 1 -1 0 -1 1 0M733 431l0 -1M733 431l18 0 0 -1M751 431l8 0M759 433l0 -2"/>
<path stroke="#FFA500" d="M759 432l26 0 0 -1 28 0 0 -1M813 431l26 0M839 432l0 -1 79 0M918 433l0 -44 1 -3 0 -7M919 380l1 0M920 381l0 -1M920 381l1 0M921 382l0 -1M921 382l2 0 0 -1M923 382l27 0 0 -1M950 382l24 0"/>
<path stroke="green" d="M50 39l46 0"/>
<text stroke="none" fill="white" font-size="16" x="106" y="48">
x1.sw_sample-2
</text>
<path stroke="green" d="M50 613l1 0 1 -9 0 -21 1 -21M53 581l0 -25M53 581l1 29M54 613l0 -3M54 613l63 0M117 620l0 -172M117 449l422 0M539 614l0 -171M539 613l422 0M961 618l0 -170 1 1 12 0"/>
<path stroke="#FFC0C5" d="M462 55l46 0"/>
<text stroke="none" fill="white" font-size="16" x="518" y="64">
x1.comp_out_p+2
</text>
<path stroke="#FFC0C5" d="M50 249l1 0 1 -9 0 -22 1 -18 0 -4M53 198l1 5M54 249l0 -46M54 249l488 0 0 -165M542 85l13 0M555 249l0 -172M555 249l39 0 0 -165M594 85l14 0M608 249l0 -173M608 249l13 0M621 250l0 -166M621 85l13 0M634 249l0 -173M634 249l40 0"/>
<path stroke="#FFC0C5" d="M674 249l0 -166M674 85l13 0M687 249l0 -172M687 249l66 0 0 -163 1 -2M754 85l0 -1M754 85l12 0M766 250l0 -171M766 250l1 -1 67 0 0 -165M834 85l11 0 0 -9 1 139M846 249l0 -34M846 249l91 0M937 251l0 -2M937 251l1 -103 0 -65"/>
<path stroke="#FFC0C5" d="M938 85l13 0M951 250l0 -166M951 249l23 0"/>
<path stroke="#A52A2A" d="M50 55l46 0"/>
<text stroke="none" fill="white" font-size="16" x="106" y="64">
x1.comp_out_n-2
</text>
<path stroke="#A52A2A" d="M50 613l1 0 1 -9 0 -22 1 -19M53 564l0 -3M53 564l1 6M54 613l0 -43M54 612l1 1 513 0M568 615l0 -168M568 449l13 0 0 -9 1 165M582 613l0 -8M582 613l65 0 0 -166M647 449l14 0M661 613l0 -172M661 613l39 0M700 619l0 -172M700 449l13 0"/>
<path stroke="#A52A2A" d="M713 449l0 -9 1 164M714 613l0 -9M714 613l13 0 0 -165M727 449l13 0M740 614l0 -174M740 613l40 0 0 -165M780 449l13 0M793 613l0 -173M793 613l14 0 0 -165 1 1 11 0M819 613l0 -170M819 613l41 0 0 -164 12 0M872 614l0 -169M872 613l14 0"/>
<path stroke="#A52A2A" d="M886 613l0 -158 1 -7M887 449l0 -1M887 449l11 0M898 614l0 -169M898 613l15 0 0 -165M913 449l12 0M925 614l0 -170M925 613l49 0"/>
</svg>
