<?xml version="1.0" standalone="yes"?>
<!DOCTYPE svg PUBLIC "-//W3C//DTD SVG 1.1//EN"
 "http://www.w3.org/Graphics/SVG/1.1/DTD/svg11.dtd">
<svg xmlns="http://www.w3.org/2000/svg" version="1.1"
  width="100%" height="100%" viewBox="0 0 1024 768"
  style="fill: none; font-family: Helvetica;
 font: Helvetica;
">

<!-- Creator: NGspice -->

<rect x="0" y="0" width="1024" height="768" fill="black" stroke="none"/>
<text stroke="none" fill="white" font-size="16" x="358" y="752">
time
</text>
<text stroke="none" fill="white" font-size="16" x="10" y="16">
tran1: run1330_vin0.269383
</text>
<path stroke="white" d="M50 704l0 -637"/>
<text stroke="none" fill="white" font-size="16" x="35" y="728">
0.0
</text>
<path stroke="white" stroke-dasharray="1,2" d="M182 704l0 -637"/>
<text stroke="none" fill="white" font-size="16" x="157" y="728">
100.0
</text>
<path stroke="white" stroke-dasharray="1,2" d="M314 704l0 -637"/>
<text stroke="none" fill="white" font-size="16" x="289" y="728">
200.0
</text>
<path stroke="white" stroke-dasharray="1,2" d="M446 704l0 -637"/>
<text stroke="none" fill="white" font-size="16" x="421" y="728">
300.0
</text>
<path stroke="white" stroke-dasharray="1,2" d="M578 704l0 -637"/>
<text stroke="none" fill="white" font-size="16" x="553" y="728">
400.0
</text>
<path stroke="white" stroke-dasharray="1,2" d="M710 704l0 -637"/>
<text stroke="none" fill="white" font-size="16" x="685" y="728">
500.0
</text>
<path stroke="white" stroke-dasharray="1,2" d="M842 704l0 -637"/>
<text stroke="none" fill="white" font-size="16" x="817" y="728">
600.0
</text>
<path stroke="white" stroke-dasharray="1,2" d="M974 704l0 -637"/>
<text stroke="none" fill="white" font-size="16" x="949" y="728">
700.0
</text>
<text stroke="none" fill="white" font-size="16" x="614" y="752">
ns
</text>
<path stroke="white" stroke-dasharray="1,2" d="M50 704l924 0"/>
<text stroke="none" fill="white" font-size="16" x="8" y="712">
-3.0
</text>
<path stroke="white" stroke-dasharray="1,2" d="M50 613l924 0"/>
<text stroke="none" fill="white" font-size="16" x="8" y="621">
-2.0
</text>
<path stroke="white" stroke-dasharray="1,2" d="M50 522l924 0"/>
<text stroke="none" fill="white" font-size="16" x="8" y="530">
-1.0
</text>
<path stroke="white" d="M50 431l924 0"/>
<text stroke="none" fill="white" font-size="16" x="18" y="439">
0.0
</text>
<path stroke="white" stroke-dasharray="1,2" d="M50 340l924 0"/>
<text stroke="none" fill="white" font-size="16" x="18" y="348">
1.0
</text>
<path stroke="white" stroke-dasharray="1,2" d="M50 249l924 0"/>
<text stroke="none" fill="white" font-size="16" x="18" y="257">
2.0
</text>
<path stroke="white" stroke-dasharray="1,2" d="M50 158l924 0"/>
<text stroke="none" fill="white" font-size="16" x="18" y="166">
3.0
</text>
<path stroke="white" stroke-dasharray="1,2" d="M50 67l924 0"/>
<text stroke="none" fill="white" font-size="16" x="18" y="75">
4.0
</text>
<text stroke="none" fill="white" font-size="16" x="10" y="32">
     
</text>
<path stroke="red" d="M462 23l46 0"/>
<text stroke="none" fill="white" font-size="16" x="518" y="32">
x1.vsampled_p
</text>
<path stroke="red" d="M50 431l1 0 1 -7 0 -15 1 -15 0 -4 1 1M54 415l0 -40 1 -5 0 -13 1 -3 0 -2 2 -2 1 0 1 -1 4 0M64 350l0 -1M64 350l4 0 1 -1 48 0 1 -8 0 -10 1 -3 1 -2 0 -1 420 0M540 326l0 -1 14 0 0 -1M554 325l13 0M567 326l0 -1 13 0 0 -1M580 325l13 0"/>
<path stroke="red" d="M593 326l0 -1 7 0M600 342l0 -17M600 342l1 2M601 348l0 -4M601 347l1 0 0 -1 1 0 0 -1 16 0M619 346l0 -1 27 0M646 346l0 -1 26 0M672 346l0 -1 7 0M679 349l0 -4M679 349l1 1M680 352l0 -2M680 351l1 0 0 -1 18 0M699 351l0 -1 26 0M725 351l0 -1"/>
<path stroke="red" d="M725 350l6 0 0 -2 1 0 0 -1M732 348l27 0M759 350l0 -2M759 350l1 0 0 -1 18 0M778 350l0 -1 26 0M804 350l0 -1 26 0 1 1 0 -1 87 0M918 351l0 -18 1 -1 0 -7 1 0 0 -1 1 1 2 0 0 -1M923 325l13 0M936 326l0 -1 14 0 0 -1M950 325l24 0"/>
<path stroke="blue" d="M50 23l46 0"/>
<text stroke="none" fill="white" font-size="16" x="106" y="32">
x1.vsampled_n
</text>
<path stroke="blue" d="M50 431l1 0 1 -7 0 -15 1 -14 0 -5 1 2M54 415l0 -40 1 -5 0 -13 1 -3 0 -2 2 -2 1 0 1 -1 4 0M64 350l0 -1M64 350l4 0 1 -1 48 0M117 353l0 -4M117 353l1 7M118 368l0 -8M118 368l1 3 1 2 1 0 1 1 424 0 0 -18 1 -4 0 -26 1 -5 0 -4 1 -2"/>
<path stroke="blue" d="M549 315l0 -1 1 -1 4 0 0 -1 12 0 1 1M567 314l0 -1 7 0M574 341l0 -28M574 341l1 3M575 355l0 -11M575 355l1 0 0 -1 1 0 1 -1 15 0M593 354l0 -1 26 0M619 354l0 -1M619 354l1 0 0 -1 5 0 0 -1 1 -6 0 -10 1 -1 2 0 1 1 3 0 0 -1 13 0"/>
<path stroke="blue" d="M646 336l0 -1M646 336l7 0M653 345l0 -10M653 345l1 2 0 -1 5 0 0 -1M659 346l27 0 0 -1M686 346l20 0M706 349l0 -3M706 349l1 0 0 -1 18 0M725 349l0 -1 26 0M751 349l0 -1M751 349l1 0 0 -1 26 0M778 349l0 -1 7 0M785 349l0 -1M785 349l1 1"/>
<path stroke="blue" d="M786 350l0 -1 26 0M812 350l0 -1 19 0M831 350l0 -1 26 0M857 350l0 -1 26 0M883 350l0 -1 27 0M910 350l0 -1 8 0M918 372l0 -25M918 372l1 2M919 378l0 -4M919 376l1 -1 0 -1 54 0"/>
<path stroke="#FFA500" d="M462 39l46 0"/>
<text stroke="none" fill="white" font-size="16" x="518" y="48">
x1.vsampled_p-x1.vsampled_n
</text>
<path stroke="#FFA500" d="M50 431l67 0 0 -4 1 -15 0 -18 1 -7 1 -3 0 -1 1 -1 419 0M540 383l0 -1 6 0M546 400l0 -18M546 400l1 4M547 430l0 -26M547 430l1 5M548 439l0 -4M548 439l1 2M549 442l0 -1M549 442l1 1 4 0M554 444l0 -1 13 0M567 444l0 -1 7 0 0 -28"/>
<path stroke="#FFA500" d="M574 415l1 -4 0 -10 1 0M576 402l0 -1M576 402l2 0 1 1 1 0 0 -1 13 0M593 403l0 -1M593 403l7 0M600 419l0 -16M600 419l1 3M601 426l0 -4M601 425l1 -1 0 -1 23 0M625 424l0 -1M625 424l1 6M626 441l0 -11M626 441l20 0 0 -1M646 441l7 0"/>
<path stroke="#FFA500" d="M653 441l0 -10 1 -2M654 430l0 -1M654 430l1 0 1 1 16 0 0 -1M672 431l7 0M679 434l0 -3M679 434l1 1M680 437l0 -2M680 436l19 0 0 -1M699 436l7 0 0 -4 1 1 24 0 0 -2 1 -1M732 431l0 -1M732 431l27 0M759 433l0 -2M759 433l1 0 0 -1"/>
<path stroke="#FFA500" d="M760 432l25 0 0 -1 1 0M786 432l0 -1M786 432l18 0 0 -1M804 432l8 0 0 -1 106 0M918 434l0 -42 1 -4 0 -8 1 0M920 381l0 -1M920 381l1 1 15 0M936 383l0 -1 38 0"/>
<path stroke="green" d="M50 39l46 0"/>
<text stroke="none" fill="white" font-size="16" x="106" y="48">
x1.sw_sample-2
</text>
<path stroke="green" d="M50 613l1 0 1 -9 0 -21 1 -21M53 581l0 -25M53 581l1 29M54 613l0 -3M54 613l63 0M117 620l0 -172M117 449l422 0M539 614l0 -171M539 613l422 0M961 618l0 -170 1 1 12 0"/>
<path stroke="#FFC0C5" d="M462 55l46 0"/>
<text stroke="none" fill="white" font-size="16" x="518" y="64">
x1.comp_out_p+2
</text>
<path stroke="#FFC0C5" d="M50 249l1 0 1 -9 0 -22 1 -18 0 -4M53 198l1 5M54 249l0 -46M54 249l487 0 1 1 0 -166M542 85l13 0M555 249l0 -172M555 249l39 0M594 250l0 -167M594 85l14 0M608 249l0 -172M608 249l13 0M621 251l0 -168M621 85l13 0M634 249l0 -167"/>
<path stroke="#FFC0C5" d="M634 249l40 0 0 -166M674 85l13 0M687 249l0 -172M687 249l66 0 1 -68 0 -97M754 85l12 0M766 250l0 -173M766 249l94 0 0 -165 1 1 11 0M872 249l0 -173M872 249l14 0 0 -157 1 -8M887 85l0 -1M887 85l11 0M898 249l0 -173M898 249l15 0"/>
<path stroke="#FFC0C5" d="M913 249l0 -165M913 85l12 0M925 250l0 -167M925 249l12 0M937 250l0 -1M937 250l1 -59 0 -107M938 85l13 0M951 250l0 -166M951 249l23 0"/>
<path stroke="#A52A2A" d="M50 55l46 0"/>
<text stroke="none" fill="white" font-size="16" x="106" y="64">
x1.comp_out_n-2
</text>
<path stroke="#A52A2A" d="M50 613l1 0 1 -9 0 -22 1 -19M53 564l0 -3M53 564l1 6M54 613l0 -43M54 612l1 1 513 0M568 615l0 -168M568 449l13 0 0 -9 1 165M582 613l0 -8M582 613l65 0M647 614l0 -167M647 449l14 0M661 613l0 -173M661 613l39 0M700 618l0 -171"/>
<path stroke="#A52A2A" d="M700 449l13 0 0 -8 1 158M714 613l0 -14M714 613l13 0 0 -165M727 449l13 0M740 614l0 -170M740 613l40 0M780 614l0 -166M780 449l13 0M793 613l0 -167M793 613l13 0 1 -157 0 -8M807 449l12 0M819 613l0 -174M819 613l15 0 0 -165"/>
<path stroke="#A52A2A" d="M834 449l11 0M845 451l0 -4M845 451l1 152M846 613l0 -10M846 613l92 0M938 614l0 -1 36 0"/>
</svg>
