<?xml version="1.0" standalone="yes"?>
<!DOCTYPE svg PUBLIC "-//W3C//DTD SVG 1.1//EN"
 "http://www.w3.org/Graphics/SVG/1.1/DTD/svg11.dtd">
<svg xmlns="http://www.w3.org/2000/svg" version="1.1"
  width="100%" height="100%" viewBox="0 0 1024 768"
  style="fill: none; font-family: Helvetica;
 font: Helvetica;
">

<!-- Creator: NGspice -->

<rect x="0" y="0" width="1024" height="768" fill="black" stroke="none"/>
<text stroke="none" fill="white" font-size="16" x="358" y="752">
time
</text>
<text stroke="none" fill="white" font-size="16" x="10" y="16">
tran1: run1328_vin0.267625
</text>
<path stroke="white" d="M50 704l0 -637"/>
<text stroke="none" fill="white" font-size="16" x="35" y="728">
0.0
</text>
<path stroke="white" stroke-dasharray="1,2" d="M182 704l0 -637"/>
<text stroke="none" fill="white" font-size="16" x="157" y="728">
100.0
</text>
<path stroke="white" stroke-dasharray="1,2" d="M314 704l0 -637"/>
<text stroke="none" fill="white" font-size="16" x="289" y="728">
200.0
</text>
<path stroke="white" stroke-dasharray="1,2" d="M446 704l0 -637"/>
<text stroke="none" fill="white" font-size="16" x="421" y="728">
300.0
</text>
<path stroke="white" stroke-dasharray="1,2" d="M578 704l0 -637"/>
<text stroke="none" fill="white" font-size="16" x="553" y="728">
400.0
</text>
<path stroke="white" stroke-dasharray="1,2" d="M710 704l0 -637"/>
<text stroke="none" fill="white" font-size="16" x="685" y="728">
500.0
</text>
<path stroke="white" stroke-dasharray="1,2" d="M842 704l0 -637"/>
<text stroke="none" fill="white" font-size="16" x="817" y="728">
600.0
</text>
<path stroke="white" stroke-dasharray="1,2" d="M974 704l0 -637"/>
<text stroke="none" fill="white" font-size="16" x="949" y="728">
700.0
</text>
<text stroke="none" fill="white" font-size="16" x="614" y="752">
ns
</text>
<path stroke="white" stroke-dasharray="1,2" d="M50 704l924 0"/>
<text stroke="none" fill="white" font-size="16" x="8" y="712">
-3.0
</text>
<path stroke="white" stroke-dasharray="1,2" d="M50 613l924 0"/>
<text stroke="none" fill="white" font-size="16" x="8" y="621">
-2.0
</text>
<path stroke="white" stroke-dasharray="1,2" d="M50 522l924 0"/>
<text stroke="none" fill="white" font-size="16" x="8" y="530">
-1.0
</text>
<path stroke="white" d="M50 431l924 0"/>
<text stroke="none" fill="white" font-size="16" x="18" y="439">
0.0
</text>
<path stroke="white" stroke-dasharray="1,2" d="M50 340l924 0"/>
<text stroke="none" fill="white" font-size="16" x="18" y="348">
1.0
</text>
<path stroke="white" stroke-dasharray="1,2" d="M50 249l924 0"/>
<text stroke="none" fill="white" font-size="16" x="18" y="257">
2.0
</text>
<path stroke="white" stroke-dasharray="1,2" d="M50 158l924 0"/>
<text stroke="none" fill="white" font-size="16" x="18" y="166">
3.0
</text>
<path stroke="white" stroke-dasharray="1,2" d="M50 67l924 0"/>
<text stroke="none" fill="white" font-size="16" x="18" y="75">
4.0
</text>
<text stroke="none" fill="white" font-size="16" x="10" y="32">
     
</text>
<path stroke="red" d="M462 23l46 0"/>
<text stroke="none" fill="white" font-size="16" x="518" y="32">
x1.vsampled_p
</text>
<path stroke="red" d="M50 431l1 0 1 -7 0 -15 1 -15 0 -4 1 1M54 415l0 -40 1 -5 0 -13 1 -3 0 -2 2 -2 1 0 1 -1 4 0M64 350l0 -1M64 350l4 0 1 -1 48 0 1 -8 0 -10 1 -3 1 -2 0 -1 420 0M540 326l0 -1 14 0 0 -1M554 325l13 0M567 326l0 -1 26 0M593 326l0 -1"/>
<path stroke="red" d="M593 325l7 0M600 342l0 -17M600 342l1 2M601 348l0 -4M601 347l1 0 0 -1 1 0 1 -1 15 0M619 346l0 -1M619 346l1 0 0 -1 26 0M646 346l0 -1 26 0M672 346l0 -1 7 0M679 350l0 -5M679 350l1 1M680 352l0 -1 6 0 0 -1 12 0 1 1 0 -1M699 351l13 0"/>
<path stroke="red" d="M712 351l0 -1 13 0M725 351l0 -1M725 351l6 0 0 -3 20 0M751 349l0 -1 27 0M778 349l0 -1 7 0M785 349l0 -1M785 349l27 0M812 350l0 -1M812 350l1 0 0 -1 18 0M831 350l0 -1 26 0M857 350l0 -1 26 0M883 350l0 -1 27 0M910 350l0 -1 8 0"/>
<path stroke="red" d="M918 350l0 -17 1 -2 0 -6 17 0M936 326l0 -1 38 0"/>
<path stroke="blue" d="M50 23l46 0"/>
<text stroke="none" fill="white" font-size="16" x="106" y="32">
x1.vsampled_n
</text>
<path stroke="blue" d="M50 431l1 0 1 -7 0 -15 1 -14 0 -5 1 2M54 415l0 -40 1 -5 0 -13 1 -3 0 -2 2 -2 1 0 1 -1 4 0M64 350l0 -1M64 350l4 0 1 -1 48 0M117 353l0 -4M117 353l1 7M118 368l0 -8M118 368l1 3 1 1M120 373l0 -1M120 373l419 0M539 374l0 -1M539 374l2 0"/>
<path stroke="blue" d="M541 374l0 -1M541 374l5 0 0 -24 1 -3 0 -21 1 -5 0 -4 1 -3 0 -1 1 0 1 -1 15 0 1 1 0 -1 7 0M574 343l0 -31M574 343l1 3M575 355l0 -9M575 355l1 0 0 -1 1 0 1 -1 15 0M593 354l0 -1 26 0M619 354l0 -1 6 0 0 -4 1 -5 0 -9 20 0M646 336l0 -1"/>
<path stroke="blue" d="M646 335l7 0M653 346l0 -11M653 346l1 1 0 -1 5 0 0 -1 13 0M672 346l0 -1 1 1 13 0 0 -1 12 0 1 1 0 -1M699 346l7 0M706 349l0 -3M706 349l1 -1 18 0M725 349l0 -1 26 0M751 349l0 -1 8 0M759 351l0 -3M759 350l1 0 0 -1 18 0M778 350l0 -1"/>
<path stroke="blue" d="M778 349l26 0M804 350l0 -1 26 0 1 1 0 -1 87 0M918 373l0 -25M918 373l1 2M919 378l0 -3M919 376l1 -1 0 -1 30 0 0 -1M950 374l11 0 1 -1 12 0"/>
<path stroke="#FFA500" d="M462 39l46 0"/>
<text stroke="none" fill="white" font-size="16" x="518" y="48">
x1.vsampled_p-x1.vsampled_n
</text>
<path stroke="#FFA500" d="M50 431l67 0 0 -4 1 -15 0 -18 1 -6 1 -3 0 -2 2 0 0 -1 418 0M540 383l0 -1 1 1 0 -1 5 0M546 406l0 -24M546 406l1 3M547 431l0 -22M547 431l1 4M548 439l0 -4M548 439l1 3M549 443l0 -1M549 443l1 0M550 444l0 -1M550 444l16 0 1 -1"/>
<path stroke="#FFA500" d="M567 444l0 -1M567 444l7 0 0 -31 1 -3 0 -9 1 0M576 402l0 -1M576 402l1 0 1 1 22 0M600 419l0 -16M600 419l1 3M601 426l0 -4M601 425l1 0 0 -1 1 -1 22 0M625 427l0 -4M625 427l1 5M626 441l0 -9M626 441l27 0 0 -10 1 -2M654 430l0 -1"/>
<path stroke="#FFA500" d="M654 430l1 1 24 0M679 435l0 -4M679 435l1 1M680 438l0 -2 26 0 0 -4M706 433l6 0M712 434l0 -1 13 0M725 434l0 -1 6 0 0 -3M731 431l28 0 0 -2M759 430l26 0M785 431l0 -1M785 431l19 0 0 -1M804 431l35 0M839 432l0 -1 79 0M918 433l0 -42"/>
<path stroke="#FFA500" d="M918 391l1 -4 0 -7 2 2 15 0M936 383l0 -1 38 0"/>
<path stroke="green" d="M50 39l46 0"/>
<text stroke="none" fill="white" font-size="16" x="106" y="48">
x1.sw_sample-2
</text>
<path stroke="green" d="M50 613l1 0 1 -9 0 -21 1 -21M53 581l0 -25M53 581l1 29M54 613l0 -3M54 613l63 0M117 620l0 -172M117 449l422 0M539 614l0 -171M539 613l422 0M961 618l0 -170 1 1 12 0"/>
<path stroke="#FFC0C5" d="M462 55l46 0"/>
<text stroke="none" fill="white" font-size="16" x="518" y="64">
x1.comp_out_p+2
</text>
<path stroke="#FFC0C5" d="M50 249l1 0 1 -9 0 -22 1 -18 0 -4M53 198l1 5M54 249l0 -46M54 249l487 0 1 1 0 -166M542 85l13 0M555 249l0 -171M555 249l39 0M594 250l0 -166M594 85l14 0M608 250l0 -172M608 249l13 0M621 250l0 -167M621 85l13 0M634 249l0 -173"/>
<path stroke="#FFC0C5" d="M634 249l40 0M674 253l0 -170M674 85l13 0M687 250l0 -173M687 249l93 0 0 -165M780 85l13 0M793 249l0 -174M793 249l14 0 0 -164 12 0M819 249l0 -171M819 249l15 0 0 -165M834 85l11 0 0 -9 1 139M846 249l0 -34M846 249l91 0 1 -61"/>
<path stroke="#FFC0C5" d="M938 188l0 -104M938 85l13 0M951 250l0 -166M951 249l23 0"/>
<path stroke="#A52A2A" d="M50 55l46 0"/>
<text stroke="none" fill="white" font-size="16" x="106" y="64">
x1.comp_out_n-2
</text>
<path stroke="#A52A2A" d="M50 613l1 0 1 -9 0 -22 1 -19M53 564l0 -3M53 564l1 6M54 613l0 -43M54 612l1 1 513 0 0 -165M568 449l13 0 0 -9 1 165M582 613l0 -8M582 613l12 0M594 614l0 -1 53 0 0 -165M647 449l14 0M661 613l0 -173M661 613l39 0M700 615l0 -168"/>
<path stroke="#A52A2A" d="M700 449l13 0 0 -7 1 149M714 613l0 -22M714 613l13 0 0 -165M727 449l13 0M740 613l0 -173M740 613l13 0 0 -141 1 -23 0 -1M754 449l12 0M766 613l0 -173M766 613l94 0 0 -164 12 0M872 614l0 -169M872 613l14 0 0 -158 1 -7M887 449l0 -1"/>
<path stroke="#A52A2A" d="M887 449l11 0M898 614l0 -169M898 613l15 0 0 -165M913 449l12 0M925 614l0 -169M925 613l49 0"/>
</svg>
