<?xml version="1.0" standalone="yes"?>
<!DOCTYPE svg PUBLIC "-//W3C//DTD SVG 1.1//EN"
 "http://www.w3.org/Graphics/SVG/1.1/DTD/svg11.dtd">
<svg xmlns="http://www.w3.org/2000/svg" version="1.1"
  width="100%" height="100%" viewBox="0 0 1024 768"
  style="fill: none; font-family: Helvetica;
 font: Helvetica;
">

<!-- Creator: NGspice -->

<rect x="0" y="0" width="1024" height="768" fill="black" stroke="none"/>
<text stroke="none" fill="white" font-size="16" x="358" y="752">
time
</text>
<text stroke="none" fill="white" font-size="16" x="10" y="16">
tran1: run1251_vin0.19995
</text>
<path stroke="white" d="M50 704l0 -637"/>
<text stroke="none" fill="white" font-size="16" x="35" y="728">
0.0
</text>
<path stroke="white" stroke-dasharray="1,2" d="M182 704l0 -637"/>
<text stroke="none" fill="white" font-size="16" x="157" y="728">
100.0
</text>
<path stroke="white" stroke-dasharray="1,2" d="M314 704l0 -637"/>
<text stroke="none" fill="white" font-size="16" x="289" y="728">
200.0
</text>
<path stroke="white" stroke-dasharray="1,2" d="M446 704l0 -637"/>
<text stroke="none" fill="white" font-size="16" x="421" y="728">
300.0
</text>
<path stroke="white" stroke-dasharray="1,2" d="M578 704l0 -637"/>
<text stroke="none" fill="white" font-size="16" x="553" y="728">
400.0
</text>
<path stroke="white" stroke-dasharray="1,2" d="M710 704l0 -637"/>
<text stroke="none" fill="white" font-size="16" x="685" y="728">
500.0
</text>
<path stroke="white" stroke-dasharray="1,2" d="M842 704l0 -637"/>
<text stroke="none" fill="white" font-size="16" x="817" y="728">
600.0
</text>
<path stroke="white" stroke-dasharray="1,2" d="M974 704l0 -637"/>
<text stroke="none" fill="white" font-size="16" x="949" y="728">
700.0
</text>
<text stroke="none" fill="white" font-size="16" x="614" y="752">
ns
</text>
<path stroke="white" stroke-dasharray="1,2" d="M50 704l924 0"/>
<text stroke="none" fill="white" font-size="16" x="8" y="712">
-2.5
</text>
<path stroke="white" stroke-dasharray="1,2" d="M50 655l924 0"/>
<text stroke="none" fill="white" font-size="16" x="8" y="663">
-2.0
</text>
<path stroke="white" stroke-dasharray="1,2" d="M50 606l924 0"/>
<text stroke="none" fill="white" font-size="16" x="8" y="614">
-1.5
</text>
<path stroke="white" stroke-dasharray="1,2" d="M50 557l924 0"/>
<text stroke="none" fill="white" font-size="16" x="8" y="565">
-1.0
</text>
<path stroke="white" stroke-dasharray="1,2" d="M50 508l924 0"/>
<text stroke="none" fill="white" font-size="16" x="8" y="516">
-0.5
</text>
<path stroke="white" d="M50 459l924 0"/>
<text stroke="none" fill="white" font-size="16" x="18" y="467">
0.0
</text>
<path stroke="white" stroke-dasharray="1,2" d="M50 410l924 0"/>
<text stroke="none" fill="white" font-size="16" x="18" y="418">
0.5
</text>
<path stroke="white" stroke-dasharray="1,2" d="M50 361l924 0"/>
<text stroke="none" fill="white" font-size="16" x="18" y="369">
1.0
</text>
<path stroke="white" stroke-dasharray="1,2" d="M50 312l924 0"/>
<text stroke="none" fill="white" font-size="16" x="18" y="320">
1.5
</text>
<path stroke="white" stroke-dasharray="1,2" d="M50 263l924 0"/>
<text stroke="none" fill="white" font-size="16" x="18" y="271">
2.0
</text>
<path stroke="white" stroke-dasharray="1,2" d="M50 214l924 0"/>
<text stroke="none" fill="white" font-size="16" x="18" y="222">
2.5
</text>
<path stroke="white" stroke-dasharray="1,2" d="M50 165l924 0"/>
<text stroke="none" fill="white" font-size="16" x="18" y="173">
3.0
</text>
<path stroke="white" stroke-dasharray="1,2" d="M50 116l924 0"/>
<text stroke="none" fill="white" font-size="16" x="18" y="124">
3.5
</text>
<path stroke="white" stroke-dasharray="1,2" d="M50 67l924 0"/>
<text stroke="none" fill="white" font-size="16" x="18" y="75">
4.0
</text>
<text stroke="none" fill="white" font-size="16" x="10" y="32">
     
</text>
<path stroke="red" d="M462 23l46 0"/>
<text stroke="none" fill="white" font-size="16" x="518" y="32">
x1.vsampled_p
</text>
<path stroke="red" d="M50 459l1 0 1 -7 0 -17 1 -15 0 -5 1 1M54 441l0 -41 1 -6 0 -15 1 -3 0 -2 1 -2 1 0 0 -1 59 0 0 -1 1 -6 0 -8 1 -3 2 -2 419 0M540 352l0 -1M540 352l1 -1M541 352l0 -1M541 352l5 0 0 -1 1 1 7 0 0 -1 12 0 1 1 0 -1M567 352l13 0 0 -1"/>
<path stroke="red" d="M580 351l13 0M593 352l0 -1M593 352l7 0M600 369l0 -18M600 369l1 3M601 377l0 -5M601 375l1 0 0 -1 1 0 1 -1 15 0M619 374l0 -1M619 374l1 0 0 -1 6 0 0 -17 1 -1 0 -1 19 0M646 355l0 -1 7 0M653 366l0 -12M653 366l1 1 0 -1 1 0 0 -1"/>
<path stroke="red" d="M655 365l17 0M672 366l0 -1 7 0M679 370l0 -5M679 370l1 1M680 373l0 -2 133 0M813 372l0 -1 25 0 0 -1 1 0M839 371l0 -1M839 371l78 0 1 1 0 -15 1 -2 0 -4 4 0M923 352l0 -1 13 0M936 352l0 -1M936 352l14 0 0 -1 24 0"/>
<path stroke="blue" d="M50 23l46 0"/>
<text stroke="none" fill="white" font-size="16" x="106" y="32">
x1.vsampled_n
</text>
<path stroke="blue" d="M50 459l1 0 1 -7 0 -17 1 -15 0 -5 1 2M54 442l0 -42 1 -6 0 -15 1 -3 0 -2 1 -2 1 0 0 -1 59 0M117 374l0 -3M117 374l1 5M118 386l0 -7M118 386l1 3 1 1 419 0M539 391l0 -1M539 391l1 0 1 -1M541 391l0 -1M541 391l5 0 0 -22 1 -3 0 -29"/>
<path stroke="blue" d="M547 337l1 -6 0 -3 1 -2 0 -1 5 0 0 -1 12 0 1 1M567 326l0 -1 7 0M574 356l0 -31M574 356l1 4M575 370l0 -10M575 370l1 1 0 -1 1 -1 3 0 0 -1M580 369l13 0 0 -1M593 369l13 0 0 -1 1 0M607 369l0 -1M607 369l12 0 0 -1M619 369l14 0"/>
<path stroke="blue" d="M633 369l0 -1M633 369l13 0 0 -1M646 369l13 0 0 -1 1 0M660 369l0 -1M660 369l12 0 0 -1M672 369l14 0 0 -1M686 369l12 0 0 -1M698 369l8 0M706 373l0 -4M706 373l1 -1 0 -1 18 0M725 372l0 -1 7 0 0 -3 1 0M733 369l0 -1M733 369l26 0"/>
<path stroke="blue" d="M759 372l0 -3M759 370l19 0M778 371l0 -1 8 0M786 372l0 -2M786 371l132 0M918 393l0 -23M918 393l1 1 0 -3 4 0 0 -1M923 391l27 0 0 -1M950 391l11 0 0 -1 13 0"/>
<path stroke="#FFA500" d="M462 39l46 0"/>
<text stroke="none" fill="white" font-size="16" x="518" y="48">
x1.vsampled_p-x1.vsampled_n
</text>
<path stroke="#FFA500" d="M50 459l67 0 0 -3 1 -12 0 -16 1 -4 1 -3 1 -1 425 0M546 442l0 -22M546 442l1 3M547 474l0 -29M547 474l1 5M548 483l0 -4M548 483l1 1M549 485l0 -1M549 485l1 1 17 0 0 -1M567 486l7 0 0 -31 1 -5 0 -10 1 0M576 441l0 -1M576 441l1 1"/>
<path stroke="#FFA500" d="M577 442l23 0M600 459l0 -17M600 459l1 3M601 467l0 -5M601 466l1 -1 0 -1 24 0 0 -18 1 -1 0 -1 1 0 1 1 4 0 0 -1M633 445l13 0 0 -1M646 445l7 0M653 456l0 -11M653 456l1 1 0 -1 18 0 0 -1M672 456l7 0M679 461l0 -5M679 461l1 0"/>
<path stroke="#FFA500" d="M680 463l0 -2M680 462l1 -1 25 0 0 -4 1 0M707 458l0 -1M707 458l25 0M732 462l0 -4M732 462l1 -1 26 0 0 -3M759 459l27 0 0 -1M786 459l27 0M813 460l0 -1 25 0 0 -1 1 0M839 459l0 -1M839 459l78 0 1 1M918 461l0 -38 1 -3 0 -2M919 419l1 0"/>
<path stroke="#FFA500" d="M920 419l1 1 15 0M936 421l0 -1 38 0"/>
<path stroke="green" d="M50 39l46 0"/>
<text stroke="none" fill="white" font-size="16" x="106" y="48">
x1.sw_sample-2
</text>
<path stroke="green" d="M50 655l1 0 1 -10 0 -23 1 -21M53 621l0 -27M53 621l1 31M54 655l0 -3M54 655l63 0M117 662l0 -184 1 0M118 479l0 -1M118 479l421 0M539 656l0 -184M539 655l422 0M961 660l0 -182 1 0M962 479l0 -1 1 1 11 0"/>
<path stroke="#FFC0C5" d="M462 55l46 0"/>
<text stroke="none" fill="white" font-size="16" x="518" y="64">
x1.comp_out_p+2
</text>
<path stroke="#FFC0C5" d="M50 263l1 0 1 -10 0 -23 1 -20 0 -4M53 209l1 4M54 263l0 -50M54 263l488 0 0 -178M542 87l13 0M555 263l0 -185M555 263l39 0M594 264l0 -179M594 86l1 1 13 0M608 263l0 -185M608 263l39 0 0 -178M647 87l14 0M661 263l0 -186M661 263l12 0"/>
<path stroke="#FFC0C5" d="M673 263l1 -24 0 -154M674 87l13 0M687 263l0 -185M687 263l41 0 0 -178M728 87l12 0M740 263l0 -184M740 263l67 0 0 -177 1 0M808 87l0 -1M808 87l11 0M819 264l0 -184M819 263l40 0 1 -169 0 -9M860 87l12 0M872 263l0 -179M872 263l14 0"/>
<path stroke="#FFC0C5" d="M886 263l0 -159 1 -18M887 87l0 -1M887 87l11 0M898 263l0 -179M898 263l15 0 0 -177M913 87l12 0M925 263l0 -186M925 263l12 0 1 -65 0 -113M938 87l13 0M951 264l0 -180M951 263l23 0"/>
<path stroke="#A52A2A" d="M50 55l46 0"/>
<text stroke="none" fill="white" font-size="16" x="106" y="64">
x1.comp_out_n-2
</text>
<path stroke="#A52A2A" d="M50 655l1 0 1 -10 0 -24 1 -20M53 602l0 -3M53 602l1 7M54 655l0 -46M54 655l514 0M568 656l0 -180M568 479l13 0 0 -10 1 175M582 655l0 -11M582 655l12 0M594 656l0 -1 27 0M621 657l0 -180M621 479l13 0M634 655l0 -185M634 655l66 0"/>
<path stroke="#A52A2A" d="M700 655l0 -178M700 478l1 1 12 0 0 -11 1 161M714 655l0 -26M714 655l39 0 0 -178M753 479l13 0M766 656l0 -182M766 655l14 0 0 -177 1 0M781 479l0 -1M781 479l12 0M793 655l0 -187M793 655l41 0 0 -177M834 479l11 0 0 -12 1 165"/>
<path stroke="#A52A2A" d="M846 655l0 -23M846 655l128 0"/>
</svg>
