<?xml version="1.0" standalone="yes"?>
<!DOCTYPE svg PUBLIC "-//W3C//DTD SVG 1.1//EN"
 "http://www.w3.org/Graphics/SVG/1.1/DTD/svg11.dtd">
<svg xmlns="http://www.w3.org/2000/svg" version="1.1"
  width="100%" height="100%" viewBox="0 0 1024 768"
  style="fill: none; font-family: Helvetica;
 font: Helvetica;
">

<!-- Creator: NGspice -->

<rect x="0" y="0" width="1024" height="768" fill="black" stroke="none"/>
<text stroke="none" fill="white" font-size="16" x="358" y="752">
time
</text>
<text stroke="none" fill="white" font-size="16" x="10" y="16">
tran1: run1254_vin0.202586
</text>
<path stroke="white" d="M50 704l0 -637"/>
<text stroke="none" fill="white" font-size="16" x="35" y="728">
0.0
</text>
<path stroke="white" stroke-dasharray="1,2" d="M182 704l0 -637"/>
<text stroke="none" fill="white" font-size="16" x="157" y="728">
100.0
</text>
<path stroke="white" stroke-dasharray="1,2" d="M314 704l0 -637"/>
<text stroke="none" fill="white" font-size="16" x="289" y="728">
200.0
</text>
<path stroke="white" stroke-dasharray="1,2" d="M446 704l0 -637"/>
<text stroke="none" fill="white" font-size="16" x="421" y="728">
300.0
</text>
<path stroke="white" stroke-dasharray="1,2" d="M578 704l0 -637"/>
<text stroke="none" fill="white" font-size="16" x="553" y="728">
400.0
</text>
<path stroke="white" stroke-dasharray="1,2" d="M710 704l0 -637"/>
<text stroke="none" fill="white" font-size="16" x="685" y="728">
500.0
</text>
<path stroke="white" stroke-dasharray="1,2" d="M842 704l0 -637"/>
<text stroke="none" fill="white" font-size="16" x="817" y="728">
600.0
</text>
<path stroke="white" stroke-dasharray="1,2" d="M974 704l0 -637"/>
<text stroke="none" fill="white" font-size="16" x="949" y="728">
700.0
</text>
<text stroke="none" fill="white" font-size="16" x="614" y="752">
ns
</text>
<path stroke="white" stroke-dasharray="1,2" d="M50 704l924 0"/>
<text stroke="none" fill="white" font-size="16" x="8" y="712">
-3.0
</text>
<path stroke="white" stroke-dasharray="1,2" d="M50 613l924 0"/>
<text stroke="none" fill="white" font-size="16" x="8" y="621">
-2.0
</text>
<path stroke="white" stroke-dasharray="1,2" d="M50 522l924 0"/>
<text stroke="none" fill="white" font-size="16" x="8" y="530">
-1.0
</text>
<path stroke="white" d="M50 431l924 0"/>
<text stroke="none" fill="white" font-size="16" x="18" y="439">
0.0
</text>
<path stroke="white" stroke-dasharray="1,2" d="M50 340l924 0"/>
<text stroke="none" fill="white" font-size="16" x="18" y="348">
1.0
</text>
<path stroke="white" stroke-dasharray="1,2" d="M50 249l924 0"/>
<text stroke="none" fill="white" font-size="16" x="18" y="257">
2.0
</text>
<path stroke="white" stroke-dasharray="1,2" d="M50 158l924 0"/>
<text stroke="none" fill="white" font-size="16" x="18" y="166">
3.0
</text>
<path stroke="white" stroke-dasharray="1,2" d="M50 67l924 0"/>
<text stroke="none" fill="white" font-size="16" x="18" y="75">
4.0
</text>
<text stroke="none" fill="white" font-size="16" x="10" y="32">
     
</text>
<path stroke="red" d="M462 23l46 0"/>
<text stroke="none" fill="white" font-size="16" x="518" y="32">
x1.vsampled_p
</text>
<path stroke="red" d="M50 431l1 0 1 -7 0 -15 1 -15 0 -4 1 1M54 415l0 -39 1 -5 0 -14 1 -3 0 -2 1 -2 2 0 1 -1 4 0M64 350l0 -1M64 350l4 0 1 -1 48 0 1 -6 0 -8 1 -2 1 -1 0 -1 420 0M540 332l0 -1 14 0 0 -1M554 331l13 0M567 332l0 -1 26 0M593 332l0 -1"/>
<path stroke="red" d="M593 331l7 0M600 346l0 -15M600 346l1 3M601 354l0 -5M601 353l1 0 0 -1 1 0 0 -1 16 0M619 352l0 -1M619 352l1 0 0 -1 6 0 0 -17 1 0 0 -1 3 0 1 1 2 0 0 -1 13 0M646 334l0 -1M646 334l7 0M653 344l0 -11M653 344l1 1 0 -1 5 0 0 -1M659 344l20 0"/>
<path stroke="red" d="M679 348l0 -4M679 348l1 1M680 351l0 -2 132 0M812 350l0 -1 106 0M918 350l0 -7 1 -1 0 -10 1 -1 16 0M936 332l0 -1 38 0"/>
<path stroke="blue" d="M50 23l46 0"/>
<text stroke="none" fill="white" font-size="16" x="106" y="32">
x1.vsampled_n
</text>
<path stroke="blue" d="M50 431l1 0 1 -7 0 -15 1 -14 0 -5 1 2M54 415l0 -39 1 -5 0 -14 1 -3 0 -2 1 -2 2 0 1 -1 4 0M64 350l0 -1M64 350l4 0 1 -1 48 0M117 352l0 -3M117 352l1 5M118 364l0 -7M118 364l1 2 1 1 2 0M122 368l0 -1M122 368l419 0 0 -1M541 368l5 0"/>
<path stroke="blue" d="M546 368l0 -25 1 -3 0 -21 1 -5 0 -4 1 -2 0 -1 2 0 1 -1 14 0 1 1M567 308l0 -2 7 0M574 335l0 -29M574 335l1 4M575 349l0 -10M575 349l1 0 0 -1 1 0 1 -1 15 0M593 348l0 -1 26 0M619 348l0 -1 27 0M646 348l0 -1 26 0M672 348l0 -1"/>
<path stroke="blue" d="M672 347l27 0M699 348l0 -1 7 0M706 351l0 -4M706 351l1 0 0 -1 25 0 0 -4M732 347l1 0M733 348l0 -1M733 348l5 0 0 -1 1 0M739 348l0 -1M739 348l20 0M759 350l0 -2M759 349l27 0 1 1 4 0 0 -1 13 0M804 350l0 -1 1 0M805 350l0 -1M805 350l13 0"/>
<path stroke="blue" d="M818 350l0 -1 12 0 1 1 0 -1M831 350l7 0 0 -1 19 0M857 350l0 -1 26 0M883 350l0 -1 27 0M910 350l0 -1 8 0M918 360l0 -11M918 360l1 2M919 371l0 -9M919 370l1 -1 0 -1 42 0 0 -1 1 0M963 368l0 -1M963 368l11 0"/>
<path stroke="#FFA500" d="M462 39l46 0"/>
<text stroke="none" fill="white" font-size="16" x="518" y="48">
x1.vsampled_p-x1.vsampled_n
</text>
<path stroke="#FFA500" d="M50 431l67 0 0 -3 1 -11 0 -15 1 -4 1 -2 0 -1 1 -1 419 0M540 395l0 -1 6 0M546 419l0 -25M546 419l1 3M547 443l0 -21M547 443l1 5M548 452l0 -4M548 452l1 2M549 455l0 -1M549 455l5 0M554 456l0 -1 1 0M555 456l0 -1 11 0M566 456l0 -1"/>
<path stroke="#FFA500" d="M566 455l1 0M567 456l0 -1 7 0 0 -28 1 -4 0 -10 1 0M576 414l0 -1M576 414l1 0 1 1 2 0 0 -1M580 415l13 0 0 -1M593 415l7 0M600 430l0 -16M600 430l1 3M601 438l0 -5M601 437l2 -2 22 0 1 -1 0 -16 1 -1 26 0M653 428l0 -11M653 428l1 1"/>
<path stroke="#FFA500" d="M654 429l0 -1 1 0 1 -1 23 0M679 432l0 -5M679 432l1 1M680 434l0 -1 2 0 0 -1 4 0M686 433l0 -1 12 0M698 433l0 -1 1 0M699 433l0 -1 7 0M706 433l0 -4 1 0M707 430l0 -1M707 430l25 0M732 433l0 -3M732 433l1 -1 26 0 0 -2M759 431l27 0"/>
<path stroke="#FFA500" d="M786 431l1 -1 25 0M812 431l0 -1M812 431l106 0M918 432l0 -19 1 -2 0 -18 1 0 1 1 15 0M936 395l0 -1 38 0"/>
<path stroke="green" d="M50 39l46 0"/>
<text stroke="none" fill="white" font-size="16" x="106" y="48">
x1.sw_sample-2
</text>
<path stroke="green" d="M50 613l1 0 1 -9 0 -21 1 -21M53 581l0 -25M53 581l1 29M54 613l0 -3M54 613l63 0M117 620l0 -172M117 449l422 0M539 614l0 -171M539 613l422 0M961 618l0 -170 1 1 12 0"/>
<path stroke="#FFC0C5" d="M462 55l46 0"/>
<text stroke="none" fill="white" font-size="16" x="518" y="64">
x1.comp_out_p+2
</text>
<path stroke="#FFC0C5" d="M50 249l1 0 1 -9 0 -22 1 -18 0 -4M53 198l1 5M54 249l0 -46M54 249l487 0 1 1 0 -166M542 85l13 0M555 250l0 -172M555 249l39 0 0 -165M594 85l14 0M608 249l0 -171M608 249l39 0 0 -165M647 85l14 0M661 249l0 -172M661 249l12 0"/>
<path stroke="#FFC0C5" d="M673 250l0 -1M673 250l1 -56 0 -110M674 85l13 0M687 249l0 -171M687 249l40 0 0 -149 1 -15 0 -1M728 85l12 0M740 249l0 -172M740 249l66 0 1 -156 0 -9M807 85l12 0M819 250l0 -174M819 249l14 0 1 -157 0 -8M834 85l11 0 0 -10 1 152"/>
<path stroke="#FFC0C5" d="M846 249l0 -22M846 249l14 0 0 -164 1 -1M861 85l0 -1M861 85l11 0M872 249l0 -174M872 249l14 0 1 -149 0 -16M887 85l11 0M898 249l0 -174M898 249l15 0 0 -165M913 85l12 0M925 249l0 -172M925 249l12 0M937 251l0 -2M937 251l1 -103"/>
<path stroke="#FFC0C5" d="M938 148l0 -65M938 85l13 0M951 250l0 -167M951 249l23 0"/>
<path stroke="#A52A2A" d="M50 55l46 0"/>
<text stroke="none" fill="white" font-size="16" x="106" y="64">
x1.comp_out_n-2
</text>
<path stroke="#A52A2A" d="M50 613l1 0 1 -9 0 -22 1 -19M53 564l0 -3M53 564l1 6M54 613l0 -43M54 613l514 0M568 618l0 -171M568 449l13 0 0 -9 1 162M582 613l0 -11M582 613l39 0 0 -165M621 449l13 0M634 613l0 -173M634 613l66 0 0 -165M700 449l13 0 0 -8"/>
<path stroke="#A52A2A" d="M713 441l1 155M714 613l0 -17M714 613l39 0 0 -165M753 449l13 0M766 613l0 -173M766 613l15 0M781 614l0 -166M781 449l12 0M793 613l0 -168M793 613l181 0"/>
</svg>
