<?xml version="1.0" standalone="yes"?>
<!DOCTYPE svg PUBLIC "-//W3C//DTD SVG 1.1//EN"
 "http://www.w3.org/Graphics/SVG/1.1/DTD/svg11.dtd">
<svg xmlns="http://www.w3.org/2000/svg" version="1.1"
  width="100%" height="100%" viewBox="0 0 1024 768"
  style="fill: none; font-family: Helvetica;
 font: Helvetica;
">

<!-- Creator: NGspice -->

<rect x="0" y="0" width="1024" height="768" fill="black" stroke="none"/>
<text stroke="none" fill="white" font-size="16" x="358" y="752">
time
</text>
<text stroke="none" fill="white" font-size="16" x="10" y="16">
tran1: run1252_vin0.200829
</text>
<path stroke="white" d="M50 704l0 -637"/>
<text stroke="none" fill="white" font-size="16" x="35" y="728">
0.0
</text>
<path stroke="white" stroke-dasharray="1,2" d="M182 704l0 -637"/>
<text stroke="none" fill="white" font-size="16" x="157" y="728">
100.0
</text>
<path stroke="white" stroke-dasharray="1,2" d="M314 704l0 -637"/>
<text stroke="none" fill="white" font-size="16" x="289" y="728">
200.0
</text>
<path stroke="white" stroke-dasharray="1,2" d="M446 704l0 -637"/>
<text stroke="none" fill="white" font-size="16" x="421" y="728">
300.0
</text>
<path stroke="white" stroke-dasharray="1,2" d="M578 704l0 -637"/>
<text stroke="none" fill="white" font-size="16" x="553" y="728">
400.0
</text>
<path stroke="white" stroke-dasharray="1,2" d="M710 704l0 -637"/>
<text stroke="none" fill="white" font-size="16" x="685" y="728">
500.0
</text>
<path stroke="white" stroke-dasharray="1,2" d="M842 704l0 -637"/>
<text stroke="none" fill="white" font-size="16" x="817" y="728">
600.0
</text>
<path stroke="white" stroke-dasharray="1,2" d="M974 704l0 -637"/>
<text stroke="none" fill="white" font-size="16" x="949" y="728">
700.0
</text>
<text stroke="none" fill="white" font-size="16" x="614" y="752">
ns
</text>
<path stroke="white" stroke-dasharray="1,2" d="M50 704l924 0"/>
<text stroke="none" fill="white" font-size="16" x="8" y="712">
-3.0
</text>
<path stroke="white" stroke-dasharray="1,2" d="M50 613l924 0"/>
<text stroke="none" fill="white" font-size="16" x="8" y="621">
-2.0
</text>
<path stroke="white" stroke-dasharray="1,2" d="M50 522l924 0"/>
<text stroke="none" fill="white" font-size="16" x="8" y="530">
-1.0
</text>
<path stroke="white" d="M50 431l924 0"/>
<text stroke="none" fill="white" font-size="16" x="18" y="439">
0.0
</text>
<path stroke="white" stroke-dasharray="1,2" d="M50 340l924 0"/>
<text stroke="none" fill="white" font-size="16" x="18" y="348">
1.0
</text>
<path stroke="white" stroke-dasharray="1,2" d="M50 249l924 0"/>
<text stroke="none" fill="white" font-size="16" x="18" y="257">
2.0
</text>
<path stroke="white" stroke-dasharray="1,2" d="M50 158l924 0"/>
<text stroke="none" fill="white" font-size="16" x="18" y="166">
3.0
</text>
<path stroke="white" stroke-dasharray="1,2" d="M50 67l924 0"/>
<text stroke="none" fill="white" font-size="16" x="18" y="75">
4.0
</text>
<text stroke="none" fill="white" font-size="16" x="10" y="32">
     
</text>
<path stroke="red" d="M462 23l46 0"/>
<text stroke="none" fill="white" font-size="16" x="518" y="32">
x1.vsampled_p
</text>
<path stroke="red" d="M50 431l1 0 1 -7 0 -15 1 -15 0 -4 1 1M54 415l0 -39 1 -5 0 -14 1 -3 0 -2 1 -2 2 0 1 -1 4 0M64 350l0 -1M64 350l4 0 1 -1 48 0 1 -6 0 -8 1 -2 1 -1 0 -1 420 0M540 332l0 -1 27 0M567 332l0 -1 26 0M593 332l0 -1 7 0M600 346l0 -15"/>
<path stroke="red" d="M600 346l1 3M601 354l0 -5M601 353l1 0 0 -1 2 0 1 -1 14 0M619 352l0 -1M619 352l1 0 0 -1 6 0 0 -16 1 -1 0 -1 1 0 1 1 4 0 0 -1M633 334l20 0M653 343l0 -9M653 343l1 2 1 -1 24 0M679 349l0 -5M679 349l1 1M680 351l0 -2 132 0 1 1"/>
<path stroke="red" d="M813 350l0 -1 18 0M831 350l0 -1 26 0M857 350l0 -1 26 0M883 350l0 -1 27 0M910 350l0 -1 7 0 1 1 0 -16 1 -2 0 -1 17 0M936 332l0 -1 38 0"/>
<path stroke="blue" d="M50 23l46 0"/>
<text stroke="none" fill="white" font-size="16" x="106" y="32">
x1.vsampled_n
</text>
<path stroke="blue" d="M50 431l1 0 1 -7 0 -15 1 -14 0 -5 1 2M54 415l0 -39 1 -5 0 -14 1 -3 0 -2 1 -2 2 0 1 -1 4 0M64 350l0 -1M64 350l4 0 1 -1 48 0M117 352l0 -3M117 352l1 5M118 364l0 -7M118 364l1 2 1 1 419 0M539 368l0 -1M539 368l1 0 1 -1M541 368l0 -1"/>
<path stroke="blue" d="M541 368l5 0 0 -24 1 -2 0 -25 1 -5 0 -3 1 -1 0 -1 1 0 1 -1 15 0 1 1M567 308l0 -2 7 0M574 334l0 -28M574 334l1 4M575 349l0 -11M575 349l1 0 0 -1 1 0 0 -1 16 0M593 348l0 -1 26 0M619 348l0 -1 27 0M646 348l0 -1 26 0M672 348l0 -1"/>
<path stroke="blue" d="M672 347l27 0M699 348l0 -1 7 0M706 351l0 -4M706 351l1 -1 5 0 0 -1M712 350l20 0 0 -4 1 0M733 347l0 -1M733 347l18 0M751 348l0 -1M751 348l1 0 0 -1 7 0M759 350l0 -3M759 349l6 0 0 -1M765 349l21 0M786 350l0 -1 18 0M804 350l0 -1"/>
<path stroke="blue" d="M804 349l26 0 1 1 0 -1 86 0M917 350l0 -1 1 0M918 371l0 -23M918 371l1 -1 0 -2 4 0 0 -1 1 1 12 0 0 -1M936 368l14 0 0 -1M950 368l11 0 0 -1 13 0"/>
<path stroke="#FFA500" d="M462 39l46 0"/>
<text stroke="none" fill="white" font-size="16" x="518" y="48">
x1.vsampled_p-x1.vsampled_n
</text>
<path stroke="#FFA500" d="M50 431l67 0 0 -3 1 -11 0 -15 1 -4 1 -2 0 -1 2 0 1 -1 416 0M539 395l0 -1M539 395l1 0 0 -1M540 395l6 0M546 418l0 -24M546 418l1 2M547 445l0 -25M547 445l1 5M548 453l0 -3M548 453l1 1M549 455l0 -1M549 455l1 1 16 0 1 -1M567 456l0 -1"/>
<path stroke="#FFA500" d="M567 456l7 0 0 -28 1 -4 0 -11 1 0M576 414l0 -1M576 414l1 0M577 415l0 -1M577 415l23 0M600 430l0 -15M600 430l1 3M601 438l0 -5M601 437l1 0 0 -1 1 0 0 -1 22 0 1 -1 0 -15 1 -1 0 -1 2 0 1 1 3 0 0 -1 13 0M646 418l0 -1M646 418l7 0"/>
<path stroke="#FFA500" d="M653 427l0 -10M653 427l1 1M654 429l0 -1 25 0M679 433l0 -5M679 433l1 0M680 434l0 -1 26 0 0 -4 1 0M707 430l0 -1M707 430l25 0M732 434l0 -4M732 434l1 0 0 -1 1 0 1 -1 3 0M738 433l0 -1M738 433l1 0 0 -1 12 0M751 433l0 -1M751 433l1 -1"/>
<path stroke="#FFA500" d="M752 433l0 -1 7 0M759 433l0 -3M759 431l27 0 0 -1M786 431l52 0M838 432l0 -1 79 0 0 -1M917 431l1 1 0 -38 1 -1M919 394l0 -1M919 394l3 0M922 395l0 -1M922 395l1 0 0 -1 13 0M936 395l0 -1M936 395l14 0 0 -1 12 0M962 395l0 -1"/>
<path stroke="#FFA500" d="M962 394l12 0"/>
<path stroke="green" d="M50 39l46 0"/>
<text stroke="none" fill="white" font-size="16" x="106" y="48">
x1.sw_sample-2
</text>
<path stroke="green" d="M50 613l1 0 1 -9 0 -21 1 -21M53 581l0 -25M53 581l1 29M54 613l0 -3M54 613l63 0M117 620l0 -172M117 449l422 0M539 614l0 -171M539 613l422 0M961 618l0 -170 1 1 12 0"/>
<path stroke="#FFC0C5" d="M462 55l46 0"/>
<text stroke="none" fill="white" font-size="16" x="518" y="64">
x1.comp_out_p+2
</text>
<path stroke="#FFC0C5" d="M50 249l1 0 1 -9 0 -22 1 -18 0 -4M53 198l1 5M54 249l0 -46M54 249l488 0 0 -165M542 85l13 0M555 249l0 -172M555 249l39 0M594 251l0 -167M594 85l14 0M608 249l0 -171M608 249l39 0 0 -165M647 85l14 0M661 249l0 -172M661 249l12 0"/>
<path stroke="#FFC0C5" d="M673 249l1 1 0 -166M674 85l13 0M687 249l0 -172M687 249l41 0 0 -165M728 85l12 0M740 249l0 -171M740 249l67 0 0 -165M807 85l12 0M819 249l0 -171M819 249l15 0 0 -165M834 85l11 0 0 -9 1 140M846 249l0 -33M846 249l91 0 1 -57"/>
<path stroke="#FFC0C5" d="M938 192l0 -108M938 85l13 0M951 250l0 -167M951 249l23 0"/>
<path stroke="#A52A2A" d="M50 55l46 0"/>
<text stroke="none" fill="white" font-size="16" x="106" y="64">
x1.comp_out_n-2
</text>
<path stroke="#A52A2A" d="M50 613l1 0 1 -9 0 -22 1 -19M53 564l0 -3M53 564l1 6M54 613l0 -43M54 613l514 0M568 614l0 -167M568 449l13 0 0 -9 1 162M582 613l0 -11M582 613l39 0M621 614l0 -167M621 449l13 0M634 613l0 -172M634 613l40 0M674 614l0 -1 26 0"/>
<path stroke="#A52A2A" d="M700 613l0 -165M700 449l13 0M713 451l0 -4M713 451l1 152M714 613l0 -10M714 613l39 0 0 -165M753 449l13 0M766 613l0 -168M766 613l14 0 0 -163 1 -2M781 449l0 -1M781 449l12 0M793 613l0 -174M793 613l67 0 0 -165M860 449l12 0"/>
<path stroke="#A52A2A" d="M872 614l0 -169M872 613l14 0 0 -158 1 -7M887 449l0 -1M887 449l11 0M898 614l0 -169M898 613l14 0 1 -158 0 -7M913 449l12 0M925 613l0 -173M925 613l49 0"/>
</svg>
