<?xml version="1.0" standalone="yes"?>
<!DOCTYPE svg PUBLIC "-//W3C//DTD SVG 1.1//EN"
 "http://www.w3.org/Graphics/SVG/1.1/DTD/svg11.dtd">
<svg xmlns="http://www.w3.org/2000/svg" version="1.1"
  width="100%" height="100%" viewBox="0 0 1024 768"
  style="fill: none; font-family: Helvetica;
 font: Helvetica;
">

<!-- Creator: NGspice -->

<rect x="0" y="0" width="1024" height="768" fill="black" stroke="none"/>
<text stroke="none" fill="white" font-size="16" x="358" y="752">
time
</text>
<text stroke="none" fill="white" font-size="16" x="10" y="16">
tran1: run1179_vin0.136668
</text>
<path stroke="white" d="M50 704l0 -637"/>
<text stroke="none" fill="white" font-size="16" x="35" y="728">
0.0
</text>
<path stroke="white" stroke-dasharray="1,2" d="M182 704l0 -637"/>
<text stroke="none" fill="white" font-size="16" x="157" y="728">
100.0
</text>
<path stroke="white" stroke-dasharray="1,2" d="M314 704l0 -637"/>
<text stroke="none" fill="white" font-size="16" x="289" y="728">
200.0
</text>
<path stroke="white" stroke-dasharray="1,2" d="M446 704l0 -637"/>
<text stroke="none" fill="white" font-size="16" x="421" y="728">
300.0
</text>
<path stroke="white" stroke-dasharray="1,2" d="M578 704l0 -637"/>
<text stroke="none" fill="white" font-size="16" x="553" y="728">
400.0
</text>
<path stroke="white" stroke-dasharray="1,2" d="M710 704l0 -637"/>
<text stroke="none" fill="white" font-size="16" x="685" y="728">
500.0
</text>
<path stroke="white" stroke-dasharray="1,2" d="M842 704l0 -637"/>
<text stroke="none" fill="white" font-size="16" x="817" y="728">
600.0
</text>
<path stroke="white" stroke-dasharray="1,2" d="M974 704l0 -637"/>
<text stroke="none" fill="white" font-size="16" x="949" y="728">
700.0
</text>
<text stroke="none" fill="white" font-size="16" x="614" y="752">
ns
</text>
<path stroke="white" stroke-dasharray="1,2" d="M50 704l924 0"/>
<text stroke="none" fill="white" font-size="16" x="8" y="712">
-3.0
</text>
<path stroke="white" stroke-dasharray="1,2" d="M50 613l924 0"/>
<text stroke="none" fill="white" font-size="16" x="8" y="621">
-2.0
</text>
<path stroke="white" stroke-dasharray="1,2" d="M50 522l924 0"/>
<text stroke="none" fill="white" font-size="16" x="8" y="530">
-1.0
</text>
<path stroke="white" d="M50 431l924 0"/>
<text stroke="none" fill="white" font-size="16" x="18" y="439">
0.0
</text>
<path stroke="white" stroke-dasharray="1,2" d="M50 340l924 0"/>
<text stroke="none" fill="white" font-size="16" x="18" y="348">
1.0
</text>
<path stroke="white" stroke-dasharray="1,2" d="M50 249l924 0"/>
<text stroke="none" fill="white" font-size="16" x="18" y="257">
2.0
</text>
<path stroke="white" stroke-dasharray="1,2" d="M50 158l924 0"/>
<text stroke="none" fill="white" font-size="16" x="18" y="166">
3.0
</text>
<path stroke="white" stroke-dasharray="1,2" d="M50 67l924 0"/>
<text stroke="none" fill="white" font-size="16" x="18" y="75">
4.0
</text>
<text stroke="none" fill="white" font-size="16" x="10" y="32">
     
</text>
<path stroke="red" d="M462 23l46 0"/>
<text stroke="none" fill="white" font-size="16" x="518" y="32">
x1.vsampled_p
</text>
<path stroke="red" d="M50 431l1 0 1 -7 0 -15 1 -15 0 -4 1 1M54 415l0 -39 1 -5 0 -15 1 -2 0 -2 1 -2 2 0 1 -1 4 0M64 350l0 -1M64 350l4 0 1 -1 48 0 1 -4 0 -4 1 -2 0 -1 1 -1 434 0 0 -1M554 337l13 0M567 338l0 -1 33 0M600 353l0 -16M600 353l1 3M601 360l0 -4"/>
<path stroke="red" d="M601 360l1 -2 1 0 0 -1 16 0M619 358l0 -1 6 0 0 -9 1 -1 0 -7 1 -1 19 0M646 340l0 -1 7 0M653 348l0 -9M653 348l1 3 0 -1 5 0 0 -1M659 350l27 0 0 -1M686 350l26 0 0 -1M712 350l20 0 0 -3 19 0M751 348l0 -1M751 348l1 0 0 -1 7 0M759 350l0 -3"/>
<path stroke="red" d="M759 349l27 0M786 350l0 -1 18 0M804 350l0 -1 27 0M831 350l0 -1 86 0M917 351l0 -2M917 351l1 -1 0 -9 1 -1 0 -3 55 0"/>
<path stroke="blue" d="M50 23l46 0"/>
<text stroke="none" fill="white" font-size="16" x="106" y="32">
x1.vsampled_n
</text>
<path stroke="blue" d="M50 431l1 0 1 -7 0 -15 1 -14 0 -5 1 2M54 415l0 -39 1 -5 0 -15 1 -2 0 -2 1 -2 2 0 1 -1 4 0M64 350l0 -1M64 350l4 0 1 -1 48 0M117 351l0 -2M117 351l1 3M118 357l0 -3M118 357l1 2M119 361l0 -2M119 361l3 0M122 362l0 -1M122 362l424 0"/>
<path stroke="blue" d="M546 362l0 -24 1 -1 0 -24 1 -6 0 -3 1 -2 0 -1 3 0 0 -1 14 0 1 1M567 302l0 -2M567 301l2 0 0 -1 5 0M574 328l0 -28M574 328l1 8M575 343l0 -7M575 343l1 0 0 -1 1 0 1 -1 15 0M593 342l0 -1 26 0M619 342l0 -1 27 0M646 342l0 -1 26 0"/>
<path stroke="blue" d="M672 342l0 -1 7 0M679 348l0 -7M679 348l1 1 0 -2 1 0 0 -1 17 0 1 1 0 -1 7 0M706 350l0 -4M706 350l1 -1 105 0M812 350l0 -1M812 350l1 -1 18 0M831 350l0 -1 26 0M857 350l0 -1 26 0M883 350l0 -1 27 0M910 350l0 -1 7 0 0 -3 1 -2"/>
<path stroke="blue" d="M918 364l0 -21M918 364l1 0 0 -1 1 -1 42 0 0 -1 1 0M963 362l0 -1M963 362l11 0"/>
<path stroke="#FFA500" d="M462 39l46 0"/>
<text stroke="none" fill="white" font-size="16" x="518" y="48">
x1.vsampled_p-x1.vsampled_n
</text>
<path stroke="#FFA500" d="M50 431l67 0 0 -2 1 -8 0 -6 1 -4 0 -3 2 -2 425 0M546 430l0 -24M546 430l1 1M547 455l0 -24M547 455l1 6M548 464l0 -3M548 464l1 2 1 1 4 0M554 468l0 -1 12 0M566 468l0 -1 1 0M567 468l0 -2M567 467l7 0 0 -27 1 -8 0 -7 1 0M576 426l0 -1"/>
<path stroke="#FFA500" d="M576 426l2 0M578 427l0 -1M578 427l15 0 0 -1M593 427l7 0M600 442l0 -16M600 442l1 3M601 450l0 -5M601 449l2 -2 22 0 0 -9 1 -1 0 -8 27 0M653 438l0 -9M653 438l1 2M654 441l0 -1 1 0 0 -1 4 0M659 440l0 -1 13 0M672 440l0 -1 7 0"/>
<path stroke="#FFA500" d="M679 439l0 -6 1 -1M680 434l0 -2M680 434l26 0 0 -3 1 0M707 432l0 -1M707 432l25 0 0 -3 20 0M752 430l0 -1 7 0M759 432l0 -3M759 431l27 0M786 432l0 -1 26 0 0 -1M812 431l26 0 0 -1 1 1 78 0M917 436l0 -5M917 436l1 1 0 -29 1 -1"/>
<path stroke="#FFA500" d="M919 407l0 -2 1 1 16 0M936 407l0 -1 38 0"/>
<path stroke="green" d="M50 39l46 0"/>
<text stroke="none" fill="white" font-size="16" x="106" y="48">
x1.sw_sample-2
</text>
<path stroke="green" d="M50 613l1 0 1 -9 0 -21 1 -21M53 581l0 -25M53 581l1 29M54 613l0 -3M54 613l63 0M117 620l0 -172M117 449l422 0M539 614l0 -171M539 613l422 0M961 618l0 -170 1 1 12 0"/>
<path stroke="#FFC0C5" d="M462 55l46 0"/>
<text stroke="none" fill="white" font-size="16" x="518" y="64">
x1.comp_out_p+2
</text>
<path stroke="#FFC0C5" d="M50 249l1 0 1 -9 0 -22 1 -18 0 -4M53 198l1 5M54 249l0 -46M54 249l487 0 1 2 0 -168M542 85l13 0M555 250l0 -174M555 249l39 0M594 251l0 -168M594 85l14 0M608 250l0 -174M608 249l39 0M647 255l0 -172M647 85l14 0M661 249l0 -172"/>
<path stroke="#FFC0C5" d="M661 249l92 0M753 251l0 -167M753 85l13 0M766 249l0 -168M766 249l14 0 0 -156 1 -9M781 85l0 -1M781 85l12 0M793 250l0 -174M793 249l67 0 0 -165M860 85l12 0M872 250l0 -169M872 249l14 0 0 -164 1 -1M887 85l0 -1M887 85l11 0"/>
<path stroke="#FFC0C5" d="M898 249l0 -172M898 249l14 0 1 -157 0 -8M913 85l12 0M925 249l0 -171M925 249l12 0M937 250l0 -1M937 250l1 -84 0 -83M938 85l13 0M951 250l0 -174M951 249l23 0"/>
<path stroke="#A52A2A" d="M50 55l46 0"/>
<text stroke="none" fill="white" font-size="16" x="106" y="64">
x1.comp_out_n-2
</text>
<path stroke="#A52A2A" d="M50 613l1 0 1 -9 0 -22 1 -19M53 564l0 -3M53 564l1 6M54 613l0 -43M54 613l514 0M568 614l0 -167M568 449l13 0 0 -7 1 147M582 613l0 -24M582 613l39 0 0 -166M621 449l13 0M634 613l0 -173M634 613l39 0M673 620l0 -7M673 620l1 -144"/>
<path stroke="#A52A2A" d="M674 476l0 -29M674 449l13 0M687 613l0 -173M687 613l13 0 0 -165M700 449l13 0 0 -4 1 34M714 613l0 -134M714 613l13 0 1 -157 0 -8M728 449l12 0M740 613l0 -172M740 613l67 0 0 -164 12 0M819 613l0 -172M819 613l15 0 0 -165M834 449l11 0"/>
<path stroke="#A52A2A" d="M845 449l0 -10 1 153M846 613l0 -21M846 613l128 0"/>
</svg>
