<?xml version="1.0" standalone="yes"?>
<!DOCTYPE svg PUBLIC "-//W3C//DTD SVG 1.1//EN"
 "http://www.w3.org/Graphics/SVG/1.1/DTD/svg11.dtd">
<svg xmlns="http://www.w3.org/2000/svg" version="1.1"
  width="100%" height="100%" viewBox="0 0 1024 768"
  style="fill: none; font-family: Helvetica;
 font: Helvetica;
">

<!-- Creator: NGspice -->

<rect x="0" y="0" width="1024" height="768" fill="black" stroke="none"/>
<text stroke="none" fill="white" font-size="16" x="358" y="752">
time
</text>
<text stroke="none" fill="white" font-size="16" x="10" y="16">
tran1: run506_vin-0.454835
</text>
<path stroke="white" d="M50 704l0 -637"/>
<text stroke="none" fill="white" font-size="16" x="35" y="728">
0.0
</text>
<path stroke="white" stroke-dasharray="1,2" d="M182 704l0 -637"/>
<text stroke="none" fill="white" font-size="16" x="157" y="728">
100.0
</text>
<path stroke="white" stroke-dasharray="1,2" d="M314 704l0 -637"/>
<text stroke="none" fill="white" font-size="16" x="289" y="728">
200.0
</text>
<path stroke="white" stroke-dasharray="1,2" d="M446 704l0 -637"/>
<text stroke="none" fill="white" font-size="16" x="421" y="728">
300.0
</text>
<path stroke="white" stroke-dasharray="1,2" d="M578 704l0 -637"/>
<text stroke="none" fill="white" font-size="16" x="553" y="728">
400.0
</text>
<path stroke="white" stroke-dasharray="1,2" d="M710 704l0 -637"/>
<text stroke="none" fill="white" font-size="16" x="685" y="728">
500.0
</text>
<path stroke="white" stroke-dasharray="1,2" d="M842 704l0 -637"/>
<text stroke="none" fill="white" font-size="16" x="817" y="728">
600.0
</text>
<path stroke="white" stroke-dasharray="1,2" d="M974 704l0 -637"/>
<text stroke="none" fill="white" font-size="16" x="949" y="728">
700.0
</text>
<text stroke="none" fill="white" font-size="16" x="614" y="752">
ns
</text>
<path stroke="white" stroke-dasharray="1,2" d="M50 704l924 0"/>
<text stroke="none" fill="white" font-size="16" x="8" y="712">
-3.0
</text>
<path stroke="white" stroke-dasharray="1,2" d="M50 613l924 0"/>
<text stroke="none" fill="white" font-size="16" x="8" y="621">
-2.0
</text>
<path stroke="white" stroke-dasharray="1,2" d="M50 522l924 0"/>
<text stroke="none" fill="white" font-size="16" x="8" y="530">
-1.0
</text>
<path stroke="white" d="M50 431l924 0"/>
<text stroke="none" fill="white" font-size="16" x="18" y="439">
0.0
</text>
<path stroke="white" stroke-dasharray="1,2" d="M50 340l924 0"/>
<text stroke="none" fill="white" font-size="16" x="18" y="348">
1.0
</text>
<path stroke="white" stroke-dasharray="1,2" d="M50 249l924 0"/>
<text stroke="none" fill="white" font-size="16" x="18" y="257">
2.0
</text>
<path stroke="white" stroke-dasharray="1,2" d="M50 158l924 0"/>
<text stroke="none" fill="white" font-size="16" x="18" y="166">
3.0
</text>
<path stroke="white" stroke-dasharray="1,2" d="M50 67l924 0"/>
<text stroke="none" fill="white" font-size="16" x="18" y="75">
4.0
</text>
<text stroke="none" fill="white" font-size="16" x="10" y="32">
     
</text>
<path stroke="red" d="M462 23l46 0"/>
<text stroke="none" fill="white" font-size="16" x="518" y="32">
x1.vsampled_p
</text>
<path stroke="red" d="M50 431l1 0 1 -7 0 -15 1 -14 0 -5 1 2M54 415l0 -40 1 -5 0 -13 1 -3 0 -2 2 -2 1 0 1 -1 4 0M64 350l0 -1M64 350l4 0 1 -1 48 0M117 358l0 -9M117 358l1 11M118 382l0 -13M118 382l1 3M119 388l0 -3M119 388l2 2 418 0M539 391l0 -1M539 391l2 0"/>
<path stroke="red" d="M541 391l0 -1M541 391l5 0 0 -25 1 -4 0 -24 1 -2 0 -3 1 -2 0 -1 1 0 1 -1 15 0 1 1 0 -1 26 0M593 330l0 -1 7 0M600 349l0 -20M600 349l1 3M601 356l0 -4M601 355l1 -2 0 -3 24 0 0 -13 1 -1 0 -5 1 0 1 1 4 0 0 -1M633 332l13 0M646 333l0 -1"/>
<path stroke="red" d="M646 332l7 0M653 341l0 -9M653 341l1 2M654 345l0 -2 1 0 0 -1 17 0M672 343l0 -1 7 0M679 349l0 -7M679 349l1 1 0 -2 1 -1 18 0M699 348l0 -1 7 0M706 351l0 -4M706 351l1 0 0 -1 25 0 0 -4M732 347l1 0 1 1 4 0 0 -1 13 0M751 348l0 -1"/>
<path stroke="red" d="M751 348l1 0 0 -1M752 348l7 0M759 350l0 -2M759 349l27 0M786 350l0 -1M786 350l1 0 0 -1 17 0M804 350l0 -1 26 0 1 1 0 -1 26 0M857 350l0 -1 26 0M883 350l0 -1 27 0M910 350l0 -1 9 0M919 365l0 -16M919 365l1 1M920 387l0 -21M920 387l1 5"/>
<path stroke="red" d="M921 393l0 -1 1 0 0 -1 40 0 0 -1 12 0"/>
<path stroke="blue" d="M50 23l46 0"/>
<text stroke="none" fill="white" font-size="16" x="106" y="32">
x1.vsampled_n
</text>
<path stroke="blue" d="M50 431l1 0 1 -7 0 -15 1 -15 0 -4 1 1M54 414l0 -39 1 -5 0 -13 1 -3 0 -2 2 -2 1 0 1 -1 4 0M64 350l0 -1M64 350l4 0 1 -1 48 0 0 -1 1 -9 0 -19 1 -4 0 -5 2 -2 0 -1 419 0M540 309l0 -1 14 0 0 -1M554 308l13 0M567 309l0 -1 7 0M574 334l0 -26"/>
<path stroke="blue" d="M574 334l1 5M575 348l0 -9M575 348l1 0M576 349l0 -1M576 349l236 0M812 350l0 -1 107 0 0 -11 1 -1 0 -13 1 -5 0 -5 1 0 0 -4 1 0 0 -2 13 0M936 309l0 -1 14 0 0 -1M950 308l24 0"/>
<path stroke="#FFA500" d="M462 39l46 0"/>
<text stroke="none" fill="white" font-size="16" x="518" y="48">
x1.vsampled_p-x1.vsampled_n
</text>
<path stroke="#FFA500" d="M50 431l2 0 1 1 1 0 0 -1 63 0M117 440l0 -9M117 440l1 21M118 493l0 -32M118 493l1 6M119 508l0 -9M119 508l2 4M121 513l0 -1M121 513l1 0 1 1 417 0 0 -1M540 514l1 -1M541 514l0 -1M541 514l5 0 0 -25 1 -4 0 -24 1 -2 0 -3 1 -2"/>
<path stroke="#FFA500" d="M549 454l0 -1 1 0 1 -1 16 0M567 453l0 -1 7 0 0 -25 1 -5 0 -9 1 -1 4 0 0 -1 13 0M593 412l0 -1M593 412l7 0M600 431l0 -19M600 431l1 3M601 438l0 -4M601 437l1 -2 0 -3 24 0 0 -13 1 0 0 -6 1 0 1 1 17 0M646 415l0 -1 7 0M653 424l0 -10"/>
<path stroke="#FFA500" d="M653 424l1 1M654 427l0 -2M654 426l2 -2 16 0M672 425l0 -1 7 0M679 431l0 -7M679 431l1 1 0 -2 1 0 0 -1 18 0M699 430l0 -1 7 0M706 433l0 -4M706 433l1 0 0 -1 25 0 0 -4M732 429l1 0M733 430l0 -1M733 430l26 0M759 432l0 -2M759 431l27 0"/>
<path stroke="#FFA500" d="M786 432l0 -1M786 432l26 0 0 -1 107 0M919 457l0 -26M919 457l1 3M920 495l0 -35M920 495l1 9M921 509l0 -5M921 509l1 1M922 512l0 -2M922 512l1 0M923 514l0 -2M923 513l1 0M924 514l0 -1M924 514l12 0 0 -1M936 514l38 0"/>
<path stroke="green" d="M50 39l46 0"/>
<text stroke="none" fill="white" font-size="16" x="106" y="48">
x1.sw_sample-2
</text>
<path stroke="green" d="M50 613l1 0 1 -9 0 -21 1 -21M53 580l0 -24M53 580l1 30M54 613l0 -3M54 613l63 0M117 620l0 -172M117 449l422 0M539 614l0 -171M539 613l422 0M961 618l0 -170 1 1 12 0"/>
<path stroke="#FFC0C5" d="M462 55l46 0"/>
<text stroke="none" fill="white" font-size="16" x="518" y="64">
x1.comp_out_p+2
</text>
<path stroke="#FFC0C5" d="M50 249l1 0 1 -9 0 -22 1 -18 0 -4M53 198l1 5M54 249l0 -46M54 248l1 1 539 0M594 254l0 -171M594 85l14 0M608 250l0 -171M608 249l39 0M647 250l0 -166M647 85l14 0M661 249l0 -171M661 249l12 0 0 -23 1 -120 0 -22M674 85l13 0"/>
<path stroke="#FFC0C5" d="M687 249l0 -171M687 249l13 0M700 250l0 -166M700 85l13 0 0 -6 1 117M714 250l0 -54M714 249l39 0 0 -165M753 85l13 0M766 249l0 -173M766 249l14 0 1 -138 0 -27M781 85l12 0M793 249l0 -167M793 249l68 0M861 250l0 -154 1 -12M862 85l0 -1"/>
<path stroke="#FFC0C5" d="M862 85l10 0M872 249l0 -173M872 249l15 0 1 -154 0 -10 10 0M898 249l0 -173M898 249l16 0 0 -165M914 85l11 0M925 250l0 -170M925 249l49 0"/>
<path stroke="#A52A2A" d="M50 55l46 0"/>
<text stroke="none" fill="white" font-size="16" x="106" y="64">
x1.comp_out_n-2
</text>
<path stroke="#A52A2A" d="M50 613l1 0 1 -9 0 -22 1 -19M53 564l0 -3M53 564l1 6M54 613l0 -43M54 613l487 0 1 4 0 -170M542 449l13 0M555 614l0 -167M555 613l13 0M568 615l0 -168M568 449l13 0 0 -9 1 160M582 613l0 -13M582 613l40 0 0 -164 12 0M634 613l0 -173"/>
<path stroke="#A52A2A" d="M634 613l13 0M647 614l0 -1 80 0 1 -153 0 -11 12 0M740 613l0 -172M740 613l66 0 1 -153 0 -11 12 0M819 613l0 -174M819 613l14 0 1 -158 0 -7M834 449l11 0 0 -8 1 154M846 613l0 -18M846 613l91 0 1 -63 0 -102M938 449l13 0M951 613l0 -169"/>
<path stroke="#A52A2A" d="M951 613l23 0"/>
</svg>
