<?xml version="1.0" standalone="yes"?>
<!DOCTYPE svg PUBLIC "-//W3C//DTD SVG 1.1//EN"
 "http://www.w3.org/Graphics/SVG/1.1/DTD/svg11.dtd">
<svg xmlns="http://www.w3.org/2000/svg" version="1.1"
  width="100%" height="100%" viewBox="0 0 1024 768"
  style="fill: none; font-family: Helvetica;
 font: Helvetica;
">

<!-- Creator: NGspice -->

<rect x="0" y="0" width="1024" height="768" fill="black" stroke="none"/>
<text stroke="none" fill="white" font-size="16" x="358" y="752">
time
</text>
<text stroke="none" fill="white" font-size="16" x="10" y="16">
tran1: run505_vin-0.455714
</text>
<path stroke="white" d="M50 704l0 -637"/>
<text stroke="none" fill="white" font-size="16" x="35" y="728">
0.0
</text>
<path stroke="white" stroke-dasharray="1,2" d="M182 704l0 -637"/>
<text stroke="none" fill="white" font-size="16" x="157" y="728">
100.0
</text>
<path stroke="white" stroke-dasharray="1,2" d="M314 704l0 -637"/>
<text stroke="none" fill="white" font-size="16" x="289" y="728">
200.0
</text>
<path stroke="white" stroke-dasharray="1,2" d="M446 704l0 -637"/>
<text stroke="none" fill="white" font-size="16" x="421" y="728">
300.0
</text>
<path stroke="white" stroke-dasharray="1,2" d="M578 704l0 -637"/>
<text stroke="none" fill="white" font-size="16" x="553" y="728">
400.0
</text>
<path stroke="white" stroke-dasharray="1,2" d="M710 704l0 -637"/>
<text stroke="none" fill="white" font-size="16" x="685" y="728">
500.0
</text>
<path stroke="white" stroke-dasharray="1,2" d="M842 704l0 -637"/>
<text stroke="none" fill="white" font-size="16" x="817" y="728">
600.0
</text>
<path stroke="white" stroke-dasharray="1,2" d="M974 704l0 -637"/>
<text stroke="none" fill="white" font-size="16" x="949" y="728">
700.0
</text>
<text stroke="none" fill="white" font-size="16" x="614" y="752">
ns
</text>
<path stroke="white" stroke-dasharray="1,2" d="M50 704l924 0"/>
<text stroke="none" fill="white" font-size="16" x="8" y="712">
-3.0
</text>
<path stroke="white" stroke-dasharray="1,2" d="M50 613l924 0"/>
<text stroke="none" fill="white" font-size="16" x="8" y="621">
-2.0
</text>
<path stroke="white" stroke-dasharray="1,2" d="M50 522l924 0"/>
<text stroke="none" fill="white" font-size="16" x="8" y="530">
-1.0
</text>
<path stroke="white" d="M50 431l924 0"/>
<text stroke="none" fill="white" font-size="16" x="18" y="439">
0.0
</text>
<path stroke="white" stroke-dasharray="1,2" d="M50 340l924 0"/>
<text stroke="none" fill="white" font-size="16" x="18" y="348">
1.0
</text>
<path stroke="white" stroke-dasharray="1,2" d="M50 249l924 0"/>
<text stroke="none" fill="white" font-size="16" x="18" y="257">
2.0
</text>
<path stroke="white" stroke-dasharray="1,2" d="M50 158l924 0"/>
<text stroke="none" fill="white" font-size="16" x="18" y="166">
3.0
</text>
<path stroke="white" stroke-dasharray="1,2" d="M50 67l924 0"/>
<text stroke="none" fill="white" font-size="16" x="18" y="75">
4.0
</text>
<text stroke="none" fill="white" font-size="16" x="10" y="32">
     
</text>
<path stroke="red" d="M462 23l46 0"/>
<text stroke="none" fill="white" font-size="16" x="518" y="32">
x1.vsampled_p
</text>
<path stroke="red" d="M50 431l1 0 1 -7 0 -15 1 -14 0 -5 1 2M54 415l0 -40 1 -5 0 -13 1 -3 0 -2 2 -2 1 0 1 -1 4 0M64 350l0 -1M64 350l4 0 1 -1 48 0M117 358l0 -9M117 358l1 11M118 382l0 -13M118 382l1 3M119 388l0 -3M119 388l2 2 2 0M123 391l0 -1M123 391l423 0"/>
<path stroke="red" d="M546 391l0 -21 1 -2 0 -29 1 -1 0 -5 1 -2 0 -1 2 0 0 -1 15 0 1 1 0 -1 26 0M593 330l0 -1 7 0M600 349l0 -20M600 349l1 3M601 356l0 -4M601 353l1 -2 0 -1 24 0 0 -13 1 0 0 -6 1 0 1 1 4 0 0 -1M633 332l13 0M646 333l0 -1 7 0M653 342l0 -10"/>
<path stroke="red" d="M653 342l1 3 0 -1 1 -1 0 -1 17 0M672 343l0 -1 7 0M679 349l0 -7M679 349l1 1 0 -2 1 0 0 -1 18 0M699 348l0 -1 7 0M706 351l0 -4M706 351l1 0 0 -1 25 0 0 -4M732 347l1 0M733 348l0 -1M733 348l5 0 0 -1 1 0M739 348l0 -1M739 348l20 0"/>
<path stroke="red" d="M759 350l0 -2M759 349l53 0 1 1 0 -1 18 0M831 350l0 -1 26 0M857 350l0 -1 26 0M883 350l0 -1 27 0M910 350l0 -1 7 0M917 350l0 -1M917 350l1 0M918 377l0 -27M918 377l1 5M919 392l0 -10M919 392l1 1 0 -1 1 -1 41 0 0 -1M962 391l12 0"/>
<path stroke="blue" d="M50 23l46 0"/>
<text stroke="none" fill="white" font-size="16" x="106" y="32">
x1.vsampled_n
</text>
<path stroke="blue" d="M50 431l1 0 1 -7 0 -15 1 -15 0 -4 1 1M54 414l0 -39 1 -5 0 -13 1 -3 0 -2 2 -2 1 0 1 -1 4 0M64 350l0 -1M64 350l4 0 1 -1 48 0 0 -1 1 -9 0 -19 1 -4 0 -5 2 -2 0 -1 419 0M540 309l0 -1 14 0 0 -1M554 308l13 0M567 309l0 -1 6 0 1 5"/>
<path stroke="blue" d="M574 337l0 -24M574 337l1 4M575 348l0 -7M575 348l1 1 4 0 0 -1M580 349l206 0M786 350l0 -1 18 0M804 350l0 -1 26 0 1 1 0 -1 86 0M917 350l0 -1 1 -3 0 -16 1 -3 0 -8 1 -4 0 -4 1 -2 1 0 0 -1 1 0 0 -1M923 308l13 0M936 309l0 -1 14 0"/>
<path stroke="blue" d="M950 308l0 -1M950 308l24 0"/>
<path stroke="#FFA500" d="M462 39l46 0"/>
<text stroke="none" fill="white" font-size="16" x="518" y="48">
x1.vsampled_p-x1.vsampled_n
</text>
<path stroke="#FFA500" d="M50 431l2 0 1 1 1 0 0 -1 63 0M117 440l0 -9M117 440l1 21M118 493l0 -32M118 493l1 7M119 508l0 -8M119 508l1 3 1 1M121 513l0 -1M121 513l1 1 418 0 0 -1M540 514l6 0 0 -21 1 -2 0 -29 1 -1 0 -5 1 -2 0 -1 5 0 0 -1M554 453l12 0"/>
<path stroke="#FFA500" d="M566 453l1 -1M567 453l0 -1M567 453l6 0 1 -5 0 -24 1 -4 0 -8 5 0 0 -1M580 412l20 0M600 431l0 -19M600 431l1 3M601 438l0 -4M601 435l1 -1 0 -1 1 -1 23 0 0 -12 1 -1 0 -6 1 0M628 414l0 -1M628 414l18 0M646 415l0 -1 7 0M653 425l0 -11"/>
<path stroke="#FFA500" d="M653 425l1 2 0 -1 1 -1 1 0 0 -1 16 0M672 425l0 -1M672 425l1 0 0 -1 6 0M679 431l0 -7M679 431l1 1M680 433l0 -3 6 0 0 -1M686 430l20 0M706 433l0 -3M706 433l1 0 0 -1 25 0 0 -4M732 429l1 0M733 430l0 -1M733 430l26 0M759 433l0 -3"/>
<path stroke="#FFA500" d="M759 431l27 0 0 -1 1 0M787 431l0 -1M787 431l1 0 1 -1 15 0M804 431l0 -1 1 0M805 431l0 -1M805 431l1 0 0 -1 6 0M812 431l0 -1M812 431l1 0M813 432l0 -1 104 0M917 432l0 -2M917 432l1 3M918 478l0 -43M918 478l1 8M919 504l0 -18"/>
<path stroke="#FFA500" d="M919 504l1 4M920 512l0 -4M920 512l1 1 1 0M922 514l0 -1M922 514l14 0 0 -1M936 514l38 0"/>
<path stroke="green" d="M50 39l46 0"/>
<text stroke="none" fill="white" font-size="16" x="106" y="48">
x1.sw_sample-2
</text>
<path stroke="green" d="M50 613l1 0 1 -9 0 -21 1 -21M53 580l0 -24M53 580l1 30M54 613l0 -3M54 613l63 0M117 620l0 -172M117 449l422 0M539 614l0 -171M539 613l422 0M961 618l0 -170 1 1 12 0"/>
<path stroke="#FFC0C5" d="M462 55l46 0"/>
<text stroke="none" fill="white" font-size="16" x="518" y="64">
x1.comp_out_p+2
</text>
<path stroke="#FFC0C5" d="M50 249l1 0 1 -9 0 -22 1 -18 0 -4M53 198l1 5M54 249l0 -46M54 248l1 1 539 0M594 252l0 -169M594 84l1 1 13 0M608 249l0 -172M608 249l39 0M647 250l0 -166M647 85l14 0M661 249l0 -172M661 249l12 0 0 -58 1 -92 0 -15M674 85l13 0"/>
<path stroke="#FFC0C5" d="M687 250l0 -171M687 249l13 0 0 -165M700 85l13 0 0 -8 1 150M714 249l0 -22M714 249l39 0 0 -165M753 85l13 0M766 250l0 -174M766 249l41 0M807 250l0 -166M807 85l12 0M819 249l0 -174M819 249l15 0 0 -165M834 85l11 0 0 -2 1 151"/>
<path stroke="#FFC0C5" d="M846 249l0 -15M846 249l128 0"/>
<path stroke="#A52A2A" d="M50 55l46 0"/>
<text stroke="none" fill="white" font-size="16" x="106" y="64">
x1.comp_out_n-2
</text>
<path stroke="#A52A2A" d="M50 613l1 0 1 -9 0 -22 1 -19M53 564l0 -3M53 564l1 6M54 613l0 -43M54 613l487 0 1 1 0 -167M542 449l13 0M555 613l0 -173M555 613l13 0M568 615l0 -168M568 449l13 0 0 -9 1 160M582 613l0 -13M582 613l40 0 0 -165M622 449l12 0"/>
<path stroke="#A52A2A" d="M634 613l0 -173M634 613l13 0M647 614l0 -1 80 0 0 -151 1 -13 0 -1M728 449l12 0M740 613l0 -173M740 613l40 0 0 -157 1 -8M781 449l0 -1M781 449l12 0M793 613l0 -172M793 613l67 0 0 -165M860 449l12 0M872 613l0 -174M872 613l14 0"/>
<path stroke="#A52A2A" d="M886 613l0 -158 1 -7M887 449l0 -1M887 449l11 0M898 613l0 -174M898 613l14 0 1 -158 0 -7M913 449l12 0M925 614l0 -171M925 613l12 0 1 -61 0 -104M938 449l13 0M951 613l0 -169M951 613l23 0"/>
</svg>
