<?xml version="1.0" standalone="yes"?>
<!DOCTYPE svg PUBLIC "-//W3C//DTD SVG 1.1//EN"
 "http://www.w3.org/Graphics/SVG/1.1/DTD/svg11.dtd">
<svg xmlns="http://www.w3.org/2000/svg" version="1.1"
  width="100%" height="100%" viewBox="0 0 1024 768"
  style="fill: none; font-family: Helvetica;
 font: Helvetica;
">

<!-- Creator: NGspice -->

<rect x="0" y="0" width="1024" height="768" fill="black" stroke="none"/>
<text stroke="none" fill="white" font-size="16" x="358" y="752">
time
</text>
<text stroke="none" fill="white" font-size="16" x="10" y="16">
tran1: run2044_vin0.896921
</text>
<path stroke="white" d="M50 704l0 -637"/>
<text stroke="none" fill="white" font-size="16" x="35" y="728">
0.0
</text>
<path stroke="white" stroke-dasharray="1,2" d="M182 704l0 -637"/>
<text stroke="none" fill="white" font-size="16" x="157" y="728">
100.0
</text>
<path stroke="white" stroke-dasharray="1,2" d="M314 704l0 -637"/>
<text stroke="none" fill="white" font-size="16" x="289" y="728">
200.0
</text>
<path stroke="white" stroke-dasharray="1,2" d="M446 704l0 -637"/>
<text stroke="none" fill="white" font-size="16" x="421" y="728">
300.0
</text>
<path stroke="white" stroke-dasharray="1,2" d="M578 704l0 -637"/>
<text stroke="none" fill="white" font-size="16" x="553" y="728">
400.0
</text>
<path stroke="white" stroke-dasharray="1,2" d="M710 704l0 -637"/>
<text stroke="none" fill="white" font-size="16" x="685" y="728">
500.0
</text>
<path stroke="white" stroke-dasharray="1,2" d="M842 704l0 -637"/>
<text stroke="none" fill="white" font-size="16" x="817" y="728">
600.0
</text>
<path stroke="white" stroke-dasharray="1,2" d="M974 704l0 -637"/>
<text stroke="none" fill="white" font-size="16" x="949" y="728">
700.0
</text>
<text stroke="none" fill="white" font-size="16" x="614" y="752">
ns
</text>
<path stroke="white" stroke-dasharray="1,2" d="M50 704l924 0"/>
<text stroke="none" fill="white" font-size="16" x="8" y="712">
-3.0
</text>
<path stroke="white" stroke-dasharray="1,2" d="M50 613l924 0"/>
<text stroke="none" fill="white" font-size="16" x="8" y="621">
-2.0
</text>
<path stroke="white" stroke-dasharray="1,2" d="M50 522l924 0"/>
<text stroke="none" fill="white" font-size="16" x="8" y="530">
-1.0
</text>
<path stroke="white" d="M50 431l924 0"/>
<text stroke="none" fill="white" font-size="16" x="18" y="439">
0.0
</text>
<path stroke="white" stroke-dasharray="1,2" d="M50 340l924 0"/>
<text stroke="none" fill="white" font-size="16" x="18" y="348">
1.0
</text>
<path stroke="white" stroke-dasharray="1,2" d="M50 249l924 0"/>
<text stroke="none" fill="white" font-size="16" x="18" y="257">
2.0
</text>
<path stroke="white" stroke-dasharray="1,2" d="M50 158l924 0"/>
<text stroke="none" fill="white" font-size="16" x="18" y="166">
3.0
</text>
<path stroke="white" stroke-dasharray="1,2" d="M50 67l924 0"/>
<text stroke="none" fill="white" font-size="16" x="18" y="75">
4.0
</text>
<text stroke="none" fill="white" font-size="16" x="10" y="32">
     
</text>
<path stroke="red" d="M462 23l46 0"/>
<text stroke="none" fill="white" font-size="16" x="518" y="32">
x1.vsampled_p
</text>
<path stroke="red" d="M50 431l1 0 1 -7 0 -16 1 -14 0 -5 1 2M54 414l0 -38 1 -5 0 -13 1 -3 0 -3 1 -1 0 -1 2 0 1 -1 3 0 1 1 4 0 1 -1 48 0 0 -2 1 -12 0 -37 1 -8 0 -15 1 -3 0 -2 2 -2 2 0 1 -1 414 0M539 268l0 -1M539 268l1 0M540 269l0 -1 14 0 0 -1M554 268l13 0"/>
<path stroke="red" d="M567 269l0 -1 7 0M574 290l0 -22M574 290l1 6M575 305l0 -9M575 305l1 3M576 309l0 -1M576 309l4 0 0 -1M580 309l13 0M593 310l0 -1 7 0M600 324l0 -15M600 324l1 4M601 330l0 -2M601 330l1 0 0 -1 17 0M619 330l0 -1 27 0M646 330l0 -1"/>
<path stroke="red" d="M646 329l7 0M653 336l0 -7M653 336l1 2M654 340l0 -2M654 339l18 0M672 340l0 -1 7 0M679 345l0 -6M679 345l1 0 0 -1 18 0 1 1 0 -1 7 0M706 347l0 -3M706 347l52 0 1 1M759 349l0 -1 19 0M778 349l0 -1 7 0M785 349l0 -1M785 349l27 0"/>
<path stroke="red" d="M812 350l0 -1M812 350l1 -1 105 0 0 -61 1 -2 0 -13 1 -1 0 -2 1 -1 0 -1 2 0 0 -1M923 268l13 0M936 269l0 -1 14 0 0 -1M950 268l12 0 0 -1 12 0"/>
<path stroke="blue" d="M50 23l46 0"/>
<text stroke="none" fill="white" font-size="16" x="106" y="32">
x1.vsampled_n
</text>
<path stroke="blue" d="M50 431l1 0 1 -7 0 -15 1 -14 0 -4 1 1M54 414l0 -38 1 -5 0 -13 1 -3 0 -3 1 -1 0 -1 2 0 1 -1 4 0 1 1 1 0 1 -1 50 0M117 376l0 -27M117 376l1 18M118 416l0 -22M118 416l1 4M119 427l0 -7M119 427l1 1M120 429l0 -1M120 429l1 1 1 0"/>
<path stroke="blue" d="M122 430l1 1 423 0 0 -21 1 -2 0 -29 1 -5 1 -3 0 -1 5 0 0 -1 12 0 1 1 0 -1M567 370l13 0 0 -1 13 0M593 370l0 -1M593 370l13 0 0 -1 13 0M619 370l0 -1M619 370l1 0 0 -1M620 370l5 0 0 -11 1 -2 0 -7 1 1 1 0 1 1 4 0 0 -1M633 352l13 0"/>
<path stroke="blue" d="M646 352l0 -1M646 352l13 0 0 -1M659 352l13 0 0 -1M672 352l14 0 0 -1M686 352l13 0 0 -1M699 352l13 0 0 -1M712 352l13 0 0 -1M725 352l6 0 0 -5M731 348l1 0M732 349l0 -1M732 349l19 0M751 350l0 -1M751 350l1 0 0 -1 26 0M778 350l0 -1"/>
<path stroke="blue" d="M778 349l26 0M804 350l0 -1 26 0 1 1 0 -1 7 0 0 -1M838 349l19 0M857 350l0 -1 26 0M883 350l0 -1 27 0M910 350l0 -1 8 0M918 458l0 -109M918 450l1 -3 0 -11 1 -1 0 -2 1 -1 0 -1 53 0"/>
<path stroke="#FFA500" d="M462 39l46 0"/>
<text stroke="none" fill="white" font-size="16" x="518" y="48">
x1.vsampled_p-x1.vsampled_n
</text>
<path stroke="#FFA500" d="M50 431l2 0 0 -1 2 0M54 431l0 -1M54 431l63 0 0 -28 1 -30 0 -60 1 -12 0 -22 1 -4 0 -3 1 -2 1 -1 0 -1 418 0M540 269l0 -1 6 0M546 288l0 -20M546 288l1 3M547 319l0 -28M547 319l1 6 1 3M549 329l0 -1M549 329l18 0M567 330l0 -1"/>
<path stroke="#FFA500" d="M567 329l7 0M574 351l0 -22M574 351l1 6M575 367l0 -10M575 367l1 3 17 0M593 371l0 -1 7 0M600 385l0 -15M600 385l1 5M601 392l0 -2M601 392l1 -1 4 0 0 -1 1 0M607 391l0 -1M607 391l18 0M625 401l0 -10M625 401l1 3M626 410l0 -6"/>
<path stroke="#FFA500" d="M626 410l1 -1 2 0 1 -1 2 0M632 409l0 -1M632 409l1 0 0 -1 13 0M646 409l0 -1M646 409l7 0M653 415l0 -7M653 415l1 2M654 419l0 -2M654 419l18 0 0 -1M672 419l7 0M679 424l0 -5M679 424l1 1 0 -1 19 0 0 -1M699 424l7 0M706 427l0 -3"/>
<path stroke="#FFA500" d="M706 427l1 -1 18 0M725 427l0 -1 6 0M731 431l0 -5M731 430l1 0 0 -1 19 0 0 -1 1 0M752 429l0 -1M752 429l7 0M759 431l0 -2M759 430l26 0 1 1 0 -1 5 0M791 431l0 -1 13 0M804 431l0 -1M804 431l1 0 0 -1 7 0M812 431l0 -1M812 431l26 0"/>
<path stroke="#FFA500" d="M838 432l0 -1 80 0 0 -161 1 -1 0 -1 4 0 0 -1M923 268l13 0M936 269l0 -1 14 0 0 -1M950 268l24 0"/>
<path stroke="green" d="M50 39l46 0"/>
<text stroke="none" fill="white" font-size="16" x="106" y="48">
x1.sw_sample-2
</text>
<path stroke="green" d="M50 613l1 0 1 -9 0 -21 1 -21M53 578l0 -22M53 578l1 32M54 613l0 -3M54 613l63 0M117 620l0 -172M117 449l422 0M539 614l0 -171M539 613l422 0M961 618l0 -170 1 1 12 0"/>
<path stroke="#FFC0C5" d="M462 55l46 0"/>
<text stroke="none" fill="white" font-size="16" x="518" y="64">
x1.comp_out_p+2
</text>
<path stroke="#FFC0C5" d="M50 249l1 0 1 -9 0 -22 1 -18 0 -4M53 198l1 5M54 249l0 -46M54 249l487 0 1 1 0 -166M542 85l13 0M555 249l0 -172M555 249l13 0 0 -165M568 85l13 0 0 -9 1 133M582 250l0 -41M582 249l12 0M594 250l0 -167M594 85l14 0M608 249l0 -167"/>
<path stroke="#FFC0C5" d="M608 249l13 0M621 250l0 -167M621 85l13 0M634 249l0 -172M634 249l13 0M647 250l0 -167M647 85l14 0M661 250l0 -171M661 249l12 0M673 251l0 -2M673 251l1 -136 0 -32M674 85l13 0M687 250l0 -173M687 249l13 0M700 250l0 -166M700 85l13 0"/>
<path stroke="#FFC0C5" d="M713 85l0 -7 1 139M714 249l0 -32M714 249l12 0M726 250l0 -1M726 250l1 -121 0 -46M727 85l13 0M740 250l0 -172M740 249l13 0M753 250l0 -166M753 85l13 0M766 250l0 -173M766 250l1 -1 13 0 0 -165M780 85l13 0M793 249l0 -171M793 249l14 0"/>
<path stroke="#FFC0C5" d="M807 249l0 -165M807 85l12 0M819 249l0 -168M819 249l15 0 0 -164 11 0 0 -10 1 142M846 249l0 -32M846 249l91 0M937 250l0 -1M937 250l1 -86 0 -81M938 85l13 0M951 250l0 -173M951 249l23 0"/>
<path stroke="#A52A2A" d="M50 55l46 0"/>
<text stroke="none" fill="white" font-size="16" x="106" y="64">
x1.comp_out_n-2
</text>
<path stroke="#A52A2A" d="M50 613l1 0 1 -9 0 -22 1 -19M53 564l0 -3M53 564l1 6M54 614l0 -44M54 612l1 1 645 0M700 614l0 -1 160 0 0 -165 1 1 11 0M872 613l0 -174M872 613l14 0 1 -150 0 -15M887 449l11 0M898 613l0 -174M898 613l15 0 0 -165M913 449l12 0"/>
<path stroke="#A52A2A" d="M925 613l0 -165M925 613l49 0"/>
</svg>
