<?xml version="1.0" standalone="yes"?>
<!DOCTYPE svg PUBLIC "-//W3C//DTD SVG 1.1//EN"
 "http://www.w3.org/Graphics/SVG/1.1/DTD/svg11.dtd">
<svg xmlns="http://www.w3.org/2000/svg" version="1.1"
  width="100%" height="100%" viewBox="0 0 1024 768"
  style="fill: none; font-family: Helvetica;
 font: Helvetica;
">

<!-- Creator: NGspice -->

<rect x="0" y="0" width="1024" height="768" fill="black" stroke="none"/>
<text stroke="none" fill="white" font-size="16" x="358" y="752">
time
</text>
<text stroke="none" fill="white" font-size="16" x="10" y="16">
tran1: run2042_vin0.895163
</text>
<path stroke="white" d="M50 704l0 -637"/>
<text stroke="none" fill="white" font-size="16" x="35" y="728">
0.0
</text>
<path stroke="white" stroke-dasharray="1,2" d="M182 704l0 -637"/>
<text stroke="none" fill="white" font-size="16" x="157" y="728">
100.0
</text>
<path stroke="white" stroke-dasharray="1,2" d="M314 704l0 -637"/>
<text stroke="none" fill="white" font-size="16" x="289" y="728">
200.0
</text>
<path stroke="white" stroke-dasharray="1,2" d="M446 704l0 -637"/>
<text stroke="none" fill="white" font-size="16" x="421" y="728">
300.0
</text>
<path stroke="white" stroke-dasharray="1,2" d="M578 704l0 -637"/>
<text stroke="none" fill="white" font-size="16" x="553" y="728">
400.0
</text>
<path stroke="white" stroke-dasharray="1,2" d="M710 704l0 -637"/>
<text stroke="none" fill="white" font-size="16" x="685" y="728">
500.0
</text>
<path stroke="white" stroke-dasharray="1,2" d="M842 704l0 -637"/>
<text stroke="none" fill="white" font-size="16" x="817" y="728">
600.0
</text>
<path stroke="white" stroke-dasharray="1,2" d="M974 704l0 -637"/>
<text stroke="none" fill="white" font-size="16" x="949" y="728">
700.0
</text>
<text stroke="none" fill="white" font-size="16" x="614" y="752">
ns
</text>
<path stroke="white" stroke-dasharray="1,2" d="M50 704l924 0"/>
<text stroke="none" fill="white" font-size="16" x="8" y="712">
-3.0
</text>
<path stroke="white" stroke-dasharray="1,2" d="M50 613l924 0"/>
<text stroke="none" fill="white" font-size="16" x="8" y="621">
-2.0
</text>
<path stroke="white" stroke-dasharray="1,2" d="M50 522l924 0"/>
<text stroke="none" fill="white" font-size="16" x="8" y="530">
-1.0
</text>
<path stroke="white" d="M50 431l924 0"/>
<text stroke="none" fill="white" font-size="16" x="18" y="439">
0.0
</text>
<path stroke="white" stroke-dasharray="1,2" d="M50 340l924 0"/>
<text stroke="none" fill="white" font-size="16" x="18" y="348">
1.0
</text>
<path stroke="white" stroke-dasharray="1,2" d="M50 249l924 0"/>
<text stroke="none" fill="white" font-size="16" x="18" y="257">
2.0
</text>
<path stroke="white" stroke-dasharray="1,2" d="M50 158l924 0"/>
<text stroke="none" fill="white" font-size="16" x="18" y="166">
3.0
</text>
<path stroke="white" stroke-dasharray="1,2" d="M50 67l924 0"/>
<text stroke="none" fill="white" font-size="16" x="18" y="75">
4.0
</text>
<text stroke="none" fill="white" font-size="16" x="10" y="32">
     
</text>
<path stroke="red" d="M462 23l46 0"/>
<text stroke="none" fill="white" font-size="16" x="518" y="32">
x1.vsampled_p
</text>
<path stroke="red" d="M50 431l1 0 1 -7 0 -16 1 -14 0 -5 1 2M54 414l0 -38 1 -5 0 -13 1 -3 0 -3 1 -1 0 -1 2 0 1 -1 3 0 1 1 4 0 1 -1 48 0 0 -2 1 -12 0 -37 1 -8 0 -15 1 -2 0 -2 1 -2 1 -1 418 0M540 269l0 -1 14 0 0 -1M554 268l13 0M567 269l0 -1 7 0"/>
<path stroke="red" d="M574 291l0 -23M574 291l1 7M575 307l0 -9M575 307l1 2 4 0 0 -1M580 309l13 0M593 310l0 -1 7 0M600 321l0 -12M600 321l1 3M601 330l0 -6M601 330l1 0 0 -1 17 0M619 330l0 -1 27 0M646 330l0 -1 7 0M653 335l0 -6M653 335l1 2M654 340l0 -3"/>
<path stroke="red" d="M654 340l1 0 0 -1 1 0 1 1 2 0 0 -1 13 0M672 340l0 -1M672 340l7 0M679 344l0 -5M679 344l1 1M680 346l0 -1 6 0 0 -1M686 345l12 0 0 -1M698 345l8 0M706 348l0 -3M706 347l53 0M759 349l0 -2M759 348l19 0M778 349l0 -1 7 0M785 349l0 -1"/>
<path stroke="red" d="M785 349l27 0 1 1 0 -1 18 0M831 350l0 -1 87 0M918 350l0 -63 1 -3 0 -10 1 -1 0 -3 1 -1 0 -1 2 0 0 -1M923 268l13 0M936 269l0 -1 14 0 0 -1M950 268l24 0"/>
<path stroke="blue" d="M50 23l46 0"/>
<text stroke="none" fill="white" font-size="16" x="106" y="32">
x1.vsampled_n
</text>
<path stroke="blue" d="M50 431l1 0 1 -7 0 -15 1 -14 0 -4 1 1M54 414l0 -38 1 -5 0 -13 1 -3 0 -3 1 -1 0 -1 2 0 1 -1 4 0 1 1 1 0 1 -1 50 0M117 376l0 -27M117 376l1 18M118 416l0 -22M118 416l1 4M119 427l0 -7M119 427l1 1M120 429l0 -1M120 429l1 1 2 0"/>
<path stroke="blue" d="M123 430l1 1 417 0 0 -1M541 431l5 0 0 -21 1 -3 0 -23 1 -7 0 -5 3 -3 16 0M567 370l0 -1 26 0M593 370l0 -1 26 0M619 370l0 -1 6 0 0 -12 1 -2 0 -5 1 0M627 351l0 -1M627 351l19 0M646 352l0 -1 26 0M672 352l0 -1 26 0 1 1 0 -1 26 0"/>
<path stroke="blue" d="M725 352l0 -1 6 0M731 352l0 -5 1 1M732 349l0 -1M732 349l19 0M751 350l0 -1M751 350l1 -1 26 0M778 350l0 -1 26 0M804 350l0 -1 27 0M831 350l0 -1 26 0M857 350l0 -1 26 0M883 350l0 -1M883 350l1 -1 26 0M910 350l0 -1 8 0M918 457l0 -108"/>
<path stroke="blue" d="M918 448l1 -2 0 -9 1 -2 0 -3 1 0 0 -1 41 0 0 -1M962 431l12 0"/>
<path stroke="#FFA500" d="M462 39l46 0"/>
<text stroke="none" fill="white" font-size="16" x="518" y="48">
x1.vsampled_p-x1.vsampled_n
</text>
<path stroke="#FFA500" d="M50 431l2 0 0 -1 2 0M54 431l0 -1M54 431l63 0 0 -28 1 -30 0 -60 1 -11 0 -22 1 -4 0 -3 1 -3 2 -2 417 0M540 269l0 -1 1 0M541 269l0 -1 5 0M546 289l0 -21M546 289l1 3M547 315l0 -23M547 315l1 7M548 327l0 -5M548 327l2 2M550 330l0 -1"/>
<path stroke="#FFA500" d="M550 330l4 0 0 -1 1 0M555 330l0 -1M555 330l12 0M567 331l0 -1 7 0M574 353l0 -23M574 353l1 6M575 368l0 -9M575 368l1 3 4 0 0 -1 13 0M593 371l0 -1M593 371l7 0M600 383l0 -12M600 383l1 2M601 392l0 -7M601 392l1 -1 23 0M625 404l0 -13"/>
<path stroke="#FFA500" d="M625 404l1 1M626 410l0 -5M626 410l1 0 1 -1 18 0 0 -1M646 409l7 0M653 415l0 -6M653 415l1 2M654 419l0 -2M654 419l25 0M679 424l0 -5M679 424l1 1 0 -1 26 0M706 427l0 -3M706 427l19 0 0 -1M725 427l6 0M731 431l0 -4M731 431l1 -1"/>
<path stroke="#FFA500" d="M732 430l0 -1 27 0M759 431l0 -2M759 430l26 0 1 1 132 0M918 432l0 -163 1 0 0 -1 17 0M936 270l0 -2 38 0"/>
<path stroke="green" d="M50 39l46 0"/>
<text stroke="none" fill="white" font-size="16" x="106" y="48">
x1.sw_sample-2
</text>
<path stroke="green" d="M50 613l1 0 1 -9 0 -21 1 -21M53 578l0 -22M53 578l1 32M54 613l0 -3M54 613l63 0M117 620l0 -172M117 449l422 0M539 614l0 -171M539 613l422 0M961 618l0 -170 1 1 12 0"/>
<path stroke="#FFC0C5" d="M462 55l46 0"/>
<text stroke="none" fill="white" font-size="16" x="518" y="64">
x1.comp_out_p+2
</text>
<path stroke="#FFC0C5" d="M50 249l1 0 1 -9 0 -22 1 -18 0 -4M53 198l1 5M54 249l0 -46M54 249l487 0 1 1 0 -166M542 85l13 0M555 249l0 -172M555 249l13 0 0 -165M568 85l13 0 0 -9 1 152M582 249l0 -21M582 249l12 0M594 250l0 -167M594 85l14 0M608 250l0 -169"/>
<path stroke="#FFC0C5" d="M608 249l13 0M621 250l0 -167M621 85l13 0M634 249l0 -172M634 249l13 0M647 251l0 -168M647 85l14 0M661 250l0 -172M661 249l12 0M673 254l0 -5M673 254l1 -120 0 -51M674 85l13 0M687 249l0 -172M687 249l13 0M700 250l0 -166M700 85l13 0"/>
<path stroke="#FFC0C5" d="M713 85l0 -7 1 137M714 249l0 -34M714 249l12 0M726 252l0 -3M726 252l1 -134 0 -35M727 85l13 0M740 249l0 -171M740 249l13 0 0 -165M753 85l13 0M766 249l0 -173M766 249l14 0 0 -165M780 85l13 0M793 249l0 -174M793 249l14 0 0 -165"/>
<path stroke="#FFC0C5" d="M807 84l1 1 11 0M819 249l0 -168M819 249l41 0 0 -165M860 85l12 0M872 249l0 -174M872 249l14 0 0 -164 1 -1M887 85l0 -1M887 85l11 0M898 249l0 -174M898 249l15 0 0 -165M913 85l12 0M925 250l0 -173M925 249l12 0 1 -56 0 -109"/>
<path stroke="#FFC0C5" d="M938 85l13 0M951 250l0 -173M951 249l23 0"/>
<path stroke="#A52A2A" d="M50 55l46 0"/>
<text stroke="none" fill="white" font-size="16" x="106" y="64">
x1.comp_out_n-2
</text>
<path stroke="#A52A2A" d="M50 613l1 0 1 -9 0 -22 1 -19M53 564l0 -3M53 564l1 6M54 614l0 -44M54 612l1 1 645 0M700 614l0 -1 134 0 0 -165M834 449l11 0 0 -2 1 155M846 613l0 -11M846 613l128 0"/>
</svg>
