<?xml version="1.0" standalone="yes"?>
<!DOCTYPE svg PUBLIC "-//W3C//DTD SVG 1.1//EN"
 "http://www.w3.org/Graphics/SVG/1.1/DTD/svg11.dtd">
<svg xmlns="http://www.w3.org/2000/svg" version="1.1"
  width="100%" height="100%" viewBox="0 0 1024 768"
  style="fill: none; font-family: Helvetica;
 font: Helvetica;
">

<!-- Creator: NGspice -->

<rect x="0" y="0" width="1024" height="768" fill="black" stroke="none"/>
<text stroke="none" fill="white" font-size="16" x="358" y="752">
time
</text>
<text stroke="none" fill="white" font-size="16" x="10" y="16">
tran1: run1762_vin0.64907
</text>
<path stroke="white" d="M50 704l0 -637"/>
<text stroke="none" fill="white" font-size="16" x="35" y="728">
0.0
</text>
<path stroke="white" stroke-dasharray="1,2" d="M182 704l0 -637"/>
<text stroke="none" fill="white" font-size="16" x="157" y="728">
100.0
</text>
<path stroke="white" stroke-dasharray="1,2" d="M314 704l0 -637"/>
<text stroke="none" fill="white" font-size="16" x="289" y="728">
200.0
</text>
<path stroke="white" stroke-dasharray="1,2" d="M446 704l0 -637"/>
<text stroke="none" fill="white" font-size="16" x="421" y="728">
300.0
</text>
<path stroke="white" stroke-dasharray="1,2" d="M578 704l0 -637"/>
<text stroke="none" fill="white" font-size="16" x="553" y="728">
400.0
</text>
<path stroke="white" stroke-dasharray="1,2" d="M710 704l0 -637"/>
<text stroke="none" fill="white" font-size="16" x="685" y="728">
500.0
</text>
<path stroke="white" stroke-dasharray="1,2" d="M842 704l0 -637"/>
<text stroke="none" fill="white" font-size="16" x="817" y="728">
600.0
</text>
<path stroke="white" stroke-dasharray="1,2" d="M974 704l0 -637"/>
<text stroke="none" fill="white" font-size="16" x="949" y="728">
700.0
</text>
<text stroke="none" fill="white" font-size="16" x="614" y="752">
ns
</text>
<path stroke="white" stroke-dasharray="1,2" d="M50 704l924 0"/>
<text stroke="none" fill="white" font-size="16" x="8" y="712">
-3.0
</text>
<path stroke="white" stroke-dasharray="1,2" d="M50 613l924 0"/>
<text stroke="none" fill="white" font-size="16" x="8" y="621">
-2.0
</text>
<path stroke="white" stroke-dasharray="1,2" d="M50 522l924 0"/>
<text stroke="none" fill="white" font-size="16" x="8" y="530">
-1.0
</text>
<path stroke="white" d="M50 431l924 0"/>
<text stroke="none" fill="white" font-size="16" x="18" y="439">
0.0
</text>
<path stroke="white" stroke-dasharray="1,2" d="M50 340l924 0"/>
<text stroke="none" fill="white" font-size="16" x="18" y="348">
1.0
</text>
<path stroke="white" stroke-dasharray="1,2" d="M50 249l924 0"/>
<text stroke="none" fill="white" font-size="16" x="18" y="257">
2.0
</text>
<path stroke="white" stroke-dasharray="1,2" d="M50 158l924 0"/>
<text stroke="none" fill="white" font-size="16" x="18" y="166">
3.0
</text>
<path stroke="white" stroke-dasharray="1,2" d="M50 67l924 0"/>
<text stroke="none" fill="white" font-size="16" x="18" y="75">
4.0
</text>
<text stroke="none" fill="white" font-size="16" x="10" y="32">
     
</text>
<path stroke="red" d="M462 23l46 0"/>
<text stroke="none" fill="white" font-size="16" x="518" y="32">
x1.vsampled_p
</text>
<path stroke="red" d="M50 431l1 0 1 -7 0 -15 1 -15 0 -4 1 1M54 414l0 -37 1 -4 0 -16 1 -2 0 -3 2 -2 1 0 1 -1 3 0 1 1 4 0 1 -1 48 0 0 -1 1 -11 0 -30 1 -4 0 -8 2 -4 1 -1 418 0M540 291l0 -1 26 0 1 1M567 292l0 -2 7 0M574 311l0 -21M574 311l1 7M575 328l0 -10"/>
<path stroke="red" d="M575 328l1 3 17 0M593 332l0 -1 7 0M600 345l0 -14M600 345l1 2M601 353l0 -6M601 352l5 0 0 -1M606 352l19 0 1 -1 0 -15 1 -1 0 -1 6 0 0 -1M633 334l20 0M653 342l0 -8M653 342l1 2 25 0M679 348l0 -4M679 348l1 1M680 350l0 -1 133 0"/>
<path stroke="red" d="M813 350l0 -1 17 0 1 1 0 -1 87 0M918 350l0 -23 1 -3 0 -22 1 -3 0 -4 1 -2 0 -2 2 0 0 -1 13 0M936 292l0 -2 38 0"/>
<path stroke="blue" d="M50 23l46 0"/>
<text stroke="none" fill="white" font-size="16" x="106" y="32">
x1.vsampled_n
</text>
<path stroke="blue" d="M50 431l1 0 1 -7 0 -15 1 -14 0 -5 1 2M54 414l0 -37 1 -4 0 -16 1 -2 0 -3 2 -2 1 0 1 -1 3 0 1 1 4 0 1 -1 48 0M117 364l0 -15M117 364l1 15M118 398l0 -19M118 398l1 2M119 405l0 -5M119 405l2 2M121 408l0 -1M121 408l419 0M540 409l0 -1"/>
<path stroke="blue" d="M540 408l6 0 0 -21 1 -2 0 -25 1 -7 0 -3 1 -1 0 -1 1 -1 17 0M567 348l0 -1 26 0M593 348l0 -1 53 0M646 348l0 -1 60 0M706 351l0 -4M706 351l1 -1 5 0 0 -1 1 0M713 350l0 -1 12 0M725 350l0 -1M725 350l7 0 0 -4M732 347l19 0M751 348l0 -1"/>
<path stroke="blue" d="M751 348l1 -1 7 0M759 350l0 -3M759 349l6 0 0 -1M765 349l13 0 0 -1M778 349l8 0M786 350l0 -1 18 0M804 350l0 -1 27 0M831 350l0 -1 26 0M857 350l0 -1 26 0M883 350l0 -1 27 0M910 350l0 -1 8 0M918 388l0 -40M918 388l1 6M919 412l0 -18"/>
<path stroke="blue" d="M919 412l1 0 0 -1 1 -1 0 -1 1 0 0 -1 52 0"/>
<path stroke="#FFA500" d="M462 39l46 0"/>
<text stroke="none" fill="white" font-size="16" x="518" y="48">
x1.vsampled_p-x1.vsampled_n
</text>
<path stroke="#FFA500" d="M50 431l2 0 0 -1 2 0M54 431l0 -1M54 431l63 0 0 -16 1 -26 0 -49 1 -7 0 -11 1 -4 1 -3 0 -1 1 -1 418 0M540 314l0 -1 6 0M546 334l0 -21M546 334l1 3M547 361l0 -24M547 361l1 7M548 371l0 -3M548 371l1 2M549 374l0 -1M549 374l17 0"/>
<path stroke="#FFA500" d="M566 374l1 1 0 -1 7 0M574 395l0 -21M574 395l1 7M575 412l0 -10M575 412l1 3 24 0M600 429l0 -14M600 429l1 2M601 437l0 -6M601 436l18 0 0 -1M619 436l6 0 1 -1 0 -15 1 -1 0 -1 19 0 0 -1M646 418l7 0M653 426l0 -8M653 426l1 2"/>
<path stroke="#FFA500" d="M654 428l25 0M679 432l0 -4M679 432l1 1M680 434l0 -1 26 0 0 -4 1 1 1 0M708 431l0 -1M708 431l17 0 0 -1M725 431l7 0M732 434l0 -3M732 433l27 0 0 -3M759 431l6 0M765 432l0 -1 21 0 0 -1M786 431l27 0M813 432l0 -1 105 0M918 433l0 -63"/>
<path stroke="#FFA500" d="M918 370l1 -9 0 -40 1 -2 0 -4 1 -1 1 0 0 -1 14 0M936 314l0 -1 38 0"/>
<path stroke="green" d="M50 39l46 0"/>
<text stroke="none" fill="white" font-size="16" x="106" y="48">
x1.sw_sample-2
</text>
<path stroke="green" d="M50 613l1 0 1 -9 0 -21 1 -21M53 579l0 -23M53 579l1 31M54 613l0 -3M54 613l63 0M117 620l0 -172M117 449l422 0M539 614l0 -171M539 613l422 0M961 618l0 -170 1 1 12 0"/>
<path stroke="#FFC0C5" d="M462 55l46 0"/>
<text stroke="none" fill="white" font-size="16" x="518" y="64">
x1.comp_out_p+2
</text>
<path stroke="#FFC0C5" d="M50 249l1 0 1 -9 0 -22 1 -18 0 -4M53 198l1 5M54 250l0 -47M54 248l1 1 487 0M542 256l0 -173M542 85l13 0M555 250l0 -172M555 249l13 0 0 -166M568 85l13 0 0 -8 1 160M582 249l0 -12M582 249l12 0M594 250l0 -166M594 85l14 0M608 249l0 -171"/>
<path stroke="#FFC0C5" d="M608 249l39 0 0 -165M647 85l14 0M661 249l0 -172M661 249l12 0 1 2 0 -167M674 85l13 0M687 249l0 -171M687 249l40 0 1 -157 0 -8M728 85l12 0M740 249l0 -172M740 249l67 0 0 -165 1 1 11 0M819 249l0 -167M819 249l41 0 0 -165M860 85l12 0"/>
<path stroke="#FFC0C5" d="M872 249l0 -174M872 249l14 0 0 -149 1 -15 0 -1M887 85l11 0M898 249l0 -174M898 249l15 0 0 -165M913 85l12 0M925 250l0 -171M925 249l12 0M937 250l0 -1M937 250l1 -63 0 -103M938 85l13 0M951 249l0 -172M951 249l23 0"/>
<path stroke="#A52A2A" d="M50 55l46 0"/>
<text stroke="none" fill="white" font-size="16" x="106" y="64">
x1.comp_out_n-2
</text>
<path stroke="#A52A2A" d="M50 613l1 0 1 -9 0 -22 1 -19M53 564l0 -3M53 564l1 6M54 614l0 -56M54 571l1 40M55 613l0 -2M55 613l539 0M594 614l0 -1 27 0M621 615l0 -168M621 449l13 0M634 613l0 -171M634 613l66 0 0 -165M700 449l13 0 0 -10 1 148M714 613l0 -26"/>
<path stroke="#A52A2A" d="M714 613l39 0 0 -165M753 449l13 0M766 613l0 -172M766 613l14 0 0 -165M780 449l13 0M793 613l0 -168M793 613l41 0 0 -165M834 449l11 0 0 -2 1 155M846 613l0 -11M846 613l92 0M938 614l0 -1 36 0"/>
</svg>
