<?xml version="1.0" standalone="yes"?>
<!DOCTYPE svg PUBLIC "-//W3C//DTD SVG 1.1//EN"
 "http://www.w3.org/Graphics/SVG/1.1/DTD/svg11.dtd">
<svg xmlns="http://www.w3.org/2000/svg" version="1.1"
  width="100%" height="100%" viewBox="0 0 1024 768"
  style="fill: none; font-family: Helvetica;
 font: Helvetica;
">

<!-- Creator: NGspice -->

<rect x="0" y="0" width="1024" height="768" fill="black" stroke="none"/>
<text stroke="none" fill="white" font-size="16" x="358" y="752">
time
</text>
<text stroke="none" fill="white" font-size="16" x="10" y="16">
tran1: run1760_vin0.647312
</text>
<path stroke="white" d="M50 704l0 -637"/>
<text stroke="none" fill="white" font-size="16" x="35" y="728">
0.0
</text>
<path stroke="white" stroke-dasharray="1,2" d="M182 704l0 -637"/>
<text stroke="none" fill="white" font-size="16" x="157" y="728">
100.0
</text>
<path stroke="white" stroke-dasharray="1,2" d="M314 704l0 -637"/>
<text stroke="none" fill="white" font-size="16" x="289" y="728">
200.0
</text>
<path stroke="white" stroke-dasharray="1,2" d="M446 704l0 -637"/>
<text stroke="none" fill="white" font-size="16" x="421" y="728">
300.0
</text>
<path stroke="white" stroke-dasharray="1,2" d="M578 704l0 -637"/>
<text stroke="none" fill="white" font-size="16" x="553" y="728">
400.0
</text>
<path stroke="white" stroke-dasharray="1,2" d="M710 704l0 -637"/>
<text stroke="none" fill="white" font-size="16" x="685" y="728">
500.0
</text>
<path stroke="white" stroke-dasharray="1,2" d="M842 704l0 -637"/>
<text stroke="none" fill="white" font-size="16" x="817" y="728">
600.0
</text>
<path stroke="white" stroke-dasharray="1,2" d="M974 704l0 -637"/>
<text stroke="none" fill="white" font-size="16" x="949" y="728">
700.0
</text>
<text stroke="none" fill="white" font-size="16" x="614" y="752">
ns
</text>
<path stroke="white" stroke-dasharray="1,2" d="M50 704l924 0"/>
<text stroke="none" fill="white" font-size="16" x="8" y="712">
-3.0
</text>
<path stroke="white" stroke-dasharray="1,2" d="M50 613l924 0"/>
<text stroke="none" fill="white" font-size="16" x="8" y="621">
-2.0
</text>
<path stroke="white" stroke-dasharray="1,2" d="M50 522l924 0"/>
<text stroke="none" fill="white" font-size="16" x="8" y="530">
-1.0
</text>
<path stroke="white" d="M50 431l924 0"/>
<text stroke="none" fill="white" font-size="16" x="18" y="439">
0.0
</text>
<path stroke="white" stroke-dasharray="1,2" d="M50 340l924 0"/>
<text stroke="none" fill="white" font-size="16" x="18" y="348">
1.0
</text>
<path stroke="white" stroke-dasharray="1,2" d="M50 249l924 0"/>
<text stroke="none" fill="white" font-size="16" x="18" y="257">
2.0
</text>
<path stroke="white" stroke-dasharray="1,2" d="M50 158l924 0"/>
<text stroke="none" fill="white" font-size="16" x="18" y="166">
3.0
</text>
<path stroke="white" stroke-dasharray="1,2" d="M50 67l924 0"/>
<text stroke="none" fill="white" font-size="16" x="18" y="75">
4.0
</text>
<text stroke="none" fill="white" font-size="16" x="10" y="32">
     
</text>
<path stroke="red" d="M462 23l46 0"/>
<text stroke="none" fill="white" font-size="16" x="518" y="32">
x1.vsampled_p
</text>
<path stroke="red" d="M50 431l1 0 1 -7 0 -15 1 -15 0 -4 1 1M54 414l0 -37 1 -4 0 -16 1 -2 0 -3 2 -2 1 0 1 -1 3 0 1 1 4 0 1 -1 48 0 0 -1 1 -11 0 -30 1 -4 0 -7 1 -3 1 -1 0 -1 1 -1 417 0M539 291l0 -1M539 291l1 -1M540 291l0 -1M540 291l14 0 0 -1 12 0"/>
<path stroke="red" d="M566 290l1 1M567 292l0 -1 7 0M574 314l0 -23M574 314l1 8M575 330l0 -8M575 330l2 2 0 -1 16 0M593 332l0 -1 7 0M600 345l0 -14M600 345l1 3M601 353l0 -5M601 353l1 -1 23 0 1 -1 0 -15 1 -1 0 -1 26 0M653 342l0 -8M653 342l1 2M654 345l0 -1"/>
<path stroke="red" d="M654 344l25 0M679 347l0 -3M679 347l1 1M680 350l0 -2M680 349l19 0M699 350l0 -1 26 0M725 350l0 -1 26 0M751 350l0 -1 27 0M778 350l0 -1 26 0M804 350l0 -1 27 0M831 350l0 -1 26 0M857 350l0 -1 26 0M883 350l0 -1 27 0M910 350l0 -1"/>
<path stroke="red" d="M910 349l8 0M918 350l0 -25 1 -4 0 -20 1 -2 0 -5 1 -1 0 -1 1 0 0 -1 1 0 0 -1 13 0M936 292l0 -2M936 291l14 0 0 -1 24 0"/>
<path stroke="blue" d="M50 23l46 0"/>
<text stroke="none" fill="white" font-size="16" x="106" y="32">
x1.vsampled_n
</text>
<path stroke="blue" d="M50 431l1 0 1 -7 0 -15 1 -14 0 -5 1 2M54 414l0 -37 1 -4 0 -16 1 -2 0 -3 2 -2 1 0 1 -1 3 0 1 1 4 0 1 -1 48 0M117 364l0 -15M117 364l1 15M118 398l0 -19M118 398l1 2M119 405l0 -5M119 405l2 2M121 408l0 -1M121 408l425 0 0 -20"/>
<path stroke="blue" d="M546 388l1 -3 0 -23 1 -7 0 -4 1 -2 0 -1 1 -1 4 0 0 -1M554 347l26 0 0 -1M580 347l53 0 0 -1M633 347l73 0M706 351l0 -4M706 350l1 0 0 -1 18 0M725 350l0 -1 8 0 0 -3M733 347l18 0M751 348l0 -1 8 0M759 350l0 -3M759 349l1 0 0 -1"/>
<path stroke="blue" d="M760 348l18 0M778 349l0 -1 7 0M785 349l0 -1M785 349l1 0M786 350l0 -1 27 0M813 350l0 -1 17 0 1 1 0 -1 87 0M918 395l0 -49M918 395l1 7M919 412l0 -10M919 412l1 0 0 -2 1 -1 1 0 0 -1 52 0"/>
<path stroke="#FFA500" d="M462 39l46 0"/>
<text stroke="none" fill="white" font-size="16" x="518" y="48">
x1.vsampled_p-x1.vsampled_n
</text>
<path stroke="#FFA500" d="M50 431l2 0 0 -1 2 0M54 431l0 -1M54 431l63 0 0 -16 1 -26 0 -48 1 -7 0 -12 1 -4 1 -3 0 -1 1 0 1 -1 417 0M540 314l0 -1 1 0M541 314l0 -1 5 0M546 334l0 -21M546 334l1 3M547 360l0 -23M547 360l1 7M548 370l0 -3M548 370l1 2M549 374l0 -2"/>
<path stroke="#FFA500" d="M549 374l1 0M550 375l0 -1M550 375l4 0 0 -1M554 375l13 0M567 376l0 -2M567 375l7 0M574 398l0 -23M574 398l1 8M575 414l0 -8M575 414l1 2 4 0 0 -1M580 416l13 0 0 -1M593 416l7 0M600 429l0 -13M600 429l1 3M601 437l0 -5M601 437l1 -1"/>
<path stroke="#FFA500" d="M602 436l23 0 1 -1 0 -15 1 -1 0 -1 26 0M653 426l0 -8M653 426l1 2M654 429l0 -1 25 0M679 431l0 -3M679 431l1 1M680 434l0 -2M680 433l6 0M686 434l0 -1 20 0 0 -4M706 430l1 0M707 431l0 -1M707 431l26 0M733 435l0 -4M733 433l26 0"/>
<path stroke="#FFA500" d="M759 433l0 -3M759 432l26 0 0 -1 1 0 0 -1M786 431l27 0 0 -1M813 431l25 0 1 1 0 -1 79 0M918 434l0 -73 1 -11 0 -30 1 -2 0 -3 1 0 0 -1 2 0 0 -1 13 0M936 315l0 -2 38 0"/>
<path stroke="green" d="M50 39l46 0"/>
<text stroke="none" fill="white" font-size="16" x="106" y="48">
x1.sw_sample-2
</text>
<path stroke="green" d="M50 613l1 0 1 -9 0 -21 1 -21M53 579l0 -23M53 579l1 31M54 613l0 -3M54 613l63 0M117 620l0 -172M117 449l422 0M539 614l0 -171M539 613l422 0M961 618l0 -170 1 1 12 0"/>
<path stroke="#FFC0C5" d="M462 55l46 0"/>
<text stroke="none" fill="white" font-size="16" x="518" y="64">
x1.comp_out_p+2
</text>
<path stroke="#FFC0C5" d="M50 249l1 0 1 -9 0 -22 1 -18 0 -4M53 198l1 5M54 250l0 -47M54 248l1 1 486 0 1 1 0 -166M542 85l13 0M555 250l0 -172M555 249l13 0M568 253l0 -169M568 85l13 0 0 -8 1 160M582 249l0 -12M582 249l12 0M594 250l0 -167M594 85l14 0"/>
<path stroke="#FFC0C5" d="M608 249l0 -172M608 249l39 0M647 251l0 -167M647 85l14 0M661 250l0 -173M661 249l12 0 1 6 0 -172M674 85l13 0M687 249l0 -172M687 249l41 0 0 -164 1 -1M729 85l0 -1M729 85l11 0M740 249l0 -173M740 249l94 0 0 -165M834 85l11 0"/>
<path stroke="#FFC0C5" d="M845 85l0 -10 1 143M846 249l0 -31M846 249l91 0M937 250l0 -1M937 250l1 -48 0 -118M938 85l13 0M951 249l0 -172M951 249l23 0"/>
<path stroke="#A52A2A" d="M50 55l46 0"/>
<text stroke="none" fill="white" font-size="16" x="106" y="64">
x1.comp_out_n-2
</text>
<path stroke="#A52A2A" d="M50 613l1 0 1 -9 0 -22 1 -19M53 564l0 -3M53 564l1 6M54 614l0 -57M54 570l1 41M55 613l0 -2M55 613l566 0M621 615l0 -168M621 449l13 0M634 613l0 -173M634 613l13 0M647 614l0 -1 53 0 0 -165M700 449l13 0 0 -7 1 136M714 613l0 -35"/>
<path stroke="#A52A2A" d="M714 613l39 0 0 -165M753 449l13 0M766 614l0 -174M766 614l1 -1 13 0 0 -165M780 449l13 0M793 613l0 -174M793 613l14 0 0 -164 1 -1M808 449l0 -1M808 449l11 0M819 613l0 -171M819 613l41 0 0 -165 1 1 11 0M872 613l0 -174M872 613l14 0"/>
<path stroke="#A52A2A" d="M886 613l0 -152 1 -12 11 0M898 613l0 -174M898 613l15 0 0 -165M913 449l12 0M925 614l0 -174M925 613l13 0M938 614l0 -1 36 0"/>
</svg>
