<?xml version="1.0" standalone="yes"?>
<!DOCTYPE svg PUBLIC "-//W3C//DTD SVG 1.1//EN"
 "http://www.w3.org/Graphics/SVG/1.1/DTD/svg11.dtd">
<svg xmlns="http://www.w3.org/2000/svg" version="1.1"
  width="100%" height="100%" viewBox="0 0 1024 768"
  style="fill: none; font-family: Helvetica;
 font: Helvetica;
">

<!-- Creator: NGspice -->

<rect x="0" y="0" width="1024" height="768" fill="black" stroke="none"/>
<text stroke="none" fill="white" font-size="16" x="358" y="752">
time
</text>
<text stroke="none" fill="white" font-size="16" x="10" y="16">
tran1: run965_vin-0.0514172
</text>
<path stroke="white" d="M50 704l0 -637"/>
<text stroke="none" fill="white" font-size="16" x="35" y="728">
0.0
</text>
<path stroke="white" stroke-dasharray="1,2" d="M182 704l0 -637"/>
<text stroke="none" fill="white" font-size="16" x="157" y="728">
100.0
</text>
<path stroke="white" stroke-dasharray="1,2" d="M314 704l0 -637"/>
<text stroke="none" fill="white" font-size="16" x="289" y="728">
200.0
</text>
<path stroke="white" stroke-dasharray="1,2" d="M446 704l0 -637"/>
<text stroke="none" fill="white" font-size="16" x="421" y="728">
300.0
</text>
<path stroke="white" stroke-dasharray="1,2" d="M578 704l0 -637"/>
<text stroke="none" fill="white" font-size="16" x="553" y="728">
400.0
</text>
<path stroke="white" stroke-dasharray="1,2" d="M710 704l0 -637"/>
<text stroke="none" fill="white" font-size="16" x="685" y="728">
500.0
</text>
<path stroke="white" stroke-dasharray="1,2" d="M842 704l0 -637"/>
<text stroke="none" fill="white" font-size="16" x="817" y="728">
600.0
</text>
<path stroke="white" stroke-dasharray="1,2" d="M974 704l0 -637"/>
<text stroke="none" fill="white" font-size="16" x="949" y="728">
700.0
</text>
<text stroke="none" fill="white" font-size="16" x="614" y="752">
ns
</text>
<path stroke="white" stroke-dasharray="1,2" d="M50 704l924 0"/>
<text stroke="none" fill="white" font-size="16" x="8" y="712">
-2.5
</text>
<path stroke="white" stroke-dasharray="1,2" d="M50 655l924 0"/>
<text stroke="none" fill="white" font-size="16" x="8" y="663">
-2.0
</text>
<path stroke="white" stroke-dasharray="1,2" d="M50 606l924 0"/>
<text stroke="none" fill="white" font-size="16" x="8" y="614">
-1.5
</text>
<path stroke="white" stroke-dasharray="1,2" d="M50 557l924 0"/>
<text stroke="none" fill="white" font-size="16" x="8" y="565">
-1.0
</text>
<path stroke="white" stroke-dasharray="1,2" d="M50 508l924 0"/>
<text stroke="none" fill="white" font-size="16" x="8" y="516">
-0.5
</text>
<path stroke="white" d="M50 459l924 0"/>
<text stroke="none" fill="white" font-size="16" x="18" y="467">
0.0
</text>
<path stroke="white" stroke-dasharray="1,2" d="M50 410l924 0"/>
<text stroke="none" fill="white" font-size="16" x="18" y="418">
0.5
</text>
<path stroke="white" stroke-dasharray="1,2" d="M50 361l924 0"/>
<text stroke="none" fill="white" font-size="16" x="18" y="369">
1.0
</text>
<path stroke="white" stroke-dasharray="1,2" d="M50 312l924 0"/>
<text stroke="none" fill="white" font-size="16" x="18" y="320">
1.5
</text>
<path stroke="white" stroke-dasharray="1,2" d="M50 263l924 0"/>
<text stroke="none" fill="white" font-size="16" x="18" y="271">
2.0
</text>
<path stroke="white" stroke-dasharray="1,2" d="M50 214l924 0"/>
<text stroke="none" fill="white" font-size="16" x="18" y="222">
2.5
</text>
<path stroke="white" stroke-dasharray="1,2" d="M50 165l924 0"/>
<text stroke="none" fill="white" font-size="16" x="18" y="173">
3.0
</text>
<path stroke="white" stroke-dasharray="1,2" d="M50 116l924 0"/>
<text stroke="none" fill="white" font-size="16" x="18" y="124">
3.5
</text>
<path stroke="white" stroke-dasharray="1,2" d="M50 67l924 0"/>
<text stroke="none" fill="white" font-size="16" x="18" y="75">
4.0
</text>
<text stroke="none" fill="white" font-size="16" x="10" y="32">
     
</text>
<path stroke="red" d="M462 23l46 0"/>
<text stroke="none" fill="white" font-size="16" x="518" y="32">
x1.vsampled_p
</text>
<path stroke="red" d="M50 459l1 0 1 -7 0 -17 1 -15 0 -5 1 1M54 442l0 -42 1 -6 0 -16 1 -2 0 -3 1 -1 1 0 0 -1 59 0 1 2M118 374l0 -1M118 374l1 1M119 376l0 -1M119 376l427 0 0 -22 1 -1 0 -31 1 -6 0 -2 1 -2 0 -1 1 0 0 -1 4 0 0 -1M554 310l13 0M567 312l0 -2"/>
<path stroke="red" d="M567 310l7 0M574 342l0 -32M574 342l1 8M575 356l0 -6M575 356l1 0 0 -1 1 0 1 -1 15 0M593 355l0 -1 7 0M600 372l0 -18M600 372l1 3M601 380l0 -5M601 379l1 -2 0 -1 23 0 0 -12 1 -1 0 -6 7 0 0 -1M633 357l20 0M653 366l0 -9M653 366l1 2"/>
<path stroke="red" d="M654 369l0 -1M654 369l1 -1 51 0M706 372l0 -4M706 371l6 0 0 -1 1 0M713 371l0 -1M713 371l12 0 0 -1M725 371l13 0 0 -1 2 0M740 371l0 -1 11 0M751 371l0 -1M751 371l1 0 0 -1M752 371l13 0 0 -1 13 0M778 371l0 -1M778 371l8 0M786 372l0 -1"/>
<path stroke="red" d="M786 371l18 0M804 372l0 -1 27 0M831 372l0 -1 86 0M917 372l0 -1M917 372l1 0M918 378l0 -7M918 377l1 0 0 -1 55 0"/>
<path stroke="blue" d="M50 23l46 0"/>
<text stroke="none" fill="white" font-size="16" x="106" y="32">
x1.vsampled_n
</text>
<path stroke="blue" d="M50 459l1 0 1 -7 0 -17 1 -15 0 -5 1 1M54 442l0 -42 1 -6 0 -16 1 -2 0 -3 1 -1 1 0 0 -1 59 0 1 -2 0 -1 1 -1 0 -1 448 0M567 367l0 -1 112 0M679 371l0 -5M679 371l1 1M680 374l0 -2 3 0 1 -1 14 0 1 1 0 -1M699 372l1 0 0 -1 6 0M706 372l0 -1"/>
<path stroke="blue" d="M706 372l6 0 0 -1 13 0M725 372l0 -1 1 1 6 0 0 -4M732 369l27 0M759 372l0 -3M759 371l1 0 1 -1 17 0M778 371l0 -1 26 0M804 371l0 -1 8 0M812 371l0 -1M812 371l106 0M918 372l0 -7 1 0M919 366l0 -1M919 366l55 0"/>
<path stroke="#FFA500" d="M462 39l46 0"/>
<text stroke="none" fill="white" font-size="16" x="518" y="48">
x1.vsampled_p-x1.vsampled_n
</text>
<path stroke="#FFA500" d="M50 459l67 0M117 460l0 -1M117 460l1 3M118 466l0 -3M118 466l1 2 1 1 426 0 0 -22 1 -1 0 -31 1 -6 0 -2 1 -2 0 -1 1 0 0 -1 4 0 0 -1M554 403l13 0M567 405l0 -2 7 0M574 435l0 -32M574 435l1 8M575 449l0 -6M575 449l1 0 0 -1 1 0"/>
<path stroke="#FFA500" d="M577 448l1 -1 22 0M600 465l0 -18M600 465l1 3M601 473l0 -5M601 471l1 -1 0 -1 23 0 0 -12 1 -1 0 -6 27 0M653 459l0 -9M653 459l1 2M654 462l0 -1M654 462l1 -1 24 0 0 -6 1 0 0 -2M680 455l26 0M706 459l0 -4M706 459l1 -1 25 0"/>
<path stroke="#FFA500" d="M732 461l0 -3M732 461l1 0 1 -1 17 0M751 461l0 -1M751 461l1 -1 7 0 0 -2M759 459l27 0M786 460l0 -1M786 460l26 0 0 -1 105 0M917 460l0 -1M917 460l1 0M918 471l0 -13M918 471l1 -1 0 -1 55 0"/>
<path stroke="green" d="M50 39l46 0"/>
<text stroke="none" fill="white" font-size="16" x="106" y="48">
x1.sw_sample-2
</text>
<path stroke="green" d="M50 655l1 0 1 -10 0 -23 1 -21M53 621l0 -27M53 621l1 31M54 655l0 -3M54 655l63 0M117 662l0 -184 1 1 421 0M539 656l0 -184M539 655l422 0M961 660l0 -182 1 0M962 479l0 -1 1 1 11 0"/>
<path stroke="#FFC0C5" d="M462 55l46 0"/>
<text stroke="none" fill="white" font-size="16" x="518" y="64">
x1.comp_out_p+2
</text>
<path stroke="#FFC0C5" d="M50 263l1 0 1 -10 0 -23 1 -20 0 -4M53 209l1 4M54 263l0 -50M54 263l514 0M568 265l0 -180M568 87l13 0 0 -9 1 162M582 263l0 -23M582 263l12 0 0 -178 1 1M595 87l0 -1M595 87l13 0M608 263l0 -183M608 263l39 0 0 -178M647 87l14 0"/>
<path stroke="#FFC0C5" d="M661 263l0 -185M661 263l39 0 0 -178M700 87l13 0 0 -8 1 151M714 263l0 -33M714 263l13 0 0 -163 1 -14M728 87l0 -1M728 87l12 0M740 263l0 -185M740 263l40 0 1 -169 0 -9M781 87l12 0M793 264l0 -182M793 263l181 0"/>
<path stroke="#A52A2A" d="M50 55l46 0"/>
<text stroke="none" fill="white" font-size="16" x="106" y="64">
x1.comp_out_n-2
</text>
<path stroke="#A52A2A" d="M50 655l1 0 1 -10 0 -24 1 -20M53 602l0 -3M53 602l1 7M54 655l0 -46M54 655l488 0M542 656l0 -179M542 479l13 0M555 656l0 -186M555 655l66 0M621 656l0 -180M621 479l13 0M634 655l0 -185M634 655l39 0 1 2 0 -181M674 479l13 0M687 655l0 -186"/>
<path stroke="#A52A2A" d="M687 655l66 0 0 -178M753 479l13 0M766 655l0 -187M766 655l41 0 0 -177M807 479l12 0M819 655l0 -187M819 655l14 0 1 -170 0 -7M834 479l11 0 0 -9 1 160M846 655l0 -25M846 655l14 0 0 -177M860 479l12 0M872 655l0 -186M872 655l14 0"/>
<path stroke="#A52A2A" d="M886 655l1 -163 0 -14M887 479l11 0M898 655l0 -187M898 655l15 0 0 -177M913 479l12 0M925 655l0 -186M925 655l13 0M938 659l0 -183M938 479l13 0M951 655l0 -185M951 655l23 0"/>
</svg>
