<?xml version="1.0" standalone="yes"?>
<!DOCTYPE svg PUBLIC "-//W3C//DTD SVG 1.1//EN"
 "http://www.w3.org/Graphics/SVG/1.1/DTD/svg11.dtd">
<svg xmlns="http://www.w3.org/2000/svg" version="1.1"
  width="100%" height="100%" viewBox="0 0 1024 768"
  style="fill: none; font-family: Helvetica;
 font: Helvetica;
">

<!-- Creator: NGspice -->

<rect x="0" y="0" width="1024" height="768" fill="black" stroke="none"/>
<text stroke="none" fill="white" font-size="16" x="358" y="752">
time
</text>
<text stroke="none" fill="white" font-size="16" x="10" y="16">
tran1: run964_vin-0.0522961
</text>
<path stroke="white" d="M50 704l0 -637"/>
<text stroke="none" fill="white" font-size="16" x="35" y="728">
0.0
</text>
<path stroke="white" stroke-dasharray="1,2" d="M182 704l0 -637"/>
<text stroke="none" fill="white" font-size="16" x="157" y="728">
100.0
</text>
<path stroke="white" stroke-dasharray="1,2" d="M314 704l0 -637"/>
<text stroke="none" fill="white" font-size="16" x="289" y="728">
200.0
</text>
<path stroke="white" stroke-dasharray="1,2" d="M446 704l0 -637"/>
<text stroke="none" fill="white" font-size="16" x="421" y="728">
300.0
</text>
<path stroke="white" stroke-dasharray="1,2" d="M578 704l0 -637"/>
<text stroke="none" fill="white" font-size="16" x="553" y="728">
400.0
</text>
<path stroke="white" stroke-dasharray="1,2" d="M710 704l0 -637"/>
<text stroke="none" fill="white" font-size="16" x="685" y="728">
500.0
</text>
<path stroke="white" stroke-dasharray="1,2" d="M842 704l0 -637"/>
<text stroke="none" fill="white" font-size="16" x="817" y="728">
600.0
</text>
<path stroke="white" stroke-dasharray="1,2" d="M974 704l0 -637"/>
<text stroke="none" fill="white" font-size="16" x="949" y="728">
700.0
</text>
<text stroke="none" fill="white" font-size="16" x="614" y="752">
ns
</text>
<path stroke="white" stroke-dasharray="1,2" d="M50 704l924 0"/>
<text stroke="none" fill="white" font-size="16" x="8" y="712">
-3.0
</text>
<path stroke="white" stroke-dasharray="1,2" d="M50 613l924 0"/>
<text stroke="none" fill="white" font-size="16" x="8" y="621">
-2.0
</text>
<path stroke="white" stroke-dasharray="1,2" d="M50 522l924 0"/>
<text stroke="none" fill="white" font-size="16" x="8" y="530">
-1.0
</text>
<path stroke="white" d="M50 431l924 0"/>
<text stroke="none" fill="white" font-size="16" x="18" y="439">
0.0
</text>
<path stroke="white" stroke-dasharray="1,2" d="M50 340l924 0"/>
<text stroke="none" fill="white" font-size="16" x="18" y="348">
1.0
</text>
<path stroke="white" stroke-dasharray="1,2" d="M50 249l924 0"/>
<text stroke="none" fill="white" font-size="16" x="18" y="257">
2.0
</text>
<path stroke="white" stroke-dasharray="1,2" d="M50 158l924 0"/>
<text stroke="none" fill="white" font-size="16" x="18" y="166">
3.0
</text>
<path stroke="white" stroke-dasharray="1,2" d="M50 67l924 0"/>
<text stroke="none" fill="white" font-size="16" x="18" y="75">
4.0
</text>
<text stroke="none" fill="white" font-size="16" x="10" y="32">
     
</text>
<path stroke="red" d="M462 23l46 0"/>
<text stroke="none" fill="white" font-size="16" x="518" y="32">
x1.vsampled_p
</text>
<path stroke="red" d="M50 431l1 0 1 -7 0 -15 1 -14 0 -5 1 1M54 415l0 -39 1 -5 0 -15 1 -2 0 -3 1 -1 2 0 1 -1 4 0M64 350l0 -1M64 350l4 0 1 -1 48 0M117 350l0 -1M117 350l1 1M118 352l0 -1M118 352l1 1M119 354l0 -1M119 354l427 0 0 -19 1 -1 0 -29 1 -6"/>
<path stroke="red" d="M548 299l0 -2 1 -2 0 -1 1 -1 4 0 0 -1M554 293l13 0M567 295l0 -2 7 0M574 322l0 -29M574 322l1 8M575 335l0 -5M575 335l1 1 0 -1 1 -1 3 0 0 -1M580 334l20 0M600 348l0 -14M600 348l1 4M601 358l0 -6M601 356l1 -1 0 -1 23 0 0 -10 1 -1"/>
<path stroke="red" d="M626 343l0 -7 20 0M646 337l0 -1 7 0M653 346l0 -10M653 346l1 2 0 -1 1 0 1 -1 16 0M672 347l0 -1 26 0 1 1 0 -1 7 0M706 350l0 -4M706 350l1 -1 105 0M812 350l0 -1M812 350l1 0 0 -1 18 0M831 350l0 -1 26 0M857 350l0 -1 26 0M883 350l0 -1"/>
<path stroke="red" d="M883 349l27 0M910 350l0 -1 7 0M917 352l0 -4M917 352l1 1M918 356l0 -3M918 355l1 -1 55 0"/>
<path stroke="blue" d="M50 23l46 0"/>
<text stroke="none" fill="white" font-size="16" x="106" y="32">
x1.vsampled_n
</text>
<path stroke="blue" d="M50 431l1 0 1 -7 0 -15 1 -15 0 -4 1 1M54 415l0 -39 1 -5 0 -15 1 -2 0 -3 1 -1 2 0 1 -1 4 0M64 350l0 -1M64 350l4 0 1 -1 48 0 1 -2 0 -1 1 -1 1 0 1 -1 418 0M539 345l0 -1M539 345l15 0 0 -1 12 0 1 1 13 0 0 -1 13 0M593 345l0 -1"/>
<path stroke="blue" d="M593 345l13 0 0 -1 1 0M607 345l0 -1M607 345l1 0 0 -1M608 345l11 0 0 -1M619 345l14 0 0 -1 13 0M646 345l0 -1M646 345l13 0 0 -1 13 0M672 345l0 -1M672 345l7 0M679 349l0 -4M679 349l1 1M680 352l0 -2 6 0 0 -1M686 350l26 0 0 -1"/>
<path stroke="blue" d="M712 350l20 0 0 -4M732 347l19 0M751 348l0 -1M751 348l1 0 0 -1 7 0M759 350l0 -3M759 349l26 0 1 1 0 -1 18 0M804 350l0 -1 26 0 1 1 0 -1 86 0M917 350l0 -3 1 0 0 -3 1 0 1 1 3 0 0 -1 1 0M924 345l0 -1M924 345l12 0 0 -1M936 345l14 0"/>
<path stroke="blue" d="M950 345l0 -1 1 1 10 0 0 -1 13 0"/>
<path stroke="#FFA500" d="M462 39l46 0"/>
<text stroke="none" fill="white" font-size="16" x="518" y="48">
x1.vsampled_p-x1.vsampled_n
</text>
<path stroke="#FFA500" d="M50 431l67 0M117 432l0 -1M117 432l1 3M118 437l0 -2M118 437l1 2M119 440l0 -1M119 440l3 0 1 1 416 0 0 -1 1 0M540 441l0 -1 6 0 0 -18 1 -2 0 -29 1 -5 0 -3 1 -2 0 -1 1 0 0 -1 16 0 1 1M567 381l0 -2 7 0M574 408l0 -29M574 408l1 8"/>
<path stroke="#FFA500" d="M575 422l0 -6M575 422l1 0 0 -1 1 0 1 -1 22 0M600 435l0 -15M600 435l1 3M601 444l0 -6M601 442l1 -1 1 0 1 -1 2 0M606 441l0 -1M606 441l13 0 0 -1M619 441l1 0 0 -1 5 0 0 -10 1 -1 0 -6 1 0 0 -1 1 0 1 1 4 0 0 -1M633 423l13 0"/>
<path stroke="#FFA500" d="M646 423l0 -1M646 423l7 0M653 433l0 -10M653 433l1 1 0 -1 25 0 0 -5 1 -1 0 -1M680 427l1 1 25 0M706 431l0 -3M706 431l1 -1 25 0M732 433l0 -3M732 433l20 0 0 -1M752 433l7 0 0 -3M759 431l26 0 1 -1M786 431l0 -1M786 431l26 0"/>
<path stroke="#FFA500" d="M812 431l1 1 0 -1 25 0 1 1 0 -1 78 0M917 435l0 -6M917 435l1 2M918 443l0 -6M918 442l1 -1 1 0 0 -1 3 0M923 441l0 -1M923 441l1 0 0 -1 1 1 1 0 0 -1 10 0M936 441l0 -1 14 0M950 441l0 -1M950 441l1 0 0 -1M951 441l1 0 0 -1 10 0"/>
<path stroke="#FFA500" d="M962 441l0 -1M962 441l12 0"/>
<path stroke="green" d="M50 39l46 0"/>
<text stroke="none" fill="white" font-size="16" x="106" y="48">
x1.sw_sample-2
</text>
<path stroke="green" d="M50 613l1 0 1 -9 0 -21 1 -21M53 582l0 -26M53 582l1 28M54 613l0 -3M54 613l63 0M117 620l0 -172M117 449l422 0M539 614l0 -171M539 613l422 0M961 618l0 -170 1 1 12 0"/>
<path stroke="#FFC0C5" d="M462 55l46 0"/>
<text stroke="none" fill="white" font-size="16" x="518" y="64">
x1.comp_out_p+2
</text>
<path stroke="#FFC0C5" d="M50 249l1 0 1 -9 0 -22 1 -18 0 -4M53 198l1 5M54 249l0 -46M54 249l514 0 0 -165M568 85l13 0M581 158l0 -76M581 158l1 88M582 250l0 -4M582 249l12 0 0 -165 1 1 13 0M608 250l0 -172M608 249l39 0M647 250l0 -166M647 85l14 0M661 249l0 -172"/>
<path stroke="#FFC0C5" d="M661 249l39 0 0 -166M700 85l13 0 0 -3 1 29M714 250l0 -139M714 249l13 0 1 -156 0 -9M728 85l12 0M740 249l0 -171M740 249l67 0 0 -164 12 0M819 249l0 -171M819 249l15 0 0 -164 11 0 0 -10 1 142M846 249l0 -32M846 249l128 0"/>
<path stroke="#A52A2A" d="M50 55l46 0"/>
<text stroke="none" fill="white" font-size="16" x="106" y="64">
x1.comp_out_n-2
</text>
<path stroke="#A52A2A" d="M50 613l1 0 1 -9 0 -22 1 -19M53 564l0 -3M53 564l1 6M54 613l0 -43M54 613l488 0M542 615l0 -168M542 449l13 0M555 614l0 -172M555 613l66 0M621 616l0 -169M621 449l13 0M634 613l0 -173M634 613l40 0M674 619l0 -172M674 449l13 0"/>
<path stroke="#A52A2A" d="M687 614l0 -174M687 613l66 0 0 -165M753 449l13 0M766 613l0 -169M766 613l14 0 0 -165 1 1 12 0M793 613l0 -174M793 613l67 0 0 -165M860 449l12 0M872 613l0 -167M872 613l14 0 0 -158 1 -7M887 449l0 -1M887 449l11 0M898 613l0 -167"/>
<path stroke="#A52A2A" d="M898 613l14 0 1 -158 0 -7M913 449l12 0M925 614l0 -173M925 613l13 0M938 620l0 -173M938 449l13 0M951 613l0 -173M951 613l23 0"/>
</svg>
