<?xml version="1.0" standalone="yes"?>
<!DOCTYPE svg PUBLIC "-//W3C//DTD SVG 1.1//EN"
 "http://www.w3.org/Graphics/SVG/1.1/DTD/svg11.dtd">
<svg xmlns="http://www.w3.org/2000/svg" version="1.1"
  width="100%" height="100%" viewBox="0 0 1024 768"
  style="fill: none; font-family: Helvetica;
 font: Helvetica;
">

<!-- Creator: NGspice -->

<rect x="0" y="0" width="1024" height="768" fill="black" stroke="none"/>
<text stroke="none" fill="white" font-size="16" x="358" y="752">
time
</text>
<text stroke="none" fill="white" font-size="16" x="10" y="16">
tran1: run92_vin-0.747466
</text>
<path stroke="white" d="M50 704l0 -637"/>
<text stroke="none" fill="white" font-size="16" x="35" y="728">
0.0
</text>
<path stroke="white" stroke-dasharray="1,2" d="M182 704l0 -637"/>
<text stroke="none" fill="white" font-size="16" x="157" y="728">
100.0
</text>
<path stroke="white" stroke-dasharray="1,2" d="M314 704l0 -637"/>
<text stroke="none" fill="white" font-size="16" x="289" y="728">
200.0
</text>
<path stroke="white" stroke-dasharray="1,2" d="M446 704l0 -637"/>
<text stroke="none" fill="white" font-size="16" x="421" y="728">
300.0
</text>
<path stroke="white" stroke-dasharray="1,2" d="M578 704l0 -637"/>
<text stroke="none" fill="white" font-size="16" x="553" y="728">
400.0
</text>
<path stroke="white" stroke-dasharray="1,2" d="M710 704l0 -637"/>
<text stroke="none" fill="white" font-size="16" x="685" y="728">
500.0
</text>
<path stroke="white" stroke-dasharray="1,2" d="M842 704l0 -637"/>
<text stroke="none" fill="white" font-size="16" x="817" y="728">
600.0
</text>
<path stroke="white" stroke-dasharray="1,2" d="M974 704l0 -637"/>
<text stroke="none" fill="white" font-size="16" x="949" y="728">
700.0
</text>
<text stroke="none" fill="white" font-size="16" x="614" y="752">
ns
</text>
<path stroke="white" stroke-dasharray="1,2" d="M50 704l924 0"/>
<text stroke="none" fill="white" font-size="16" x="8" y="712">
-3.0
</text>
<path stroke="white" stroke-dasharray="1,2" d="M50 613l924 0"/>
<text stroke="none" fill="white" font-size="16" x="8" y="621">
-2.0
</text>
<path stroke="white" stroke-dasharray="1,2" d="M50 522l924 0"/>
<text stroke="none" fill="white" font-size="16" x="8" y="530">
-1.0
</text>
<path stroke="white" d="M50 431l924 0"/>
<text stroke="none" fill="white" font-size="16" x="18" y="439">
0.0
</text>
<path stroke="white" stroke-dasharray="1,2" d="M50 340l924 0"/>
<text stroke="none" fill="white" font-size="16" x="18" y="348">
1.0
</text>
<path stroke="white" stroke-dasharray="1,2" d="M50 249l924 0"/>
<text stroke="none" fill="white" font-size="16" x="18" y="257">
2.0
</text>
<path stroke="white" stroke-dasharray="1,2" d="M50 158l924 0"/>
<text stroke="none" fill="white" font-size="16" x="18" y="166">
3.0
</text>
<path stroke="white" stroke-dasharray="1,2" d="M50 67l924 0"/>
<text stroke="none" fill="white" font-size="16" x="18" y="75">
4.0
</text>
<text stroke="none" fill="white" font-size="16" x="10" y="32">
     
</text>
<path stroke="red" d="M462 23l46 0"/>
<text stroke="none" fill="white" font-size="16" x="518" y="32">
x1.vsampled_p
</text>
<path stroke="red" d="M50 431l1 0 1 -7 0 -15 1 -14 0 -5 1 2M54 414l0 -38 1 -4 0 -14 1 -3 0 -2 1 -2 0 -1 2 0 1 -1 3 0 1 1 4 0 1 -1 48 0M117 368l0 -19M117 368l1 17M118 406l0 -21M118 406l1 2M119 413l0 -5M119 413l1 2M120 416l0 -1M120 416l1 0 1 1"/>
<path stroke="red" d="M122 417l424 0 0 -22 1 -2 0 -27 1 -6 1 -2 0 -1 1 -1 75 0 0 -12 1 -2 0 -5 1 0 1 1 18 0M646 339l0 -1 7 0M653 350l0 -12M653 350l1 1 0 -1 1 -1 0 -1 17 0M672 349l0 -1 27 0M699 349l0 -1 26 0M725 349l0 -1 26 0M751 349l0 -1M751 349l1 -1"/>
<path stroke="red" d="M752 348l26 0M778 349l0 -1 7 0M785 349l0 -1M785 349l1 0M786 350l0 -1 26 0M812 350l0 -1 19 0M831 350l0 -1 26 0M857 350l0 -1 26 0M883 350l0 -1M883 350l1 -1 26 0M910 350l0 -1 8 0M918 413l0 -65M918 413l1 3M919 423l0 -7M919 423l1 -1"/>
<path stroke="red" d="M920 422l0 -2 1 -1 0 -1 1 0 0 -1 52 0"/>
<path stroke="blue" d="M50 23l46 0"/>
<text stroke="none" fill="white" font-size="16" x="106" y="32">
x1.vsampled_n
</text>
<path stroke="blue" d="M50 431l1 0 1 -7 0 -16 1 -14 0 -5 1 2M54 414l0 -38 1 -4 0 -14 1 -3 0 -2 1 -2 0 -1 2 0 1 -1 3 0 1 1 5 0 0 -1 48 0 0 -1 1 -12 0 -34 1 -5 0 -9 1 -3 0 -2 1 -1 1 0 0 -1 418 0M540 282l0 -1 26 0 1 1M567 283l0 -2 6 0 1 1M574 307l0 -25"/>
<path stroke="blue" d="M574 307l1 9 1 6 17 0M593 323l0 -1 7 0M600 336l0 -14M600 336l1 3M601 344l0 -5M601 343l5 0 0 -1 1 0M607 343l0 -1M607 343l26 0 0 -1M633 343l26 0 0 -1M659 343l20 0M679 347l0 -4M679 347l1 1M680 349l0 -1 26 0M706 351l0 -3M706 351l1 0"/>
<path stroke="blue" d="M707 351l0 -1 18 0M725 351l0 -1 6 0 0 -2 28 0M759 350l0 -2M759 350l1 0 0 -1 18 0M778 350l0 -1 26 0M804 350l0 -1 26 0 1 1 0 -1 87 0M918 350l0 -33 1 -3 0 -21 1 -2 0 -5 1 -2 0 -2 2 0 0 -1 13 0M936 283l0 -2 38 0"/>
<path stroke="#FFA500" d="M462 39l46 0"/>
<text stroke="none" fill="white" font-size="16" x="518" y="48">
x1.vsampled_p-x1.vsampled_n
</text>
<path stroke="#FFA500" d="M50 431l2 0M52 432l0 -1M52 432l2 0 0 -1 63 0M117 452l0 -21M117 452l1 27M118 534l0 -55M118 534l1 8M119 557l0 -15M119 557l1 4M120 564l0 -3M120 564l2 2M122 567l0 -1M122 567l418 0 0 -1M540 567l6 0 0 -22 1 -3 0 -27 1 -5 1 -3"/>
<path stroke="#FFA500" d="M549 507l0 -1 2 0 0 -1 3 0M554 506l0 -1M554 506l13 0 0 -2M567 505l6 0 1 -1 0 -24 1 -9 1 -6 17 0 0 -1M593 465l7 0 0 -14 1 -3 0 -5M601 444l24 0 0 -12 1 -1 0 -6 1 0M627 426l0 -1M627 426l19 0M646 427l0 -1 7 0M653 438l0 -12"/>
<path stroke="#FFA500" d="M653 438l1 1 0 -1 1 -1 17 0 0 -1 1 1 6 0 0 -5 1 -1 1 1 1 -1 16 0 1 1 0 -1 7 0M706 432l0 -4 1 1 24 0M731 432l0 -3M731 432l1 0 0 -1 27 0 0 -2 1 1 25 0 1 1 5 0 0 -1M791 431l13 0 0 -1 1 1 7 0M812 432l0 -1 106 0M918 527l0 -98"/>
<path stroke="#FFA500" d="M918 527l1 7M919 561l0 -27M919 561l1 2M920 565l0 -2M920 565l1 1 1 0M922 567l0 -1M922 567l14 0 0 -1M936 567l38 0"/>
<path stroke="green" d="M50 39l46 0"/>
<text stroke="none" fill="white" font-size="16" x="106" y="48">
x1.sw_sample-2
</text>
<path stroke="green" d="M50 613l1 0 1 -9 0 -21 1 -21M53 579l0 -23M53 579l1 31M54 613l0 -3M54 613l63 0M117 620l0 -172M117 449l422 0M539 614l0 -171M539 613l422 0M961 618l0 -170 1 1 12 0"/>
<path stroke="#FFC0C5" d="M462 55l46 0"/>
<text stroke="none" fill="white" font-size="16" x="518" y="64">
x1.comp_out_p+2
</text>
<path stroke="#FFC0C5" d="M50 249l1 0 1 -9 0 -22 1 -18 0 -4M53 198l1 5M54 249l0 -46M54 244l1 4M55 249l0 -1M55 249l592 0M647 251l0 -168M647 85l14 0M661 250l0 -172M661 249l66 0 0 -165M727 85l13 0M740 250l0 -171M740 249l40 0 0 -165M780 85l13 0M793 249l0 -167"/>
<path stroke="#FFC0C5" d="M793 249l14 0 0 -165M807 85l12 0M819 249l0 -174M819 249l15 0 0 -165M834 85l11 0 0 -2M845 84l1 151M846 249l0 -14M846 249l128 0"/>
<path stroke="#A52A2A" d="M50 55l46 0"/>
<text stroke="none" fill="white" font-size="16" x="106" y="64">
x1.comp_out_n-2
</text>
<path stroke="#A52A2A" d="M50 613l1 0 1 -9 0 -22 1 -19M53 564l0 -3M53 564l1 6M54 613l0 -43M54 613l488 0 0 -165M542 449l13 0M555 613l0 -171M555 613l13 0M568 616l0 -169M568 449l13 0 0 -9 1 162M582 613l0 -11M582 613l12 0 0 -166M594 449l14 0M608 613l0 -172"/>
<path stroke="#A52A2A" d="M608 613l13 0M621 615l0 -168M621 449l13 0M634 613l0 -172M634 613l39 0M673 615l0 -2M673 615l1 -113 0 -55M674 449l13 0M687 613l0 -174M687 613l13 0 0 -134 1 -28 0 -3M701 449l12 0 0 -8 1 159M714 613l0 -13M714 613l39 0 0 -47"/>
<path stroke="#A52A2A" d="M753 566l1 -104 0 -14M754 449l12 0M766 614l0 -174M766 613l94 0 0 -165M860 449l12 0M872 613l0 -174M872 613l14 0 0 -153 1 -11 11 0M898 613l0 -174M898 613l15 0 0 -165M913 449l12 0M925 613l0 -172M925 613l12 0 1 -64 0 -101"/>
<path stroke="#A52A2A" d="M938 449l13 0M951 613l0 -172M951 613l23 0"/>
</svg>
