<?xml version="1.0" standalone="yes"?>
<!DOCTYPE svg PUBLIC "-//W3C//DTD SVG 1.1//EN"
 "http://www.w3.org/Graphics/SVG/1.1/DTD/svg11.dtd">
<svg xmlns="http://www.w3.org/2000/svg" version="1.1"
  width="100%" height="100%" viewBox="0 0 1024 768"
  style="fill: none; font-family: Helvetica;
 font: Helvetica;
">

<!-- Creator: NGspice -->

<rect x="0" y="0" width="1024" height="768" fill="black" stroke="none"/>
<text stroke="none" fill="white" font-size="16" x="358" y="752">
time
</text>
<text stroke="none" fill="white" font-size="16" x="10" y="16">
tran1: run215_vin-0.886988
</text>
<path stroke="white" d="M50 704l0 -637"/>
<text stroke="none" fill="white" font-size="16" x="35" y="728">
0.0
</text>
<path stroke="white" stroke-dasharray="1,2" d="M182 704l0 -637"/>
<text stroke="none" fill="white" font-size="16" x="157" y="728">
100.0
</text>
<path stroke="white" stroke-dasharray="1,2" d="M314 704l0 -637"/>
<text stroke="none" fill="white" font-size="16" x="289" y="728">
200.0
</text>
<path stroke="white" stroke-dasharray="1,2" d="M446 704l0 -637"/>
<text stroke="none" fill="white" font-size="16" x="421" y="728">
300.0
</text>
<path stroke="white" stroke-dasharray="1,2" d="M578 704l0 -637"/>
<text stroke="none" fill="white" font-size="16" x="553" y="728">
400.0
</text>
<path stroke="white" stroke-dasharray="1,2" d="M710 704l0 -637"/>
<text stroke="none" fill="white" font-size="16" x="685" y="728">
500.0
</text>
<path stroke="white" stroke-dasharray="1,2" d="M842 704l0 -637"/>
<text stroke="none" fill="white" font-size="16" x="817" y="728">
600.0
</text>
<path stroke="white" stroke-dasharray="1,2" d="M974 704l0 -637"/>
<text stroke="none" fill="white" font-size="16" x="949" y="728">
700.0
</text>
<text stroke="none" fill="white" font-size="16" x="614" y="752">
ns
</text>
<path stroke="white" stroke-dasharray="1,2" d="M50 704l924 0"/>
<text stroke="none" fill="white" font-size="16" x="8" y="712">
-3.0
</text>
<path stroke="white" stroke-dasharray="1,2" d="M50 613l924 0"/>
<text stroke="none" fill="white" font-size="16" x="8" y="621">
-2.0
</text>
<path stroke="white" stroke-dasharray="1,2" d="M50 522l924 0"/>
<text stroke="none" fill="white" font-size="16" x="8" y="530">
-1.0
</text>
<path stroke="white" d="M50 431l924 0"/>
<text stroke="none" fill="white" font-size="16" x="18" y="439">
0.0
</text>
<path stroke="white" stroke-dasharray="1,2" d="M50 340l924 0"/>
<text stroke="none" fill="white" font-size="16" x="18" y="348">
1.0
</text>
<path stroke="white" stroke-dasharray="1,2" d="M50 249l924 0"/>
<text stroke="none" fill="white" font-size="16" x="18" y="257">
2.0
</text>
<path stroke="white" stroke-dasharray="1,2" d="M50 158l924 0"/>
<text stroke="none" fill="white" font-size="16" x="18" y="166">
3.0
</text>
<path stroke="white" stroke-dasharray="1,2" d="M50 67l924 0"/>
<text stroke="none" fill="white" font-size="16" x="18" y="75">
4.0
</text>
<text stroke="none" fill="white" font-size="16" x="10" y="32">
     
</text>
<path stroke="red" d="M462 23l46 0"/>
<text stroke="none" fill="white" font-size="16" x="518" y="32">
x1.vsampled_p
</text>
<path stroke="red" d="M50 431l1 0 1 -7 0 -15 1 -14 0 -4 1 1M54 414l0 -38 1 -5 0 -13 1 -3 0 -3 1 -1 0 -1 2 0 1 -1 4 0 1 1 1 0 1 -1 50 0M117 375l0 -26M117 375l1 18M118 416l0 -23M118 416l1 3M119 426l0 -7M119 426l1 1M120 428l0 -1M120 428l1 1 1 0"/>
<path stroke="red" d="M122 430l0 -1M122 430l424 0 0 -20 1 -3 0 -29 1 -5 1 -3 0 -1 5 0 0 -1M554 369l26 0 0 -1M580 369l26 0 0 -1M606 369l19 0 0 -13 1 -1 0 -5 2 0 1 1 4 0 0 -1M633 351l26 0 0 -1M659 351l27 0 0 -1M686 351l26 0 0 -1M712 351l19 0 0 -4"/>
<path stroke="red" d="M731 347l1 0M732 348l0 -1M732 348l1 0 1 1 4 0 0 -1 13 0M751 349l0 -1M751 349l1 0 0 -1M752 349l13 0 0 -1 13 0M778 349l0 -1M778 349l7 0 1 1 0 -1 18 0M804 350l0 -1 27 0M831 350l0 -1 26 0M857 350l0 -1 26 0M883 350l0 -1 27 0"/>
<path stroke="red" d="M910 350l0 -1 12 0M922 455l0 -106M922 444l1 -2 0 -8 1 0 0 -3 1 0 0 -1 49 0"/>
<path stroke="blue" d="M50 23l46 0"/>
<text stroke="none" fill="white" font-size="16" x="106" y="32">
x1.vsampled_n
</text>
<path stroke="blue" d="M50 431l1 0 1 -7 0 -16 1 -14 0 -5 1 2M54 414l0 -38 1 -5 0 -13 1 -3 0 -3 1 -1 0 -1 2 0 1 -1 3 0 1 1 4 0 1 -1 48 0 0 -2 1 -11 0 -38 1 -7 0 -15 1 -3 0 -2 2 -2 1 0 1 -1 415 0M539 269l0 -1M539 269l1 0M540 270l0 -1 14 0 0 -1"/>
<path stroke="blue" d="M554 269l13 0M567 270l0 -1 7 0M574 290l0 -21M574 290l1 6M575 306l0 -10M575 306l1 3M576 310l0 -1M576 310l4 0 0 -1 13 0M593 311l0 -2M593 310l7 0M600 323l0 -14M600 323l1 4M601 331l0 -4M601 331l1 -1 17 0M619 331l0 -1 27 0M646 331l0 -1"/>
<path stroke="blue" d="M646 330l7 0M653 339l0 -9M653 339l1 1M654 341l0 -1 18 0M672 341l0 -1 7 0M679 344l0 -4M679 344l1 1M680 346l0 -1 19 0M699 346l0 -1 7 0M706 348l0 -3M706 348l53 0M759 350l0 -2M759 349l58 0M817 350l0 -1 13 0 1 1 0 -1 90 0M921 350l0 -1"/>
<path stroke="blue" d="M921 350l1 0 0 -66 1 -2 0 -9 1 0 0 -3 1 0 0 -1 11 0M936 270l0 -1 14 0 0 -1M950 269l11 0 0 -1 13 0"/>
<path stroke="#FFA500" d="M462 39l46 0"/>
<text stroke="none" fill="white" font-size="16" x="518" y="48">
x1.vsampled_p-x1.vsampled_n
</text>
<path stroke="#FFA500" d="M50 431l2 0M52 432l0 -1M52 432l2 0 0 -1 63 0M117 459l0 -28M117 459l1 30M118 548l0 -59M118 548l1 11M119 581l0 -22M119 581l1 4M120 588l0 -3M120 588l1 2 1 1M122 592l0 -1M122 592l418 0 0 -1M540 592l6 0 0 -20 1 -2 0 -30 1 -5"/>
<path stroke="#FFA500" d="M548 535l1 -3 0 -1 18 0 0 -1M567 531l7 0 0 -22 1 -6 0 -9 1 -4 17 0 0 -1M593 490l7 0 0 -14 1 -3 0 -4 1 0M602 470l0 -1M602 470l17 0 0 -1M619 470l6 0 0 -13 1 -1 0 -5 2 0 1 1 24 0 0 -9 1 -2 1 0 1 1 1 -1 2 0M659 442l0 -1"/>
<path stroke="#FFA500" d="M659 442l13 0 0 -1 7 0M679 442l0 -5 1 0 0 -2M680 436l19 0M699 437l0 -1 7 0 0 -3M706 434l25 0 0 -4 1 0M732 432l0 -2M732 432l6 0 0 -1M738 432l21 0 0 -2 19 0M778 431l0 -1 7 0M785 431l0 -1M785 431l1 1 0 -1 31 0 0 -1M817 431l104 0"/>
<path stroke="#FFA500" d="M921 431l1 -1M922 590l0 -160M922 590l1 1M923 592l0 -1M923 592l13 0 0 -1M936 592l14 0M950 593l0 -1 24 0"/>
<path stroke="green" d="M50 39l46 0"/>
<text stroke="none" fill="white" font-size="16" x="106" y="48">
x1.sw_sample-2
</text>
<path stroke="green" d="M50 613l1 0 1 -9 0 -21 1 -21M53 578l0 -22M53 578l1 32M54 613l0 -3M54 613l63 0M117 620l0 -172M117 449l422 0M539 614l0 -171M539 613l422 0M961 618l0 -170 1 1 12 0"/>
<path stroke="#FFC0C5" d="M462 55l46 0"/>
<text stroke="none" fill="white" font-size="16" x="518" y="64">
x1.comp_out_p+2
</text>
<path stroke="#FFC0C5" d="M50 249l1 0 1 -9 0 -22 1 -18 0 -4M53 198l1 5M54 250l0 -47M54 247l1 2 725 0 0 -165M780 85l13 0M793 249l0 -174M793 249l41 0 0 -165M834 85l11 0 0 -10 1 145M846 249l0 -29M846 249l43 0 1 -157 0 -8M890 85l8 0M898 249l0 -172"/>
<path stroke="#FFC0C5" d="M898 249l76 0"/>
<path stroke="#A52A2A" d="M50 55l46 0"/>
<text stroke="none" fill="white" font-size="16" x="106" y="64">
x1.comp_out_n-2
</text>
<path stroke="#A52A2A" d="M50 613l1 0 1 -9 0 -22 1 -19M53 564l0 -3M53 564l1 6M54 613l0 -43M54 613l487 0 1 1 0 -167M542 449l13 0M555 614l0 -174M555 613l13 0 0 -165M568 449l13 0 0 -8 1 164M582 614l0 -9M582 613l12 0M594 614l0 -167M594 449l14 0M608 614l0 -171"/>
<path stroke="#A52A2A" d="M608 613l13 0M621 614l0 -166M621 449l13 0M634 613l0 -173M634 613l13 0 0 -166M647 449l14 0M661 613l0 -173M661 613l12 0M673 614l0 -1M673 614l1 -80 0 -87M674 449l13 0M687 614l0 -170M687 613l13 0 0 -166M700 449l13 0 0 -7"/>
<path stroke="#A52A2A" d="M713 442l1 142M714 613l0 -29M714 613l13 0 0 -165M727 449l13 0M740 613l0 -172M740 613l13 0M753 614l0 -166 1 0M754 449l0 -1M754 449l12 0M766 613l0 -172M766 613l45 0 0 -165 1 1 7 0M819 614l0 -174M819 613l45 0 0 -165M864 449l8 0"/>
<path stroke="#A52A2A" d="M872 613l0 -166M872 613l45 0 0 -165M917 449l8 0M925 613l0 -173M925 613l12 0M937 615l0 -2M937 615l1 -119 0 -49M938 449l13 0M951 614l0 -174M951 613l23 0"/>
</svg>
