<?xml version="1.0" standalone="yes"?>
<!DOCTYPE svg PUBLIC "-//W3C//DTD SVG 1.1//EN"
 "http://www.w3.org/Graphics/SVG/1.1/DTD/svg11.dtd">
<svg xmlns="http://www.w3.org/2000/svg" version="1.1"
  width="100%" height="100%" viewBox="0 0 1024 768"
  style="fill: none; font-family: Helvetica;
 font: Helvetica;
">

<!-- Creator: NGspice -->

<rect x="0" y="0" width="1024" height="768" fill="black" stroke="none"/>
<text stroke="none" fill="white" font-size="16" x="358" y="752">
time
</text>
<text stroke="none" fill="white" font-size="16" x="10" y="16">
tran1: run1317_vin0.257957
</text>
<path stroke="white" d="M50 704l0 -637"/>
<text stroke="none" fill="white" font-size="16" x="35" y="728">
0.0
</text>
<path stroke="white" stroke-dasharray="1,2" d="M182 704l0 -637"/>
<text stroke="none" fill="white" font-size="16" x="157" y="728">
100.0
</text>
<path stroke="white" stroke-dasharray="1,2" d="M314 704l0 -637"/>
<text stroke="none" fill="white" font-size="16" x="289" y="728">
200.0
</text>
<path stroke="white" stroke-dasharray="1,2" d="M446 704l0 -637"/>
<text stroke="none" fill="white" font-size="16" x="421" y="728">
300.0
</text>
<path stroke="white" stroke-dasharray="1,2" d="M578 704l0 -637"/>
<text stroke="none" fill="white" font-size="16" x="553" y="728">
400.0
</text>
<path stroke="white" stroke-dasharray="1,2" d="M710 704l0 -637"/>
<text stroke="none" fill="white" font-size="16" x="685" y="728">
500.0
</text>
<path stroke="white" stroke-dasharray="1,2" d="M842 704l0 -637"/>
<text stroke="none" fill="white" font-size="16" x="817" y="728">
600.0
</text>
<path stroke="white" stroke-dasharray="1,2" d="M974 704l0 -637"/>
<text stroke="none" fill="white" font-size="16" x="949" y="728">
700.0
</text>
<text stroke="none" fill="white" font-size="16" x="614" y="752">
ns
</text>
<path stroke="white" stroke-dasharray="1,2" d="M50 704l924 0"/>
<text stroke="none" fill="white" font-size="16" x="8" y="712">
-3.0
</text>
<path stroke="white" stroke-dasharray="1,2" d="M50 613l924 0"/>
<text stroke="none" fill="white" font-size="16" x="8" y="621">
-2.0
</text>
<path stroke="white" stroke-dasharray="1,2" d="M50 522l924 0"/>
<text stroke="none" fill="white" font-size="16" x="8" y="530">
-1.0
</text>
<path stroke="white" d="M50 431l924 0"/>
<text stroke="none" fill="white" font-size="16" x="18" y="439">
0.0
</text>
<path stroke="white" stroke-dasharray="1,2" d="M50 340l924 0"/>
<text stroke="none" fill="white" font-size="16" x="18" y="348">
1.0
</text>
<path stroke="white" stroke-dasharray="1,2" d="M50 249l924 0"/>
<text stroke="none" fill="white" font-size="16" x="18" y="257">
2.0
</text>
<path stroke="white" stroke-dasharray="1,2" d="M50 158l924 0"/>
<text stroke="none" fill="white" font-size="16" x="18" y="166">
3.0
</text>
<path stroke="white" stroke-dasharray="1,2" d="M50 67l924 0"/>
<text stroke="none" fill="white" font-size="16" x="18" y="75">
4.0
</text>
<text stroke="none" fill="white" font-size="16" x="10" y="32">
     
</text>
<path stroke="red" d="M462 23l46 0"/>
<text stroke="none" fill="white" font-size="16" x="518" y="32">
x1.vsampled_p
</text>
<path stroke="red" d="M50 431l1 0 1 -7 0 -15 1 -15 0 -4 1 1M54 415l0 -39 1 -5 0 -14 1 -3 0 -2 1 -2 2 0 1 -1 4 0M64 350l0 -1M64 350l4 0 1 -1 48 0 1 -7 0 -10 1 -4 1 -1 0 -1 420 0M540 327l0 -1 14 0 0 -1M554 326l13 0M567 327l0 -1 13 0 0 -1M580 326l13 0"/>
<path stroke="red" d="M593 327l0 -1 7 0M600 341l0 -15M600 341l1 3M601 349l0 -5M601 349l1 -1 0 -1 1 0 0 -1 16 0M619 347l0 -1 27 0M646 347l0 -1 26 0M672 347l0 -1 27 0M699 347l0 -1 7 0M706 350l0 -4M706 350l1 -1 105 0M812 350l0 -1 107 0 0 -18 1 -2"/>
<path stroke="red" d="M920 329l0 -3 1 0 0 -1M921 326l2 0 0 -1M923 326l13 0M936 327l0 -1 14 0 0 -1M950 326l24 0"/>
<path stroke="blue" d="M50 23l46 0"/>
<text stroke="none" fill="white" font-size="16" x="106" y="32">
x1.vsampled_n
</text>
<path stroke="blue" d="M50 431l1 0 1 -7 0 -15 1 -14 0 -5 1 2M54 415l0 -39 1 -5 0 -14 1 -3 0 -2 1 -2 2 0 1 -1 4 0M64 350l0 -1M64 350l4 0 1 -1 48 0M117 353l0 -4M117 353l1 7M118 368l0 -8M118 368l2 4 2 0M122 373l0 -1M122 373l424 0 0 -20 1 -3 0 -25"/>
<path stroke="blue" d="M547 325l1 -5 0 -4 1 -2 0 -1 1 -1 4 0 0 -1 12 0 1 1M567 313l0 -2M567 312l7 0M574 341l0 -29M574 341l1 4M575 354l0 -9M575 354l1 0 2 -2 15 0M593 353l0 -1 26 0M619 353l0 -1M619 353l1 0 0 -1 5 0 0 -8 1 -2 0 -7 1 -1 19 0M646 335l0 -1"/>
<path stroke="blue" d="M646 334l7 0M653 344l0 -10M653 344l1 2 0 -1 5 0 0 -1M659 345l20 0M679 351l0 -6M679 351l1 0M680 352l0 -2 52 0 0 -4M732 347l1 0M733 348l0 -1M733 348l5 0 0 -1 13 0M751 348l0 -1M751 348l1 0 0 -1M752 348l7 0M759 350l0 -3M759 349l27 0"/>
<path stroke="blue" d="M786 350l0 -1 18 0M804 350l0 -1 26 0 1 1 0 -1 26 0M857 350l0 -1 26 0M883 350l0 -1 27 0M910 350l0 -1 8 0 1 1M919 374l0 -24M919 374l1 2M920 377l0 -2 1 -1 0 -1 53 0"/>
<path stroke="#FFA500" d="M462 39l46 0"/>
<text stroke="none" fill="white" font-size="16" x="518" y="48">
x1.vsampled_p-x1.vsampled_n
</text>
<path stroke="#FFA500" d="M50 431l67 0 0 -4 1 -14 0 -18 1 -6 1 -3 0 -1 1 0 1 -1 418 0M540 385l0 -1 6 0M546 404l0 -20M546 404l1 3M547 432l0 -25M547 432l1 5M548 441l0 -4M548 441l1 2M549 444l0 -1M549 444l1 1 4 0M554 446l0 -1 13 0M567 446l0 -1 7 0"/>
<path stroke="#FFA500" d="M574 445l0 -29 1 -4 0 -9 1 0 2 2 2 0 0 -1M580 405l13 0 0 -1M593 405l7 0M600 420l0 -15M600 420l1 3M601 428l0 -5M601 427l1 0 0 -1 1 -1 22 0M625 433l0 -8M625 433l1 3M626 443l0 -7M626 443l20 0 0 -1M646 443l7 0 0 -9 1 -2"/>
<path stroke="#FFA500" d="M654 432l0 -1M654 432l1 0M655 433l0 -1M655 433l17 0 0 -1M672 433l7 0 0 -6 1 -1M680 427l0 -2M680 427l1 0 1 1 17 0 0 -1M699 428l7 0M706 431l0 -3M706 431l1 0 0 -1 25 0M732 434l0 -4M732 433l1 -1 26 0 0 -2M759 431l27 0 0 -1"/>
<path stroke="#FFA500" d="M786 430l26 0M812 431l0 -1M812 431l106 0 1 -1 0 -42 1 -3 0 -3 1 1M921 384l0 -1M921 384l15 0M936 385l0 -1 38 0"/>
<path stroke="green" d="M50 39l46 0"/>
<text stroke="none" fill="white" font-size="16" x="106" y="48">
x1.sw_sample-2
</text>
<path stroke="green" d="M50 613l1 0 1 -9 0 -21 1 -21M53 581l0 -25M53 581l1 29M54 613l0 -3M54 613l63 0M117 620l0 -172M117 449l422 0M539 614l0 -171M539 613l422 0M961 618l0 -170 1 1 12 0"/>
<path stroke="#FFC0C5" d="M462 55l46 0"/>
<text stroke="none" fill="white" font-size="16" x="518" y="64">
x1.comp_out_p+2
</text>
<path stroke="#FFC0C5" d="M50 249l1 0 1 -9 0 -22 1 -18 0 -4M53 198l1 5M54 249l0 -46M54 249l487 0 1 1 0 -166M542 85l13 0M555 249l0 -172M555 249l39 0 0 -166M594 85l14 0M608 250l0 -173M608 249l13 0 0 -165M621 85l13 0M634 250l0 -169M634 249l66 0"/>
<path stroke="#FFC0C5" d="M700 249l0 -166M700 85l13 0 0 -7 1 140M714 249l0 -31M714 249l13 0 0 -151 1 -13 0 -1M728 85l12 0M740 249l0 -172M740 249l66 0 1 -150 0 -15M807 85l12 0M819 249l0 -173M819 249l15 0 0 -164 11 0 0 -2M845 84l1 151M846 249l0 -14"/>
<path stroke="#FFC0C5" d="M846 249l14 0 1 -150 0 -15M861 85l11 0M872 249l0 -166M872 249l15 0 0 -164 11 0M898 249l0 -166M898 249l15 0M913 250l0 -1M913 250l1 -151 0 -15M914 85l11 0M925 250l0 -171M925 249l12 0 1 -46 0 -119M938 85l13 0M951 250l0 -166"/>
<path stroke="#FFC0C5" d="M951 249l23 0"/>
<path stroke="#A52A2A" d="M50 55l46 0"/>
<text stroke="none" fill="white" font-size="16" x="106" y="64">
x1.comp_out_n-2
</text>
<path stroke="#A52A2A" d="M50 613l1 0 1 -9 0 -22 1 -19M53 564l0 -3M53 564l1 6M54 613l0 -43M54 613l514 0 0 -166M568 449l13 0 0 -9 1 164M582 613l0 -9M582 613l65 0M647 614l0 -167M647 449l14 0M661 614l0 -171M661 613l12 0 1 1 0 -167M674 449l13 0M687 613l0 -173"/>
<path stroke="#A52A2A" d="M687 613l66 0 0 -165M753 449l13 0M766 613l0 -173M766 613l14 0 0 -157 1 -8M781 449l0 -1M781 449l12 0M793 613l0 -170M793 613l181 0"/>
</svg>
