<?xml version="1.0" standalone="yes"?>
<!DOCTYPE svg PUBLIC "-//W3C//DTD SVG 1.1//EN"
 "http://www.w3.org/Graphics/SVG/1.1/DTD/svg11.dtd">
<svg xmlns="http://www.w3.org/2000/svg" version="1.1"
  width="100%" height="100%" viewBox="0 0 1024 768"
  style="fill: none; font-family: Helvetica;
 font: Helvetica;
">

<!-- Creator: NGspice -->

<rect x="0" y="0" width="1024" height="768" fill="black" stroke="none"/>
<text stroke="none" fill="white" font-size="16" x="358" y="752">
time
</text>
<text stroke="none" fill="white" font-size="16" x="10" y="16">
tran1: run1376_vin0.309813
</text>
<path stroke="white" d="M50 704l0 -637"/>
<text stroke="none" fill="white" font-size="16" x="35" y="728">
0.0
</text>
<path stroke="white" stroke-dasharray="1,2" d="M182 704l0 -637"/>
<text stroke="none" fill="white" font-size="16" x="157" y="728">
100.0
</text>
<path stroke="white" stroke-dasharray="1,2" d="M314 704l0 -637"/>
<text stroke="none" fill="white" font-size="16" x="289" y="728">
200.0
</text>
<path stroke="white" stroke-dasharray="1,2" d="M446 704l0 -637"/>
<text stroke="none" fill="white" font-size="16" x="421" y="728">
300.0
</text>
<path stroke="white" stroke-dasharray="1,2" d="M578 704l0 -637"/>
<text stroke="none" fill="white" font-size="16" x="553" y="728">
400.0
</text>
<path stroke="white" stroke-dasharray="1,2" d="M710 704l0 -637"/>
<text stroke="none" fill="white" font-size="16" x="685" y="728">
500.0
</text>
<path stroke="white" stroke-dasharray="1,2" d="M842 704l0 -637"/>
<text stroke="none" fill="white" font-size="16" x="817" y="728">
600.0
</text>
<path stroke="white" stroke-dasharray="1,2" d="M974 704l0 -637"/>
<text stroke="none" fill="white" font-size="16" x="949" y="728">
700.0
</text>
<text stroke="none" fill="white" font-size="16" x="614" y="752">
ns
</text>
<path stroke="white" stroke-dasharray="1,2" d="M50 704l924 0"/>
<text stroke="none" fill="white" font-size="16" x="8" y="712">
-3.0
</text>
<path stroke="white" stroke-dasharray="1,2" d="M50 613l924 0"/>
<text stroke="none" fill="white" font-size="16" x="8" y="621">
-2.0
</text>
<path stroke="white" stroke-dasharray="1,2" d="M50 522l924 0"/>
<text stroke="none" fill="white" font-size="16" x="8" y="530">
-1.0
</text>
<path stroke="white" d="M50 431l924 0"/>
<text stroke="none" fill="white" font-size="16" x="18" y="439">
0.0
</text>
<path stroke="white" stroke-dasharray="1,2" d="M50 340l924 0"/>
<text stroke="none" fill="white" font-size="16" x="18" y="348">
1.0
</text>
<path stroke="white" stroke-dasharray="1,2" d="M50 249l924 0"/>
<text stroke="none" fill="white" font-size="16" x="18" y="257">
2.0
</text>
<path stroke="white" stroke-dasharray="1,2" d="M50 158l924 0"/>
<text stroke="none" fill="white" font-size="16" x="18" y="166">
3.0
</text>
<path stroke="white" stroke-dasharray="1,2" d="M50 67l924 0"/>
<text stroke="none" fill="white" font-size="16" x="18" y="75">
4.0
</text>
<text stroke="none" fill="white" font-size="16" x="10" y="32">
     
</text>
<path stroke="red" d="M462 23l46 0"/>
<text stroke="none" fill="white" font-size="16" x="518" y="32">
x1.vsampled_p
</text>
<path stroke="red" d="M50 431l1 0 1 -7 0 -15 1 -15 0 -4 1 1M54 415l0 -39 1 -5 0 -13 1 -3 0 -2 1 -2 0 -1 2 0 1 -1 3 0 1 1 5 0 0 -1 48 0 0 -1 1 -7 0 -12 1 -4 0 -2 2 -2 419 0M540 322l0 -1 27 0M567 322l0 -1 26 0M593 322l0 -1 7 0M600 336l0 -15M600 336l1 2"/>
<path stroke="red" d="M601 345l0 -7M601 344l1 -1 0 -1 4 0 0 -1 1 0M607 342l0 -1M607 342l26 0 0 -1M633 342l13 0 0 -1M646 342l13 0 0 -1M659 342l13 0 0 -1M672 342l7 0M679 347l0 -5M679 347l1 1 0 -1 6 0 0 -1M686 347l20 0M706 350l0 -3M706 350l1 0 0 -1"/>
<path stroke="red" d="M707 349l18 0M725 350l0 -1 26 0M751 350l0 -1 27 0M778 350l0 -1 26 0M804 350l0 -1 27 0M831 350l0 -1 26 0M857 350l0 -1 26 0M883 350l0 -1 27 0M910 350l0 -1 7 0 0 -4 1 -6 0 -17 1 -1 17 0M936 322l0 -1 38 0"/>
<path stroke="blue" d="M50 23l46 0"/>
<text stroke="none" fill="white" font-size="16" x="106" y="32">
x1.vsampled_n
</text>
<path stroke="blue" d="M50 431l1 0 1 -7 0 -15 1 -14 0 -5 1 2M54 415l0 -39 1 -5 0 -13 1 -3 0 -2 1 -2 0 -1 2 0 1 -1 3 0 1 1 5 0 0 -1 48 0M117 354l0 -5M117 354l1 8M118 371l0 -9M118 371l1 3M119 376l0 -2M119 376l1 1 420 0M540 378l0 -1 6 0M546 378l0 -22"/>
<path stroke="blue" d="M546 356l1 -3 0 -26 1 -4 0 -3 1 -2 0 -1 1 0 1 -1 3 0 0 -1M554 316l12 0 1 1 0 -1 7 0M574 344l0 -28M574 344l1 4M575 359l0 -11M575 359l1 0 0 -1 1 0 0 -1 48 0 0 -14 1 -2 0 -2 20 0M646 340l0 -1 7 0M653 350l0 -11M653 350l1 1"/>
<path stroke="blue" d="M654 351l0 -1 1 -1 17 0M672 350l0 -1 26 0 1 1 0 -1 26 0M725 350l0 -1 8 0 0 -3M733 347l18 0M751 348l0 -1 8 0M759 350l0 -3M759 348l19 0M778 349l0 -1 7 0M785 349l0 -1M785 349l1 0M786 350l0 -1 26 0M812 350l0 -1M812 350l1 0"/>
<path stroke="blue" d="M813 350l0 -1 17 0 1 1 0 -1 86 0M917 352l0 -3M917 352l1 5M918 382l0 -25M918 381l1 -1 0 -2 2 0 0 -1 15 0M936 378l0 -1 38 0"/>
<path stroke="#FFA500" d="M462 39l46 0"/>
<text stroke="none" fill="white" font-size="16" x="518" y="48">
x1.vsampled_p-x1.vsampled_n
</text>
<path stroke="#FFA500" d="M50 431l67 0 0 -5 1 -16 0 -22 1 -6 0 -4 1 -2 1 -1 425 0M546 396l0 -22M546 396l1 3M547 425l0 -26M547 425l1 4M548 432l0 -3M548 432l1 2M549 435l0 -1M549 435l1 1 24 0 0 -28 1 -4 0 -11 1 0M576 394l0 -1M576 394l1 0M577 395l0 -1"/>
<path stroke="#FFA500" d="M577 395l16 0M593 396l0 -1 7 0M600 410l0 -15M600 410l1 2M601 419l0 -7M601 418l1 -1 0 -1 4 0 0 -1 1 0M607 416l0 -1M607 416l12 0 0 -1 1 0M620 416l0 -1M620 416l5 0M625 430l0 -14M625 430l1 1M626 434l0 -3M626 434l2 0 1 -1"/>
<path stroke="#FFA500" d="M629 433l4 0M633 434l0 -1 20 0 0 -11 1 0M654 423l0 -1M654 423l25 0M679 429l0 -6M679 429l1 1 0 -1 1 0 0 -1 25 0M706 432l0 -4M706 432l1 -1 26 0M733 434l0 -3M733 433l26 0 0 -3M759 432l26 0 0 -1 27 0 0 -1 1 1 25 0M838 432l0 -1"/>
<path stroke="#FFA500" d="M838 431l79 0 0 -7 1 -11 0 -41 1 0M919 373l0 -1M919 373l2 2 2 0 0 -1M923 375l13 0M936 376l0 -1 14 0 0 -1M950 375l24 0"/>
<path stroke="green" d="M50 39l46 0"/>
<text stroke="none" fill="white" font-size="16" x="106" y="48">
x1.sw_sample-2
</text>
<path stroke="green" d="M50 613l1 0 1 -9 0 -21 1 -21M53 581l0 -25M53 581l1 29M54 613l0 -3M54 613l63 0M117 620l0 -172M117 449l422 0M539 614l0 -171M539 613l422 0M961 618l0 -170 1 1 12 0"/>
<path stroke="#FFC0C5" d="M462 55l46 0"/>
<text stroke="none" fill="white" font-size="16" x="518" y="64">
x1.comp_out_p+2
</text>
<path stroke="#FFC0C5" d="M50 249l1 0 1 -9 0 -22 1 -18 0 -4M53 198l1 5M54 249l0 -46M54 248l1 1 487 0M542 251l0 -168M542 85l13 0M555 250l0 -168M555 249l39 0M594 250l0 -167M594 85l14 0M608 250l0 -173M608 249l13 0M621 250l0 -166M621 85l13 0M634 249l0 -172"/>
<path stroke="#FFC0C5" d="M634 249l39 0M673 250l0 -88 1 -69 0 -10M674 85l13 0M687 250l0 -172M687 249l13 0M700 250l0 -167M700 85l13 0 0 -7 1 146M714 249l0 -25M714 249l14 0 0 -164 12 0M740 249l0 -173M740 249l94 0 0 -165M834 85l11 0 0 -9 1 138M846 249l0 -35"/>
<path stroke="#FFC0C5" d="M846 249l91 0M937 250l0 -1M937 250l1 -74 0 -92M938 85l13 0M951 250l0 -167M951 249l23 0"/>
<path stroke="#A52A2A" d="M50 55l46 0"/>
<text stroke="none" fill="white" font-size="16" x="106" y="64">
x1.comp_out_n-2
</text>
<path stroke="#A52A2A" d="M50 613l1 0 1 -9 0 -22 1 -19M53 564l0 -3M53 564l1 6M54 614l0 -44M54 612l1 1 513 0M568 616l0 -169M568 449l13 0 0 -8 1 158M582 613l0 -14M582 613l39 0M621 614l0 -1 26 0M647 620l0 -173M647 449l14 0M661 614l0 -171M661 613l92 0"/>
<path stroke="#A52A2A" d="M753 613l0 -165M753 449l13 0M766 614l0 -174M766 614l1 -1 13 0 0 -165M780 449l13 0M793 614l0 -169M793 613l14 0 0 -165 1 1 11 0M819 613l0 -170M819 613l41 0 0 -164 12 0M872 614l0 -169M872 613l14 0 0 -158 1 -7M887 449l0 -1"/>
<path stroke="#A52A2A" d="M887 449l11 0M898 614l0 -169M898 613l14 0 1 -158 0 -7M913 449l12 0M925 614l0 -166M925 613l49 0"/>
</svg>
