<?xml version="1.0" standalone="yes"?>
<!DOCTYPE svg PUBLIC "-//W3C//DTD SVG 1.1//EN"
 "http://www.w3.org/Graphics/SVG/1.1/DTD/svg11.dtd">
<svg xmlns="http://www.w3.org/2000/svg" version="1.1"
  width="100%" height="100%" viewBox="0 0 1024 768"
  style="fill: none; font-family: Helvetica;
 font: Helvetica;
">

<!-- Creator: NGspice -->

<rect x="0" y="0" width="1024" height="768" fill="black" stroke="none"/>
<text stroke="none" fill="white" font-size="16" x="358" y="752">
time
</text>
<text stroke="none" fill="white" font-size="16" x="10" y="16">
tran1: run1192_vin0.148094
</text>
<path stroke="white" d="M50 704l0 -637"/>
<text stroke="none" fill="white" font-size="16" x="35" y="728">
0.0
</text>
<path stroke="white" stroke-dasharray="1,2" d="M182 704l0 -637"/>
<text stroke="none" fill="white" font-size="16" x="157" y="728">
100.0
</text>
<path stroke="white" stroke-dasharray="1,2" d="M314 704l0 -637"/>
<text stroke="none" fill="white" font-size="16" x="289" y="728">
200.0
</text>
<path stroke="white" stroke-dasharray="1,2" d="M446 704l0 -637"/>
<text stroke="none" fill="white" font-size="16" x="421" y="728">
300.0
</text>
<path stroke="white" stroke-dasharray="1,2" d="M578 704l0 -637"/>
<text stroke="none" fill="white" font-size="16" x="553" y="728">
400.0
</text>
<path stroke="white" stroke-dasharray="1,2" d="M710 704l0 -637"/>
<text stroke="none" fill="white" font-size="16" x="685" y="728">
500.0
</text>
<path stroke="white" stroke-dasharray="1,2" d="M842 704l0 -637"/>
<text stroke="none" fill="white" font-size="16" x="817" y="728">
600.0
</text>
<path stroke="white" stroke-dasharray="1,2" d="M974 704l0 -637"/>
<text stroke="none" fill="white" font-size="16" x="949" y="728">
700.0
</text>
<text stroke="none" fill="white" font-size="16" x="614" y="752">
ns
</text>
<path stroke="white" stroke-dasharray="1,2" d="M50 704l924 0"/>
<text stroke="none" fill="white" font-size="16" x="8" y="712">
-3.0
</text>
<path stroke="white" stroke-dasharray="1,2" d="M50 613l924 0"/>
<text stroke="none" fill="white" font-size="16" x="8" y="621">
-2.0
</text>
<path stroke="white" stroke-dasharray="1,2" d="M50 522l924 0"/>
<text stroke="none" fill="white" font-size="16" x="8" y="530">
-1.0
</text>
<path stroke="white" d="M50 431l924 0"/>
<text stroke="none" fill="white" font-size="16" x="18" y="439">
0.0
</text>
<path stroke="white" stroke-dasharray="1,2" d="M50 340l924 0"/>
<text stroke="none" fill="white" font-size="16" x="18" y="348">
1.0
</text>
<path stroke="white" stroke-dasharray="1,2" d="M50 249l924 0"/>
<text stroke="none" fill="white" font-size="16" x="18" y="257">
2.0
</text>
<path stroke="white" stroke-dasharray="1,2" d="M50 158l924 0"/>
<text stroke="none" fill="white" font-size="16" x="18" y="166">
3.0
</text>
<path stroke="white" stroke-dasharray="1,2" d="M50 67l924 0"/>
<text stroke="none" fill="white" font-size="16" x="18" y="75">
4.0
</text>
<text stroke="none" fill="white" font-size="16" x="10" y="32">
     
</text>
<path stroke="red" d="M462 23l46 0"/>
<text stroke="none" fill="white" font-size="16" x="518" y="32">
x1.vsampled_p
</text>
<path stroke="red" d="M50 431l1 0 1 -7 0 -15 1 -15 0 -4 1 1M54 415l0 -39 1 -5 0 -14 1 -3 0 -2 1 -2 2 0 1 -1 4 0M64 350l0 -1M64 350l4 0 1 -1 48 0 1 -5 0 -5 1 -2 1 -1 434 0 0 -1M554 336l13 0M567 337l0 -1 13 0 0 -1M580 336l20 0M600 350l0 -14M600 350l1 3"/>
<path stroke="red" d="M601 359l0 -6M601 359l1 -1 0 -1 1 -1 16 0M619 357l0 -1 6 0 0 -10 1 -1 0 -6 1 -1 19 0M646 339l0 -1 7 0M653 348l0 -10M653 348l1 2 0 -1 5 0 0 -1M659 349l27 0 0 -1M686 349l26 0 0 -1M712 349l26 0 0 -1 1 1 26 0 0 -1M765 349l21 0"/>
<path stroke="red" d="M786 350l0 -1 18 0M804 350l0 -1 27 0M831 350l0 -1 26 0M857 350l0 -1 26 0M883 350l0 -1 27 0M910 350l0 -1 7 0 1 -1 0 -8 1 -1 0 -3 4 0 0 -1M923 336l51 0"/>
<path stroke="blue" d="M50 23l46 0"/>
<text stroke="none" fill="white" font-size="16" x="106" y="32">
x1.vsampled_n
</text>
<path stroke="blue" d="M50 431l1 0 1 -7 0 -15 1 -14 0 -5 1 2M54 415l0 -39 1 -5 0 -14 1 -3 0 -2 1 -2 2 0 1 -1 4 0M64 350l0 -1M64 350l4 0 1 -1 48 0M117 351l0 -2M117 351l1 4M118 360l0 -5M118 360l2 2 1 0 1 1 424 0 0 -24 1 -2 0 -24 1 -5 0 -3 1 -2"/>
<path stroke="blue" d="M549 303l0 -1 5 0 0 -1 12 0 1 1M567 303l0 -1 7 0M574 329l0 -27M574 329l1 9M575 344l0 -6M575 344l1 0 1 -1 1 0 0 -1 15 0M593 343l0 -1 26 0M619 343l0 -1 27 0M646 343l0 -1 26 0M672 343l0 -1 7 0M679 350l0 -8M679 350l1 -1 0 -1"/>
<path stroke="blue" d="M680 348l1 0 1 -1 16 0 1 1 0 -1 7 0M706 351l0 -4M706 351l1 0 0 -1 24 0 0 -3 1 0M732 348l0 -1M732 348l27 0M759 350l0 -2M759 349l54 0M813 350l0 -1 17 0 1 1 0 -1 86 0M917 350l0 -2 1 -3M918 365l0 -20M918 365l1 0 0 -2 55 0"/>
<path stroke="#FFA500" d="M462 39l46 0"/>
<text stroke="none" fill="white" font-size="16" x="518" y="48">
x1.vsampled_p-x1.vsampled_n
</text>
<path stroke="#FFA500" d="M50 431l67 0 0 -2 1 -8 0 -11 1 -4 2 -2 425 0M546 428l0 -24M546 428l1 2M547 454l0 -24M547 454l1 5M548 462l0 -3M548 462l1 2M549 465l0 -1M549 465l5 0M554 466l0 -1 13 0M567 466l0 -2M567 465l7 0 0 -28 1 -8 0 -6 1 0 1 1 2 0"/>
<path stroke="#FFA500" d="M579 425l0 -1M579 425l1 0 0 -1M580 425l13 0 0 -1M593 425l7 0M600 439l0 -15M600 439l1 3M601 448l0 -6M601 448l1 -1 0 -2 23 0 0 -10 1 -2 0 -6 27 0M653 437l0 -10M653 437l1 2 0 -1 1 0 0 -1 24 0 0 -7 1 1M680 432l0 -1M680 432l26 0"/>
<path stroke="#FFA500" d="M706 432l0 -4 1 1M707 430l0 -1M707 430l24 0M731 433l0 -3M731 433l1 0 0 -1 27 0 0 -3M759 431l27 0M786 432l0 -1 27 0 0 -1M813 431l25 0M838 432l0 -1 79 0M917 433l0 -3M917 433l1 1 0 -28 1 -1 0 -2 1 1 16 0M936 405l0 -1 38 0"/>
<path stroke="green" d="M50 39l46 0"/>
<text stroke="none" fill="white" font-size="16" x="106" y="48">
x1.sw_sample-2
</text>
<path stroke="green" d="M50 613l1 0 1 -9 0 -21 1 -21M53 581l0 -25M53 581l1 29M54 613l0 -3M54 613l63 0M117 620l0 -172M117 449l422 0M539 614l0 -171M539 613l422 0M961 618l0 -170 1 1 12 0"/>
<path stroke="#FFC0C5" d="M462 55l46 0"/>
<text stroke="none" fill="white" font-size="16" x="518" y="64">
x1.comp_out_p+2
</text>
<path stroke="#FFC0C5" d="M50 249l1 0 1 -9 0 -22 1 -18 0 -4M53 198l1 5M54 249l0 -46M54 249l487 0 1 1 0 -166M542 85l13 0M555 250l0 -167M555 249l39 0M594 250l0 -166 1 1 13 0M608 250l0 -171M608 249l39 0M647 251l0 -168M647 85l14 0M661 249l0 -171"/>
<path stroke="#FFC0C5" d="M661 249l66 0 0 -165 1 1 12 0M740 249l0 -171M740 249l40 0 0 -165M780 85l13 0M793 249l0 -173M793 249l41 0 0 -165M834 85l11 0 0 -9 1 140M846 249l0 -33M846 249l91 0 1 -70 0 -95M938 85l13 0M951 249l0 -172M951 249l23 0"/>
<path stroke="#A52A2A" d="M50 55l46 0"/>
<text stroke="none" fill="white" font-size="16" x="106" y="64">
x1.comp_out_n-2
</text>
<path stroke="#A52A2A" d="M50 613l1 0 1 -9 0 -22 1 -19M53 564l0 -3M53 564l1 6M54 613l0 -43M54 613l514 0M568 614l0 -167M568 449l13 0 0 -8 1 158M582 613l0 -14M582 613l12 0M594 614l0 -1 27 0 0 -166M621 449l13 0M634 613l0 -172M634 613l39 0M673 616l0 -3"/>
<path stroke="#A52A2A" d="M673 616l1 -114 0 -55M674 449l13 0M687 613l0 -172M687 613l13 0 0 -165 1 1 12 0 1 -9M714 614l0 -174M714 613l39 0 0 -165 1 1 12 0M766 613l0 -166M766 613l41 0 0 -165 1 1 11 0M819 614l0 -171M819 613l41 0 0 -165M860 449l12 0"/>
<path stroke="#A52A2A" d="M872 613l0 -168M872 613l14 0 0 -158 1 -7M887 449l0 -1M887 449l11 0M898 613l0 -168M898 613l14 0 1 -158 0 -7M913 449l12 0M925 614l0 -173M925 613l49 0"/>
</svg>
