<?xml version="1.0" standalone="yes"?>
<!DOCTYPE svg PUBLIC "-//W3C//DTD SVG 1.1//EN"
 "http://www.w3.org/Graphics/SVG/1.1/DTD/svg11.dtd">
<svg xmlns="http://www.w3.org/2000/svg" version="1.1"
  width="100%" height="100%" viewBox="0 0 1024 768"
  style="fill: none; font-family: Helvetica;
 font: Helvetica;
">

<!-- Creator: NGspice -->

<rect x="0" y="0" width="1024" height="768" fill="black" stroke="none"/>
<text stroke="none" fill="white" font-size="16" x="358" y="752">
time
</text>
<text stroke="none" fill="white" font-size="16" x="10" y="16">
tran1: run527_vin-0.436378
</text>
<path stroke="white" d="M50 704l0 -637"/>
<text stroke="none" fill="white" font-size="16" x="35" y="728">
0.0
</text>
<path stroke="white" stroke-dasharray="1,2" d="M182 704l0 -637"/>
<text stroke="none" fill="white" font-size="16" x="157" y="728">
100.0
</text>
<path stroke="white" stroke-dasharray="1,2" d="M314 704l0 -637"/>
<text stroke="none" fill="white" font-size="16" x="289" y="728">
200.0
</text>
<path stroke="white" stroke-dasharray="1,2" d="M446 704l0 -637"/>
<text stroke="none" fill="white" font-size="16" x="421" y="728">
300.0
</text>
<path stroke="white" stroke-dasharray="1,2" d="M578 704l0 -637"/>
<text stroke="none" fill="white" font-size="16" x="553" y="728">
400.0
</text>
<path stroke="white" stroke-dasharray="1,2" d="M710 704l0 -637"/>
<text stroke="none" fill="white" font-size="16" x="685" y="728">
500.0
</text>
<path stroke="white" stroke-dasharray="1,2" d="M842 704l0 -637"/>
<text stroke="none" fill="white" font-size="16" x="817" y="728">
600.0
</text>
<path stroke="white" stroke-dasharray="1,2" d="M974 704l0 -637"/>
<text stroke="none" fill="white" font-size="16" x="949" y="728">
700.0
</text>
<text stroke="none" fill="white" font-size="16" x="614" y="752">
ns
</text>
<path stroke="white" stroke-dasharray="1,2" d="M50 704l924 0"/>
<text stroke="none" fill="white" font-size="16" x="8" y="712">
-3.0
</text>
<path stroke="white" stroke-dasharray="1,2" d="M50 613l924 0"/>
<text stroke="none" fill="white" font-size="16" x="8" y="621">
-2.0
</text>
<path stroke="white" stroke-dasharray="1,2" d="M50 522l924 0"/>
<text stroke="none" fill="white" font-size="16" x="8" y="530">
-1.0
</text>
<path stroke="white" d="M50 431l924 0"/>
<text stroke="none" fill="white" font-size="16" x="18" y="439">
0.0
</text>
<path stroke="white" stroke-dasharray="1,2" d="M50 340l924 0"/>
<text stroke="none" fill="white" font-size="16" x="18" y="348">
1.0
</text>
<path stroke="white" stroke-dasharray="1,2" d="M50 249l924 0"/>
<text stroke="none" fill="white" font-size="16" x="18" y="257">
2.0
</text>
<path stroke="white" stroke-dasharray="1,2" d="M50 158l924 0"/>
<text stroke="none" fill="white" font-size="16" x="18" y="166">
3.0
</text>
<path stroke="white" stroke-dasharray="1,2" d="M50 67l924 0"/>
<text stroke="none" fill="white" font-size="16" x="18" y="75">
4.0
</text>
<text stroke="none" fill="white" font-size="16" x="10" y="32">
     
</text>
<path stroke="red" d="M462 23l46 0"/>
<text stroke="none" fill="white" font-size="16" x="518" y="32">
x1.vsampled_p
</text>
<path stroke="red" d="M50 431l1 0 1 -7 0 -15 1 -14 0 -5 1 2M54 415l0 -40 1 -5 0 -13 1 -3 0 -2 2 -2 1 0 1 -1 4 0M64 350l0 -1M64 350l4 0 1 -1 48 0M117 357l0 -8M117 357l1 11M118 380l0 -12M118 380l1 3M119 387l0 -4M119 387l1 1 1 0M121 389l0 -1M121 389l425 0"/>
<path stroke="red" d="M546 389l0 -25 1 -4 0 -24 1 -1 0 -5 2 -2 4 0 0 -1M554 328l13 0M567 329l0 -1 13 0 0 -1M580 328l13 0M593 329l0 -1 7 0M600 347l0 -19M600 347l1 3M601 354l0 -4M601 352l1 -2 0 -2 17 0M619 349l0 -1 27 0M646 349l0 -1 79 0M725 349l0 -1"/>
<path stroke="red" d="M725 348l34 0M759 351l0 -3M759 350l1 0 0 -1 18 0M778 350l0 -1 26 0M804 350l0 -1 26 0 1 1 0 -1 86 0M917 350l0 -3M917 349l1 5M918 380l0 -26M918 380l1 6M919 390l0 -4M919 390l1 1 0 -1 1 0 0 -1 53 0"/>
<path stroke="blue" d="M50 23l46 0"/>
<text stroke="none" fill="white" font-size="16" x="106" y="32">
x1.vsampled_n
</text>
<path stroke="blue" d="M50 431l1 0 1 -7 0 -15 1 -15 0 -4 1 1M54 414l0 -39 1 -5 0 -13 1 -3 0 -2 2 -2 1 0 1 -1 4 0M64 350l0 -1M64 350l4 0 1 -1 48 0 0 -1 1 -9 0 -18 1 -4 0 -4 1 -2 1 -1 1 0 1 -1 416 0M539 310l0 -1M539 310l1 0M540 311l0 -1 14 0 0 -1"/>
<path stroke="blue" d="M554 310l13 0M567 311l0 -1 7 0M574 334l0 -24M574 334l1 4M575 350l0 -12M575 350l1 0M576 351l0 -1M576 351l4 0 0 -1 13 0M593 351l0 -1M593 351l13 0 0 -1 13 0M619 351l0 -1M619 351l1 0 0 -1M620 351l6 0 0 -16 1 -1 0 -1 6 0 0 -1"/>
<path stroke="blue" d="M633 333l20 0M653 342l0 -9M653 342l1 1M654 344l0 -1 25 0M679 348l0 -5M679 348l1 1 0 -1 26 0M706 351l0 -3M706 351l6 0 0 -1 13 0M725 351l0 -1M725 351l6 0 0 -3 20 0M751 349l0 -1 27 0M778 349l0 -1 7 0M785 349l0 -1M785 349l27 0"/>
<path stroke="blue" d="M812 350l0 -1M812 350l1 0 0 -1 18 0M831 350l0 -1 26 0M857 350l0 -1 26 0M883 350l0 -1 27 0M910 350l0 -1 7 0M917 350l0 -4 1 -1 0 -15 1 -5 0 -4 1 -4 0 -3 1 -2 0 -1 1 -1 1 0 0 -1M923 310l13 0M936 311l0 -1 14 0 0 -1M950 310l11 0"/>
<path stroke="blue" d="M961 310l0 -1 13 0"/>
<path stroke="#FFA500" d="M462 39l46 0"/>
<text stroke="none" fill="white" font-size="16" x="518" y="48">
x1.vsampled_p-x1.vsampled_n
</text>
<path stroke="#FFA500" d="M50 431l2 0 1 1 1 0 0 -1 63 0M117 440l0 -9M117 440l1 20M118 490l0 -30M118 490l1 7M119 505l0 -8M119 505l2 4M121 510l0 -1M121 510l425 0M546 511l0 -26 1 -3 0 -25 1 -1 0 -5 2 -2 17 0M567 450l0 -1 7 0 0 -24 1 -5 0 -11 1 -1"/>
<path stroke="#FFA500" d="M576 408l17 0M593 409l0 -1 7 0M600 427l0 -19M600 427l1 3M601 435l0 -5M601 432l1 -1 0 -2 4 0 0 -1M606 429l20 0M626 444l0 -15M626 444l1 1M627 446l0 -1M627 446l6 0M633 447l0 -1 13 0M646 447l0 -1 7 0M653 447l0 -10 1 -1 18 0"/>
<path stroke="#FFA500" d="M672 437l0 -1 7 0 0 -5 1 -1M680 431l0 -1M680 431l26 0 0 -2 1 -1M707 429l0 -1M707 429l5 0 0 -1M712 429l19 0M731 431l0 -2M731 431l28 0M759 434l0 -3M759 433l1 -1 25 0 0 -1 19 0M804 432l0 -1 34 0 0 -1 1 0M839 431l0 -1M839 431l78 0"/>
<path stroke="#FFA500" d="M917 434l0 -5M917 434l1 7M918 481l0 -40M918 481l1 12M919 501l0 -8M919 501l1 4M920 507l0 -2M920 507l1 1M921 510l0 -2M921 510l2 0M923 511l0 -1 13 0 0 -1M936 510l14 0M950 511l0 -1 24 0"/>
<path stroke="green" d="M50 39l46 0"/>
<text stroke="none" fill="white" font-size="16" x="106" y="48">
x1.sw_sample-2
</text>
<path stroke="green" d="M50 613l1 0 1 -9 0 -21 1 -21M53 580l0 -24M53 580l1 30M54 613l0 -3M54 613l63 0M117 620l0 -172M117 449l422 0M539 614l0 -171M539 613l422 0M961 618l0 -170 1 1 12 0"/>
<path stroke="#FFC0C5" d="M462 55l46 0"/>
<text stroke="none" fill="white" font-size="16" x="518" y="64">
x1.comp_out_p+2
</text>
<path stroke="#FFC0C5" d="M50 249l1 0 1 -9 0 -22 1 -18 0 -4M53 198l1 5M54 249l0 -46M54 248l1 1 539 0 0 -165M594 85l14 0M608 249l0 -171M608 249l13 0 0 -165 1 1 12 0M634 250l0 -173M634 249l93 0 0 -165M727 85l13 0M740 249l0 -172M740 249l13 0 0 -136"/>
<path stroke="#FFC0C5" d="M753 113l1 -27 0 -2M754 85l12 0M766 249l0 -173M766 249l94 0 0 -164 12 0M872 249l0 -174M872 249l14 0 0 -157 1 -8M887 85l0 -1M887 85l11 0M898 249l0 -174M898 249l14 0 1 -157 0 -8M913 85l12 0M925 250l0 -173M925 249l49 0"/>
<path stroke="#A52A2A" d="M50 55l46 0"/>
<text stroke="none" fill="white" font-size="16" x="106" y="64">
x1.comp_out_n-2
</text>
<path stroke="#A52A2A" d="M50 613l1 0 1 -9 0 -22 1 -19M53 564l0 -3M53 564l1 6M54 613l0 -43M54 613l487 0 1 1 0 -167M542 449l13 0M555 613l0 -173M555 613l13 0M568 614l0 -166M568 449l13 0 0 -9 1 163M582 613l0 -10M582 613l65 0M647 614l0 -166M647 449l14 0"/>
<path stroke="#A52A2A" d="M661 613l0 -171M661 613l12 0M673 614l0 -1M673 614l1 -81 0 -86M674 449l13 0M687 613l0 -173M687 613l14 0 0 -165M701 449l12 0 0 -8 1 155M714 613l0 -17M714 613l66 0 0 -165M780 449l13 0M793 613l0 -173M793 613l14 0 0 -164"/>
<path stroke="#A52A2A" d="M807 449l12 0M819 613l0 -166M819 613l15 0 0 -165M834 449l11 0 0 -10 1 153M846 613l0 -21M846 613l91 0 1 -63 0 -102M938 449l13 0M951 613l0 -169M951 613l23 0"/>
</svg>
