<?xml version="1.0" standalone="yes"?>
<!DOCTYPE svg PUBLIC "-//W3C//DTD SVG 1.1//EN"
 "http://www.w3.org/Graphics/SVG/1.1/DTD/svg11.dtd">
<svg xmlns="http://www.w3.org/2000/svg" version="1.1"
  width="100%" height="100%" viewBox="0 0 1024 768"
  style="fill: none; font-family: Helvetica;
 font: Helvetica;
">

<!-- Creator: NGspice -->

<rect x="0" y="0" width="1024" height="768" fill="black" stroke="none"/>
<text stroke="none" fill="white" font-size="16" x="358" y="752">
time
</text>
<text stroke="none" fill="white" font-size="16" x="10" y="16">
tran1: run524_vin-0.439014
</text>
<path stroke="white" d="M50 704l0 -637"/>
<text stroke="none" fill="white" font-size="16" x="35" y="728">
0.0
</text>
<path stroke="white" stroke-dasharray="1,2" d="M182 704l0 -637"/>
<text stroke="none" fill="white" font-size="16" x="157" y="728">
100.0
</text>
<path stroke="white" stroke-dasharray="1,2" d="M314 704l0 -637"/>
<text stroke="none" fill="white" font-size="16" x="289" y="728">
200.0
</text>
<path stroke="white" stroke-dasharray="1,2" d="M446 704l0 -637"/>
<text stroke="none" fill="white" font-size="16" x="421" y="728">
300.0
</text>
<path stroke="white" stroke-dasharray="1,2" d="M578 704l0 -637"/>
<text stroke="none" fill="white" font-size="16" x="553" y="728">
400.0
</text>
<path stroke="white" stroke-dasharray="1,2" d="M710 704l0 -637"/>
<text stroke="none" fill="white" font-size="16" x="685" y="728">
500.0
</text>
<path stroke="white" stroke-dasharray="1,2" d="M842 704l0 -637"/>
<text stroke="none" fill="white" font-size="16" x="817" y="728">
600.0
</text>
<path stroke="white" stroke-dasharray="1,2" d="M974 704l0 -637"/>
<text stroke="none" fill="white" font-size="16" x="949" y="728">
700.0
</text>
<text stroke="none" fill="white" font-size="16" x="614" y="752">
ns
</text>
<path stroke="white" stroke-dasharray="1,2" d="M50 704l924 0"/>
<text stroke="none" fill="white" font-size="16" x="8" y="712">
-3.0
</text>
<path stroke="white" stroke-dasharray="1,2" d="M50 613l924 0"/>
<text stroke="none" fill="white" font-size="16" x="8" y="621">
-2.0
</text>
<path stroke="white" stroke-dasharray="1,2" d="M50 522l924 0"/>
<text stroke="none" fill="white" font-size="16" x="8" y="530">
-1.0
</text>
<path stroke="white" d="M50 431l924 0"/>
<text stroke="none" fill="white" font-size="16" x="18" y="439">
0.0
</text>
<path stroke="white" stroke-dasharray="1,2" d="M50 340l924 0"/>
<text stroke="none" fill="white" font-size="16" x="18" y="348">
1.0
</text>
<path stroke="white" stroke-dasharray="1,2" d="M50 249l924 0"/>
<text stroke="none" fill="white" font-size="16" x="18" y="257">
2.0
</text>
<path stroke="white" stroke-dasharray="1,2" d="M50 158l924 0"/>
<text stroke="none" fill="white" font-size="16" x="18" y="166">
3.0
</text>
<path stroke="white" stroke-dasharray="1,2" d="M50 67l924 0"/>
<text stroke="none" fill="white" font-size="16" x="18" y="75">
4.0
</text>
<text stroke="none" fill="white" font-size="16" x="10" y="32">
     
</text>
<path stroke="red" d="M462 23l46 0"/>
<text stroke="none" fill="white" font-size="16" x="518" y="32">
x1.vsampled_p
</text>
<path stroke="red" d="M50 431l1 0 1 -7 0 -15 1 -14 0 -5 1 2M54 415l0 -40 1 -5 0 -13 1 -3 0 -2 2 -2 1 0 1 -1 4 0M64 350l0 -1M64 350l4 0 1 -1 48 0M117 357l0 -8M117 357l1 11M118 381l0 -13M118 381l1 2M119 387l0 -4M119 387l1 1 1 0M121 389l0 -1M121 389l425 0"/>
<path stroke="red" d="M546 389l0 -15 1 -5 0 -29 1 -2 0 -7 1 -2 1 0 0 -1 4 0 0 -1M554 328l13 0M567 329l0 -1 13 0 0 -1M580 328l13 0M593 329l0 -1 7 0M600 345l0 -17M600 345l1 4M601 354l0 -5M601 353l1 -2 0 -2 1 -1 16 0M619 349l0 -1M619 349l1 -1 26 0"/>
<path stroke="red" d="M646 349l0 -1 26 0M672 349l0 -1 26 0 1 1 0 -1 26 0M725 349l0 -1 26 0M751 349l0 -1M751 349l1 -1 26 0M778 349l0 -1 7 0M785 349l0 -1M785 349l1 0M786 350l0 -1 26 0 1 1 0 -1 18 0M831 350l0 -1 26 0M857 350l0 -1 26 0M883 350l0 -1"/>
<path stroke="red" d="M883 350l1 -1 26 0M910 350l0 -1 8 0M918 372l0 -25M918 372l1 2M919 390l0 -16M919 390l1 1 1 -1 1 0 0 -1 52 0"/>
<path stroke="blue" d="M50 23l46 0"/>
<text stroke="none" fill="white" font-size="16" x="106" y="32">
x1.vsampled_n
</text>
<path stroke="blue" d="M50 431l1 0 1 -7 0 -15 1 -15 0 -4 1 1M54 414l0 -39 1 -5 0 -13 1 -3 0 -2 2 -2 1 0 1 -1 4 0M64 350l0 -1M64 350l4 0 1 -1 48 0 0 -1 1 -9 0 -18 1 -4 0 -5 3 -3 418 0M540 310l0 -1M540 310l1 -1M541 310l0 -1 25 0 1 1 0 -1 6 0 1 5"/>
<path stroke="blue" d="M574 337l0 -23M574 337l1 4M575 350l0 -9M575 350l18 0M593 351l0 -1 26 0M619 351l0 -1 7 0 0 -14 1 -1 0 -2 1 0 1 -1 17 0M646 333l0 -1 7 0M653 340l0 -8M653 340l1 1M654 343l0 -2M654 343l5 0 0 -1M659 343l20 0M679 349l0 -6M679 349l1 0"/>
<path stroke="blue" d="M680 349l0 -1 26 0M706 351l0 -3M706 351l1 0 0 -1 18 0M725 351l0 -1 6 0 0 -2 1 -1M732 348l0 -1M732 348l27 0M759 350l0 -2M759 350l1 -1 18 0M778 350l0 -1 26 0M804 350l0 -1 27 0M831 350l0 -1 87 0M918 351l0 -17 1 -1 0 -12 1 -4"/>
<path stroke="blue" d="M920 317l0 -3 1 -2 0 -1 1 0 0 -1 1 0 0 -1 13 0M936 311l0 -2 1 1 0 -1 37 0"/>
<path stroke="#FFA500" d="M462 39l46 0"/>
<text stroke="none" fill="white" font-size="16" x="518" y="48">
x1.vsampled_p-x1.vsampled_n
</text>
<path stroke="#FFA500" d="M50 431l2 0 1 1 1 0 0 -1 63 0M117 440l0 -9M117 440l1 20M118 491l0 -31M118 491l1 6M119 505l0 -8M119 505l1 3 1 1M121 510l0 -1M121 510l1 1 418 0 0 -1M540 511l6 0 0 -16 1 -5 0 -29 1 -2 0 -7 2 -2 1 0 1 -1 2 0M554 450l0 -1"/>
<path stroke="#FFA500" d="M554 449l13 0M567 450l0 -1 6 0M573 450l0 -1M573 450l1 -5 0 -23 1 -4 0 -9 5 0 0 -1M580 409l20 0M600 426l0 -17M600 426l1 3M601 435l0 -6M601 434l1 -2 0 -2 1 -1 23 0M626 443l0 -14M626 443l1 2M627 446l0 -1M627 446l1 1 25 0"/>
<path stroke="#FFA500" d="M653 447l0 -8 1 -1 0 -2M654 437l25 0 0 -7 1 1M680 432l0 -1M680 432l26 0 0 -3 1 -1M707 429l0 -1M707 429l24 0M731 432l0 -3M731 432l1 0 0 -1 27 0 0 -2M759 430l26 0M785 431l0 -1M785 431l28 0M813 432l0 -1 25 0 1 1 0 -1 79 0"/>
<path stroke="#FFA500" d="M918 469l0 -42M918 469l1 4M919 500l0 -27M919 500l1 5M920 508l0 -3M920 508l1 1M921 510l0 -1M921 510l2 0M923 511l0 -1M923 511l13 0 0 -1M936 511l38 0"/>
<path stroke="green" d="M50 39l46 0"/>
<text stroke="none" fill="white" font-size="16" x="106" y="48">
x1.sw_sample-2
</text>
<path stroke="green" d="M50 613l1 0 1 -9 0 -21 1 -21M53 580l0 -24M53 580l1 30M54 613l0 -3M54 613l63 0M117 620l0 -172M117 449l422 0M539 614l0 -171M539 613l422 0M961 618l0 -170 1 1 12 0"/>
<path stroke="#FFC0C5" d="M462 55l46 0"/>
<text stroke="none" fill="white" font-size="16" x="518" y="64">
x1.comp_out_p+2
</text>
<path stroke="#FFC0C5" d="M50 249l1 0 1 -9 0 -22 1 -18 0 -4M53 198l1 5M54 249l0 -46M54 248l1 1 539 0M594 250l0 -166M594 85l14 0M608 249l0 -172M608 249l13 0 0 -164 1 -1M622 85l0 -1M622 85l12 0M634 249l0 -172M634 249l93 0 0 -165M727 85l13 0M740 249l0 -172"/>
<path stroke="#FFC0C5" d="M740 249l40 0 0 -165M780 85l13 0M793 249l0 -174M793 249l14 0 0 -165M807 85l12 0M819 249l0 -171M819 249l15 0 0 -164 11 0 0 -10 1 145M846 249l0 -29M846 249l128 0"/>
<path stroke="#A52A2A" d="M50 55l46 0"/>
<text stroke="none" fill="white" font-size="16" x="106" y="64">
x1.comp_out_n-2
</text>
<path stroke="#A52A2A" d="M50 613l1 0 1 -9 0 -22 1 -19M53 564l0 -3M53 564l1 6M54 613l0 -43M54 613l488 0M542 616l0 -169M542 449l13 0M555 613l0 -172M555 613l13 0 0 -166M568 449l13 0 0 -9 1 163M582 613l0 -10M582 613l65 0 0 -165M647 449l14 0M661 614l0 -171"/>
<path stroke="#A52A2A" d="M661 613l12 0M673 615l0 -2M673 615l1 -123 0 -45M674 449l13 0M687 613l0 -171M687 613l13 0M700 614l0 -151 1 -15M701 449l0 -1M701 449l12 0 0 -9 1 162M714 613l0 -11M714 613l39 0M753 615l0 -151 1 -16M754 449l0 -1M754 449l12 0"/>
<path stroke="#A52A2A" d="M766 613l0 -172M766 613l94 0 0 -164 12 0M872 613l0 -174M872 613l14 0 0 -164 12 0M898 613l0 -174M898 613l14 0 1 -154 0 -10 12 0M925 613l0 -171M925 613l12 0 1 -57 0 -108M938 449l13 0M951 613l0 -169M951 613l23 0"/>
</svg>
