<?xml version="1.0" standalone="yes"?>
<!DOCTYPE svg PUBLIC "-//W3C//DTD SVG 1.1//EN"
 "http://www.w3.org/Graphics/SVG/1.1/DTD/svg11.dtd">
<svg xmlns="http://www.w3.org/2000/svg" version="1.1"
  width="100%" height="100%" viewBox="0 0 1024 768"
  style="fill: none; font-family: Helvetica;
 font: Helvetica;
">

<!-- Creator: NGspice -->

<rect x="0" y="0" width="1024" height="768" fill="black" stroke="none"/>
<text stroke="none" fill="white" font-size="16" x="358" y="752">
time
</text>
<text stroke="none" fill="white" font-size="16" x="10" y="16">
tran1: run1679_vin0.576121
</text>
<path stroke="white" d="M50 704l0 -637"/>
<text stroke="none" fill="white" font-size="16" x="35" y="728">
0.0
</text>
<path stroke="white" stroke-dasharray="1,2" d="M182 704l0 -637"/>
<text stroke="none" fill="white" font-size="16" x="157" y="728">
100.0
</text>
<path stroke="white" stroke-dasharray="1,2" d="M314 704l0 -637"/>
<text stroke="none" fill="white" font-size="16" x="289" y="728">
200.0
</text>
<path stroke="white" stroke-dasharray="1,2" d="M446 704l0 -637"/>
<text stroke="none" fill="white" font-size="16" x="421" y="728">
300.0
</text>
<path stroke="white" stroke-dasharray="1,2" d="M578 704l0 -637"/>
<text stroke="none" fill="white" font-size="16" x="553" y="728">
400.0
</text>
<path stroke="white" stroke-dasharray="1,2" d="M710 704l0 -637"/>
<text stroke="none" fill="white" font-size="16" x="685" y="728">
500.0
</text>
<path stroke="white" stroke-dasharray="1,2" d="M842 704l0 -637"/>
<text stroke="none" fill="white" font-size="16" x="817" y="728">
600.0
</text>
<path stroke="white" stroke-dasharray="1,2" d="M974 704l0 -637"/>
<text stroke="none" fill="white" font-size="16" x="949" y="728">
700.0
</text>
<text stroke="none" fill="white" font-size="16" x="614" y="752">
ns
</text>
<path stroke="white" stroke-dasharray="1,2" d="M50 704l924 0"/>
<text stroke="none" fill="white" font-size="16" x="8" y="712">
-3.0
</text>
<path stroke="white" stroke-dasharray="1,2" d="M50 613l924 0"/>
<text stroke="none" fill="white" font-size="16" x="8" y="621">
-2.0
</text>
<path stroke="white" stroke-dasharray="1,2" d="M50 522l924 0"/>
<text stroke="none" fill="white" font-size="16" x="8" y="530">
-1.0
</text>
<path stroke="white" d="M50 431l924 0"/>
<text stroke="none" fill="white" font-size="16" x="18" y="439">
0.0
</text>
<path stroke="white" stroke-dasharray="1,2" d="M50 340l924 0"/>
<text stroke="none" fill="white" font-size="16" x="18" y="348">
1.0
</text>
<path stroke="white" stroke-dasharray="1,2" d="M50 249l924 0"/>
<text stroke="none" fill="white" font-size="16" x="18" y="257">
2.0
</text>
<path stroke="white" stroke-dasharray="1,2" d="M50 158l924 0"/>
<text stroke="none" fill="white" font-size="16" x="18" y="166">
3.0
</text>
<path stroke="white" stroke-dasharray="1,2" d="M50 67l924 0"/>
<text stroke="none" fill="white" font-size="16" x="18" y="75">
4.0
</text>
<text stroke="none" fill="white" font-size="16" x="10" y="32">
     
</text>
<path stroke="red" d="M462 23l46 0"/>
<text stroke="none" fill="white" font-size="16" x="518" y="32">
x1.vsampled_p
</text>
<path stroke="red" d="M50 431l1 0 1 -7 0 -15 1 -15 0 -4 1 1M54 414l0 -37 1 -3 0 -18 1 -2 0 -2 1 -2 2 0 1 -1 4 0M64 350l0 -1M64 350l4 0 1 -1 48 0 0 -1 1 -10 0 -23 1 -5 0 -7 1 -3 0 -2 1 -1 419 0M540 298l0 -1 14 0 0 -1M554 297l13 0M567 298l0 -1"/>
<path stroke="red" d="M567 297l6 0 1 1M574 323l0 -25M574 323l1 9M575 337l0 -5M575 337l1 1 24 0M600 350l0 -12M600 350l1 2M601 359l0 -7M601 359l1 -1 23 0 0 -8 1 -1 0 -7 2 -2 18 0M646 341l0 -1 26 0M672 341l0 -1 7 0M679 346l0 -6M679 346l1 0M680 347l0 -1"/>
<path stroke="red" d="M680 346l6 0 0 -1 12 0 1 1 0 -1M699 346l7 0M706 349l0 -4M706 348l53 0M759 350l0 -2M759 350l1 -1 18 0M778 350l0 -1 26 0M804 350l0 -1 27 0M831 350l0 -1 87 0M918 350l0 -29 1 -2 0 -11 1 -3 0 -3 1 -2 0 -2 1 0 0 -1 1 0 0 -1M923 297l13 0"/>
<path stroke="red" d="M936 298l0 -1 14 0 0 -1M950 297l24 0"/>
<path stroke="blue" d="M50 23l46 0"/>
<text stroke="none" fill="white" font-size="16" x="106" y="32">
x1.vsampled_n
</text>
<path stroke="blue" d="M50 431l1 0 1 -7 0 -15 1 -14 0 -5 1 2M54 414l0 -37 1 -3 0 -18 1 -2 0 -2 1 -2 2 0 1 -1 4 0M64 350l0 -1M64 350l4 0 1 -1 48 0M117 361l0 -12M117 361l1 14M118 390l0 -15M118 390l1 3M119 398l0 -5M119 398l1 1M120 400l0 -1M120 400l1 1"/>
<path stroke="blue" d="M121 401l3 0M124 402l0 -1M124 402l417 0 0 -1M541 402l5 0 0 -29 1 -4 0 -18 1 -4 0 -5 1 0 0 -1 1 0 1 -1 15 0 1 1 0 -1 26 0M593 341l0 -1 26 0M619 341l0 -1M619 341l1 0 0 -1 26 0M646 341l0 -1 7 0M653 351l0 -11M653 351l1 2 0 -1"/>
<path stroke="blue" d="M654 352l1 -1 4 0 0 -1 1 0M660 351l0 -1M660 351l12 0 0 -1 1 1 13 0 0 -1M686 351l12 0 0 -1M698 351l1 0 0 -1M699 351l13 0 0 -1M712 351l13 0 0 -1M725 351l6 0 0 -4 1 0M732 348l0 -1M732 348l19 0M751 349l0 -1M751 349l1 -1 26 0"/>
<path stroke="blue" d="M778 349l0 -1 7 0M785 350l0 -2M785 350l1 0 0 -1 26 0M812 350l0 -1M812 350l1 0 0 -1 18 0M831 350l0 -1 26 0M857 350l0 -1 26 0M883 350l0 -1M883 350l1 -1 26 0M910 350l0 -1 8 0M918 405l0 -56M918 405l1 2M919 408l0 -2 1 -1 0 -2"/>
<path stroke="blue" d="M920 403l1 -1 41 0 0 -1 1 0M963 402l0 -1M963 402l11 0"/>
<path stroke="#FFA500" d="M462 39l46 0"/>
<text stroke="none" fill="white" font-size="16" x="518" y="48">
x1.vsampled_p-x1.vsampled_n
</text>
<path stroke="#FFA500" d="M50 431l2 0 1 -1 1 0M54 431l0 -1M54 431l63 0 0 -13 1 -24 0 -37 1 -10 0 -11 1 -4 0 -3 1 -2 1 0 0 -1 418 0M540 327l0 -1 1 0M541 327l0 -1 5 0M546 355l0 -29M546 355l1 4M547 377l0 -18M547 377l1 4M548 386l0 -5M548 386l1 0"/>
<path stroke="#FFA500" d="M549 387l0 -1M549 387l1 0 1 1 3 0 0 -1M554 388l13 0 0 -1M567 388l6 0 1 1M574 413l0 -24M574 413l1 9M575 427l0 -5M575 427l2 2 1 -1 2 0M580 429l0 -1 20 0M600 440l0 -12M600 440l1 3M601 450l0 -7M601 450l1 -1 17 0 0 -1M619 449l6 0"/>
<path stroke="#FFA500" d="M625 449l0 -8 1 -2 0 -7 1 0 0 -1 26 0 0 -11 1 -1 0 -1M654 419l1 1M655 421l0 -1M655 421l24 0M679 426l0 -5M679 426l1 1 0 -1 26 0M706 429l0 -3M706 429l1 0 0 -1 18 0M725 429l0 -1 6 0M731 432l0 -4M731 432l1 0 0 -1 27 0M759 433l0 -2"/>
<path stroke="#FFA500" d="M759 432l26 0 0 -1 27 0 0 -1 1 0M813 431l0 -1M813 431l27 0 0 -1M840 431l78 0M918 432l0 -85 1 -4 0 -10 1 -2 0 -2 1 -1 0 -1 2 0 0 -1 13 0M936 328l0 -2 38 0"/>
<path stroke="green" d="M50 39l46 0"/>
<text stroke="none" fill="white" font-size="16" x="106" y="48">
x1.sw_sample-2
</text>
<path stroke="green" d="M50 613l1 0 1 -9 0 -21 1 -21M53 580l0 -24M53 580l1 30M54 613l0 -3M54 613l63 0M117 620l0 -172M117 449l422 0M539 614l0 -171M539 613l422 0M961 618l0 -170 1 1 12 0"/>
<path stroke="#FFC0C5" d="M462 55l46 0"/>
<text stroke="none" fill="white" font-size="16" x="518" y="64">
x1.comp_out_p+2
</text>
<path stroke="#FFC0C5" d="M50 249l1 0 1 -9 0 -22 1 -18 0 -4M53 198l1 5M54 250l0 -47M54 248l1 1 486 0 1 1 0 -166M542 85l13 0M555 249l0 -172M555 249l13 0 0 -165M568 85l13 0 0 -7 1 138M582 249l0 -33M582 249l12 0M594 251l0 -168M594 84l1 1 13 0M608 249l0 -173"/>
<path stroke="#FFC0C5" d="M608 249l65 0M673 250l0 -1M673 250l1 -71 0 -95M674 85l13 0M687 250l0 -172M687 249l13 0M700 251l0 -168M700 85l13 0 0 -7 1 132M714 250l0 -40M714 249l13 0 0 -165M727 85l13 0M740 250l0 -174M740 249l13 0M753 250l0 -148 1 -18"/>
<path stroke="#FFC0C5" d="M754 85l0 -1M754 85l12 0M766 250l0 -170M766 250l1 -1 93 0 0 -165M860 85l12 0M872 249l0 -174M872 249l14 0 0 -165 1 1 11 0M898 249l0 -174M898 249l14 0 1 -147 0 -18M913 85l12 0M925 249l0 -172M925 249l12 0M937 250l0 -1M937 250l1 -82"/>
<path stroke="#FFC0C5" d="M938 168l0 -84M938 85l13 0M951 250l0 -168M951 249l23 0"/>
<path stroke="#A52A2A" d="M50 55l46 0"/>
<text stroke="none" fill="white" font-size="16" x="106" y="64">
x1.comp_out_n-2
</text>
<path stroke="#A52A2A" d="M50 613l1 0 1 -9 0 -22 1 -19M53 564l0 -3M53 564l1 6M54 614l0 -87 1 81M55 613l0 -5M55 613l566 0M621 614l0 -167M621 449l13 0M634 613l0 -173M634 613l13 0M647 617l0 -170M647 449l14 0M661 614l0 -171M661 613l13 0M674 614l0 -1"/>
<path stroke="#A52A2A" d="M674 613l106 0 0 -165M780 449l13 0M793 613l0 -174M793 613l14 0 0 -165M807 449l12 0M819 613l0 -172M819 613l16 0 1 -150 0 -15M836 449l9 0 0 -4 1 43M846 613l0 -125M846 613l128 0"/>
</svg>
