<?xml version="1.0" standalone="yes"?>
<!DOCTYPE svg PUBLIC "-//W3C//DTD SVG 1.1//EN"
 "http://www.w3.org/Graphics/SVG/1.1/DTD/svg11.dtd">
<svg xmlns="http://www.w3.org/2000/svg" version="1.1"
  width="100%" height="100%" viewBox="0 0 1024 768"
  style="fill: none; font-family: Helvetica;
 font: Helvetica;
">

<!-- Creator: NGspice -->

<rect x="0" y="0" width="1024" height="768" fill="black" stroke="none"/>
<text stroke="none" fill="white" font-size="16" x="358" y="752">
time
</text>
<text stroke="none" fill="white" font-size="16" x="10" y="16">
tran1: run1816_vin0.696531
</text>
<path stroke="white" d="M50 704l0 -637"/>
<text stroke="none" fill="white" font-size="16" x="35" y="728">
0.0
</text>
<path stroke="white" stroke-dasharray="1,2" d="M182 704l0 -637"/>
<text stroke="none" fill="white" font-size="16" x="157" y="728">
100.0
</text>
<path stroke="white" stroke-dasharray="1,2" d="M314 704l0 -637"/>
<text stroke="none" fill="white" font-size="16" x="289" y="728">
200.0
</text>
<path stroke="white" stroke-dasharray="1,2" d="M446 704l0 -637"/>
<text stroke="none" fill="white" font-size="16" x="421" y="728">
300.0
</text>
<path stroke="white" stroke-dasharray="1,2" d="M578 704l0 -637"/>
<text stroke="none" fill="white" font-size="16" x="553" y="728">
400.0
</text>
<path stroke="white" stroke-dasharray="1,2" d="M710 704l0 -637"/>
<text stroke="none" fill="white" font-size="16" x="685" y="728">
500.0
</text>
<path stroke="white" stroke-dasharray="1,2" d="M842 704l0 -637"/>
<text stroke="none" fill="white" font-size="16" x="817" y="728">
600.0
</text>
<path stroke="white" stroke-dasharray="1,2" d="M974 704l0 -637"/>
<text stroke="none" fill="white" font-size="16" x="949" y="728">
700.0
</text>
<text stroke="none" fill="white" font-size="16" x="614" y="752">
ns
</text>
<path stroke="white" stroke-dasharray="1,2" d="M50 704l924 0"/>
<text stroke="none" fill="white" font-size="16" x="8" y="712">
-3.0
</text>
<path stroke="white" stroke-dasharray="1,2" d="M50 613l924 0"/>
<text stroke="none" fill="white" font-size="16" x="8" y="621">
-2.0
</text>
<path stroke="white" stroke-dasharray="1,2" d="M50 522l924 0"/>
<text stroke="none" fill="white" font-size="16" x="8" y="530">
-1.0
</text>
<path stroke="white" d="M50 431l924 0"/>
<text stroke="none" fill="white" font-size="16" x="18" y="439">
0.0
</text>
<path stroke="white" stroke-dasharray="1,2" d="M50 340l924 0"/>
<text stroke="none" fill="white" font-size="16" x="18" y="348">
1.0
</text>
<path stroke="white" stroke-dasharray="1,2" d="M50 249l924 0"/>
<text stroke="none" fill="white" font-size="16" x="18" y="257">
2.0
</text>
<path stroke="white" stroke-dasharray="1,2" d="M50 158l924 0"/>
<text stroke="none" fill="white" font-size="16" x="18" y="166">
3.0
</text>
<path stroke="white" stroke-dasharray="1,2" d="M50 67l924 0"/>
<text stroke="none" fill="white" font-size="16" x="18" y="75">
4.0
</text>
<text stroke="none" fill="white" font-size="16" x="10" y="32">
     
</text>
<path stroke="red" d="M462 23l46 0"/>
<text stroke="none" fill="white" font-size="16" x="518" y="32">
x1.vsampled_p
</text>
<path stroke="red" d="M50 431l1 0 1 -7 0 -15 1 -15 0 -5 1 2M54 414l0 -38 1 -4 0 -14 1 -3 0 -2 1 -2 0 -1 2 0 1 -1 3 0 1 1 5 0 0 -1 48 0 0 -1 1 -11 0 -33 1 -5 0 -8 2 -4 0 -1 419 0M540 287l0 -1 14 0 0 -1M554 286l13 0M567 287l0 -1 6 0 1 1M574 312l0 -25"/>
<path stroke="red" d="M574 312l1 9 1 5M576 327l0 -1M576 327l17 0M593 328l0 -1 7 0M600 343l0 -16M600 343l1 3M601 348l0 -2M601 348l1 0 0 -1 17 0M619 348l0 -1 27 0M646 348l0 -1 26 0M672 348l0 -1 27 0M699 348l0 -1 7 0M706 350l0 -3M706 350l26 0 0 -3"/>
<path stroke="red" d="M732 347l1 1 5 0 0 -1 1 1 20 0M759 350l0 -2M759 349l53 0M812 350l0 -1M812 350l1 0 0 -1 18 0M831 350l0 -1 26 0M857 350l0 -1 26 0M883 350l0 -1 27 0M910 350l0 -1 8 0 0 -37 1 -3 0 -15 1 -2 0 -2 1 -2 0 -1 1 0 0 -1 1 0 0 -1M923 286l13 0"/>
<path stroke="red" d="M936 288l0 -2 14 0 0 -1M950 286l24 0"/>
<path stroke="blue" d="M50 23l46 0"/>
<text stroke="none" fill="white" font-size="16" x="106" y="32">
x1.vsampled_n
</text>
<path stroke="blue" d="M50 431l1 0 1 -7 0 -15 1 -14 0 -5 1 2M54 414l0 -38 1 -4 0 -14 1 -3 0 -2 1 -2 0 -1 2 0 1 -1 3 0 1 1 4 0 1 -1 48 0M117 366l0 -17M117 366l1 16M118 402l0 -20M118 402l1 2M119 409l0 -5M119 409l1 2 1 1 418 0M539 413l0 -1M539 413l2 0"/>
<path stroke="blue" d="M541 413l0 -1M541 413l5 0 0 -24 1 -3 0 -21 1 -7 0 -4 2 -2 0 -1 17 0M567 352l0 -1 26 0M593 352l0 -1 26 0M619 352l0 -1M619 352l1 0 0 -1 6 0 0 -18 1 -1M627 333l0 -1M627 333l19 0M646 334l0 -1 7 0M653 345l0 -12M653 345l1 1M654 347l0 -2"/>
<path stroke="blue" d="M654 345l1 -1 4 0 0 -1M659 344l20 0M679 351l0 -8M679 351l1 1 0 -3 6 0 0 -1M686 349l26 0 0 -1M712 349l26 0 0 -1M738 349l27 0 0 -1M765 349l21 0M786 350l0 -1 18 0M804 350l0 -1 26 0 1 1 0 -1 26 0M857 350l0 -1 26 0M883 350l0 -1"/>
<path stroke="blue" d="M883 349l27 0M910 350l0 -1 8 0M918 413l0 -64M918 413l1 2M919 417l0 -2M919 417l1 -1 0 -1 1 -1 0 -1 40 0 1 -1 12 0"/>
<path stroke="#FFA500" d="M462 39l46 0"/>
<text stroke="none" fill="white" font-size="16" x="518" y="48">
x1.vsampled_p-x1.vsampled_n
</text>
<path stroke="#FFA500" d="M50 431l2 0 0 -1 2 0M54 431l0 -1M54 431l63 0 0 -18 1 -27 0 -53 1 -7 0 -13 1 -4 1 -2 0 -2 1 0 1 -1 417 0M540 305l0 -1 1 1 0 -1 5 0M546 328l0 -24M546 328l1 3M547 352l0 -21M547 352l1 7M548 363l0 -4M548 363l1 2 1 0M550 366l0 -1"/>
<path stroke="#FFA500" d="M550 366l4 0 0 -1M554 366l13 0M567 367l0 -2M567 366l7 0M574 392l0 -26M574 392l1 8 1 6M576 407l0 -1M576 407l4 0 0 -1M580 407l13 0 0 -1M593 407l7 0M600 422l0 -15M600 422l1 3M601 428l0 -3M601 427l24 0 1 1M626 446l0 -18"/>
<path stroke="#FFA500" d="M626 446l1 0 1 -1 18 0 0 -1M646 445l7 0 0 -11 1 -2M654 434l0 -2M654 434l1 0M655 435l0 -1M655 435l17 0 0 -1M672 435l7 0 0 -8 1 0M680 429l0 -3M680 429l1 0 1 1 16 0 1 -1M699 430l0 -1M699 430l7 0M706 433l0 -3M706 433l1 0"/>
<path stroke="#FFA500" d="M707 433l0 -1 25 0 0 -3M732 430l27 0M759 432l0 -2M759 431l27 0 0 -1 1 0 1 1 16 0 0 -1M804 431l34 0M838 432l0 -1 80 0 0 -101 1 -5 0 -16 1 -2 0 -1 1 0 0 -1 2 0 0 -1 13 0M936 306l0 -2 1 1 0 -1 37 0"/>
<path stroke="green" d="M50 39l46 0"/>
<text stroke="none" fill="white" font-size="16" x="106" y="48">
x1.sw_sample-2
</text>
<path stroke="green" d="M50 613l1 0 1 -9 0 -21 1 -21M53 579l0 -23M53 579l1 31M54 613l0 -3M54 613l63 0M117 620l0 -172M117 449l422 0M539 614l0 -171M539 613l422 0M961 618l0 -170 1 1 12 0"/>
<path stroke="#FFC0C5" d="M462 55l46 0"/>
<text stroke="none" fill="white" font-size="16" x="518" y="64">
x1.comp_out_p+2
</text>
<path stroke="#FFC0C5" d="M50 249l1 0 1 -9 0 -22 1 -18 0 -4M53 198l1 5M54 249l0 -46M54 248l1 1 486 0 1 4 0 -169M542 85l13 0M555 249l0 -171M555 249l13 0M568 255l0 -172M568 85l13 0 0 -1 1 18M582 250l0 -148M582 249l12 0M594 250l0 -167M594 85l14 0"/>
<path stroke="#FFC0C5" d="M608 250l0 -171M608 249l13 0 0 -165M621 85l13 0M634 249l0 -172M634 249l66 0 0 -165M700 85l13 0 0 -8 1 158M714 249l0 -14M714 249l39 0 0 -165M753 85l13 0M766 250l0 -174M766 249l41 0 0 -165M807 85l12 0M819 249l0 -167M819 249l15 0"/>
<path stroke="#FFC0C5" d="M834 249l0 -164 11 0 0 -10 1 143M846 249l0 -31M846 249l91 0 1 -48 0 -117M938 85l13 0M951 249l0 -172M951 249l23 0"/>
<path stroke="#A52A2A" d="M50 55l46 0"/>
<text stroke="none" fill="white" font-size="16" x="106" y="64">
x1.comp_out_n-2
</text>
<path stroke="#A52A2A" d="M50 613l1 0 1 -9 0 -22 1 -19M53 564l0 -3M53 564l1 6M54 614l0 -44M54 605l1 7M55 613l0 -1M55 613l592 0 0 -165M647 449l14 0M661 613l0 -173M661 613l12 0M673 614l0 -1M673 614l1 -73 0 -93M674 449l13 0M687 613l0 -171M687 613l40 0"/>
<path stroke="#A52A2A" d="M727 613l0 -165 1 1 12 0M740 613l0 -173M740 613l40 0 0 -157 1 -8M781 449l0 -1M781 449l12 0M793 613l0 -174M793 613l67 0 0 -165 1 1 11 0M872 613l0 -174M872 613l14 0 1 -150 0 -15M887 449l11 0M898 613l0 -174M898 613l15 0"/>
<path stroke="#A52A2A" d="M913 613l0 -165M913 449l12 0M925 613l0 -173M925 613l49 0"/>
</svg>
