<?xml version="1.0" standalone="yes"?>
<!DOCTYPE svg PUBLIC "-//W3C//DTD SVG 1.1//EN"
 "http://www.w3.org/Graphics/SVG/1.1/DTD/svg11.dtd">
<svg xmlns="http://www.w3.org/2000/svg" version="1.1"
  width="100%" height="100%" viewBox="0 0 1024 768"
  style="fill: none; font-family: Helvetica;
 font: Helvetica;
">

<!-- Creator: NGspice -->

<rect x="0" y="0" width="1024" height="768" fill="black" stroke="none"/>
<text stroke="none" fill="white" font-size="16" x="358" y="752">
time
</text>
<text stroke="none" fill="white" font-size="16" x="10" y="16">
tran1: run1818_vin0.698289
</text>
<path stroke="white" d="M50 704l0 -637"/>
<text stroke="none" fill="white" font-size="16" x="35" y="728">
0.0
</text>
<path stroke="white" stroke-dasharray="1,2" d="M182 704l0 -637"/>
<text stroke="none" fill="white" font-size="16" x="157" y="728">
100.0
</text>
<path stroke="white" stroke-dasharray="1,2" d="M314 704l0 -637"/>
<text stroke="none" fill="white" font-size="16" x="289" y="728">
200.0
</text>
<path stroke="white" stroke-dasharray="1,2" d="M446 704l0 -637"/>
<text stroke="none" fill="white" font-size="16" x="421" y="728">
300.0
</text>
<path stroke="white" stroke-dasharray="1,2" d="M578 704l0 -637"/>
<text stroke="none" fill="white" font-size="16" x="553" y="728">
400.0
</text>
<path stroke="white" stroke-dasharray="1,2" d="M710 704l0 -637"/>
<text stroke="none" fill="white" font-size="16" x="685" y="728">
500.0
</text>
<path stroke="white" stroke-dasharray="1,2" d="M842 704l0 -637"/>
<text stroke="none" fill="white" font-size="16" x="817" y="728">
600.0
</text>
<path stroke="white" stroke-dasharray="1,2" d="M974 704l0 -637"/>
<text stroke="none" fill="white" font-size="16" x="949" y="728">
700.0
</text>
<text stroke="none" fill="white" font-size="16" x="614" y="752">
ns
</text>
<path stroke="white" stroke-dasharray="1,2" d="M50 704l924 0"/>
<text stroke="none" fill="white" font-size="16" x="8" y="712">
-3.0
</text>
<path stroke="white" stroke-dasharray="1,2" d="M50 613l924 0"/>
<text stroke="none" fill="white" font-size="16" x="8" y="621">
-2.0
</text>
<path stroke="white" stroke-dasharray="1,2" d="M50 522l924 0"/>
<text stroke="none" fill="white" font-size="16" x="8" y="530">
-1.0
</text>
<path stroke="white" d="M50 431l924 0"/>
<text stroke="none" fill="white" font-size="16" x="18" y="439">
0.0
</text>
<path stroke="white" stroke-dasharray="1,2" d="M50 340l924 0"/>
<text stroke="none" fill="white" font-size="16" x="18" y="348">
1.0
</text>
<path stroke="white" stroke-dasharray="1,2" d="M50 249l924 0"/>
<text stroke="none" fill="white" font-size="16" x="18" y="257">
2.0
</text>
<path stroke="white" stroke-dasharray="1,2" d="M50 158l924 0"/>
<text stroke="none" fill="white" font-size="16" x="18" y="166">
3.0
</text>
<path stroke="white" stroke-dasharray="1,2" d="M50 67l924 0"/>
<text stroke="none" fill="white" font-size="16" x="18" y="75">
4.0
</text>
<text stroke="none" fill="white" font-size="16" x="10" y="32">
     
</text>
<path stroke="red" d="M462 23l46 0"/>
<text stroke="none" fill="white" font-size="16" x="518" y="32">
x1.vsampled_p
</text>
<path stroke="red" d="M50 431l1 0 1 -7 0 -15 1 -15 0 -5 1 2M54 414l0 -38 1 -4 0 -14 1 -3 0 -2 1 -2 0 -1 2 0 1 -1 3 0 1 1 5 0 0 -1 48 0 0 -1 1 -11 0 -33 1 -5 0 -8 2 -4 0 -1 419 0M540 287l0 -1 14 0 0 -1M554 286l13 0M567 287l0 -1 6 0 1 4M574 313l0 -23"/>
<path stroke="red" d="M574 313l1 10 1 4 4 0 0 -1M580 327l20 0M600 343l0 -16M600 343l1 3M601 348l0 -2M601 348l1 -1 104 0M706 350l0 -3M706 350l26 0 0 -3 19 0M751 348l0 -1M751 348l1 0 0 -1 7 0M759 349l0 -2M759 349l26 0 1 1 0 -1 18 0M804 350l0 -1"/>
<path stroke="red" d="M804 349l26 0 1 1 0 -1 87 0M918 350l0 -34 1 -3 0 -18 1 -2 0 -4 1 -1 0 -1 1 0 0 -1 1 0 0 -1M923 286l13 0M936 287l0 -1 14 0 0 -1M950 286l12 0 0 -1 1 0M963 286l0 -1M963 286l11 0"/>
<path stroke="blue" d="M50 23l46 0"/>
<text stroke="none" fill="white" font-size="16" x="106" y="32">
x1.vsampled_n
</text>
<path stroke="blue" d="M50 431l1 0 1 -7 0 -15 1 -14 0 -5 1 2M54 414l0 -38 1 -4 0 -14 1 -3 0 -2 1 -2 0 -1 2 0 1 -1 3 0 1 1 4 0 1 -1 48 0M117 366l0 -17M117 366l1 16M118 402l0 -20M118 402l1 3M119 409l0 -4M119 409l1 2 1 1 1 0 1 1 423 0 0 -22 1 -2"/>
<path stroke="blue" d="M547 389l0 -22 1 -7 0 -5 1 -2 0 -1 2 0 0 -1 15 0 1 1 0 -1 26 0M593 352l0 -1 26 0M619 352l0 -1M619 352l1 0 0 -1 6 0 0 -18 3 0M629 334l0 -1M629 334l4 0 0 -1M633 334l13 0 0 -1M646 334l7 0M653 344l0 -10M653 344l1 1M654 347l0 -2"/>
<path stroke="blue" d="M654 345l1 -1 4 0 0 -1M659 344l20 0M679 351l0 -7M679 351l1 1 0 -3 132 0M812 350l0 -1 19 0M831 350l0 -1 26 0M857 350l0 -1 26 0M883 350l0 -1M883 350l1 -1 26 0M910 350l0 -1 8 0M918 408l0 -59M918 408l1 4M919 417l0 -5M919 417l1 -1"/>
<path stroke="blue" d="M920 416l0 -2 1 0 0 -1 53 0"/>
<path stroke="#FFA500" d="M462 39l46 0"/>
<text stroke="none" fill="white" font-size="16" x="518" y="48">
x1.vsampled_p-x1.vsampled_n
</text>
<path stroke="#FFA500" d="M50 431l2 0 0 -1 2 0M54 431l0 -1M54 431l63 0 0 -18 1 -27 0 -53 1 -7 0 -13 1 -4 1 -3 0 -1 1 -1 418 0M540 305l0 -1 6 0M546 325l0 -21M546 325l1 3M547 350l0 -22M547 350l1 7M548 362l0 -5M548 362l1 2M549 365l0 -1M549 365l17 0"/>
<path stroke="#FFA500" d="M566 365l1 1 0 -1 6 0 1 4M574 393l0 -24M574 393l1 10 1 3 17 0M593 407l0 -1 7 0M600 422l0 -16M600 422l1 3M601 428l0 -3M601 427l18 0 0 -1 1 1 6 0M626 446l0 -19M626 446l1 0 0 -1 19 0 0 -1M646 445l7 0 0 -11 1 -1 0 -2M654 433l1 1"/>
<path stroke="#FFA500" d="M655 434l4 0M659 435l0 -1 20 0 0 -7 1 -1M680 429l0 -3M680 429l26 0M706 432l0 -3M706 432l26 0 0 -3 1 0M733 430l0 -1M733 430l18 0 0 -1 1 0M752 430l0 -1M752 430l7 0M759 432l0 -2M759 431l26 0 1 1 0 -1 5 0M791 432l0 -1 13 0"/>
<path stroke="#FFA500" d="M804 432l0 -1M804 432l1 -1 7 0 0 -1M812 431l106 0M918 432l0 -93 1 -6 0 -24 1 -1 0 -3 2 0 0 -1 14 0M936 305l0 -1 38 0"/>
<path stroke="green" d="M50 39l46 0"/>
<text stroke="none" fill="white" font-size="16" x="106" y="48">
x1.sw_sample-2
</text>
<path stroke="green" d="M50 613l1 0 1 -9 0 -21 1 -21M53 579l0 -23M53 579l1 31M54 613l0 -3M54 613l63 0M117 620l0 -172M117 449l422 0M539 614l0 -171M539 613l422 0M961 618l0 -170 1 1 12 0"/>
<path stroke="#FFC0C5" d="M462 55l46 0"/>
<text stroke="none" fill="white" font-size="16" x="518" y="64">
x1.comp_out_p+2
</text>
<path stroke="#FFC0C5" d="M50 249l1 0 1 -9 0 -22 1 -18 0 -4M53 198l1 5M54 249l0 -46M54 248l1 1 487 0M542 255l0 -172M542 85l13 0M555 249l0 -171M555 249l13 0 0 -165M568 85l13 0 0 -2 1 46M582 250l0 -121M582 249l12 0M594 251l0 -168M594 85l14 0M608 250l0 -172"/>
<path stroke="#FFC0C5" d="M608 249l13 0 0 -165M621 85l13 0M634 249l0 -172M634 249l66 0 0 -165M700 85l13 0 0 -5 1 64M714 250l0 -106M714 249l39 0 0 -165M753 85l13 0M766 250l0 -174M766 249l14 0 0 -165 1 1 12 0M793 249l0 -172M793 249l67 0 0 -165"/>
<path stroke="#FFC0C5" d="M860 85l12 0M872 249l0 -174M872 249l14 0 0 -148 1 -16 0 -1M887 85l11 0M898 249l0 -174M898 249l15 0 0 -165M913 85l12 0M925 249l0 -172M925 249l12 0M937 250l0 -1M937 250l1 -79 0 -87M938 85l13 0M951 249l0 -172M951 249l23 0"/>
<path stroke="#A52A2A" d="M50 55l46 0"/>
<text stroke="none" fill="white" font-size="16" x="106" y="64">
x1.comp_out_n-2
</text>
<path stroke="#A52A2A" d="M50 613l1 0 1 -9 0 -22 1 -19M53 564l0 -3M53 564l1 6M54 614l0 -44M54 605l1 7M55 613l0 -1M55 613l592 0 0 -165M647 449l14 0M661 613l0 -173M661 613l12 0M673 614l0 -1M673 614l1 -118 0 -49M674 449l13 0M687 613l0 -172M687 613l40 0"/>
<path stroke="#A52A2A" d="M727 613l1 -151 0 -14M728 449l12 0M740 613l0 -172M740 613l66 0 1 -157 0 -8M807 449l12 0M819 613l0 -174M819 613l15 0 0 -165M834 449l11 0 0 -2M845 448l1 154M846 613l0 -11M846 613l128 0"/>
</svg>
