<?xml version="1.0" standalone="yes"?>
<!DOCTYPE svg PUBLIC "-//W3C//DTD SVG 1.1//EN"
 "http://www.w3.org/Graphics/SVG/1.1/DTD/svg11.dtd">
<svg xmlns="http://www.w3.org/2000/svg" version="1.1"
  width="100%" height="100%" viewBox="0 0 1024 768"
  style="fill: none; font-family: Helvetica;
 font: Helvetica;
">

<!-- Creator: NGspice -->

<rect x="0" y="0" width="1024" height="768" fill="black" stroke="none"/>
<text stroke="none" fill="white" font-size="16" x="358" y="752">
time
</text>
<text stroke="none" fill="white" font-size="16" x="10" y="16">
tran1: run12_vin-0.889014
</text>
<path stroke="white" d="M50 704l0 -637"/>
<text stroke="none" fill="white" font-size="16" x="35" y="728">
0.0
</text>
<path stroke="white" stroke-dasharray="1,2" d="M182 704l0 -637"/>
<text stroke="none" fill="white" font-size="16" x="157" y="728">
100.0
</text>
<path stroke="white" stroke-dasharray="1,2" d="M314 704l0 -637"/>
<text stroke="none" fill="white" font-size="16" x="289" y="728">
200.0
</text>
<path stroke="white" stroke-dasharray="1,2" d="M446 704l0 -637"/>
<text stroke="none" fill="white" font-size="16" x="421" y="728">
300.0
</text>
<path stroke="white" stroke-dasharray="1,2" d="M578 704l0 -637"/>
<text stroke="none" fill="white" font-size="16" x="553" y="728">
400.0
</text>
<path stroke="white" stroke-dasharray="1,2" d="M710 704l0 -637"/>
<text stroke="none" fill="white" font-size="16" x="685" y="728">
500.0
</text>
<path stroke="white" stroke-dasharray="1,2" d="M842 704l0 -637"/>
<text stroke="none" fill="white" font-size="16" x="817" y="728">
600.0
</text>
<path stroke="white" stroke-dasharray="1,2" d="M974 704l0 -637"/>
<text stroke="none" fill="white" font-size="16" x="949" y="728">
700.0
</text>
<text stroke="none" fill="white" font-size="16" x="614" y="752">
ns
</text>
<path stroke="white" stroke-dasharray="1,2" d="M50 704l924 0"/>
<text stroke="none" fill="white" font-size="16" x="8" y="712">
-3.0
</text>
<path stroke="white" stroke-dasharray="1,2" d="M50 613l924 0"/>
<text stroke="none" fill="white" font-size="16" x="8" y="621">
-2.0
</text>
<path stroke="white" stroke-dasharray="1,2" d="M50 522l924 0"/>
<text stroke="none" fill="white" font-size="16" x="8" y="530">
-1.0
</text>
<path stroke="white" d="M50 431l924 0"/>
<text stroke="none" fill="white" font-size="16" x="18" y="439">
0.0
</text>
<path stroke="white" stroke-dasharray="1,2" d="M50 340l924 0"/>
<text stroke="none" fill="white" font-size="16" x="18" y="348">
1.0
</text>
<path stroke="white" stroke-dasharray="1,2" d="M50 249l924 0"/>
<text stroke="none" fill="white" font-size="16" x="18" y="257">
2.0
</text>
<path stroke="white" stroke-dasharray="1,2" d="M50 158l924 0"/>
<text stroke="none" fill="white" font-size="16" x="18" y="166">
3.0
</text>
<path stroke="white" stroke-dasharray="1,2" d="M50 67l924 0"/>
<text stroke="none" fill="white" font-size="16" x="18" y="75">
4.0
</text>
<text stroke="none" fill="white" font-size="16" x="10" y="32">
     
</text>
<path stroke="red" d="M462 23l46 0"/>
<text stroke="none" fill="white" font-size="16" x="518" y="32">
x1.vsampled_p
</text>
<path stroke="red" d="M50 431l1 0 1 -7 0 -15 1 -14 0 -4 1 1M54 414l0 -38 1 -5 0 -13 1 -3 0 -3 1 -1 0 -1 2 0 1 -1 4 0 1 1 1 0 1 -1 50 0M117 375l0 -26M117 375l1 18M118 416l0 -23M118 416l1 3M119 426l0 -7M119 426l1 2 2 2 424 0 0 -21 1 -3 0 -23 1 -8"/>
<path stroke="red" d="M548 375l0 -3 1 -2 1 -1 75 0 0 -15 1 -1 0 -3 1 0 1 1 103 0 0 -4 1 0M732 349l0 -2M732 349l6 0 0 -1 1 1 26 0 0 -1M765 349l21 0M786 350l0 -1 18 0M804 350l0 -1 26 0 1 1 0 -1 8 0 0 -1M839 349l18 0M857 350l0 -1 26 0M883 350l0 -1"/>
<path stroke="red" d="M883 349l27 0M910 350l0 -1 8 0M918 455l0 -106M918 449l1 -2 0 -10 1 -2 0 -3 1 -1 1 0 0 -1 52 0"/>
<path stroke="blue" d="M50 23l46 0"/>
<text stroke="none" fill="white" font-size="16" x="106" y="32">
x1.vsampled_n
</text>
<path stroke="blue" d="M50 431l1 0 1 -7 0 -16 1 -14 0 -5 1 2M54 414l0 -38 1 -5 0 -13 1 -3 0 -3 1 -1 0 -1 2 0 1 -1 3 0 1 1 4 0 1 -1 48 0 0 -2 1 -11 0 -38 1 -7 0 -15 1 -3 0 -2 3 -3 416 0M539 269l0 -1M539 269l1 -1M540 270l0 -2M540 269l14 0 0 -1"/>
<path stroke="blue" d="M554 268l12 0 1 1M567 270l0 -1 6 0 0 -1 1 5M574 297l0 -24M574 297l1 10 1 2M576 310l0 -1M576 310l1 0 1 -1 15 0M593 310l0 -1 7 0M600 324l0 -15M600 324l1 4M601 331l0 -3M601 331l1 -1 51 0M653 337l0 -7M653 337l1 3 25 0M679 345l0 -5"/>
<path stroke="blue" d="M679 345l1 0M680 346l0 -1 26 0M706 348l0 -3M706 348l53 0M759 350l0 -2M759 349l53 0 1 1 0 -1 18 0M831 350l0 -1 26 0M857 350l0 -1 26 0M883 350l0 -1 27 0M910 350l0 -1 8 0 0 -59 1 -3 0 -11 1 -2 0 -3 1 -1 0 -1 2 0 0 -1 13 0"/>
<path stroke="blue" d="M936 270l0 -2M936 269l14 0 0 -1 24 0"/>
<path stroke="#FFA500" d="M462 39l46 0"/>
<text stroke="none" fill="white" font-size="16" x="518" y="48">
x1.vsampled_p-x1.vsampled_n
</text>
<path stroke="#FFA500" d="M50 431l2 0M52 432l0 -1M52 432l2 0 0 -1 63 0M117 459l0 -28M117 459l1 30M118 549l0 -60M118 549l1 11M119 581l0 -21M119 581l1 4M120 588l0 -3M120 588l2 4 1 1 416 0 0 -1M539 593l1 0 0 -1M540 593l1 -1M541 593l0 -1M541 593l5 0"/>
<path stroke="#FFA500" d="M546 593l0 -22 1 -2 0 -24 1 -7 0 -4 1 -2 1 0 0 -1 4 0M554 532l0 -1 13 0 0 -1M567 531l6 0 1 -4 0 -25 1 -9 1 -3 4 0M580 491l0 -1 20 0 0 -14 1 -4 0 -3 1 1 23 0 0 -15 1 -1 0 -3 1 0M627 452l0 -1M627 452l26 0 0 -7 1 -3 25 0"/>
<path stroke="#FFA500" d="M679 442l0 -5 1 -1M680 437l0 -1M680 437l26 0 0 -3 19 0M725 435l0 -1 6 0 0 -4 1 1M732 432l0 -1M732 432l27 0 0 -2M759 431l27 0M786 432l0 -1 18 0M804 432l0 -1 35 0 0 -1M839 431l79 0M918 590l0 -159M918 590l1 1M919 592l0 -1"/>
<path stroke="#FFA500" d="M919 592l1 0 1 1 15 0 0 -2M936 592l1 0M937 593l0 -1M937 593l37 0"/>
<path stroke="green" d="M50 39l46 0"/>
<text stroke="none" fill="white" font-size="16" x="106" y="48">
x1.sw_sample-2
</text>
<path stroke="green" d="M50 613l1 0 1 -9 0 -21 1 -21M53 578l0 -22M53 578l1 32M54 613l0 -3M54 613l63 0M117 620l0 -172M117 449l422 0M539 614l0 -171M539 613l422 0M961 618l0 -170 1 1 12 0"/>
<path stroke="#FFC0C5" d="M462 55l46 0"/>
<text stroke="none" fill="white" font-size="16" x="518" y="64">
x1.comp_out_p+2
</text>
<path stroke="#FFC0C5" d="M50 249l1 0 1 -9 0 -22 1 -18 0 -4M53 198l1 5M54 250l0 -47M54 247l1 2 725 0 0 -165 1 0M781 85l0 -1M781 85l12 0M793 250l0 -174M793 249l66 0 1 -157 0 -8M860 85l12 0M872 249l0 -174M872 249l14 0 0 -147 1 -18M887 85l0 -1M887 85l11 0"/>
<path stroke="#FFC0C5" d="M898 249l0 -174M898 249l15 0 0 -165M913 85l12 0M925 250l0 -169M925 249l49 0"/>
<path stroke="#A52A2A" d="M50 55l46 0"/>
<text stroke="none" fill="white" font-size="16" x="106" y="64">
x1.comp_out_n-2
</text>
<path stroke="#A52A2A" d="M50 613l1 0 1 -9 0 -22 1 -19M53 564l0 -3M53 564l1 6M54 613l0 -43M54 613l487 0 1 1 0 -167M542 449l13 0M555 614l0 -174M555 613l13 0 0 -165M568 449l13 0 0 -8 1 154M582 613l0 -18M582 613l12 0M594 614l0 -167M594 449l14 0"/>
<path stroke="#A52A2A" d="M608 613l0 -169M608 613l13 0M621 614l0 -166M621 449l13 0M634 613l0 -173M634 613l13 0 0 -166M647 449l14 0M661 614l0 -167M661 613l12 0M673 615l0 -2M673 615l1 -97 0 -71M674 449l13 0M687 614l0 -170M687 613l13 0M700 614l0 -167"/>
<path stroke="#A52A2A" d="M700 449l13 0 0 -7 1 147M714 613l0 -24M714 613l13 0 0 -165M727 449l13 0M740 614l0 -174M740 613l13 0 0 -165M753 449l13 0M766 613l0 -166M766 613l41 0 0 -164 12 0M819 613l0 -170M819 613l15 0 0 -164 11 0M845 461l0 -15M845 461l1 143"/>
<path stroke="#A52A2A" d="M846 613l0 -9M846 613l91 0M937 614l0 -1M937 614l1 -99 0 -68M938 449l13 0M951 614l0 -174M951 613l23 0"/>
</svg>
