<?xml version="1.0" standalone="yes"?>
<!DOCTYPE svg PUBLIC "-//W3C//DTD SVG 1.1//EN"
 "http://www.w3.org/Graphics/SVG/1.1/DTD/svg11.dtd">
<svg xmlns="http://www.w3.org/2000/svg" version="1.1"
  width="100%" height="100%" viewBox="0 0 1024 768"
  style="fill: none; font-family: Helvetica;
 font: Helvetica;
">

<!-- Creator: NGspice -->

<rect x="0" y="0" width="1024" height="768" fill="black" stroke="none"/>
<text stroke="none" fill="white" font-size="16" x="358" y="752">
time
</text>
<text stroke="none" fill="white" font-size="16" x="10" y="16">
tran1: run10_vin-0.890771
</text>
<path stroke="white" d="M50 704l0 -637"/>
<text stroke="none" fill="white" font-size="16" x="35" y="728">
0.0
</text>
<path stroke="white" stroke-dasharray="1,2" d="M182 704l0 -637"/>
<text stroke="none" fill="white" font-size="16" x="157" y="728">
100.0
</text>
<path stroke="white" stroke-dasharray="1,2" d="M314 704l0 -637"/>
<text stroke="none" fill="white" font-size="16" x="289" y="728">
200.0
</text>
<path stroke="white" stroke-dasharray="1,2" d="M446 704l0 -637"/>
<text stroke="none" fill="white" font-size="16" x="421" y="728">
300.0
</text>
<path stroke="white" stroke-dasharray="1,2" d="M578 704l0 -637"/>
<text stroke="none" fill="white" font-size="16" x="553" y="728">
400.0
</text>
<path stroke="white" stroke-dasharray="1,2" d="M710 704l0 -637"/>
<text stroke="none" fill="white" font-size="16" x="685" y="728">
500.0
</text>
<path stroke="white" stroke-dasharray="1,2" d="M842 704l0 -637"/>
<text stroke="none" fill="white" font-size="16" x="817" y="728">
600.0
</text>
<path stroke="white" stroke-dasharray="1,2" d="M974 704l0 -637"/>
<text stroke="none" fill="white" font-size="16" x="949" y="728">
700.0
</text>
<text stroke="none" fill="white" font-size="16" x="614" y="752">
ns
</text>
<path stroke="white" stroke-dasharray="1,2" d="M50 704l924 0"/>
<text stroke="none" fill="white" font-size="16" x="8" y="712">
-2.5
</text>
<path stroke="white" stroke-dasharray="1,2" d="M50 655l924 0"/>
<text stroke="none" fill="white" font-size="16" x="8" y="663">
-2.0
</text>
<path stroke="white" stroke-dasharray="1,2" d="M50 606l924 0"/>
<text stroke="none" fill="white" font-size="16" x="8" y="614">
-1.5
</text>
<path stroke="white" stroke-dasharray="1,2" d="M50 557l924 0"/>
<text stroke="none" fill="white" font-size="16" x="8" y="565">
-1.0
</text>
<path stroke="white" stroke-dasharray="1,2" d="M50 508l924 0"/>
<text stroke="none" fill="white" font-size="16" x="8" y="516">
-0.5
</text>
<path stroke="white" d="M50 459l924 0"/>
<text stroke="none" fill="white" font-size="16" x="18" y="467">
0.0
</text>
<path stroke="white" stroke-dasharray="1,2" d="M50 410l924 0"/>
<text stroke="none" fill="white" font-size="16" x="18" y="418">
0.5
</text>
<path stroke="white" stroke-dasharray="1,2" d="M50 361l924 0"/>
<text stroke="none" fill="white" font-size="16" x="18" y="369">
1.0
</text>
<path stroke="white" stroke-dasharray="1,2" d="M50 312l924 0"/>
<text stroke="none" fill="white" font-size="16" x="18" y="320">
1.5
</text>
<path stroke="white" stroke-dasharray="1,2" d="M50 263l924 0"/>
<text stroke="none" fill="white" font-size="16" x="18" y="271">
2.0
</text>
<path stroke="white" stroke-dasharray="1,2" d="M50 214l924 0"/>
<text stroke="none" fill="white" font-size="16" x="18" y="222">
2.5
</text>
<path stroke="white" stroke-dasharray="1,2" d="M50 165l924 0"/>
<text stroke="none" fill="white" font-size="16" x="18" y="173">
3.0
</text>
<path stroke="white" stroke-dasharray="1,2" d="M50 116l924 0"/>
<text stroke="none" fill="white" font-size="16" x="18" y="124">
3.5
</text>
<path stroke="white" stroke-dasharray="1,2" d="M50 67l924 0"/>
<text stroke="none" fill="white" font-size="16" x="18" y="75">
4.0
</text>
<text stroke="none" fill="white" font-size="16" x="10" y="32">
     
</text>
<path stroke="red" d="M462 23l46 0"/>
<text stroke="none" fill="white" font-size="16" x="518" y="32">
x1.vsampled_p
</text>
<path stroke="red" d="M50 459l1 0 1 -7 0 -17 1 -15 0 -5 1 2M54 441l0 -42 1 -4 0 -15 1 -3 0 -3 1 -1 0 -1 1 -1 59 0M117 399l0 -28M117 399l1 20M118 443l0 -24M118 443l1 3M119 454l0 -8M119 454l1 1M120 456l0 -1M120 456l2 2 424 0M546 459l0 -24 1 -2"/>
<path stroke="red" d="M547 433l0 -26 1 -7 0 -5 1 -2 1 0 0 -1 17 0M567 393l0 -1 58 0 0 -15 1 -1 0 -4 1 0 1 1 103 0 0 -5M731 369l1 0M732 370l0 -1M732 370l1 0M733 371l0 -1M733 371l5 0 0 -1 13 0M751 371l0 -1M751 371l1 0 0 -1M752 371l13 0 0 -1 13 0"/>
<path stroke="red" d="M778 371l0 -1M778 371l13 0 0 -1 13 0M804 371l0 -1 1 0M805 371l0 -1M805 371l7 0M812 372l0 -1 105 0M917 407l0 -36M917 407l1 15M918 486l0 -64M918 470l1 -3 0 -5 1 -1 0 -1 1 -1 0 -1 53 0"/>
<path stroke="blue" d="M50 23l46 0"/>
<text stroke="none" fill="white" font-size="16" x="106" y="32">
x1.vsampled_n
</text>
<path stroke="blue" d="M50 459l1 0 1 -7 0 -17 1 -16 0 -5 1 2M54 441l0 -42 1 -4 0 -15 1 -3 0 -3 1 -1 0 -1 1 -1 59 0 0 -2 1 -13 0 -40 1 -8 0 -16 1 -3 0 -2 1 -2 1 -1 418 0M540 285l0 -1 14 0 0 -1M554 284l13 0M567 285l0 -1 6 0M573 293l0 -9M573 293l1 3"/>
<path stroke="blue" d="M574 313l0 -17M574 313l1 10M575 327l0 -4M575 327l1 1 4 0 0 -1M580 328l13 0M593 329l0 -1 7 0M600 343l0 -15M600 343l1 4M601 351l0 -4M601 351l1 -1 17 0M619 351l0 -1 34 0M653 359l0 -9M653 359l1 2 25 0M679 367l0 -6M679 367l1 0"/>
<path stroke="blue" d="M680 367l0 -1 18 0 1 1 0 -1 6 0 1 1M706 370l0 -3M706 369l53 0M759 371l0 -2M759 371l1 0 0 -1 18 0M778 371l0 -1 8 0M786 372l0 -2M786 371l131 0M917 372l0 -27 1 -5 0 -44 1 -2 0 -6 1 -2 0 -1 1 0 0 -1 2 0 0 -1M923 284l13 0M936 285l0 -1"/>
<path stroke="blue" d="M936 284l14 0 0 -1M950 284l12 0 0 -1 3 0 1 1 8 0"/>
<path stroke="#FFA500" d="M462 39l46 0"/>
<text stroke="none" fill="white" font-size="16" x="518" y="48">
x1.vsampled_p-x1.vsampled_n
</text>
<path stroke="#FFA500" d="M50 459l2 0M52 460l0 -1M52 460l2 0 0 -1 63 0M117 489l0 -30M117 489l1 32M118 586l0 -65M118 586l1 12M119 621l0 -23M119 621l1 5M120 629l0 -3M120 629l1 2 1 1M122 633l0 -1M122 633l2 0M124 634l0 -1M124 634l415 0 0 -1 1 0M540 634l0 -2"/>
<path stroke="#FFA500" d="M540 633l6 0M546 634l0 -23 1 -3 0 -26 1 -7 0 -5 1 -2 1 0 0 -1 4 0M554 568l0 -1 13 0 0 -1M567 567l6 0 0 -8 1 -4 0 -17 1 -9 0 -5 1 -1 4 0M580 524l0 -1 13 0 0 -1M593 523l7 0M600 524l0 -16 1 -4 0 -4M601 501l5 0M606 502l0 -1"/>
<path stroke="#FFA500" d="M606 502l1 0 0 -1 18 0 0 -15 1 -1 0 -4 1 0 1 1 25 0 0 -9 1 -2 25 0 0 -6 1 0M680 466l0 -1M680 466l6 0 0 -1M686 466l13 0 0 -1M699 466l6 0 1 -1 0 -3M706 463l25 0 0 -5M731 459l1 0M732 460l0 -1M732 460l19 0M751 461l0 -1M751 461l1 0"/>
<path stroke="#FFA500" d="M752 461l0 -1 7 0 0 -2M759 459l27 0 0 -1 18 0M804 459l0 -1 8 0M812 460l0 -2M812 459l105 0M917 521l0 -63M917 521l1 21M918 632l0 -90M918 632l1 1 4 0M923 634l0 -1M923 634l1 0 0 -1M924 634l1 0 0 -1 11 0M936 634l0 -2M936 633l14 0"/>
<path stroke="#FFA500" d="M950 634l0 -1M950 634l1 0 0 -1 11 0M962 634l0 -1M962 634l12 0"/>
<path stroke="green" d="M50 39l46 0"/>
<text stroke="none" fill="white" font-size="16" x="106" y="48">
x1.sw_sample-2
</text>
<path stroke="green" d="M50 655l1 0 1 -10 0 -23 1 -21M53 618l0 -24M53 618l1 34M54 655l0 -3M54 655l63 0M117 662l0 -184 1 0M118 479l0 -1M118 479l421 0M539 656l0 -184M539 655l422 0M961 660l0 -182 1 0M962 479l0 -1M962 479l12 0"/>
<path stroke="#FFC0C5" d="M462 55l46 0"/>
<text stroke="none" fill="white" font-size="16" x="518" y="64">
x1.comp_out_p+2
</text>
<path stroke="#FFC0C5" d="M50 263l1 0 1 -10 0 -23 1 -20 0 -4M53 208l1 5M54 264l0 -51M54 261l1 2 752 0 0 -177M807 87l12 0M819 263l0 -185M819 263l15 0 0 -177M834 87l11 0 0 -10 1 165M846 263l0 -21M846 263l128 0"/>
<path stroke="#A52A2A" d="M50 55l46 0"/>
<text stroke="none" fill="white" font-size="16" x="106" y="64">
x1.comp_out_n-2
</text>
<path stroke="#A52A2A" d="M50 655l1 0 1 -10 0 -24 1 -20M53 602l0 -4M53 602l1 7M54 655l0 -46M54 655l487 0 1 1 0 -180M542 479l13 0M555 656l0 -187M555 655l13 0 0 -178M568 479l13 0M581 581l0 -109M581 581l1 72M582 656l0 -3M582 655l12 0 0 -178M594 478l1 1"/>
<path stroke="#A52A2A" d="M595 479l13 0M608 655l0 -181M608 655l13 0M621 656l0 -180M621 479l13 0M634 655l0 -186M634 655l13 0 0 -178M647 479l14 0M661 655l0 -186M661 655l12 0M673 659l0 -4M673 659l1 -130 0 -53M674 479l13 0M687 655l0 -185M687 655l13 0"/>
<path stroke="#A52A2A" d="M700 657l0 -181M700 479l13 0 0 -7 1 176M714 656l0 -8M714 655l12 0 1 4 0 -182M727 479l13 0M740 655l0 -186M740 655l13 0M753 656l0 -178 1 1 12 0M766 655l0 -187M766 655l14 0 1 -152 0 -25M781 479l12 0M793 655l0 -181M793 655l67 0"/>
<path stroke="#A52A2A" d="M860 655l0 -177M860 479l12 0M872 655l0 -179M872 655l14 0 1 -169 0 -8M887 479l11 0M898 655l0 -179M898 655l14 0 1 -170 0 -7M913 479l12 0M925 656l0 -186M925 655l12 0M937 656l0 -1M937 656l1 -110 0 -70M938 479l13 0M951 656l0 -187"/>
<path stroke="#A52A2A" d="M951 655l23 0"/>
</svg>
