<?xml version="1.0" standalone="yes"?>
<!DOCTYPE svg PUBLIC "-//W3C//DTD SVG 1.1//EN"
 "http://www.w3.org/Graphics/SVG/1.1/DTD/svg11.dtd">
<svg xmlns="http://www.w3.org/2000/svg" version="1.1"
  width="100%" height="100%" viewBox="0 0 1024 768"
  style="fill: none; font-family: Helvetica;
 font: Helvetica;
">

<!-- Creator: NGspice -->

<rect x="0" y="0" width="1024" height="768" fill="black" stroke="none"/>
<text stroke="none" fill="white" font-size="16" x="358" y="752">
time
</text>
<text stroke="none" fill="white" font-size="16" x="10" y="16">
tran1: run866_vin-0.138429
</text>
<path stroke="white" d="M50 704l0 -637"/>
<text stroke="none" fill="white" font-size="16" x="35" y="728">
0.0
</text>
<path stroke="white" stroke-dasharray="1,2" d="M182 704l0 -637"/>
<text stroke="none" fill="white" font-size="16" x="157" y="728">
100.0
</text>
<path stroke="white" stroke-dasharray="1,2" d="M314 704l0 -637"/>
<text stroke="none" fill="white" font-size="16" x="289" y="728">
200.0
</text>
<path stroke="white" stroke-dasharray="1,2" d="M446 704l0 -637"/>
<text stroke="none" fill="white" font-size="16" x="421" y="728">
300.0
</text>
<path stroke="white" stroke-dasharray="1,2" d="M578 704l0 -637"/>
<text stroke="none" fill="white" font-size="16" x="553" y="728">
400.0
</text>
<path stroke="white" stroke-dasharray="1,2" d="M710 704l0 -637"/>
<text stroke="none" fill="white" font-size="16" x="685" y="728">
500.0
</text>
<path stroke="white" stroke-dasharray="1,2" d="M842 704l0 -637"/>
<text stroke="none" fill="white" font-size="16" x="817" y="728">
600.0
</text>
<path stroke="white" stroke-dasharray="1,2" d="M974 704l0 -637"/>
<text stroke="none" fill="white" font-size="16" x="949" y="728">
700.0
</text>
<text stroke="none" fill="white" font-size="16" x="614" y="752">
ns
</text>
<path stroke="white" stroke-dasharray="1,2" d="M50 704l924 0"/>
<text stroke="none" fill="white" font-size="16" x="8" y="712">
-3.0
</text>
<path stroke="white" stroke-dasharray="1,2" d="M50 613l924 0"/>
<text stroke="none" fill="white" font-size="16" x="8" y="621">
-2.0
</text>
<path stroke="white" stroke-dasharray="1,2" d="M50 522l924 0"/>
<text stroke="none" fill="white" font-size="16" x="8" y="530">
-1.0
</text>
<path stroke="white" d="M50 431l924 0"/>
<text stroke="none" fill="white" font-size="16" x="18" y="439">
0.0
</text>
<path stroke="white" stroke-dasharray="1,2" d="M50 340l924 0"/>
<text stroke="none" fill="white" font-size="16" x="18" y="348">
1.0
</text>
<path stroke="white" stroke-dasharray="1,2" d="M50 249l924 0"/>
<text stroke="none" fill="white" font-size="16" x="18" y="257">
2.0
</text>
<path stroke="white" stroke-dasharray="1,2" d="M50 158l924 0"/>
<text stroke="none" fill="white" font-size="16" x="18" y="166">
3.0
</text>
<path stroke="white" stroke-dasharray="1,2" d="M50 67l924 0"/>
<text stroke="none" fill="white" font-size="16" x="18" y="75">
4.0
</text>
<text stroke="none" fill="white" font-size="16" x="10" y="32">
     
</text>
<path stroke="red" d="M462 23l46 0"/>
<text stroke="none" fill="white" font-size="16" x="518" y="32">
x1.vsampled_p
</text>
<path stroke="red" d="M50 431l1 0 1 -7 0 -15 1 -14 0 -5 1 2M54 415l0 -39 1 -5 0 -15 1 -2 0 -2 1 -2 2 0 1 -1 4 0M64 350l0 -1M64 350l4 0 1 -1 48 0M117 351l0 -2M117 351l1 3M118 357l0 -3M118 357l1 2M119 361l0 -2M119 361l1 0 1 1 425 0 0 -29 1 -1 0 -23"/>
<path stroke="red" d="M547 309l1 -5 1 -2 1 -1 4 0 0 -1 12 0 1 1M567 302l0 -1 7 0M574 330l0 -29M574 330l1 8M575 343l0 -5M575 343l1 0 0 -1 4 0 0 -1 13 0M593 342l0 -1 7 0M600 342l0 -1M600 342l6 0 0 -1 13 0M619 342l0 -1M619 342l1 0 0 -1M620 342l1 -1"/>
<path stroke="red" d="M621 342l0 -1M621 342l4 0 0 -1 21 0M646 342l0 -1 7 0M653 342l0 -1 19 0M672 342l0 -1 1 0M673 342l0 -1M673 342l1 0 0 -1 5 0M679 348l0 -7M679 348l1 1 0 -2 6 0 0 -1M686 347l12 0 0 -1M698 347l1 0 0 -1M699 347l7 0M706 350l0 -3"/>
<path stroke="red" d="M706 350l1 0 0 -1 106 0M813 350l0 -1 17 0 1 1 0 -1 87 0M918 360l0 -16M918 360l1 1M919 364l0 -3M919 363l1 -1 54 0"/>
<path stroke="blue" d="M50 23l46 0"/>
<text stroke="none" fill="white" font-size="16" x="106" y="32">
x1.vsampled_n
</text>
<path stroke="blue" d="M50 431l1 0 1 -7 0 -15 1 -15 0 -4 1 1M54 415l0 -39 1 -5 0 -15 1 -2 0 -2 1 -2 2 0 1 -1 4 0M64 350l0 -1M64 350l4 0 1 -1 48 0 1 -4 0 -4 1 -2 0 -1 1 -1 419 0 0 -1M539 337l15 0 0 -1M554 337l26 0 0 -1M580 337l20 0M600 353l0 -17"/>
<path stroke="blue" d="M600 353l1 3M601 360l0 -4M601 359l2 -2 22 0 0 -9 1 -1 0 -7 1 -1 19 0M646 340l0 -1 7 0M653 348l0 -9M653 348l1 2M654 351l0 -1 5 0 0 -1 13 0M672 350l0 -1 1 0M673 350l0 -1M673 350l13 0 0 -1 12 0 1 1 0 -1M699 350l13 0 0 -1 13 0"/>
<path stroke="blue" d="M725 350l0 -1M725 350l7 0 0 -4M732 347l19 0M751 348l0 -1 8 0M759 350l0 -3M759 349l6 0 0 -1 13 0M778 349l0 -1M778 349l8 0M786 350l0 -1 18 0M804 350l0 -1 27 0M831 350l0 -1 26 0M857 350l0 -1 26 0M883 350l0 -1 27 0M910 350l0 -1"/>
<path stroke="blue" d="M910 349l8 0M918 351l0 -5 1 -2 0 -7 1 0 0 -1 1 1 2 0 0 -1M923 337l27 0 0 -1M950 337l12 0 0 -1 2 0 1 1 9 0"/>
<path stroke="#FFA500" d="M462 39l46 0"/>
<text stroke="none" fill="white" font-size="16" x="518" y="48">
x1.vsampled_p-x1.vsampled_n
</text>
<path stroke="#FFA500" d="M50 431l67 0M117 433l0 -2M117 433l1 8M118 447l0 -6M118 447l1 4M119 454l0 -3M119 454l1 1M120 456l0 -1M120 456l426 0 0 -28 1 -2 0 -23 1 -4 1 -2 0 -1 1 -1 4 0 0 -1M554 395l13 0M567 396l0 -1 7 0M574 424l0 -29M574 424l1 9"/>
<path stroke="#FFA500" d="M575 438l0 -5M575 438l1 0 0 -1 1 -1 23 0 0 -16 1 -3 0 -5M601 413l1 1M602 415l0 -1M602 415l17 0M619 416l0 -1 6 0M625 424l0 -9M625 424l1 2M626 433l0 -7M626 433l27 0 0 -9 1 -2 1 1 24 0M679 430l0 -7M679 430l1 1 0 -3 26 0"/>
<path stroke="#FFA500" d="M706 432l0 -4M706 432l1 -1 25 0M732 434l0 -3M732 433l27 0 0 -2 1 0M760 432l0 -1M760 432l25 0 0 -1 1 0 0 -1M786 431l27 0M813 432l0 -1 105 0M918 444l0 -19M918 444l1 4M919 457l0 -9M919 457l1 0 1 -1 53 0"/>
<path stroke="green" d="M50 39l46 0"/>
<text stroke="none" fill="white" font-size="16" x="106" y="48">
x1.sw_sample-2
</text>
<path stroke="green" d="M50 613l1 0 1 -9 0 -21 1 -21M53 581l0 -25M53 581l1 29M54 613l0 -3M54 613l63 0M117 620l0 -172M117 449l422 0M539 614l0 -171M539 613l422 0M961 618l0 -170 1 1 12 0"/>
<path stroke="#FFC0C5" d="M462 55l46 0"/>
<text stroke="none" fill="white" font-size="16" x="518" y="64">
x1.comp_out_p+2
</text>
<path stroke="#FFC0C5" d="M50 249l1 0 1 -9 0 -22 1 -18 0 -4M53 198l1 5M54 249l0 -46M54 249l514 0M568 250l0 -167M568 85l13 0 0 -7 1 139M582 249l0 -32M582 249l39 0M621 252l0 -168M621 85l13 0M634 249l0 -172M634 249l39 0M673 250l0 -63 1 -89 0 -14"/>
<path stroke="#FFC0C5" d="M674 85l13 0M687 249l0 -172M687 249l13 0 0 -165M700 85l13 0 0 -9 1 137M714 250l0 -37M714 249l14 0 0 -165M728 85l12 0M740 250l0 -173M740 249l67 0 0 -156 1 -9M808 85l0 -1M808 85l11 0M819 249l0 -169M819 249l41 0 0 -164"/>
<path stroke="#FFC0C5" d="M860 85l1 -1M861 85l0 -1M861 85l11 0M872 249l0 -174M872 249l14 0 1 -157 0 -8M887 85l11 0M898 249l0 -174M898 249l15 0 0 -165M913 85l12 0M925 249l0 -172M925 249l49 0"/>
<path stroke="#A52A2A" d="M50 55l46 0"/>
<text stroke="none" fill="white" font-size="16" x="106" y="64">
x1.comp_out_n-2
</text>
<path stroke="#A52A2A" d="M50 613l1 0 1 -9 0 -22 1 -19M53 564l0 -3M53 564l1 6M54 613l0 -43M54 613l488 0M542 617l0 -170M542 449l13 0M555 614l0 -166M555 613l39 0 0 -166M594 449l14 0M608 613l0 -173M608 613l39 0M647 616l0 -169M647 449l14 0M661 613l0 -174"/>
<path stroke="#A52A2A" d="M661 613l12 0 1 1 0 -1 79 0 0 -165M753 449l13 0M766 613l0 -172M766 613l14 0 0 -165M780 449l13 0M793 613l0 -166M793 613l41 0 0 -165M834 449l11 0M845 450l0 -3M845 450l1 152M846 613l0 -11M846 613l91 0 1 -72 0 -94M938 449l13 0"/>
<path stroke="#A52A2A" d="M951 614l0 -171M951 613l23 0"/>
</svg>
