<?xml version="1.0" standalone="yes"?>
<!DOCTYPE svg PUBLIC "-//W3C//DTD SVG 1.1//EN"
 "http://www.w3.org/Graphics/SVG/1.1/DTD/svg11.dtd">
<svg xmlns="http://www.w3.org/2000/svg" version="1.1"
  width="100%" height="100%" viewBox="0 0 1024 768"
  style="fill: none; font-family: Helvetica;
 font: Helvetica;
">

<!-- Creator: NGspice -->

<rect x="0" y="0" width="1024" height="768" fill="black" stroke="none"/>
<text stroke="none" fill="white" font-size="16" x="358" y="752">
time
</text>
<text stroke="none" fill="white" font-size="16" x="10" y="16">
tran1: run865_vin-0.139308
</text>
<path stroke="white" d="M50 704l0 -637"/>
<text stroke="none" fill="white" font-size="16" x="35" y="728">
0.0
</text>
<path stroke="white" stroke-dasharray="1,2" d="M182 704l0 -637"/>
<text stroke="none" fill="white" font-size="16" x="157" y="728">
100.0
</text>
<path stroke="white" stroke-dasharray="1,2" d="M314 704l0 -637"/>
<text stroke="none" fill="white" font-size="16" x="289" y="728">
200.0
</text>
<path stroke="white" stroke-dasharray="1,2" d="M446 704l0 -637"/>
<text stroke="none" fill="white" font-size="16" x="421" y="728">
300.0
</text>
<path stroke="white" stroke-dasharray="1,2" d="M578 704l0 -637"/>
<text stroke="none" fill="white" font-size="16" x="553" y="728">
400.0
</text>
<path stroke="white" stroke-dasharray="1,2" d="M710 704l0 -637"/>
<text stroke="none" fill="white" font-size="16" x="685" y="728">
500.0
</text>
<path stroke="white" stroke-dasharray="1,2" d="M842 704l0 -637"/>
<text stroke="none" fill="white" font-size="16" x="817" y="728">
600.0
</text>
<path stroke="white" stroke-dasharray="1,2" d="M974 704l0 -637"/>
<text stroke="none" fill="white" font-size="16" x="949" y="728">
700.0
</text>
<text stroke="none" fill="white" font-size="16" x="614" y="752">
ns
</text>
<path stroke="white" stroke-dasharray="1,2" d="M50 704l924 0"/>
<text stroke="none" fill="white" font-size="16" x="8" y="712">
-3.0
</text>
<path stroke="white" stroke-dasharray="1,2" d="M50 613l924 0"/>
<text stroke="none" fill="white" font-size="16" x="8" y="621">
-2.0
</text>
<path stroke="white" stroke-dasharray="1,2" d="M50 522l924 0"/>
<text stroke="none" fill="white" font-size="16" x="8" y="530">
-1.0
</text>
<path stroke="white" d="M50 431l924 0"/>
<text stroke="none" fill="white" font-size="16" x="18" y="439">
0.0
</text>
<path stroke="white" stroke-dasharray="1,2" d="M50 340l924 0"/>
<text stroke="none" fill="white" font-size="16" x="18" y="348">
1.0
</text>
<path stroke="white" stroke-dasharray="1,2" d="M50 249l924 0"/>
<text stroke="none" fill="white" font-size="16" x="18" y="257">
2.0
</text>
<path stroke="white" stroke-dasharray="1,2" d="M50 158l924 0"/>
<text stroke="none" fill="white" font-size="16" x="18" y="166">
3.0
</text>
<path stroke="white" stroke-dasharray="1,2" d="M50 67l924 0"/>
<text stroke="none" fill="white" font-size="16" x="18" y="75">
4.0
</text>
<text stroke="none" fill="white" font-size="16" x="10" y="32">
     
</text>
<path stroke="red" d="M462 23l46 0"/>
<text stroke="none" fill="white" font-size="16" x="518" y="32">
x1.vsampled_p
</text>
<path stroke="red" d="M50 431l1 0 1 -7 0 -15 1 -14 0 -5 1 2M54 415l0 -39 1 -5 0 -15 1 -2 0 -2 1 -2 2 0 1 -1 4 0M64 350l0 -1M64 350l4 0 1 -1 48 0M117 351l0 -2M117 351l1 4M118 358l0 -3M118 358l1 1M119 361l0 -2M119 361l1 0M120 362l0 -1M120 362l426 0"/>
<path stroke="red" d="M546 362l0 -23 1 -2 0 -21 1 -7 0 -4 1 -2 0 -1 1 -1 4 0 0 -1M554 301l13 0M567 302l0 -1 7 0M574 329l0 -28M574 329l1 8M575 343l0 -6M575 343l1 1 0 -1 1 -1 3 0 0 -1 13 0M593 342l0 -1M593 342l13 0 0 -1 13 0M619 342l0 -1M619 342l14 0"/>
<path stroke="red" d="M633 342l0 -1 13 0M646 342l0 -1M646 342l13 0 0 -1 13 0M672 342l0 -1M672 342l7 0M679 347l0 -5M679 347l1 2 0 -2 6 0 0 -1M686 347l20 0M706 350l0 -3M706 350l1 0 0 -1 18 0M725 350l0 -1 26 0M751 350l0 -1 27 0M778 350l0 -1 26 0"/>
<path stroke="red" d="M804 350l0 -1 27 0M831 350l0 -1 26 0M857 350l0 -1 26 0M883 350l0 -1 27 0M910 350l0 -1 8 0M918 354l0 -10M918 354l1 1M919 364l0 -9M919 364l1 0 0 -2 54 0"/>
<path stroke="blue" d="M50 23l46 0"/>
<text stroke="none" fill="white" font-size="16" x="106" y="32">
x1.vsampled_n
</text>
<path stroke="blue" d="M50 431l1 0 1 -7 0 -15 1 -15 0 -4 1 1M54 415l0 -39 1 -5 0 -15 1 -2 0 -2 1 -2 2 0 1 -1 4 0M64 350l0 -1M64 350l4 0 1 -1 48 0 1 -4 0 -4 1 -2 0 -1 1 -1 1 0 1 -1 417 0M539 337l0 -1M539 337l15 0 0 -1M554 337l26 0 0 -1M580 337l20 0"/>
<path stroke="blue" d="M600 350l0 -13M600 350l1 3M601 360l0 -7M601 359l2 -2 22 0 0 -9 1 -1 0 -7 1 -1 19 0M646 340l0 -1 7 0M653 348l0 -9M653 348l1 2M654 351l0 -1 2 0 0 -1 16 0M672 350l0 -1 26 0 1 1 0 -1 26 0M725 350l0 -1 8 0 0 -3M733 347l18 0"/>
<path stroke="blue" d="M751 348l0 -1 7 0 1 1M759 349l0 -1M759 349l1 0 1 -1 17 0M778 349l0 -1 7 0 1 1M786 350l0 -1 27 0M813 350l0 -1 17 0 1 1 0 -1 87 0M918 351l0 -3M918 349l1 0 0 -11 1 -1 0 -1 1 0M921 337l0 -1M921 337l2 0 0 -1M923 337l27 0 0 -1"/>
<path stroke="blue" d="M950 337l12 0 0 -1 12 0"/>
<path stroke="#FFA500" d="M462 39l46 0"/>
<text stroke="none" fill="white" font-size="16" x="518" y="48">
x1.vsampled_p-x1.vsampled_n
</text>
<path stroke="#FFA500" d="M50 431l67 0M117 433l0 -2M117 433l1 8M118 447l0 -6M118 447l1 4M119 454l0 -3M119 454l1 1M120 456l0 -1M120 456l426 0 0 -22 1 -2 0 -22 1 -6 0 -5 1 -2 0 -1 1 -1 17 0M567 396l0 -1 7 0M574 423l0 -28M574 423l1 8M575 438l0 -7"/>
<path stroke="#FFA500" d="M575 438l1 0 0 -1 1 0 0 -1 23 0 0 -14 1 -3 0 -6 1 1M602 415l0 -1M602 415l2 0 1 1 1 0 0 -1 13 0M619 416l0 -1 1 0M620 416l0 -1M620 416l5 0M625 424l0 -8M625 424l1 1M626 433l0 -8M626 433l1 0M627 434l0 -1M627 434l1 0 0 -1"/>
<path stroke="#FFA500" d="M628 433l18 0M646 434l0 -1 7 0 0 -8 1 -2 0 -1 1 1 24 0M679 429l0 -6M679 429l1 1M680 431l0 -2 1 -1 25 0M706 432l0 -4M706 432l1 0 0 -1 26 0M733 434l0 -3M733 433l26 0 0 -2M759 432l27 0 0 -1 27 0 0 -1M813 431l105 0M918 436l0 -10"/>
<path stroke="#FFA500" d="M918 436l1 1M919 457l0 -20M919 457l2 0 0 -1 2 0M923 457l0 -1 27 0M950 457l0 -1 24 0"/>
<path stroke="green" d="M50 39l46 0"/>
<text stroke="none" fill="white" font-size="16" x="106" y="48">
x1.sw_sample-2
</text>
<path stroke="green" d="M50 613l1 0 1 -9 0 -21 1 -21M53 581l0 -25M53 581l1 29M54 613l0 -3M54 613l63 0M117 620l0 -172M117 449l422 0M539 614l0 -171M539 613l422 0M961 618l0 -170 1 1 12 0"/>
<path stroke="#FFC0C5" d="M462 55l46 0"/>
<text stroke="none" fill="white" font-size="16" x="518" y="64">
x1.comp_out_p+2
</text>
<path stroke="#FFC0C5" d="M50 249l1 0 1 -9 0 -22 1 -18 0 -4M53 198l1 5M54 249l0 -46M54 249l514 0M568 250l0 -167M568 85l13 0 0 -7 1 140M582 249l0 -31M582 249l39 0M621 250l0 -166M621 85l13 0M634 249l0 -172M634 249l39 0M673 250l0 -75 1 -79 0 -12"/>
<path stroke="#FFC0C5" d="M674 85l13 0M687 249l0 -172M687 249l13 0M700 250l0 -167M700 85l13 0 0 -9 1 140M714 249l0 -33M714 249l14 0 0 -164 1 -1M729 85l0 -1M729 85l11 0M740 249l0 -173M740 249l94 0 0 -165M834 85l11 0 0 -2M845 85l1 150M846 249l0 -14"/>
<path stroke="#FFC0C5" d="M846 249l128 0"/>
<path stroke="#A52A2A" d="M50 55l46 0"/>
<text stroke="none" fill="white" font-size="16" x="106" y="64">
x1.comp_out_n-2
</text>
<path stroke="#A52A2A" d="M50 613l1 0 1 -9 0 -22 1 -19M53 564l0 -3M53 564l1 6M54 613l0 -43M54 613l487 0 1 1 0 -167M542 449l13 0M555 614l0 -166M555 613l39 0M594 614l0 -167M594 448l1 1 13 0M608 613l0 -173M608 613l39 0M647 614l0 -166M647 449l14 0"/>
<path stroke="#A52A2A" d="M661 613l0 -174M661 613l92 0 0 -165M753 449l13 0M766 613l0 -173M766 613l14 0M780 614l0 -166M780 449l13 0M793 613l0 -174M793 613l14 0 0 -150 1 -14 0 -1M808 449l11 0M819 613l0 -169M819 613l41 0 0 -165 1 1 11 0M872 613l0 -174"/>
<path stroke="#A52A2A" d="M872 613l14 0 1 -150 0 -15M887 449l11 0M898 613l0 -174M898 613l15 0 0 -165M913 449l12 0M925 613l0 -171M925 613l12 0M937 615l0 -2M937 615l1 -118 0 -50M938 449l13 0M951 614l0 -171M951 613l23 0"/>
</svg>
