<?xml version="1.0" standalone="yes"?>
<!DOCTYPE svg PUBLIC "-//W3C//DTD SVG 1.1//EN"
 "http://www.w3.org/Graphics/SVG/1.1/DTD/svg11.dtd">
<svg xmlns="http://www.w3.org/2000/svg" version="1.1"
  width="100%" height="100%" viewBox="0 0 1024 768"
  style="fill: none; font-family: Helvetica;
 font: Helvetica;
">

<!-- Creator: NGspice -->

<rect x="0" y="0" width="1024" height="768" fill="black" stroke="none"/>
<text stroke="none" fill="white" font-size="16" x="358" y="752">
time
</text>
<text stroke="none" fill="white" font-size="16" x="10" y="16">
tran1: run1570_vin0.48032
</text>
<path stroke="white" d="M50 704l0 -637"/>
<text stroke="none" fill="white" font-size="16" x="35" y="728">
0.0
</text>
<path stroke="white" stroke-dasharray="1,2" d="M182 704l0 -637"/>
<text stroke="none" fill="white" font-size="16" x="157" y="728">
100.0
</text>
<path stroke="white" stroke-dasharray="1,2" d="M314 704l0 -637"/>
<text stroke="none" fill="white" font-size="16" x="289" y="728">
200.0
</text>
<path stroke="white" stroke-dasharray="1,2" d="M446 704l0 -637"/>
<text stroke="none" fill="white" font-size="16" x="421" y="728">
300.0
</text>
<path stroke="white" stroke-dasharray="1,2" d="M578 704l0 -637"/>
<text stroke="none" fill="white" font-size="16" x="553" y="728">
400.0
</text>
<path stroke="white" stroke-dasharray="1,2" d="M710 704l0 -637"/>
<text stroke="none" fill="white" font-size="16" x="685" y="728">
500.0
</text>
<path stroke="white" stroke-dasharray="1,2" d="M842 704l0 -637"/>
<text stroke="none" fill="white" font-size="16" x="817" y="728">
600.0
</text>
<path stroke="white" stroke-dasharray="1,2" d="M974 704l0 -637"/>
<text stroke="none" fill="white" font-size="16" x="949" y="728">
700.0
</text>
<text stroke="none" fill="white" font-size="16" x="614" y="752">
ns
</text>
<path stroke="white" stroke-dasharray="1,2" d="M50 704l924 0"/>
<text stroke="none" fill="white" font-size="16" x="8" y="712">
-3.0
</text>
<path stroke="white" stroke-dasharray="1,2" d="M50 613l924 0"/>
<text stroke="none" fill="white" font-size="16" x="8" y="621">
-2.0
</text>
<path stroke="white" stroke-dasharray="1,2" d="M50 522l924 0"/>
<text stroke="none" fill="white" font-size="16" x="8" y="530">
-1.0
</text>
<path stroke="white" d="M50 431l924 0"/>
<text stroke="none" fill="white" font-size="16" x="18" y="439">
0.0
</text>
<path stroke="white" stroke-dasharray="1,2" d="M50 340l924 0"/>
<text stroke="none" fill="white" font-size="16" x="18" y="348">
1.0
</text>
<path stroke="white" stroke-dasharray="1,2" d="M50 249l924 0"/>
<text stroke="none" fill="white" font-size="16" x="18" y="257">
2.0
</text>
<path stroke="white" stroke-dasharray="1,2" d="M50 158l924 0"/>
<text stroke="none" fill="white" font-size="16" x="18" y="166">
3.0
</text>
<path stroke="white" stroke-dasharray="1,2" d="M50 67l924 0"/>
<text stroke="none" fill="white" font-size="16" x="18" y="75">
4.0
</text>
<text stroke="none" fill="white" font-size="16" x="10" y="32">
     
</text>
<path stroke="red" d="M462 23l46 0"/>
<text stroke="none" fill="white" font-size="16" x="518" y="32">
x1.vsampled_p
</text>
<path stroke="red" d="M50 431l1 0 1 -7 0 -15 1 -15 0 -4 1 1M54 414l0 -39 1 -4 0 -14 1 -3 0 -2 2 -2 1 0 1 -1 4 0M64 350l0 -1M64 350l4 0 1 -1 48 0 0 -1 1 -9 0 -20 1 -4 0 -6 1 -2 1 -1 1 0 1 -1 416 0M539 306l0 -1M539 306l1 0M540 307l0 -1 14 0 0 -1"/>
<path stroke="red" d="M554 306l13 0M567 307l0 -1 7 0M574 330l0 -24M574 330l1 7M575 345l0 -8M575 345l1 1M576 347l0 -1M576 347l4 0 0 -1 13 0M593 347l0 -1M593 347l13 0 0 -1 13 0M619 347l0 -1M619 347l1 0 0 -1M620 347l13 0 0 -1 13 0M646 347l0 -1M646 347l13 0"/>
<path stroke="red" d="M659 347l0 -1 13 0M672 347l0 -1 1 1 13 0 0 -1 12 0 1 1 0 -1M699 347l7 0M706 350l0 -4M706 350l1 -1 106 0M813 350l0 -1 17 0 1 1 0 -1 87 0M918 350l0 -18 1 -2 0 -12 1 -4 0 -3 1 -2 0 -2 1 0 0 -1 1 0 0 -1M923 306l13 0M936 307l0 -1"/>
<path stroke="red" d="M936 306l14 0 0 -1M950 306l11 0 0 -1 13 0"/>
<path stroke="blue" d="M50 23l46 0"/>
<text stroke="none" fill="white" font-size="16" x="106" y="32">
x1.vsampled_n
</text>
<path stroke="blue" d="M50 431l1 0 1 -7 0 -15 1 -14 0 -5 1 2M54 415l0 -40 1 -4 0 -14 1 -3 0 -2 2 -2 1 0 1 -1 4 0M64 350l0 -1M64 350l4 0 1 -1 48 0M117 358l0 -9M117 358l1 12M118 384l0 -14M118 384l1 3M119 390l0 -3M119 390l3 3 424 0 0 -29 1 -6 0 -19"/>
<path stroke="blue" d="M547 339l1 -1 0 -4 2 -2 4 0 0 -1M554 332l13 0M567 333l0 -1 13 0 0 -1M580 332l20 0M600 350l0 -18M600 350l1 3M601 358l0 -5M601 356l1 -2 0 -1 1 -1 22 0 1 -1 0 -18 1 0 1 1 18 0M646 335l0 -1 7 0M653 344l0 -10M653 344l1 2M654 347l0 -1"/>
<path stroke="blue" d="M654 346l1 -1 1 0 0 -1 16 0M672 345l0 -1 7 0M679 348l0 -4M679 348l1 2M680 353l0 -3 6 0 0 -1 12 0 1 1 0 -1M699 350l13 0 0 -1 13 0M725 350l0 -1M725 350l7 0 0 -1 1 -2 0 -1M733 347l18 0M751 348l0 -1 8 0M759 350l0 -3M759 349l6 0"/>
<path stroke="blue" d="M765 349l0 -1M765 349l13 0 0 -1M778 349l8 0M786 350l0 -1 18 0M804 350l0 -1 27 0M831 350l0 -1 26 0M857 350l0 -1 26 0M883 350l0 -1 27 0M910 350l0 -1 8 0M918 374l0 -25M918 374l1 3M919 393l0 -16M919 393l1 2 1 -1 0 -1 53 0"/>
<path stroke="#FFA500" d="M462 39l46 0"/>
<text stroke="none" fill="white" font-size="16" x="518" y="48">
x1.vsampled_p-x1.vsampled_n
</text>
<path stroke="#FFA500" d="M50 431l2 0 1 -1 1 0M54 431l0 -1M54 431l63 0 0 -10 1 -22 0 -33 1 -7 0 -9 1 -3 1 -2 0 -1 425 0M546 373l0 -29M546 373l1 5M547 397l0 -19M547 397l1 2M548 403l0 -4M548 403l2 2 17 0M567 406l0 -2M567 405l7 0M574 430l0 -25M574 430l1 6"/>
<path stroke="#FFA500" d="M575 445l0 -9M575 445l1 0M576 446l0 -1M576 446l17 0 0 -1M593 446l7 0 0 -18 1 -4 0 -5M601 422l1 2M602 425l0 -1M602 425l18 0M620 426l0 -1 5 0 1 1M626 444l0 -18M626 444l2 0 1 -1 4 0M633 444l0 -1 20 0 0 -9 1 -2 0 -1M654 432l1 0"/>
<path stroke="#FFA500" d="M655 433l0 -1M655 433l24 0 0 -3 1 -2 0 -3M680 427l1 1 25 0M706 431l0 -3M706 431l19 0 0 -1M725 431l7 0 1 2M733 434l0 -1 26 0 0 -3M759 431l6 0M765 432l0 -1M765 432l1 0 0 -1 12 0M778 432l0 -1 8 0 0 -1M786 431l27 0M813 432l0 -1"/>
<path stroke="#FFA500" d="M813 431l105 0M918 432l0 -43 1 -5 0 -29 1 -5 0 -3 1 -1 0 -1 1 0 0 -1 1 0 0 -1M923 344l13 0M936 345l0 -1 14 0 0 -1M950 344l24 0"/>
<path stroke="green" d="M50 39l46 0"/>
<text stroke="none" fill="white" font-size="16" x="106" y="48">
x1.sw_sample-2
</text>
<path stroke="green" d="M50 613l1 0 1 -9 0 -21 1 -21M53 580l0 -24M53 580l1 30M54 613l0 -3M54 613l63 0M117 620l0 -172M117 449l422 0M539 614l0 -171M539 613l422 0M961 618l0 -170 1 1 12 0"/>
<path stroke="#FFC0C5" d="M462 55l46 0"/>
<text stroke="none" fill="white" font-size="16" x="518" y="64">
x1.comp_out_p+2
</text>
<path stroke="#FFC0C5" d="M50 249l1 0 1 -9 0 -22 1 -18 0 -4M53 198l1 5M54 249l0 -46M54 249l488 0 0 -165M542 85l13 0M555 250l0 -171M555 249l13 0M568 250l0 -166M568 85l13 0 0 -9 1 160M582 249l0 -13M582 249l39 0M621 252l0 -169M621 85l13 0M634 250l0 -173"/>
<path stroke="#FFC0C5" d="M634 249l66 0M700 253l0 -170M700 85l13 0 0 -9 1 133M714 250l0 -41M714 249l14 0 0 -165M728 85l12 0M740 249l0 -172M740 249l67 0 0 -164 1 -1M808 85l0 -1M808 85l11 0M819 249l0 -167M819 249l41 0 0 -165 1 1 11 0M872 249l0 -174"/>
<path stroke="#FFC0C5" d="M872 249l14 0 0 -157 1 -8M887 85l0 -1M887 85l11 0M898 249l0 -174M898 249l15 0 0 -165M913 85l12 0M925 249l0 -172M925 249l12 0M937 253l0 -4M937 253l1 -138 0 -32M938 85l13 0M951 249l0 -171M951 249l23 0"/>
<path stroke="#A52A2A" d="M50 55l46 0"/>
<text stroke="none" fill="white" font-size="16" x="106" y="64">
x1.comp_out_n-2
</text>
<path stroke="#A52A2A" d="M50 613l1 0 1 -9 0 -22 1 -19M53 564l0 -3M53 564l1 6M54 614l0 -44M54 612l1 1 513 0M568 614l0 -1 26 0 0 -165M594 449l14 0M608 613l0 -172M608 613l39 0 0 -165M647 449l14 0M661 613l0 -173M661 613l12 0 1 1 0 -167M674 449l13 0"/>
<path stroke="#A52A2A" d="M687 613l0 -173M687 613l66 0 0 -165M753 449l13 0M766 613l0 -172M766 613l14 0 0 -165 1 1 12 0M793 613l0 -167M793 613l41 0 0 -164 11 0 0 -2 1 155M846 613l0 -11M846 613l128 0"/>
</svg>
