<?xml version="1.0" standalone="yes"?>
<!DOCTYPE svg PUBLIC "-//W3C//DTD SVG 1.1//EN"
 "http://www.w3.org/Graphics/SVG/1.1/DTD/svg11.dtd">
<svg xmlns="http://www.w3.org/2000/svg" version="1.1"
  width="100%" height="100%" viewBox="0 0 1024 768"
  style="fill: none; font-family: Helvetica;
 font: Helvetica;
">

<!-- Creator: NGspice -->

<rect x="0" y="0" width="1024" height="768" fill="black" stroke="none"/>
<text stroke="none" fill="white" font-size="16" x="358" y="752">
time
</text>
<text stroke="none" fill="white" font-size="16" x="10" y="16">
tran1: run773_vin-0.220167
</text>
<path stroke="white" d="M50 704l0 -637"/>
<text stroke="none" fill="white" font-size="16" x="35" y="728">
0.0
</text>
<path stroke="white" stroke-dasharray="1,2" d="M182 704l0 -637"/>
<text stroke="none" fill="white" font-size="16" x="157" y="728">
100.0
</text>
<path stroke="white" stroke-dasharray="1,2" d="M314 704l0 -637"/>
<text stroke="none" fill="white" font-size="16" x="289" y="728">
200.0
</text>
<path stroke="white" stroke-dasharray="1,2" d="M446 704l0 -637"/>
<text stroke="none" fill="white" font-size="16" x="421" y="728">
300.0
</text>
<path stroke="white" stroke-dasharray="1,2" d="M578 704l0 -637"/>
<text stroke="none" fill="white" font-size="16" x="553" y="728">
400.0
</text>
<path stroke="white" stroke-dasharray="1,2" d="M710 704l0 -637"/>
<text stroke="none" fill="white" font-size="16" x="685" y="728">
500.0
</text>
<path stroke="white" stroke-dasharray="1,2" d="M842 704l0 -637"/>
<text stroke="none" fill="white" font-size="16" x="817" y="728">
600.0
</text>
<path stroke="white" stroke-dasharray="1,2" d="M974 704l0 -637"/>
<text stroke="none" fill="white" font-size="16" x="949" y="728">
700.0
</text>
<text stroke="none" fill="white" font-size="16" x="614" y="752">
ns
</text>
<path stroke="white" stroke-dasharray="1,2" d="M50 704l924 0"/>
<text stroke="none" fill="white" font-size="16" x="8" y="712">
-3.0
</text>
<path stroke="white" stroke-dasharray="1,2" d="M50 613l924 0"/>
<text stroke="none" fill="white" font-size="16" x="8" y="621">
-2.0
</text>
<path stroke="white" stroke-dasharray="1,2" d="M50 522l924 0"/>
<text stroke="none" fill="white" font-size="16" x="8" y="530">
-1.0
</text>
<path stroke="white" d="M50 431l924 0"/>
<text stroke="none" fill="white" font-size="16" x="18" y="439">
0.0
</text>
<path stroke="white" stroke-dasharray="1,2" d="M50 340l924 0"/>
<text stroke="none" fill="white" font-size="16" x="18" y="348">
1.0
</text>
<path stroke="white" stroke-dasharray="1,2" d="M50 249l924 0"/>
<text stroke="none" fill="white" font-size="16" x="18" y="257">
2.0
</text>
<path stroke="white" stroke-dasharray="1,2" d="M50 158l924 0"/>
<text stroke="none" fill="white" font-size="16" x="18" y="166">
3.0
</text>
<path stroke="white" stroke-dasharray="1,2" d="M50 67l924 0"/>
<text stroke="none" fill="white" font-size="16" x="18" y="75">
4.0
</text>
<text stroke="none" fill="white" font-size="16" x="10" y="32">
     
</text>
<path stroke="red" d="M462 23l46 0"/>
<text stroke="none" fill="white" font-size="16" x="518" y="32">
x1.vsampled_p
</text>
<path stroke="red" d="M50 431l1 0 1 -7 0 -15 1 -14 0 -5 1 2M54 415l0 -39 1 -5 0 -14 1 -3 0 -2 1 -2 2 0 1 -1 4 0M64 350l0 -1M64 350l4 0 1 -1 48 0M117 352l0 -3M117 352l1 6M118 365l0 -7M118 365l1 2 1 1M120 369l0 -1M120 369l420 0M540 370l0 -1 6 0"/>
<path stroke="red" d="M546 370l0 -23 1 -3 0 -22 1 -6 0 -6 1 -1 1 0 0 -1 4 0 0 -1M554 308l13 0M567 309l0 -1 7 0M574 336l0 -28M574 336l1 4M575 351l0 -11M575 351l1 0 0 -1 1 0 0 -1 235 0 1 1 0 -1 18 0M831 350l0 -1 26 0M857 350l0 -1 26 0M883 350l0 -1"/>
<path stroke="red" d="M883 349l27 0M910 350l0 -1 8 0M918 363l0 -15M918 363l1 1M919 373l0 -9M919 372l1 -1 0 -1 1 0 0 -1 53 0"/>
<path stroke="blue" d="M50 23l46 0"/>
<text stroke="none" fill="white" font-size="16" x="106" y="32">
x1.vsampled_n
</text>
<path stroke="blue" d="M50 431l1 0 1 -7 0 -15 1 -15 0 -4 1 1M54 415l0 -39 1 -5 0 -14 1 -3 0 -2 1 -2 2 0 1 -1 4 0M64 350l0 -1M64 350l4 0 1 -1 48 0 1 -6 0 -9 1 -3 2 -2 419 0M540 330l0 -1 27 0M567 330l0 -1 26 0M593 330l0 -1 7 0M600 344l0 -15M600 344l1 3"/>
<path stroke="blue" d="M601 353l0 -6M601 352l1 -1 0 -1 24 0 0 -10 1 0 0 -8 6 0 0 -1M633 332l13 0M646 333l0 -1 7 0M653 342l0 -10M653 342l1 1 1 -1 17 0M672 343l0 -1 7 0M679 347l0 -5M679 347l1 1M680 349l0 -2 19 0M699 348l0 -1 7 0M706 351l0 -4M706 351l1 -1"/>
<path stroke="blue" d="M707 350l25 0 0 -3 2 0 1 1 3 0 0 -1 13 0M751 348l0 -1M751 348l1 0 0 -1M752 348l7 0M759 350l0 -3M759 349l27 0M786 350l0 -1M786 350l1 -1 17 0M804 350l0 -1 26 0 1 1 0 -1 87 0M918 351l0 -11 1 -1 0 -9 1 -1 16 0M936 330l0 -1"/>
<path stroke="blue" d="M936 329l38 0"/>
<path stroke="#FFA500" d="M462 39l46 0"/>
<text stroke="none" fill="white" font-size="16" x="518" y="48">
x1.vsampled_p-x1.vsampled_n
</text>
<path stroke="#FFA500" d="M50 431l67 0M117 434l0 -3M117 434l1 12M118 462l0 -16M118 462l1 5 1 2M120 470l0 -1M120 470l1 1 425 0 0 -22 1 -3 0 -22 1 -6 0 -6 2 -2 4 0 0 -1M554 410l13 0M567 411l0 -2M567 410l7 0M574 438l0 -28M574 438l1 4M575 453l0 -11"/>
<path stroke="#FFA500" d="M575 453l2 -2 16 0 0 -1M593 451l7 0 0 -16 1 -2 0 -6M601 428l1 1M602 430l0 -1M602 430l24 0M626 440l0 -10M626 440l1 0M627 447l0 -7M627 447l1 1 25 0 0 -10 1 -1 0 -1M654 437l1 0M655 438l0 -1M655 438l24 0 0 -6 1 -1M680 432l0 -1"/>
<path stroke="#FFA500" d="M680 432l1 1 25 0 0 -4 1 1 25 0M732 433l0 -3M732 433l1 0 0 -1 26 0 0 -2M759 431l27 0 0 -1 18 0M804 431l0 -1 8 0M812 431l0 -1M812 431l106 0M918 454l0 -25M918 454l1 3M919 473l0 -16M919 473l1 -1 1 0 0 -1 15 0 0 -1M936 471l38 0"/>
<path stroke="green" d="M50 39l46 0"/>
<text stroke="none" fill="white" font-size="16" x="106" y="48">
x1.sw_sample-2
</text>
<path stroke="green" d="M50 613l1 0 1 -9 0 -21 1 -21M53 581l0 -25M53 581l1 29M54 613l0 -3M54 613l63 0M117 620l0 -172M117 449l422 0M539 614l0 -171M539 613l422 0M961 618l0 -170 1 1 12 0"/>
<path stroke="#FFC0C5" d="M462 55l46 0"/>
<text stroke="none" fill="white" font-size="16" x="518" y="64">
x1.comp_out_p+2
</text>
<path stroke="#FFC0C5" d="M50 249l1 0 1 -9 0 -22 1 -18 0 -4M53 198l1 5M54 249l0 -46M54 249l514 0M568 251l0 -168M568 85l13 0 0 -8 1 156M582 249l0 -16M582 249l40 0 0 -165M622 85l12 0M634 249l0 -172M634 249l93 0 1 -144 0 -21M728 85l12 0M740 250l0 -172"/>
<path stroke="#FFC0C5" d="M740 249l67 0 0 -165M807 85l12 0M819 249l0 -173M819 249l15 0 0 -165M834 85l11 0M845 86l0 -3M845 86l1 149M846 249l0 -14M846 249l128 0"/>
<path stroke="#A52A2A" d="M50 55l46 0"/>
<text stroke="none" fill="white" font-size="16" x="106" y="64">
x1.comp_out_n-2
</text>
<path stroke="#A52A2A" d="M50 613l1 0 1 -9 0 -22 1 -19M53 564l0 -3M53 564l1 6M54 613l0 -43M54 613l488 0M542 616l0 -169M542 449l13 0M555 614l0 -168M555 613l39 0M594 614l0 -167M594 449l14 0M608 614l0 -170M608 613l39 0M647 620l0 -173M647 449l14 0"/>
<path stroke="#A52A2A" d="M661 613l0 -173M661 613l12 0 0 -65 1 -88 0 -12M674 449l13 0M687 613l0 -171M687 613l13 0 0 -165M700 449l13 0 0 -5 1 77M714 614l0 -93M714 613l39 0 0 -165M753 449l13 0M766 613l0 -173M766 613l14 0 1 -142 0 -23M781 449l12 0"/>
<path stroke="#A52A2A" d="M793 613l0 -172M793 613l67 0 0 -164 12 0M872 613l0 -174M872 613l14 0 0 -158 1 -7M887 449l0 -1M887 449l11 0M898 613l0 -168M898 613l15 0 0 -165M913 449l12 0M925 613l0 -168M925 613l12 0M937 614l0 -1M937 614l1 -97 0 -70"/>
<path stroke="#A52A2A" d="M938 449l13 0M951 614l0 -167M951 613l23 0"/>
</svg>
