<?xml version="1.0" standalone="yes"?>
<!DOCTYPE svg PUBLIC "-//W3C//DTD SVG 1.1//EN"
 "http://www.w3.org/Graphics/SVG/1.1/DTD/svg11.dtd">
<svg xmlns="http://www.w3.org/2000/svg" version="1.1"
  width="100%" height="100%" viewBox="0 0 1024 768"
  style="fill: none; font-family: Helvetica;
 font: Helvetica;
">

<!-- Creator: NGspice -->

<rect x="0" y="0" width="1024" height="768" fill="black" stroke="none"/>
<text stroke="none" fill="white" font-size="16" x="358" y="752">
time
</text>
<text stroke="none" fill="white" font-size="16" x="10" y="16">
tran1: run2001_vin0.859128
</text>
<path stroke="white" d="M50 704l0 -637"/>
<text stroke="none" fill="white" font-size="16" x="35" y="728">
0.0
</text>
<path stroke="white" stroke-dasharray="1,2" d="M182 704l0 -637"/>
<text stroke="none" fill="white" font-size="16" x="157" y="728">
100.0
</text>
<path stroke="white" stroke-dasharray="1,2" d="M314 704l0 -637"/>
<text stroke="none" fill="white" font-size="16" x="289" y="728">
200.0
</text>
<path stroke="white" stroke-dasharray="1,2" d="M446 704l0 -637"/>
<text stroke="none" fill="white" font-size="16" x="421" y="728">
300.0
</text>
<path stroke="white" stroke-dasharray="1,2" d="M578 704l0 -637"/>
<text stroke="none" fill="white" font-size="16" x="553" y="728">
400.0
</text>
<path stroke="white" stroke-dasharray="1,2" d="M710 704l0 -637"/>
<text stroke="none" fill="white" font-size="16" x="685" y="728">
500.0
</text>
<path stroke="white" stroke-dasharray="1,2" d="M842 704l0 -637"/>
<text stroke="none" fill="white" font-size="16" x="817" y="728">
600.0
</text>
<path stroke="white" stroke-dasharray="1,2" d="M974 704l0 -637"/>
<text stroke="none" fill="white" font-size="16" x="949" y="728">
700.0
</text>
<text stroke="none" fill="white" font-size="16" x="614" y="752">
ns
</text>
<path stroke="white" stroke-dasharray="1,2" d="M50 704l924 0"/>
<text stroke="none" fill="white" font-size="16" x="8" y="712">
-3.0
</text>
<path stroke="white" stroke-dasharray="1,2" d="M50 613l924 0"/>
<text stroke="none" fill="white" font-size="16" x="8" y="621">
-2.0
</text>
<path stroke="white" stroke-dasharray="1,2" d="M50 522l924 0"/>
<text stroke="none" fill="white" font-size="16" x="8" y="530">
-1.0
</text>
<path stroke="white" d="M50 431l924 0"/>
<text stroke="none" fill="white" font-size="16" x="18" y="439">
0.0
</text>
<path stroke="white" stroke-dasharray="1,2" d="M50 340l924 0"/>
<text stroke="none" fill="white" font-size="16" x="18" y="348">
1.0
</text>
<path stroke="white" stroke-dasharray="1,2" d="M50 249l924 0"/>
<text stroke="none" fill="white" font-size="16" x="18" y="257">
2.0
</text>
<path stroke="white" stroke-dasharray="1,2" d="M50 158l924 0"/>
<text stroke="none" fill="white" font-size="16" x="18" y="166">
3.0
</text>
<path stroke="white" stroke-dasharray="1,2" d="M50 67l924 0"/>
<text stroke="none" fill="white" font-size="16" x="18" y="75">
4.0
</text>
<text stroke="none" fill="white" font-size="16" x="10" y="32">
     
</text>
<path stroke="red" d="M462 23l46 0"/>
<text stroke="none" fill="white" font-size="16" x="518" y="32">
x1.vsampled_p
</text>
<path stroke="red" d="M50 431l1 0 1 -7 0 -16 1 -14 0 -5 1 2M54 414l0 -38 1 -5 0 -13 1 -3 0 -3 1 -1 0 -1 2 0 1 -1 3 0 1 1 4 0 1 -1 48 0 0 -1 1 -12 0 -37 1 -7 0 -11 1 -3 0 -5 1 -1 1 0 0 -1 418 0M540 272l0 -1 27 0M567 273l0 -2 6 0 1 4M574 298l0 -23"/>
<path stroke="red" d="M574 298l1 9 1 5 17 0M593 313l0 -1 7 0M600 329l0 -17M600 329l1 4 5 0 0 -1 13 0M619 333l0 -1M619 333l14 0 0 -1 13 0M646 333l0 -1M646 333l7 0M653 340l0 -7M653 340l1 3 25 0M679 347l0 -4M679 347l1 1M680 349l0 -1 26 0M706 350l0 -2"/>
<path stroke="red" d="M706 350l1 1 0 -1 18 0M725 351l0 -1 6 0 0 -2 54 0M785 349l0 -1M785 349l27 0M812 350l0 -1 106 0 0 -27 1 -2 0 -38 1 -2 0 -4 1 -2 0 -2 2 0 0 -1 13 0M936 273l0 -2 38 0"/>
<path stroke="blue" d="M50 23l46 0"/>
<text stroke="none" fill="white" font-size="16" x="106" y="32">
x1.vsampled_n
</text>
<path stroke="blue" d="M50 431l1 0 1 -7 0 -15 1 -14 0 -4 1 1M54 414l0 -38 1 -5 0 -13 1 -3 0 -3 1 -1 0 -1 2 0 1 -1 3 0 1 1 3 0 0 -1 50 0M117 374l0 -25M117 374l1 17M118 414l0 -23M118 414l1 3M119 422l0 -5M119 422l1 2M120 426l0 -2M120 426l1 1 419 0"/>
<path stroke="blue" d="M540 428l0 -1 6 0 0 -20 1 -2 0 -28 1 -6 1 -3 0 -1 1 -1 75 0 0 -12 1 -2 0 -5 1 0 1 1 18 0M646 349l0 -1 26 0M672 349l0 -1 27 0M699 349l0 -1 26 0M725 349l0 -1 26 0M751 349l0 -1 9 0 1 1M761 351l0 -2M761 350l2 0 0 -1 15 0M778 350l0 -1"/>
<path stroke="blue" d="M778 349l26 0M804 350l0 -1 26 0 1 1 0 -1 26 0M857 350l0 -1 26 0M883 350l0 -1 27 0M910 350l0 -1 8 0M918 378l0 -29M918 378l1 14M919 448l0 -56M919 437l1 -2 0 -3 1 -2 0 -2 2 0 0 -1 13 0M936 428l0 -1 38 0"/>
<path stroke="#FFA500" d="M462 39l46 0"/>
<text stroke="none" fill="white" font-size="16" x="518" y="48">
x1.vsampled_p-x1.vsampled_n
</text>
<path stroke="#FFA500" d="M50 431l2 0 0 -1 2 0M54 431l0 -1M54 431l63 0 0 -26 1 -30 0 -59 1 -10 0 -16 1 -5 0 -7 2 -2 0 -1 418 0M540 276l0 -1 6 0M546 295l0 -20M546 295l1 2M547 325l0 -28M547 325l1 6 1 3M549 336l0 -2M549 336l18 0M567 337l0 -1 6 0"/>
<path stroke="#FFA500" d="M573 336l1 4M574 363l0 -23M574 363l1 9 1 5 17 0M593 378l0 -1 7 0M600 394l0 -17M600 394l1 4 1 0 0 -1 1 0 1 1 2 0 0 -1 13 0M619 398l0 -1 1 0M620 398l0 -1M620 398l5 0M625 409l0 -11M625 409l1 2M626 417l0 -6M626 417l1 -1"/>
<path stroke="#FFA500" d="M627 416l1 0 1 -1 4 0M633 416l0 -1 13 0M646 416l0 -1 7 0M653 423l0 -8M653 423l1 3 18 0 0 -1M672 426l7 0M679 430l0 -5M679 430l1 0M680 432l0 -2M680 431l19 0 0 -1M699 431l7 0M706 433l0 -2M706 433l1 1 0 -1 24 0 0 -2 29 0"/>
<path stroke="#FFA500" d="M760 431l1 -1 0 -2M761 430l17 0 0 -1M778 430l7 0M785 431l0 -1 27 0M812 431l0 -1M812 431l19 0 0 -1M831 431l7 0M838 432l0 -1 80 0 0 -56 1 -16 0 -83 1 0 0 -1 3 0 0 -1M923 275l13 0M936 276l0 -1 14 0 0 -1M950 275l24 0"/>
<path stroke="green" d="M50 39l46 0"/>
<text stroke="none" fill="white" font-size="16" x="106" y="48">
x1.sw_sample-2
</text>
<path stroke="green" d="M50 613l1 0 1 -9 0 -21 1 -21M53 578l0 -22M53 578l1 32M54 613l0 -3M54 613l63 0M117 620l0 -172M117 449l422 0M539 614l0 -171M539 613l422 0M961 618l0 -170 1 1 12 0"/>
<path stroke="#FFC0C5" d="M462 55l46 0"/>
<text stroke="none" fill="white" font-size="16" x="518" y="64">
x1.comp_out_p+2
</text>
<path stroke="#FFC0C5" d="M50 249l1 0 1 -9 0 -22 1 -18 0 -4M53 198l1 5M54 249l0 -46M54 249l488 0 0 -165M542 85l13 0M555 250l0 -168M555 249l13 0 0 -165M568 85l13 0 0 -8 1 157M582 249l0 -15M582 249l12 0 0 -165M594 85l14 0M608 249l0 -172M608 249l13 0"/>
<path stroke="#FFC0C5" d="M621 249l0 -165M621 85l13 0M634 249l0 -172M634 249l13 0M647 250l0 -166M647 85l14 0M661 250l0 -171M661 249l12 0M673 251l0 -2M673 251l1 -111 0 -57M674 85l13 0M687 250l0 -171M687 249l13 0 0 -138 1 -25 0 -2M701 85l12 0 0 -7"/>
<path stroke="#FFC0C5" d="M713 78l1 129M714 250l0 -43M714 249l66 0 0 -165M780 85l13 0M793 250l0 -168M793 249l14 0 0 -165M807 85l12 0M819 250l0 -174M819 249l14 0 1 -154 0 -10 11 0 0 -2M845 85l1 150M846 249l0 -14M846 249l40 0 1 -150 0 -15M887 85l11 0"/>
<path stroke="#FFC0C5" d="M898 249l0 -166M898 249l39 0 0 -51 1 -98 0 -16M938 85l13 0M951 249l0 -173M951 249l23 0"/>
<path stroke="#A52A2A" d="M50 55l46 0"/>
<text stroke="none" fill="white" font-size="16" x="106" y="64">
x1.comp_out_n-2
</text>
<path stroke="#A52A2A" d="M50 613l1 0 1 -9 0 -22 1 -19M53 564l0 -3M53 564l1 6M54 614l0 -44M54 611l1 2 672 0 0 -165M727 449l13 0M740 614l0 -171M740 613l15 0 0 -165M755 449l11 0M766 613l0 -173M766 613l94 0 1 -152 0 -13M861 449l11 0M872 613l0 -173"/>
<path stroke="#A52A2A" d="M872 613l41 0 0 -165 1 0M914 449l0 -1M914 449l11 0M925 613l0 -165M925 613l49 0"/>
</svg>
