<?xml version="1.0" standalone="yes"?>
<!DOCTYPE svg PUBLIC "-//W3C//DTD SVG 1.1//EN"
 "http://www.w3.org/Graphics/SVG/1.1/DTD/svg11.dtd">
<svg xmlns="http://www.w3.org/2000/svg" version="1.1"
  width="100%" height="100%" viewBox="0 0 1024 768"
  style="fill: none; font-family: Helvetica;
 font: Helvetica;
">

<!-- Creator: NGspice -->

<rect x="0" y="0" width="1024" height="768" fill="black" stroke="none"/>
<text stroke="none" fill="white" font-size="16" x="358" y="752">
time
</text>
<text stroke="none" fill="white" font-size="16" x="10" y="16">
tran1: run2004_vin0.861765
</text>
<path stroke="white" d="M50 704l0 -637"/>
<text stroke="none" fill="white" font-size="16" x="35" y="728">
0.0
</text>
<path stroke="white" stroke-dasharray="1,2" d="M182 704l0 -637"/>
<text stroke="none" fill="white" font-size="16" x="157" y="728">
100.0
</text>
<path stroke="white" stroke-dasharray="1,2" d="M314 704l0 -637"/>
<text stroke="none" fill="white" font-size="16" x="289" y="728">
200.0
</text>
<path stroke="white" stroke-dasharray="1,2" d="M446 704l0 -637"/>
<text stroke="none" fill="white" font-size="16" x="421" y="728">
300.0
</text>
<path stroke="white" stroke-dasharray="1,2" d="M578 704l0 -637"/>
<text stroke="none" fill="white" font-size="16" x="553" y="728">
400.0
</text>
<path stroke="white" stroke-dasharray="1,2" d="M710 704l0 -637"/>
<text stroke="none" fill="white" font-size="16" x="685" y="728">
500.0
</text>
<path stroke="white" stroke-dasharray="1,2" d="M842 704l0 -637"/>
<text stroke="none" fill="white" font-size="16" x="817" y="728">
600.0
</text>
<path stroke="white" stroke-dasharray="1,2" d="M974 704l0 -637"/>
<text stroke="none" fill="white" font-size="16" x="949" y="728">
700.0
</text>
<text stroke="none" fill="white" font-size="16" x="614" y="752">
ns
</text>
<path stroke="white" stroke-dasharray="1,2" d="M50 704l924 0"/>
<text stroke="none" fill="white" font-size="16" x="8" y="712">
-3.0
</text>
<path stroke="white" stroke-dasharray="1,2" d="M50 613l924 0"/>
<text stroke="none" fill="white" font-size="16" x="8" y="621">
-2.0
</text>
<path stroke="white" stroke-dasharray="1,2" d="M50 522l924 0"/>
<text stroke="none" fill="white" font-size="16" x="8" y="530">
-1.0
</text>
<path stroke="white" d="M50 431l924 0"/>
<text stroke="none" fill="white" font-size="16" x="18" y="439">
0.0
</text>
<path stroke="white" stroke-dasharray="1,2" d="M50 340l924 0"/>
<text stroke="none" fill="white" font-size="16" x="18" y="348">
1.0
</text>
<path stroke="white" stroke-dasharray="1,2" d="M50 249l924 0"/>
<text stroke="none" fill="white" font-size="16" x="18" y="257">
2.0
</text>
<path stroke="white" stroke-dasharray="1,2" d="M50 158l924 0"/>
<text stroke="none" fill="white" font-size="16" x="18" y="166">
3.0
</text>
<path stroke="white" stroke-dasharray="1,2" d="M50 67l924 0"/>
<text stroke="none" fill="white" font-size="16" x="18" y="75">
4.0
</text>
<text stroke="none" fill="white" font-size="16" x="10" y="32">
     
</text>
<path stroke="red" d="M462 23l46 0"/>
<text stroke="none" fill="white" font-size="16" x="518" y="32">
x1.vsampled_p
</text>
<path stroke="red" d="M50 431l1 0 1 -7 0 -16 1 -14 0 -5 1 2M54 414l0 -38 1 -5 0 -13 1 -3 0 -3 1 -1 0 -1 2 0 1 -1 3 0 1 1 4 0 1 -1 48 0 0 -1 1 -12 0 -37 1 -7 0 -11 1 -3 0 -5 2 -2 418 0M540 272l0 -1 14 0 0 -1M554 271l13 0M567 272l0 -1 7 0M574 293l0 -22"/>
<path stroke="red" d="M574 293l1 6M575 308l0 -9M575 308l1 4 4 0 0 -1M580 312l13 0M593 313l0 -1 7 0M600 325l0 -13M600 325l1 3M601 333l0 -5M601 333l1 -1 17 0M619 333l0 -1 27 0M646 333l0 -1 7 0M653 340l0 -8M653 340l1 3 5 0 0 -1 13 0M672 343l0 -1"/>
<path stroke="red" d="M672 343l7 0M679 347l0 -5M679 347l1 1M680 349l0 -1 6 0 0 -1M686 348l20 0M706 351l0 -3M706 351l1 -1 24 0 1 -1 0 -1 27 0M759 350l0 -2M759 349l159 0M918 350l0 -43 1 -3 0 -24 1 -2 0 -3 1 -2 0 -1 1 0 0 -1 1 0 0 -1M923 271l13 0"/>
<path stroke="red" d="M936 273l0 -2 14 0 0 -1M950 271l24 0"/>
<path stroke="blue" d="M50 23l46 0"/>
<text stroke="none" fill="white" font-size="16" x="106" y="32">
x1.vsampled_n
</text>
<path stroke="blue" d="M50 431l1 0 1 -7 0 -15 1 -14 0 -4 1 1M54 414l0 -38 1 -5 0 -13 1 -3 0 -3 1 -1 0 -1 2 0 1 -1 4 0 1 1 2 0 0 -1 50 0M117 374l0 -25M117 374l1 18M118 414l0 -22M118 414l1 3M119 422l0 -5M119 422l1 2M120 426l0 -2M120 426l1 1 3 0"/>
<path stroke="blue" d="M124 427l1 1 416 0 0 -1M541 428l5 0 0 -20 1 -3 0 -28 1 -6 1 -3 0 -1 1 0 1 -1 16 0M567 367l0 -1 26 0M593 367l0 -1 26 0M619 367l0 -1 6 0 0 -7 1 -4 0 -8 1 0M627 348l0 -1M627 348l19 0M646 349l0 -1 26 0M672 349l0 -1 26 0 1 1"/>
<path stroke="blue" d="M699 349l0 -1 26 0M725 349l0 -1 26 0M751 349l0 -1M751 349l1 0 0 -1 26 0M778 349l0 -1 7 0 1 1M786 350l0 -1 18 0M804 350l0 -1 9 0M813 350l0 -1 17 0 1 1 0 -1 26 0M857 350l0 -1 26 0M883 350l0 -1 27 0M910 350l0 -1 8 0M918 448l0 -99"/>
<path stroke="blue" d="M918 448l1 0 0 -12 1 -2 0 -3 1 -1 0 -2 41 0 0 -1 1 0M963 428l0 -1M963 428l11 0"/>
<path stroke="#FFA500" d="M462 39l46 0"/>
<text stroke="none" fill="white" font-size="16" x="518" y="48">
x1.vsampled_p-x1.vsampled_n
</text>
<path stroke="#FFA500" d="M50 431l2 0 0 -1 2 0M54 431l0 -1M54 431l63 0 0 -26 1 -30 0 -59 1 -10 0 -17 1 -4 0 -7 1 -2 2 -2 417 0M540 275l0 -1 1 1 0 -1 5 0M546 295l0 -21M546 295l1 2M547 325l0 -28M547 325l1 6 1 3M549 335l0 -1M549 335l1 0 1 1 3 0"/>
<path stroke="#FFA500" d="M554 336l0 -1M554 336l13 0M567 337l0 -1 7 0M574 358l0 -23M574 358l1 5M575 373l0 -10M575 373l1 3M576 377l0 -1M576 377l4 0 0 -1 13 0M593 377l0 -1M593 377l7 0M600 390l0 -14M600 390l1 3M601 398l0 -5M601 398l1 -1 23 0M625 404l0 -7"/>
<path stroke="#FFA500" d="M625 404l1 5M626 416l0 -7M626 416l1 0 0 -1 19 0 0 -1M646 415l7 0M653 423l0 -8M653 423l1 2 25 0M679 430l0 -5M679 430l1 1 0 -1 26 0M706 433l0 -3M706 433l19 0 0 -1M725 433l6 0 0 -1 1 -1 0 -1 6 0M738 431l0 -1M738 431l1 0"/>
<path stroke="#FFA500" d="M739 431l0 -1 13 0M752 431l0 -1 7 0M759 432l0 -2M759 432l19 0 0 -1M778 432l7 0 1 -1 0 -1M786 431l27 0 0 -1M813 431l25 0M838 432l0 -1 80 0M918 432l0 -141 1 -4 0 -11 1 -1 1 0 0 -1 15 0M936 276l0 -2 38 0"/>
<path stroke="green" d="M50 39l46 0"/>
<text stroke="none" fill="white" font-size="16" x="106" y="48">
x1.sw_sample-2
</text>
<path stroke="green" d="M50 613l1 0 1 -9 0 -21 1 -21M53 578l0 -22M53 578l1 32M54 613l0 -3M54 613l63 0M117 620l0 -172M117 449l422 0M539 614l0 -171M539 613l422 0M961 618l0 -170 1 1 12 0"/>
<path stroke="#FFC0C5" d="M462 55l46 0"/>
<text stroke="none" fill="white" font-size="16" x="518" y="64">
x1.comp_out_p+2
</text>
<path stroke="#FFC0C5" d="M50 249l1 0 1 -9 0 -22 1 -18 0 -4M53 198l1 5M54 249l0 -46M54 249l488 0 0 -165M542 85l13 0M555 250l0 -170M555 249l13 0M568 250l0 -166M568 85l13 0 0 -7 1 132M582 250l0 -40M582 249l12 0 0 -165M594 85l14 0M608 249l0 -172"/>
<path stroke="#FFC0C5" d="M608 249l13 0 0 -165M621 85l13 0M634 249l0 -172M634 249l13 0 0 -165M647 85l14 0M661 249l0 -172M661 249l12 0M673 251l0 -2M673 251l1 -100 0 -68M674 85l13 0M687 250l0 -173M687 249l13 0 0 -151 1 -14M701 85l0 -1M701 85l12 0"/>
<path stroke="#FFC0C5" d="M713 85l0 -8 1 162M714 250l0 -11M714 249l39 0 0 -164 1 -1M754 85l0 -1M754 85l12 0M766 249l0 -173M766 249l68 0 0 -165M834 85l11 0 0 -10 1 142M846 249l0 -32M846 249l91 0 1 -57 0 -108M938 85l13 0M951 249l0 -173M951 249l23 0"/>
<path stroke="#A52A2A" d="M50 55l46 0"/>
<text stroke="none" fill="white" font-size="16" x="106" y="64">
x1.comp_out_n-2
</text>
<path stroke="#A52A2A" d="M50 613l1 0 1 -9 0 -22 1 -19M53 564l0 -3M53 564l1 6M54 614l0 -44M54 611l1 2 672 0 0 -165M727 449l13 0M740 614l0 -169M740 613l40 0 0 -165M780 449l13 0M793 613l0 -174M793 613l14 0 0 -150 1 -14 0 -1M808 449l11 0M819 613l0 -171"/>
<path stroke="#A52A2A" d="M819 613l41 0 0 -165M860 449l12 0M872 613l0 -174M872 613l14 0 1 -150 0 -15M887 449l11 0M898 613l0 -174M898 613l15 0M913 615l0 -167M913 449l12 0M925 614l0 -173M925 613l49 0"/>
</svg>
