<?xml version="1.0" standalone="yes"?>
<!DOCTYPE svg PUBLIC "-//W3C//DTD SVG 1.1//EN"
 "http://www.w3.org/Graphics/SVG/1.1/DTD/svg11.dtd">
<svg xmlns="http://www.w3.org/2000/svg" version="1.1"
  width="100%" height="100%" viewBox="0 0 1024 768"
  style="fill: none; font-family: Helvetica;
 font: Helvetica;
">

<!-- Creator: NGspice -->

<rect x="0" y="0" width="1024" height="768" fill="black" stroke="none"/>
<text stroke="none" fill="white" font-size="16" x="358" y="752">
time
</text>
<text stroke="none" fill="white" font-size="16" x="10" y="16">
tran1: run1879_vin0.751902
</text>
<path stroke="white" d="M50 704l0 -637"/>
<text stroke="none" fill="white" font-size="16" x="35" y="728">
0.0
</text>
<path stroke="white" stroke-dasharray="1,2" d="M182 704l0 -637"/>
<text stroke="none" fill="white" font-size="16" x="157" y="728">
100.0
</text>
<path stroke="white" stroke-dasharray="1,2" d="M314 704l0 -637"/>
<text stroke="none" fill="white" font-size="16" x="289" y="728">
200.0
</text>
<path stroke="white" stroke-dasharray="1,2" d="M446 704l0 -637"/>
<text stroke="none" fill="white" font-size="16" x="421" y="728">
300.0
</text>
<path stroke="white" stroke-dasharray="1,2" d="M578 704l0 -637"/>
<text stroke="none" fill="white" font-size="16" x="553" y="728">
400.0
</text>
<path stroke="white" stroke-dasharray="1,2" d="M710 704l0 -637"/>
<text stroke="none" fill="white" font-size="16" x="685" y="728">
500.0
</text>
<path stroke="white" stroke-dasharray="1,2" d="M842 704l0 -637"/>
<text stroke="none" fill="white" font-size="16" x="817" y="728">
600.0
</text>
<path stroke="white" stroke-dasharray="1,2" d="M974 704l0 -637"/>
<text stroke="none" fill="white" font-size="16" x="949" y="728">
700.0
</text>
<text stroke="none" fill="white" font-size="16" x="614" y="752">
ns
</text>
<path stroke="white" stroke-dasharray="1,2" d="M50 704l924 0"/>
<text stroke="none" fill="white" font-size="16" x="8" y="712">
-2.5
</text>
<path stroke="white" stroke-dasharray="1,2" d="M50 655l924 0"/>
<text stroke="none" fill="white" font-size="16" x="8" y="663">
-2.0
</text>
<path stroke="white" stroke-dasharray="1,2" d="M50 606l924 0"/>
<text stroke="none" fill="white" font-size="16" x="8" y="614">
-1.5
</text>
<path stroke="white" stroke-dasharray="1,2" d="M50 557l924 0"/>
<text stroke="none" fill="white" font-size="16" x="8" y="565">
-1.0
</text>
<path stroke="white" stroke-dasharray="1,2" d="M50 508l924 0"/>
<text stroke="none" fill="white" font-size="16" x="8" y="516">
-0.5
</text>
<path stroke="white" d="M50 459l924 0"/>
<text stroke="none" fill="white" font-size="16" x="18" y="467">
0.0
</text>
<path stroke="white" stroke-dasharray="1,2" d="M50 410l924 0"/>
<text stroke="none" fill="white" font-size="16" x="18" y="418">
0.5
</text>
<path stroke="white" stroke-dasharray="1,2" d="M50 361l924 0"/>
<text stroke="none" fill="white" font-size="16" x="18" y="369">
1.0
</text>
<path stroke="white" stroke-dasharray="1,2" d="M50 312l924 0"/>
<text stroke="none" fill="white" font-size="16" x="18" y="320">
1.5
</text>
<path stroke="white" stroke-dasharray="1,2" d="M50 263l924 0"/>
<text stroke="none" fill="white" font-size="16" x="18" y="271">
2.0
</text>
<path stroke="white" stroke-dasharray="1,2" d="M50 214l924 0"/>
<text stroke="none" fill="white" font-size="16" x="18" y="222">
2.5
</text>
<path stroke="white" stroke-dasharray="1,2" d="M50 165l924 0"/>
<text stroke="none" fill="white" font-size="16" x="18" y="173">
3.0
</text>
<path stroke="white" stroke-dasharray="1,2" d="M50 116l924 0"/>
<text stroke="none" fill="white" font-size="16" x="18" y="124">
3.5
</text>
<path stroke="white" stroke-dasharray="1,2" d="M50 67l924 0"/>
<text stroke="none" fill="white" font-size="16" x="18" y="75">
4.0
</text>
<text stroke="none" fill="white" font-size="16" x="10" y="32">
     
</text>
<path stroke="red" d="M462 23l46 0"/>
<text stroke="none" fill="white" font-size="16" x="518" y="32">
x1.vsampled_p
</text>
<path stroke="red" d="M50 459l1 0 1 -7 0 -17 1 -16 0 -5 1 2M54 441l0 -41 1 -5 0 -15 1 -3 0 -2 1 -2 0 -1 1 -1 59 0 0 -2 1 -12 0 -37 1 -6 0 -10 1 -2 0 -3 1 -1 1 0 0 -1 418 0M540 299l0 -2M540 298l14 0 0 -1 12 0 1 1M567 299l0 -1 7 0M574 325l0 -27"/>
<path stroke="red" d="M574 325l1 9 1 7M576 342l0 -1M576 342l4 0 0 -1 13 0M593 342l0 -1M593 342l7 0M600 355l0 -13M600 355l1 3M601 365l0 -7M601 364l1 0 1 -1 16 0M619 364l0 -1M619 364l1 0 0 -1 26 0M646 364l0 -1 26 0M672 364l0 -1 7 0M679 369l0 -6"/>
<path stroke="red" d="M679 369l1 1 0 -1 26 0M706 372l0 -3M706 372l25 0 0 -1 1 -2 19 0M751 370l0 -1 8 0M759 371l0 -2M759 371l6 0 0 -1M765 371l26 0 0 -1M791 371l127 0 0 -48 1 -3 0 -14 1 -3 0 -2 1 -1 0 -2 2 0 0 -1 13 0M936 299l0 -2M936 298l14 0"/>
<path stroke="red" d="M950 298l0 -1 24 0"/>
<path stroke="blue" d="M50 23l46 0"/>
<text stroke="none" fill="white" font-size="16" x="106" y="32">
x1.vsampled_n
</text>
<path stroke="blue" d="M50 459l1 0 1 -7 0 -17 1 -15 0 -5 1 2M54 441l0 -41 1 -5 0 -15 1 -3 0 -2 1 -2 0 -1 1 -1 59 0M117 392l0 -21M117 392l1 17M118 432l0 -23M118 432l1 3M119 440l0 -5M119 440l1 2M120 443l0 -1M120 443l1 1 418 0M539 445l0 -1M539 445l2 0"/>
<path stroke="blue" d="M541 445l0 -1M541 445l5 0 0 -27 1 -3 0 -25 1 -6 1 -3 0 -2 5 0 0 -1M554 379l12 0 0 -1 1 1 0 -1M567 379l13 0 0 -1M580 379l13 0 0 -1M593 379l13 0 0 -1 1 0M607 379l0 -1M607 379l13 0 0 -1M620 379l5 0 0 -15 1 -1 0 -5 1 0M627 359l0 -1"/>
<path stroke="blue" d="M627 359l19 0M646 360l0 -1 7 0M653 370l0 -11M653 370l1 2M654 373l0 -1 1 -1 0 -1 17 0M672 371l0 -1 26 0 1 1 0 -1 26 0M725 371l0 -1 26 0M751 371l0 -1M751 371l1 0 0 -1 26 0M778 371l0 -1 8 0M786 372l0 -2M786 371l18 0M804 372l0 -1"/>
<path stroke="blue" d="M804 371l27 0M831 372l0 -1 8 0 0 -1M839 371l5 0 0 -1M844 371l26 0 0 -1 1 1 26 0 0 -1M897 371l21 0M918 450l0 -79M918 450l1 1 0 -2 1 -1 0 -1 1 -1 0 -1 29 0 0 -1M950 445l11 0 0 -1 13 0"/>
<path stroke="#FFA500" d="M462 39l46 0"/>
<text stroke="none" fill="white" font-size="16" x="518" y="48">
x1.vsampled_p-x1.vsampled_n
</text>
<path stroke="#FFA500" d="M50 459l2 0 0 -1 2 0M54 459l0 -1M54 459l63 0 0 -22 1 -30 0 -60 1 -9 0 -15 1 -4 0 -4 2 -2 0 -1 418 0M540 313l0 -1 6 0M546 338l0 -26M546 338l1 3M547 366l0 -25M547 366l1 7 1 3M549 377l0 -1M549 377l1 1 4 0 0 -1M554 378l13 0"/>
<path stroke="#FFA500" d="M567 379l0 -1 7 0M574 405l0 -27M574 405l1 9 1 7M576 422l0 -1M576 422l24 0M600 436l0 -14M600 436l1 3M601 445l0 -6M601 445l1 -1 23 0M625 458l0 -14M625 458l1 1M626 464l0 -5M626 464l2 0 0 -1 25 0 0 -11 1 -2 0 -1M654 450l1 1"/>
<path stroke="#FFA500" d="M655 452l0 -1M655 452l24 0M679 458l0 -6M679 458l1 1 0 -1 19 0 0 -1M699 458l7 0M706 461l0 -3M706 461l1 0 0 -1 24 0 0 -1 1 -1 0 -1M732 458l27 0M759 460l0 -2M759 459l27 0 0 -1M786 459l18 0 0 -1M804 459l35 0M839 460l0 -1"/>
<path stroke="#FFA500" d="M839 459l79 0 0 -127 1 -4 0 -13 1 -1 0 -1 1 0 0 -1 2 0 0 -1M923 312l13 0M936 313l0 -1 14 0 0 -1M950 312l24 0"/>
<path stroke="green" d="M50 39l46 0"/>
<text stroke="none" fill="white" font-size="16" x="106" y="48">
x1.sw_sample-2
</text>
<path stroke="green" d="M50 655l1 0 1 -10 0 -23 1 -21M53 618l0 -24M53 618l1 34M54 655l0 -3M54 655l63 0M117 662l0 -184 1 0M118 479l0 -1M118 479l421 0M539 656l0 -184M539 655l422 0M961 660l0 -182 1 0M962 479l0 -1M962 479l12 0"/>
<path stroke="#FFC0C5" d="M462 55l46 0"/>
<text stroke="none" fill="white" font-size="16" x="518" y="64">
x1.comp_out_p+2
</text>
<path stroke="#FFC0C5" d="M50 263l1 0 1 -10 0 -23 1 -20 0 -4M53 208l1 5M54 263l0 -50M54 262l1 1 487 0 0 -178M542 87l13 0M555 264l0 -186M555 263l13 0M568 264l0 -179M568 87l13 0 0 -9 1 167M582 263l0 -18M582 263l12 0 0 -178M594 86l1 1 13 0M608 263l0 -184"/>
<path stroke="#FFC0C5" d="M608 263l13 0 0 -178M621 87l13 0M634 263l0 -185M634 263l39 0M673 264l0 -67 1 -96 0 -16M674 87l13 0M687 263l0 -184M687 263l13 0 0 -178M700 86l1 1 12 0 1 -10M714 264l0 -187M714 263l39 0 0 -178M753 87l13 0M766 263l0 -179"/>
<path stroke="#FFC0C5" d="M766 263l41 0 0 -178M807 86l1 1 11 0M819 264l0 -184M819 263l15 0 0 -169 1 -9M835 87l0 -2M835 87l10 0 0 -6 1 92M846 264l0 -91M846 263l91 0M937 264l0 -1M937 264l1 -92 0 -87M938 87l13 0M951 263l0 -185M951 263l23 0"/>
<path stroke="#A52A2A" d="M50 55l46 0"/>
<text stroke="none" fill="white" font-size="16" x="106" y="64">
x1.comp_out_n-2
</text>
<path stroke="#A52A2A" d="M50 655l1 0 1 -10 0 -24 1 -20M53 602l0 -4M53 602l1 7M54 656l0 -47M54 650l1 4M55 655l0 -1M55 655l592 0M647 658l0 -182M647 479l14 0M661 656l0 -186M661 655l12 0 1 1 0 -1 53 0 0 -177 1 0M728 479l0 -1M728 479l12 0M740 656l0 -187"/>
<path stroke="#A52A2A" d="M740 655l40 0 0 -177 1 0M781 479l0 -1M781 479l12 0M793 655l0 -187M793 655l67 0 0 -177M860 479l12 0M872 655l0 -188M872 655l14 0 0 -177 1 0M887 479l0 -1M887 479l11 0M898 655l0 -188M898 655l15 0 0 -177M913 479l12 0M925 655l0 -186"/>
<path stroke="#A52A2A" d="M925 655l49 0"/>
</svg>
