<?xml version="1.0" standalone="yes"?>
<!DOCTYPE svg PUBLIC "-//W3C//DTD SVG 1.1//EN"
 "http://www.w3.org/Graphics/SVG/1.1/DTD/svg11.dtd">
<svg xmlns="http://www.w3.org/2000/svg" version="1.1"
  width="100%" height="100%" viewBox="0 0 1024 768"
  style="fill: none; font-family: Helvetica;
 font: Helvetica;
">

<!-- Creator: NGspice -->

<rect x="0" y="0" width="1024" height="768" fill="black" stroke="none"/>
<text stroke="none" fill="white" font-size="16" x="358" y="752">
time
</text>
<text stroke="none" fill="white" font-size="16" x="10" y="16">
tran1: run1876_vin0.749265
</text>
<path stroke="white" d="M50 704l0 -637"/>
<text stroke="none" fill="white" font-size="16" x="35" y="728">
0.0
</text>
<path stroke="white" stroke-dasharray="1,2" d="M182 704l0 -637"/>
<text stroke="none" fill="white" font-size="16" x="157" y="728">
100.0
</text>
<path stroke="white" stroke-dasharray="1,2" d="M314 704l0 -637"/>
<text stroke="none" fill="white" font-size="16" x="289" y="728">
200.0
</text>
<path stroke="white" stroke-dasharray="1,2" d="M446 704l0 -637"/>
<text stroke="none" fill="white" font-size="16" x="421" y="728">
300.0
</text>
<path stroke="white" stroke-dasharray="1,2" d="M578 704l0 -637"/>
<text stroke="none" fill="white" font-size="16" x="553" y="728">
400.0
</text>
<path stroke="white" stroke-dasharray="1,2" d="M710 704l0 -637"/>
<text stroke="none" fill="white" font-size="16" x="685" y="728">
500.0
</text>
<path stroke="white" stroke-dasharray="1,2" d="M842 704l0 -637"/>
<text stroke="none" fill="white" font-size="16" x="817" y="728">
600.0
</text>
<path stroke="white" stroke-dasharray="1,2" d="M974 704l0 -637"/>
<text stroke="none" fill="white" font-size="16" x="949" y="728">
700.0
</text>
<text stroke="none" fill="white" font-size="16" x="614" y="752">
ns
</text>
<path stroke="white" stroke-dasharray="1,2" d="M50 704l924 0"/>
<text stroke="none" fill="white" font-size="16" x="8" y="712">
-3.0
</text>
<path stroke="white" stroke-dasharray="1,2" d="M50 613l924 0"/>
<text stroke="none" fill="white" font-size="16" x="8" y="621">
-2.0
</text>
<path stroke="white" stroke-dasharray="1,2" d="M50 522l924 0"/>
<text stroke="none" fill="white" font-size="16" x="8" y="530">
-1.0
</text>
<path stroke="white" d="M50 431l924 0"/>
<text stroke="none" fill="white" font-size="16" x="18" y="439">
0.0
</text>
<path stroke="white" stroke-dasharray="1,2" d="M50 340l924 0"/>
<text stroke="none" fill="white" font-size="16" x="18" y="348">
1.0
</text>
<path stroke="white" stroke-dasharray="1,2" d="M50 249l924 0"/>
<text stroke="none" fill="white" font-size="16" x="18" y="257">
2.0
</text>
<path stroke="white" stroke-dasharray="1,2" d="M50 158l924 0"/>
<text stroke="none" fill="white" font-size="16" x="18" y="166">
3.0
</text>
<path stroke="white" stroke-dasharray="1,2" d="M50 67l924 0"/>
<text stroke="none" fill="white" font-size="16" x="18" y="75">
4.0
</text>
<text stroke="none" fill="white" font-size="16" x="10" y="32">
     
</text>
<path stroke="red" d="M462 23l46 0"/>
<text stroke="none" fill="white" font-size="16" x="518" y="32">
x1.vsampled_p
</text>
<path stroke="red" d="M50 431l1 0 1 -7 0 -16 1 -14 0 -5 1 2M54 414l0 -38 1 -4 0 -14 1 -3 0 -2 1 -2 0 -1 2 0 1 -1 3 0 1 1 5 0 0 -1 48 0 0 -1 1 -12 0 -34 1 -5 0 -10 1 -2 0 -2 2 -2 418 0M540 282l0 -1 27 0M567 283l0 -2 7 0M574 303l0 -22M574 303l1 6"/>
<path stroke="red" d="M575 319l0 -10M575 319l1 3 17 0M593 323l0 -1 7 0M600 334l0 -12M600 334l1 3M601 344l0 -7M601 343l5 0 0 -1 13 0M619 343l0 -1M619 343l1 0 0 -1M620 343l13 0 0 -1 13 0M646 343l0 -1M646 343l13 0 0 -1 13 0M672 343l0 -1M672 343l7 0"/>
<path stroke="red" d="M679 347l0 -5M679 347l1 1M680 349l0 -1 6 0 0 -1M686 348l20 0M706 350l0 -2M706 350l1 1 0 -1 24 0 0 -2 1 0 0 -1M732 348l27 0M759 350l0 -2M759 349l159 0 0 -32 1 -3 0 -21 1 -2 0 -7 1 -1 0 -1 2 0 0 -1 13 0M936 283l0 -2 38 0"/>
<path stroke="blue" d="M50 23l46 0"/>
<text stroke="none" fill="white" font-size="16" x="106" y="32">
x1.vsampled_n
</text>
<path stroke="blue" d="M50 431l1 0 1 -7 0 -15 1 -14 0 -5 1 2M54 414l0 -38 1 -4 0 -14 1 -3 0 -2 1 -2 0 -1 2 0 1 -1 3 0 1 1 4 0 1 -1 48 0M117 368l0 -19M117 368l1 17M118 406l0 -21M118 406l1 2M119 414l0 -6M119 414l1 1M120 416l0 -1M120 416l1 1 419 0"/>
<path stroke="blue" d="M540 418l0 -1 6 0M546 418l0 -25 1 -2 0 -22 1 -7 0 -4 2 -2 17 0M567 357l0 -1 58 0 0 -15 1 -1 0 -3 1 0M627 338l0 -1M627 338l19 0M646 339l0 -1 7 0M653 350l0 -12M653 350l1 1 0 -2 1 0 0 -1 17 0M672 349l0 -1 26 0 1 1 0 -1 26 0"/>
<path stroke="blue" d="M725 349l0 -1 26 0M751 349l0 -1M751 349l1 0 0 -1 26 0M778 349l0 -1 7 0 1 1M786 350l0 -1 18 0M804 350l0 -1 9 0M813 350l0 -1 17 0 1 1 0 -1 26 0M857 350l0 -1 26 0M883 350l0 -1 27 0M910 350l0 -1 8 0M918 413l0 -64M918 413l1 3"/>
<path stroke="blue" d="M919 423l0 -7M919 423l1 -1 0 -3 1 0 0 -1 2 0 0 -1 13 0M936 418l0 -1 38 0"/>
<path stroke="#FFA500" d="M462 39l46 0"/>
<text stroke="none" fill="white" font-size="16" x="518" y="48">
x1.vsampled_p-x1.vsampled_n
</text>
<path stroke="#FFA500" d="M50 431l2 0 0 -1 2 0M54 431l0 -1M54 431l63 0 0 -21 1 -27 0 -56 1 -8 0 -14 1 -4 0 -3 1 -2 1 0 0 -1 418 0M540 296l0 -1 6 0M546 319l0 -24M546 319l1 2M547 343l0 -22M547 343l1 7M548 354l0 -4M548 354l2 2 17 0M567 357l0 -1"/>
<path stroke="#FFA500" d="M567 356l7 0M574 378l0 -22M574 378l1 6M575 394l0 -10M575 394l1 3 17 0M593 398l0 -1 7 0M600 409l0 -12M600 409l1 3M601 418l0 -6M601 418l1 0 0 -1 17 0M619 418l0 -1 1 0M620 418l0 -1 5 0M625 432l0 -15M625 432l1 1M626 436l0 -3"/>
<path stroke="#FFA500" d="M626 436l2 0 1 -1 4 0M633 436l0 -1 20 0 0 -12 1 -1M654 424l0 -2M654 424l1 1 24 0M679 430l0 -5M679 430l1 1 0 -1 26 0M706 433l0 -3M706 433l19 0 0 -1M725 433l6 0 0 -2 1 -1 1 0M733 431l0 -1M733 431l2 0 1 -1 2 0M738 431l0 -1"/>
<path stroke="#FFA500" d="M738 431l2 0 0 -1 11 0M751 431l0 -1 1 0M752 431l0 -1 7 0M759 432l0 -2M759 432l26 0 1 -1 0 -1M786 431l27 0 0 -1M813 431l25 0M838 432l0 -1 80 0 0 -96 1 -7 0 -27 1 -2 0 -3 1 0 0 -1 2 0 0 -1M923 295l13 0M936 296l0 -1 14 0"/>
<path stroke="#FFA500" d="M950 295l0 -1M950 295l24 0"/>
<path stroke="green" d="M50 39l46 0"/>
<text stroke="none" fill="white" font-size="16" x="106" y="48">
x1.sw_sample-2
</text>
<path stroke="green" d="M50 613l1 0 1 -9 0 -21 1 -21M53 579l0 -23M53 579l1 31M54 613l0 -3M54 613l63 0M117 620l0 -172M117 449l422 0M539 614l0 -171M539 613l422 0M961 618l0 -170 1 1 12 0"/>
<path stroke="#FFC0C5" d="M462 55l46 0"/>
<text stroke="none" fill="white" font-size="16" x="518" y="64">
x1.comp_out_p+2
</text>
<path stroke="#FFC0C5" d="M50 249l1 0 1 -9 0 -22 1 -18 0 -4M53 198l1 5M54 249l0 -46M54 249l488 0 0 -165M542 85l13 0M555 250l0 -173M555 249l13 0 0 -165M568 85l13 0 0 -8 1 157M582 249l0 -15M582 249l12 0M594 250l0 -167M594 85l14 0M608 250l0 -173"/>
<path stroke="#FFC0C5" d="M608 249l13 0M621 253l0 -170M621 85l13 0M634 249l0 -172M634 249l39 0M673 251l0 -2M673 251l1 -101 0 -67M674 85l13 0M687 250l0 -173M687 249l13 0 0 -165 1 0M701 85l0 -1M701 85l12 0 0 -8 1 162M714 250l0 -11M714 249l39 0"/>
<path stroke="#FFC0C5" d="M753 249l0 -165 1 1 12 0M766 249l0 -173M766 249l68 0 0 -165M834 85l11 0 0 -10 1 142M846 249l0 -32M846 249l91 0M937 250l0 -1M937 250l1 -86 0 -81M938 85l13 0M951 249l0 -171M951 249l23 0"/>
<path stroke="#A52A2A" d="M50 55l46 0"/>
<text stroke="none" fill="white" font-size="16" x="106" y="64">
x1.comp_out_n-2
</text>
<path stroke="#A52A2A" d="M50 613l1 0 1 -9 0 -22 1 -19M53 564l0 -3M53 564l1 6M54 614l0 -44M54 608l1 4M55 613l0 -1M55 613l592 0M647 614l0 -167M647 449l14 0M661 613l0 -171M661 613l66 0 0 -165M727 449l13 0M740 614l0 -174M740 613l40 0 0 -165M780 449l13 0"/>
<path stroke="#A52A2A" d="M793 613l0 -174M793 613l14 0 0 -150 1 -14 0 -1M808 449l11 0M819 613l0 -171M819 613l41 0 0 -165 1 1 11 0M872 613l0 -174M872 613l14 0 1 -150 0 -15M887 449l11 0M898 613l0 -174M898 613l15 0 0 -165M913 449l12 0M925 613l0 -172"/>
<path stroke="#A52A2A" d="M925 613l49 0"/>
</svg>
