<?xml version="1.0" standalone="yes"?>
<!DOCTYPE svg PUBLIC "-//W3C//DTD SVG 1.1//EN"
 "http://www.w3.org/Graphics/SVG/1.1/DTD/svg11.dtd">
<svg xmlns="http://www.w3.org/2000/svg" version="1.1"
  width="100%" height="100%" viewBox="0 0 1024 768"
  style="fill: none; font-family: Helvetica;
 font: Helvetica;
">

<!-- Creator: NGspice -->

<rect x="0" y="0" width="1024" height="768" fill="black" stroke="none"/>
<text stroke="none" fill="white" font-size="16" x="358" y="752">
time
</text>
<text stroke="none" fill="white" font-size="16" x="10" y="16">
tran1: run549_vin-0.417042
</text>
<path stroke="white" d="M50 704l0 -637"/>
<text stroke="none" fill="white" font-size="16" x="35" y="728">
0.0
</text>
<path stroke="white" stroke-dasharray="1,2" d="M182 704l0 -637"/>
<text stroke="none" fill="white" font-size="16" x="157" y="728">
100.0
</text>
<path stroke="white" stroke-dasharray="1,2" d="M314 704l0 -637"/>
<text stroke="none" fill="white" font-size="16" x="289" y="728">
200.0
</text>
<path stroke="white" stroke-dasharray="1,2" d="M446 704l0 -637"/>
<text stroke="none" fill="white" font-size="16" x="421" y="728">
300.0
</text>
<path stroke="white" stroke-dasharray="1,2" d="M578 704l0 -637"/>
<text stroke="none" fill="white" font-size="16" x="553" y="728">
400.0
</text>
<path stroke="white" stroke-dasharray="1,2" d="M710 704l0 -637"/>
<text stroke="none" fill="white" font-size="16" x="685" y="728">
500.0
</text>
<path stroke="white" stroke-dasharray="1,2" d="M842 704l0 -637"/>
<text stroke="none" fill="white" font-size="16" x="817" y="728">
600.0
</text>
<path stroke="white" stroke-dasharray="1,2" d="M974 704l0 -637"/>
<text stroke="none" fill="white" font-size="16" x="949" y="728">
700.0
</text>
<text stroke="none" fill="white" font-size="16" x="614" y="752">
ns
</text>
<path stroke="white" stroke-dasharray="1,2" d="M50 704l924 0"/>
<text stroke="none" fill="white" font-size="16" x="8" y="712">
-3.0
</text>
<path stroke="white" stroke-dasharray="1,2" d="M50 613l924 0"/>
<text stroke="none" fill="white" font-size="16" x="8" y="621">
-2.0
</text>
<path stroke="white" stroke-dasharray="1,2" d="M50 522l924 0"/>
<text stroke="none" fill="white" font-size="16" x="8" y="530">
-1.0
</text>
<path stroke="white" d="M50 431l924 0"/>
<text stroke="none" fill="white" font-size="16" x="18" y="439">
0.0
</text>
<path stroke="white" stroke-dasharray="1,2" d="M50 340l924 0"/>
<text stroke="none" fill="white" font-size="16" x="18" y="348">
1.0
</text>
<path stroke="white" stroke-dasharray="1,2" d="M50 249l924 0"/>
<text stroke="none" fill="white" font-size="16" x="18" y="257">
2.0
</text>
<path stroke="white" stroke-dasharray="1,2" d="M50 158l924 0"/>
<text stroke="none" fill="white" font-size="16" x="18" y="166">
3.0
</text>
<path stroke="white" stroke-dasharray="1,2" d="M50 67l924 0"/>
<text stroke="none" fill="white" font-size="16" x="18" y="75">
4.0
</text>
<text stroke="none" fill="white" font-size="16" x="10" y="32">
     
</text>
<path stroke="red" d="M462 23l46 0"/>
<text stroke="none" fill="white" font-size="16" x="518" y="32">
x1.vsampled_p
</text>
<path stroke="red" d="M50 431l1 0 1 -7 0 -15 1 -14 0 -5 1 2M54 415l0 -40 1 -5 0 -13 1 -3 0 -2 2 -2 1 0 1 -1 4 0M64 350l0 -1M64 350l4 0 1 -1 48 0M117 357l0 -8M117 357l1 10M118 379l0 -12M118 379l1 3M119 385l0 -3M119 385l2 2 425 0M546 388l0 -27"/>
<path stroke="red" d="M546 361l1 -4 0 -21 1 -2 0 -5 1 -2 0 -1 5 0 0 -1M554 326l13 0M567 327l0 -1 13 0 0 -1M580 326l13 0M593 327l0 -1 7 0M600 345l0 -19M600 345l1 3M601 352l0 -4M601 350l1 -2 0 -1 1 0 0 -1 16 0M619 347l0 -1 27 0M646 347l0 -1 26 0"/>
<path stroke="red" d="M672 347l0 -1 26 0 1 1 0 -1 7 0M706 350l0 -4M706 350l1 0 0 -1 105 0 1 1 0 -1 18 0M831 350l0 -1 26 0M857 350l0 -1 26 0M883 350l0 -1 27 0M910 350l0 -1 8 0M918 365l0 -19M918 365l1 2M919 387l0 -20M919 387l1 2 1 -1 1 0 0 -1 52 0"/>
<path stroke="blue" d="M50 23l46 0"/>
<text stroke="none" fill="white" font-size="16" x="106" y="32">
x1.vsampled_n
</text>
<path stroke="blue" d="M50 431l1 0 1 -7 0 -15 1 -15 0 -4 1 1M54 415l0 -40 1 -5 0 -13 1 -3 0 -2 2 -2 1 0 1 -1 4 0M64 350l0 -1M64 350l4 0 1 -1 48 0 0 -1 1 -9 0 -17 1 -4 0 -4 2 -2 0 -1 419 0M540 312l0 -1M540 312l1 -1M541 312l0 -1 25 0 1 1 0 -1 7 0"/>
<path stroke="blue" d="M574 337l0 -26M574 337l1 4M575 351l0 -10M575 351l1 1 17 0M593 353l0 -1 26 0M619 353l0 -1 6 0 0 -1 1 -5 0 -10 1 0 0 -1 1 0 0 -1 18 0M646 335l0 -1 7 0M653 344l0 -10M653 344l1 1 5 0 0 -1M659 345l20 0M679 349l0 -4M679 349l1 1"/>
<path stroke="blue" d="M680 351l0 -1 52 0 0 -3 1 0M733 348l0 -1M733 348l2 0 1 -1 2 0M738 348l0 -1 13 0M751 348l0 -1M751 348l1 0 0 -1 7 0M759 350l0 -3M759 349l26 0 1 1 0 -1 18 0M804 350l0 -1 26 0 1 1 0 -1 87 0M918 352l0 -11 1 -2 0 -14 1 -4 0 -3"/>
<path stroke="blue" d="M920 318l1 -3 0 -2 1 0 0 -1 1 0 0 -1 13 0M936 313l0 -2 1 0M937 312l0 -1 37 0"/>
<path stroke="#FFA500" d="M462 39l46 0"/>
<text stroke="none" fill="white" font-size="16" x="518" y="48">
x1.vsampled_p-x1.vsampled_n
</text>
<path stroke="#FFA500" d="M50 431l2 0 1 1 1 0 0 -1 63 0M117 439l0 -8M117 439l1 20M118 488l0 -29M118 488l1 6M119 502l0 -8M119 502l2 4 1 1 418 0 0 -1M540 507l6 0 0 -26 1 -4 0 -22 1 -1 0 -5 1 -2 0 -1 2 0 0 -1 3 0M554 446l0 -1 13 0M567 446l0 -1 7 0"/>
<path stroke="#FFA500" d="M574 445l0 -25 1 -4 0 -10 1 -1 4 0 0 -1M580 405l20 0M600 424l0 -19M600 424l1 3M601 431l0 -4M601 428l1 -1 0 -1 1 -1 22 0M625 426l0 -1M625 426l1 5M626 441l0 -10M626 441l1 1M627 443l0 -1M627 443l26 0 0 -9 1 -1 0 -1M654 433l25 0"/>
<path stroke="#FFA500" d="M679 433l0 -5 1 0 0 -2M680 428l26 0M706 432l0 -4M706 432l1 -1 0 -1 25 0M732 433l0 -3M732 433l1 0 0 -1 18 0M751 433l0 -1M751 433l1 -1 7 0 0 -2M759 431l26 0 1 -1 18 0M804 431l0 -1 8 0M812 431l0 -1M812 431l106 0M918 455l0 -30"/>
<path stroke="#FFA500" d="M918 455l1 4M919 492l0 -33M919 492l1 7M920 502l0 -3M920 502l1 2M921 506l0 -2M921 506l2 0M923 507l0 -1M923 507l13 0 0 -1M936 507l38 0"/>
<path stroke="green" d="M50 39l46 0"/>
<text stroke="none" fill="white" font-size="16" x="106" y="48">
x1.sw_sample-2
</text>
<path stroke="green" d="M50 613l1 0 1 -9 0 -21 1 -21M53 580l0 -24M53 580l1 30M54 613l0 -3M54 613l63 0M117 620l0 -172M117 449l422 0M539 614l0 -171M539 613l422 0M961 618l0 -170 1 1 12 0"/>
<path stroke="#FFC0C5" d="M462 55l46 0"/>
<text stroke="none" fill="white" font-size="16" x="518" y="64">
x1.comp_out_p+2
</text>
<path stroke="#FFC0C5" d="M50 249l1 0 1 -9 0 -22 1 -18 0 -4M53 198l1 5M54 249l0 -46M54 248l1 1 539 0 0 -165M594 85l14 0M608 250l0 -171M608 249l13 0 0 -166M621 85l13 0M634 249l0 -167M634 249l66 0 0 -166M700 85l13 0 0 -7 1 137M714 249l0 -34M714 249l13 0"/>
<path stroke="#FFC0C5" d="M727 249l1 -152 0 -13M728 85l12 0M740 249l0 -171M740 249l67 0M807 250l0 -166M807 85l12 0M819 249l0 -174M819 249l15 0 0 -165M834 85l11 0 0 -2 1 151M846 249l0 -15M846 249l128 0"/>
<path stroke="#A52A2A" d="M50 55l46 0"/>
<text stroke="none" fill="white" font-size="16" x="106" y="64">
x1.comp_out_n-2
</text>
<path stroke="#A52A2A" d="M50 613l1 0 1 -9 0 -22 1 -19M53 564l0 -3M53 564l1 6M54 613l0 -43M54 613l488 0 0 -165M542 449l13 0M555 613l0 -167M555 613l13 0M568 614l0 -167M568 449l13 0 0 -9 1 164M582 613l0 -9M582 613l65 0 0 -166M647 449l14 0M661 614l0 -173"/>
<path stroke="#A52A2A" d="M661 613l12 0 1 2 0 -168M674 449l13 0M687 613l0 -173M687 613l66 0M753 614l0 -166M753 449l13 0M766 613l0 -173M766 613l14 0 0 -165 1 1 12 0M793 613l0 -172M793 613l67 0 0 -165 1 1 11 0M872 613l0 -174M872 613l14 0 0 -158"/>
<path stroke="#A52A2A" d="M886 455l1 -7M887 449l0 -1M887 449l11 0M898 613l0 -174M898 613l15 0 0 -165M913 449l12 0M925 614l0 -166M925 613l12 0 1 -53 0 -112M938 449l13 0M951 614l0 -171M951 613l23 0"/>
</svg>
