<?xml version="1.0" standalone="yes"?>
<!DOCTYPE svg PUBLIC "-//W3C//DTD SVG 1.1//EN"
 "http://www.w3.org/Graphics/SVG/1.1/DTD/svg11.dtd">
<svg xmlns="http://www.w3.org/2000/svg" version="1.1"
  width="100%" height="100%" viewBox="0 0 1024 768"
  style="fill: none; font-family: Helvetica;
 font: Helvetica;
">

<!-- Creator: NGspice -->

<rect x="0" y="0" width="1024" height="768" fill="black" stroke="none"/>
<text stroke="none" fill="white" font-size="16" x="358" y="752">
time
</text>
<text stroke="none" fill="white" font-size="16" x="10" y="16">
tran1: run547_vin-0.4188
</text>
<path stroke="white" d="M50 704l0 -637"/>
<text stroke="none" fill="white" font-size="16" x="35" y="728">
0.0
</text>
<path stroke="white" stroke-dasharray="1,2" d="M182 704l0 -637"/>
<text stroke="none" fill="white" font-size="16" x="157" y="728">
100.0
</text>
<path stroke="white" stroke-dasharray="1,2" d="M314 704l0 -637"/>
<text stroke="none" fill="white" font-size="16" x="289" y="728">
200.0
</text>
<path stroke="white" stroke-dasharray="1,2" d="M446 704l0 -637"/>
<text stroke="none" fill="white" font-size="16" x="421" y="728">
300.0
</text>
<path stroke="white" stroke-dasharray="1,2" d="M578 704l0 -637"/>
<text stroke="none" fill="white" font-size="16" x="553" y="728">
400.0
</text>
<path stroke="white" stroke-dasharray="1,2" d="M710 704l0 -637"/>
<text stroke="none" fill="white" font-size="16" x="685" y="728">
500.0
</text>
<path stroke="white" stroke-dasharray="1,2" d="M842 704l0 -637"/>
<text stroke="none" fill="white" font-size="16" x="817" y="728">
600.0
</text>
<path stroke="white" stroke-dasharray="1,2" d="M974 704l0 -637"/>
<text stroke="none" fill="white" font-size="16" x="949" y="728">
700.0
</text>
<text stroke="none" fill="white" font-size="16" x="614" y="752">
ns
</text>
<path stroke="white" stroke-dasharray="1,2" d="M50 704l924 0"/>
<text stroke="none" fill="white" font-size="16" x="8" y="712">
-3.0
</text>
<path stroke="white" stroke-dasharray="1,2" d="M50 613l924 0"/>
<text stroke="none" fill="white" font-size="16" x="8" y="621">
-2.0
</text>
<path stroke="white" stroke-dasharray="1,2" d="M50 522l924 0"/>
<text stroke="none" fill="white" font-size="16" x="8" y="530">
-1.0
</text>
<path stroke="white" d="M50 431l924 0"/>
<text stroke="none" fill="white" font-size="16" x="18" y="439">
0.0
</text>
<path stroke="white" stroke-dasharray="1,2" d="M50 340l924 0"/>
<text stroke="none" fill="white" font-size="16" x="18" y="348">
1.0
</text>
<path stroke="white" stroke-dasharray="1,2" d="M50 249l924 0"/>
<text stroke="none" fill="white" font-size="16" x="18" y="257">
2.0
</text>
<path stroke="white" stroke-dasharray="1,2" d="M50 158l924 0"/>
<text stroke="none" fill="white" font-size="16" x="18" y="166">
3.0
</text>
<path stroke="white" stroke-dasharray="1,2" d="M50 67l924 0"/>
<text stroke="none" fill="white" font-size="16" x="18" y="75">
4.0
</text>
<text stroke="none" fill="white" font-size="16" x="10" y="32">
     
</text>
<path stroke="red" d="M462 23l46 0"/>
<text stroke="none" fill="white" font-size="16" x="518" y="32">
x1.vsampled_p
</text>
<path stroke="red" d="M50 431l1 0 1 -7 0 -15 1 -14 0 -5 1 2M54 415l0 -40 1 -5 0 -13 1 -3 0 -2 2 -2 1 0 1 -1 4 0M64 350l0 -1M64 350l4 0 1 -1 48 0M117 357l0 -8M117 357l1 10M118 379l0 -12M118 379l1 3M119 385l0 -3M119 385l2 2 419 0M540 388l0 -1 6 0"/>
<path stroke="red" d="M546 388l0 -31 1 -5 0 -19 1 -2 0 -2 1 -2 1 -1 4 0 0 -1M554 326l13 0M567 327l0 -1 26 0M593 327l0 -1 7 0M600 345l0 -19M600 345l1 2M601 353l0 -6M601 350l1 -1 0 -2 4 0 0 -1 13 0M619 347l0 -1M619 347l1 0 0 -1M620 347l5 0 1 -1"/>
<path stroke="red" d="M626 347l0 -1M626 347l7 0 0 -1 13 0M646 347l0 -1M646 347l13 0 0 -1 13 0M672 347l0 -1 1 0M673 347l0 -1M673 347l13 0 0 -1 12 0 1 1 0 -1M699 347l7 0M706 350l0 -4M706 350l1 0 0 -1 105 0 1 1 0 -1 17 0 1 1 0 -1 87 0M918 363l0 -17"/>
<path stroke="red" d="M918 363l1 2M919 383l0 -18M919 383l1 4M920 389l0 -2M920 389l1 0 0 -1 2 0 0 -1 13 0M936 388l0 -1 38 0"/>
<path stroke="blue" d="M50 23l46 0"/>
<text stroke="none" fill="white" font-size="16" x="106" y="32">
x1.vsampled_n
</text>
<path stroke="blue" d="M50 431l1 0 1 -7 0 -15 1 -15 0 -4 1 1M54 415l0 -40 1 -5 0 -13 1 -3 0 -2 2 -2 1 0 1 -1 4 0M64 350l0 -1M64 350l4 0 1 -1 48 0 0 -1 1 -9 0 -17 1 -4 0 -4 2 -2 0 -1 419 0M540 312l0 -1 26 0 1 1 0 -1 7 0M574 330l0 -19M574 330l1 7"/>
<path stroke="blue" d="M575 350l0 -13M575 350l1 1M576 352l0 -1M576 352l49 0 0 -1 1 -5 0 -10 2 -2 18 0M646 335l0 -1 7 0M653 343l0 -9M653 343l1 1M654 345l0 -1M654 345l1 0 0 -1 17 0M672 345l0 -1 7 0M679 349l0 -5M679 349l1 1M680 351l0 -1 6 0 0 -1"/>
<path stroke="blue" d="M686 350l12 0 0 -1M698 350l1 0 0 -1M699 350l13 0 0 -1M712 350l13 0 0 -1M725 350l7 0 0 -3 19 0M751 348l0 -1 8 0M759 350l0 -3M759 349l6 0 0 -1M765 349l21 0M786 350l0 -1 18 0M804 350l0 -1 27 0M831 350l0 -1 26 0M857 350l0 -1"/>
<path stroke="blue" d="M857 349l26 0M883 350l0 -1 27 0M910 350l0 -1 8 0M918 351l0 -10 1 -1 0 -12 1 -4 0 -4 1 -3 0 -4 1 0 0 -1 1 0 0 -1 13 0M936 312l0 -1 38 0"/>
<path stroke="#FFA500" d="M462 39l46 0"/>
<text stroke="none" fill="white" font-size="16" x="518" y="48">
x1.vsampled_p-x1.vsampled_n
</text>
<path stroke="#FFA500" d="M50 431l2 0 1 1 1 0 0 -1 63 0M117 439l0 -8M117 439l1 20M118 488l0 -29M118 488l1 7M119 502l0 -7M119 502l1 3 1 1M121 507l0 -1M121 507l419 0 0 -1M540 507l6 0 0 -30 1 -6 0 -19 1 -2 0 -2 1 -1 0 -1 18 0M567 447l0 -1 7 0 0 -19"/>
<path stroke="#FFA500" d="M574 427l1 -7 0 -13 1 -1 0 -1 17 0M593 406l0 -1 7 0M600 424l0 -19M600 424l1 2M601 431l0 -5M601 429l1 -2 0 -1 1 0 0 -1 16 0M619 426l0 -1 6 0M625 426l0 -1M625 426l1 5M626 441l0 -10M626 441l1 1M627 443l0 -1M627 443l19 0"/>
<path stroke="#FFA500" d="M646 444l0 -1 7 0 0 -8 1 -2 0 -1M654 433l25 0 0 -5 1 -1M680 428l0 -1M680 428l26 0M706 432l0 -4M706 432l1 -1 1 0 1 -1 16 0M725 431l0 -1 7 0M732 433l0 -3M732 433l27 0 0 -2 19 0M778 432l0 -1 8 0 0 -1M786 431l27 0M813 432l0 -1"/>
<path stroke="#FFA500" d="M813 431l25 0 0 -1M838 431l80 0M918 453l0 -26M918 453l1 4M919 486l0 -29M919 486l1 8M920 500l0 -6M920 500l1 3M921 506l0 -3M921 506l1 0M922 507l0 -1M922 507l14 0 0 -1M936 507l14 0M950 508l0 -1 24 0"/>
<path stroke="green" d="M50 39l46 0"/>
<text stroke="none" fill="white" font-size="16" x="106" y="48">
x1.sw_sample-2
</text>
<path stroke="green" d="M50 613l1 0 1 -9 0 -21 1 -21M53 580l0 -24M53 580l1 30M54 613l0 -3M54 613l63 0M117 620l0 -172M117 449l422 0M539 614l0 -171M539 613l422 0M961 618l0 -170 1 1 12 0"/>
<path stroke="#FFC0C5" d="M462 55l46 0"/>
<text stroke="none" fill="white" font-size="16" x="518" y="64">
x1.comp_out_p+2
</text>
<path stroke="#FFC0C5" d="M50 249l1 0 1 -9 0 -22 1 -18 0 -4M53 198l1 5M54 249l0 -46M54 248l1 1 539 0M594 250l0 -166M594 85l14 0M608 249l0 -171M608 249l13 0 0 -165M621 85l13 0M634 250l0 -172M634 250l1 -1 65 0M700 251l0 -168M700 85l13 0 0 -8 1 153"/>
<path stroke="#FFC0C5" d="M714 249l0 -19M714 249l14 0 0 -165M728 85l12 0M740 249l0 -171M740 249l67 0 0 -164 12 0M819 250l0 -171M819 249l41 0 0 -164 12 0M872 250l0 -172M872 249l14 0 0 -151 1 -13 0 -1M887 85l11 0M898 249l0 -173M898 249l15 0 0 -165"/>
<path stroke="#FFC0C5" d="M913 85l12 0M925 249l0 -171M925 249l49 0"/>
<path stroke="#A52A2A" d="M50 55l46 0"/>
<text stroke="none" fill="white" font-size="16" x="106" y="64">
x1.comp_out_n-2
</text>
<path stroke="#A52A2A" d="M50 613l1 0 1 -9 0 -22 1 -19M53 564l0 -3M53 564l1 6M54 613l0 -43M54 613l487 0 1 1 0 -167M542 449l13 0M555 613l0 -169M555 613l13 0M568 614l0 -167M568 449l13 0 0 -9 1 163M582 613l0 -10M582 613l65 0 0 -165M647 449l14 0"/>
<path stroke="#A52A2A" d="M661 613l0 -172M661 613l12 0 1 3 0 -169M674 449l13 0M687 613l0 -173M687 613l66 0 0 -165M753 449l13 0M766 614l0 -170M766 613l14 0 0 -165 1 1 12 0M793 613l0 -174M793 613l41 0 0 -165M834 449l11 0 0 -10 1 153M846 613l0 -21"/>
<path stroke="#A52A2A" d="M846 613l91 0M937 614l0 -1M937 614l1 -59 0 -108M938 449l13 0M951 613l0 -173M951 613l23 0"/>
</svg>
