<?xml version="1.0" standalone="yes"?>
<!DOCTYPE svg PUBLIC "-//W3C//DTD SVG 1.1//EN"
 "http://www.w3.org/Graphics/SVG/1.1/DTD/svg11.dtd">
<svg xmlns="http://www.w3.org/2000/svg" version="1.1"
  width="100%" height="100%" viewBox="0 0 1024 768"
  style="fill: none; font-family: Helvetica;
 font: Helvetica;
">

<!-- Creator: NGspice -->

<rect x="0" y="0" width="1024" height="768" fill="black" stroke="none"/>
<text stroke="none" fill="white" font-size="16" x="358" y="752">
time
</text>
<text stroke="none" fill="white" font-size="16" x="10" y="16">
tran1: run1544_vin0.457469
</text>
<path stroke="white" d="M50 704l0 -637"/>
<text stroke="none" fill="white" font-size="16" x="35" y="728">
0.0
</text>
<path stroke="white" stroke-dasharray="1,2" d="M182 704l0 -637"/>
<text stroke="none" fill="white" font-size="16" x="157" y="728">
100.0
</text>
<path stroke="white" stroke-dasharray="1,2" d="M314 704l0 -637"/>
<text stroke="none" fill="white" font-size="16" x="289" y="728">
200.0
</text>
<path stroke="white" stroke-dasharray="1,2" d="M446 704l0 -637"/>
<text stroke="none" fill="white" font-size="16" x="421" y="728">
300.0
</text>
<path stroke="white" stroke-dasharray="1,2" d="M578 704l0 -637"/>
<text stroke="none" fill="white" font-size="16" x="553" y="728">
400.0
</text>
<path stroke="white" stroke-dasharray="1,2" d="M710 704l0 -637"/>
<text stroke="none" fill="white" font-size="16" x="685" y="728">
500.0
</text>
<path stroke="white" stroke-dasharray="1,2" d="M842 704l0 -637"/>
<text stroke="none" fill="white" font-size="16" x="817" y="728">
600.0
</text>
<path stroke="white" stroke-dasharray="1,2" d="M974 704l0 -637"/>
<text stroke="none" fill="white" font-size="16" x="949" y="728">
700.0
</text>
<text stroke="none" fill="white" font-size="16" x="614" y="752">
ns
</text>
<path stroke="white" stroke-dasharray="1,2" d="M50 704l924 0"/>
<text stroke="none" fill="white" font-size="16" x="8" y="712">
-3.0
</text>
<path stroke="white" stroke-dasharray="1,2" d="M50 613l924 0"/>
<text stroke="none" fill="white" font-size="16" x="8" y="621">
-2.0
</text>
<path stroke="white" stroke-dasharray="1,2" d="M50 522l924 0"/>
<text stroke="none" fill="white" font-size="16" x="8" y="530">
-1.0
</text>
<path stroke="white" d="M50 431l924 0"/>
<text stroke="none" fill="white" font-size="16" x="18" y="439">
0.0
</text>
<path stroke="white" stroke-dasharray="1,2" d="M50 340l924 0"/>
<text stroke="none" fill="white" font-size="16" x="18" y="348">
1.0
</text>
<path stroke="white" stroke-dasharray="1,2" d="M50 249l924 0"/>
<text stroke="none" fill="white" font-size="16" x="18" y="257">
2.0
</text>
<path stroke="white" stroke-dasharray="1,2" d="M50 158l924 0"/>
<text stroke="none" fill="white" font-size="16" x="18" y="166">
3.0
</text>
<path stroke="white" stroke-dasharray="1,2" d="M50 67l924 0"/>
<text stroke="none" fill="white" font-size="16" x="18" y="75">
4.0
</text>
<text stroke="none" fill="white" font-size="16" x="10" y="32">
     
</text>
<path stroke="red" d="M462 23l46 0"/>
<text stroke="none" fill="white" font-size="16" x="518" y="32">
x1.vsampled_p
</text>
<path stroke="red" d="M50 431l1 0 1 -7 0 -15 1 -15 0 -4 1 1M54 414l0 -39 1 -4 0 -14 1 -3 0 -2 2 -2 1 0 1 -1 4 0M64 350l0 -1M64 350l4 0 1 -1 48 0 0 -1 1 -9 0 -19 1 -4 0 -5 1 -2 1 -1 2 0 1 -1 415 0M539 308l0 -1M539 308l1 0M540 309l0 -1 14 0 0 -1"/>
<path stroke="red" d="M554 308l13 0M567 309l0 -1 7 0M574 329l0 -21M574 329l1 9M575 347l0 -9M575 347l1 1M576 349l0 -1M576 349l4 0 0 -1M580 349l26 0 0 -1 1 0M607 349l0 -1M607 349l26 0 0 -1M633 349l26 0 0 -1M659 349l27 0 0 -1M686 349l26 0 0 -1M712 349l26 0"/>
<path stroke="red" d="M738 349l0 -1 1 0M739 349l0 -1M739 349l26 0 0 -1M765 349l20 0M785 350l0 -1M785 350l1 0 0 -1 18 0M804 350l0 -1 27 0M831 350l0 -1 26 0M857 350l0 -1 26 0M883 350l0 -1 27 0M910 350l0 -1 8 0 0 -14 1 -1 0 -11 1 -5 0 -3 1 -3 0 -3"/>
<path stroke="red" d="M921 309l1 0 0 -1 1 0 0 -1M923 308l13 0M936 309l0 -1 14 0 0 -1M950 308l12 0 0 -1 12 0"/>
<path stroke="blue" d="M50 23l46 0"/>
<text stroke="none" fill="white" font-size="16" x="106" y="32">
x1.vsampled_n
</text>
<path stroke="blue" d="M50 431l1 0 1 -7 0 -15 1 -14 0 -5 1 2M54 415l0 -40 1 -4 0 -14 1 -3 0 -2 2 -2 1 0 1 -1 4 0M64 350l0 -1M64 350l4 0 1 -1 48 0M117 358l0 -9M117 358l1 11M118 382l0 -13M118 382l1 3M119 388l0 -3M119 388l3 3 424 0 0 -27 1 -3 0 -23"/>
<path stroke="blue" d="M547 338l1 -1 0 -4 1 -2 0 -1 5 0 0 -1 12 0M566 330l0 -1M566 330l1 0M567 331l0 -1 13 0 0 -1 1 0M581 330l0 -1M581 330l12 0 0 -1M593 330l7 0M600 349l0 -19M600 349l1 3M601 356l0 -4M601 353l1 -1 0 -1 1 -1 23 0 0 -17 1 -1 0 -1"/>
<path stroke="blue" d="M627 331l1 0M628 332l0 -1M628 332l18 0M646 333l0 -1 7 0M653 342l0 -10M653 342l1 2M654 345l0 -2 1 0 1 -1 16 0M672 343l0 -1 7 0M679 351l0 -9M679 351l1 -1 0 -2 1 0 1 -1 16 0 1 1 0 -1 7 0M706 351l0 -4M706 351l1 0 0 -1 24 0"/>
<path stroke="blue" d="M731 350l1 -2 0 -2M732 348l27 0M759 351l0 -3M759 349l54 0M813 350l0 -1 17 0 1 1 0 -1 87 0M918 369l0 -20M918 369l1 3M919 389l0 -17M919 389l1 3M920 393l0 -1M920 393l1 -1 0 -1 53 0"/>
<path stroke="#FFA500" d="M462 39l46 0"/>
<text stroke="none" fill="white" font-size="16" x="518" y="48">
x1.vsampled_p-x1.vsampled_n
</text>
<path stroke="#FFA500" d="M50 431l2 0 1 -1 1 0M54 431l0 -1M54 431l63 0 0 -9 1 -21 0 -32 1 -7 0 -8 1 -3 1 -2 0 -1 419 0M540 349l0 -1 6 0M546 374l0 -26M546 374l1 4M547 401l0 -23M547 401l1 1M548 406l0 -4M548 406l1 1M549 408l0 -1M549 408l1 1 17 0"/>
<path stroke="#FFA500" d="M567 410l0 -2M567 409l7 0M574 430l0 -21M574 430l1 9M575 448l0 -9M575 448l1 1M576 450l0 -1M576 450l17 0 0 -1M593 450l7 0 0 -19 1 -3 0 -5M601 427l1 1M602 429l0 -1M602 429l1 0M603 430l0 -1M603 430l16 0 0 -1 1 1 6 0M626 447l0 -17"/>
<path stroke="#FFA500" d="M626 447l1 1M627 449l0 -1M627 449l1 -1 1 0 1 -1 3 0M633 448l0 -1 13 0M646 448l0 -1 7 0 0 -10 1 -2M654 436l0 -1M654 436l1 1 24 0 0 -8 1 1M680 432l0 -2M680 432l26 0 0 -4 2 2 17 0 0 -1M725 430l6 0 1 2M732 433l0 -1 27 0"/>
<path stroke="#FFA500" d="M759 432l0 -3M759 430l1 0 1 1 17 0 0 -1M778 431l7 0 1 1 0 -1 27 0 0 -1M813 431l25 0M838 432l0 -1 80 0 0 -34 1 -4 0 -28 1 -8 0 -4 1 -2 0 -2 1 0 0 -1 14 0M936 349l0 -1 14 0 0 -1M950 348l24 0"/>
<path stroke="green" d="M50 39l46 0"/>
<text stroke="none" fill="white" font-size="16" x="106" y="48">
x1.sw_sample-2
</text>
<path stroke="green" d="M50 613l1 0 1 -9 0 -21 1 -21M53 580l0 -24M53 580l1 30M54 613l0 -3M54 613l63 0M117 620l0 -172M117 449l422 0M539 614l0 -171M539 613l422 0M961 618l0 -170 1 1 12 0"/>
<path stroke="#FFC0C5" d="M462 55l46 0"/>
<text stroke="none" fill="white" font-size="16" x="518" y="64">
x1.comp_out_p+2
</text>
<path stroke="#FFC0C5" d="M50 249l1 0 1 -9 0 -22 1 -18 0 -4M53 198l1 5M54 249l0 -46M54 249l487 0 1 2 0 -168M542 85l13 0M555 249l0 -172M555 249l13 0M568 251l0 -168M568 85l13 0 0 -8 1 156M582 249l0 -16M582 249l39 0 1 -152 0 -13M622 85l12 0M634 249l0 -172"/>
<path stroke="#FFC0C5" d="M634 249l93 0 0 -165M727 85l13 0M740 250l0 -171M740 249l40 0 0 -165M780 85l13 0M793 249l0 -174M793 249l41 0 0 -165M834 85l11 0 0 -10 1 143M846 249l0 -31M846 249l91 0M937 250l0 -1M937 250l1 -81 0 -86M938 85l13 0M951 250l0 -170"/>
<path stroke="#FFC0C5" d="M951 249l23 0"/>
<path stroke="#A52A2A" d="M50 55l46 0"/>
<text stroke="none" fill="white" font-size="16" x="106" y="64">
x1.comp_out_n-2
</text>
<path stroke="#A52A2A" d="M50 613l1 0 1 -9 0 -22 1 -19M53 564l0 -3M53 564l1 6M54 614l0 -44M54 612l1 1 539 0 0 -166M594 449l14 0M608 614l0 -174M608 613l39 0M647 614l0 -167M647 449l14 0M661 613l0 -171M661 613l12 0M673 615l0 -2M673 615l1 -116 0 -52"/>
<path stroke="#A52A2A" d="M674 449l13 0M687 613l0 -172M687 613l13 0 0 -165 1 1 12 0 1 -9M714 614l0 -174M714 613l39 0M753 615l0 -167M753 449l13 0M766 613l0 -167M766 613l41 0 0 -164 12 0M819 613l0 -171M819 613l41 0 0 -164 12 0M872 613l0 -174M872 613l14 0"/>
<path stroke="#A52A2A" d="M886 613l0 -156 1 -9M887 449l0 -1M887 449l11 0M898 613l0 -174M898 613l15 0 0 -165M913 449l12 0M925 614l0 -166M925 613l49 0"/>
</svg>
