<?xml version="1.0" standalone="yes"?>
<!DOCTYPE svg PUBLIC "-//W3C//DTD SVG 1.1//EN"
 "http://www.w3.org/Graphics/SVG/1.1/DTD/svg11.dtd">
<svg xmlns="http://www.w3.org/2000/svg" version="1.1"
  width="100%" height="100%" viewBox="0 0 1024 768"
  style="fill: none; font-family: Helvetica;
 font: Helvetica;
">

<!-- Creator: NGspice -->

<rect x="0" y="0" width="1024" height="768" fill="black" stroke="none"/>
<text stroke="none" fill="white" font-size="16" x="358" y="752">
time
</text>
<text stroke="none" fill="white" font-size="16" x="10" y="16">
tran1: run1550_vin0.462742
</text>
<path stroke="white" d="M50 704l0 -637"/>
<text stroke="none" fill="white" font-size="16" x="35" y="728">
0.0
</text>
<path stroke="white" stroke-dasharray="1,2" d="M182 704l0 -637"/>
<text stroke="none" fill="white" font-size="16" x="157" y="728">
100.0
</text>
<path stroke="white" stroke-dasharray="1,2" d="M314 704l0 -637"/>
<text stroke="none" fill="white" font-size="16" x="289" y="728">
200.0
</text>
<path stroke="white" stroke-dasharray="1,2" d="M446 704l0 -637"/>
<text stroke="none" fill="white" font-size="16" x="421" y="728">
300.0
</text>
<path stroke="white" stroke-dasharray="1,2" d="M578 704l0 -637"/>
<text stroke="none" fill="white" font-size="16" x="553" y="728">
400.0
</text>
<path stroke="white" stroke-dasharray="1,2" d="M710 704l0 -637"/>
<text stroke="none" fill="white" font-size="16" x="685" y="728">
500.0
</text>
<path stroke="white" stroke-dasharray="1,2" d="M842 704l0 -637"/>
<text stroke="none" fill="white" font-size="16" x="817" y="728">
600.0
</text>
<path stroke="white" stroke-dasharray="1,2" d="M974 704l0 -637"/>
<text stroke="none" fill="white" font-size="16" x="949" y="728">
700.0
</text>
<text stroke="none" fill="white" font-size="16" x="614" y="752">
ns
</text>
<path stroke="white" stroke-dasharray="1,2" d="M50 704l924 0"/>
<text stroke="none" fill="white" font-size="16" x="8" y="712">
-3.0
</text>
<path stroke="white" stroke-dasharray="1,2" d="M50 613l924 0"/>
<text stroke="none" fill="white" font-size="16" x="8" y="621">
-2.0
</text>
<path stroke="white" stroke-dasharray="1,2" d="M50 522l924 0"/>
<text stroke="none" fill="white" font-size="16" x="8" y="530">
-1.0
</text>
<path stroke="white" d="M50 431l924 0"/>
<text stroke="none" fill="white" font-size="16" x="18" y="439">
0.0
</text>
<path stroke="white" stroke-dasharray="1,2" d="M50 340l924 0"/>
<text stroke="none" fill="white" font-size="16" x="18" y="348">
1.0
</text>
<path stroke="white" stroke-dasharray="1,2" d="M50 249l924 0"/>
<text stroke="none" fill="white" font-size="16" x="18" y="257">
2.0
</text>
<path stroke="white" stroke-dasharray="1,2" d="M50 158l924 0"/>
<text stroke="none" fill="white" font-size="16" x="18" y="166">
3.0
</text>
<path stroke="white" stroke-dasharray="1,2" d="M50 67l924 0"/>
<text stroke="none" fill="white" font-size="16" x="18" y="75">
4.0
</text>
<text stroke="none" fill="white" font-size="16" x="10" y="32">
     
</text>
<path stroke="red" d="M462 23l46 0"/>
<text stroke="none" fill="white" font-size="16" x="518" y="32">
x1.vsampled_p
</text>
<path stroke="red" d="M50 431l1 0 1 -7 0 -15 1 -15 0 -4 1 1M54 414l0 -39 1 -4 0 -14 1 -3 0 -2 2 -2 1 0 1 -1 4 0M64 350l0 -1M64 350l4 0 1 -1 48 0 0 -1 1 -9 0 -19 1 -4 0 -5 1 -2 1 -1 0 -1 419 0M540 308l0 -1 26 0 1 1 0 -1 7 0M574 329l0 -22M574 329l1 8"/>
<path stroke="red" d="M575 346l0 -9M575 346l1 1M576 348l0 -1M576 348l183 0M759 350l0 -2M759 349l19 0M778 350l0 -1 26 0M804 350l0 -1 26 0 1 1 0 -1 86 0M917 350l0 -4 1 -4 0 -15 1 -4 0 -8 1 -3 0 -2 1 -1 0 -1 2 0 0 -1 13 0M936 308l0 -1 38 0"/>
<path stroke="blue" d="M50 23l46 0"/>
<text stroke="none" fill="white" font-size="16" x="106" y="32">
x1.vsampled_n
</text>
<path stroke="blue" d="M50 431l1 0 1 -7 0 -15 1 -14 0 -5 1 2M54 415l0 -40 1 -4 0 -14 1 -3 0 -2 2 -2 1 0 1 -1 4 0M64 350l0 -1M64 350l4 0 1 -1 48 0M117 358l0 -9M117 358l1 11M118 382l0 -13M118 382l1 3M119 389l0 -4M119 389l2 2 419 0M540 392l0 -1"/>
<path stroke="blue" d="M540 391l6 0M546 392l0 -21 1 -3 0 -28 1 -1 0 -5 1 -2 0 -1 1 0 0 -1 4 0 0 -1M554 330l13 0M567 331l0 -1 26 0M593 331l0 -1 7 0M600 348l0 -18M600 348l1 3M601 357l0 -6M601 354l1 -2 0 -1 1 0 0 -1 16 0M619 351l0 -1M619 351l1 0"/>
<path stroke="blue" d="M620 351l0 -1 6 0M626 351l0 -18 1 -1 2 0M629 333l0 -1M629 333l4 0 0 -1M633 333l13 0 0 -1M646 333l7 0M653 342l0 -9M653 342l1 2M654 346l0 -2 1 0 0 -1 4 0 0 -1M659 343l20 0M679 349l0 -6M679 349l1 1M680 351l0 -3 26 0M706 352l0 -4"/>
<path stroke="blue" d="M706 352l1 0 0 -1 1 0 1 -1 16 0M725 351l0 -1 6 0 0 -3 1 0M732 348l0 -1M732 348l19 0M751 349l0 -1 27 0M778 349l0 -1 7 0M785 350l0 -2M785 350l1 0 0 -1 26 0M812 350l0 -1 19 0M831 350l0 -1 26 0M857 350l0 -1 26 0M883 350l0 -1"/>
<path stroke="blue" d="M883 349l27 0M910 350l0 -1 7 0M917 351l0 -2M917 351l1 3M918 383l0 -29M918 383l1 6M919 393l0 -4M919 393l1 0 0 -1 2 0 0 -1 14 0M936 392l0 -1 38 0"/>
<path stroke="#FFA500" d="M462 39l46 0"/>
<text stroke="none" fill="white" font-size="16" x="518" y="48">
x1.vsampled_p-x1.vsampled_n
</text>
<path stroke="#FFA500" d="M50 431l2 0 1 -1 1 0M54 431l0 -1M54 431l63 0 0 -10 1 -21 0 -32 1 -7 0 -8 1 -3 1 -2 1 -1 418 0M540 348l0 -1 6 0M546 368l0 -21M546 368l1 2M547 398l0 -28M547 398l1 2M548 404l0 -4M548 404l1 2M549 407l0 -1M549 407l1 1 17 0"/>
<path stroke="#FFA500" d="M567 409l0 -2M567 408l7 0M574 429l0 -21M574 429l1 9M575 447l0 -9M575 447l1 1M576 449l0 -1M576 449l17 0 0 -1M593 449l7 0 0 -18 1 -3 0 -6M601 425l1 2M602 428l0 -1M602 428l1 0M603 429l0 -1M603 429l16 0 0 -1 1 1 6 0M626 446l0 -17"/>
<path stroke="#FFA500" d="M626 446l1 1M627 448l0 -1 2 0 1 -1 3 0M633 447l0 -1M633 447l13 0 0 -1 7 0M653 447l0 -10 1 -2 0 -1M654 435l1 0M655 436l0 -1M655 436l24 0 0 -6 1 0M680 431l0 -3M680 431l26 0 0 -4 1 0M707 429l0 -2M707 429l18 0 0 -1M725 429l6 0"/>
<path stroke="#FFA500" d="M731 432l0 -3M731 432l1 0 0 -1 27 0M759 433l0 -2M759 432l26 0 0 -1 3 0M788 432l0 -1M788 432l2 0 0 -1 1 0M791 432l0 -1M791 432l1 0 0 -1 1 1 11 0 0 -1M804 432l1 0 0 -1 7 0M812 432l0 -2M812 431l105 0M917 432l0 -6 1 -7 0 -44"/>
<path stroke="#FFA500" d="M918 375l1 -10 0 -12 1 -3 0 -1 2 -2 14 0M936 348l0 -1 14 0 0 -1M950 347l24 0"/>
<path stroke="green" d="M50 39l46 0"/>
<text stroke="none" fill="white" font-size="16" x="106" y="48">
x1.sw_sample-2
</text>
<path stroke="green" d="M50 613l1 0 1 -9 0 -21 1 -21M53 580l0 -24M53 580l1 30M54 613l0 -3M54 613l63 0M117 620l0 -172M117 449l422 0M539 614l0 -171M539 613l422 0M961 618l0 -170 1 1 12 0"/>
<path stroke="#FFC0C5" d="M462 55l46 0"/>
<text stroke="none" fill="white" font-size="16" x="518" y="64">
x1.comp_out_p+2
</text>
<path stroke="#FFC0C5" d="M50 249l1 0 1 -9 0 -22 1 -18 0 -4M53 198l1 5M54 249l0 -46M54 249l487 0 1 1 0 -167M542 85l13 0M555 249l0 -172M555 249l13 0M568 251l0 -167M568 85l13 0 0 -8 1 157M582 249l0 -15M582 249l39 0 0 -165 1 1 12 0M634 249l0 -172"/>
<path stroke="#FFC0C5" d="M634 249l93 0 0 -165M727 85l13 0M740 250l0 -171M740 249l13 0 0 -138 1 -25 0 -2M754 85l12 0M766 250l0 -173M766 249l94 0 0 -165M860 85l12 0M872 249l0 -174M872 249l14 0 0 -157 1 -8M887 85l0 -1M887 85l11 0M898 249l0 -174"/>
<path stroke="#FFC0C5" d="M898 249l14 0 1 -157 0 -8M913 85l12 0M925 250l0 -173M925 249l12 0M937 250l0 -1M937 250l1 -88 0 -79M938 85l13 0M951 250l0 -169M951 249l23 0"/>
<path stroke="#A52A2A" d="M50 55l46 0"/>
<text stroke="none" fill="white" font-size="16" x="106" y="64">
x1.comp_out_n-2
</text>
<path stroke="#A52A2A" d="M50 613l1 0 1 -9 0 -22 1 -19M53 564l0 -3M53 564l1 6M54 614l0 -44M54 612l1 1 513 0M568 614l0 -1 26 0 0 -166M594 449l14 0M608 613l0 -172M608 613l39 0M647 614l0 -166M647 449l14 0M661 613l0 -171M661 613l12 0 1 -67 0 -98"/>
<path stroke="#A52A2A" d="M674 449l13 0M687 614l0 -174M687 613l13 0M700 614l0 -1M700 614l1 -147 0 -19M701 449l12 0 0 -8 1 156M714 613l0 -16M714 613l66 0 0 -165M780 449l13 0M793 613l0 -167M793 613l13 0 1 -157 0 -8M807 449l12 0M819 613l0 -174M819 613l15 0"/>
<path stroke="#A52A2A" d="M834 613l0 -165M834 449l11 0 0 -2 1 155M846 613l0 -11M846 613l128 0"/>
</svg>
