<?xml version="1.0" standalone="yes"?>
<!DOCTYPE svg PUBLIC "-//W3C//DTD SVG 1.1//EN"
 "http://www.w3.org/Graphics/SVG/1.1/DTD/svg11.dtd">
<svg xmlns="http://www.w3.org/2000/svg" version="1.1"
  width="100%" height="100%" viewBox="0 0 1024 768"
  style="fill: none; font-family: Helvetica;
 font: Helvetica;
">

<!-- Creator: NGspice -->

<rect x="0" y="0" width="1024" height="768" fill="black" stroke="none"/>
<text stroke="none" fill="white" font-size="16" x="358" y="752">
time
</text>
<text stroke="none" fill="white" font-size="16" x="10" y="16">
tran1: run1322_vin0.262352
</text>
<path stroke="white" d="M50 704l0 -637"/>
<text stroke="none" fill="white" font-size="16" x="35" y="728">
0.0
</text>
<path stroke="white" stroke-dasharray="1,2" d="M182 704l0 -637"/>
<text stroke="none" fill="white" font-size="16" x="157" y="728">
100.0
</text>
<path stroke="white" stroke-dasharray="1,2" d="M314 704l0 -637"/>
<text stroke="none" fill="white" font-size="16" x="289" y="728">
200.0
</text>
<path stroke="white" stroke-dasharray="1,2" d="M446 704l0 -637"/>
<text stroke="none" fill="white" font-size="16" x="421" y="728">
300.0
</text>
<path stroke="white" stroke-dasharray="1,2" d="M578 704l0 -637"/>
<text stroke="none" fill="white" font-size="16" x="553" y="728">
400.0
</text>
<path stroke="white" stroke-dasharray="1,2" d="M710 704l0 -637"/>
<text stroke="none" fill="white" font-size="16" x="685" y="728">
500.0
</text>
<path stroke="white" stroke-dasharray="1,2" d="M842 704l0 -637"/>
<text stroke="none" fill="white" font-size="16" x="817" y="728">
600.0
</text>
<path stroke="white" stroke-dasharray="1,2" d="M974 704l0 -637"/>
<text stroke="none" fill="white" font-size="16" x="949" y="728">
700.0
</text>
<text stroke="none" fill="white" font-size="16" x="614" y="752">
ns
</text>
<path stroke="white" stroke-dasharray="1,2" d="M50 704l924 0"/>
<text stroke="none" fill="white" font-size="16" x="8" y="712">
-3.0
</text>
<path stroke="white" stroke-dasharray="1,2" d="M50 613l924 0"/>
<text stroke="none" fill="white" font-size="16" x="8" y="621">
-2.0
</text>
<path stroke="white" stroke-dasharray="1,2" d="M50 522l924 0"/>
<text stroke="none" fill="white" font-size="16" x="8" y="530">
-1.0
</text>
<path stroke="white" d="M50 431l924 0"/>
<text stroke="none" fill="white" font-size="16" x="18" y="439">
0.0
</text>
<path stroke="white" stroke-dasharray="1,2" d="M50 340l924 0"/>
<text stroke="none" fill="white" font-size="16" x="18" y="348">
1.0
</text>
<path stroke="white" stroke-dasharray="1,2" d="M50 249l924 0"/>
<text stroke="none" fill="white" font-size="16" x="18" y="257">
2.0
</text>
<path stroke="white" stroke-dasharray="1,2" d="M50 158l924 0"/>
<text stroke="none" fill="white" font-size="16" x="18" y="166">
3.0
</text>
<path stroke="white" stroke-dasharray="1,2" d="M50 67l924 0"/>
<text stroke="none" fill="white" font-size="16" x="18" y="75">
4.0
</text>
<text stroke="none" fill="white" font-size="16" x="10" y="32">
     
</text>
<path stroke="red" d="M462 23l46 0"/>
<text stroke="none" fill="white" font-size="16" x="518" y="32">
x1.vsampled_p
</text>
<path stroke="red" d="M50 431l1 0 1 -7 0 -15 1 -15 0 -4 1 1M54 415l0 -40 1 -5 0 -13 1 -3 0 -2 2 -2 1 0 1 -1 4 0M64 350l0 -1M64 350l4 0 1 -1 48 0 1 -7 0 -11 1 -3 1 -1 0 -1 1 -1 418 0 1 1 0 -1M540 326l14 0 0 -1 12 0 1 1 0 -1M567 326l13 0 0 -1 13 0"/>
<path stroke="red" d="M593 326l0 -1M593 326l7 0M600 339l0 -13M600 339l1 2M601 349l0 -8M601 348l2 -2 103 0M706 349l0 -3M706 349l2 0 0 -1 17 0M725 349l0 -1 26 0M751 349l0 -1M751 349l1 0 0 -1 26 0M778 349l0 -1 7 0M785 349l0 -1M785 349l1 1 0 -1 27 0"/>
<path stroke="red" d="M813 350l0 -1 17 0 1 1 0 -1 87 0M918 350l0 -13 1 -1 0 -9 1 -1 0 -1 3 0M923 326l0 -1 13 0M936 326l0 -1M936 326l14 0 0 -1 24 0"/>
<path stroke="blue" d="M50 23l46 0"/>
<text stroke="none" fill="white" font-size="16" x="106" y="32">
x1.vsampled_n
</text>
<path stroke="blue" d="M50 431l1 0 1 -7 0 -15 1 -14 0 -5 1 2M54 415l0 -40 1 -5 0 -13 1 -3 0 -2 2 -2 1 0 1 -1 4 0M64 350l0 -1M64 350l4 0 1 -1 48 0M117 353l0 -4M117 353l1 7M118 368l0 -8M118 368l1 3 1 1M120 373l0 -1M120 373l426 0 0 -22 1 -3 0 -23"/>
<path stroke="blue" d="M547 325l1 -5 0 -4 1 -2 0 -1 1 -1 4 0 0 -1M554 312l13 0M567 313l0 -1 7 0M574 343l0 -31M574 343l1 3M575 355l0 -9M575 355l1 0 0 -1 1 -1 3 0 0 -1M580 353l45 0 0 -1 1 -6 0 -11 7 0 0 -1M633 335l13 0M646 336l0 -1 7 0M653 345l0 -10"/>
<path stroke="blue" d="M653 345l1 1M654 347l0 -1 1 0 0 -1 17 0M672 346l0 -1 7 0M679 347l0 -2M679 347l1 2M680 353l0 -4M680 350l19 0M699 351l0 -1 26 0M725 351l0 -1 7 0 0 -3M732 348l27 0M759 351l0 -3M759 349l19 0M778 350l0 -1 26 0M804 350l0 -1 27 0"/>
<path stroke="blue" d="M831 350l0 -1 26 0M857 350l0 -1 26 0M883 350l0 -1 27 0M910 350l0 -1 8 0M918 367l0 -18M918 367l1 1M919 377l0 -9M919 377l1 -1 0 -2 1 -1 53 0"/>
<path stroke="#FFA500" d="M462 39l46 0"/>
<text stroke="none" fill="white" font-size="16" x="518" y="48">
x1.vsampled_p-x1.vsampled_n
</text>
<path stroke="#FFA500" d="M50 431l67 0 0 -4 1 -14 0 -18 1 -7 1 -2 0 -2 1 0 1 -1 418 0M540 384l0 -1 1 0M541 384l0 -1 5 0M546 405l0 -22M546 405l1 3M547 431l0 -23M547 431l1 6M548 440l0 -3M548 440l1 2M549 444l0 -2M549 444l1 0 1 1 15 0 1 -1M567 445l0 -1"/>
<path stroke="#FFA500" d="M567 445l7 0 0 -32 1 -3 0 -8 1 0M576 403l0 -1M576 403l1 0 1 1 2 0 0 -1M580 404l20 0M600 418l0 -14M600 418l1 2M601 427l0 -7M601 426l1 0 0 -1 1 -1 22 0M625 425l0 -1M625 425l1 6M626 442l0 -11M626 442l27 0 0 -10 1 -1 0 -1"/>
<path stroke="#FFA500" d="M654 431l1 0M655 432l0 -1M655 432l24 0 0 -2 1 -2 0 -4M680 426l1 1 25 0M706 430l0 -3M706 430l1 0 0 -1 24 0 1 1M732 433l0 -3M732 432l19 0 0 -1M751 432l8 0 0 -3M759 430l26 0M785 431l0 -1M785 431l28 0M813 432l0 -1 105 0"/>
<path stroke="#FFA500" d="M918 432l0 -32 1 -1 0 -18 1 0M920 382l0 -1M920 382l1 1 15 0M936 384l0 -1 38 0"/>
<path stroke="green" d="M50 39l46 0"/>
<text stroke="none" fill="white" font-size="16" x="106" y="48">
x1.sw_sample-2
</text>
<path stroke="green" d="M50 613l1 0 1 -9 0 -21 1 -21M53 581l0 -25M53 581l1 29M54 613l0 -3M54 613l63 0M117 620l0 -172M117 449l422 0M539 614l0 -171M539 613l422 0M961 618l0 -170 1 1 12 0"/>
<path stroke="#FFC0C5" d="M462 55l46 0"/>
<text stroke="none" fill="white" font-size="16" x="518" y="64">
x1.comp_out_p+2
</text>
<path stroke="#FFC0C5" d="M50 249l1 0 1 -9 0 -22 1 -18 0 -4M53 198l1 5M54 249l0 -46M54 249l487 0 1 1 0 -166M542 85l13 0M555 249l0 -172M555 249l39 0M594 250l0 -167M594 85l14 0M608 250l0 -171M608 249l13 0M621 254l0 -171M621 85l13 0M634 249l0 -171"/>
<path stroke="#FFC0C5" d="M634 249l66 0M700 253l0 -170M700 85l13 0 0 -8 1 162M714 250l0 -11M714 249l13 0 0 -165M727 85l13 0M740 249l0 -172M740 249l40 0 0 -165M780 85l13 0M793 249l0 -173M793 249l14 0 0 -149 1 -15 0 -1M808 85l11 0M819 249l0 -170"/>
<path stroke="#FFC0C5" d="M819 249l41 0 0 -165 1 1 11 0M872 249l0 -173M872 249l15 0M887 254l0 -170M887 85l11 0M898 249l0 -173M898 249l15 0M913 254l0 -170M913 85l12 0M925 250l0 -171M925 249l12 0 1 -45 0 -120M938 85l13 0M951 250l0 -166M951 249l23 0"/>
<path stroke="#A52A2A" d="M50 55l46 0"/>
<text stroke="none" fill="white" font-size="16" x="106" y="64">
x1.comp_out_n-2
</text>
<path stroke="#A52A2A" d="M50 613l1 0 1 -9 0 -22 1 -19M53 564l0 -3M53 564l1 6M54 613l0 -43M54 612l1 1 513 0 0 -166M568 449l13 0 0 -9 1 164M582 613l0 -9M582 613l65 0 0 -166M647 449l14 0M661 614l0 -174M661 613l13 0 0 -165M674 449l13 0M687 613l0 -173"/>
<path stroke="#A52A2A" d="M687 613l66 0 0 -165 1 0M754 449l0 -1M754 449l12 0M766 613l0 -172M766 613l68 0 0 -165M834 449l11 0M845 450l0 -3M845 450l1 153M846 613l0 -10M846 613l41 0M887 614l0 -1 26 0M913 614l0 -1 61 0"/>
</svg>
