<?xml version="1.0" standalone="yes"?>
<!DOCTYPE svg PUBLIC "-//W3C//DTD SVG 1.1//EN"
 "http://www.w3.org/Graphics/SVG/1.1/DTD/svg11.dtd">
<svg xmlns="http://www.w3.org/2000/svg" version="1.1"
  width="100%" height="100%" viewBox="0 0 1024 768"
  style="fill: none; font-family: Helvetica;
 font: Helvetica;
">

<!-- Creator: NGspice -->

<rect x="0" y="0" width="1024" height="768" fill="black" stroke="none"/>
<text stroke="none" fill="white" font-size="16" x="358" y="752">
time
</text>
<text stroke="none" fill="white" font-size="16" x="10" y="16">
tran1: run82_vin-0.537374
</text>
<path stroke="white" d="M50 704l0 -637"/>
<text stroke="none" fill="white" font-size="16" x="35" y="728">
0.0
</text>
<path stroke="white" stroke-dasharray="1,2" d="M182 704l0 -637"/>
<text stroke="none" fill="white" font-size="16" x="157" y="728">
100.0
</text>
<path stroke="white" stroke-dasharray="1,2" d="M314 704l0 -637"/>
<text stroke="none" fill="white" font-size="16" x="289" y="728">
200.0
</text>
<path stroke="white" stroke-dasharray="1,2" d="M446 704l0 -637"/>
<text stroke="none" fill="white" font-size="16" x="421" y="728">
300.0
</text>
<path stroke="white" stroke-dasharray="1,2" d="M578 704l0 -637"/>
<text stroke="none" fill="white" font-size="16" x="553" y="728">
400.0
</text>
<path stroke="white" stroke-dasharray="1,2" d="M710 704l0 -637"/>
<text stroke="none" fill="white" font-size="16" x="685" y="728">
500.0
</text>
<path stroke="white" stroke-dasharray="1,2" d="M842 704l0 -637"/>
<text stroke="none" fill="white" font-size="16" x="817" y="728">
600.0
</text>
<path stroke="white" stroke-dasharray="1,2" d="M974 704l0 -637"/>
<text stroke="none" fill="white" font-size="16" x="949" y="728">
700.0
</text>
<text stroke="none" fill="white" font-size="16" x="614" y="752">
ns
</text>
<path stroke="white" stroke-dasharray="1,2" d="M50 704l924 0"/>
<text stroke="none" fill="white" font-size="16" x="8" y="712">
-3.0
</text>
<path stroke="white" stroke-dasharray="1,2" d="M50 613l924 0"/>
<text stroke="none" fill="white" font-size="16" x="8" y="621">
-2.0
</text>
<path stroke="white" stroke-dasharray="1,2" d="M50 522l924 0"/>
<text stroke="none" fill="white" font-size="16" x="8" y="530">
-1.0
</text>
<path stroke="white" d="M50 431l924 0"/>
<text stroke="none" fill="white" font-size="16" x="18" y="439">
0.0
</text>
<path stroke="white" stroke-dasharray="1,2" d="M50 340l924 0"/>
<text stroke="none" fill="white" font-size="16" x="18" y="348">
1.0
</text>
<path stroke="white" stroke-dasharray="1,2" d="M50 249l924 0"/>
<text stroke="none" fill="white" font-size="16" x="18" y="257">
2.0
</text>
<path stroke="white" stroke-dasharray="1,2" d="M50 158l924 0"/>
<text stroke="none" fill="white" font-size="16" x="18" y="166">
3.0
</text>
<path stroke="white" stroke-dasharray="1,2" d="M50 67l924 0"/>
<text stroke="none" fill="white" font-size="16" x="18" y="75">
4.0
</text>
<text stroke="none" fill="white" font-size="16" x="10" y="32">
     
</text>
<path stroke="red" d="M462 23l46 0"/>
<text stroke="none" fill="white" font-size="16" x="518" y="32">
x1.vsampled_p
</text>
<path stroke="red" d="M50 431l1 0 1 -7 0 -15 1 -14 0 -5 1 2M54 415l0 -40 1 -4 0 -14 1 -2 0 -3 2 -2 1 0 1 -1 3 0 1 1 4 0 1 -1 48 0M117 360l0 -11M117 360l1 13M118 387l0 -14M118 387l1 3M119 394l0 -4M119 394l1 2M120 397l0 -1M120 397l1 1 425 0 0 -22"/>
<path stroke="red" d="M546 376l1 -3 0 -26 1 -4 0 -3 1 -1 0 -1 1 -1 4 0 0 -1M554 337l13 0M567 338l0 -1 13 0 0 -1M580 337l20 0M600 355l0 -18M600 355l1 2M601 363l0 -6M601 362l1 -3 0 -1 1 0 0 -1 16 0M619 358l0 -1 6 0 0 -11 1 -1 0 -7 1 0M627 339l0 -1"/>
<path stroke="red" d="M627 339l19 0M646 340l0 -1 7 0M653 351l0 -12M653 351l1 1 0 -1 1 -1 4 0 0 -1M659 350l13 0 0 -1M672 350l14 0 0 -1M686 350l26 0 0 -1M712 350l20 0 0 -4 1 0M733 347l0 -1M733 347l18 0M751 348l0 -1M751 348l1 0 0 -1 7 0M759 350l0 -3"/>
<path stroke="red" d="M759 349l6 0 0 -1M765 349l20 0 1 1 0 -1 18 0M804 350l0 -1 27 0M831 350l0 -1 26 0M857 350l0 -1 26 0M883 350l0 -1M883 350l1 -1 26 0M910 350l0 -1 8 0M918 389l0 -40M918 389l1 2M919 400l0 -9M919 400l1 0 1 -1 0 -1 53 0"/>
<path stroke="blue" d="M50 23l46 0"/>
<text stroke="none" fill="white" font-size="16" x="106" y="32">
x1.vsampled_n
</text>
<path stroke="blue" d="M50 431l1 0 1 -7 0 -15 1 -15 0 -4 1 1M54 414l0 -39 1 -4 0 -14 1 -2 0 -3 2 -2 1 0 1 -1 3 0 1 1 4 0 1 -1 48 0 0 -1 1 -10 0 -21 1 -5 0 -7 1 -2 0 -1 1 -1 1 0 0 -1 417 0M539 301l0 -1M539 301l1 -1M540 301l0 -1M540 301l14 0 0 -1"/>
<path stroke="blue" d="M554 300l12 0 1 1M567 302l0 -1 6 0 1 -1M574 323l0 -23M574 323l1 8M575 339l0 -8M575 339l1 2 17 0M593 342l0 -1 26 0M619 342l0 -1 27 0M646 342l0 -1 26 0M672 342l0 -1 7 0M679 346l0 -5M679 346l1 1M680 348l0 -1 1 -1 17 0 1 1"/>
<path stroke="blue" d="M699 347l0 -1 7 0M706 350l0 -4M706 349l106 0 1 1 0 -1 18 0M831 350l0 -1 87 0M918 350l0 -29 1 -2 0 -8 1 -3 0 -3 1 -2 0 -2 2 0 0 -1 13 0M936 302l0 -2M936 301l14 0 0 -1 24 0"/>
<path stroke="#FFA500" d="M462 39l46 0"/>
<text stroke="none" fill="white" font-size="16" x="518" y="48">
x1.vsampled_p-x1.vsampled_n
</text>
<path stroke="#FFA500" d="M50 431l2 0 1 1 1 0 0 -1 63 0M117 443l0 -12M117 443l1 23M118 501l0 -35M118 501l1 8M119 520l0 -11M119 520l1 3M120 526l0 -3M120 526l1 2 1 0M122 529l0 -1M122 529l418 0 0 -1M540 529l1 0 0 -1M541 529l5 0 0 -23 1 -3 0 -26"/>
<path stroke="#FFA500" d="M547 477l1 -3 0 -4 1 -1 0 -1 1 0 1 -1 3 0M554 468l0 -1 13 0M567 468l0 -1 6 0 1 1 0 -23 1 -8 0 -8 1 -2 0 -1 1 0 1 1 2 0 0 -1 1 0M581 427l0 -1M581 427l12 0 0 -1M593 427l7 0M600 444l0 -17M600 444l1 2M601 453l0 -7M601 451l1 -2"/>
<path stroke="#FFA500" d="M602 449l0 -1 1 -1 22 0 0 -11 1 -2 0 -6 1 0 1 1 25 0M653 441l0 -12M653 441l1 1 0 -1 1 -1 0 -1 17 0M672 440l0 -1 7 0 0 -5 1 -1M680 434l0 -1M680 434l26 0 0 -3 1 0M707 432l0 -1M707 432l25 0 0 -4 1 0M733 429l0 -1M733 429l18 0"/>
<path stroke="#FFA500" d="M751 430l0 -1 8 0M759 432l0 -3M759 431l26 0 1 1 0 -1 52 0 1 1 0 -1 79 0M918 499l0 -69M918 499l1 5M919 519l0 -15M919 519l1 4M920 525l0 -2M920 525l1 2M921 528l0 -1M921 528l2 0M923 529l0 -1M923 529l13 0 0 -2M936 529l38 0"/>
<path stroke="green" d="M50 39l46 0"/>
<text stroke="none" fill="white" font-size="16" x="106" y="48">
x1.sw_sample-2
</text>
<path stroke="green" d="M50 613l1 0 1 -9 0 -21 1 -21M53 580l0 -24M53 580l1 30M54 613l0 -3M54 613l63 0M117 620l0 -172M117 449l422 0M539 614l0 -171M539 613l422 0M961 618l0 -170 1 1 12 0"/>
<path stroke="#FFC0C5" d="M462 55l46 0"/>
<text stroke="none" fill="white" font-size="16" x="518" y="64">
x1.comp_out_p+2
</text>
<path stroke="#FFC0C5" d="M50 249l1 0 1 -9 0 -22 1 -18 0 -4M53 198l1 5M54 250l0 -47M54 248l1 1 539 0M594 253l0 -170M594 85l14 0M608 249l0 -174M608 249l39 0 0 -165M647 85l14 0M661 249l0 -172M661 249l92 0 0 -165M753 85l13 0M766 250l0 -169M766 249l14 0"/>
<path stroke="#FFC0C5" d="M780 249l0 -165 1 1 12 0M793 250l0 -174M793 249l41 0 0 -164 11 0 0 -10 1 145M846 249l0 -29M846 249l128 0"/>
<path stroke="#A52A2A" d="M50 55l46 0"/>
<text stroke="none" fill="white" font-size="16" x="106" y="64">
x1.comp_out_n-2
</text>
<path stroke="#A52A2A" d="M50 613l1 0 1 -9 0 -22 1 -19M53 564l0 -3M53 564l1 6M54 613l0 -43M54 613l487 0 1 1 0 -167M542 449l13 0M555 614l0 -167M555 613l13 0M568 614l0 -167M568 449l13 0 0 -7 1 148M582 613l0 -23M582 613l39 0M621 614l0 -167M621 449l13 0"/>
<path stroke="#A52A2A" d="M634 613l0 -173M634 613l13 0M647 614l0 -1 26 0 0 -11 1 -132 0 -23M674 449l13 0M687 613l0 -173M687 613l13 0M700 614l0 -167M700 449l13 0 0 -5 1 157M714 613l0 -12M714 613l14 0 0 -164 12 0M740 613l0 -171M740 613l67 0 0 -165"/>
<path stroke="#A52A2A" d="M807 449l12 0M819 614l0 -171M819 613l41 0 0 -164 12 0M872 614l0 -169M872 613l14 0 0 -164 12 0M898 614l0 -169M898 613l15 0 0 -164 12 0M925 613l0 -173M925 613l12 0 1 -11 0 -155M938 449l13 0M951 613l0 -170M951 613l23 0"/>
</svg>
