<?xml version="1.0" standalone="yes"?>
<!DOCTYPE svg PUBLIC "-//W3C//DTD SVG 1.1//EN"
 "http://www.w3.org/Graphics/SVG/1.1/DTD/svg11.dtd">
<svg xmlns="http://www.w3.org/2000/svg" version="1.1"
  width="100%" height="100%" viewBox="0 0 1024 768"
  style="fill: none; font-family: Helvetica;
 font: Helvetica;
">

<!-- Creator: NGspice -->

<rect x="0" y="0" width="1024" height="768" fill="black" stroke="none"/>
<text stroke="none" fill="white" font-size="16" x="358" y="752">
time
</text>
<text stroke="none" fill="white" font-size="16" x="10" y="16">
tran1: run80_vin-0.25977
</text>
<path stroke="white" d="M50 704l0 -637"/>
<text stroke="none" fill="white" font-size="16" x="35" y="728">
0.0
</text>
<path stroke="white" stroke-dasharray="1,2" d="M182 704l0 -637"/>
<text stroke="none" fill="white" font-size="16" x="157" y="728">
100.0
</text>
<path stroke="white" stroke-dasharray="1,2" d="M314 704l0 -637"/>
<text stroke="none" fill="white" font-size="16" x="289" y="728">
200.0
</text>
<path stroke="white" stroke-dasharray="1,2" d="M446 704l0 -637"/>
<text stroke="none" fill="white" font-size="16" x="421" y="728">
300.0
</text>
<path stroke="white" stroke-dasharray="1,2" d="M578 704l0 -637"/>
<text stroke="none" fill="white" font-size="16" x="553" y="728">
400.0
</text>
<path stroke="white" stroke-dasharray="1,2" d="M710 704l0 -637"/>
<text stroke="none" fill="white" font-size="16" x="685" y="728">
500.0
</text>
<path stroke="white" stroke-dasharray="1,2" d="M842 704l0 -637"/>
<text stroke="none" fill="white" font-size="16" x="817" y="728">
600.0
</text>
<path stroke="white" stroke-dasharray="1,2" d="M974 704l0 -637"/>
<text stroke="none" fill="white" font-size="16" x="949" y="728">
700.0
</text>
<text stroke="none" fill="white" font-size="16" x="614" y="752">
ns
</text>
<path stroke="white" stroke-dasharray="1,2" d="M50 704l924 0"/>
<text stroke="none" fill="white" font-size="16" x="8" y="712">
-3.0
</text>
<path stroke="white" stroke-dasharray="1,2" d="M50 613l924 0"/>
<text stroke="none" fill="white" font-size="16" x="8" y="621">
-2.0
</text>
<path stroke="white" stroke-dasharray="1,2" d="M50 522l924 0"/>
<text stroke="none" fill="white" font-size="16" x="8" y="530">
-1.0
</text>
<path stroke="white" d="M50 431l924 0"/>
<text stroke="none" fill="white" font-size="16" x="18" y="439">
0.0
</text>
<path stroke="white" stroke-dasharray="1,2" d="M50 340l924 0"/>
<text stroke="none" fill="white" font-size="16" x="18" y="348">
1.0
</text>
<path stroke="white" stroke-dasharray="1,2" d="M50 249l924 0"/>
<text stroke="none" fill="white" font-size="16" x="18" y="257">
2.0
</text>
<path stroke="white" stroke-dasharray="1,2" d="M50 158l924 0"/>
<text stroke="none" fill="white" font-size="16" x="18" y="166">
3.0
</text>
<path stroke="white" stroke-dasharray="1,2" d="M50 67l924 0"/>
<text stroke="none" fill="white" font-size="16" x="18" y="75">
4.0
</text>
<text stroke="none" fill="white" font-size="16" x="10" y="32">
     
</text>
<path stroke="red" d="M462 23l46 0"/>
<text stroke="none" fill="white" font-size="16" x="518" y="32">
x1.vsampled_p
</text>
<path stroke="red" d="M50 431l1 0 1 -7 0 -15 1 -14 0 -5 1 2M54 415l0 -40 1 -5 0 -13 1 -3 0 -2 2 -2 1 0 1 -1 4 0M64 350l0 -1M64 350l4 0 1 -1 48 0M117 353l0 -4M117 353l1 7M118 368l0 -8M118 368l2 4 1 1 425 0 0 -20 1 -3 0 -25 1 -5 0 -4 1 -2 0 -1"/>
<path stroke="red" d="M549 313l1 -1 4 0 0 -1M554 312l12 0 0 -1M566 312l1 0M567 313l0 -1 6 0 1 3M574 343l0 -28M574 343l1 4M575 354l0 -7M575 354l1 0 1 -1 2 0 0 -1 14 0M593 353l0 -1 26 0M619 353l0 -1M619 353l1 0 0 -1 5 0M625 353l0 -6 1 -4 0 -8 1 -1"/>
<path stroke="red" d="M627 334l1 0 1 1 4 0 0 -1M633 335l13 0 0 -1M646 335l7 0M653 345l0 -10M653 345l1 1M654 347l0 -2 5 0 0 -1M659 345l20 0M679 349l0 -4M679 349l1 1M680 352l0 -2 52 0 0 -4M732 347l1 1 5 0 0 -1M738 348l21 0M759 350l0 -2M759 349l53 0"/>
<path stroke="red" d="M812 350l0 -1M812 350l1 0 0 -1 18 0M831 350l0 -1 26 0M857 350l0 -1 26 0M883 350l0 -1M883 350l1 -1 26 0M910 350l0 -1 8 0M918 372l0 -23M918 372l1 1M919 377l0 -4M919 376l1 -2 0 -1 54 0"/>
<path stroke="blue" d="M50 23l46 0"/>
<text stroke="none" fill="white" font-size="16" x="106" y="32">
x1.vsampled_n
</text>
<path stroke="blue" d="M50 431l1 0 1 -7 0 -15 1 -15 0 -4 1 1M54 415l0 -40 1 -5 0 -13 1 -3 0 -2 2 -2 1 0 1 -1 4 0M64 350l0 -1M64 350l4 0 1 -1 48 0 1 -7 0 -10 1 -4 1 -1 0 -1 2 0 1 -1 416 0M539 326l0 -1M539 326l15 0 0 -1M554 326l13 0M567 327l0 -1"/>
<path stroke="blue" d="M567 326l13 0 0 -1M580 326l20 0M600 343l0 -17M600 343l1 3M601 349l0 -3M601 348l1 -1 0 -1 17 0M619 347l0 -1 27 0M646 347l0 -1 60 0M706 350l0 -4M706 349l80 0M786 350l0 -1 18 0M804 350l0 -1 27 0M831 350l0 -1 87 0M918 350l0 -17"/>
<path stroke="blue" d="M918 333l1 -1 0 -6 1 0 0 -1 1 0M921 326l0 -1M921 326l2 0 0 -1M923 326l13 0M936 327l0 -1 14 0 0 -1M950 326l12 0 0 -1 12 0"/>
<path stroke="#FFA500" d="M462 39l46 0"/>
<text stroke="none" fill="white" font-size="16" x="518" y="48">
x1.vsampled_p-x1.vsampled_n
</text>
<path stroke="#FFA500" d="M50 431l67 0M117 435l0 -4M117 435l1 14M118 467l0 -18M118 467l1 6 1 3M120 477l0 -1M120 477l1 1 425 0 0 -20 1 -3 0 -25 1 -5 0 -4 1 -2 0 -1 1 -1 17 0M567 418l0 -1 6 0 1 3M574 449l0 -29M574 449l1 3M575 460l0 -8M575 460l1 0"/>
<path stroke="#FFA500" d="M576 460l0 -1 1 -1 16 0 0 -1M593 458l7 0 0 -17 1 -3 0 -4M601 436l1 0M602 437l0 -1M602 437l17 0M619 438l0 -1M619 438l1 -1 5 0 0 -5 1 -4 0 -8 1 -1 3 0 1 1 2 0 0 -1 13 0M646 420l0 -1M646 420l1 0 0 -1M647 420l6 0M653 430l0 -11"/>
<path stroke="#FFA500" d="M653 430l1 1 0 -1 25 0M679 434l0 -4M679 434l1 1M680 437l0 -2 26 0 0 -4M706 432l26 0 0 -3M732 430l27 0M759 433l0 -3M759 431l27 0 0 -1M786 431l26 0 1 1 0 -1 25 0M838 432l0 -1M838 432l1 0 0 -1 79 0M918 470l0 -40M918 470l1 2"/>
<path stroke="#FFA500" d="M919 480l0 -8M919 480l1 0 0 -1 1 0 0 -1 2 0M923 479l0 -1 13 0 0 -1M936 478l14 0M950 479l0 -1 24 0"/>
<path stroke="green" d="M50 39l46 0"/>
<text stroke="none" fill="white" font-size="16" x="106" y="48">
x1.sw_sample-2
</text>
<path stroke="green" d="M50 613l1 0 1 -9 0 -21 1 -21M53 581l0 -25M53 581l1 29M54 613l0 -3M54 613l63 0M117 620l0 -172M117 449l422 0M539 614l0 -171M539 613l422 0M961 618l0 -170 1 1 12 0"/>
<path stroke="#FFC0C5" d="M462 55l46 0"/>
<text stroke="none" fill="white" font-size="16" x="518" y="64">
x1.comp_out_p+2
</text>
<path stroke="#FFC0C5" d="M50 249l1 0 1 -9 0 -22 1 -18 0 -4M53 198l1 5M54 249l0 -46M54 248l1 1 513 0M568 250l0 -167M568 85l13 0 0 -9 1 161M582 249l0 -12M582 249l65 0 0 -165M647 85l14 0M661 249l0 -172M661 249l13 0M674 253l0 -170M674 85l13 0M687 250l0 -173"/>
<path stroke="#FFC0C5" d="M687 249l66 0 0 -165M753 85l13 0M766 250l0 -174M766 249l41 0 0 -164 12 0M819 249l0 -171M819 249l15 0 0 -164 11 0 0 -10 1 144M846 249l0 -30M846 249l128 0"/>
<path stroke="#A52A2A" d="M50 55l46 0"/>
<text stroke="none" fill="white" font-size="16" x="106" y="64">
x1.comp_out_n-2
</text>
<path stroke="#A52A2A" d="M50 613l1 0 1 -9 0 -22 1 -19M53 564l0 -3M53 564l1 6M54 613l0 -43M54 613l487 0 1 1 0 -167M542 449l13 0M555 613l0 -173M555 613l39 0 0 -165M594 449l14 0M608 613l0 -171M608 613l13 0M621 618l0 -171M621 449l13 0M634 614l0 -173"/>
<path stroke="#A52A2A" d="M634 613l66 0 0 -166M700 449l13 0 1 -9M714 614l0 -174M714 613l13 0 0 -165M727 449l13 0M740 614l0 -174M740 613l40 0M780 614l0 -166 1 0M781 449l0 -1M781 449l12 0M793 613l0 -174M793 613l67 0 0 -164 12 0M872 614l0 -169M872 613l14 0"/>
<path stroke="#A52A2A" d="M886 613l0 -164 12 0M898 614l0 -169M898 613l15 0M913 614l0 -166M913 449l12 0M925 614l0 -171M925 613l12 0 1 -53 0 -112M938 449l13 0M951 613l0 -166M951 613l23 0"/>
</svg>
