<?xml version="1.0" standalone="yes"?>
<!DOCTYPE svg PUBLIC "-//W3C//DTD SVG 1.1//EN"
 "http://www.w3.org/Graphics/SVG/1.1/DTD/svg11.dtd">
<svg xmlns="http://www.w3.org/2000/svg" version="1.1"
  width="100%" height="100%" viewBox="0 0 1024 768"
  style="fill: none; font-family: Helvetica;
 font: Helvetica;
">

<!-- Creator: NGspice -->

<rect x="0" y="0" width="1024" height="768" fill="black" stroke="none"/>
<text stroke="none" fill="white" font-size="16" x="358" y="752">
time
</text>
<text stroke="none" fill="white" font-size="16" x="10" y="16">
tran1: run496_vin-0.463624
</text>
<path stroke="white" d="M50 704l0 -637"/>
<text stroke="none" fill="white" font-size="16" x="35" y="728">
0.0
</text>
<path stroke="white" stroke-dasharray="1,2" d="M182 704l0 -637"/>
<text stroke="none" fill="white" font-size="16" x="157" y="728">
100.0
</text>
<path stroke="white" stroke-dasharray="1,2" d="M314 704l0 -637"/>
<text stroke="none" fill="white" font-size="16" x="289" y="728">
200.0
</text>
<path stroke="white" stroke-dasharray="1,2" d="M446 704l0 -637"/>
<text stroke="none" fill="white" font-size="16" x="421" y="728">
300.0
</text>
<path stroke="white" stroke-dasharray="1,2" d="M578 704l0 -637"/>
<text stroke="none" fill="white" font-size="16" x="553" y="728">
400.0
</text>
<path stroke="white" stroke-dasharray="1,2" d="M710 704l0 -637"/>
<text stroke="none" fill="white" font-size="16" x="685" y="728">
500.0
</text>
<path stroke="white" stroke-dasharray="1,2" d="M842 704l0 -637"/>
<text stroke="none" fill="white" font-size="16" x="817" y="728">
600.0
</text>
<path stroke="white" stroke-dasharray="1,2" d="M974 704l0 -637"/>
<text stroke="none" fill="white" font-size="16" x="949" y="728">
700.0
</text>
<text stroke="none" fill="white" font-size="16" x="614" y="752">
ns
</text>
<path stroke="white" stroke-dasharray="1,2" d="M50 704l924 0"/>
<text stroke="none" fill="white" font-size="16" x="8" y="712">
-3.0
</text>
<path stroke="white" stroke-dasharray="1,2" d="M50 613l924 0"/>
<text stroke="none" fill="white" font-size="16" x="8" y="621">
-2.0
</text>
<path stroke="white" stroke-dasharray="1,2" d="M50 522l924 0"/>
<text stroke="none" fill="white" font-size="16" x="8" y="530">
-1.0
</text>
<path stroke="white" d="M50 431l924 0"/>
<text stroke="none" fill="white" font-size="16" x="18" y="439">
0.0
</text>
<path stroke="white" stroke-dasharray="1,2" d="M50 340l924 0"/>
<text stroke="none" fill="white" font-size="16" x="18" y="348">
1.0
</text>
<path stroke="white" stroke-dasharray="1,2" d="M50 249l924 0"/>
<text stroke="none" fill="white" font-size="16" x="18" y="257">
2.0
</text>
<path stroke="white" stroke-dasharray="1,2" d="M50 158l924 0"/>
<text stroke="none" fill="white" font-size="16" x="18" y="166">
3.0
</text>
<path stroke="white" stroke-dasharray="1,2" d="M50 67l924 0"/>
<text stroke="none" fill="white" font-size="16" x="18" y="75">
4.0
</text>
<text stroke="none" fill="white" font-size="16" x="10" y="32">
     
</text>
<path stroke="red" d="M462 23l46 0"/>
<text stroke="none" fill="white" font-size="16" x="518" y="32">
x1.vsampled_p
</text>
<path stroke="red" d="M50 431l1 0 1 -7 0 -15 1 -14 0 -5 1 2M54 415l0 -40 1 -4 0 -14 1 -3 0 -2 2 -2 1 0 1 -1 4 0M64 350l0 -1M64 350l4 0 1 -1 48 0M117 358l0 -9M117 358l1 11M118 382l0 -13M118 382l1 3M119 389l0 -4M119 389l2 2 419 0M540 392l0 -1 6 0"/>
<path stroke="red" d="M546 392l0 -22 1 -3 0 -27 1 -1 0 -6 1 -2 1 0 0 -1 4 0 0 -1M554 330l13 0M567 331l0 -1 26 0M593 331l0 -1 7 0M600 349l0 -19M600 349l1 3M601 357l0 -5M601 354l1 -2 0 -1 4 0 0 -1 1 0M607 351l0 -1M607 351l12 0 0 -1M619 351l1 0"/>
<path stroke="red" d="M620 351l0 -1M620 351l6 0 0 -18 1 -1 1 0 1 1 4 0 0 -1M633 333l13 0M646 334l0 -1 7 0M653 343l0 -10M653 343l1 2M654 346l0 -2 1 0 0 -1 24 0M679 349l0 -6M679 349l1 2 0 -2 1 -1 78 0M759 351l0 -3M759 349l19 0M778 350l0 -1 26 0"/>
<path stroke="red" d="M804 350l0 -1 27 0M831 350l0 -1 26 0M857 350l0 -1 26 0M883 350l0 -1M883 350l1 -1 26 0M910 350l0 -1 8 0M918 377l0 -29M918 377l1 2M919 392l0 -13M919 392l1 1 1 -1 2 0 0 -1 13 0M936 392l0 -1 38 0"/>
<path stroke="blue" d="M50 23l46 0"/>
<text stroke="none" fill="white" font-size="16" x="106" y="32">
x1.vsampled_n
</text>
<path stroke="blue" d="M50 431l1 0 1 -7 0 -15 1 -15 0 -4 1 1M54 414l0 -39 1 -4 0 -14 1 -3 0 -2 2 -2 1 0 1 -1 4 0M64 350l0 -1M64 350l4 0 1 -1 48 0 0 -1 1 -9 0 -19 1 -4 0 -6 2 -2 0 -1 419 0M540 308l0 -1 26 0 1 1 0 -1 7 0M574 330l0 -23M574 330l1 7"/>
<path stroke="blue" d="M575 347l0 -10M575 347l1 1 141 0M717 351l0 -3M717 351l14 0 0 -3 20 0M751 349l0 -1M751 349l1 -1 26 0M778 349l0 -1 7 0M785 349l0 -1M785 349l27 0 1 1 0 -1 18 0M831 350l0 -1 87 0M918 350l0 -20 1 -1 0 -9 1 -4 0 -5 1 -2 0 -1"/>
<path stroke="blue" d="M921 308l2 0 0 -1 13 0M936 308l0 -1 38 0"/>
<path stroke="#FFA500" d="M462 39l46 0"/>
<text stroke="none" fill="white" font-size="16" x="518" y="48">
x1.vsampled_p-x1.vsampled_n
</text>
<path stroke="#FFA500" d="M50 431l2 0 1 1 1 0 0 -1 63 0M117 441l0 -10M117 441l1 21M118 494l0 -32M118 494l1 7M119 509l0 -8M119 509l1 3 1 2M121 515l0 -1M121 515l425 0 0 -22 1 -2 0 -27 1 -2 0 -6 2 -2 17 0M567 455l0 -2M567 454l7 0 0 -22 1 -8 0 -10"/>
<path stroke="#FFA500" d="M575 414l1 -1 17 0M593 414l0 -1 7 0M600 432l0 -19M600 432l1 3M601 440l0 -5M601 437l1 -2 0 -1 1 0 1 -1 1 0M605 434l0 -1M605 434l15 0 0 -1M620 434l6 0 0 -18 1 -1 1 0 1 1 4 0 0 -1M633 416l20 0M653 426l0 -10M653 426l1 2"/>
<path stroke="#FFA500" d="M654 429l0 -2 1 0 0 -1 24 0M679 432l0 -6M679 432l1 2 0 -3 37 0 0 -3 8 0M725 429l0 -1 6 0M731 431l0 -3M731 431l28 0M759 433l0 -2M759 432l26 0 1 -1 53 0M839 432l0 -1 79 0M918 477l0 -47M918 477l1 5M919 503l0 -21M919 503l1 5"/>
<path stroke="#FFA500" d="M920 513l0 -5M920 513l1 1 1 0M922 515l0 -1M922 515l1 0M923 516l0 -1 13 0 0 -1M936 515l14 0M950 516l0 -1 24 0"/>
<path stroke="green" d="M50 39l46 0"/>
<text stroke="none" fill="white" font-size="16" x="106" y="48">
x1.sw_sample-2
</text>
<path stroke="green" d="M50 613l1 0 1 -9 0 -21 1 -21M53 580l0 -24M53 580l1 30M54 613l0 -3M54 613l63 0M117 620l0 -172M117 449l422 0M539 614l0 -171M539 613l422 0M961 618l0 -170 1 1 12 0"/>
<path stroke="#FFC0C5" d="M462 55l46 0"/>
<text stroke="none" fill="white" font-size="16" x="518" y="64">
x1.comp_out_p+2
</text>
<path stroke="#FFC0C5" d="M50 249l1 0 1 -9 0 -22 1 -18 0 -4M53 198l1 5M54 250l0 -47M54 248l1 1 539 0M594 250l0 -166M594 85l14 0M608 249l0 -171M608 249l39 0M647 255l0 -172M647 85l14 0M661 249l0 -171M661 249l12 0M673 254l0 -5M673 254l1 -125 0 -46"/>
<path stroke="#FFC0C5" d="M674 85l13 0M687 249l0 -172M687 249l24 0M711 253l0 -170M711 85l2 0 0 -8 1 154M714 249l0 -18M714 249l13 0 0 -165M727 85l13 0M740 250l0 -173M740 249l13 0 0 -165 1 0M754 85l0 -1M754 85l12 0M766 250l0 -172M766 250l1 -1 67 0"/>
<path stroke="#FFC0C5" d="M834 249l0 -157 1 -8M835 85l0 -1M835 85l10 0 0 -10 1 151M846 249l0 -23M846 249l128 0"/>
<path stroke="#A52A2A" d="M50 55l46 0"/>
<text stroke="none" fill="white" font-size="16" x="106" y="64">
x1.comp_out_n-2
</text>
<path stroke="#A52A2A" d="M50 613l1 0 1 -9 0 -22 1 -19M53 564l0 -3M53 564l1 6M54 613l0 -43M54 613l487 0 1 2 0 -168M542 449l13 0M555 613l0 -173M555 613l13 0M568 619l0 -172M568 449l13 0 0 -9 1 161M582 613l0 -12M582 613l39 0 0 -165M621 449l13 0"/>
<path stroke="#A52A2A" d="M634 613l0 -173M634 613l146 0 0 -165M780 449l13 0M793 613l0 -174M793 613l14 0 0 -165M807 449l12 0M819 614l0 -171M819 613l40 0 1 -158 0 -7M860 449l12 0M872 613l0 -174M872 613l14 0 0 -164 1 -1M887 449l0 -1M887 449l11 0"/>
<path stroke="#A52A2A" d="M898 613l0 -174M898 613l14 0 1 -155 0 -9 12 0M925 613l0 -172M925 613l12 0M937 614l0 -1M937 614l1 -97 0 -70M938 449l13 0M951 613l0 -168M951 613l23 0"/>
</svg>
