<?xml version="1.0" standalone="yes"?>
<!DOCTYPE svg PUBLIC "-//W3C//DTD SVG 1.1//EN"
 "http://www.w3.org/Graphics/SVG/1.1/DTD/svg11.dtd">
<svg xmlns="http://www.w3.org/2000/svg" version="1.1"
  width="100%" height="100%" viewBox="0 0 1024 768"
  style="fill: none; font-family: Helvetica;
 font: Helvetica;
">

<!-- Creator: NGspice -->

<rect x="0" y="0" width="1024" height="768" fill="black" stroke="none"/>
<text stroke="none" fill="white" font-size="16" x="358" y="752">
time
</text>
<text stroke="none" fill="white" font-size="16" x="10" y="16">
tran1: run503_vin-0.457471
</text>
<path stroke="white" d="M50 704l0 -637"/>
<text stroke="none" fill="white" font-size="16" x="35" y="728">
0.0
</text>
<path stroke="white" stroke-dasharray="1,2" d="M182 704l0 -637"/>
<text stroke="none" fill="white" font-size="16" x="157" y="728">
100.0
</text>
<path stroke="white" stroke-dasharray="1,2" d="M314 704l0 -637"/>
<text stroke="none" fill="white" font-size="16" x="289" y="728">
200.0
</text>
<path stroke="white" stroke-dasharray="1,2" d="M446 704l0 -637"/>
<text stroke="none" fill="white" font-size="16" x="421" y="728">
300.0
</text>
<path stroke="white" stroke-dasharray="1,2" d="M578 704l0 -637"/>
<text stroke="none" fill="white" font-size="16" x="553" y="728">
400.0
</text>
<path stroke="white" stroke-dasharray="1,2" d="M710 704l0 -637"/>
<text stroke="none" fill="white" font-size="16" x="685" y="728">
500.0
</text>
<path stroke="white" stroke-dasharray="1,2" d="M842 704l0 -637"/>
<text stroke="none" fill="white" font-size="16" x="817" y="728">
600.0
</text>
<path stroke="white" stroke-dasharray="1,2" d="M974 704l0 -637"/>
<text stroke="none" fill="white" font-size="16" x="949" y="728">
700.0
</text>
<text stroke="none" fill="white" font-size="16" x="614" y="752">
ns
</text>
<path stroke="white" stroke-dasharray="1,2" d="M50 704l924 0"/>
<text stroke="none" fill="white" font-size="16" x="8" y="712">
-3.0
</text>
<path stroke="white" stroke-dasharray="1,2" d="M50 613l924 0"/>
<text stroke="none" fill="white" font-size="16" x="8" y="621">
-2.0
</text>
<path stroke="white" stroke-dasharray="1,2" d="M50 522l924 0"/>
<text stroke="none" fill="white" font-size="16" x="8" y="530">
-1.0
</text>
<path stroke="white" d="M50 431l924 0"/>
<text stroke="none" fill="white" font-size="16" x="18" y="439">
0.0
</text>
<path stroke="white" stroke-dasharray="1,2" d="M50 340l924 0"/>
<text stroke="none" fill="white" font-size="16" x="18" y="348">
1.0
</text>
<path stroke="white" stroke-dasharray="1,2" d="M50 249l924 0"/>
<text stroke="none" fill="white" font-size="16" x="18" y="257">
2.0
</text>
<path stroke="white" stroke-dasharray="1,2" d="M50 158l924 0"/>
<text stroke="none" fill="white" font-size="16" x="18" y="166">
3.0
</text>
<path stroke="white" stroke-dasharray="1,2" d="M50 67l924 0"/>
<text stroke="none" fill="white" font-size="16" x="18" y="75">
4.0
</text>
<text stroke="none" fill="white" font-size="16" x="10" y="32">
     
</text>
<path stroke="red" d="M462 23l46 0"/>
<text stroke="none" fill="white" font-size="16" x="518" y="32">
x1.vsampled_p
</text>
<path stroke="red" d="M50 431l1 0 1 -7 0 -15 1 -14 0 -5 1 2M54 415l0 -40 1 -4 0 -14 1 -3 0 -2 2 -2 1 0 1 -1 4 0M64 350l0 -1M64 350l4 0 1 -1 48 0M117 358l0 -9M117 358l1 11M118 382l0 -13M118 382l1 3M119 388l0 -3M119 388l3 3 424 0 0 -27 1 -3 0 -23"/>
<path stroke="red" d="M547 338l1 -1 0 -5 2 -2 4 0 0 -1 12 0M566 330l0 -1M566 330l1 0M567 331l0 -1 13 0 0 -1 1 0M581 330l0 -1M581 330l12 0 0 -1M593 330l7 0M600 349l0 -19M600 349l1 3M601 356l0 -4M601 353l1 -1 0 -1 1 -1 23 0 0 -16 1 -2 0 -1 1 0"/>
<path stroke="red" d="M628 332l0 -1M628 332l18 0M646 333l0 -1 7 0M653 342l0 -10M653 342l1 2M654 345l0 -1 2 -2 16 0M672 343l0 -1 7 0M679 348l0 -6M679 348l1 1M680 350l0 -2 2 0 0 -1 16 0 1 1 0 -1 7 0M706 351l0 -4M706 351l1 0 0 -1 24 0 1 -2 0 -2"/>
<path stroke="red" d="M732 347l1 1 26 0M759 351l0 -3M759 349l54 0M813 350l0 -1 17 0 1 1 0 -1 87 0M918 368l0 -19M918 368l1 2M919 387l0 -17M919 387l1 5M920 393l0 -1M920 393l1 -1 0 -1 53 0"/>
<path stroke="blue" d="M50 23l46 0"/>
<text stroke="none" fill="white" font-size="16" x="106" y="32">
x1.vsampled_n
</text>
<path stroke="blue" d="M50 431l1 0 1 -7 0 -15 1 -15 0 -4 1 1M54 414l0 -39 1 -4 0 -14 1 -3 0 -2 2 -2 1 0 1 -1 4 0M64 350l0 -1M64 350l4 0 1 -1 48 0 0 -1 1 -9 0 -19 1 -4 0 -5 1 -2 1 -1 2 0 1 -1 415 0M539 308l0 -1M539 308l1 0M540 309l0 -1 14 0 0 -1"/>
<path stroke="blue" d="M554 308l13 0M567 309l0 -1 7 0M574 328l0 -20M574 328l1 8M575 347l0 -11M575 347l1 1M576 349l0 -1M576 349l4 0 0 -1M580 349l26 0 0 -1 1 0M607 349l0 -1M607 349l26 0 0 -1M633 349l26 0 0 -1M659 349l27 0 0 -1M686 349l26 0 0 -1"/>
<path stroke="blue" d="M712 349l26 0 0 -1 1 0M739 349l0 -1M739 349l26 0 0 -1M765 349l20 0M785 350l0 -1M785 350l1 0 0 -1 18 0M804 350l0 -1 27 0M831 350l0 -1 26 0M857 350l0 -1 26 0M883 350l0 -1 27 0M910 350l0 -1 8 0 0 -13 1 -1 0 -11 1 -5 0 -4 1 -2"/>
<path stroke="blue" d="M921 313l0 -3 1 -1 0 -1 1 0 0 -1M923 308l13 0M936 309l0 -1 14 0 0 -1M950 308l12 0 0 -1 12 0"/>
<path stroke="#FFA500" d="M462 39l46 0"/>
<text stroke="none" fill="white" font-size="16" x="518" y="48">
x1.vsampled_p-x1.vsampled_n
</text>
<path stroke="#FFA500" d="M50 431l2 0 1 1 1 0 0 -1 63 0M117 440l0 -9M117 440l1 21M118 493l0 -32M118 493l1 7M119 508l0 -8M119 508l1 3 1 2M121 514l0 -1M121 514l419 0 0 -1M540 514l6 0 0 -27 1 -3 0 -22 1 -2 0 -5 2 -2 17 0M567 454l0 -2M567 453l7 0"/>
<path stroke="#FFA500" d="M574 453l0 -20 1 -8 0 -11 1 -1 0 -1 17 0M593 413l0 -1 7 0M600 431l0 -19M600 431l1 3M601 439l0 -5M601 435l1 -1 0 -1 1 0 0 -1 16 0M619 433l0 -1M619 433l1 -1 6 0 0 -16 1 -1 0 -2 1 1 1 0 1 1 3 0 0 -1M633 415l13 0 0 -1M646 415l7 0"/>
<path stroke="#FFA500" d="M653 424l0 -10M653 424l1 2M654 427l0 -1 1 0 0 -1 24 0M679 431l0 -6M679 431l1 1M680 433l0 -3 26 0M706 434l0 -4M706 434l1 0 0 -1 1 -1 17 0M725 433l0 -1 6 0 1 -2 0 -1M732 430l27 0M759 433l0 -3M759 432l1 0 1 -1 17 0M778 432l0 -1"/>
<path stroke="#FFA500" d="M778 431l7 0 0 -1 1 0M786 431l0 -1M786 431l27 0M813 432l0 -1 25 0 0 -1M838 431l80 0M918 462l0 -31M918 462l1 5M919 495l0 -28M919 495l1 9M920 508l0 -4M920 508l1 3M921 513l0 -2M921 513l1 0M922 514l0 -1M922 514l14 0 0 -1"/>
<path stroke="#FFA500" d="M936 514l14 0M950 515l0 -1 24 0"/>
<path stroke="green" d="M50 39l46 0"/>
<text stroke="none" fill="white" font-size="16" x="106" y="48">
x1.sw_sample-2
</text>
<path stroke="green" d="M50 613l1 0 1 -9 0 -21 1 -21M53 580l0 -24M53 580l1 30M54 613l0 -3M54 613l63 0M117 620l0 -172M117 449l422 0M539 614l0 -171M539 613l422 0M961 618l0 -170 1 1 12 0"/>
<path stroke="#FFC0C5" d="M462 55l46 0"/>
<text stroke="none" fill="white" font-size="16" x="518" y="64">
x1.comp_out_p+2
</text>
<path stroke="#FFC0C5" d="M50 249l1 0 1 -9 0 -22 1 -18 0 -4M53 198l1 5M54 250l0 -47M54 248l1 1 539 0 0 -166M594 85l14 0M608 250l0 -173M608 249l39 0M647 250l0 -166M647 85l14 0M661 250l0 -172M661 249l12 0M673 251l0 -2M673 251l1 -104 0 -64M674 85l13 0"/>
<path stroke="#FFC0C5" d="M687 249l0 -172M687 249l13 0 0 -162 1 -3M701 85l0 -1M701 85l12 0 1 -8M714 250l0 -173M714 249l39 0 0 -165 1 1 12 0M766 249l0 -167M766 249l41 0 0 -164 12 0M819 250l0 -171M819 249l41 0 0 -164 12 0M872 249l0 -174M872 249l14 0"/>
<path stroke="#FFC0C5" d="M886 249l0 -157 1 -8M887 85l0 -1M887 85l11 0M898 249l0 -174M898 249l15 0 0 -165M913 85l12 0M925 250l0 -166M925 249l49 0"/>
<path stroke="#A52A2A" d="M50 55l46 0"/>
<text stroke="none" fill="white" font-size="16" x="106" y="64">
x1.comp_out_n-2
</text>
<path stroke="#A52A2A" d="M50 613l1 0 1 -9 0 -22 1 -19M53 564l0 -3M53 564l1 6M54 613l0 -43M54 613l487 0 1 2 0 -168M542 449l13 0M555 613l0 -173M555 613l13 0M568 615l0 -168M568 449l13 0 0 -9 1 161M582 613l0 -12M582 613l39 0 1 -154 0 -11M622 449l12 0"/>
<path stroke="#A52A2A" d="M634 613l0 -172M634 613l93 0 0 -165M727 449l13 0M740 613l0 -171M740 613l40 0 0 -165M780 449l13 0M793 613l0 -174M793 613l41 0 0 -165M834 449l11 0 0 -10 1 153M846 613l0 -21M846 613l91 0M937 614l0 -1M937 614l1 -94 0 -73"/>
<path stroke="#A52A2A" d="M938 449l13 0M951 613l0 -169M951 613l23 0"/>
</svg>
