<?xml version="1.0" standalone="yes"?>
<!DOCTYPE svg PUBLIC "-//W3C//DTD SVG 1.1//EN"
 "http://www.w3.org/Graphics/SVG/1.1/DTD/svg11.dtd">
<svg xmlns="http://www.w3.org/2000/svg" version="1.1"
  width="100%" height="100%" viewBox="0 0 1024 768"
  style="fill: none; font-family: Helvetica;
 font: Helvetica;
">

<!-- Creator: NGspice -->

<rect x="0" y="0" width="1024" height="768" fill="black" stroke="none"/>
<text stroke="none" fill="white" font-size="16" x="358" y="752">
time
</text>
<text stroke="none" fill="white" font-size="16" x="10" y="16">
tran1: run498_vin-0.461866
</text>
<path stroke="white" d="M50 704l0 -637"/>
<text stroke="none" fill="white" font-size="16" x="35" y="728">
0.0
</text>
<path stroke="white" stroke-dasharray="1,2" d="M182 704l0 -637"/>
<text stroke="none" fill="white" font-size="16" x="157" y="728">
100.0
</text>
<path stroke="white" stroke-dasharray="1,2" d="M314 704l0 -637"/>
<text stroke="none" fill="white" font-size="16" x="289" y="728">
200.0
</text>
<path stroke="white" stroke-dasharray="1,2" d="M446 704l0 -637"/>
<text stroke="none" fill="white" font-size="16" x="421" y="728">
300.0
</text>
<path stroke="white" stroke-dasharray="1,2" d="M578 704l0 -637"/>
<text stroke="none" fill="white" font-size="16" x="553" y="728">
400.0
</text>
<path stroke="white" stroke-dasharray="1,2" d="M710 704l0 -637"/>
<text stroke="none" fill="white" font-size="16" x="685" y="728">
500.0
</text>
<path stroke="white" stroke-dasharray="1,2" d="M842 704l0 -637"/>
<text stroke="none" fill="white" font-size="16" x="817" y="728">
600.0
</text>
<path stroke="white" stroke-dasharray="1,2" d="M974 704l0 -637"/>
<text stroke="none" fill="white" font-size="16" x="949" y="728">
700.0
</text>
<text stroke="none" fill="white" font-size="16" x="614" y="752">
ns
</text>
<path stroke="white" stroke-dasharray="1,2" d="M50 704l924 0"/>
<text stroke="none" fill="white" font-size="16" x="8" y="712">
-3.0
</text>
<path stroke="white" stroke-dasharray="1,2" d="M50 613l924 0"/>
<text stroke="none" fill="white" font-size="16" x="8" y="621">
-2.0
</text>
<path stroke="white" stroke-dasharray="1,2" d="M50 522l924 0"/>
<text stroke="none" fill="white" font-size="16" x="8" y="530">
-1.0
</text>
<path stroke="white" d="M50 431l924 0"/>
<text stroke="none" fill="white" font-size="16" x="18" y="439">
0.0
</text>
<path stroke="white" stroke-dasharray="1,2" d="M50 340l924 0"/>
<text stroke="none" fill="white" font-size="16" x="18" y="348">
1.0
</text>
<path stroke="white" stroke-dasharray="1,2" d="M50 249l924 0"/>
<text stroke="none" fill="white" font-size="16" x="18" y="257">
2.0
</text>
<path stroke="white" stroke-dasharray="1,2" d="M50 158l924 0"/>
<text stroke="none" fill="white" font-size="16" x="18" y="166">
3.0
</text>
<path stroke="white" stroke-dasharray="1,2" d="M50 67l924 0"/>
<text stroke="none" fill="white" font-size="16" x="18" y="75">
4.0
</text>
<text stroke="none" fill="white" font-size="16" x="10" y="32">
     
</text>
<path stroke="red" d="M462 23l46 0"/>
<text stroke="none" fill="white" font-size="16" x="518" y="32">
x1.vsampled_p
</text>
<path stroke="red" d="M50 431l1 0 1 -7 0 -15 1 -14 0 -5 1 2M54 415l0 -40 1 -4 0 -14 1 -3 0 -2 2 -2 1 0 1 -1 4 0M64 350l0 -1M64 350l4 0 1 -1 48 0M117 358l0 -9M117 358l1 11M118 382l0 -13M118 382l1 3M119 389l0 -4M119 389l1 1 1 0M121 391l0 -1M121 391l425 0"/>
<path stroke="red" d="M546 391l0 -21 1 -3 0 -27 1 -1 0 -5 1 -2 0 -1 1 -1 4 0 0 -1M554 330l13 0M567 331l0 -1 13 0 0 -1M580 330l13 0M593 331l0 -1 7 0M600 349l0 -19M600 349l1 3M601 357l0 -5M601 354l1 -2 0 -1 1 0 0 -1 16 0M619 351l0 -1M619 351l1 0"/>
<path stroke="red" d="M620 351l0 -1 6 0 0 -17 1 -1 0 -1M627 332l2 0M629 333l0 -1M629 333l4 0 0 -1 13 0M646 333l0 -1M646 333l7 0M653 344l0 -12M653 344l1 1 0 -1 1 0 0 -1 4 0 0 -1M659 343l20 0M679 349l0 -6M679 349l1 2 0 -3 26 0M706 352l0 -4M706 352l1 0"/>
<path stroke="red" d="M707 352l0 -1 1 -1 17 0M725 351l0 -1 6 0 0 -3 1 0M732 348l0 -1M732 348l19 0M751 349l0 -1 27 0M778 349l0 -1 7 0M785 350l0 -2M785 349l27 0M812 350l0 -1 19 0M831 350l0 -1 26 0M857 350l0 -1 26 0M883 350l0 -1 27 0M910 350l0 -1"/>
<path stroke="red" d="M910 349l8 0M918 366l0 -17M918 366l1 1M919 387l0 -20M919 387l1 5M920 393l0 -1M920 393l1 0 0 -1 1 0 0 -1 52 0"/>
<path stroke="blue" d="M50 23l46 0"/>
<text stroke="none" fill="white" font-size="16" x="106" y="32">
x1.vsampled_n
</text>
<path stroke="blue" d="M50 431l1 0 1 -7 0 -15 1 -15 0 -4 1 1M54 414l0 -39 1 -4 0 -14 1 -3 0 -2 2 -2 1 0 1 -1 4 0M64 350l0 -1M64 350l4 0 1 -1 48 0 0 -1 1 -9 0 -19 1 -4 0 -5 1 -2 2 -2 418 0M540 308l0 -1 26 0 1 1 0 -1 7 0M574 329l0 -22M574 329l1 9"/>
<path stroke="blue" d="M575 347l0 -9M575 347l1 1 17 0M593 349l0 -1 26 0M619 349l0 -1 27 0M646 349l0 -1 26 0M672 349l0 -1 27 0M699 349l0 -1 26 0M725 349l0 -1 26 0M751 349l0 -1 18 0M769 350l0 -2M769 350l1 0 0 -1 8 0M778 350l0 -1 26 0M804 350l0 -1"/>
<path stroke="blue" d="M804 349l26 0 1 1 0 -1 87 0M918 350l0 -12 1 -1 0 -13 1 -4 0 -4 1 -3 0 -4 1 0 0 -1 1 0 0 -1 13 0M936 309l0 -2 38 0"/>
<path stroke="#FFA500" d="M462 39l46 0"/>
<text stroke="none" fill="white" font-size="16" x="518" y="48">
x1.vsampled_p-x1.vsampled_n
</text>
<path stroke="#FFA500" d="M50 431l2 0 1 1 1 0 0 -1 63 0M117 441l0 -10M117 441l1 21M118 493l0 -31M118 493l1 7M119 509l0 -9M119 509l1 3 1 1M121 514l0 -1M121 514l1 1 418 0 0 -1M540 515l6 0 0 -21 1 -3 0 -27 1 -2 0 -4 1 -2 0 -1 1 -1 4 0 0 -1M554 454l12 0"/>
<path stroke="#FFA500" d="M566 454l1 -1M567 454l0 -1M567 454l7 0 0 -22 1 -9 0 -9 1 -1 4 0 0 -1M580 413l20 0M600 432l0 -19M600 432l1 3M601 439l0 -4M601 437l1 -2 0 -1 1 -1 23 0 0 -17 1 -1 0 -1 1 1 18 0M646 416l0 -1 7 0M653 426l0 -11M653 426l1 2"/>
<path stroke="#FFA500" d="M654 428l0 -1 1 -1 4 0 0 -1M659 426l13 0 0 -1M672 426l7 0M679 432l0 -7M679 432l1 1M680 434l0 -3 26 0M706 434l0 -3M706 434l1 1 0 -2 24 0 0 -3 1 0M732 431l0 -1M732 431l37 0 0 -1 1 -1M770 430l0 -1M770 430l15 0M785 431l0 -1"/>
<path stroke="#FFA500" d="M785 431l1 0 0 -1 26 0M812 431l0 -1M812 431l106 0M918 458l0 -28M918 458l1 2M919 494l0 -34M919 494l1 9M920 508l0 -5M920 508l1 3M921 513l0 -2M921 513l1 0M922 514l0 -1M922 514l1 0M923 515l0 -1M923 515l13 0 0 -1M936 515l38 0"/>
<path stroke="green" d="M50 39l46 0"/>
<text stroke="none" fill="white" font-size="16" x="106" y="48">
x1.sw_sample-2
</text>
<path stroke="green" d="M50 613l1 0 1 -9 0 -21 1 -21M53 580l0 -24M53 580l1 30M54 613l0 -3M54 613l63 0M117 620l0 -172M117 449l422 0M539 614l0 -171M539 613l422 0M961 618l0 -170 1 1 12 0"/>
<path stroke="#FFC0C5" d="M462 55l46 0"/>
<text stroke="none" fill="white" font-size="16" x="518" y="64">
x1.comp_out_p+2
</text>
<path stroke="#FFC0C5" d="M50 249l1 0 1 -9 0 -22 1 -18 0 -4M53 198l1 5M54 250l0 -47M54 248l1 1 539 0M594 254l0 -171M594 85l14 0M608 249l0 -172M608 249l39 0M647 250l0 -166M647 85l14 0M661 250l0 -171M661 249l12 0M673 251l0 -2M673 251l1 -111 0 -57"/>
<path stroke="#FFC0C5" d="M674 85l13 0M687 249l0 -171M687 249l13 0 0 -147 1 -17 0 -1M701 85l12 0 0 -8 1 153M714 249l0 -19M714 249l49 0 0 -18 1 -119 0 -29M764 85l2 0M766 250l0 -169M766 250l1 -1 12 0 1 -147 0 -18M780 85l13 0M793 250l0 -172M793 249l14 0"/>
<path stroke="#FFC0C5" d="M807 249l0 -165M807 85l12 0M819 249l0 -174M819 249l14 0 1 -157 0 -8M834 85l11 0 0 -9 1 153M846 249l0 -20M846 249l42 0 0 -165M888 85l10 0M898 249l0 -173M898 249l15 0 0 -164 1 -1M914 85l0 -1M914 85l11 0M925 249l0 -167"/>
<path stroke="#FFC0C5" d="M925 249l49 0"/>
<path stroke="#A52A2A" d="M50 55l46 0"/>
<text stroke="none" fill="white" font-size="16" x="106" y="64">
x1.comp_out_n-2
</text>
<path stroke="#A52A2A" d="M50 613l1 0 1 -9 0 -22 1 -19M53 564l0 -3M53 564l1 6M54 613l0 -43M54 613l487 0 1 1 0 -167M542 449l13 0M555 613l0 -172M555 613l13 0M568 614l0 -166M568 449l13 0 0 -9 1 161M582 613l0 -12M582 613l39 0 0 -165 1 1 12 0M634 613l0 -173"/>
<path stroke="#A52A2A" d="M634 613l13 0M647 614l0 -1 80 0 0 -165M727 449l13 0M740 613l0 -166M740 613l120 0 1 -156 0 -9M861 449l11 0M872 613l0 -172M872 613l65 0M937 615l0 -2M937 615l1 -120 0 -48M938 449l13 0M951 613l0 -168M951 613l23 0"/>
</svg>
