<?xml version="1.0" standalone="yes"?>
<!DOCTYPE svg PUBLIC "-//W3C//DTD SVG 1.1//EN"
 "http://www.w3.org/Graphics/SVG/1.1/DTD/svg11.dtd">
<svg xmlns="http://www.w3.org/2000/svg" version="1.1"
  width="100%" height="100%" viewBox="0 0 1024 768"
  style="fill: none; font-family: Helvetica;
 font: Helvetica;
">

<!-- Creator: NGspice -->

<rect x="0" y="0" width="1024" height="768" fill="black" stroke="none"/>
<text stroke="none" fill="white" font-size="16" x="358" y="752">
time
</text>
<text stroke="none" fill="white" font-size="16" x="10" y="16">
tran1: run1945_vin0.80991
</text>
<path stroke="white" d="M50 704l0 -637"/>
<text stroke="none" fill="white" font-size="16" x="35" y="728">
0.0
</text>
<path stroke="white" stroke-dasharray="1,2" d="M182 704l0 -637"/>
<text stroke="none" fill="white" font-size="16" x="157" y="728">
100.0
</text>
<path stroke="white" stroke-dasharray="1,2" d="M314 704l0 -637"/>
<text stroke="none" fill="white" font-size="16" x="289" y="728">
200.0
</text>
<path stroke="white" stroke-dasharray="1,2" d="M446 704l0 -637"/>
<text stroke="none" fill="white" font-size="16" x="421" y="728">
300.0
</text>
<path stroke="white" stroke-dasharray="1,2" d="M578 704l0 -637"/>
<text stroke="none" fill="white" font-size="16" x="553" y="728">
400.0
</text>
<path stroke="white" stroke-dasharray="1,2" d="M710 704l0 -637"/>
<text stroke="none" fill="white" font-size="16" x="685" y="728">
500.0
</text>
<path stroke="white" stroke-dasharray="1,2" d="M842 704l0 -637"/>
<text stroke="none" fill="white" font-size="16" x="817" y="728">
600.0
</text>
<path stroke="white" stroke-dasharray="1,2" d="M974 704l0 -637"/>
<text stroke="none" fill="white" font-size="16" x="949" y="728">
700.0
</text>
<text stroke="none" fill="white" font-size="16" x="614" y="752">
ns
</text>
<path stroke="white" stroke-dasharray="1,2" d="M50 704l924 0"/>
<text stroke="none" fill="white" font-size="16" x="8" y="712">
-2.5
</text>
<path stroke="white" stroke-dasharray="1,2" d="M50 655l924 0"/>
<text stroke="none" fill="white" font-size="16" x="8" y="663">
-2.0
</text>
<path stroke="white" stroke-dasharray="1,2" d="M50 606l924 0"/>
<text stroke="none" fill="white" font-size="16" x="8" y="614">
-1.5
</text>
<path stroke="white" stroke-dasharray="1,2" d="M50 557l924 0"/>
<text stroke="none" fill="white" font-size="16" x="8" y="565">
-1.0
</text>
<path stroke="white" stroke-dasharray="1,2" d="M50 508l924 0"/>
<text stroke="none" fill="white" font-size="16" x="8" y="516">
-0.5
</text>
<path stroke="white" d="M50 459l924 0"/>
<text stroke="none" fill="white" font-size="16" x="18" y="467">
0.0
</text>
<path stroke="white" stroke-dasharray="1,2" d="M50 410l924 0"/>
<text stroke="none" fill="white" font-size="16" x="18" y="418">
0.5
</text>
<path stroke="white" stroke-dasharray="1,2" d="M50 361l924 0"/>
<text stroke="none" fill="white" font-size="16" x="18" y="369">
1.0
</text>
<path stroke="white" stroke-dasharray="1,2" d="M50 312l924 0"/>
<text stroke="none" fill="white" font-size="16" x="18" y="320">
1.5
</text>
<path stroke="white" stroke-dasharray="1,2" d="M50 263l924 0"/>
<text stroke="none" fill="white" font-size="16" x="18" y="271">
2.0
</text>
<path stroke="white" stroke-dasharray="1,2" d="M50 214l924 0"/>
<text stroke="none" fill="white" font-size="16" x="18" y="222">
2.5
</text>
<path stroke="white" stroke-dasharray="1,2" d="M50 165l924 0"/>
<text stroke="none" fill="white" font-size="16" x="18" y="173">
3.0
</text>
<path stroke="white" stroke-dasharray="1,2" d="M50 116l924 0"/>
<text stroke="none" fill="white" font-size="16" x="18" y="124">
3.5
</text>
<path stroke="white" stroke-dasharray="1,2" d="M50 67l924 0"/>
<text stroke="none" fill="white" font-size="16" x="18" y="75">
4.0
</text>
<text stroke="none" fill="white" font-size="16" x="10" y="32">
     
</text>
<path stroke="red" d="M462 23l46 0"/>
<text stroke="none" fill="white" font-size="16" x="518" y="32">
x1.vsampled_p
</text>
<path stroke="red" d="M50 459l1 0 1 -7 0 -17 1 -16 0 -5 1 2M54 441l0 -42 1 -5 0 -14 1 -3 0 -3 1 -1 0 -1 1 -1 59 0 0 -2 1 -12 0 -38 1 -7 0 -11 1 -3 0 -3 1 -1 0 -2 2 0 1 -1 415 0M539 292l0 -1M539 292l1 0M540 293l0 -1 14 0 0 -1M554 292l13 0M567 293l0 -1"/>
<path stroke="red" d="M567 292l7 0M574 319l0 -27M574 319l2 16M576 336l0 -1M576 336l4 0 0 -1M580 336l13 0M593 337l0 -1 7 0M600 350l0 -14M600 350l1 4M601 359l0 -5M601 359l1 -1 4 0 0 -1 1 0M607 358l0 -1M607 358l26 0 0 -1M633 358l20 0M653 367l0 -9"/>
<path stroke="red" d="M653 367l1 1M654 369l0 -1M654 369l52 0M706 372l0 -3M706 372l6 0 0 -1 13 0M725 372l0 -1M725 372l7 0 0 -3 27 0M759 371l0 -2M759 371l1 0 1 -1 17 0M778 371l0 -1 8 0M786 372l0 -2M786 371l132 0 1 1 0 -61 1 -3 0 -11 1 -2 0 -2 1 0"/>
<path stroke="red" d="M922 293l0 -1 1 0 0 -1M923 292l13 0M936 293l0 -1 14 0 0 -1M950 292l12 0 0 -1 12 0"/>
<path stroke="blue" d="M50 23l46 0"/>
<text stroke="none" fill="white" font-size="16" x="106" y="32">
x1.vsampled_n
</text>
<path stroke="blue" d="M50 459l1 0 1 -7 0 -17 1 -15 0 -5 1 2M54 441l0 -42 1 -5 0 -14 1 -3 0 -3 1 -1 0 -1 1 -1 59 0M117 395l0 -24M117 395l1 18M118 436l0 -23M118 436l1 3M119 445l0 -6M119 445l1 2M120 448l0 -1M120 448l1 1M121 450l0 -1M121 450l419 0"/>
<path stroke="blue" d="M540 451l0 -1 6 0 0 -26 1 -2 0 -22 1 -8 0 -5 1 -2 1 0 0 -1 17 0M567 385l0 -1 26 0M593 385l0 -1 26 0M619 385l0 -1 6 0 0 -14 1 -1 0 -5 1 0 1 1 5 0 0 -1M633 365l13 0M646 366l0 -1 26 0M672 366l0 -1 7 0M679 373l0 -8M679 373l1 1"/>
<path stroke="blue" d="M680 375l0 -4 6 0 0 -1 12 0 1 1 0 -1M699 371l13 0 0 -1 13 0M725 371l0 -1M725 371l13 0 0 -1 13 0M751 371l0 -1M751 371l1 0 0 -1M752 371l13 0 0 -1 13 0M778 371l0 -1M778 371l13 0 0 -1 13 0M804 371l0 -1 1 0M805 371l0 -1M805 371l7 0"/>
<path stroke="blue" d="M812 372l0 -1 107 0M919 463l0 -93M919 462l1 -1 0 -7 1 -1 0 -1 1 -1 1 0 0 -1 13 0M936 451l0 -1 38 0"/>
<path stroke="#FFA500" d="M462 39l46 0"/>
<text stroke="none" fill="white" font-size="16" x="518" y="48">
x1.vsampled_p-x1.vsampled_n
</text>
<path stroke="#FFA500" d="M50 459l2 0 0 -1 2 0M54 459l0 -1M54 459l63 0 0 -25 1 -31 0 -61 1 -10 0 -17 1 -5 0 -4 1 -2 0 -2 1 -1 1 0 0 -1 416 0M539 301l0 -1M539 301l1 -1M540 301l0 -1M540 301l6 0M546 326l0 -25M546 326l1 3M547 351l0 -22M547 351l1 8"/>
<path stroke="#FFA500" d="M548 363l0 -4M548 363l1 2 2 2 3 0 0 -1 12 0 1 1M567 368l0 -2M567 367l7 0M574 393l0 -26M574 393l1 9 1 7M576 411l0 -2M576 411l4 0 0 -1 13 0M593 411l0 -1M593 411l7 0M600 425l0 -15M600 425l1 4M601 434l0 -5M601 433l1 0 1 -1"/>
<path stroke="#FFA500" d="M603 433l0 -1M603 433l3 0 0 -1 13 0M619 433l0 -1 1 0M620 433l0 -1M620 433l5 0M625 446l0 -13M625 446l1 2M626 453l0 -5M626 453l1 0 0 -1 19 0 0 -1M646 452l7 0M653 460l0 -8M653 460l1 2M654 463l0 -1M654 463l18 0 0 -1M672 463l7 0"/>
<path stroke="#FFA500" d="M679 463l0 -8 1 -1M680 457l0 -4M680 457l26 0M706 460l0 -3M706 460l26 0 0 -3 1 0M733 458l0 -1M733 458l18 0 0 -1 1 0M752 458l0 -1M752 458l7 0M759 460l0 -2M759 459l27 0M786 460l0 -1M786 460l18 0 0 -1M804 460l8 0 0 -2M812 459l106 0"/>
<path stroke="#FFA500" d="M918 459l1 1 0 -152 1 -2 0 -4 1 -1 2 0 0 -1 13 0M936 302l0 -2M936 301l14 0 0 -1 24 0"/>
<path stroke="green" d="M50 39l46 0"/>
<text stroke="none" fill="white" font-size="16" x="106" y="48">
x1.sw_sample-2
</text>
<path stroke="green" d="M50 655l1 0 1 -10 0 -23 1 -21M53 618l0 -24M53 618l1 34M54 655l0 -3M54 655l63 0M117 662l0 -184 1 0M118 479l0 -1M118 479l421 0M539 656l0 -184M539 655l422 0M961 660l0 -182 1 0M962 479l0 -1M962 479l12 0"/>
<path stroke="#FFC0C5" d="M462 55l46 0"/>
<text stroke="none" fill="white" font-size="16" x="518" y="64">
x1.comp_out_p+2
</text>
<path stroke="#FFC0C5" d="M50 263l1 0 1 -10 0 -23 1 -20 0 -4M53 208l1 5M54 263l0 -50M54 263l488 0 0 -178M542 87l13 0M555 264l0 -182M555 263l13 0M568 266l0 -181M568 87l13 0 0 -3 1 79M582 264l0 -101M582 263l12 0M594 264l0 -179M594 86l1 1 13 0M608 263l0 -185"/>
<path stroke="#FFC0C5" d="M608 263l13 0 0 -178M621 87l13 0M634 263l0 -185M634 263l13 0M647 268l0 -183M647 87l14 0M661 264l0 -181M661 263l39 0 0 -178M700 86l1 1 12 0 0 -8 1 155M714 263l0 -29M714 263l39 0 0 -178M753 87l13 0M766 264l0 -187M766 263l14 0"/>
<path stroke="#FFC0C5" d="M780 263l1 -149 0 -28M781 87l12 0M793 264l0 -181M793 263l144 0M937 264l0 -1M937 264l1 -93 0 -86M938 87l13 0M951 263l0 -185M951 263l23 0"/>
<path stroke="#A52A2A" d="M50 55l46 0"/>
<text stroke="none" fill="white" font-size="16" x="106" y="64">
x1.comp_out_n-2
</text>
<path stroke="#A52A2A" d="M50 655l1 0 1 -10 0 -24 1 -20M53 602l0 -4M53 602l1 7M54 656l0 -47M54 652l1 3 618 0 1 2 0 -181M674 479l13 0M687 655l0 -185M687 655l40 0 0 -162 1 -15M728 479l0 -1M728 479l12 0M740 655l0 -186M740 655l67 0 0 -177M807 479l12 0"/>
<path stroke="#A52A2A" d="M819 655l0 -188M819 655l15 0 0 -177M834 479l11 0 0 -10 1 170M846 655l0 -16M846 655l15 0 0 -177M861 479l11 0M872 655l0 -186M872 655l15 0 0 -177 1 0M888 479l0 -1M888 479l10 0M898 655l0 -186M898 655l15 0 1 -162 0 -15M914 479l11 0"/>
<path stroke="#A52A2A" d="M925 656l0 -184M925 655l49 0"/>
</svg>
