<?xml version="1.0" standalone="yes"?>
<!DOCTYPE svg PUBLIC "-//W3C//DTD SVG 1.1//EN"
 "http://www.w3.org/Graphics/SVG/1.1/DTD/svg11.dtd">
<svg xmlns="http://www.w3.org/2000/svg" version="1.1"
  width="100%" height="100%" viewBox="0 0 1024 768"
  style="fill: none; font-family: Helvetica;
 font: Helvetica;
">

<!-- Creator: NGspice -->

<rect x="0" y="0" width="1024" height="768" fill="black" stroke="none"/>
<text stroke="none" fill="white" font-size="16" x="358" y="752">
time
</text>
<text stroke="none" fill="white" font-size="16" x="10" y="16">
tran1: run1622_vin0.526023
</text>
<path stroke="white" d="M50 704l0 -637"/>
<text stroke="none" fill="white" font-size="16" x="35" y="728">
0.0
</text>
<path stroke="white" stroke-dasharray="1,2" d="M182 704l0 -637"/>
<text stroke="none" fill="white" font-size="16" x="157" y="728">
100.0
</text>
<path stroke="white" stroke-dasharray="1,2" d="M314 704l0 -637"/>
<text stroke="none" fill="white" font-size="16" x="289" y="728">
200.0
</text>
<path stroke="white" stroke-dasharray="1,2" d="M446 704l0 -637"/>
<text stroke="none" fill="white" font-size="16" x="421" y="728">
300.0
</text>
<path stroke="white" stroke-dasharray="1,2" d="M578 704l0 -637"/>
<text stroke="none" fill="white" font-size="16" x="553" y="728">
400.0
</text>
<path stroke="white" stroke-dasharray="1,2" d="M710 704l0 -637"/>
<text stroke="none" fill="white" font-size="16" x="685" y="728">
500.0
</text>
<path stroke="white" stroke-dasharray="1,2" d="M842 704l0 -637"/>
<text stroke="none" fill="white" font-size="16" x="817" y="728">
600.0
</text>
<path stroke="white" stroke-dasharray="1,2" d="M974 704l0 -637"/>
<text stroke="none" fill="white" font-size="16" x="949" y="728">
700.0
</text>
<text stroke="none" fill="white" font-size="16" x="614" y="752">
ns
</text>
<path stroke="white" stroke-dasharray="1,2" d="M50 704l924 0"/>
<text stroke="none" fill="white" font-size="16" x="8" y="712">
-3.0
</text>
<path stroke="white" stroke-dasharray="1,2" d="M50 613l924 0"/>
<text stroke="none" fill="white" font-size="16" x="8" y="621">
-2.0
</text>
<path stroke="white" stroke-dasharray="1,2" d="M50 522l924 0"/>
<text stroke="none" fill="white" font-size="16" x="8" y="530">
-1.0
</text>
<path stroke="white" d="M50 431l924 0"/>
<text stroke="none" fill="white" font-size="16" x="18" y="439">
0.0
</text>
<path stroke="white" stroke-dasharray="1,2" d="M50 340l924 0"/>
<text stroke="none" fill="white" font-size="16" x="18" y="348">
1.0
</text>
<path stroke="white" stroke-dasharray="1,2" d="M50 249l924 0"/>
<text stroke="none" fill="white" font-size="16" x="18" y="257">
2.0
</text>
<path stroke="white" stroke-dasharray="1,2" d="M50 158l924 0"/>
<text stroke="none" fill="white" font-size="16" x="18" y="166">
3.0
</text>
<path stroke="white" stroke-dasharray="1,2" d="M50 67l924 0"/>
<text stroke="none" fill="white" font-size="16" x="18" y="75">
4.0
</text>
<text stroke="none" fill="white" font-size="16" x="10" y="32">
     
</text>
<path stroke="red" d="M462 23l46 0"/>
<text stroke="none" fill="white" font-size="16" x="518" y="32">
x1.vsampled_p
</text>
<path stroke="red" d="M50 431l1 0 1 -7 0 -15 1 -15 0 -4 1 1M54 414l0 -39 1 -4 0 -14 1 -2 0 -3 2 -2 1 0 1 -1 3 0 1 1 4 0 1 -1 48 0 0 -1 1 -10 0 -21 1 -4 0 -7 1 -2 0 -1 1 -1 1 0 0 -1 417 0M539 302l0 -1M539 302l1 0 0 -1M540 302l14 0 0 -1 12 0 1 1"/>
<path stroke="red" d="M567 303l0 -1 6 0 1 -1M574 324l0 -23M574 324l1 9M575 341l0 -8M575 341l1 1 17 0M593 343l0 -1 26 0M619 343l0 -1 27 0M646 343l0 -1 26 0M672 343l0 -1 7 0M679 347l0 -5M679 347l1 1M680 349l0 -1 1 -1 17 0 1 1 0 -1 7 0M706 350l0 -3"/>
<path stroke="red" d="M706 350l1 0M707 351l0 -1 25 0 0 -3M732 348l27 0M759 350l0 -2M759 349l54 0M813 350l0 -1 17 0 1 1 0 -1 86 0M917 350l0 -1M917 350l1 0 0 -29 1 -2 0 -8 1 -2 0 -3 1 -2 0 -2 2 0 0 -1 13 0M936 303l0 -2M936 302l14 0 0 -1 24 0"/>
<path stroke="blue" d="M50 23l46 0"/>
<text stroke="none" fill="white" font-size="16" x="106" y="32">
x1.vsampled_n
</text>
<path stroke="blue" d="M50 431l1 0 1 -7 0 -15 1 -14 0 -5 1 2M54 415l0 -40 1 -4 0 -14 1 -2 0 -3 2 -2 1 0 1 -1 3 0 1 1 4 0 1 -1 48 0M117 360l0 -11M117 360l1 13M118 386l0 -13M118 386l1 3M119 394l0 -5M119 394l1 1M120 396l0 -1M120 396l1 1 425 0 0 -19"/>
<path stroke="blue" d="M546 378l1 -3 0 -26 1 -5 0 -5 1 -1 0 -1 1 -1 4 0 0 -1M554 336l13 0M567 337l0 -1 13 0 0 -1M580 336l20 0M600 355l0 -19M600 355l1 3M601 362l0 -4M601 361l1 -3 0 -2 17 0M619 357l0 -1 6 0 0 -13 1 -1 0 -5 1 0M627 338l0 -1M627 338l19 0"/>
<path stroke="blue" d="M646 339l0 -1 7 0M653 349l0 -11M653 349l1 2 0 -1 1 -1 4 0 0 -1 1 0M660 349l0 -1M660 349l12 0 0 -1M672 349l14 0 0 -1M686 349l12 0 0 -1M698 349l1 0 0 -1M699 349l13 0 0 -1M712 349l13 0 0 -1M725 349l13 0 0 -1 1 0M739 349l0 -1"/>
<path stroke="blue" d="M739 349l12 0 0 -1M751 349l1 0 0 -1M752 349l13 0 0 -1M765 349l13 0 0 -1M778 349l7 0M785 350l0 -1M785 350l1 0 0 -1 18 0M804 350l0 -1 27 0M831 350l0 -1 26 0M857 350l0 -1 26 0M883 350l0 -1 27 0M910 350l0 -1 8 0M918 388l0 -39"/>
<path stroke="blue" d="M918 388l1 3M919 399l0 -8M919 399l1 0 1 -1 0 -1 53 0"/>
<path stroke="#FFA500" d="M462 39l46 0"/>
<text stroke="none" fill="white" font-size="16" x="518" y="48">
x1.vsampled_p-x1.vsampled_n
</text>
<path stroke="#FFA500" d="M50 431l2 0 1 -1 1 0M54 431l0 -1M54 431l63 0 0 -12 1 -22 0 -35 1 -8 0 -11 1 -3 0 -2 1 -2 1 0 1 -1 417 0M540 336l0 -1M540 336l1 0 0 -1 5 0M546 355l0 -20M546 355l1 2M547 384l0 -27M547 384l1 4M548 394l0 -6M548 394l1 0M549 396l0 -2"/>
<path stroke="#FFA500" d="M549 396l1 0M550 397l0 -1M550 397l17 0 0 -1M567 397l6 0 1 -1M574 419l0 -23M574 419l1 9M575 437l0 -9M575 437l1 0M576 438l0 -1M576 438l17 0 0 -1M593 438l7 0 0 -20 1 -3 0 -4M601 413l1 2M602 417l0 -2M602 417l23 0M625 430l0 -13"/>
<path stroke="#FFA500" d="M625 430l1 1M626 436l0 -5M626 436l1 0 1 -1 25 0 0 -11 1 -2M654 423l0 -1M654 423l1 1M655 425l0 -1M655 425l24 0M679 430l0 -5M679 430l1 1 0 -1 26 0M706 433l0 -3M706 433l1 0 0 -1 5 0M712 433l0 -1 20 0 0 -2 27 0M759 432l0 -2"/>
<path stroke="#FFA500" d="M759 432l1 0 0 -1 5 0M765 432l0 -1 1 0M766 432l0 -1 12 0M778 432l0 -1 7 0 0 -1 1 0M786 431l0 -1M786 431l27 0M813 432l0 -1 104 0M917 432l0 -1M917 432l1 0 0 -68 1 -4 0 -16 1 -3 0 -3 1 -1 0 -1 2 0 0 -1 13 0M936 337l0 -2"/>
<path stroke="#FFA500" d="M936 335l38 0"/>
<path stroke="green" d="M50 39l46 0"/>
<text stroke="none" fill="white" font-size="16" x="106" y="48">
x1.sw_sample-2
</text>
<path stroke="green" d="M50 613l1 0 1 -9 0 -21 1 -21M53 580l0 -24M53 580l1 30M54 613l0 -3M54 613l63 0M117 620l0 -172M117 449l422 0M539 614l0 -171M539 613l422 0M961 618l0 -170 1 1 12 0"/>
<path stroke="#FFC0C5" d="M462 55l46 0"/>
<text stroke="none" fill="white" font-size="16" x="518" y="64">
x1.comp_out_p+2
</text>
<path stroke="#FFC0C5" d="M50 249l1 0 1 -9 0 -22 1 -18 0 -4M53 198l1 5M54 249l0 -46M54 249l488 0 0 -165M542 85l13 0M555 250l0 -168M555 249l13 0 0 -165M568 85l13 0 0 -3 1 92M582 250l0 -76M582 249l39 0M621 252l0 -169M621 85l13 0M634 249l0 -172"/>
<path stroke="#FFC0C5" d="M634 249l39 0M673 250l0 -19 1 -117 0 -31M674 85l13 0M687 249l0 -172M687 249l13 0 0 -162 1 -3M701 85l0 -1M701 85l12 0 0 -8 1 162M714 250l0 -11M714 249l39 0 0 -165 1 0M754 85l0 -1M754 85l12 0M766 250l0 -170M766 249l41 0"/>
<path stroke="#FFC0C5" d="M807 249l0 -147 1 -17 0 -1M808 85l11 0M819 249l0 -168M819 249l41 0 0 -165M860 85l12 0M872 249l0 -174M872 249l14 0 0 -157 1 -8M887 85l0 -1M887 85l11 0M898 249l0 -174M898 249l15 0 0 -165M913 85l12 0M925 249l0 -171M925 249l12 0"/>
<path stroke="#FFC0C5" d="M937 250l0 -1M937 250l1 -72 0 -94M938 85l13 0M951 250l0 -168M951 249l23 0"/>
<path stroke="#A52A2A" d="M50 55l46 0"/>
<text stroke="none" fill="white" font-size="16" x="106" y="64">
x1.comp_out_n-2
</text>
<path stroke="#A52A2A" d="M50 613l1 0 1 -9 0 -22 1 -19M53 564l0 -3M53 564l1 6M54 614l0 -44M54 612l1 1 539 0M594 620l0 -173M594 449l14 0M608 613l0 -170M608 613l39 0M647 615l0 -168M647 449l14 0M661 613l0 -172M661 613l66 0 0 -165M727 449l13 0M740 613l0 -167"/>
<path stroke="#A52A2A" d="M740 613l40 0 0 -165M780 449l13 0M793 613l0 -167M793 613l41 0 0 -164 11 0 0 -2M845 448l1 154M846 613l0 -11M846 613l128 0"/>
</svg>
