<?xml version="1.0" standalone="yes"?>
<!DOCTYPE svg PUBLIC "-//W3C//DTD SVG 1.1//EN"
 "http://www.w3.org/Graphics/SVG/1.1/DTD/svg11.dtd">
<svg xmlns="http://www.w3.org/2000/svg" version="1.1"
  width="100%" height="100%" viewBox="0 0 1024 768"
  style="fill: none; font-family: Helvetica;
 font: Helvetica;
">

<!-- Creator: NGspice -->

<rect x="0" y="0" width="1024" height="768" fill="black" stroke="none"/>
<text stroke="none" fill="white" font-size="16" x="358" y="752">
time
</text>
<text stroke="none" fill="white" font-size="16" x="10" y="16">
tran1: run1840_vin0.717625
</text>
<path stroke="white" d="M50 704l0 -637"/>
<text stroke="none" fill="white" font-size="16" x="35" y="728">
0.0
</text>
<path stroke="white" stroke-dasharray="1,2" d="M182 704l0 -637"/>
<text stroke="none" fill="white" font-size="16" x="157" y="728">
100.0
</text>
<path stroke="white" stroke-dasharray="1,2" d="M314 704l0 -637"/>
<text stroke="none" fill="white" font-size="16" x="289" y="728">
200.0
</text>
<path stroke="white" stroke-dasharray="1,2" d="M446 704l0 -637"/>
<text stroke="none" fill="white" font-size="16" x="421" y="728">
300.0
</text>
<path stroke="white" stroke-dasharray="1,2" d="M578 704l0 -637"/>
<text stroke="none" fill="white" font-size="16" x="553" y="728">
400.0
</text>
<path stroke="white" stroke-dasharray="1,2" d="M710 704l0 -637"/>
<text stroke="none" fill="white" font-size="16" x="685" y="728">
500.0
</text>
<path stroke="white" stroke-dasharray="1,2" d="M842 704l0 -637"/>
<text stroke="none" fill="white" font-size="16" x="817" y="728">
600.0
</text>
<path stroke="white" stroke-dasharray="1,2" d="M974 704l0 -637"/>
<text stroke="none" fill="white" font-size="16" x="949" y="728">
700.0
</text>
<text stroke="none" fill="white" font-size="16" x="614" y="752">
ns
</text>
<path stroke="white" stroke-dasharray="1,2" d="M50 704l924 0"/>
<text stroke="none" fill="white" font-size="16" x="8" y="712">
-3.0
</text>
<path stroke="white" stroke-dasharray="1,2" d="M50 613l924 0"/>
<text stroke="none" fill="white" font-size="16" x="8" y="621">
-2.0
</text>
<path stroke="white" stroke-dasharray="1,2" d="M50 522l924 0"/>
<text stroke="none" fill="white" font-size="16" x="8" y="530">
-1.0
</text>
<path stroke="white" d="M50 431l924 0"/>
<text stroke="none" fill="white" font-size="16" x="18" y="439">
0.0
</text>
<path stroke="white" stroke-dasharray="1,2" d="M50 340l924 0"/>
<text stroke="none" fill="white" font-size="16" x="18" y="348">
1.0
</text>
<path stroke="white" stroke-dasharray="1,2" d="M50 249l924 0"/>
<text stroke="none" fill="white" font-size="16" x="18" y="257">
2.0
</text>
<path stroke="white" stroke-dasharray="1,2" d="M50 158l924 0"/>
<text stroke="none" fill="white" font-size="16" x="18" y="166">
3.0
</text>
<path stroke="white" stroke-dasharray="1,2" d="M50 67l924 0"/>
<text stroke="none" fill="white" font-size="16" x="18" y="75">
4.0
</text>
<text stroke="none" fill="white" font-size="16" x="10" y="32">
     
</text>
<path stroke="red" d="M462 23l46 0"/>
<text stroke="none" fill="white" font-size="16" x="518" y="32">
x1.vsampled_p
</text>
<path stroke="red" d="M50 431l1 0 1 -7 0 -16 1 -14 0 -5 1 2M54 414l0 -38 1 -4 0 -14 1 -3 0 -2 1 -2 0 -1 2 0 1 -1 3 0 1 1 5 0 0 -1 48 0 0 -1 1 -11 0 -34 1 -5 0 -8 1 -3 0 -1 2 -2 418 0M540 285l0 -1 27 0M567 286l0 -2 6 0 1 4M574 313l0 -25M574 313l1 9"/>
<path stroke="red" d="M575 322l1 3 17 0M593 326l0 -1 7 0M600 340l0 -15M600 340l1 3M601 346l0 -3M601 346l1 0 0 -1 17 0M619 346l0 -1 27 0M646 346l0 -1 26 0M672 346l0 -1 7 0M679 349l0 -4M679 349l1 0M680 352l0 -3M680 351l1 0 0 -1 17 0 1 1 0 -1 26 0"/>
<path stroke="red" d="M725 351l0 -1 6 0 0 -2 20 0M751 349l0 -1 27 0M778 349l0 -1 7 0M785 349l0 -1M785 349l27 0M812 350l0 -1 19 0M831 350l0 -1 87 0M918 350l0 -30 1 -3 0 -21 1 -3 0 -4 1 -2 0 -2 1 0 0 -1 14 0M936 286l0 -2 14 0 0 -1M950 284l24 0"/>
<path stroke="blue" d="M50 23l46 0"/>
<text stroke="none" fill="white" font-size="16" x="106" y="32">
x1.vsampled_n
</text>
<path stroke="blue" d="M50 431l1 0 1 -7 0 -15 1 -14 0 -5 1 2M54 414l0 -38 1 -4 0 -14 1 -3 0 -2 1 -2 0 -1 2 0 1 -1 3 0 1 1 4 0 1 -1 48 0M117 367l0 -18M117 367l1 16M118 403l0 -20M118 403l1 3M119 411l0 -5M119 411l1 1M120 413l0 -1M120 413l1 1 418 0"/>
<path stroke="blue" d="M539 414l1 1 1 -1M541 415l0 -1M541 415l5 0 0 -28 1 -4 0 -19 1 -6 0 -3 2 -2 17 0M567 354l0 -1 26 0M593 354l0 -1 26 0M619 354l0 -1M619 354l1 0 0 -1 5 0 0 -9 1 -3 0 -7 1 0M627 335l0 -1M627 335l19 0M646 336l0 -1 7 0M653 346l0 -11"/>
<path stroke="blue" d="M653 346l1 2 0 -1 1 -1 4 0 0 -1 1 0M660 346l0 -1M660 346l12 0 0 -1M672 346l14 0 0 -1M686 346l12 0 0 -1M698 346l1 0 0 -1M699 346l7 0M706 350l0 -4M706 349l1 -1 18 0M725 349l0 -1 26 0M751 349l0 -1 8 0M759 351l0 -3M759 350l1 0"/>
<path stroke="blue" d="M760 350l0 -1 18 0M778 350l0 -1 26 0M804 350l0 -1 26 0 1 1 0 -1 26 0M857 350l0 -1 26 0M883 350l0 -1 27 0M910 350l0 -1 8 0M918 405l0 -58M918 405l1 4M919 420l0 -11M919 420l1 -1 0 -2 1 -1 0 -1 2 0 0 -1M923 415l2 0 0 -1 11 0"/>
<path stroke="blue" d="M936 415l0 -1M936 415l14 0 0 -1 24 0"/>
<path stroke="#FFA500" d="M462 39l46 0"/>
<text stroke="none" fill="white" font-size="16" x="518" y="48">
x1.vsampled_p-x1.vsampled_n
</text>
<path stroke="#FFA500" d="M50 431l2 0 0 -1 2 0M54 431l0 -1M54 431l63 0 0 -19 1 -27 0 -54 1 -8 0 -13 1 -4 0 -3 2 -2 1 0 1 -1 415 0M539 301l0 -1M539 301l1 0 0 -1M540 301l6 0M546 328l0 -27M546 328l1 4M547 351l0 -19M547 351l1 6M548 360l0 -3M548 360l2 2"/>
<path stroke="#FFA500" d="M550 362l4 0 0 -1M554 362l13 0M567 363l0 -1 6 0 1 4M574 391l0 -25M574 391l1 9 1 3 24 0M600 418l0 -15M600 418l1 3M601 424l0 -3M601 424l1 0 0 -1 23 0M625 432l0 -9M625 432l1 3M626 442l0 -7M626 442l1 0 1 -1 18 0 0 -1M646 441l7 0"/>
<path stroke="#FFA500" d="M653 441l0 -11 1 -2M654 430l0 -2M654 430l1 0M655 431l0 -1M655 431l24 0M679 434l0 -3M679 434l1 1M680 437l0 -2M680 436l26 0 0 -4 1 1 5 0M712 434l0 -1 19 0 0 -2 28 0 0 -3M759 429l1 1 25 0M785 431l0 -1M785 431l19 0 0 -1"/>
<path stroke="#FFA500" d="M804 431l8 0 0 -1M812 431l26 0M838 432l0 -1 80 0M918 433l0 -87 1 -8 0 -31 1 -2 0 -2 1 -1 0 -1 2 0 0 -1 13 0M936 302l0 -2M936 301l14 0 0 -1 12 0M962 301l0 -1 12 0"/>
<path stroke="green" d="M50 39l46 0"/>
<text stroke="none" fill="white" font-size="16" x="106" y="48">
x1.sw_sample-2
</text>
<path stroke="green" d="M50 613l1 0 1 -9 0 -21 1 -21M53 579l0 -23M53 579l1 31M54 613l0 -3M54 613l63 0M117 620l0 -172M117 449l422 0M539 614l0 -171M539 613l422 0M961 618l0 -170 1 1 12 0"/>
<path stroke="#FFC0C5" d="M462 55l46 0"/>
<text stroke="none" fill="white" font-size="16" x="518" y="64">
x1.comp_out_p+2
</text>
<path stroke="#FFC0C5" d="M50 249l1 0 1 -9 0 -22 1 -18 0 -4M53 198l1 5M54 249l0 -46M54 248l1 1 487 0M542 254l0 -171M542 85l13 0M555 249l0 -172M555 249l13 0M568 250l0 -166M568 85l13 0 0 -8 1 150M582 249l0 -22M582 249l12 0M594 250l0 -167M594 85l14 0"/>
<path stroke="#FFC0C5" d="M608 250l0 -169M608 249l13 0M621 250l0 -166M621 85l13 0M634 249l0 -173M634 249l40 0 0 -165M674 85l13 0M687 249l0 -171M687 249l93 0 0 -165M780 85l13 0M793 249l0 -172M793 249l14 0 0 -165M807 85l12 0M819 249l0 -167M819 249l15 0"/>
<path stroke="#FFC0C5" d="M834 249l0 -164 11 0 0 -10 1 142M846 249l0 -32M846 249l91 0M937 250l0 -1M937 250l1 -86 0 -81M938 85l13 0M951 250l0 -171M951 249l23 0"/>
<path stroke="#A52A2A" d="M50 55l46 0"/>
<text stroke="none" fill="white" font-size="16" x="106" y="64">
x1.comp_out_n-2
</text>
<path stroke="#A52A2A" d="M50 613l1 0 1 -9 0 -22 1 -19M53 564l0 -3M53 564l1 6M54 614l0 -44M54 607l1 5M55 613l0 -1M55 613l513 0M568 614l0 -1 79 0M647 614l0 -167M647 449l14 0M661 613l0 -173M661 613l39 0M700 615l0 -168M700 449l13 0 0 -8 1 151M714 613l0 -21"/>
<path stroke="#A52A2A" d="M714 613l13 0 0 -165M727 449l13 0M740 613l0 -172M740 613l13 0 0 -143 1 -20 0 -2M754 449l12 0M766 613l0 -173M766 613l94 0 0 -164 12 0M872 613l0 -174M872 613l14 0 1 -150 0 -15M887 449l11 0M898 613l0 -174M898 613l15 0 0 -165"/>
<path stroke="#A52A2A" d="M913 449l12 0M925 613l0 -173M925 613l49 0"/>
</svg>
