<?xml version="1.0" standalone="yes"?>
<!DOCTYPE svg PUBLIC "-//W3C//DTD SVG 1.1//EN"
 "http://www.w3.org/Graphics/SVG/1.1/DTD/svg11.dtd">
<svg xmlns="http://www.w3.org/2000/svg" version="1.1"
  width="100%" height="100%" viewBox="0 0 1024 768"
  style="fill: none; font-family: Helvetica;
 font: Helvetica;
">

<!-- Creator: NGspice -->

<rect x="0" y="0" width="1024" height="768" fill="black" stroke="none"/>
<text stroke="none" fill="white" font-size="16" x="358" y="752">
time
</text>
<text stroke="none" fill="white" font-size="16" x="10" y="16">
tran1: run1845_vin0.722019
</text>
<path stroke="white" d="M50 704l0 -637"/>
<text stroke="none" fill="white" font-size="16" x="35" y="728">
0.0
</text>
<path stroke="white" stroke-dasharray="1,2" d="M182 704l0 -637"/>
<text stroke="none" fill="white" font-size="16" x="157" y="728">
100.0
</text>
<path stroke="white" stroke-dasharray="1,2" d="M314 704l0 -637"/>
<text stroke="none" fill="white" font-size="16" x="289" y="728">
200.0
</text>
<path stroke="white" stroke-dasharray="1,2" d="M446 704l0 -637"/>
<text stroke="none" fill="white" font-size="16" x="421" y="728">
300.0
</text>
<path stroke="white" stroke-dasharray="1,2" d="M578 704l0 -637"/>
<text stroke="none" fill="white" font-size="16" x="553" y="728">
400.0
</text>
<path stroke="white" stroke-dasharray="1,2" d="M710 704l0 -637"/>
<text stroke="none" fill="white" font-size="16" x="685" y="728">
500.0
</text>
<path stroke="white" stroke-dasharray="1,2" d="M842 704l0 -637"/>
<text stroke="none" fill="white" font-size="16" x="817" y="728">
600.0
</text>
<path stroke="white" stroke-dasharray="1,2" d="M974 704l0 -637"/>
<text stroke="none" fill="white" font-size="16" x="949" y="728">
700.0
</text>
<text stroke="none" fill="white" font-size="16" x="614" y="752">
ns
</text>
<path stroke="white" stroke-dasharray="1,2" d="M50 704l924 0"/>
<text stroke="none" fill="white" font-size="16" x="8" y="712">
-3.0
</text>
<path stroke="white" stroke-dasharray="1,2" d="M50 613l924 0"/>
<text stroke="none" fill="white" font-size="16" x="8" y="621">
-2.0
</text>
<path stroke="white" stroke-dasharray="1,2" d="M50 522l924 0"/>
<text stroke="none" fill="white" font-size="16" x="8" y="530">
-1.0
</text>
<path stroke="white" d="M50 431l924 0"/>
<text stroke="none" fill="white" font-size="16" x="18" y="439">
0.0
</text>
<path stroke="white" stroke-dasharray="1,2" d="M50 340l924 0"/>
<text stroke="none" fill="white" font-size="16" x="18" y="348">
1.0
</text>
<path stroke="white" stroke-dasharray="1,2" d="M50 249l924 0"/>
<text stroke="none" fill="white" font-size="16" x="18" y="257">
2.0
</text>
<path stroke="white" stroke-dasharray="1,2" d="M50 158l924 0"/>
<text stroke="none" fill="white" font-size="16" x="18" y="166">
3.0
</text>
<path stroke="white" stroke-dasharray="1,2" d="M50 67l924 0"/>
<text stroke="none" fill="white" font-size="16" x="18" y="75">
4.0
</text>
<text stroke="none" fill="white" font-size="16" x="10" y="32">
     
</text>
<path stroke="red" d="M462 23l46 0"/>
<text stroke="none" fill="white" font-size="16" x="518" y="32">
x1.vsampled_p
</text>
<path stroke="red" d="M50 431l1 0 1 -7 0 -16 1 -14 0 -5 1 2M54 414l0 -38 1 -4 0 -14 1 -3 0 -2 1 -2 0 -1 2 0 1 -1 3 0 1 1 5 0 0 -1 48 0 0 -1 1 -11 0 -34 1 -5 0 -9 1 -2 0 -2 1 -1 1 0 1 -1 416 0M539 284l0 -1M539 284l1 0M540 285l0 -1 14 0 0 -1M554 284l13 0"/>
<path stroke="red" d="M567 285l0 -1 7 0M574 307l0 -23M574 307l1 7M575 323l0 -9M575 323l1 2 4 0 0 -1 13 0M593 325l0 -1M593 325l7 0M600 340l0 -15M600 340l1 3M601 346l0 -3M601 345l78 0M679 348l0 -3M679 348l1 1M680 351l0 -2M680 350l52 0 0 -3M732 348l27 0"/>
<path stroke="red" d="M759 350l0 -2M759 349l55 0M814 350l0 -1 16 0 1 1 0 -1 88 0M919 350l0 -42 1 -3 0 -13 1 -2 0 -4 1 0 0 -2 1 0 0 -1M923 284l13 0M936 285l0 -1 14 0 0 -1M950 284l11 0 0 -1 13 0"/>
<path stroke="blue" d="M50 23l46 0"/>
<text stroke="none" fill="white" font-size="16" x="106" y="32">
x1.vsampled_n
</text>
<path stroke="blue" d="M50 431l1 0 1 -7 0 -15 1 -14 0 -5 1 2M54 414l0 -38 1 -4 0 -14 1 -3 0 -2 1 -2 0 -1 2 0 1 -1 3 0 1 1 4 0 1 -1 48 0M117 367l0 -18M117 367l1 16M118 404l0 -21M118 404l1 2M119 411l0 -5M119 411l1 2M120 414l0 -1M120 414l1 0 1 1"/>
<path stroke="blue" d="M122 415l424 0 0 -23 1 -2 0 -26 1 -6 1 -3 0 -1 5 0 0 -1M554 354l13 0 0 -1M567 354l13 0 0 -1M580 354l13 0 0 -1M593 354l13 0 0 -1 1 0M607 354l0 -1M607 354l13 0 0 -1M620 354l5 0 0 -8 1 -4 0 -7 2 0M628 336l0 -1M628 336l5 0"/>
<path stroke="blue" d="M633 336l0 -1M633 336l13 0M646 337l0 -1 7 0M653 347l0 -11M653 347l1 2 0 -2 1 0 0 -1 51 0M706 350l0 -4M706 349l6 0 0 -1 13 0M725 349l0 -1M725 349l13 0 0 -1 13 0M751 349l0 -1M751 349l1 0 0 -1M752 349l13 0 0 -1 13 0M778 349l0 -1"/>
<path stroke="blue" d="M778 349l7 0 1 1 0 -1 18 0M804 350l0 -1 27 0M831 350l0 -1 26 0M857 350l0 -1 26 0M883 350l0 -1 27 0M910 350l0 -1 9 0M919 418l0 -71M919 418l1 1M920 420l0 -1 1 -1 0 -2 1 0 0 -1 52 0"/>
<path stroke="#FFA500" d="M462 39l46 0"/>
<text stroke="none" fill="white" font-size="16" x="518" y="48">
x1.vsampled_p-x1.vsampled_n
</text>
<path stroke="#FFA500" d="M50 431l2 0 0 -1 2 0M54 431l0 -1M54 431l63 0 0 -19 1 -27 0 -55 1 -7 0 -14 1 -4 0 -2 1 -2 1 -1 418 0M540 301l0 -1 6 0M546 322l0 -22M546 322l1 3M547 351l0 -26M547 351l1 6 1 3M549 361l0 -1M549 361l18 0M567 362l0 -1 7 0"/>
<path stroke="#FFA500" d="M574 384l0 -23M574 384l1 7M575 400l0 -9M575 400l1 2 24 0M600 417l0 -15M600 417l1 4M601 423l0 -2M601 423l1 0 0 -1 18 0M620 423l0 -1 5 0M625 430l0 -8M625 430l1 4M626 441l0 -7M626 441l2 0 0 -1 5 0M633 441l0 -1 20 0 0 -11"/>
<path stroke="#FFA500" d="M653 429l1 -2M654 429l0 -2M654 429l1 1 24 0M679 433l0 -3M679 433l1 1M680 436l0 -2M680 435l26 0 0 -4M706 432l1 0M707 433l0 -1M707 433l18 0 0 -1M725 433l7 0 0 -3 27 0M759 432l0 -2M759 432l19 0 0 -1M778 432l7 0 0 -1 1 -1"/>
<path stroke="#FFA500" d="M786 431l0 -1M786 431l28 0M814 432l0 -1 105 0M919 433l0 -112 1 -4 0 -13 1 -2 0 -1 1 0 0 -1 1 0 0 -1M923 300l13 0M936 301l0 -1 14 0 0 -1M950 300l24 0"/>
<path stroke="green" d="M50 39l46 0"/>
<text stroke="none" fill="white" font-size="16" x="106" y="48">
x1.sw_sample-2
</text>
<path stroke="green" d="M50 613l1 0 1 -9 0 -21 1 -21M53 579l0 -23M53 579l1 31M54 613l0 -3M54 613l63 0M117 620l0 -172M117 449l422 0M539 614l0 -171M539 613l422 0M961 618l0 -170 1 1 12 0"/>
<path stroke="#FFC0C5" d="M462 55l46 0"/>
<text stroke="none" fill="white" font-size="16" x="518" y="64">
x1.comp_out_p+2
</text>
<path stroke="#FFC0C5" d="M50 249l1 0 1 -9 0 -22 1 -18 0 -4M53 198l1 5M54 249l0 -46M54 248l1 1 487 0 0 -165M542 85l13 0M555 249l0 -171M555 249l13 0M568 250l0 -167M568 85l13 0 0 -8 1 155M582 249l0 -17M582 249l12 0 0 -165M594 85l14 0M608 250l0 -171"/>
<path stroke="#FFC0C5" d="M608 249l13 0 0 -165M621 85l13 0M634 250l0 -169M634 249l40 0M674 250l0 -167M674 85l13 0M687 249l0 -172M687 249l66 0 0 -164 1 -1M754 85l0 -1M754 85l12 0M766 249l0 -171M766 249l42 0 1 -157 0 -8M809 85l10 0M819 249l0 -173"/>
<path stroke="#FFC0C5" d="M819 249l42 0 1 -157 0 -8M862 85l10 0M872 249l0 -172M872 249l15 0 0 -164 11 0M898 249l0 -172M898 249l15 0 1 -154 0 -10 11 0M925 249l0 -172M925 249l12 0 1 -47 0 -118M938 85l13 0M951 249l0 -171M951 249l23 0"/>
<path stroke="#A52A2A" d="M50 55l46 0"/>
<text stroke="none" fill="white" font-size="16" x="106" y="64">
x1.comp_out_n-2
</text>
<path stroke="#A52A2A" d="M50 613l1 0 1 -9 0 -22 1 -19M53 564l0 -3M53 564l1 6M54 614l0 -44M54 607l1 5M55 613l0 -1M55 613l592 0 0 -165M647 449l14 0M661 613l0 -172M661 613l39 0 0 -165M700 449l13 0 0 -9 1 164M714 613l0 -9M714 613l13 0 0 -165M727 449l13 0"/>
<path stroke="#A52A2A" d="M740 613l0 -173M740 613l40 0 0 -165M780 449l13 0M793 613l0 -173M793 613l40 0 1 -150 0 -15M834 449l11 0 0 -9 1 158M846 613l0 -15M846 613l128 0"/>
</svg>
