<?xml version="1.0" standalone="yes"?>
<!DOCTYPE svg PUBLIC "-//W3C//DTD SVG 1.1//EN"
 "http://www.w3.org/Graphics/SVG/1.1/DTD/svg11.dtd">
<svg xmlns="http://www.w3.org/2000/svg" version="1.1"
  width="100%" height="100%" viewBox="0 0 1024 768"
  style="fill: none; font-family: Helvetica;
 font: Helvetica;
">

<!-- Creator: NGspice -->

<rect x="0" y="0" width="1024" height="768" fill="black" stroke="none"/>
<text stroke="none" fill="white" font-size="16" x="358" y="752">
time
</text>
<text stroke="none" fill="white" font-size="16" x="10" y="16">
tran1: run750_vin-0.240382
</text>
<path stroke="white" d="M50 704l0 -637"/>
<text stroke="none" fill="white" font-size="16" x="35" y="728">
0.0
</text>
<path stroke="white" stroke-dasharray="1,2" d="M182 704l0 -637"/>
<text stroke="none" fill="white" font-size="16" x="157" y="728">
100.0
</text>
<path stroke="white" stroke-dasharray="1,2" d="M314 704l0 -637"/>
<text stroke="none" fill="white" font-size="16" x="289" y="728">
200.0
</text>
<path stroke="white" stroke-dasharray="1,2" d="M446 704l0 -637"/>
<text stroke="none" fill="white" font-size="16" x="421" y="728">
300.0
</text>
<path stroke="white" stroke-dasharray="1,2" d="M578 704l0 -637"/>
<text stroke="none" fill="white" font-size="16" x="553" y="728">
400.0
</text>
<path stroke="white" stroke-dasharray="1,2" d="M710 704l0 -637"/>
<text stroke="none" fill="white" font-size="16" x="685" y="728">
500.0
</text>
<path stroke="white" stroke-dasharray="1,2" d="M842 704l0 -637"/>
<text stroke="none" fill="white" font-size="16" x="817" y="728">
600.0
</text>
<path stroke="white" stroke-dasharray="1,2" d="M974 704l0 -637"/>
<text stroke="none" fill="white" font-size="16" x="949" y="728">
700.0
</text>
<text stroke="none" fill="white" font-size="16" x="614" y="752">
ns
</text>
<path stroke="white" stroke-dasharray="1,2" d="M50 704l924 0"/>
<text stroke="none" fill="white" font-size="16" x="8" y="712">
-3.0
</text>
<path stroke="white" stroke-dasharray="1,2" d="M50 613l924 0"/>
<text stroke="none" fill="white" font-size="16" x="8" y="621">
-2.0
</text>
<path stroke="white" stroke-dasharray="1,2" d="M50 522l924 0"/>
<text stroke="none" fill="white" font-size="16" x="8" y="530">
-1.0
</text>
<path stroke="white" d="M50 431l924 0"/>
<text stroke="none" fill="white" font-size="16" x="18" y="439">
0.0
</text>
<path stroke="white" stroke-dasharray="1,2" d="M50 340l924 0"/>
<text stroke="none" fill="white" font-size="16" x="18" y="348">
1.0
</text>
<path stroke="white" stroke-dasharray="1,2" d="M50 249l924 0"/>
<text stroke="none" fill="white" font-size="16" x="18" y="257">
2.0
</text>
<path stroke="white" stroke-dasharray="1,2" d="M50 158l924 0"/>
<text stroke="none" fill="white" font-size="16" x="18" y="166">
3.0
</text>
<path stroke="white" stroke-dasharray="1,2" d="M50 67l924 0"/>
<text stroke="none" fill="white" font-size="16" x="18" y="75">
4.0
</text>
<text stroke="none" fill="white" font-size="16" x="10" y="32">
     
</text>
<path stroke="red" d="M462 23l46 0"/>
<text stroke="none" fill="white" font-size="16" x="518" y="32">
x1.vsampled_p
</text>
<path stroke="red" d="M50 431l1 0 1 -7 0 -15 1 -14 0 -5 1 2M54 415l0 -39 1 -5 0 -14 1 -3 0 -2 1 -2 2 0 1 -1 4 0M64 350l0 -1M64 350l4 0 1 -1 48 0M117 352l0 -3M117 352l1 7M118 366l0 -7M118 366l1 3 1 1M120 371l0 -1M120 371l426 0 0 -19 1 -4 0 -23"/>
<path stroke="red" d="M547 325l1 -6 0 -7 2 -2 4 0 0 -1M554 310l13 0M567 311l0 -1 7 0M574 339l0 -29M574 339l1 4M575 352l0 -9M575 352l1 1 0 -1 1 0 0 -1 3 0 0 -1M580 351l46 0 0 -17 1 -1 6 0 0 -1M633 333l13 0M646 334l0 -1 7 0M653 343l0 -10M653 343l1 1"/>
<path stroke="red" d="M654 345l0 -1 1 0 0 -1 17 0M672 344l0 -1 7 0M679 349l0 -6M679 349l1 0M680 351l0 -3 19 0M699 349l0 -1 26 0M725 349l0 -1 26 0M751 349l0 -1 8 0M759 351l0 -3M759 350l1 0 0 -1 18 0M778 350l0 -1 26 0M804 350l0 -1 26 0 1 1 0 -1"/>
<path stroke="red" d="M831 349l26 0M857 350l0 -1 26 0M883 350l0 -1 27 0M910 350l0 -1 8 0M918 350l0 -1 1 4M919 375l0 -22M919 375l1 0 0 -3 1 0 0 -1 53 0"/>
<path stroke="blue" d="M50 23l46 0"/>
<text stroke="none" fill="white" font-size="16" x="106" y="32">
x1.vsampled_n
</text>
<path stroke="blue" d="M50 431l1 0 1 -7 0 -15 1 -15 0 -4 1 1M54 415l0 -39 1 -5 0 -14 1 -3 0 -2 1 -2 2 0 1 -1 4 0M64 350l0 -1M64 350l4 0 1 -1 48 0 1 -7 0 -9 1 -3 1 -2 1 -1 418 0 1 1 0 -1M540 328l1 0 0 -1M541 328l13 0 0 -1 12 0 1 1 0 -1M567 328l13 0"/>
<path stroke="blue" d="M580 328l0 -1 13 0M593 328l0 -1M593 328l7 0M600 344l0 -17M600 344l1 3M601 351l0 -4M601 350l1 -1 0 -1 104 0M706 351l0 -3M706 351l2 0 1 -1 16 0M725 351l0 -1 6 0 0 -2 1 -1M732 348l0 -1M732 348l19 0M751 349l0 -1 27 0M778 349l0 -1"/>
<path stroke="blue" d="M778 348l7 0M785 349l0 -1M785 349l27 0M812 350l0 -1 106 0 0 -4 1 -2 0 -13 1 -1 0 -2 16 0M936 328l0 -1M936 328l14 0 0 -1 24 0"/>
<path stroke="#FFA500" d="M462 39l46 0"/>
<text stroke="none" fill="white" font-size="16" x="518" y="48">
x1.vsampled_p-x1.vsampled_n
</text>
<path stroke="#FFA500" d="M50 431l67 0M117 435l0 -4M117 435l1 13M118 465l0 -17M118 465l1 5 1 3M120 474l0 -1M120 474l1 0 1 1 418 0 0 -1M540 475l1 0 0 -1M541 475l5 0 0 -20 1 -3 0 -24 1 -5 0 -7 3 -3 15 0 1 1 0 -1 7 0M574 442l0 -29M574 442l1 4M575 456l0 -10"/>
<path stroke="#FFA500" d="M575 456l1 0 2 -2 2 0M580 455l0 -1 20 0M600 455l0 -17 1 -3 0 -4M601 432l2 2 23 0 0 -17 1 -1 19 0M646 417l0 -1 7 0M653 426l0 -10M653 426l1 1M654 428l0 -1 1 0 0 -1 24 0M679 432l0 -6M679 432l1 0M680 434l0 -3 26 0 0 -3 1 0"/>
<path stroke="#FFA500" d="M707 429l0 -1M707 429l24 0M731 432l0 -3M731 432l1 0 0 -1 27 0M759 434l0 -3M759 433l1 -1 25 0 0 -1 1 1 26 0 0 -1 106 0M918 435l0 -4M918 435l1 6M919 476l0 -35M919 476l1 1 0 -1 1 0 0 -1 15 0 0 -1M936 475l38 0"/>
<path stroke="green" d="M50 39l46 0"/>
<text stroke="none" fill="white" font-size="16" x="106" y="48">
x1.sw_sample-2
</text>
<path stroke="green" d="M50 613l1 0 1 -9 0 -21 1 -21M53 581l0 -25M53 581l1 29M54 613l0 -3M54 613l63 0M117 620l0 -172M117 449l422 0M539 614l0 -171M539 613l422 0M961 618l0 -170 1 1 12 0"/>
<path stroke="#FFC0C5" d="M462 55l46 0"/>
<text stroke="none" fill="white" font-size="16" x="518" y="64">
x1.comp_out_p+2
</text>
<path stroke="#FFC0C5" d="M50 249l1 0 1 -9 0 -22 1 -18 0 -4M53 198l1 5M54 249l0 -46M54 249l514 0M568 250l0 -167M568 85l13 0 0 -8 1 154M582 249l0 -18M582 249l65 0 0 -166M647 85l14 0M661 250l0 -172M661 249l12 0M673 253l0 -4M673 253l1 -113 0 -56"/>
<path stroke="#FFC0C5" d="M674 85l13 0M687 250l0 -168M687 249l40 0 0 -165M727 85l13 0M740 250l0 -170M740 249l13 0 0 -41 1 -115 0 -9M754 85l12 0M766 250l0 -173M766 249l94 0 0 -165M860 85l12 0M872 249l0 -174M872 249l14 0 0 -157 1 -8M887 85l0 -1"/>
<path stroke="#FFC0C5" d="M887 85l11 0M898 249l0 -174M898 249l15 0M913 250l0 -166 1 1 11 0M925 250l0 -166M925 249l49 0"/>
<path stroke="#A52A2A" d="M50 55l46 0"/>
<text stroke="none" fill="white" font-size="16" x="106" y="64">
x1.comp_out_n-2
</text>
<path stroke="#A52A2A" d="M50 613l1 0 1 -9 0 -22 1 -19M53 564l0 -3M53 564l1 6M54 613l0 -43M54 613l487 0 1 1 0 -167M542 449l13 0M555 613l0 -170M555 613l39 0 0 -166M594 449l14 0M608 613l0 -171M608 613l13 0 0 -165M621 449l13 0M634 614l0 -173M634 614l1 -1"/>
<path stroke="#A52A2A" d="M635 613l65 0 1 -147 0 -18M701 449l12 0 0 -8 1 152M714 613l0 -20M714 613l65 0 1 -143 0 -22M780 449l13 0M793 613l0 -167M793 613l14 0 0 -165M807 449l12 0M819 613l0 -174M819 613l15 0 0 -164 11 0 0 -2M845 448l1 154M846 613l0 -11"/>
<path stroke="#A52A2A" d="M846 613l91 0M937 614l0 -1M937 614l1 -98 0 -69M938 449l13 0M951 614l0 -167M951 613l23 0"/>
</svg>
