<?xml version="1.0" standalone="yes"?>
<!DOCTYPE svg PUBLIC "-//W3C//DTD SVG 1.1//EN"
 "http://www.w3.org/Graphics/SVG/1.1/DTD/svg11.dtd">
<svg xmlns="http://www.w3.org/2000/svg" version="1.1"
  width="100%" height="100%" viewBox="0 0 1024 768"
  style="fill: none; font-family: Helvetica;
 font: Helvetica;
">

<!-- Creator: NGspice -->

<rect x="0" y="0" width="1024" height="768" fill="black" stroke="none"/>
<text stroke="none" fill="white" font-size="16" x="358" y="752">
time
</text>
<text stroke="none" fill="white" font-size="16" x="10" y="16">
tran1: run746_vin-0.243897
</text>
<path stroke="white" d="M50 704l0 -637"/>
<text stroke="none" fill="white" font-size="16" x="35" y="728">
0.0
</text>
<path stroke="white" stroke-dasharray="1,2" d="M182 704l0 -637"/>
<text stroke="none" fill="white" font-size="16" x="157" y="728">
100.0
</text>
<path stroke="white" stroke-dasharray="1,2" d="M314 704l0 -637"/>
<text stroke="none" fill="white" font-size="16" x="289" y="728">
200.0
</text>
<path stroke="white" stroke-dasharray="1,2" d="M446 704l0 -637"/>
<text stroke="none" fill="white" font-size="16" x="421" y="728">
300.0
</text>
<path stroke="white" stroke-dasharray="1,2" d="M578 704l0 -637"/>
<text stroke="none" fill="white" font-size="16" x="553" y="728">
400.0
</text>
<path stroke="white" stroke-dasharray="1,2" d="M710 704l0 -637"/>
<text stroke="none" fill="white" font-size="16" x="685" y="728">
500.0
</text>
<path stroke="white" stroke-dasharray="1,2" d="M842 704l0 -637"/>
<text stroke="none" fill="white" font-size="16" x="817" y="728">
600.0
</text>
<path stroke="white" stroke-dasharray="1,2" d="M974 704l0 -637"/>
<text stroke="none" fill="white" font-size="16" x="949" y="728">
700.0
</text>
<text stroke="none" fill="white" font-size="16" x="614" y="752">
ns
</text>
<path stroke="white" stroke-dasharray="1,2" d="M50 704l924 0"/>
<text stroke="none" fill="white" font-size="16" x="8" y="712">
-3.0
</text>
<path stroke="white" stroke-dasharray="1,2" d="M50 613l924 0"/>
<text stroke="none" fill="white" font-size="16" x="8" y="621">
-2.0
</text>
<path stroke="white" stroke-dasharray="1,2" d="M50 522l924 0"/>
<text stroke="none" fill="white" font-size="16" x="8" y="530">
-1.0
</text>
<path stroke="white" d="M50 431l924 0"/>
<text stroke="none" fill="white" font-size="16" x="18" y="439">
0.0
</text>
<path stroke="white" stroke-dasharray="1,2" d="M50 340l924 0"/>
<text stroke="none" fill="white" font-size="16" x="18" y="348">
1.0
</text>
<path stroke="white" stroke-dasharray="1,2" d="M50 249l924 0"/>
<text stroke="none" fill="white" font-size="16" x="18" y="257">
2.0
</text>
<path stroke="white" stroke-dasharray="1,2" d="M50 158l924 0"/>
<text stroke="none" fill="white" font-size="16" x="18" y="166">
3.0
</text>
<path stroke="white" stroke-dasharray="1,2" d="M50 67l924 0"/>
<text stroke="none" fill="white" font-size="16" x="18" y="75">
4.0
</text>
<text stroke="none" fill="white" font-size="16" x="10" y="32">
     
</text>
<path stroke="red" d="M462 23l46 0"/>
<text stroke="none" fill="white" font-size="16" x="518" y="32">
x1.vsampled_p
</text>
<path stroke="red" d="M50 431l1 0 1 -7 0 -15 1 -14 0 -5 1 2M54 415l0 -39 1 -5 0 -14 1 -3 0 -2 1 -2 2 0 1 -1 4 0M64 350l0 -1M64 350l4 0 1 -1 48 0M117 352l0 -3M117 352l1 7M118 367l0 -8M118 367l1 2 1 1M120 371l0 -1M120 371l420 0M540 372l0 -1 6 0"/>
<path stroke="red" d="M546 372l0 -18 1 -5 0 -29 1 -5 0 -2 1 -2 1 0 0 -1 16 0 1 1 0 -1 7 0M574 337l0 -27M574 337l1 4M575 352l0 -11M575 352l1 1 1 -1 0 -1 49 0 0 -17 1 -1 19 0M646 334l0 -1 7 0M653 342l0 -9M653 342l1 2M654 345l0 -1 1 0 1 -1 16 0"/>
<path stroke="red" d="M672 344l0 -1 7 0M679 350l0 -7M679 350l1 1 0 -2 2 0 1 -1 15 0 1 1 0 -1 26 0M725 349l0 -1 26 0M751 349l0 -1M751 349l1 0 0 -1 26 0M778 349l0 -1 7 0M785 350l0 -2M785 350l1 0 0 -1 18 0M804 350l0 -1 8 0M812 350l0 -1M812 350l1 0"/>
<path stroke="red" d="M813 350l0 -1 17 0 1 1 0 -1 26 0M857 350l0 -1 26 0M883 350l0 -1 27 0M910 350l0 -1 7 0M917 350l0 -1 1 0M918 375l0 -26M918 375l1 0 0 -3 2 0 0 -1 15 0M936 372l0 -1 38 0"/>
<path stroke="blue" d="M50 23l46 0"/>
<text stroke="none" fill="white" font-size="16" x="106" y="32">
x1.vsampled_n
</text>
<path stroke="blue" d="M50 431l1 0 1 -7 0 -15 1 -15 0 -4 1 1M54 415l0 -39 1 -5 0 -14 1 -3 0 -2 1 -2 2 0 1 -1 4 0M64 350l0 -1M64 350l4 0 1 -1 48 0 1 -7 0 -9 1 -4 1 -1 0 -1 420 0M540 328l0 -1 27 0M567 328l0 -1 26 0M593 328l0 -1 7 0M600 345l0 -18"/>
<path stroke="blue" d="M600 345l1 3M601 351l0 -3M601 349l1 0 0 -1 4 0 0 -1 1 0M607 348l0 -1M607 348l12 0 0 -1M619 348l14 0 0 -1M633 348l13 0 0 -1M646 348l13 0 0 -1 1 1 12 0 0 -1M672 348l14 0 0 -1M686 348l12 0 0 -1M698 348l8 0M706 351l0 -3M706 351l1 0"/>
<path stroke="blue" d="M707 351l0 -1 24 0 1 -1 0 -2M732 348l27 0M759 350l0 -2M759 349l158 0M917 350l0 -1M917 350l1 0 0 -21 1 -1 0 -1 17 0M936 328l0 -1 38 0"/>
<path stroke="#FFA500" d="M462 39l46 0"/>
<text stroke="none" fill="white" font-size="16" x="518" y="48">
x1.vsampled_p-x1.vsampled_n
</text>
<path stroke="#FFA500" d="M50 431l67 0M117 435l0 -4M117 435l1 13M118 465l0 -17M118 465l1 6 1 2M120 474l0 -1M120 474l1 1 425 0M546 476l0 -18 1 -5 0 -29 1 -5 0 -2 1 -2 1 0 0 -1 17 0M567 415l0 -1 7 0M574 441l0 -27M574 441l1 3M575 456l0 -12M575 456l1 1"/>
<path stroke="#FFA500" d="M576 457l0 -1 1 0 0 -1 16 0 0 -1M593 455l7 0 0 -18 1 -3 0 -3M601 433l1 0M602 434l0 -1M602 434l17 0M619 435l0 -1M619 435l1 0 0 -1 6 0 0 -16 1 -1 0 -1 1 0 1 1 4 0 0 -1M633 417l13 0 0 -1M646 417l7 0M653 426l0 -9M653 426l1 1"/>
<path stroke="#FFA500" d="M654 429l0 -2M654 428l1 -1 24 0M679 434l0 -7M679 434l1 0 0 -2 26 0 0 -3 1 -1M707 429l0 -1M707 429l24 0 1 2M732 432l0 -1M732 432l27 0 0 -3M759 430l26 0M785 431l0 -1M785 431l1 1 0 -1 26 0M812 432l0 -1M812 432l1 -1 104 0"/>
<path stroke="#FFA500" d="M917 432l0 -1 1 -1M918 477l0 -47M918 477l1 0 0 -1 1 0 1 -1 2 0M923 476l0 -1 27 0M950 476l0 -1 24 0"/>
<path stroke="green" d="M50 39l46 0"/>
<text stroke="none" fill="white" font-size="16" x="106" y="48">
x1.sw_sample-2
</text>
<path stroke="green" d="M50 613l1 0 1 -9 0 -21 1 -21M53 581l0 -25M53 581l1 29M54 613l0 -3M54 613l63 0M117 620l0 -172M117 449l422 0M539 614l0 -171M539 613l422 0M961 618l0 -170 1 1 12 0"/>
<path stroke="#FFC0C5" d="M462 55l46 0"/>
<text stroke="none" fill="white" font-size="16" x="518" y="64">
x1.comp_out_p+2
</text>
<path stroke="#FFC0C5" d="M50 249l1 0 1 -9 0 -22 1 -18 0 -4M53 198l1 5M54 249l0 -46M54 249l514 0M568 250l0 -166M568 85l13 0 1 -8M582 250l0 -173M582 249l65 0 0 -166M647 85l14 0M661 250l0 -173M661 249l12 0 1 1 0 -166M674 85l13 0M687 249l0 -172"/>
<path stroke="#FFC0C5" d="M687 249l40 0 0 -165M727 85l13 0M740 250l0 -170M740 249l40 0 0 -165M780 85l13 0M793 249l0 -174M793 249l14 0 0 -165 1 1 11 0M819 249l0 -169M819 249l41 0 0 -164 1 -1M861 85l0 -1M861 85l11 0M872 249l0 -174M872 249l14 0"/>
<path stroke="#FFC0C5" d="M886 249l0 -157 1 -8M887 85l0 -1M887 85l11 0M898 249l0 -174M898 249l15 0 0 -165M913 85l12 0M925 250l0 -167M925 249l49 0"/>
<path stroke="#A52A2A" d="M50 55l46 0"/>
<text stroke="none" fill="white" font-size="16" x="106" y="64">
x1.comp_out_n-2
</text>
<path stroke="#A52A2A" d="M50 613l1 0 1 -9 0 -22 1 -19M53 564l0 -3M53 564l1 6M54 613l0 -43M54 613l487 0 1 1 0 -167M542 449l13 0M555 613l0 -167M555 613l13 0M568 614l0 -1 26 0 0 -165M594 449l14 0M608 613l0 -171M608 613l13 0M621 616l0 -169M621 449l13 0"/>
<path stroke="#A52A2A" d="M634 613l0 -172M634 613l40 0M674 614l0 -1 26 0M700 614l0 -165 1 -1M701 449l0 -1M701 449l12 0 0 -9 1 165M714 613l0 -8M714 613l39 0 0 -165 1 1 12 0M766 613l0 -172M766 613l68 0 0 -165M834 449l11 0 0 -2M845 448l1 154M846 613l0 -11"/>
<path stroke="#A52A2A" d="M846 613l91 0M937 614l0 -1M937 614l1 -97 0 -70M938 449l13 0M951 614l0 -167M951 613l23 0"/>
</svg>
