<?xml version="1.0" standalone="yes"?>
<!DOCTYPE svg PUBLIC "-//W3C//DTD SVG 1.1//EN"
 "http://www.w3.org/Graphics/SVG/1.1/DTD/svg11.dtd">
<svg xmlns="http://www.w3.org/2000/svg" version="1.1"
  width="100%" height="100%" viewBox="0 0 1024 768"
  style="fill: none; font-family: Helvetica;
 font: Helvetica;
">

<!-- Creator: NGspice -->

<rect x="0" y="0" width="1024" height="768" fill="black" stroke="none"/>
<text stroke="none" fill="white" font-size="16" x="358" y="752">
time
</text>
<text stroke="none" fill="white" font-size="16" x="10" y="16">
tran1: run1021_vin-0.00219854
</text>
<path stroke="white" d="M50 704l0 -637"/>
<text stroke="none" fill="white" font-size="16" x="35" y="728">
0.0
</text>
<path stroke="white" stroke-dasharray="1,2" d="M182 704l0 -637"/>
<text stroke="none" fill="white" font-size="16" x="157" y="728">
100.0
</text>
<path stroke="white" stroke-dasharray="1,2" d="M314 704l0 -637"/>
<text stroke="none" fill="white" font-size="16" x="289" y="728">
200.0
</text>
<path stroke="white" stroke-dasharray="1,2" d="M446 704l0 -637"/>
<text stroke="none" fill="white" font-size="16" x="421" y="728">
300.0
</text>
<path stroke="white" stroke-dasharray="1,2" d="M578 704l0 -637"/>
<text stroke="none" fill="white" font-size="16" x="553" y="728">
400.0
</text>
<path stroke="white" stroke-dasharray="1,2" d="M710 704l0 -637"/>
<text stroke="none" fill="white" font-size="16" x="685" y="728">
500.0
</text>
<path stroke="white" stroke-dasharray="1,2" d="M842 704l0 -637"/>
<text stroke="none" fill="white" font-size="16" x="817" y="728">
600.0
</text>
<path stroke="white" stroke-dasharray="1,2" d="M974 704l0 -637"/>
<text stroke="none" fill="white" font-size="16" x="949" y="728">
700.0
</text>
<text stroke="none" fill="white" font-size="16" x="614" y="752">
ns
</text>
<path stroke="white" stroke-dasharray="1,2" d="M50 704l924 0"/>
<text stroke="none" fill="white" font-size="16" x="8" y="712">
-2.5
</text>
<path stroke="white" stroke-dasharray="1,2" d="M50 655l924 0"/>
<text stroke="none" fill="white" font-size="16" x="8" y="663">
-2.0
</text>
<path stroke="white" stroke-dasharray="1,2" d="M50 606l924 0"/>
<text stroke="none" fill="white" font-size="16" x="8" y="614">
-1.5
</text>
<path stroke="white" stroke-dasharray="1,2" d="M50 557l924 0"/>
<text stroke="none" fill="white" font-size="16" x="8" y="565">
-1.0
</text>
<path stroke="white" stroke-dasharray="1,2" d="M50 508l924 0"/>
<text stroke="none" fill="white" font-size="16" x="8" y="516">
-0.5
</text>
<path stroke="white" d="M50 459l924 0"/>
<text stroke="none" fill="white" font-size="16" x="18" y="467">
0.0
</text>
<path stroke="white" stroke-dasharray="1,2" d="M50 410l924 0"/>
<text stroke="none" fill="white" font-size="16" x="18" y="418">
0.5
</text>
<path stroke="white" stroke-dasharray="1,2" d="M50 361l924 0"/>
<text stroke="none" fill="white" font-size="16" x="18" y="369">
1.0
</text>
<path stroke="white" stroke-dasharray="1,2" d="M50 312l924 0"/>
<text stroke="none" fill="white" font-size="16" x="18" y="320">
1.5
</text>
<path stroke="white" stroke-dasharray="1,2" d="M50 263l924 0"/>
<text stroke="none" fill="white" font-size="16" x="18" y="271">
2.0
</text>
<path stroke="white" stroke-dasharray="1,2" d="M50 214l924 0"/>
<text stroke="none" fill="white" font-size="16" x="18" y="222">
2.5
</text>
<path stroke="white" stroke-dasharray="1,2" d="M50 165l924 0"/>
<text stroke="none" fill="white" font-size="16" x="18" y="173">
3.0
</text>
<path stroke="white" stroke-dasharray="1,2" d="M50 116l924 0"/>
<text stroke="none" fill="white" font-size="16" x="18" y="124">
3.5
</text>
<path stroke="white" stroke-dasharray="1,2" d="M50 67l924 0"/>
<text stroke="none" fill="white" font-size="16" x="18" y="75">
4.0
</text>
<text stroke="none" fill="white" font-size="16" x="10" y="32">
     
</text>
<path stroke="red" d="M462 23l46 0"/>
<text stroke="none" fill="white" font-size="16" x="518" y="32">
x1.vsampled_p
</text>
<path stroke="red" d="M50 459l1 0 1 -7 0 -17 1 -15 0 -5 1 1M54 442l0 -42 1 -6 0 -16 1 -2 0 -3 1 -1 1 0 0 -1 482 0M540 372l0 -1 8 0 0 -38 1 -9 0 -7 1 -6 0 -4 1 -1 1 0 0 -1 2 0 0 -1M554 305l12 0 1 1M567 307l0 -2 7 0M574 335l0 -30M574 335l1 6M575 350l0 -9"/>
<path stroke="red" d="M575 350l1 1 2 -2 15 0M593 350l0 -1 7 0M600 367l0 -18M600 367l1 3M601 375l0 -5M601 374l1 -1 0 -2 17 0M619 372l0 -1 8 0 0 -15 1 -2 0 -2 18 0M646 353l0 -1 7 0M653 361l0 -9M653 361l1 2M654 365l0 -2M654 364l1 -1 17 0M672 364l0 -1"/>
<path stroke="red" d="M672 363l7 0M679 369l0 -6M679 369l1 1M680 371l0 -2 6 0 0 -1 12 0 1 1 0 -1M699 369l7 0M706 372l0 -4M706 372l1 0 0 -1 18 0M725 372l0 -1 7 0 0 -3 1 0M733 369l0 -1M733 369l26 0M759 371l0 -2M759 370l19 0M778 371l0 -1 8 0M786 372l0 -2"/>
<path stroke="red" d="M786 371l132 0M918 372l0 -1 18 0M936 372l0 -1 38 0"/>
<path stroke="blue" d="M50 23l46 0"/>
<text stroke="none" fill="white" font-size="16" x="106" y="32">
x1.vsampled_n
</text>
<path stroke="blue" d="M50 459l1 0 1 -7 0 -17 1 -15 0 -5 1 1M54 442l0 -42 1 -6 0 -16 1 -2 0 -3 1 -1 1 0 0 -1 496 0 0 -1M554 371l26 0 0 -1M580 371l233 0M813 372l0 -1 18 0M831 372l0 -1 7 0 0 -1M838 371l80 0M918 372l0 -1 56 0"/>
<path stroke="#FFA500" d="M462 39l46 0"/>
<text stroke="none" fill="white" font-size="16" x="518" y="48">
x1.vsampled_p-x1.vsampled_n
</text>
<path stroke="#FFA500" d="M50 459l498 0 0 -38 1 -8 0 -8 1 -5 0 -4 1 -1 0 -1 3 0 0 -1 12 0 1 1M567 395l0 -2M567 394l1 0 0 -1 6 0M574 423l0 -30M574 423l1 7M575 439l0 -9M575 439l1 1 1 -1 0 -1 3 0 0 -1 13 0M593 438l0 -1 7 0M600 456l0 -19M600 456l1 2"/>
<path stroke="#FFA500" d="M601 463l0 -5M601 462l1 -1 0 -1 1 -1 24 0 0 -15 1 -2 0 -2 18 0M646 441l0 -1 7 0M653 450l0 -10M653 450l1 2M654 453l0 -1 1 0 0 -1 24 0M679 457l0 -6M679 457l1 1M680 459l0 -2 26 0M706 461l0 -4M706 461l1 -1 0 -1 25 0 0 -3"/>
<path stroke="#FFA500" d="M732 456l1 0M733 457l0 -1M733 457l26 0M759 460l0 -3M759 459l1 -1 26 0M786 460l0 -2M786 459l27 0 0 -1M813 459l105 0M918 460l0 -2M918 460l1 -1 55 0"/>
<path stroke="green" d="M50 39l46 0"/>
<text stroke="none" fill="white" font-size="16" x="106" y="48">
x1.sw_sample-2
</text>
<path stroke="green" d="M50 655l1 0 1 -10 0 -23 1 -21M53 621l0 -27M53 621l1 31M54 655l0 -3M54 655l63 0M117 662l0 -184 1 1 421 0M539 656l0 -184M539 655l422 0M961 660l0 -182 1 0M962 479l0 -1 1 1 11 0"/>
<path stroke="#FFC0C5" d="M462 55l46 0"/>
<text stroke="none" fill="white" font-size="16" x="518" y="64">
x1.comp_out_p+2
</text>
<path stroke="#FFC0C5" d="M50 263l1 0 1 -10 0 -23 1 -20 0 -4M53 209l1 4M54 263l0 -50M54 263l514 0M568 266l0 -181M568 87l13 0 0 -9 1 165M582 263l0 -20M582 263l12 0M594 265l0 -180M594 86l1 1 13 0M608 264l0 -187M608 263l39 0M647 264l0 -179M647 87l14 0"/>
<path stroke="#FFC0C5" d="M661 263l0 -185M661 263l12 0M673 266l0 -3M673 266l1 -117 0 -64M674 87l13 0M687 264l0 -185M687 263l13 0M700 264l0 -179M700 87l13 0 0 -10 1 142M714 264l0 -45M714 263l39 0 0 -178M753 87l13 0M766 263l0 -185M766 263l14 0"/>
<path stroke="#FFC0C5" d="M780 263l0 -177 1 0M781 87l0 -1M781 87l12 0M793 263l0 -179M793 263l41 0 0 -177M834 87l11 0 0 -3M845 87l1 161M846 263l0 -15M846 263l128 0"/>
<path stroke="#A52A2A" d="M50 55l46 0"/>
<text stroke="none" fill="white" font-size="16" x="106" y="64">
x1.comp_out_n-2
</text>
<path stroke="#A52A2A" d="M50 655l1 0 1 -10 0 -24 1 -20M53 602l0 -3M53 602l1 7M54 655l0 -46M54 655l489 0 0 -161 1 -16M544 479l0 -1M544 479l11 0M555 656l0 -187M555 655l39 0M594 656l0 -1 28 0 0 -164 1 -13M623 479l0 -1M623 479l11 0M634 656l0 -187"/>
<path stroke="#A52A2A" d="M634 655l13 0M647 656l0 -1 81 0 0 -177M728 479l12 0M740 656l0 -186M740 655l67 0 0 -163 1 -14M808 479l0 -1M808 479l11 0M819 655l0 -182M819 655l41 0 0 -177 1 1 11 0M872 655l0 -187M872 655l14 0 0 -167 1 -10M887 479l0 -1"/>
<path stroke="#A52A2A" d="M887 479l11 0M898 655l0 -187M898 655l15 0M913 656l0 -178M913 479l12 0M925 655l0 -187M925 655l14 0 0 -177 1 0M940 479l0 -1M940 479l11 0M951 655l0 -185M951 655l23 0"/>
</svg>
