<?xml version="1.0" standalone="yes"?>
<!DOCTYPE svg PUBLIC "-//W3C//DTD SVG 1.1//EN"
 "http://www.w3.org/Graphics/SVG/1.1/DTD/svg11.dtd">
<svg xmlns="http://www.w3.org/2000/svg" version="1.1"
  width="100%" height="100%" viewBox="0 0 1024 768"
  style="fill: none; font-family: Helvetica;
 font: Helvetica;
">

<!-- Creator: NGspice -->

<rect x="0" y="0" width="1024" height="768" fill="black" stroke="none"/>
<text stroke="none" fill="white" font-size="16" x="358" y="752">
time
</text>
<text stroke="none" fill="white" font-size="16" x="10" y="16">
tran1: run1016_vin-0.00659307
</text>
<path stroke="white" d="M50 704l0 -637"/>
<text stroke="none" fill="white" font-size="16" x="35" y="728">
0.0
</text>
<path stroke="white" stroke-dasharray="1,2" d="M182 704l0 -637"/>
<text stroke="none" fill="white" font-size="16" x="157" y="728">
100.0
</text>
<path stroke="white" stroke-dasharray="1,2" d="M314 704l0 -637"/>
<text stroke="none" fill="white" font-size="16" x="289" y="728">
200.0
</text>
<path stroke="white" stroke-dasharray="1,2" d="M446 704l0 -637"/>
<text stroke="none" fill="white" font-size="16" x="421" y="728">
300.0
</text>
<path stroke="white" stroke-dasharray="1,2" d="M578 704l0 -637"/>
<text stroke="none" fill="white" font-size="16" x="553" y="728">
400.0
</text>
<path stroke="white" stroke-dasharray="1,2" d="M710 704l0 -637"/>
<text stroke="none" fill="white" font-size="16" x="685" y="728">
500.0
</text>
<path stroke="white" stroke-dasharray="1,2" d="M842 704l0 -637"/>
<text stroke="none" fill="white" font-size="16" x="817" y="728">
600.0
</text>
<path stroke="white" stroke-dasharray="1,2" d="M974 704l0 -637"/>
<text stroke="none" fill="white" font-size="16" x="949" y="728">
700.0
</text>
<text stroke="none" fill="white" font-size="16" x="614" y="752">
ns
</text>
<path stroke="white" stroke-dasharray="1,2" d="M50 704l924 0"/>
<text stroke="none" fill="white" font-size="16" x="8" y="712">
-3.0
</text>
<path stroke="white" stroke-dasharray="1,2" d="M50 613l924 0"/>
<text stroke="none" fill="white" font-size="16" x="8" y="621">
-2.0
</text>
<path stroke="white" stroke-dasharray="1,2" d="M50 522l924 0"/>
<text stroke="none" fill="white" font-size="16" x="8" y="530">
-1.0
</text>
<path stroke="white" d="M50 431l924 0"/>
<text stroke="none" fill="white" font-size="16" x="18" y="439">
0.0
</text>
<path stroke="white" stroke-dasharray="1,2" d="M50 340l924 0"/>
<text stroke="none" fill="white" font-size="16" x="18" y="348">
1.0
</text>
<path stroke="white" stroke-dasharray="1,2" d="M50 249l924 0"/>
<text stroke="none" fill="white" font-size="16" x="18" y="257">
2.0
</text>
<path stroke="white" stroke-dasharray="1,2" d="M50 158l924 0"/>
<text stroke="none" fill="white" font-size="16" x="18" y="166">
3.0
</text>
<path stroke="white" stroke-dasharray="1,2" d="M50 67l924 0"/>
<text stroke="none" fill="white" font-size="16" x="18" y="75">
4.0
</text>
<text stroke="none" fill="white" font-size="16" x="10" y="32">
     
</text>
<path stroke="red" d="M462 23l46 0"/>
<text stroke="none" fill="white" font-size="16" x="518" y="32">
x1.vsampled_p
</text>
<path stroke="red" d="M50 431l1 0 1 -7 0 -15 1 -14 0 -5 1 1M54 415l0 -39 1 -5 0 -15 1 -3 0 -2 1 -1 2 0 1 -1 4 0M64 350l0 -1M64 350l4 0 1 -1 49 0M118 350l0 -1M118 350l429 0 0 -31 1 -7 0 -14 1 -5 0 -2 1 -1 0 -1 4 0 0 -1 12 0 1 1M567 290l0 -1 6 0"/>
<path stroke="red" d="M573 289l1 -1M574 315l0 -27M574 315l1 7M575 330l0 -8M575 330l1 1 1 -1 3 0 0 -1 13 0M593 330l0 -1M593 330l7 0M600 347l0 -17M600 347l1 3M601 353l0 -3M601 353l1 -1 0 -2 24 0 0 -15 1 -2 0 -1 19 0M646 333l0 -1 7 0M653 341l0 -9"/>
<path stroke="red" d="M653 341l1 2M654 344l0 -1 1 0 0 -1 17 0M672 343l0 -1 7 0M679 348l0 -6M679 348l1 1 0 -1 1 0 0 -1 17 0 1 1 0 -1 7 0M706 351l0 -4M706 351l1 0 0 -1 24 0 1 -1 0 -2 1 1 5 0 0 -1M738 348l21 0M759 350l0 -2M759 349l53 0M812 350l0 -1"/>
<path stroke="red" d="M812 349l19 0M831 350l0 -1 26 0M857 350l0 -1 26 0M883 350l0 -1 27 0M910 350l0 -1 7 0M917 350l0 -1M917 350l57 0"/>
<path stroke="blue" d="M50 23l46 0"/>
<text stroke="none" fill="white" font-size="16" x="106" y="32">
x1.vsampled_n
</text>
<path stroke="blue" d="M50 431l1 0 1 -7 0 -15 1 -14 0 -5 1 1M54 415l0 -39 1 -5 0 -15 1 -3 0 -2 1 -1 2 0 1 -1 4 0M64 350l0 -1M64 350l4 0 1 -1 470 0 0 -1M539 349l15 0 0 -1M554 349l26 0 0 -1M580 349l53 0 0 -1M633 349l26 0 0 -1M659 349l127 0M786 350l0 -1"/>
<path stroke="blue" d="M786 349l18 0M804 350l0 -1 26 0 1 1 0 -1 86 0M917 350l0 -1 1 0 0 -1M918 349l44 0 0 -1 4 0M966 349l0 -1M966 349l8 0"/>
<path stroke="#FFA500" d="M462 39l46 0"/>
<text stroke="none" fill="white" font-size="16" x="518" y="48">
x1.vsampled_p-x1.vsampled_n
</text>
<path stroke="#FFA500" d="M50 431l68 0M118 432l0 -1M118 432l429 0M547 433l0 -32 1 -6 0 -15 1 -5 0 -2 2 -2 3 0 0 -1M554 371l13 0M567 372l0 -1 7 0M574 398l0 -27M574 398l1 6M575 413l0 -9M575 413l1 1 0 -1 1 -1 23 0M600 429l0 -17M600 429l1 3M601 436l0 -4"/>
<path stroke="#FFA500" d="M601 435l1 -1 0 -1 1 -1 23 0 0 -15 1 -2 0 -1 19 0M646 415l0 -1 7 0M653 423l0 -9M653 423l1 3 0 -1 5 0 0 -1M659 425l13 0 0 -1M672 425l7 0M679 430l0 -6M679 430l1 1M680 432l0 -2 26 0M706 433l0 -3M706 433l1 0 0 -1 25 0 0 -3"/>
<path stroke="#FFA500" d="M732 430l27 0M759 432l0 -2M759 431l27 0 0 -1M786 431l52 0 1 1 0 -1 78 0M917 433l0 -3M917 433l1 0 0 -1 56 0"/>
<path stroke="green" d="M50 39l46 0"/>
<text stroke="none" fill="white" font-size="16" x="106" y="48">
x1.sw_sample-2
</text>
<path stroke="green" d="M50 613l1 0 1 -9 0 -21 1 -21M53 582l0 -26M53 582l1 28M54 613l0 -3M54 613l63 0M117 620l0 -172M117 449l422 0M539 614l0 -171M539 613l422 0M961 618l0 -170 1 1 12 0"/>
<path stroke="#FFC0C5" d="M462 55l46 0"/>
<text stroke="none" fill="white" font-size="16" x="518" y="64">
x1.comp_out_p+2
</text>
<path stroke="#FFC0C5" d="M50 249l1 0 1 -9 0 -22 1 -18 0 -4M53 198l1 5M54 249l0 -46M54 249l514 0M568 255l0 -172M568 85l13 0 0 -8 1 154M582 249l0 -18M582 249l12 0 0 -166M594 85l14 0M608 249l0 -172M608 249l39 0 0 -166M647 85l14 0M661 250l0 -170"/>
<path stroke="#FFC0C5" d="M661 249l12 0 0 -41 1 -106 0 -18M674 85l13 0M687 250l0 -172M687 249l13 0 0 -165M700 85l13 0 0 -8 1 159M714 249l0 -13M714 249l39 0 0 -165M753 85l13 0M766 250l0 -174M766 249l41 0 0 -165M807 85l12 0M819 249l0 -171M819 249l15 0"/>
<path stroke="#FFC0C5" d="M834 249l0 -164 11 0 0 -10 1 142M846 249l0 -32M846 249l128 0"/>
<path stroke="#A52A2A" d="M50 55l46 0"/>
<text stroke="none" fill="white" font-size="16" x="106" y="64">
x1.comp_out_n-2
</text>
<path stroke="#A52A2A" d="M50 613l1 0 1 -9 0 -22 1 -19M53 564l0 -3M53 564l1 6M54 613l0 -43M54 613l488 0 1 -150 0 -15M543 449l12 0M555 613l0 -173M555 613l66 0 1 -155 0 -10M622 449l12 0M634 613l0 -173M634 613l93 0 0 -165 1 1 12 0M740 614l0 -174"/>
<path stroke="#A52A2A" d="M740 613l40 0 0 -157 1 -8M781 449l0 -1M781 449l12 0M793 613l0 -174M793 613l67 0 0 -165M860 449l12 0M872 613l0 -168M872 613l14 0 0 -158 1 -7M887 449l0 -1M887 449l11 0M898 613l0 -168M898 613l14 0 1 -158 0 -7M913 449l12 0"/>
<path stroke="#A52A2A" d="M925 614l0 -174M925 613l13 0 1 -152 0 -13M939 449l12 0M951 613l0 -171M951 613l23 0"/>
</svg>
