<?xml version="1.0" standalone="yes"?>
<!DOCTYPE svg PUBLIC "-//W3C//DTD SVG 1.1//EN"
 "http://www.w3.org/Graphics/SVG/1.1/DTD/svg11.dtd">
<svg xmlns="http://www.w3.org/2000/svg" version="1.1"
  width="100%" height="100%" viewBox="0 0 1024 768"
  style="fill: none; font-family: Helvetica;
 font: Helvetica;
">

<!-- Creator: NGspice -->

<rect x="0" y="0" width="1024" height="768" fill="black" stroke="none"/>
<text stroke="none" fill="white" font-size="16" x="358" y="752">
time
</text>
<text stroke="none" fill="white" font-size="16" x="10" y="16">
tran1: run1473_vin0.395067
</text>
<path stroke="white" d="M50 704l0 -637"/>
<text stroke="none" fill="white" font-size="16" x="35" y="728">
0.0
</text>
<path stroke="white" stroke-dasharray="1,2" d="M182 704l0 -637"/>
<text stroke="none" fill="white" font-size="16" x="157" y="728">
100.0
</text>
<path stroke="white" stroke-dasharray="1,2" d="M314 704l0 -637"/>
<text stroke="none" fill="white" font-size="16" x="289" y="728">
200.0
</text>
<path stroke="white" stroke-dasharray="1,2" d="M446 704l0 -637"/>
<text stroke="none" fill="white" font-size="16" x="421" y="728">
300.0
</text>
<path stroke="white" stroke-dasharray="1,2" d="M578 704l0 -637"/>
<text stroke="none" fill="white" font-size="16" x="553" y="728">
400.0
</text>
<path stroke="white" stroke-dasharray="1,2" d="M710 704l0 -637"/>
<text stroke="none" fill="white" font-size="16" x="685" y="728">
500.0
</text>
<path stroke="white" stroke-dasharray="1,2" d="M842 704l0 -637"/>
<text stroke="none" fill="white" font-size="16" x="817" y="728">
600.0
</text>
<path stroke="white" stroke-dasharray="1,2" d="M974 704l0 -637"/>
<text stroke="none" fill="white" font-size="16" x="949" y="728">
700.0
</text>
<text stroke="none" fill="white" font-size="16" x="614" y="752">
ns
</text>
<path stroke="white" stroke-dasharray="1,2" d="M50 704l924 0"/>
<text stroke="none" fill="white" font-size="16" x="8" y="712">
-3.0
</text>
<path stroke="white" stroke-dasharray="1,2" d="M50 613l924 0"/>
<text stroke="none" fill="white" font-size="16" x="8" y="621">
-2.0
</text>
<path stroke="white" stroke-dasharray="1,2" d="M50 522l924 0"/>
<text stroke="none" fill="white" font-size="16" x="8" y="530">
-1.0
</text>
<path stroke="white" d="M50 431l924 0"/>
<text stroke="none" fill="white" font-size="16" x="18" y="439">
0.0
</text>
<path stroke="white" stroke-dasharray="1,2" d="M50 340l924 0"/>
<text stroke="none" fill="white" font-size="16" x="18" y="348">
1.0
</text>
<path stroke="white" stroke-dasharray="1,2" d="M50 249l924 0"/>
<text stroke="none" fill="white" font-size="16" x="18" y="257">
2.0
</text>
<path stroke="white" stroke-dasharray="1,2" d="M50 158l924 0"/>
<text stroke="none" fill="white" font-size="16" x="18" y="166">
3.0
</text>
<path stroke="white" stroke-dasharray="1,2" d="M50 67l924 0"/>
<text stroke="none" fill="white" font-size="16" x="18" y="75">
4.0
</text>
<text stroke="none" fill="white" font-size="16" x="10" y="32">
     
</text>
<path stroke="red" d="M462 23l46 0"/>
<text stroke="none" fill="white" font-size="16" x="518" y="32">
x1.vsampled_p
</text>
<path stroke="red" d="M50 431l1 0 1 -7 0 -15 1 -15 0 -4 1 1M54 415l0 -40 1 -5 0 -13 1 -3 0 -2 2 -2 1 0 1 -1 4 0M64 350l0 -1M64 350l4 0 1 -1 48 0 0 -1 1 -9 0 -16 1 -3 0 -3 1 -2 0 -1 1 0 0 -1 419 0M540 314l0 -1M540 314l1 -1 25 0 1 1 0 -1 7 0M574 335l0 -22"/>
<path stroke="red" d="M574 335l1 4M575 352l0 -13M575 352l1 1M576 354l0 -1M576 354l17 0M593 355l0 -1 26 0M619 355l0 -1 6 0 0 -2 1 -4 0 -10 2 -2 18 0M646 337l0 -1 7 0M653 345l0 -9M653 345l1 2 5 0 0 -1M659 347l27 0 0 -1M686 347l20 0M706 350l0 -3"/>
<path stroke="red" d="M706 350l1 -1 211 0 1 -2 0 -12 1 -3 0 -7 1 -3 0 -6 1 0 0 -2 1 0 0 -1M923 314l1 0 0 -1 12 0M936 314l0 -1 38 0"/>
<path stroke="blue" d="M50 23l46 0"/>
<text stroke="none" fill="white" font-size="16" x="106" y="32">
x1.vsampled_n
</text>
<path stroke="blue" d="M50 431l1 0 1 -7 0 -15 1 -14 0 -5 1 2M54 415l0 -40 1 -5 0 -13 1 -3 0 -2 2 -2 1 0 1 -1 4 0M64 350l0 -1M64 350l4 0 1 -1 48 0M117 356l0 -7M117 356l1 10M118 377l0 -11M118 377l1 3M119 382l0 -2M119 382l1 1M120 384l0 -1M120 384l1 1"/>
<path stroke="blue" d="M121 385l425 0 0 -23 1 -4 0 -25 1 -1 0 -5 1 -1 0 -1 1 -1 4 0 0 -1M554 324l13 0M567 325l0 -1 13 0 0 -1M580 324l13 0M593 325l0 -1 7 0M600 344l0 -20M600 344l1 2M601 350l0 -4M601 348l1 -1 0 -2 1 0 0 -1 16 0M619 345l0 -1 27 0"/>
<path stroke="blue" d="M646 345l0 -1 26 0M672 345l0 -1 7 0M679 351l0 -7M679 351l1 1M680 353l0 -3 1 0 1 -1 16 0 1 1 0 -1 26 0M725 350l0 -1 7 0 0 -3 1 0M733 347l0 -1M733 347l18 0M751 348l0 -1 8 0M759 350l0 -3M759 349l2 0 1 -1M762 349l0 -1M762 349l3 0"/>
<path stroke="blue" d="M765 349l0 -1 13 0M778 349l0 -1M778 349l8 0M786 350l0 -1 18 0M804 350l0 -1 9 0M813 350l0 -1M813 350l1 0 0 -1 16 0 1 1 0 -1 26 0M857 350l0 -1 26 0M883 350l0 -1 27 0M910 350l0 -1 8 0M918 350l0 -1 1 -3M919 373l0 -27M919 373l1 4"/>
<path stroke="blue" d="M920 386l0 -9M920 386l1 1 0 -1 1 0 0 -1 52 0"/>
<path stroke="#FFA500" d="M462 39l46 0"/>
<text stroke="none" fill="white" font-size="16" x="518" y="48">
x1.vsampled_p-x1.vsampled_n
</text>
<path stroke="#FFA500" d="M50 431l2 0 1 -1 1 1 63 0 0 -8 1 -19 0 -27 1 -7 0 -4 1 -3 0 -2 2 -2 418 0M540 360l0 -1 6 0M546 383l0 -24M546 383l1 3M547 411l0 -25M547 411l1 1M548 417l0 -5M548 417l1 2M549 420l0 -1M549 420l3 0M552 421l0 -1M552 421l2 0"/>
<path stroke="#FFA500" d="M554 421l0 -1 1 0M555 421l0 -1M555 421l12 0 0 -1M567 421l7 0M574 442l0 -22M574 442l1 4M575 459l0 -13M575 459l1 2 4 0M580 462l0 -1 13 0 0 -1M593 461l7 0 0 -20 1 -2 0 -4M601 438l1 1M602 440l0 -1M602 440l1 1 22 0 0 -2 1 -5"/>
<path stroke="#FFA500" d="M626 434l0 -10 1 0 0 -1 26 0M653 432l0 -9M653 432l1 1M654 434l0 -1 25 0 0 -6 1 -1M680 428l0 -3M680 428l26 0M706 431l0 -3M706 431l26 0M732 434l0 -3M732 434l1 0 0 -1 26 0 0 -3M759 431l1 1 25 0 0 -1 1 0 0 -1M786 431l27 0"/>
<path stroke="#FFA500" d="M813 431l0 -1M813 431l105 0M918 432l0 -2M918 432l1 0 0 -39 1 -7 0 -16 1 -4 0 -5 1 0 0 -1 1 0 0 -1 13 0M936 360l0 -1 38 0"/>
<path stroke="green" d="M50 39l46 0"/>
<text stroke="none" fill="white" font-size="16" x="106" y="48">
x1.sw_sample-2
</text>
<path stroke="green" d="M50 613l1 0 1 -9 0 -21 1 -21M53 580l0 -24M53 580l1 30M54 613l0 -3M54 613l63 0M117 620l0 -172M117 449l422 0M539 614l0 -171M539 613l422 0M961 618l0 -170 1 1 12 0"/>
<path stroke="#FFC0C5" d="M462 55l46 0"/>
<text stroke="none" fill="white" font-size="16" x="518" y="64">
x1.comp_out_p+2
</text>
<path stroke="#FFC0C5" d="M50 249l1 0 1 -9 0 -22 1 -18 0 -4M53 198l1 5M54 249l0 -46M54 249l488 0M542 250l0 -166M542 85l13 0M555 250l0 -172M555 249l13 0M568 250l0 -166M568 85l13 0 0 -9 1 162M582 250l0 -12M582 249l65 0M647 250l0 -166M647 85l14 0"/>
<path stroke="#FFC0C5" d="M661 250l0 -168M661 249l39 0 0 -165M700 85l13 0 0 -9 1 135M714 250l0 -39M714 249l14 0 0 -165M728 85l12 0M740 249l0 -173M740 249l93 0 1 1 0 -166M834 85l11 0 0 -7 1 146M846 249l0 -25M846 249l14 0 0 -151 1 -14M861 85l0 -1"/>
<path stroke="#FFC0C5" d="M861 85l11 0M872 249l0 -171M872 249l15 0 0 -165M887 85l11 0M898 249l0 -171M898 249l15 0 0 -164 12 0M925 250l0 -166M925 249l12 0M937 250l0 -1M937 250l1 -50 0 -116M938 85l13 0M951 249l0 -171M951 249l23 0"/>
<path stroke="#A52A2A" d="M50 55l46 0"/>
<text stroke="none" fill="white" font-size="16" x="106" y="64">
x1.comp_out_n-2
</text>
<path stroke="#A52A2A" d="M50 613l1 0 1 -9 0 -22 1 -19M53 564l0 -3M53 564l1 6M54 613l0 -43M54 612l1 1 539 0M594 614l0 -167M594 449l14 0M608 613l0 -171M608 613l13 0M621 614l0 -167M621 449l13 0M634 613l0 -173M634 613l13 0M647 614l0 -1 26 0 1 1"/>
<path stroke="#A52A2A" d="M674 614l0 -167M674 449l13 0M687 613l0 -172M687 613l66 0 0 -165M753 449l13 0M766 613l0 -173M766 613l14 0 0 -165M780 449l13 0M793 613l0 -173M793 613l14 0 0 -152 1 -13M808 449l0 -1M808 449l11 0M819 613l0 -172M819 613l155 0"/>
</svg>
