<?xml version="1.0" standalone="yes"?>
<!DOCTYPE svg PUBLIC "-//W3C//DTD SVG 1.1//EN"
 "http://www.w3.org/Graphics/SVG/1.1/DTD/svg11.dtd">
<svg xmlns="http://www.w3.org/2000/svg" version="1.1"
  width="100%" height="100%" viewBox="0 0 1024 768"
  style="fill: none; font-family: Helvetica;
 font: Helvetica;
">

<!-- Creator: NGspice -->

<rect x="0" y="0" width="1024" height="768" fill="black" stroke="none"/>
<text stroke="none" fill="white" font-size="16" x="358" y="752">
time
</text>
<text stroke="none" fill="white" font-size="16" x="10" y="16">
tran1: run1479_vin0.40034
</text>
<path stroke="white" d="M50 704l0 -637"/>
<text stroke="none" fill="white" font-size="16" x="35" y="728">
0.0
</text>
<path stroke="white" stroke-dasharray="1,2" d="M182 704l0 -637"/>
<text stroke="none" fill="white" font-size="16" x="157" y="728">
100.0
</text>
<path stroke="white" stroke-dasharray="1,2" d="M314 704l0 -637"/>
<text stroke="none" fill="white" font-size="16" x="289" y="728">
200.0
</text>
<path stroke="white" stroke-dasharray="1,2" d="M446 704l0 -637"/>
<text stroke="none" fill="white" font-size="16" x="421" y="728">
300.0
</text>
<path stroke="white" stroke-dasharray="1,2" d="M578 704l0 -637"/>
<text stroke="none" fill="white" font-size="16" x="553" y="728">
400.0
</text>
<path stroke="white" stroke-dasharray="1,2" d="M710 704l0 -637"/>
<text stroke="none" fill="white" font-size="16" x="685" y="728">
500.0
</text>
<path stroke="white" stroke-dasharray="1,2" d="M842 704l0 -637"/>
<text stroke="none" fill="white" font-size="16" x="817" y="728">
600.0
</text>
<path stroke="white" stroke-dasharray="1,2" d="M974 704l0 -637"/>
<text stroke="none" fill="white" font-size="16" x="949" y="728">
700.0
</text>
<text stroke="none" fill="white" font-size="16" x="614" y="752">
ns
</text>
<path stroke="white" stroke-dasharray="1,2" d="M50 704l924 0"/>
<text stroke="none" fill="white" font-size="16" x="8" y="712">
-3.0
</text>
<path stroke="white" stroke-dasharray="1,2" d="M50 613l924 0"/>
<text stroke="none" fill="white" font-size="16" x="8" y="621">
-2.0
</text>
<path stroke="white" stroke-dasharray="1,2" d="M50 522l924 0"/>
<text stroke="none" fill="white" font-size="16" x="8" y="530">
-1.0
</text>
<path stroke="white" d="M50 431l924 0"/>
<text stroke="none" fill="white" font-size="16" x="18" y="439">
0.0
</text>
<path stroke="white" stroke-dasharray="1,2" d="M50 340l924 0"/>
<text stroke="none" fill="white" font-size="16" x="18" y="348">
1.0
</text>
<path stroke="white" stroke-dasharray="1,2" d="M50 249l924 0"/>
<text stroke="none" fill="white" font-size="16" x="18" y="257">
2.0
</text>
<path stroke="white" stroke-dasharray="1,2" d="M50 158l924 0"/>
<text stroke="none" fill="white" font-size="16" x="18" y="166">
3.0
</text>
<path stroke="white" stroke-dasharray="1,2" d="M50 67l924 0"/>
<text stroke="none" fill="white" font-size="16" x="18" y="75">
4.0
</text>
<text stroke="none" fill="white" font-size="16" x="10" y="32">
     
</text>
<path stroke="red" d="M462 23l46 0"/>
<text stroke="none" fill="white" font-size="16" x="518" y="32">
x1.vsampled_p
</text>
<path stroke="red" d="M50 431l1 0 1 -7 0 -15 1 -15 0 -4 1 1M54 415l0 -40 1 -5 0 -13 1 -3 0 -2 2 -2 1 0 1 -1 4 0M64 350l0 -1M64 350l4 0 1 -1 48 0 0 -1 1 -9 0 -16 1 -4 0 -2 1 -2 0 -1 1 -1 419 0M540 314l0 -1 14 0 0 -1M554 313l13 0M567 314l0 -1 7 0"/>
<path stroke="red" d="M574 334l0 -21M574 334l1 4M575 352l0 -14M575 352l1 1M576 354l0 -1M576 354l49 0 0 -7 1 -2 0 -8 1 0 0 -1 26 0M653 345l0 -9M653 345l1 1M654 347l0 -1 45 0M699 347l0 -1 7 0M706 349l0 -3M706 349l6 0 0 -1M712 349l26 0 0 -1M738 349l27 0"/>
<path stroke="red" d="M765 349l0 -1M765 349l21 0M786 350l0 -1 18 0M804 350l0 -1 27 0M831 350l0 -1 87 0M918 350l0 -9 1 -2 0 -13 1 -4 0 -3 1 -2 0 -3 1 0 0 -1 14 0M936 314l0 -1 14 0 0 -1M950 313l24 0"/>
<path stroke="blue" d="M50 23l46 0"/>
<text stroke="none" fill="white" font-size="16" x="106" y="32">
x1.vsampled_n
</text>
<path stroke="blue" d="M50 431l1 0 1 -7 0 -15 1 -14 0 -5 1 2M54 415l0 -40 1 -5 0 -13 1 -3 0 -2 2 -2 1 0 1 -1 4 0M64 350l0 -1M64 350l4 0 1 -1 48 0M117 356l0 -7M117 356l1 10M118 378l0 -12M118 378l1 3M119 382l0 -1M119 382l1 2M120 385l0 -1M120 385l3 0"/>
<path stroke="blue" d="M123 386l0 -1M123 386l418 0 0 -1M541 386l5 0 0 -23 1 -4 0 -25 1 -1 0 -5 1 -1 0 -2 2 0 0 -1 15 0 1 1M567 326l0 -2 26 0M593 325l0 -1 7 0M600 344l0 -20M600 344l1 2M601 351l0 -5M601 348l1 -1 0 -2 4 0 0 -1M606 345l27 0 0 -1"/>
<path stroke="blue" d="M633 345l26 0 0 -1M659 345l20 0M679 351l0 -6M679 351l1 2 0 -3 51 0 0 -1 1 -1 0 -2M732 347l1 1 5 0 0 -1M738 348l21 0M759 350l0 -2M759 349l53 0M812 350l0 -1M812 350l1 0 0 -1 18 0M831 350l0 -1 26 0M857 350l0 -1 26 0M883 350l0 -1"/>
<path stroke="blue" d="M883 350l1 -1 26 0M910 350l0 -1 8 0M918 366l0 -18M918 366l1 3M919 385l0 -16M919 385l1 2 1 0 0 -1 41 0 0 -1 1 0M963 386l0 -1M963 386l11 0"/>
<path stroke="#FFA500" d="M462 39l46 0"/>
<text stroke="none" fill="white" font-size="16" x="518" y="48">
x1.vsampled_p-x1.vsampled_n
</text>
<path stroke="#FFA500" d="M50 431l2 0 1 -1 1 0M54 431l0 -1M54 431l63 0 0 -8 1 -19 0 -28 1 -6 0 -4 1 -4 0 -2 2 -2 418 0M540 359l0 -1 1 0M541 359l0 -1 5 0M546 381l0 -23M546 381l1 4M547 410l0 -25M547 410l1 1M548 416l0 -5M548 416l1 1M549 419l0 -2"/>
<path stroke="#FFA500" d="M549 419l2 0M551 420l0 -1M551 420l16 0 0 -1M567 420l7 0M574 441l0 -22M574 441l1 4M575 459l0 -14M575 459l1 1 4 0M580 461l0 -1 13 0 0 -1M593 460l7 0 0 -19 1 -2 0 -5M601 436l1 2M602 440l0 -2M602 440l23 0 0 -7 1 -2 0 -7"/>
<path stroke="#FFA500" d="M626 424l1 -1 0 -1 26 0M653 431l0 -9M653 431l1 2 1 -1 24 0 0 -6 1 -1M680 427l0 -3M680 427l26 0M706 430l0 -3M706 430l25 0 1 2M732 433l0 -1 27 0 0 -3M759 431l27 0M786 432l0 -1 26 0 0 -1 1 0M813 431l0 -1M813 431l25 0 1 -1"/>
<path stroke="#FFA500" d="M839 431l0 -1M839 431l79 0M918 432l0 -26 1 -5 0 -28 1 -7 0 -3 1 -2 0 -2 2 0 0 -1 13 0M936 359l0 -1 38 0"/>
<path stroke="green" d="M50 39l46 0"/>
<text stroke="none" fill="white" font-size="16" x="106" y="48">
x1.sw_sample-2
</text>
<path stroke="green" d="M50 613l1 0 1 -9 0 -21 1 -21M53 580l0 -24M53 580l1 30M54 613l0 -3M54 613l63 0M117 620l0 -172M117 449l422 0M539 614l0 -171M539 613l422 0M961 618l0 -170 1 1 12 0"/>
<path stroke="#FFC0C5" d="M462 55l46 0"/>
<text stroke="none" fill="white" font-size="16" x="518" y="64">
x1.comp_out_p+2
</text>
<path stroke="#FFC0C5" d="M50 249l1 0 1 -9 0 -22 1 -18 0 -4M53 198l1 5M54 249l0 -46M54 249l488 0M542 250l0 -166M542 85l13 0M555 250l0 -168M555 249l13 0M568 250l0 -166M568 85l13 0 0 -8 1 161M582 250l0 -12M582 249l65 0 0 -166M647 85l14 0M661 250l0 -171"/>
<path stroke="#FFC0C5" d="M661 249l39 0 0 -166M700 85l13 0 1 -8M714 250l0 -173M714 249l13 0 0 -165M727 85l13 0M740 250l0 -173M740 249l40 0 0 -165 1 1 12 0M793 249l0 -174M793 249l67 0 0 -164 12 0M872 249l0 -173M872 249l14 0 0 -164 1 -1M887 85l0 -1"/>
<path stroke="#FFC0C5" d="M887 85l11 0M898 249l0 -173M898 249l15 0 0 -165M913 85l12 0M925 249l0 -172M925 249l12 0M937 250l0 -1M937 250l1 -52 0 -114M938 85l13 0M951 250l0 -171M951 249l23 0"/>
<path stroke="#A52A2A" d="M50 55l46 0"/>
<text stroke="none" fill="white" font-size="16" x="106" y="64">
x1.comp_out_n-2
</text>
<path stroke="#A52A2A" d="M50 613l1 0 1 -9 0 -22 1 -19M53 564l0 -3M53 564l1 6M54 613l0 -43M54 612l1 1 539 0 0 -165M594 449l14 0M608 613l0 -173M608 613l13 0 0 -166M621 449l13 0M634 613l0 -173M634 613l40 0M674 619l0 -172M674 449l13 0M687 614l0 -174"/>
<path stroke="#A52A2A" d="M687 613l66 0 0 -165M753 449l13 0M766 613l0 -174M766 613l41 0 0 -164 12 0M819 613l0 -172M819 613l15 0 0 -164 11 0 0 -10 1 154M846 613l0 -20M846 613l128 0"/>
</svg>
