<?xml version="1.0" standalone="yes"?>
<!DOCTYPE svg PUBLIC "-//W3C//DTD SVG 1.1//EN"
 "http://www.w3.org/Graphics/SVG/1.1/DTD/svg11.dtd">
<svg xmlns="http://www.w3.org/2000/svg" version="1.1"
  width="100%" height="100%" viewBox="0 0 1024 768"
  style="fill: none; font-family: Helvetica;
 font: Helvetica;
">

<!-- Creator: NGspice -->

<rect x="0" y="0" width="1024" height="768" fill="black" stroke="none"/>
<text stroke="none" fill="white" font-size="16" x="358" y="752">
time
</text>
<text stroke="none" fill="white" font-size="16" x="10" y="16">
tran1: run1849_vin0.725535
</text>
<path stroke="white" d="M50 704l0 -637"/>
<text stroke="none" fill="white" font-size="16" x="35" y="728">
0.0
</text>
<path stroke="white" stroke-dasharray="1,2" d="M182 704l0 -637"/>
<text stroke="none" fill="white" font-size="16" x="157" y="728">
100.0
</text>
<path stroke="white" stroke-dasharray="1,2" d="M314 704l0 -637"/>
<text stroke="none" fill="white" font-size="16" x="289" y="728">
200.0
</text>
<path stroke="white" stroke-dasharray="1,2" d="M446 704l0 -637"/>
<text stroke="none" fill="white" font-size="16" x="421" y="728">
300.0
</text>
<path stroke="white" stroke-dasharray="1,2" d="M578 704l0 -637"/>
<text stroke="none" fill="white" font-size="16" x="553" y="728">
400.0
</text>
<path stroke="white" stroke-dasharray="1,2" d="M710 704l0 -637"/>
<text stroke="none" fill="white" font-size="16" x="685" y="728">
500.0
</text>
<path stroke="white" stroke-dasharray="1,2" d="M842 704l0 -637"/>
<text stroke="none" fill="white" font-size="16" x="817" y="728">
600.0
</text>
<path stroke="white" stroke-dasharray="1,2" d="M974 704l0 -637"/>
<text stroke="none" fill="white" font-size="16" x="949" y="728">
700.0
</text>
<text stroke="none" fill="white" font-size="16" x="614" y="752">
ns
</text>
<path stroke="white" stroke-dasharray="1,2" d="M50 704l924 0"/>
<text stroke="none" fill="white" font-size="16" x="8" y="712">
-3.0
</text>
<path stroke="white" stroke-dasharray="1,2" d="M50 613l924 0"/>
<text stroke="none" fill="white" font-size="16" x="8" y="621">
-2.0
</text>
<path stroke="white" stroke-dasharray="1,2" d="M50 522l924 0"/>
<text stroke="none" fill="white" font-size="16" x="8" y="530">
-1.0
</text>
<path stroke="white" d="M50 431l924 0"/>
<text stroke="none" fill="white" font-size="16" x="18" y="439">
0.0
</text>
<path stroke="white" stroke-dasharray="1,2" d="M50 340l924 0"/>
<text stroke="none" fill="white" font-size="16" x="18" y="348">
1.0
</text>
<path stroke="white" stroke-dasharray="1,2" d="M50 249l924 0"/>
<text stroke="none" fill="white" font-size="16" x="18" y="257">
2.0
</text>
<path stroke="white" stroke-dasharray="1,2" d="M50 158l924 0"/>
<text stroke="none" fill="white" font-size="16" x="18" y="166">
3.0
</text>
<path stroke="white" stroke-dasharray="1,2" d="M50 67l924 0"/>
<text stroke="none" fill="white" font-size="16" x="18" y="75">
4.0
</text>
<text stroke="none" fill="white" font-size="16" x="10" y="32">
     
</text>
<path stroke="red" d="M462 23l46 0"/>
<text stroke="none" fill="white" font-size="16" x="518" y="32">
x1.vsampled_p
</text>
<path stroke="red" d="M50 431l1 0 1 -7 0 -16 1 -14 0 -5 1 2M54 414l0 -38 1 -4 0 -14 1 -3 0 -2 1 -2 0 -1 2 0 1 -1 3 0 1 1 5 0 0 -1 48 0 0 -1 1 -11 0 -34 1 -5 0 -9 1 -2 0 -2 2 -2 418 0M540 284l0 -1 26 0 1 1M567 285l0 -2 7 0M574 306l0 -23M574 306l1 7"/>
<path stroke="red" d="M575 322l0 -9M575 322l1 2 17 0M593 325l0 -1 7 0M600 336l0 -12M600 336l1 2M601 346l0 -8M601 345l5 0 0 -1 1 0M607 345l0 -1M607 345l26 0 0 -1M633 345l26 0 0 -1M659 345l20 0M679 349l0 -4M679 349l1 1M680 351l0 -1 52 0 0 -3 1 0"/>
<path stroke="red" d="M733 348l0 -1M733 348l5 0 0 -1 13 0M751 348l0 -1M751 348l1 0 0 -1M752 348l7 0M759 350l0 -2M759 349l53 0M812 350l0 -1 106 0M918 350l0 -10 1 -6 0 -35 1 -3 0 -7 1 -2 0 -2 1 0 0 -1 1 0 0 -1 13 0M936 285l0 -2 38 0"/>
<path stroke="blue" d="M50 23l46 0"/>
<text stroke="none" fill="white" font-size="16" x="106" y="32">
x1.vsampled_n
</text>
<path stroke="blue" d="M50 431l1 0 1 -7 0 -15 1 -14 0 -5 1 2M54 414l0 -38 1 -4 0 -14 1 -3 0 -2 1 -2 0 -1 2 0 1 -1 3 0 1 1 4 0 1 -1 48 0M117 367l0 -18M117 367l1 16M118 404l0 -21M118 404l1 3M119 412l0 -5M119 412l1 1M120 414l0 -1M120 414l1 1 425 0"/>
<path stroke="blue" d="M546 415l0 -22 1 -3 0 -26 1 -6 1 -2 0 -1 1 -1 75 0 0 -1 1 -7 0 -11 1 0 1 1 18 0M646 337l0 -1 7 0M653 347l0 -11M653 347l1 2 0 -1 2 -2 16 0M672 347l0 -1 26 0 1 1 0 -1 7 0M706 350l0 -4M706 350l1 0 0 -1 81 0M788 350l0 -1M788 350l1 0"/>
<path stroke="blue" d="M789 350l0 -1 15 0M804 350l0 -1 26 0 1 1 0 -1 26 0M857 350l0 -1 26 0M883 350l0 -1 27 0M910 350l0 -1 8 0M918 350l0 -2M918 349l1 7M919 421l0 -65M919 421l1 0 0 -3 1 -1 0 -1 1 0 1 -1 51 0"/>
<path stroke="#FFA500" d="M462 39l46 0"/>
<text stroke="none" fill="white" font-size="16" x="518" y="48">
x1.vsampled_p-x1.vsampled_n
</text>
<path stroke="#FFA500" d="M50 431l2 0 0 -1 2 0M54 431l0 -1M54 431l63 0 0 -20 1 -27 0 -54 1 -8 0 -13 1 -4 0 -3 1 -2 1 0 0 -1 418 0M540 300l0 -1 6 0M546 321l0 -22M546 321l1 3M547 350l0 -26M547 350l1 6 1 3M549 360l0 -1M549 360l2 0 1 1 2 0 0 -1 12 0"/>
<path stroke="#FFA500" d="M566 360l1 1M567 362l0 -2M567 361l7 0M574 383l0 -23M574 383l1 7M575 399l0 -9M575 399l1 2 1 1 0 -1 16 0M593 402l0 -1 7 0M600 413l0 -12M600 413l1 2M601 423l0 -8M601 422l24 0M625 423l0 -1M625 423l1 7M626 441l0 -11M626 441l1 0"/>
<path stroke="#FFA500" d="M627 441l0 -1 19 0 0 -1M646 440l7 0 0 -11 1 -2M654 428l0 -1M654 428l1 1 4 0M659 430l0 -1 20 0M679 434l0 -5M679 434l1 1 0 -1 6 0M686 435l0 -1 12 0M698 435l0 -1 1 0M699 435l0 -1 7 0M706 435l0 -5 1 1M707 432l0 -1M707 432l25 0"/>
<path stroke="#FFA500" d="M732 432l0 -3 1 1 19 0 0 -1M752 430l7 0M759 432l0 -2M759 431l29 0 0 -2M788 430l24 0M812 431l0 -1M812 431l19 0 0 -1M831 431l7 0M838 432l0 -1 80 0M918 432l0 -10 1 -13 0 -100 1 -3 0 -4 1 -1 0 -1 1 0 0 -1 14 0M936 300l0 -1"/>
<path stroke="#FFA500" d="M936 299l38 0"/>
<path stroke="green" d="M50 39l46 0"/>
<text stroke="none" fill="white" font-size="16" x="106" y="48">
x1.sw_sample-2
</text>
<path stroke="green" d="M50 613l1 0 1 -9 0 -21 1 -21M53 579l0 -23M53 579l1 31M54 613l0 -3M54 613l63 0M117 620l0 -172M117 449l422 0M539 614l0 -171M539 613l422 0M961 618l0 -170 1 1 12 0"/>
<path stroke="#FFC0C5" d="M462 55l46 0"/>
<text stroke="none" fill="white" font-size="16" x="518" y="64">
x1.comp_out_p+2
</text>
<path stroke="#FFC0C5" d="M50 249l1 0 1 -9 0 -22 1 -18 0 -4M53 198l1 5M54 249l0 -46M54 248l1 1 487 0M542 251l0 -168M542 85l13 0M555 249l0 -172M555 249l13 0 0 -165M568 85l13 0 0 -2 1 55M582 250l0 -112M582 249l12 0 0 -165M594 85l14 0M608 249l0 -171"/>
<path stroke="#FFC0C5" d="M608 249l13 0M621 250l0 -167M621 85l13 0M634 249l0 -172M634 249l40 0 0 -165M674 85l13 0M687 249l0 -172M687 249l66 0 0 -165M753 85l13 0M766 250l0 -174M766 249l41 0 0 -165M807 85l12 0M819 250l0 -174M819 249l14 0 1 -157"/>
<path stroke="#FFC0C5" d="M834 92l0 -8M834 85l11 0 0 -7 1 147M846 249l0 -24M846 249l42 0 0 -165M888 85l10 0M898 249l0 -172M898 249l39 0M937 250l0 -1M937 250l1 -87 0 -80M938 85l13 0M951 249l0 -174M951 249l23 0"/>
<path stroke="#A52A2A" d="M50 55l46 0"/>
<text stroke="none" fill="white" font-size="16" x="106" y="64">
x1.comp_out_n-2
</text>
<path stroke="#A52A2A" d="M50 613l1 0 1 -9 0 -22 1 -19M53 564l0 -3M53 564l1 6M54 614l0 -44M54 607l1 5M55 613l0 -1M55 613l592 0M647 614l0 -167M647 449l14 0M661 613l0 -173M661 613l39 0 0 -166M700 449l13 0 0 -9 1 161M714 613l0 -12M714 613l13 0 0 -153"/>
<path stroke="#A52A2A" d="M727 460l1 -11 12 0M740 613l0 -172M740 613l42 0 1 -142 0 -23M783 449l10 0M793 613l0 -166M793 613l67 0 1 -152 0 -12 11 0M872 613l0 -173M872 613l41 0 0 -152 1 -12 11 0M925 614l0 -166M925 613l49 0"/>
</svg>
