<?xml version="1.0" standalone="yes"?>
<!DOCTYPE svg PUBLIC "-//W3C//DTD SVG 1.1//EN"
 "http://www.w3.org/Graphics/SVG/1.1/DTD/svg11.dtd">
<svg xmlns="http://www.w3.org/2000/svg" version="1.1"
  width="100%" height="100%" viewBox="0 0 1024 768"
  style="fill: none; font-family: Helvetica;
 font: Helvetica;
">

<!-- Creator: NGspice -->

<rect x="0" y="0" width="1024" height="768" fill="black" stroke="none"/>
<text stroke="none" fill="white" font-size="16" x="358" y="752">
time
</text>
<text stroke="none" fill="white" font-size="16" x="10" y="16">
tran1: run1114_vin0.0795396
</text>
<path stroke="white" d="M50 704l0 -637"/>
<text stroke="none" fill="white" font-size="16" x="35" y="728">
0.0
</text>
<path stroke="white" stroke-dasharray="1,2" d="M182 704l0 -637"/>
<text stroke="none" fill="white" font-size="16" x="157" y="728">
100.0
</text>
<path stroke="white" stroke-dasharray="1,2" d="M314 704l0 -637"/>
<text stroke="none" fill="white" font-size="16" x="289" y="728">
200.0
</text>
<path stroke="white" stroke-dasharray="1,2" d="M446 704l0 -637"/>
<text stroke="none" fill="white" font-size="16" x="421" y="728">
300.0
</text>
<path stroke="white" stroke-dasharray="1,2" d="M578 704l0 -637"/>
<text stroke="none" fill="white" font-size="16" x="553" y="728">
400.0
</text>
<path stroke="white" stroke-dasharray="1,2" d="M710 704l0 -637"/>
<text stroke="none" fill="white" font-size="16" x="685" y="728">
500.0
</text>
<path stroke="white" stroke-dasharray="1,2" d="M842 704l0 -637"/>
<text stroke="none" fill="white" font-size="16" x="817" y="728">
600.0
</text>
<path stroke="white" stroke-dasharray="1,2" d="M974 704l0 -637"/>
<text stroke="none" fill="white" font-size="16" x="949" y="728">
700.0
</text>
<text stroke="none" fill="white" font-size="16" x="614" y="752">
ns
</text>
<path stroke="white" stroke-dasharray="1,2" d="M50 704l924 0"/>
<text stroke="none" fill="white" font-size="16" x="8" y="712">
-3.0
</text>
<path stroke="white" stroke-dasharray="1,2" d="M50 613l924 0"/>
<text stroke="none" fill="white" font-size="16" x="8" y="621">
-2.0
</text>
<path stroke="white" stroke-dasharray="1,2" d="M50 522l924 0"/>
<text stroke="none" fill="white" font-size="16" x="8" y="530">
-1.0
</text>
<path stroke="white" d="M50 431l924 0"/>
<text stroke="none" fill="white" font-size="16" x="18" y="439">
0.0
</text>
<path stroke="white" stroke-dasharray="1,2" d="M50 340l924 0"/>
<text stroke="none" fill="white" font-size="16" x="18" y="348">
1.0
</text>
<path stroke="white" stroke-dasharray="1,2" d="M50 249l924 0"/>
<text stroke="none" fill="white" font-size="16" x="18" y="257">
2.0
</text>
<path stroke="white" stroke-dasharray="1,2" d="M50 158l924 0"/>
<text stroke="none" fill="white" font-size="16" x="18" y="166">
3.0
</text>
<path stroke="white" stroke-dasharray="1,2" d="M50 67l924 0"/>
<text stroke="none" fill="white" font-size="16" x="18" y="75">
4.0
</text>
<text stroke="none" fill="white" font-size="16" x="10" y="32">
     
</text>
<path stroke="red" d="M462 23l46 0"/>
<text stroke="none" fill="white" font-size="16" x="518" y="32">
x1.vsampled_p
</text>
<path stroke="red" d="M50 431l1 0 1 -7 0 -15 1 -15 0 -4 1 1M54 415l0 -39 1 -5 0 -15 1 -2 0 -2 1 -2 2 0 1 -1 4 0M64 350l0 -1M64 350l4 0 1 -1 48 0 1 -2 0 -2 1 -2 0 -1 421 0M540 343l0 -1 27 0M567 343l0 -1 26 0M593 343l0 -1 26 0M619 343l0 -1 27 0"/>
<path stroke="red" d="M646 343l0 -1 26 0M672 343l0 -1 7 0M679 347l0 -5M679 347l1 1M680 349l0 -1 1 -1 18 0M699 348l0 -1 7 0M706 351l0 -4M706 351l1 0 0 -1 25 0 0 -3 2 0M734 348l0 -1M734 348l4 0 0 -1 13 0M751 348l0 -1M751 348l1 0 0 -1M752 348l7 0"/>
<path stroke="red" d="M759 350l0 -3M759 349l53 0M812 350l0 -1 105 0 0 -2 1 -1 0 -5 1 1 17 0M936 343l0 -1 38 0"/>
<path stroke="blue" d="M50 23l46 0"/>
<text stroke="none" fill="white" font-size="16" x="106" y="32">
x1.vsampled_n
</text>
<path stroke="blue" d="M50 431l1 0 1 -7 0 -15 1 -14 0 -5 1 2M54 415l0 -39 1 -5 0 -15 1 -2 0 -2 1 -2 2 0 1 -1 4 0M64 350l0 -1M64 350l4 0 1 -1 48 0M117 350l0 -1M117 350l1 2M118 354l0 -2M118 354l1 1M119 356l0 -1M119 356l420 0M539 357l0 -1M539 357l1 0"/>
<path stroke="blue" d="M540 357l0 -1 1 0M541 357l0 -1M541 357l5 0 0 -25 1 -1 0 -26 1 -4 0 -3 1 -1 0 -1 1 0 1 -1 3 0 0 -1M554 295l12 0 1 1M567 297l0 -2 7 0M574 327l0 -32M574 327l1 8M575 338l0 -3M575 338l1 0 2 -2 15 0M593 337l0 -1 7 0M600 354l0 -18"/>
<path stroke="blue" d="M600 354l1 3M601 360l0 -3M601 359l1 -2 4 0 0 -1 13 0M619 357l0 -1M619 357l1 0 0 -1M620 357l5 0 0 -10 1 -1 0 -7 1 -1 1 0M628 339l0 -1M628 339l5 0 0 -1M633 339l20 0M653 348l0 -9M653 348l1 2 1 0 0 -1 131 0M786 350l0 -1M786 350l5 0"/>
<path stroke="blue" d="M791 350l0 -1 13 0M804 350l0 -1 1 0M805 350l0 -1M805 350l13 0 0 -1 12 0 1 1 0 -1M831 350l7 0 0 -1 19 0M857 350l0 -1 26 0M883 350l0 -1 27 0M910 350l0 -1 7 0M917 350l0 -1M917 350l1 2M918 360l0 -8M918 357l5 0 0 -1 13 0M936 357l0 -1"/>
<path stroke="blue" d="M936 356l1 0M937 357l0 -1M937 357l13 0 0 -1 24 0"/>
<path stroke="#FFA500" d="M462 39l46 0"/>
<text stroke="none" fill="white" font-size="16" x="518" y="48">
x1.vsampled_p-x1.vsampled_n
</text>
<path stroke="#FFA500" d="M50 431l67 0 0 -1 1 -5 0 -3 1 -3 0 -1 1 -1 420 0 0 -1M540 417l6 0M546 441l0 -25M546 441l1 1M547 468l0 -26M547 468l1 5M548 475l0 -2M548 475l1 1M549 477l0 -1M549 477l1 0 1 1 16 0 0 -1M567 478l7 0 0 -32 1 -8 0 -3 1 0M576 436l0 -1"/>
<path stroke="#FFA500" d="M576 436l1 0M577 437l0 -1M577 437l23 0 0 -18 1 -3 0 -3M601 415l1 1 1 0M603 417l0 -1M603 417l3 0 0 -1 1 0M607 417l0 -1M607 417l12 0 0 -1 1 0M620 417l0 -1M620 417l5 0M625 426l0 -9M625 426l1 1M626 434l0 -7M626 434l1 1 1 0"/>
<path stroke="#FFA500" d="M628 435l1 -1 4 0M633 435l0 -1 13 0M646 435l0 -1 7 0 0 -9 1 -2 1 1 24 0M679 429l0 -5M679 429l1 1M680 431l0 -1 1 -1 25 0M706 433l0 -4M706 433l1 0 0 -1 25 0 0 -3 1 0M733 430l0 -1M733 430l26 0M759 432l0 -2M759 431l27 0"/>
<path stroke="#FFA500" d="M786 431l0 -1 26 0M812 431l0 -1M812 431l105 0 0 -3 1 -3 0 -12M918 415l1 1 1 0M920 417l0 -1M920 417l3 0 0 -1M923 417l13 0 0 -1M936 417l14 0 0 -1M950 417l24 0"/>
<path stroke="green" d="M50 39l46 0"/>
<text stroke="none" fill="white" font-size="16" x="106" y="48">
x1.sw_sample-2
</text>
<path stroke="green" d="M50 613l1 0 1 -9 0 -21 1 -21M53 581l0 -25M53 581l1 29M54 613l0 -3M54 613l63 0M117 620l0 -172M117 449l422 0M539 614l0 -171M539 613l422 0M961 618l0 -170 1 1 12 0"/>
<path stroke="#FFC0C5" d="M462 55l46 0"/>
<text stroke="none" fill="white" font-size="16" x="518" y="64">
x1.comp_out_p+2
</text>
<path stroke="#FFC0C5" d="M50 249l1 0 1 -9 0 -22 1 -18 0 -4M53 198l1 5M54 249l0 -46M54 249l488 0M542 251l0 -168M542 85l13 0M555 250l0 -167M555 249l66 0 0 -166M621 85l13 0M634 250l0 -168M634 250l1 -1 38 0 0 -20 1 -122 0 -23M674 85l13 0M687 249l0 -171"/>
<path stroke="#FFC0C5" d="M687 249l13 0 0 -165M700 85l13 0 0 -5 1 68M714 250l0 -102M714 249l39 0 0 -165M753 85l13 0M766 250l0 -174M766 249l40 0 1 -156 0 -9M807 85l12 0M819 249l0 -173M819 249l14 0 1 -157 0 -8M834 85l11 0 0 -9 1 151M846 249l0 -22"/>
<path stroke="#FFC0C5" d="M846 249l14 0 0 -164 1 -1M861 85l0 -1M861 85l11 0M872 249l0 -173M872 249l14 0 1 -154 0 -11M887 85l11 0M898 249l0 -173M898 249l14 0 1 -157 0 -8M913 85l12 0M925 250l0 -172M925 249l12 0 1 2 0 -168M938 85l13 0M951 249l0 -171"/>
<path stroke="#FFC0C5" d="M951 249l23 0"/>
<path stroke="#A52A2A" d="M50 55l46 0"/>
<text stroke="none" fill="white" font-size="16" x="106" y="64">
x1.comp_out_n-2
</text>
<path stroke="#A52A2A" d="M50 613l1 0 1 -9 0 -22 1 -19M53 564l0 -3M53 564l1 6M54 613l0 -43M54 613l514 0M568 617l0 -170M568 449l13 0 0 -9 1 163M582 613l0 -10M582 613l12 0 0 -165M594 449l14 0M608 613l0 -174M608 613l39 0M647 616l0 -169M647 449l14 0"/>
<path stroke="#A52A2A" d="M661 613l0 -167M661 613l66 0 1 -157 0 -8M728 449l12 0M740 613l0 -172M740 613l40 0 1 -158 0 -7M781 449l12 0M793 613l0 -168M793 613l181 0"/>
</svg>
