<?xml version="1.0" standalone="yes"?>
<!DOCTYPE svg PUBLIC "-//W3C//DTD SVG 1.1//EN"
 "http://www.w3.org/Graphics/SVG/1.1/DTD/svg11.dtd">
<svg xmlns="http://www.w3.org/2000/svg" version="1.1"
  width="100%" height="100%" viewBox="0 0 1024 768"
  style="fill: none; font-family: Helvetica;
 font: Helvetica;
">

<!-- Creator: NGspice -->

<rect x="0" y="0" width="1024" height="768" fill="black" stroke="none"/>
<text stroke="none" fill="white" font-size="16" x="358" y="752">
time
</text>
<text stroke="none" fill="white" font-size="16" x="10" y="16">
tran1: run1145_vin0.106786
</text>
<path stroke="white" d="M50 704l0 -637"/>
<text stroke="none" fill="white" font-size="16" x="35" y="728">
0.0
</text>
<path stroke="white" stroke-dasharray="1,2" d="M182 704l0 -637"/>
<text stroke="none" fill="white" font-size="16" x="157" y="728">
100.0
</text>
<path stroke="white" stroke-dasharray="1,2" d="M314 704l0 -637"/>
<text stroke="none" fill="white" font-size="16" x="289" y="728">
200.0
</text>
<path stroke="white" stroke-dasharray="1,2" d="M446 704l0 -637"/>
<text stroke="none" fill="white" font-size="16" x="421" y="728">
300.0
</text>
<path stroke="white" stroke-dasharray="1,2" d="M578 704l0 -637"/>
<text stroke="none" fill="white" font-size="16" x="553" y="728">
400.0
</text>
<path stroke="white" stroke-dasharray="1,2" d="M710 704l0 -637"/>
<text stroke="none" fill="white" font-size="16" x="685" y="728">
500.0
</text>
<path stroke="white" stroke-dasharray="1,2" d="M842 704l0 -637"/>
<text stroke="none" fill="white" font-size="16" x="817" y="728">
600.0
</text>
<path stroke="white" stroke-dasharray="1,2" d="M974 704l0 -637"/>
<text stroke="none" fill="white" font-size="16" x="949" y="728">
700.0
</text>
<text stroke="none" fill="white" font-size="16" x="614" y="752">
ns
</text>
<path stroke="white" stroke-dasharray="1,2" d="M50 704l924 0"/>
<text stroke="none" fill="white" font-size="16" x="8" y="712">
-3.0
</text>
<path stroke="white" stroke-dasharray="1,2" d="M50 613l924 0"/>
<text stroke="none" fill="white" font-size="16" x="8" y="621">
-2.0
</text>
<path stroke="white" stroke-dasharray="1,2" d="M50 522l924 0"/>
<text stroke="none" fill="white" font-size="16" x="8" y="530">
-1.0
</text>
<path stroke="white" d="M50 431l924 0"/>
<text stroke="none" fill="white" font-size="16" x="18" y="439">
0.0
</text>
<path stroke="white" stroke-dasharray="1,2" d="M50 340l924 0"/>
<text stroke="none" fill="white" font-size="16" x="18" y="348">
1.0
</text>
<path stroke="white" stroke-dasharray="1,2" d="M50 249l924 0"/>
<text stroke="none" fill="white" font-size="16" x="18" y="257">
2.0
</text>
<path stroke="white" stroke-dasharray="1,2" d="M50 158l924 0"/>
<text stroke="none" fill="white" font-size="16" x="18" y="166">
3.0
</text>
<path stroke="white" stroke-dasharray="1,2" d="M50 67l924 0"/>
<text stroke="none" fill="white" font-size="16" x="18" y="75">
4.0
</text>
<text stroke="none" fill="white" font-size="16" x="10" y="32">
     
</text>
<path stroke="red" d="M462 23l46 0"/>
<text stroke="none" fill="white" font-size="16" x="518" y="32">
x1.vsampled_p
</text>
<path stroke="red" d="M50 431l1 0 1 -7 0 -15 1 -15 0 -4 1 1M54 415l0 -39 1 -5 0 -15 1 -2 0 -2 1 -2 2 0 1 -1 4 0M64 350l0 -1M64 350l4 0 1 -1 48 0 1 -3 0 -3 1 -2 0 -1 2 0 0 -1 418 0M539 340l0 -1M539 340l15 0 0 -1M554 340l12 0 0 -1M566 340l14 0"/>
<path stroke="red" d="M580 340l0 -1M580 340l26 0 0 -1 1 0M607 340l0 -1M607 340l26 0 0 -1M633 340l20 0M653 348l0 -9M653 348l1 2M654 351l0 -1M654 351l1 -1 77 0 0 -3 1 0M733 348l0 -1M733 348l5 0 0 -1 1 0M739 348l0 -1M739 348l20 0M759 350l0 -2M759 349l53 0"/>
<path stroke="red" d="M812 350l0 -1M812 350l1 0 0 -1 18 0M831 350l0 -1 26 0M857 350l0 -1 26 0M883 350l0 -1 27 0M910 350l0 -1 8 0M918 350l0 -3 1 -1 0 -5 2 -2M921 340l0 -1M921 340l2 0 0 -1 1 1 26 0 0 -1M950 340l11 0 0 -1 13 0"/>
<path stroke="blue" d="M50 23l46 0"/>
<text stroke="none" fill="white" font-size="16" x="106" y="32">
x1.vsampled_n
</text>
<path stroke="blue" d="M50 431l1 0 1 -7 0 -15 1 -14 0 -5 1 2M54 415l0 -39 1 -5 0 -15 1 -2 0 -2 1 -2 2 0 1 -1 4 0M64 350l0 -1M64 350l4 0 1 -1 48 0M117 350l0 -1M117 350l1 3M118 356l0 -3M118 356l1 1M119 358l0 -1M119 358l1 0 1 1 425 0 0 -29 1 -3"/>
<path stroke="blue" d="M547 327l0 -22 1 -3 0 -2 1 -1 0 -1 5 0 0 -1M554 298l13 0M567 299l0 -1 7 0M574 323l0 -25M574 323l1 8M575 340l0 -9M575 340l1 1 0 -1 1 -1 3 0 0 -1M580 339l13 0 0 -1M593 339l7 0M600 354l0 -15M600 354l1 2M601 362l0 -6M601 361l1 -1"/>
<path stroke="blue" d="M602 360l0 -1 23 0 0 -11 1 -1 0 -6 20 0M646 342l0 -1 26 0M672 342l0 -1 7 0M679 347l0 -6M679 347l1 1M680 349l0 -3 19 0M699 347l0 -1 7 0M706 350l0 -4M706 349l80 0M786 350l0 -1 18 0M804 350l0 -1 26 0 1 1 0 -1 87 0M918 353l0 -4"/>
<path stroke="blue" d="M918 353l1 1M919 361l0 -7M919 361l1 -1 0 -1 54 0"/>
<path stroke="#FFA500" d="M462 39l46 0"/>
<text stroke="none" fill="white" font-size="16" x="518" y="48">
x1.vsampled_p-x1.vsampled_n
</text>
<path stroke="#FFA500" d="M50 431l67 0 0 -1 1 -7 0 -5 1 -3 0 -2 1 -1 426 0M546 441l0 -29M546 441l1 2M547 465l0 -22M547 465l1 4M548 471l0 -2M548 471l2 2 17 0 0 -1M567 473l7 0 0 -26 1 -7 0 -10 1 0M576 431l0 -1M576 431l1 0M577 432l0 -1M577 432l23 0"/>
<path stroke="#FFA500" d="M600 432l0 -15 1 -3 0 -6M601 409l1 2 1 1 3 0 0 -1 1 0M607 412l0 -1M607 412l18 0M625 422l0 -10M625 422l1 2M626 429l0 -5M626 429l1 1 2 0 1 -1 3 0M633 430l0 -1 13 0M646 430l0 -1 7 0M653 438l0 -9M653 438l1 2M654 441l0 -1"/>
<path stroke="#FFA500" d="M654 441l1 -1 17 0 0 -1M672 440l7 0 0 -6 1 -1M680 434l0 -2M680 434l1 0M681 435l0 -1M681 435l18 0 0 -1M699 435l7 0 0 -4 1 1 25 0 0 -3 1 0M733 430l0 -1M733 430l26 0M759 432l0 -2M759 431l27 0 0 -1 26 0M812 431l0 -1M812 431l106 0"/>
<path stroke="#FFA500" d="M918 431l0 -6 1 -1 0 -13 2 0M921 412l0 -1M921 412l2 0 0 -1M923 412l27 0 0 -1M950 412l24 0"/>
<path stroke="green" d="M50 39l46 0"/>
<text stroke="none" fill="white" font-size="16" x="106" y="48">
x1.sw_sample-2
</text>
<path stroke="green" d="M50 613l1 0 1 -9 0 -21 1 -21M53 581l0 -25M53 581l1 29M54 613l0 -3M54 613l63 0M117 620l0 -172M117 449l422 0M539 614l0 -171M539 613l422 0M961 618l0 -170 1 1 12 0"/>
<path stroke="#FFC0C5" d="M462 55l46 0"/>
<text stroke="none" fill="white" font-size="16" x="518" y="64">
x1.comp_out_p+2
</text>
<path stroke="#FFC0C5" d="M50 249l1 0 1 -9 0 -22 1 -18 0 -4M53 198l1 5M54 249l0 -46M54 249l488 0 0 -165M542 85l13 0M555 249l0 -172M555 249l66 0 0 -165M621 85l13 0M634 249l0 -172M634 249l13 0 0 -165M647 85l14 0M661 250l0 -174M661 249l92 0 0 -165"/>
<path stroke="#FFC0C5" d="M753 85l13 0M766 250l0 -174M766 249l41 0 0 -165M807 85l12 0M819 249l0 -173M819 249l14 0 1 -157 0 -8M834 85l11 0 0 -2M845 85l1 150M846 249l0 -14M846 249l91 0M937 250l0 -1M937 250l1 -88 0 -79M938 85l13 0M951 250l0 -173"/>
<path stroke="#FFC0C5" d="M951 249l23 0"/>
<path stroke="#A52A2A" d="M50 55l46 0"/>
<text stroke="none" fill="white" font-size="16" x="106" y="64">
x1.comp_out_n-2
</text>
<path stroke="#A52A2A" d="M50 613l1 0 1 -9 0 -22 1 -19M53 564l0 -3M53 564l1 6M54 613l0 -43M54 613l514 0M568 614l0 -167M568 449l13 0 0 -8 1 159M582 613l0 -13M582 613l12 0M594 614l0 -167M594 448l1 1 13 0M608 613l0 -172M608 613l65 0M673 615l0 -2"/>
<path stroke="#A52A2A" d="M673 615l1 -98 0 -70M674 449l13 0M687 613l0 -172M687 613l13 0 0 -166M700 449l13 0 0 -9 1 162M714 613l0 -11M714 613l13 0 0 -152 1 -12 0 -1M728 449l12 0M740 613l0 -173M740 613l40 0 0 -157 1 -8M781 449l0 -1M781 449l12 0"/>
<path stroke="#A52A2A" d="M793 613l0 -170M793 613l67 0 0 -163 1 -2M861 449l0 -1M861 449l11 0M872 613l0 -171M872 613l14 0 1 -152 0 -13M887 449l11 0M898 613l0 -174M898 613l15 0 0 -165M913 449l12 0M925 614l0 -171M925 613l49 0"/>
</svg>
