<?xml version="1.0" standalone="yes"?>
<!DOCTYPE svg PUBLIC "-//W3C//DTD SVG 1.1//EN"
 "http://www.w3.org/Graphics/SVG/1.1/DTD/svg11.dtd">
<svg xmlns="http://www.w3.org/2000/svg" version="1.1"
  width="100%" height="100%" viewBox="0 0 1024 768"
  style="fill: none; font-family: Helvetica;
 font: Helvetica;
">

<!-- Creator: NGspice -->

<rect x="0" y="0" width="1024" height="768" fill="black" stroke="none"/>
<text stroke="none" fill="white" font-size="16" x="358" y="752">
time
</text>
<text stroke="none" fill="white" font-size="16" x="10" y="16">
tran1: run742_vin-0.247413
</text>
<path stroke="white" d="M50 704l0 -637"/>
<text stroke="none" fill="white" font-size="16" x="35" y="728">
0.0
</text>
<path stroke="white" stroke-dasharray="1,2" d="M182 704l0 -637"/>
<text stroke="none" fill="white" font-size="16" x="157" y="728">
100.0
</text>
<path stroke="white" stroke-dasharray="1,2" d="M314 704l0 -637"/>
<text stroke="none" fill="white" font-size="16" x="289" y="728">
200.0
</text>
<path stroke="white" stroke-dasharray="1,2" d="M446 704l0 -637"/>
<text stroke="none" fill="white" font-size="16" x="421" y="728">
300.0
</text>
<path stroke="white" stroke-dasharray="1,2" d="M578 704l0 -637"/>
<text stroke="none" fill="white" font-size="16" x="553" y="728">
400.0
</text>
<path stroke="white" stroke-dasharray="1,2" d="M710 704l0 -637"/>
<text stroke="none" fill="white" font-size="16" x="685" y="728">
500.0
</text>
<path stroke="white" stroke-dasharray="1,2" d="M842 704l0 -637"/>
<text stroke="none" fill="white" font-size="16" x="817" y="728">
600.0
</text>
<path stroke="white" stroke-dasharray="1,2" d="M974 704l0 -637"/>
<text stroke="none" fill="white" font-size="16" x="949" y="728">
700.0
</text>
<text stroke="none" fill="white" font-size="16" x="614" y="752">
ns
</text>
<path stroke="white" stroke-dasharray="1,2" d="M50 704l924 0"/>
<text stroke="none" fill="white" font-size="16" x="8" y="712">
-3.0
</text>
<path stroke="white" stroke-dasharray="1,2" d="M50 613l924 0"/>
<text stroke="none" fill="white" font-size="16" x="8" y="621">
-2.0
</text>
<path stroke="white" stroke-dasharray="1,2" d="M50 522l924 0"/>
<text stroke="none" fill="white" font-size="16" x="8" y="530">
-1.0
</text>
<path stroke="white" d="M50 431l924 0"/>
<text stroke="none" fill="white" font-size="16" x="18" y="439">
0.0
</text>
<path stroke="white" stroke-dasharray="1,2" d="M50 340l924 0"/>
<text stroke="none" fill="white" font-size="16" x="18" y="348">
1.0
</text>
<path stroke="white" stroke-dasharray="1,2" d="M50 249l924 0"/>
<text stroke="none" fill="white" font-size="16" x="18" y="257">
2.0
</text>
<path stroke="white" stroke-dasharray="1,2" d="M50 158l924 0"/>
<text stroke="none" fill="white" font-size="16" x="18" y="166">
3.0
</text>
<path stroke="white" stroke-dasharray="1,2" d="M50 67l924 0"/>
<text stroke="none" fill="white" font-size="16" x="18" y="75">
4.0
</text>
<text stroke="none" fill="white" font-size="16" x="10" y="32">
     
</text>
<path stroke="red" d="M462 23l46 0"/>
<text stroke="none" fill="white" font-size="16" x="518" y="32">
x1.vsampled_p
</text>
<path stroke="red" d="M50 431l1 0 1 -7 0 -15 1 -14 0 -5 1 2M54 415l0 -39 1 -5 0 -14 1 -3 0 -2 1 -2 2 0 1 -1 4 0M64 350l0 -1M64 350l4 0 1 -1 48 0M117 353l0 -4M117 353l1 6M118 367l0 -8M118 367l1 3 1 1 1 0 1 1 424 0 0 -21 1 -3 0 -24 1 -5 0 -4 1 -2"/>
<path stroke="red" d="M549 313l0 -1 1 -1 4 0 0 -1 12 0 1 1M567 312l0 -1 7 0M574 340l0 -30M574 340l1 4M575 353l0 -9M575 353l1 0 0 -1 1 0 1 -1 15 0M593 352l0 -1 26 0M619 352l0 -1M619 352l1 0 0 -1 5 0 1 -1 0 -16 1 -1 2 0 1 1 3 0 0 -1 13 0M646 334l0 -1"/>
<path stroke="red" d="M646 334l7 0M653 342l0 -9M653 342l1 2M654 346l0 -2 5 0 0 -1M659 344l20 0M679 351l0 -7M679 351l1 0 0 -2 132 0M812 350l0 -1 19 0M831 350l0 -1 26 0M857 350l0 -1 26 0M883 350l0 -1 27 0M910 350l0 -1 8 0M918 368l0 -19M918 368l1 1"/>
<path stroke="red" d="M919 376l0 -7M919 375l1 -1 0 -2 54 0"/>
<path stroke="blue" d="M50 23l46 0"/>
<text stroke="none" fill="white" font-size="16" x="106" y="32">
x1.vsampled_n
</text>
<path stroke="blue" d="M50 431l1 0 1 -7 0 -15 1 -15 0 -4 1 1M54 415l0 -39 1 -5 0 -14 1 -3 0 -2 1 -2 2 0 1 -1 4 0M64 350l0 -1M64 350l4 0 1 -1 48 0 1 -7 0 -10 1 -3 1 -1 0 -1 420 0M540 328l0 -1 14 0 0 -1M554 327l13 0M567 328l0 -1 13 0 0 -1M580 327l13 0"/>
<path stroke="blue" d="M593 328l0 -1 7 0M600 344l0 -17M600 344l1 3M601 350l0 -3M601 349l2 -2 16 0M619 348l0 -1 27 0M646 348l0 -1 26 0M672 348l0 -1 27 0M699 348l0 -1 7 0M706 351l0 -4M706 351l1 -1 25 0 0 -3 1 0M733 348l0 -1M733 348l5 0 0 -1 1 0"/>
<path stroke="blue" d="M739 348l0 -1M739 348l12 0 0 -1M751 348l8 0M759 350l0 -2M759 349l29 0M788 350l0 -1M788 350l3 0 0 -1 13 0M804 350l0 -1 1 0M805 350l0 -1M805 350l1 0 0 -1 6 0M812 350l0 -1 6 0M818 350l0 -1 12 0 1 1 0 -1M831 350l1 0 1 -1 85 0"/>
<path stroke="blue" d="M918 350l0 -13 1 -2 0 -7 1 -1 0 -1 1 1 2 0 0 -1M923 327l13 0M936 328l0 -1 14 0 0 -1M950 327l24 0"/>
<path stroke="#FFA500" d="M462 39l46 0"/>
<text stroke="none" fill="white" font-size="16" x="518" y="48">
x1.vsampled_p-x1.vsampled_n
</text>
<path stroke="#FFA500" d="M50 431l67 0M117 435l0 -4M117 435l1 13M118 466l0 -18M118 466l1 5 1 3M120 475l0 -1M120 475l1 1 419 0 0 -1M540 476l6 0 0 -21 1 -3 0 -24 1 -5 0 -4 1 -2 0 -1 1 -1 4 0 0 -1M554 415l13 0 0 -1M567 415l7 0M574 445l0 -30M574 445l1 4"/>
<path stroke="#FFA500" d="M575 457l0 -8M575 457l1 0 0 -1 3 0 0 -1 1 0M580 456l0 -1M580 456l13 0 0 -1 7 0 0 -17 1 -3 0 -3M601 433l1 1M602 435l0 -1M602 435l23 0 1 -1 0 -16 1 -1 19 0M646 418l0 -1 7 0M653 426l0 -9M653 426l1 2M654 429l0 -1 2 0 0 -1"/>
<path stroke="#FFA500" d="M656 427l16 0M672 428l0 -1 7 0M679 434l0 -7M679 434l1 1 0 -2 19 0 0 -1M699 433l7 0 0 -4 1 0M707 430l0 -1M707 430l25 0M732 433l0 -3M732 433l1 0 0 -1 26 0 0 -2M759 431l29 0 0 -1 24 0M812 431l0 -1M812 431l106 0M918 462l0 -32"/>
<path stroke="#FFA500" d="M918 462l1 3M919 478l0 -13M919 478l1 0 0 -1 1 -1 15 0 0 -1M936 476l38 0"/>
<path stroke="green" d="M50 39l46 0"/>
<text stroke="none" fill="white" font-size="16" x="106" y="48">
x1.sw_sample-2
</text>
<path stroke="green" d="M50 613l1 0 1 -9 0 -21 1 -21M53 581l0 -25M53 581l1 29M54 613l0 -3M54 613l63 0M117 620l0 -172M117 449l422 0M539 614l0 -174M539 613l422 0M961 618l0 -170 1 1 12 0"/>
<path stroke="#FFC0C5" d="M462 55l46 0"/>
<text stroke="none" fill="white" font-size="16" x="518" y="64">
x1.comp_out_p+2
</text>
<path stroke="#FFC0C5" d="M50 249l1 0 1 -9 0 -22 1 -18 0 -4M53 198l1 5M54 249l0 -46M54 249l514 0 0 -166M568 85l13 0 0 -8 1 156M582 249l0 -16M582 249l65 0M647 253l0 -170M647 85l14 0M661 249l0 -172M661 249l12 0M673 250l0 -1M673 250l1 -66 0 -100"/>
<path stroke="#FFC0C5" d="M674 85l13 0M687 249l0 -171M687 249l40 0 1 -148 0 -17M728 85l12 0M740 249l0 -167M740 249l67 0 0 -165M807 85l12 0M819 250l0 -174M819 249l14 0 1 -157 0 -8M834 85l11 0 0 -10 1 150M846 249l0 -24M846 249l14 0 0 -165M860 85l12 0"/>
<path stroke="#FFC0C5" d="M872 249l0 -174M872 249l14 0 1 -154 0 -10 11 0M898 249l0 -174M898 249l15 0 0 -165M913 85l12 0M925 250l0 -166M925 249l49 0"/>
<path stroke="#A52A2A" d="M50 55l46 0"/>
<text stroke="none" fill="white" font-size="16" x="106" y="64">
x1.comp_out_n-2
</text>
<path stroke="#A52A2A" d="M50 613l1 0 1 -9 0 -22 1 -19M53 564l0 -3M53 564l1 6M54 613l0 -43M54 613l488 0M542 614l0 -167M542 449l13 0M555 613l0 -171M555 613l39 0 0 -165M594 449l14 0M608 613l0 -171M608 613l13 0 0 -165M621 449l13 0M634 613l0 -173"/>
<path stroke="#A52A2A" d="M634 613l66 0 0 -165M700 449l13 0 0 -8 1 155M714 613l0 -17M714 613l39 0 0 -165M753 449l13 0M766 613l0 -173M766 613l16 0 0 -165M782 449l11 0M793 613l0 -168M793 613l144 0M937 615l0 -2M937 615l1 -115 0 -53M938 449l13 0"/>
<path stroke="#A52A2A" d="M951 614l0 -167M951 613l23 0"/>
</svg>
