<?xml version="1.0" standalone="yes"?>
<!DOCTYPE svg PUBLIC "-//W3C//DTD SVG 1.1//EN"
 "http://www.w3.org/Graphics/SVG/1.1/DTD/svg11.dtd">
<svg xmlns="http://www.w3.org/2000/svg" version="1.1"
  width="100%" height="100%" viewBox="0 0 1024 768"
  style="fill: none; font-family: Helvetica;
 font: Helvetica;
">

<!-- Creator: NGspice -->

<rect x="0" y="0" width="1024" height="768" fill="black" stroke="none"/>
<text stroke="none" fill="white" font-size="16" x="358" y="752">
time
</text>
<text stroke="none" fill="white" font-size="16" x="10" y="16">
tran1: run841_vin-0.160401
</text>
<path stroke="white" d="M50 704l0 -637"/>
<text stroke="none" fill="white" font-size="16" x="35" y="728">
0.0
</text>
<path stroke="white" stroke-dasharray="1,2" d="M182 704l0 -637"/>
<text stroke="none" fill="white" font-size="16" x="157" y="728">
100.0
</text>
<path stroke="white" stroke-dasharray="1,2" d="M314 704l0 -637"/>
<text stroke="none" fill="white" font-size="16" x="289" y="728">
200.0
</text>
<path stroke="white" stroke-dasharray="1,2" d="M446 704l0 -637"/>
<text stroke="none" fill="white" font-size="16" x="421" y="728">
300.0
</text>
<path stroke="white" stroke-dasharray="1,2" d="M578 704l0 -637"/>
<text stroke="none" fill="white" font-size="16" x="553" y="728">
400.0
</text>
<path stroke="white" stroke-dasharray="1,2" d="M710 704l0 -637"/>
<text stroke="none" fill="white" font-size="16" x="685" y="728">
500.0
</text>
<path stroke="white" stroke-dasharray="1,2" d="M842 704l0 -637"/>
<text stroke="none" fill="white" font-size="16" x="817" y="728">
600.0
</text>
<path stroke="white" stroke-dasharray="1,2" d="M974 704l0 -637"/>
<text stroke="none" fill="white" font-size="16" x="949" y="728">
700.0
</text>
<text stroke="none" fill="white" font-size="16" x="614" y="752">
ns
</text>
<path stroke="white" stroke-dasharray="1,2" d="M50 704l924 0"/>
<text stroke="none" fill="white" font-size="16" x="8" y="712">
-3.0
</text>
<path stroke="white" stroke-dasharray="1,2" d="M50 613l924 0"/>
<text stroke="none" fill="white" font-size="16" x="8" y="621">
-2.0
</text>
<path stroke="white" stroke-dasharray="1,2" d="M50 522l924 0"/>
<text stroke="none" fill="white" font-size="16" x="8" y="530">
-1.0
</text>
<path stroke="white" d="M50 431l924 0"/>
<text stroke="none" fill="white" font-size="16" x="18" y="439">
0.0
</text>
<path stroke="white" stroke-dasharray="1,2" d="M50 340l924 0"/>
<text stroke="none" fill="white" font-size="16" x="18" y="348">
1.0
</text>
<path stroke="white" stroke-dasharray="1,2" d="M50 249l924 0"/>
<text stroke="none" fill="white" font-size="16" x="18" y="257">
2.0
</text>
<path stroke="white" stroke-dasharray="1,2" d="M50 158l924 0"/>
<text stroke="none" fill="white" font-size="16" x="18" y="166">
3.0
</text>
<path stroke="white" stroke-dasharray="1,2" d="M50 67l924 0"/>
<text stroke="none" fill="white" font-size="16" x="18" y="75">
4.0
</text>
<text stroke="none" fill="white" font-size="16" x="10" y="32">
     
</text>
<path stroke="red" d="M462 23l46 0"/>
<text stroke="none" fill="white" font-size="16" x="518" y="32">
x1.vsampled_p
</text>
<path stroke="red" d="M50 431l1 0 1 -7 0 -15 1 -14 0 -5 1 2M54 415l0 -39 1 -5 0 -14 1 -3 0 -2 1 -2 2 0 1 -1 4 0M64 350l0 -1M64 350l4 0 1 -1 48 0M117 351l0 -2M117 351l1 4M118 361l0 -6M118 361l3 3 425 0 0 -21 1 -2 0 -23 1 -6 0 -7 2 -2 4 0 0 -1"/>
<path stroke="red" d="M554 302l12 0 1 1M567 304l0 -1 7 0M574 331l0 -28M574 331l1 7M575 345l0 -7M575 345l1 0 1 -1 2 0 0 -1 14 0M593 344l0 -1 26 0M619 344l0 -1M619 344l1 0 0 -1 26 0M646 344l0 -1 26 0M672 344l0 -1 7 0M679 350l0 -7M679 350l1 1 0 -2"/>
<path stroke="red" d="M680 349l6 0 0 -1M686 349l12 0 0 -1M698 349l1 0 0 -1M699 349l13 0 0 -1M712 349l13 0 0 -1M725 349l13 0 0 -1 1 0M739 349l0 -1M739 349l12 0 0 -1M751 349l1 0 0 -1M752 349l13 0 0 -1M765 349l13 0 0 -1M778 349l8 0M786 350l0 -1"/>
<path stroke="red" d="M786 349l18 0M804 350l0 -1 27 0M831 350l0 -1 26 0M857 350l0 -1 26 0M883 350l0 -1 27 0M910 350l0 -1 7 0 1 -2M918 366l0 -21M918 366l1 1 0 -2 1 -1 54 0"/>
<path stroke="blue" d="M50 23l46 0"/>
<text stroke="none" fill="white" font-size="16" x="106" y="32">
x1.vsampled_n
</text>
<path stroke="blue" d="M50 431l1 0 1 -7 0 -15 1 -15 0 -4 1 1M54 415l0 -39 1 -5 0 -14 1 -3 0 -2 1 -2 2 0 1 -1 4 0M64 350l0 -1M64 350l4 0 1 -1 48 0 1 -5 0 -6 1 -2 1 -1 419 0 0 -1M539 335l15 0 0 -1M554 335l26 0 0 -1M580 335l20 0M600 352l0 -17M600 352l1 3"/>
<path stroke="blue" d="M601 358l0 -3M601 357l2 -2 22 0 0 -9 1 -1 0 -7 1 -1 19 0M646 338l0 -1 7 0M653 347l0 -10M653 347l1 2 0 -1 5 0 0 -1 13 0M672 348l0 -1 1 0M673 348l0 -1M673 348l13 0 0 -1 12 0 1 1 0 -1M699 348l7 0M706 351l0 -4M706 351l1 0 0 -1"/>
<path stroke="blue" d="M707 350l24 0 1 -1 0 -2M732 348l27 0M759 350l0 -2M759 349l54 0M813 350l0 -1 17 0 1 1 0 -1 86 0M917 350l0 -1M917 350l1 -1 0 -10 1 -1 0 -3 1 -1M920 335l0 -1M920 335l3 0 0 -1M923 335l27 0 0 -1M950 335l12 0 0 -1 2 0 1 1 9 0"/>
<path stroke="#FFA500" d="M462 39l46 0"/>
<text stroke="none" fill="white" font-size="16" x="518" y="48">
x1.vsampled_p-x1.vsampled_n
</text>
<path stroke="#FFA500" d="M50 431l67 0M117 433l0 -2M117 433l1 9M118 454l0 -12M118 454l1 4 1 1M120 460l0 -1M120 460l426 0 0 -20 1 -3 0 -23 1 -6 0 -7 2 -2 17 0M567 400l0 -1 7 0M574 428l0 -29M574 428l1 6M575 442l0 -8M575 442l1 0 0 -1 1 -1 23 0 0 -17"/>
<path stroke="#FFA500" d="M600 423l1 -4 0 -2M601 418l1 0M602 419l0 -1M602 419l17 0M619 420l0 -1 6 0M625 428l0 -9M625 428l1 1M626 437l0 -8M626 437l27 0 0 -9 1 -2 1 1 24 0M679 433l0 -6M679 433l1 1 0 -2 26 0 0 -3 3 0M709 430l0 -1M709 430l3 0 0 -1"/>
<path stroke="#FFA500" d="M712 430l1 0 0 -1M713 430l12 0 0 -1M725 430l6 0 0 -1 1 2M732 433l0 -2M732 432l27 0 0 -3M759 430l19 0M778 431l0 -1 7 0M785 431l0 -1M785 431l1 0M786 432l0 -1 27 0 0 -1M813 431l104 0 0 -2 1 -1M918 457l0 -29M918 457l1 3"/>
<path stroke="#FFA500" d="M919 461l0 -1M919 461l1 0 0 -1 54 0"/>
<path stroke="green" d="M50 39l46 0"/>
<text stroke="none" fill="white" font-size="16" x="106" y="48">
x1.sw_sample-2
</text>
<path stroke="green" d="M50 613l1 0 1 -9 0 -21 1 -21M53 581l0 -25M53 581l1 29M54 613l0 -3M54 613l63 0M117 620l0 -172M117 449l422 0M539 614l0 -171M539 613l422 0M961 618l0 -170 1 1 12 0"/>
<path stroke="#FFC0C5" d="M462 55l46 0"/>
<text stroke="none" fill="white" font-size="16" x="518" y="64">
x1.comp_out_p+2
</text>
<path stroke="#FFC0C5" d="M50 249l1 0 1 -9 0 -22 1 -18 0 -4M53 198l1 5M54 249l0 -46M54 249l514 0M568 250l0 -166M568 85l13 0 0 -8 1 158M582 249l0 -14M582 249l39 0M621 251l0 -168M621 85l13 0M634 250l0 -172M634 250l1 -1 38 0M673 250l0 -1M673 250l1 -49"/>
<path stroke="#FFC0C5" d="M674 201l0 -117M674 85l13 0M687 249l0 -172M687 249l40 0 0 -165M727 85l13 0M740 249l0 -173M740 249l40 0 0 -165M780 85l13 0M793 249l0 -166M793 249l41 0 0 -165M834 85l11 0M845 86l0 -3M845 86l1 149M846 249l0 -14M846 249l128 0"/>
<path stroke="#A52A2A" d="M50 55l46 0"/>
<text stroke="none" fill="white" font-size="16" x="106" y="64">
x1.comp_out_n-2
</text>
<path stroke="#A52A2A" d="M50 613l1 0 1 -9 0 -22 1 -19M53 564l0 -3M53 564l1 6M54 613l0 -43M54 613l487 0 1 1 0 -167M542 449l13 0M555 613l0 -172M555 613l39 0M594 614l0 -167M594 449l14 0M608 613l0 -167M608 613l39 0M647 618l0 -171M647 449l14 0M661 613l0 -167"/>
<path stroke="#A52A2A" d="M661 613l13 0M674 614l0 -1 26 0 0 -165 1 0M701 449l0 -1M701 449l12 0 0 -9 1 165M714 614l0 -9M714 613l39 0 0 -165M753 449l13 0M766 614l0 -170M766 613l41 0 0 -153 1 -12M808 449l0 -1M808 449l11 0M819 613l0 -169M819 613l41 0"/>
<path stroke="#A52A2A" d="M860 613l0 -165M860 449l12 0M872 613l0 -174M872 613l14 0 0 -158 1 -7M887 449l0 -1M887 449l11 0M898 613l0 -174M898 613l14 0 1 -158 0 -7M913 449l12 0M925 613l0 -173M925 613l12 0 1 -62 0 -103M938 449l13 0M951 614l0 -167"/>
<path stroke="#A52A2A" d="M951 613l23 0"/>
</svg>
