<?xml version="1.0" standalone="yes"?>
<!DOCTYPE svg PUBLIC "-//W3C//DTD SVG 1.1//EN"
 "http://www.w3.org/Graphics/SVG/1.1/DTD/svg11.dtd">
<svg xmlns="http://www.w3.org/2000/svg" version="1.1"
  width="100%" height="100%" viewBox="0 0 1024 768"
  style="fill: none; font-family: Helvetica;
 font: Helvetica;
">

<!-- Creator: NGspice -->

<rect x="0" y="0" width="1024" height="768" fill="black" stroke="none"/>
<text stroke="none" fill="white" font-size="16" x="358" y="752">
time
</text>
<text stroke="none" fill="white" font-size="16" x="10" y="16">
tran1: run842_vin-0.159523
</text>
<path stroke="white" d="M50 704l0 -637"/>
<text stroke="none" fill="white" font-size="16" x="35" y="728">
0.0
</text>
<path stroke="white" stroke-dasharray="1,2" d="M182 704l0 -637"/>
<text stroke="none" fill="white" font-size="16" x="157" y="728">
100.0
</text>
<path stroke="white" stroke-dasharray="1,2" d="M314 704l0 -637"/>
<text stroke="none" fill="white" font-size="16" x="289" y="728">
200.0
</text>
<path stroke="white" stroke-dasharray="1,2" d="M446 704l0 -637"/>
<text stroke="none" fill="white" font-size="16" x="421" y="728">
300.0
</text>
<path stroke="white" stroke-dasharray="1,2" d="M578 704l0 -637"/>
<text stroke="none" fill="white" font-size="16" x="553" y="728">
400.0
</text>
<path stroke="white" stroke-dasharray="1,2" d="M710 704l0 -637"/>
<text stroke="none" fill="white" font-size="16" x="685" y="728">
500.0
</text>
<path stroke="white" stroke-dasharray="1,2" d="M842 704l0 -637"/>
<text stroke="none" fill="white" font-size="16" x="817" y="728">
600.0
</text>
<path stroke="white" stroke-dasharray="1,2" d="M974 704l0 -637"/>
<text stroke="none" fill="white" font-size="16" x="949" y="728">
700.0
</text>
<text stroke="none" fill="white" font-size="16" x="614" y="752">
ns
</text>
<path stroke="white" stroke-dasharray="1,2" d="M50 704l924 0"/>
<text stroke="none" fill="white" font-size="16" x="8" y="712">
-3.0
</text>
<path stroke="white" stroke-dasharray="1,2" d="M50 613l924 0"/>
<text stroke="none" fill="white" font-size="16" x="8" y="621">
-2.0
</text>
<path stroke="white" stroke-dasharray="1,2" d="M50 522l924 0"/>
<text stroke="none" fill="white" font-size="16" x="8" y="530">
-1.0
</text>
<path stroke="white" d="M50 431l924 0"/>
<text stroke="none" fill="white" font-size="16" x="18" y="439">
0.0
</text>
<path stroke="white" stroke-dasharray="1,2" d="M50 340l924 0"/>
<text stroke="none" fill="white" font-size="16" x="18" y="348">
1.0
</text>
<path stroke="white" stroke-dasharray="1,2" d="M50 249l924 0"/>
<text stroke="none" fill="white" font-size="16" x="18" y="257">
2.0
</text>
<path stroke="white" stroke-dasharray="1,2" d="M50 158l924 0"/>
<text stroke="none" fill="white" font-size="16" x="18" y="166">
3.0
</text>
<path stroke="white" stroke-dasharray="1,2" d="M50 67l924 0"/>
<text stroke="none" fill="white" font-size="16" x="18" y="75">
4.0
</text>
<text stroke="none" fill="white" font-size="16" x="10" y="32">
     
</text>
<path stroke="red" d="M462 23l46 0"/>
<text stroke="none" fill="white" font-size="16" x="518" y="32">
x1.vsampled_p
</text>
<path stroke="red" d="M50 431l1 0 1 -7 0 -15 1 -14 0 -5 1 2M54 415l0 -39 1 -5 0 -14 1 -3 0 -2 1 -2 2 0 1 -1 4 0M64 350l0 -1M64 350l4 0 1 -1 48 0M117 351l0 -2M117 351l1 4M118 361l0 -6M118 361l3 3 425 0 0 -24 1 -2 0 -21 1 -6 0 -4 1 -2 0 -1 1 -1"/>
<path stroke="red" d="M550 303l4 0 0 -1 12 0 1 1M567 304l0 -1 7 0M574 332l0 -29M574 332l1 6M575 345l0 -7M575 345l1 0 1 -1 1 0 0 -1 15 0M593 344l0 -1 26 0M619 344l0 -1 27 0M646 344l0 -1 26 0M672 344l0 -1 7 0M679 348l0 -5M679 348l1 1M680 351l0 -2"/>
<path stroke="red" d="M680 349l2 0 1 -1 15 0 1 1 0 -1 26 0M725 349l0 -1 26 0M751 349l0 -1M751 349l1 0 0 -1 26 0M778 349l0 -1 8 0M786 350l0 -2M786 349l27 0M813 350l0 -1 17 0 1 1 0 -1 87 0M918 358l0 -14M918 358l1 2M919 367l0 -7M919 366l1 -1 0 -1"/>
<path stroke="red" d="M920 364l54 0"/>
<path stroke="blue" d="M50 23l46 0"/>
<text stroke="none" fill="white" font-size="16" x="106" y="32">
x1.vsampled_n
</text>
<path stroke="blue" d="M50 431l1 0 1 -7 0 -15 1 -15 0 -4 1 1M54 415l0 -39 1 -5 0 -14 1 -3 0 -2 1 -2 2 0 1 -1 4 0M64 350l0 -1M64 350l4 0 1 -1 48 0 1 -5 0 -6 1 -2 1 -1 434 0 0 -1M554 335l13 0M567 336l0 -1 13 0 0 -1M580 335l20 0M600 353l0 -18M600 353l1 3"/>
<path stroke="blue" d="M601 358l0 -2M601 358l1 -1 0 -1 1 -1 22 0 0 -8 1 -1 0 -8 1 0 0 -1 19 0M646 338l0 -1 7 0M653 348l0 -11M653 348l1 1 0 -1 5 0 0 -1M659 348l13 0 0 -1M672 348l14 0 0 -1M686 348l12 0 0 -1M698 348l8 0M706 351l0 -3M706 351l1 0"/>
<path stroke="blue" d="M707 351l0 -1 24 0 1 -2 0 -1M732 348l27 0M759 350l0 -2M759 349l19 0M778 350l0 -1 26 0M804 350l0 -1 27 0M831 350l0 -1 26 0M857 350l0 -1 26 0M883 350l0 -1 27 0M910 350l0 -1 8 0M918 351l0 -5 1 -1 0 -9 1 -1 3 0 0 -1M923 335l27 0"/>
<path stroke="blue" d="M950 335l0 -1M950 335l24 0"/>
<path stroke="#FFA500" d="M462 39l46 0"/>
<text stroke="none" fill="white" font-size="16" x="518" y="48">
x1.vsampled_p-x1.vsampled_n
</text>
<path stroke="#FFA500" d="M50 431l67 0M117 433l0 -2M117 433l1 9M118 454l0 -12M118 454l1 3 1 2 1 1 425 0 0 -23 1 -3 0 -20 1 -7 0 -4 1 -2 0 -1 1 -1 4 0 0 -1M554 399l13 0M567 400l0 -2M567 399l7 0M574 428l0 -29M574 428l1 6M575 441l0 -7M575 441l1 0"/>
<path stroke="#FFA500" d="M576 441l1 -1 3 0 0 -1M580 440l13 0 0 -1M593 440l7 0 0 -18 1 -4 0 -2M601 417l1 1M602 419l0 -1M602 419l23 0M625 428l0 -9M625 428l1 1M626 437l0 -8M626 437l27 0 0 -10 1 -1 1 0M655 427l0 -1M655 427l24 0M679 432l0 -5M679 432l1 0"/>
<path stroke="#FFA500" d="M680 434l0 -2 26 0 0 -4 1 1 24 0M731 430l0 -1M731 430l1 1M732 432l0 -1M732 432l27 0 0 -3M759 430l27 0M786 432l0 -2M786 431l27 0M813 432l0 -1 105 0M918 443l0 -16M918 443l1 3M919 461l0 -15M919 461l1 0 1 -1 15 0 0 -1M936 460l38 0"/>
<path stroke="green" d="M50 39l46 0"/>
<text stroke="none" fill="white" font-size="16" x="106" y="48">
x1.sw_sample-2
</text>
<path stroke="green" d="M50 613l1 0 1 -9 0 -21 1 -21M53 581l0 -25M53 581l1 29M54 613l0 -3M54 613l63 0M117 620l0 -172M117 449l422 0M539 614l0 -171M539 613l422 0M961 618l0 -170 1 1 12 0"/>
<path stroke="#FFC0C5" d="M462 55l46 0"/>
<text stroke="none" fill="white" font-size="16" x="518" y="64">
x1.comp_out_p+2
</text>
<path stroke="#FFC0C5" d="M50 249l1 0 1 -9 0 -22 1 -18 0 -4M53 198l1 5M54 249l0 -46M54 249l514 0M568 250l0 -167M568 85l13 0 0 -8 1 156M582 249l0 -16M582 249l39 0M621 250l0 -166M621 85l13 0M634 249l0 -172M634 249l39 0 1 6 0 -172M674 85l13 0M687 249l0 -172"/>
<path stroke="#FFC0C5" d="M687 249l40 0 0 -165M727 85l13 0M740 250l0 -168M740 249l40 0M780 250l0 -166M780 85l13 0M793 249l0 -174M793 249l14 0 0 -151 1 -14M808 85l0 -1M808 85l11 0M819 249l0 -169M819 249l41 0M860 250l0 -150 1 -16M861 85l0 -1M861 85l11 0"/>
<path stroke="#FFC0C5" d="M872 249l0 -174M872 249l14 0 1 -150 0 -15M887 85l11 0M898 249l0 -174M898 249l15 0 0 -165M913 85l12 0M925 250l0 -173M925 249l49 0"/>
<path stroke="#A52A2A" d="M50 55l46 0"/>
<text stroke="none" fill="white" font-size="16" x="106" y="64">
x1.comp_out_n-2
</text>
<path stroke="#A52A2A" d="M50 613l1 0 1 -9 0 -22 1 -19M53 564l0 -3M53 564l1 6M54 613l0 -43M54 613l488 0 0 -165M542 449l13 0M555 614l0 -166M555 613l39 0M594 617l0 -170M594 449l14 0M608 613l0 -173M608 613l39 0M647 615l0 -168M647 449l14 0M661 613l0 -171"/>
<path stroke="#A52A2A" d="M661 613l39 0 0 -165 1 1 12 0 0 -9 1 165M714 613l0 -8M714 613l39 0 0 -165 1 0M754 449l0 -1M754 449l12 0M766 613l0 -172M766 613l68 0 0 -165M834 449l11 0 0 -2M845 449l1 153M846 613l0 -11M846 613l91 0M937 615l0 -2M937 615l1 -116"/>
<path stroke="#A52A2A" d="M938 499l0 -52M938 449l13 0M951 614l0 -166M951 613l23 0"/>
</svg>
