<?xml version="1.0" standalone="yes"?>
<!DOCTYPE svg PUBLIC "-//W3C//DTD SVG 1.1//EN"
 "http://www.w3.org/Graphics/SVG/1.1/DTD/svg11.dtd">
<svg xmlns="http://www.w3.org/2000/svg" version="1.1"
  width="100%" height="100%" viewBox="0 0 1024 768"
  style="fill: none; font-family: Helvetica;
 font: Helvetica;
">

<!-- Creator: NGspice -->

<rect x="0" y="0" width="1024" height="768" fill="black" stroke="none"/>
<text stroke="none" fill="white" font-size="16" x="358" y="752">
time
</text>
<text stroke="none" fill="white" font-size="16" x="10" y="16">
tran1: run682_vin-0.300147
</text>
<path stroke="white" d="M50 704l0 -637"/>
<text stroke="none" fill="white" font-size="16" x="35" y="728">
0.0
</text>
<path stroke="white" stroke-dasharray="1,2" d="M182 704l0 -637"/>
<text stroke="none" fill="white" font-size="16" x="157" y="728">
100.0
</text>
<path stroke="white" stroke-dasharray="1,2" d="M314 704l0 -637"/>
<text stroke="none" fill="white" font-size="16" x="289" y="728">
200.0
</text>
<path stroke="white" stroke-dasharray="1,2" d="M446 704l0 -637"/>
<text stroke="none" fill="white" font-size="16" x="421" y="728">
300.0
</text>
<path stroke="white" stroke-dasharray="1,2" d="M578 704l0 -637"/>
<text stroke="none" fill="white" font-size="16" x="553" y="728">
400.0
</text>
<path stroke="white" stroke-dasharray="1,2" d="M710 704l0 -637"/>
<text stroke="none" fill="white" font-size="16" x="685" y="728">
500.0
</text>
<path stroke="white" stroke-dasharray="1,2" d="M842 704l0 -637"/>
<text stroke="none" fill="white" font-size="16" x="817" y="728">
600.0
</text>
<path stroke="white" stroke-dasharray="1,2" d="M974 704l0 -637"/>
<text stroke="none" fill="white" font-size="16" x="949" y="728">
700.0
</text>
<text stroke="none" fill="white" font-size="16" x="614" y="752">
ns
</text>
<path stroke="white" stroke-dasharray="1,2" d="M50 704l924 0"/>
<text stroke="none" fill="white" font-size="16" x="8" y="712">
-3.0
</text>
<path stroke="white" stroke-dasharray="1,2" d="M50 613l924 0"/>
<text stroke="none" fill="white" font-size="16" x="8" y="621">
-2.0
</text>
<path stroke="white" stroke-dasharray="1,2" d="M50 522l924 0"/>
<text stroke="none" fill="white" font-size="16" x="8" y="530">
-1.0
</text>
<path stroke="white" d="M50 431l924 0"/>
<text stroke="none" fill="white" font-size="16" x="18" y="439">
0.0
</text>
<path stroke="white" stroke-dasharray="1,2" d="M50 340l924 0"/>
<text stroke="none" fill="white" font-size="16" x="18" y="348">
1.0
</text>
<path stroke="white" stroke-dasharray="1,2" d="M50 249l924 0"/>
<text stroke="none" fill="white" font-size="16" x="18" y="257">
2.0
</text>
<path stroke="white" stroke-dasharray="1,2" d="M50 158l924 0"/>
<text stroke="none" fill="white" font-size="16" x="18" y="166">
3.0
</text>
<path stroke="white" stroke-dasharray="1,2" d="M50 67l924 0"/>
<text stroke="none" fill="white" font-size="16" x="18" y="75">
4.0
</text>
<text stroke="none" fill="white" font-size="16" x="10" y="32">
     
</text>
<path stroke="red" d="M462 23l46 0"/>
<text stroke="none" fill="white" font-size="16" x="518" y="32">
x1.vsampled_p
</text>
<path stroke="red" d="M50 431l1 0 1 -7 0 -15 1 -14 0 -5 1 2M54 415l0 -40 1 -4 0 -14 1 -2 0 -3 2 -2 1 0 1 -1 3 0 1 1 4 0 1 -1 48 0M117 354l0 -5M117 354l1 8M118 371l0 -9M118 371l2 4M120 376l0 -1M120 376l419 0M539 377l0 -1M539 377l1 0 1 -1M541 377l0 -1"/>
<path stroke="red" d="M541 377l5 0 0 -20 1 -3 0 -26 1 -4 0 -6 1 -2 1 0 1 -1 15 0 1 1 0 -1 7 0M574 344l0 -29M574 344l1 4M575 358l0 -10M575 358l1 0 1 -1 0 -1 48 0 0 -12 1 -1 0 -5 20 0M646 339l0 -1 7 0M653 349l0 -11M653 349l1 1 0 -1 3 0 0 -1 15 0"/>
<path stroke="red" d="M672 349l0 -1 7 0M679 349l0 -1 19 0 1 1 0 -1 7 0M706 349l0 -1 19 0M725 349l0 -1 26 0M751 349l0 -1M751 349l1 0 0 -1 7 0M759 349l0 -1 19 0M778 349l0 -1 7 0M785 349l0 -1M785 349l1 1 0 -1 18 0M804 350l0 -1 27 0M831 350l0 -1"/>
<path stroke="red" d="M831 349l26 0M857 350l0 -1 26 0M883 350l0 -1 27 0M910 350l0 -1 9 0M919 380l0 -31M919 380l1 1 0 -2 1 -1 0 -1 2 0 0 -1M923 377l27 0 0 -1M950 377l11 0 0 -1 13 0"/>
<path stroke="blue" d="M50 23l46 0"/>
<text stroke="none" fill="white" font-size="16" x="106" y="32">
x1.vsampled_n
</text>
<path stroke="blue" d="M50 431l1 0 1 -7 0 -15 1 -15 0 -4 1 1M54 415l0 -40 1 -4 0 -14 1 -2 0 -3 2 -2 1 0 1 -1 3 0 1 1 4 0 1 -1 48 0 0 -1 1 -7 0 -12 1 -3 1 -2 0 -1 1 -1 419 0M540 323l0 -1 14 0 0 -1M554 322l13 0M567 323l0 -1 26 0M593 323l0 -1 7 0"/>
<path stroke="blue" d="M600 338l0 -16M600 338l1 3M601 345l0 -4M601 344l1 0 0 -1 4 0 0 -1 13 0M619 343l0 -1M619 343l1 0 0 -1M620 343l5 0 0 -1 8 0M633 343l0 -1 13 0M646 343l0 -1M646 343l2 0 0 -1 5 0M653 343l0 -1M653 343l6 0 0 -1 13 0M672 343l0 -1"/>
<path stroke="blue" d="M672 342l1 1 6 0M679 349l0 -6M679 349l1 0 0 -1 6 0 0 -1M686 348l12 0 0 -1M698 348l8 0M706 351l0 -3M706 351l1 0 0 -1 25 0 0 -3M732 348l27 0M759 350l0 -2M759 349l54 0M813 350l0 -1M813 350l1 0 1 -1 15 0 1 1 0 -1 88 0M919 350l0 -25"/>
<path stroke="blue" d="M919 325l1 -1 0 -2 16 0M936 323l0 -1 38 0"/>
<path stroke="#FFA500" d="M462 39l46 0"/>
<text stroke="none" fill="white" font-size="16" x="518" y="48">
x1.vsampled_p-x1.vsampled_n
</text>
<path stroke="#FFA500" d="M50 431l67 0M117 436l0 -5M117 436l1 16M118 472l0 -20M118 472l1 7 1 4M120 484l0 -1M120 484l1 1 1 0 1 1 416 0 0 -1 1 0M540 486l0 -1 6 0M546 486l0 -20 1 -3 0 -26 1 -4 0 -6 1 -2 1 0 0 -1 17 0M567 425l0 -1 7 0M574 453l0 -29"/>
<path stroke="#FFA500" d="M574 453l1 4M575 467l0 -10M575 467l1 0 0 -1 1 0 0 -1 16 0 0 -1M593 465l7 0 0 -16 1 -3 0 -4M601 443l1 0M602 444l0 -1M602 444l1 0M603 445l0 -1M603 445l16 0 0 -1M619 445l1 0 0 -1M620 445l5 0 0 -13 1 -1 0 -4 27 0M653 438l0 -11"/>
<path stroke="#FFA500" d="M653 438l1 1 0 -2 25 0 0 -6 1 -1M680 432l0 -2M680 432l26 0 0 -3 19 0M725 430l0 -1 6 0 1 1M732 432l0 -2M732 432l27 0 0 -3M759 430l26 0M785 431l0 -1M785 431l1 0M786 432l0 -1 27 0 0 -1 1 0M814 431l0 -1M814 431l105 0M919 486l0 -56"/>
<path stroke="#FFA500" d="M919 486l1 1M920 489l0 -2M920 488l1 -1 0 -1 15 0 0 -1 14 0M950 486l0 -1M950 486l24 0"/>
<path stroke="green" d="M50 39l46 0"/>
<text stroke="none" fill="white" font-size="16" x="106" y="48">
x1.sw_sample-2
</text>
<path stroke="green" d="M50 613l1 0 1 -9 0 -21 1 -21M53 581l0 -25M53 581l1 29M54 613l0 -3M54 613l63 0M117 620l0 -172M117 449l422 0M539 614l0 -171M539 613l422 0M961 618l0 -170 1 1 12 0"/>
<path stroke="#FFC0C5" d="M462 55l46 0"/>
<text stroke="none" fill="white" font-size="16" x="518" y="64">
x1.comp_out_p+2
</text>
<path stroke="#FFC0C5" d="M50 249l1 0 1 -9 0 -22 1 -18 0 -4M53 198l1 5M54 250l0 -47M54 248l1 1 513 0M568 250l0 -166M568 85l13 0 0 -8 1 157M582 249l0 -15M582 249l65 0M647 250l0 -167M647 85l14 0M661 250l0 -172M661 249l66 0 0 -165M727 85l13 0M740 250l0 -168"/>
<path stroke="#FFC0C5" d="M740 249l40 0 0 -165M780 85l13 0M793 249l0 -174M793 249l40 0 1 -153 0 -11 11 0 0 -10 1 150M846 249l0 -24M846 249l41 0 0 -165M887 85l11 0M898 249l0 -174M898 249l76 0"/>
<path stroke="#A52A2A" d="M50 55l46 0"/>
<text stroke="none" fill="white" font-size="16" x="106" y="64">
x1.comp_out_n-2
</text>
<path stroke="#A52A2A" d="M50 613l1 0 1 -9 0 -22 1 -19M53 564l0 -3M53 564l1 6M54 613l0 -43M54 612l1 1 486 0 1 1 0 -167M542 449l13 0M555 614l0 -167M555 613l13 0M568 614l0 -1 26 0M594 615l0 -168M594 449l14 0M608 613l0 -171M608 613l13 0M621 618l0 -171"/>
<path stroke="#A52A2A" d="M621 449l13 0M634 613l0 -172M634 613l39 0M673 615l0 -2M673 615l1 -121 0 -47M674 449l13 0M687 613l0 -173M687 613l13 0 0 -165 1 0M701 449l0 -1M701 449l12 0 0 -9 1 164M714 613l0 -9M714 613l39 0 0 -165 1 1 12 0M766 613l0 -172"/>
<path stroke="#A52A2A" d="M766 613l42 0 0 -165M808 449l11 0M819 613l0 -166M819 613l42 0 0 -165M861 449l11 0M872 613l0 -166M872 613l41 0M913 615l0 -2M913 615l1 -151 0 -16M914 449l11 0M925 613l0 -173M925 613l12 0 1 -51 0 -114M938 449l13 0M951 613l0 -173"/>
<path stroke="#A52A2A" d="M951 613l23 0"/>
</svg>
