<?xml version="1.0" standalone="yes"?>
<!DOCTYPE svg PUBLIC "-//W3C//DTD SVG 1.1//EN"
 "http://www.w3.org/Graphics/SVG/1.1/DTD/svg11.dtd">
<svg xmlns="http://www.w3.org/2000/svg" version="1.1"
  width="100%" height="100%" viewBox="0 0 1024 768"
  style="fill: none; font-family: Helvetica;
 font: Helvetica;
">

<!-- Creator: NGspice -->

<rect x="0" y="0" width="1024" height="768" fill="black" stroke="none"/>
<text stroke="none" fill="white" font-size="16" x="358" y="752">
time
</text>
<text stroke="none" fill="white" font-size="16" x="10" y="16">
tran1: run396_vin-0.551514
</text>
<path stroke="white" d="M50 704l0 -637"/>
<text stroke="none" fill="white" font-size="16" x="35" y="728">
0.0
</text>
<path stroke="white" stroke-dasharray="1,2" d="M182 704l0 -637"/>
<text stroke="none" fill="white" font-size="16" x="157" y="728">
100.0
</text>
<path stroke="white" stroke-dasharray="1,2" d="M314 704l0 -637"/>
<text stroke="none" fill="white" font-size="16" x="289" y="728">
200.0
</text>
<path stroke="white" stroke-dasharray="1,2" d="M446 704l0 -637"/>
<text stroke="none" fill="white" font-size="16" x="421" y="728">
300.0
</text>
<path stroke="white" stroke-dasharray="1,2" d="M578 704l0 -637"/>
<text stroke="none" fill="white" font-size="16" x="553" y="728">
400.0
</text>
<path stroke="white" stroke-dasharray="1,2" d="M710 704l0 -637"/>
<text stroke="none" fill="white" font-size="16" x="685" y="728">
500.0
</text>
<path stroke="white" stroke-dasharray="1,2" d="M842 704l0 -637"/>
<text stroke="none" fill="white" font-size="16" x="817" y="728">
600.0
</text>
<path stroke="white" stroke-dasharray="1,2" d="M974 704l0 -637"/>
<text stroke="none" fill="white" font-size="16" x="949" y="728">
700.0
</text>
<text stroke="none" fill="white" font-size="16" x="614" y="752">
ns
</text>
<path stroke="white" stroke-dasharray="1,2" d="M50 704l924 0"/>
<text stroke="none" fill="white" font-size="16" x="8" y="712">
-3.0
</text>
<path stroke="white" stroke-dasharray="1,2" d="M50 613l924 0"/>
<text stroke="none" fill="white" font-size="16" x="8" y="621">
-2.0
</text>
<path stroke="white" stroke-dasharray="1,2" d="M50 522l924 0"/>
<text stroke="none" fill="white" font-size="16" x="8" y="530">
-1.0
</text>
<path stroke="white" d="M50 431l924 0"/>
<text stroke="none" fill="white" font-size="16" x="18" y="439">
0.0
</text>
<path stroke="white" stroke-dasharray="1,2" d="M50 340l924 0"/>
<text stroke="none" fill="white" font-size="16" x="18" y="348">
1.0
</text>
<path stroke="white" stroke-dasharray="1,2" d="M50 249l924 0"/>
<text stroke="none" fill="white" font-size="16" x="18" y="257">
2.0
</text>
<path stroke="white" stroke-dasharray="1,2" d="M50 158l924 0"/>
<text stroke="none" fill="white" font-size="16" x="18" y="166">
3.0
</text>
<path stroke="white" stroke-dasharray="1,2" d="M50 67l924 0"/>
<text stroke="none" fill="white" font-size="16" x="18" y="75">
4.0
</text>
<text stroke="none" fill="white" font-size="16" x="10" y="32">
     
</text>
<path stroke="red" d="M462 23l46 0"/>
<text stroke="none" fill="white" font-size="16" x="518" y="32">
x1.vsampled_p
</text>
<path stroke="red" d="M50 431l1 0 1 -7 0 -15 1 -14 0 -5 1 2M54 415l0 -38 1 -4 0 -17 1 -2 0 -3 1 -1 2 0 1 -1 4 0M64 350l0 -1M64 350l4 0 1 -1 48 0M117 361l0 -12M117 361l1 13M118 388l0 -14M118 388l1 3M119 395l0 -4M119 395l1 2M120 398l0 -1M120 398l1 1"/>
<path stroke="red" d="M121 399l419 0M540 400l0 -1 6 0 0 -21 1 -2 0 -26 1 -5 0 -4 1 -1 0 -1 1 0 0 -1 4 0 0 -1M554 338l13 0M567 339l0 -1 26 0M593 339l0 -1 7 0M600 358l0 -20M600 358l1 2M601 365l0 -5M601 363l1 -2 0 -2 4 0 0 -1 1 0M607 359l0 -1M607 359l12 0"/>
<path stroke="red" d="M619 359l0 -1M619 359l1 0 0 -1M620 359l5 0 0 -12 1 -1 0 -6 2 0 1 1 4 0 0 -1M633 341l26 0 0 -1M659 341l20 0M679 348l0 -7M679 348l1 1 0 -3 6 0 0 -1M686 346l20 0M706 350l0 -4M706 350l1 -1 0 -1 18 0M725 349l0 -1 26 0M751 349l0 -1"/>
<path stroke="red" d="M751 349l1 -1 26 0M778 349l0 -1 7 0M785 350l0 -2M785 350l1 0 0 -1 26 0M812 350l0 -1M812 350l1 0 0 -1 18 0M831 350l0 -1 26 0M857 350l0 -1 26 0M883 350l0 -1M883 350l1 -1 26 0M910 350l0 -1 8 0M918 388l0 -41M918 388l1 4M919 402l0 -10"/>
<path stroke="red" d="M919 402l1 0 0 -1 1 0 0 -1 2 0 0 -1 13 0M936 400l0 -1 38 0"/>
<path stroke="blue" d="M50 23l46 0"/>
<text stroke="none" fill="white" font-size="16" x="106" y="32">
x1.vsampled_n
</text>
<path stroke="blue" d="M50 431l1 0 1 -7 0 -15 1 -15 0 -4 1 1M54 414l0 -37 1 -4 0 -17 1 -2 0 -3 1 -1 2 0 1 -1 4 0M64 350l0 -1M64 350l4 0 1 -1 48 0 0 -1 1 -10 0 -22 1 -5 0 -6 1 -3 0 -1 2 -2 418 0M540 300l0 -1 26 0 1 1 0 -1 7 0M574 321l0 -22M574 321l1 8"/>
<path stroke="blue" d="M575 338l0 -9M575 338l1 2 43 0M619 341l0 -1 34 0M653 348l0 -8M653 348l1 2M654 351l0 -1M654 351l1 -1 17 0M672 351l0 -1 27 0M699 351l0 -1 26 0M725 351l0 -1 6 0 0 -2 1 0 0 -1M732 348l27 0M759 350l0 -2M759 349l19 0M778 350l0 -1"/>
<path stroke="blue" d="M778 349l26 0M804 350l0 -1 27 0M831 350l0 -1 87 0M918 351l0 -26 1 -3 0 -13 1 -2 0 -3 1 -2 0 -2 2 0 0 -1 13 0M936 301l0 -2 38 0"/>
<path stroke="#FFA500" d="M462 39l46 0"/>
<text stroke="none" fill="white" font-size="16" x="518" y="48">
x1.vsampled_p-x1.vsampled_n
</text>
<path stroke="#FFA500" d="M50 431l2 0 1 1 1 0 0 -1 63 0M117 444l0 -13M117 444l1 23M118 502l0 -35M118 502l1 9M119 522l0 -11M119 522l1 4M120 529l0 -3M120 529l2 2 424 0 0 -21 1 -3 0 -26 1 -4 0 -4 1 -1 0 -1 1 -1 17 0M567 471l0 -2M567 470l7 0 0 -22"/>
<path stroke="#FFA500" d="M574 448l1 -8 0 -9 1 -2 24 0M600 449l0 -20M600 449l1 2M601 456l0 -5M601 454l1 -2 0 -2 1 -1 3 0M606 450l0 -1M606 450l13 0 0 -1M619 450l1 0 0 -1 5 0 0 -11 1 -1 0 -7 1 1 1 0 1 1 4 0 0 -1M633 432l20 0 0 -9 1 -2 18 0M672 422l0 -1"/>
<path stroke="#FFA500" d="M672 422l1 0 0 -1 6 0M679 429l0 -8M679 429l1 1 0 -3 6 0 0 -1M686 427l13 0 0 -1M699 427l7 0M706 431l0 -4M706 430l1 0 0 -1 24 0M731 431l0 -2M731 431l1 1 0 -1 27 0 0 -2M759 430l26 0M785 431l0 -1M785 431l27 0M812 432l0 -1"/>
<path stroke="#FFA500" d="M812 432l1 0 0 -1 26 0M839 432l0 -1M839 432l1 0 0 -1 78 0M918 493l0 -65M918 493l1 7M919 523l0 -23M919 523l1 3M920 528l0 -2M920 528l1 1M921 531l0 -2M921 531l2 0M923 532l0 -1 13 0 0 -1M936 531l14 0M950 532l0 -1 24 0"/>
<path stroke="green" d="M50 39l46 0"/>
<text stroke="none" fill="white" font-size="16" x="106" y="48">
x1.sw_sample-2
</text>
<path stroke="green" d="M50 613l1 0 1 -9 0 -21 1 -21M53 580l0 -24M53 580l1 30M54 613l0 -3M54 613l63 0M117 620l0 -172M117 449l422 0M539 614l0 -171M539 613l422 0M961 618l0 -170 1 1 12 0"/>
<path stroke="#FFC0C5" d="M462 55l46 0"/>
<text stroke="none" fill="white" font-size="16" x="518" y="64">
x1.comp_out_p+2
</text>
<path stroke="#FFC0C5" d="M50 249l1 0 1 -9 0 -22 1 -18 0 -4M53 198l1 5M54 250l0 -85 1 79M55 249l0 -5M55 249l539 0 0 -166 1 2 13 0M608 249l0 -174M608 249l65 0M673 254l0 -5M673 254l1 -121 0 -50M674 85l13 0M687 250l0 -173M687 249l13 0M700 254l0 -171"/>
<path stroke="#FFC0C5" d="M700 85l13 0 0 -8 1 157M714 249l0 -15M714 249l13 0 0 -165M727 85l13 0M740 249l0 -172M740 249l40 0 0 -165M780 85l13 0M793 249l0 -174M793 249l14 0 0 -165M807 85l12 0M819 249l0 -171M819 249l16 0 0 -165 1 1 9 0M845 98l0 -16"/>
<path stroke="#FFC0C5" d="M845 98l1 140M846 249l0 -11M846 249l128 0"/>
<path stroke="#A52A2A" d="M50 55l46 0"/>
<text stroke="none" fill="white" font-size="16" x="106" y="64">
x1.comp_out_n-2
</text>
<path stroke="#A52A2A" d="M50 613l1 0 1 -9 0 -22 1 -19M53 564l0 -3M53 564l1 6M54 615l0 -45M54 612l1 0M55 613l0 -1M55 613l487 0 0 -165M542 449l13 0M555 614l0 -168M555 613l13 0M568 617l0 -170M568 449l13 0 0 -8 1 153M582 613l0 -19M582 613l39 0 0 -166"/>
<path stroke="#A52A2A" d="M621 449l13 0M634 613l0 -174M634 613l13 0M647 614l0 -166M647 449l14 0M661 613l0 -172M661 613l92 0 0 -146 1 -18 0 -1M754 449l12 0M766 613l0 -172M766 613l94 0 0 -164 12 0M872 613l0 -172M872 613l14 0 0 -164 1 -1M887 449l0 -1"/>
<path stroke="#A52A2A" d="M887 449l11 0M898 613l0 -174M898 613l15 0 0 -165M913 449l12 0M925 613l0 -172M925 613l12 0 1 -24 0 -142M938 449l13 0M951 613l0 -170M951 613l23 0"/>
</svg>
