<?xml version="1.0" standalone="yes"?>
<!DOCTYPE svg PUBLIC "-//W3C//DTD SVG 1.1//EN"
 "http://www.w3.org/Graphics/SVG/1.1/DTD/svg11.dtd">
<svg xmlns="http://www.w3.org/2000/svg" version="1.1"
  width="100%" height="100%" viewBox="0 0 1024 768"
  style="fill: none; font-family: Helvetica;
 font: Helvetica;
">

<!-- Creator: NGspice -->

<rect x="0" y="0" width="1024" height="768" fill="black" stroke="none"/>
<text stroke="none" fill="white" font-size="16" x="358" y="752">
time
</text>
<text stroke="none" fill="white" font-size="16" x="10" y="16">
tran1: run395_vin-0.552393
</text>
<path stroke="white" d="M50 704l0 -637"/>
<text stroke="none" fill="white" font-size="16" x="35" y="728">
0.0
</text>
<path stroke="white" stroke-dasharray="1,2" d="M182 704l0 -637"/>
<text stroke="none" fill="white" font-size="16" x="157" y="728">
100.0
</text>
<path stroke="white" stroke-dasharray="1,2" d="M314 704l0 -637"/>
<text stroke="none" fill="white" font-size="16" x="289" y="728">
200.0
</text>
<path stroke="white" stroke-dasharray="1,2" d="M446 704l0 -637"/>
<text stroke="none" fill="white" font-size="16" x="421" y="728">
300.0
</text>
<path stroke="white" stroke-dasharray="1,2" d="M578 704l0 -637"/>
<text stroke="none" fill="white" font-size="16" x="553" y="728">
400.0
</text>
<path stroke="white" stroke-dasharray="1,2" d="M710 704l0 -637"/>
<text stroke="none" fill="white" font-size="16" x="685" y="728">
500.0
</text>
<path stroke="white" stroke-dasharray="1,2" d="M842 704l0 -637"/>
<text stroke="none" fill="white" font-size="16" x="817" y="728">
600.0
</text>
<path stroke="white" stroke-dasharray="1,2" d="M974 704l0 -637"/>
<text stroke="none" fill="white" font-size="16" x="949" y="728">
700.0
</text>
<text stroke="none" fill="white" font-size="16" x="614" y="752">
ns
</text>
<path stroke="white" stroke-dasharray="1,2" d="M50 704l924 0"/>
<text stroke="none" fill="white" font-size="16" x="8" y="712">
-3.0
</text>
<path stroke="white" stroke-dasharray="1,2" d="M50 613l924 0"/>
<text stroke="none" fill="white" font-size="16" x="8" y="621">
-2.0
</text>
<path stroke="white" stroke-dasharray="1,2" d="M50 522l924 0"/>
<text stroke="none" fill="white" font-size="16" x="8" y="530">
-1.0
</text>
<path stroke="white" d="M50 431l924 0"/>
<text stroke="none" fill="white" font-size="16" x="18" y="439">
0.0
</text>
<path stroke="white" stroke-dasharray="1,2" d="M50 340l924 0"/>
<text stroke="none" fill="white" font-size="16" x="18" y="348">
1.0
</text>
<path stroke="white" stroke-dasharray="1,2" d="M50 249l924 0"/>
<text stroke="none" fill="white" font-size="16" x="18" y="257">
2.0
</text>
<path stroke="white" stroke-dasharray="1,2" d="M50 158l924 0"/>
<text stroke="none" fill="white" font-size="16" x="18" y="166">
3.0
</text>
<path stroke="white" stroke-dasharray="1,2" d="M50 67l924 0"/>
<text stroke="none" fill="white" font-size="16" x="18" y="75">
4.0
</text>
<text stroke="none" fill="white" font-size="16" x="10" y="32">
     
</text>
<path stroke="red" d="M462 23l46 0"/>
<text stroke="none" fill="white" font-size="16" x="518" y="32">
x1.vsampled_p
</text>
<path stroke="red" d="M50 431l1 0 1 -7 0 -15 1 -14 0 -5 1 2M54 415l0 -38 1 -4 0 -17 1 -3 0 -2 1 -1 2 0 1 -1 4 0M64 350l0 -1M64 350l4 0 1 -1 48 0M117 361l0 -12M117 361l1 13M118 388l0 -14M118 388l1 3M119 396l0 -5M119 396l1 1M120 398l0 -1M120 398l1 1"/>
<path stroke="red" d="M121 399l419 0M540 400l0 -1 1 0M541 400l0 -1M541 400l5 0 0 -23 1 -3 0 -24 1 -4 0 -5 1 -1 0 -1 1 0 0 -1 4 0 0 -1M554 338l13 0M567 339l0 -1 26 0M593 339l0 -1 7 0M600 357l0 -19M600 357l1 2M601 365l0 -6M601 362l1 -2 0 -1 4 0"/>
<path stroke="red" d="M606 359l0 -1M606 359l14 0 0 -1M620 359l5 0 0 -7 1 -5 0 -7 2 0 1 1 4 0 0 -1M633 341l26 0 0 -1M659 341l20 0M679 347l0 -6M679 347l1 0M680 349l0 -3 26 0M706 350l0 -4M706 349l1 0 1 -1 17 0M725 349l0 -1 26 0M751 349l0 -1M751 349l1 0"/>
<path stroke="red" d="M752 349l0 -1 26 0M778 349l0 -1 7 0 1 1M786 350l0 -1 27 0M813 350l0 -1 17 0 1 1 0 -1 87 0M918 383l0 -35M918 383l1 6M919 401l0 -12M919 401l1 1 0 -1 1 -1 2 0 0 -1 13 0M936 400l0 -1M936 400l14 0 0 -1 24 0"/>
<path stroke="blue" d="M50 23l46 0"/>
<text stroke="none" fill="white" font-size="16" x="106" y="32">
x1.vsampled_n
</text>
<path stroke="blue" d="M50 431l1 0 1 -7 0 -15 1 -15 0 -4 1 1M54 414l0 -37 1 -4 0 -17 1 -3 0 -2 1 -1 2 0 1 -1 4 0M64 350l0 -1M64 350l4 0 1 -1 48 0 0 -1 1 -10 0 -22 1 -5 0 -6 1 -3 0 -2 1 0 1 -1 418 0M540 300l0 -1 27 0M567 300l0 -1 7 0M574 319l0 -20"/>
<path stroke="blue" d="M574 319l1 8M575 337l0 -10M575 337l1 2M576 340l0 -1M576 340l77 0M653 347l0 -7M653 347l1 2M654 351l0 -2M654 351l1 -1 77 0 0 -3M732 348l27 0M759 350l0 -2M759 349l19 0M778 350l0 -1 26 0M804 350l0 -1 27 0M831 350l0 -1 26 0"/>
<path stroke="blue" d="M857 350l0 -1 26 0M883 350l0 -1 27 0M910 350l0 -1 8 0M918 351l0 -23 1 -3 0 -13 1 -3 0 -5 1 -2 0 -2 2 0 0 -1 13 0M936 300l0 -1 38 0"/>
<path stroke="#FFA500" d="M462 39l46 0"/>
<text stroke="none" fill="white" font-size="16" x="518" y="48">
x1.vsampled_p-x1.vsampled_n
</text>
<path stroke="#FFA500" d="M50 431l2 0 1 1 1 0 0 -1 63 0M117 444l0 -13M117 444l1 23M118 502l0 -35M118 502l1 9M119 522l0 -11M119 522l1 4M120 529l0 -3M120 529l2 2 2 0M124 532l0 -1M124 532l415 0 0 -1 1 0M540 532l0 -1 6 0M546 532l0 -23 1 -3 0 -24"/>
<path stroke="#FFA500" d="M547 482l1 -4 0 -5 1 -1 0 -1 1 0 0 -1 17 0M567 471l0 -2M567 470l7 0 0 -20 1 -7 0 -10 1 -3 0 -1 24 0M600 448l0 -19M600 448l1 2M601 455l0 -5M601 453l1 -2 0 -1 17 0 0 -1M619 450l1 0 0 -1M620 450l5 0 0 -7 1 -5 0 -7 2 0 1 1"/>
<path stroke="#FFA500" d="M629 432l24 0 0 -7 1 -2 0 -2 1 1 4 0 0 -1M659 422l13 0 0 -1M672 422l7 0M679 428l0 -6M679 428l1 0M680 430l0 -3 26 0M706 431l0 -4M706 430l1 0 0 -1 25 0M732 432l0 -3M732 432l1 -1 18 0M751 432l0 -1M751 432l1 0 0 -1 7 0 0 -2"/>
<path stroke="#FFA500" d="M759 430l27 0M786 432l0 -2M786 431l27 0M813 432l0 -1 26 0 0 -1M839 431l79 0M918 486l0 -58M918 486l1 9M919 521l0 -26M919 521l1 3M920 529l0 -5M920 529l1 1M921 531l0 -1M921 531l2 0M923 532l0 -1 13 0 0 -1M936 531l14 0M950 532l0 -1"/>
<path stroke="#FFA500" d="M950 531l12 0M962 532l0 -1M962 532l12 0"/>
<path stroke="green" d="M50 39l46 0"/>
<text stroke="none" fill="white" font-size="16" x="106" y="48">
x1.sw_sample-2
</text>
<path stroke="green" d="M50 613l1 0 1 -9 0 -21 1 -21M53 580l0 -24M53 580l1 30M54 613l0 -3M54 613l63 0M117 620l0 -172M117 449l422 0M539 614l0 -171M539 613l422 0M961 618l0 -170 1 1 12 0"/>
<path stroke="#FFC0C5" d="M462 55l46 0"/>
<text stroke="none" fill="white" font-size="16" x="518" y="64">
x1.comp_out_p+2
</text>
<path stroke="#FFC0C5" d="M50 249l1 0 1 -9 0 -22 1 -18 0 -4M53 198l1 5M54 250l0 -81 1 75M55 249l0 -5M55 249l539 0M594 250l0 -167M594 85l14 0M608 249l0 -173M608 249l65 0M673 251l0 -2M673 251l1 -95 0 -73M674 85l13 0M687 249l0 -171M687 249l13 0"/>
<path stroke="#FFC0C5" d="M700 254l0 -171M700 85l13 0 0 -8 1 161M714 249l0 -11M714 249l13 0 0 -165M727 85l13 0M740 250l0 -173M740 249l40 0 0 -165M780 85l13 0M793 249l0 -173M793 249l14 0 0 -164 12 0M819 250l0 -172M819 249l41 0 0 -164 12 0M872 249l0 -173"/>
<path stroke="#FFC0C5" d="M872 249l14 0 0 -154 1 -10 11 0M898 249l0 -173M898 249l15 0M913 251l0 -167M913 85l12 0M925 249l0 -172M925 249l49 0"/>
<path stroke="#A52A2A" d="M50 55l46 0"/>
<text stroke="none" fill="white" font-size="16" x="106" y="64">
x1.comp_out_n-2
</text>
<path stroke="#A52A2A" d="M50 613l1 0 1 -9 0 -22 1 -19M53 564l0 -3M53 564l1 6M54 615l0 -45M54 612l1 1 487 0 0 -165M542 449l13 0M555 614l0 -168M555 613l13 0M568 615l0 -168M568 449l13 0 0 -3 1 94M582 614l0 -74M582 613l39 0M621 615l0 -168M621 449l13 0"/>
<path stroke="#A52A2A" d="M634 613l0 -173M634 613l13 0 0 -166M647 449l14 0M661 613l0 -174M661 613l92 0 0 -165 1 0M754 449l0 -1M754 449l12 0M766 613l0 -173M766 613l68 0 0 -164 11 0 0 -10 1 153M846 613l0 -21M846 613l91 0M937 619l0 -6M937 619l1 -145"/>
<path stroke="#A52A2A" d="M938 474l0 -27M938 449l13 0M951 613l0 -170M951 613l23 0"/>
</svg>
