<?xml version="1.0" standalone="yes"?>
<!DOCTYPE svg PUBLIC "-//W3C//DTD SVG 1.1//EN"
 "http://www.w3.org/Graphics/SVG/1.1/DTD/svg11.dtd">
<svg xmlns="http://www.w3.org/2000/svg" version="1.1"
  width="100%" height="100%" viewBox="0 0 1024 768"
  style="fill: none; font-family: Helvetica;
 font: Helvetica;
">

<!-- Creator: NGspice -->

<rect x="0" y="0" width="1024" height="768" fill="black" stroke="none"/>
<text stroke="none" fill="white" font-size="16" x="358" y="752">
time
</text>
<text stroke="none" fill="white" font-size="16" x="10" y="16">
tran1: run398_vin-0.549756
</text>
<path stroke="white" d="M50 704l0 -637"/>
<text stroke="none" fill="white" font-size="16" x="35" y="728">
0.0
</text>
<path stroke="white" stroke-dasharray="1,2" d="M182 704l0 -637"/>
<text stroke="none" fill="white" font-size="16" x="157" y="728">
100.0
</text>
<path stroke="white" stroke-dasharray="1,2" d="M314 704l0 -637"/>
<text stroke="none" fill="white" font-size="16" x="289" y="728">
200.0
</text>
<path stroke="white" stroke-dasharray="1,2" d="M446 704l0 -637"/>
<text stroke="none" fill="white" font-size="16" x="421" y="728">
300.0
</text>
<path stroke="white" stroke-dasharray="1,2" d="M578 704l0 -637"/>
<text stroke="none" fill="white" font-size="16" x="553" y="728">
400.0
</text>
<path stroke="white" stroke-dasharray="1,2" d="M710 704l0 -637"/>
<text stroke="none" fill="white" font-size="16" x="685" y="728">
500.0
</text>
<path stroke="white" stroke-dasharray="1,2" d="M842 704l0 -637"/>
<text stroke="none" fill="white" font-size="16" x="817" y="728">
600.0
</text>
<path stroke="white" stroke-dasharray="1,2" d="M974 704l0 -637"/>
<text stroke="none" fill="white" font-size="16" x="949" y="728">
700.0
</text>
<text stroke="none" fill="white" font-size="16" x="614" y="752">
ns
</text>
<path stroke="white" stroke-dasharray="1,2" d="M50 704l924 0"/>
<text stroke="none" fill="white" font-size="16" x="8" y="712">
-3.0
</text>
<path stroke="white" stroke-dasharray="1,2" d="M50 613l924 0"/>
<text stroke="none" fill="white" font-size="16" x="8" y="621">
-2.0
</text>
<path stroke="white" stroke-dasharray="1,2" d="M50 522l924 0"/>
<text stroke="none" fill="white" font-size="16" x="8" y="530">
-1.0
</text>
<path stroke="white" d="M50 431l924 0"/>
<text stroke="none" fill="white" font-size="16" x="18" y="439">
0.0
</text>
<path stroke="white" stroke-dasharray="1,2" d="M50 340l924 0"/>
<text stroke="none" fill="white" font-size="16" x="18" y="348">
1.0
</text>
<path stroke="white" stroke-dasharray="1,2" d="M50 249l924 0"/>
<text stroke="none" fill="white" font-size="16" x="18" y="257">
2.0
</text>
<path stroke="white" stroke-dasharray="1,2" d="M50 158l924 0"/>
<text stroke="none" fill="white" font-size="16" x="18" y="166">
3.0
</text>
<path stroke="white" stroke-dasharray="1,2" d="M50 67l924 0"/>
<text stroke="none" fill="white" font-size="16" x="18" y="75">
4.0
</text>
<text stroke="none" fill="white" font-size="16" x="10" y="32">
     
</text>
<path stroke="red" d="M462 23l46 0"/>
<text stroke="none" fill="white" font-size="16" x="518" y="32">
x1.vsampled_p
</text>
<path stroke="red" d="M50 431l1 0 1 -7 0 -15 1 -14 0 -5 1 2M54 415l0 -38 1 -4 0 -17 1 -2 0 -3 1 -1 2 0 1 -1 4 0M64 350l0 -1M64 350l4 0 1 -1 48 0M117 361l0 -12M117 361l1 13M118 388l0 -14M118 388l1 3M119 395l0 -4M119 395l1 2M120 398l0 -1M120 398l1 1"/>
<path stroke="red" d="M121 399l425 0M546 400l0 -23 1 -3 0 -27 1 -3 0 -3 1 -1 0 -1 1 0 0 -1 4 0 0 -1M554 338l13 0M567 339l0 -1 13 0 0 -1M580 338l13 0M593 339l0 -1 7 0M600 355l0 -17M600 355l1 2M601 365l0 -8M601 363l1 -2 0 -1 1 -1 0 -1 16 0M619 359l0 -1"/>
<path stroke="red" d="M619 359l1 0 0 -1 5 0 0 -13 1 -1 0 -5 1 1 1 0 1 1 4 0 0 -1 13 0M646 341l0 -1M646 341l13 0 0 -1 13 0M672 341l0 -1M672 341l7 0M679 347l0 -6M679 347l1 1M680 349l0 -3 6 0 0 -1M686 346l20 0M706 350l0 -4M706 349l1 0 0 -1 18 0"/>
<path stroke="red" d="M725 349l0 -1 26 0M751 349l0 -1 27 0M778 349l0 -1 7 0M785 350l0 -2M785 349l27 0M812 350l0 -1 19 0M831 350l0 -1 26 0M857 350l0 -1 26 0M883 350l0 -1 27 0M910 350l0 -1 9 0M919 391l0 -44M919 391l1 3M920 401l0 -7M920 401l1 1"/>
<path stroke="red" d="M921 402l0 -2 2 0 0 -1 51 0"/>
<path stroke="blue" d="M50 23l46 0"/>
<text stroke="none" fill="white" font-size="16" x="106" y="32">
x1.vsampled_n
</text>
<path stroke="blue" d="M50 431l1 0 1 -7 0 -15 1 -15 0 -4 1 1M54 414l0 -37 1 -4 0 -17 1 -2 0 -3 1 -1 2 0 1 -1 4 0M64 350l0 -1M64 350l4 0 1 -1 48 0 0 -1 1 -10 0 -21 1 -5 0 -7 1 -3 0 -1 2 -2 418 0M540 300l0 -1 26 0 1 1M567 301l0 -2 7 0M574 322l0 -23"/>
<path stroke="blue" d="M574 322l1 8M575 338l0 -8M575 338l1 2 17 0M593 341l0 -1 26 0M619 341l0 -1 27 0M646 341l0 -1 7 0M653 350l0 -10M653 350l1 1 1 -1 17 0M672 351l0 -1 26 0 1 1 0 -1 26 0M725 351l0 -1 6 0 0 -2 20 0M751 349l0 -1 19 0M770 350l0 -2"/>
<path stroke="blue" d="M770 349l8 0M778 350l0 -1 26 0M804 350l0 -1 26 0 1 1 0 -1 88 0M919 351l0 -28 1 -2 0 -10 1 -3 0 -6 1 0 0 -2 1 0 0 -1 13 0M936 301l0 -2 38 0"/>
<path stroke="#FFA500" d="M462 39l46 0"/>
<text stroke="none" fill="white" font-size="16" x="518" y="48">
x1.vsampled_p-x1.vsampled_n
</text>
<path stroke="#FFA500" d="M50 431l2 0 1 1 1 0 0 -1 63 0M117 444l0 -13M117 444l1 23M118 502l0 -35M118 502l1 8M119 522l0 -12M119 522l1 3M120 528l0 -3M120 528l1 2 1 0M122 531l0 -1M122 531l418 0 0 -1M540 531l6 0 0 -22 1 -3 0 -27 1 -3 0 -3 1 -1 0 -1"/>
<path stroke="#FFA500" d="M549 471l1 -1 4 0 0 -1M554 470l12 0 1 -1M567 470l0 -1M567 470l7 0 0 -23 1 -8 0 -8 1 -2 24 0M600 446l0 -17M600 446l1 2M601 455l0 -7M601 454l1 -2 0 -2 1 -1 22 0 0 -13 1 -1 0 -5 1 0M627 431l0 -1M627 431l19 0M646 432l0 -1"/>
<path stroke="#FFA500" d="M646 431l7 0 0 -9 1 -1 18 0M672 422l0 -1 7 0M679 428l0 -7M679 428l1 1M680 430l0 -3 1 -1 25 0M706 430l0 -4M706 430l1 -1 24 0M731 431l0 -2M731 431l1 0M732 432l0 -1 38 0 0 -2M770 430l15 0M785 431l0 -1M785 431l1 0 0 -1 26 0"/>
<path stroke="#FFA500" d="M812 431l0 -1M812 431l107 0M919 498l0 -71M919 498l1 6M920 522l0 -18M920 522l1 3M921 529l0 -4M921 529l1 0M922 530l0 -1M922 530l1 0M923 531l0 -1M923 531l13 0 0 -1M936 531l38 0"/>
<path stroke="green" d="M50 39l46 0"/>
<text stroke="none" fill="white" font-size="16" x="106" y="48">
x1.sw_sample-2
</text>
<path stroke="green" d="M50 613l1 0 1 -9 0 -21 1 -21M53 580l0 -24M53 580l1 30M54 613l0 -3M54 613l63 0M117 620l0 -172M117 449l422 0M539 614l0 -171M539 613l422 0M961 618l0 -170 1 1 12 0"/>
<path stroke="#FFC0C5" d="M462 55l46 0"/>
<text stroke="none" fill="white" font-size="16" x="518" y="64">
x1.comp_out_p+2
</text>
<path stroke="#FFC0C5" d="M50 249l1 0 1 -9 0 -22 1 -18 0 -4M53 198l1 5M54 250l0 -84 1 78M55 249l0 -5M55 249l539 0M594 250l0 -166 1 1 13 0M608 249l0 -174M608 249l65 0M673 256l0 -7M673 256l1 -138 0 -35M674 85l13 0M687 250l0 -172M687 249l13 0M700 251l0 -168"/>
<path stroke="#FFC0C5" d="M700 85l13 0 0 -8 1 150M714 249l0 -22M714 249l13 0 0 -165M727 85l13 0M740 250l0 -170M740 249l24 0 0 -165M764 85l2 0M766 249l0 -167M766 249l14 0 0 -165M780 85l13 0M793 250l0 -172M793 249l13 0 1 -155 0 -10M807 85l12 0"/>
<path stroke="#FFC0C5" d="M819 249l0 -174M819 249l14 0 1 -157 0 -8M834 85l11 0 0 -9 1 153M846 249l0 -20M846 249l128 0"/>
<path stroke="#A52A2A" d="M50 55l46 0"/>
<text stroke="none" fill="white" font-size="16" x="106" y="64">
x1.comp_out_n-2
</text>
<path stroke="#A52A2A" d="M50 613l1 0 1 -9 0 -22 1 -19M53 564l0 -3M53 564l1 6M54 615l0 -45M54 612l1 1 486 0 1 1 0 -167M542 449l13 0M555 614l0 -169M555 613l13 0M568 618l0 -171M568 449l13 0 0 -8 1 155M582 613l0 -17M582 613l39 0M621 614l0 -167M621 449l13 0"/>
<path stroke="#A52A2A" d="M634 613l0 -171M634 613l13 0M647 618l0 -171M647 449l14 0M661 613l0 -173M661 613l200 0 0 -165M861 449l11 0M872 613l0 -172M872 613l15 0 0 -153 1 -11 10 0M898 613l0 -172M898 613l16 0 0 -165M914 449l11 0M925 613l0 -172M925 613l12 0"/>
<path stroke="#A52A2A" d="M937 613l1 -28 0 -138M938 449l13 0M951 613l0 -170M951 613l23 0"/>
</svg>
