<?xml version="1.0" standalone="yes"?>
<!DOCTYPE svg PUBLIC "-//W3C//DTD SVG 1.1//EN"
 "http://www.w3.org/Graphics/SVG/1.1/DTD/svg11.dtd">
<svg xmlns="http://www.w3.org/2000/svg" version="1.1"
  width="100%" height="100%" viewBox="0 0 1024 768"
  style="fill: none; font-family: Helvetica;
 font: Helvetica;
">

<!-- Creator: NGspice -->

<rect x="0" y="0" width="1024" height="768" fill="black" stroke="none"/>
<text stroke="none" fill="white" font-size="16" x="358" y="752">
time
</text>
<text stroke="none" fill="white" font-size="16" x="10" y="16">
tran1: run1191_vin0.147215
</text>
<path stroke="white" d="M50 704l0 -637"/>
<text stroke="none" fill="white" font-size="16" x="35" y="728">
0.0
</text>
<path stroke="white" stroke-dasharray="1,2" d="M182 704l0 -637"/>
<text stroke="none" fill="white" font-size="16" x="157" y="728">
100.0
</text>
<path stroke="white" stroke-dasharray="1,2" d="M314 704l0 -637"/>
<text stroke="none" fill="white" font-size="16" x="289" y="728">
200.0
</text>
<path stroke="white" stroke-dasharray="1,2" d="M446 704l0 -637"/>
<text stroke="none" fill="white" font-size="16" x="421" y="728">
300.0
</text>
<path stroke="white" stroke-dasharray="1,2" d="M578 704l0 -637"/>
<text stroke="none" fill="white" font-size="16" x="553" y="728">
400.0
</text>
<path stroke="white" stroke-dasharray="1,2" d="M710 704l0 -637"/>
<text stroke="none" fill="white" font-size="16" x="685" y="728">
500.0
</text>
<path stroke="white" stroke-dasharray="1,2" d="M842 704l0 -637"/>
<text stroke="none" fill="white" font-size="16" x="817" y="728">
600.0
</text>
<path stroke="white" stroke-dasharray="1,2" d="M974 704l0 -637"/>
<text stroke="none" fill="white" font-size="16" x="949" y="728">
700.0
</text>
<text stroke="none" fill="white" font-size="16" x="614" y="752">
ns
</text>
<path stroke="white" stroke-dasharray="1,2" d="M50 704l924 0"/>
<text stroke="none" fill="white" font-size="16" x="8" y="712">
-3.0
</text>
<path stroke="white" stroke-dasharray="1,2" d="M50 613l924 0"/>
<text stroke="none" fill="white" font-size="16" x="8" y="621">
-2.0
</text>
<path stroke="white" stroke-dasharray="1,2" d="M50 522l924 0"/>
<text stroke="none" fill="white" font-size="16" x="8" y="530">
-1.0
</text>
<path stroke="white" d="M50 431l924 0"/>
<text stroke="none" fill="white" font-size="16" x="18" y="439">
0.0
</text>
<path stroke="white" stroke-dasharray="1,2" d="M50 340l924 0"/>
<text stroke="none" fill="white" font-size="16" x="18" y="348">
1.0
</text>
<path stroke="white" stroke-dasharray="1,2" d="M50 249l924 0"/>
<text stroke="none" fill="white" font-size="16" x="18" y="257">
2.0
</text>
<path stroke="white" stroke-dasharray="1,2" d="M50 158l924 0"/>
<text stroke="none" fill="white" font-size="16" x="18" y="166">
3.0
</text>
<path stroke="white" stroke-dasharray="1,2" d="M50 67l924 0"/>
<text stroke="none" fill="white" font-size="16" x="18" y="75">
4.0
</text>
<text stroke="none" fill="white" font-size="16" x="10" y="32">
     
</text>
<path stroke="red" d="M462 23l46 0"/>
<text stroke="none" fill="white" font-size="16" x="518" y="32">
x1.vsampled_p
</text>
<path stroke="red" d="M50 431l1 0 1 -7 0 -15 1 -15 0 -4 1 1M54 415l0 -39 1 -5 0 -14 1 -3 0 -2 1 -2 2 0 1 -1 4 0M64 350l0 -1M64 350l4 0 1 -1 48 0 1 -5 0 -5 1 -2 1 -1 420 0M540 337l0 -1 14 0 0 -1M554 336l13 0M567 337l0 -1 33 0M600 353l0 -17M600 353l1 3"/>
<path stroke="red" d="M601 359l0 -3M601 358l1 -1 1 0 0 -1 16 0M619 357l0 -1M619 357l1 0 0 -1 5 0 0 -5 1 -3 0 -9 1 0 0 -1 3 0M630 339l0 -1M630 339l3 0 0 -1 13 0M646 339l0 -1M646 339l7 0M653 346l0 -8M653 346l1 2M654 350l0 -2M654 350l1 -1 4 0 0 -1"/>
<path stroke="red" d="M659 349l127 0M786 350l0 -1 18 0M804 350l0 -1 27 0M831 350l0 -1 87 0M918 350l0 -6 1 -2 0 -6 17 0M936 337l0 -1 38 0"/>
<path stroke="blue" d="M50 23l46 0"/>
<text stroke="none" fill="white" font-size="16" x="106" y="32">
x1.vsampled_n
</text>
<path stroke="blue" d="M50 431l1 0 1 -7 0 -15 1 -14 0 -5 1 2M54 415l0 -39 1 -5 0 -14 1 -3 0 -2 1 -2 2 0 1 -1 4 0M64 350l0 -1M64 350l4 0 1 -1 48 0M117 351l0 -2M117 351l1 4M118 360l0 -5M118 360l2 2 419 0M539 363l0 -1M539 363l2 0 0 -1M541 363l5 0"/>
<path stroke="blue" d="M546 363l0 -24 1 -2 0 -24 1 -5 0 -3 1 -2 0 -1 1 0 1 -1 15 0 1 1M567 303l0 -2 7 0M574 329l0 -28M574 329l1 9M575 344l0 -6M575 344l1 0 0 -1 1 0 1 -1 15 0M593 343l0 -1 26 0M619 343l0 -1 27 0M646 343l0 -1 26 0M672 343l0 -1 7 0"/>
<path stroke="blue" d="M679 348l0 -6M679 348l1 1M680 350l0 -2 1 -1 17 0 1 1 0 -1 7 0M706 351l0 -4M706 351l1 0 0 -1 25 0 0 -3 1 1 5 0 0 -1M738 348l21 0M759 350l0 -2M759 349l53 0M812 350l0 -1M812 350l1 0 0 -1 18 0M831 350l0 -1 26 0M857 350l0 -1"/>
<path stroke="blue" d="M857 349l26 0M883 350l0 -1 27 0M910 350l0 -1 8 0M918 361l0 -16M918 361l1 2M919 365l0 -2M919 364l1 -1 42 0 0 -1 12 0"/>
<path stroke="#FFA500" d="M462 39l46 0"/>
<text stroke="none" fill="white" font-size="16" x="518" y="48">
x1.vsampled_p-x1.vsampled_n
</text>
<path stroke="#FFA500" d="M50 431l67 0 0 -2 1 -8 0 -11 1 -3 1 -2 1 -1 419 0M540 405l0 -1 1 0M541 405l0 -1 5 0M546 428l0 -24M546 428l1 2M547 454l0 -24M547 454l1 5M548 462l0 -3M548 462l1 2M549 465l0 -1M549 465l2 0 1 1 14 0 1 -1M567 466l0 -2M567 466l7 0"/>
<path stroke="#FFA500" d="M574 466l0 -28 1 -9 0 -6 1 0M576 424l0 -1M576 424l1 0 1 1 15 0 0 -1M593 425l7 0M600 441l0 -17M600 441l1 4M601 448l0 -3M601 447l1 -1 0 -1 23 0 0 -5 1 -3 0 -9 1 -1 26 0M653 435l0 -8M653 435l1 1M654 439l0 -3M654 439l2 -2"/>
<path stroke="#FFA500" d="M656 437l3 0M659 438l0 -1 13 0M672 438l0 -1 7 0 0 -5 1 -1M680 432l0 -2M680 432l26 0 0 -3 1 0M707 430l0 -1M707 430l25 0M732 433l0 -3M732 432l27 0 0 -3M759 431l27 0M786 432l0 -1 26 0 0 -1 1 0M813 431l0 -1M813 431l25 0"/>
<path stroke="#FFA500" d="M838 431l0 -1M838 431l80 0M918 433l0 -19 1 -3 0 -8 1 1 16 0M936 405l0 -1 38 0"/>
<path stroke="green" d="M50 39l46 0"/>
<text stroke="none" fill="white" font-size="16" x="106" y="48">
x1.sw_sample-2
</text>
<path stroke="green" d="M50 613l1 0 1 -9 0 -21 1 -21M53 581l0 -25M53 581l1 29M54 613l0 -3M54 613l63 0M117 620l0 -172M117 449l422 0M539 614l0 -171M539 613l422 0M961 618l0 -170 1 1 12 0"/>
<path stroke="#FFC0C5" d="M462 55l46 0"/>
<text stroke="none" fill="white" font-size="16" x="518" y="64">
x1.comp_out_p+2
</text>
<path stroke="#FFC0C5" d="M50 249l1 0 1 -9 0 -22 1 -18 0 -4M53 198l1 5M54 249l0 -46M54 249l487 0 1 1 0 -166M542 85l13 0M555 250l0 -167M555 249l39 0M594 250l0 -166M594 85l14 0M608 250l0 -172M608 249l39 0M647 251l0 -168M647 85l14 0M661 249l0 -167"/>
<path stroke="#FFC0C5" d="M661 249l66 0 0 -165 1 1 12 0M740 250l0 -173M740 249l40 0 0 -160 1 -5M781 85l0 -1M781 85l12 0M793 250l0 -174M793 249l67 0 0 -165M860 85l12 0M872 250l0 -169M872 249l14 0 0 -164 1 -1M887 85l0 -1M887 85l11 0M898 250l0 -169"/>
<path stroke="#FFC0C5" d="M898 249l15 0 0 -165M913 85l12 0M925 250l0 -166M925 249l12 0M937 250l0 -1M937 250l1 -78 0 -88M938 85l13 0M951 250l0 -168M951 249l23 0"/>
<path stroke="#A52A2A" d="M50 55l46 0"/>
<text stroke="none" fill="white" font-size="16" x="106" y="64">
x1.comp_out_n-2
</text>
<path stroke="#A52A2A" d="M50 613l1 0 1 -9 0 -22 1 -19M53 564l0 -3M53 564l1 6M54 613l0 -43M54 613l488 0M542 614l0 -1 26 0M568 615l0 -168M568 449l13 0 0 -9 1 163M582 613l0 -10M582 613l39 0M621 615l0 -168M621 449l13 0M634 613l0 -172M634 613l39 0"/>
<path stroke="#A52A2A" d="M673 621l0 -8M673 621l1 -140 0 -34M674 449l13 0M687 613l0 -171M687 613l13 0 0 -165 1 1 12 0 0 -9 1 163M714 613l0 -10M714 613l39 0 0 -165M753 449l13 0M766 613l0 -174M766 613l41 0 0 -164 12 0M819 613l0 -172M819 613l15 0"/>
<path stroke="#A52A2A" d="M834 613l0 -165M834 449l11 0 0 -10 1 153M846 613l0 -21M846 613l128 0"/>
</svg>
