<?xml version="1.0" standalone="yes"?>
<!DOCTYPE svg PUBLIC "-//W3C//DTD SVG 1.1//EN"
 "http://www.w3.org/Graphics/SVG/1.1/DTD/svg11.dtd">
<svg xmlns="http://www.w3.org/2000/svg" version="1.1"
  width="100%" height="100%" viewBox="0 0 1024 768"
  style="fill: none; font-family: Helvetica;
 font: Helvetica;
">

<!-- Creator: NGspice -->

<rect x="0" y="0" width="1024" height="768" fill="black" stroke="none"/>
<text stroke="none" fill="white" font-size="16" x="358" y="752">
time
</text>
<text stroke="none" fill="white" font-size="16" x="10" y="16">
tran1: run1454_vin0.378367
</text>
<path stroke="white" d="M50 704l0 -637"/>
<text stroke="none" fill="white" font-size="16" x="35" y="728">
0.0
</text>
<path stroke="white" stroke-dasharray="1,2" d="M182 704l0 -637"/>
<text stroke="none" fill="white" font-size="16" x="157" y="728">
100.0
</text>
<path stroke="white" stroke-dasharray="1,2" d="M314 704l0 -637"/>
<text stroke="none" fill="white" font-size="16" x="289" y="728">
200.0
</text>
<path stroke="white" stroke-dasharray="1,2" d="M446 704l0 -637"/>
<text stroke="none" fill="white" font-size="16" x="421" y="728">
300.0
</text>
<path stroke="white" stroke-dasharray="1,2" d="M578 704l0 -637"/>
<text stroke="none" fill="white" font-size="16" x="553" y="728">
400.0
</text>
<path stroke="white" stroke-dasharray="1,2" d="M710 704l0 -637"/>
<text stroke="none" fill="white" font-size="16" x="685" y="728">
500.0
</text>
<path stroke="white" stroke-dasharray="1,2" d="M842 704l0 -637"/>
<text stroke="none" fill="white" font-size="16" x="817" y="728">
600.0
</text>
<path stroke="white" stroke-dasharray="1,2" d="M974 704l0 -637"/>
<text stroke="none" fill="white" font-size="16" x="949" y="728">
700.0
</text>
<text stroke="none" fill="white" font-size="16" x="614" y="752">
ns
</text>
<path stroke="white" stroke-dasharray="1,2" d="M50 704l924 0"/>
<text stroke="none" fill="white" font-size="16" x="8" y="712">
-3.0
</text>
<path stroke="white" stroke-dasharray="1,2" d="M50 613l924 0"/>
<text stroke="none" fill="white" font-size="16" x="8" y="621">
-2.0
</text>
<path stroke="white" stroke-dasharray="1,2" d="M50 522l924 0"/>
<text stroke="none" fill="white" font-size="16" x="8" y="530">
-1.0
</text>
<path stroke="white" d="M50 431l924 0"/>
<text stroke="none" fill="white" font-size="16" x="18" y="439">
0.0
</text>
<path stroke="white" stroke-dasharray="1,2" d="M50 340l924 0"/>
<text stroke="none" fill="white" font-size="16" x="18" y="348">
1.0
</text>
<path stroke="white" stroke-dasharray="1,2" d="M50 249l924 0"/>
<text stroke="none" fill="white" font-size="16" x="18" y="257">
2.0
</text>
<path stroke="white" stroke-dasharray="1,2" d="M50 158l924 0"/>
<text stroke="none" fill="white" font-size="16" x="18" y="166">
3.0
</text>
<path stroke="white" stroke-dasharray="1,2" d="M50 67l924 0"/>
<text stroke="none" fill="white" font-size="16" x="18" y="75">
4.0
</text>
<text stroke="none" fill="white" font-size="16" x="10" y="32">
     
</text>
<path stroke="red" d="M462 23l46 0"/>
<text stroke="none" fill="white" font-size="16" x="518" y="32">
x1.vsampled_p
</text>
<path stroke="red" d="M50 431l1 0 1 -7 0 -15 1 -15 0 -4 1 1M54 415l0 -40 1 -5 0 -13 1 -3 0 -2 2 -2 1 0 1 -1 4 0M64 350l0 -1M64 350l4 0 1 -1 48 0 0 -1 1 -8 0 -16 1 -4 0 -2 1 -1 0 -1 1 -1 419 0M540 316l0 -1 14 0 0 -1M554 315l13 0M567 316l0 -1 7 0"/>
<path stroke="red" d="M574 341l0 -26M574 341l1 4M575 355l0 -10M575 355l1 1 49 0 0 -6 1 -3 0 -8 1 0 0 -1 26 0M653 346l0 -8M653 346l1 2M654 349l0 -1 105 0M759 350l0 -2M759 350l1 0 0 -1 18 0M778 350l0 -1 26 0M804 350l0 -1 26 0 1 1 0 -1 86 0M917 350l0 -3"/>
<path stroke="red" d="M917 347l1 0 0 -11 1 -2 0 -10 1 -3 0 -2 1 -2 0 -1 1 0 0 -1 14 0M936 316l0 -1 14 0 0 -1M950 315l24 0"/>
<path stroke="blue" d="M50 23l46 0"/>
<text stroke="none" fill="white" font-size="16" x="106" y="32">
x1.vsampled_n
</text>
<path stroke="blue" d="M50 431l1 0 1 -7 0 -15 1 -14 0 -5 1 2M54 415l0 -40 1 -5 0 -13 1 -3 0 -2 2 -2 1 0 1 -1 4 0M64 350l0 -1M64 350l4 0 1 -1 48 0M117 355l0 -6M117 355l1 10M118 376l0 -11M118 376l1 3M119 381l0 -2M119 381l1 1M120 383l0 -1M120 383l3 0"/>
<path stroke="blue" d="M123 383l1 1 417 0 0 -1M541 384l5 0 0 -23 1 -3 0 -27 1 -2 0 -3 1 -2 0 -1 2 0 0 -1 15 0 1 1M567 324l0 -2 26 0M593 324l0 -2 7 0M600 342l0 -20M600 342l1 2M601 349l0 -5M601 346l1 -1 0 -2 4 0 0 -1 1 1 26 0 0 -1M633 343l26 0"/>
<path stroke="blue" d="M659 343l0 -1M659 343l20 0M679 350l0 -7M679 350l1 1 0 -3 26 0M706 352l0 -4M706 352l1 0 0 -1 1 0 1 -1 16 0M725 351l0 -1 6 0 0 -3 1 0M732 348l0 -1M732 348l19 0M751 349l0 -1 27 0M778 349l0 -1 7 0M785 350l0 -2M785 350l1 0 0 -1"/>
<path stroke="blue" d="M786 349l26 0M812 350l0 -1M812 350l1 -1 18 0M831 350l0 -1 26 0M857 350l0 -1 26 0M883 350l0 -1 27 0M910 350l0 -1 7 0 0 -3 1 1M918 372l0 -25M918 372l1 2M919 385l0 -11M919 385l1 0 1 -1 41 0 0 -1 1 0M963 384l0 -1M963 384l11 0"/>
<path stroke="#FFA500" d="M462 39l46 0"/>
<text stroke="none" fill="white" font-size="16" x="518" y="48">
x1.vsampled_p-x1.vsampled_n
</text>
<path stroke="#FFA500" d="M50 431l2 0 1 -1 1 1 63 0 0 -7 1 -19 0 -26 1 -7 0 -4 1 -3 0 -1 2 -2 418 0M540 363l0 -1 1 0M541 363l0 -1 5 0M546 385l0 -23M546 385l1 3M547 415l0 -27M547 415l1 2M548 420l0 -3M548 420l1 2M549 423l0 -1M549 423l2 0M551 424l0 -1"/>
<path stroke="#FFA500" d="M551 424l16 0 0 -1M567 424l7 0M574 450l0 -26M574 450l1 3M575 463l0 -10M575 463l1 1 4 0M580 465l0 -1 13 0 0 -1M593 464l7 0 0 -19 1 -3 0 -4M601 440l1 1M602 443l0 -2M602 443l1 1 22 0 0 -6 1 -3 0 -8 1 0 0 -1 26 0M653 434l0 -8"/>
<path stroke="#FFA500" d="M653 434l1 2M654 437l0 -1 25 0 0 -7 1 -1M680 431l0 -3M680 431l26 0 0 -3 1 -1M707 428l0 -1M707 428l1 1 17 0 0 -1M725 429l6 0M731 432l0 -3M731 432l1 0 0 -1 27 0M759 433l0 -2M759 433l1 0 0 -1 25 0 0 -1 1 0 1 1 17 0 0 -1"/>
<path stroke="#FFA500" d="M804 431l1 1 7 0 0 -1 105 0M917 433l0 -2M917 433l1 -2 0 -35 1 -5 0 -21 1 -4 0 -1 1 -2 2 0 0 -1 13 0M936 363l0 -1 38 0"/>
<path stroke="green" d="M50 39l46 0"/>
<text stroke="none" fill="white" font-size="16" x="106" y="48">
x1.sw_sample-2
</text>
<path stroke="green" d="M50 613l1 0 1 -9 0 -21 1 -21M53 580l0 -24M53 580l1 30M54 613l0 -3M54 613l63 0M117 620l0 -172M117 449l422 0M539 614l0 -170M539 613l422 0M961 618l0 -170 1 1 12 0"/>
<path stroke="#FFC0C5" d="M462 55l46 0"/>
<text stroke="none" fill="white" font-size="16" x="518" y="64">
x1.comp_out_p+2
</text>
<path stroke="#FFC0C5" d="M50 249l1 0 1 -9 0 -22 1 -18 0 -4M53 198l1 5M54 249l0 -46M54 249l487 0 1 -3 0 -163M542 85l13 0M555 249l0 -172M555 249l13 0M568 250l0 -166M568 85l13 0 0 -8 1 158M582 249l0 -14M582 249l65 0M647 251l0 -168M647 85l14 0M661 249l0 -171"/>
<path stroke="#FFC0C5" d="M661 249l66 0 0 -165M727 85l13 0M740 250l0 -171M740 249l13 0M753 250l0 -1M753 250l1 -146 0 -20M754 85l12 0M766 250l0 -173M766 249l94 0 0 -165 1 1 11 0M872 249l0 -174M872 249l14 0 0 -157 1 -8M887 85l0 -1M887 85l11 0M898 249l0 -174"/>
<path stroke="#FFC0C5" d="M898 249l14 0 1 -157 0 -8M913 85l12 0M925 250l0 -167M925 249l12 0M937 250l0 -1M937 250l1 -49 0 -117M938 85l13 0M951 249l0 -172M951 249l23 0"/>
<path stroke="#A52A2A" d="M50 55l46 0"/>
<text stroke="none" fill="white" font-size="16" x="106" y="64">
x1.comp_out_n-2
</text>
<path stroke="#A52A2A" d="M50 613l1 0 1 -9 0 -22 1 -19M53 564l0 -3M53 564l1 6M54 613l0 -43M54 612l1 1 539 0M594 615l0 -168M594 449l14 0M608 613l0 -173M608 613l13 0M621 615l0 -168M621 449l13 0M634 613l0 -171M634 613l39 0 1 -67 0 -99M674 449l13 0"/>
<path stroke="#A52A2A" d="M687 614l0 -174M687 613l13 0 1 -149 0 -16M701 449l12 0 0 -7 1 142M714 613l0 -29M714 613l66 0M780 614l0 -166M780 449l13 0M793 613l0 -167M793 613l14 0 0 -164 12 0M819 613l0 -174M819 613l15 0 0 -165M834 449l11 0 0 -2 1 155"/>
<path stroke="#A52A2A" d="M846 613l0 -11M846 613l128 0"/>
</svg>
