<?xml version="1.0" standalone="yes"?>
<!DOCTYPE svg PUBLIC "-//W3C//DTD SVG 1.1//EN"
 "http://www.w3.org/Graphics/SVG/1.1/DTD/svg11.dtd">
<svg xmlns="http://www.w3.org/2000/svg" version="1.1"
  width="100%" height="100%" viewBox="0 0 1024 768"
  style="fill: none; font-family: Helvetica;
 font: Helvetica;
">

<!-- Creator: NGspice -->

<rect x="0" y="0" width="1024" height="768" fill="black" stroke="none"/>
<text stroke="none" fill="white" font-size="16" x="358" y="752">
time
</text>
<text stroke="none" fill="white" font-size="16" x="10" y="16">
tran1: run1451_vin0.375731
</text>
<path stroke="white" d="M50 704l0 -637"/>
<text stroke="none" fill="white" font-size="16" x="35" y="728">
0.0
</text>
<path stroke="white" stroke-dasharray="1,2" d="M182 704l0 -637"/>
<text stroke="none" fill="white" font-size="16" x="157" y="728">
100.0
</text>
<path stroke="white" stroke-dasharray="1,2" d="M314 704l0 -637"/>
<text stroke="none" fill="white" font-size="16" x="289" y="728">
200.0
</text>
<path stroke="white" stroke-dasharray="1,2" d="M446 704l0 -637"/>
<text stroke="none" fill="white" font-size="16" x="421" y="728">
300.0
</text>
<path stroke="white" stroke-dasharray="1,2" d="M578 704l0 -637"/>
<text stroke="none" fill="white" font-size="16" x="553" y="728">
400.0
</text>
<path stroke="white" stroke-dasharray="1,2" d="M710 704l0 -637"/>
<text stroke="none" fill="white" font-size="16" x="685" y="728">
500.0
</text>
<path stroke="white" stroke-dasharray="1,2" d="M842 704l0 -637"/>
<text stroke="none" fill="white" font-size="16" x="817" y="728">
600.0
</text>
<path stroke="white" stroke-dasharray="1,2" d="M974 704l0 -637"/>
<text stroke="none" fill="white" font-size="16" x="949" y="728">
700.0
</text>
<text stroke="none" fill="white" font-size="16" x="614" y="752">
ns
</text>
<path stroke="white" stroke-dasharray="1,2" d="M50 704l924 0"/>
<text stroke="none" fill="white" font-size="16" x="8" y="712">
-3.0
</text>
<path stroke="white" stroke-dasharray="1,2" d="M50 613l924 0"/>
<text stroke="none" fill="white" font-size="16" x="8" y="621">
-2.0
</text>
<path stroke="white" stroke-dasharray="1,2" d="M50 522l924 0"/>
<text stroke="none" fill="white" font-size="16" x="8" y="530">
-1.0
</text>
<path stroke="white" d="M50 431l924 0"/>
<text stroke="none" fill="white" font-size="16" x="18" y="439">
0.0
</text>
<path stroke="white" stroke-dasharray="1,2" d="M50 340l924 0"/>
<text stroke="none" fill="white" font-size="16" x="18" y="348">
1.0
</text>
<path stroke="white" stroke-dasharray="1,2" d="M50 249l924 0"/>
<text stroke="none" fill="white" font-size="16" x="18" y="257">
2.0
</text>
<path stroke="white" stroke-dasharray="1,2" d="M50 158l924 0"/>
<text stroke="none" fill="white" font-size="16" x="18" y="166">
3.0
</text>
<path stroke="white" stroke-dasharray="1,2" d="M50 67l924 0"/>
<text stroke="none" fill="white" font-size="16" x="18" y="75">
4.0
</text>
<text stroke="none" fill="white" font-size="16" x="10" y="32">
     
</text>
<path stroke="red" d="M462 23l46 0"/>
<text stroke="none" fill="white" font-size="16" x="518" y="32">
x1.vsampled_p
</text>
<path stroke="red" d="M50 431l1 0 1 -7 0 -15 1 -15 0 -4 1 1M54 415l0 -40 1 -5 0 -13 1 -3 0 -2 2 -2 1 0 1 -1 4 0M64 350l0 -1M64 350l4 0 1 -1 48 0 0 -1 1 -8 0 -15 1 -4 0 -3 1 -1 0 -1 1 -1 419 0M540 316l0 -1 27 0M567 316l0 -1 7 0M574 339l0 -24M574 339l1 4"/>
<path stroke="red" d="M575 355l0 -12M575 355l1 1 49 0 0 -9 1 -1 0 -7 1 0 0 -1 19 0M646 339l0 -1 7 0M653 346l0 -8M653 346l1 2M654 349l0 -1M654 349l1 -1 17 0M672 349l0 -1 26 0 1 1 0 -1 26 0M725 349l0 -1 26 0M751 349l0 -1M751 349l1 -1 26 0M778 349l0 -1"/>
<path stroke="red" d="M778 348l7 0 1 1 26 0 1 1 0 -1 18 0M831 350l0 -1 87 0M918 350l0 -6 1 -2 0 -12 1 -4 0 -3 1 -3 0 -3 1 0 0 -1 1 0 0 -1 13 0M936 316l0 -1 38 0"/>
<path stroke="blue" d="M50 23l46 0"/>
<text stroke="none" fill="white" font-size="16" x="106" y="32">
x1.vsampled_n
</text>
<path stroke="blue" d="M50 431l1 0 1 -7 0 -15 1 -14 0 -5 1 2M54 415l0 -40 1 -5 0 -13 1 -3 0 -2 2 -2 1 0 1 -1 4 0M64 350l0 -1M64 350l4 0 1 -1 48 0M117 355l0 -6M117 355l1 10M118 376l0 -11M118 376l1 3M119 381l0 -2M119 381l1 1M120 383l0 -1M120 383l420 0"/>
<path stroke="blue" d="M540 384l0 -1 6 0M546 384l0 -23 1 -2 0 -28 1 -2 0 -3 1 -2 0 -1 1 -1 4 0 0 -1M554 322l13 0M567 323l0 -1 26 0M593 323l0 -1 7 0M600 344l0 -22M600 344l1 3M601 349l0 -4 1 -1 0 -1 4 0 0 -1 1 0M607 343l0 -1M607 343l12 0 0 -1M619 343l14 0"/>
<path stroke="blue" d="M633 343l0 -1M633 343l13 0 0 -1M646 343l13 0 0 -1 1 0M660 343l0 -1M660 343l12 0 0 -1M672 343l7 0M679 349l0 -6M679 349l1 1M680 351l0 -3 6 0 0 -1M686 348l20 0M706 352l0 -4M706 352l1 -1 0 -1 18 0M725 351l0 -1 6 0 1 -2 0 -1"/>
<path stroke="blue" d="M732 348l27 0M759 351l0 -3M759 350l1 0 0 -1 18 0M778 350l0 -1 26 0M804 350l0 -1 27 0M831 350l0 -1 26 0M857 350l0 -1 26 0M883 350l0 -1M883 350l1 -1 26 0M910 350l0 -1 8 0M918 363l0 -17M918 363l1 2M919 381l0 -16M919 381l1 3"/>
<path stroke="blue" d="M920 385l0 -1M920 385l1 0 0 -1 2 0 0 -1 13 0M936 384l0 -1 38 0"/>
<path stroke="#FFA500" d="M462 39l46 0"/>
<text stroke="none" fill="white" font-size="16" x="518" y="48">
x1.vsampled_p-x1.vsampled_n
</text>
<path stroke="#FFA500" d="M50 431l2 0 1 -1 1 1 63 0 0 -7 1 -18 0 -27 1 -7 0 -3 1 -3 0 -2 1 -1 425 0M546 385l0 -22M546 385l1 2M547 415l0 -28M547 415l1 3M548 421l0 -3M548 421l1 1M549 423l0 -1M549 423l1 1 17 0 0 -1M567 424l7 0M574 448l0 -24M574 448l1 4"/>
<path stroke="#FFA500" d="M575 464l0 -12M575 464l1 1 17 0 0 -1M593 465l7 0 0 -22 1 -3M601 442l0 -4M601 442l1 1M602 444l0 -1M602 444l4 0M606 445l0 -1M606 445l1 0 0 -1 18 0 0 -8 1 -1 0 -7 1 -1 19 0 0 -1M646 427l7 0M653 434l0 -8M653 434l1 3 25 0"/>
<path stroke="#FFA500" d="M679 437l0 -6 1 -2M680 431l0 -2M680 431l1 0M681 432l0 -1M681 432l25 0 0 -4 1 0M707 429l0 -1M707 429l24 0 1 2M732 433l0 -2M732 432l1 0 0 -1 26 0 0 -2 1 1 25 0 1 1 27 0M813 432l0 -1 26 0 0 -1M839 431l79 0M918 432l0 -19"/>
<path stroke="#FFA500" d="M918 413l1 -5 0 -28 1 -8 0 -4 1 -2 0 -2 1 0 0 -1 1 0 0 -1M923 363l13 0M936 364l0 -1 14 0 0 -1M950 363l24 0"/>
<path stroke="green" d="M50 39l46 0"/>
<text stroke="none" fill="white" font-size="16" x="106" y="48">
x1.sw_sample-2
</text>
<path stroke="green" d="M50 613l1 0 1 -9 0 -21 1 -21M53 580l0 -24M53 580l1 30M54 613l0 -3M54 613l63 0M117 620l0 -172M117 449l422 0M539 614l0 -171M539 613l422 0M961 618l0 -170 1 1 12 0"/>
<path stroke="#FFC0C5" d="M462 55l46 0"/>
<text stroke="none" fill="white" font-size="16" x="518" y="64">
x1.comp_out_p+2
</text>
<path stroke="#FFC0C5" d="M50 249l1 0 1 -9 0 -22 1 -18 0 -4M53 198l1 5M54 249l0 -46M54 249l488 0M542 255l0 -172M542 85l13 0M555 249l0 -172M555 249l13 0 0 -165M568 85l13 0 0 -8 1 157M582 249l0 -15M582 249l65 0M647 250l0 -167M647 85l14 0M661 249l0 -171"/>
<path stroke="#FFC0C5" d="M661 249l66 0 0 -165M727 85l13 0M740 250l0 -173M740 249l40 0 0 -165M780 85l13 0M793 249l0 -174M793 249l14 0 0 -165 1 1 11 0M819 250l0 -171M819 249l40 0 1 -157 0 -8M860 85l12 0M872 249l0 -173M872 249l14 0 0 -164 1 -1"/>
<path stroke="#FFC0C5" d="M887 85l0 -1M887 85l11 0M898 249l0 -173M898 249l15 0M913 250l0 -166M913 85l12 0M925 250l0 -167M925 249l12 0M937 250l0 -1M937 250l1 -50 0 -116M938 85l13 0M951 249l0 -171M951 249l23 0"/>
<path stroke="#A52A2A" d="M50 55l46 0"/>
<text stroke="none" fill="white" font-size="16" x="106" y="64">
x1.comp_out_n-2
</text>
<path stroke="#A52A2A" d="M50 613l1 0 1 -9 0 -22 1 -19M53 564l0 -3M53 564l1 6M54 613l0 -43M54 612l1 1 539 0M594 618l0 -171M594 449l14 0M608 613l0 -171M608 613l13 0M621 615l0 -168M621 449l13 0M634 613l0 -172M634 613l39 0 1 -65 0 -100M674 449l13 0"/>
<path stroke="#A52A2A" d="M687 613l0 -173M687 613l13 0 0 -156 1 -9M701 449l0 -1M701 449l12 0 0 -9 1 163M714 613l0 -10M714 613l39 0M753 614l0 -148 1 -18M754 449l0 -1M754 449l12 0M766 614l0 -171M766 613l68 0 0 -158 1 -7M835 449l0 -1M835 449l10 0"/>
<path stroke="#A52A2A" d="M845 449l0 -10 1 156M846 613l0 -18M846 613l128 0"/>
</svg>
