<?xml version="1.0" standalone="yes"?>
<!DOCTYPE svg PUBLIC "-//W3C//DTD SVG 1.1//EN"
 "http://www.w3.org/Graphics/SVG/1.1/DTD/svg11.dtd">
<svg xmlns="http://www.w3.org/2000/svg" version="1.1"
  width="100%" height="100%" viewBox="0 0 1024 768"
  style="fill: none; font-family: Helvetica;
 font: Helvetica;
">

<!-- Creator: NGspice -->

<rect x="0" y="0" width="1024" height="768" fill="black" stroke="none"/>
<text stroke="none" fill="white" font-size="16" x="358" y="752">
time
</text>
<text stroke="none" fill="white" font-size="16" x="10" y="16">
tran1: run363_vin-0.580518
</text>
<path stroke="white" d="M50 704l0 -637"/>
<text stroke="none" fill="white" font-size="16" x="35" y="728">
0.0
</text>
<path stroke="white" stroke-dasharray="1,2" d="M182 704l0 -637"/>
<text stroke="none" fill="white" font-size="16" x="157" y="728">
100.0
</text>
<path stroke="white" stroke-dasharray="1,2" d="M314 704l0 -637"/>
<text stroke="none" fill="white" font-size="16" x="289" y="728">
200.0
</text>
<path stroke="white" stroke-dasharray="1,2" d="M446 704l0 -637"/>
<text stroke="none" fill="white" font-size="16" x="421" y="728">
300.0
</text>
<path stroke="white" stroke-dasharray="1,2" d="M578 704l0 -637"/>
<text stroke="none" fill="white" font-size="16" x="553" y="728">
400.0
</text>
<path stroke="white" stroke-dasharray="1,2" d="M710 704l0 -637"/>
<text stroke="none" fill="white" font-size="16" x="685" y="728">
500.0
</text>
<path stroke="white" stroke-dasharray="1,2" d="M842 704l0 -637"/>
<text stroke="none" fill="white" font-size="16" x="817" y="728">
600.0
</text>
<path stroke="white" stroke-dasharray="1,2" d="M974 704l0 -637"/>
<text stroke="none" fill="white" font-size="16" x="949" y="728">
700.0
</text>
<text stroke="none" fill="white" font-size="16" x="614" y="752">
ns
</text>
<path stroke="white" stroke-dasharray="1,2" d="M50 704l924 0"/>
<text stroke="none" fill="white" font-size="16" x="8" y="712">
-3.0
</text>
<path stroke="white" stroke-dasharray="1,2" d="M50 613l924 0"/>
<text stroke="none" fill="white" font-size="16" x="8" y="621">
-2.0
</text>
<path stroke="white" stroke-dasharray="1,2" d="M50 522l924 0"/>
<text stroke="none" fill="white" font-size="16" x="8" y="530">
-1.0
</text>
<path stroke="white" d="M50 431l924 0"/>
<text stroke="none" fill="white" font-size="16" x="18" y="439">
0.0
</text>
<path stroke="white" stroke-dasharray="1,2" d="M50 340l924 0"/>
<text stroke="none" fill="white" font-size="16" x="18" y="348">
1.0
</text>
<path stroke="white" stroke-dasharray="1,2" d="M50 249l924 0"/>
<text stroke="none" fill="white" font-size="16" x="18" y="257">
2.0
</text>
<path stroke="white" stroke-dasharray="1,2" d="M50 158l924 0"/>
<text stroke="none" fill="white" font-size="16" x="18" y="166">
3.0
</text>
<path stroke="white" stroke-dasharray="1,2" d="M50 67l924 0"/>
<text stroke="none" fill="white" font-size="16" x="18" y="75">
4.0
</text>
<text stroke="none" fill="white" font-size="16" x="10" y="32">
     
</text>
<path stroke="red" d="M462 23l46 0"/>
<text stroke="none" fill="white" font-size="16" x="518" y="32">
x1.vsampled_p
</text>
<path stroke="red" d="M50 431l1 0 1 -7 0 -15 1 -14 0 -5 1 2M54 414l0 -37 1 -4 0 -17 1 -3 1 -2 0 -1 2 0 1 -1 4 0M64 350l0 -1M64 350l4 0 1 -1 48 0M117 362l0 -13M117 362l1 13M118 390l0 -15M118 390l1 4M119 398l0 -4M119 398l1 2M120 401l0 -1M120 401l1 0"/>
<path stroke="red" d="M121 401l1 1 424 0 0 -33 1 -6 0 -13 1 -4 0 -3 1 -1 0 -1 5 0 0 -1M554 341l13 0M567 342l0 -1 13 0 0 -1M580 341l26 0 0 -1 1 0M607 341l0 -1M607 341l26 0 0 -1M633 341l26 0 0 -1M659 341l20 0M679 348l0 -7M679 348l1 1 0 -3 26 0"/>
<path stroke="red" d="M706 350l0 -4M706 350l1 -1 0 -1 18 0M725 349l0 -1 26 0M751 349l0 -1M751 349l1 0 0 -1 26 0M778 349l0 -1 7 0 1 1M786 350l0 -1 27 0M813 350l0 -1 17 0 1 1 0 -1 87 0M918 386l0 -45M918 386l1 5M919 405l0 -14M919 405l1 0 0 -1 2 -2"/>
<path stroke="red" d="M922 402l52 0"/>
<path stroke="blue" d="M50 23l46 0"/>
<text stroke="none" fill="white" font-size="16" x="106" y="32">
x1.vsampled_n
</text>
<path stroke="blue" d="M50 431l1 0 1 -7 0 -15 1 -15 0 -4 1 1M54 414l0 -37 1 -4 0 -17 1 -3 1 -2 0 -1 2 0 1 -1 4 0M64 350l0 -1M64 350l4 0 1 -1 48 0 0 -1 1 -10 0 -23 1 -6 0 -6 1 -3 0 -2 1 -1 1 0 0 -1 417 0M539 297l0 -1M539 297l1 0M540 298l0 -2M540 297l14 0"/>
<path stroke="blue" d="M554 297l0 -1 12 0 1 1M567 298l0 -1 7 0M574 319l0 -23M574 319l1 8M575 336l0 -9M575 336l2 2 1 -1 15 0M593 338l0 -1 7 0M600 352l0 -15M600 352l1 3M601 359l0 -4M601 358l24 0 0 -9 1 -1 0 -6 1 -1 0 -1 26 0M653 347l0 -7M653 347l1 1"/>
<path stroke="blue" d="M654 351l0 -3M654 350l77 0 1 -1 0 -2M732 348l27 0M759 350l0 -2M759 349l19 0M778 350l0 -1 26 0M804 350l0 -1 27 0M831 350l0 -1 26 0M857 350l0 -1 26 0M883 350l0 -1 27 0M910 350l0 -1 8 0M918 353l0 -19 1 -2 0 -24 1 -3 0 -5 1 -1"/>
<path stroke="blue" d="M921 299l0 -1 1 0 0 -1 1 0 0 -1 13 0M936 298l0 -2M936 297l14 0 0 -1 24 0"/>
<path stroke="#FFA500" d="M462 39l46 0"/>
<text stroke="none" fill="white" font-size="16" x="518" y="48">
x1.vsampled_p-x1.vsampled_n
</text>
<path stroke="#FFA500" d="M50 431l2 0 1 1 1 0 0 -1 63 0M117 445l0 -14M117 445l1 24M118 506l0 -37M118 506l1 9M119 526l0 -11M119 526l1 5M120 534l0 -3M120 534l3 3 416 0 0 -1 1 1 0 -1 6 0M546 537l0 -34 1 -6 0 -13 1 -3 0 -4 1 -1 1 0 0 -1 17 0M567 476l0 -2"/>
<path stroke="#FFA500" d="M567 475l7 0 0 -23 1 -7 0 -9 1 -2 17 0M593 435l0 -1 7 0M600 435l0 -15 1 -3 0 -4 1 1 23 0M625 423l0 -9M625 423l1 1M626 430l0 -6M626 430l1 1M627 432l0 -1M627 432l26 0 0 -7 1 -1 0 -3 1 1 4 0 0 -1M659 422l20 0M679 428l0 -6"/>
<path stroke="#FFA500" d="M679 428l1 1M680 430l0 -3 26 0M706 431l0 -4M706 430l1 0 0 -1 24 0 1 1M732 432l0 -2M732 431l19 0M751 432l0 -1M751 432l1 0 0 -1 7 0 0 -2M759 430l26 0 1 1M786 432l0 -1 27 0M813 432l0 -1 26 0 0 -1M839 431l79 0M918 483l0 -61"/>
<path stroke="#FFA500" d="M918 483l1 6M919 528l0 -39M919 528l1 3M920 534l0 -3M920 534l1 1M921 536l0 -1M921 536l2 0M923 537l0 -1M923 537l13 0 0 -2M936 536l14 0M950 537l0 -1M950 537l24 0"/>
<path stroke="green" d="M50 39l46 0"/>
<text stroke="none" fill="white" font-size="16" x="106" y="48">
x1.sw_sample-2
</text>
<path stroke="green" d="M50 613l1 0 1 -9 0 -21 1 -21M53 580l0 -24M53 580l1 30M54 613l0 -3M54 613l63 0M117 620l0 -172M117 449l422 0M539 614l0 -171M539 613l422 0M961 618l0 -170 1 1 12 0"/>
<path stroke="#FFC0C5" d="M462 55l46 0"/>
<text stroke="none" fill="white" font-size="16" x="518" y="64">
x1.comp_out_p+2
</text>
<path stroke="#FFC0C5" d="M50 249l1 0 1 -9 0 -22 1 -18 0 -4M53 198l1 5M54 250l0 -73 1 68M55 249l0 -4M55 249l566 0M621 253l0 -169M621 85l13 0M634 249l0 -172M634 249l39 0M673 251l0 -2M673 251l1 -95 0 -73M674 85l13 0M687 249l0 -171M687 249l13 0"/>
<path stroke="#FFC0C5" d="M700 254l0 -171M700 85l13 0 0 -8 1 161M714 250l0 -12M714 249l13 0 0 -165M727 85l13 0M740 250l0 -173M740 249l40 0 0 -165M780 85l13 0M793 250l0 -174M793 249l14 0 0 -164 12 0M819 250l0 -172M819 249l41 0 0 -165M860 85l12 0"/>
<path stroke="#FFC0C5" d="M872 250l0 -174M872 249l14 0 1 -144 0 -21M887 85l11 0M898 250l0 -174M898 249l15 0 0 -165M913 85l12 0M925 249l0 -172M925 249l49 0"/>
<path stroke="#A52A2A" d="M50 55l46 0"/>
<text stroke="none" fill="white" font-size="16" x="106" y="64">
x1.comp_out_n-2
</text>
<path stroke="#A52A2A" d="M50 613l1 0 1 -9 0 -22 1 -19M53 564l0 -3M53 564l1 6M54 614l0 -44M54 612l1 1 486 0 1 2 0 -168M542 449l13 0M555 614l0 -167M555 613l13 0M568 614l0 -167M568 449l13 0 0 -8 1 157M582 613l0 -15M582 613l12 0M594 615l0 -168M594 449l14 0"/>
<path stroke="#A52A2A" d="M608 613l0 -172M608 613l39 0M647 615l0 -168M647 449l14 0M661 613l0 -174M661 613l92 0 0 -165 1 0M754 449l0 -1M754 449l12 0M766 613l0 -173M766 613l68 0 0 -165M834 449l11 0 0 -10 1 153M846 613l0 -21M846 613l91 0M937 619l0 -6"/>
<path stroke="#A52A2A" d="M937 619l1 -141 0 -31M938 449l13 0M951 613l0 -172M951 613l23 0"/>
</svg>
