<?xml version="1.0" standalone="yes"?>
<!DOCTYPE svg PUBLIC "-//W3C//DTD SVG 1.1//EN"
 "http://www.w3.org/Graphics/SVG/1.1/DTD/svg11.dtd">
<svg xmlns="http://www.w3.org/2000/svg" version="1.1"
  width="100%" height="100%" viewBox="0 0 1024 768"
  style="fill: none; font-family: Helvetica;
 font: Helvetica;
">

<!-- Creator: NGspice -->

<rect x="0" y="0" width="1024" height="768" fill="black" stroke="none"/>
<text stroke="none" fill="white" font-size="16" x="358" y="752">
time
</text>
<text stroke="none" fill="white" font-size="16" x="10" y="16">
tran1: run365_vin-0.57876
</text>
<path stroke="white" d="M50 704l0 -637"/>
<text stroke="none" fill="white" font-size="16" x="35" y="728">
0.0
</text>
<path stroke="white" stroke-dasharray="1,2" d="M182 704l0 -637"/>
<text stroke="none" fill="white" font-size="16" x="157" y="728">
100.0
</text>
<path stroke="white" stroke-dasharray="1,2" d="M314 704l0 -637"/>
<text stroke="none" fill="white" font-size="16" x="289" y="728">
200.0
</text>
<path stroke="white" stroke-dasharray="1,2" d="M446 704l0 -637"/>
<text stroke="none" fill="white" font-size="16" x="421" y="728">
300.0
</text>
<path stroke="white" stroke-dasharray="1,2" d="M578 704l0 -637"/>
<text stroke="none" fill="white" font-size="16" x="553" y="728">
400.0
</text>
<path stroke="white" stroke-dasharray="1,2" d="M710 704l0 -637"/>
<text stroke="none" fill="white" font-size="16" x="685" y="728">
500.0
</text>
<path stroke="white" stroke-dasharray="1,2" d="M842 704l0 -637"/>
<text stroke="none" fill="white" font-size="16" x="817" y="728">
600.0
</text>
<path stroke="white" stroke-dasharray="1,2" d="M974 704l0 -637"/>
<text stroke="none" fill="white" font-size="16" x="949" y="728">
700.0
</text>
<text stroke="none" fill="white" font-size="16" x="614" y="752">
ns
</text>
<path stroke="white" stroke-dasharray="1,2" d="M50 704l924 0"/>
<text stroke="none" fill="white" font-size="16" x="8" y="712">
-3.0
</text>
<path stroke="white" stroke-dasharray="1,2" d="M50 613l924 0"/>
<text stroke="none" fill="white" font-size="16" x="8" y="621">
-2.0
</text>
<path stroke="white" stroke-dasharray="1,2" d="M50 522l924 0"/>
<text stroke="none" fill="white" font-size="16" x="8" y="530">
-1.0
</text>
<path stroke="white" d="M50 431l924 0"/>
<text stroke="none" fill="white" font-size="16" x="18" y="439">
0.0
</text>
<path stroke="white" stroke-dasharray="1,2" d="M50 340l924 0"/>
<text stroke="none" fill="white" font-size="16" x="18" y="348">
1.0
</text>
<path stroke="white" stroke-dasharray="1,2" d="M50 249l924 0"/>
<text stroke="none" fill="white" font-size="16" x="18" y="257">
2.0
</text>
<path stroke="white" stroke-dasharray="1,2" d="M50 158l924 0"/>
<text stroke="none" fill="white" font-size="16" x="18" y="166">
3.0
</text>
<path stroke="white" stroke-dasharray="1,2" d="M50 67l924 0"/>
<text stroke="none" fill="white" font-size="16" x="18" y="75">
4.0
</text>
<text stroke="none" fill="white" font-size="16" x="10" y="32">
     
</text>
<path stroke="red" d="M462 23l46 0"/>
<text stroke="none" fill="white" font-size="16" x="518" y="32">
x1.vsampled_p
</text>
<path stroke="red" d="M50 431l1 0 1 -7 0 -15 1 -14 0 -5 1 2M54 414l0 -37 1 -4 0 -17 1 -3 1 -2 0 -1 2 0 1 -1 4 0M64 350l0 -1M64 350l4 0 1 -1 48 0M117 362l0 -13M117 362l1 13M118 390l0 -15M118 390l1 3M119 398l0 -5M119 398l1 1M120 401l0 -2M120 401l1 0"/>
<path stroke="red" d="M121 401l1 1 424 0 0 -21 1 -3 0 -27 1 -4 0 -4 2 -2 4 0 0 -1M554 341l12 0 0 -1M566 341l14 0 0 -1M580 341l13 0 0 -1M593 341l13 0 0 -1 1 0M607 341l0 -1M607 341l26 0 0 -1M633 341l13 0 0 -1M646 341l13 0 0 -1 1 1 19 0M679 347l0 -6"/>
<path stroke="red" d="M679 347l1 1M680 349l0 -3 6 0 0 -1M686 346l20 0M706 350l0 -4M706 349l1 0 0 -1 18 0M725 349l0 -1 26 0M751 349l0 -1M751 349l1 -1 26 0M778 349l0 -1 7 0M785 349l0 -1M785 349l1 1 0 -1 26 0M812 350l0 -1M812 350l1 -1 18 0M831 350l0 -1"/>
<path stroke="red" d="M831 349l26 0M857 350l0 -1 26 0M883 350l0 -1 27 0M910 350l0 -1 7 0 0 -5 1 -4M918 402l0 -62M918 402l1 1M919 405l0 -2M919 404l1 0 0 -1 1 -1 53 0"/>
<path stroke="blue" d="M50 23l46 0"/>
<text stroke="none" fill="white" font-size="16" x="106" y="32">
x1.vsampled_n
</text>
<path stroke="blue" d="M50 431l1 0 1 -7 0 -15 1 -15 0 -4 1 1M54 414l0 -37 1 -4 0 -17 1 -3 1 -2 0 -1 2 0 1 -1 4 0M64 350l0 -1M64 350l4 0 1 -1 48 0 0 -1 1 -10 0 -23 1 -6 0 -6 1 -3 0 -2 1 -1 2 0 1 -1 415 0M539 297l0 -1M539 297l1 0M540 298l0 -1 14 0"/>
<path stroke="blue" d="M554 297l0 -1M554 297l13 0M567 298l0 -1 7 0M574 320l0 -23M574 320l1 7M575 336l0 -9M575 336l1 2 4 0 0 -1M580 338l13 0 0 -1M593 338l7 0M600 351l0 -14M600 351l1 2M601 359l0 -6M601 359l1 -1 23 0 0 -4 1 -3 0 -9 1 -1 0 -1 19 0"/>
<path stroke="blue" d="M646 341l0 -1 7 0M653 348l0 -8M653 348l1 2M654 351l0 -1M654 351l1 -1 17 0M672 351l0 -1 27 0M699 351l0 -1 26 0M725 351l0 -1 6 0 0 -2 28 0M759 350l0 -2M759 350l1 -1 18 0M778 350l0 -1 26 0M804 350l0 -1 26 0 1 1 0 -1 86 0M917 353l0 -4"/>
<path stroke="blue" d="M917 353l1 -6 0 -29 1 -5 0 -9 1 -3 0 -2 1 -1 0 -1 2 0 0 -1M923 297l13 0M936 298l0 -1 14 0 0 -1M950 297l12 0 0 -1 12 0"/>
<path stroke="#FFA500" d="M462 39l46 0"/>
<text stroke="none" fill="white" font-size="16" x="518" y="48">
x1.vsampled_p-x1.vsampled_n
</text>
<path stroke="#FFA500" d="M50 431l2 0 1 1 1 0 0 -1 63 0M117 445l0 -14M117 445l1 24M118 505l0 -36M118 505l1 10M119 526l0 -11M119 526l1 4M120 534l0 -4M120 534l2 2 418 0 0 -1M540 536l6 0 0 -21 1 -3 0 -27 1 -4 0 -4 2 -2 17 0 0 -1M567 475l7 0 0 -23"/>
<path stroke="#FFA500" d="M574 452l1 -8 0 -8 1 -2 24 0 0 -13 1 -3 0 -5 1 0M602 414l0 -1M602 414l4 0 0 -1 1 0M607 414l0 -1M607 414l18 0M625 418l0 -4M625 418l1 3M626 430l0 -9M626 430l1 0M627 431l0 -1M627 431l19 0M646 432l0 -1 7 0M653 432l0 -8 1 -3"/>
<path stroke="#FFA500" d="M654 421l18 0M672 422l0 -1 7 0M679 428l0 -7M679 428l1 0M680 430l0 -3 1 0 0 -1 18 0M699 427l0 -1 7 0M706 431l0 -5M706 430l1 -1 24 0M731 432l0 -3M731 432l1 0 0 -1 27 0 0 -2M759 430l26 0M785 431l0 -1M785 431l6 0 0 -1 1 0"/>
<path stroke="#FFA500" d="M792 431l0 -1M792 431l20 0M812 432l0 -1 105 0 0 -9 1 1M918 515l0 -92M918 515l1 6M919 532l0 -11M919 532l1 1M920 535l0 -2M920 535l1 0M921 536l0 -1M921 536l2 0M923 537l0 -1 13 0 0 -1M936 536l14 0M950 537l0 -1 24 0"/>
<path stroke="green" d="M50 39l46 0"/>
<text stroke="none" fill="white" font-size="16" x="106" y="48">
x1.sw_sample-2
</text>
<path stroke="green" d="M50 613l1 0 1 -9 0 -21 1 -21M53 580l0 -24M53 580l1 30M54 613l0 -3M54 613l63 0M117 620l0 -172M117 449l422 0M539 614l0 -171M539 613l422 0M961 618l0 -170 1 1 12 0"/>
<path stroke="#FFC0C5" d="M462 55l46 0"/>
<text stroke="none" fill="white" font-size="16" x="518" y="64">
x1.comp_out_p+2
</text>
<path stroke="#FFC0C5" d="M50 249l1 0 1 -9 0 -22 1 -18 0 -4M53 198l1 5M54 250l0 -73 1 68M55 249l0 -4M55 249l566 0M621 251l0 -167M621 85l13 0M634 249l0 -172M634 249l39 0M673 251l0 -2M673 251l1 -96 0 -72M674 85l13 0M687 250l0 -172M687 249l13 0"/>
<path stroke="#FFC0C5" d="M700 254l0 -171M700 85l13 0 0 -8 1 153M714 249l0 -19M714 249l13 0 0 -165M727 85l13 0M740 250l0 -170M740 249l40 0M780 251l0 -167M780 85l13 0M793 249l0 -167M793 249l14 0 0 -165M807 85l12 0M819 249l0 -174M819 249l15 0 0 -165"/>
<path stroke="#FFC0C5" d="M834 85l11 0 0 -2 1 151M846 249l0 -15M846 249l128 0"/>
<path stroke="#A52A2A" d="M50 55l46 0"/>
<text stroke="none" fill="white" font-size="16" x="106" y="64">
x1.comp_out_n-2
</text>
<path stroke="#A52A2A" d="M50 613l1 0 1 -9 0 -22 1 -19M53 564l0 -3M53 564l1 6M54 614l0 -44M54 612l1 1 487 0 0 -165M542 449l13 0M555 613l0 -173M555 613l13 0 0 -165M568 449l13 0M581 457l0 -11M581 457l1 147M582 613l0 -9M582 613l12 0M594 616l0 -169"/>
<path stroke="#A52A2A" d="M594 448l1 1 13 0M608 614l0 -173M608 613l13 0M621 614l0 -1 26 0 0 -165M647 449l14 0M661 614l0 -170M661 613l92 0 0 -144 1 -20 0 -1M754 449l12 0M766 614l0 -174M766 613l94 0 0 -165M860 449l12 0M872 613l0 -174M872 613l14 0"/>
<path stroke="#A52A2A" d="M886 613l0 -158 1 -7M887 449l0 -1M887 449l11 0M898 613l0 -174M898 613l14 0 1 -158 0 -7M913 449l12 0M925 613l0 -173M925 613l12 0M937 614l0 -1M937 614l1 -86 0 -81M938 449l13 0M951 614l0 -167M951 613l23 0"/>
</svg>
