<?xml version="1.0" standalone="yes"?>
<!DOCTYPE svg PUBLIC "-//W3C//DTD SVG 1.1//EN"
 "http://www.w3.org/Graphics/SVG/1.1/DTD/svg11.dtd">
<svg xmlns="http://www.w3.org/2000/svg" version="1.1"
  width="100%" height="100%" viewBox="0 0 1024 768"
  style="fill: none; font-family: Helvetica;
 font: Helvetica;
">

<!-- Creator: NGspice -->

<rect x="0" y="0" width="1024" height="768" fill="black" stroke="none"/>
<text stroke="none" fill="white" font-size="16" x="358" y="752">
time
</text>
<text stroke="none" fill="white" font-size="16" x="10" y="16">
tran1: run152_vin0.860818
</text>
<path stroke="white" d="M50 704l0 -637"/>
<text stroke="none" fill="white" font-size="16" x="35" y="728">
0.0
</text>
<path stroke="white" stroke-dasharray="1,2" d="M182 704l0 -637"/>
<text stroke="none" fill="white" font-size="16" x="157" y="728">
100.0
</text>
<path stroke="white" stroke-dasharray="1,2" d="M314 704l0 -637"/>
<text stroke="none" fill="white" font-size="16" x="289" y="728">
200.0
</text>
<path stroke="white" stroke-dasharray="1,2" d="M446 704l0 -637"/>
<text stroke="none" fill="white" font-size="16" x="421" y="728">
300.0
</text>
<path stroke="white" stroke-dasharray="1,2" d="M578 704l0 -637"/>
<text stroke="none" fill="white" font-size="16" x="553" y="728">
400.0
</text>
<path stroke="white" stroke-dasharray="1,2" d="M710 704l0 -637"/>
<text stroke="none" fill="white" font-size="16" x="685" y="728">
500.0
</text>
<path stroke="white" stroke-dasharray="1,2" d="M842 704l0 -637"/>
<text stroke="none" fill="white" font-size="16" x="817" y="728">
600.0
</text>
<path stroke="white" stroke-dasharray="1,2" d="M974 704l0 -637"/>
<text stroke="none" fill="white" font-size="16" x="949" y="728">
700.0
</text>
<text stroke="none" fill="white" font-size="16" x="614" y="752">
ns
</text>
<path stroke="white" stroke-dasharray="1,2" d="M50 704l924 0"/>
<text stroke="none" fill="white" font-size="16" x="8" y="712">
-2.5
</text>
<path stroke="white" stroke-dasharray="1,2" d="M50 655l924 0"/>
<text stroke="none" fill="white" font-size="16" x="8" y="663">
-2.0
</text>
<path stroke="white" stroke-dasharray="1,2" d="M50 606l924 0"/>
<text stroke="none" fill="white" font-size="16" x="8" y="614">
-1.5
</text>
<path stroke="white" stroke-dasharray="1,2" d="M50 557l924 0"/>
<text stroke="none" fill="white" font-size="16" x="8" y="565">
-1.0
</text>
<path stroke="white" stroke-dasharray="1,2" d="M50 508l924 0"/>
<text stroke="none" fill="white" font-size="16" x="8" y="516">
-0.5
</text>
<path stroke="white" d="M50 459l924 0"/>
<text stroke="none" fill="white" font-size="16" x="18" y="467">
0.0
</text>
<path stroke="white" stroke-dasharray="1,2" d="M50 410l924 0"/>
<text stroke="none" fill="white" font-size="16" x="18" y="418">
0.5
</text>
<path stroke="white" stroke-dasharray="1,2" d="M50 361l924 0"/>
<text stroke="none" fill="white" font-size="16" x="18" y="369">
1.0
</text>
<path stroke="white" stroke-dasharray="1,2" d="M50 312l924 0"/>
<text stroke="none" fill="white" font-size="16" x="18" y="320">
1.5
</text>
<path stroke="white" stroke-dasharray="1,2" d="M50 263l924 0"/>
<text stroke="none" fill="white" font-size="16" x="18" y="271">
2.0
</text>
<path stroke="white" stroke-dasharray="1,2" d="M50 214l924 0"/>
<text stroke="none" fill="white" font-size="16" x="18" y="222">
2.5
</text>
<path stroke="white" stroke-dasharray="1,2" d="M50 165l924 0"/>
<text stroke="none" fill="white" font-size="16" x="18" y="173">
3.0
</text>
<path stroke="white" stroke-dasharray="1,2" d="M50 116l924 0"/>
<text stroke="none" fill="white" font-size="16" x="18" y="124">
3.5
</text>
<path stroke="white" stroke-dasharray="1,2" d="M50 67l924 0"/>
<text stroke="none" fill="white" font-size="16" x="18" y="75">
4.0
</text>
<text stroke="none" fill="white" font-size="16" x="10" y="32">
     
</text>
<path stroke="red" d="M462 23l46 0"/>
<text stroke="none" fill="white" font-size="16" x="518" y="32">
x1.vsampled_p
</text>
<path stroke="red" d="M50 459l1 0 1 -7 0 -17 1 -16 0 -5 1 2M54 441l0 -42 1 -4 0 -15 1 -3 0 -3 1 -1 0 -1 1 -1 59 0 0 -2 1 -13 0 -39 1 -8 0 -12 1 -3 0 -5 2 -2 2 0 0 -1 415 0M539 287l0 -1M539 287l1 0M540 288l0 -1 14 0 0 -1M554 287l13 0M567 288l0 -1"/>
<path stroke="red" d="M567 287l7 0M574 313l0 -26M574 313l2 16M576 331l0 -2M576 331l4 0 0 -1M580 331l13 0M593 332l0 -1 7 0M600 346l0 -15M600 346l1 4M601 354l0 -4M601 354l1 -1 4 0 0 -1 1 0M607 353l0 -1M607 353l26 0 0 -1M633 353l20 0M653 360l0 -7"/>
<path stroke="red" d="M653 360l1 2M654 364l0 -2M654 364l25 0M679 369l0 -5M679 369l1 1 0 -1 19 0M699 370l0 -1 7 0M706 373l0 -4M706 373l1 -1 24 0 1 -2 0 -1M732 370l6 0 0 -1M738 370l21 0M759 372l0 -2M759 372l1 -1 158 0 0 -64 1 -4 0 -10 1 -2 0 -2"/>
<path stroke="red" d="M920 289l1 -1 0 -1 2 0 0 -1M923 287l13 0M936 288l0 -1 14 0 0 -1M950 287l12 0 0 -1 12 0"/>
<path stroke="blue" d="M50 23l46 0"/>
<text stroke="none" fill="white" font-size="16" x="106" y="32">
x1.vsampled_n
</text>
<path stroke="blue" d="M50 459l1 0 1 -7 0 -17 1 -15 0 -5 1 2M54 441l0 -42 1 -4 0 -15 1 -3 0 -3 1 -1 0 -1 1 -1 59 0M117 397l0 -26M117 397l1 20M118 440l0 -23M118 440l1 4M119 450l0 -6M119 450l1 1M120 454l0 -3M120 454l1 0 1 1 418 0M540 456l0 -1 6 0"/>
<path stroke="blue" d="M546 455l0 -21 1 -3 0 -30 1 -7 1 -3 0 -1 1 0 1 -1 16 0M567 390l0 -1 26 0M593 390l0 -1 26 0M619 390l0 -1 6 0 0 -12 1 -2 0 -6 1 0 1 1 18 0M646 371l0 -1 26 0M672 371l0 -1 27 0M699 371l0 -1 26 0M725 371l0 -1 26 0M751 371l0 -1"/>
<path stroke="blue" d="M751 370l27 0M778 371l0 -1 7 0M785 372l0 -2M785 372l1 0 0 -1 5 0 0 -1M791 371l22 0M813 372l0 -1 18 0M831 372l0 -1 8 0 0 -1M839 371l5 0 0 -1M844 371l26 0 0 -1 1 1 26 0 0 -1M897 371l21 0M918 478l0 -108M918 472l1 -3 0 -8 1 -2"/>
<path stroke="blue" d="M920 459l0 -1 1 -1 0 -1 1 0 0 -1 14 0M936 456l0 -1 38 0"/>
<path stroke="#FFA500" d="M462 39l46 0"/>
<text stroke="none" fill="white" font-size="16" x="518" y="48">
x1.vsampled_p-x1.vsampled_n
</text>
<path stroke="#FFA500" d="M50 459l2 0 0 -1 2 0M54 459l0 -1M54 459l63 0 0 -28 1 -32 0 -64 1 -11 0 -17 1 -6 0 -7 1 -2 1 -1 1 0 1 -1 415 0M539 291l0 -1M539 291l1 -1M540 291l0 -1M540 291l6 0M546 312l0 -21M546 312l1 3M547 345l0 -30M547 345l1 7 1 3"/>
<path stroke="#FFA500" d="M549 356l0 -1M549 356l1 0 1 1 3 0 0 -1 13 0M567 358l0 -2M567 357l7 0M574 383l0 -26M574 383l1 7 1 9M576 401l0 -2M576 401l4 0 0 -1 13 0M593 401l0 -1M593 401l7 0M600 416l0 -15M600 416l1 4M601 424l0 -4M601 423l5 0 0 -1 1 0"/>
<path stroke="#FFA500" d="M607 423l0 -1M607 423l18 0M625 435l0 -12M625 435l1 2M626 443l0 -6M626 443l1 0 1 -1 18 0 0 -1M646 442l7 0M653 449l0 -7M653 449l1 2M654 453l0 -2M654 453l18 0 0 -1M672 453l7 0M679 458l0 -5M679 458l1 1 0 -1 26 0M706 462l0 -4"/>
<path stroke="#FFA500" d="M706 462l1 -1 24 0 1 -2 0 -1M732 459l19 0 0 -1 1 0M752 459l0 -1M752 459l7 0M759 461l0 -2M759 461l1 -1 25 0 0 -2 1 0M786 459l0 -1M786 459l27 0 0 -1M813 459l26 0M839 460l0 -1 79 0M918 460l0 -165 1 -2 0 -2 4 0 0 -1 13 0"/>
<path stroke="#FFA500" d="M936 292l0 -2M936 291l14 0 0 -1 24 0"/>
<path stroke="green" d="M50 39l46 0"/>
<text stroke="none" fill="white" font-size="16" x="106" y="48">
x1.sw_sample-2
</text>
<path stroke="green" d="M50 655l1 0 1 -10 0 -23 1 -21M53 618l0 -24M53 618l1 34M54 655l0 -3M54 655l63 0M117 662l0 -184 1 0M118 479l0 -1M118 479l421 0M539 656l0 -184M539 655l422 0M961 660l0 -182 1 0M962 479l0 -1M962 479l12 0"/>
<path stroke="#FFC0C5" d="M462 55l46 0"/>
<text stroke="none" fill="white" font-size="16" x="518" y="64">
x1.comp_out_p+2
</text>
<path stroke="#FFC0C5" d="M50 263l1 0 1 -10 0 -23 1 -20 0 -4M53 208l1 5M54 263l0 -50M54 263l488 0 0 -178M542 87l13 0M555 264l0 -183M555 263l13 0 0 -178M568 87l13 0 0 -8 1 145M582 264l0 -40M582 263l12 0 0 -178M594 86l1 1 13 0M608 263l0 -185M608 263l13 0"/>
<path stroke="#FFC0C5" d="M621 263l0 -178M621 87l13 0M634 263l0 -186M634 263l13 0M647 264l0 -179M647 87l14 0M661 264l0 -184M661 263l12 0M673 265l0 -2M673 265l1 -109 0 -71M674 87l13 0M687 263l0 -185M687 263l13 0 0 -155 1 -22M701 87l0 -1M701 87l12 0"/>
<path stroke="#FFC0C5" d="M713 87l0 -10 1 171M714 263l0 -15M714 263l39 0M753 265l0 -2M753 265l1 -156 0 -24M754 87l12 0M766 263l0 -185M766 263l68 0 0 -162 1 -15M835 87l0 -1M835 87l10 0M845 101l0 -18M845 101l1 150M846 264l0 -13M846 263l91 0 1 -51"/>
<path stroke="#FFC0C5" d="M938 212l0 -127M938 87l13 0M951 264l0 -187M951 263l23 0"/>
<path stroke="#A52A2A" d="M50 55l46 0"/>
<text stroke="none" fill="white" font-size="16" x="106" y="64">
x1.comp_out_n-2
</text>
<path stroke="#A52A2A" d="M50 655l1 0 1 -10 0 -24 1 -20M53 602l0 -4M53 602l1 7M54 656l0 -47M54 653l1 2 672 0 0 -177M727 479l13 0M740 655l0 -186M740 655l40 0 0 -177M780 479l13 0M793 655l0 -188M793 655l14 0 0 -177 1 0M808 479l0 -1M808 479l11 0"/>
<path stroke="#A52A2A" d="M819 655l0 -185M819 655l40 0 1 -170 0 -7M860 479l12 0M872 655l0 -188M872 655l14 0 0 -177 1 0M887 479l0 -1M887 479l11 0M898 655l0 -188M898 655l15 0 0 -177M913 479l12 0M925 655l0 -186M925 655l49 0"/>
</svg>
