<?xml version="1.0" standalone="yes"?>
<!DOCTYPE svg PUBLIC "-//W3C//DTD SVG 1.1//EN"
 "http://www.w3.org/Graphics/SVG/1.1/DTD/svg11.dtd">
<svg xmlns="http://www.w3.org/2000/svg" version="1.1"
  width="100%" height="100%" viewBox="0 0 1024 768"
  style="fill: none; font-family: Helvetica;
 font: Helvetica;
">

<!-- Creator: NGspice -->

<rect x="0" y="0" width="1024" height="768" fill="black" stroke="none"/>
<text stroke="none" fill="white" font-size="16" x="358" y="752">
time
</text>
<text stroke="none" fill="white" font-size="16" x="10" y="16">
tran1: run23_vin0.152272
</text>
<path stroke="white" d="M50 704l0 -637"/>
<text stroke="none" fill="white" font-size="16" x="35" y="728">
0.0
</text>
<path stroke="white" stroke-dasharray="1,2" d="M182 704l0 -637"/>
<text stroke="none" fill="white" font-size="16" x="157" y="728">
100.0
</text>
<path stroke="white" stroke-dasharray="1,2" d="M314 704l0 -637"/>
<text stroke="none" fill="white" font-size="16" x="289" y="728">
200.0
</text>
<path stroke="white" stroke-dasharray="1,2" d="M446 704l0 -637"/>
<text stroke="none" fill="white" font-size="16" x="421" y="728">
300.0
</text>
<path stroke="white" stroke-dasharray="1,2" d="M578 704l0 -637"/>
<text stroke="none" fill="white" font-size="16" x="553" y="728">
400.0
</text>
<path stroke="white" stroke-dasharray="1,2" d="M710 704l0 -637"/>
<text stroke="none" fill="white" font-size="16" x="685" y="728">
500.0
</text>
<path stroke="white" stroke-dasharray="1,2" d="M842 704l0 -637"/>
<text stroke="none" fill="white" font-size="16" x="817" y="728">
600.0
</text>
<path stroke="white" stroke-dasharray="1,2" d="M974 704l0 -637"/>
<text stroke="none" fill="white" font-size="16" x="949" y="728">
700.0
</text>
<text stroke="none" fill="white" font-size="16" x="614" y="752">
ns
</text>
<path stroke="white" stroke-dasharray="1,2" d="M50 704l924 0"/>
<text stroke="none" fill="white" font-size="16" x="8" y="712">
-3.0
</text>
<path stroke="white" stroke-dasharray="1,2" d="M50 613l924 0"/>
<text stroke="none" fill="white" font-size="16" x="8" y="621">
-2.0
</text>
<path stroke="white" stroke-dasharray="1,2" d="M50 522l924 0"/>
<text stroke="none" fill="white" font-size="16" x="8" y="530">
-1.0
</text>
<path stroke="white" d="M50 431l924 0"/>
<text stroke="none" fill="white" font-size="16" x="18" y="439">
0.0
</text>
<path stroke="white" stroke-dasharray="1,2" d="M50 340l924 0"/>
<text stroke="none" fill="white" font-size="16" x="18" y="348">
1.0
</text>
<path stroke="white" stroke-dasharray="1,2" d="M50 249l924 0"/>
<text stroke="none" fill="white" font-size="16" x="18" y="257">
2.0
</text>
<path stroke="white" stroke-dasharray="1,2" d="M50 158l924 0"/>
<text stroke="none" fill="white" font-size="16" x="18" y="166">
3.0
</text>
<path stroke="white" stroke-dasharray="1,2" d="M50 67l924 0"/>
<text stroke="none" fill="white" font-size="16" x="18" y="75">
4.0
</text>
<text stroke="none" fill="white" font-size="16" x="10" y="32">
     
</text>
<path stroke="red" d="M462 23l46 0"/>
<text stroke="none" fill="white" font-size="16" x="518" y="32">
x1.vsampled_p
</text>
<path stroke="red" d="M50 431l1 0 1 -7 0 -15 1 -15 0 -4 1 1M54 415l0 -39 1 -5 0 -14 1 -3 0 -2 1 -2 2 0 1 -1 4 0M64 350l0 -1M64 350l4 0 1 -1 48 0 1 -5 0 -6 3 -3 418 0 1 1 0 -1 1 0M541 336l0 -1M541 336l5 0 0 -1M546 336l8 0 0 -1 12 0 1 1 0 -1M567 336l13 0"/>
<path stroke="red" d="M580 336l0 -1 13 0M593 336l0 -1M593 336l7 0M600 350l0 -15M600 350l1 3M601 359l0 -6M601 358l2 -2 22 0 0 -11 1 -1 0 -6 20 0M646 339l0 -1 7 0M653 348l0 -10M653 348l1 1 1 0 0 -1 17 0M672 349l0 -1 27 0M699 349l0 -1 26 0M725 349l0 -1"/>
<path stroke="red" d="M725 348l26 0M751 349l0 -1 27 0M778 349l0 -1 7 0M785 349l0 -1M785 349l27 0M812 350l0 -1M812 350l1 0 0 -1 18 0M831 350l0 -1 26 0M857 350l0 -1 26 0M883 350l0 -1 27 0M910 350l0 -1 8 0 0 -3M918 347l1 -1 0 -9 1 -1 0 -1 3 0M923 336l0 -1"/>
<path stroke="red" d="M923 335l13 0M936 336l0 -1M936 336l14 0 0 -1 24 0"/>
<path stroke="blue" d="M50 23l46 0"/>
<text stroke="none" fill="white" font-size="16" x="106" y="32">
x1.vsampled_n
</text>
<path stroke="blue" d="M50 431l1 0 1 -7 0 -15 1 -14 0 -5 1 2M54 415l0 -39 1 -5 0 -14 1 -3 0 -2 1 -2 2 0 1 -1 4 0M64 350l0 -1M64 350l4 0 1 -1 48 0M117 351l0 -2M117 351l1 4M118 360l0 -5M118 360l1 2 1 0M120 363l0 -1M120 363l426 0 0 -24 1 -2 0 -24"/>
<path stroke="blue" d="M547 313l1 -5 0 -3 1 -2 1 -1 4 0 0 -1M554 302l13 0M567 303l0 -1 7 0M574 330l0 -28M574 330l1 8M575 345l0 -7M575 345l1 0 0 -1 1 0 0 -1 3 0 0 -1M580 343l26 0 0 -1 1 0M607 343l0 -1M607 343l26 0 0 -1M633 343l26 0 0 -1M659 343l20 0"/>
<path stroke="blue" d="M679 350l0 -7M679 350l1 0 0 -2 26 0M706 352l0 -4M706 352l1 -1 0 -1 18 0M725 351l0 -1 6 0 0 -3 1 0M732 348l0 -1M732 348l19 0M751 349l0 -1 8 0M759 351l0 -3M759 350l1 -1 18 0M778 350l0 -1 26 0M804 350l0 -1 26 0 1 1 0 -1 87 0"/>
<path stroke="blue" d="M918 359l0 -12M918 359l1 1M919 366l0 -6M919 365l1 -1 0 -1 54 0"/>
<path stroke="#FFA500" d="M462 39l46 0"/>
<text stroke="none" fill="white" font-size="16" x="518" y="48">
x1.vsampled_p-x1.vsampled_n
</text>
<path stroke="#FFA500" d="M50 431l67 0 0 -2 1 -9 0 -11 1 -3 1 -2 1 0 1 -1 418 0M540 404l0 -1 1 1 0 -1 5 0M546 427l0 -24M546 427l1 3M547 454l0 -24M547 454l1 5M548 461l0 -2M548 461l1 2M549 464l0 -1M549 464l1 0 1 1 15 0 1 -1M567 465l0 -1M567 465l7 0"/>
<path stroke="#FFA500" d="M574 465l0 -28 1 -8 0 -7 1 0M576 423l0 -1M576 423l1 0 1 1 15 0 0 -1M593 424l7 0M600 438l0 -15M600 438l1 3M601 447l0 -6M601 447l1 -2 1 -1 22 0 0 -10 1 -2 0 -5 1 -1 26 0M653 436l0 -10M653 436l1 2 0 -1 18 0 0 -1 1 0M673 437l0 -1"/>
<path stroke="#FFA500" d="M673 436l1 0M674 437l0 -1M674 437l5 0 0 -7 1 -1M680 431l0 -2M680 431l26 0 0 -3 1 0M707 429l0 -1M707 429l24 0M731 432l0 -3M731 432l1 0 0 -1 27 0 0 -2M759 430l26 0M785 431l0 -1M785 431l1 0 0 -1 26 0M812 431l0 -1M812 431l106 0"/>
<path stroke="#FFA500" d="M918 431l0 -12 1 -3 0 -13 1 -1M920 403l0 -1M920 403l16 0M936 404l0 -1 38 0"/>
<path stroke="green" d="M50 39l46 0"/>
<text stroke="none" fill="white" font-size="16" x="106" y="48">
x1.sw_sample-2
</text>
<path stroke="green" d="M50 613l1 0 1 -9 0 -21 1 -21M53 581l0 -25M53 581l1 29M54 613l0 -3M54 613l63 0M117 620l0 -172M117 449l422 0M539 614l0 -171M539 613l422 0M961 618l0 -170 1 1 12 0"/>
<path stroke="#FFC0C5" d="M462 55l46 0"/>
<text stroke="none" fill="white" font-size="16" x="518" y="64">
x1.comp_out_p+2
</text>
<path stroke="#FFC0C5" d="M50 249l1 0 1 -9 0 -22 1 -18 0 -4M53 198l1 5M54 249l0 -46M54 249l487 0 1 1 0 -166M542 85l13 0M555 250l0 -166M555 249l39 0M594 255l0 -172M594 84l1 1 13 0M608 249l0 -173M608 249l39 0 0 -165M647 85l14 0M661 250l0 -172M661 249l66 0"/>
<path stroke="#FFC0C5" d="M727 249l0 -165M727 85l13 0M740 250l0 -170M740 249l40 0 0 -165M780 85l13 0M793 249l0 -167M793 249l14 0 0 -164 12 0M819 249l0 -174M819 249l15 0 0 -165M834 85l11 0 0 -4 1 153M846 249l0 -15M846 249l91 0 1 -50 0 -115M938 85l13 0"/>
<path stroke="#FFC0C5" d="M951 249l0 -173M951 249l23 0"/>
<path stroke="#A52A2A" d="M50 55l46 0"/>
<text stroke="none" fill="white" font-size="16" x="106" y="64">
x1.comp_out_n-2
</text>
<path stroke="#A52A2A" d="M50 613l1 0 1 -9 0 -22 1 -19M53 564l0 -3M53 564l1 6M54 613l0 -43M54 613l514 0M568 614l0 -167M568 449l13 0 0 -8 1 158M582 613l0 -14M582 613l39 0M621 615l0 -168M621 449l13 0M634 613l0 -172M634 613l39 0M673 617l0 -4M673 617l1 -132"/>
<path stroke="#A52A2A" d="M674 485l0 -38M674 449l13 0M687 613l0 -174M687 613l13 0 0 -149 1 -15 0 -1M701 449l12 0 0 -8 1 158M714 613l0 -14M714 613l39 0 0 -152 1 -13M754 449l0 -1M754 449l12 0M766 614l0 -174M766 613l94 0 0 -164 12 0M872 613l0 -174"/>
<path stroke="#A52A2A" d="M872 613l14 0 1 -151 0 -14M887 449l11 0M898 613l0 -174M898 613l15 0 0 -165M913 449l12 0M925 613l0 -173M925 613l49 0"/>
</svg>
