<?xml version="1.0" standalone="yes"?>
<!DOCTYPE svg PUBLIC "-//W3C//DTD SVG 1.1//EN"
 "http://www.w3.org/Graphics/SVG/1.1/DTD/svg11.dtd">
<svg xmlns="http://www.w3.org/2000/svg" version="1.1"
  width="100%" height="100%" viewBox="0 0 1024 768"
  style="fill: none; font-family: Helvetica;
 font: Helvetica;
">

<!-- Creator: NGspice -->

<rect x="0" y="0" width="1024" height="768" fill="black" stroke="none"/>
<text stroke="none" fill="white" font-size="16" x="358" y="752">
time
</text>
<text stroke="none" fill="white" font-size="16" x="10" y="16">
tran1: run20_vin-0.00162018
</text>
<path stroke="white" d="M50 704l0 -637"/>
<text stroke="none" fill="white" font-size="16" x="35" y="728">
0.0
</text>
<path stroke="white" stroke-dasharray="1,2" d="M182 704l0 -637"/>
<text stroke="none" fill="white" font-size="16" x="157" y="728">
100.0
</text>
<path stroke="white" stroke-dasharray="1,2" d="M314 704l0 -637"/>
<text stroke="none" fill="white" font-size="16" x="289" y="728">
200.0
</text>
<path stroke="white" stroke-dasharray="1,2" d="M446 704l0 -637"/>
<text stroke="none" fill="white" font-size="16" x="421" y="728">
300.0
</text>
<path stroke="white" stroke-dasharray="1,2" d="M578 704l0 -637"/>
<text stroke="none" fill="white" font-size="16" x="553" y="728">
400.0
</text>
<path stroke="white" stroke-dasharray="1,2" d="M710 704l0 -637"/>
<text stroke="none" fill="white" font-size="16" x="685" y="728">
500.0
</text>
<path stroke="white" stroke-dasharray="1,2" d="M842 704l0 -637"/>
<text stroke="none" fill="white" font-size="16" x="817" y="728">
600.0
</text>
<path stroke="white" stroke-dasharray="1,2" d="M974 704l0 -637"/>
<text stroke="none" fill="white" font-size="16" x="949" y="728">
700.0
</text>
<text stroke="none" fill="white" font-size="16" x="614" y="752">
ns
</text>
<path stroke="white" stroke-dasharray="1,2" d="M50 704l924 0"/>
<text stroke="none" fill="white" font-size="16" x="8" y="712">
-3.0
</text>
<path stroke="white" stroke-dasharray="1,2" d="M50 613l924 0"/>
<text stroke="none" fill="white" font-size="16" x="8" y="621">
-2.0
</text>
<path stroke="white" stroke-dasharray="1,2" d="M50 522l924 0"/>
<text stroke="none" fill="white" font-size="16" x="8" y="530">
-1.0
</text>
<path stroke="white" d="M50 431l924 0"/>
<text stroke="none" fill="white" font-size="16" x="18" y="439">
0.0
</text>
<path stroke="white" stroke-dasharray="1,2" d="M50 340l924 0"/>
<text stroke="none" fill="white" font-size="16" x="18" y="348">
1.0
</text>
<path stroke="white" stroke-dasharray="1,2" d="M50 249l924 0"/>
<text stroke="none" fill="white" font-size="16" x="18" y="257">
2.0
</text>
<path stroke="white" stroke-dasharray="1,2" d="M50 158l924 0"/>
<text stroke="none" fill="white" font-size="16" x="18" y="166">
3.0
</text>
<path stroke="white" stroke-dasharray="1,2" d="M50 67l924 0"/>
<text stroke="none" fill="white" font-size="16" x="18" y="75">
4.0
</text>
<text stroke="none" fill="white" font-size="16" x="10" y="32">
     
</text>
<path stroke="red" d="M462 23l46 0"/>
<text stroke="none" fill="white" font-size="16" x="518" y="32">
x1.vsampled_p
</text>
<path stroke="red" d="M50 431l1 0 1 -7 0 -15 1 -14 0 -5 1 1M54 415l0 -39 1 -5 0 -15 1 -3 0 -2 1 -1 2 0 1 -1 4 0M64 350l0 -1M64 350l4 0 1 -1 471 0M540 350l0 -1 8 0M548 350l0 -39 1 -8 0 -7 1 -3 0 -3 2 -2 2 0 0 -1M554 288l12 0 1 1M567 290l0 -2 7 0"/>
<path stroke="red" d="M574 318l0 -30M574 318l1 8M575 331l0 -5M575 331l1 0 1 -1 0 -1 16 0M593 330l0 -1 7 0M600 344l0 -15M600 344l1 2M601 353l0 -7M601 352l1 -1 0 -1 1 0 1 -1 15 0M619 350l0 -1M619 350l1 0 0 -1 7 0 0 -13 1 -1 0 -3 1 -1 1 0 1 1 2 0"/>
<path stroke="red" d="M633 332l0 -1 1 0M634 332l0 -1M634 332l12 0 0 -1M646 332l7 0M653 341l0 -9M653 341l1 2 1 -1 4 0 0 -1M659 342l20 0M679 347l0 -5M679 347l1 1M680 349l0 -2 26 0M706 350l0 -3M706 350l1 0 1 -1 17 0M725 350l0 -1 7 0M732 350l0 -3"/>
<path stroke="red" d="M732 347l1 0 0 -1M733 347l18 0M751 348l0 -1 8 0M759 350l0 -3M759 349l6 0 0 -1 13 0M778 349l0 -1M778 349l7 0 0 -1 1 1M786 350l0 -1 27 0M813 350l0 -1M813 350l1 -1 16 0 1 1 0 -1 87 0M918 350l0 -1M918 350l1 0 0 -1 17 0M936 350l0 -1"/>
<path stroke="red" d="M936 349l38 0"/>
<path stroke="blue" d="M50 23l46 0"/>
<text stroke="none" fill="white" font-size="16" x="106" y="32">
x1.vsampled_n
</text>
<path stroke="blue" d="M50 431l1 0 1 -7 0 -15 1 -14 0 -5 1 1M54 415l0 -39 1 -5 0 -15 1 -3 0 -2 1 -1 2 0 1 -1 4 0M64 350l0 -1M64 350l4 0 1 -1 471 0M540 350l0 -1 27 0M567 350l0 -1 26 0M593 350l0 -1 26 0M619 350l0 -1 27 0M646 350l0 -1 53 0M699 350l0 -1"/>
<path stroke="blue" d="M699 349l26 0M725 350l0 -1 26 0M751 350l0 -1 27 0M778 350l0 -1 26 0M804 350l0 -1 27 0M831 350l0 -1 26 0M857 350l0 -1 26 0M883 350l0 -1 27 0M910 350l0 -1 26 0M936 350l0 -1 38 0"/>
<path stroke="#FFA500" d="M462 39l46 0"/>
<text stroke="none" fill="white" font-size="16" x="518" y="48">
x1.vsampled_p-x1.vsampled_n
</text>
<path stroke="#FFA500" d="M50 431l498 0M548 432l0 -39 1 -8 0 -7 1 -4 0 -3 1 0 0 -1 3 0 0 -1M554 370l13 0M567 372l0 -2 7 0M574 400l0 -30M574 400l1 7M575 413l0 -6M575 413l1 0 1 -1 0 -1 23 0M600 425l0 -14M600 425l1 3M601 435l0 -7M601 433l1 0 0 -1"/>
<path stroke="#FFA500" d="M602 432l1 0 0 -1 24 0 0 -13 1 -1 0 -4 18 0M646 414l0 -1 7 0M653 423l0 -10M653 423l1 2 0 -1 5 0 0 -1M659 424l13 0 0 -1M672 424l7 0M679 429l0 -5M679 429l1 1M680 431l0 -2 26 0M706 432l0 -3M706 432l1 0 0 -1 25 0 0 -2 1 -1"/>
<path stroke="#FFA500" d="M733 429l0 -1M733 429l26 0M759 431l0 -2M759 430l26 0 1 1M786 432l0 -1 27 0M813 432l0 -1 105 0M918 432l0 -1 56 0"/>
<path stroke="green" d="M50 39l46 0"/>
<text stroke="none" fill="white" font-size="16" x="106" y="48">
x1.sw_sample-2
</text>
<path stroke="green" d="M50 613l1 0 1 -9 0 -21 1 -21M53 582l0 -26M53 582l1 28M54 613l0 -3M54 613l63 0M117 620l0 -172M117 449l422 0M539 614l0 -171M539 613l422 0M961 618l0 -170 1 1 12 0"/>
<path stroke="#FFC0C5" d="M462 55l46 0"/>
<text stroke="none" fill="white" font-size="16" x="518" y="64">
x1.comp_out_p+2
</text>
<path stroke="#FFC0C5" d="M50 249l1 0 1 -9 0 -22 1 -18 0 -4M53 198l1 5M54 249l0 -46M54 249l514 0M568 255l0 -172M568 85l13 0 0 -8 1 153M582 249l0 -19M582 249l12 0M594 254l0 -171M594 85l14 0M608 249l0 -172M608 249l39 0M647 252l0 -168M647 85l14 0"/>
<path stroke="#FFC0C5" d="M661 249l0 -172M661 249l12 0M673 252l0 -3M673 252l1 -107 0 -62M674 85l13 0M687 249l0 -171M687 249l13 0 0 -165M700 85l13 0 0 -10 1 152M714 249l0 -22M714 249l39 0 0 -165M753 85l13 0M766 249l0 -172M766 249l14 0 0 -165M780 85l13 0"/>
<path stroke="#FFC0C5" d="M793 249l0 -170M793 249l14 0 1 -148 0 -17M808 85l11 0M819 249l0 -174M819 249l42 0 0 -164 1 -1M862 85l0 -1M862 85l10 0M872 249l0 -168M872 249l14 0 1 -151 0 -14M887 85l11 0M898 249l0 -169M898 249l15 0 0 -164 1 -1M914 85l0 -1"/>
<path stroke="#FFC0C5" d="M914 85l11 0M925 249l0 -174M925 249l49 0"/>
<path stroke="#A52A2A" d="M50 55l46 0"/>
<text stroke="none" fill="white" font-size="16" x="106" y="64">
x1.comp_out_n-2
</text>
<path stroke="#A52A2A" d="M50 613l1 0 1 -9 0 -22 1 -19M53 564l0 -3M53 564l1 6M54 613l0 -43M54 613l489 0 0 -147 1 -17 0 -1M544 449l11 0M555 614l0 -170M555 613l68 0 0 -165M623 449l11 0M634 614l0 -171M634 614l1 -1 93 0 0 -164 12 0M740 614l0 -172"/>
<path stroke="#A52A2A" d="M740 613l93 0 1 -155 0 -9 11 0M845 450l0 -3M845 450l1 152M846 613l0 -11M846 613l93 0 0 -164 12 0M951 613l0 -172M951 613l23 0"/>
</svg>
