<?xml version="1.0" standalone="yes"?>
<!DOCTYPE svg PUBLIC "-//W3C//DTD SVG 1.1//EN"
 "http://www.w3.org/Graphics/SVG/1.1/DTD/svg11.dtd">
<svg xmlns="http://www.w3.org/2000/svg" version="1.1"
  width="100%" height="100%" viewBox="0 0 1024 768"
  style="fill: none; font-family: Helvetica;
 font: Helvetica;
">

<!-- Creator: NGspice -->

<rect x="0" y="0" width="1024" height="768" fill="black" stroke="none"/>
<text stroke="none" fill="white" font-size="16" x="358" y="752">
time
</text>
<text stroke="none" fill="white" font-size="16" x="10" y="16">
tran1: run818_vin-0.180616
</text>
<path stroke="white" d="M50 704l0 -637"/>
<text stroke="none" fill="white" font-size="16" x="35" y="728">
0.0
</text>
<path stroke="white" stroke-dasharray="1,2" d="M182 704l0 -637"/>
<text stroke="none" fill="white" font-size="16" x="157" y="728">
100.0
</text>
<path stroke="white" stroke-dasharray="1,2" d="M314 704l0 -637"/>
<text stroke="none" fill="white" font-size="16" x="289" y="728">
200.0
</text>
<path stroke="white" stroke-dasharray="1,2" d="M446 704l0 -637"/>
<text stroke="none" fill="white" font-size="16" x="421" y="728">
300.0
</text>
<path stroke="white" stroke-dasharray="1,2" d="M578 704l0 -637"/>
<text stroke="none" fill="white" font-size="16" x="553" y="728">
400.0
</text>
<path stroke="white" stroke-dasharray="1,2" d="M710 704l0 -637"/>
<text stroke="none" fill="white" font-size="16" x="685" y="728">
500.0
</text>
<path stroke="white" stroke-dasharray="1,2" d="M842 704l0 -637"/>
<text stroke="none" fill="white" font-size="16" x="817" y="728">
600.0
</text>
<path stroke="white" stroke-dasharray="1,2" d="M974 704l0 -637"/>
<text stroke="none" fill="white" font-size="16" x="949" y="728">
700.0
</text>
<text stroke="none" fill="white" font-size="16" x="614" y="752">
ns
</text>
<path stroke="white" stroke-dasharray="1,2" d="M50 704l924 0"/>
<text stroke="none" fill="white" font-size="16" x="8" y="712">
-3.0
</text>
<path stroke="white" stroke-dasharray="1,2" d="M50 613l924 0"/>
<text stroke="none" fill="white" font-size="16" x="8" y="621">
-2.0
</text>
<path stroke="white" stroke-dasharray="1,2" d="M50 522l924 0"/>
<text stroke="none" fill="white" font-size="16" x="8" y="530">
-1.0
</text>
<path stroke="white" d="M50 431l924 0"/>
<text stroke="none" fill="white" font-size="16" x="18" y="439">
0.0
</text>
<path stroke="white" stroke-dasharray="1,2" d="M50 340l924 0"/>
<text stroke="none" fill="white" font-size="16" x="18" y="348">
1.0
</text>
<path stroke="white" stroke-dasharray="1,2" d="M50 249l924 0"/>
<text stroke="none" fill="white" font-size="16" x="18" y="257">
2.0
</text>
<path stroke="white" stroke-dasharray="1,2" d="M50 158l924 0"/>
<text stroke="none" fill="white" font-size="16" x="18" y="166">
3.0
</text>
<path stroke="white" stroke-dasharray="1,2" d="M50 67l924 0"/>
<text stroke="none" fill="white" font-size="16" x="18" y="75">
4.0
</text>
<text stroke="none" fill="white" font-size="16" x="10" y="32">
     
</text>
<path stroke="red" d="M462 23l46 0"/>
<text stroke="none" fill="white" font-size="16" x="518" y="32">
x1.vsampled_p
</text>
<path stroke="red" d="M50 431l1 0 1 -7 0 -15 1 -14 0 -5 1 2M54 415l0 -39 1 -5 0 -14 1 -3 0 -2 1 -2 2 0 1 -1 4 0M64 350l0 -1M64 350l4 0 1 -1 48 0M117 351l0 -2M117 351l1 5M118 362l0 -6M118 362l1 2 1 1 2 0M122 366l0 -1M122 366l419 0 0 -1M541 366l5 0"/>
<path stroke="red" d="M546 366l0 -31 1 -2 0 -20 1 -4 0 -2 1 -1 0 -1 2 0 0 -1 15 0 1 1M567 306l0 -2 7 0M574 332l0 -28M574 332l1 5M575 347l0 -10M575 347l1 0 0 -1 1 0 1 -1 15 0M593 346l0 -1 26 0M619 346l0 -1 27 0M646 346l0 -1 26 0M672 346l0 -1 7 0"/>
<path stroke="red" d="M679 349l0 -4M679 349l1 1M680 353l0 -3M680 351l1 0 0 -1 17 0 1 1 0 -1 26 0M725 351l0 -1 7 0 0 -3M732 348l19 0M751 349l0 -1 8 0M759 351l0 -3M759 350l1 0 0 -1 18 0M778 350l0 -1 26 0M804 350l0 -1 26 0 1 1 0 -1 87 0M918 362l0 -13"/>
<path stroke="red" d="M918 362l1 1M919 368l0 -5M919 368l1 -1 0 -1 42 0 0 -1 1 0M963 366l0 -1M963 366l11 0"/>
<path stroke="blue" d="M50 23l46 0"/>
<text stroke="none" fill="white" font-size="16" x="106" y="32">
x1.vsampled_n
</text>
<path stroke="blue" d="M50 431l1 0 1 -7 0 -15 1 -15 0 -4 1 1M54 415l0 -39 1 -5 0 -14 1 -3 0 -2 1 -2 2 0 1 -1 4 0M64 350l0 -1M64 350l4 0 1 -1 48 0 1 -5 0 -8 1 -2 1 -1 420 0M540 334l0 -1 14 0 0 -1M554 333l13 0M567 334l0 -1 26 0M593 334l0 -1 7 0"/>
<path stroke="blue" d="M600 351l0 -18M600 351l1 3M601 356l0 -2M601 355l1 -1 1 0 0 -1 16 0M619 354l0 -1M619 354l1 0 0 -1 5 0 0 -9 1 -1 0 -7 1 -1 4 0M631 336l0 -1M631 336l2 0 0 -1 13 0M646 336l0 -1M646 336l7 0M653 345l0 -10M653 345l1 1M654 347l0 -1"/>
<path stroke="blue" d="M654 347l1 -1 4 0 0 -1M659 346l27 0 0 -1M686 346l20 0M706 349l0 -3M706 349l1 -1 18 0M725 349l0 -1 26 0M751 349l0 -1 27 0M778 349l0 -1 7 0M785 349l0 -1M785 349l27 0M812 350l0 -1 19 0M831 350l0 -1 26 0M857 350l0 -1 26 0M883 350l0 -1"/>
<path stroke="blue" d="M883 349l27 0M910 350l0 -1 8 0 0 -6 1 0 0 -9 1 -1 3 0 0 -1M923 333l13 0M936 334l0 -1 38 0"/>
<path stroke="#FFA500" d="M462 39l46 0"/>
<text stroke="none" fill="white" font-size="16" x="518" y="48">
x1.vsampled_p-x1.vsampled_n
</text>
<path stroke="#FFA500" d="M50 431l67 0M117 434l0 -3M117 434l1 10M118 457l0 -13M118 457l1 4 1 1M120 463l0 -1M120 463l1 1 419 0 0 -1M540 464l6 0 0 -31 1 -2 0 -20 1 -4 0 -2 1 -1 0 -1 5 0 0 -1M554 403l1 0 0 -1M555 403l11 0 0 -1M566 403l1 0M567 404l0 -2"/>
<path stroke="#FFA500" d="M567 403l7 0M574 430l0 -27M574 430l1 6M575 445l0 -9M575 445l1 0 0 -1 1 0 1 -1 2 0M580 444l0 -1 13 0M593 444l0 -1 7 0 0 -17 1 -4 0 -2M601 421l1 1M602 423l0 -1M602 423l23 0M625 432l0 -9M625 432l1 2M626 440l0 -6M626 440l1 1"/>
<path stroke="#FFA500" d="M627 441l26 0 0 -10 1 -1 0 -1M654 430l1 0M655 431l0 -1M655 431l24 0M679 435l0 -5M679 435l1 1M680 438l0 -2 26 0 0 -4M706 433l26 0 0 -3M732 431l27 0M759 433l0 -2M759 433l1 -1 25 0 0 -1 1 0M786 432l0 -1M786 432l26 0 0 -1"/>
<path stroke="#FFA500" d="M812 431l106 0M918 449l0 -18M918 449l1 3M919 465l0 -13M919 465l1 0 0 -1 16 0 0 -1M936 464l38 0"/>
<path stroke="green" d="M50 39l46 0"/>
<text stroke="none" fill="white" font-size="16" x="106" y="48">
x1.sw_sample-2
</text>
<path stroke="green" d="M50 613l1 0 1 -9 0 -21 1 -21M53 581l0 -25M53 581l1 29M54 613l0 -3M54 613l63 0M117 620l0 -172M117 449l422 0M539 614l0 -171M539 613l422 0M961 618l0 -170 1 1 12 0"/>
<path stroke="#FFC0C5" d="M462 55l46 0"/>
<text stroke="none" fill="white" font-size="16" x="518" y="64">
x1.comp_out_p+2
</text>
<path stroke="#FFC0C5" d="M50 249l1 0 1 -9 0 -22 1 -18 0 -4M53 198l1 5M54 249l0 -46M54 249l514 0M568 250l0 -167M568 85l13 0 0 -7 1 124M582 250l0 -48M582 249l39 0M621 250l0 -166M621 85l13 0M634 249l0 -167M634 249l40 0 0 -165M674 85l13 0M687 249l0 -172"/>
<path stroke="#FFC0C5" d="M687 249l66 0 1 -147 0 -18M754 85l12 0M766 250l0 -173M766 249l94 0 0 -165 1 1 11 0M872 249l0 -174M872 249l14 0 1 -151 0 -14M887 85l11 0M898 249l0 -174M898 249l15 0 0 -165M913 85l12 0M925 250l0 -172M925 249l49 0"/>
<path stroke="#A52A2A" d="M50 55l46 0"/>
<text stroke="none" fill="white" font-size="16" x="106" y="64">
x1.comp_out_n-2
</text>
<path stroke="#A52A2A" d="M50 613l1 0 1 -9 0 -22 1 -19M53 564l0 -3M53 564l1 6M54 613l0 -43M54 613l488 0 0 -165M542 449l13 0M555 613l0 -171M555 613l39 0M594 619l0 -172M594 448l1 1 13 0M608 613l0 -173M608 613l39 0M647 614l0 -167M647 449l14 0M661 613l0 -173"/>
<path stroke="#A52A2A" d="M661 613l39 0M700 616l0 -169M700 449l13 0 0 -8 1 157M714 613l0 -15M714 613l13 0 0 -165M727 449l13 0M740 613l0 -167M740 613l39 0 1 -85 0 -80M780 449l13 0M793 613l0 -167M793 613l13 0 1 -157 0 -8M807 449l12 0M819 613l0 -174"/>
<path stroke="#A52A2A" d="M819 613l15 0 0 -164 11 0 0 -2M845 449l1 153M846 613l0 -11M846 613l91 0M937 614l0 -1M937 614l1 -92 0 -75M938 449l13 0M951 614l0 -167M951 613l23 0"/>
</svg>
