<?xml version="1.0" standalone="yes"?>
<!DOCTYPE svg PUBLIC "-//W3C//DTD SVG 1.1//EN"
 "http://www.w3.org/Graphics/SVG/1.1/DTD/svg11.dtd">
<svg xmlns="http://www.w3.org/2000/svg" version="1.1"
  width="100%" height="100%" viewBox="0 0 1024 768"
  style="fill: none; font-family: Helvetica;
 font: Helvetica;
">

<!-- Creator: NGspice -->

<rect x="0" y="0" width="1024" height="768" fill="black" stroke="none"/>
<text stroke="none" fill="white" font-size="16" x="358" y="752">
time
</text>
<text stroke="none" fill="white" font-size="16" x="10" y="16">
tran1: run823_vin-0.176222
</text>
<path stroke="white" d="M50 704l0 -637"/>
<text stroke="none" fill="white" font-size="16" x="35" y="728">
0.0
</text>
<path stroke="white" stroke-dasharray="1,2" d="M182 704l0 -637"/>
<text stroke="none" fill="white" font-size="16" x="157" y="728">
100.0
</text>
<path stroke="white" stroke-dasharray="1,2" d="M314 704l0 -637"/>
<text stroke="none" fill="white" font-size="16" x="289" y="728">
200.0
</text>
<path stroke="white" stroke-dasharray="1,2" d="M446 704l0 -637"/>
<text stroke="none" fill="white" font-size="16" x="421" y="728">
300.0
</text>
<path stroke="white" stroke-dasharray="1,2" d="M578 704l0 -637"/>
<text stroke="none" fill="white" font-size="16" x="553" y="728">
400.0
</text>
<path stroke="white" stroke-dasharray="1,2" d="M710 704l0 -637"/>
<text stroke="none" fill="white" font-size="16" x="685" y="728">
500.0
</text>
<path stroke="white" stroke-dasharray="1,2" d="M842 704l0 -637"/>
<text stroke="none" fill="white" font-size="16" x="817" y="728">
600.0
</text>
<path stroke="white" stroke-dasharray="1,2" d="M974 704l0 -637"/>
<text stroke="none" fill="white" font-size="16" x="949" y="728">
700.0
</text>
<text stroke="none" fill="white" font-size="16" x="614" y="752">
ns
</text>
<path stroke="white" stroke-dasharray="1,2" d="M50 704l924 0"/>
<text stroke="none" fill="white" font-size="16" x="8" y="712">
-2.5
</text>
<path stroke="white" stroke-dasharray="1,2" d="M50 655l924 0"/>
<text stroke="none" fill="white" font-size="16" x="8" y="663">
-2.0
</text>
<path stroke="white" stroke-dasharray="1,2" d="M50 606l924 0"/>
<text stroke="none" fill="white" font-size="16" x="8" y="614">
-1.5
</text>
<path stroke="white" stroke-dasharray="1,2" d="M50 557l924 0"/>
<text stroke="none" fill="white" font-size="16" x="8" y="565">
-1.0
</text>
<path stroke="white" stroke-dasharray="1,2" d="M50 508l924 0"/>
<text stroke="none" fill="white" font-size="16" x="8" y="516">
-0.5
</text>
<path stroke="white" d="M50 459l924 0"/>
<text stroke="none" fill="white" font-size="16" x="18" y="467">
0.0
</text>
<path stroke="white" stroke-dasharray="1,2" d="M50 410l924 0"/>
<text stroke="none" fill="white" font-size="16" x="18" y="418">
0.5
</text>
<path stroke="white" stroke-dasharray="1,2" d="M50 361l924 0"/>
<text stroke="none" fill="white" font-size="16" x="18" y="369">
1.0
</text>
<path stroke="white" stroke-dasharray="1,2" d="M50 312l924 0"/>
<text stroke="none" fill="white" font-size="16" x="18" y="320">
1.5
</text>
<path stroke="white" stroke-dasharray="1,2" d="M50 263l924 0"/>
<text stroke="none" fill="white" font-size="16" x="18" y="271">
2.0
</text>
<path stroke="white" stroke-dasharray="1,2" d="M50 214l924 0"/>
<text stroke="none" fill="white" font-size="16" x="18" y="222">
2.5
</text>
<path stroke="white" stroke-dasharray="1,2" d="M50 165l924 0"/>
<text stroke="none" fill="white" font-size="16" x="18" y="173">
3.0
</text>
<path stroke="white" stroke-dasharray="1,2" d="M50 116l924 0"/>
<text stroke="none" fill="white" font-size="16" x="18" y="124">
3.5
</text>
<path stroke="white" stroke-dasharray="1,2" d="M50 67l924 0"/>
<text stroke="none" fill="white" font-size="16" x="18" y="75">
4.0
</text>
<text stroke="none" fill="white" font-size="16" x="10" y="32">
     
</text>
<path stroke="red" d="M462 23l46 0"/>
<text stroke="none" fill="white" font-size="16" x="518" y="32">
x1.vsampled_p
</text>
<path stroke="red" d="M50 459l1 0 1 -7 0 -17 1 -15 0 -5 1 2M54 442l0 -42 1 -6 0 -15 1 -3 0 -2 1 -2 1 0 0 -1 59 0M117 373l0 -2M117 373l1 5M118 385l0 -7M118 385l1 2 1 0M120 388l0 -1M120 388l420 0M540 389l0 -1 6 0 0 -22 1 -3 0 -25 1 -7 0 -4 1 -2"/>
<path stroke="red" d="M549 325l0 -2 1 0 0 -1 16 0 1 1M567 324l0 -2 7 0M574 352l0 -30M574 352l1 6M575 368l0 -10M575 368l1 0 0 -1 2 0 0 -1 15 0M593 367l0 -1 26 0M619 367l0 -1 27 0M646 367l0 -1 26 0M672 367l0 -1 7 0M679 372l0 -6M679 372l1 0M680 374l0 -2"/>
<path stroke="red" d="M680 372l51 0 1 -1 0 -3M732 369l19 0M751 370l0 -1M751 370l1 0 0 -1 7 0M759 372l0 -3M759 371l54 0M813 372l0 -1 25 0 0 -1M838 371l79 0M917 372l0 -1M917 372l1 -1M918 391l0 -22M918 391l1 0 0 -2 1 -1 54 0"/>
<path stroke="blue" d="M50 23l46 0"/>
<text stroke="none" fill="white" font-size="16" x="106" y="32">
x1.vsampled_n
</text>
<path stroke="blue" d="M50 459l1 0 1 -7 0 -17 1 -15 0 -5 1 1M54 441l0 -41 1 -6 0 -15 1 -3 0 -2 1 -2 1 0 0 -1 59 0 0 -1 1 -5 0 -8 1 -2 1 -1 434 0 0 -1M554 354l13 0M567 355l0 -1 13 0 0 -1M580 354l20 0M600 373l0 -19M600 373l1 3M601 379l0 -3M601 378l1 -1"/>
<path stroke="blue" d="M602 377l0 -1 23 0 0 -4 1 -4 0 -11 1 0 0 -1 2 0M629 357l0 -1M629 357l4 0 0 -1 13 0M646 357l0 -1M646 357l7 0M653 365l0 -9M653 365l1 3M654 369l0 -1 5 0 0 -1 13 0M672 368l0 -1M672 368l14 0 0 -1 12 0 1 1 0 -1M699 368l7 0M706 371l0 -3"/>
<path stroke="blue" d="M706 371l1 0 0 -1 18 0M725 371l0 -1 26 0M751 371l0 -1M751 371l1 0 0 -1 26 0M778 371l0 -1 7 0 1 1M786 372l0 -1 131 0 0 -1 1 0 0 -12 1 -2 0 -3 1 0M920 354l0 -1M920 354l3 0 0 -1M923 354l27 0 0 -1M950 354l12 0 0 -1 1 0M963 354l0 -1"/>
<path stroke="blue" d="M963 354l11 0"/>
<path stroke="#FFA500" d="M462 39l46 0"/>
<text stroke="none" fill="white" font-size="16" x="518" y="48">
x1.vsampled_p-x1.vsampled_n
</text>
<path stroke="#FFA500" d="M50 459l67 0M117 462l0 -3M117 462l1 10M118 486l0 -14M118 486l1 4 1 2M120 493l0 -1M120 493l2 0 1 1 416 0 0 -1 1 0M540 494l0 -1 6 0 0 -22 1 -3 0 -25 1 -7 0 -4 1 -2 0 -1 1 -1 1 0 1 -1 14 0 1 1M567 429l0 -2 7 0M574 457l0 -30"/>
<path stroke="#FFA500" d="M574 457l1 6M575 473l0 -10M575 473l1 1 0 -1 1 -1 2 0 0 -1 1 0M580 472l0 -1 13 0M593 472l0 -1 7 0 0 -19 1 -3 0 -3M601 448l1 0M602 449l0 -1M602 449l1 0 1 1 2 0 0 -1 13 0M619 450l0 -1 1 0M620 450l0 -1M620 450l5 0M625 453l0 -4"/>
<path stroke="#FFA500" d="M625 453l1 4M626 468l0 -11M626 468l1 1 26 0 0 -9 1 -2 0 -2M654 457l1 0M655 458l0 -1M655 458l24 0M679 463l0 -5M679 463l1 1M680 466l0 -2 1 -1 25 0 0 -3 19 0M725 461l0 -1 7 0 0 -3M732 458l27 0M759 461l0 -3M759 460l1 0 0 -1"/>
<path stroke="#FFA500" d="M760 459l18 0M778 460l0 -1 8 0 0 -1M786 459l27 0M813 460l0 -1 25 0 0 -1M838 459l79 0M917 461l0 -2M917 461l1 -1M918 492l0 -32M918 492l1 2M919 495l0 -1 3 0 0 -1 1 0M923 494l0 -1M923 494l13 0 0 -1 14 0M950 494l0 -1M950 494l12 0"/>
<path stroke="#FFA500" d="M962 494l0 -1M962 494l12 0"/>
<path stroke="green" d="M50 39l46 0"/>
<text stroke="none" fill="white" font-size="16" x="106" y="48">
x1.sw_sample-2
</text>
<path stroke="green" d="M50 655l1 0 1 -10 0 -23 1 -21M53 621l0 -27M53 621l1 31M54 655l0 -3M54 655l63 0M117 662l0 -184 1 0M118 479l0 -1M118 479l421 0M539 656l0 -184M539 655l422 0M961 660l0 -182 1 0M962 479l0 -1 1 1 11 0"/>
<path stroke="#FFC0C5" d="M462 55l46 0"/>
<text stroke="none" fill="white" font-size="16" x="518" y="64">
x1.comp_out_p+2
</text>
<path stroke="#FFC0C5" d="M50 263l1 0 1 -10 0 -23 1 -20 0 -4M53 209l1 4M54 263l0 -50M54 263l514 0M568 264l0 -179M568 87l13 0 0 -9 1 167M582 263l0 -18M582 263l39 0M621 264l0 -179M621 87l13 0M634 263l0 -186M634 263l40 0 0 -178M674 87l13 0M687 264l0 -187"/>
<path stroke="#FFC0C5" d="M687 263l66 0 0 -178M753 86l1 1 12 0M766 263l0 -179M766 263l41 0 0 -177 1 0M808 87l0 -1M808 87l11 0M819 263l0 -184M819 263l41 0 0 -177M860 87l12 0M872 264l0 -182M872 263l14 0 0 -169 1 -9M887 87l0 -2M887 87l11 0M898 264l0 -182"/>
<path stroke="#FFC0C5" d="M898 263l14 0 1 -169 0 -9M913 87l12 0M925 263l0 -185M925 263l49 0"/>
<path stroke="#A52A2A" d="M50 55l46 0"/>
<text stroke="none" fill="white" font-size="16" x="106" y="64">
x1.comp_out_n-2
</text>
<path stroke="#A52A2A" d="M50 655l1 0 1 -10 0 -24 1 -20M53 602l0 -3M53 602l1 7M54 655l0 -46M54 655l488 0 0 -178M542 479l13 0M555 655l0 -179M555 655l39 0M594 656l0 -180M594 478l1 1 13 0M608 656l0 -187M608 655l13 0M621 656l0 -1 26 0 0 -178M647 479l14 0"/>
<path stroke="#A52A2A" d="M661 655l0 -184M661 655l39 0 0 -178M700 479l13 0 1 -10M714 656l0 -187M714 655l13 0 0 -177 1 1 12 0M740 655l0 -184M740 655l40 0 0 -178 1 1M781 479l0 -1M781 479l12 0M793 655l0 -187M793 655l41 0 0 -177M834 479l11 0 0 -11"/>
<path stroke="#A52A2A" d="M845 468l1 163M846 655l0 -24M846 655l91 0M937 657l0 -2M937 657l1 -126 0 -55M938 479l13 0M951 656l0 -179M951 655l23 0"/>
</svg>
