<?xml version="1.0" standalone="yes"?>
<!DOCTYPE svg PUBLIC "-//W3C//DTD SVG 1.1//EN"
 "http://www.w3.org/Graphics/SVG/1.1/DTD/svg11.dtd">
<svg xmlns="http://www.w3.org/2000/svg" version="1.1"
  width="100%" height="100%" viewBox="0 0 1024 768"
  style="fill: none; font-family: Helvetica;
 font: Helvetica;
">

<!-- Creator: NGspice -->

<rect x="0" y="0" width="1024" height="768" fill="black" stroke="none"/>
<text stroke="none" fill="white" font-size="16" x="358" y="752">
time
</text>
<text stroke="none" fill="white" font-size="16" x="10" y="16">
tran1: run817_vin-0.181495
</text>
<path stroke="white" d="M50 704l0 -637"/>
<text stroke="none" fill="white" font-size="16" x="35" y="728">
0.0
</text>
<path stroke="white" stroke-dasharray="1,2" d="M182 704l0 -637"/>
<text stroke="none" fill="white" font-size="16" x="157" y="728">
100.0
</text>
<path stroke="white" stroke-dasharray="1,2" d="M314 704l0 -637"/>
<text stroke="none" fill="white" font-size="16" x="289" y="728">
200.0
</text>
<path stroke="white" stroke-dasharray="1,2" d="M446 704l0 -637"/>
<text stroke="none" fill="white" font-size="16" x="421" y="728">
300.0
</text>
<path stroke="white" stroke-dasharray="1,2" d="M578 704l0 -637"/>
<text stroke="none" fill="white" font-size="16" x="553" y="728">
400.0
</text>
<path stroke="white" stroke-dasharray="1,2" d="M710 704l0 -637"/>
<text stroke="none" fill="white" font-size="16" x="685" y="728">
500.0
</text>
<path stroke="white" stroke-dasharray="1,2" d="M842 704l0 -637"/>
<text stroke="none" fill="white" font-size="16" x="817" y="728">
600.0
</text>
<path stroke="white" stroke-dasharray="1,2" d="M974 704l0 -637"/>
<text stroke="none" fill="white" font-size="16" x="949" y="728">
700.0
</text>
<text stroke="none" fill="white" font-size="16" x="614" y="752">
ns
</text>
<path stroke="white" stroke-dasharray="1,2" d="M50 704l924 0"/>
<text stroke="none" fill="white" font-size="16" x="8" y="712">
-2.5
</text>
<path stroke="white" stroke-dasharray="1,2" d="M50 655l924 0"/>
<text stroke="none" fill="white" font-size="16" x="8" y="663">
-2.0
</text>
<path stroke="white" stroke-dasharray="1,2" d="M50 606l924 0"/>
<text stroke="none" fill="white" font-size="16" x="8" y="614">
-1.5
</text>
<path stroke="white" stroke-dasharray="1,2" d="M50 557l924 0"/>
<text stroke="none" fill="white" font-size="16" x="8" y="565">
-1.0
</text>
<path stroke="white" stroke-dasharray="1,2" d="M50 508l924 0"/>
<text stroke="none" fill="white" font-size="16" x="8" y="516">
-0.5
</text>
<path stroke="white" d="M50 459l924 0"/>
<text stroke="none" fill="white" font-size="16" x="18" y="467">
0.0
</text>
<path stroke="white" stroke-dasharray="1,2" d="M50 410l924 0"/>
<text stroke="none" fill="white" font-size="16" x="18" y="418">
0.5
</text>
<path stroke="white" stroke-dasharray="1,2" d="M50 361l924 0"/>
<text stroke="none" fill="white" font-size="16" x="18" y="369">
1.0
</text>
<path stroke="white" stroke-dasharray="1,2" d="M50 312l924 0"/>
<text stroke="none" fill="white" font-size="16" x="18" y="320">
1.5
</text>
<path stroke="white" stroke-dasharray="1,2" d="M50 263l924 0"/>
<text stroke="none" fill="white" font-size="16" x="18" y="271">
2.0
</text>
<path stroke="white" stroke-dasharray="1,2" d="M50 214l924 0"/>
<text stroke="none" fill="white" font-size="16" x="18" y="222">
2.5
</text>
<path stroke="white" stroke-dasharray="1,2" d="M50 165l924 0"/>
<text stroke="none" fill="white" font-size="16" x="18" y="173">
3.0
</text>
<path stroke="white" stroke-dasharray="1,2" d="M50 116l924 0"/>
<text stroke="none" fill="white" font-size="16" x="18" y="124">
3.5
</text>
<path stroke="white" stroke-dasharray="1,2" d="M50 67l924 0"/>
<text stroke="none" fill="white" font-size="16" x="18" y="75">
4.0
</text>
<text stroke="none" fill="white" font-size="16" x="10" y="32">
     
</text>
<path stroke="red" d="M462 23l46 0"/>
<text stroke="none" fill="white" font-size="16" x="518" y="32">
x1.vsampled_p
</text>
<path stroke="red" d="M50 459l1 0 1 -7 0 -17 1 -15 0 -5 1 2M54 442l0 -42 1 -6 0 -15 1 -3 0 -2 1 -2 1 0 0 -1 59 0M117 373l0 -2M117 373l1 6M118 385l0 -6M118 385l1 2 1 1 1 0 1 1 424 0 0 -23 1 -3 0 -25 1 -7 0 -4 1 -2 0 -1 1 -1 4 0 0 -1M554 323l13 0"/>
<path stroke="red" d="M567 324l0 -1 7 0M574 353l0 -30M574 353l1 5M575 369l0 -11M575 369l1 0 0 -1 1 -1 3 0 0 -1M580 367l26 0 0 -1M606 367l27 0 0 -1M633 367l26 0 0 -1M659 367l20 0M679 372l0 -5M679 372l1 1M680 375l0 -2 1 -1 18 0M699 373l0 -1 26 0"/>
<path stroke="red" d="M725 373l0 -1 6 0 0 -3 1 0M732 370l0 -1M732 370l27 0M759 373l0 -3M759 372l1 -1 18 0M778 372l0 -1 26 0M804 372l0 -1 27 0M831 372l0 -1 7 0 0 -1M838 371l80 0M918 382l0 -12M918 382l1 1M919 392l0 -9M919 391l1 -1 0 -1 54 0"/>
<path stroke="blue" d="M50 23l46 0"/>
<text stroke="none" fill="white" font-size="16" x="106" y="32">
x1.vsampled_n
</text>
<path stroke="blue" d="M50 459l1 0 1 -7 0 -17 1 -15 0 -5 1 1M54 441l0 -41 1 -6 0 -15 1 -3 0 -2 1 -2 1 0 0 -1 59 0 0 -1 1 -5 0 -8 1 -2 1 -1 0 -1 420 0M540 354l0 -1 27 0M567 354l0 -1 26 0M593 354l0 -1 7 0M600 373l0 -20M600 373l1 3M601 378l0 -2"/>
<path stroke="blue" d="M601 377l2 -2 16 0M619 376l0 -1 6 0 0 -6 1 -3 0 -9 1 -1 19 0M646 357l0 -1 7 0M653 365l0 -9M653 365l1 2M654 368l0 -1M654 368l1 0 0 -1 51 0M706 371l0 -4M706 370l79 0M785 371l0 -1M785 371l1 0 0 -1 18 0M804 371l0 -1 8 0M812 371l0 -1"/>
<path stroke="blue" d="M812 371l106 0 0 -6 1 0 0 -10 1 -1 0 -1 16 0M936 354l0 -1 38 0"/>
<path stroke="#FFA500" d="M462 39l46 0"/>
<text stroke="none" fill="white" font-size="16" x="518" y="48">
x1.vsampled_p-x1.vsampled_n
</text>
<path stroke="#FFA500" d="M50 459l67 0M117 462l0 -3M117 462l1 11M118 487l0 -14M118 487l1 4 1 2M120 494l0 -1M120 494l2 0M122 495l0 -1M122 495l417 0 0 -1 1 0M540 495l0 -1 6 0 0 -22 1 -3 0 -25 1 -7 0 -4 1 -3 0 -1 5 0 0 -1 12 0M566 429l0 -1M566 429l1 0"/>
<path stroke="#FFA500" d="M567 430l0 -2M567 429l7 0M574 458l0 -29M574 458l1 6M575 474l0 -10M575 474l1 1 0 -1 1 -1 2 0 0 -1 1 0M580 473l0 -1M580 473l13 0 0 -1 7 0M600 473l0 -20 1 -3 0 -3M601 449l1 1 1 0 1 1 2 0 0 -1 1 0M607 451l0 -1M607 451l12 0"/>
<path stroke="#FFA500" d="M619 451l0 -1 1 0M620 451l0 -1M620 451l5 0M625 456l0 -5M625 456l1 4M626 469l0 -9M626 469l1 1 26 0 0 -9 1 -3 0 -1M654 458l1 0M655 459l0 -1M655 459l24 0M679 464l0 -5M679 464l1 1M680 467l0 -2 1 -1 25 0 0 -3 3 0M709 462l0 -1"/>
<path stroke="#FFA500" d="M709 462l16 0 0 -1 1 0M726 462l0 -1M726 462l5 0 0 -4 1 0M732 459l0 -1M732 459l27 0M759 462l0 -3M759 461l1 0 1 -1 17 0M778 461l0 -1 7 0 0 -1M785 460l27 0 0 -1 19 0M831 460l0 -1 87 0M918 476l0 -17M918 476l1 2M919 496l0 -18"/>
<path stroke="#FFA500" d="M919 496l1 0 0 -1 3 0 0 -1M923 495l13 0 0 -1 14 0M950 495l0 -1M950 495l24 0"/>
<path stroke="green" d="M50 39l46 0"/>
<text stroke="none" fill="white" font-size="16" x="106" y="48">
x1.sw_sample-2
</text>
<path stroke="green" d="M50 655l1 0 1 -10 0 -23 1 -21M53 621l0 -27M53 621l1 31M54 655l0 -3M54 655l63 0M117 662l0 -184 1 0M118 479l0 -1M118 479l421 0M539 656l0 -184M539 655l422 0M961 660l0 -182 1 0M962 479l0 -1 1 1 11 0"/>
<path stroke="#FFC0C5" d="M462 55l46 0"/>
<text stroke="none" fill="white" font-size="16" x="518" y="64">
x1.comp_out_p+2
</text>
<path stroke="#FFC0C5" d="M50 263l1 0 1 -10 0 -23 1 -20 0 -4M53 209l1 4M54 263l0 -50M54 263l514 0M568 264l0 -179M568 87l13 0 1 -8M582 264l0 -185M582 263l39 0M621 264l0 -179M621 87l13 0M634 264l0 -182M634 263l40 0 0 -178M674 87l13 0M687 263l0 -184"/>
<path stroke="#FFC0C5" d="M687 263l66 0 1 -164 0 -13M754 87l12 0M766 263l0 -186M766 263l208 0"/>
<path stroke="#A52A2A" d="M50 55l46 0"/>
<text stroke="none" fill="white" font-size="16" x="106" y="64">
x1.comp_out_n-2
</text>
<path stroke="#A52A2A" d="M50 655l1 0 1 -10 0 -24 1 -20M53 602l0 -3M53 602l1 7M54 655l0 -46M54 655l488 0 0 -178M542 479l13 0M555 656l0 -184M555 655l39 0M594 657l0 -181M594 477l1 1M595 479l0 -1M595 479l13 0M608 655l0 -184M608 655l13 0M621 656l0 -1"/>
<path stroke="#A52A2A" d="M621 655l26 0 0 -178M647 479l14 0M661 655l0 -186M661 655l39 0M700 659l0 -183M700 479l13 0 0 -9 1 167M714 655l0 -18M714 655l13 0 0 -177M727 479l13 0M740 656l0 -184M740 655l40 0 0 -177M780 479l13 0M793 655l0 -184M793 655l13 0"/>
<path stroke="#A52A2A" d="M806 655l1 -165 0 -12M807 479l12 0M819 655l0 -187M819 655l14 0 1 -170 0 -7M834 479l11 0 0 -11 1 169M846 655l0 -18M846 655l14 0 0 -177M860 479l12 0M872 655l0 -187M872 655l14 0 0 -170 1 -7M887 479l0 -1M887 479l11 0M898 655l0 -187"/>
<path stroke="#A52A2A" d="M898 655l15 0 0 -177M913 479l12 0M925 655l0 -186M925 655l12 0M937 657l0 -2M937 657l1 -120 0 -61M938 479l13 0M951 656l0 -179M951 655l23 0"/>
</svg>
