<?xml version="1.0" standalone="yes"?>
<!DOCTYPE svg PUBLIC "-//W3C//DTD SVG 1.1//EN"
 "http://www.w3.org/Graphics/SVG/1.1/DTD/svg11.dtd">
<svg xmlns="http://www.w3.org/2000/svg" version="1.1"
  width="100%" height="100%" viewBox="0 0 1024 768"
  style="fill: none; font-family: Helvetica;
 font: Helvetica;
">

<!-- Creator: NGspice -->

<rect x="0" y="0" width="1024" height="768" fill="black" stroke="none"/>
<text stroke="none" fill="white" font-size="16" x="358" y="752">
time
</text>
<text stroke="none" fill="white" font-size="16" x="10" y="16">
tran1: run55_vin-0.734915
</text>
<path stroke="white" d="M50 704l0 -637"/>
<text stroke="none" fill="white" font-size="16" x="35" y="728">
0.0
</text>
<path stroke="white" stroke-dasharray="1,2" d="M182 704l0 -637"/>
<text stroke="none" fill="white" font-size="16" x="157" y="728">
100.0
</text>
<path stroke="white" stroke-dasharray="1,2" d="M314 704l0 -637"/>
<text stroke="none" fill="white" font-size="16" x="289" y="728">
200.0
</text>
<path stroke="white" stroke-dasharray="1,2" d="M446 704l0 -637"/>
<text stroke="none" fill="white" font-size="16" x="421" y="728">
300.0
</text>
<path stroke="white" stroke-dasharray="1,2" d="M578 704l0 -637"/>
<text stroke="none" fill="white" font-size="16" x="553" y="728">
400.0
</text>
<path stroke="white" stroke-dasharray="1,2" d="M710 704l0 -637"/>
<text stroke="none" fill="white" font-size="16" x="685" y="728">
500.0
</text>
<path stroke="white" stroke-dasharray="1,2" d="M842 704l0 -637"/>
<text stroke="none" fill="white" font-size="16" x="817" y="728">
600.0
</text>
<path stroke="white" stroke-dasharray="1,2" d="M974 704l0 -637"/>
<text stroke="none" fill="white" font-size="16" x="949" y="728">
700.0
</text>
<text stroke="none" fill="white" font-size="16" x="614" y="752">
ns
</text>
<path stroke="white" stroke-dasharray="1,2" d="M50 704l924 0"/>
<text stroke="none" fill="white" font-size="16" x="8" y="712">
-3.0
</text>
<path stroke="white" stroke-dasharray="1,2" d="M50 613l924 0"/>
<text stroke="none" fill="white" font-size="16" x="8" y="621">
-2.0
</text>
<path stroke="white" stroke-dasharray="1,2" d="M50 522l924 0"/>
<text stroke="none" fill="white" font-size="16" x="8" y="530">
-1.0
</text>
<path stroke="white" d="M50 431l924 0"/>
<text stroke="none" fill="white" font-size="16" x="18" y="439">
0.0
</text>
<path stroke="white" stroke-dasharray="1,2" d="M50 340l924 0"/>
<text stroke="none" fill="white" font-size="16" x="18" y="348">
1.0
</text>
<path stroke="white" stroke-dasharray="1,2" d="M50 249l924 0"/>
<text stroke="none" fill="white" font-size="16" x="18" y="257">
2.0
</text>
<path stroke="white" stroke-dasharray="1,2" d="M50 158l924 0"/>
<text stroke="none" fill="white" font-size="16" x="18" y="166">
3.0
</text>
<path stroke="white" stroke-dasharray="1,2" d="M50 67l924 0"/>
<text stroke="none" fill="white" font-size="16" x="18" y="75">
4.0
</text>
<text stroke="none" fill="white" font-size="16" x="10" y="32">
     
</text>
<path stroke="red" d="M462 23l46 0"/>
<text stroke="none" fill="white" font-size="16" x="518" y="32">
x1.vsampled_p
</text>
<path stroke="red" d="M50 431l1 0 1 -7 0 -15 1 -14 0 -5 1 2M54 414l0 -38 1 -4 0 -14 1 -3 0 -2 1 -2 0 -1 2 0 1 -1 3 0 1 1 4 0 1 -1 48 0M117 368l0 -19M117 368l1 16M118 405l0 -21M118 405l1 2M119 412l0 -5M119 412l1 2M120 415l0 -1M120 415l1 0 1 1"/>
<path stroke="red" d="M122 416l424 0 0 -27 1 -4 0 -20 1 -6 1 -3 0 -1 5 0 0 -1M554 355l26 0 0 -1M580 355l45 0 0 -15 1 0 0 -4 1 0 1 1 5 0 0 -1M633 337l13 0M646 338l0 -1 7 0M653 347l0 -10M653 347l1 2M654 350l0 -1 1 -1 0 -1 17 0M672 348l0 -1 27 0"/>
<path stroke="red" d="M699 348l0 -1 7 0M706 351l0 -4M706 351l1 0 0 -1 5 0 0 -1M712 350l20 0 0 -4M732 347l19 0M751 348l0 -1M751 348l1 0 0 -1 7 0M759 350l0 -3M759 349l6 0 0 -1M765 349l21 0M786 350l0 -1M786 350l1 0 0 -1 17 0M804 350l0 -1 26 0 1 1"/>
<path stroke="red" d="M831 350l0 -1 26 0M857 350l0 -1 26 0M883 350l0 -1 27 0M910 350l0 -1 8 0M918 421l0 -72M918 421l1 1 0 -2 1 -1 0 -1 1 -1 0 -1 53 0"/>
<path stroke="blue" d="M50 23l46 0"/>
<text stroke="none" fill="white" font-size="16" x="106" y="32">
x1.vsampled_n
</text>
<path stroke="blue" d="M50 431l1 0 1 -7 0 -16 1 -14 0 -5 1 2M54 414l0 -38 1 -4 0 -14 1 -3 0 -2 1 -2 0 -1 2 0 1 -1 3 0 1 1 5 0 0 -1 48 0 0 -1 1 -11 0 -34 1 -5 0 -9 1 -3 0 -2 1 -1 1 0 0 -1 417 0M539 283l0 -1M539 283l1 0M540 284l0 -2M540 283l14 0"/>
<path stroke="blue" d="M554 283l0 -1 12 0 1 1M567 284l0 -1 6 0M573 287l0 -5M573 287l1 4M574 311l0 -20M574 311l1 10 1 2M576 324l0 -1M576 324l1 0 1 -1 15 0M593 324l0 -1 7 0M600 338l0 -15M600 338l1 4M601 345l0 -3M601 345l1 -1 77 0M679 348l0 -4M679 348l1 1"/>
<path stroke="blue" d="M680 350l0 -1 132 0M812 350l0 -1M812 350l1 0 0 -1 18 0M831 350l0 -1 26 0M857 350l0 -1 26 0M883 350l0 -1 27 0M910 350l0 -1 8 0 0 -46 1 -3 0 -11 1 -2 0 -2 1 -1 0 -1 2 0 0 -1 13 0M936 284l0 -2M936 283l14 0 0 -1 24 0"/>
<path stroke="#FFA500" d="M462 39l46 0"/>
<text stroke="none" fill="white" font-size="16" x="518" y="48">
x1.vsampled_p-x1.vsampled_n
</text>
<path stroke="#FFA500" d="M50 431l2 0M52 432l0 -1M52 432l2 0 0 -1 63 0M117 451l0 -20M117 451l1 27M118 533l0 -55M118 533l1 8M119 555l0 -14M119 555l1 4M120 562l0 -3M120 562l3 3 416 0 0 -1 1 1 0 -1 2 0M542 565l0 -1M542 565l4 0 0 -27 1 -5 0 -20 1 -6"/>
<path stroke="#FFA500" d="M548 507l1 -2 0 -1 1 -1 4 0M554 504l0 -1 13 0 0 -1M567 503l6 0 0 -4 1 -4 0 -21 1 -9 1 -3 4 0M580 463l0 -1 13 0M593 463l0 -1 7 0 0 -14 1 -4 0 -3 1 1 23 0 0 -14 1 -1 0 -4 1 0 1 1 18 0M646 425l0 -1 7 0M653 434l0 -10M653 434l1 2"/>
<path stroke="#FFA500" d="M654 437l0 -1 1 -1 0 -1 17 0M672 435l0 -1 7 0 0 -4 1 -1 0 -1M680 429l26 0M706 433l0 -4M706 433l1 0 0 -1 25 0 0 -4M732 429l1 0 1 1 4 0 0 -1 1 0M739 430l0 -1M739 430l13 0 0 -1M752 430l7 0M759 433l0 -3M759 431l27 0M786 432l0 -1"/>
<path stroke="#FFA500" d="M786 432l1 0 0 -1 17 0M804 432l0 -1 34 0 0 -1 1 1 79 0M918 550l0 -119M918 550l1 3M919 561l0 -8M919 561l1 2 1 1 2 0M923 565l0 -1M923 565l13 0 0 -2M936 564l1 0M937 565l0 -1 1 0M938 565l0 -1M938 565l36 0"/>
<path stroke="green" d="M50 39l46 0"/>
<text stroke="none" fill="white" font-size="16" x="106" y="48">
x1.sw_sample-2
</text>
<path stroke="green" d="M50 613l1 0 1 -9 0 -21 1 -21M53 579l0 -23M53 579l1 31M54 613l0 -3M54 613l63 0M117 620l0 -172M117 449l422 0M539 614l0 -171M539 613l422 0M961 618l0 -170 1 1 12 0"/>
<path stroke="#FFC0C5" d="M462 55l46 0"/>
<text stroke="none" fill="white" font-size="16" x="518" y="64">
x1.comp_out_p+2
</text>
<path stroke="#FFC0C5" d="M50 249l1 0 1 -9 0 -22 1 -18 0 -4M53 198l1 5M54 249l0 -46M54 243l1 5M55 249l0 -1M55 249l592 0M647 250l0 -166M647 85l14 0M661 249l0 -167M661 249l39 0 0 -165M700 85l13 0 0 -2 1 151M714 249l0 -15M714 249l39 0 0 -165M753 85l13 0"/>
<path stroke="#FFC0C5" d="M766 249l0 -166M766 249l14 0 0 -152 1 -13M781 85l0 -1M781 85l12 0M793 249l0 -174M793 249l67 0 0 -165M860 85l12 0M872 249l0 -174M872 249l14 0 0 -152 1 -13M887 85l0 -1M887 85l11 0M898 249l0 -174M898 249l15 0 0 -165M913 85l12 0"/>
<path stroke="#FFC0C5" d="M925 249l0 -172M925 249l49 0"/>
<path stroke="#A52A2A" d="M50 55l46 0"/>
<text stroke="none" fill="white" font-size="16" x="106" y="64">
x1.comp_out_n-2
</text>
<path stroke="#A52A2A" d="M50 613l1 0 1 -9 0 -22 1 -19M53 564l0 -3M53 564l1 6M54 613l0 -43M54 612l1 1 487 0M542 615l0 -168M542 449l13 0M555 613l0 -173M555 613l13 0 0 -165M568 449l13 0 0 -8 1 158M582 613l0 -14M582 613l12 0 0 -165M594 449l14 0"/>
<path stroke="#A52A2A" d="M608 613l0 -172M608 613l13 0M621 615l0 -168M621 449l13 0M634 614l0 -174M634 613l39 0M673 614l0 -1M673 614l1 -93 0 -74M674 449l13 0M687 613l0 -172M687 613l40 0 1 -157 0 -8M728 449l12 0M740 613l0 -172M740 613l67 0 0 -165"/>
<path stroke="#A52A2A" d="M807 449l12 0M819 613l0 -172M819 613l15 0 0 -164 11 0 0 -10 1 149M846 613l0 -25M846 613l91 0M937 614l0 -1M937 614l1 -100 0 -67M938 449l13 0M951 614l0 -170M951 613l23 0"/>
</svg>
