<?xml version="1.0" standalone="yes"?>
<!DOCTYPE svg PUBLIC "-//W3C//DTD SVG 1.1//EN"
 "http://www.w3.org/Graphics/SVG/1.1/DTD/svg11.dtd">
<svg xmlns="http://www.w3.org/2000/svg" version="1.1"
  width="100%" height="100%" viewBox="0 0 1024 768"
  style="fill: none; font-family: Helvetica;
 font: Helvetica;
">

<!-- Creator: NGspice -->

<rect x="0" y="0" width="1024" height="768" fill="black" stroke="none"/>
<text stroke="none" fill="white" font-size="16" x="358" y="752">
time
</text>
<text stroke="none" fill="white" font-size="16" x="10" y="16">
tran1: run856_vin-0.147218
</text>
<path stroke="white" d="M50 704l0 -637"/>
<text stroke="none" fill="white" font-size="16" x="35" y="728">
0.0
</text>
<path stroke="white" stroke-dasharray="1,2" d="M182 704l0 -637"/>
<text stroke="none" fill="white" font-size="16" x="157" y="728">
100.0
</text>
<path stroke="white" stroke-dasharray="1,2" d="M314 704l0 -637"/>
<text stroke="none" fill="white" font-size="16" x="289" y="728">
200.0
</text>
<path stroke="white" stroke-dasharray="1,2" d="M446 704l0 -637"/>
<text stroke="none" fill="white" font-size="16" x="421" y="728">
300.0
</text>
<path stroke="white" stroke-dasharray="1,2" d="M578 704l0 -637"/>
<text stroke="none" fill="white" font-size="16" x="553" y="728">
400.0
</text>
<path stroke="white" stroke-dasharray="1,2" d="M710 704l0 -637"/>
<text stroke="none" fill="white" font-size="16" x="685" y="728">
500.0
</text>
<path stroke="white" stroke-dasharray="1,2" d="M842 704l0 -637"/>
<text stroke="none" fill="white" font-size="16" x="817" y="728">
600.0
</text>
<path stroke="white" stroke-dasharray="1,2" d="M974 704l0 -637"/>
<text stroke="none" fill="white" font-size="16" x="949" y="728">
700.0
</text>
<text stroke="none" fill="white" font-size="16" x="614" y="752">
ns
</text>
<path stroke="white" stroke-dasharray="1,2" d="M50 704l924 0"/>
<text stroke="none" fill="white" font-size="16" x="8" y="712">
-3.0
</text>
<path stroke="white" stroke-dasharray="1,2" d="M50 613l924 0"/>
<text stroke="none" fill="white" font-size="16" x="8" y="621">
-2.0
</text>
<path stroke="white" stroke-dasharray="1,2" d="M50 522l924 0"/>
<text stroke="none" fill="white" font-size="16" x="8" y="530">
-1.0
</text>
<path stroke="white" d="M50 431l924 0"/>
<text stroke="none" fill="white" font-size="16" x="18" y="439">
0.0
</text>
<path stroke="white" stroke-dasharray="1,2" d="M50 340l924 0"/>
<text stroke="none" fill="white" font-size="16" x="18" y="348">
1.0
</text>
<path stroke="white" stroke-dasharray="1,2" d="M50 249l924 0"/>
<text stroke="none" fill="white" font-size="16" x="18" y="257">
2.0
</text>
<path stroke="white" stroke-dasharray="1,2" d="M50 158l924 0"/>
<text stroke="none" fill="white" font-size="16" x="18" y="166">
3.0
</text>
<path stroke="white" stroke-dasharray="1,2" d="M50 67l924 0"/>
<text stroke="none" fill="white" font-size="16" x="18" y="75">
4.0
</text>
<text stroke="none" fill="white" font-size="16" x="10" y="32">
     
</text>
<path stroke="red" d="M462 23l46 0"/>
<text stroke="none" fill="white" font-size="16" x="518" y="32">
x1.vsampled_p
</text>
<path stroke="red" d="M50 431l1 0 1 -7 0 -15 1 -14 0 -5 1 2M54 415l0 -39 1 -5 0 -14 1 -3 0 -2 1 -2 2 0 1 -1 4 0M64 350l0 -1M64 350l4 0 1 -1 48 0M117 351l0 -2M117 351l1 4M118 360l0 -5M118 360l2 2 419 0M539 363l0 -1M539 363l1 0 1 -1M541 363l0 -1"/>
<path stroke="red" d="M541 363l5 0 0 -27 1 -2 0 -23 1 -5 0 -2 1 -1 0 -1 2 0 0 -1 15 0 1 1M567 303l0 -2 7 0M574 330l0 -29M574 330l1 8M575 344l0 -6M575 344l1 0 0 -1 1 0 1 -1 15 0M593 343l0 -1 26 0M619 343l0 -1 27 0M646 343l0 -1 26 0M672 343l0 -1"/>
<path stroke="red" d="M672 342l7 0M679 347l0 -5M679 347l1 1M680 350l0 -2 1 -1 17 0 1 1 0 -1 7 0M706 351l0 -4M706 351l1 0 0 -1 25 0 0 -3M732 348l6 0 0 -1M738 348l21 0M759 350l0 -2M759 349l53 0M812 350l0 -1 19 0M831 350l0 -1 26 0M857 350l0 -1 26 0"/>
<path stroke="red" d="M883 350l0 -1 27 0M910 350l0 -1 8 0M918 359l0 -13M918 359l1 2M919 365l0 -4M919 364l1 -1 42 0 0 -1 12 0"/>
<path stroke="blue" d="M50 23l46 0"/>
<text stroke="none" fill="white" font-size="16" x="106" y="32">
x1.vsampled_n
</text>
<path stroke="blue" d="M50 431l1 0 1 -7 0 -15 1 -15 0 -4 1 1M54 415l0 -39 1 -5 0 -14 1 -3 0 -2 1 -2 2 0 1 -1 4 0M64 350l0 -1M64 350l4 0 1 -1 48 0 1 -5 0 -5 1 -2 1 -1 420 0M540 337l0 -1 14 0 0 -1M554 336l13 0M567 337l0 -1 33 0M600 354l0 -18M600 354l1 3"/>
<path stroke="blue" d="M601 359l0 -2M601 358l1 -1 1 0 0 -1 16 0M619 357l0 -1M619 357l1 0 0 -1 5 0 0 -10 1 -1 0 -6 1 -1 2 0 1 1 3 0 0 -1 13 0M646 339l0 -1M646 339l7 0M653 348l0 -10M653 348l1 2 0 -1 5 0 0 -1M659 349l127 0M786 350l0 -1 18 0M804 350l0 -1"/>
<path stroke="blue" d="M804 349l27 0M831 350l0 -1 87 0M918 350l0 -3 1 -2 0 -8 1 -1 16 0M936 337l0 -1 38 0"/>
<path stroke="#FFA500" d="M462 39l46 0"/>
<text stroke="none" fill="white" font-size="16" x="518" y="48">
x1.vsampled_p-x1.vsampled_n
</text>
<path stroke="#FFA500" d="M50 431l67 0M117 433l0 -2M117 433l1 8M118 452l0 -11M118 452l1 3 1 2 1 1 419 0 0 -1M540 458l1 0 0 -1M541 458l5 0 0 -27 1 -2 0 -23 1 -5 0 -2 1 -1 0 -1 2 0 0 -1 15 0 1 1M567 398l0 -2 7 0M574 425l0 -29M574 425l1 8M575 439l0 -6"/>
<path stroke="#FFA500" d="M575 439l1 0 0 -1 1 0 1 -1 15 0M593 438l0 -1 7 0 0 -17 1 -3 0 -3M601 415l1 1M602 417l0 -1M602 417l23 0M625 427l0 -10M625 427l1 1M626 435l0 -7M626 435l27 0 0 -9 1 -3M654 424l0 -1M654 424l1 0 1 1 3 0 0 -1M659 425l13 0"/>
<path stroke="#FFA500" d="M672 425l0 -1M672 425l7 0M679 429l0 -4M679 429l1 1M680 432l0 -2 26 0M706 433l0 -3M706 433l1 0 0 -1 25 0 0 -3M732 430l27 0M759 433l0 -3M759 431l27 0 0 -1M786 431l26 0M812 432l0 -1 26 0M838 432l0 -1 80 0M918 443l0 -15"/>
<path stroke="#FFA500" d="M918 443l1 4M919 459l0 -12M919 459l1 0 0 -1 16 0 0 -1M936 458l38 0"/>
<path stroke="green" d="M50 39l46 0"/>
<text stroke="none" fill="white" font-size="16" x="106" y="48">
x1.sw_sample-2
</text>
<path stroke="green" d="M50 613l1 0 1 -9 0 -21 1 -21M53 581l0 -25M53 581l1 29M54 613l0 -3M54 613l63 0M117 620l0 -172M117 449l422 0M539 614l0 -171M539 613l422 0M961 618l0 -170 1 1 12 0"/>
<path stroke="#FFC0C5" d="M462 55l46 0"/>
<text stroke="none" fill="white" font-size="16" x="518" y="64">
x1.comp_out_p+2
</text>
<path stroke="#FFC0C5" d="M50 249l1 0 1 -9 0 -22 1 -18 0 -4M53 198l1 5M54 249l0 -46M54 249l514 0M568 251l0 -168M568 85l13 0 0 -8 1 156M582 249l0 -16M582 249l39 0M621 251l0 -168M621 85l13 0M634 249l0 -172M634 249l39 0M673 256l0 -7M673 256l1 -131"/>
<path stroke="#FFC0C5" d="M674 125l0 -41M674 85l13 0M687 250l0 -172M687 249l13 0 0 -165 1 1 12 0 0 -8 1 159M714 249l0 -13M714 249l39 0 0 -165M753 85l13 0M766 250l0 -174M766 249l41 0 0 -164 12 0M819 249l0 -171M819 249l15 0 0 -165M834 85l11 0 0 -10"/>
<path stroke="#FFC0C5" d="M845 75l1 143M846 249l0 -31M846 249l128 0"/>
<path stroke="#A52A2A" d="M50 55l46 0"/>
<text stroke="none" fill="white" font-size="16" x="106" y="64">
x1.comp_out_n-2
</text>
<path stroke="#A52A2A" d="M50 613l1 0 1 -9 0 -22 1 -19M53 564l0 -3M53 564l1 6M54 613l0 -43M54 613l487 0 1 5 0 -171M542 449l13 0M555 614l0 -168M555 613l39 0M594 615l0 -168M594 448l1 1 13 0M608 614l0 -173M608 613l39 0M647 615l0 -168M647 449l14 0"/>
<path stroke="#A52A2A" d="M661 613l0 -168M661 613l66 0 0 -165 1 1 12 0M740 614l0 -174M740 613l40 0 0 -161 1 -4M781 449l0 -1M781 449l12 0M793 613l0 -174M793 613l67 0 0 -165M860 449l12 0M872 614l0 -169M872 613l14 0 0 -164 1 -1M887 449l0 -1M887 449l11 0"/>
<path stroke="#A52A2A" d="M898 614l0 -169M898 613l15 0 0 -165M913 449l12 0M925 613l0 -170M925 613l12 0 1 -59 0 -106M938 449l13 0M951 614l0 -168M951 613l23 0"/>
</svg>
