<?xml version="1.0" standalone="yes"?>
<!DOCTYPE svg PUBLIC "-//W3C//DTD SVG 1.1//EN"
 "http://www.w3.org/Graphics/SVG/1.1/DTD/svg11.dtd">
<svg xmlns="http://www.w3.org/2000/svg" version="1.1"
  width="100%" height="100%" viewBox="0 0 1024 768"
  style="fill: none; font-family: Helvetica;
 font: Helvetica;
">

<!-- Creator: NGspice -->

<rect x="0" y="0" width="1024" height="768" fill="black" stroke="none"/>
<text stroke="none" fill="white" font-size="16" x="358" y="752">
time
</text>
<text stroke="none" fill="white" font-size="16" x="10" y="16">
tran1: run1436_vin0.362547
</text>
<path stroke="white" d="M50 704l0 -637"/>
<text stroke="none" fill="white" font-size="16" x="35" y="728">
0.0
</text>
<path stroke="white" stroke-dasharray="1,2" d="M182 704l0 -637"/>
<text stroke="none" fill="white" font-size="16" x="157" y="728">
100.0
</text>
<path stroke="white" stroke-dasharray="1,2" d="M314 704l0 -637"/>
<text stroke="none" fill="white" font-size="16" x="289" y="728">
200.0
</text>
<path stroke="white" stroke-dasharray="1,2" d="M446 704l0 -637"/>
<text stroke="none" fill="white" font-size="16" x="421" y="728">
300.0
</text>
<path stroke="white" stroke-dasharray="1,2" d="M578 704l0 -637"/>
<text stroke="none" fill="white" font-size="16" x="553" y="728">
400.0
</text>
<path stroke="white" stroke-dasharray="1,2" d="M710 704l0 -637"/>
<text stroke="none" fill="white" font-size="16" x="685" y="728">
500.0
</text>
<path stroke="white" stroke-dasharray="1,2" d="M842 704l0 -637"/>
<text stroke="none" fill="white" font-size="16" x="817" y="728">
600.0
</text>
<path stroke="white" stroke-dasharray="1,2" d="M974 704l0 -637"/>
<text stroke="none" fill="white" font-size="16" x="949" y="728">
700.0
</text>
<text stroke="none" fill="white" font-size="16" x="614" y="752">
ns
</text>
<path stroke="white" stroke-dasharray="1,2" d="M50 704l924 0"/>
<text stroke="none" fill="white" font-size="16" x="8" y="712">
-3.0
</text>
<path stroke="white" stroke-dasharray="1,2" d="M50 613l924 0"/>
<text stroke="none" fill="white" font-size="16" x="8" y="621">
-2.0
</text>
<path stroke="white" stroke-dasharray="1,2" d="M50 522l924 0"/>
<text stroke="none" fill="white" font-size="16" x="8" y="530">
-1.0
</text>
<path stroke="white" d="M50 431l924 0"/>
<text stroke="none" fill="white" font-size="16" x="18" y="439">
0.0
</text>
<path stroke="white" stroke-dasharray="1,2" d="M50 340l924 0"/>
<text stroke="none" fill="white" font-size="16" x="18" y="348">
1.0
</text>
<path stroke="white" stroke-dasharray="1,2" d="M50 249l924 0"/>
<text stroke="none" fill="white" font-size="16" x="18" y="257">
2.0
</text>
<path stroke="white" stroke-dasharray="1,2" d="M50 158l924 0"/>
<text stroke="none" fill="white" font-size="16" x="18" y="166">
3.0
</text>
<path stroke="white" stroke-dasharray="1,2" d="M50 67l924 0"/>
<text stroke="none" fill="white" font-size="16" x="18" y="75">
4.0
</text>
<text stroke="none" fill="white" font-size="16" x="10" y="32">
     
</text>
<path stroke="red" d="M462 23l46 0"/>
<text stroke="none" fill="white" font-size="16" x="518" y="32">
x1.vsampled_p
</text>
<path stroke="red" d="M50 431l1 0 1 -7 0 -15 1 -15 0 -4 1 1M54 415l0 -40 1 -5 0 -13 1 -3 0 -2 2 -2 1 0 1 -1 4 0M64 350l0 -1M64 350l4 0 1 -1 48 0 0 -1 1 -8 0 -15 1 -4 0 -2 2 -2 0 -1 419 0M540 317l0 -1 26 0 1 1 0 -1 7 0M574 339l0 -23M574 339l1 4"/>
<path stroke="red" d="M575 354l0 -11M575 354l1 2M576 357l0 -1M576 357l49 0 0 -10 1 -1 0 -5 2 -2 18 0M646 340l0 -1 7 0M653 348l0 -9M653 348l1 2 5 0 0 -1 1 0M660 350l0 -1M660 350l12 0 0 -1 1 1 13 0 0 -1M686 350l12 0 0 -1M698 350l1 0 0 -1M699 350l13 0"/>
<path stroke="red" d="M712 350l0 -1M712 350l13 0 0 -1M725 350l7 0 0 -3 19 0M751 348l0 -1M751 348l1 0 0 -1 7 0M759 350l0 -3M759 349l6 0 0 -1M765 349l21 0M786 350l0 -1 18 0M804 350l0 -1 27 0M831 350l0 -1 26 0M857 350l0 -1 26 0M883 350l0 -1 27 0"/>
<path stroke="red" d="M910 350l0 -1 7 0M917 351l0 -2M917 351l1 -1 0 -11 1 -1 0 -11 1 -3 0 -3 1 -2 0 -2 2 0 0 -1 13 0M936 317l0 -1 38 0"/>
<path stroke="blue" d="M50 23l46 0"/>
<text stroke="none" fill="white" font-size="16" x="106" y="32">
x1.vsampled_n
</text>
<path stroke="blue" d="M50 431l1 0 1 -7 0 -15 1 -14 0 -5 1 2M54 415l0 -40 1 -5 0 -13 1 -3 0 -2 2 -2 1 0 1 -1 4 0M64 350l0 -1M64 350l4 0 1 -1 48 0M117 355l0 -6M117 355l1 9M118 375l0 -11M118 375l1 3M119 380l0 -2M119 380l2 2 425 0 0 -20 1 -4 0 -26"/>
<path stroke="blue" d="M547 332l1 -2 0 -6 1 -1 0 -1 1 -1 4 0 0 -1M554 321l13 0M567 322l0 -1 13 0 0 -1M580 321l13 0M593 322l0 -1 7 0M600 341l0 -20M600 341l1 3M601 348l0 -4 1 0 0 -2 1 0 1 -1 15 0M619 342l0 -1M619 342l1 0 0 -1 26 0M646 342l0 -1"/>
<path stroke="blue" d="M646 341l26 0M672 342l0 -1 7 0M679 347l0 -6M679 347l1 2M680 350l0 -3 6 0 0 -1 12 0 1 1 0 -1M699 347l7 0M706 350l0 -4M706 350l1 0 0 -1 106 0M813 350l0 -1 17 0 1 1 0 -1 86 0M917 350l0 -3 1 -3M918 368l0 -25M918 368l1 2M919 383l0 -13"/>
<path stroke="blue" d="M919 383l1 1 1 -1 0 -1 53 0"/>
<path stroke="#FFA500" d="M462 39l46 0"/>
<text stroke="none" fill="white" font-size="16" x="518" y="48">
x1.vsampled_p-x1.vsampled_n
</text>
<path stroke="#FFA500" d="M50 431l3 0 0 -1M53 431l64 0 0 -7 1 -18 0 -25 1 -7 0 -3 1 -3 1 -2 1 -1 418 0M540 366l0 -1 6 0M546 385l0 -20M546 385l1 4M547 415l0 -26M547 415l1 2M548 423l0 -6M548 423l1 2M549 426l0 -1M549 426l5 0M554 427l0 -1 20 0M574 449l0 -23"/>
<path stroke="#FFA500" d="M574 449l1 4M575 464l0 -11M575 464l1 2M576 467l0 -1M576 467l4 0M580 468l0 -1 13 0 0 -1M593 467l7 0 0 -20 1 -3 0 -3M601 444l1 1M602 446l0 -1M602 446l1 0M603 447l0 -1M603 447l16 0 0 -1M619 447l6 0 0 -10 1 -1 0 -6 1 0 0 -1"/>
<path stroke="#FFA500" d="M627 429l26 0M653 437l0 -8M653 437l1 2M654 440l0 -1 25 0 0 -6 1 -1M680 433l0 -2M680 433l1 1 25 0 0 -4M706 431l1 0 1 1 17 0 0 -1M725 432l7 0 0 -3 27 0M759 431l0 -2M759 431l19 0 0 -1M778 431l8 0M786 432l0 -1 27 0 0 -1"/>
<path stroke="#FFA500" d="M813 431l25 0M838 432l0 -1M838 432l1 0 0 -1 78 0M917 435l0 -5M917 435l1 2 0 -35 1 -4 0 -23 1 -4 0 -3 1 -1 0 -1 1 0 0 -1 14 0M936 366l0 -1 38 0"/>
<path stroke="green" d="M50 39l46 0"/>
<text stroke="none" fill="white" font-size="16" x="106" y="48">
x1.sw_sample-2
</text>
<path stroke="green" d="M50 613l1 0 1 -9 0 -21 1 -21M53 580l0 -24M53 580l1 30M54 613l0 -3M54 613l63 0M117 620l0 -172M117 449l422 0M539 614l0 -171M539 613l422 0M961 618l0 -170 1 1 12 0"/>
<path stroke="#FFC0C5" d="M462 55l46 0"/>
<text stroke="none" fill="white" font-size="16" x="518" y="64">
x1.comp_out_p+2
</text>
<path stroke="#FFC0C5" d="M50 249l1 0 1 -9 0 -22 1 -18 0 -4M53 198l1 5M54 249l0 -46M54 249l487 0 1 3 0 -168M542 85l13 0M555 250l0 -169M555 249l13 0M568 251l0 -167M568 85l13 0 0 -8 1 154M582 249l0 -18M582 249l65 0 0 -166M647 85l14 0M661 249l0 -173"/>
<path stroke="#FFC0C5" d="M661 249l92 0 0 -165M753 85l13 0M766 250l0 -170M766 249l14 0 0 -165M780 85l13 0M793 249l0 -174M793 249l41 0 0 -165M834 85l11 0 0 -10 1 143M846 249l0 -31M846 249l91 0 1 -45 0 -120M938 85l13 0M951 249l0 -172M951 249l23 0"/>
<path stroke="#A52A2A" d="M50 55l46 0"/>
<text stroke="none" fill="white" font-size="16" x="106" y="64">
x1.comp_out_n-2
</text>
<path stroke="#A52A2A" d="M50 613l1 0 1 -9 0 -22 1 -19M53 564l0 -3M53 564l1 6M54 613l0 -43M54 612l1 1 539 0M594 614l0 -167M594 449l14 0M608 614l0 -173M608 613l13 0M621 615l0 -168M621 449l13 0M634 613l0 -173M634 613l39 0 0 -57 1 -95 0 -13M674 449l13 0"/>
<path stroke="#A52A2A" d="M687 614l0 -171M687 613l13 0 0 -165M700 449l13 0 0 -9 1 159M714 613l0 -14M714 613l14 0 0 -165M728 449l12 0M740 613l0 -172M740 613l67 0 0 -164 12 0M819 613l0 -171M819 613l41 0 0 -164 12 0M872 613l0 -174M872 613l14 0 0 -158"/>
<path stroke="#A52A2A" d="M886 455l1 -7M887 449l0 -1M887 449l11 0M898 613l0 -174M898 613l14 0 1 -158 0 -7M913 449l12 0M925 614l0 -174M925 613l49 0"/>
</svg>
