<?xml version="1.0" standalone="yes"?>
<!DOCTYPE svg PUBLIC "-//W3C//DTD SVG 1.1//EN"
 "http://www.w3.org/Graphics/SVG/1.1/DTD/svg11.dtd">
<svg xmlns="http://www.w3.org/2000/svg" version="1.1"
  width="100%" height="100%" viewBox="0 0 1024 768"
  style="fill: none; font-family: Helvetica;
 font: Helvetica;
">

<!-- Creator: NGspice -->

<rect x="0" y="0" width="1024" height="768" fill="black" stroke="none"/>
<text stroke="none" fill="white" font-size="16" x="358" y="752">
time
</text>
<text stroke="none" fill="white" font-size="16" x="10" y="16">
tran1: run1439_vin0.365184
</text>
<path stroke="white" d="M50 704l0 -637"/>
<text stroke="none" fill="white" font-size="16" x="35" y="728">
0.0
</text>
<path stroke="white" stroke-dasharray="1,2" d="M182 704l0 -637"/>
<text stroke="none" fill="white" font-size="16" x="157" y="728">
100.0
</text>
<path stroke="white" stroke-dasharray="1,2" d="M314 704l0 -637"/>
<text stroke="none" fill="white" font-size="16" x="289" y="728">
200.0
</text>
<path stroke="white" stroke-dasharray="1,2" d="M446 704l0 -637"/>
<text stroke="none" fill="white" font-size="16" x="421" y="728">
300.0
</text>
<path stroke="white" stroke-dasharray="1,2" d="M578 704l0 -637"/>
<text stroke="none" fill="white" font-size="16" x="553" y="728">
400.0
</text>
<path stroke="white" stroke-dasharray="1,2" d="M710 704l0 -637"/>
<text stroke="none" fill="white" font-size="16" x="685" y="728">
500.0
</text>
<path stroke="white" stroke-dasharray="1,2" d="M842 704l0 -637"/>
<text stroke="none" fill="white" font-size="16" x="817" y="728">
600.0
</text>
<path stroke="white" stroke-dasharray="1,2" d="M974 704l0 -637"/>
<text stroke="none" fill="white" font-size="16" x="949" y="728">
700.0
</text>
<text stroke="none" fill="white" font-size="16" x="614" y="752">
ns
</text>
<path stroke="white" stroke-dasharray="1,2" d="M50 704l924 0"/>
<text stroke="none" fill="white" font-size="16" x="8" y="712">
-3.0
</text>
<path stroke="white" stroke-dasharray="1,2" d="M50 613l924 0"/>
<text stroke="none" fill="white" font-size="16" x="8" y="621">
-2.0
</text>
<path stroke="white" stroke-dasharray="1,2" d="M50 522l924 0"/>
<text stroke="none" fill="white" font-size="16" x="8" y="530">
-1.0
</text>
<path stroke="white" d="M50 431l924 0"/>
<text stroke="none" fill="white" font-size="16" x="18" y="439">
0.0
</text>
<path stroke="white" stroke-dasharray="1,2" d="M50 340l924 0"/>
<text stroke="none" fill="white" font-size="16" x="18" y="348">
1.0
</text>
<path stroke="white" stroke-dasharray="1,2" d="M50 249l924 0"/>
<text stroke="none" fill="white" font-size="16" x="18" y="257">
2.0
</text>
<path stroke="white" stroke-dasharray="1,2" d="M50 158l924 0"/>
<text stroke="none" fill="white" font-size="16" x="18" y="166">
3.0
</text>
<path stroke="white" stroke-dasharray="1,2" d="M50 67l924 0"/>
<text stroke="none" fill="white" font-size="16" x="18" y="75">
4.0
</text>
<text stroke="none" fill="white" font-size="16" x="10" y="32">
     
</text>
<path stroke="red" d="M462 23l46 0"/>
<text stroke="none" fill="white" font-size="16" x="518" y="32">
x1.vsampled_p
</text>
<path stroke="red" d="M50 431l1 0 1 -7 0 -15 1 -15 0 -4 1 1M54 415l0 -40 1 -5 0 -13 1 -3 0 -2 2 -2 1 0 1 -1 4 0M64 350l0 -1M64 350l4 0 1 -1 48 0 0 -1 1 -8 0 -15 1 -4 0 -2 1 -2 1 -1 419 0M540 317l0 -1 27 0M567 317l0 -1 7 0M574 339l0 -23M574 339l1 4"/>
<path stroke="red" d="M575 354l0 -11M575 354l1 2M576 357l0 -1M576 357l49 0 0 -3 1 -4 0 -10 1 0 0 -1 19 0M646 340l0 -1 7 0M653 347l0 -8M653 347l1 2M654 350l0 -1M654 350l1 -1 17 0M672 350l0 -1 27 0M699 350l0 -1 26 0M725 350l0 -1 8 0 0 -3M733 347l26 0"/>
<path stroke="red" d="M759 349l0 -2M759 348l19 0M778 349l0 -1 7 0M785 349l0 -1M785 349l28 0M813 350l0 -1 18 0M831 350l0 -1 87 0M918 351l0 -7 1 -2 0 -12 1 -5 0 -3 1 -2 0 -2 1 -1 1 0 0 -1 13 0M936 317l0 -1 38 0"/>
<path stroke="blue" d="M50 23l46 0"/>
<text stroke="none" fill="white" font-size="16" x="106" y="32">
x1.vsampled_n
</text>
<path stroke="blue" d="M50 431l1 0 1 -7 0 -15 1 -14 0 -5 1 2M54 415l0 -40 1 -5 0 -13 1 -3 0 -2 2 -2 1 0 1 -1 4 0M64 350l0 -1M64 350l4 0 1 -1 48 0M117 355l0 -6M117 355l1 10M118 375l0 -10M118 375l1 3M119 380l0 -2M119 380l1 1M120 382l0 -1M120 382l420 0"/>
<path stroke="blue" d="M540 383l0 -1 6 0M546 383l0 -24 1 -3 0 -25 1 -2 0 -5 1 -2 1 0 0 -1 16 0 1 1 0 -1 26 0M593 322l0 -1 7 0M600 344l0 -23M600 344l1 2M601 348l0 -4 1 -1 0 -1 4 0 0 -1 1 0M607 342l0 -1M607 342l26 0 0 -1M633 342l26 0 0 -1M659 342l20 0"/>
<path stroke="blue" d="M679 348l0 -6M679 348l1 2 0 -3 6 0 0 -1M686 347l20 0M706 351l0 -4M706 350l1 0 0 -1 18 0M725 350l0 -1 26 0M751 350l0 -1M751 350l1 -1 26 0M778 350l0 -1 26 0M804 350l0 -1 27 0M831 350l0 -1 26 0M857 350l0 -1 26 0M883 350l0 -1"/>
<path stroke="blue" d="M883 350l1 -1 26 0M910 350l0 -1 8 0M918 363l0 -19M918 363l1 2M919 382l0 -17M919 382l1 2 1 0 0 -1 2 0 0 -1 13 0M936 383l0 -1 38 0"/>
<path stroke="#FFA500" d="M462 39l46 0"/>
<text stroke="none" fill="white" font-size="16" x="518" y="48">
x1.vsampled_p-x1.vsampled_n
</text>
<path stroke="#FFA500" d="M50 431l3 0 0 -1M53 431l64 0 0 -7 1 -18 0 -25 1 -7 0 -4 1 -3 0 -1 1 -1 425 0M546 388l0 -23M546 388l1 3M547 416l0 -25M547 416l1 2M548 424l0 -6M548 424l2 2 17 0 0 -1M567 426l7 0M574 449l0 -23M574 449l1 4M575 464l0 -11"/>
<path stroke="#FFA500" d="M575 464l1 2M576 467l0 -1M576 467l17 0 0 -1M593 467l7 0 0 -23 1 -2M601 444l0 -4M601 444l1 1M602 446l0 -1M602 446l4 0M606 447l0 -1M606 447l1 0 0 -1 18 0 0 -2 1 -4 0 -10 1 -1 1 0 0 -1 5 0M633 429l0 -1 20 0M653 436l0 -8"/>
<path stroke="#FFA500" d="M653 436l1 2M654 439l0 -1M654 439l18 0 0 -1M672 439l7 0 0 -7 1 -1M680 433l0 -2M680 433l1 0M681 434l0 -1M681 434l18 0 0 -1M699 434l7 0 0 -4 1 1 26 0 0 -3M733 429l26 0M759 431l0 -2M759 430l26 0M785 431l0 -1M785 431l28 0"/>
<path stroke="#FFA500" d="M813 432l0 -1 26 0 0 -1M839 431l79 0M918 436l0 -25 1 -4 0 -28 1 -6 0 -4 1 -2 0 -1 1 0 0 -1 1 0 0 -1M923 365l13 0M936 366l0 -1 14 0 0 -1M950 365l24 0"/>
<path stroke="green" d="M50 39l46 0"/>
<text stroke="none" fill="white" font-size="16" x="106" y="48">
x1.sw_sample-2
</text>
<path stroke="green" d="M50 613l1 0 1 -9 0 -21 1 -21M53 580l0 -24M53 580l1 30M54 613l0 -3M54 613l63 0M117 620l0 -172M117 449l422 0M539 614l0 -171M539 613l422 0M961 618l0 -170 1 1 12 0"/>
<path stroke="#FFC0C5" d="M462 55l46 0"/>
<text stroke="none" fill="white" font-size="16" x="518" y="64">
x1.comp_out_p+2
</text>
<path stroke="#FFC0C5" d="M50 249l1 0 1 -9 0 -22 1 -18 0 -4M53 198l1 5M54 249l0 -46M54 249l488 0M542 256l0 -173M542 85l13 0M555 249l0 -172M555 249l13 0M568 251l0 -168M568 85l13 0 0 -8 1 154M582 249l0 -18M582 249l65 0M647 250l0 -167M647 85l14 0"/>
<path stroke="#FFC0C5" d="M661 249l0 -173M661 249l92 0 0 -165M753 85l13 0M766 249l0 -171M766 249l14 0 0 -165M780 85l13 0M793 249l0 -174M793 249l14 0 0 -165 1 1 11 0M819 250l0 -171M819 249l40 0 1 -157 0 -8M860 85l12 0M872 249l0 -173M872 249l14 0"/>
<path stroke="#FFC0C5" d="M886 249l0 -164 1 -1M887 85l0 -1M887 85l11 0M898 249l0 -173M898 249l15 0 0 -165M913 85l12 0M925 250l0 -167M925 249l12 0 1 -43 0 -122M938 85l13 0M951 249l0 -172M951 249l23 0"/>
<path stroke="#A52A2A" d="M50 55l46 0"/>
<text stroke="none" fill="white" font-size="16" x="106" y="64">
x1.comp_out_n-2
</text>
<path stroke="#A52A2A" d="M50 613l1 0 1 -9 0 -22 1 -19M53 564l0 -3M53 564l1 6M54 613l0 -43M54 612l1 1 539 0M594 620l0 -173M594 449l14 0M608 614l0 -173M608 613l13 0M621 614l0 -167M621 449l13 0M634 613l0 -173M634 613l39 0 0 -42 1 -107 0 -16M674 449l13 0"/>
<path stroke="#A52A2A" d="M687 613l0 -171M687 613l13 0M700 614l0 -167M700 449l13 0 0 -8 1 153M714 613l0 -19M714 613l14 0 1 -156 0 -8 11 0M740 613l0 -174M740 613l94 0 0 -164 11 0 0 -10 1 154M846 613l0 -20M846 613l128 0"/>
</svg>
