<?xml version="1.0" standalone="yes"?>
<!DOCTYPE svg PUBLIC "-//W3C//DTD SVG 1.1//EN"
 "http://www.w3.org/Graphics/SVG/1.1/DTD/svg11.dtd">
<svg xmlns="http://www.w3.org/2000/svg" version="1.1"
  width="100%" height="100%" viewBox="0 0 1024 768"
  style="fill: none; font-family: Helvetica;
 font: Helvetica;
">

<!-- Creator: NGspice -->

<rect x="0" y="0" width="1024" height="768" fill="black" stroke="none"/>
<text stroke="none" fill="white" font-size="16" x="358" y="752">
time
</text>
<text stroke="none" fill="white" font-size="16" x="10" y="16">
tran1: run221_vin-0.705323
</text>
<path stroke="white" d="M50 704l0 -637"/>
<text stroke="none" fill="white" font-size="16" x="35" y="728">
0.0
</text>
<path stroke="white" stroke-dasharray="1,2" d="M182 704l0 -637"/>
<text stroke="none" fill="white" font-size="16" x="157" y="728">
100.0
</text>
<path stroke="white" stroke-dasharray="1,2" d="M314 704l0 -637"/>
<text stroke="none" fill="white" font-size="16" x="289" y="728">
200.0
</text>
<path stroke="white" stroke-dasharray="1,2" d="M446 704l0 -637"/>
<text stroke="none" fill="white" font-size="16" x="421" y="728">
300.0
</text>
<path stroke="white" stroke-dasharray="1,2" d="M578 704l0 -637"/>
<text stroke="none" fill="white" font-size="16" x="553" y="728">
400.0
</text>
<path stroke="white" stroke-dasharray="1,2" d="M710 704l0 -637"/>
<text stroke="none" fill="white" font-size="16" x="685" y="728">
500.0
</text>
<path stroke="white" stroke-dasharray="1,2" d="M842 704l0 -637"/>
<text stroke="none" fill="white" font-size="16" x="817" y="728">
600.0
</text>
<path stroke="white" stroke-dasharray="1,2" d="M974 704l0 -637"/>
<text stroke="none" fill="white" font-size="16" x="949" y="728">
700.0
</text>
<text stroke="none" fill="white" font-size="16" x="614" y="752">
ns
</text>
<path stroke="white" stroke-dasharray="1,2" d="M50 704l924 0"/>
<text stroke="none" fill="white" font-size="16" x="8" y="712">
-2.5
</text>
<path stroke="white" stroke-dasharray="1,2" d="M50 655l924 0"/>
<text stroke="none" fill="white" font-size="16" x="8" y="663">
-2.0
</text>
<path stroke="white" stroke-dasharray="1,2" d="M50 606l924 0"/>
<text stroke="none" fill="white" font-size="16" x="8" y="614">
-1.5
</text>
<path stroke="white" stroke-dasharray="1,2" d="M50 557l924 0"/>
<text stroke="none" fill="white" font-size="16" x="8" y="565">
-1.0
</text>
<path stroke="white" stroke-dasharray="1,2" d="M50 508l924 0"/>
<text stroke="none" fill="white" font-size="16" x="8" y="516">
-0.5
</text>
<path stroke="white" d="M50 459l924 0"/>
<text stroke="none" fill="white" font-size="16" x="18" y="467">
0.0
</text>
<path stroke="white" stroke-dasharray="1,2" d="M50 410l924 0"/>
<text stroke="none" fill="white" font-size="16" x="18" y="418">
0.5
</text>
<path stroke="white" stroke-dasharray="1,2" d="M50 361l924 0"/>
<text stroke="none" fill="white" font-size="16" x="18" y="369">
1.0
</text>
<path stroke="white" stroke-dasharray="1,2" d="M50 312l924 0"/>
<text stroke="none" fill="white" font-size="16" x="18" y="320">
1.5
</text>
<path stroke="white" stroke-dasharray="1,2" d="M50 263l924 0"/>
<text stroke="none" fill="white" font-size="16" x="18" y="271">
2.0
</text>
<path stroke="white" stroke-dasharray="1,2" d="M50 214l924 0"/>
<text stroke="none" fill="white" font-size="16" x="18" y="222">
2.5
</text>
<path stroke="white" stroke-dasharray="1,2" d="M50 165l924 0"/>
<text stroke="none" fill="white" font-size="16" x="18" y="173">
3.0
</text>
<path stroke="white" stroke-dasharray="1,2" d="M50 116l924 0"/>
<text stroke="none" fill="white" font-size="16" x="18" y="124">
3.5
</text>
<path stroke="white" stroke-dasharray="1,2" d="M50 67l924 0"/>
<text stroke="none" fill="white" font-size="16" x="18" y="75">
4.0
</text>
<text stroke="none" fill="white" font-size="16" x="10" y="32">
     
</text>
<path stroke="red" d="M462 23l46 0"/>
<text stroke="none" fill="white" font-size="16" x="518" y="32">
x1.vsampled_p
</text>
<path stroke="red" d="M50 459l1 0 1 -7 0 -17 1 -15 0 -5 1 2M54 441l0 -41 1 -5 0 -15 1 -3 0 -2 1 -2 0 -1 1 -1 59 0M117 390l0 -19M117 390l1 16M118 428l0 -22M118 428l1 3M119 436l0 -5M119 436l1 2 2 2 424 0 0 -23 1 -3 0 -29 1 -6 1 -3 0 -1 1 -1 17 0"/>
<path stroke="red" d="M567 375l0 -1 58 0 1 -1 0 -19 2 0 1 1 4 0 0 -1M633 355l13 0M646 356l0 -1 7 0M653 366l0 -11M653 366l1 2M654 369l0 -2 1 -1 4 0 0 -1M659 366l20 0M679 373l0 -7M679 373l1 1M680 375l0 -3 1 0 0 -1 18 0M699 372l0 -1 26 0M725 372l0 -1"/>
<path stroke="red" d="M725 371l7 0 0 -4 1 1M733 369l0 -1M733 369l26 0M759 372l0 -3M759 370l19 0M778 371l0 -1 8 0M786 372l0 -2M786 371l132 0M918 437l0 -66M918 437l1 3M919 445l0 -5M919 445l1 -1 0 -2 1 -1 1 0 0 -1 52 0"/>
<path stroke="blue" d="M50 23l46 0"/>
<text stroke="none" fill="white" font-size="16" x="106" y="32">
x1.vsampled_n
</text>
<path stroke="blue" d="M50 459l1 0 1 -7 0 -17 1 -16 0 -5 1 2M54 441l0 -41 1 -5 0 -15 1 -3 0 -2 1 -2 0 -1 1 -1 59 0 0 -2 1 -11 0 -36 1 -5 0 -9 1 -3 1 -2 0 -1 419 0M540 303l0 -1 14 0 0 -1M554 302l13 0M567 304l0 -2 7 0M574 328l0 -26M574 328l1 8"/>
<path stroke="blue" d="M575 344l0 -8M575 344l1 2 17 0M593 347l0 -1 7 0M600 361l0 -15M600 361l1 2M601 369l0 -6M601 369l1 -1 104 0M706 371l0 -3M706 371l107 0M813 372l0 -1 105 0M918 372l0 -38 1 -3 0 -19 1 -2 0 -5 1 -1 0 -1 1 0 0 -1 1 0 0 -1M923 302l13 0"/>
<path stroke="blue" d="M936 304l0 -2 14 0 0 -1M950 302l24 0"/>
<path stroke="#FFA500" d="M462 39l46 0"/>
<text stroke="none" fill="white" font-size="16" x="518" y="48">
x1.vsampled_p-x1.vsampled_n
</text>
<path stroke="#FFA500" d="M50 459l2 0M52 460l0 -1M52 460l2 0 0 -1 63 0M117 479l0 -20M117 479l1 29M118 565l0 -57M118 565l1 8M119 587l0 -14M119 587l1 4 1 3M121 596l0 -2M121 596l1 1 418 0 0 -1M540 597l6 0 0 -23 1 -3 0 -29 1 -6 1 -3 0 -1 1 -1 17 0"/>
<path stroke="#FFA500" d="M567 531l0 -1M567 531l7 0 0 -26 1 -7 0 -9 1 -2 24 0 0 -15 1 -2 0 -6 1 1 23 0 1 -1 0 -19 2 0 1 1 4 0 0 -1M633 446l13 0M646 447l0 -1 7 0M653 457l0 -11M653 457l1 2M654 460l0 -2 1 -1 24 0M679 464l0 -7M679 464l1 1M680 466l0 -3"/>
<path stroke="#FFA500" d="M680 463l1 -1 18 0M699 463l0 -1 7 0 0 -3 1 0M707 460l0 -1M707 460l5 0 0 -1M712 460l13 0 0 -1M725 460l7 0 0 -5 1 1M733 457l0 -1M733 457l26 0M759 460l0 -3M759 459l6 0 0 -1 1 0M766 459l0 -1M766 459l12 0 0 -1M778 459l7 0"/>
<path stroke="#FFA500" d="M785 459l1 -1M786 460l0 -2M786 459l27 0 0 -1M813 459l105 0M918 562l0 -104M918 562l1 6M919 592l0 -24M919 592l1 1M920 596l0 -3M920 596l1 0M921 597l0 -1M921 597l2 0M923 598l0 -1 13 0 0 -1M936 597l14 0M950 598l0 -1 24 0"/>
<path stroke="green" d="M50 39l46 0"/>
<text stroke="none" fill="white" font-size="16" x="106" y="48">
x1.sw_sample-2
</text>
<path stroke="green" d="M50 655l1 0 1 -10 0 -23 1 -21M53 618l0 -24M53 618l1 34M54 655l0 -3M54 655l63 0M117 662l0 -184 1 0M118 479l0 -1M118 479l421 0M539 656l0 -184M539 655l422 0M961 660l0 -182 1 0M962 479l0 -1M962 479l12 0"/>
<path stroke="#FFC0C5" d="M462 55l46 0"/>
<text stroke="none" fill="white" font-size="16" x="518" y="64">
x1.comp_out_p+2
</text>
<path stroke="#FFC0C5" d="M50 263l1 0 1 -10 0 -23 1 -20 0 -4M53 208l1 5M54 264l0 -51M54 255l1 7M55 263l0 -1M55 263l592 0 0 -178M647 87l14 0M661 263l0 -185M661 263l12 0 1 6 0 -184M674 87l13 0M687 264l0 -187M687 263l66 0 0 -178M753 87l13 0M766 263l0 -184"/>
<path stroke="#FFC0C5" d="M766 263l14 0 0 -177 1 0M781 87l0 -1M781 87l12 0M793 263l0 -180M793 263l40 0 1 -169 0 -8M834 87l11 0 0 -3M845 85l1 162M846 263l0 -16M846 263l128 0"/>
<path stroke="#A52A2A" d="M50 55l46 0"/>
<text stroke="none" fill="white" font-size="16" x="106" y="64">
x1.comp_out_n-2
</text>
<path stroke="#A52A2A" d="M50 655l1 0 1 -10 0 -24 1 -20M53 602l0 -4M53 602l1 7M54 655l0 -46M54 654l1 1 486 0 1 1 0 -180M542 479l13 0M555 655l0 -179M555 655l13 0 0 -178M568 479l13 0 0 -10 1 172M582 655l0 -14M582 655l12 0 0 -178M594 478l1 1 13 0"/>
<path stroke="#A52A2A" d="M608 655l0 -185M608 655l13 0 0 -178M621 479l13 0M634 656l0 -187M634 655l66 0 0 -178M700 479l13 0 0 -11 1 159M714 655l0 -28M714 655l14 0 0 -177M728 479l12 0M740 655l0 -186M740 655l67 0 0 -177 1 0M808 479l0 -1M808 479l11 0"/>
<path stroke="#A52A2A" d="M819 655l0 -180M819 655l41 0 0 -177M860 479l12 0M872 655l0 -188M872 655l14 0 0 -162 1 -15M887 479l0 -1M887 479l11 0M898 655l0 -188M898 655l15 0 0 -177M913 479l12 0M925 655l0 -186M925 655l12 0M937 656l0 -1M937 656l1 -98"/>
<path stroke="#A52A2A" d="M938 558l0 -82M938 479l13 0M951 655l0 -186M951 655l23 0"/>
</svg>
