<?xml version="1.0" standalone="yes"?>
<!DOCTYPE svg PUBLIC "-//W3C//DTD SVG 1.1//EN"
 "http://www.w3.org/Graphics/SVG/1.1/DTD/svg11.dtd">
<svg xmlns="http://www.w3.org/2000/svg" version="1.1"
  width="100%" height="100%" viewBox="0 0 1024 768"
  style="fill: none; font-family: Helvetica;
 font: Helvetica;
">

<!-- Creator: NGspice -->

<rect x="0" y="0" width="1024" height="768" fill="black" stroke="none"/>
<text stroke="none" fill="white" font-size="16" x="358" y="752">
time
</text>
<text stroke="none" fill="white" font-size="16" x="10" y="16">
tran1: run223_vin-0.703565
</text>
<path stroke="white" d="M50 704l0 -637"/>
<text stroke="none" fill="white" font-size="16" x="35" y="728">
0.0
</text>
<path stroke="white" stroke-dasharray="1,2" d="M182 704l0 -637"/>
<text stroke="none" fill="white" font-size="16" x="157" y="728">
100.0
</text>
<path stroke="white" stroke-dasharray="1,2" d="M314 704l0 -637"/>
<text stroke="none" fill="white" font-size="16" x="289" y="728">
200.0
</text>
<path stroke="white" stroke-dasharray="1,2" d="M446 704l0 -637"/>
<text stroke="none" fill="white" font-size="16" x="421" y="728">
300.0
</text>
<path stroke="white" stroke-dasharray="1,2" d="M578 704l0 -637"/>
<text stroke="none" fill="white" font-size="16" x="553" y="728">
400.0
</text>
<path stroke="white" stroke-dasharray="1,2" d="M710 704l0 -637"/>
<text stroke="none" fill="white" font-size="16" x="685" y="728">
500.0
</text>
<path stroke="white" stroke-dasharray="1,2" d="M842 704l0 -637"/>
<text stroke="none" fill="white" font-size="16" x="817" y="728">
600.0
</text>
<path stroke="white" stroke-dasharray="1,2" d="M974 704l0 -637"/>
<text stroke="none" fill="white" font-size="16" x="949" y="728">
700.0
</text>
<text stroke="none" fill="white" font-size="16" x="614" y="752">
ns
</text>
<path stroke="white" stroke-dasharray="1,2" d="M50 704l924 0"/>
<text stroke="none" fill="white" font-size="16" x="8" y="712">
-3.0
</text>
<path stroke="white" stroke-dasharray="1,2" d="M50 613l924 0"/>
<text stroke="none" fill="white" font-size="16" x="8" y="621">
-2.0
</text>
<path stroke="white" stroke-dasharray="1,2" d="M50 522l924 0"/>
<text stroke="none" fill="white" font-size="16" x="8" y="530">
-1.0
</text>
<path stroke="white" d="M50 431l924 0"/>
<text stroke="none" fill="white" font-size="16" x="18" y="439">
0.0
</text>
<path stroke="white" stroke-dasharray="1,2" d="M50 340l924 0"/>
<text stroke="none" fill="white" font-size="16" x="18" y="348">
1.0
</text>
<path stroke="white" stroke-dasharray="1,2" d="M50 249l924 0"/>
<text stroke="none" fill="white" font-size="16" x="18" y="257">
2.0
</text>
<path stroke="white" stroke-dasharray="1,2" d="M50 158l924 0"/>
<text stroke="none" fill="white" font-size="16" x="18" y="166">
3.0
</text>
<path stroke="white" stroke-dasharray="1,2" d="M50 67l924 0"/>
<text stroke="none" fill="white" font-size="16" x="18" y="75">
4.0
</text>
<text stroke="none" fill="white" font-size="16" x="10" y="32">
     
</text>
<path stroke="red" d="M462 23l46 0"/>
<text stroke="none" fill="white" font-size="16" x="518" y="32">
x1.vsampled_p
</text>
<path stroke="red" d="M50 431l1 0 1 -7 0 -15 1 -14 0 -5 1 2M54 414l0 -38 1 -4 0 -14 1 -3 0 -2 1 -2 0 -1 2 0 1 -1 3 0 1 1 4 0 1 -1 48 0M117 366l0 -17M117 366l1 16M118 402l0 -20M118 402l1 3M119 410l0 -5M119 410l2 2M121 413l0 -1M121 413l425 0 0 -20"/>
<path stroke="red" d="M546 393l1 -3 0 -24 1 -7 0 -4 1 -2 1 -1 75 0 0 -1 1 -6 0 -12 1 0M627 334l0 -1M627 334l19 0M646 335l0 -1 7 0M653 346l0 -12M653 346l1 1 0 -2 1 0 0 -1 17 0M672 345l0 -1 7 0M679 350l0 -6M679 350l1 1M680 353l0 -3 1 0 0 -1 17 0"/>
<path stroke="red" d="M698 349l1 1 0 -1 26 0M725 350l0 -1 7 0 1 -1 0 -3M733 347l18 0M751 348l0 -1M751 348l1 0 0 -1 6 0 1 1M759 350l0 -2M759 349l1 0 0 -1 18 0M778 349l0 -1 7 0M785 349l0 -1M785 349l1 0M786 350l0 -1 18 0M804 350l0 -1 9 0M813 350l0 -1"/>
<path stroke="red" d="M813 349l17 0 1 1 0 -1 26 0M857 350l0 -1 26 0M883 350l0 -1 27 0M910 350l0 -1 8 0M918 399l0 -50M918 399l1 5M919 418l0 -14M919 418l1 0 0 -2 1 -1 0 -1 1 0 0 -1 52 0"/>
<path stroke="blue" d="M50 23l46 0"/>
<text stroke="none" fill="white" font-size="16" x="106" y="32">
x1.vsampled_n
</text>
<path stroke="blue" d="M50 431l1 0 1 -7 0 -15 1 -15 0 -5 1 2M54 414l0 -38 1 -4 0 -14 1 -3 0 -2 1 -2 0 -1 2 0 1 -1 3 0 1 1 5 0 0 -1 48 0 0 -1 1 -11 0 -33 1 -5 0 -8 1 -3 1 -1 0 -1 1 -1 418 0M540 286l0 -1 26 0 1 1M567 287l0 -2 6 0 1 1M574 310l0 -24"/>
<path stroke="blue" d="M574 310l1 7M575 325l0 -8M575 325l1 1 17 0M593 327l0 -1 7 0M600 343l0 -17M600 343l1 3M601 348l0 -2M601 347l5 0 0 -1M606 347l27 0 0 -1M633 347l26 0 0 -1M659 347l27 0 0 -1M686 347l20 0M706 350l0 -3M706 350l1 -1 18 0M725 350l0 -1"/>
<path stroke="blue" d="M725 349l79 0M804 350l0 -1 27 0M831 350l0 -1 26 0M857 350l0 -1 26 0M883 350l0 -1 27 0M910 350l0 -1 8 0 0 -27 1 -3 0 -21 1 -2 0 -5 1 -2 0 -2 1 0 0 -1 1 0 0 -1 13 0M936 287l0 -2 38 0"/>
<path stroke="#FFA500" d="M462 39l46 0"/>
<text stroke="none" fill="white" font-size="16" x="518" y="48">
x1.vsampled_p-x1.vsampled_n
</text>
<path stroke="#FFA500" d="M50 431l2 0M52 432l0 -1M52 432l2 0 0 -1 63 0M117 450l0 -19M117 450l1 26M118 529l0 -53M118 529l1 8M119 550l0 -13M119 550l1 4 1 2M121 558l0 -2M121 558l1 0 1 1 417 0 0 -1M540 559l6 0 0 -21 1 -2 0 -24 1 -8 0 -4 2 -2 4 0"/>
<path stroke="#FFA500" d="M554 498l0 -1M554 498l12 0 1 -1M567 498l0 -2M567 497l1 0M568 498l0 -1M568 498l5 0 0 -1 1 0 0 -24 1 -7 0 -8 1 -1 17 0 0 -1M593 457l7 0 0 -17 1 -3 0 -2M601 436l18 0M619 437l0 -1M619 437l1 -1 5 0 0 -1 1 -6 0 -12 1 0M627 418l0 -1"/>
<path stroke="#FFA500" d="M627 418l19 0M646 419l0 -1 7 0M653 430l0 -12M653 430l1 1 0 -2 5 0 0 -1M659 429l20 0M679 435l0 -6M679 435l1 0M680 437l0 -3 26 0 0 -3 26 0 1 -1 0 -3M733 429l25 0 1 1M759 432l0 -2 26 0M785 431l0 -1M785 431l1 0M786 432l0 -1"/>
<path stroke="#FFA500" d="M786 431l27 0M813 432l0 -1 25 0 0 -1M838 431l80 0M918 508l0 -77M918 508l1 8M919 551l0 -35M919 551l1 2M920 556l0 -3M920 556l1 1M921 558l0 -1M921 558l1 0M922 559l0 -1M922 559l14 0 0 -1M936 559l38 0"/>
<path stroke="green" d="M50 39l46 0"/>
<text stroke="none" fill="white" font-size="16" x="106" y="48">
x1.sw_sample-2
</text>
<path stroke="green" d="M50 613l1 0 1 -9 0 -21 1 -21M53 579l0 -23M53 579l1 31M54 613l0 -3M54 613l63 0M117 620l0 -172M117 449l422 0M539 614l0 -171M539 613l422 0M961 618l0 -170 1 1 12 0"/>
<path stroke="#FFC0C5" d="M462 55l46 0"/>
<text stroke="none" fill="white" font-size="16" x="518" y="64">
x1.comp_out_p+2
</text>
<path stroke="#FFC0C5" d="M50 249l1 0 1 -9 0 -22 1 -18 0 -4M53 198l1 5M54 250l0 -47M54 241l1 7M55 249l0 -1M55 249l592 0 0 -165M647 85l14 0M661 250l0 -171M661 249l12 0 1 2 0 -168M674 85l13 0M687 250l0 -171M687 249l66 0 0 -165M753 85l13 0M766 249l0 -172"/>
<path stroke="#FFC0C5" d="M766 249l14 0 0 -165M780 85l13 0M793 249l0 -173M793 249l14 0 0 -147 1 -17 0 -1M808 85l11 0M819 250l0 -172M819 249l41 0 0 -165 1 1 11 0M872 249l0 -173M872 249l14 0 1 -147 0 -18M887 85l11 0M898 249l0 -173M898 249l15 0"/>
<path stroke="#FFC0C5" d="M913 249l0 -165M913 85l12 0M925 250l0 -173M925 249l49 0"/>
<path stroke="#A52A2A" d="M50 55l46 0"/>
<text stroke="none" fill="white" font-size="16" x="106" y="64">
x1.comp_out_n-2
</text>
<path stroke="#A52A2A" d="M50 613l1 0 1 -9 0 -22 1 -19M53 564l0 -3M53 564l1 6M54 613l0 -43M54 612l1 1 487 0 0 -165M542 449l13 0M555 614l0 -170M555 613l13 0 0 -165M568 449l13 0 0 -9 1 161M582 613l0 -12M582 613l12 0M594 615l0 -168M594 449l14 0"/>
<path stroke="#A52A2A" d="M608 613l0 -172M608 613l13 0M621 617l0 -170M621 449l13 0M634 613l0 -173M634 613l66 0M700 614l0 -167M700 449l13 0 0 -3 1 155M714 613l0 -12M714 613l14 0 0 -164 12 0M740 613l0 -173M740 613l94 0 0 -165M834 449l11 0 0 -10"/>
<path stroke="#A52A2A" d="M845 439l1 153M846 613l0 -21M846 613l91 0 1 -57 0 -108M938 449l13 0M951 613l0 -173M951 613l23 0"/>
</svg>
