<?xml version="1.0" standalone="yes"?>
<!DOCTYPE svg PUBLIC "-//W3C//DTD SVG 1.1//EN"
 "http://www.w3.org/Graphics/SVG/1.1/DTD/svg11.dtd">
<svg xmlns="http://www.w3.org/2000/svg" version="1.1"
  width="100%" height="100%" viewBox="0 0 1024 768"
  style="fill: none; font-family: Helvetica;
 font: Helvetica;
">

<!-- Creator: NGspice -->

<rect x="0" y="0" width="1024" height="768" fill="black" stroke="none"/>
<text stroke="none" fill="white" font-size="16" x="358" y="752">
time
</text>
<text stroke="none" fill="white" font-size="16" x="10" y="16">
tran1: run1281_vin0.101512
</text>
<path stroke="white" d="M50 704l0 -637"/>
<text stroke="none" fill="white" font-size="16" x="35" y="728">
0.0
</text>
<path stroke="white" stroke-dasharray="1,2" d="M182 704l0 -637"/>
<text stroke="none" fill="white" font-size="16" x="157" y="728">
100.0
</text>
<path stroke="white" stroke-dasharray="1,2" d="M314 704l0 -637"/>
<text stroke="none" fill="white" font-size="16" x="289" y="728">
200.0
</text>
<path stroke="white" stroke-dasharray="1,2" d="M446 704l0 -637"/>
<text stroke="none" fill="white" font-size="16" x="421" y="728">
300.0
</text>
<path stroke="white" stroke-dasharray="1,2" d="M578 704l0 -637"/>
<text stroke="none" fill="white" font-size="16" x="553" y="728">
400.0
</text>
<path stroke="white" stroke-dasharray="1,2" d="M710 704l0 -637"/>
<text stroke="none" fill="white" font-size="16" x="685" y="728">
500.0
</text>
<path stroke="white" stroke-dasharray="1,2" d="M842 704l0 -637"/>
<text stroke="none" fill="white" font-size="16" x="817" y="728">
600.0
</text>
<path stroke="white" stroke-dasharray="1,2" d="M974 704l0 -637"/>
<text stroke="none" fill="white" font-size="16" x="949" y="728">
700.0
</text>
<text stroke="none" fill="white" font-size="16" x="614" y="752">
ns
</text>
<path stroke="white" stroke-dasharray="1,2" d="M50 704l924 0"/>
<text stroke="none" fill="white" font-size="16" x="8" y="712">
-3.0
</text>
<path stroke="white" stroke-dasharray="1,2" d="M50 613l924 0"/>
<text stroke="none" fill="white" font-size="16" x="8" y="621">
-2.0
</text>
<path stroke="white" stroke-dasharray="1,2" d="M50 522l924 0"/>
<text stroke="none" fill="white" font-size="16" x="8" y="530">
-1.0
</text>
<path stroke="white" d="M50 431l924 0"/>
<text stroke="none" fill="white" font-size="16" x="18" y="439">
0.0
</text>
<path stroke="white" stroke-dasharray="1,2" d="M50 340l924 0"/>
<text stroke="none" fill="white" font-size="16" x="18" y="348">
1.0
</text>
<path stroke="white" stroke-dasharray="1,2" d="M50 249l924 0"/>
<text stroke="none" fill="white" font-size="16" x="18" y="257">
2.0
</text>
<path stroke="white" stroke-dasharray="1,2" d="M50 158l924 0"/>
<text stroke="none" fill="white" font-size="16" x="18" y="166">
3.0
</text>
<path stroke="white" stroke-dasharray="1,2" d="M50 67l924 0"/>
<text stroke="none" fill="white" font-size="16" x="18" y="75">
4.0
</text>
<text stroke="none" fill="white" font-size="16" x="10" y="32">
     
</text>
<path stroke="red" d="M462 23l46 0"/>
<text stroke="none" fill="white" font-size="16" x="518" y="32">
x1.vsampled_p
</text>
<path stroke="red" d="M50 431l1 0 1 -7 0 -15 1 -15 0 -4 1 1M54 415l0 -39 1 -5 0 -15 1 -2 0 -2 1 -2 2 0 1 -1 4 0M64 350l0 -1M64 350l4 0 1 -1 48 0 1 -3 0 -3 1 -1 0 -1 1 -1 420 0M540 341l0 -1 27 0M567 341l0 -1 26 0M593 341l0 -1 26 0M619 341l0 -1"/>
<path stroke="red" d="M619 340l27 0M646 341l0 -1 7 0M653 348l0 -8M653 348l1 2M654 352l0 -2M654 351l1 0 1 -1 16 0M672 351l0 -1 27 0M699 351l0 -1 26 0M725 351l0 -1 6 0 0 -3 1 0M732 348l0 -1M732 348l27 0M759 350l0 -2M759 350l1 -1 18 0M778 350l0 -1"/>
<path stroke="red" d="M778 349l26 0M804 350l0 -1 27 0M831 350l0 -1 87 0M918 351l0 -7 1 -1 0 -2 1 -1 16 0M936 341l0 -1 38 0"/>
<path stroke="blue" d="M50 23l46 0"/>
<text stroke="none" fill="white" font-size="16" x="106" y="32">
x1.vsampled_n
</text>
<path stroke="blue" d="M50 431l1 0 1 -7 0 -15 1 -14 0 -5 1 2M54 415l0 -39 1 -5 0 -15 1 -2 0 -2 1 -2 2 0 1 -1 4 0M64 350l0 -1M64 350l4 0 1 -1 48 0M117 350l0 -1M117 350l1 3M118 355l0 -2M118 355l1 2M119 358l0 -1M119 358l420 0M539 359l0 -1M539 359l1 0"/>
<path stroke="blue" d="M540 359l1 -1M541 359l0 -1M541 359l5 0 0 -28 1 -1 0 -25 1 -4 1 -2 0 -1 1 0 0 -1 16 0 1 1M567 299l0 -2 7 0M574 326l0 -29M574 326l1 8M575 340l0 -6M575 340l1 0 0 -1 1 0 0 -1 16 0M593 339l0 -1 7 0M600 356l0 -18M600 356l1 2"/>
<path stroke="blue" d="M601 362l0 -4M601 361l1 -2 4 0 0 -1 13 0M619 359l0 -1M619 359l1 0 0 -1M620 359l5 0 0 -10 1 -1 0 -7 1 0 0 -1 1 0M628 341l0 -1M628 341l5 0 0 -1M633 341l26 0 0 -1M659 341l20 0M679 347l0 -6M679 347l1 1 0 -2 6 0 0 -1M686 346l20 0"/>
<path stroke="blue" d="M706 349l0 -3M706 349l1 0 0 -1 18 0M725 349l0 -1 26 0M751 349l0 -1M751 349l1 0 0 -1 26 0M778 349l0 -1 7 0M785 349l0 -1M785 349l1 0M786 350l0 -1 26 0M812 350l0 -1M812 350l1 -1 18 0M831 350l0 -1 26 0M857 350l0 -1 26 0M883 350l0 -1"/>
<path stroke="blue" d="M883 349l27 0M910 350l0 -1 8 0M918 357l0 -9M918 357l1 1M919 360l0 -2M919 360l1 -1 3 0 0 -1 13 0M936 359l0 -1 1 0M937 359l0 -1M937 359l13 0 0 -1 24 0"/>
<path stroke="#FFA500" d="M462 39l46 0"/>
<text stroke="none" fill="white" font-size="16" x="518" y="48">
x1.vsampled_p-x1.vsampled_n
</text>
<path stroke="#FFA500" d="M50 431l67 0 0 -1 1 -6 0 -5 1 -3 0 -2 1 -1 426 0M546 440l0 -27M546 440l1 1M547 466l0 -25M547 466l1 4 1 2M549 473l0 -1M549 473l1 0M550 474l0 -1M550 474l17 0 0 -1M567 474l7 0 0 -29 1 -8 0 -6 1 0M576 432l0 -1M576 432l1 0"/>
<path stroke="#FFA500" d="M577 433l0 -1M577 433l23 0 0 -18 1 -2 0 -4M601 410l1 2 1 0M603 413l0 -1M603 413l3 0 0 -1 1 0M607 413l0 -1M607 413l18 0M625 422l0 -9M625 422l1 1M626 430l0 -7M626 430l1 1 2 0 1 -1 3 0M633 431l0 -1 20 0M653 438l0 -8M653 438l1 2"/>
<path stroke="#FFA500" d="M654 442l0 -2M654 442l1 -1 17 0 0 -1M672 441l7 0 0 -6 1 -1M680 435l0 -2M680 435l2 0 1 1 15 0 1 -1M699 436l0 -1M699 436l7 0 0 -4 1 1 24 0 0 -3 1 0M732 431l0 -1M732 431l27 0M759 433l0 -2M759 432l26 0 1 -1 26 0 0 -1M812 431l26 0"/>
<path stroke="#FFA500" d="M838 431l0 -1 1 0M839 431l0 -1M839 431l79 0M918 434l0 -16 1 -2 0 -4 2 0M921 413l0 -1M921 413l2 0 0 -1M923 413l27 0 0 -1M950 413l24 0"/>
<path stroke="green" d="M50 39l46 0"/>
<text stroke="none" fill="white" font-size="16" x="106" y="48">
x1.sw_sample-2
</text>
<path stroke="green" d="M50 613l1 0 1 -9 0 -21 1 -21M53 581l0 -25M53 581l1 29M54 613l0 -3M54 613l63 0M117 620l0 -172M117 449l422 0M539 614l0 -171M539 613l422 0M961 618l0 -170 1 1 12 0"/>
<path stroke="#FFC0C5" d="M462 55l46 0"/>
<text stroke="none" fill="white" font-size="16" x="518" y="64">
x1.comp_out_p+2
</text>
<path stroke="#FFC0C5" d="M50 249l1 0 1 -9 0 -22 1 -18 0 -4M53 198l1 5M54 249l0 -46M54 249l487 0 1 1 0 -167M542 85l13 0M555 250l0 -171M555 249l66 0 0 -166M621 85l13 0M634 250l0 -171M634 250l1 -1 12 0M647 250l0 -166M647 85l14 0M661 249l0 -174"/>
<path stroke="#FFC0C5" d="M661 249l92 0 0 -102 1 -57 0 -6M754 85l12 0M766 249l0 -172M766 249l94 0 0 -165M860 85l12 0M872 249l0 -166M872 249l14 0 0 -156 1 -9M887 85l0 -1M887 85l11 0M898 249l0 -166M898 249l15 0 0 -165M913 85l12 0M925 250l0 -173"/>
<path stroke="#FFC0C5" d="M925 249l12 0 1 2 0 -167M938 85l13 0M951 250l0 -168M951 249l23 0"/>
<path stroke="#A52A2A" d="M50 55l46 0"/>
<text stroke="none" fill="white" font-size="16" x="106" y="64">
x1.comp_out_n-2
</text>
<path stroke="#A52A2A" d="M50 613l1 0 1 -9 0 -22 1 -19M53 564l0 -3M53 564l1 6M54 613l0 -43M54 613l514 0M568 620l0 -173M568 449l13 0 0 -3 1 88M582 614l0 -80M582 613l12 0M594 614l0 -167M594 448l1 1 13 0M608 613l0 -173M608 613l39 0M647 614l0 -1"/>
<path stroke="#A52A2A" d="M647 613l26 0M673 615l0 -2M673 615l1 -112 0 -56M674 449l13 0M687 613l0 -171M687 613l13 0M700 618l0 -171M700 449l13 0 0 -9 1 161M714 613l0 -12M714 613l13 0 0 -165M727 449l13 0M740 613l0 -172M740 613l40 0 0 -165M780 449l13 0"/>
<path stroke="#A52A2A" d="M793 613l0 -174M793 613l14 0 0 -164 12 0M819 613l0 -172M819 613l15 0 0 -164 11 0 0 -10 1 153M846 613l0 -21M846 613l128 0"/>
</svg>
