<?xml version="1.0" standalone="yes"?>
<!DOCTYPE svg PUBLIC "-//W3C//DTD SVG 1.1//EN"
 "http://www.w3.org/Graphics/SVG/1.1/DTD/svg11.dtd">
<svg xmlns="http://www.w3.org/2000/svg" version="1.1"
  width="100%" height="100%" viewBox="0 0 1024 768"
  style="fill: none; font-family: Helvetica;
 font: Helvetica;
">

<!-- Creator: NGspice -->

<rect x="0" y="0" width="1024" height="768" fill="black" stroke="none"/>
<text stroke="none" fill="white" font-size="16" x="358" y="752">
time
</text>
<text stroke="none" fill="white" font-size="16" x="10" y="16">
tran1: run1204_vin0.158641
</text>
<path stroke="white" d="M50 704l0 -637"/>
<text stroke="none" fill="white" font-size="16" x="35" y="728">
0.0
</text>
<path stroke="white" stroke-dasharray="1,2" d="M182 704l0 -637"/>
<text stroke="none" fill="white" font-size="16" x="157" y="728">
100.0
</text>
<path stroke="white" stroke-dasharray="1,2" d="M314 704l0 -637"/>
<text stroke="none" fill="white" font-size="16" x="289" y="728">
200.0
</text>
<path stroke="white" stroke-dasharray="1,2" d="M446 704l0 -637"/>
<text stroke="none" fill="white" font-size="16" x="421" y="728">
300.0
</text>
<path stroke="white" stroke-dasharray="1,2" d="M578 704l0 -637"/>
<text stroke="none" fill="white" font-size="16" x="553" y="728">
400.0
</text>
<path stroke="white" stroke-dasharray="1,2" d="M710 704l0 -637"/>
<text stroke="none" fill="white" font-size="16" x="685" y="728">
500.0
</text>
<path stroke="white" stroke-dasharray="1,2" d="M842 704l0 -637"/>
<text stroke="none" fill="white" font-size="16" x="817" y="728">
600.0
</text>
<path stroke="white" stroke-dasharray="1,2" d="M974 704l0 -637"/>
<text stroke="none" fill="white" font-size="16" x="949" y="728">
700.0
</text>
<text stroke="none" fill="white" font-size="16" x="614" y="752">
ns
</text>
<path stroke="white" stroke-dasharray="1,2" d="M50 704l924 0"/>
<text stroke="none" fill="white" font-size="16" x="8" y="712">
-3.0
</text>
<path stroke="white" stroke-dasharray="1,2" d="M50 613l924 0"/>
<text stroke="none" fill="white" font-size="16" x="8" y="621">
-2.0
</text>
<path stroke="white" stroke-dasharray="1,2" d="M50 522l924 0"/>
<text stroke="none" fill="white" font-size="16" x="8" y="530">
-1.0
</text>
<path stroke="white" d="M50 431l924 0"/>
<text stroke="none" fill="white" font-size="16" x="18" y="439">
0.0
</text>
<path stroke="white" stroke-dasharray="1,2" d="M50 340l924 0"/>
<text stroke="none" fill="white" font-size="16" x="18" y="348">
1.0
</text>
<path stroke="white" stroke-dasharray="1,2" d="M50 249l924 0"/>
<text stroke="none" fill="white" font-size="16" x="18" y="257">
2.0
</text>
<path stroke="white" stroke-dasharray="1,2" d="M50 158l924 0"/>
<text stroke="none" fill="white" font-size="16" x="18" y="166">
3.0
</text>
<path stroke="white" stroke-dasharray="1,2" d="M50 67l924 0"/>
<text stroke="none" fill="white" font-size="16" x="18" y="75">
4.0
</text>
<text stroke="none" fill="white" font-size="16" x="10" y="32">
     
</text>
<path stroke="red" d="M462 23l46 0"/>
<text stroke="none" fill="white" font-size="16" x="518" y="32">
x1.vsampled_p
</text>
<path stroke="red" d="M50 431l1 0 1 -7 0 -15 1 -15 0 -4 1 1M54 415l0 -39 1 -5 0 -14 1 -3 0 -2 1 -2 2 0 1 -1 4 0M64 350l0 -1M64 350l4 0 1 -1 48 0 1 -5 0 -6 1 -2 1 -1 434 0 0 -1M554 335l13 0M567 336l0 -1 33 0M600 349l0 -14M600 349l1 4M601 358l0 -5"/>
<path stroke="red" d="M601 358l1 -1 0 -1 1 -1 16 0M619 356l0 -1M619 356l1 0 0 -1 5 0 0 -6 1 -3 0 -8 1 0 0 -1 19 0M646 338l0 -1M646 338l1 0 0 -1 6 0M653 346l0 -9M653 346l1 2M654 349l0 -1M654 349l1 -1 4 0 0 -1M659 348l27 0 0 -1M686 348l20 0M706 351l0 -3"/>
<path stroke="red" d="M706 351l1 0 0 -1 18 0M725 351l0 -1 7 0 0 -3M732 348l27 0M759 350l0 -2M759 350l1 -1 18 0M778 350l0 -1 26 0M804 350l0 -1 27 0M831 350l0 -1 26 0M857 350l0 -1 26 0M883 350l0 -1 27 0M910 350l0 -1 7 0M917 351l0 -2M917 350l1 -1"/>
<path stroke="red" d="M918 349l0 -10 1 -1 0 -3 17 0M936 336l0 -1 38 0"/>
<path stroke="blue" d="M50 23l46 0"/>
<text stroke="none" fill="white" font-size="16" x="106" y="32">
x1.vsampled_n
</text>
<path stroke="blue" d="M50 431l1 0 1 -7 0 -15 1 -14 0 -5 1 2M54 415l0 -39 1 -5 0 -14 1 -3 0 -2 1 -2 2 0 1 -1 4 0M64 350l0 -1M64 350l4 0 1 -1 48 0M117 351l0 -2M117 351l1 4M118 361l0 -6M118 361l2 2 2 0M122 364l0 -1M122 364l419 0 0 -1M541 364l5 0"/>
<path stroke="blue" d="M546 364l0 -24 1 -2 0 -27 1 -4 0 -2 2 -2 1 0 1 -1 14 0 1 1M567 304l0 -2M567 303l1 0 0 -1 6 0M574 330l0 -28M574 330l1 8M575 345l0 -7M575 345l1 0 0 -1 1 0 1 -1 15 0M593 344l0 -1 26 0M619 344l0 -1 27 0M646 344l0 -1 26 0M672 344l0 -1"/>
<path stroke="blue" d="M672 343l7 0M679 351l0 -8M679 351l1 0 0 -2 1 -1 17 0 1 1 0 -1 26 0M725 349l0 -1 26 0M751 349l0 -1M751 349l1 0 0 -1 26 0M778 349l0 -1 7 0M785 350l0 -2M785 350l1 0 0 -1 26 0M812 350l0 -1M812 350l1 0 0 -1 17 0 1 1 0 -1 86 0"/>
<path stroke="blue" d="M917 350l0 -5 1 3M918 366l0 -18M918 366l1 0 0 -2 43 0 0 -1 1 0M963 364l0 -1M963 364l11 0"/>
<path stroke="#FFA500" d="M462 39l46 0"/>
<text stroke="none" fill="white" font-size="16" x="518" y="48">
x1.vsampled_p-x1.vsampled_n
</text>
<path stroke="#FFA500" d="M50 431l67 0 0 -2 1 -9 0 -12 1 -3 1 -2 1 -1 419 0M540 403l0 -1 6 0M546 426l0 -24M546 426l1 2M547 455l0 -27M547 455l1 4M548 461l0 -2M548 461l2 2 4 0M554 464l0 -1 1 0M555 464l0 -1 11 0M566 464l0 -1 1 0M567 464l0 -2M567 463l7 0"/>
<path stroke="#FFA500" d="M574 463l0 -27 1 -9 0 -6 1 0M576 422l0 -1M576 422l1 0 1 1 15 0 0 -1M593 423l7 0M600 436l0 -13M600 436l1 4M601 446l0 -6M601 446l1 -1 0 -2 23 0 0 -7 1 -2 0 -8 1 -1 26 0M653 434l0 -9M653 434l1 2M654 437l0 -1 1 0 1 -1 3 0"/>
<path stroke="#FFA500" d="M659 436l0 -1 20 0 0 -7 1 0M680 430l0 -2M680 430l26 0M706 434l0 -4M706 434l1 -1 25 0 0 -3 1 0M733 431l0 -1M733 431l26 0M759 433l0 -2M759 432l26 0 0 -1 27 0 0 -1 1 1 25 0M838 432l0 -1 79 0M917 436l0 -6M917 436l1 -4 0 -28"/>
<path stroke="#FFA500" d="M918 404l1 -2 0 -1 1 1 16 0M936 403l0 -1 38 0"/>
<path stroke="green" d="M50 39l46 0"/>
<text stroke="none" fill="white" font-size="16" x="106" y="48">
x1.sw_sample-2
</text>
<path stroke="green" d="M50 613l1 0 1 -9 0 -21 1 -21M53 581l0 -25M53 581l1 29M54 613l0 -3M54 613l63 0M117 620l0 -172M117 449l422 0M539 614l0 -171M539 613l422 0M961 618l0 -170 1 1 12 0"/>
<path stroke="#FFC0C5" d="M462 55l46 0"/>
<text stroke="none" fill="white" font-size="16" x="518" y="64">
x1.comp_out_p+2
</text>
<path stroke="#FFC0C5" d="M50 249l1 0 1 -9 0 -22 1 -18 0 -4M53 198l1 5M54 249l0 -46M54 249l488 0 0 -165M542 85l13 0M555 249l0 -167M555 249l39 0 0 -165 1 1 13 0M608 249l0 -167M608 249l39 0M647 251l0 -168M647 85l14 0M661 250l0 -172M661 249l39 0"/>
<path stroke="#FFC0C5" d="M700 249l0 -163 1 -2M701 85l0 -1M701 85l12 0 0 -8 1 161M714 249l0 -11M714 249l39 0M753 250l0 -140 1 -25 0 -1M754 85l12 0M766 250l0 -171M766 250l1 -1 67 0 0 -165M834 85l11 0 0 -9 1 140M846 249l0 -33M846 249l91 0M937 251l0 -2"/>
<path stroke="#FFC0C5" d="M937 251l1 -103 0 -65M938 85l13 0M951 250l0 -166M951 249l23 0"/>
<path stroke="#A52A2A" d="M50 55l46 0"/>
<text stroke="none" fill="white" font-size="16" x="106" y="64">
x1.comp_out_n-2
</text>
<path stroke="#A52A2A" d="M50 613l1 0 1 -9 0 -22 1 -19M53 564l0 -3M53 564l1 6M54 613l0 -43M54 613l514 0M568 615l0 -168M568 449l13 0 0 -8 1 156M582 613l0 -16M582 613l39 0 0 -165M621 449l13 0M634 613l0 -172M634 613l39 0 1 2 0 -168M674 449l13 0"/>
<path stroke="#A52A2A" d="M687 614l0 -174M687 613l40 0M727 614l0 -166M727 449l13 0M740 614l0 -174M740 613l40 0 0 -165M780 449l13 0M793 614l0 -169M793 613l14 0 0 -165 1 1 11 0M819 614l0 -171M819 613l41 0 0 -165M860 449l12 0M872 614l0 -169M872 613l14 0"/>
<path stroke="#A52A2A" d="M886 613l0 -158 1 -7M887 449l0 -1M887 449l11 0M898 614l0 -169M898 613l14 0 1 -158 0 -7M913 449l12 0M925 614l0 -173M925 613l49 0"/>
</svg>
