<?xml version="1.0" standalone="yes"?>
<!DOCTYPE svg PUBLIC "-//W3C//DTD SVG 1.1//EN"
 "http://www.w3.org/Graphics/SVG/1.1/DTD/svg11.dtd">
<svg xmlns="http://www.w3.org/2000/svg" version="1.1"
  width="100%" height="100%" viewBox="0 0 1024 768"
  style="fill: none; font-family: Helvetica;
 font: Helvetica;
">

<!-- Creator: NGspice -->

<rect x="0" y="0" width="1024" height="768" fill="black" stroke="none"/>
<text stroke="none" fill="white" font-size="16" x="358" y="752">
time
</text>
<text stroke="none" fill="white" font-size="16" x="10" y="16">
tran1: run1201_vin0.156004
</text>
<path stroke="white" d="M50 704l0 -637"/>
<text stroke="none" fill="white" font-size="16" x="35" y="728">
0.0
</text>
<path stroke="white" stroke-dasharray="1,2" d="M182 704l0 -637"/>
<text stroke="none" fill="white" font-size="16" x="157" y="728">
100.0
</text>
<path stroke="white" stroke-dasharray="1,2" d="M314 704l0 -637"/>
<text stroke="none" fill="white" font-size="16" x="289" y="728">
200.0
</text>
<path stroke="white" stroke-dasharray="1,2" d="M446 704l0 -637"/>
<text stroke="none" fill="white" font-size="16" x="421" y="728">
300.0
</text>
<path stroke="white" stroke-dasharray="1,2" d="M578 704l0 -637"/>
<text stroke="none" fill="white" font-size="16" x="553" y="728">
400.0
</text>
<path stroke="white" stroke-dasharray="1,2" d="M710 704l0 -637"/>
<text stroke="none" fill="white" font-size="16" x="685" y="728">
500.0
</text>
<path stroke="white" stroke-dasharray="1,2" d="M842 704l0 -637"/>
<text stroke="none" fill="white" font-size="16" x="817" y="728">
600.0
</text>
<path stroke="white" stroke-dasharray="1,2" d="M974 704l0 -637"/>
<text stroke="none" fill="white" font-size="16" x="949" y="728">
700.0
</text>
<text stroke="none" fill="white" font-size="16" x="614" y="752">
ns
</text>
<path stroke="white" stroke-dasharray="1,2" d="M50 704l924 0"/>
<text stroke="none" fill="white" font-size="16" x="8" y="712">
-3.0
</text>
<path stroke="white" stroke-dasharray="1,2" d="M50 613l924 0"/>
<text stroke="none" fill="white" font-size="16" x="8" y="621">
-2.0
</text>
<path stroke="white" stroke-dasharray="1,2" d="M50 522l924 0"/>
<text stroke="none" fill="white" font-size="16" x="8" y="530">
-1.0
</text>
<path stroke="white" d="M50 431l924 0"/>
<text stroke="none" fill="white" font-size="16" x="18" y="439">
0.0
</text>
<path stroke="white" stroke-dasharray="1,2" d="M50 340l924 0"/>
<text stroke="none" fill="white" font-size="16" x="18" y="348">
1.0
</text>
<path stroke="white" stroke-dasharray="1,2" d="M50 249l924 0"/>
<text stroke="none" fill="white" font-size="16" x="18" y="257">
2.0
</text>
<path stroke="white" stroke-dasharray="1,2" d="M50 158l924 0"/>
<text stroke="none" fill="white" font-size="16" x="18" y="166">
3.0
</text>
<path stroke="white" stroke-dasharray="1,2" d="M50 67l924 0"/>
<text stroke="none" fill="white" font-size="16" x="18" y="75">
4.0
</text>
<text stroke="none" fill="white" font-size="16" x="10" y="32">
     
</text>
<path stroke="red" d="M462 23l46 0"/>
<text stroke="none" fill="white" font-size="16" x="518" y="32">
x1.vsampled_p
</text>
<path stroke="red" d="M50 431l1 0 1 -7 0 -15 1 -15 0 -4 1 1M54 415l0 -39 1 -5 0 -14 1 -3 0 -2 1 -2 2 0 1 -1 4 0M64 350l0 -1M64 350l4 0 1 -1 48 0 1 -5 0 -6 1 -2 1 0 0 -1 420 0M540 336l0 -1 27 0M567 336l0 -1 26 0M593 336l0 -1 7 0M600 350l0 -15"/>
<path stroke="red" d="M600 350l1 4M601 359l0 -5M601 358l1 -1 0 -1 4 0 0 -1 1 0M607 356l0 -1M607 356l12 0 0 -1M619 356l1 0 0 -1M620 356l5 0 0 -10 1 -1 0 -7 1 0 0 -1 1 1 5 0 0 -1M633 338l20 0M653 348l0 -10M653 348l1 1 1 -1 51 0M706 351l0 -3M706 351l2 0"/>
<path stroke="red" d="M708 351l1 -1 16 0M725 351l0 -1 6 0 0 -3 1 0M732 348l0 -1M732 348l19 0M751 349l0 -1 27 0M778 349l0 -1 7 0M785 349l0 -1M785 349l27 0M812 350l0 -1 19 0M831 350l0 -1 26 0M857 350l0 -1 26 0M883 350l0 -1 27 0M910 350l0 -1 8 0"/>
<path stroke="red" d="M918 350l0 -3 1 -1 0 -10 1 -1 16 0M936 336l0 -1 38 0"/>
<path stroke="blue" d="M50 23l46 0"/>
<text stroke="none" fill="white" font-size="16" x="106" y="32">
x1.vsampled_n
</text>
<path stroke="blue" d="M50 431l1 0 1 -7 0 -15 1 -14 0 -5 1 2M54 415l0 -39 1 -5 0 -14 1 -3 0 -2 1 -2 2 0 1 -1 4 0M64 350l0 -1M64 350l4 0 1 -1 48 0M117 351l0 -2M117 351l1 4M118 361l0 -6M118 361l2 2 420 0M540 364l0 -1M540 364l1 -1 5 0M546 364l0 -21"/>
<path stroke="blue" d="M546 343l1 -3 0 -23 1 -6 0 -5 1 -2 0 -1 1 0 0 -1 4 0 0 -1M554 302l12 0 1 1M567 304l0 -2 7 0M574 330l0 -28M574 330l1 8M575 345l0 -7M575 345l1 0 0 -1 1 0 0 -1 16 0M593 344l0 -1 26 0M619 344l0 -1 27 0M646 344l0 -1 26 0M672 344l0 -1"/>
<path stroke="blue" d="M672 343l7 0M679 349l0 -6M679 349l1 1M680 351l0 -3 19 0M699 349l0 -1 26 0M725 349l0 -1 26 0M751 349l0 -1 8 0M759 351l0 -3M759 350l1 -1 18 0M778 350l0 -1 26 0M804 350l0 -1 26 0 1 1 0 -1 87 0M918 357l0 -12M918 357l1 2M919 366l0 -7"/>
<path stroke="blue" d="M919 365l1 -1 2 0 0 -1 14 0M936 364l0 -1 38 0"/>
<path stroke="#FFA500" d="M462 39l46 0"/>
<text stroke="none" fill="white" font-size="16" x="518" y="48">
x1.vsampled_p-x1.vsampled_n
</text>
<path stroke="#FFA500" d="M50 431l67 0 0 -2 1 -9 0 -12 1 -3 1 -1 0 -1 426 0M546 423l0 -20M546 423l1 3M547 449l0 -23M547 449l1 6M548 460l0 -5M548 460l1 2M549 463l0 -1M549 463l1 0M550 464l0 -1M550 464l17 0 0 -1M567 464l7 0 0 -28 1 -8 0 -7 1 0M576 422l0 -1"/>
<path stroke="#FFA500" d="M576 422l1 0M577 423l0 -1M577 423l23 0M600 438l0 -15M600 438l1 4M601 446l0 -4M601 446l1 -1 0 -1 1 0 1 -1 2 0M606 444l0 -1M606 444l13 0 0 -1M619 444l1 0 0 -1 5 0 0 -9 1 -1 0 -7 1 0 0 -1 1 0 1 1 17 0 0 -1M646 426l7 0M653 436l0 -10"/>
<path stroke="#FFA500" d="M653 436l1 1 1 -1 24 0 0 -6 1 -1M680 431l0 -3M680 431l26 0M706 434l0 -3M706 434l1 0 0 -1 24 0 0 -3 1 0M732 431l0 -1M732 431l27 0 0 -2M759 430l26 0M785 431l0 -1M785 431l1 0 0 -1 26 0M812 431l0 -1M812 431l106 0M918 435l0 -15"/>
<path stroke="#FFA500" d="M918 420l1 -3 0 -15 2 0M921 403l0 -1M921 403l2 0 0 -1M923 403l27 0 0 -1M950 403l24 0"/>
<path stroke="green" d="M50 39l46 0"/>
<text stroke="none" fill="white" font-size="16" x="106" y="48">
x1.sw_sample-2
</text>
<path stroke="green" d="M50 613l1 0 1 -9 0 -21 1 -21M53 581l0 -25M53 581l1 29M54 613l0 -3M54 613l63 0M117 620l0 -172M117 449l422 0M539 614l0 -171M539 613l422 0M961 618l0 -170 1 1 12 0"/>
<path stroke="#FFC0C5" d="M462 55l46 0"/>
<text stroke="none" fill="white" font-size="16" x="518" y="64">
x1.comp_out_p+2
</text>
<path stroke="#FFC0C5" d="M50 249l1 0 1 -9 0 -22 1 -18 0 -4M53 198l1 5M54 249l0 -46M54 249l487 0 1 1 0 -166M542 85l13 0M555 249l0 -172M555 249l39 0 0 -165M594 85l14 0M608 250l0 -173M608 249l39 0 0 -165M647 85l14 0M661 250l0 -172M661 249l39 0"/>
<path stroke="#FFC0C5" d="M700 249l1 3 0 -169M701 85l12 0 0 -7 1 141M714 249l0 -30M714 249l65 0 1 -67 0 -98M780 85l13 0M793 249l0 -167M793 249l13 0 1 -156 0 -9M807 85l12 0M819 249l0 -173M819 249l14 0 1 -157 0 -8M834 85l11 0 0 -2M845 85l1 150"/>
<path stroke="#FFC0C5" d="M846 249l0 -14M846 249l91 0M937 251l0 -2M937 251l1 -105 0 -63M938 85l13 0M951 249l0 -172M951 249l23 0"/>
<path stroke="#A52A2A" d="M50 55l46 0"/>
<text stroke="none" fill="white" font-size="16" x="106" y="64">
x1.comp_out_n-2
</text>
<path stroke="#A52A2A" d="M50 613l1 0 1 -9 0 -22 1 -19M53 564l0 -3M53 564l1 6M54 613l0 -43M54 613l514 0M568 614l0 -167M568 449l13 0M581 451l0 -4M581 451l1 152M582 613l0 -10M582 613l39 0M621 615l0 -168M621 449l13 0M634 613l0 -172M634 613l39 0"/>
<path stroke="#A52A2A" d="M673 615l0 -2M673 615l1 -85 0 -83M674 449l13 0M687 614l0 -170M687 613l40 0 0 -165M727 449l13 0M740 614l0 -171M740 613l13 0 0 -152 1 -13M754 449l0 -1M754 449l12 0M766 614l0 -174M766 613l94 0 0 -165 1 1 11 0M872 613l0 -174"/>
<path stroke="#A52A2A" d="M872 613l14 0 1 -153 0 -12M887 449l11 0M898 613l0 -174M898 613l15 0 0 -165M913 449l12 0M925 614l0 -173M925 613l49 0"/>
</svg>
