<?xml version="1.0" standalone="yes"?>
<!DOCTYPE svg PUBLIC "-//W3C//DTD SVG 1.1//EN"
 "http://www.w3.org/Graphics/SVG/1.1/DTD/svg11.dtd">
<svg xmlns="http://www.w3.org/2000/svg" version="1.1"
  width="100%" height="100%" viewBox="0 0 1024 768"
  style="fill: none; font-family: Helvetica;
 font: Helvetica;
">

<!-- Creator: NGspice -->

<rect x="0" y="0" width="1024" height="768" fill="black" stroke="none"/>
<text stroke="none" fill="white" font-size="16" x="358" y="752">
time
</text>
<text stroke="none" fill="white" font-size="16" x="10" y="16">
tran1: run369_vin-0.575245
</text>
<path stroke="white" d="M50 704l0 -637"/>
<text stroke="none" fill="white" font-size="16" x="35" y="728">
0.0
</text>
<path stroke="white" stroke-dasharray="1,2" d="M182 704l0 -637"/>
<text stroke="none" fill="white" font-size="16" x="157" y="728">
100.0
</text>
<path stroke="white" stroke-dasharray="1,2" d="M314 704l0 -637"/>
<text stroke="none" fill="white" font-size="16" x="289" y="728">
200.0
</text>
<path stroke="white" stroke-dasharray="1,2" d="M446 704l0 -637"/>
<text stroke="none" fill="white" font-size="16" x="421" y="728">
300.0
</text>
<path stroke="white" stroke-dasharray="1,2" d="M578 704l0 -637"/>
<text stroke="none" fill="white" font-size="16" x="553" y="728">
400.0
</text>
<path stroke="white" stroke-dasharray="1,2" d="M710 704l0 -637"/>
<text stroke="none" fill="white" font-size="16" x="685" y="728">
500.0
</text>
<path stroke="white" stroke-dasharray="1,2" d="M842 704l0 -637"/>
<text stroke="none" fill="white" font-size="16" x="817" y="728">
600.0
</text>
<path stroke="white" stroke-dasharray="1,2" d="M974 704l0 -637"/>
<text stroke="none" fill="white" font-size="16" x="949" y="728">
700.0
</text>
<text stroke="none" fill="white" font-size="16" x="614" y="752">
ns
</text>
<path stroke="white" stroke-dasharray="1,2" d="M50 704l924 0"/>
<text stroke="none" fill="white" font-size="16" x="8" y="712">
-3.0
</text>
<path stroke="white" stroke-dasharray="1,2" d="M50 613l924 0"/>
<text stroke="none" fill="white" font-size="16" x="8" y="621">
-2.0
</text>
<path stroke="white" stroke-dasharray="1,2" d="M50 522l924 0"/>
<text stroke="none" fill="white" font-size="16" x="8" y="530">
-1.0
</text>
<path stroke="white" d="M50 431l924 0"/>
<text stroke="none" fill="white" font-size="16" x="18" y="439">
0.0
</text>
<path stroke="white" stroke-dasharray="1,2" d="M50 340l924 0"/>
<text stroke="none" fill="white" font-size="16" x="18" y="348">
1.0
</text>
<path stroke="white" stroke-dasharray="1,2" d="M50 249l924 0"/>
<text stroke="none" fill="white" font-size="16" x="18" y="257">
2.0
</text>
<path stroke="white" stroke-dasharray="1,2" d="M50 158l924 0"/>
<text stroke="none" fill="white" font-size="16" x="18" y="166">
3.0
</text>
<path stroke="white" stroke-dasharray="1,2" d="M50 67l924 0"/>
<text stroke="none" fill="white" font-size="16" x="18" y="75">
4.0
</text>
<text stroke="none" fill="white" font-size="16" x="10" y="32">
     
</text>
<path stroke="red" d="M462 23l46 0"/>
<text stroke="none" fill="white" font-size="16" x="518" y="32">
x1.vsampled_p
</text>
<path stroke="red" d="M50 431l1 0 1 -7 0 -15 1 -14 0 -5 1 2M54 414l0 -37 1 -4 0 -17 1 -3 1 -2 0 -1 2 0 1 -1 4 0M64 350l0 -1M64 350l4 0 1 -1 48 0M117 361l0 -12M117 361l1 14M118 393l0 -18M118 393l1 2M119 397l0 -2M119 397l1 2M120 400l0 -1M120 400l1 1"/>
<path stroke="red" d="M121 401l418 0M539 402l0 -1M539 402l1 0 1 -1M541 402l0 -1M541 402l5 0 0 -23 1 -3 0 -27 1 -3 0 -2 1 -2 0 -1 1 0 1 -1 16 0M567 341l0 -1 26 0M593 341l0 -1 26 0M619 341l0 -1 27 0M646 341l0 -1 7 0M653 350l0 -10M653 350l1 2M654 353l0 -1"/>
<path stroke="red" d="M654 352l2 -2 3 0M659 351l0 -1 13 0M672 351l0 -1 1 0M673 351l0 -1M673 351l13 0 0 -1 12 0 1 1 0 -1M699 351l13 0 0 -1 13 0M725 351l0 -1M725 351l6 0 0 -4 1 0M732 348l0 -1M732 348l19 0M751 349l0 -1M751 349l1 0 0 -1 26 0M778 349l0 -1"/>
<path stroke="red" d="M778 348l7 0M785 350l0 -2M785 350l1 0 0 -1 26 0M812 350l0 -1 19 0M831 350l0 -1 26 0M857 350l0 -1 26 0M883 350l0 -1 27 0M910 350l0 -1 7 0M917 404l0 -58M917 404l1 3M918 408l0 -2 1 -1 0 -2 1 -1 3 0 0 -1M923 402l27 0 0 -1M950 402l11 0"/>
<path stroke="red" d="M961 402l0 -1 13 0"/>
<path stroke="blue" d="M50 23l46 0"/>
<text stroke="none" fill="white" font-size="16" x="106" y="32">
x1.vsampled_n
</text>
<path stroke="blue" d="M50 431l1 0 1 -7 0 -15 1 -15 0 -4 1 1M54 414l0 -37 1 -4 0 -17 1 -3 1 -2 0 -1 2 0 1 -1 4 0M64 350l0 -1M64 350l4 0 1 -1 48 0 0 -1 1 -10 0 -28 1 -4 0 -3 1 -3 0 -2 1 0 1 -1 418 0M540 298l0 -1 14 0 0 -1M554 297l13 0M567 298l0 -1"/>
<path stroke="blue" d="M567 297l7 0M574 320l0 -23M574 320l1 8M575 336l0 -8M575 336l1 2 24 0M600 351l0 -13M600 351l1 3M601 359l0 -5M601 359l1 -1 17 0M619 359l0 -1 6 0 0 -10 1 -1 0 -5 1 -1 1 0 0 -1 18 0M646 341l0 -1 26 0M672 341l0 -1 7 0M679 345l0 -5"/>
<path stroke="blue" d="M679 345l1 1M680 347l0 -1 6 0 0 -1M686 346l12 0 0 -1M698 346l8 0M706 349l0 -3M706 348l53 0M759 350l0 -2M759 350l1 -1 18 0M778 350l0 -1 26 0M804 350l0 -1 26 0 1 1 0 -1 29 0M860 357l0 -8M860 357l1 1M861 360l0 -2M861 359l56 0"/>
<path stroke="blue" d="M917 360l0 -42 1 -3 0 -9 1 -3 0 -2 1 -2 0 -1 1 -1 2 0 0 -1M923 297l13 0M936 298l0 -1 14 0 0 -1M950 297l24 0"/>
<path stroke="#FFA500" d="M462 39l46 0"/>
<text stroke="none" fill="white" font-size="16" x="518" y="48">
x1.vsampled_p-x1.vsampled_n
</text>
<path stroke="#FFA500" d="M50 431l2 0 1 1 1 0 0 -1 63 0M117 444l0 -13M117 444l1 24M118 514l0 -46M118 514l1 6M119 525l0 -5M119 525l1 5M120 533l0 -3M120 533l3 3 416 0 0 -1 1 1 0 -1 6 0M546 536l0 -23 1 -3 0 -27 1 -3 0 -2 1 -2 0 -1 1 0 0 -1 17 0"/>
<path stroke="#FFA500" d="M567 475l0 -2M567 474l7 0 0 -23 1 -8 0 -8 1 -2 17 0M593 434l0 -1 7 0 0 -13 1 -3 0 -5 1 1 17 0M619 414l0 -1 6 0M625 423l0 -10M625 423l1 1M626 429l0 -5M626 429l1 1M627 431l0 -1M627 431l26 0M653 441l0 -10M653 441l1 2M654 444l0 -2"/>
<path stroke="#FFA500" d="M654 442l1 -1 24 0 0 -5 1 0 0 -1M680 436l26 0 0 -3 19 0M725 434l0 -1 6 0 0 -3 1 0M732 431l0 -1M732 431l27 0 0 -2M759 430l26 0M785 431l0 -1M785 431l6 0 0 -1 1 0M792 431l0 -1M792 431l12 0 0 -1M804 431l8 0M812 432l0 -2"/>
<path stroke="#FFA500" d="M812 431l48 0 0 -7 1 -1 0 -3M861 421l56 0M917 516l0 -96M917 516l1 6M918 531l0 -9M918 531l1 1M919 534l0 -2M919 534l1 0M920 535l0 -1M920 535l3 0M923 536l0 -1M923 536l13 0 0 -2M936 535l14 0M950 536l0 -1M950 536l24 0"/>
<path stroke="green" d="M50 39l46 0"/>
<text stroke="none" fill="white" font-size="16" x="106" y="48">
x1.sw_sample-2
</text>
<path stroke="green" d="M50 613l1 0 1 -9 0 -21 1 -21M53 580l0 -24M53 580l1 30M54 613l0 -3M54 613l63 0M117 620l0 -172M117 449l422 0M539 614l0 -171M539 613l422 0M961 618l0 -170 1 1 12 0"/>
<path stroke="#FFC0C5" d="M462 55l46 0"/>
<text stroke="none" fill="white" font-size="16" x="518" y="64">
x1.comp_out_p+2
</text>
<path stroke="#FFC0C5" d="M50 249l1 0 1 -9 0 -22 1 -18 0 -4M53 198l1 5M54 250l0 -74 1 68M55 249l0 -5M55 249l566 0 0 -166M621 85l13 0M634 250l0 -171M634 250l1 -1 12 0 0 -166M647 85l14 0M661 249l0 -172M661 249l119 0M780 251l0 -167M780 85l13 0M793 249l0 -167"/>
<path stroke="#FFC0C5" d="M793 249l13 0 1 -156 0 -9M807 85l12 0M819 249l0 -174M819 249l15 0 0 -165M834 85l11 0 0 -2 1 151M846 249l0 -15M846 249l39 0M885 250l0 -166M885 85l13 0M898 249l0 -172M898 249l13 0 1 -9 0 -156M912 85l13 0M925 250l0 -174"/>
<path stroke="#FFC0C5" d="M925 249l49 0"/>
<path stroke="#A52A2A" d="M50 55l46 0"/>
<text stroke="none" fill="white" font-size="16" x="106" y="64">
x1.comp_out_n-2
</text>
<path stroke="#A52A2A" d="M50 613l1 0 1 -9 0 -22 1 -19M53 564l0 -3M53 564l1 6M54 614l0 -44M54 612l1 1 486 0 1 2 0 -168M542 449l13 0M555 613l0 -173M555 613l13 0 0 -165M568 449l13 0 0 -3 1 88M582 614l0 -80M582 613l12 0M594 615l0 -168M594 448l1 1"/>
<path stroke="#A52A2A" d="M595 449l13 0M608 613l0 -167M608 613l65 0M673 614l0 -1M673 614l1 -83 0 -84M674 449l13 0M687 613l0 -171M687 613l13 0M700 615l0 -168M700 449l13 0 0 -8 1 154M714 613l0 -18M714 613l13 0 0 -165M727 449l13 0M740 613l0 -171"/>
<path stroke="#A52A2A" d="M740 613l13 0 1 -147 0 -18M754 449l12 0M766 614l0 -174M766 613l94 0 0 -165M860 449l12 0M872 614l0 -165M872 613l65 0M937 619l0 -6M937 619l1 -141 0 -31M938 449l13 0M951 614l0 -168M951 613l23 0"/>
</svg>
