<?xml version="1.0" standalone="yes"?>
<!DOCTYPE svg PUBLIC "-//W3C//DTD SVG 1.1//EN"
 "http://www.w3.org/Graphics/SVG/1.1/DTD/svg11.dtd">
<svg xmlns="http://www.w3.org/2000/svg" version="1.1"
  width="100%" height="100%" viewBox="0 0 1024 768"
  style="fill: none; font-family: Helvetica;
 font: Helvetica;
">

<!-- Creator: NGspice -->

<rect x="0" y="0" width="1024" height="768" fill="black" stroke="none"/>
<text stroke="none" fill="white" font-size="16" x="358" y="752">
time
</text>
<text stroke="none" fill="white" font-size="16" x="10" y="16">
tran1: run1346_vin0.283446
</text>
<path stroke="white" d="M50 704l0 -637"/>
<text stroke="none" fill="white" font-size="16" x="35" y="728">
0.0
</text>
<path stroke="white" stroke-dasharray="1,2" d="M182 704l0 -637"/>
<text stroke="none" fill="white" font-size="16" x="157" y="728">
100.0
</text>
<path stroke="white" stroke-dasharray="1,2" d="M314 704l0 -637"/>
<text stroke="none" fill="white" font-size="16" x="289" y="728">
200.0
</text>
<path stroke="white" stroke-dasharray="1,2" d="M446 704l0 -637"/>
<text stroke="none" fill="white" font-size="16" x="421" y="728">
300.0
</text>
<path stroke="white" stroke-dasharray="1,2" d="M578 704l0 -637"/>
<text stroke="none" fill="white" font-size="16" x="553" y="728">
400.0
</text>
<path stroke="white" stroke-dasharray="1,2" d="M710 704l0 -637"/>
<text stroke="none" fill="white" font-size="16" x="685" y="728">
500.0
</text>
<path stroke="white" stroke-dasharray="1,2" d="M842 704l0 -637"/>
<text stroke="none" fill="white" font-size="16" x="817" y="728">
600.0
</text>
<path stroke="white" stroke-dasharray="1,2" d="M974 704l0 -637"/>
<text stroke="none" fill="white" font-size="16" x="949" y="728">
700.0
</text>
<text stroke="none" fill="white" font-size="16" x="614" y="752">
ns
</text>
<path stroke="white" stroke-dasharray="1,2" d="M50 704l924 0"/>
<text stroke="none" fill="white" font-size="16" x="8" y="712">
-3.0
</text>
<path stroke="white" stroke-dasharray="1,2" d="M50 613l924 0"/>
<text stroke="none" fill="white" font-size="16" x="8" y="621">
-2.0
</text>
<path stroke="white" stroke-dasharray="1,2" d="M50 522l924 0"/>
<text stroke="none" fill="white" font-size="16" x="8" y="530">
-1.0
</text>
<path stroke="white" d="M50 431l924 0"/>
<text stroke="none" fill="white" font-size="16" x="18" y="439">
0.0
</text>
<path stroke="white" stroke-dasharray="1,2" d="M50 340l924 0"/>
<text stroke="none" fill="white" font-size="16" x="18" y="348">
1.0
</text>
<path stroke="white" stroke-dasharray="1,2" d="M50 249l924 0"/>
<text stroke="none" fill="white" font-size="16" x="18" y="257">
2.0
</text>
<path stroke="white" stroke-dasharray="1,2" d="M50 158l924 0"/>
<text stroke="none" fill="white" font-size="16" x="18" y="166">
3.0
</text>
<path stroke="white" stroke-dasharray="1,2" d="M50 67l924 0"/>
<text stroke="none" fill="white" font-size="16" x="18" y="75">
4.0
</text>
<text stroke="none" fill="white" font-size="16" x="10" y="32">
     
</text>
<path stroke="red" d="M462 23l46 0"/>
<text stroke="none" fill="white" font-size="16" x="518" y="32">
x1.vsampled_p
</text>
<path stroke="red" d="M50 431l1 0 1 -7 0 -15 1 -15 0 -4 1 1M54 415l0 -40 1 -5 0 -13 1 -3 0 -2 2 -2 1 0 1 -1 4 0M64 350l0 -1M64 350l4 0 1 -1 48 0 0 -1 1 -7 0 -11 1 -3 1 -2 0 -1 1 0 1 -1 417 0M539 324l0 -1M539 324l15 0 0 -1 12 0 1 1M567 325l0 -1"/>
<path stroke="red" d="M567 324l13 0 0 -1 13 0M593 324l0 -1M593 324l7 0M600 337l0 -14M600 337l1 3M601 347l0 -7M601 346l2 -2 76 0M679 348l0 -4M679 348l1 1M680 351l0 -2M680 350l1 -1 132 0M813 350l0 -1 17 0 1 1 0 -1 86 0M917 350l0 -6 1 -4 0 -15 1 -1"/>
<path stroke="red" d="M919 324l0 -1 2 0M921 324l0 -1M921 324l2 0 0 -1 13 0M936 324l0 -1M936 324l14 0 0 -1 24 0"/>
<path stroke="blue" d="M50 23l46 0"/>
<text stroke="none" fill="white" font-size="16" x="106" y="32">
x1.vsampled_n
</text>
<path stroke="blue" d="M50 431l1 0 1 -7 0 -15 1 -14 0 -5 1 2M54 415l0 -40 1 -5 0 -13 1 -3 0 -2 2 -2 1 0 1 -1 4 0M64 350l0 -1M64 350l4 0 1 -1 48 0M117 353l0 -4M117 353l1 8M118 369l0 -8M118 369l1 3 1 2 1 1 425 0 0 -27 1 -4 0 -19 1 -5 0 -3 1 -2"/>
<path stroke="blue" d="M549 315l1 -1 4 0 0 -1M554 314l13 0M567 315l0 -1 7 0M574 344l0 -30M574 344l1 3M575 357l0 -10M575 357l1 0 0 -1 1 -1 3 0 0 -1M580 355l13 0 0 -1M593 355l13 0 0 -1 1 1 13 0 0 -1M620 355l5 0 0 -6 1 -4 0 -8 7 0 0 -1M633 337l20 0"/>
<path stroke="blue" d="M653 347l0 -10M653 347l1 2 0 -1 1 -1 51 0M706 351l0 -4M706 350l6 0 0 -1 13 0M725 350l0 -1M725 350l7 0 0 -4 1 0M733 347l0 -1M733 347l18 0M751 348l0 -1 7 0 1 1M759 350l0 -2M759 349l6 0 0 -1M765 349l13 0 0 -1M778 349l7 0M785 350l0 -1"/>
<path stroke="blue" d="M785 350l1 0 0 -1 18 0M804 350l0 -1 27 0M831 350l0 -1 26 0M857 350l0 -1 26 0M883 350l0 -1 27 0M910 350l0 -1 7 0M917 353l0 -4M917 353l1 6M918 379l0 -20M918 379l1 -1 0 -2 1 0 0 -1 54 0"/>
<path stroke="#FFA500" d="M462 39l46 0"/>
<text stroke="none" fill="white" font-size="16" x="518" y="48">
x1.vsampled_p-x1.vsampled_n
</text>
<path stroke="#FFA500" d="M50 431l67 0 0 -5 1 -15 0 -19 1 -7 1 -3 0 -1 1 -1 1 0 1 -1 416 0M539 380l0 -1M539 380l1 0 0 -1M540 380l6 0M546 407l0 -28M546 407l1 3M547 429l0 -19M547 429l1 5M548 437l0 -3M548 437l1 2M549 440l0 -1M549 440l1 0M550 441l0 -1"/>
<path stroke="#FFA500" d="M550 441l17 0 0 -1M567 441l7 0 0 -30 1 -4 0 -9 1 0M576 399l0 -1M576 399l1 0M577 400l0 -1M577 400l16 0M593 401l0 -1 7 0M600 413l0 -13M600 413l1 3M601 423l0 -7M601 422l1 0 0 -1 1 0 1 -1 15 0M619 421l0 -1 1 0M620 421l0 -1"/>
<path stroke="#FFA500" d="M620 420l5 0M625 426l0 -6M625 426l1 4M626 438l0 -8M626 438l27 0 0 -10 1 -2M654 427l0 -1M654 427l1 1 24 0M679 432l0 -4M679 432l1 1M680 435l0 -2M680 434l1 -1 25 0 0 -4M706 430l1 0M707 431l0 -1M707 431l18 0 0 -1M725 431l7 0"/>
<path stroke="#FFA500" d="M732 434l0 -3M732 434l1 0 0 -1 25 0 1 -1 0 -2M759 431l1 0M760 432l0 -1M760 432l18 0 0 -1M778 432l7 0 0 -2 1 0M786 431l0 -1M786 431l27 0M813 432l0 -1 104 0M917 432l0 -10 1 -10 0 -35 1 0M919 378l0 -1M919 378l1 1 2 0M922 380l0 -1"/>
<path stroke="#FFA500" d="M922 380l1 0 0 -1 13 0M936 380l0 -1M936 380l14 0 0 -1 24 0"/>
<path stroke="green" d="M50 39l46 0"/>
<text stroke="none" fill="white" font-size="16" x="106" y="48">
x1.sw_sample-2
</text>
<path stroke="green" d="M50 613l1 0 1 -9 0 -21 1 -21M53 581l0 -25M53 581l1 29M54 613l0 -3M54 613l63 0M117 620l0 -172M117 449l422 0M539 614l0 -171M539 613l422 0M961 618l0 -170 1 1 12 0"/>
<path stroke="#FFC0C5" d="M462 55l46 0"/>
<text stroke="none" fill="white" font-size="16" x="518" y="64">
x1.comp_out_p+2
</text>
<path stroke="#FFC0C5" d="M50 249l1 0 1 -9 0 -22 1 -18 0 -4M53 198l1 5M54 249l0 -46M54 249l488 0 0 -165M542 85l13 0M555 249l0 -172M555 249l39 0 0 -165M594 85l14 0M608 249l0 -171M608 249l13 0 0 -165M621 85l13 0M634 250l0 -172M634 250l1 -1 38 0"/>
<path stroke="#FFC0C5" d="M673 249l1 -9 0 -157M674 85l13 0M687 249l0 -171M687 249l41 0 0 -165M728 85l12 0M740 250l0 -173M740 249l67 0 0 -148 1 -16 0 -1M808 85l11 0M819 249l0 -170M819 249l41 0 0 -165 1 1 11 0M872 249l0 -173M872 249l14 0 0 -157"/>
<path stroke="#FFC0C5" d="M886 92l1 -8M887 85l0 -1M887 85l11 0M898 249l0 -173M898 249l14 0 1 -157 0 -8M913 85l12 0M925 249l0 -172M925 249l12 0M937 250l0 -1M937 250l1 -53 0 -113M938 85l13 0M951 250l0 -166M951 249l23 0"/>
<path stroke="#A52A2A" d="M50 55l46 0"/>
<text stroke="none" fill="white" font-size="16" x="106" y="64">
x1.comp_out_n-2
</text>
<path stroke="#A52A2A" d="M50 613l1 0 1 -9 0 -22 1 -19M53 564l0 -3M53 564l1 6M54 613l0 -43M54 612l1 1 513 0 0 -166M568 449l13 0 0 -9 1 164M582 613l0 -9M582 613l65 0M647 614l0 -167M647 449l14 0M661 613l0 -167M661 613l39 0M700 614l0 -166M700 449l13 0"/>
<path stroke="#A52A2A" d="M713 449l0 -9 1 145M714 613l0 -28M714 613l39 0 0 -165M753 449l13 0M766 613l0 -172M766 613l14 0 0 -165M780 449l13 0M793 613l0 -172M793 613l41 0 0 -164 11 0M845 450l0 -3M845 450l1 153M846 613l0 -10M846 613l128 0"/>
</svg>
