<?xml version="1.0" standalone="yes"?>
<!DOCTYPE svg PUBLIC "-//W3C//DTD SVG 1.1//EN"
 "http://www.w3.org/Graphics/SVG/1.1/DTD/svg11.dtd">
<svg xmlns="http://www.w3.org/2000/svg" version="1.1"
  width="100%" height="100%" viewBox="0 0 1024 768"
  style="fill: none; font-family: Helvetica;
 font: Helvetica;
">

<!-- Creator: NGspice -->

<rect x="0" y="0" width="1024" height="768" fill="black" stroke="none"/>
<text stroke="none" fill="white" font-size="16" x="358" y="752">
time
</text>
<text stroke="none" fill="white" font-size="16" x="10" y="16">
tran1: run1727_vin0.618308
</text>
<path stroke="white" d="M50 704l0 -637"/>
<text stroke="none" fill="white" font-size="16" x="35" y="728">
0.0
</text>
<path stroke="white" stroke-dasharray="1,2" d="M182 704l0 -637"/>
<text stroke="none" fill="white" font-size="16" x="157" y="728">
100.0
</text>
<path stroke="white" stroke-dasharray="1,2" d="M314 704l0 -637"/>
<text stroke="none" fill="white" font-size="16" x="289" y="728">
200.0
</text>
<path stroke="white" stroke-dasharray="1,2" d="M446 704l0 -637"/>
<text stroke="none" fill="white" font-size="16" x="421" y="728">
300.0
</text>
<path stroke="white" stroke-dasharray="1,2" d="M578 704l0 -637"/>
<text stroke="none" fill="white" font-size="16" x="553" y="728">
400.0
</text>
<path stroke="white" stroke-dasharray="1,2" d="M710 704l0 -637"/>
<text stroke="none" fill="white" font-size="16" x="685" y="728">
500.0
</text>
<path stroke="white" stroke-dasharray="1,2" d="M842 704l0 -637"/>
<text stroke="none" fill="white" font-size="16" x="817" y="728">
600.0
</text>
<path stroke="white" stroke-dasharray="1,2" d="M974 704l0 -637"/>
<text stroke="none" fill="white" font-size="16" x="949" y="728">
700.0
</text>
<text stroke="none" fill="white" font-size="16" x="614" y="752">
ns
</text>
<path stroke="white" stroke-dasharray="1,2" d="M50 704l924 0"/>
<text stroke="none" fill="white" font-size="16" x="8" y="712">
-3.0
</text>
<path stroke="white" stroke-dasharray="1,2" d="M50 613l924 0"/>
<text stroke="none" fill="white" font-size="16" x="8" y="621">
-2.0
</text>
<path stroke="white" stroke-dasharray="1,2" d="M50 522l924 0"/>
<text stroke="none" fill="white" font-size="16" x="8" y="530">
-1.0
</text>
<path stroke="white" d="M50 431l924 0"/>
<text stroke="none" fill="white" font-size="16" x="18" y="439">
0.0
</text>
<path stroke="white" stroke-dasharray="1,2" d="M50 340l924 0"/>
<text stroke="none" fill="white" font-size="16" x="18" y="348">
1.0
</text>
<path stroke="white" stroke-dasharray="1,2" d="M50 249l924 0"/>
<text stroke="none" fill="white" font-size="16" x="18" y="257">
2.0
</text>
<path stroke="white" stroke-dasharray="1,2" d="M50 158l924 0"/>
<text stroke="none" fill="white" font-size="16" x="18" y="166">
3.0
</text>
<path stroke="white" stroke-dasharray="1,2" d="M50 67l924 0"/>
<text stroke="none" fill="white" font-size="16" x="18" y="75">
4.0
</text>
<text stroke="none" fill="white" font-size="16" x="10" y="32">
     
</text>
<path stroke="red" d="M462 23l46 0"/>
<text stroke="none" fill="white" font-size="16" x="518" y="32">
x1.vsampled_p
</text>
<path stroke="red" d="M50 431l1 0 1 -7 0 -15 1 -15 0 -4 1 1M54 414l0 -37 1 -4 0 -17 1 -3 1 -2 0 -1 2 0 1 -1 3 0 1 1 4 0 1 -1 48 0 0 -1 1 -11 0 -29 1 -5 0 -3 1 -3 0 -2 1 -1 0 -1 419 0M540 294l0 -1 27 0M567 294l0 -1 7 0M574 314l0 -21M574 314l1 7"/>
<path stroke="red" d="M575 331l0 -10M575 331l1 3 24 0M600 346l0 -12M600 346l1 3M601 355l0 -6M601 355l1 0 0 -1 17 0M619 355l0 -1M619 355l1 0 0 -1 5 0 0 -7 1 -1 0 -8 1 0 0 -1 6 0 0 -1 13 0M646 337l0 -1M646 337l7 0M653 344l0 -8M653 344l1 2M654 347l0 -1"/>
<path stroke="red" d="M654 347l52 0M706 350l0 -3M706 350l1 0 0 -1 18 0M725 350l0 -1 9 0 0 -2 25 0M759 349l0 -2M759 348l19 0M778 349l0 -1 8 0M786 349l0 -1M786 349l26 0 1 1 0 -1 18 0M831 350l0 -1 87 0M918 350l0 -24 1 -6 0 -18 1 -2 0 -2 1 -2 0 -2"/>
<path stroke="red" d="M921 294l1 0 0 -1 14 0M936 295l0 -2 38 0"/>
<path stroke="blue" d="M50 23l46 0"/>
<text stroke="none" fill="white" font-size="16" x="106" y="32">
x1.vsampled_n
</text>
<path stroke="blue" d="M50 431l1 0 1 -7 0 -15 1 -14 0 -5 1 2M54 414l0 -37 1 -4 0 -17 1 -3 1 -2 0 -1 2 0 1 -1 4 0M64 350l0 -1M64 350l4 0 1 -1 48 0M117 363l0 -14M117 363l1 14M118 396l0 -19M118 396l1 3M119 401l0 -2M119 401l1 2M120 404l0 -1M120 404l1 1"/>
<path stroke="blue" d="M121 405l419 0M540 406l0 -1 6 0M546 406l0 -26 1 -3 0 -24 1 -4 0 -2 1 -2 1 -1 17 0M567 345l0 -1 26 0M593 345l0 -1 26 0M619 345l0 -1 27 0M646 345l0 -1 26 0M672 345l0 -1 7 0M679 350l0 -6M679 350l1 1M680 353l0 -3 1 0 0 -1 18 0"/>
<path stroke="blue" d="M699 350l0 -1 26 0M725 350l0 -1 26 0M751 350l0 -1M751 350l1 0 0 -1 26 0M778 350l0 -1 26 0M804 350l0 -1 27 0M831 350l0 -1 26 0M857 350l0 -1 26 0M883 350l0 -1M883 350l1 -1 26 0M910 350l0 -1 8 0M918 396l0 -51M918 396l1 8M919 409l0 -5"/>
<path stroke="blue" d="M919 409l1 -1 0 -1 1 0 0 -1 2 0 0 -1 13 0M936 406l0 -1M936 406l1 -1M937 406l0 -1 37 0"/>
<path stroke="#FFA500" d="M462 39l46 0"/>
<text stroke="none" fill="white" font-size="16" x="518" y="48">
x1.vsampled_p-x1.vsampled_n
</text>
<path stroke="#FFA500" d="M50 431l2 0 0 -1 2 0M54 431l0 -1M54 431l63 0 0 -15 1 -25 0 -49 1 -6 0 -5 1 -6 0 -3 1 -2 0 -1 3 0 1 -1 414 0M539 319l0 -1M539 319l1 0 0 -1M540 319l6 0M546 344l0 -26M546 344l1 3M547 371l0 -24M547 371l1 4M548 377l0 -2M548 377l1 2"/>
<path stroke="#FFA500" d="M549 379l1 1 17 0M567 381l0 -2M567 380l7 0M574 401l0 -21M574 401l1 6M575 418l0 -11M575 418l1 2M576 421l0 -1M576 421l17 0 0 -1M593 421l7 0M600 433l0 -12M600 433l1 3M601 442l0 -6M601 442l1 -1 23 0 0 -7 1 -1 0 -8 2 -2 25 0"/>
<path stroke="#FFA500" d="M653 431l0 -8M653 431l1 2M654 434l0 -1M654 434l18 0 0 -1M672 434l7 0 0 -7 1 0M680 428l0 -3M680 428l19 0M699 429l0 -1 7 0M706 432l0 -4M706 432l1 -1 27 0 0 -3 1 0M735 429l0 -1M735 429l24 0M759 431l0 -2M759 430l27 0M786 431l0 -1"/>
<path stroke="#FFA500" d="M786 431l54 0 0 -1M840 431l78 0M918 432l0 -71 1 -14 0 -22 1 -2 0 -2 1 -1 0 -1 2 0 0 -1M923 319l13 0M936 320l0 -1 14 0 0 -1M950 319l12 0 0 -1 12 0"/>
<path stroke="green" d="M50 39l46 0"/>
<text stroke="none" fill="white" font-size="16" x="106" y="48">
x1.sw_sample-2
</text>
<path stroke="green" d="M50 613l1 0 1 -9 0 -21 1 -21M53 579l0 -23M53 579l1 31M54 613l0 -3M54 613l63 0M117 620l0 -172M117 449l422 0M539 614l0 -171M539 613l422 0M961 618l0 -170 1 1 12 0"/>
<path stroke="#FFC0C5" d="M462 55l46 0"/>
<text stroke="none" fill="white" font-size="16" x="518" y="64">
x1.comp_out_p+2
</text>
<path stroke="#FFC0C5" d="M50 249l1 0 1 -9 0 -22 1 -18 0 -4M53 198l1 5M54 250l0 -47M54 248l1 1 486 0 1 5 0 -171M542 85l13 0M555 249l0 -173M555 249l13 0 0 -165M568 85l13 0 0 -8 1 151M582 249l0 -21M582 249l12 0M594 251l0 -167M594 85l14 0M608 249l0 -171"/>
<path stroke="#FFC0C5" d="M608 249l39 0M647 250l0 -167M647 85l14 0M661 250l0 -170M661 249l39 0M700 250l0 -167M700 85l13 0 0 -6 1 91M714 250l0 -80M714 249l39 0 0 -165M753 85l13 0M766 249l0 -172M766 249l14 0 0 -165M780 85l13 0M793 249l0 -174M793 249l14 0"/>
<path stroke="#FFC0C5" d="M807 249l0 -165M807 85l12 0M819 250l0 -171M819 249l41 0 0 -165M860 85l12 0M872 249l0 -174M872 249l14 0 0 -165 1 1 11 0M898 249l0 -174M898 249l14 0 1 -148 0 -17M913 85l12 0M925 250l0 -171M925 249l12 0M937 250l0 -1M937 250l1 -62"/>
<path stroke="#FFC0C5" d="M938 188l0 -104M938 85l13 0M951 249l0 -171M951 249l23 0"/>
<path stroke="#A52A2A" d="M50 55l46 0"/>
<text stroke="none" fill="white" font-size="16" x="106" y="64">
x1.comp_out_n-2
</text>
<path stroke="#A52A2A" d="M50 613l1 0 1 -9 0 -22 1 -19M53 564l0 -3M53 564l1 6M54 614l0 -64 1 60M55 613l0 -3M55 613l539 0M594 614l0 -1 27 0M621 618l0 -171M621 449l13 0M634 614l0 -172M634 613l39 0 1 2 0 -168M674 449l13 0M687 613l0 -172M687 613l43 0"/>
<path stroke="#A52A2A" d="M730 613l0 -158 1 -7M731 449l0 -1M731 449l9 0M740 613l0 -173M740 613l96 0 0 -165M836 449l9 0 0 -7 1 141M846 613l0 -30M846 613l128 0"/>
</svg>
