<?xml version="1.0" standalone="yes"?>
<!DOCTYPE svg PUBLIC "-//W3C//DTD SVG 1.1//EN"
 "http://www.w3.org/Graphics/SVG/1.1/DTD/svg11.dtd">
<svg xmlns="http://www.w3.org/2000/svg" version="1.1"
  width="100%" height="100%" viewBox="0 0 1024 768"
  style="fill: none; font-family: Helvetica;
 font: Helvetica;
">

<!-- Creator: NGspice -->

<rect x="0" y="0" width="1024" height="768" fill="black" stroke="none"/>
<text stroke="none" fill="white" font-size="16" x="358" y="752">
time
</text>
<text stroke="none" fill="white" font-size="16" x="10" y="16">
tran1: run1721_vin0.613035
</text>
<path stroke="white" d="M50 704l0 -637"/>
<text stroke="none" fill="white" font-size="16" x="35" y="728">
0.0
</text>
<path stroke="white" stroke-dasharray="1,2" d="M182 704l0 -637"/>
<text stroke="none" fill="white" font-size="16" x="157" y="728">
100.0
</text>
<path stroke="white" stroke-dasharray="1,2" d="M314 704l0 -637"/>
<text stroke="none" fill="white" font-size="16" x="289" y="728">
200.0
</text>
<path stroke="white" stroke-dasharray="1,2" d="M446 704l0 -637"/>
<text stroke="none" fill="white" font-size="16" x="421" y="728">
300.0
</text>
<path stroke="white" stroke-dasharray="1,2" d="M578 704l0 -637"/>
<text stroke="none" fill="white" font-size="16" x="553" y="728">
400.0
</text>
<path stroke="white" stroke-dasharray="1,2" d="M710 704l0 -637"/>
<text stroke="none" fill="white" font-size="16" x="685" y="728">
500.0
</text>
<path stroke="white" stroke-dasharray="1,2" d="M842 704l0 -637"/>
<text stroke="none" fill="white" font-size="16" x="817" y="728">
600.0
</text>
<path stroke="white" stroke-dasharray="1,2" d="M974 704l0 -637"/>
<text stroke="none" fill="white" font-size="16" x="949" y="728">
700.0
</text>
<text stroke="none" fill="white" font-size="16" x="614" y="752">
ns
</text>
<path stroke="white" stroke-dasharray="1,2" d="M50 704l924 0"/>
<text stroke="none" fill="white" font-size="16" x="8" y="712">
-3.0
</text>
<path stroke="white" stroke-dasharray="1,2" d="M50 613l924 0"/>
<text stroke="none" fill="white" font-size="16" x="8" y="621">
-2.0
</text>
<path stroke="white" stroke-dasharray="1,2" d="M50 522l924 0"/>
<text stroke="none" fill="white" font-size="16" x="8" y="530">
-1.0
</text>
<path stroke="white" d="M50 431l924 0"/>
<text stroke="none" fill="white" font-size="16" x="18" y="439">
0.0
</text>
<path stroke="white" stroke-dasharray="1,2" d="M50 340l924 0"/>
<text stroke="none" fill="white" font-size="16" x="18" y="348">
1.0
</text>
<path stroke="white" stroke-dasharray="1,2" d="M50 249l924 0"/>
<text stroke="none" fill="white" font-size="16" x="18" y="257">
2.0
</text>
<path stroke="white" stroke-dasharray="1,2" d="M50 158l924 0"/>
<text stroke="none" fill="white" font-size="16" x="18" y="166">
3.0
</text>
<path stroke="white" stroke-dasharray="1,2" d="M50 67l924 0"/>
<text stroke="none" fill="white" font-size="16" x="18" y="75">
4.0
</text>
<text stroke="none" fill="white" font-size="16" x="10" y="32">
     
</text>
<path stroke="red" d="M462 23l46 0"/>
<text stroke="none" fill="white" font-size="16" x="518" y="32">
x1.vsampled_p
</text>
<path stroke="red" d="M50 431l1 0 1 -7 0 -15 1 -15 0 -4 1 1M54 414l0 -37 1 -4 0 -17 1 -3 1 -2 0 -1 2 0 1 -1 4 0M64 350l0 -1M64 350l4 0 1 -1 48 0 0 -1 1 -11 0 -29 1 -4 0 -3 1 -4 0 -2 1 -1 1 0 1 -1 416 0M539 294l0 -1M539 294l1 0M540 295l0 -1 14 0"/>
<path stroke="red" d="M554 294l0 -1 12 0 1 1M567 295l0 -1 6 0 0 -1 1 4M574 322l0 -25M574 322l1 10 1 2M576 335l0 -1M576 335l4 0 0 -1 13 0M593 335l0 -1M593 335l7 0M600 349l0 -15M600 349l1 3M601 356l0 -4M601 356l1 -1 23 0 0 -4 1 -3 0 -9 1 -1 0 -1"/>
<path stroke="red" d="M627 337l26 0M653 345l0 -8M653 345l1 2M654 348l0 -1 18 0M672 348l0 -1 27 0M699 348l0 -1 7 0M706 350l0 -3M706 350l26 0 0 -3 1 0M733 348l0 -1M733 348l5 0 0 -1 13 0M751 348l0 -1M751 348l1 0 0 -1M752 348l7 0M759 350l0 -2M759 349l53 0"/>
<path stroke="red" d="M812 350l0 -1M812 350l1 -1 108 0M921 350l0 -10 1 0 0 -28 1 -2 0 -11 1 0 0 -4 1 0 0 -1 3 0 0 -1 8 0M936 295l0 -2M936 294l14 0 0 -1 24 0"/>
<path stroke="blue" d="M50 23l46 0"/>
<text stroke="none" fill="white" font-size="16" x="106" y="32">
x1.vsampled_n
</text>
<path stroke="blue" d="M50 431l1 0 1 -7 0 -15 1 -14 0 -5 1 2M54 414l0 -37 1 -4 0 -17 1 -3 1 -2 0 -1 2 0 1 -1 4 0M64 350l0 -1M64 350l4 0 1 -1 48 0M117 363l0 -14M117 363l1 14M118 396l0 -19M118 396l1 2M119 400l0 -2M119 400l1 2M120 404l0 -2M120 404l1 0"/>
<path stroke="blue" d="M121 405l0 -1M121 405l425 0 0 -23 1 -3 0 -22 1 -5 0 -6 2 -2 4 0 0 -1M554 344l26 0 0 -1M580 344l26 0 0 -1 1 0M607 344l0 -1M607 344l26 0 0 -1M633 344l26 0 0 -1M659 344l20 0M679 351l0 -7M679 351l1 1 0 -3 113 0M793 350l0 -1"/>
<path stroke="blue" d="M793 350l1 0 0 -1 10 0M804 350l0 -1 26 0 1 1 0 -1 26 0M857 350l0 -1 26 0M883 350l0 -1 27 0M910 350l0 -1 11 0M921 350l0 -7M921 345l1 6M922 406l0 -55M922 406l1 1M923 408l0 -1 1 0 0 -1 1 0 0 -1 49 0"/>
<path stroke="#FFA500" d="M462 39l46 0"/>
<text stroke="none" fill="white" font-size="16" x="518" y="48">
x1.vsampled_p-x1.vsampled_n
</text>
<path stroke="#FFA500" d="M50 431l2 0 0 -1 2 0M54 431l0 -1M54 431l63 0 0 -15 1 -25 0 -48 1 -6 0 -6 1 -5 0 -3 1 -2 0 -1 2 0 1 -1 415 0M539 320l0 -1M539 320l1 0 0 -1M540 320l6 0M546 343l0 -24M546 343l1 3M547 367l0 -21M547 367l1 6M548 378l0 -5M548 378l1 2"/>
<path stroke="#FFA500" d="M549 380l1 1 17 0M567 382l0 -2M567 381l6 0 1 4M574 409l0 -24M574 409l1 10 1 3 17 0 0 -1M593 422l7 0M600 436l0 -14M600 436l1 3M601 443l0 -4M601 443l1 -1 23 0 0 -4 1 -3 0 -9 2 -2 25 0M653 433l0 -9M653 433l1 1M654 435l0 -1"/>
<path stroke="#FFA500" d="M654 435l1 0 0 -1 4 0M659 435l0 -1M659 435l13 0 0 -1 7 0M679 435l0 -8 1 -1M680 429l0 -3M680 429l26 0M706 433l0 -4M706 433l1 -1 25 0 0 -3M732 430l27 0M759 432l0 -2M759 431l34 0 0 -1 19 0M812 431l0 -1M812 431l109 0M921 434l0 -8"/>
<path stroke="#FFA500" d="M921 426l1 -6 0 -84 1 -2 0 -11 1 -1 0 -2 4 0 0 -1 8 0M936 321l0 -2M936 320l14 0 0 -1 12 0M962 320l0 -1 12 0"/>
<path stroke="green" d="M50 39l46 0"/>
<text stroke="none" fill="white" font-size="16" x="106" y="48">
x1.sw_sample-2
</text>
<path stroke="green" d="M50 613l1 0 1 -9 0 -21 1 -21M53 579l0 -23M53 579l1 31M54 613l0 -3M54 613l63 0M117 620l0 -172M117 449l422 0M539 614l0 -171M539 613l422 0M961 618l0 -170 1 1 12 0"/>
<path stroke="#FFC0C5" d="M462 55l46 0"/>
<text stroke="none" fill="white" font-size="16" x="518" y="64">
x1.comp_out_p+2
</text>
<path stroke="#FFC0C5" d="M50 249l1 0 1 -9 0 -22 1 -18 0 -4M53 198l1 5M54 250l0 -47M54 248l1 1 487 0 0 -165M542 85l13 0M555 250l0 -172M555 249l13 0 0 -165M568 85l13 0 0 -8 1 158M582 249l0 -14M582 249l12 0 0 -166M594 85l14 0M608 250l0 -173M608 249l39 0"/>
<path stroke="#FFC0C5" d="M647 250l0 -166M647 85l14 0M661 249l0 -167M661 249l39 0 0 -165M700 85l13 0 0 -7 1 144M714 249l0 -27M714 249l39 0 0 -165M753 85l13 0M766 250l0 -174M766 249l41 0 0 -165M807 85l12 0M819 250l0 -174M819 249l14 0 1 -157 0 -8"/>
<path stroke="#FFC0C5" d="M834 85l11 0 0 -7 1 146M846 249l0 -25M846 249l43 0 1 -157 0 -8M890 85l8 0M898 249l0 -172M898 249l39 0M937 250l0 -1M937 250l1 -58 0 -108M938 85l13 0M951 250l0 -168M951 249l23 0"/>
<path stroke="#A52A2A" d="M50 55l46 0"/>
<text stroke="none" fill="white" font-size="16" x="106" y="64">
x1.comp_out_n-2
</text>
<path stroke="#A52A2A" d="M50 613l1 0 1 -9 0 -22 1 -19M53 564l0 -3M53 564l1 6M54 614l0 -67 1 62M55 613l0 -4M55 613l566 0M621 614l0 -167M621 449l13 0M634 614l0 -173M634 614l1 -1 12 0M647 614l0 -1 26 0 1 4 0 -170M674 449l13 0M687 613l0 -172M687 613l40 0"/>
<path stroke="#A52A2A" d="M727 613l1 -157 0 -8M728 449l12 0M740 613l0 -172M740 613l47 0 1 -156 0 -9M788 449l5 0M793 613l0 -172M793 613l70 0 0 -158 1 -7M864 449l0 -1M864 449l8 0M872 613l0 -170M872 613l44 0 0 -165M916 449l9 0M925 614l0 -174M925 613l13 0"/>
<path stroke="#A52A2A" d="M938 614l0 -1 36 0"/>
</svg>
