<?xml version="1.0" standalone="yes"?>
<!DOCTYPE svg PUBLIC "-//W3C//DTD SVG 1.1//EN"
 "http://www.w3.org/Graphics/SVG/1.1/DTD/svg11.dtd">
<svg xmlns="http://www.w3.org/2000/svg" version="1.1"
  width="100%" height="100%" viewBox="0 0 1024 768"
  style="fill: none; font-family: Helvetica;
 font: Helvetica;
">

<!-- Creator: NGspice -->

<rect x="0" y="0" width="1024" height="768" fill="black" stroke="none"/>
<text stroke="none" fill="white" font-size="16" x="358" y="752">
time
</text>
<text stroke="none" fill="white" font-size="16" x="10" y="16">
tran1: run1056_vin0.0285631
</text>
<path stroke="white" d="M50 704l0 -637"/>
<text stroke="none" fill="white" font-size="16" x="35" y="728">
0.0
</text>
<path stroke="white" stroke-dasharray="1,2" d="M182 704l0 -637"/>
<text stroke="none" fill="white" font-size="16" x="157" y="728">
100.0
</text>
<path stroke="white" stroke-dasharray="1,2" d="M314 704l0 -637"/>
<text stroke="none" fill="white" font-size="16" x="289" y="728">
200.0
</text>
<path stroke="white" stroke-dasharray="1,2" d="M446 704l0 -637"/>
<text stroke="none" fill="white" font-size="16" x="421" y="728">
300.0
</text>
<path stroke="white" stroke-dasharray="1,2" d="M578 704l0 -637"/>
<text stroke="none" fill="white" font-size="16" x="553" y="728">
400.0
</text>
<path stroke="white" stroke-dasharray="1,2" d="M710 704l0 -637"/>
<text stroke="none" fill="white" font-size="16" x="685" y="728">
500.0
</text>
<path stroke="white" stroke-dasharray="1,2" d="M842 704l0 -637"/>
<text stroke="none" fill="white" font-size="16" x="817" y="728">
600.0
</text>
<path stroke="white" stroke-dasharray="1,2" d="M974 704l0 -637"/>
<text stroke="none" fill="white" font-size="16" x="949" y="728">
700.0
</text>
<text stroke="none" fill="white" font-size="16" x="614" y="752">
ns
</text>
<path stroke="white" stroke-dasharray="1,2" d="M50 704l924 0"/>
<text stroke="none" fill="white" font-size="16" x="8" y="712">
-3.0
</text>
<path stroke="white" stroke-dasharray="1,2" d="M50 613l924 0"/>
<text stroke="none" fill="white" font-size="16" x="8" y="621">
-2.0
</text>
<path stroke="white" stroke-dasharray="1,2" d="M50 522l924 0"/>
<text stroke="none" fill="white" font-size="16" x="8" y="530">
-1.0
</text>
<path stroke="white" d="M50 431l924 0"/>
<text stroke="none" fill="white" font-size="16" x="18" y="439">
0.0
</text>
<path stroke="white" stroke-dasharray="1,2" d="M50 340l924 0"/>
<text stroke="none" fill="white" font-size="16" x="18" y="348">
1.0
</text>
<path stroke="white" stroke-dasharray="1,2" d="M50 249l924 0"/>
<text stroke="none" fill="white" font-size="16" x="18" y="257">
2.0
</text>
<path stroke="white" stroke-dasharray="1,2" d="M50 158l924 0"/>
<text stroke="none" fill="white" font-size="16" x="18" y="166">
3.0
</text>
<path stroke="white" stroke-dasharray="1,2" d="M50 67l924 0"/>
<text stroke="none" fill="white" font-size="16" x="18" y="75">
4.0
</text>
<text stroke="none" fill="white" font-size="16" x="10" y="32">
     
</text>
<path stroke="red" d="M462 23l46 0"/>
<text stroke="none" fill="white" font-size="16" x="518" y="32">
x1.vsampled_p
</text>
<path stroke="red" d="M50 431l1 0 1 -7 0 -15 1 -15 0 -4 1 1M54 415l0 -39 1 -5 0 -15 1 -3 0 -2 1 -1 2 0 1 -1 4 0M64 350l0 -1M64 350l4 0 1 -1 48 0 1 -1 0 -1 421 0 0 -1M539 347l15 0 0 -1M554 347l26 0 0 -1M580 347l26 0 0 -1M606 347l27 0 0 -1M633 347l26 0"/>
<path stroke="red" d="M659 347l0 -1M659 347l27 0 0 -1M686 347l20 0M706 350l0 -3M706 350l1 0 0 -1 18 0M725 350l0 -1 26 0M751 350l0 -1 27 0M778 350l0 -1 26 0M804 350l0 -1 27 0M831 350l0 -1 26 0M857 350l0 -1 26 0M883 350l0 -1 27 0M910 350l0 -1 8 0"/>
<path stroke="red" d="M918 349l0 -3 1 0M919 347l0 -1M919 347l4 0 0 -1M923 347l27 0 0 -1M950 347l12 0 0 -1 3 0 1 1 8 0"/>
<path stroke="blue" d="M50 23l46 0"/>
<text stroke="none" fill="white" font-size="16" x="106" y="32">
x1.vsampled_n
</text>
<path stroke="blue" d="M50 431l1 0 1 -7 0 -15 1 -14 0 -5 1 1M54 415l0 -39 1 -5 0 -15 1 -3 0 -2 1 -1 2 0 1 -1 4 0M64 350l0 -1M64 350l4 0 1 -1 48 0 1 1M118 351l0 -1M118 351l1 0M119 352l0 -1M119 352l427 0 1 -3 0 -40 1 -8 0 -7 1 -1 0 -1 1 -1 4 0"/>
<path stroke="blue" d="M554 291l0 -1 12 0 1 1M567 292l0 -1 7 0M574 320l0 -29M574 320l1 7M575 333l0 -6M575 333l2 0 0 -1 3 0 0 -1 13 0M593 332l0 -1M593 332l7 0M600 348l0 -16M600 348l1 3M601 355l0 -4M601 354l1 -1 0 -1 23 0 0 -1 1 -5 0 -12 20 0M646 335l0 -1"/>
<path stroke="blue" d="M646 334l7 0M653 344l0 -10M653 344l1 1M654 346l0 -1 1 0 0 -1 17 0M672 345l0 -1 7 0M679 350l0 -6M679 350l1 0M680 351l0 -1 1 0 0 -1 17 0 1 1 0 -1 26 0M725 350l0 -1 7 0 1 -2 0 -1M733 347l18 0M751 348l0 -1 8 0M759 350l0 -3"/>
<path stroke="blue" d="M759 348l19 0M778 349l0 -1 7 0M785 349l0 -1M785 349l1 0M786 350l0 -1 26 0M812 350l0 -1M812 350l1 -1 17 0 1 1 0 -1 86 0 1 1M918 353l0 -3M918 352l56 0"/>
<path stroke="#FFA500" d="M462 39l46 0"/>
<text stroke="none" fill="white" font-size="16" x="518" y="48">
x1.vsampled_p-x1.vsampled_n
</text>
<path stroke="#FFA500" d="M50 431l67 0 1 -2 0 -1 1 -1 0 -1 427 0 1 3M547 469l0 -40M547 469l1 7M548 484l0 -8M548 484l1 1M549 486l0 -1M549 486l1 1 4 0M554 488l0 -1 13 0 0 -1M567 487l7 0 0 -29 1 -7 0 -6 1 -1 1 1M577 446l0 -1M577 446l23 0 0 -17 1 -3"/>
<path stroke="#FFA500" d="M601 426l0 -4M601 423l1 1M602 426l0 -2M602 426l23 0M625 427l0 -1M625 427l1 5M626 443l0 -11M626 443l1 1 19 0 0 -1M646 444l7 0 0 -10 1 -1 0 -1M654 433l5 0M659 434l0 -1 13 0M672 434l0 -1 7 0M679 434l0 -6 1 -1M680 428l0 -2"/>
<path stroke="#FFA500" d="M680 428l26 0M706 432l0 -4M706 432l1 0 0 -1 25 0 1 2M733 434l0 -1 26 0 0 -2M759 432l26 0 0 -1 27 0 0 -1M812 431l26 0M838 432l0 -1 80 0 0 -6 1 0M919 426l0 -1M919 426l55 0"/>
<path stroke="green" d="M50 39l46 0"/>
<text stroke="none" fill="white" font-size="16" x="106" y="48">
x1.sw_sample-2
</text>
<path stroke="green" d="M50 613l1 0 1 -9 0 -21 1 -21M53 582l0 -26M53 582l1 28M54 613l0 -3M54 613l63 0M117 620l0 -172M117 449l422 0M539 614l0 -173M539 613l422 0M961 618l0 -170 1 1 12 0"/>
<path stroke="#FFC0C5" d="M462 55l46 0"/>
<text stroke="none" fill="white" font-size="16" x="518" y="64">
x1.comp_out_p+2
</text>
<path stroke="#FFC0C5" d="M50 249l1 0 1 -9 0 -22 1 -18 0 -4M53 198l1 5M54 249l0 -46M54 249l488 0 0 -165M542 85l13 0M555 249l0 -171M555 249l66 0M621 253l0 -170M621 85l13 0M634 249l0 -173M634 249l66 0M700 250l0 -167M700 85l13 0 0 -7 1 147M714 249l0 -24"/>
<path stroke="#FFC0C5" d="M714 249l14 0 0 -157 1 -8M729 85l0 -1M729 85l11 0M740 249l0 -173M740 249l94 0 0 -165M834 85l11 0 0 -10 1 142M846 249l0 -32M846 249l92 0M938 252l0 -169M938 85l13 0M951 249l0 -172M951 249l23 0"/>
<path stroke="#A52A2A" d="M50 55l46 0"/>
<text stroke="none" fill="white" font-size="16" x="106" y="64">
x1.comp_out_n-2
</text>
<path stroke="#A52A2A" d="M50 613l1 0 1 -9 0 -22 1 -19M53 564l0 -3M53 564l1 6M54 613l0 -43M54 613l514 0M568 614l0 -166M568 449l13 0 0 -9 1 164M582 613l0 -9M582 613l12 0M594 614l0 -166M594 449l14 0M608 613l0 -172M608 613l39 0 0 -165M647 449l14 0"/>
<path stroke="#A52A2A" d="M661 613l0 -167M661 613l12 0 1 5 0 -171M674 449l13 0M687 613l0 -171M687 613l66 0 0 -165M753 449l13 0M766 614l0 -174M766 614l1 -1 13 0 0 -165M780 449l13 0M793 614l0 -169M793 613l14 0 0 -165 1 1 11 0M819 614l0 -171M819 613l41 0"/>
<path stroke="#A52A2A" d="M860 613l0 -165M860 449l12 0M872 613l0 -168M872 613l14 0 0 -158 1 -7M887 449l0 -1M887 449l11 0M898 613l0 -168M898 613l15 0 0 -165M913 449l12 0M925 613l0 -168M925 613l49 0"/>
</svg>
