<?xml version="1.0" standalone="yes"?>
<!DOCTYPE svg PUBLIC "-//W3C//DTD SVG 1.1//EN"
 "http://www.w3.org/Graphics/SVG/1.1/DTD/svg11.dtd">
<svg xmlns="http://www.w3.org/2000/svg" version="1.1"
  width="100%" height="100%" viewBox="0 0 1024 768"
  style="fill: none; font-family: Helvetica;
 font: Helvetica;
">

<!-- Creator: NGspice -->

<rect x="0" y="0" width="1024" height="768" fill="black" stroke="none"/>
<text stroke="none" fill="white" font-size="16" x="358" y="752">
time
</text>
<text stroke="none" fill="white" font-size="16" x="10" y="16">
tran1: run163_vin-0.680534
</text>
<path stroke="white" d="M50 704l0 -637"/>
<text stroke="none" fill="white" font-size="16" x="35" y="728">
0.0
</text>
<path stroke="white" stroke-dasharray="1,2" d="M182 704l0 -637"/>
<text stroke="none" fill="white" font-size="16" x="157" y="728">
100.0
</text>
<path stroke="white" stroke-dasharray="1,2" d="M314 704l0 -637"/>
<text stroke="none" fill="white" font-size="16" x="289" y="728">
200.0
</text>
<path stroke="white" stroke-dasharray="1,2" d="M446 704l0 -637"/>
<text stroke="none" fill="white" font-size="16" x="421" y="728">
300.0
</text>
<path stroke="white" stroke-dasharray="1,2" d="M578 704l0 -637"/>
<text stroke="none" fill="white" font-size="16" x="553" y="728">
400.0
</text>
<path stroke="white" stroke-dasharray="1,2" d="M710 704l0 -637"/>
<text stroke="none" fill="white" font-size="16" x="685" y="728">
500.0
</text>
<path stroke="white" stroke-dasharray="1,2" d="M842 704l0 -637"/>
<text stroke="none" fill="white" font-size="16" x="817" y="728">
600.0
</text>
<path stroke="white" stroke-dasharray="1,2" d="M974 704l0 -637"/>
<text stroke="none" fill="white" font-size="16" x="949" y="728">
700.0
</text>
<text stroke="none" fill="white" font-size="16" x="614" y="752">
ns
</text>
<path stroke="white" stroke-dasharray="1,2" d="M50 704l924 0"/>
<text stroke="none" fill="white" font-size="16" x="8" y="712">
-3.0
</text>
<path stroke="white" stroke-dasharray="1,2" d="M50 613l924 0"/>
<text stroke="none" fill="white" font-size="16" x="8" y="621">
-2.0
</text>
<path stroke="white" stroke-dasharray="1,2" d="M50 522l924 0"/>
<text stroke="none" fill="white" font-size="16" x="8" y="530">
-1.0
</text>
<path stroke="white" d="M50 431l924 0"/>
<text stroke="none" fill="white" font-size="16" x="18" y="439">
0.0
</text>
<path stroke="white" stroke-dasharray="1,2" d="M50 340l924 0"/>
<text stroke="none" fill="white" font-size="16" x="18" y="348">
1.0
</text>
<path stroke="white" stroke-dasharray="1,2" d="M50 249l924 0"/>
<text stroke="none" fill="white" font-size="16" x="18" y="257">
2.0
</text>
<path stroke="white" stroke-dasharray="1,2" d="M50 158l924 0"/>
<text stroke="none" fill="white" font-size="16" x="18" y="166">
3.0
</text>
<path stroke="white" stroke-dasharray="1,2" d="M50 67l924 0"/>
<text stroke="none" fill="white" font-size="16" x="18" y="75">
4.0
</text>
<text stroke="none" fill="white" font-size="16" x="10" y="32">
     
</text>
<path stroke="red" d="M462 23l46 0"/>
<text stroke="none" fill="white" font-size="16" x="518" y="32">
x1.vsampled_p
</text>
<path stroke="red" d="M50 431l1 0 1 -7 0 -15 1 -14 0 -5 1 2M54 414l0 -38 1 -4 0 -14 1 -3 0 -2 1 -2 0 -1 2 0 1 -1 3 0 1 1 4 0 1 -1 48 0M117 365l0 -16M117 365l1 16M118 401l0 -20M118 401l1 2M119 408l0 -5M119 408l2 2M121 411l0 -1M121 411l425 0 0 -26"/>
<path stroke="red" d="M546 385l1 -4 0 -21 1 -6 0 -2 2 -2 4 0 0 -1M554 350l72 0 0 -16 1 -2 0 -1 1 0 1 1 4 0 0 -1M633 332l13 0M646 333l0 -1 7 0M653 343l0 -11M653 343l1 1M654 345l0 -2 1 0 0 -1 17 0M672 343l0 -1 7 0M679 350l0 -8M679 350l1 1 0 -3"/>
<path stroke="red" d="M680 348l1 -1 17 0 1 1 0 -1 7 0M706 352l0 -5M706 352l1 -1 0 -1 25 0 0 -4M732 347l1 0M733 348l0 -1M733 348l5 0 0 -1 1 0M739 348l0 -1M739 348l20 0M759 351l0 -3M759 349l53 0M812 350l0 -1 19 0M831 350l0 -1 26 0M857 350l0 -1"/>
<path stroke="red" d="M857 349l26 0M883 350l0 -1 27 0M910 350l0 -1 7 0M917 350l0 -1 1 6M918 415l0 -60M918 415l1 0M919 416l0 -2 1 -1 0 -1 1 0 0 -1 53 0"/>
<path stroke="blue" d="M50 23l46 0"/>
<text stroke="none" fill="white" font-size="16" x="106" y="32">
x1.vsampled_n
</text>
<path stroke="blue" d="M50 431l1 0 1 -7 0 -15 1 -15 0 -5 1 2M54 414l0 -38 1 -4 0 -14 1 -3 0 -2 1 -2 0 -1 2 0 1 -1 3 0 1 1 5 0 0 -1 48 0 0 -1 1 -11 0 -32 1 -5 0 -8 1 -2 1 -1 0 -1 1 -1 417 0M539 288l0 -1M539 288l1 -1M540 288l0 -1M540 288l14 0 0 -1"/>
<path stroke="blue" d="M554 287l12 0 1 1M567 289l0 -1 7 0M574 313l0 -25M574 313l1 9M575 328l0 -6M575 328l18 0M593 329l0 -1 7 0M600 342l0 -14M600 342l1 2M601 350l0 -6M601 349l185 0M786 350l0 -1M786 350l1 -1 17 0M804 350l0 -1 26 0 1 1 0 -1 86 0"/>
<path stroke="blue" d="M917 350l0 -11 1 -4 0 -29 1 -4 0 -9 1 -3 0 -1 1 -1 2 0 0 -1 13 0M936 289l0 -2M936 288l14 0 0 -1 24 0"/>
<path stroke="#FFA500" d="M462 39l46 0"/>
<text stroke="none" fill="white" font-size="16" x="518" y="48">
x1.vsampled_p-x1.vsampled_n
</text>
<path stroke="#FFA500" d="M50 431l2 0M52 432l0 -1M52 432l2 0 0 -1 63 0M117 449l0 -18M117 449l1 26M118 527l0 -52M118 527l1 7M119 547l0 -13M119 547l2 6M121 554l0 -1M121 554l1 0 1 1 417 0 0 -1M540 555l1 0 0 -1M541 555l5 0 0 -27 1 -3 0 -21 1 -6 0 -3"/>
<path stroke="#FFA500" d="M548 495l1 -1 1 0 0 -1 4 0M554 494l0 -1 13 0M567 494l0 -2M567 493l7 0 0 -25 1 -9 0 -6 1 -1 4 0M580 453l0 -1M580 453l13 0 0 -1 7 0M600 453l0 -14 1 -2 0 -6 1 1 24 0 0 -16 1 -1 0 -2 1 0M628 414l0 -1M628 414l18 0M646 415l0 -1"/>
<path stroke="#FFA500" d="M646 414l7 0M653 425l0 -11M653 425l1 2 0 -2 2 0 0 -1 16 0M672 425l0 -1M672 425l1 -1 6 0M679 432l0 -8M679 432l1 1 0 -3 6 0 0 -1M686 430l20 0M706 434l0 -4M706 434l1 -1 0 -1 25 0 0 -4M732 429l1 0M733 430l0 -1M733 430l26 0"/>
<path stroke="#FFA500" d="M759 433l0 -3M759 431l27 0 0 -1 1 0M787 431l0 -1M787 431l4 0 0 -1 4 0M795 431l0 -1M795 431l9 0 0 -1 1 0M805 431l0 -1M805 431l7 0M812 432l0 -1 105 0M917 441l0 -11M917 441l1 10M918 539l0 -88M918 539l1 5M919 552l0 -8M919 552l1 1"/>
<path stroke="#FFA500" d="M920 554l0 -1M920 554l2 0M922 555l0 -1M922 555l14 0 0 -2M936 555l38 0"/>
<path stroke="green" d="M50 39l46 0"/>
<text stroke="none" fill="white" font-size="16" x="106" y="48">
x1.sw_sample-2
</text>
<path stroke="green" d="M50 613l1 0 1 -9 0 -21 1 -21M53 579l0 -23M53 579l1 31M54 613l0 -3M54 613l63 0M117 620l0 -172M117 449l422 0M539 614l0 -171M539 613l422 0M961 618l0 -170 1 1 12 0"/>
<path stroke="#FFC0C5" d="M462 55l46 0"/>
<text stroke="none" fill="white" font-size="16" x="518" y="64">
x1.comp_out_p+2
</text>
<path stroke="#FFC0C5" d="M50 249l1 0 1 -9 0 -22 1 -18 0 -4M53 198l1 5M54 250l0 -47M54 238l1 10M55 249l0 -1M55 249l592 0M647 250l0 -166M647 85l14 0M661 249l0 -171M661 249l12 0 0 -22 1 -116 0 -28M674 85l13 0M687 250l0 -172M687 249l13 0 0 -165"/>
<path stroke="#FFC0C5" d="M700 85l13 0 0 -7 1 147M714 249l0 -24M714 249l39 0 0 -165M753 85l13 0M766 250l0 -174M766 249l40 0 1 -156 0 -9M807 85l12 0M819 249l0 -173M819 249l15 0 0 -165M834 85l11 0M845 87l0 -4M845 87l1 148M846 249l0 -14M846 249l128 0"/>
<path stroke="#A52A2A" d="M50 55l46 0"/>
<text stroke="none" fill="white" font-size="16" x="106" y="64">
x1.comp_out_n-2
</text>
<path stroke="#A52A2A" d="M50 613l1 0 1 -9 0 -22 1 -19M53 564l0 -3M53 564l1 6M54 613l0 -43M54 612l1 1 487 0 0 -165M542 449l13 0M555 613l0 -172M555 613l13 0M568 614l0 -166M568 449l13 0M581 602l0 -162M581 602l1 11 12 0M594 616l0 -169M594 449l14 0"/>
<path stroke="#A52A2A" d="M608 613l0 -173M608 613l14 0 0 -165M622 449l12 0M634 613l0 -173M634 613l13 0M647 614l0 -1 80 0 0 -151 1 -13 0 -1M728 449l12 0M740 613l0 -173M740 613l40 0M780 614l0 -1M780 614l1 -152 0 -14M781 449l12 0M793 613l0 -174"/>
<path stroke="#A52A2A" d="M793 613l67 0 0 -165M860 449l12 0M872 613l0 -174M872 613l14 0 0 -158 1 -7M887 449l0 -1M887 449l11 0M898 613l0 -174M898 613l14 0 1 -158 0 -7M913 449l12 0M925 613l0 -172M925 613l12 0 1 -56 0 -109M938 449l13 0M951 613l0 -169"/>
<path stroke="#A52A2A" d="M951 613l23 0"/>
</svg>
