<?xml version="1.0" standalone="yes"?>
<!DOCTYPE svg PUBLIC "-//W3C//DTD SVG 1.1//EN"
 "http://www.w3.org/Graphics/SVG/1.1/DTD/svg11.dtd">
<svg xmlns="http://www.w3.org/2000/svg" version="1.1"
  width="100%" height="100%" viewBox="0 0 1024 768"
  style="fill: none; font-family: Helvetica;
 font: Helvetica;
">

<!-- Creator: NGspice -->

<rect x="0" y="0" width="1024" height="768" fill="black" stroke="none"/>
<text stroke="none" fill="white" font-size="16" x="358" y="752">
time
</text>
<text stroke="none" fill="white" font-size="16" x="10" y="16">
tran1: run160_vin-0.569823
</text>
<path stroke="white" d="M50 704l0 -637"/>
<text stroke="none" fill="white" font-size="16" x="35" y="728">
0.0
</text>
<path stroke="white" stroke-dasharray="1,2" d="M182 704l0 -637"/>
<text stroke="none" fill="white" font-size="16" x="157" y="728">
100.0
</text>
<path stroke="white" stroke-dasharray="1,2" d="M314 704l0 -637"/>
<text stroke="none" fill="white" font-size="16" x="289" y="728">
200.0
</text>
<path stroke="white" stroke-dasharray="1,2" d="M446 704l0 -637"/>
<text stroke="none" fill="white" font-size="16" x="421" y="728">
300.0
</text>
<path stroke="white" stroke-dasharray="1,2" d="M578 704l0 -637"/>
<text stroke="none" fill="white" font-size="16" x="553" y="728">
400.0
</text>
<path stroke="white" stroke-dasharray="1,2" d="M710 704l0 -637"/>
<text stroke="none" fill="white" font-size="16" x="685" y="728">
500.0
</text>
<path stroke="white" stroke-dasharray="1,2" d="M842 704l0 -637"/>
<text stroke="none" fill="white" font-size="16" x="817" y="728">
600.0
</text>
<path stroke="white" stroke-dasharray="1,2" d="M974 704l0 -637"/>
<text stroke="none" fill="white" font-size="16" x="949" y="728">
700.0
</text>
<text stroke="none" fill="white" font-size="16" x="614" y="752">
ns
</text>
<path stroke="white" stroke-dasharray="1,2" d="M50 704l924 0"/>
<text stroke="none" fill="white" font-size="16" x="8" y="712">
-2.5
</text>
<path stroke="white" stroke-dasharray="1,2" d="M50 655l924 0"/>
<text stroke="none" fill="white" font-size="16" x="8" y="663">
-2.0
</text>
<path stroke="white" stroke-dasharray="1,2" d="M50 606l924 0"/>
<text stroke="none" fill="white" font-size="16" x="8" y="614">
-1.5
</text>
<path stroke="white" stroke-dasharray="1,2" d="M50 557l924 0"/>
<text stroke="none" fill="white" font-size="16" x="8" y="565">
-1.0
</text>
<path stroke="white" stroke-dasharray="1,2" d="M50 508l924 0"/>
<text stroke="none" fill="white" font-size="16" x="8" y="516">
-0.5
</text>
<path stroke="white" d="M50 459l924 0"/>
<text stroke="none" fill="white" font-size="16" x="18" y="467">
0.0
</text>
<path stroke="white" stroke-dasharray="1,2" d="M50 410l924 0"/>
<text stroke="none" fill="white" font-size="16" x="18" y="418">
0.5
</text>
<path stroke="white" stroke-dasharray="1,2" d="M50 361l924 0"/>
<text stroke="none" fill="white" font-size="16" x="18" y="369">
1.0
</text>
<path stroke="white" stroke-dasharray="1,2" d="M50 312l924 0"/>
<text stroke="none" fill="white" font-size="16" x="18" y="320">
1.5
</text>
<path stroke="white" stroke-dasharray="1,2" d="M50 263l924 0"/>
<text stroke="none" fill="white" font-size="16" x="18" y="271">
2.0
</text>
<path stroke="white" stroke-dasharray="1,2" d="M50 214l924 0"/>
<text stroke="none" fill="white" font-size="16" x="18" y="222">
2.5
</text>
<path stroke="white" stroke-dasharray="1,2" d="M50 165l924 0"/>
<text stroke="none" fill="white" font-size="16" x="18" y="173">
3.0
</text>
<path stroke="white" stroke-dasharray="1,2" d="M50 116l924 0"/>
<text stroke="none" fill="white" font-size="16" x="18" y="124">
3.5
</text>
<path stroke="white" stroke-dasharray="1,2" d="M50 67l924 0"/>
<text stroke="none" fill="white" font-size="16" x="18" y="75">
4.0
</text>
<text stroke="none" fill="white" font-size="16" x="10" y="32">
     
</text>
<path stroke="red" d="M462 23l46 0"/>
<text stroke="none" fill="white" font-size="16" x="518" y="32">
x1.vsampled_p
</text>
<path stroke="red" d="M50 459l1 0 1 -7 0 -17 1 -15 0 -5 1 2M54 441l0 -40 1 -4 0 -19 1 -3 1 -2 0 -1 1 0 0 -1 59 0M117 384l0 -13M117 384l1 14M118 418l0 -20M118 418l1 2M119 422l0 -2M119 422l1 2M120 425l0 -1M120 425l1 1 1 0M122 427l0 -1M122 427l424 0"/>
<path stroke="red" d="M546 427l0 -30 1 -5 0 -20 1 -4 0 -4 1 -1 0 -1 1 -1 4 0 0 -1M554 361l13 0M567 362l0 -1 13 0 0 -1M580 361l26 0 0 -1 1 0M607 361l0 -1M607 361l12 0M619 362l0 -1 14 0 0 -1M633 361l20 0M653 372l0 -11M653 372l1 2M654 375l0 -1 1 -1"/>
<path stroke="red" d="M655 373l0 -1 4 0 0 -1M659 372l73 0 0 -4M732 369l19 0M751 370l0 -1M751 370l1 0 0 -1 7 0M759 372l0 -3M759 371l6 0 0 -1M765 371l26 0 0 -1M791 371l22 0M813 372l0 -1 18 0M831 372l0 -1 7 0 0 -1M838 371l6 0 0 -1M844 371l26 0 0 -1"/>
<path stroke="red" d="M870 371l27 0 0 -1M897 371l21 0M918 422l0 -53M918 422l1 5M919 433l0 -6M919 433l1 -1 0 -3 1 -1 0 -1 53 0"/>
<path stroke="blue" d="M50 23l46 0"/>
<text stroke="none" fill="white" font-size="16" x="106" y="32">
x1.vsampled_n
</text>
<path stroke="blue" d="M50 459l1 0 1 -7 0 -17 1 -16 0 -5 1 2M54 441l0 -40 1 -4 0 -19 1 -3 1 -2 0 -1 1 0 0 -1 59 0 0 -1 1 -11 0 -30 1 -4 0 -3 1 -3 0 -2 2 -2 418 0M540 316l0 -1 26 0 1 1M567 317l0 -2 7 0M574 340l0 -25M574 340l1 8M575 357l0 -9M575 357l1 2"/>
<path stroke="blue" d="M576 359l17 0M593 360l0 -1 7 0M600 372l0 -13M600 372l1 3M601 382l0 -7M601 382l1 -1 23 0 0 -11 1 -2 0 -4 1 -1 0 -1 52 0M679 367l0 -5M679 367l1 1M680 369l0 -1 6 0 0 -1 12 0 1 1 0 -1M699 368l6 0 1 -1M706 371l0 -4M706 371l1 -1"/>
<path stroke="blue" d="M707 370l18 0M725 371l0 -1 26 0M751 371l0 -1M751 371l1 0 0 -1 26 0M778 371l0 -1 7 0 1 1 132 0 0 -26 1 -3 0 -11 1 -4 0 -6 1 -3 0 -2 2 0 0 -1 13 0M936 317l0 -2 38 0"/>
<path stroke="#FFA500" d="M462 39l46 0"/>
<text stroke="none" fill="white" font-size="16" x="518" y="48">
x1.vsampled_p-x1.vsampled_n
</text>
<path stroke="#FFA500" d="M50 459l2 0M52 460l0 -1M52 460l2 0 0 -1 63 0M117 473l0 -14M117 473l1 26M118 547l0 -48M118 547l1 7M119 560l0 -6M119 560l1 4M120 568l0 -4M120 568l3 3 416 0 0 -1 1 1 0 -1 6 0M546 571l0 -31 1 -4 0 -20 1 -5 0 -4 1 -1 0 -1"/>
<path stroke="#FFA500" d="M549 505l2 0 1 -1 2 0M554 505l0 -1M554 505l12 0 1 -1M567 505l0 -1 6 0 1 1 0 -25 1 -9 0 -9 1 -1 0 -1 1 0 1 1 2 0 0 -1 1 0M581 461l0 -1M581 461l12 0 0 -1M593 461l7 0 0 -13 1 -3 0 -8M601 438l1 0M602 439l0 -1M602 439l4 0"/>
<path stroke="#FFA500" d="M606 439l0 -1 2 0M608 439l0 -1M608 439l11 0 0 -1M619 439l6 0M625 450l0 -11M625 450l1 1M626 456l0 -5M626 456l2 2 25 0M653 469l0 -11M653 469l1 2M654 472l0 -1 1 -2 24 0 0 -5 1 -1 0 -1M680 463l19 0M699 464l0 -1 7 0 0 -3"/>
<path stroke="#FFA500" d="M706 460l1 0M707 461l0 -1M707 461l5 0 0 -1M712 461l13 0 0 -1M725 461l7 0 0 -5M732 458l27 0M759 461l0 -3M759 460l1 0 1 -1 17 0M778 460l0 -1 8 0 0 -1M786 459l27 0M813 460l0 -1 25 0 0 -1M838 459l80 0M918 537l0 -78M918 537l1 6"/>
<path stroke="#FFA500" d="M919 561l0 -18M919 561l1 2M920 567l0 -4M920 567l1 2M921 570l0 -1M921 570l2 0M923 571l0 -1M923 571l13 0 0 -2M936 570l14 0M950 571l0 -1M950 571l24 0"/>
<path stroke="green" d="M50 39l46 0"/>
<text stroke="none" fill="white" font-size="16" x="106" y="48">
x1.sw_sample-2
</text>
<path stroke="green" d="M50 655l1 0 1 -10 0 -23 1 -21M53 619l0 -25M53 619l1 33M54 655l0 -3M54 655l63 0M117 662l0 -184 1 0M118 479l0 -1M118 479l421 0M539 656l0 -184M539 655l422 0M961 660l0 -182 1 0M962 479l0 -1M962 479l12 0"/>
<path stroke="#FFC0C5" d="M462 55l46 0"/>
<text stroke="none" fill="white" font-size="16" x="518" y="64">
x1.comp_out_p+2
</text>
<path stroke="#FFC0C5" d="M50 263l1 0 1 -10 0 -23 1 -20 0 -4M53 209l1 4M54 264l0 -83 1 77M55 263l0 -5M55 263l566 0M621 264l0 -179M621 87l13 0M634 263l0 -186M634 263l13 0M647 265l0 -180M647 87l14 0M661 263l0 -179M661 263l92 0 0 -178 1 1M754 87l0 -1"/>
<path stroke="#FFC0C5" d="M754 87l12 0M766 263l0 -179M766 263l41 0 0 -177 1 1 11 0M819 264l0 -184M819 263l41 0 0 -177M860 87l12 0M872 264l0 -182M872 263l14 0 0 -159 1 -18M887 87l0 -1M887 87l11 0M898 264l0 -182M898 263l15 0 0 -177M913 87l12 0"/>
<path stroke="#FFC0C5" d="M925 263l0 -185M925 263l49 0"/>
<path stroke="#A52A2A" d="M50 55l46 0"/>
<text stroke="none" fill="white" font-size="16" x="106" y="64">
x1.comp_out_n-2
</text>
<path stroke="#A52A2A" d="M50 655l1 0 1 -10 0 -24 1 -20M53 602l0 -3M53 602l1 7M54 657l0 -48M54 654l1 1 486 0 1 1 0 -180M542 479l13 0M555 655l0 -186M555 655l13 0M568 656l0 -180M568 479l13 0 0 -4 1 102M582 656l0 -79M582 655l12 0M594 656l0 -179"/>
<path stroke="#A52A2A" d="M594 477l1 1M595 479l0 -1M595 479l13 0M608 655l0 -185M608 655l13 0M621 656l0 -1 52 0M673 657l0 -2M673 657l1 -109 0 -72M674 479l13 0M687 655l0 -186M687 655l13 0 0 -178M700 479l13 0 1 -10M714 656l0 -187M714 655l13 0 0 -177"/>
<path stroke="#A52A2A" d="M727 478l1 1 12 0M740 655l0 -184M740 655l40 0 0 -177 1 0M781 479l0 -1M781 479l12 0M793 655l0 -185M793 655l41 0 0 -177 1 1 10 0 0 -12 1 168M846 655l0 -20M846 655l91 0M937 662l0 -7M937 662l1 -156 0 -29M938 479l13 0M951 656l0 -186"/>
<path stroke="#A52A2A" d="M951 655l23 0"/>
</svg>
