<?xml version="1.0" standalone="yes"?>
<!DOCTYPE svg PUBLIC "-//W3C//DTD SVG 1.1//EN"
 "http://www.w3.org/Graphics/SVG/1.1/DTD/svg11.dtd">
<svg xmlns="http://www.w3.org/2000/svg" version="1.1"
  width="100%" height="100%" viewBox="0 0 1024 768"
  style="fill: none; font-family: Helvetica;
 font: Helvetica;
">

<!-- Creator: NGspice -->

<rect x="0" y="0" width="1024" height="768" fill="black" stroke="none"/>
<text stroke="none" fill="white" font-size="16" x="358" y="752">
time
</text>
<text stroke="none" fill="white" font-size="16" x="10" y="16">
tran1: run1694_vin0.589305
</text>
<path stroke="white" d="M50 704l0 -637"/>
<text stroke="none" fill="white" font-size="16" x="35" y="728">
0.0
</text>
<path stroke="white" stroke-dasharray="1,2" d="M182 704l0 -637"/>
<text stroke="none" fill="white" font-size="16" x="157" y="728">
100.0
</text>
<path stroke="white" stroke-dasharray="1,2" d="M314 704l0 -637"/>
<text stroke="none" fill="white" font-size="16" x="289" y="728">
200.0
</text>
<path stroke="white" stroke-dasharray="1,2" d="M446 704l0 -637"/>
<text stroke="none" fill="white" font-size="16" x="421" y="728">
300.0
</text>
<path stroke="white" stroke-dasharray="1,2" d="M578 704l0 -637"/>
<text stroke="none" fill="white" font-size="16" x="553" y="728">
400.0
</text>
<path stroke="white" stroke-dasharray="1,2" d="M710 704l0 -637"/>
<text stroke="none" fill="white" font-size="16" x="685" y="728">
500.0
</text>
<path stroke="white" stroke-dasharray="1,2" d="M842 704l0 -637"/>
<text stroke="none" fill="white" font-size="16" x="817" y="728">
600.0
</text>
<path stroke="white" stroke-dasharray="1,2" d="M974 704l0 -637"/>
<text stroke="none" fill="white" font-size="16" x="949" y="728">
700.0
</text>
<text stroke="none" fill="white" font-size="16" x="614" y="752">
ns
</text>
<path stroke="white" stroke-dasharray="1,2" d="M50 704l924 0"/>
<text stroke="none" fill="white" font-size="16" x="8" y="712">
-3.0
</text>
<path stroke="white" stroke-dasharray="1,2" d="M50 613l924 0"/>
<text stroke="none" fill="white" font-size="16" x="8" y="621">
-2.0
</text>
<path stroke="white" stroke-dasharray="1,2" d="M50 522l924 0"/>
<text stroke="none" fill="white" font-size="16" x="8" y="530">
-1.0
</text>
<path stroke="white" d="M50 431l924 0"/>
<text stroke="none" fill="white" font-size="16" x="18" y="439">
0.0
</text>
<path stroke="white" stroke-dasharray="1,2" d="M50 340l924 0"/>
<text stroke="none" fill="white" font-size="16" x="18" y="348">
1.0
</text>
<path stroke="white" stroke-dasharray="1,2" d="M50 249l924 0"/>
<text stroke="none" fill="white" font-size="16" x="18" y="257">
2.0
</text>
<path stroke="white" stroke-dasharray="1,2" d="M50 158l924 0"/>
<text stroke="none" fill="white" font-size="16" x="18" y="166">
3.0
</text>
<path stroke="white" stroke-dasharray="1,2" d="M50 67l924 0"/>
<text stroke="none" fill="white" font-size="16" x="18" y="75">
4.0
</text>
<text stroke="none" fill="white" font-size="16" x="10" y="32">
     
</text>
<path stroke="red" d="M462 23l46 0"/>
<text stroke="none" fill="white" font-size="16" x="518" y="32">
x1.vsampled_p
</text>
<path stroke="red" d="M50 431l1 0 1 -7 0 -15 1 -15 0 -4 1 1M54 414l0 -37 1 -4 0 -17 1 -2 0 -3 1 -1 2 0 1 -1 4 0M64 350l0 -1M64 350l4 0 1 -1 48 0 0 -1 1 -10 0 -23 1 -6 0 -7 1 -3 0 -2 1 -1 3 0 0 -1 415 0M539 296l0 -1M539 296l1 0M540 297l0 -1 14 0"/>
<path stroke="red" d="M554 296l0 -1M554 296l13 0M567 297l0 -1 7 0M574 319l0 -23M574 319l1 7M575 335l0 -9M575 335l1 2 4 0 0 -1M580 337l20 0M600 350l0 -14M600 350l1 3M601 358l0 -5M601 358l1 -1 23 0 0 -7 1 -1 0 -8 2 -2 18 0M646 340l0 -1 7 0M653 346l0 -7"/>
<path stroke="red" d="M653 346l1 2M654 350l0 -2M654 350l1 0 0 -1 17 0M672 350l0 -1 26 0 1 1 0 -1 26 0M725 350l0 -1 7 0 0 -2 27 0M759 349l0 -2M759 348l19 0M778 349l0 -1 8 0M786 349l0 -1M786 349l26 0M812 350l0 -1M812 350l1 0 0 -1 17 0 1 1 0 -1"/>
<path stroke="red" d="M831 349l87 0M918 351l0 -19 1 -5 0 -21 1 -2 0 -5 1 -1 0 -1 1 0 0 -1 1 0 0 -1M923 296l13 0M936 297l0 -1 14 0 0 -1M950 296l12 0 0 -1 12 0"/>
<path stroke="blue" d="M50 23l46 0"/>
<text stroke="none" fill="white" font-size="16" x="106" y="32">
x1.vsampled_n
</text>
<path stroke="blue" d="M50 431l1 0 1 -7 0 -15 1 -14 0 -5 1 2M54 414l0 -37 1 -4 0 -17 1 -2 0 -3 1 -1 2 0 1 -1 4 0M64 350l0 -1M64 350l4 0 1 -1 48 0M117 362l0 -13M117 362l1 14M118 390l0 -14M118 390l1 4M119 398l0 -4M119 398l1 2M120 402l0 -2M120 402l2 0"/>
<path stroke="blue" d="M122 403l0 -1M122 403l424 0 0 -21 1 -3 0 -25 1 -4 0 -6 1 -1 0 -1 5 0 0 -1 12 0 1 1 13 0 0 -1 13 0M593 342l0 -1M593 342l13 0 0 -1 1 0M607 342l0 -1M607 342l1 0 0 -1M608 342l11 0 0 -1M619 342l14 0 0 -1 13 0M646 342l0 -1M646 342l13 0"/>
<path stroke="blue" d="M659 342l0 -1 1 0M660 342l0 -1 1 1 11 0 0 -1M672 342l7 0M679 348l0 -6M679 348l1 1M680 350l0 -3 6 0 0 -1M686 347l20 0M706 351l0 -4M706 350l1 0 0 -1 18 0M725 350l0 -1 26 0M751 350l0 -1M751 350l1 -1 26 0M778 350l0 -1 26 0"/>
<path stroke="blue" d="M804 350l0 -1 27 0M831 350l0 -1 26 0M857 350l0 -1 26 0M883 350l0 -1 27 0M910 350l0 -1 8 0M918 389l0 -47M918 389l1 8M919 406l0 -9M919 406l1 0 0 -2 1 0 0 -1 53 0"/>
<path stroke="#FFA500" d="M462 39l46 0"/>
<text stroke="none" fill="white" font-size="16" x="518" y="48">
x1.vsampled_p-x1.vsampled_n
</text>
<path stroke="#FFA500" d="M50 431l2 0 1 -1 1 0M54 431l0 -1M54 431l63 0 0 -14 1 -24 0 -37 1 -10 0 -11 1 -5 0 -3 1 -2 1 -1 418 0M540 325l0 -1 6 0M546 345l0 -21M546 345l1 3M547 373l0 -25M547 373l1 4M548 382l0 -5M548 382l1 2 1 1 17 0M567 386l0 -1"/>
<path stroke="#FFA500" d="M567 385l7 0M574 408l0 -23M574 408l1 8M575 424l0 -8M575 424l1 2 24 0M600 439l0 -13M600 439l1 3M601 447l0 -5M601 447l1 0 0 -1 4 0M606 447l0 -1M606 447l1 0 0 -1 1 0M608 447l0 -1 11 0M619 447l0 -1 6 0 0 -6 1 -2 0 -8 1 0"/>
<path stroke="#FFA500" d="M627 430l0 -1 19 0 0 -1M646 429l7 0M653 436l0 -8M653 436l1 1M654 439l0 -2M654 439l18 0 0 -1M672 439l7 0 0 -7 1 -1M680 433l0 -3M680 433l1 1 25 0 0 -5M706 430l1 1 25 0 0 -2 1 0 0 -1M733 429l26 0M759 431l0 -2M759 430l27 0"/>
<path stroke="#FFA500" d="M786 431l0 -1M786 431l26 0M812 432l0 -1M812 432l1 0 0 -1 105 0M918 436l0 -62 1 -13 0 -29 1 -3 0 -3 1 -1 1 0 0 -1 1 0 0 -1M923 324l13 0M936 325l0 -1 14 0 0 -1M950 324l24 0"/>
<path stroke="green" d="M50 39l46 0"/>
<text stroke="none" fill="white" font-size="16" x="106" y="48">
x1.sw_sample-2
</text>
<path stroke="green" d="M50 613l1 0 1 -9 0 -21 1 -21M53 580l0 -24M53 580l1 30M54 613l0 -3M54 613l63 0M117 620l0 -172M117 449l422 0M539 614l0 -171M539 613l422 0M961 618l0 -170 1 1 12 0"/>
<path stroke="#FFC0C5" d="M462 55l46 0"/>
<text stroke="none" fill="white" font-size="16" x="518" y="64">
x1.comp_out_p+2
</text>
<path stroke="#FFC0C5" d="M50 249l1 0 1 -9 0 -22 1 -18 0 -4M53 198l1 5M54 250l0 -47M54 248l1 1 486 0 1 4 0 -170M542 85l13 0M555 249l0 -174M555 249l13 0M568 251l0 -167M568 85l13 0 0 -8 1 159M582 249l0 -13M582 249l12 0M594 250l0 -167M594 85l14 0"/>
<path stroke="#FFC0C5" d="M608 250l0 -173M608 249l39 0 0 -165M647 85l14 0M661 249l0 -174M661 249l92 0 0 -165M753 85l13 0M766 249l0 -173M766 249l14 0M780 251l0 -167M780 85l13 0M793 249l0 -174M793 249l14 0 0 -165 1 1 11 0M819 249l0 -167M819 249l41 0"/>
<path stroke="#FFC0C5" d="M860 249l0 -164 12 0M872 249l0 -174M872 249l14 0 0 -157 1 -8M887 85l0 -1M887 85l11 0M898 249l0 -174M898 249l15 0 0 -165M913 85l12 0M925 249l0 -172M925 249l12 0M937 250l0 -1M937 250l1 -79 0 -87M938 85l13 0M951 249l0 -172"/>
<path stroke="#FFC0C5" d="M951 249l23 0"/>
<path stroke="#A52A2A" d="M50 55l46 0"/>
<text stroke="none" fill="white" font-size="16" x="106" y="64">
x1.comp_out_n-2
</text>
<path stroke="#A52A2A" d="M50 613l1 0 1 -9 0 -22 1 -19M53 564l0 -3M53 564l1 6M54 614l0 -79 1 74M55 613l0 -4M55 613l566 0M621 614l0 -167M621 449l13 0M634 613l0 -173M634 613l13 0M647 614l0 -1 26 0 0 -54 1 -97 0 -14M674 449l13 0M687 613l0 -172M687 613l13 0"/>
<path stroke="#A52A2A" d="M700 614l0 -167M700 449l13 0 0 -10 1 154M714 613l0 -20M714 613l14 0 0 -165 1 1 11 0M740 613l0 -173M740 613l94 0 0 -165M834 449l11 0 0 -2 1 155M846 613l0 -11M846 613l128 0"/>
</svg>
