<?xml version="1.0" standalone="yes"?>
<!DOCTYPE svg PUBLIC "-//W3C//DTD SVG 1.1//EN"
 "http://www.w3.org/Graphics/SVG/1.1/DTD/svg11.dtd">
<svg xmlns="http://www.w3.org/2000/svg" version="1.1"
  width="100%" height="100%" viewBox="0 0 1024 768"
  style="fill: none; font-family: Helvetica;
 font: Helvetica;
">

<!-- Creator: NGspice -->

<rect x="0" y="0" width="1024" height="768" fill="black" stroke="none"/>
<text stroke="none" fill="white" font-size="16" x="358" y="752">
time
</text>
<text stroke="none" fill="white" font-size="16" x="10" y="16">
tran1: run254_vin0.665944
</text>
<path stroke="white" d="M50 704l0 -637"/>
<text stroke="none" fill="white" font-size="16" x="35" y="728">
0.0
</text>
<path stroke="white" stroke-dasharray="1,2" d="M182 704l0 -637"/>
<text stroke="none" fill="white" font-size="16" x="157" y="728">
100.0
</text>
<path stroke="white" stroke-dasharray="1,2" d="M314 704l0 -637"/>
<text stroke="none" fill="white" font-size="16" x="289" y="728">
200.0
</text>
<path stroke="white" stroke-dasharray="1,2" d="M446 704l0 -637"/>
<text stroke="none" fill="white" font-size="16" x="421" y="728">
300.0
</text>
<path stroke="white" stroke-dasharray="1,2" d="M578 704l0 -637"/>
<text stroke="none" fill="white" font-size="16" x="553" y="728">
400.0
</text>
<path stroke="white" stroke-dasharray="1,2" d="M710 704l0 -637"/>
<text stroke="none" fill="white" font-size="16" x="685" y="728">
500.0
</text>
<path stroke="white" stroke-dasharray="1,2" d="M842 704l0 -637"/>
<text stroke="none" fill="white" font-size="16" x="817" y="728">
600.0
</text>
<path stroke="white" stroke-dasharray="1,2" d="M974 704l0 -637"/>
<text stroke="none" fill="white" font-size="16" x="949" y="728">
700.0
</text>
<text stroke="none" fill="white" font-size="16" x="614" y="752">
ns
</text>
<path stroke="white" stroke-dasharray="1,2" d="M50 704l924 0"/>
<text stroke="none" fill="white" font-size="16" x="8" y="712">
-2.5
</text>
<path stroke="white" stroke-dasharray="1,2" d="M50 655l924 0"/>
<text stroke="none" fill="white" font-size="16" x="8" y="663">
-2.0
</text>
<path stroke="white" stroke-dasharray="1,2" d="M50 606l924 0"/>
<text stroke="none" fill="white" font-size="16" x="8" y="614">
-1.5
</text>
<path stroke="white" stroke-dasharray="1,2" d="M50 557l924 0"/>
<text stroke="none" fill="white" font-size="16" x="8" y="565">
-1.0
</text>
<path stroke="white" stroke-dasharray="1,2" d="M50 508l924 0"/>
<text stroke="none" fill="white" font-size="16" x="8" y="516">
-0.5
</text>
<path stroke="white" d="M50 459l924 0"/>
<text stroke="none" fill="white" font-size="16" x="18" y="467">
0.0
</text>
<path stroke="white" stroke-dasharray="1,2" d="M50 410l924 0"/>
<text stroke="none" fill="white" font-size="16" x="18" y="418">
0.5
</text>
<path stroke="white" stroke-dasharray="1,2" d="M50 361l924 0"/>
<text stroke="none" fill="white" font-size="16" x="18" y="369">
1.0
</text>
<path stroke="white" stroke-dasharray="1,2" d="M50 312l924 0"/>
<text stroke="none" fill="white" font-size="16" x="18" y="320">
1.5
</text>
<path stroke="white" stroke-dasharray="1,2" d="M50 263l924 0"/>
<text stroke="none" fill="white" font-size="16" x="18" y="271">
2.0
</text>
<path stroke="white" stroke-dasharray="1,2" d="M50 214l924 0"/>
<text stroke="none" fill="white" font-size="16" x="18" y="222">
2.5
</text>
<path stroke="white" stroke-dasharray="1,2" d="M50 165l924 0"/>
<text stroke="none" fill="white" font-size="16" x="18" y="173">
3.0
</text>
<path stroke="white" stroke-dasharray="1,2" d="M50 116l924 0"/>
<text stroke="none" fill="white" font-size="16" x="18" y="124">
3.5
</text>
<path stroke="white" stroke-dasharray="1,2" d="M50 67l924 0"/>
<text stroke="none" fill="white" font-size="16" x="18" y="75">
4.0
</text>
<text stroke="none" fill="white" font-size="16" x="10" y="32">
     
</text>
<path stroke="red" d="M462 23l46 0"/>
<text stroke="none" fill="white" font-size="16" x="518" y="32">
x1.vsampled_p
</text>
<path stroke="red" d="M50 459l1 0 1 -7 0 -17 1 -16 0 -5 1 2M54 441l0 -40 1 -5 0 -17 1 -3 0 -2 1 -2 1 0 0 -1 59 0 0 -2 1 -11 0 -33 1 -5 0 -8 1 -3 1 -2 0 -1 419 0M540 307l0 -1 14 0 0 -1M554 306l13 0M567 307l0 -1 7 0M574 333l0 -27M574 333l1 8M575 349l0 -8"/>
<path stroke="red" d="M575 349l1 1 17 0M593 351l0 -1 7 0M600 364l0 -14M600 364l1 2M601 373l0 -7M601 373l1 -1 24 0 0 -12 1 -1 0 -5 1 -1 5 0 0 -1M633 353l13 0 0 -1M646 353l7 0M653 361l0 -8M653 361l1 3 5 0 0 -1M659 364l20 0M679 369l0 -5M679 369l1 1"/>
<path stroke="red" d="M680 370l0 -1 26 0M706 372l0 -3M706 372l26 0 0 -3 19 0M751 370l0 -1M751 370l1 0 0 -1 7 0M759 372l0 -3M759 371l159 0M918 373l0 -22 1 -3 0 -29 1 -3 0 -4 1 -3 0 -2 1 0 0 -1 1 0 0 -1M923 306l13 0M936 307l0 -1 14 0 0 -1M950 306l12 0"/>
<path stroke="red" d="M962 306l0 -1 1 0 1 1 10 0"/>
<path stroke="blue" d="M50 23l46 0"/>
<text stroke="none" fill="white" font-size="16" x="106" y="32">
x1.vsampled_n
</text>
<path stroke="blue" d="M50 459l1 0 1 -7 0 -17 1 -15 0 -5 1 2M54 441l0 -40 1 -5 0 -17 1 -3 0 -2 1 -2 1 0 0 -1 59 0M117 388l0 -17M117 388l1 16M118 424l0 -20M118 424l1 3M119 432l0 -5M119 432l1 2 1 1M121 436l0 -1M121 436l425 0 0 -23 1 -2 0 -25 1 -7"/>
<path stroke="blue" d="M548 379l0 -4 1 -3 0 -1 1 0 1 -1 16 0M567 371l0 -1 26 0M593 371l0 -1 26 0M619 371l0 -1 27 0M646 371l0 -1 26 0M672 371l0 -1 27 0M699 371l0 -1 26 0M725 371l0 -1 26 0M751 371l0 -1 27 0M778 371l0 -1 7 0 1 1M786 372l0 -1 27 0"/>
<path stroke="blue" d="M813 372l0 -1M813 372l1 -1 17 0M831 372l0 -1 7 0 0 -1M838 371l80 0M918 405l0 -36M918 405l1 5M919 441l0 -31M919 441l1 0 0 -2 1 -1 0 -1 1 0 0 -1 52 0"/>
<path stroke="#FFA500" d="M462 39l46 0"/>
<text stroke="none" fill="white" font-size="16" x="518" y="48">
x1.vsampled_p-x1.vsampled_n
</text>
<path stroke="#FFA500" d="M50 459l2 0 0 -1 2 0M54 459l0 -1M54 459l63 0 0 -18 1 -28 0 -54 1 -7 0 -14 1 -4 1 -3 0 -1 1 -1 2 0 1 -1 414 0M539 329l0 -1M539 329l1 0 0 -1M540 329l6 0M546 352l0 -23M546 352l1 2M547 379l0 -25M547 379l1 7M548 390l0 -4"/>
<path stroke="#FFA500" d="M548 390l1 2M549 394l0 -2M549 394l1 0 1 1 3 0 0 -1M554 395l13 0M567 396l0 -2M567 395l7 0M574 422l0 -27M574 422l1 8M575 438l0 -8M575 438l1 1 17 0 0 -1M593 439l7 0M600 452l0 -14M600 452l1 2M601 462l0 -8M601 461l18 0 0 -1"/>
<path stroke="#FFA500" d="M619 461l7 0 0 -13 1 -1 0 -4 2 -2 4 0M633 442l0 -1 13 0M646 442l0 -1 7 0M653 450l0 -9M653 450l1 3 1 0 0 -1 4 0M659 453l0 -1 13 0M672 453l0 -1M672 453l1 0 0 -1 6 0M679 458l0 -6M679 458l1 1 0 -1 26 0M706 461l0 -3M706 461l19 0"/>
<path stroke="#FFA500" d="M725 461l0 -1M725 461l7 0 0 -3 27 0M759 460l0 -2M759 460l19 0 0 -1M778 460l7 0 1 -1 0 -1M786 459l27 0 0 -1 1 0M814 459l0 -1M814 459l17 0 0 -1M831 459l7 0M838 460l0 -1 80 0M918 462l0 -57 1 -8 0 -60 1 -2 0 -3 1 -2 0 -1"/>
<path stroke="#FFA500" d="M921 329l2 0 0 -1M923 329l13 0M936 330l0 -1 14 0 0 -1M950 329l12 0 0 -1 12 0"/>
<path stroke="green" d="M50 39l46 0"/>
<text stroke="none" fill="white" font-size="16" x="106" y="48">
x1.sw_sample-2
</text>
<path stroke="green" d="M50 655l1 0 1 -10 0 -23 1 -21M53 619l0 -25M53 619l1 33M54 655l0 -3M54 655l63 0M117 662l0 -184 1 0M118 479l0 -1M118 479l421 0M539 656l0 -184M539 655l422 0M961 660l0 -182 1 0M962 479l0 -1M962 479l12 0"/>
<path stroke="#FFC0C5" d="M462 55l46 0"/>
<text stroke="none" fill="white" font-size="16" x="518" y="64">
x1.comp_out_p+2
</text>
<path stroke="#FFC0C5" d="M50 263l1 0 1 -10 0 -23 1 -20 0 -4M53 208l1 5M54 263l0 -50M54 262l1 1 486 0 1 1 0 -179M542 87l13 0M555 263l0 -185M555 263l13 0 0 -178M568 87l13 0 0 -9 1 165M582 263l0 -20M582 263l12 0 0 -178M594 86l1 1 13 0M608 264l0 -187"/>
<path stroke="#FFC0C5" d="M608 263l39 0M647 264l0 -179M647 87l14 0M661 263l0 -184M661 263l12 0M673 269l0 -6M673 269l1 -134 0 -50M674 87l13 0M687 263l0 -185M687 263l13 0 0 -168 1 -10M701 87l0 -2M701 87l12 0 0 -10 1 174M714 264l0 -13M714 263l39 0"/>
<path stroke="#FFC0C5" d="M753 264l0 -178 1 0M754 87l0 -1M754 87l12 0M766 263l0 -184M766 263l67 0 1 -161 0 -16M834 87l11 0 0 -3M845 86l1 162M846 263l0 -15M846 263l14 0 0 -177 1 0M861 87l0 -1M861 87l11 0M872 263l0 -179M872 263l14 0 1 -165 0 -12"/>
<path stroke="#FFC0C5" d="M887 87l11 0M898 263l0 -179M898 263l15 0 0 -178M913 87l12 0M925 264l0 -187M925 263l12 0M937 264l0 -1M937 264l1 -65 0 -114M938 87l13 0M951 263l0 -185M951 263l23 0"/>
<path stroke="#A52A2A" d="M50 55l46 0"/>
<text stroke="none" fill="white" font-size="16" x="106" y="64">
x1.comp_out_n-2
</text>
<path stroke="#A52A2A" d="M50 655l1 0 1 -10 0 -24 1 -20M53 602l0 -3M53 602l1 7M54 656l0 -56M54 626l1 27M55 655l0 -2M55 655l487 0M542 656l0 -1 79 0M621 656l0 -1M621 656l1 -158 0 -20M622 479l12 0M634 655l0 -186M634 655l93 0M727 656l0 -178M727 479l13 0"/>
<path stroke="#A52A2A" d="M740 655l0 -186M740 655l40 0 0 -177 1 1 12 0M793 655l0 -183M793 655l15 0 0 -177M808 479l11 0M819 655l0 -187M819 655l119 0M938 656l0 -1 36 0"/>
</svg>
